<?xml version="1.0" encoding="UTF-8" standalone="no"?>
<!-- Created with Inkscape (http://www.inkscape.org/) -->

<svg
   xmlns:dc="http://purl.org/dc/elements/1.1/"
   xmlns:cc="http://creativecommons.org/ns#"
   xmlns:rdf="http://www.w3.org/1999/02/22-rdf-syntax-ns#"
   xmlns:svg="http://www.w3.org/2000/svg"
   xmlns="http://www.w3.org/2000/svg"
   xmlns:sodipodi="http://sodipodi.sourceforge.net/DTD/sodipodi-0.dtd"
   xmlns:inkscape="http://www.inkscape.org/namespaces/inkscape"
   width="1280"
   height="720"
   viewBox="0 0 338.66666 190.50001"
   id="svg2"
   version="1.1"
   inkscape:version="0.92.1 r15371"
   sodipodi:docname="hyung-ki-joo-interview-video-thumbnail.svg"
   inkscape:export-filename="C:\Users\Anthony Garone\Documents\GitHub\art\igudesman-and-joo\interview\hyung-ki-joo-interview-video-thumbnail.png"
   inkscape:export-xdpi="144"
   inkscape:export-ydpi="144">
  <defs
     id="defs4" />
  <sodipodi:namedview
     id="base"
     pagecolor="#ffffff"
     bordercolor="#666666"
     borderopacity="1.0"
     inkscape:pageopacity="0.0"
     inkscape:pageshadow="2"
     inkscape:zoom="0.98994949"
     inkscape:cx="606.0261"
     inkscape:cy="398.3756"
     inkscape:document-units="px"
     inkscape:current-layer="layer4"
     showgrid="false"
     units="px"
     inkscape:window-width="1920"
     inkscape:window-height="1017"
     inkscape:window-x="-8"
     inkscape:window-y="-8"
     inkscape:window-maximized="1" />
  <metadata
     id="metadata7">
    <rdf:RDF>
      <cc:Work
         rdf:about="">
        <dc:format>image/svg+xml</dc:format>
        <dc:type
           rdf:resource="http://purl.org/dc/dcmitype/StillImage" />
        <dc:title />
      </cc:Work>
    </rdf:RDF>
  </metadata>
  <g
     inkscape:label="Gray BG"
     inkscape:groupmode="layer"
     id="layer1"
     transform="translate(0,-106.49999)">
    <rect
       style="opacity:1;fill:#313133;fill-opacity:1;stroke:none;stroke-width:16.0535984;stroke-miterlimit:4;stroke-dasharray:none;stroke-opacity:1"
       id="rect4141"
       width="338.66669"
       height="190.5"
       x="1.4210855e-14"
       y="106.49999" />
  </g>
  <g
     inkscape:groupmode="layer"
     id="layer2"
     inkscape:label="Orange Banner">
    <rect
       style="opacity:1;fill:#de3d2d;fill-opacity:1;stroke:none;stroke-width:11.03082752;stroke-miterlimit:4;stroke-dasharray:none;stroke-opacity:1"
       id="rect4144"
       width="338.66669"
       height="43.65625"
       x="0"
       y="146.84375" />
  </g>
  <g
     inkscape:label="Blue Banner"
     id="g4203"
     inkscape:groupmode="layer">
    <rect
       y="146.84375"
       x="0"
       height="43.65625"
       width="338.66669"
       id="rect4205"
       style="opacity:1;fill:#407d93;fill-opacity:1;stroke:none;stroke-width:11.03082752;stroke-miterlimit:4;stroke-dasharray:none;stroke-opacity:1" />
  </g>
  <g
     inkscape:groupmode="layer"
     id="layer3"
     inkscape:label="Discover"
     style="display:none">
    <text
       xml:space="preserve"
       style="font-style:normal;font-variant:normal;font-weight:normal;font-stretch:normal;line-height:0%;font-family:Museo;-inkscape-font-specification:'Museo, Normal';text-align:start;letter-spacing:0px;word-spacing:0px;writing-mode:lr-tb;text-anchor:start;fill:#ffffff;fill-opacity:1;stroke:none;stroke-width:0.50668812px;stroke-linecap:butt;stroke-linejoin:miter;stroke-opacity:1"
       x="173.85484"
       y="40.767208"
       id="text4147"><tspan
         sodipodi:role="line"
         id="tspan4164"
         x="173.85484"
         y="40.767208"
         style="font-size:20.26743698px;line-height:1.25">DISCOVER:</tspan></text>
  </g>
  <g
     inkscape:groupmode="layer"
     id="layer6"
     inkscape:label="WEIRD">
    <path
       style="opacity:1;fill:#ffffff;fill-opacity:1;stroke:none;stroke-width:17.2258606;stroke-miterlimit:4;stroke-dasharray:none;stroke-opacity:1"
       d="M 245.3457 602.625 L 245.3457 672.625 L 495.3457 672.625 L 495.3457 602.625 L 245.3457 602.625 z M 254.20703 613.5 L 258.08398 613.5 C 261.48345 613.5 263.18217 614.17987 263.99805 617.44336 L 271.4082 648.31055 C 272.02011 650.89414 272.36133 653.41016 272.36133 653.41016 L 272.49609 653.41016 C 272.49609 653.41016 272.90446 650.96213 273.65234 648.31055 L 283.30664 613.63477 L 289.42578 613.63477 L 298.40039 648.31055 C 299.08028 650.96213 299.41992 653.41016 299.41992 653.41016 L 299.55664 653.41016 C 299.55664 653.41016 299.8295 650.89414 300.44141 648.31055 L 307.98828 617.44336 C 308.80415 614.17987 310.43452 613.5 313.83398 613.5 L 317.70898 613.5 L 317.70898 619.3457 L 316.68945 619.3457 C 315.46565 619.3457 314.71885 619.61799 314.37891 620.8418 L 303.83984 661.5 L 295.95312 661.5 L 287.79492 631.17773 C 286.97905 628.05022 286.43555 624.58203 286.43555 624.58203 L 286.29883 624.58203 C 286.29883 624.58203 285.61824 628.04985 284.73438 631.10938 L 276.0332 661.5 L 268.07812 661.5 L 257.53906 620.8418 C 257.19912 619.61799 256.45232 619.3457 255.22852 619.3457 L 254.20703 619.3457 L 254.20703 613.5 z M 326.5 613.5 L 354.7168 613.5 C 357.77632 613.5 359.06641 614.79204 359.06641 617.85156 L 359.06641 623.90234 L 352.88086 623.90234 L 352.88086 620.8418 C 352.88086 619.82196 352.33662 619.3457 351.38477 619.3457 L 337.71875 619.3457 L 337.71875 634.37305 L 354.51172 634.37305 L 354.51172 640.21875 L 337.71875 640.21875 L 337.71875 654.15625 C 337.71875 655.1081 338.26299 655.65234 339.21484 655.65234 L 353.2207 655.65234 C 354.17255 655.65234 354.7168 655.1081 354.7168 654.15625 L 354.7168 651.09766 L 360.9707 651.09766 L 360.9707 657.14844 C 360.9707 660.20796 359.67866 661.5 356.61914 661.5 L 335.27148 661.5 C 332.21196 661.5 330.91992 660.20796 330.91992 657.14844 L 330.91992 619.3457 L 326.5 619.3457 L 326.5 613.5 z M 370.41406 613.5 L 386.25586 613.5 L 386.25586 619.3457 L 381.56445 619.3457 L 381.56445 655.65234 L 386.25586 655.65234 L 386.25586 661.5 L 370.41406 661.5 L 370.41406 655.65234 L 375.10547 655.65234 L 375.10547 619.3457 L 370.41406 619.3457 L 370.41406 613.5 z M 396.6543 613.5 L 417.5957 613.5 C 426.02638 613.5 431.94141 618.80359 431.94141 627.57422 C 431.94141 635.59696 426.70611 639.53923 423.30664 640.28711 L 423.30664 640.42383 C 423.30664 640.42383 424.52983 641.03585 425.3457 642.59961 L 431.125 654.08984 C 431.80489 655.51762 432.89365 655.65234 434.52539 655.65234 L 435.4082 655.65234 L 435.4082 661.5 L 432.07812 661.5 C 428.33871 661.5 426.97782 661.02399 425.41406 657.89648 L 418.88672 644.97852 C 417.66291 642.73487 416.78049 642.39453 414.12891 642.39453 L 407.87305 642.39453 L 407.87305 661.5 L 401.07422 661.5 L 401.07422 619.3457 L 396.6543 619.3457 L 396.6543 613.5 z M 443.75 613.5 L 463.19531 613.5 C 477.81302 613.5 487.4668 622.27002 487.4668 637.43164 C 487.4668 652.66125 477.81302 661.5 463.19531 661.5 L 452.51953 661.5 C 449.46001 661.5 448.16992 660.20796 448.16992 657.14844 L 448.16992 619.3457 L 443.75 619.3457 L 443.75 613.5 z M 407.87305 619.3457 L 407.87305 636.54883 L 416.71094 636.54883 C 421.87813 636.54883 424.9375 633.21686 424.9375 627.8457 C 424.9375 622.47455 421.87887 619.3457 416.84766 619.3457 L 407.87305 619.3457 z M 454.96875 619.3457 L 454.96875 654.15625 C 454.96875 655.1081 455.51299 655.65234 456.46484 655.65234 L 462.71875 655.65234 C 473.39308 655.65234 480.39648 649.26179 480.39648 637.43164 C 480.39648 625.66949 473.32509 619.3457 462.71875 619.3457 L 454.96875 619.3457 z "
       transform="scale(0.26458334)"
       id="rect4172" />
  </g>
  <g
     inkscape:groupmode="layer"
     id="layer7"
     inkscape:label="MAKE">
    <text
       xml:space="preserve"
       style="font-style:normal;font-variant:normal;font-weight:normal;font-stretch:normal;line-height:0%;font-family:Museo;-inkscape-font-specification:'Museo, Normal';text-align:start;letter-spacing:0px;word-spacing:0px;writing-mode:lr-tb;text-anchor:start;fill:#ffffff;fill-opacity:1;stroke:none;stroke-width:0.26458335px;stroke-linecap:butt;stroke-linejoin:miter;stroke-opacity:1"
       x="10.690782"
       y="175.02188"
       id="text4175"><tspan
         sodipodi:role="line"
         id="tspan4177"
         x="10.690782"
         y="175.02188"
         style="font-style:normal;font-variant:normal;font-weight:normal;font-stretch:normal;font-size:17.99166679px;line-height:100%;font-family:Museo;-inkscape-font-specification:'Museo, Normal';text-align:start;letter-spacing:1.32291675px;writing-mode:lr-tb;text-anchor:start;fill:#ffffff;fill-opacity:1;stroke-width:0.26458335px">MAKE</tspan></text>
  </g>
  <g
     inkscape:groupmode="layer"
     id="layer8"
     inkscape:label="MUSIC">
    <text
       xml:space="preserve"
       style="font-style:normal;font-variant:normal;font-weight:normal;font-stretch:normal;line-height:0%;font-family:Museo;-inkscape-font-specification:'Museo, Normal';text-align:start;letter-spacing:0px;word-spacing:0px;writing-mode:lr-tb;text-anchor:start;fill:#ffffff;fill-opacity:1;stroke:none;stroke-width:0.26458335px;stroke-linecap:butt;stroke-linejoin:miter;stroke-opacity:1"
       x="134.21758"
       y="174.80598"
       id="text4180"><tspan
         sodipodi:role="line"
         id="tspan4182"
         x="134.21758"
         y="174.80598"
         style="font-style:normal;font-variant:normal;font-weight:normal;font-stretch:normal;font-size:17.99166679px;line-height:100%;font-family:Museo;-inkscape-font-specification:'Museo, Normal';text-align:start;writing-mode:lr-tb;text-anchor:start;fill:#ffffff;fill-opacity:1;stroke-width:0.26458335px">MUSIC</tspan></text>
    <g
       id="g1130"
       transform="matrix(0.63902584,0,0,0.63902584,170.40889,-22.231835)">
      <g
         style="display:none"
         transform="translate(0,-32.41665)"
         id="layer1-7"
         inkscape:label="BG">
        <rect
           y="32.416653"
           x="0"
           height="264.58334"
           width="264.58334"
           id="rect5606"
           style="opacity:1;fill:#ffffff;fill-opacity:1;stroke:none;stroke-width:11.60810661;stroke-miterlimit:4;stroke-dasharray:none;stroke-opacity:1" />
      </g>
      <g
         style="display:inline"
         inkscape:label="Joo"
         id="layer3-8">
        <path
           sodipodi:nodetypes="ccsssssssssssssccccsscc"
           inkscape:connector-curvature="0"
           id="path4870"
           d="m 64.44494,200.32738 9.921875,-9.07143 c 0,0 -0.472472,-15.44978 -0.141743,-16.01674 0.330729,-0.56697 4.819198,-4.34673 5.527903,-5.48066 0.708705,-1.13392 0.755951,-1.55915 1.228423,-2.03162 0.472469,-0.47247 1.937128,-1.65364 2.267858,-3.1183 0.330729,-1.46466 0.283482,-6.14211 1.606399,-8.92969 1.322916,-2.78757 6.378347,-17.15067 6.47284,-23.0093 0.0945,-5.85863 -1.984374,-7.46503 -1.984374,-8.50446 0,-1.03944 0,-2.83482 -0.377976,-3.68527 -0.377976,-0.85045 -1.181177,-1.6064 -1.133928,-2.4096 0.04725,-0.8032 0.330729,-1.74814 0.236234,-2.59859 -0.09449,-0.85044 -0.708705,-2.59858 -0.708705,-3.96875 0,-1.37016 0.330729,-1.98437 -0.425223,-3.21279 -0.755952,-1.22842 -2.315104,-2.50409 -2.929316,-4.53572 -0.614211,-2.03162 -0.566965,-12.189729 -0.566965,-12.189729 L 65.767857,84.194194 37.514135,88.540922 27.167038,124.54315 c 0,0 -8.362723,17.71763 -6.803571,19.18229 1.559152,1.46466 6.425596,2.03162 6.850818,3.9215 0.425223,1.88989 1.086683,22.77307 1.086683,22.77307 z"
           style="fill:#e5c7b3;fill-opacity:1;fill-rule:evenodd;stroke:none;stroke-width:0.26458332px;stroke-linecap:butt;stroke-linejoin:miter;stroke-opacity:1" />
        <path
           inkscape:connector-curvature="0"
           id="path4872"
           d="m 53.436384,122.84226 c 0,0 1.819011,-1.70089 4.606584,-2.50409 2.787573,-0.8032 5.905878,-0.85045 5.882254,-0.94494 -0.02363,-0.0945 -3.70889,-0.0709 -5.551525,0.44884 -1.842635,0.51972 -4.441219,2.12612 -4.937313,3.00019 z"
           style="fill:#c49676;fill-opacity:1;fill-rule:evenodd;stroke:none;stroke-width:0.26458332px;stroke-linecap:butt;stroke-linejoin:miter;stroke-opacity:1" />
        <path
           inkscape:connector-curvature="0"
           id="path4874"
           d="m 64.303197,120.33817 c 0.377979,-0.16537 2.645834,-1.32292 3.118306,-1.27567 0.472469,0.0473 1.133927,0.63783 1.133927,0.63783 0,0 -0.496094,-0.51971 -0.307105,-1.41741 0.188987,-0.89769 -0.04725,-1.44103 0.685081,-0.77957 0.732329,0.66145 0.826823,1.5119 1.81901,1.44103 0.99219,-0.0709 2.008,-0.49609 1.842635,-0.61421 -0.165364,-0.11812 -1.322916,0.63784 -1.866257,0.25986 -0.54334,-0.37798 -1.724517,-1.7009 -2.315104,-1.7009 -0.590587,0 -0.118118,0.87407 -0.519718,0.87407 -0.401598,0 -0.779577,-1.06305 -1.204799,-0.85044 -0.425223,0.21261 -2.007997,1.93713 -2.622209,2.008 -0.614211,0.0709 2.29148,-0.28348 0.236233,1.41741 z"
           style="fill:#c49676;fill-opacity:1;fill-rule:evenodd;stroke:none;stroke-width:0.26458332px;stroke-linecap:butt;stroke-linejoin:miter;stroke-opacity:1" />
        <path
           inkscape:connector-curvature="0"
           id="path4876"
           d="m 50.908666,119.18062 c 0,0 5.268045,-1.03944 6.000375,-1.32292 0.732327,-0.28348 3.260042,-0.94494 3.354538,-0.51972 0.09449,0.42522 -1.039434,0.51972 -1.039434,0.51972 0,0 2.007997,-0.33073 2.622208,-0.28348 0.614212,0.0472 1.582775,0.66146 1.582775,0.66146 0,0 -1.157552,-1.06306 -1.606399,-1.06306 -0.448845,0 -0.708705,0.11811 -0.897692,0.0236 -0.188989,-0.0945 0.307105,-0.49609 -0.826823,-0.49609 -1.13393,0 -3.260045,1.11031 -4.630208,1.37016 -1.370163,0.25986 -4.039621,0.8032 -4.55934,1.11031 z"
           style="fill:#c49676;fill-opacity:1;fill-rule:evenodd;stroke:none;stroke-width:0.26458332px;stroke-linecap:butt;stroke-linejoin:miter;stroke-opacity:1" />
        <path
           inkscape:connector-curvature="0"
           id="path4878"
           d="m 50.908666,115.21187 c 0,-0.25986 1.819011,-0.16537 2.622212,0.0472 0.803198,0.21261 1.370163,0.54334 1.771763,0.61421 0.401598,0.0709 1.937129,0.11812 2.220609,-0.11811 0.283482,-0.23624 3.023811,-1.55916 5.031808,-1.48828 2.008,0.0709 3.779764,0.42522 4.488469,1.01581 0.708705,0.59058 2.149739,1.01581 1.748139,1.08668 -0.401601,0.0709 -1.913504,0.0709 -1.937129,-0.16537 -0.02363,-0.23623 0.118118,-1.1103 -2.149739,-1.41741 -2.267858,-0.3071 -6.709077,0.44885 -6.401972,0.8032 0.307107,0.35435 1.204799,0 1.13393,0.23624 -0.07087,0.23623 -1.81901,0.47247 -3.047434,0.49609 -1.228423,0.0236 -2.740326,0.21261 -2.740326,0.21261 0,0 1.724514,-0.21261 1.393785,-0.35435 -0.330729,-0.14174 -0.401598,-0.4016 -1.55915,-0.51972 -1.157552,-0.11811 -2.858444,-0.16536 -2.574965,-0.44884 z"
           style="fill:#65442d;fill-opacity:1;fill-rule:evenodd;stroke:none;stroke-width:0.26458332px;stroke-linecap:butt;stroke-linejoin:miter;stroke-opacity:1" />
        <path
           inkscape:connector-curvature="0"
           id="path4880"
           d="m 59.625743,115.88355 c 0.04725,-0.43047 1.511905,-0.58421 2.385975,-0.64571 0.87407,-0.0614 0.779576,-0.24597 1.653646,-0.15373 0.874069,0.0923 1.039434,0.5227 1.511906,0.55346 0.472469,0.0308 1.346538,0.15374 1.275667,0.49195 -0.07087,0.33823 -1.275667,0.24599 -1.748139,0.0614 -0.472469,-0.18449 -0.755952,-0.46122 -1.464657,-0.46122 -0.708705,0 -3.330916,0.30748 -3.614398,0.15374 z"
           style="fill:#322116;fill-opacity:1;fill-rule:evenodd;stroke:none;stroke-width:0.30185455px;stroke-linecap:butt;stroke-linejoin:miter;stroke-opacity:1" />
        <path
           inkscape:connector-curvature="0"
           id="path4882"
           d="m 69.500371,115.99144 c 0,-0.23623 2.811198,-0.82682 2.622211,-0.51972 -0.188989,0.30711 -1.464659,0.11812 -1.110305,0.4016 0.354351,0.28349 3.449031,0 2.952937,0.14174 -0.496093,0.14175 -3.354538,0.63784 -3.449031,0.35436 -0.0945,-0.28348 -0.118118,-0.59059 -1.015812,-0.37798 z"
           style="fill:#c49676;fill-opacity:1;fill-rule:evenodd;stroke:none;stroke-width:0.26458332px;stroke-linecap:butt;stroke-linejoin:miter;stroke-opacity:1" />
        <path
           inkscape:connector-curvature="0"
           id="path4884"
           d="m 68.201079,114.6449 c 0.637833,0 0.425222,-1.18118 0.968563,-1.2048 0.54334,-0.0236 3.685267,-0.96856 3.567152,-1.18117 -0.118118,-0.21262 -3.82701,0.99218 -4.157739,0.87407 -0.33073,-0.11812 -1.46466,-2.17337 -2.078869,-2.008 -0.614211,0.16536 1.41741,2.78757 1.700893,3.5199 z"
           style="fill:#c49676;fill-opacity:1;fill-rule:evenodd;stroke:none;stroke-width:0.26458332px;stroke-linecap:butt;stroke-linejoin:miter;stroke-opacity:1" />
        <path
           inkscape:connector-curvature="0"
           id="path4886"
           d="m 73.162016,113.9362 c 0.543341,-0.11812 3.189174,0.3071 3.189174,0.11811 0,-0.18898 -0.330729,-0.33072 -0.07087,-0.51971 0.25986,-0.18899 5.362537,-2.59859 5.433409,-2.19699 0.07087,0.4016 -4.535715,1.96075 -4.677455,2.78757 -0.141743,0.82683 0.165364,0.99219 0.165364,0.99219 0,0 -0.4016,-0.54334 -0.472471,-0.14174 -0.07087,0.4016 -0.307105,1.18118 -0.307105,1.18118 0,0 0.14174,-1.63003 -0.0945,-1.7009 -0.236233,-0.0709 -3.071056,-0.37797 -3.165549,-0.51971 z"
           style="fill:#c49676;fill-opacity:1;fill-rule:evenodd;stroke:none;stroke-width:0.26458332px;stroke-linecap:butt;stroke-linejoin:miter;stroke-opacity:1" />
        <path
           inkscape:connector-curvature="0"
           id="path4888"
           d="m 88.682662,121.70833 c 0,0 -1.96075,-1.72452 -2.598586,-1.72452 -0.637834,0 -2.905692,-0.28348 -3.000185,-0.0709 -0.09449,0.21262 1.559153,0.37798 2.14974,0.4961 0.590587,0.11812 1.015809,0.37798 1.015809,0.37798 0,0 -0.637834,-0.21262 -1.299292,-0.30711 -0.661458,-0.0945 -1.937128,-0.16537 -2.315104,-0.25986 -0.377976,-0.0945 -1.228423,-0.77958 -1.464657,-0.54334 -0.236235,0.23623 2.14974,1.11031 2.14974,1.11031 0,0 -2.291482,-0.25986 -2.952941,-0.70871 -0.661458,-0.44885 -1.039434,-0.96856 -1.299292,-0.87407 -0.25986,0.0945 -0.614211,0.4016 -0.614211,0.4016 0,0 0.307104,-0.82682 0.826823,-0.82682 0.519715,0 2.055246,0.56696 3.071055,0.56696 1.015813,0 3.354539,0.16537 4.063244,0.4016 0.708707,0.23623 2.102493,1.58278 2.267857,1.96075 z"
           style="fill:#c49676;fill-opacity:1;fill-rule:evenodd;stroke:none;stroke-width:0.26458332px;stroke-linecap:butt;stroke-linejoin:miter;stroke-opacity:1" />
        <path
           inkscape:connector-curvature="0"
           id="path4890"
           d="m 77.957589,114.85751 c 0.165365,0.0472 3.543528,-0.94494 5.173549,-0.96856 1.630021,-0.0236 4.701079,1.48828 4.582961,1.22842 -0.118118,-0.25986 -3.141927,-1.5119 -4.134114,-1.5119 -0.992188,0 -5.551525,0.75595 -5.622396,1.25204 z"
           style="fill:#c49676;fill-opacity:1;fill-rule:evenodd;stroke:none;stroke-width:0.26458332px;stroke-linecap:butt;stroke-linejoin:miter;stroke-opacity:1" />
        <path
           inkscape:connector-curvature="0"
           id="path4892"
           d="m 76.469308,116.48754 c 0.09449,0.3071 0.614212,0.54334 1.157552,0.49609 0.54334,-0.0473 0.590587,-0.4016 1.063059,-0.4016 0.472469,0 1.677267,0.0709 1.606396,-0.0473 -0.07087,-0.11811 -1.181174,-0.16536 -0.992187,-0.35435 0.188989,-0.18899 1.53553,-1.08668 4.039621,-1.08668 2.504093,0 4.157739,1.34654 4.157739,1.2048 0,-0.14174 -1.228423,-1.48828 -3.945128,-1.55916 -2.716702,-0.0709 -4.039618,1.18118 -4.65383,1.25205 -0.614212,0.0709 -1.630024,-0.44884 -1.630024,-0.16536 0,0.28348 0.850448,0.23623 0.826823,0.49609 -0.02363,0.25986 -1.346539,0.47247 -1.630021,0.16537 z"
           style="fill:#65442d;fill-opacity:1;fill-rule:evenodd;stroke:none;stroke-width:0.26458332px;stroke-linecap:butt;stroke-linejoin:miter;stroke-opacity:1" />
        <path
           inkscape:connector-curvature="0"
           id="path4894"
           d="m 80.1782,116.15627 c 0.425222,0.13429 3.425407,-0.26856 4.417594,0.0673 0.992188,0.3357 2.787576,1.17497 2.716705,1.00712 -0.07087,-0.16784 -1.299292,-1.30927 -2.858445,-1.57782 -1.559152,-0.26857 -4.323103,0.1007 -4.275854,0.50356 z"
           style="fill:#322116;fill-opacity:1;fill-rule:evenodd;stroke:none;stroke-width:0.31540579px;stroke-linecap:butt;stroke-linejoin:miter;stroke-opacity:1" />
        <path
           inkscape:connector-curvature="0"
           id="path4896"
           d="m 60.665177,139.70945 c 0,0 -0.09449,-0.4961 0.07087,-1.18118 0.165365,-0.68508 5.953125,-9.92187 6.425597,-9.68564 0.472469,0.23624 -0.165365,2.17336 1.464656,2.90569 1.630021,0.73233 6.142114,1.13393 7.157924,2.12612 1.015812,0.99219 2.173364,1.55915 2.929316,1.46466 0.755951,-0.0945 1.346541,-0.33073 2.267857,-1.2993 0.921316,-0.96856 2.29148,-1.98437 1.795386,-2.10249 -0.496094,-0.11812 -1.41741,0.49609 -2.338726,0.4016 -0.921316,-0.0945 -4.063243,-1.81901 -5.362538,-1.81901 -1.299292,0 -3.732514,0.49609 -5.055431,0.37798 -1.322916,-0.11812 -2.149739,-0.66146 -2.149739,-1.7009 0,-1.03943 0,-1.08668 1.204798,-2.38597 1.204799,-1.29929 2.456844,-3.02381 2.055247,-3.02381 -0.401601,0 -5.079056,5.31529 -6.37835,7.08706 -1.299292,1.77176 -4.29948,6.99255 -4.29948,7.53589 0,0.54334 -0.04725,1.27567 0.212612,1.2993 z"
           style="fill:#c49676;fill-opacity:1;fill-rule:evenodd;stroke:none;stroke-width:0.26458332px;stroke-linecap:butt;stroke-linejoin:miter;stroke-opacity:1" />
        <path
           inkscape:connector-curvature="0"
           id="path4898"
           d="m 70.988652,131.98456 c 0,-0.11812 2.480469,-0.77958 3.496281,-0.68508 1.015809,0.0945 3.472656,1.6064 3.141927,1.77176 -0.330729,0.16537 -1.771764,-0.61421 -2.763951,-0.66146 -0.992188,-0.0472 -3.685268,-0.18899 -3.874257,-0.42522 z"
           style="fill:#65442d;fill-opacity:1;fill-rule:evenodd;stroke:none;stroke-width:0.26458332px;stroke-linecap:butt;stroke-linejoin:miter;stroke-opacity:1" />
        <path
           inkscape:connector-curvature="0"
           id="path4900"
           d="m 83.202009,131.77195 c 0.307105,0.11811 1.441035,2.36235 1.677268,3.6144 0.236236,1.25204 0.637836,5.50427 0.992187,5.50427 0.354354,0 -0.354351,-5.55152 -0.590587,-6.40197 -0.236236,-0.85045 -0.661458,-1.27567 -0.519718,-2.14974 0.141742,-0.87407 -0.590587,-4.29948 -0.897692,-4.13411 -0.307107,0.16536 0.803199,1.25204 0.33073,2.22061 -0.472472,0.96856 -1.063059,1.18117 -0.992188,1.34654 z"
           style="fill:#c49676;fill-opacity:1;fill-rule:evenodd;stroke:none;stroke-width:0.26458332px;stroke-linecap:butt;stroke-linejoin:miter;stroke-opacity:1" />
        <path
           inkscape:connector-curvature="0"
           id="path4902"
           d="m 61.066777,144.7885 c 0,-0.85044 0.236236,-2.64583 1.677271,-2.88207 1.441034,-0.23623 9.685639,-1.34654 10.512461,-1.15755 0.826823,0.18899 2.69308,0.75595 3.921504,0.75595 1.228423,0 3.307291,-0.8032 4.299479,-0.8032 0.992187,0 1.488281,1.53553 1.488281,2.1025 0,0.56696 -1.889882,1.65364 -1.653646,3.30729 0.236236,1.65364 1.488282,3.63802 0.259858,5.78776 -1.228421,2.14974 -3.756139,2.7167 -5.19717,2.69308 -1.441035,-0.0236 -14.670202,-4.4176 -15.308038,-9.80376 z"
           style="fill:#e9b59c;fill-opacity:1;fill-rule:evenodd;stroke:none;stroke-width:0.26458332px;stroke-linecap:butt;stroke-linejoin:miter;stroke-opacity:1" />
        <path
           inkscape:connector-curvature="0"
           id="path4904"
           d="m 61.444753,144.76488 c 0,-0.87407 -0.07087,-1.11031 0.566965,-1.39379 0.637834,-0.28348 9.260417,-1.44103 10.583333,-1.27567 1.322917,0.16537 3.141927,0.66146 4.063243,0.66146 0.921319,0 3.82701,-1.29929 4.204986,-1.13393 0.377976,0.16537 1.086681,0.61421 1.086681,1.27567 0,0.66146 -1.393785,2.29148 -1.393785,3.51991 0,1.22842 -0.826823,5.19717 -3.000187,5.14992 -2.173362,-0.0473 -6.307479,0.11812 -8.07924,-1.06306 -1.771764,-1.18117 -6.496468,-3.18917 -6.968937,-3.75614 -0.472469,-0.56696 -1.157552,-0.85044 -1.063059,-1.98437 z"
           style="fill:#aa481a;fill-opacity:1;fill-rule:evenodd;stroke:none;stroke-width:0.26458332px;stroke-linecap:butt;stroke-linejoin:miter;stroke-opacity:1" />
        <path
           inkscape:connector-curvature="0"
           id="path4910"
           d="m 65.153645,147.95405 c 0.944941,-0.54334 5.480656,0.61422 6.11849,0.61422 0.637836,0 2.031621,-1.08669 3.141927,-1.08669 1.110305,0 3.307291,1.70089 3.118305,2.19699 -0.18899,0.49609 -0.165365,0.82682 -1.559153,0.92132 -1.393788,0.0945 -2.740327,-0.25986 -3.28367,-0.25986 -0.54334,0 -1.937128,0.61421 -2.291479,0.56696 -0.354354,-0.0473 -4.795573,-2.66945 -5.24442,-2.95294 z"
           style="fill:#d45516;fill-opacity:1;fill-rule:evenodd;stroke:none;stroke-width:0.26458332px;stroke-linecap:butt;stroke-linejoin:miter;stroke-opacity:1" />
        <path
           inkscape:connector-curvature="0"
           id="path4906"
           d="m 70.587052,150.8125 c 0.732329,-0.21261 1.724517,-0.54334 2.55134,-0.44885 0.826822,0.0945 1.748141,0.28348 2.645833,0.18899 0.897694,-0.0945 1.724517,-0.44885 1.724517,-0.68508 0,-0.23624 0.212611,-0.25986 0.472469,-0.21261 0.259861,0.0472 0.496094,0.44884 0.401601,0.73233 -0.09449,0.28348 -0.33073,0.99218 -0.779577,1.08668 -0.448847,0.0945 -3.897878,0.14174 -5.102677,-0.0472 -1.204799,-0.18899 -2.126118,-0.42523 -1.913506,-0.61421 z"
           style="fill:#f1e6e1;fill-opacity:1;fill-rule:evenodd;stroke:none;stroke-width:0.26458332px;stroke-linecap:butt;stroke-linejoin:miter;stroke-opacity:1" />
        <path
           inkscape:connector-curvature="0"
           id="path4908"
           d="m 62.460565,146.63114 c 0.354351,0 1.252045,-0.51972 1.511903,-0.54334 0.259861,-0.0236 0.354354,0.87407 1.039437,0.87407 0.68508,0 0.708705,-0.61422 0.992188,-0.61422 0.283479,0 0.472469,0.85045 1.22842,0.85045 0.755955,0 1.960753,-0.75595 2.173364,-0.75595 0.212612,0 0.708705,0.54334 1.866258,0.49609 1.157552,-0.0473 1.015812,-0.44885 1.346541,-0.44885 0.330729,0 0.661458,0.80321 1.984375,0.80321 1.322916,0 1.582774,-0.23624 1.771764,-0.23624 0.188986,0 0.732327,0.25986 1.606396,0.25986 0.874072,0 1.015812,-0.35435 1.228423,-0.37798 0.212612,-0.0236 0.401601,-0.4016 0.614212,-0.47247 0.212611,-0.0709 0.685083,-1.1103 0.685083,-1.77176 0,-0.66146 -0.307107,-2.29148 -0.519718,-2.29148 -0.212612,0 -0.165365,1.13393 -0.283483,1.13393 -0.118118,0 -0.212611,-0.87407 -0.496094,-0.87407 -0.283482,0 -0.165364,1.18117 -0.354351,1.18117 -0.188989,0 -0.354354,-1.22842 -1.252048,-1.22842 -0.897691,0 -1.133927,1.67727 -1.441034,1.67727 -0.307105,0 -0.614209,-1.77177 -1.795386,-1.79539 -1.181177,-0.0236 -1.559153,1.91351 -1.866257,1.91351 -0.307107,0 0.07087,-1.79539 -1.488281,-1.79539 -1.559153,0 -1.6064,1.70089 -1.842635,1.70089 -0.236236,0 -0.283483,-1.65364 -1.700893,-1.63002 -1.41741,0.0236 -1.299292,1.96075 -1.606399,1.96075 -0.307105,0 -0.637834,-0.92132 -1.157552,-0.92132 -0.519716,0 -0.472469,1.13393 -0.755952,1.13393 -0.283482,0 -0.992187,-1.18117 -1.630024,-1.18117 -0.637833,0 -1.204798,1.88988 0.141743,2.95294 z"
           style="fill:#f1ece9;fill-opacity:1;fill-rule:evenodd;stroke:none;stroke-width:0.26458332px;stroke-linecap:butt;stroke-linejoin:miter;stroke-opacity:1" />
        <path
           inkscape:connector-curvature="0"
           id="path4912"
           d="m 68.224701,155.65532 c 0.732329,0.42522 4.393975,4.06324 6.968937,4.06324 2.574962,0 4.890066,-1.77176 5.669642,-3.33091 0.779576,-1.55916 1.015812,-3.85063 0.779576,-3.85063 -0.236235,0 -1.889881,2.66945 -3.874256,2.64583 -1.984375,-0.0236 -8.66983,-1.27567 -8.409969,-0.82682 0.259858,0.44884 0.921316,0.7087 0.68508,1.01581 -0.236233,0.3071 -2.315104,-0.4961 -1.81901,0.28348 z"
           style="fill:#ceaa90;fill-opacity:1;fill-rule:evenodd;stroke:none;stroke-width:0.26458332px;stroke-linecap:butt;stroke-linejoin:miter;stroke-opacity:1" />
        <path
           inkscape:connector-curvature="0"
           id="path4914"
           d="m 55.892739,130.88175 c 0.501131,-0.7684 0.902036,-1.23612 1.269532,-0.80181 0.367495,0.43432 0.167042,1.80407 -0.701583,1.70384 -0.868627,-0.10022 -0.668176,-0.50112 -0.567949,-0.90203 z"
           style="fill:none;fill-rule:evenodd;stroke:#000000;stroke-width:0.26458332px;stroke-linecap:butt;stroke-linejoin:miter;stroke-opacity:1" />
        <path
           inkscape:connector-curvature="0"
           id="path4916"
           d="m 69.055762,112.84106 c 0.734992,0 3.975635,-1.5368 3.441097,-2.47225 -0.53454,-0.93544 -3.875408,-3.77518 -7.182869,-3.8754 -3.307461,-0.10023 -17.038433,0.53453 -14.56619,2.3386 2.472245,1.80407 3.006783,0.46773 7.082644,0.10023 4.075859,-0.3675 7.61718,0.33409 8.753075,1.33635 1.135896,1.00226 1.33635,1.57021 2.472243,2.57247 z"
           style="fill:#b79883;fill-opacity:1;fill-rule:evenodd;stroke:none;stroke-width:0.26458332px;stroke-linecap:butt;stroke-linejoin:miter;stroke-opacity:1" />
        <path
           inkscape:connector-curvature="0"
           id="path4918"
           d="m 76.338858,113.30878 c 0,-0.46772 -0.200451,-2.40543 0.06682,-2.87315 0.267268,-0.46772 5.245163,-3.20723 7.550364,-2.97337 2.305198,0.23386 3.474503,1.13589 3.808589,1.57021 0.334087,0.43431 0.601359,2.67269 0.267272,2.77292 -0.334089,0.10022 -0.233863,-0.7684 -3.173828,-0.96885 -2.939963,-0.20046 -7.851042,1.33634 -8.519215,2.47224 z"
           style="fill:#b79883;fill-opacity:1;fill-rule:evenodd;stroke:none;stroke-width:0.26458332px;stroke-linecap:butt;stroke-linejoin:miter;stroke-opacity:1" />
        <path
           inkscape:connector-curvature="0"
           id="path4920"
           d="m 84.72444,155.671 c 0,0 0.668173,-4.67722 1.202711,-6.84878 0.534541,-2.17157 2.138156,-8.55263 2.33861,-9.2208 0.200451,-0.66818 0.734991,-0.46772 1.269529,-1.16931 0.53454,-0.70158 1.403165,-3.27405 1.403165,-2.60587 0,0.66817 -1.737252,7.45013 -2.839739,10.99145 -1.102487,3.54133 -2.806329,7.95127 -3.374276,8.85331 z"
           style="fill:#ceaa90;fill-opacity:1;fill-rule:evenodd;stroke:none;stroke-width:0.26458332px;stroke-linecap:butt;stroke-linejoin:miter;stroke-opacity:1" />
        <path
           inkscape:connector-curvature="0"
           id="path4924"
           d="m 60.20246,159.68004 c 0.53454,-0.20045 -2.338607,-3.4745 -2.939965,-7.88445 -0.601356,-4.40995 -0.06682,-8.48581 -1.00226,-8.15172 -0.935443,0.33409 -1.870888,3.74177 -0.467723,8.95353 1.403165,5.21176 3.808593,7.08264 4.409948,7.08264 z"
           style="fill:#ceaa90;fill-opacity:1;fill-rule:evenodd;stroke:none;stroke-width:0.26458332px;stroke-linecap:butt;stroke-linejoin:miter;stroke-opacity:1" />
        <path
           inkscape:connector-curvature="0"
           id="path4926"
           d="m 61.806079,165.02543 c 1.403164,0 5.479023,4.81085 9.68852,4.94449 4.209494,0.13363 9.220798,-2.27179 8.886711,-1.46998 -0.334087,0.80181 -4.677217,3.34087 -8.15172,3.00678 -3.474505,-0.33409 -10.690783,-5.67948 -10.423511,-6.48129 z"
           style="fill:#ceaa90;fill-opacity:1;fill-rule:evenodd;stroke:none;stroke-width:0.26458332px;stroke-linecap:butt;stroke-linejoin:miter;stroke-opacity:1" />
        <path
           inkscape:connector-curvature="0"
           id="path4928"
           d="m 68.287365,183.53385 c 0.601355,-0.60136 3.00678,-4.34313 3.942225,-5.61266 0.935442,-1.26953 1.135893,-2.33861 2.138156,-3.0736 1.00226,-0.73499 2.873148,-2.33861 2.204972,-2.53906 -0.668174,-0.20046 -3.541321,2.00452 -5.679477,1.5368 -2.138156,-0.46773 -10.757599,-4.00905 -10.891232,-5.7463 -0.133636,-1.73725 -2.004523,2.13816 1.202711,4.74404 3.207234,2.60587 5.879931,3.8754 4.409948,4.14267 -1.469982,0.26727 -7.884451,-1.33634 -10.891234,-3.20723 -3.00678,-1.87089 -5.479023,-7.48355 -6.080381,-6.41447 -0.601356,1.06908 0.668173,6.68174 4.944488,9.55488 4.276312,2.87315 15.167544,1.26954 15.367997,2.87315 0.200451,1.60362 -0.400904,2.20498 -0.668173,3.74178 z"
           style="fill:#ceaa90;fill-opacity:1;fill-rule:evenodd;stroke:none;stroke-width:0.26458332px;stroke-linecap:butt;stroke-linejoin:miter;stroke-opacity:1" />
        <path
           inkscape:connector-curvature="0"
           id="path4930"
           d="m 52.518463,132.68582 c 2.605876,2.07134 8.418988,1.26953 12.160763,-3.34087 3.741772,-4.6104 5.545841,-6.61492 4.476763,-6.74855 -1.069078,-0.13364 -0.668173,-2.6727 -1.202714,-2.80633 -0.534537,-0.13364 -4.744032,2.20497 -5.479023,1.46998 -0.734991,-0.73499 0.935442,-1.60362 -2.33861,-1.06908 -3.274052,0.53454 -7.884451,3.54132 -7.951269,4.47676 -0.06681,0.93545 -1.804069,5.14494 0.33409,8.01809 z"
           style="fill:#ebd3c3;fill-opacity:1;fill-rule:evenodd;stroke:none;stroke-width:0.26458332px;stroke-linecap:butt;stroke-linejoin:miter;stroke-opacity:1" />
        <path
           inkscape:connector-curvature="0"
           id="path4932"
           d="m 66.550111,114.11059 c -0.46772,-0.40091 -1.737252,-1.60362 -4.343128,-1.26953 -2.605878,0.33408 -3.541323,1.46998 -5.011306,1.46998 -1.46998,0 -5.34539,-0.66817 -5.34539,-0.20045 0,0.46772 3.207234,1.46998 4.944488,1.20271 1.737251,-0.26727 3.875408,-1.60362 6.280833,-1.40316 2.405424,0.20045 3.608138,0.86862 3.474503,0.20045 z"
           style="fill:#ebd3c3;fill-opacity:1;fill-rule:evenodd;stroke:none;stroke-width:0.26458332px;stroke-linecap:butt;stroke-linejoin:miter;stroke-opacity:1" />
        <path
           inkscape:connector-curvature="0"
           id="path4934"
           d="m 73.69957,111.30426 c 1.202714,0 1.870887,0.20045 1.870887,-0.33409 0,-0.53454 -1.00226,-2.87315 0,-3.60814 1.002261,-0.73499 10.089425,0.40091 9.421252,-0.46772 -0.668174,-0.86863 -3.140416,-8.552623 -8.68626,-12.22758 -5.545841,-3.674956 -7.283093,-3.741774 -12.762119,-3.407688 -5.479026,0.334087 -11.358957,2.204974 -11.358957,5.545844 0,3.340874 2.873148,6.949004 2.071341,7.683994 -0.801809,0.73499 -3.741774,-0.20045 -3.741774,0.66818 0,0.86862 0.734991,2.27179 1.469982,2.00452 0.734992,-0.26727 12.895755,-1.40316 14.499373,-0.93544 1.603616,0.46772 7.483547,2.47224 7.216275,5.07812 z"
           style="fill:#ebd3c3;fill-opacity:1;fill-rule:evenodd;stroke:none;stroke-width:0.26458332px;stroke-linecap:butt;stroke-linejoin:miter;stroke-opacity:1" />
        <path
           inkscape:connector-curvature="0"
           id="path4936"
           d="m 71.628232,127.87497 c -0.133633,-1.1359 0.400905,-2.13816 1.870887,-1.9377 1.469983,0.20045 3.140416,1.80406 3.674957,1.53679 0.534538,-0.26727 -0.935445,-4.6104 -2.138156,-4.87766 -1.202714,-0.26727 -4.409948,-0.86863 -4.142679,-1.67044 0.267271,-0.80181 5.211757,1.00226 4.944488,0 -0.267272,-1.00226 -0.935445,-3.4745 -1.804069,-3.4745 -0.868628,0 -2.405428,-0.40091 -1.670437,-0.53454 0.734992,-0.13364 2.405425,0.0668 2.071338,-0.53454 -0.334086,-0.60136 -0.734991,-1.33635 0.200454,-1.33635 0.935442,0 1.135896,-0.26727 1.135896,0.40091 0,0.66817 1.403165,1.87088 0.668173,1.80406 -0.734991,-0.0668 -1.670436,-0.0668 -1.336346,0.13364 0.334086,0.20045 1.00226,-0.13364 1.737251,0.73499 0.734991,0.86863 3.274052,3.80859 4.34313,5.87993 1.069078,2.07134 2.071338,3.74177 1.269529,4.07586 -0.801809,0.33409 -4.009043,-0.0668 -5.144939,-0.0668 -1.135893,0 -4.877668,-0.86862 -5.679477,-0.13363 z"
           style="fill:#ebd3c3;fill-opacity:1;fill-rule:evenodd;stroke:none;stroke-width:0.26458332px;stroke-linecap:butt;stroke-linejoin:miter;stroke-opacity:1" />
        <path
           inkscape:connector-curvature="0"
           id="path4938"
           d="m 80.514943,121.52732 c 0.668176,-0.46773 3.34087,0.13363 4.677217,0 1.336349,-0.13364 3.608139,1.13589 3.274052,1.20271 -0.334087,0.0668 -1.870885,-0.66818 -1.870885,-0.20045 0,0.46772 3.407685,3.00678 3.407685,4.74403 0,1.73725 -7.015823,-0.33408 -7.550364,-1.73725 -0.534538,-1.40316 -0.334087,-2.87315 -1.937705,-4.00904 z"
           style="fill:#ebd3c3;fill-opacity:1;fill-rule:evenodd;stroke:none;stroke-width:0.26458332px;stroke-linecap:butt;stroke-linejoin:miter;stroke-opacity:1" />
        <path
           inkscape:connector-curvature="0"
           id="path4940"
           d="m 60.937451,154.80237 c 1.336347,0 5.011304,7.08264 9.354434,7.48355 4.34313,0.4009 2.939965,-1.20271 5.612659,-1.60362 2.672697,-0.4009 3.407688,0.40091 4.409948,0.40091 1.00226,0 2.338607,-10.42351 3.073598,-10.42351 0.734992,0 0.200454,13.29665 -0.801806,14.03165 -1.002263,0.73499 -5.612662,3.00678 -9.554887,2.20497 -3.942226,-0.80181 -13.029388,-8.75308 -12.093946,-12.09395 z"
           style="fill:#ebd3c3;fill-opacity:1;fill-rule:evenodd;stroke:none;stroke-width:0.26458332px;stroke-linecap:butt;stroke-linejoin:miter;stroke-opacity:1" />
        <path
           sodipodi:nodetypes="csssccc"
           inkscape:connector-curvature="0"
           id="path4963"
           d="m 75.637275,231.44191 c 0,0 -1.175967,-21.47614 -1.175967,-26.29534 0,-4.81919 0.755952,-20.5052 0.09449,-20.5052 -0.661458,0 -8.882438,12.47321 -10.205354,12.47321 -1.322917,0 -31.674025,-23.15613 -31.674025,-23.15613 0,0 19.662863,90.29889 45.984663,90.08391 z"
           style="fill:#827058;fill-opacity:1;fill-rule:evenodd;stroke:none;stroke-width:0.26458332px;stroke-linecap:butt;stroke-linejoin:miter;stroke-opacity:1" />
        <path
           inkscape:connector-curvature="0"
           id="path4971"
           d="m 77.107142,264.58333 c 0,0 -3.401785,-42.8058 -3.685268,-45.73512 -0.283482,-2.92931 -1.228423,-6.70908 -1.228423,-6.70908 0,0 -6.047619,-0.56696 -8.031993,-1.70089 -1.984375,-1.13393 -3.307292,-2.26786 -3.307292,-2.26786 0,0 2.078868,-9.63839 1.41741,-10.48883 C 61.610118,196.8311 33.734375,175.85342 33.734375,175.85342 L 0,189.46056 v 75.12277 z"
           style="fill:#fba921;fill-opacity:1;fill-rule:evenodd;stroke:none;stroke-width:0.26458332px;stroke-linecap:butt;stroke-linejoin:miter;stroke-opacity:1" />
        <path
           inkscape:connector-curvature="0"
           id="path5069"
           d="m 30.001003,132.28492 c 0,0 -1.202711,1.46998 -1.202711,2.07133 0,0.60136 0.935442,2.20498 0.935442,2.20498 0,0 -1.870887,-1.40317 -1.870887,-1.87089 0,-0.46772 1.002263,-2.87315 2.138156,-2.40542 z"
           style="fill:#ceaa90;fill-opacity:1;fill-rule:evenodd;stroke:none;stroke-width:0.26458332px;stroke-linecap:butt;stroke-linejoin:miter;stroke-opacity:1" />
        <path
           inkscape:connector-curvature="0"
           id="path5071"
           d="m 25.724692,139.10029 c 0,0 0.73499,1.5368 1.670435,2.33861 0.935443,0.8018 2.80633,1.06907 2.204972,2.27179 -0.601356,1.20271 -2.27179,2.07134 -2.27179,2.07134 l -8.68626,-3.94223 z"
           style="fill:#ceaa90;fill-opacity:1;fill-rule:evenodd;stroke:none;stroke-width:0.26458332px;stroke-linecap:butt;stroke-linejoin:miter;stroke-opacity:1" />
        <path
           inkscape:connector-curvature="0"
           id="path4229"
           d="M 0.31653991,264.58333 H -30.562954 c 0,0 -1.7509,-22.316 -1.432554,-27.4168 0.318344,-5.1008 6.526077,-20.31212 7.640288,-25.504 1.114208,-5.19189 8.913667,-20.94972 11.778774,-22.40709 2.8651092,-1.45737 36.450538,-10.38378 36.450538,-10.38378 l -19.4190636,33.1552 z"
           style="fill:#fba921;fill-opacity:1;fill-rule:evenodd;stroke:none;stroke-width:0.33714551px;stroke-linecap:butt;stroke-linejoin:miter;stroke-opacity:1" />
        <path
           id="path4942"
           transform="scale(0.26458333)"
           d="m 241.16016,131.5 c -0.62925,0.0277 -1.2956,0.1156 -2.00586,0.27344 -11.36422,2.52538 -14.64831,30.55781 -31.56836,30.05273 -16.92006,-0.50507 -25.00045,-17.42635 -39.14258,-14.64844 -14.14214,2.77793 -26.76848,-0.75571 -60.10352,39.65039 -33.335028,40.4061 -53.539085,25.00096 -61.115231,16.16211 -7.576142,-8.83883 -24.243358,-22.47649 -23.738281,-4.79882 0.505076,17.67767 15.65625,23.73828 15.65625,23.73828 0,0 -20.9599,-23.23398 -4.544922,-21.71875 16.414907,1.51523 18.687868,38.89179 12.626953,38.38672 -6.060914,-0.50508 -15.909041,-20.2031 -31.566406,-12.62696 -15.6573635559,7.57615 0.755859,22.72852 0.755859,22.72852 0,0 -5.050347,-24.24431 6.566407,-17.42578 11.616754,6.81853 25.507009,58.5893 19.951172,68.94336 C 37.375801,310.57087 0,336.58203 0,336.58203 v 1.08008 c -7.3763222,6.22382 -22.304166,19.51569 -28.285156,29.98242 -8.081221,14.14214 0.505859,23.23438 0.505859,23.23438 0,0 -1.514823,-24.24373 4.041016,-17.67774 5.555839,6.56599 22.2229595,25.25361 -1.515625,43.94141 -23.738585,18.68783 -51.517164,61.11289 -44.951172,62.12304 6.565992,1.01016 26.263278,-9.09062 24.748047,0.50586 -1.515228,9.59645 -37.880821,41.92188 -27.779297,41.92188 10.101528,0 30.305478,-3.53597 33.335937,-9.0918 3.030457,-5.55587 -30.30617,5.55503 -8.58789,-13.13281 21.718278,-18.68784 35.35544,-25.25374 27.779297,20.20313 -7.576144,45.45686 -53.53711,68.18554 -53.53711,68.18554 0,0 55.052679,-24.24244 39.900391,7.07227 -15.152289,31.31474 -39.90042,-7.07188 -47.476563,-0.50586 -7.576146,6.56598 -6.566406,59.09375 -6.566406,59.09375 0,0 6.566445,-52.52808 16.667969,-37.88086 10.101524,14.64718 -2.019531,37.375 -2.019531,37.375 0,0 31.313707,-61.11433 40.910156,-25.25391 9.596449,35.86042 -16.667969,63.13477 -16.667969,63.13477 0,0 32.325768,-26.76824 28.285156,8.08203 -4.040609,34.85027 -45.962493,36.36515 -44.447265,23.73828 1.515227,-12.62691 18.6875,-23.23242 18.6875,-23.23242 0,0 -43.435868,5.55483 -24.748047,40.91015 C -53.032882,775.74595 0,727.99805 0,727.99805 L 0.00585938,727.5 c 0.02839326,-0.0704 7.84079222,-19.4245 17.67187462,-14.13086 9.848987,5.30332 4.545545,36.11351 14.394532,39.39648 9.848986,3.28302 13.384765,-7.83007 13.384765,-7.83007 0,0 -7.828918,10.60838 -10.859375,6.82031 -3.030458,-3.78807 -2.776899,-20.20332 11.365235,-15.91016 14.142137,4.29317 21.211504,44.69946 15.908203,53.03321 -5.303301,8.33374 -17.171452,21.21156 -8.080078,28.53515 9.091373,7.32363 17.424791,14.9012 13.636718,20.45703 -3.788073,5.55583 -7.070312,13.13086 -7.070312,13.13086 0,0 16.667554,-10.10181 10.101562,-23.48633 -6.565988,-13.38451 21.464451,-8.83853 19.949219,-26.26367 -1.515228,-17.42513 -14.393927,-18.68679 -9.595703,-28.2832 4.798224,-9.59648 32.32363,-1.51666 30.05078,-17.93164 -2.27284,-16.41498 -13.130858,-30.05078 -13.130858,-30.05078 0,0 12.121518,10.35408 21.212888,7.57617 3.45761,-1.05649 5.88822,-2.33251 7.57813,-3.50781 1.35834,-3.10008 3.5332,-3.56446 3.5332,-3.56446 0,0 -0.77969,1.64944 -3.5332,3.56446 -1.17203,2.67485 -1.73851,7.30592 0.25,15.37695 4.29315,17.42513 27.02304,28.53651 25.50781,16.16211 -1.51523,-12.37436 -7.57617,-20.45508 -7.57617,-20.45508 0,0 10.10057,22.72814 3.78711,21.21289 -6.31345,-1.51521 -21.97127,-7.82837 -16.66797,-21.21289 5.3033,-13.38455 12.88063,-23.48556 4.54687,-30.55664 -8.33375,-7.07104 -18.43554,-9.84961 -18.43554,-9.84961 0,0 32.82908,9.34309 29.04101,-13.13281 -3.78808,-22.47591 -19.69726,-31.0625 -19.69726,-31.0625 0,0 -12.37518,-17.92916 -8.08203,-33.33399 4.29315,-15.40482 -1.76758,-27.77929 -1.76758,-27.77929 0,0 6.81891,-20.96058 -1.00977,-29.54688 -7.82868,-8.58629 -5.30273,-19.19336 -5.30273,-19.19336 0,0 -32.07245,-4.79886 -27.779299,-12.375 0,0 17.678129,-4.29181 19.193359,-12.37304 1.51523,-8.08124 1.76758,-15.15235 1.76758,-15.15235 0,0 15.65584,-5.30276 14.14062,-12.8789 -1.51523,-7.57614 -11.6162,-8.33558 -10.35351,-11.8711 1.26269,-3.53552 10.1012,-13.38358 16.16211,-6.3125 6.06092,7.07105 -2.52539,18.43555 -2.52539,18.43555 0,0 17.42536,-11.86917 10.85937,-19.44531 -6.56599,-7.57614 -6.56501,-11.61642 1.26367,-18.6875 7.82869,-7.07108 12.8795,-11.61663 12.62696,-19.44532 -0.25255,-7.82868 -3.78903,-15.40567 3.78711,-18.18359 7.57615,-2.77791 21.46639,-16.92051 17.42578,-24.24414 -4.04061,-7.32359 -14.64649,-4.54492 -14.64649,-4.54492 0,0 3.28148,-11.86932 11.61524,-7.57617 8.33375,4.29316 4.79883,23.99023 4.79882,23.99023 0,0 3.02993,-6.81758 12.87891,-8.83789 9.84899,-2.02031 20.7078,-19.69885 18.6875,-25.75976 -2.02031,-6.06092 -4.54446,-15.15179 14.64844,-22.98047 19.1929,-7.82869 45.20298,-9.59627 57.07226,-4.29297 11.8693,5.30329 24.4973,14.6479 34.09375,27.52734 9.59646,12.87944 8.0805,21.46585 14.64649,30.30469 6.56599,8.83884 8.08263,5.55567 10.35547,11.86914 2.27284,6.31344 -1.26405,12.6262 -0.25391,17.17187 1.01016,4.54568 2.27384,5.80746 1.26367,11.36329 -1.01015,5.55586 -3.28358,2.527 0.25196,8.58789 3.53554,6.06092 4.79882,10.35296 4.79882,15.65625 0,5.30332 5.55567,13.89088 6.81836,24.75 1.26269,10.85915 2.02008,21.7181 -8.33398,54.04297 -10.35407,32.3249 -17.42481,45.45566 -18.6875,52.77929 -1.26269,7.32359 -2.02051,24.24335 -3.2832,28.78906 -1.26269,4.54568 -9.09199,5.8084 -9.84961,10.10157 -0.75761,4.29312 -23.2336,21.46604 -22.72852,26.01172 0.50508,4.54571 13.38479,21.7182 20.96094,27.02148 7.57614,5.30332 1.76719,18.68847 5.30273,19.95117 3.53553,1.26267 28.79105,12.62661 38.89258,18.6875 10.10153,6.06093 13.13149,33.58846 25.50586,30.81055 12.37438,-2.77792 16.66797,-11.86914 16.66797,-11.86914 0,0 -15.40624,7.32221 -7.83008,-2.7793 7.57614,-10.10154 28.53729,-8.58516 26.76953,-3.0293 -1.76776,5.55583 -9.0912,9.34415 -1.76758,13.38477 7.32359,4.04062 31.06249,-0.50611 33.5879,-13.89063 2.52536,-13.38451 -17.42578,-25.25333 -12.375,-28.03124 5.05073,-2.77792 16.41579,7.32399 18.18359,-3.53516 1.76776,-10.85915 -6.56735,-12.8803 -5.30469,-20.70899 1.2627,-7.82864 -2.52499,-13.63671 1.51563,-13.63671 4.04061,0 25.2535,8.5862 28.78906,19.44531 3.53552,10.85915 -18.68807,25.50726 -15.91016,30.81055 2.77792,5.30331 18.94143,2.01855 21.4668,8.33203 2.5254,6.31343 0.75812,7.82853 -0.25195,9.34375 -1.01016,1.51525 -8.33399,-7.82813 -8.33399,-7.82813 0,0 1.76722,17.92989 10.35352,13.63672 8.58629,-4.29313 7.57656,-8.08145 6.5664,-13.38477 -1.01015,-5.30328 -13.13163,-6.8182 -11.11132,-11.11132 2.0203,-4.29317 18.18279,-17.67619 10.10156,-26.76758 -8.0812,-9.09135 -33.08321,-28.03225 -35.10352,-31.82031 -2.02031,-3.78807 8.83789,-21.21373 8.83789,-29.29493 0,-8.08123 -5.80664,-9.09179 -5.80664,-9.09179 0,0 5.55486,13.88947 -1.26367,14.39453 -6.81853,0.50509 -13.13086,-31.31445 -13.13086,-31.31446 0,0 13.63704,-8.83872 5.05078,-24.49609 -8.58633,-15.65737 -25.50797,-29.04065 -21.21484,-32.57617 4.29316,-3.53552 6.81991,-22.9822 2.7793,-24.75 -2.99665,-1.31104 0.80413,-16.33955 2.97265,-24.03516 0.28383,-2.45916 1.32031,-4.50195 1.32031,-4.50195 0,0 -0.56486,1.82105 -1.32031,4.50195 -0.34019,2.94758 0.405,6.4963 5.36133,7.87305 9.09135,2.5254 18.68593,-4.79825 25.25195,-2.52539 6.56599,2.27282 10.85938,8.33398 10.85938,8.33398 0,0 -4.03988,-14.3953 -14.64649,-12.375 -10.6066,2.02031 -21.71778,7.8289 -20.45507,0.75782 1.26266,-7.07105 25.00075,-22.98109 20.45507,-32.83008 -4.54571,-9.84896 -19.44605,-31.0617 -9.84961,-30.55664 9.59645,0.50506 12.62696,18.18359 12.62696,18.18359 0,0 2.77766,-32.32634 -13.38477,-33.08398 -16.16247,-0.75761 -29.0408,2.52633 -23.23242,-11.36328 5.80838,-13.88958 29.79825,-9.85028 27.52539,-24.75 -2.27282,-14.89976 -24.24201,-13.63601 -31.06055,-33.33399 -6.81853,-19.69797 -27.77954,-51.51759 -41.16406,-56.56836 -13.38452,-5.05076 -54.54917,-24.2434 -43.4375,-36.36523 11.11168,-12.12183 30.81055,1.51367 30.81055,1.51367 0,0 -12.62763,-15.15192 -35.10352,-6.06055 -22.4759,9.09138 -19.44487,-30.80844 -7.82812,-42.67773 11.61676,-11.86929 5.30273,17.92969 5.30273,17.92969 0,0 24.24407,-17.67857 6.56641,-33.33594 -17.67767,-15.65736 -38.38496,-11.61642 -36.61719,-16.16211 1.76776,-4.54568 28.53574,-23.23298 28.2832,-12.87891 -0.25254,10.35406 -6.3125,14.64649 -6.3125,14.64649 0,0 8.58594,-4.04027 8.58594,-13.63672 0,-9.59645 -5.80823,-8.83808 -11.86914,-7.07031 -6.06092,1.76777 -14.64691,-23.99141 -26.26367,-26.01172 -11.61675,-2.0203 -25.50725,3.28379 -30.81055,3.03125 -4.97184,-0.23677 -5.72728,-13.56955 -15.16601,-13.1543 z"
           style="fill:#f1f1f1;fill-opacity:1;fill-rule:evenodd;stroke:none;stroke-width:0.99999994px;stroke-linecap:butt;stroke-linejoin:miter;stroke-opacity:1"
           inkscape:connector-curvature="0" />
        <path
           inkscape:connector-curvature="0"
           id="path4967"
           d="m 81.264881,186.72024 c 0,0 29.576639,14.1741 33.923359,17.85937 4.34673,3.68527 12.37872,30.99405 12.94569,36.75819 0.56696,5.76413 4.34672,23.24553 4.34672,23.24553 H 77.201635 c 0,0 -0.661459,-80.22545 4.063246,-77.86309 z"
           style="fill:#fba921;fill-opacity:1;fill-rule:evenodd;stroke:none;stroke-width:0.26458332px;stroke-linecap:butt;stroke-linejoin:miter;stroke-opacity:1" />
        <path
           inkscape:connector-curvature="0"
           id="path4965"
           d="m 74.083332,175.38095 c 0,0 -0.755951,30.99405 -0.188989,37.23065 0.566965,6.23661 3.118305,51.97173 3.118305,51.97173 0,0 1.984375,-32.03348 3.496278,-39.97098 1.511906,-7.9375 4.724705,-26.55283 4.724705,-26.55283 0,0 -5.575149,-1.32291 -5.291667,-1.98437 0.283483,-0.66146 1.889879,-11.52828 1.133927,-12.7567 -0.755951,-1.22842 -6.047618,-7.9375 -6.992559,-7.9375 z"
           style="fill:#d67e04;fill-opacity:1;fill-rule:evenodd;stroke:none;stroke-width:0.26458332px;stroke-linecap:butt;stroke-linejoin:miter;stroke-opacity:1" />
        <path
           inkscape:connector-curvature="0"
           id="path4969"
           d="m 117.07812,264.58333 c 0,0 0.75596,-22.11161 0.18899,-26.45833 -0.56696,-4.34673 -5.76414,-31.93899 -4.91369,-31.93899 0.85045,0 7.27604,31.37202 7.27604,37.51414 0,6.14211 4.15774,-12.00075 4.34673,-10.67783 0.18899,1.32292 -4.53572,31.56101 -4.53572,31.56101 z"
           style="fill:#be7803;fill-opacity:1;fill-rule:evenodd;stroke:none;stroke-width:0.26458332px;stroke-linecap:butt;stroke-linejoin:miter;stroke-opacity:1" />
        <path
           inkscape:connector-curvature="0"
           id="path4973"
           d="m 18.520833,264.58333 c 0,0 -5.197172,-12.37872 -7.9375,-19.56027 -2.7403272,-7.18155 -5.9531247,-14.1741 -5.9531247,-14.1741 0,0 4.7247023,10.67782 5.7641367,10.77232 1.039435,0.0945 -8.40997,-25.4189 -6.6145832,-24.66295 1.7953871,0.75595 8.1264882,22.96205 9.5438992,28.82068 1.41741,5.85864 6.520089,18.80432 6.520089,18.80432 z"
           style="fill:#be7803;fill-opacity:1;fill-rule:evenodd;stroke:none;stroke-width:0.26458332px;stroke-linecap:butt;stroke-linejoin:miter;stroke-opacity:1" />
        <path
           sodipodi:nodetypes="cscsc"
           inkscape:connector-curvature="0"
           id="path5067"
           d="m 32.789434,146.18229 c 0.472471,0 0.850447,4.7247 1.511906,5.85863 0.661458,1.13393 3.307292,4.34673 3.02381,4.63021 -0.283483,0.28349 -3.779765,-3.11831 -4.063245,-3.96875 -0.283482,-0.85045 -0.850447,-6.61458 -0.472471,-6.52009 z"
           style="fill:#ceaa90;fill-opacity:1;fill-rule:evenodd;stroke:none;stroke-width:0.26458332px;stroke-linecap:butt;stroke-linejoin:miter;stroke-opacity:1" />
      </g>
      <g
         inkscape:label="Igudesman"
         id="layer4-5">
        <path
           sodipodi:nodetypes="ccccccscscccssscssssssscscsssscsscscscssssscscc"
           inkscape:connector-curvature="0"
           id="path5028"
           d="m 172.38884,94.39946 -11.09168,23.72017 0.66817,8.01809 2.93997,4.54358 -1.20272,8.41899 3.20724,15.90254 c 0,0 0.39189,3.46369 -0.45856,4.45587 -0.85044,0.99219 -2.12611,0.99219 -2.12611,0.99219 0,0 3.30729,0.33073 3.2128,1.84264 -0.0945,1.5119 -4.8192,4.53571 -4.63021,4.11049 0.18898,-0.42523 3.02381,-2.78758 2.55133,-3.07106 -0.47246,-0.28348 -6.14211,-0.42523 -6.14211,-0.42523 0,0 2.78758,0.8977 3.16555,3.92151 0.37798,3.02381 -2.36235,9.63839 -6.04762,8.97693 -3.68526,-0.66145 -4.15773,-2.88206 -3.9215,-5.24442 0.23624,-2.36235 4.15774,-4.39397 4.15774,-4.39397 0,0 -3.87426,5.85863 -0.89769,6.18936 2.97656,0.33073 5.76413,-3.26004 3.9215,-5.6224 -1.84264,-2.36235 -4.67746,-0.28348 -6.37835,1.03944 -1.70089,1.32292 -8.17373,1.08668 -7.84301,-3.59078 0.33073,-4.67745 5.19718,-11.33928 4.8192,-13.65438 -0.37798,-2.31511 -3.54353,-6.99256 -4.91369,-7.08706 -1.37016,-0.0945 -5.57515,0.37798 -5.57515,-1.08668 0,-1.46466 6.04762,-4.016 6.04762,-4.016 0,0 -4.86644,-0.7087 -4.44122,-4.44122 0.42522,-3.73251 8.12649,-6.75632 8.12649,-6.75632 0,0 1.08668,-3.54353 -0.47247,-4.67746 -1.55915,-1.13392 -1.79539,-1.46465 -0.99219,-2.69308 0.8032,-1.22842 1.55915,-3.59077 0.66146,-4.53571 -0.89769,-0.94494 -0.51972,-5.43341 1.98437,-5.43341 2.5041,0 5.66965,-1.88988 5.71689,-3.40178 0.0472,-1.51191 -0.61421,-6.756329 -0.0945,-8.551715 0.51972,-1.795388 -0.56696,-6.425596 -1.6064,-6.803572 -1.03943,-0.377976 0.14174,2.929316 0.14174,2.929316 0,0 -4.63021,-3.685268 -3.35454,-6.992559 1.27567,-3.307292 3.87426,-3.449034 3.87426,-3.449034 0,0 0.0945,-2.220609 -3.02381,-0.661459 -3.1183,1.559153 -1.22842,4.960938 -1.22842,4.960938 0,0 -4.86645,-5.716889 0.7087,-6.425594 5.57515,-0.708705 6.4256,1.653645 8.07924,-1.039435 1.65365,-2.693079 14.45759,-11.717263 15.02456,-13.654388 0.56696,-1.937129 3.26004,-2.645834 4.67745,-4.016 1.41741,-1.370163 4.15774,-1.08668 3.87426,-3.212795 -0.28348,-2.126118 -2.50409,-2.55134 -2.50409,-2.55134 0,0 4.20498,-1.322917 4.39397,2.36235 0.18899,3.685268 -11.87258,32.565386 -11.87258,32.565386 z"
           style="fill:#ededed;fill-opacity:1;fill-rule:evenodd;stroke:none;stroke-width:0.26458332px;stroke-linecap:butt;stroke-linejoin:miter;stroke-opacity:1" />
        <path
           inkscape:connector-curvature="0"
           id="path5038"
           d="m 152.4189,264.58333 h 14.36309 l 19.93825,-53.38914 -5.76414,-14.55208 -21.26116,20.03274 z"
           style="fill:#e5e5e5;fill-opacity:1;fill-rule:evenodd;stroke:none;stroke-width:0.26458332px;stroke-linecap:butt;stroke-linejoin:miter;stroke-opacity:1" />
        <path
           sodipodi:nodetypes="csssssccssscssccccssc"
           inkscape:connector-curvature="0"
           id="path4978"
           d="m 186.95503,175.24849 c 0,0 -11.1585,-0.60135 -13.49711,-4.94448 -2.33861,-4.34313 -1.9377,-5.87994 -2.67269,-7.61719 -0.73499,-1.73725 -4.74404,-7.14946 -5.27858,-9.22079 -0.53454,-2.07134 -4.20949,-7.01583 -4.20949,-11.49259 0,-4.47677 2.87315,-8.8199 2.87315,-9.68852 0,-0.86863 -0.0668,-1.80407 -0.40091,-3.00679 -0.33409,-1.20271 -3.94223,-6.1472 -4.00904,-7.08264 -0.0668,-0.93544 1.26953,-3.20723 1.5368,-4.54358 0.26727,-1.33635 0.33408,-10.49033 1.9377,-14.36574 1.60362,-3.875405 4.14268,-9.822154 8.35217,-11.759856 4.2095,-1.937705 49.11078,3.274049 49.11078,3.274049 0,0 9.82215,50.647577 9.82215,54.656617 0,4.00905 0.13364,8.8199 1.93771,13.09621 1.80407,4.27631 8.55262,20.31248 8.55262,20.31248 l -54.12207,27.86285 -4.2095,-12.62849 c 0,0 2.73591,-4.74403 2.6691,-5.54584 -0.0668,-0.80181 2.87674,-2.93996 2.87674,-5.0113 0,-2.07134 0.26727,-3.4745 0.20046,-5.14494 -0.0668,-1.67043 -1.93771,-5.27857 -1.46999,-7.14946 z"
           style="fill:#ebcbb5;fill-opacity:1;fill-rule:evenodd;stroke:none;stroke-width:0.26458332px;stroke-linecap:butt;stroke-linejoin:miter;stroke-opacity:1" />
        <path
           inkscape:connector-curvature="0"
           id="path5018"
           d="m 174.32655,163.58886 c 1.00226,-1.06908 1.23612,-1.67044 3.94222,-1.67044 2.70611,0 7.18287,0.66818 6.68174,-0.10022 -0.50113,-0.7684 -5.47902,-2.03793 -5.51243,-2.93997 -0.0334,-0.90203 0.63476,-2.40542 -0.13364,-2.27179 -0.7684,0.13364 -4.04245,2.13816 -5.44561,1.60362 -1.40317,-0.53454 -1.1359,-2.60588 -1.36976,-3.50791 -0.23386,-0.90204 -0.63477,-2.70611 -1.00226,-2.70611 -0.3675,0 -1.30294,-0.13363 -1.30294,-0.13363 l -1.83748,-3.20724 c 0,0 -3.77518,1.40317 -3.40768,2.73952 0.36749,1.33634 1.26953,4.47676 2.53906,6.08038 1.26952,1.60361 2.90655,4.17608 3.34087,5.21175 0.43431,1.03567 0.53453,3.40769 0.90203,3.27406 0.36749,-0.13364 -0.0334,-3.0736 0.80181,-3.0736 0.83522,0 1.1693,0.70158 1.80407,0.70158 z"
           style="fill:#e3b799;fill-opacity:1;fill-rule:evenodd;stroke:none;stroke-width:0.26458332px;stroke-linecap:butt;stroke-linejoin:miter;stroke-opacity:1" />
        <path
           inkscape:connector-curvature="0"
           id="path5004"
           d="m 161.66465,140.13596 c 0,0 -0.43431,2.17156 1.50339,2.7061 1.93771,0.53454 3.24065,-0.30068 3.24065,-0.30068 0,0 -1.73725,-0.90203 -1.73725,-2.43883 0,-1.5368 0.0668,-1.70384 0.0668,-1.70384 0,0 -0.30068,2.07133 1.93771,2.83973 2.23838,0.7684 3.27405,0.30068 3.90881,-0.0334 0.63477,-0.33409 3.37428,-2.40543 5.14494,-2.30521 1.77066,0.10023 5.04472,0.46773 4.74404,1.20272 -0.30068,0.73499 -7.55037,3.74177 -6.81538,4.77744 0.735,1.03567 3.00678,1.9377 2.43884,2.50565 -0.56795,0.56795 -6.04697,1.87089 -6.11379,2.47225 -0.0668,0.60135 -1.00226,-1.60362 -0.90204,-2.6727 0.10023,-1.06908 0.0334,-2.67269 -0.26727,-2.47224 -0.30067,0.20045 -0.43431,3.27405 0.13364,4.74403 0.56795,1.46998 1.36975,2.57247 1.36975,2.57247 0,0 -1.36975,0.46772 -1.46998,-0.30068 -0.10023,-0.7684 -0.33408,-3.00678 -0.93544,-2.03793 -0.60136,0.96886 -0.0334,3.60814 -0.63477,4.07586 -0.60135,0.46773 -1.20271,0.73499 -1.90429,-0.73499 -0.70158,-1.46998 -3.70837,-7.08264 -3.87541,-8.61944 -0.16704,-1.5368 -0.23386,-4.54358 0.16704,-4.27631 z"
           style="fill:#e3b799;fill-opacity:1;fill-rule:evenodd;stroke:none;stroke-width:0.26458332px;stroke-linecap:butt;stroke-linejoin:miter;stroke-opacity:1" />
        <path
           inkscape:connector-curvature="0"
           id="path4984"
           d="m 161.8317,116.91692 c 1.13589,0 5.74629,-9.15398 6.81537,-9.08717 1.06908,0.0668 0.33409,2.00453 0.60136,3.67496 0.26727,1.67043 2.40542,3.67496 1.80407,3.80859 -0.60136,0.13364 -4.2095,-0.80181 -5.61266,0.0668 -1.40317,0.86862 -3.27406,2.60588 -3.60814,1.5368 z"
           style="fill:#efd2bf;fill-opacity:1;fill-rule:evenodd;stroke:none;stroke-width:0.26458332px;stroke-linecap:butt;stroke-linejoin:miter;stroke-opacity:1" />
        <path
           inkscape:connector-curvature="0"
           id="path4986"
           d="m 174.66063,113.50923 c -0.0668,-0.4009 -0.8018,-4.47676 1.06908,-4.81085 1.87089,-0.33409 13.8312,3.00678 14.43256,1.9377 0.60135,-1.06908 1.00226,-8.41899 4.00904,-8.95353 3.00678,-0.53453 5.54584,7.34992 7.28309,7.55037 1.73726,0.20045 3.40769,-0.86863 3.40769,-0.13363 0,0.73499 -4.54358,3.20723 -4.07586,5.14493 0.46772,1.93771 3.67496,2.07134 3.20723,4.54359 -0.46772,2.47224 -2.07133,14.09846 -8.41898,15.10072 -6.34766,1.00226 -15.76891,1.67044 -15.368,0.20045 0.4009,-1.46998 17.37252,-4.87766 17.57297,-10.55714 0.20045,-5.67948 -1.93771,-8.75308 -4.94449,-9.95579 -3.00678,-1.20272 -7.01582,-1.9377 -11.29213,-0.73499 -4.27632,1.20271 -6.48129,2.13815 -6.8822,0.66817 z"
           style="fill:#efd2bf;fill-opacity:1;fill-rule:evenodd;stroke:none;stroke-width:0.26458332px;stroke-linecap:butt;stroke-linejoin:miter;stroke-opacity:1" />
        <path
           inkscape:connector-curvature="0"
           id="path4980"
           d="m 176.33107,119.05507 c -0.40091,-0.73499 -1.33635,-3.60813 -0.0668,-4.47676 1.26953,-0.86863 8.01809,-2.60588 11.49259,-2.07134 3.47451,0.53454 8.48581,1.5368 7.81764,2.07134 -0.66818,0.53454 -6.34766,0.20045 -9.75534,0.66817 -3.40769,0.46772 -8.75308,2.47225 -9.48807,3.80859 z"
           style="fill:#b89178;fill-opacity:1;fill-rule:evenodd;stroke:none;stroke-width:0.26458332px;stroke-linecap:butt;stroke-linejoin:miter;stroke-opacity:1" />
        <path
           inkscape:connector-curvature="0"
           id="path4988"
           d="m 171.65385,124.26683 c 1.00226,0 2.87315,-0.66817 2.73952,0.86863 -0.13364,1.5368 -1.20272,6.08038 0.46772,6.68173 1.67043,0.60136 6.28083,-2.00452 6.28083,-0.73499 0,1.26953 -3.87541,2.47224 -3.20723,3.74178 0.66817,1.26953 2.87314,0.66817 2.67269,2.40542 -0.20045,1.73725 -0.93544,1.60362 -2.67269,1.5368 -1.73725,-0.0668 -2.07134,-0.80181 -4.00905,0 -1.9377,0.80181 -2.60588,2.20498 -3.94222,1.5368 -1.33635,-0.66817 -3.14042,-2.20497 -3.0736,-3.74177 0.0668,-1.5368 1.20271,-3.60814 1.40316,-4.40995 0.20046,-0.80181 1.00226,-2.07134 2.00452,-4.07586 1.00226,-2.00452 1.33635,-2.6727 1.33635,-3.80859 z"
           style="fill:#efd2bf;fill-opacity:1;fill-rule:evenodd;stroke:none;stroke-width:0.26458332px;stroke-linecap:butt;stroke-linejoin:miter;stroke-opacity:1" />
        <path
           inkscape:connector-curvature="0"
           id="path4992"
           d="m 179.70535,122.6298 c 0.46772,0 0.4009,-0.90203 1.00226,-1.43657 0.60135,-0.53454 1.40316,-0.83522 3.77518,-0.50113 2.37202,0.33409 5.54584,1.1693 5.24516,1.36975 -0.30067,0.20046 -4.04245,0.40091 -4.30972,0.70159 -0.26727,0.30068 6.38106,-0.26727 6.18061,-0.50113 -0.20045,-0.23386 -4.77744,-1.77066 -7.01583,-1.9043 -2.23838,-0.13363 -4.14267,0.70158 -4.07585,0.40091 0.0668,-0.30068 0.96885,-1.36976 3.24064,-1.57021 2.27179,-0.20045 4.37654,0.46772 6.01356,1.1693 1.63703,0.70158 3.70837,1.33635 3.4411,1.10249 -0.26727,-0.23386 -3.74177,-2.60588 -8.0515,-2.77292 -4.30972,-0.16705 -5.34539,0.50113 -5.34539,1.1693 0,0.66818 -0.36749,1.80407 -0.86862,1.63703 -0.50113,-0.16705 0,-1.83748 -0.26727,-1.83748 -0.26727,0 -1.36976,4.00904 -1.93771,4.20949 -0.56794,0.20046 0.30068,0.3675 0.90204,0.26728 0.60135,-0.10023 1.73725,1.63702 2.10475,1.36975 0.36749,-0.26727 1.23612,-1.36975 1.10248,-1.63703 -0.13363,-0.26726 -1.26953,-0.56794 -1.13589,-1.23612 z"
           style="fill:#dda682;fill-opacity:1;fill-rule:evenodd;stroke:none;stroke-width:0.26458332px;stroke-linecap:butt;stroke-linejoin:miter;stroke-opacity:1" />
        <path
           inkscape:connector-curvature="0"
           id="path4990"
           d="m 179.83898,128.44292 c 0,0 0.23386,-1.67044 0.80181,-1.46999 0.56795,0.20046 1.77066,1.23612 3.57473,1.43658 1.80407,0.20045 1.80407,0.0334 2.43883,0.0334 0.63477,0 2.20498,0.30067 2.20498,0.30067 0,0 -2.80633,-0.43431 -2.77292,-0.63476 0.0334,-0.20045 3.0736,-0.3675 4.20949,-0.3675 1.1359,0 4.14268,0.93545 4.14268,0.93545 0,0 -2.97337,-1.30294 -4.77744,-1.30294 -1.80407,0 -2.80633,0.33409 -2.80633,0.0334 0,-0.30068 2.50565,-0.73499 4.74403,-0.56795 2.23838,0.16704 6.28083,1.23612 6.28083,1.23612 0,0 -2.7061,-1.03567 -4.44335,-1.26953 -1.73725,-0.23386 -4.6104,-0.0334 -4.51018,-0.26727 0.10023,-0.23386 4.71063,-1.10249 4.71063,-1.10249 0,0 -5.11153,0.90204 -5.21175,0.66818 -0.10023,-0.23386 3.37427,-1.26953 3.37427,-1.26953 0,0 -4.17608,1.03567 -4.17608,0.7684 0,-0.26727 2.50565,-1.67044 2.10474,-1.73726 -0.4009,-0.0668 -3.34087,1.9043 -5.21175,1.80407 -1.87089,-0.10022 -3.50792,0.13364 -3.4411,-0.16704 0.0668,-0.30068 3.40769,-1.80407 3.00679,-1.87089 -0.40091,-0.0668 -3.24065,0.3675 -3.54132,0.70159 -0.30069,0.33408 -0.90204,-1.33635 -1.53681,-0.90204 -0.63476,0.43431 -2.43883,2.33861 -1.9377,2.43884 0.50113,0.10022 2.73951,0.90203 2.77292,2.57247 z"
           style="fill:#e2af8d;fill-opacity:1;fill-rule:evenodd;stroke:none;stroke-width:0.26458332px;stroke-linecap:butt;stroke-linejoin:miter;stroke-opacity:1" />
        <path
           inkscape:connector-curvature="0"
           id="path4998"
           d="m 170.75182,125.87045 c 0,0 0.86862,-1.80407 0.4009,-2.93997 -0.46772,-1.13589 -1.63702,-1.40316 -1.63702,-2.3052 0,-0.90203 0.33408,-1.87088 0.33408,-1.87088 0,0 -3.77518,1.30293 -5.7797,2.17156 -2.00452,0.86863 -4.07586,2.03793 -4.07586,2.03793 0,0 3.14042,5.67948 3.64155,5.98016 0.50113,0.30067 3.842,0.66817 4.94448,-0.26727 1.10249,-0.93545 1.73725,-2.03793 2.17157,-2.80633 z"
           style="fill:#e2b597;fill-opacity:1;fill-rule:evenodd;stroke:none;stroke-width:0.26458332px;stroke-linecap:butt;stroke-linejoin:miter;stroke-opacity:1" />
        <path
           inkscape:connector-curvature="0"
           id="path4982"
           d="m 168.91434,120.99278 c 0,0 -3.00678,-3.67496 -4.07586,-3.54132 -1.06908,0.13363 -3.94223,1.60361 -4.67722,3.14041 -0.73499,1.5368 -0.13363,2.40543 -0.13363,2.40543 0,0 1.60361,-1.40317 3.67495,-1.73725 2.07134,-0.33409 5.21176,-0.26727 5.21176,-0.26727 z"
           style="fill:#b89178;fill-opacity:1;fill-rule:evenodd;stroke:none;stroke-width:0.26458332px;stroke-linecap:butt;stroke-linejoin:miter;stroke-opacity:1" />
        <path
           inkscape:connector-curvature="0"
           id="path4994"
           d="m 181.30896,123.93274 c 0,0 6.54811,-1.60361 6.34766,-1.83748 -0.20046,-0.23386 -4.51018,-1.20271 -5.77971,-1.00226 -1.26953,0.20046 -1.1693,1.9043 -0.56795,2.83974 z"
           style="fill:#ece5e1;fill-opacity:1;fill-rule:evenodd;stroke:none;stroke-width:0.26458332px;stroke-linecap:butt;stroke-linejoin:miter;stroke-opacity:1" />
        <path
           inkscape:connector-curvature="0"
           id="path4996"
           d="m 164.47098,132.71923 c 0,0 3.17383,-0.90204 3.10701,-0.46772 -0.0668,0.43431 -2.00452,1.03567 -2.00452,1.03567 0,0 1.9043,-0.20046 2.33861,-1.26953 0.43431,-1.06908 1.9377,-3.90882 1.5368,-3.8086 -0.4009,0.10023 -0.63477,1.40317 -1.40317,1.83748 -0.7684,0.43432 -3.107,0.56795 -3.107,0.56795 0,0 0.60135,1.20271 -0.46773,2.10475 z"
           style="fill:#e2af8d;fill-opacity:1;fill-rule:evenodd;stroke:none;stroke-width:0.26458332px;stroke-linecap:butt;stroke-linejoin:miter;stroke-opacity:1" />
        <path
           inkscape:connector-curvature="0"
           id="path5000"
           d="m 170.685,125.40272 c 0,0 -2.63929,-1.5368 -3.842,-1.46998 -1.20271,0.0668 -4.17609,1.10249 -3.80859,1.30294 0.36749,0.20045 3.00678,-0.70158 4.54358,-0.43431 1.5368,0.26727 3.04019,1.00226 3.00678,1.20271 -0.0334,0.20045 -1.73725,-0.63476 -3.17382,-0.63476 -1.43658,0 -2.3052,0 -3.24064,0.50113 -0.93545,0.50113 -1.80407,0.86862 -1.87089,0.63476 -0.0668,-0.23386 -1.06908,-1.77066 0.30068,-2.43883 1.36975,-0.66818 2.73951,-1.20272 4.71062,-0.73499 1.97112,0.46772 4.00904,-0.10023 3.94223,0.60135 -0.0668,0.70158 -0.20045,0.86863 -0.56795,1.46998 z"
           style="fill:#d7976c;fill-opacity:1;fill-rule:evenodd;stroke:none;stroke-width:0.26458332px;stroke-linecap:butt;stroke-linejoin:miter;stroke-opacity:1" />
        <path
           inkscape:connector-curvature="0"
           id="path5002"
           d="m 170.38432,126.37158 c 0,0 -0.73499,0.66817 -2.40542,1.33635 -1.67044,0.66817 -2.63929,0.46772 -2.63929,0.46772 0,0 -1.36976,-2.07134 -0.30068,-2.43884 1.06908,-0.36749 1.77066,-0.53454 3.37428,-0.30068 1.60362,0.23386 1.97111,0.93545 1.97111,0.93545 z"
           style="fill:#ece5e1;fill-opacity:1;fill-rule:evenodd;stroke:none;stroke-width:0.26458332px;stroke-linecap:butt;stroke-linejoin:miter;stroke-opacity:1" />
        <path
           inkscape:connector-curvature="0"
           id="path5008"
           d="m 170.08364,151.56173 c 0,0 0.66818,-1.1359 1.77066,-1.1359 1.10249,0 1.40317,0.10023 2.07134,-0.0668 0.66818,-0.16705 1.06908,-0.96886 1.83748,-1.06908 0.7684,-0.10023 13.59734,-2.00452 14.19869,-1.5368 0.60136,0.46772 -4.74403,5.91334 -10.32328,8.51922 -5.57925,2.60587 -6.84878,2.07133 -7.11605,1.20271 -0.26727,-0.86863 -0.0668,-2.27179 -0.0668,-2.87315 0,-0.60136 -0.26727,-2.57247 -0.56795,-2.57247 -0.30067,0 -1.57021,0.16704 -1.80407,-0.46772 z"
           style="fill:#d6a095;fill-opacity:1;fill-rule:evenodd;stroke:none;stroke-width:0.26458332px;stroke-linecap:butt;stroke-linejoin:miter;stroke-opacity:1" />
        <path
           inkscape:connector-curvature="0"
           id="path5010"
           d="m 172.45566,154.40147 c 0,0 1.70384,0.93544 3.80859,0.23386 2.10475,-0.70158 10.92464,-3.97563 11.65963,-4.54358 0.735,-0.56795 1.63703,-1.67044 1.5034,-1.83748 -0.13364,-0.16704 -10.12284,1.77066 -11.75986,2.27179 -1.63703,0.50113 -1.93771,1.1359 -2.53906,1.1359 -0.60136,0 -2.87315,-0.0334 -3.0736,0.20045 -0.20046,0.23386 0.43431,1.23612 0.4009,2.53906 z"
           style="fill:#c47768;fill-opacity:1;fill-rule:evenodd;stroke:none;stroke-width:0.26458332px;stroke-linecap:butt;stroke-linejoin:miter;stroke-opacity:1" />
        <path
           inkscape:connector-curvature="0"
           id="path5012"
           d="m 187.92388,150.05834 c 0,-0.33409 -0.0668,-1.46998 -0.43431,-1.46998 -0.36749,0 -1.50339,0.10022 -1.67043,0.26727 -0.16705,0.16704 -0.33409,0.70158 -0.50113,0.70158 -0.16705,0 -0.23386,-0.3675 -0.70159,-0.3675 -0.46772,0 -2.50565,0.33409 -2.60587,0.46772 -0.10023,0.13364 0.13363,0.7684 -0.33409,0.7684 -0.46772,0 -0.20045,-0.63476 -1.23612,-0.46772 -1.03567,0.16705 -1.23612,0.0668 -1.33635,0.3675 -0.10023,0.30068 0,0.90203 -0.36749,0.90203 -0.3675,0 -0.3675,-0.83522 -0.96886,-0.66817 -0.60135,0.16704 -1.67043,0.53454 -1.87089,0.83522 -0.20045,0.30068 0.13364,0.83521 -0.26726,0.90203 -0.40091,0.0668 -0.13364,-0.56795 -0.46772,-0.56795 -0.33409,0 -1.43658,-0.10022 -1.60362,0.0668 -0.16705,0.16704 -0.0668,0.73499 -0.23386,0.73499 -0.16705,0 -0.33409,-0.80181 -0.70158,-0.7684 -0.3675,0.0334 -0.66818,-0.0668 -0.70159,0.26727 -0.0334,0.33409 0.4009,2.20498 0.73499,2.3052 0.33409,0.10023 0.63477,-0.66817 0.7684,-0.66817 0.13364,0 -0.0334,0.63476 0.23386,0.73499 0.26727,0.10022 2.13816,0.26727 2.3052,0.13363 0.16705,-0.13363 -0.23386,-0.90203 0,-0.90203 0.23387,0 0.13364,0.66817 0.73499,0.63476 0.60136,-0.0334 1.70385,-0.50113 1.87089,-0.63476 0.16705,-0.13364 0.40091,-0.56795 0.56795,-0.56795 0.16704,0 -0.13364,0.40091 0.36749,0.26727 0.50113,-0.13363 1.97112,-0.43431 2.10475,-0.73499 0.13364,-0.30068 0.13364,-0.73499 0.3675,-0.73499 0.23386,0 -0.10023,0.43431 0.30068,0.4009 0.4009,-0.0334 2.63928,-0.93544 2.83974,-1.00226 0.20045,-0.0668 0.23386,-0.46772 0.36749,-0.53454 0.13363,-0.0668 -0.16704,0.23386 0.26727,0.20045 0.43431,-0.0334 2.17156,-0.86862 2.17156,-0.86862 z"
           style="fill:#e8e2e2;fill-opacity:1;fill-rule:evenodd;stroke:none;stroke-width:0.26458332px;stroke-linecap:butt;stroke-linejoin:miter;stroke-opacity:1" />
        <path
           inkscape:connector-curvature="0"
           id="path5016"
           d="m 180.70761,135.99328 c 0.26727,-0.50113 5.41221,1.50339 7.85104,3.10701 2.43883,1.60361 5.74629,3.97563 5.61266,6.11379 -0.13363,2.13815 -0.80181,8.0849 -0.43431,9.95579 0.36749,1.87089 1.83748,3.24064 1.00226,3.00678 -0.83522,-0.23386 -2.97338,-3.00678 -3.0736,-5.0113 -0.10023,-2.00453 0.16704,-5.7463 -0.46772,-6.81538 -0.63477,-1.06907 -5.67948,-1.97111 -6.34765,-3.97563 -0.66818,-2.00452 -3.60814,-6.08038 -4.14268,-6.38106 z"
           style="fill:#e3b799;fill-opacity:1;fill-rule:evenodd;stroke:none;stroke-width:0.26458332px;stroke-linecap:butt;stroke-linejoin:miter;stroke-opacity:1" />
        <path
           inkscape:connector-curvature="0"
           id="path5014"
           d="m 181.04169,135.85965 c 0,0 6.28084,5.57925 8.15172,6.949 1.87089,1.36976 3.0402,2.90656 3.0402,3.80859 0,0.90204 -0.0668,2.07134 -0.0668,2.07134 0,0 0.73499,-2.40542 -0.30068,-3.67495 -1.03567,-1.26953 -10.62396,-9.18739 -10.82442,-9.15398 z"
           style="fill:#bf9376;fill-opacity:1;fill-rule:evenodd;stroke:none;stroke-width:0.26458332px;stroke-linecap:butt;stroke-linejoin:miter;stroke-opacity:1" />
        <path
           inkscape:connector-curvature="0"
           id="path5020"
           d="m 173.02361,168.96766 c 0.43431,-0.3675 2.93996,-3.10701 5.27857,-1.60362 2.33861,1.50339 3.40769,2.50565 5.27857,2.50565 1.87089,0 11.09169,-3.34087 11.79327,-4.34313 0.70158,-1.00226 3.17383,-11.59281 4.24291,-11.526 1.06907,0.0668 3.24064,9.02035 4.17608,9.05376 0.93545,0.0334 6.21402,-2.33861 7.01583,-0.20045 0.80181,2.13815 -6.58152,10.85782 -8.88671,11.72645 -2.3052,0.86862 -4.84427,2.3386 -6.1472,2.27179 -1.30294,-0.0668 -2.20498,0.46772 -1.20272,0.73499 1.00227,0.26727 9.08717,-2.23838 11.29214,-3.50791 2.20498,-1.26953 11.42577,-6.84879 12.62849,-7.95127 1.20271,-1.10249 2.47224,-2.80633 2.47224,-2.47225 0,0.33409 -6.31424,7.31651 -15.30118,11.02487 -8.98694,3.70837 -9.95579,8.31877 -12.42803,8.8199 -2.47225,0.50113 -4.6104,-0.80181 -5.01131,-1.80407 -0.4009,-1.00226 -1.60361,-4.77745 -1.43657,-5.54584 0.16704,-0.7684 0.0668,-0.93545 0.0668,-0.93545 0,0 -5.21176,-0.53454 -7.75082,-1.36975 -2.53906,-0.83522 -5.27857,-1.80407 -6.08038,-4.87767 z"
           style="fill:#e3b799;fill-opacity:1;fill-rule:evenodd;stroke:none;stroke-width:0.26458332px;stroke-linecap:butt;stroke-linejoin:miter;stroke-opacity:1" />
        <path
           inkscape:connector-curvature="0"
           id="path5022"
           d="m 183.22396,123.31473 c 0,0 -0.0472,-0.42522 -0.0472,-1.03943 0,-0.61421 -0.18899,-1.03944 -0.18899,-1.03944 0,0 -0.94494,-0.23623 -1.46466,-0.0945 -0.51971,0.14174 -0.80319,0.7087 -0.75595,1.55915 0.0472,0.85044 0.56696,1.22842 0.56696,1.22842 0,0 1.37017,-0.42522 1.88989,-0.61421 z"
           style="fill:#573018;fill-opacity:1;fill-rule:evenodd;stroke:none;stroke-width:0.26458332px;stroke-linecap:butt;stroke-linejoin:miter;stroke-opacity:1" />
        <path
           inkscape:connector-curvature="0"
           id="path5024"
           d="m 165.60082,128.18117 c 0.42522,0 0.7087,-0.66146 0.66146,-1.41741 -0.0472,-0.75595 -0.75596,-1.32291 -0.99219,-1.18117 -0.23624,0.14174 -0.85045,0.37797 -0.61421,1.41741 0.23623,1.03943 0.66145,1.13393 0.94494,1.18117 z"
           style="fill:#573018;fill-opacity:1;fill-rule:evenodd;stroke:none;stroke-width:0.26458332px;stroke-linecap:butt;stroke-linejoin:miter;stroke-opacity:1" />
        <path
           inkscape:connector-curvature="0"
           id="path5026"
           d="m 218.84821,138.52827 c 0,0 0.0473,2.78758 1.13393,3.07106 1.08668,0.28348 8.7407,-3.07106 8.7407,-2.55134 0,0.51972 -6.66183,5.5279 -8.26823,5.14992 -1.6064,-0.37797 -2.22061,-4.48846 -1.6064,-5.66964 z"
           style="fill:#e3b799;fill-opacity:1;fill-rule:evenodd;stroke:none;stroke-width:0.26458332px;stroke-linecap:butt;stroke-linejoin:miter;stroke-opacity:1" />
        <path
           sodipodi:nodetypes="cscscscsssssscscsscssccscsssscsscscccssscsscscssssssscsscscsscscsssssscscsscscc"
           inkscape:connector-curvature="0"
           id="path5030"
           d="m 170.18378,91.989954 c 0,0 1.03943,-1.559153 3.07105,-0.14174 2.03163,1.41741 4.20499,5.5279 4.20499,5.5279 0,0 1.32292,-4.204983 5.38616,-3.212796 4.06324,0.992188 -2.88207,3.118302 -2.88207,3.118302 0,0 4.8192,-0.14174 7.08706,-1.039434 2.26785,-0.897694 5.66964,2.83482 5.66964,2.83482 0,0 -4.86645,-3.590771 -2.55134,-4.25223 2.3151,-0.661458 9.82738,1.842633 10.2526,3.732514 0.42522,1.88988 -1.37016,4.25223 -2.45684,3.2128 -1.08669,-1.03944 1.98437,3.21279 2.83482,0.56696 0.85045,-2.645832 0.37797,-2.787572 3.2128,-0.47247 2.83482,2.31511 4.15774,-0.42522 4.7247,4.67746 0.56696,5.10267 2.92931,5.85863 2.92931,5.85863 0,0 -3.59077,0.28348 -2.45684,4.15774 1.13393,3.87425 4.44122,4.67745 4.44122,4.67745 0,0 -4.91369,-2.07887 -2.26786,-7.1343 2.64583,-5.05543 4.48847,8.17374 3.68527,9.5439 -0.8032,1.37016 0.18899,8.50446 0.18899,8.50446 0,0 4.44122,-6.2366 5.62239,-2.74032 1.18118,3.49628 1.98438,8.50446 4.91369,10.2526 2.92932,1.74814 3.54353,2.88207 3.54353,2.88207 l 1.46466,13.93787 c 0,0 4.34672,-1.41741 5.5279,2.50409 1.18118,3.9215 -2.45685,6.23661 -2.45685,6.23661 0,0 6.04763,-0.28348 4.58297,-4.06324 -1.46466,-3.77977 -4.29948,-4.96094 -3.26005,-5.66965 1.03944,-0.7087 2.92932,-4.29948 6.23661,-4.39397 3.30729,-0.0945 8.12649,0.33073 7.55952,3.9215 -0.56696,3.59078 -5.62239,2.74033 -5.62239,2.74033 0,0 8.6462,1.32292 6.75632,-3.63802 -1.88988,-4.96094 7.74851,-10.29985 6.18936,-14.45759 -1.55915,-4.15774 -3.82701,-7.70126 -3.82701,-7.70126 0,0 4.20499,0.42522 5.5279,-2.07887 1.32292,-2.5041 1.37017,-2.78758 1.37017,-2.78758 l 5.19716,-7.70126 V 71.909968 c 0,0 -0.14173,2.598587 -2.17335,2.267858 -2.03163,-0.330729 -3.40179,-6.378348 -2.69308,-6.945313 0.7087,-0.566965 4.39397,0.04725 3.68527,-1.889881 -0.70871,-1.937126 -2.83483,-3.496279 -2.83483,-3.496279 0,0 4.67746,5.24442 -0.7087,3.921504 -5.38616,-1.322917 1.03943,-8.929688 -0.8032,-11.433781 -1.84263,-2.504091 -3.02381,-2.315104 -3.02381,-2.315104 0,0 2.74033,1.086681 2.64583,3.165551 -0.0945,2.078869 -1.93713,3.496279 -1.93713,3.496279 0,0 -8.55171,-6.945313 -8.83519,-5.858629 -0.28348,1.08668 9.16592,7.417781 7.1343,8.976934 -2.03162,1.55915 -4.63021,-1.086684 -7.0398,2.078868 -2.4096,3.165552 4.01599,7.9375 3.59077,10.725073 -0.42522,2.787576 -5.6224,2.4096 -6.89807,0.472472 -1.27567,-1.937128 -5.24442,-8.929688 -2.50409,-10.347097 2.74033,-1.417413 7.60677,-2.74033 6.75633,-4.677458 -0.85045,-1.937126 -2.4096,-2.362351 -2.4096,-2.362351 0,0 2.03162,1.653646 1.41741,2.504094 -0.61421,0.850444 -7.37054,5.05543 -11.00856,3.77976 -3.63802,-1.27567 -8.17373,-2.740326 -8.17373,-2.740326 0,0 0.61421,-3.496281 -0.8977,-5.149927 -1.5119,-1.653646 -2.36235,-1.700892 -2.36235,-1.700892 0,0 4.53572,-1.464657 3.59078,-2.598587 -0.94494,-1.133927 -4.1105,-0.28348 -3.40179,-1.795386 0.70871,-1.511906 6.61458,0.283483 6.61458,0.283483 0,0 -1.79538,-1.700893 -5.10268,-1.700893 -3.30729,0 -5.81138,-3.590774 -5.81138,-3.590774 0,0 4.016,5.149924 2.45685,5.008184 -1.55916,-0.14174 -2.12612,-4.346726 -5.43341,-4.252232 -3.30729,0.09449 -4.77195,0.992187 -5.19717,-0.519716 -0.42523,-1.511906 3.44903,7.228792 2.45684,8.646205 -0.99219,1.41741 -1.84263,-3.023809 -3.26004,-3.071059 -1.41741,-0.04725 -4.44122,2.834823 -6.56734,2.173365 -2.12612,-0.661459 -1.79539,-5.102678 -1.79539,-5.102678 0,0 0.47248,5.480653 -0.61421,5.38616 -1.08668,-0.09449 -0.99219,-2.456847 -0.99219,-2.456847 0,0 -2.50409,-2.787573 -3.96875,-0.236233 -1.46465,2.551338 -6.70907,5.197171 -7.79575,4.063243 -1.08669,-1.133927 -0.8032,-4.299479 -0.8032,-4.299479 0,0 -1.7009,5.575149 1.6064,6.472844 3.30729,0.897691 -7.70127,5.338913 -7.70127,5.338913 z"
           style="fill:#ededed;fill-opacity:1;fill-rule:evenodd;stroke:none;stroke-width:0.26458332px;stroke-linecap:butt;stroke-linejoin:miter;stroke-opacity:1" />
        <path
           inkscape:connector-curvature="0"
           id="path5006"
           d="m 169.95001,142.57479 c 0.30068,0.30068 1.90429,0.20045 3.70836,-0.70158 1.80407,-0.90203 3.30747,-1.43657 2.90656,-1.83748 -0.4009,-0.4009 -1.9377,-0.53454 -3.40769,0.30068 -1.46998,0.83522 -3.20723,2.00452 -3.20723,2.23838 z"
           style="fill:#2d190d;fill-opacity:1;fill-rule:evenodd;stroke:none;stroke-width:0.26458332px;stroke-linecap:butt;stroke-linejoin:miter;stroke-opacity:1" />
        <path
           inkscape:connector-curvature="0"
           id="path5036"
           d="m 190.4055,213.84003 17.5759,-18.99331 32.88392,-17.85937 v 44.22321 l -53.67261,43.37277 H 173.0186 Z"
           style="fill:#e5e5e5;fill-opacity:1;fill-rule:evenodd;stroke:none;stroke-width:0.26458332px;stroke-linecap:butt;stroke-linejoin:miter;stroke-opacity:1" />
        <path
           inkscape:connector-curvature="0"
           id="path5032"
           d="m 165.36458,264.58333 c 0,0 9.16592,-31.56101 11.1503,-36.09673 1.98437,-4.53571 5.95312,-12.75669 8.50446,-16.06398 2.55134,-3.3073 4.25223,-8.97694 5.48066,-9.26042 1.22842,-0.28348 2.64583,-0.28348 2.64583,-0.28348 0,0 0.47247,-6.61459 1.88988,-9.07143 1.41741,-2.45684 19.18229,-15.11905 23.34003,-18.52083 4.15774,-3.40179 13.51265,-8.59896 13.98512,-9.5439 0.47247,-0.94494 0.56696,-2.07887 0.56696,-2.07887 0,0 1.7009,2.26786 3.3073,6.14211 1.60639,3.87426 4.34672,11.71726 4.34672,11.71726 0,0 -18.14285,13.79614 -24.56845,16.15849 -6.42559,2.36235 -11.0558,4.15773 -11.0558,4.15773 0,0 -13.98512,20.22173 -21.82813,41.48289 -7.843,21.26116 -6.52009,21.26116 -6.52009,21.26116 z"
           style="fill:#f0f0f0;fill-opacity:1;fill-rule:evenodd;stroke:none;stroke-width:0.26458332px;stroke-linecap:butt;stroke-linejoin:miter;stroke-opacity:1" />
        <path
           inkscape:connector-curvature="0"
           id="path5034"
           d="m 198.53199,190.87797 c 0,0 3.77976,-5.48065 11.43378,-1.88988 7.65402,3.59078 19.56027,7.27604 19.56027,7.27604 l 12.94568,-14.1741 c 0,0 -6.89806,-14.55208 -7.9375,-15.9695 -1.03943,-1.41741 -1.5119,-3.30729 -1.79538,-2.74032 -0.28349,0.56696 0.66146,0.47247 -1.13393,2.64583 -1.79539,2.17336 -32.03348,22.2061 -33.07292,24.85193 z"
           style="fill:#fcfcfc;fill-opacity:1;fill-rule:evenodd;stroke:none;stroke-width:0.26458332px;stroke-linecap:butt;stroke-linejoin:miter;stroke-opacity:1" />
        <path
           inkscape:connector-curvature="0"
           id="path5046"
           d="m 139.18973,264.58333 c 0,0 2.92932,-32.41146 6.99256,-40.72693 4.06324,-8.31548 12.28423,-23.43453 15.02455,-24.66295 2.74033,-1.22842 12.28423,-4.15774 12.28423,-4.15774 l 6.3311,6.04762 c 0,0 -6.89806,15.21354 -14.17411,31.08854 -7.27604,15.875 -9.82738,20.12723 -10.01636,23.52902 -0.18899,3.40178 -1.03944,8.88244 -1.03944,8.88244 z"
           style="fill:#b83d98;fill-opacity:1;fill-rule:evenodd;stroke:none;stroke-width:0.26458332px;stroke-linecap:butt;stroke-linejoin:miter;stroke-opacity:1" />
        <path
           inkscape:connector-curvature="0"
           id="path5073"
           d="m 154.78125,264.58333 c 0,0 4.53571,-16.81994 7.843,-25.4189 3.3073,-8.59896 21.82813,-46.86905 21.82813,-46.86905 0,0 -8.59896,1.7009 -9.82738,2.64584 -1.22843,0.94494 -6.70908,8.59895 -6.4256,9.4494 0.28349,0.85045 3.96875,3.68527 3.11831,4.06325 -0.85045,0.37797 -6.61459,1.22842 -7.55953,3.21279 -0.94494,1.98438 -11.52827,37.13616 -11.52827,42.42783 0,5.29167 -0.37798,10.48884 -0.37798,10.48884 z"
           style="fill:#d175b9;fill-opacity:1;fill-rule:evenodd;stroke:none;stroke-width:0.26458332px;stroke-linecap:butt;stroke-linejoin:miter;stroke-opacity:1" />
        <path
           inkscape:connector-curvature="0"
           id="path5040"
           d="m 184.54687,213.84003 c 0,0 -9.5439,-12.56771 -10.58333,-16.81994 -1.03943,-4.25223 -2.55134,-6.23661 2.64583,-11.81176 5.19718,-5.57515 10.11087,-9.82738 10.11087,-9.82738 0,0 0.28348,3.2128 1.03943,4.7247 0.75595,1.51191 0.94494,2.64584 0.75595,4.53572 -0.18898,1.88988 0.28349,3.1183 -0.28348,6.14211 -0.56696,3.02381 -3.96875,6.14211 -3.1183,10.29985 0.85044,4.15774 2.55134,8.22098 2.55134,8.22098 z"
           style="fill:#fcfcfc;fill-opacity:1;fill-rule:evenodd;stroke:none;stroke-width:0.26458332px;stroke-linecap:butt;stroke-linejoin:miter;stroke-opacity:1" />
        <path
           id="path5044"
           transform="scale(0.26458333)"
           d="M 936.42773,693.57227 845.71484,774.28516 728.21484,1000 H 1000 h 82.1426 c 0,0 -39.285,-197.32813 -46.4278,-210.2207 C 1028.572,776.88672 1000,740 1000,740 v -0.35742 c 0,0 -8.57116,-10.71316 -24.64258,-21.07031 -16.07142,-10.35712 -38.92969,-25 -38.92969,-25 z"
           style="fill:#b83d98;fill-opacity:1;fill-rule:evenodd;stroke:none;stroke-width:0.99999994px;stroke-linecap:butt;stroke-linejoin:miter;stroke-opacity:1"
           inkscape:connector-curvature="0" />
        <path
           inkscape:connector-curvature="0"
           id="path5042"
           d="m 178.97172,264.58333 c 0,0 25.04093,-46.86905 37.98661,-61.42113 12.94568,-14.55208 23.34003,-26.17485 23.05655,-26.83631 -0.28348,-0.66146 -1.03944,-1.13393 -1.03944,-1.13393 0,0 3.68527,-0.85044 4.8192,0.18899 1.13393,1.03943 4.63021,6.89807 4.06325,7.9375 -0.56697,1.03943 -12.28423,20.03274 -12.28423,20.03274 0,0 -10.20536,6.23661 -10.29985,8.22098 -0.0945,1.98438 3.49628,6.52009 3.49628,6.52009 0,0 -12.00075,23.24554 -14.45759,26.08036 -2.45685,2.83482 -9.26042,9.4494 -12.28423,13.22916 -3.02381,3.77977 -4.7247,7.18155 -4.7247,7.18155 z"
           style="fill:#d175b9;fill-opacity:1;fill-rule:evenodd;stroke:none;stroke-width:0.26458332px;stroke-linecap:butt;stroke-linejoin:miter;stroke-opacity:1" />
      </g>
    </g>
  </g>
  <g
     inkscape:label="Interview"
     id="g4209"
     inkscape:groupmode="layer">
    <text
       id="text4211"
       y="18.122404"
       x="8.740654"
       style="font-style:normal;font-variant:normal;font-weight:normal;font-stretch:normal;line-height:0%;font-family:Museo;-inkscape-font-specification:'Museo, Normal';text-align:start;letter-spacing:0px;word-spacing:0px;writing-mode:lr-tb;text-anchor:start;fill:#ffffff;fill-opacity:1;stroke:none;stroke-width:0.50668812px;stroke-linecap:butt;stroke-linejoin:miter;stroke-opacity:1"
       xml:space="preserve"><tspan
         id="tspan4213"
         sodipodi:role="line"
         x="8.740654"
         y="18.122404"
         style="font-size:17.34243774px;line-height:1.25">INTERVIEW:</tspan></text>
  </g>
  <g
     inkscape:groupmode="layer"
     id="layer4"
     inkscape:label="Artist Name">
    <text
       xml:space="preserve"
       style="font-style:normal;font-variant:normal;font-weight:600;font-stretch:normal;font-size:10.90254688px;line-height:0%;font-family:Museo;-inkscape-font-specification:'Museo, Semi-Bold';text-align:start;letter-spacing:0px;word-spacing:0px;writing-mode:lr-tb;text-anchor:start;fill:#ffffff;fill-opacity:1;stroke:none;stroke-width:0.87257254px;stroke-linecap:butt;stroke-linejoin:miter;stroke-opacity:1"
       x="9.1443224"
       y="43.373611"
       id="text4158"><tspan
         sodipodi:role="line"
         x="9.1443224"
         y="43.373611"
         style="font-style:normal;font-variant:normal;font-weight:600;font-stretch:normal;font-size:29.29666138px;line-height:100%;font-family:Museo;-inkscape-font-specification:'Museo, Semi-Bold';text-align:start;writing-mode:lr-tb;text-anchor:start;fill:#ffffff;fill-opacity:1;stroke-width:0.87257254px"
         id="tspan4976">Hyung-ki</tspan><tspan
         sodipodi:role="line"
         x="9.1443224"
         y="72.670273"
         style="font-style:normal;font-variant:normal;font-weight:600;font-stretch:normal;font-size:29.29666138px;line-height:100%;font-family:Museo;-inkscape-font-specification:'Museo, Semi-Bold';text-align:start;writing-mode:lr-tb;text-anchor:start;fill:#ffffff;fill-opacity:1;stroke-width:0.87257254px"
         id="tspan1141">Joo of</tspan><tspan
         sodipodi:role="line"
         x="9.1443224"
         y="101.96693"
         style="font-style:normal;font-variant:normal;font-weight:600;font-stretch:normal;font-size:29.29666138px;line-height:100%;font-family:Museo;-inkscape-font-specification:'Museo, Semi-Bold';text-align:start;writing-mode:lr-tb;text-anchor:start;fill:#ffffff;fill-opacity:1;stroke-width:0.87257254px"
         id="tspan1143">Igudesman</tspan><tspan
         sodipodi:role="line"
         x="9.1443224"
         y="131.2636"
         style="font-style:normal;font-variant:normal;font-weight:600;font-stretch:normal;font-size:29.29666138px;line-height:100%;font-family:Museo;-inkscape-font-specification:'Museo, Semi-Bold';text-align:start;writing-mode:lr-tb;text-anchor:start;fill:#ffffff;fill-opacity:1;stroke-width:0.87257254px"
         id="tspan1145">&amp; Joo</tspan></text>
  </g>
</svg>
