<?xml version="1.0" encoding="UTF-8" standalone="no"?>
<!-- Created with Inkscape (http://www.inkscape.org/) -->

<svg
   xmlns:dc="http://purl.org/dc/elements/1.1/"
   xmlns:cc="http://creativecommons.org/ns#"
   xmlns:rdf="http://www.w3.org/1999/02/22-rdf-syntax-ns#"
   xmlns:svg="http://www.w3.org/2000/svg"
   xmlns="http://www.w3.org/2000/svg"
   xmlns:xlink="http://www.w3.org/1999/xlink"
   xmlns:sodipodi="http://sodipodi.sourceforge.net/DTD/sodipodi-0.dtd"
   xmlns:inkscape="http://www.inkscape.org/namespaces/inkscape"
   width="1000"
   height="1000"
   id="svg2"
   version="1.1"
   inkscape:version="0.48.2 r9819"
   sodipodi:docname="king-crimson.svg"
   inkscape:export-filename="/Users/agarone/Desktop/MWM Art/king-crimson/king-crimson.png"
   inkscape:export-xdpi="90"
   inkscape:export-ydpi="90">
  <defs
     id="defs4">
    <linearGradient
       id="linearGradient4191">
      <stop
         style="stop-color:#f59191;stop-opacity:1;"
         offset="0"
         id="stop4193" />
      <stop
         style="stop-color:#f05f5f;stop-opacity:1;"
         offset="1"
         id="stop4195" />
    </linearGradient>
    <linearGradient
       inkscape:collect="always"
       id="linearGradient4183">
      <stop
         style="stop-color:#8b3131;stop-opacity:1;"
         offset="0"
         id="stop4185" />
      <stop
         style="stop-color:#8b3131;stop-opacity:0;"
         offset="1"
         id="stop4187" />
    </linearGradient>
    <linearGradient
       inkscape:collect="always"
       id="linearGradient4175">
      <stop
         style="stop-color:#8b3131;stop-opacity:1;"
         offset="0"
         id="stop4177" />
      <stop
         style="stop-color:#8b3131;stop-opacity:0;"
         offset="1"
         id="stop4179" />
    </linearGradient>
    <linearGradient
       inkscape:collect="always"
       id="linearGradient4167">
      <stop
         style="stop-color:#ac3d3d;stop-opacity:1;"
         offset="0"
         id="stop4169" />
      <stop
         style="stop-color:#ac3d3d;stop-opacity:0;"
         offset="1"
         id="stop4171" />
    </linearGradient>
    <linearGradient
       inkscape:collect="always"
       id="linearGradient4159">
      <stop
         style="stop-color:#ac3d3d;stop-opacity:1;"
         offset="0"
         id="stop4161" />
      <stop
         style="stop-color:#ac3d3d;stop-opacity:0;"
         offset="1"
         id="stop4163" />
    </linearGradient>
    <linearGradient
       id="linearGradient4107">
      <stop
         style="stop-color:#ec9a9a;stop-opacity:1;"
         offset="0"
         id="stop4109" />
      <stop
         style="stop-color:#d78a8a;stop-opacity:1;"
         offset="1"
         id="stop4111" />
    </linearGradient>
    <linearGradient
       id="linearGradient4095">
      <stop
         style="stop-color:#ae6565;stop-opacity:1;"
         offset="0"
         id="stop4097" />
      <stop
         style="stop-color:#c99898;stop-opacity:1;"
         offset="1"
         id="stop4099" />
    </linearGradient>
    <linearGradient
       id="linearGradient4087">
      <stop
         style="stop-color:#ee4444;stop-opacity:1;"
         offset="0"
         id="stop4089" />
      <stop
         style="stop-color:#d99a9a;stop-opacity:1;"
         offset="1"
         id="stop4091" />
    </linearGradient>
    <clipPath
       clipPathUnits="userSpaceOnUse"
       id="clipPath3957">
      <path
         sodipodi:nodetypes="csssscssssc"
         inkscape:connector-curvature="0"
         id="path3959"
         d="m 1146.5383,244.35007 c 1.2207,6.71397 -4.2725,21.973 -17.7005,23.19372 -13.4279,1.22072 -28.0766,-4.27253 -44.5563,-0.61036 -16.4797,3.66217 -150.14877,38.45273 -171.5114,37.84238 -21.36263,-0.61038 -112.30638,-7.9347 -178.22536,-49.43925 -65.91897,-41.50452 -112.91675,-96.437 -122.07216,-135.50009 0,0 22.58334,23.19371 47.60814,3.66217 25.0248,-19.53155 86.67125,-77.515838 181.88752,-80.567635 95.2163,-3.051796 131.22759,10.254062 152.59022,21.85091 21.36264,11.596866 87.28164,70.923925 100.09914,91.065845 12.8176,20.1419 48.2185,80.56763 51.8807,88.50231 z"
         style="fill:#e6f1f9;fill-opacity:1;stroke:#000000;stroke-width:1.70901024px;stroke-linecap:butt;stroke-linejoin:miter;stroke-opacity:1;display:inline" />
    </clipPath>
    <clipPath
       clipPathUnits="userSpaceOnUse"
       id="clipPath3964">
      <path
         sodipodi:nodetypes="csssscssssc"
         inkscape:connector-curvature="0"
         id="path3966"
         d="m 969.28572,239.28571 c 0.71428,3.92857 -2.5,12.85715 -10.35714,13.57143 -7.85715,0.71429 -16.42858,-2.5 -26.07143,-0.35714 C 923.21429,254.64286 845,275 832.5,274.64286 820,274.28571 766.78572,270 728.21429,245.71428 c -38.57143,-24.28571 -66.07143,-56.42857 -71.42857,-79.28571 0,0 13.21428,13.57143 27.85714,2.14286 14.64286,-11.42857 50.71429,-45.35715 106.42857,-47.14286 55.71429,-1.78571 76.78572,6 89.28572,12.78571 12.5,6.78572 51.07143,41.5 58.57143,53.28572 7.5,11.78571 28.21428,47.14286 30.35714,51.78571 z"
         style="fill:#e6f1f9;fill-opacity:1;stroke:#000000;stroke-width:1px;stroke-linecap:butt;stroke-linejoin:miter;stroke-opacity:1;display:inline" />
    </clipPath>
    <clipPath
       clipPathUnits="userSpaceOnUse"
       id="clipPath3972">
      <path
         style="fill:#e6f1f9;fill-opacity:1;stroke:#000000;stroke-width:1.52992523px;stroke-linecap:butt;stroke-linejoin:miter;stroke-opacity:1;display:inline"
         d="m 11.806203,270.38715 c 1.092804,-12.02084 29.505699,-65.56822 44.258549,-79.77467 14.752849,-14.20645 50.268968,-38.24813 64.475408,-49.17616 14.20646,-10.92804 99.44514,-80.321071 167.19898,-87.970697 67.75382,-7.649626 124.57962,18.577652 145.34289,37.155319 20.76327,18.577668 32.78411,33.330508 47.53696,43.165748 14.75284,9.83524 24.58809,13.11364 25.68088,15.84565 1.09281,2.73201 -3.27841,4.37121 -4.91761,8.19603 -1.6392,3.82481 -1.6392,24.04168 -4.91762,32.78411 -3.27842,8.74243 -22.94888,30.0521 -22.94888,30.0521 0,0 -42.07294,15.29925 -63.92901,25.13448 -21.85608,9.83524 -37.70173,16.93846 -84.14588,27.32009 -46.44417,10.38165 -116.93001,25.1345 -175.9414,16.93846 -59.011397,-8.19602 -78.135466,-18.57765 -99.99154,-15.29925 -21.856073,3.27842 -25.680886,7.10323 -30.598503,4.37123 -4.917617,-2.73202 -5.464019,-3.82482 -7.103224,-8.74244 z"
         id="path3974"
         inkscape:connector-curvature="0" />
    </clipPath>
    <mask
       maskUnits="userSpaceOnUse"
       id="mask3983">
      <path
         style="fill:#e6f1f9;fill-opacity:1;stroke:#000000;stroke-width:1px;stroke-linecap:butt;stroke-linejoin:miter;stroke-opacity:1;display:inline"
         d="M 55.714286,265.42857 C 56.428572,257.57143 75,222.57143 84.642857,213.28571 94.285714,204 117.5,188.28571 126.78571,181.14286 c 9.28572,-7.14286 65,-52.5 109.28572,-57.5 44.28571,-5 81.42857,12.14285 95,24.28571 13.57143,12.14286 21.42857,21.78571 31.07143,28.21429 9.64285,6.42857 16.07143,8.57142 16.78571,10.35714 0.71429,1.78571 -2.14286,2.85714 -3.21428,5.35714 -1.07143,2.5 -1.07143,15.71429 -3.21429,21.42857 -2.14286,5.71429 -15,19.64286 -15,19.64286 0,0 -27.5,10 -41.78571,16.42857 -14.28572,6.42857 -24.64286,11.07143 -55,17.85714 -30.35715,6.78572 -76.42858,16.42858 -115,11.07143 -38.57143,-5.35714 -51.071433,-12.14285 -65.357147,-10 -14.285714,2.14286 -16.785714,4.64286 -20,2.85715 -3.214286,-1.78572 -3.571429,-2.5 -4.642857,-5.71429 z"
         id="path3985"
         inkscape:connector-curvature="0" />
    </mask>
    <linearGradient
       inkscape:collect="always"
       xlink:href="#linearGradient4087"
       id="linearGradient4093"
       x1="557.09912"
       y1="463.02405"
       x2="566.93652"
       y2="330.69406"
       gradientUnits="userSpaceOnUse" />
    <linearGradient
       inkscape:collect="always"
       xlink:href="#linearGradient4095"
       id="linearGradient4101"
       x1="0"
       y1="500"
       x2="1000"
       y2="500"
       gradientUnits="userSpaceOnUse" />
    <radialGradient
       inkscape:collect="always"
       xlink:href="#linearGradient4107"
       id="radialGradient4113"
       cx="562.54378"
       cy="265.45729"
       fx="562.54378"
       fy="265.45729"
       r="207.76126"
       gradientTransform="matrix(1,0,0,0.72567015,0,72.82286)"
       gradientUnits="userSpaceOnUse" />
    <linearGradient
       inkscape:collect="always"
       xlink:href="#linearGradient4159"
       id="linearGradient4165"
       x1="169.51683"
       y1="916.78571"
       x2="360.85394"
       y2="72.499977"
       gradientUnits="userSpaceOnUse" />
    <linearGradient
       inkscape:collect="always"
       xlink:href="#linearGradient4167"
       id="linearGradient4173"
       x1="884.28571"
       y1="920.35712"
       x2="797.14282"
       y2="191.78569"
       gradientUnits="userSpaceOnUse" />
    <linearGradient
       inkscape:collect="always"
       xlink:href="#linearGradient4175"
       id="linearGradient4181"
       x1="44.285713"
       y1="884.4317"
       x2="190"
       y2="-76.99688"
       gradientUnits="userSpaceOnUse" />
    <linearGradient
       inkscape:collect="always"
       xlink:href="#linearGradient4183"
       id="linearGradient4189"
       x1="967.14282"
       y1="367.67856"
       x2="915.71429"
       y2="253.39284"
       gradientUnits="userSpaceOnUse" />
    <radialGradient
       inkscape:collect="always"
       xlink:href="#linearGradient4191"
       id="radialGradient4199"
       cx="539.03247"
       cy="703.75616"
       fx="539.03247"
       fy="703.75616"
       r="230.02112"
       gradientTransform="matrix(1.1052664,0.14525235,-0.20470237,1.5576385,87.31856,-470.73731)"
       gradientUnits="userSpaceOnUse" />
  </defs>
  <sodipodi:namedview
     id="base"
     pagecolor="#ffffff"
     bordercolor="#666666"
     borderopacity="1.0"
     inkscape:pageopacity="0.0"
     inkscape:pageshadow="2"
     inkscape:zoom="7.9195959"
     inkscape:cx="-18.060239"
     inkscape:cy="780.95189"
     inkscape:document-units="px"
     inkscape:current-layer="layer3"
     showgrid="false"
     showguides="true"
     inkscape:guide-bbox="true"
     inkscape:window-width="1917"
     inkscape:window-height="1150"
     inkscape:window-x="0"
     inkscape:window-y="0"
     inkscape:window-maximized="0">
    <sodipodi:guide
       orientation="0,1"
       position="0,0"
       id="guide3837" />
    <sodipodi:guide
       orientation="1,0"
       position="0,0"
       id="guide3839" />
    <sodipodi:guide
       orientation="0,1"
       position="0,1000"
       id="guide3841" />
    <sodipodi:guide
       orientation="1,0"
       position="1000,1000"
       id="guide3843" />
  </sodipodi:namedview>
  <metadata
     id="metadata7">
    <rdf:RDF>
      <cc:Work
         rdf:about="">
        <dc:format>image/svg+xml</dc:format>
        <dc:type
           rdf:resource="http://purl.org/dc/dcmitype/StillImage" />
        <dc:title></dc:title>
      </cc:Work>
    </rdf:RDF>
  </metadata>
  <g
     inkscape:groupmode="layer"
     id="layer10"
     inkscape:label="Face"
     style="display:inline">
    <rect
       style="fill:url(#linearGradient4101);fill-opacity:1;stroke:none"
       id="rect3988"
       width="1000"
       height="1000"
       x="0"
       y="0" />
    <path
       style="display:inline;fill:#8b3131;stroke:none;stroke-width:1px;stroke-linecap:butt;stroke-linejoin:miter;stroke-opacity:1;fill-opacity:1"
       d="M 1000,732.85714 920,1000 l 80,0 z"
       id="path4115"
       inkscape:connector-curvature="0" />
  </g>
  <g
     inkscape:groupmode="layer"
     id="layer16"
     inkscape:label="Mouth"
     style="display:inline">
    <path
       style="fill:#637f9b;fill-opacity:1;stroke:none;stroke-width:1px;stroke-linecap:butt;stroke-linejoin:miter;stroke-opacity:1"
       d="m 368.70568,553.51257 379.81736,21.21321 -9.09138,173.74624 5.05077,136.37059 -80.81221,51.51778 -313.14729,-57.5787 -33.33503,-150.51272 z"
       id="path4064"
       inkscape:connector-curvature="0" />
  </g>
  <g
     inkscape:groupmode="layer"
     id="layer17"
     inkscape:label="Epiglottis">
    <path
       style="fill:#9b6363;stroke:none;stroke-width:1px;stroke-linecap:butt;stroke-linejoin:miter;stroke-opacity:1;fill-opacity:1"
       d="m 360.62446,763.6243 c 0,0 -8.08122,-42.4264 4.04061,-60.60915 12.12183,-18.18274 42.42641,-54.54824 60.60915,-52.52793 18.18275,2.0203 27.27412,25.25381 24.24366,46.46702 -3.03045,21.2132 1.01016,35.35534 14.14214,35.35534 13.13198,0 25.25381,1.01015 33.33503,-43.43656 8.08122,-44.44672 40.4061,-36.3655 54.54824,-27.27412 14.14214,9.09137 35.35534,31.31473 34.34519,51.51778 -1.01016,20.20305 -6.24562,44.74046 -6.24562,44.74046 L 655,768.57143 c 0,0 52.85714,-25 55,-37.85714 2.14286,-12.85715 -8.57143,-142.85715 -8.57143,-142.85715 l -278.21428,-5.71428 -100.35715,105 1.42857,86.42857 z"
       id="path4067"
       inkscape:connector-curvature="0" />
  </g>
  <g
     inkscape:groupmode="layer"
     id="layer14"
     inkscape:label="Tongue">
    <path
       style="fill:#e95252;stroke:none;stroke-width:1px;stroke-linecap:butt;stroke-linejoin:miter;stroke-opacity:1;fill-opacity:1"
       d="m 330.71429,763.57143 c 0,0 64.64285,-32.85714 101.07142,-27.14286 36.42858,5.71429 79.64286,18.92857 93.21429,19.64286 13.57143,0.71428 71.07143,-9.64286 88.21429,-5.71429 17.14285,3.92857 61.07143,8.92857 64.28571,47.14286 3.21429,38.21429 -9.28571,56.78571 -33.21428,54.64286 C 620.35714,850 365.35714,865.35714 365.35714,865.35714 c 0,0 -44.28571,-54.28571 -34.64285,-101.78571 z"
       id="path4056"
       inkscape:connector-curvature="0" />
  </g>
  <g
     inkscape:groupmode="layer"
     id="layer15"
     inkscape:label="Gums">
    <path
       style="fill:#e11d1d;stroke:none;stroke-width:1px;stroke-linecap:butt;stroke-linejoin:miter;stroke-opacity:1;fill-opacity:1"
       d="m 375.77675,876.76139 c 0,0 185.86807,-17.17259 202.03051,-13.13198 16.16244,4.04061 83.84266,32.32488 100.0051,30.30457 16.16244,-2.0203 45.45686,-20.20305 45.45686,-20.20305 l 12.12183,8.08122 -53.53808,49.49748 -263.64982,-7.07107 z"
       id="path4059"
       inkscape:connector-curvature="0" />
    <path
       style="fill:#e11d1d;stroke:#000000;stroke-width:1px;stroke-linecap:butt;stroke-linejoin:miter;stroke-opacity:1;fill-opacity:1"
       d="M 738.42151,697.96439 703.06617,582.807 l -338.4011,26.26396 79.80205,-110.10662 277.79195,-3.03046 34.34519,118.18785 z"
       id="path4061"
       inkscape:connector-curvature="0" />
  </g>
  <g
     inkscape:groupmode="layer"
     id="layer13"
     inkscape:label="Teeth">
    <path
       style="fill:#ffffff;stroke:none;stroke-width:1px;stroke-linecap:butt;stroke-linejoin:miter;stroke-opacity:1;fill-opacity:1"
       d="m 482.34784,549.47196 c 0,0 -11.11168,-1.01015 -15.15229,12.12184 -4.04061,13.13198 -6.06091,52.02285 -1.51523,56.56854 4.54569,4.54568 19.1929,7.57614 29.7995,5.05076 10.60661,-2.52538 22.22336,-1.01015 29.7995,-0.50508 7.57615,0.50508 13.13199,-0.50507 15.65737,-5.55583 2.52538,-5.05077 9.59645,-47.98225 6.06091,-59.09393 -3.53553,-11.11168 -12.6269,-11.11168 -14.64721,-10.6066 -2.0203,0.50508 -50.00255,2.0203 -50.00255,2.0203 z"
       id="path4015"
       inkscape:connector-curvature="0" />
    <path
       style="fill:#ffffff;stroke:none;stroke-width:1px;stroke-linecap:butt;stroke-linejoin:miter;stroke-opacity:1;fill-opacity:1"
       d="m 565.18035,542.90597 c -5.05076,6.56599 -11.61675,20.20305 -14.64721,29.29443 -3.03046,9.09137 -5.05077,35.86041 -4.04061,39.90102 1.01015,4.04061 4.04061,11.61676 8.08122,11.61676 4.04061,0 29.29442,-3.53554 35.35534,-2.52538 6.06091,1.01015 25.25381,6.56599 33.33503,1.51522 8.08122,-5.05076 10.10153,-7.57614 10.10153,-15.65736 0,-8.08122 3.03045,-29.29442 2.52538,-39.90103 -0.50508,-10.6066 -1.51523,-23.73858 -10.10153,-28.78934 -8.58629,-5.05077 -48.48732,-3.53554 -60.60915,4.54568 z"
       id="path4017"
       inkscape:connector-curvature="0" />
    <path
       style="fill:#ffffff;stroke:none;stroke-width:1px;stroke-linecap:butt;stroke-linejoin:miter;stroke-opacity:1;fill-opacity:1"
       d="m 657.10423,548.96689 c 0,0 -10.10152,13.63706 -13.63706,17.67767 -3.53553,4.04061 -8.08122,9.59645 -8.08122,20.20305 0,10.6066 -5.05076,19.69797 3.53554,23.23351 8.58629,3.53553 14.64721,6.56599 30.80965,-3.03046 16.16244,-9.59645 16.16244,-12.12183 20.70813,-22.22336 4.54568,-10.10152 7.57614,-12.12183 5.55583,-23.2335 -2.0203,-11.11168 -8.08122,-19.1929 -17.17259,-19.1929 -9.09137,0 -16.66752,2.52538 -21.71828,6.56599 z"
       id="path4019"
       inkscape:connector-curvature="0" />
    <path
       style="fill:#ffffff;stroke:none;stroke-width:1px;stroke-linecap:butt;stroke-linejoin:miter;stroke-opacity:1;fill-opacity:1"
       d="m 676.29713,602.50497 c 0,0 -5.05076,10.6066 -3.53553,20.70813 1.51522,10.10153 4.54568,18.68782 14.14213,20.70813 9.59645,2.0203 8.5863,0.50507 13.63706,4.54568 5.05076,4.04061 10.10153,4.54569 20.70813,2.02031 10.6066,-2.52538 13.13198,-12.12183 14.64721,-22.22336 1.51523,-10.10152 2.52538,-36.36549 -5.55584,-48.48732 -8.08122,-12.12183 -25.25381,-15.15229 -32.32488,-9.09137 -7.07107,6.06091 -6.56599,19.69797 -12.62691,25.75889 -6.06091,6.06091 -9.09137,6.06091 -9.09137,6.06091 z"
       id="path4021"
       inkscape:connector-curvature="0" />
    <path
       style="fill:#ffffff;stroke:none;stroke-width:1px;stroke-linecap:butt;stroke-linejoin:miter;stroke-opacity:1;fill-opacity:1"
       d="m 691.95449,643.92123 c 0,0 -5.55584,2.0203 -6.06091,7.57614 -0.50508,5.55584 -2.52538,17.67767 -4.54569,24.24366 -2.0203,6.56599 -4.54568,17.1726 1.51523,20.20305 6.06092,3.03046 12.62691,-1.51523 20.20305,-0.50507 7.57615,1.01015 9.59645,10.10152 15.15229,9.59645 5.55584,-0.50508 14.64721,-13.63706 16.66752,-23.73859 2.0203,-10.10152 5.05076,-32.32488 -2.02031,-32.82996 -7.07107,-0.50507 -15.65736,3.53554 -21.2132,3.53554 -5.55584,0 -14.64721,-8.5863 -19.69798,-8.08122 z"
       id="path4023"
       inkscape:connector-curvature="0" />
    <path
       style="fill:#ffffff;stroke:none;stroke-width:1px;stroke-linecap:butt;stroke-linejoin:miter;stroke-opacity:1;fill-opacity:1"
       d="m 685.3885,697.45931 c 0,0 -7.57614,13.13199 -7.57614,19.69798 0,6.56599 -2.02031,28.28427 1.51523,30.30457 3.53553,2.02031 11.11168,4.04061 16.16244,-0.50507 5.05076,-4.54569 9.59645,-5.55584 13.63706,-1.51523 4.04061,4.04061 12.6269,6.56599 15.15229,-3.53554 2.52538,-10.10152 1.01015,-37.37564 0,-39.90102 -1.01016,-2.52538 -1.01016,3.53553 -6.06092,3.03046 -5.05076,-0.50508 -3.53553,-8.08122 -12.12183,-9.59645 -8.5863,-1.51523 -20.70813,2.0203 -20.70813,2.0203 z"
       id="path4025"
       inkscape:connector-curvature="0" />
    <path
       style="fill:#ffffff;stroke:none;stroke-width:1px;stroke-linecap:butt;stroke-linejoin:miter;stroke-opacity:1;fill-opacity:1"
       d="m 443.45697,550.98719 c 0,0 15.15229,2.52538 17.67767,11.11168 2.52538,8.5863 1.01015,31.31473 -3.53554,40.4061 -4.54568,9.09138 -23.73858,13.63706 -30.30457,14.14214 -6.56599,0.50508 -20.20305,-2.02031 -23.73859,-6.56599 -3.53553,-4.54569 -8.58629,-14.14214 -5.55584,-17.1726 3.03046,-3.03045 8.08122,-3.03045 10.10153,-7.57614 2.0203,-4.54569 -0.50508,-12.62691 3.53553,-15.15229 4.04061,-2.52538 31.81981,-19.1929 31.81981,-19.1929 z"
       id="path4027"
       inkscape:connector-curvature="0" />
    <path
       style="fill:#ffffff;stroke:none;stroke-width:1px;stroke-linecap:butt;stroke-linejoin:miter;stroke-opacity:1;fill-opacity:1"
       d="m 402.04071,607.55574 c 0,0 1.01016,8.58629 -1.76776,15.40482 -2.77792,6.81853 -18.18275,21.46574 -22.98097,22.4759 -4.79823,1.01015 -11.8693,0 -12.37437,-3.78808 -0.50508,-3.78807 25.75889,-45.96194 28.28427,-46.46701 2.52538,-0.50508 7.07107,9.09137 8.83883,12.37437 z"
       id="path4029"
       inkscape:connector-curvature="0" />
    <path
       style="fill:#ffffff;stroke:none;stroke-width:1px;stroke-linecap:butt;stroke-linejoin:miter;stroke-opacity:1;fill-opacity:1"
       d="m 374.26152,645.94153 c 0,0 0.75761,15.65737 -2.02031,22.4759 -2.77792,6.81853 -5.80837,17.17259 -9.59645,19.95051 -3.78807,2.77792 -10.35406,7.57614 -15.15228,7.07107 -4.79823,-0.50508 -6.81853,-4.79823 -6.81853,-8.33376 0,-3.53554 20.70812,-45.45687 22.22335,-45.45687 1.51523,0 6.81853,6.81853 11.36422,4.29315 z"
       id="path4031"
       inkscape:connector-curvature="0" />
    <path
       style="fill:#ffffff;stroke:none;stroke-width:1px;stroke-linecap:butt;stroke-linejoin:miter;stroke-opacity:1;fill-opacity:1"
       d="m 372.74629,864.63956 c 0,0 18.68782,-10.10153 22.47589,-9.84899 3.78808,0.25254 9.84899,1.26269 9.84899,4.54569 0,3.28299 -1.76777,15.40482 -4.79822,19.1929 -3.03046,3.78807 -8.83884,6.56599 -10.60661,5.55584 -1.76776,-1.01016 -16.41497,-16.16245 -16.92005,-19.44544 z"
       id="path4033"
       inkscape:connector-curvature="0" />
    <path
       style="fill:#ffffff;stroke:none;stroke-width:1px;stroke-linecap:butt;stroke-linejoin:miter;stroke-opacity:1;fill-opacity:1"
       d="m 405.82879,858.07357 c 0,0 3.78807,-8.83884 8.33375,-9.84899 4.54569,-1.01015 17.42514,-2.52538 22.4759,0.25254 5.05076,2.77792 6.06091,3.53553 6.06091,3.53553 0,0 -4.29314,3.78807 -5.05076,8.08122 -0.75761,4.29315 -1.01015,21.71828 -4.04061,24.4962 -3.03046,2.77792 -20.20305,10.10153 -25.25381,8.33376 -5.05077,-1.76777 -10.6066,-8.33376 -10.10153,-10.6066 0.50508,-2.27284 7.32361,-12.62691 7.57615,-24.24366 z"
       id="path4035"
       inkscape:connector-curvature="0" />
    <path
       style="fill:#ffffff;stroke:none;stroke-width:1px;stroke-linecap:butt;stroke-linejoin:miter;stroke-opacity:1;fill-opacity:1"
       d="m 435.37575,882.31723 c 0,0 3.03046,14.39467 10.6066,16.41498 7.57614,2.0203 22.22336,0.50507 24.74874,-2.52538 2.52538,-3.03046 4.04061,-24.24367 4.04061,-31.06219 0,-6.81853 0.75761,-14.39468 -6.56599,-16.16245 -7.32361,-1.76776 -19.1929,-5.05076 -24.4962,2.52539 -5.3033,7.57614 -7.32361,19.19289 -8.33376,30.80965 z"
       id="path4037"
       inkscape:connector-curvature="0" />
    <path
       style="fill:#ffffff;stroke:none;stroke-width:1px;stroke-linecap:butt;stroke-linejoin:miter;stroke-opacity:1;fill-opacity:1"
       d="m 476.792,890.14591 c 0,0 -3.28299,-16.41498 -1.26269,-29.04189 2.02031,-12.6269 1.26269,-12.6269 7.07107,-14.89975 5.80838,-2.27284 23.99112,-12.6269 28.53681,-10.10152 4.54568,2.52538 4.29315,19.69797 2.52538,32.07234 -1.76777,12.37437 4.04061,25.25382 -8.83883,27.7792 -12.87945,2.52538 -23.99113,-1.76777 -28.03174,-5.80838 z"
       id="path4039"
       inkscape:connector-curvature="0" />
    <path
       style="fill:#ffffff;stroke:none;stroke-width:1px;stroke-linecap:butt;stroke-linejoin:miter;stroke-opacity:1;fill-opacity:1"
       d="m 518.46079,836.10275 c 2.27285,-2.52538 27.02159,-8.33376 35.10281,-5.80838 8.08122,2.52538 8.58629,4.04061 6.56599,16.41498 -2.02031,12.37437 -4.04061,28.28427 -4.54569,34.59773 -0.50508,6.31345 -6.81853,8.58629 -18.18275,8.58629 -11.36421,0 -19.69797,2.77792 -21.2132,-5.05076 -1.51523,-7.82868 -1.01015,-39.90103 2.27284,-48.73986 z"
       id="path4041"
       inkscape:connector-curvature="0" />
    <path
       style="fill:#ffffff;stroke:none;stroke-width:1px;stroke-linecap:butt;stroke-linejoin:miter;stroke-opacity:1;fill-opacity:1"
       d="m 563.41258,886.1053 c -2.0203,-7.07107 -5.80837,-18.68782 -3.28299,-32.82996 2.52538,-14.14213 3.53553,-24.74873 9.09137,-24.74873 5.55584,0 31.31473,-0.75762 34.34519,4.04061 3.03045,4.79822 -0.50508,21.46574 -3.283,27.27411 -2.77792,5.80838 -3.03046,19.1929 -1.76777,23.73859 1.26269,4.54569 1.01016,16.66752 -9.34391,13.63706 -10.35406,-3.03046 -23.48604,-7.82868 -25.75889,-11.11168 z"
       id="path4043"
       inkscape:connector-curvature="0" />
    <path
       style="fill:#ffffff;stroke:none;stroke-width:1px;stroke-linecap:butt;stroke-linejoin:miter;stroke-opacity:1;fill-opacity:1"
       d="m 615.1829,834.84006 c 8.83884,2.27284 24.74874,6.56599 26.26397,11.61675 1.51523,5.05077 4.04061,9.84899 -1.76777,23.99113 -5.80838,14.14213 -5.55584,17.42513 -6.06092,24.24366 -0.50507,6.81853 -7.57614,9.34391 -13.13198,8.08122 -5.55584,-1.26269 -19.44543,-12.87945 -19.44543,-18.43529 0,-5.55584 7.82868,-28.03173 7.82868,-32.82995 0,-4.79823 -3.53554,-17.1726 6.31345,-16.66752 z"
       id="path4045"
       inkscape:connector-curvature="0" />
    <path
       style="fill:#ffffff;stroke:none;stroke-width:1px;stroke-linecap:butt;stroke-linejoin:miter;stroke-opacity:1;fill-opacity:1"
       d="m 665.94307,860.34641 c 0,0 6.31345,4.79823 7.3236,11.11168 1.01015,6.31345 1.26269,32.82996 -3.03046,37.37564 -4.29314,4.54569 -9.59644,10.85914 -20.96066,7.07107 -11.36422,-3.78807 -14.39467,-11.61675 -13.13198,-20.96066 1.26269,-9.34392 7.3236,-35.10281 9.34391,-35.10281 2.0203,0 16.66751,-2.27284 20.45559,0.50508 z"
       id="path4047"
       inkscape:connector-curvature="0" />
    <path
       style="fill:#ffffff;stroke:none;stroke-width:1px;stroke-linecap:butt;stroke-linejoin:miter;stroke-opacity:1;fill-opacity:1"
       d="m 674.7819,878.02408 c 0,0 14.39467,-2.77792 21.46574,-0.75761 7.07107,2.0203 7.82868,1.01015 8.08122,7.3236 0.25254,6.31345 4.04061,14.14214 -3.78807,18.94036 -7.82868,4.79823 -18.68782,13.38452 -23.48605,9.59645 -4.79822,-3.78807 -3.28299,-13.13198 -1.76776,-18.94036 1.51523,-5.80838 0.50507,-11.86929 -0.50508,-16.16244 z"
       id="path4049"
       inkscape:connector-curvature="0" />
    <path
       style="fill:#ffffff;stroke:none;stroke-width:1px;stroke-linecap:butt;stroke-linejoin:miter;stroke-opacity:1;fill-opacity:1"
       d="m 705.59155,883.32738 c 0,0 4.54569,-5.3033 7.07107,-3.28299 2.52538,2.0203 4.79823,8.83883 3.283,11.36421 -1.51523,2.52538 -8.33376,7.32361 -8.83884,6.31345 -0.50507,-1.01015 -2.0203,-11.11167 -1.51523,-14.39467 z"
       id="path4051"
       inkscape:connector-curvature="0" />
    <path
       style="fill:#ffffff;stroke:none;stroke-width:1px;stroke-linecap:butt;stroke-linejoin:miter;stroke-opacity:1;fill-opacity:1"
       d="m 691.19688,875.4987 c 0,0 -2.77792,-12.12183 3.283,-12.12183 6.06091,0 20.70812,-0.75762 22.98097,-3.283 2.27284,-2.52538 6.31345,0 8.33375,3.283 2.02031,3.28299 1.51523,14.14213 -0.50507,15.9099 -2.02031,1.76777 -17.93021,1.01015 -19.95051,1.01015 -2.02031,0 -14.14214,-4.79822 -14.14214,-4.79822 z"
       id="path4053"
       inkscape:connector-curvature="0" />
  </g>
  <g
     inkscape:groupmode="layer"
     id="layer11"
     inkscape:label="Nose Bridge">
    <path
       style="fill:#dfc2c2;stroke:none;stroke-width:1px;stroke-linecap:butt;stroke-linejoin:miter;stroke-opacity:1;fill-opacity:1"
       d="m 606.09153,0 c 0,0 7.57614,15.101268 7.57614,40.355081 0,25.253814 -6.56599,32.324882 -3.53553,52.022857 3.03046,19.697972 18.68782,38.890872 18.68782,38.890872 l -120.71323,13.13198 c 0,0 -9.09137,-47.477166 -4.54569,-62.124378 4.54569,-14.647212 4.54569,-38.890873 8.5863,-51.51778 C 516.18795,18.131725 526.28948,0 526.28948,0 z"
       id="path3997"
       inkscape:connector-curvature="0" />
  </g>
  <g
     inkscape:groupmode="layer"
     id="layer2"
     inkscape:label="Cheeks"
     style="display:inline">
    <path
       style="fill:url(#linearGradient4165);fill-opacity:1;stroke:none"
       d="m 459.28571,210.71428 c -26.42857,23.57143 -85.71428,60 -253.57142,87.14286 C 37.857143,325 -5.714285,527.14286 0,556.42857 c 5.714286,29.28572 75.714286,169.28572 85.714286,202.85714 10,33.57143 4.285718,168.57143 11.428568,189.28572 C 104.28571,969.28571 144.28572,1000 144.28572,1000 l 154.28571,0 c 0,0 -18.57143,-3.57143 -26.42857,-20 C 264.28571,963.57143 265,912.14286 254.28571,877.14286 c -10.71428,-35 -32.85714,-91.42857 -30.71428,-159.28572 C 225.71429,650 237.14286,551.42857 265,481.42857 c 27.85714,-70 87.14286,-132.14286 95,-152.85714 C 367.85714,307.85714 463.57143,225 459.28571,210.71428 z"
       id="path3833"
       inkscape:connector-curvature="0"
       sodipodi:nodetypes="cssssccsssssc" />
    <path
       style="fill:url(#linearGradient4173);stroke:none;stroke-width:1px;stroke-linecap:butt;stroke-linejoin:miter;stroke-opacity:1;fill-opacity:1"
       d="m 734.28572,252.14286 c 52.14285,18.57142 72.14285,33.57142 110.71428,37.14285 38.57143,3.57143 81.42857,-2.85714 107.85714,12.14286 26.42858,15 47.14286,34.28571 47.14286,34.28571 l 0,432.14286 c 0,0 -27.14286,75 -32.14286,97.14286 -5,22.14286 1.42858,65.71429 -0.71428,92.85714 C 965,985 950.71429,1000 950.71429,1000 l -183.57143,0 c 0,0 31.42857,-37.85714 37.85714,-65.71429 6.42857,-27.85714 4.28572,-87.14285 13.57143,-120.71428 C 827.85714,780 865.71429,692.85714 867.85714,659.28571 870,625.71429 860.71429,515 821.42857,452.85714 782.14286,390.71429 767.85714,270 734.28572,252.14286 z"
       id="path3835"
       inkscape:connector-curvature="0"
       sodipodi:nodetypes="cssccssccssssc" />
    <path
       style="fill:#1d2d37;stroke:none;stroke-width:1px;stroke-linecap:butt;stroke-linejoin:miter;stroke-opacity:1;fill-opacity:1"
       d="m 161.78571,607.5 c 0,0 -9.64285,50 -7.5,81.42857 2.14286,31.42857 12.5,106.07143 15,106.42857 2.5,0.35715 -5.35714,-63.57143 -3.57142,-76.42857 C 167.5,706.07143 170.35714,685 168.92857,671.07143 167.5,657.14286 158.21429,635 161.78571,607.5 z"
       id="path3845"
       inkscape:connector-curvature="0" />
    <path
       style="fill:#1d2d37;stroke:none;stroke-width:1px;stroke-linecap:butt;stroke-linejoin:miter;stroke-opacity:1;fill-opacity:1"
       d="m 275,607.5 c 0,0 -8.92857,65 -8.21429,91.07143 0.71429,26.07143 8.21429,107.5 12.5,113.92857 4.28572,6.42857 -3.57142,-92.5 -2.14285,-106.07143 C 278.57143,692.85714 277.5,620 275,607.5 z"
       id="path3847"
       inkscape:connector-curvature="0" />
    <path
       style="fill:#1d2d37;stroke:none;stroke-width:1px;stroke-linecap:butt;stroke-linejoin:miter;stroke-opacity:1;fill-opacity:1"
       d="m 965.71429,727.85714 c 0,0 -25.35715,81.78572 -40,126.78572 -14.64286,45 5.16893,79.40609 7.14285,95 C 936.42858,977.85714 921.78572,1000 921.78572,1000 l -18.57143,0 c 0,0 15.71428,-17.14286 17.85714,-30 2.14286,-12.85714 -14.64286,-57.5 -8.57143,-89.28571 6.07143,-31.78572 49.28572,-136.07143 53.21429,-152.85715 z"
       id="path3849"
       inkscape:connector-curvature="0"
       sodipodi:nodetypes="cssccssc" />
    <path
       style="fill:#1d2d37;stroke:none;stroke-width:1px;stroke-linecap:butt;stroke-linejoin:miter;stroke-opacity:1;fill-opacity:1"
       d="m 813.57143,730 c 0,0 -5.71429,27.14286 -15.71429,54.28571 -10,27.14286 -12.85714,82.14286 -13.92857,93.57143 -1.07143,11.42857 -11.78571,51.07143 -25.71428,74.64286 -13.92857,23.57143 -31.07143,47.5 -31.07143,47.5 l 8.92857,0 c 0,0 35.35714,-54.64286 40.71429,-73.57143 5.35714,-18.92857 11.78571,-45 12.5,-70.71428 C 790,830 798.21429,791.07143 813.57143,730 z"
       id="path3851"
       inkscape:connector-curvature="0" />
    <path
       style="fill:url(#linearGradient4181);stroke:none;stroke-width:1px;stroke-linecap:butt;stroke-linejoin:miter;stroke-opacity:1;fill-opacity:1"
       d="m 167.14286,308.92857 c 0,0 -24.64286,-12.5 -58.21429,-11.42857 C 75.357143,298.57143 0,328.21428 0,328.21428 L 0,1000 l 144.28571,0 c 0,0 -27.5,-33.21429 -31.07142,-51.07143 C 109.64286,931.07143 93.928572,796.42857 90,775.71429 86.071429,755 41.785714,585.35714 40.357143,553.21429 38.928571,521.07143 41.428571,350.71428 167.14286,308.92857 z"
       id="path3853"
       inkscape:connector-curvature="0" />
    <path
       style="fill:url(#linearGradient4189);stroke:none;stroke-width:1px;stroke-linecap:butt;stroke-linejoin:miter;stroke-opacity:1;fill-opacity:1"
       d="m 824.28572,285.71428 c 0,0 37.5,1.78572 46.42857,0.71429 8.92857,-1.07143 49.28571,-6.07143 63.21428,-7.14286 13.92857,-1.07143 42.5,-0.71428 54.28572,-2.5 C 1000,275 1000,273.92857 1000,273.92857 l 0,61.78571 c 0,0 -39.64286,-36.78571 -65.35714,-41.42857 -25.71429,-4.64285 -92.85714,-3.57143 -110.35714,-8.57143 z"
       id="path3856"
       inkscape:connector-curvature="0" />
  </g>
  <g
     inkscape:groupmode="layer"
     id="layer3"
     inkscape:label="Eyes"
     style="display:inline">
    <path
       style="fill:#e6f1f9;fill-opacity:1;stroke:none;stroke-width:1px;stroke-linecap:butt;stroke-linejoin:miter;stroke-opacity:1"
       d="m 974.64286,244.28571 c 0.71428,3.92857 -2.5,12.85715 -10.35714,13.57143 -7.85715,0.71429 -16.42858,-2.5 -26.07143,-0.35714 -9.64286,2.14286 -87.85715,22.5 -100.35715,22.14286 C 825.35714,279.28571 772.14286,275 733.57143,250.71428 695,226.42857 667.5,194.28571 662.14286,171.42857 c 0,0 13.21428,13.57143 27.85714,2.14286 14.64286,-11.42857 50.71429,-45.35715 106.42857,-47.14286 55.71429,-1.78571 76.78572,6 89.28572,12.78571 12.5,6.78572 51.07143,41.5 58.57143,53.28572 7.5,11.78571 28.21428,47.14286 30.35714,51.78571 z"
       id="path3858"
       inkscape:connector-curvature="0"
       sodipodi:nodetypes="csssscssssc" />
    <path
       style="fill:#e6f1f9;fill-opacity:1;stroke:#000000;stroke-width:1px;stroke-linecap:butt;stroke-linejoin:miter;stroke-opacity:1"
       d="M 60.714286,271.42857 C 61.428572,263.57143 80,228.57143 89.642857,219.28571 99.285714,210 122.5,194.28571 131.78571,187.14286 c 9.28572,-7.14286 65,-52.5 109.28572,-57.5 44.28571,-5 81.42857,12.14285 95,24.28571 13.57143,12.14286 21.42857,21.78571 31.07143,28.21429 9.64285,6.42857 16.07143,8.57142 16.78571,10.35714 0.71429,1.78571 -2.14286,2.85714 -3.21428,5.35714 -1.07143,2.5 -1.07143,15.71429 -3.21429,21.42857 -2.14286,5.71429 -15,19.64286 -15,19.64286 0,0 -27.5,10 -41.78571,16.42857 -14.28572,6.42857 -24.64286,11.07143 -55,17.85714 -30.35715,6.78572 -76.42858,16.42858 -115,11.07143 -38.57143,-5.35714 -51.071433,-12.14285 -65.357147,-10 -14.285714,2.14286 -16.785714,4.64286 -20,2.85715 -3.214286,-1.78572 -3.571429,-2.5 -4.642857,-5.71429 z"
       id="path3872"
       inkscape:connector-curvature="0" />
    <path
       style="fill:#1d2d37;fill-opacity:1;stroke:none;stroke-width:1px;stroke-linecap:butt;stroke-linejoin:miter;stroke-opacity:1"
       d="m 400.71429,170.35714 c 0,0 -0.35715,11.07143 5.71428,16.78572 6.07143,5.71428 13.21429,13.57142 10,20.35714 -3.21428,6.78571 -12.85714,15.71428 -23.57143,20.71428 -10.71428,5 -29.64285,10.71429 -29.64285,10.71429 0,0 12.14285,-11.78571 15.35714,-19.64286 3.21428,-7.85714 -2.5,-16.78571 1.42857,-21.42857 3.92857,-4.64286 5,-6.07143 5,-6.07143 0,0 3.21429,3.21429 7.85714,3.92857 4.64286,0.71429 11.78572,1.07143 13.92857,6.07143 2.14286,5 -1.07142,11.42857 -1.07142,11.42857 0,0 2.5,-9.28571 -2.5,-11.42857 -5,-2.14285 -11.07143,-6.42857 -16.42858,-2.85714 -5.35714,3.57143 -4.28571,14.28571 -6.42857,19.28571 -2.14285,5 -5.35714,7.85715 -3.57143,8.57143 1.78572,0.71429 18.92858,-5 21.42858,-8.57143 2.5,-3.57142 3.57142,-9.64285 3.57142,-9.64285 0,0 -2.85714,7.5 0.71429,7.85714 3.57143,0.35714 12.14286,-8.21429 11.78571,-12.14286 -0.35714,-3.92857 -14.64285,-11.42857 -18.21428,-18.21428 -3.57143,-6.78572 -2.14286,-15 4.64286,-15.71429 z"
       id="path3874"
       inkscape:connector-curvature="0" />
    <path
       style="fill:#1d2d37;fill-opacity:1;stroke:none"
       d="m 0,232.5 c 23.214286,-0.71429 65.714286,-14.64286 86.428572,-31.42857 20.714288,-16.78572 90.714288,-68.21429 112.499998,-78.21429 21.78572,-10 82.85714,-20.71428 105.35714,-21.78571 22.5,-1.071431 55,-25.000003 65,-27.857146 10,-2.857143 41.07143,-6.071428 41.07143,-6.071428 0,0 -11.78571,-5 -21.78571,-3.571429 -10,1.428572 -66.96429,33.392857 -74.10714,35 C 307.32143,100.17857 255.89286,104.46428 242.5,107.85714 229.10714,111.25 196.42857,120.71428 179.82143,131.25 163.21429,141.78571 72.185645,220.63402 18.75,228.75 -4.0857425,232.21837 0,232.5 0,232.5 z"
       id="path3876"
       inkscape:connector-curvature="0"
       sodipodi:nodetypes="csssscsssssc" />
    <path
       style="fill:#1d2d37;fill-opacity:1;stroke:none;stroke-width:1px;stroke-linecap:butt;stroke-linejoin:miter;stroke-opacity:1"
       d="m 199.28571,115 c 0,0 35.53572,-15.535716 42.67858,-17.500002 7.14285,-1.964286 42.85714,-11.607143 51.42857,-15 8.57143,-3.392857 47.67857,-19.642857 54.64286,-21.607143 6.96428,-1.964286 37.32142,-3.75 38.39285,-5.178571 1.07143,-1.428572 -5.17857,-2.5 -13.57143,-2.142857 -8.39285,0.357142 -70.35714,21.785714 -81.07143,27.142857 -10.71428,5.357143 -57.67857,16.25 -65.53571,19.642856 -7.85714,3.39286 -25.17857,12.5 -26.96429,14.64286 z"
       id="path3878"
       inkscape:connector-curvature="0" />
    <path
       inkscape:connector-curvature="0"
       id="path3936"
       d="M 60.714286,271.42857 C 61.428572,263.57143 80,228.57143 89.642857,219.28571 99.285714,210 122.5,194.28571 131.78571,187.14286 c 9.28572,-7.14286 65,-52.5 109.28572,-57.5 44.28571,-5 81.42857,12.14285 95,24.28571 13.57143,12.14286 21.42857,21.78571 31.07143,28.21429 9.64285,6.42857 16.07143,8.57142 16.78571,10.35714 0.71429,1.78571 -2.14286,2.85714 -3.21428,5.35714 -1.07143,2.5 -1.07143,15.71429 -3.21429,21.42857 -2.14286,5.71429 -15,19.64286 -15,19.64286 0,0 -27.5,10 -41.78571,16.42857 -14.28572,6.42857 -24.64286,11.07143 -55,17.85714 -30.35715,6.78572 -76.42858,16.42858 -115,11.07143 -38.57143,-5.35714 -51.071433,-12.14285 -65.357147,-10 -14.285714,2.14286 -16.785714,4.64286 -20,2.85715 -3.214286,-1.78572 -3.571429,-2.5 -4.642857,-5.71429 z"
       style="fill:#e6f1f9;fill-opacity:1;stroke:none;stroke-width:1px;stroke-linecap:butt;stroke-linejoin:miter;stroke-opacity:1" />
    <path
       style="fill:#1d2d37;stroke:none;stroke-width:1px;stroke-linecap:butt;stroke-linejoin:miter;stroke-opacity:1;fill-opacity:1"
       d="m 1000,205.00995 c 0,0 -3.48451,0 -10.55558,-3.53554 -7.07107,-3.53553 -45.45687,-73.23606 -65.65992,-83.84266 -20.20305,-10.6066 -61.6193,-18.182745 -72.73098,-24.24366 -11.11168,-6.060915 -53.53809,-52.527932 -64.14469,-61.114229 -10.6066,-8.586297 -35.86041,-21.71828 -38.38579,-21.71828 -2.52538,0 23.73858,12.626907 36.36549,23.738585 12.6269,11.111678 43.94163,50.002551 54.54824,56.063466 10.6066,6.060916 73.23606,21.718278 85.86296,33.335038 12.62691,11.61675 48.53834,71.72083 61.61931,79.80205 C 1000,211.57594 1000,213.09117 1000,213.09117 z"
       id="path3990"
       inkscape:connector-curvature="0" />
    <path
       style="fill:#1d2d37;stroke:none;stroke-width:1px;stroke-linecap:butt;stroke-linejoin:miter;stroke-opacity:1;fill-opacity:1"
       d="m 713.1677,59.54798 c 0,0 30.30457,-5.555839 49.49747,2.020305 19.1929,7.576144 36.36549,21.71828 56.06347,29.7995 19.69797,8.08122 85.86296,30.304575 105.56094,46.467015 19.69797,16.16244 47.47717,61.61931 55.55839,77.78175 8.08122,16.16244 9.59645,26.76904 9.59645,26.76904 0,0 -33.73013,-74.70702 -54.26585,-92.02845 -20.53571,-17.32143 -64.28571,-36.78571 -104.46428,-49.64286 -40.17857,-12.857139 -38.53525,-30.299298 -78.39286,-38.214282 -25.17857,-5 -39.15373,-2.952018 -39.15373,-2.952018 z"
       id="path3992"
       inkscape:connector-curvature="0"
       sodipodi:nodetypes="csssscsssc" />
    <path
       style="fill:#1d2d37;stroke:none;stroke-width:1px;stroke-linecap:butt;stroke-linejoin:miter;stroke-opacity:1;fill-opacity:1"
       d="m 661.42857,155.71428 c 0,0 31.42857,-44.28571 63.92857,-50 32.5,-5.714281 66.42858,-1.42857 88.92858,1.78572 22.5,3.21428 74.64285,24.28571 84.64285,30.35714 10,6.07143 42.5,40.71429 42.5,40.71429 0,0 -32.5,-34.64286 -44.64285,-40 -12.14286,-5.35715 -60.35715,-26.07143 -77.5,-28.21429 -17.14286,-2.14286 -68.92858,-11.785713 -97.5,3.57143 -28.57143,15.35714 -30.35715,9.28571 -60.35715,41.78571 z"
       id="path3994"
       inkscape:connector-curvature="0" />
  </g>
  <g
     inkscape:groupmode="layer"
     id="layer4"
     inkscape:label="Iris"
     style="display:inline">
    <path
       sodipodi:type="arc"
       style="fill:#6492b3;fill-opacity:1;stroke:none;stroke-width:1px;stroke-linecap:butt;stroke-linejoin:miter;stroke-opacity:1"
       id="path3861"
       sodipodi:cx="719.28571"
       sodipodi:cy="232.14285"
       sodipodi:rx="82.14286"
       sodipodi:ry="82.14286"
       d="m 801.42857,232.14285 a 82.14286,82.14286 0 1 1 -164.28572,0 82.14286,82.14286 0 1 1 164.28572,0 z"
       transform="translate(5.3571429,5)"
       clip-path="url(#clipPath3964)" />
    <path
       sodipodi:type="arc"
       style="fill:#6492b3;fill-opacity:1;stroke:none;stroke-width:1px;stroke-linecap:butt;stroke-linejoin:miter;stroke-opacity:1"
       id="path3867"
       sodipodi:cx="138.57143"
       sodipodi:cy="256.07144"
       sodipodi:rx="87.14286"
       sodipodi:ry="87.14286"
       d="m 225.71429,256.07144 a 87.14286,87.14286 0 1 1 -174.285724,0 87.14286,87.14286 0 1 1 174.285724,0 z"
       transform="translate(5,6)"
       mask="url(#mask3983)" />
  </g>
  <g
     inkscape:groupmode="layer"
     id="layer5"
     inkscape:label="Pupils"
     style="display:inline">
    <path
       transform="matrix(0.58513398,0,0,0.58513398,303.76434,101.30818)"
       d="m 801.42857,232.14285 a 82.14286,82.14286 0 1 1 -164.28572,0 82.14286,82.14286 0 1 1 164.28572,0 z"
       sodipodi:ry="82.14286"
       sodipodi:rx="82.14286"
       sodipodi:cy="232.14285"
       sodipodi:cx="719.28571"
       id="path3864"
       style="fill:#1d2d37;fill-opacity:1;stroke:#000000;stroke-width:1px;stroke-linecap:butt;stroke-linejoin:miter;stroke-opacity:1"
       sodipodi:type="arc"
       clip-path="url(#clipPath3957)" />
    <path
       transform="matrix(0.65362674,0,0,0.65362674,52.997436,94.696299)"
       d="m 225.71429,256.07144 a 87.14286,87.14286 0 1 1 -174.285724,0 87.14286,87.14286 0 1 1 174.285724,0 z"
       sodipodi:ry="87.14286"
       sodipodi:rx="87.14286"
       sodipodi:cy="256.07144"
       sodipodi:cx="138.57143"
       id="path3869"
       style="fill:#1d2d37;fill-opacity:1;stroke:#000000;stroke-width:1px;stroke-linecap:butt;stroke-linejoin:miter;stroke-opacity:1"
       sodipodi:type="arc"
       clip-path="url(#clipPath3972)" />
  </g>
  <g
     inkscape:groupmode="layer"
     id="layer6"
     inkscape:label="Nose"
     style="display:inline">
    <path
       style="fill:url(#radialGradient4113);fill-opacity:1;stroke:none"
       d="m 571.42858,336.07142 c -38.92858,35 -109.30529,73.99136 -143.21429,79.64286 -21.42858,3.57143 -94.57012,-9.94628 -67.50001,-95.35714 20.71429,-65.35715 46.94701,-62.0043 69.64286,-82.14286 25.35715,-22.5 35,-35 49.28572,-66.07142 14.28571,-31.07143 51.78571,-53.92858 86.42857,-56.78572 34.64286,-2.85714 59.28571,3.57143 72.5,17.5 13.21429,13.92857 22.85714,41.78572 31.42857,56.42857 8.57143,14.64286 46.07143,53.57143 67.85714,62.85715 21.78572,9.28571 35.71429,43.21428 31.78572,62.85714 -3.92857,19.64286 -23.21429,80.71428 -41.07143,87.85714 -17.85714,7.14286 -60.71429,6.78572 -81.78571,-5.71428 -21.07143,-12.5 -57.14286,-53.21429 -75.35714,-61.07144 z"
       id="path3881"
       inkscape:connector-curvature="0"
       sodipodi:nodetypes="csssssssssssc" />
  </g>
  <g
     inkscape:groupmode="layer"
     id="layer7"
     inkscape:label="Nostrils"
     style="display:inline">
    <path
       style="fill:#cc4040;fill-opacity:1;stroke:none;stroke-width:1px;stroke-linecap:butt;stroke-linejoin:miter;stroke-opacity:1"
       d="m 597.14286,310.71428 c 0,0 9.70421,20.23183 16.64286,24.64286 8.52801,5.42142 17.64285,2.85714 26.57142,7.5 6.15237,3.19923 26.07143,29.64286 35.71429,31.78572 9.64286,2.14285 52.5,2.5 65.35714,-34.64286 12.85715,-37.14286 -2.85714,-53.57143 -20.71428,-62.85714 -17.85715,-9.28572 -23.21429,-25.71429 -35.35715,-27.5 -12.14285,-1.78572 -33.92857,-2.14286 -50,5 -16.07142,7.14285 -25.42857,11.35714 -29.71428,18.14285 -4.28572,6.78572 -10.28572,29 -8.5,37.92857 z"
       id="path3884"
       inkscape:connector-curvature="0"
       sodipodi:nodetypes="cssssssssc" />
    <path
       style="fill:#cc4040;fill-opacity:1;stroke:none;stroke-width:1px;stroke-linecap:butt;stroke-linejoin:miter;stroke-opacity:1"
       d="m 546.07143,317.5 c 0,0 -6.07143,6.07143 -12.85714,11.78571 C 526.42857,335 522.5,334.64286 517.85714,337.85714 513.21429,341.07143 491.07143,364.64286 471.78572,370 452.5,375.35714 457.5,369.28571 449.64286,372.85714 c -7.85715,3.57143 -27.85715,12.5 -40.71429,10.71429 -12.85714,-1.78572 -27.85714,-20.71429 -26.07143,-45.71429 1.78572,-25 26.07143,-68.92857 49.28572,-72.5 23.21428,-3.57143 49.28571,4.28572 57.85714,5.35714 8.57143,1.07143 32.85714,2.5 41.78572,10.35715 8.92857,7.85714 18.92857,20.71428 14.28571,36.42857 z"
       id="path3886"
       inkscape:connector-curvature="0" />
    <path
       style="display:inline;fill:url(#linearGradient4093);stroke:none;stroke-width:1px;stroke-linecap:butt;stroke-linejoin:miter;stroke-opacity:1;fill-opacity:1"
       d="m 596.49508,304.0049 c 0,0 -2.52538,53.033 10.10152,77.27667 12.62691,24.24366 41.41626,45.96194 33.84011,70.2056 -7.57614,24.24366 -175.26146,7.07107 -175.26146,7.07107 0,0 63.63961,-48.48733 70.71068,-71.21576 7.07106,-22.72843 10.10152,-88.38835 10.10152,-88.38835 z"
       id="path4069"
       inkscape:connector-curvature="0" />
  </g>
  <g
     inkscape:groupmode="layer"
     id="layer12"
     inkscape:label="Lips"
     style="display:inline">
    <path
       style="fill:url(#radialGradient4199);fill-opacity:1;stroke:none;stroke-width:1px;stroke-linecap:butt;stroke-linejoin:miter;stroke-opacity:1"
       d="m 625.78125,443.40625 c -17.70651,0 -57.56725,14.6461 -75.75,15.65625 -18.18274,1.01015 -56.06647,-10.1039 -71.21875,-9.09375 -15.15229,1.01015 -67.19082,3.01823 -119.71875,72.71875 -52.52793,69.70053 -51.99921,134.36197 -48.96875,204.0625 0,0 0.49032,77.79551 23.21875,132.34375 22.72843,54.54824 84.36421,87.86056 122.75,92.40625 38.3858,4.54568 59.09898,-7.56758 99,-7.0625 39.90103,0.50508 34.31978,23.22811 102,19.1875 67.68022,-4.04061 101.47615,-67.97129 105.5625,-97.96875 C 766.1197,840.23141 745.5,766.64246 745.5,733.8125 c 0,-32.82995 11.09026,-69.16925 17.65625,-98.96875 6.56599,-29.7995 12.64484,-74.77283 -11.09375,-122.25 -23.73858,-47.47717 -114.6645,-69.1875 -126.28125,-69.1875 z M 621.75,509.0625 c 7.57614,0.50508 23.24222,14.15197 33.34375,17.6875 10.10152,3.53554 28.76839,5.059 39.375,11.625 10.6066,6.56599 37.88595,24.23287 39.90625,38.375 2.02031,14.14214 9.08201,72.72938 4.03125,93.4375 -5.05076,20.70813 -11.09375,30.81377 -11.09375,55.5625 0,24.74874 11.60898,59.59739 10.09375,93.4375 -1.51523,33.84011 -4.03251,65.65006 -28.78125,81.8125 -24.74874,16.16244 -59.61341,30.31283 -94.96875,11.625 C 578.30091,893.93718 551.03142,880.7868 491.9375,902 432.84358,923.21321 394.4659,893.44402 363.65625,858.59375 332.84659,823.74349 327.30234,745.44798 328.3125,725.75 c 1.01015,-19.69797 29.77427,-78.28093 42.90625,-96.96875 13.13198,-18.68782 26.77506,-51.5184 42.9375,-62.125 16.16244,-10.6066 77.78093,-42.93671 96.46875,-39.90625 0,0 10.60358,2.5203 28.28125,0.5 17.67767,-2.02031 66.68131,-18.69258 82.84375,-18.1875 z"
       id="path4000"
       inkscape:connector-curvature="0"
       sodipodi:nodetypes="sssscssssssssscssssssssssssscsc" />
  </g>
  <g
     inkscape:groupmode="layer"
     id="layer8"
     inkscape:label="Inner Nostril 1"
     style="display:inline">
    <path
       style="fill:#494f88;fill-opacity:1;stroke:none;stroke-width:1px;stroke-linecap:butt;stroke-linejoin:miter;stroke-opacity:1"
       d="m 636.78572,256.78571 c 0,0 15.35714,2.14286 18.57142,6.78572 3.21429,4.64285 6.07143,18.92857 11.78572,31.78571 5.71428,12.85714 15.35714,15.35714 16.78571,23.21429 1.42857,7.85714 -1.42857,17.5 -4.64285,25 -3.21429,7.5 -3.21429,20 -7.85715,22.85714 -4.64285,2.85714 -5.71428,1.78571 -8.21428,0.35714 -2.5,-1.42857 -8.21429,-12.5 -16.78572,-18.92857 -8.57143,-6.42857 -20.71428,-5 -27.5,-8.92857 -6.78571,-3.92857 -20,-22.85714 -21.78571,-30.71429 -1.78572,-7.85714 3.21428,-32.5 7.5,-37.5 4.28571,-5 25,-14.28571 32.14286,-13.92857 z"
       id="path3920"
       inkscape:connector-curvature="0" />
    <path
       style="fill:#494f88;fill-opacity:1;stroke:none;stroke-width:1px;stroke-linecap:butt;stroke-linejoin:miter;stroke-opacity:1"
       d="m 545.71429,315.35714 c 0,0 -6.42857,12.14286 -13.92857,16.78572 -7.5,4.64285 -10,1.42857 -16.42858,7.85714 -6.42857,6.42857 -32.14285,25.71428 -40,29.64286 -7.85714,3.92857 -20,4.64285 -22.85714,-0.35715 -2.85714,-5 -8.57143,-22.14285 1.78572,-33.92857 10.35714,-11.78571 17.5,-14.28571 20.35714,-20.71428 C 477.5,308.21428 477.5,287.5 483.57143,282.85714 c 6.07143,-4.64286 16.07143,-11.78571 18.92857,-11.07143 2.85714,0.71429 25.71429,4.28572 33.57143,13.92857 7.85714,9.64286 12.5,11.78572 9.64286,29.64286 z"
       id="path3922"
       inkscape:connector-curvature="0" />
  </g>
  <g
     inkscape:groupmode="layer"
     id="layer9"
     inkscape:label="Inner Nostril 2"
     style="display:inline">
    <path
       style="fill:#5a5f8f;fill-opacity:1;stroke:none;stroke-width:1px;stroke-linecap:butt;stroke-linejoin:miter;stroke-opacity:1"
       d="m 602.5,282.5 c 0,0 -1.42857,9.64286 3.21429,11.78571 4.64285,2.14286 20.35714,6.07143 23.92857,11.42857 3.57143,5.35715 11.78571,32.85715 3.92857,34.64286 -7.85714,1.78572 -13.21429,-3.57143 -17.14286,-4.28571 -3.92857,-0.71429 -19.28571,-19.28572 -19.28571,-27.5 0,-8.21429 1.42857,-21.78572 5.35714,-26.07143 z"
       id="path3925"
       inkscape:connector-curvature="0" />
    <path
       style="fill:#5a5f8f;fill-opacity:1;stroke:none;stroke-width:1px;stroke-linecap:butt;stroke-linejoin:miter;stroke-opacity:1"
       d="M 489.64286,355.35714 C 487.5,350.71428 482.5,338.57143 488.92857,331.42857 c 6.42857,-7.14286 7.5,-5 13.21429,-13.92857 5.71428,-8.92857 7.14286,-20.35714 18.21428,-23.21429 11.07143,-2.85714 21.07143,-3.21428 23.21429,3.21429 2.14286,6.42857 5,14.64286 2.85714,19.28571 -2.14285,4.64286 -17.14285,17.85715 -26.07143,21.07143 -8.92857,3.21429 -13.57142,13.92857 -18.57142,15 -5,1.07143 -7.85715,3.21429 -12.14286,2.5 z"
       id="path3927"
       inkscape:connector-curvature="0" />
  </g>
</svg>
