<?xml version="1.0" encoding="UTF-8" standalone="no"?>
<!-- Created with Inkscape (http://www.inkscape.org/) -->

<svg
   xmlns:dc="http://purl.org/dc/elements/1.1/"
   xmlns:cc="http://creativecommons.org/ns#"
   xmlns:rdf="http://www.w3.org/1999/02/22-rdf-syntax-ns#"
   xmlns:svg="http://www.w3.org/2000/svg"
   xmlns="http://www.w3.org/2000/svg"
   xmlns:sodipodi="http://sodipodi.sourceforge.net/DTD/sodipodi-0.dtd"
   xmlns:inkscape="http://www.inkscape.org/namespaces/inkscape"
   width="1280"
   height="720"
   viewBox="0 0 338.66666 190.50001"
   id="svg2"
   version="1.1"
   inkscape:version="0.91+devel r13925"
   sodipodi:docname="soundslice-gear-video-thumbnail.svg"
   inkscape:export-filename="/Users/agarone/Documents/git/art/soundslice/gear/soundslice-gear-video-thumbnail-1920x1080.png"
   inkscape:export-xdpi="144"
   inkscape:export-ydpi="144">
  <defs
     id="defs4" />
  <sodipodi:namedview
     id="base"
     pagecolor="#ffffff"
     bordercolor="#666666"
     borderopacity="1.0"
     inkscape:pageopacity="0.0"
     inkscape:pageshadow="2"
     inkscape:zoom="0.7"
     inkscape:cx="337.13945"
     inkscape:cy="284.08988"
     inkscape:document-units="px"
     inkscape:current-layer="g5903"
     showgrid="false"
     units="px"
     inkscape:window-width="1920"
     inkscape:window-height="1075"
     inkscape:window-x="0"
     inkscape:window-y="1"
     inkscape:window-maximized="1" />
  <metadata
     id="metadata7">
    <rdf:RDF>
      <cc:Work
         rdf:about="">
        <dc:format>image/svg+xml</dc:format>
        <dc:type
           rdf:resource="http://purl.org/dc/dcmitype/StillImage" />
        <dc:title />
      </cc:Work>
    </rdf:RDF>
  </metadata>
  <g
     inkscape:label="Gray BG"
     inkscape:groupmode="layer"
     id="layer1"
     transform="translate(0,-106.49999)">
    <rect
       style="opacity:1;fill:#6d757b;fill-opacity:1;stroke:none;stroke-width:16.0535984;stroke-miterlimit:4;stroke-dasharray:none;stroke-opacity:1"
       id="rect4141"
       width="338.66669"
       height="190.5"
       x="1.4210855e-14"
       y="106.49999" />
  </g>
  <g
     inkscape:groupmode="layer"
     id="g5903"
     inkscape:label="Green Banner">
    <rect
       style="opacity:1;fill:#b31c9d;fill-opacity:1;stroke:none;stroke-width:11.03082752;stroke-miterlimit:4;stroke-dasharray:none;stroke-opacity:1"
       id="rect5905"
       width="338.66669"
       height="43.65625"
       x="0"
       y="146.84375" />
  </g>
  <g
     inkscape:label="Interview"
     id="g4209"
     inkscape:groupmode="layer">
    <text
       sodipodi:linespacing="125%"
       id="text4211"
       y="34.341614"
       x="173.85484"
       style="font-style:normal;font-variant:normal;font-weight:normal;font-stretch:normal;font-size:20.26743698px;line-height:125%;font-family:Museo;-inkscape-font-specification:'Museo, Normal';text-align:start;letter-spacing:0px;word-spacing:0px;writing-mode:lr-tb;text-anchor:start;fill:#ffffff;fill-opacity:1;stroke:none;stroke-width:0.50668812px;stroke-linecap:butt;stroke-linejoin:miter;stroke-opacity:1"
       xml:space="preserve"><tspan
         id="tspan4213"
         sodipodi:role="line"
         x="173.85484"
         y="34.341614">GEAR:</tspan></text>
    <g
       id="g4297"
       transform="matrix(0.13798551,0,0,0.13798551,13.229167,3.680452)">
      <g
         style="display:none"
         inkscape:label="BG"
         id="layer1-0">
        <rect
           inkscape:export-ydpi="96"
           inkscape:export-xdpi="96"
           y="0"
           x="0"
           height="1000"
           width="1000"
           id="rect4380"
           style="opacity:1;fill:#ffffff;fill-opacity:1;stroke:none;stroke-width:3;stroke-linecap:round;stroke-miterlimit:4;stroke-dasharray:none;stroke-opacity:1" />
      </g>
      <g
         inkscape:label="Logo"
         id="layer2">
        <polygon
           transform="matrix(34.119213,0,0,34.119213,-322.90423,-181.79022)"
           points="24.056,13.162 14.349,13.162 14.349,14.76 23.474,14.76 "
           id="polygon4303"
           style="fill:#eb684a" />
        <polygon
           transform="matrix(34.119213,0,0,34.119213,-322.90423,-181.79022)"
           points="28.578,14.76 38.773,14.76 38.773,13.162 29.16,13.162 "
           id="polygon4305"
           style="fill:#e9a353" />
        <polygon
           transform="matrix(34.119213,0,0,34.119213,-322.90423,-181.79022)"
           points="27.112,18.785 33.888,18.785 33.888,17.188 27.695,17.188 "
           id="polygon4307"
           style="fill:#e9a353" />
        <polygon
           transform="matrix(34.119213,0,0,34.119213,-322.90423,-181.79022)"
           points="22.59,17.188 9.464,17.188 9.464,18.785 22.009,18.785 "
           id="polygon4309"
           style="fill:#eb684a" />
        <polygon
           transform="matrix(34.119213,0,0,34.119213,-322.90423,-181.79022)"
           points="21.125,21.213 13.904,21.213 13.904,22.812 20.543,22.812 "
           id="polygon4311"
           style="fill:#eb684a" />
        <polygon
           transform="matrix(34.119213,0,0,34.119213,-322.90423,-181.79022)"
           points="25.648,22.812 38.773,22.812 38.773,21.213 26.229,21.213 "
           id="polygon4313"
           style="fill:#e9a353" />
        <polygon
           transform="matrix(34.119213,0,0,34.119213,-322.90423,-181.79022)"
           points="24.182,26.838 33.888,26.838 33.888,25.24 24.764,25.24 "
           id="polygon4315"
           style="fill:#e9a353" />
        <polygon
           transform="matrix(34.119213,0,0,34.119213,-322.90423,-181.79022)"
           points="19.66,25.24 9.464,25.24 9.464,26.838 19.078,26.838 "
           id="polygon4317"
           style="fill:#eb684a" />
        <path
           d="M 745.16361,26.371099 C 695.65664,8.3220348 638.77991,39.643472 618.1719,96.213128 l -62.26756,171.073732 -19.85738,54.5225 -30.16139,82.80733 -19.85738,54.52251 -30.16138,82.84145 -19.85739,54.55662 -30.12726,82.87557 -19.85738,54.5225 -55.47784,152.44464 c -10.09929,27.7048 -36.23461,44.79853 -57.08145,37.25818 -11.9076,-4.36726 -19.92562,-15.96779 -22.79163,-30.22962 12.7947,-3.13897 23.78109,-12.41939 28.62602,-25.72589 7.74506,-21.25627 -3.20721,-44.73029 -24.42936,-52.47535 -21.25627,-7.71094 -44.73029,3.30957 -52.44123,24.4976 -20.608,56.60377 2.8319,117.16538 52.40711,135.21444 49.50698,17.98082 106.38371,-13.27237 126.99171,-69.94439 l 62.26757,-171.03961 19.85738,-54.5225 30.16138,-82.87557 19.85739,-54.55662 30.16138,-82.84145 19.85738,-54.52251 30.09315,-82.80733 19.85738,-54.5225 55.47784,-152.41052 c 10.06517,-27.773042 36.23461,-44.832649 57.08144,-37.292303 11.87349,4.33314 19.89151,15.933673 22.75752,30.229623 -12.76059,3.13897 -23.78109,12.41939 -28.5919,25.72589 -7.74506,21.22215 3.17309,44.69617 24.42936,52.44123 21.25627,7.74506 44.73028,-3.24133 52.44123,-24.42936 20.64212,-56.63789 -2.8319,-117.165377 -52.373,-135.180321 z"
           id="path4319"
           inkscape:connector-curvature="0"
           style="fill:#43444e;stroke-width:34.1192131" />
      </g>
    </g>
  </g>
  <g
     inkscape:groupmode="layer"
     id="layer4"
     inkscape:label="Artist Name">
    <text
       xml:space="preserve"
       style="font-style:normal;font-variant:normal;font-weight:600;font-stretch:normal;font-size:28.11879539px;line-height:100%;font-family:Museo;-inkscape-font-specification:'Museo, Semi-Bold';text-align:start;letter-spacing:0px;word-spacing:0px;writing-mode:lr-tb;text-anchor:start;fill:#ffffff;fill-opacity:1;stroke:none;stroke-width:0.70296371px;stroke-linecap:butt;stroke-linejoin:miter;stroke-opacity:1"
       x="174.46907"
       y="59.899769"
       id="text4158"
       sodipodi:linespacing="100%"><tspan
         sodipodi:role="line"
         x="174.46907"
         y="59.899769"
         style="font-style:normal;font-variant:normal;font-weight:600;font-stretch:normal;font-size:28.11879539px;line-height:100%;font-family:Museo;-inkscape-font-specification:'Museo, Semi-Bold';text-align:start;writing-mode:lr-tb;text-anchor:start;fill:#ffffff;fill-opacity:1;stroke-width:0.70296371px"
         id="tspan4544">Adrian</tspan><tspan
         sodipodi:role="line"
         x="174.46907"
         y="88.018562"
         style="font-style:normal;font-variant:normal;font-weight:600;font-stretch:normal;font-size:28.11879539px;line-height:100%;font-family:Museo;-inkscape-font-specification:'Museo, Semi-Bold';text-align:start;writing-mode:lr-tb;text-anchor:start;fill:#ffffff;fill-opacity:1;stroke-width:0.70296371px"
         id="tspan4223">Holovaty of</tspan><tspan
         sodipodi:role="line"
         x="174.46907"
         y="116.13736"
         style="font-style:normal;font-variant:normal;font-weight:600;font-stretch:normal;font-size:28.11879539px;line-height:100%;font-family:Museo;-inkscape-font-specification:'Museo, Semi-Bold';text-align:start;writing-mode:lr-tb;text-anchor:start;fill:#ffffff;fill-opacity:1;stroke-width:0.70296371px"
         id="tspan4225">Soundslice</tspan></text>
  </g>
  <g
     inkscape:groupmode="layer"
     id="layer6"
     inkscape:label="WEIRD">
    <path
       style="opacity:1;fill:#ffffff;fill-opacity:1;stroke:none;stroke-width:17.2258606;stroke-miterlimit:4;stroke-dasharray:none;stroke-opacity:1"
       d="M 245.3457 602.625 L 245.3457 672.625 L 495.3457 672.625 L 495.3457 602.625 L 245.3457 602.625 z M 254.20703 613.5 L 258.08398 613.5 C 261.48345 613.5 263.18217 614.17987 263.99805 617.44336 L 271.4082 648.31055 C 272.02011 650.89414 272.36133 653.41016 272.36133 653.41016 L 272.49609 653.41016 C 272.49609 653.41016 272.90446 650.96213 273.65234 648.31055 L 283.30664 613.63477 L 289.42578 613.63477 L 298.40039 648.31055 C 299.08028 650.96213 299.41992 653.41016 299.41992 653.41016 L 299.55664 653.41016 C 299.55664 653.41016 299.8295 650.89414 300.44141 648.31055 L 307.98828 617.44336 C 308.80415 614.17987 310.43452 613.5 313.83398 613.5 L 317.70898 613.5 L 317.70898 619.3457 L 316.68945 619.3457 C 315.46565 619.3457 314.71885 619.61799 314.37891 620.8418 L 303.83984 661.5 L 295.95312 661.5 L 287.79492 631.17773 C 286.97905 628.05022 286.43555 624.58203 286.43555 624.58203 L 286.29883 624.58203 C 286.29883 624.58203 285.61824 628.04985 284.73438 631.10938 L 276.0332 661.5 L 268.07812 661.5 L 257.53906 620.8418 C 257.19912 619.61799 256.45232 619.3457 255.22852 619.3457 L 254.20703 619.3457 L 254.20703 613.5 z M 326.5 613.5 L 354.7168 613.5 C 357.77632 613.5 359.06641 614.79204 359.06641 617.85156 L 359.06641 623.90234 L 352.88086 623.90234 L 352.88086 620.8418 C 352.88086 619.82196 352.33662 619.3457 351.38477 619.3457 L 337.71875 619.3457 L 337.71875 634.37305 L 354.51172 634.37305 L 354.51172 640.21875 L 337.71875 640.21875 L 337.71875 654.15625 C 337.71875 655.1081 338.26299 655.65234 339.21484 655.65234 L 353.2207 655.65234 C 354.17255 655.65234 354.7168 655.1081 354.7168 654.15625 L 354.7168 651.09766 L 360.9707 651.09766 L 360.9707 657.14844 C 360.9707 660.20796 359.67866 661.5 356.61914 661.5 L 335.27148 661.5 C 332.21196 661.5 330.91992 660.20796 330.91992 657.14844 L 330.91992 619.3457 L 326.5 619.3457 L 326.5 613.5 z M 370.41406 613.5 L 386.25586 613.5 L 386.25586 619.3457 L 381.56445 619.3457 L 381.56445 655.65234 L 386.25586 655.65234 L 386.25586 661.5 L 370.41406 661.5 L 370.41406 655.65234 L 375.10547 655.65234 L 375.10547 619.3457 L 370.41406 619.3457 L 370.41406 613.5 z M 396.6543 613.5 L 417.5957 613.5 C 426.02638 613.5 431.94141 618.80359 431.94141 627.57422 C 431.94141 635.59696 426.70611 639.53923 423.30664 640.28711 L 423.30664 640.42383 C 423.30664 640.42383 424.52983 641.03585 425.3457 642.59961 L 431.125 654.08984 C 431.80489 655.51762 432.89365 655.65234 434.52539 655.65234 L 435.4082 655.65234 L 435.4082 661.5 L 432.07812 661.5 C 428.33871 661.5 426.97782 661.02399 425.41406 657.89648 L 418.88672 644.97852 C 417.66291 642.73487 416.78049 642.39453 414.12891 642.39453 L 407.87305 642.39453 L 407.87305 661.5 L 401.07422 661.5 L 401.07422 619.3457 L 396.6543 619.3457 L 396.6543 613.5 z M 443.75 613.5 L 463.19531 613.5 C 477.81302 613.5 487.4668 622.27002 487.4668 637.43164 C 487.4668 652.66125 477.81302 661.5 463.19531 661.5 L 452.51953 661.5 C 449.46001 661.5 448.16992 660.20796 448.16992 657.14844 L 448.16992 619.3457 L 443.75 619.3457 L 443.75 613.5 z M 407.87305 619.3457 L 407.87305 636.54883 L 416.71094 636.54883 C 421.87813 636.54883 424.9375 633.21686 424.9375 627.8457 C 424.9375 622.47455 421.87887 619.3457 416.84766 619.3457 L 407.87305 619.3457 z M 454.96875 619.3457 L 454.96875 654.15625 C 454.96875 655.1081 455.51299 655.65234 456.46484 655.65234 L 462.71875 655.65234 C 473.39308 655.65234 480.39648 649.26179 480.39648 637.43164 C 480.39648 625.66949 473.32509 619.3457 462.71875 619.3457 L 454.96875 619.3457 z "
       transform="scale(0.26458334)"
       id="rect4172" />
  </g>
  <g
     inkscape:groupmode="layer"
     id="layer7"
     inkscape:label="MAKE">
    <text
       xml:space="preserve"
       style="font-style:normal;font-variant:normal;font-weight:normal;font-stretch:normal;font-size:17.99166679px;line-height:100%;font-family:Museo;-inkscape-font-specification:'Museo, Normal';text-align:start;letter-spacing:0px;word-spacing:0px;writing-mode:lr-tb;text-anchor:start;fill:#ffffff;fill-opacity:1;stroke:none;stroke-width:0.26458335px;stroke-linecap:butt;stroke-linejoin:miter;stroke-opacity:1"
       x="10.690782"
       y="175.02188"
       id="text4175"
       sodipodi:linespacing="100%"><tspan
         sodipodi:role="line"
         id="tspan4177"
         x="10.690782"
         y="175.02188"
         style="font-style:normal;font-variant:normal;font-weight:normal;font-stretch:normal;font-size:17.99166679px;line-height:100%;font-family:Museo;-inkscape-font-specification:'Museo, Normal';text-align:start;writing-mode:lr-tb;text-anchor:start;fill:#ffffff;fill-opacity:1;stroke-width:0.26458335px;letter-spacing:1.32291669px">MAKE</tspan></text>
  </g>
  <g
     inkscape:groupmode="layer"
     id="layer8"
     inkscape:label="MUSIC">
    <text
       xml:space="preserve"
       style="font-style:normal;font-variant:normal;font-weight:normal;font-stretch:normal;font-size:17.99166679px;line-height:100%;font-family:Museo;-inkscape-font-specification:'Museo, Normal';text-align:start;letter-spacing:0px;word-spacing:0px;writing-mode:lr-tb;text-anchor:start;fill:#ffffff;fill-opacity:1;stroke:none;stroke-width:0.26458335px;stroke-linecap:butt;stroke-linejoin:miter;stroke-opacity:1"
       x="134.21758"
       y="174.80598"
       id="text4180"
       sodipodi:linespacing="100%"><tspan
         sodipodi:role="line"
         id="tspan4182"
         x="134.21758"
         y="174.80598"
         style="font-style:normal;font-variant:normal;font-weight:normal;font-stretch:normal;font-size:17.99166679px;line-height:100%;font-family:Museo;-inkscape-font-specification:'Museo, Normal';text-align:start;writing-mode:lr-tb;text-anchor:start;fill:#ffffff;fill-opacity:1;stroke-width:0.26458335px">MUSIC</tspan></text>
  </g>
</svg>
