<?xml version="1.0" encoding="UTF-8" standalone="no"?>
<!-- Created with Inkscape (http://www.inkscape.org/) -->

<svg
   xmlns:dc="http://purl.org/dc/elements/1.1/"
   xmlns:cc="http://creativecommons.org/ns#"
   xmlns:rdf="http://www.w3.org/1999/02/22-rdf-syntax-ns#"
   xmlns:svg="http://www.w3.org/2000/svg"
   xmlns="http://www.w3.org/2000/svg"
   xmlns:sodipodi="http://sodipodi.sourceforge.net/DTD/sodipodi-0.dtd"
   xmlns:inkscape="http://www.inkscape.org/namespaces/inkscape"
   width="1280"
   height="720"
   viewBox="0 0 338.66666 190.50001"
   id="svg2"
   version="1.1"
   inkscape:version="0.91+devel r13925"
   sodipodi:docname="soundslice-gear-facebook-thumbnail.svg"
   inkscape:export-filename="/Users/agarone/Documents/git/art/soundslice/gear/soundslice-gear-facebook-thumbnail-1920x1080.png"
   inkscape:export-xdpi="144"
   inkscape:export-ydpi="144">
  <defs
     id="defs4">
    <linearGradient
       id="linearGradient3995">
      <stop
         style="stop-color:#f46200;stop-opacity:1"
         id="stop3997"
         offset="0" />
      <stop
         style="stop-color:#7a3100;stop-opacity:1"
         id="stop3999"
         offset="1" />
    </linearGradient>
    <linearGradient
       id="linearGradient3980">
      <stop
         style="stop-color:#a05a2c;stop-opacity:1"
         id="stop3982"
         offset="0" />
      <stop
         style="stop-color:#63381b;stop-opacity:1"
         id="stop3984"
         offset="1" />
    </linearGradient>
    <linearGradient
       id="linearGradient3970">
      <stop
         style="stop-color:#d45500;stop-opacity:1"
         id="stop3972"
         offset="0" />
      <stop
         style="stop-color:#8b3800;stop-opacity:1"
         id="stop3974"
         offset="1" />
    </linearGradient>
    <linearGradient
       id="linearGradient3942">
      <stop
         style="stop-color:#f9f9f9;stop-opacity:1"
         id="stop3944"
         offset="0" />
      <stop
         style="stop-color:#c1dfee;stop-opacity:1"
         id="stop3946"
         offset="1" />
    </linearGradient>
    <clipPath
       id="clipPath4408"
       clipPathUnits="userSpaceOnUse">
      <path
         style="fill:#00aad4;stroke-width:0.98;stroke:#000"
         d="m696.25 529.15c0 0 26.26-20.91 40.41-24.56 14.14-3.65 33.34-6.81 46.97 0.49 13.64 7.29 6.31 65.9-24.24 72.7-30.56 6.81-69.7-4.86-63.13-48.63z"
         id="path4410"
         inkscape:connector-curvature="0"
         sodipodi:nodetypes="csssc" />
    </clipPath>
    <clipPath
       id="clipPath4415"
       clipPathUnits="userSpaceOnUse">
      <path
         style="fill:#00aad4;stroke-width:0.95;stroke:#000"
         d="m787.83 524.52c0 0 10.35 15.5 2.02 29.86-8.33 14.36-24.75 32.82-61.87 21.65-37.12-11.17-41.16-53.56-26.01-66.55 15.15-12.99 28.28-14.13 85.86 15.04z"
         id="path4417"
         inkscape:connector-curvature="0" />
    </clipPath>
  </defs>
  <sodipodi:namedview
     id="base"
     pagecolor="#ffffff"
     bordercolor="#666666"
     borderopacity="1.0"
     inkscape:pageopacity="0.0"
     inkscape:pageshadow="2"
     inkscape:zoom="1"
     inkscape:cx="1025.2742"
     inkscape:cy="423.6294"
     inkscape:document-units="px"
     inkscape:current-layer="g4209"
     showgrid="false"
     units="px"
     inkscape:window-width="1920"
     inkscape:window-height="1075"
     inkscape:window-x="0"
     inkscape:window-y="1"
     inkscape:window-maximized="1"
     showguides="true"
     inkscape:guide-bbox="true">
    <sodipodi:guide
       position="-9.8889724,152.4"
       orientation="0,1"
       id="guide4205"
       inkscape:label=""
       inkscape:color="rgb(0,0,255)" />
    <sodipodi:guide
       position="-3.7417733,114.3"
       orientation="0,1"
       id="guide4207"
       inkscape:label=""
       inkscape:color="rgb(0,0,255)" />
    <sodipodi:guide
       position="-12.561668,76.200001"
       orientation="0,1"
       id="guide4209"
       inkscape:label=""
       inkscape:color="rgb(0,0,255)" />
    <sodipodi:guide
       position="0,38.100001"
       orientation="0,1"
       id="guide4211"
       inkscape:label=""
       inkscape:color="rgb(0,0,255)" />
    <sodipodi:guide
       position="67.733334,0"
       orientation="1,0"
       id="guide4213"
       inkscape:label=""
       inkscape:color="rgb(0,0,255)" />
    <sodipodi:guide
       position="135.46667,0"
       orientation="1,0"
       id="guide4215"
       inkscape:label=""
       inkscape:color="rgb(0,0,255)" />
    <sodipodi:guide
       position="203.2,0"
       orientation="1,0"
       id="guide4217"
       inkscape:label=""
       inkscape:color="rgb(0,0,255)" />
    <sodipodi:guide
       position="270.93334,0"
       orientation="1,0"
       id="guide4219"
       inkscape:label=""
       inkscape:color="rgb(0,0,255)" />
  </sodipodi:namedview>
  <metadata
     id="metadata7">
    <rdf:RDF>
      <cc:Work
         rdf:about="">
        <dc:format>image/svg+xml</dc:format>
        <dc:type
           rdf:resource="http://purl.org/dc/dcmitype/StillImage" />
        <dc:title />
      </cc:Work>
    </rdf:RDF>
  </metadata>
  <g
     inkscape:label="Gray BG"
     inkscape:groupmode="layer"
     id="layer1"
     transform="translate(0,-106.49999)"
     style="display:inline">
    <rect
       style="opacity:1;fill:#b31c9d;fill-opacity:1;stroke:none;stroke-width:16.0535984;stroke-miterlimit:4;stroke-dasharray:none;stroke-opacity:1"
       id="rect4141"
       width="338.66669"
       height="190.5"
       x="1.4210855e-14"
       y="106.49999" />
  </g>
  <g
     inkscape:groupmode="layer"
     id="layer2"
     inkscape:label="Orange Banner"
     style="display:none">
    <rect
       style="opacity:1;fill:#de3d2d;fill-opacity:1;stroke:none;stroke-width:11.03082752;stroke-miterlimit:4;stroke-dasharray:none;stroke-opacity:1"
       id="rect4144"
       width="338.66669"
       height="43.65625"
       x="0"
       y="146.84375" />
  </g>
  <g
     inkscape:label="Blue Banner"
     id="g4203"
     inkscape:groupmode="layer"
     style="display:inline">
    <rect
       y="146.84375"
       x="0"
       height="43.65625"
       width="338.66669"
       id="rect4205"
       style="opacity:1;fill:#000000;fill-opacity:0.2119403;stroke:none;stroke-width:11.03082752;stroke-miterlimit:4;stroke-dasharray:none;stroke-opacity:1" />
  </g>
  <g
     inkscape:groupmode="layer"
     id="layer20"
     inkscape:label="MWM"
     style="display:inline;opacity:0.461">
    <g
       id="g5055"
       transform="matrix(0.26458334,0,0,0.26458334,116.47922,-83.317836)"
       style="opacity:1">
      <g
         id="XMLID_2_"
         style="fill:#000000;fill-opacity:0.50447795"
         transform="matrix(1.1513012,0,0,1.1513012,-28.515719,44.746426)">
        <polygon
           points="637.1,357.5 636.9,347.7 635.4,354.7 634.1,353.7 633.4,359.5 631.9,358.4 632.1,368.2 633.6,361.2 634.9,362.2 635.6,356.4 "
           id="XMLID_80_"
           style="fill:#000000;fill-opacity:0.50447795" />
        <polygon
           points="627.4,371.4 624.5,360.3 627,360.8 623.8,352 626.7,352.5 619.3,338.7 622.3,349.8 619.7,349.3 623,358.1 620.1,357.5 "
           id="XMLID_79_"
           style="fill:#000000;fill-opacity:0.50447795" />
        <polygon
           points="621.5,374 616.4,366.2 618.5,365.9 613.7,360 616.1,359.7 606.9,350.9 612,358.7 609.9,358.9 614.7,364.9 612.3,365.2 "
           id="XMLID_78_"
           style="fill:#000000;fill-opacity:0.50447795" />
        <polygon
           points="131.8,300.5 129.7,304.6 134.3,321.7 134.7,304.1 "
           id="XMLID_77_"
           style="fill:#000000;fill-opacity:0.50447795" />
        <polygon
           points="139.6,306.2 137.2,309 137.4,323.2 141.2,309.5 "
           id="XMLID_76_"
           style="fill:#000000;fill-opacity:0.50447795" />
        <polygon
           points="126.7,310.1 123.3,308.7 123.4,312.4 133,322.8 "
           id="XMLID_75_"
           style="fill:#000000;fill-opacity:0.50447795" />
        <polygon
           points="282.7,410.6 289.5,418.3 287.2,418.9 293.3,424.7 290.8,425.4 302.1,433.6 295.4,425.9 297.6,425.3 291.5,419.5 294.1,418.8 "
           id="XMLID_74_"
           style="fill:#000000;fill-opacity:0.50447795" />
        <polygon
           points="285.3,407.8 295.9,413 293.8,414.6 302.9,418 300.5,420 316.2,423.6 305.6,418.4 307.7,416.7 298.7,413.3 301.1,411.4 "
           id="XMLID_73_"
           style="fill:#000000;fill-opacity:0.50447795" />
        <polygon
           points="497.7,292.9 495.1,282.9 497.4,283.3 494.5,275.5 497.1,275.9 490.5,263.5 493.2,273.4 490.9,273 493.8,280.9 491.1,280.4 "
           id="XMLID_72_"
           style="fill:#000000;fill-opacity:0.50447795" />
        <polygon
           points="516.1,258.4 511.2,271.3 509,269 506,279.9 503.5,277.3 500.9,296 505.8,283.2 508,285.4 511,274.6 513.5,277.2 "
           id="XMLID_71_"
           style="fill:#000000;fill-opacity:0.50447795" />
        <polygon
           points="503.5,298.8 511.8,291.5 512.5,293.9 518.6,287.3 519.4,290 528.2,277.7 519.9,285.1 519.2,282.6 513.1,289.2 512.3,286.5 "
           id="XMLID_70_"
           style="fill:#000000;fill-opacity:0.50447795" />
        <path
           d="m 540.4,425.1 c 0.1,0.1 0.3,0.2 0.5,0.3 l 0.3,0 c 0,0 0,0 0.1,0 0.1,0 0.3,-0.1 0.4,-0.1 l 2.9,0.3 c 0,0.5 0.1,0.9 0.3,1.3 0.3,0.5 0.8,0.8 1.3,0.8 0,0 0.1,0 0.1,0 0.5,0 0.9,-0.2 1.3,-0.6 0.3,-0.4 0.6,-0.9 0.6,-1.4 0,-0.4 2.9,-44.1 4.3,-58.5 l 0,0 c 1.3,-14.2 6.7,-56.7 6.7,-57.2 0,-0.1 0,-0.3 0,-0.4 l 0.3,-1.9 c 0.1,-0.9 -0.7,-1.7 -1.4,-2.1 l -5.3,-2.6 c -0.2,-0.1 -0.5,-0.1 -0.7,0 -0.2,0.1 -0.3,0.3 -0.4,0.6 l -0.3,4 -11.1,116.8 0,0 0,0 0,0.2 c -0.1,0.2 0,0.3 0.1,0.5 z m 8.4,-58.3 c -1,10.5 -2.8,36.6 -3.7,50.1 -0.8,-0.4 -1.5,-0.9 -2.2,-1.6 l 9.8,-103.3 2.4,1.2 c -1.4,10.5 -5.2,41.8 -6.3,53.6 z"
           id="XMLID_67_"
           inkscape:connector-curvature="0"
           style="fill:#000000;fill-opacity:0.50447795" />
        <path
           d="m 742.4,336.8 -6,-5.6 0.1,-0.7 c 0,-0.3 -0.1,-0.6 -0.4,-0.7 l -6.2,-3.2 c 0,0 -0.1,0 -0.1,-0.1 l -8.3,-2.1 c -0.2,0 -0.3,0 -0.5,0 l -3,-1.4 c -0.1,-0.1 -0.3,-0.1 -0.4,-0.1 -1.6,-1 -4.1,-3.6 -5.7,-5.9 l -0.1,-0.1 c 0,-0.1 -0.1,-0.1 -0.1,-0.2 0.2,0 0.5,-0.1 0.7,-0.2 0.5,-0.4 0.6,-1.2 0.2,-1.7 l -0.9,-1.3 c -0.1,-0.2 -0.3,-0.3 -0.4,-0.3 -0.4,-0.4 -0.8,-0.9 -1.1,-1.3 0.1,-0.1 0.1,-0.2 0.1,-0.2 0.1,-0.3 0.1,-0.8 -0.6,-1.3 -0.7,-0.5 -1.2,-0.4 -1.5,-0.2 -1.5,-1.3 -3.2,-2.3 -5.1,-3.2 -2,-1 -6.6,-1.6 -10.5,0 -1.9,0.8 -3.5,2.3 -4.7,4 l -3.5,0 c -0.2,0 -0.4,0.1 -0.5,0.2 -0.1,0.1 -0.2,0.3 -0.2,0.5 l 0.2,6.5 c -0.2,0 -0.3,0.1 -0.5,0.1 L 683,318 c -0.5,-0.2 -1.1,0 -1.4,0.7 l -0.6,1.4 c -0.2,0.3 -0.2,0.7 -0.1,1 0.1,0.2 0.2,0.4 0.4,0.5 l 1.2,0.6 c -0.4,0.8 -0.7,1.6 -1.1,2.3 -1,0.1 -1.9,0.8 -2.5,2 -0.6,1.2 -0.5,2.4 0.1,3.2 l -0.4,0.8 c -0.3,0 -0.5,0.1 -0.7,0.4 l -6.5,14.7 -1.4,3 c -0.2,-0.2 -0.3,-0.4 -0.6,-0.5 0,0 -0.1,0 -0.1,-0.1 0,0 -0.1,0 -0.1,-0.1 -0.4,-0.2 -0.9,-0.2 -1.3,0 -0.7,0.2 -1.3,0.9 -1.7,1.7 -0.4,0.8 -0.5,1.7 -0.2,2.4 0,0.1 0.1,0.1 0.1,0.2 -0.9,0 -1.9,0.6 -2.4,1.8 -0.1,0.3 -0.2,0.6 -0.3,0.9 -0.4,0.4 -0.7,0.9 -0.9,1.4 -0.3,0.7 -0.5,1.4 -0.5,2.1 0,0 0,0.1 -0.1,0.1 -0.5,1 -0.5,2.1 0,2.8 -0.8,0.2 -1.5,0.8 -2,1.7 -0.1,0.2 -0.2,0.4 -0.2,0.7 0,0 0,0 0,0 0,0 -0.1,0 -0.1,0 -0.8,-0.4 -1.9,0.2 -2.4,1.3 -0.2,0.5 -0.3,1 -0.2,1.5 -0.2,0 -0.5,0.1 -0.7,0.3 -0.4,0.2 -0.7,0.6 -1,1.1 -0.5,1.1 -0.3,2.3 0.6,2.7 0,0 0.1,0 0.1,0 0,0 0.1,0 0.1,0 0.4,0.2 0.9,0.2 1.4,-0.1 0.1,0.7 0.5,1.2 1,1.4 0,0 0.1,0 0.1,0 0,0 0.1,0 0.1,0.1 0.1,0 0.1,0.1 0.2,0.1 l -0.2,0.3 c 0,0 -0.1,0 -0.1,0 -0.1,0 -0.2,-0.1 -0.2,-0.1 -0.1,0 -0.1,-0.1 -0.2,-0.1 -1,-0.5 -2.2,-0.2 -3.2,0.8 l -0.1,-0.1 c 0.1,-0.4 -0.1,-0.8 -0.5,-1 0,0 -0.1,0 -0.1,0 -0.2,-0.1 -0.4,-0.1 -0.7,0 -0.2,0.1 -0.4,0.3 -0.5,0.5 l -17.5,35.6 -0.7,0.1 c 1.5,-3.9 3.8,-10.3 4.9,-15.6 0.9,-4.7 0.8,-11.5 -0.3,-19.1 0,-0.2 0,-0.3 0,-0.3 0,-0.2 0.4,-1.2 0.8,-2.1 l 2.4,-1 c 0.3,-0.1 0.5,-0.5 0.4,-0.9 l -0.2,-0.6 c -0.1,-0.2 -0.2,-0.3 -0.4,-0.4 -0.2,-0.1 -0.4,-0.1 -0.6,0 l -28.1,10.5 c 1.5,-0.9 2.2,-2.1 1.7,-3 -0.5,-1 -2.1,-1 -3.8,-0.2 -0.1,-0.2 -0.1,-0.3 -0.2,-0.5 -0.3,-0.6 -0.8,-0.9 -1.5,-0.9 0,0 0,0 0,0 l -1.5,-2.9 c 0,-0.2 0,-0.5 -0.1,-0.7 -0.1,-0.2 -0.3,-0.4 -0.5,-0.5 l -4.8,-9.2 c 0.3,-0.2 0.5,-0.5 0.6,-0.8 0.1,-0.4 0.1,-0.8 -0.1,-1.2 l -2.6,-5.1 c -0.4,-0.7 -1.2,-1 -1.9,-0.8 l -15.3,-29.5 c -0.9,-1.8 -3,-5.2 -5,-8.4 -0.5,-0.8 -0.9,-1.5 -1.4,-2.2 l 2,-15.3 c 0,-0.2 0,-0.4 -0.1,-0.5 -0.1,-0.1 -0.3,-0.2 -0.5,-0.3 l -16.3,-1.9 c -0.2,0 -0.4,0 -0.5,0.2 -0.1,0.1 -0.2,0.3 -0.3,0.5 l -12.6,138.1 c -2.9,1.3 -4.9,0.5 -5,0.4 -0.2,-0.1 -0.5,-0.1 -0.7,0.1 -0.2,0.1 -0.3,0.4 -0.3,0.6 0,0.1 0.4,3.6 0.5,7.8 l -3.2,-0.4 c -0.5,-1.6 -1.8,-2.8 -3.6,-3 -1.1,-0.1 -2.3,0.2 -3.1,0.9 -0.9,0.7 -1.5,1.7 -1.6,2.9 0,0 0,0 0,0 -0.3,2.3 1.4,4.5 3.7,4.7 0.2,0 0.3,0 0.5,0 1.4,0 2.7,-0.7 3.5,-1.8 l 3.7,0.4 c 0,1 -0.1,1.9 -0.2,2.9 -0.1,1 -0.3,2.1 -0.6,3.2 l -3.6,-0.4 c -0.2,-0.5 -0.4,-1 -0.8,-1.5 -0.7,-0.9 -1.7,-1.5 -2.8,-1.6 -1.1,-0.1 -2.3,0.2 -3.1,0.9 -0.9,0.7 -1.5,1.7 -1.6,2.9 -0.3,2.3 1.4,4.5 3.7,4.7 0.2,0 0.3,0 0.5,0 1,0 1.9,-0.3 2.6,-0.9 0.3,-0.2 0.6,-0.5 0.8,-0.8 l 3.4,0.4 c -1,3.6 -2,6.8 -2,6.9 -0.1,0.3 0,0.5 0.2,0.7 0.2,0.2 0.5,0.2 0.7,0.1 0,0 1.8,-0.7 3.3,-0.5 0.7,0.1 1.3,0.6 2,1.2 1.2,0.9 2.6,2.1 5.2,2.5 0.5,0.1 0.9,0.1 1.3,0.1 2.1,0 3.6,-0.7 4.7,-1.3 0.9,-0.4 1.5,-0.8 2.2,-0.6 1.8,0.3 3.1,1.2 3.1,1.2 0.2,0.2 0.5,0.2 0.8,0 0.2,-0.1 0.4,-0.4 0.3,-0.7 0,0 -0.3,-3.2 -0.4,-7.2 l 3,0.4 c 0.6,1.4 1.9,2.4 3.4,2.6 0.2,0 0.3,0 0.5,0 1,0 1.9,-0.3 2.6,-0.9 0.9,-0.7 1.5,-1.7 1.6,-2.9 0.1,-1.1 -0.2,-2.3 -0.9,-3.1 -0.7,-0.9 -1.7,-1.5 -2.9,-1.6 -1.1,-0.1 -2.2,0.2 -3.1,0.9 -0.4,0.4 -0.8,0.8 -1.1,1.3 l -3.1,-0.4 c 0.1,-0.9 0.1,-1.9 0.2,-2.8 0.1,-1 0.3,-2.1 0.5,-3.2 l 3.1,0.4 c 0.6,1.4 1.9,2.5 3.5,2.7 0.2,0 0.3,0 0.5,0 1,0 1.9,-0.3 2.6,-0.9 0.9,-0.7 1.5,-1.7 1.6,-2.9 0.3,-2.3 -1.4,-4.5 -3.7,-4.7 -1.7,-0.2 -3.3,0.7 -4.2,2.1 l -2.6,-0.3 c 0.9,-4 2,-7.5 2,-7.5 0.1,-0.2 0,-0.4 -0.1,-0.6 -0.1,-0.2 -0.3,-0.3 -0.6,-0.3 -0.1,0 -2.1,0 -4.7,-1.9 l 14.3,-106.7 15.8,30.5 c 0,0 0,0 0,0.1 l 1.5,2.9 -0.4,0.2 c -0.2,0.1 -0.3,0.2 -0.3,0.4 -0.1,0.2 0,0.4 0,0.5 l 3.1,5.9 c 0,0 0,0 0,0 0,0 0,0 0,0 l 2.9,5.6 0.2,5.9 c -0.1,0 -0.1,0.1 -0.2,0.1 -0.4,0.2 -0.6,0.5 -0.7,0.9 -0.1,0.4 -0.1,0.8 0.1,1.1 0.2,0.3 0.5,0.6 0.8,0.7 -0.1,0.4 -0.1,0.7 0.1,1.1 0.4,0.7 1.3,1 2,0.6 0,0 0,0 0,0 l 0.1,0.2 c 0,0.3 0,0.5 0.2,0.8 0.1,0.3 0.3,0.5 0.6,0.6 l 0.2,0.4 c 0,0.3 0,0.6 0.1,0.8 0.2,0.3 0.5,0.6 0.8,0.7 0.4,0.1 0.8,0.1 1.2,-0.1 0.4,-0.2 0.6,-0.5 0.7,-0.9 0.1,-0.2 0.1,-0.4 0.1,-0.6 l 0.5,0.9 c 0,0 0,0.1 0,0.1 0,0 0,0 0,0 l 2,3.8 c 0,0 0,0 0,0 l 6,11.5 c 0,0 0,0 0,0 0,0 0,0.1 0,0.1 l 0.8,1.5 c 0.1,0.2 0.2,0.3 0.4,0.3 0,0 0.1,0 0.1,0 l -1.2,0.6 c -0.5,0.3 -0.9,0.7 -1.1,1.3 -0.2,0.5 -0.1,1.1 0.1,1.6 0.3,0.5 0.7,0.9 1.2,1.1 0.1,0 0.2,0 0.2,0.1 -0.3,0.6 -0.3,1.3 0,1.9 0.2,0.5 0.7,0.8 1.1,1 -1.5,3.6 -3.1,7.3 -3.8,9.1 -0.2,0.5 -0.3,1.2 -0.3,2 -0.2,0.6 -0.4,1 -0.5,1.2 -0.4,0.9 -1.6,3.8 -2.4,5.6 0,0 -0.1,0.1 -0.1,0.1 -0.2,0.2 -0.2,0.4 -0.2,0.6 -1,2.5 -2.1,5.1 -2.5,6.3 -1.1,3.1 -2.6,13.1 4.9,19.1 0.5,0.7 1.2,1.3 2,1.6 0.4,0.2 0.8,0.3 1.2,0.4 0.1,0 0.1,0.1 0.2,0.1 2.8,1.3 5.5,1.9 8,1.9 7.1,0 12.4,-4.6 14.1,-8.2 0.4,-0.8 0.9,-2.1 1.6,-3.5 1.9,6.2 2.1,11.3 2.1,13 -0.2,0.2 -0.5,0.5 -0.6,0.9 -0.1,0.4 -0.1,0.9 0.1,1.3 0.1,0.3 0.5,0.7 1.3,0.9 0.3,0.1 0.8,0.2 1.5,0.2 1.7,0 4.5,-0.6 8.9,-2.9 9.6,-5 8.4,-8.2 8.2,-8.5 -0.5,-0.9 -1.4,-1 -2.1,-0.8 -2,-1.4 -8.9,-6.8 -14.1,-16.2 1.2,-2.9 2.3,-5.3 2.8,-6.4 0.1,-0.1 0.1,-0.3 0.2,-0.5 0.5,-0.2 1.2,-0.9 3.2,-5.3 0.7,-0.4 1.4,-0.4 1.9,-0.2 1.3,0.5 1.8,2.5 1.8,2.5 0.1,0.3 0.4,0.6 0.7,0.5 0.3,0 0.6,-0.3 0.6,-0.7 0.1,-1.8 -0.4,-3.1 -1.4,-4 -0.2,-0.2 -0.5,-0.4 -0.8,-0.5 0.4,-0.2 0.7,-0.5 0.9,-0.9 l 2.6,-5.6 c 0.2,-0.4 0.2,-0.9 0.1,-1.3 -0.2,-0.4 -0.5,-0.8 -0.9,-1 l -1.6,-0.7 c 1.5,-3.6 2.8,-6.7 3.6,-8.4 1.2,-2.7 3.1,-7.4 4.9,-11.5 0.2,0.2 0.5,0.4 0.8,0.6 0.6,0.3 1.2,0.3 1.8,0.1 0.6,-0.2 1,-0.6 1.3,-1.2 0.5,-1.1 0,-2.5 -1.1,-3.1 -0.3,-0.1 -0.5,-0.2 -0.8,-0.2 0.1,-0.3 0.2,-0.5 0.3,-0.7 l 1.1,0.4 c 0.3,0.1 0.7,0 0.9,-0.4 l 0.3,-0.7 c 0.1,-0.2 0.1,-0.4 0,-0.5 -0.1,-0.2 -0.2,-0.3 -0.4,-0.4 l -0.8,-0.4 c 0.3,-0.5 0.7,-1.1 1.1,-1.9 0.9,-0.3 1.8,-1.2 2.3,-2.4 0.5,-1.1 0.6,-2.2 0.3,-3 0.1,0 0.1,0 0.2,-0.1 0.2,-0.1 0.3,-0.2 0.4,-0.4 l 1.8,-5.2 0.6,0.2 c 0.3,0.1 0.7,0 0.9,-0.4 L 672,372 c 0.1,-0.2 0.1,-0.4 0,-0.5 -0.1,-0.2 -0.2,-0.3 -0.4,-0.4 l -0.7,-0.3 1,-3 c 1.1,-0.2 2.2,-1.3 2.9,-2.8 0.5,-1.2 0.6,-2.3 0.4,-3.3 0.4,-0.2 0.8,-0.7 1.2,-1.2 0.2,0 0.5,0 0.6,-0.2 1.2,-1.1 1.9,-2.7 2,-4.3 0,-0.9 -0.2,-1.8 -0.6,-2.4 0.6,-1 0.6,-1.8 0.5,-2.3 0,-0.1 -0.1,-0.3 -0.1,-0.4 0.4,-1.1 1.6,-4.1 2.9,-7.4 l 0.7,0.3 c 0.1,0 0.1,0 0.2,0 0.1,0 0.1,0.1 0.2,0.1 l 0.4,0.2 c 0.4,0.1 0.8,0 0.9,-0.4 l 0.2,-0.5 1.7,65.1 c -0.4,1.8 -1,4.1 -2,5.5 -2.6,3.6 -5.6,4.7 -5.7,4.7 -0.2,0.1 -0.3,0.2 -0.4,0.4 -0.1,0.2 -0.1,0.4 0,0.5 0,0.1 2.9,8.6 3.6,25.2 0.2,4.5 -0.5,10.6 -1.1,16.1 -1.1,10 -1.5,15.2 0.8,15.8 0.1,0 0.2,0 0.3,0 0.9,0 1.6,-0.9 2.6,-2 1.2,-1.4 2.6,-3.1 4.4,-3.5 0.8,-0.2 3.1,0.2 4.3,0.4 0.4,0.1 0.7,-0.1 0.8,-0.5 l 1.3,-4.4 1.2,0 c 0.2,0.4 0.4,0.7 0.7,1 0.6,0.6 1.5,1 2.4,1 0,0 0,0 0,0 1.9,0 3.4,-1.5 3.3,-3.4 0,-1.8 -1.5,-3.3 -3.4,-3.3 0,0 0,0 0,0 -0.9,0 -1.7,0.4 -2.4,1 -0.3,0.3 -0.5,0.6 -0.6,0.9 l -0.3,0 1.4,-4.6 1.3,0 c 0.2,0.4 0.4,0.7 0.7,1 0.6,0.6 1.5,1 2.4,1 0,0 0,0 0,0 0.9,0 1.7,-0.4 2.4,-1 0.6,-0.6 1,-1.5 1,-2.4 0,-0.9 -0.4,-1.7 -1,-2.4 -0.6,-0.6 -1.5,-1 -2.4,-1 0,0 0,0 0,0 -0.9,0 -1.7,0.4 -2.4,1 -0.3,0.3 -0.5,0.6 -0.6,0.9 l -0.4,0 1.6,-5.2 1.4,0 c 0.2,0.4 0.4,0.7 0.7,1 0.6,0.6 1.5,1 2.4,1 0,0 0,0 0,0 0.9,0 1.7,-0.4 2.4,-1 0.6,-0.6 1,-1.5 1,-2.4 0,-0.9 -0.4,-1.7 -1,-2.4 -0.6,-0.6 -1.5,-1 -2.4,-1 0,0 0,0 0,0 -0.9,0 -1.7,0.4 -2.4,1 -0.3,0.3 -0.5,0.6 -0.6,0.9 l -0.5,0 1.6,-5.2 1.3,0 c 0.5,1.2 1.7,1.9 3.1,1.9 0,0 0,0 0,0 1.9,0 3.4,-1.5 3.3,-3.4 0,-1.8 -1.5,-3.3 -3.4,-3.3 0,0 0,0 0,0 -1.3,0 -2.4,0.8 -3,1.9 l -0.4,0 1.7,-5.6 1.1,0 c 0.2,0.4 0.4,0.7 0.7,1 0.6,0.6 1.5,1 2.4,1 0,0 0,0 0,0 1.9,0 3.4,-1.5 3.3,-3.4 0,-1.8 -1.5,-3.3 -3.4,-3.3 0,0 0,0 0,0 -0.9,0 -1.7,0.4 -2.4,1 -0.3,0.3 -0.5,0.6 -0.6,0.9 l -0.2,0 1.8,-6 1.1,0 c 0.5,1.2 1.7,2 3.1,2 0,0 0,0 0,0 1.9,0 3.4,-1.5 3.3,-3.4 0,-1.8 -1.5,-3.3 -3.4,-3.3 0,0 0,0 0,0 -1.3,0 -2.4,0.8 -3,1.9 l -0.2,0 2,-6.6 c 0.1,-0.2 0,-0.4 -0.1,-0.5 -0.1,-0.2 -0.2,-0.3 -0.4,-0.3 0,0 -2.6,-0.7 -4.1,-2.2 -1.1,-1 -1.5,-2.5 -1.8,-3.8 l 1,-90.7 c 1.1,1.1 2.2,2.5 3.1,3.6 0.7,0.9 1.3,1.7 1.8,2.1 2,1.8 3.7,3.1 4.9,3.8 0,0.2 0.2,0.4 0.4,0.6 l 3,1.4 c 0,0.2 0.1,0.4 0.3,0.5 l 5.5,3.1 0.1,0.4 c 0,0.2 0.2,0.3 0.3,0.4 l 1.7,1 c 0,0 0.1,0 0.1,0.1 l 13.8,4.4 c 0.2,0.1 0.5,0 0.7,-0.1 l 1.1,-1 c 0.1,-0.1 0.1,-0.1 0.2,-0.2 l 0.1,-0.2 c 0.4,-1.3 0.4,-1.6 0.1,-1.8 z m -43.1,-28.2 c -0.8,0 -1.6,0.1 -2.4,0.2 l 0,0 c 0.1,-0.2 0.1,-0.4 0.1,-0.6 2.1,-0.2 4.2,0.2 5.3,0.7 -1,-0.2 -2,-0.3 -3,-0.3 z m -5.6,0.3 c 0,0 0,0.1 0,0.1 -0.5,0.3 -1.2,0.8 -1.7,1 -0.5,0.2 -0.9,0.5 -1.2,0.7 0.7,-0.7 1.6,-1.3 2.5,-1.8 0.3,0.1 0.3,0 0.4,0 z M 663.2,391 c -0.1,0.2 -0.3,0.3 -0.5,0.2 -0.2,-0.1 -0.3,-0.3 -0.2,-0.5 l 0,0 c 0.1,-0.2 0.3,-0.3 0.5,-0.2 0.1,0.1 0.2,0.2 0.2,0.2 0,0.1 0,0.2 0,0.3 z m -27.4,24.3 -1.3,-0.6 1.3,-2.6 c -0.4,1.1 -0.3,2.3 0,3.2 z m 4.1,-8 c -0.8,0.1 -1.6,0.7 -2.4,1.5 -0.1,0 -0.1,-0.1 -0.2,-0.1 l 2.1,-4.3 c -0.1,1.2 0,2.2 0.5,2.9 z m 13.3,-29.1 c 0.2,0.7 0.7,1.2 1.3,1.4 0.1,0 0.2,0.1 0.2,0.1 0.1,0 0.1,0.1 0.2,0.1 0,0 0,0 0,0 l -0.1,0.2 c -0.2,-0.2 -0.4,-0.4 -0.7,-0.5 -0.1,0 -0.2,-0.1 -0.2,-0.1 -0.1,0 -0.1,-0.1 -0.2,-0.1 -0.7,-0.3 -1.5,-0.3 -2.2,0.1 l 1.5,-3.1 c -0.1,0.7 0,1.4 0.2,1.9 z M 627.4,431 c -0.2,-0.1 -0.3,-0.1 -0.5,-0.1 -0.1,0 -0.2,0 -0.3,0.1 l 1.1,-2.3 0.7,1.4 c -0.3,0.2 -0.6,0.5 -1,0.9 z m -2.7,3.9 1.3,-2.7 c 0.1,0.2 0.2,0.3 0.3,0.4 0,0.1 -0.1,0.2 -0.1,0.3 -0.4,0.8 -0.6,1.6 -0.7,2.4 l -0.8,-0.4 z m -4.8,7.3 c 0.3,-0.6 1.1,-2.5 2.3,-5.1 0.1,0.1 0.2,0.2 0.3,0.2 0,0 0.1,0 0.1,0 0.5,0.2 1,0 1.3,-0.5 l 0.1,-0.2 1.9,0.9 c 0.2,0.5 0.5,0.9 0.9,1.1 l -3,6.2 c -0.1,0.3 -0.4,0.5 -0.7,0.6 -0.2,0.1 -0.6,0.2 -1.1,-0.1 -0.5,-0.2 -1.2,-0.7 -1.7,-1.4 -0.8,-0.9 -0.5,-1.5 -0.4,-1.7 z m 16.7,-24.1 c -0.1,-0.1 -0.2,-0.1 -0.3,-0.2 -0.4,-0.2 -0.9,-0.2 -1.4,-0.1 -0.4,-0.4 -0.8,-0.7 -1.3,-0.8 0,0 -0.1,0 -0.1,0 l 0.3,-0.5 3,1.5 -0.2,0.1 z m 13.5,-31 c 0.1,0 0.2,0.1 0.2,0.1 0.1,0 0.1,0.1 0.2,0.1 0.2,0.1 0.5,0.2 0.7,0.2 l -0.2,0.5 -2.9,-1.4 0.7,-1.3 c 0.1,0.8 0.6,1.5 1.3,1.8 z m -1,2.1 c -0.3,0 -0.5,0.1 -0.8,0.2 -1,0.4 -2,1.3 -2.6,2.6 -1,2.2 -0.6,4.4 0.9,5.1 0,0 0.1,0 0.1,0 l -1.1,2.3 c -0.1,-0.1 -0.3,-0.3 -0.5,-0.3 -1.1,-0.5 -2.5,0 -3.6,1.3 l 5.8,-12.1 1.8,0.9 z m -17.4,26.7 -0.1,-0.1 c 0.7,-1.6 1.6,-3.5 2.4,-5.6 l 0.5,-0.1 -2.8,5.8 z m -16.8,-35.5 c 0.9,0.2 2.9,0.9 3.7,1.9 1,1.3 1.6,3.1 1.9,5.3 0.1,0.7 0.3,3.3 0.1,6.5 l -6.9,-13.3 1.2,-0.4 z m -12.4,3 -1.8,-3.5 0.1,-0.8 2.3,4.5 c -0.1,0 -0.4,-0.1 -0.6,-0.2 z m 1.1,1.8 c 0.1,-0.2 0.1,-0.3 0.1,-0.5 l 0.4,0.8 c -0.2,-0.1 -0.4,-0.2 -0.5,-0.3 z"
           id="XMLID_49_"
           inkscape:connector-curvature="0"
           style="fill:#000000;fill-opacity:0.50447795" />
        <path
           d="m 572.7,420.9 c -1.1,-0.5 -2.5,-0.6 -4.3,-0.3 -0.9,0.1 -2.5,0.5 -3.7,1.4 -1.3,0.9 -1.8,2.2 -1.6,3.7 0.2,1.4 1.4,3.5 2.9,5.4 1,1.2 2.8,3.1 4.3,3.1 0.1,0 0.2,0 0.3,0 2.6,-0.4 4.8,-7.7 4.4,-10.3 -0.3,-1.4 -1,-2.4 -2.3,-3 z"
           id="XMLID_48_"
           inkscape:connector-curvature="0"
           style="fill:#000000;fill-opacity:0.50447795" />
        <path
           d="m 221.4,406.7 c 0.3,-1.2 0,-2.4 -0.8,-3.3 -0.5,-0.6 -1,-1 -1.7,-1.2 -1.9,-0.7 -3.9,0.1 -4.8,1.9 -1.1,-0.1 -2.2,0.6 -2.7,1.6 0,0 0,0.1 -0.1,0.1 l 0,0.1 c 0,0 0,0.1 0,0.1 -0.3,0.9 -0.1,1.8 0.5,2.5 0,0.1 0.1,0.1 0.1,0.1 -1,0.1 -1.8,0.7 -2.2,1.6 0,0 -0.1,0.1 -0.1,0.1 l 0,0.1 c 0,0 0,0.1 0,0.1 -0.3,0.9 -0.1,1.8 0.5,2.5 0.1,0.1 0.1,0.1 0.2,0.2 -0.9,0.1 -1.8,0.7 -2.2,1.6 0,0 -0.1,0.1 -0.1,0.1 l 0,0.1 c 0,0 0,0.1 0,0.1 -0.3,0.9 -0.1,1.8 0.5,2.5 0,0 0.1,0.1 0.1,0.1 -1,0.1 -1.9,0.7 -2.3,1.6 0,0 -0.1,0.1 -0.1,0.1 l 0,0.1 c 0,0 0,0.1 0,0.1 -0.3,0.9 -0.1,1.8 0.5,2.5 0.1,0.2 0.3,0.3 0.4,0.4 -0.1,0.2 -0.2,0.4 -0.1,0.6 l 0,0.1 c 0,0.2 0,0.3 0.1,0.5 0,0.4 0,1.3 -0.4,2.5 -0.3,0.9 -1,2 -1.8,3.2 -0.8,1.3 -1.7,2.7 -2.2,4 -0.5,1.2 -0.7,3.5 -0.4,4.9 0.1,0.6 0.4,1.2 0.8,1.7 l 0,0.1 c 0.6,0.8 1.8,1.3 2.9,1.3 0.2,0 0.4,0 0.6,0 0.6,-0.1 1.1,-0.4 1.6,-0.8 1.1,-0.8 2.5,-2.8 2.9,-4 0.5,-1.2 0.7,-2.9 0.9,-4.6 0.2,-1.4 0.4,-2.7 0.7,-3.5 0.3,-1 0.9,-1.8 1.3,-2.2 0.2,-0.1 0.4,-0.2 0.4,-0.4 l 0.2,-0.6 c 1.1,0 2.2,-0.6 2.6,-1.7 0,0 0,-0.1 0.1,-0.1 l 0,-0.1 c 0,0 0,-0.1 0,-0.1 0.2,-0.9 0,-1.8 -0.5,-2.5 -0.1,-0.1 -0.1,-0.2 -0.2,-0.2 0.9,-0.1 1.7,-0.7 2.1,-1.6 0,0 0.1,-0.1 0.1,-0.1 l 0,-0.1 c 0,0 0,-0.1 0,-0.1 0.2,-0.9 0,-1.8 -0.5,-2.5 0,0 -0.1,-0.1 -0.1,-0.1 1,-0.1 1.8,-0.7 2.3,-1.7 0,0 0.1,-0.1 0.1,-0.1 l 0,-0.1 c 0,0 0,-0.1 0,-0.1 0.2,-0.9 0,-1.8 -0.5,-2.5 0,-0.1 -0.1,-0.1 -0.2,-0.2 0.9,-0.1 1.8,-0.7 2.2,-1.7 0,0 0,-0.1 0.1,-0.1 l 0,-0.1 c 0,0 0,-0.1 0,-0.1 0.2,-0.9 0,-1.8 -0.5,-2.5 0,0 -0.1,-0.1 -0.3,-0.2 z"
           id="XMLID_47_"
           inkscape:connector-curvature="0"
           style="fill:#000000;fill-opacity:0.50447795" />
        <path
           d="m 106,437 c 0,-0.1 0,-0.1 0,-0.2 l -0.3,-4.3 c 0.2,-0.1 0.5,-0.2 0.6,-0.4 0.2,-0.3 0.4,-0.6 0.3,-1 0,-0.6 -0.5,-1.2 -1.1,-1.2 l 0,-0.7 c 0.6,-0.2 1,-0.7 1,-1.4 0,-0.6 -0.5,-1.2 -1.1,-1.2 l 0,-0.5 c 0.1,-0.1 0.1,-0.2 0.1,-0.4 0.1,-0.2 0,-0.4 -0.1,-0.6 0,-0.1 -0.1,-0.2 -0.2,-0.2 l -0.9,-14 c 0.1,-0.1 0.1,-0.3 0.2,-0.5 0.1,-0.3 0,-0.7 -0.3,-0.9 l -0.3,-4.7 c 0.1,-0.1 0.2,-0.1 0.3,-0.2 0.2,-0.2 0.2,-0.4 0.2,-0.6 l 0,0 0.5,-3 c 0,0 0,-0.1 0,-0.1 0,0 0,0 0,-0.1 l -1,-16.3 c 0.5,0 0.9,-0.5 0.8,-1 l 0,-0.1 c 0,-0.2 -0.1,-0.5 -0.3,-0.6 -0.2,-0.2 -0.4,-0.2 -0.6,-0.2 l -0.1,-0.9 c 0.3,-0.2 0.7,-0.4 1,-0.8 0.8,-0.8 1.4,-1.9 0.8,-2.5 -0.1,-0.1 -0.2,-0.2 -0.4,-0.2 0.1,-0.2 0.2,-0.4 0.3,-0.5 0.4,-0.8 0.1,-1.2 -0.1,-1.4 -0.2,-0.2 -0.4,-0.3 -0.7,-0.3 0,0 0,0 0,0 -0.7,0 -1.6,0.7 -1.9,1 0,0 -0.1,0.1 -0.1,0.1 l 0,-0.3 c 0,-0.1 0.1,-0.2 0.1,-0.3 l 0,-0.1 c 0,-0.1 0,-0.2 -0.1,-0.3 l -0.2,-2.9 c 0,-0.1 0.1,-0.2 0.1,-0.4 l 0,-0.1 c 0,-0.1 0,-0.2 -0.1,-0.3 l -0.2,-2.8 c 0.1,-0.1 0.1,-0.2 0.1,-0.4 l 0,-0.1 c 0,-0.1 0,-0.2 -0.1,-0.4 l -0.1,-1.5 c 0.1,-0.1 0.1,-0.2 0.1,-0.4 l 0,-0.1 c 0,-0.1 0,-0.3 -0.1,-0.4 l -0.2,-2.4 c 0.1,-0.1 0.1,-0.3 0.1,-0.4 l 0,-0.1 c 0,-0.4 -0.3,-0.7 -0.7,-0.8 l -0.8,-11.7 c 1,-0.1 1.7,-1.3 1.6,-2.6 -0.1,-1.4 -0.9,-2.4 -1.9,-2.4 L 99.3,332 c 0.5,-0.1 1,-0.4 1.3,-0.9 0.3,-0.5 0.4,-1.1 0.3,-1.7 -0.1,-0.8 -0.4,-1.6 -0.9,-2 -0.3,-0.3 -0.7,-0.4 -1.1,-0.4 l -0.2,-3.3 c 0.2,-0.3 0.3,-0.6 0.4,-0.9 0.1,-0.3 0,-0.5 -0.1,-0.7 0.3,-1.3 0.6,-2.7 0.8,-4.1 0.4,-2.3 0.9,-4.9 1.5,-5.5 0.4,-0.4 0.6,-1 0.3,-1.5 -0.7,-1.5 -4.1,-2.9 -6.8,-2.7 -2.7,0.2 -5.9,1.9 -6.4,3.5 -0.2,0.6 0,1.2 0.5,1.5 0.5,0.4 1.2,2.7 1.8,4.6 0.5,1.5 1,3.2 1.6,4.7 -0.1,0.2 -0.1,0.5 0,0.7 0.1,0.3 0.3,0.6 0.5,0.9 l 2.8,42.9 c 0,0 0,0 -0.1,0 l -0.1,0 c 0,0 -0.1,0 -0.1,0 l -0.7,0 c -0.5,0 -0.9,0.5 -0.9,1 l 0,0.1 c 0,0.2 0.1,0.3 0.2,0.5 L 94,370 c -0.3,0.2 -0.6,0.4 -0.9,0.7 -0.8,0.8 -1.4,1.9 -0.8,2.5 0.1,0.1 0.4,0.3 0.8,0.3 -0.3,0.6 -0.4,1.1 0,1.5 0.2,0.2 0.4,0.3 0.7,0.3 0,0 0,0 0,0 0.7,0 1.6,-0.7 1.9,-1 0.1,-0.1 0.2,-0.2 0.3,-0.4 l 2.3,35.9 c -0.2,0.2 -0.2,0.6 -0.1,0.9 0.1,0.1 0.1,0.3 0.2,0.4 l 0.9,14 c -0.2,0.2 -0.3,0.6 -0.2,0.9 0.1,0.2 0.1,0.3 0.2,0.4 l 0.1,1.6 c -0.1,0.1 -0.1,0.2 -0.2,0.3 -0.1,0.2 -0.1,0.4 0,0.6 0.1,0.2 0.1,0.3 0.2,0.5 l 0.1,2.2 c 0,0.1 -0.1,0.1 -0.1,0.2 -0.1,0.2 -0.1,0.4 0,0.6 0,0.1 0.1,0.2 0.2,0.3 l 0.3,4.4 c 0,0.1 0,0.1 0,0.2 0.3,1.4 1.5,2.8 3,2.8 0,0 0.1,0 0.1,0 1.8,0 2.9,-1.9 3,-3.1 z"
           id="XMLID_46_"
           inkscape:connector-curvature="0"
           style="fill:#000000;fill-opacity:0.50447795" />
        <path
           d="m 294,446.5 c -0.8,0.1 -1.3,0.9 -1.4,1.8 l -0.2,0 c -0.4,-0.7 -0.9,-1.4 -1.5,-2.1 0.3,0.2 0.6,0.3 0.9,0.3 0.1,0 0.2,0 0.3,0 1.1,-0.2 1.7,-1.5 1.4,-3 -0.3,-1.5 -1.3,-2.4 -2.4,-2.2 -0.8,0.1 -1.3,0.9 -1.4,1.8 l -1,0.2 c -0.8,-1.1 -1.4,-2.2 -1.6,-3 0,-0.1 0,-0.1 0,-0.2 l 1.2,-0.2 c 0.4,0.8 1.1,1.3 1.8,1.3 0.1,0 0.2,0 0.3,0 0.6,-0.1 1,-0.5 1.3,-1.2 0.2,-0.5 0.2,-1.2 0.1,-1.8 -0.1,-0.6 -0.4,-1.2 -0.8,-1.6 -0.5,-0.5 -1,-0.7 -1.6,-0.6 -0.3,0.1 -0.6,0.2 -0.9,0.5 0.4,-0.7 0.6,-1.5 0.4,-2.2 -0.4,-1.8 -1.4,-3 -2.9,-3.7 -0.3,-0.1 -0.6,-0.3 -1,-0.4 l -4.1,-18.8 c -0.1,-0.4 -0.4,-0.6 -0.8,-0.5 l -9.9,1.9 c -0.2,0 -0.4,0.2 -0.5,0.3 -0.1,0.2 -0.1,0.4 -0.1,0.6 l 5.3,19.5 c -1.6,1.7 -2.6,4.2 -1.8,8 0.5,2.4 4.8,6.8 6.6,8.5 -1.5,0.9 -4.4,3.1 -3.5,6.2 1.2,4.1 4.7,5.2 7.6,5.2 1,0 2,-0.1 2.7,-0.3 0,0 0,0 0,0 3.1,-0.8 6.7,-3 6.8,-9.1 0,-0.1 0,-0.2 0,-0.2 0.4,0.4 0.8,0.6 1.3,0.6 0.1,0 0.2,0 0.3,0 1.1,-0.2 1.7,-1.5 1.4,-3 -0.2,-1.8 -1.3,-2.8 -2.3,-2.6 z m -6.2,-8.9 c 0.1,-0.1 0.2,-0.3 0.2,-0.4 0,0.1 -0.1,0.3 -0.1,0.4 l -0.1,0 z"
           id="XMLID_43_"
           inkscape:connector-curvature="0"
           style="fill:#000000;fill-opacity:0.50447795" />
        <path
           d="m 264.7,411.1 c 2.9,-0.3 6,-0.8 8.6,-1.4 0.2,0 16.5,-4 15.8,-7.1 -0.2,-1 -1.3,-1.3 -2.5,-1.7 -1.4,-0.4 -3.3,-0.9 -5.2,-2.6 -3.4,-3.1 -5.7,-6.6 -9.1,-17.1 -3.3,-10.4 -16.8,-63.6 -17.6,-67.3 l -0.2,-0.9 c 0,0 0,0 0,-0.1 L 252,301.8 c 0,-0.2 -0.2,-0.3 -0.3,-0.4 -0.1,-0.1 -0.3,-0.1 -0.5,-0.1 l -0.5,-2.2 c -0.2,-0.9 -1.7,-2.9 -3.7,-4.4 -1.8,-1.4 -4.7,-3 -7.9,-2.2 l -7,1.6 c -5.6,1.3 -6.7,9.4 -6.4,10.9 l 0.5,2.2 c 0,0 0,0 0,0 -0.1,0.2 -0.1,0.3 -0.1,0.5 l 1.6,7.2 c 0,0.1 0,0.2 0,0.3 0,0.1 0,0.1 0,0.2 -0.2,0.4 -0.2,0.8 -0.3,1.3 0,0.2 -0.1,0.3 -0.1,0.5 0,0.2 -0.1,0.3 -0.1,0.5 0,0.1 -0.1,0.4 -0.1,0.5 0,0 0,0 0,0 0,0 -0.1,0 -0.1,0 -0.2,0.1 -0.7,0.3 -0.8,0.9 -0.1,0.3 -0.1,0.5 -0.1,0.8 0,0.1 0,0.2 0,0.3 0,0.2 -0.1,0.3 -0.2,0.6 -0.1,0.1 -0.1,0.3 -0.1,0.4 l -0.1,0.3 c -0.5,1.2 -1,2.4 -0.8,3.8 0,0 0,0 0,0.1 -0.2,0.7 -0.3,1.2 -0.5,1.5 0,0.1 -0.1,0.1 -0.2,0.2 -0.2,0.2 -0.5,0.5 -0.6,0.9 -0.1,0.3 -0.1,0.7 0,0.9 0,0.1 0,0.3 0,0.3 0,0.3 -0.2,0.5 -0.4,0.9 -0.2,0.3 -0.4,0.7 -0.5,1.1 -0.2,0.8 -0.4,1.8 0.2,2.7 0.2,0.4 0.5,0.7 0.8,0.9 -0.1,0 -0.2,0 -0.3,0 0,0 0,0 -0.1,0 -2,0.3 -2.7,2.4 -2.5,4.2 l 0,0.2 c 0,0.5 0.1,1.1 0.4,1.6 -0.4,0 -0.7,0.2 -0.8,0.3 -0.4,0.4 -0.3,1.1 -0.2,1.5 0,0.1 0,0.2 0,0.2 0,0 0,0.1 -0.1,0.1 0,0 0,0.1 -0.1,0.1 -1.8,0.7 -1.8,2.5 -1.9,3.8 l 0,0.1 0,0.1 c 0,0.6 0,1.4 0.5,2 0,0 0,0 0,0 -0.4,0.2 -0.5,0.6 -0.6,1 -0.4,-0.1 -0.8,0 -1,0.1 -1,0.5 -1.4,1.9 -1.6,3 0,0 0,0 0,0.1 0,1 0,2 0.3,2.7 0.4,0.9 1.3,1.1 2,1.1 -0.1,0.2 -0.1,0.5 -0.2,0.6 -0.1,0 -0.2,-0.1 -0.3,-0.1 -0.2,-0.1 -0.4,-0.2 -0.7,-0.3 -1.4,-0.5 -2.2,0.6 -2.4,1 -0.7,1.1 -1,2.6 -0.7,3.9 -0.3,0.3 -0.6,0.8 -0.6,1.3 0,0.2 0.1,0.5 0.3,0.8 -0.2,0.4 -0.2,0.7 -0.2,1 0,0.2 0,0.3 0,0.5 0,0.1 -0.1,0.4 -0.3,0.6 -0.1,0.2 -0.3,0.5 -0.4,0.8 -0.1,0.4 -0.2,1 -0.2,1.5 0,0.2 0,0.5 0,0.7 -1.1,0.5 -1.6,1.4 -1.9,2.5 -0.3,0.9 -0.5,2.4 0.3,3.2 0,0.1 -0.1,0.3 -0.1,0.4 0,0.1 0,0.3 -0.1,0.4 -0.4,-0.1 -0.9,0 -1.3,0.2 -0.9,0.6 -1,1.5 -1.1,2.2 -0.2,0.9 -0.2,1.7 0,2.3 -0.1,0 -0.3,0 -0.4,0.1 0,0 0,0 -0.1,0 -1.1,0.5 -1.4,1.4 -1.6,2.2 0,0 0,0 0,0.1 -0.1,0.5 -0.2,1.6 0.1,2.6 0.1,0.2 0.2,0.5 0.4,0.8 -0.1,0 -0.2,0 -0.3,0.1 -0.7,0.3 -1.2,1 -1.4,2.1 l 0,0.2 c -0.1,0.6 -0.3,1.4 0.3,2.2 0.3,0.3 0.7,0.4 1.1,0.5 0,0 0,0 0.1,0 -0.2,0.5 -0.4,1 -0.5,1.5 -0.1,0.4 -0.3,0.9 -0.4,1.2 -0.5,-0.2 -1,-0.2 -1.4,-0.1 -1.4,0.3 -1.5,1.5 -1.6,2.2 l 0,0.2 c -0.1,0.7 -0.3,1.8 0.7,2.5 l 0,0 c 0.1,0.1 0.4,0.2 0.8,0.3 -0.1,0.4 -0.3,0.8 -0.5,1.2 -0.2,0.4 -0.3,0.8 -0.4,1.1 -0.6,2.2 -1.3,4.2 -2.1,6.3 -0.1,0.3 -0.3,0.7 -0.4,1 -0.3,0.7 -0.6,1.5 -0.7,2.2 l 0,0.2 c -0.1,0.3 -0.2,0.9 -0.3,1.1 0,0 0,0 -0.1,0.1 l -0.1,0.1 c -0.4,0.4 -1.1,0.9 -1.2,1.8 0,0.1 0.1,0.6 0.3,1.1 0,0.1 0,0.2 0,0.3 0,0.1 -0.1,0.5 -0.4,1.4 0,0 0,0 0,0.1 -0.1,0.5 -0.3,1 -0.5,1.5 -0.1,0.3 -0.2,0.5 -0.3,0.8 -0.4,1.1 -0.8,2.2 -1.2,3.3 -0.2,0.1 -0.5,0.3 -0.7,0.8 -0.2,0.6 0,1 0.2,1.3 0.1,0.1 0.1,0.2 0.1,0.2 0,0 0,0 0,0 -0.5,1.4 -1,2.9 -1.5,4.4 l -3.9,-5.9 c 4,-13.6 -5.4,-26 -15.2,-39.1 -4.1,-5.5 -8.3,-11.1 -11.7,-16.9 l 0.8,-0.5 c 0.7,-0.4 0.9,-1.2 0.5,-1.9 l -0.7,-1.2 c -0.2,-0.3 -0.5,-0.5 -0.9,-0.6 -0.2,0 -0.4,-0.1 -0.5,0 l -11,-18.4 c -0.4,-0.7 -1.2,-0.9 -1.9,-0.5 L 140,328.8 c -0.3,-0.4 -0.6,-0.8 -1.1,-1 -0.1,0 -0.2,-0.1 -0.2,-0.1 l 0.1,-0.3 c 0.1,-0.4 -0.1,-0.8 -0.5,-0.9 l -2.8,-0.7 c -0.2,0 -0.4,0 -0.5,0.1 -0.2,0.1 -0.3,0.2 -0.3,0.4 l -0.7,2.8 c -0.1,0.4 0.1,0.8 0.5,0.9 l 0.3,0.1 c 0,0.1 0,0.2 0,0.3 0,0.5 0.1,1 0.3,1.4 l 9.3,15.7 c -0.3,0.2 -0.5,0.5 -0.6,0.9 -0.1,0.4 0,0.7 0.2,1.1 l 11,18.4 c -0.1,0.1 -0.2,0.3 -0.2,0.5 -0.1,0.4 0,0.7 0.2,1 l 0.7,1.2 c 0.4,0.7 1.2,0.9 1.9,0.5 l 0.4,-0.3 c 3,5.3 7,10.6 10.8,15.8 7.1,9.6 14.4,19.4 16,29 l -11.2,-17 c 0,0 0,0 0,0 L 162,381.9 c 0,0 0,0 0,0 l -0.6,-0.9 c 0,0 0,0 0,0 l -0.5,-0.8 c 0,0 0,0 0,0 l -0.1,-0.2 c 0,0 0,0 0,0 l 0,0 c 0,0 0,0 0,0 0,0 0,0 0,0 0,0 0,0 0,0 0,0 0,0 0,0 l 0,0 c 0,0 0,0 0,0 0,0 0,0 0,0 l -37.6,-57 -0.2,-6.8 c 0,-0.2 -0.1,-0.4 -0.2,-0.5 -0.1,-0.1 -0.3,-0.2 -0.5,-0.2 l -4.1,0.1 c -0.1,-0.2 -0.2,-0.4 -0.2,-0.6 -0.1,-5.8 -3.5,-8.7 -6.6,-8.9 -0.1,0 -0.2,0 -0.3,0 -2.1,0.2 -3.6,1.3 -4.3,3 -0.7,2.1 0,4.8 1.7,6.7 l -2.2,0.1 c -0.2,0 -0.4,0.1 -0.5,0.2 -0.1,0.1 -0.2,0.3 -0.2,0.5 l 7,113 c 0,0.6 -0.5,6.8 -2,10.2 -0.7,1.5 -2,2.6 -3.4,3.7 -1.4,1.1 -2.7,2.2 -3.1,3.7 -0.2,1 0.6,2.2 1.7,4 1.4,2.2 3.1,4.9 3.2,7.5 0.1,1.6 -1.1,4.1 -2.2,6.5 -1.3,2.8 -2.6,5.7 -2.3,7.8 0.7,5.5 3.1,8.2 4.9,9.6 2,1.5 3.9,1.7 4,1.7 0,0 0,0 0.1,0 0.3,0 0.5,-0.2 0.6,-0.4 l 2.7,-5.8 1.7,0.8 c 0,0.2 0,0.5 0.1,0.7 0.1,1.2 0.2,2.9 1.8,3.8 0.3,0.1 0.6,0.2 0.8,0.2 0.9,0 1.7,-0.6 2.2,-1.1 0.8,0.1 2,-0.1 2.7,-1.6 0.7,-1.4 0.1,-2.5 -0.5,-3.1 0.1,-0.9 0,-2.2 -1.1,-2.7 -1.9,-1 -3.3,0.2 -4.2,0.9 -0.1,0.1 -0.3,0.2 -0.4,0.3 l -1.8,-0.9 2.8,-6.1 1.6,0.8 c 0,0.2 0,0.5 0.1,0.7 0.1,1.2 0.2,2.9 1.8,3.7 0.3,0.1 0.6,0.2 0.8,0.2 0.9,0 1.7,-0.6 2.2,-1.1 0.8,0.1 2,-0.1 2.7,-1.6 0.7,-1.4 0.1,-2.5 -0.5,-3.1 0.1,-0.9 0,-2.2 -1.1,-2.7 -1.9,-1 -3.3,0.2 -4.2,0.9 -0.1,0.1 -0.3,0.2 -0.4,0.3 l -1.7,-0.8 2.8,-6.1 2,1 c 0,0.2 0,0.5 0.1,0.7 0.1,1.2 0.2,2.9 1.8,3.8 0.3,0.1 0.6,0.2 0.8,0.2 0.9,0 1.7,-0.6 2.2,-1.1 0.8,0.1 2,-0.1 2.7,-1.6 0.7,-1.4 0.1,-2.5 -0.5,-3.1 0.1,-0.9 0,-2.2 -1.1,-2.7 -1.9,-1 -3.3,0.2 -4.2,0.9 -0.1,0.1 -0.3,0.2 -0.4,0.3 l -2.1,-1 2.8,-6.1 2.4,1.2 c 0,0.2 0,0.5 0.1,0.7 0.1,1.2 0.2,2.9 1.8,3.8 0.3,0.1 0.6,0.2 0.8,0.2 0.9,0 1.7,-0.6 2.2,-1.1 0.8,0.1 2,-0.1 2.7,-1.6 0.7,-1.4 0.1,-2.5 -0.5,-3.1 0.1,-0.9 0,-2.2 -1.1,-2.7 -1.9,-1 -3.3,0.2 -4.2,0.9 -0.1,0.1 -0.3,0.2 -0.4,0.3 l -2.5,-1.2 2.7,-5.9 c 0.1,-0.2 0.1,-0.4 0,-0.6 -0.1,-0.2 -0.3,-0.3 -0.5,-0.4 0,0 -2.6,-0.3 -4.9,-2.8 -1.5,-1.6 -1.9,-6.7 -1.9,-8.5 l -2.3,-93.6 65.2,105 c -0.3,0.9 -0.6,1.5 -0.7,1.7 0,0 -0.1,0.1 -0.2,0.1 -0.2,0.1 -0.5,0.3 -0.7,0.5 -0.3,0.4 -0.6,1 -0.7,1.4 -0.2,0.5 -0.4,1.1 -0.6,1.7 -0.4,1 -0.8,1.9 -1,2.9 -0.1,0.5 -0.2,1 -0.2,1.5 0,0.3 -0.1,0.7 -0.1,1 0,0 0,0 0,0.1 -0.1,0.8 0.1,1.4 0.3,1.9 0,0.1 0,0.1 0.1,0.2 0,0.1 0,0.2 0,0.2 0.1,0.2 -0.2,1 -0.4,1.3 -0.1,0.1 -0.1,0.3 -0.1,0.4 -0.2,0.7 -0.5,1.4 -0.8,2 -0.3,0.8 -0.6,1.5 -0.8,2.2 0,0.1 -0.1,0.2 -0.1,0.4 0,0.1 -0.1,0.4 -0.1,0.5 0,0 -0.1,0.1 -0.1,0.1 -0.7,0.4 -0.7,1.4 -0.6,2.1 0.3,1.2 1.4,1.8 2,2.2 0.5,0.2 1.1,0.4 1.8,0.4 0.6,0 1.1,-0.1 1.6,-0.4 0.6,-0.4 0.9,-1 1,-1.7 l 0,-0.1 c 0,0 0,-0.1 0,-0.1 0.1,-0.3 1.8,-5.1 5.2,-15.1 l 5.6,9.1 c 1.4,2.2 3.3,3.8 5.2,4.2 0.4,0.1 0.7,0.1 1.1,0.1 1.1,0 2.1,-0.3 3.1,-1 1.3,-0.9 2.3,-2.8 2.2,-4.5 0,-2.3 -1.4,-4.2 -2.7,-6 -0.3,-0.5 -0.6,-0.9 -0.9,-1.3 l 0,0 -9.1,-13.8 c 1.5,-4.3 2.7,-7.9 3.2,-9.1 0.4,-0.2 0.7,-0.5 0.9,-1 0.2,-0.4 0.2,-0.8 0.2,-1.1 0,0 0,0 0,0 0.2,-0.5 0.3,-1 0.5,-1.5 0.2,-0.7 0.4,-1.4 0.7,-2.1 0.1,-0.3 0.2,-0.5 0.3,-0.8 0.2,-0.4 0.4,-0.8 0.5,-1.4 0.1,-0.6 0.3,-1.2 0.5,-1.8 0.9,-0.8 0.8,-2 0.7,-2.6 0.3,-0.9 0.6,-1.8 0.9,-2.7 0.3,-0.8 0.5,-1.7 0.8,-2.5 0.1,0 0.2,0 0.2,-0.1 0.6,-0.1 1.3,-0.3 1.8,-1.1 0,0 0,0 0,0 0.4,-0.7 0.4,-1.4 0.2,-2 0.5,-0.3 1,-0.8 1.2,-1.3 0.5,-1.3 0.2,-2.4 -0.9,-3.1 0,-0.1 0.1,-0.3 0.2,-0.4 0.1,-0.2 0.2,-0.4 0.2,-0.6 0.1,-0.3 0.2,-0.6 0.3,-0.9 0.2,-0.6 0.4,-1.1 0.6,-1.6 0.5,-1.3 0.9,-2.5 1.4,-3.8 0.1,0 0.2,0 0.3,0 0.2,-0.1 0.5,-0.2 0.7,-0.4 0.8,0.2 1.7,-0.1 2.4,-0.8 0.5,-0.5 1,-1.3 0.9,-2.2 0,-0.2 -0.1,-0.4 -0.1,-0.6 0.5,-0.6 0.8,-1.5 1,-2.2 0,-0.2 0.1,-0.3 0.1,-0.4 0.2,-0.7 0.2,-1.6 0.1,-2.4 0,-0.3 -0.1,-0.7 -0.2,-1 -0.1,-0.2 -0.1,-0.4 -0.2,-0.6 0.3,0.1 0.5,0.1 0.8,-0.1 0.6,-0.3 0.9,-1.2 0.7,-1.9 -0.1,-0.5 -0.5,-0.8 -1,-0.9 0.1,-0.3 0.1,-0.5 0.2,-0.7 0.1,-0.5 0.2,-0.9 0.3,-1.4 0.1,-0.4 0.1,-0.8 0.2,-1.2 0,-0.3 0.1,-0.7 0.1,-1 0,-0.1 0.1,-0.3 0.1,-0.4 0.1,-0.4 0.2,-0.8 0.1,-1.3 0.1,-0.4 0.2,-0.9 0.2,-1.4 0.1,-0.5 0.1,-1 0.3,-1.4 1.2,0.1 2.5,-0.9 3,-1.8 0.4,-0.8 0.5,-1.5 0.5,-2.3 0,-0.9 -0.4,-1.3 -0.7,-1.7 -0.1,-0.1 -0.2,-0.3 -0.3,-0.5 0,0 0,-0.1 -0.1,-0.1 -0.1,-0.1 -0.1,-0.1 0.1,-0.5 0.1,-0.2 0.1,-0.3 0.2,-0.5 0.4,-1.1 8.4,-24.4 9.1,-26.5 0.6,-0.5 0.7,-1.3 0.8,-1.9 0,-0.2 0.1,-0.5 0.1,-0.6 0,-0.1 0.1,-0.5 0.3,-1.1 l 5.8,25.8 c -0.1,0.1 -0.3,0.2 -0.3,0.4 -0.2,0.3 -0.3,0.7 -0.2,1.1 0.1,0.5 0.5,1 1,1.2 l 1.7,8.9 c -0.4,0.3 -0.6,0.9 -0.5,1.4 0.1,0.6 0.5,1 1.1,1.2 l 18,96.3 c 0.9,4.7 4.6,8 8.6,8 0.4,0 0.9,0 1.3,-0.1 4.5,-0.8 7.4,-5.7 6.4,-10.9 l -10.6,-57.5 z m -20,-36.6 c 0,0 0,0 0,0 0.8,-0.2 1.4,-1 1.2,-1.8 -0.1,-0.5 -0.5,-0.9 -0.9,-1.1 l -0.9,-4.7 7.9,-1.5 0.9,4.6 c -0.4,0.3 -0.6,0.9 -0.5,1.4 0.1,0.4 0.3,0.8 0.6,1 0.3,0.2 0.6,0.3 0.9,0.3 l 0.3,1.8 -9.2,1.7 -0.3,-1.7 0,0 z m -1,-13.3 c -0.1,-0.7 -0.7,-1.2 -1.4,-1.3 l -1.4,-6 c 0.2,0.2 0.4,0.4 0.6,0.6 0.7,0.5 1.6,0.6 2.6,0.4 l 4.3,-1 c 0.7,1.7 1.6,2.6 2.6,2.8 0.1,0.7 0.3,1.5 0.4,2.1 l -0.5,0.1 c -0.1,0 -0.1,0 -0.2,0.1 -0.3,-0.1 -0.6,-0.1 -0.9,0 -1.2,0.2 -2,1.4 -1.8,2.6 0.1,0.6 0.4,1.1 0.9,1.4 0.1,0.1 0.3,0.2 0.4,0.2 l -5.8,1.1 -0.3,-1.7 c 0.1,-0.1 0.2,-0.2 0.2,-0.3 0.3,-0.3 0.4,-0.7 0.3,-1.1 z m 3.2,-10.3 0.1,0.7 -3.4,0.8 c -0.4,0.1 -0.6,0 -0.6,0 -0.2,-0.1 -0.3,-0.6 -0.4,-1.1 l 4.3,-0.9 c 0,0.2 -0.1,0.3 0,0.5 z m 15.4,47.6 -4.9,-26.4 c 0.7,-0.3 1.1,-1 1,-1.7 -0.1,-0.5 -0.5,-0.9 -0.9,-1.1 l -1.6,-8.8 c 0.2,-0.1 0.4,-0.4 0.3,-0.7 l -0.2,-1 c 0,-0.2 -0.1,-0.3 -0.3,-0.5 -0.2,-0.1 -0.3,-0.1 -0.5,-0.1 l -0.5,0.1 -0.4,-2.1 c 1.4,-0.8 1.5,-3 1.4,-4.2 l 0.2,0 c 0.1,0 0.3,-0.1 0.4,-0.2 2.1,10.9 5,26.3 5.7,31.7 0.9,7.5 0.9,11.8 0.3,15 z m -12.1,-37.7 c 0,0 0.1,0 0,0 0.2,0 0.4,0.1 0.4,0.3 0,0.1 0,0.2 -0.1,0.3 0,0.1 -0.1,0.1 -0.2,0.1 -0.2,0 -0.4,-0.1 -0.4,-0.3 0,-0.2 0.1,-0.4 0.3,-0.4 z m 4.5,16.4 5.2,27.8 c -0.8,1.1 -1.7,1.9 -2.4,2.5 -1,0.8 -1.8,1.6 -1.6,2.6 0.2,0.7 0.9,1.4 5.1,1.3 l 10.8,57.6 c 0.3,1.5 0,3 -0.7,4.2 -0.7,1.2 -1.7,1.9 -2.9,2.2 -2.5,0.5 -5.1,-1.6 -5.6,-4.6 l -17.1,-91.7 9.2,-1.9 z m -17.2,-40.8 0.9,3.9 c -0.1,0 -0.1,0 -0.2,0 -0.1,0 -0.1,0 -0.2,0 l -0.9,-3.9 0.4,0 z m 5.8,-34.3 c 0.4,-0.2 0.8,-0.5 0.9,-0.9 0.2,-0.4 0.1,-0.9 -0.1,-1.3 -0.8,-1.3 -2.6,-1.9 -3.9,-2.4 l -0.2,-0.1 c -0.7,-0.2 -2.7,-0.3 -3.4,0.7 -0.2,0.2 -0.5,0.7 -0.1,1.5 -0.2,0.6 -0.4,1.1 -0.7,1.7 -0.3,0.6 -0.5,1.3 -0.8,2 -0.1,0.4 -0.2,0.8 -0.3,1.1 -0.1,0.4 -0.2,0.7 -0.3,1 0,0.1 -0.1,0.2 -0.2,0.3 -0.1,0 -0.3,0 -0.4,0 -0.1,0 -0.3,0 -0.3,0 -0.1,-0.1 -0.2,-0.2 -0.4,-0.4 -0.3,-0.3 -0.9,-1 -1.7,-0.6 -0.6,0.3 -0.8,0.9 -0.9,1.5 0,0 -0.1,-0.1 -0.1,-0.1 -0.1,0 -0.2,-0.1 -0.2,-0.1 -0.1,-0.4 -0.2,-0.9 -0.3,-1.4 -0.1,-0.7 0.7,-6.2 3.2,-6.7 l 6.9,-1.6 c 0.6,-0.1 1.9,0.2 3.4,1.1 1.4,0.9 2.4,2 2.6,3 l 0.4,1.9 c -0.2,0.2 -0.3,0.4 -0.2,0.7 l 2.7,12.1 c 0,0 0,0 0,0 0.3,1.3 1.5,7.3 3,15 l -1.5,0.3 -0.7,-3 c -0.4,-1.9 -1.7,-3.3 -3.7,-4 -1.5,-0.6 -3.5,-0.7 -5.1,-0.3 -2.5,0.6 -3.8,1.9 -4.4,2.9 -0.7,1.1 -0.9,2.5 -0.7,3.7 l 0.9,3.9 -0.4,0.1 -1.5,-6.6 c 2.7,-7.3 6.2,-18 8.5,-25 z m -1.4,24.6 c 0.9,-0.2 2,-0.2 2.8,0.1 0.9,0.3 1.5,0.8 1.6,1.5 l 2.3,10.2 c 0.4,1.7 -2,4.2 -3.2,4.5 l -2.1,0.5 c -0.2,-0.6 -0.4,-1.1 -0.9,-1.6 l -2.9,-12.8 c 0,-0.2 -0.1,-1.8 2.4,-2.4 z m 0.5,20.7 3.8,-0.9 c 3,-0.7 6.8,-4.9 5.9,-8.8 l -1.1,-4.7 1.4,-0.3 c 0.7,3.8 1.6,8 2.4,12.2 l -13.7,3.5 c 0.5,-0.2 1,-0.6 1.3,-1 z"
           id="XMLID_31_"
           inkscape:connector-curvature="0"
           style="fill:#000000;fill-opacity:0.50447795" />
        <path
           d="m 498.6,298 c -6.1,-2.5 -13,-3.4 -16.2,-2 l 0,0 c -1.2,0.5 -1.8,1.3 -1.9,2.3 0,0.6 0.3,1 0.5,1.1 0.2,0.2 0.8,0.8 1.7,3.4 0,0 0,0.1 0,0.1 5.6,11.1 -2.9,33.6 -12,57.4 -1.5,3.8 -3.1,8.2 -4.7,12.4 -0.3,0.5 -0.8,1 -1.3,1.3 -1,0.7 -2.5,1 -3.5,0.3 -0.4,-0.3 -0.6,-1.2 -0.7,-1.8 -0.1,-0.8 -0.3,-2 -1.5,-2.1 l -0.3,0 c -0.3,0 -0.6,0.2 -0.7,0.4 l -0.1,0.3 c -0.6,1.4 -0.5,2.8 0.1,4 0.5,1 1.5,1.9 2.7,2.4 1.1,0.4 2.4,0.5 3.5,0.2 -0.2,0.7 -0.5,1.3 -0.7,2 0,0 -0.1,0 -0.1,0 0,-0.1 -0.1,-0.3 -0.1,-0.4 -0.2,-0.5 -0.7,-0.8 -1.1,-0.9 l -0.1,0 c 0,0 0,0 0,0 0,0 0,-0.1 -0.1,-0.1 l -0.1,-0.1 c -0.1,-0.1 -0.2,-0.2 -0.3,-0.2 l -0.7,-0.2 c 0,0 -0.1,0 -0.1,0 l -0.1,0 c 0,0 -0.1,0 -0.1,0 -1,-0.1 -1.5,0.7 -1.9,1.4 l -0.5,-0.2 c 0.2,-1.2 -0.3,-1.6 -0.8,-1.8 -0.7,-0.3 -1.7,-0.1 -2.7,2.3 l -0.1,0.1 c -0.8,2 -0.5,2.8 0,3.2 -0.6,0.2 -1.2,0.8 -1.9,2.4 l -0.1,0.1 c -0.5,1.3 -0.6,2.1 -0.4,2.6 -0.1,0 -0.1,-0.1 -0.2,-0.1 -0.6,-0.3 -1.6,-0.1 -2.6,2.1 -0.1,-0.2 -0.1,-0.3 -0.2,-0.5 -4,-8.7 -7.8,-17.2 -8.2,-17.9 l -4.4,-9.6 c 0,-0.1 0,-0.3 -0.1,-0.4 l -0.1,-0.2 c 0,0 0,-0.1 -0.1,-0.1 0,0 0,0 0,-0.1 l -0.1,-0.2 c 0,0 0,-0.1 -0.1,-0.1 0,0 0,0 0,-0.1 l -0.1,-0.2 c 0,0 0,-0.1 -0.1,-0.1 0,0 0,-0.1 0,-0.1 l -0.2,-0.5 c 0.1,-0.1 0.1,-0.2 0.2,-0.4 0.1,-0.4 0.1,-0.8 0,-1.1 l -1.3,-2.8 c -0.2,-0.4 -0.4,-0.6 -0.8,-0.8 -0.4,-0.1 -0.8,-0.1 -1.1,0 l -1.4,0.7 c -0.4,0.2 -0.7,0.6 -0.8,1 -0.1,0 -0.1,0 -0.2,0 l -4.2,-9.4 0.6,0.8 c 0.7,1 1.9,1.3 2.6,0.8 0.3,-0.2 0.5,-0.5 0.5,-0.9 0.1,-0.6 -0.1,-1.2 -0.6,-1.8 l -11.1,-14.3 0.3,-0.7 c 0.5,-1.3 -0.2,-2.7 -1.4,-3.2 l -0.1,0 c -0.6,-0.2 -1.2,-0.2 -1.8,0 l -3,-3.8 0.1,-0.2 c 0.1,-0.1 0.1,-0.3 0.1,-0.4 0,0 0,0 0,0 12.2,2.2 23.3,1.7 27.5,-1.4 1.1,-0.8 1.7,-1.7 1.9,-2.8 0.9,-5.8 -12.8,-11.8 -26.5,-14.3 -12.2,-2.2 -23.3,-1.7 -27.5,1.4 -1.1,0.8 -1.7,1.7 -1.9,2.8 -0.8,5.2 10.3,10.6 21.9,13.3 l -0.3,0.7 c -0.2,0.5 -0.1,1.1 0.2,1.5 0.3,0.4 0.7,0.8 1.3,1 l 0.1,0.1 c 0.2,0.1 0.4,0.1 0.5,0.1 l 3.6,4.6 c -0.2,0.6 -0.1,1.3 0.2,1.9 L 393,387.3 c -0.8,0.3 -1.4,0.9 -1.7,1.7 -0.3,0.7 -0.2,1.5 0.1,2.2 l -9.1,24.1 c -0.5,-0.3 -1.1,-0.5 -1.9,-0.3 -0.1,-0.1 -0.3,-0.1 -0.4,-0.1 l -28.4,-77.1 c 0,0 0,0 0,0 -1.1,-3.7 -0.8,-7.6 0.9,-11.1 0.1,-0.2 0.1,-0.3 0.1,-0.5 l -0.7,-2.8 3.2,-1 0.7,2.3 c 0.1,0.2 0.2,0.4 0.4,0.4 0.4,0.1 0.8,0.2 1.2,0.2 0.4,0 0.7,-0.1 1.1,-0.2 2.2,-0.7 3.2,-3.6 2.3,-6.3 -0.9,-2.8 -3.4,-4.4 -5.6,-3.7 -0.7,0.2 -1.3,0.7 -1.8,1.3 -0.1,0.2 -0.2,0.4 -0.1,0.6 l 0.7,2.2 -2.9,1 -1.9,-7.3 2.5,-0.8 0.7,2.3 c 0.1,0.2 0.2,0.4 0.4,0.4 0.4,0.1 0.8,0.2 1.2,0.2 0.4,0 0.7,-0.1 1.1,-0.2 1.1,-0.4 1.9,-1.2 2.3,-2.5 0.4,-1.2 0.4,-2.5 -0.1,-3.8 -0.9,-2.8 -3.4,-4.4 -5.6,-3.7 -0.7,0.2 -1.3,0.7 -1.8,1.3 -0.1,0.2 -0.2,0.4 -0.1,0.6 l 0.7,2.2 -2.3,0.8 -1.9,-7.3 1.8,-0.6 0.7,2.3 c 0.1,0.2 0.2,0.4 0.4,0.4 0.4,0.1 0.8,0.2 1.2,0.2 0.4,0 0.7,-0.1 1.1,-0.2 2.2,-0.7 3.2,-3.6 2.3,-6.3 -0.4,-1.3 -1.2,-2.4 -2.3,-3.1 -1.1,-0.7 -2.3,-1 -3.4,-0.6 -0.7,0.2 -1.3,0.7 -1.8,1.3 -0.1,0.2 -0.2,0.4 -0.1,0.6 l 0.7,2.2 -1.6,0.5 -1.3,-4.8 c -0.1,-0.2 -0.3,-0.4 -0.5,-0.5 -0.3,-0.1 -6.8,-1.8 -13.9,0.6 -7.1,2.4 -10.9,7.4 -11.1,7.7 -0.1,0.2 -0.2,0.4 -0.1,0.7 l 1.8,4.7 -1.2,0.4 -0.7,-2.2 c -0.1,-0.2 -0.2,-0.4 -0.4,-0.4 -0.7,-0.2 -1.5,-0.3 -2.2,0 -2.2,0.7 -3.2,3.6 -2.3,6.3 0.8,2.3 2.7,3.9 4.6,3.9 0.4,0 0.7,-0.1 1.1,-0.2 0.7,-0.2 1.3,-0.7 1.8,-1.3 0.1,-0.2 0.2,-0.4 0.1,-0.6 l -0.7,-2.3 1.4,-0.5 2.7,7 -1.7,0.6 -0.7,-2.2 c -0.1,-0.2 -0.2,-0.4 -0.4,-0.4 -0.8,-0.2 -1.5,-0.3 -2.2,0 -2.2,0.7 -3.2,3.6 -2.3,6.3 0.8,2.3 2.7,3.9 4.6,3.9 0.4,0 0.7,-0.1 1.1,-0.2 0.7,-0.2 1.3,-0.7 1.8,-1.3 0.1,-0.2 0.2,-0.4 0.1,-0.6 l -0.7,-2.3 1.9,-0.6 2.7,7 -2.2,0.7 -0.7,-2.2 c -0.1,-0.2 -0.2,-0.4 -0.4,-0.4 -0.8,-0.2 -1.5,-0.3 -2.2,0 -1.1,0.4 -1.9,1.2 -2.3,2.5 -0.4,1.2 -0.4,2.5 0.1,3.8 0.4,1.3 1.2,2.4 2.3,3.1 0.7,0.5 1.5,0.8 2.3,0.8 0.4,0 0.7,-0.1 1.1,-0.2 0.7,-0.2 1.3,-0.7 1.8,-1.3 0.1,-0.2 0.2,-0.4 0.1,-0.6 l -0.7,-2.3 2.3,-0.8 0.9,2.4 c 0.1,0.2 0.2,0.3 0.4,0.4 2.6,1.2 4.7,3.1 6.2,5.4 l 26.6,85.8 c 0,0.1 -0.1,0.2 -0.1,0.3 l -0.4,0.3 c -1.8,-5.6 -5.8,-15.6 -9.6,-25.3 -3.2,-7.9 -6.1,-15.4 -7.6,-19.8 l 0.4,-0.2 c 0.3,-0.1 0.5,-0.3 0.7,-0.6 0.1,-0.3 0.2,-0.6 0,-0.9 l -0.3,-0.9 c -0.1,-0.3 -0.3,-0.5 -0.6,-0.7 -0.1,0 -0.2,-0.1 -0.3,-0.1 l -5,-14.1 c -0.1,-0.3 -0.3,-0.5 -0.6,-0.7 -0.2,-0.1 -0.5,-0.1 -0.7,-0.1 l -4.3,-12 c -0.1,-0.4 -0.4,-0.7 -0.7,-0.9 l 0,0 c 0.2,-0.3 0,-0.8 -0.3,-0.9 l -1.8,-0.9 c -0.2,-0.1 -0.4,-0.1 -0.5,0 -0.2,0.1 -0.3,0.2 -0.4,0.4 l -0.9,1.9 c -0.2,0.3 0,0.8 0.3,0.9 l 0,0 c 0,0 0,0 0,0 -0.1,0.4 -0.1,0.8 0,1.1 l 4.3,12 c -0.5,0.3 -0.7,0.9 -0.5,1.4 l 5,14.1 c -0.3,0.3 -0.4,0.8 -0.2,1.2 l 0.3,0.9 c 0.2,0.6 0.9,0.9 1.5,0.7 l 0.1,-0.1 c 1.4,4.1 4.5,11.3 7.7,18.9 4.2,9.8 8.8,20.8 10.6,26.8 l -10,6.2 c -0.6,-0.1 -1.2,0 -1.8,0.4 l -1.7,1.1 c -0.5,0.4 -0.9,0.9 -1,1.5 -0.1,0.6 0,1.3 0.4,1.9 l 0,0.1 c 0.8,1.1 2.3,1.4 3.5,0.7 l 1.7,-1.1 c 0.7,-0.5 1.1,-1.2 1.1,-2 l 12.8,-7.9 7.7,24.7 c 0.1,0.2 0.2,0.3 0.3,0.4 0.1,0.1 0.2,0.1 0.3,0.1 0.1,0 0.1,0 0.2,0 l 0.8,-0.3 c 0,0.1 -0.1,0.2 -0.1,0.4 l -0.2,2 c -0.1,1.3 0.8,2.5 2.2,2.7 l 0.1,0 c 0.7,0.1 1.4,-0.1 1.9,-0.5 0.5,-0.4 0.8,-1 0.9,-1.6 l 0.2,-2 c 0.1,-0.6 -0.1,-1.3 -0.5,-1.8 0.3,-0.3 0.5,-0.6 0.7,-0.9 l 12,-4 c 0.2,-0.1 0.3,-0.2 0.4,-0.4 0.1,-0.2 0.1,-0.4 0,-0.5 l -3,-8.1 3.8,0.1 6.3,15.9 c -0.2,0.6 -0.2,1.2 0,1.8 l 0.8,1.9 c 0.4,1 1.4,1.6 2.4,1.6 0.3,0 0.6,0 0.8,-0.1 l 0.1,0 c 0.6,-0.2 1.1,-0.7 1.4,-1.3 0.3,-0.6 0.3,-1.3 0,-1.9 l -0.8,-1.9 c -0.3,-0.8 -1,-1.3 -1.8,-1.5 l -6.4,-16.2 c -0.1,-0.3 -0.3,-0.5 -0.6,-0.6 0.1,-0.3 0.1,-0.6 0,-0.9 l -6.6,-16.7 c -0.1,-0.1 -0.1,-0.3 -0.2,-0.4 0,-0.1 -0.1,-0.2 -0.1,-0.3 -0.5,-0.5 -1.2,-1 -1.9,-1.1 l 0.6,-1.6 c 0.2,0.5 0.6,0.8 1.1,1.1 0.3,0.1 0.6,0.2 0.9,0.2 0.8,0 1.7,-0.5 2,-1.3 l 0.8,-1.8 c 0.1,-0.3 0,-0.7 -0.2,-0.9 0,0 0,0 0,-0.1 L 411.4,370 c 0.1,0 0.2,0 0.2,0 0.3,0 0.5,-0.2 0.6,-0.4 l 0.5,-1.1 0.3,0.7 c 0.2,0.3 0.5,0.5 0.9,0.4 l 6,13.5 c 0.2,0.4 0.5,0.8 1,0.9 0.2,0.1 0.4,0.1 0.6,0.1 0.2,0 0.5,-0.1 0.7,-0.2 l 15.6,-7 c 0.9,-0.4 1.3,-1.4 0.9,-2.3 l -6,-13.4 c 0.1,0 0.1,-0.1 0.2,-0.2 0.2,0.1 0.3,0.1 0.5,0.2 l 0.2,0.5 c 0,0 0,0.1 0.1,0.1 0,0 0,0.1 0,0.1 l 0.1,0.2 c 0,0 0,0.1 0.1,0.1 0,0 0,0.1 0,0.1 l 0.1,0.2 c 0,0 0,0.1 0.1,0.1 0,0 0,0.1 0,0.1 l 0.1,0.2 c 0.1,0.1 0.2,0.3 0.3,0.3 l 4.3,9.6 c 0.3,0.7 4,8.7 7.8,17.1 2.6,5.6 5.2,11.4 7,15.4 -1,2.5 -2,5 -2.9,7.3 l -5.8,-14.9 c -0.1,-0.2 -0.2,-0.3 -0.4,-0.4 -0.2,-0.1 -0.4,-0.1 -0.6,0 -3.4,1.8 -7,3.3 -10.6,4.7 -0.2,0.1 -0.3,0.2 -0.4,0.4 -0.1,0.2 -0.1,0.4 0,0.6 l 12,24.1 c -0.4,1.1 -0.8,2 -1.1,2.8 -0.3,0.8 -0.6,1.4 -0.7,1.9 -0.4,0.3 -0.6,0.7 -0.7,1.1 -0.1,0.1 -0.1,0.3 -0.2,0.5 0,0.1 -0.1,0.3 -0.1,0.4 l -3.3,8 c -0.1,0.3 -0.3,0.6 -0.5,1.1 -0.3,0.5 -0.6,1 -0.7,1.5 -0.2,0.5 -0.3,0.9 -0.2,1.3 l -3.4,8.2 c -0.2,0.4 -0.5,1 -0.9,1.6 l -0.1,0.2 c -0.2,0.1 -0.5,0.2 -0.7,0.4 -0.7,0.5 -1.2,1.2 -1.6,2 l -0.1,0.2 c 0,0.1 -0.1,0.2 -0.1,0.4 -0.1,0.1 -0.2,0.2 -0.3,0.2 l -0.1,0.1 c -0.1,0.1 -0.1,0.1 -0.1,0.2 l -0.4,1 c 0,0 0,0.1 0,0.1 -0.4,1.6 1.2,2.6 1.9,3 0.5,0.3 2,0.7 2.4,0.8 0.3,0.1 0.6,0.1 0.9,0.1 1.1,0 1.8,-0.5 2.1,-1.5 l 0.3,-0.7 c 0,0 0,-0.1 0,-0.1 0.1,-0.2 0.1,-0.5 0.1,-0.7 0,-0.1 0.1,-0.2 0.1,-0.3 l 0.1,-0.2 c 0.3,-0.6 0.4,-1.3 0.3,-1.9 0.1,-0.4 0.2,-0.8 0.3,-1.3 0.2,-0.7 0.3,-1.3 0.5,-1.7 l 3.4,-8.3 c 0.4,-0.3 0.7,-0.8 0.9,-1.4 0.2,-0.4 0.3,-0.8 0.4,-1.3 l -0.7,-0.2 0.7,0.2 c 0.1,-0.3 0.2,-0.5 0.2,-0.7 1.3,1.2 3.2,2.4 6.1,3.7 9,4 11.7,0.6 14.5,-4.8 2.3,-4.4 8.1,-17.8 9.9,-22.1 0.1,-0.1 0.2,-0.1 0.2,-0.2 0.4,-0.3 1,-0.7 1.4,-1.4 0.4,-0.8 1.4,-3.1 2.6,-5.7 0.9,-2.1 1.9,-4.2 2.6,-5.8 0.3,-0.3 0.4,-0.7 0.4,-1.1 l 3,1.2 c 0.2,0.5 0.6,0.8 1.1,1 0,0 0.1,0 0.1,0 0.1,0.1 0.2,0.2 0.4,0.3 0,0 0,0 0.1,0 l 0.5,0.2 c 1.4,0.6 2.2,-0.9 2.5,-1.6 0.1,-0.3 0.3,-0.8 0.6,-1.3 0.1,-0.2 0.2,-0.6 0.3,-0.9 0,-0.1 0.1,-0.3 0.1,-0.4 0.1,-0.4 0.3,-0.9 0.3,-1.4 0.4,-0.4 0.7,-0.9 0.9,-1.4 0.1,-0.3 0.3,-0.8 0.6,-1.3 0.1,-0.2 0.2,-0.6 0.3,-0.9 0,-0.2 0.1,-0.3 0.1,-0.4 0.2,-0.5 0.3,-1.1 0.2,-1.6 0.4,-0.4 0.7,-0.9 0.9,-1.3 0.1,-0.3 0.3,-0.8 0.6,-1.3 0.1,-0.2 0.2,-0.6 0.3,-0.9 0,-0.2 0.1,-0.3 0.1,-0.4 0.2,-0.8 0.6,-1.9 -0.3,-2.6 0,0 -0.1,-0.1 -0.1,-0.1 l -0.7,-0.3 c -0.1,-0.1 -0.3,-0.1 -0.4,-0.1 l -0.1,0 c 0,0 -0.1,0 -0.1,0 0,0 0,0 0,0 l -0.1,0 c -0.3,-0.1 -0.9,-0.3 -1.4,-0.1 -0.2,0.1 -0.3,0.2 -0.4,0.3 l -3.5,-1.5 1.7,-4.2 c 1.5,-3.7 3.2,-7.8 4.7,-11.6 0.1,0 0.1,0 0.2,0 0.1,0.1 0.1,0.1 0.2,0.2 0.2,0.2 0.3,0.3 0.5,0.4 l 0.1,0 c 0.7,0.3 1.5,0 1.9,-0.7 0.2,-0.2 0.3,-0.4 0.5,-0.7 0.1,-0.2 0.1,-0.4 0.1,-0.6 l 0.9,-2.3 c 0.1,-0.1 0.2,-0.3 0.3,-0.4 0.1,-0.1 0.2,-0.2 0.3,-0.4 0,-0.1 0.1,-0.3 0.1,-0.5 l 1.4,-3.3 c 0.4,-0.4 0.6,-0.6 0.8,-0.9 0,0 0.1,0 0.1,-0.1 0.2,-0.1 0.3,-0.2 0.4,-0.4 0.1,-0.3 0.1,-0.7 -0.2,-1 0,0 0,-0.1 -0.1,-0.1 l 0.9,-2.4 c 0,0 0,0 0,0 0.7,-0.6 0.9,-0.9 1.2,-1.3 0,0 0,0 0,-0.1 0,0 0.1,-0.1 0.1,-0.1 l 0,-0.1 c 0.1,-0.1 0.1,-0.2 0.1,-0.3 0,-0.2 0,-0.6 -0.1,-0.9 -0.2,-0.4 -0.9,-0.7 -1.6,-1 l 0.2,-1.9 c 0,0 0,0 0,-0.1 l 0,-0.1 c 0,0 0,0 0,-0.1 0,-0.2 0,-0.4 -0.1,-0.6 0.1,-0.1 0.2,-0.3 0.3,-0.5 0.1,-0.1 0.2,-0.2 0.2,-0.3 0.5,-1.3 -0.1,-2.7 -1.4,-3.2 -0.2,-0.4 -0.4,-0.8 -0.6,-1.1 l 0.1,-2 c 0.3,-0.2 0.5,-0.6 0.7,-1 0.5,-1.1 0,-2.4 -1.1,-3 -0.5,-2.2 -1.3,-3.7 -2.4,-4.5 -0.8,-0.6 -1.7,-0.7 -2.8,-0.5 l -0.5,0.1 c -0.2,0.1 -0.4,0.2 -0.5,0.4 -0.4,-0.2 -0.8,-0.3 -1.2,-0.5 -1.5,-0.6 -2.9,-0.9 -4.2,-1 6.6,-13.8 12.3,-21.6 18,-24.3 3.5,-1.1 4.5,-1.3 4.5,-1.3 0.1,0 0.2,0 0.2,-0.1 l 0.1,-0.1 c 0.2,-0.1 0.3,-0.4 0.3,-0.6 l 0,-0.1 c 0.9,-3.3 -4.4,-9.2 -12.8,-12.7 z m -5.4,51.2 c -2.8,0 -3.9,2.6 -5.3,5.7 -0.3,0.6 -1.1,2.6 -2.5,6.2 -0.9,2.2 -1.9,4.8 -3,7.5 l -0.1,0.3 c -0.2,0.4 -0.6,1.4 -1,2.4 l -1,1.8 c -0.4,-0.4 -0.8,-0.7 -1.3,-0.9 -0.9,-0.4 -1.9,-0.4 -2.7,0 -0.8,0.4 -1.5,1 -1.8,1.9 -0.7,1.7 0.2,3.7 1.9,4.5 0.6,0.2 1.2,0.3 1.8,0.2 l -0.6,2.3 c -0.4,1 -0.7,1.9 -1.1,2.8 0,0.1 -0.1,0.2 -0.1,0.3 l -0.3,0.7 -6.6,-2.7 c 0.5,-1.3 1.1,-2.7 1.7,-4 l 0,-0.1 c 1.8,-4.4 3.6,-8.8 5.3,-13.1 2.9,-7.2 5.8,-14.6 8.8,-21.2 1.7,-1.6 3.2,-1.1 5.2,-0.4 1.3,0.4 2.1,1.1 2.5,2 0.5,0.8 0.5,2.1 0.2,3.8 z m -34.9,86 c -0.1,-0.2 -0.2,-0.3 -0.4,-0.4 -0.2,-0.1 -0.4,-0.1 -0.6,0 l -5,2.2 c -0.2,0.1 -0.3,0.2 -0.4,0.4 -0.1,0.2 0,0.4 0.1,0.6 l 3,5.5 c -1,0 -2,-0.2 -3.2,-0.7 0,0 0,0 0,0 l -0.5,-0.2 c -5.1,-2.4 -5.3,-2.5 -3.2,-7.6 0.1,-0.3 0.3,-0.6 0.4,-1 l 1.4,2.8 c 0.1,0.2 0.4,0.4 0.6,0.4 0.1,0 0.2,0 0.3,-0.1 l 7.5,-3.3 c 0.3,-0.2 0.5,-0.5 0.4,-0.9 l -4.8,-12.3 c 2.3,-5.8 5.4,-13.5 8.8,-21.9 l 0.6,0.2 c 0.3,1.8 2.4,2.3 3.8,2.6 0.4,0.1 1.1,0.3 1.4,0.4 0,0.1 -0.1,0.2 -0.3,0.4 -0.2,0.1 -1,0.3 -1.4,0.4 -1.4,0.3 -3,0.6 -3.5,1.9 -0.2,0.4 -0.2,0.8 -0.1,1.2 l 0.1,0.4 c 0,0.2 0.2,0.4 0.4,0.5 0.2,0.1 0.4,0.1 0.6,0 l 0.7,-0.3 c 0.1,0 0.2,-0.1 0.3,-0.2 l 0.1,-0.1 c 0.3,-0.4 0.8,-0.6 1.5,-0.7 0,0.8 -0.2,1.7 -0.5,2.5 -0.1,0.3 -0.2,0.5 -0.2,0.8 l -0.1,0.4 c 0,0.2 0,0.3 0,0.5 -0.6,1.4 -1.3,3 -1.6,3.9 -0.1,0.3 -0.2,0.5 -0.2,0.6 -1.3,4 1.7,5.7 4,6.6 0.1,0 0.1,0 0.2,0.1 -2.9,7 -5.9,14.4 -7.3,17.3 -0.4,0.8 -0.7,1.4 -1.1,2 l -1.8,-4.9 z m 11.1,-21.8 c 0.1,-0.4 0.3,-0.8 0.5,-1.2 l 0.3,-0.8 c 0.1,-0.3 0.5,-1.1 1,-2.2 l 0,-0.1 c 0.9,-1.9 2,-4.4 2.6,-6.1 l 1.5,0.6 c -0.9,2 -2.3,5.5 -4.6,11.3 l -0.6,1.5 c -0.1,0 -0.3,-0.1 -0.4,-0.2 -0.9,-0.3 -1.2,-0.6 -0.3,-2.8 z M 457,382 c 0.1,-0.1 0.1,-0.2 0.2,-0.3 l 0.5,0.2 c 0,0 0,0 0,0 -0.1,0.4 -0.3,0.9 -0.3,1.4 -0.4,0.3 -0.7,0.7 -1,1.2 0.1,-0.9 -0.1,-1.4 -0.5,-1.7 0.4,-0.1 0.7,-0.3 1.1,-0.8 z m -5.1,10.5 1.1,0.4 c -0.2,0.9 -0.5,2.2 0.8,2.6 l 0.5,0.2 c 0,0 0.1,0 0.1,0 0.2,0.1 0.4,0.1 0.7,0 l 0,0 c 0.2,0.1 0.8,0.3 1.4,0 0.1,0.1 0.3,0.2 0.4,0.2 l 0.4,0.2 c -0.7,1.8 -1.4,3.5 -2.1,5.2 -1.1,-2.4 -2.4,-5.3 -3.8,-8.3 0.2,0 0.4,-0.2 0.5,-0.5 z m 1.4,-4 c 0.3,0.1 0.6,0.1 1,0 0.3,-0.1 0.6,-0.4 0.9,-0.8 -0.1,0.3 -0.2,0.7 -0.2,1.1 -0.4,0.3 -0.7,0.9 -0.9,1.3 l 0,0 -1,-0.4 c 0.1,-0.6 0.1,-1 0,-1.3 0,0 0.1,0 0.2,0.1 z m -67.8,31.4 c 0,-0.1 0.1,-0.1 0.1,-0.2 l 6.1,15.4 -3.7,-0.1 -3.2,-8.8 c 0.1,-0.3 0.1,-0.6 0.2,-0.9 0.3,-1.5 0.6,-2.8 0.7,-3.3 0.1,-0.7 0,-1.4 -0.2,-2.1 z M 325.4,304.1 c -0.2,-0.5 0.2,-1.1 0.8,-1.3 0.2,-0.1 0.3,-0.1 0.5,-0.1 0.2,0 0.3,0 0.5,0.1 0.2,0.1 0.4,0.2 0.5,0.5 l 0.5,1.4 -2.3,0.8 -0.5,-1.4 z m 13,-4.4 c -0.1,-0.3 0,-0.5 0.1,-0.7 0.2,-0.3 0.4,-0.5 0.8,-0.6 0.1,0 0.3,-0.1 0.4,-0.1 0.2,0 0.4,0 0.5,0.1 0.2,0.1 0.4,0.3 0.5,0.6 l 0.4,1.4 -2.3,0.8 -0.4,-1.5 z m 9.5,25.4 c -0.2,0.3 -0.4,0.5 -0.8,0.5 -0.5,0.1 -1,0 -1.3,-0.3 l 2.2,-0.7 c 0,0.2 0,0.3 -0.1,0.5 z m -3.1,-3 -2.1,-7.2 2.3,-0.8 2.1,7.2 -2.3,0.8 z m -3,-10.5 -2.1,-7.2 2.3,-0.8 2.1,7.2 -2.3,0.8 z m -12.4,-3.7 2.7,7 -2.3,0.8 -2.7,-7 2.3,-0.8 z m 3.8,10.2 2.7,7 -2.3,0.8 -2.7,-7 2.3,-0.8 z m 3.8,10.2 c 0,0.4 -0.3,0.8 -0.8,1 -0.5,0.2 -1.1,0.1 -1.3,-0.3 l 2.1,-0.7 z m 76.8,29.7 c -0.1,0 -0.4,0.1 -0.4,0.1 -0.1,0 -0.2,-0.2 -0.3,-0.3 -0.1,-0.2 -0.2,-0.4 -0.4,-0.5 -0.2,-0.2 -0.4,-0.3 -0.6,-0.4 -0.1,-0.1 -0.3,-0.2 -0.3,-0.3 0,-0.1 0,-0.3 0,-0.4 0,-0.2 0.1,-0.4 0.1,-0.7 0,-0.2 -0.1,-0.5 -0.1,-0.7 0,-0.1 -0.1,-0.4 -0.1,-0.4 0,-0.1 0.2,-0.2 0.3,-0.3 0.2,-0.1 0.4,-0.2 0.5,-0.4 0.2,-0.2 0.3,-0.4 0.4,-0.6 0.1,-0.1 0.2,-0.3 0.3,-0.3 0,0 0,0 0.1,0 0.1,0 0.3,0 0.4,0.1 0.2,0 0.4,0.1 0.7,0.1 0,0 0.1,0 0.1,0 l -0.5,1.4 c -0.1,0.2 -0.1,0.4 0,0.5 0.1,0.2 0.2,0.3 0.4,0.4 l 0.3,0.1 c 0.1,0 0.2,0 0.3,0 0.3,0 0.5,-0.2 0.7,-0.4 l 0.5,-1.4 c 0,0 0,0.1 0.1,0.1 0.2,0.2 0.4,0.3 0.6,0.4 0.1,0.1 0.3,0.2 0.3,0.3 0,0.1 0,0.3 0,0.4 0,0.2 -0.1,0.4 -0.1,0.7 0,0.2 0.1,0.5 0.1,0.7 0,0.1 0.1,0.4 0.1,0.4 0,0.1 -0.2,0.2 -0.3,0.3 -0.2,0.1 -0.4,0.2 -0.5,0.4 -0.2,0.2 -0.3,0.4 -0.4,0.6 -0.1,0.1 -0.2,0.3 -0.3,0.3 -0.1,0 -0.3,0 -0.4,0 -0.2,0 -0.4,-0.1 -0.7,-0.1 -0.4,-0.2 -0.7,-0.2 -0.9,-0.1 z m 5.6,-6.3 c 0.1,-0.2 0.2,-0.4 0.3,-0.6 0.1,-0.2 0.1,-0.5 0.1,-0.7 0,-0.1 0,-0.4 0.1,-0.4 0.1,0 0.3,-0.1 0.4,-0.1 0.2,0 0.4,-0.1 0.6,-0.2 0.2,-0.1 0.4,-0.2 0.6,-0.4 0.1,-0.1 0.3,-0.2 0.4,-0.2 0,0 0,0 0,0 0.1,0 0.3,0.1 0.4,0.2 0.2,0.1 0.4,0.2 0.6,0.3 0.2,0.1 0.5,0.1 0.7,0.1 0.1,0 0.4,0 0.4,0.1 0,0.1 0.1,0.3 0.1,0.4 0.1,0.2 0.1,0.4 0.2,0.6 0,0 0,0.1 0.1,0.1 l -1.5,0.1 c -0.2,0 -0.4,0.1 -0.5,0.2 -0.1,0.1 -0.2,0.3 -0.2,0.5 l 0,0.3 c 0,0.4 0.3,0.7 0.7,0.7 0,0 0,0 0,0 l 1.5,-0.1 c 0,0 0,0.1 0,0.1 -0.1,0.2 -0.1,0.5 -0.1,0.7 0,0.1 0,0.4 -0.1,0.4 -0.1,0 -0.3,0.1 -0.4,0.1 -0.2,0 -0.4,0.1 -0.6,0.2 -0.2,0.1 -0.4,0.2 -0.5,0.4 -0.1,0.1 -0.3,0.2 -0.4,0.2 -0.1,0 -0.3,-0.1 -0.4,-0.2 -0.2,-0.1 -0.4,-0.2 -0.6,-0.3 -0.2,-0.1 -0.5,-0.1 -0.7,-0.1 -0.1,0 -0.4,0 -0.4,-0.1 0,-0.1 -0.1,-0.3 -0.1,-0.4 -0.1,-0.2 -0.1,-0.4 -0.2,-0.6 -0.1,-0.2 -0.2,-0.4 -0.4,-0.6 -0.1,-0.1 -0.2,-0.3 -0.2,-0.4 -0.1,0 0,-0.2 0.1,-0.3 z m 4.1,-7.4 -12.3,5.5 5.6,-15.4 7.6,9.8 c -0.3,-0.1 -0.6,-0.1 -0.9,0.1 z m -27.9,47.8 c 0.5,-0.3 1,-0.8 1.2,-1.4 0.2,-0.6 0.2,-1.3 0.1,-1.9 l 11.7,-31.8 1.4,3.2 -2.9,6.6 c -0.1,0.2 -0.1,0.4 0,0.5 0,0.1 0.1,0.2 0.1,0.2 0,0 0,0 0,0 l -18.6,43.2 c 0,0 0,0 0,0.1 0,0 0,0 0,0 l 7,-18.7 z m 91.4,16.4 c 0,0 0,0 0,0 l 0,0 0,0 z"
           id="XMLID_9_"
           inkscape:connector-curvature="0"
           style="fill:#000000;fill-opacity:0.50447795" />
        <path
           d="m 378.1,396.9 c 0.5,0.6 1.2,1 1.9,1 0.2,0 0.4,0 0.6,-0.1 1.1,-0.3 2.1,-1.4 2.3,-2.7 0,-0.3 0,-0.6 0,-0.8 0,-0.1 0,-0.4 0,-0.4 0.2,-0.5 0.4,-0.9 0.6,-1.4 0.1,-0.2 0.2,-0.4 0.2,-0.5 l 4.1,-9.2 -1.9,8.8 c 0,0.1 0,0.2 0,0.3 0,0.1 0,0.3 -0.1,0.3 -1.2,1.3 -1.9,3.3 -0.7,4.8 0,0.1 0.1,0.1 0.1,0.2 0.5,0.4 1,0.6 1.6,0.6 0.3,0 0.6,-0.1 0.9,-0.2 1,-0.5 1.7,-1.7 1.7,-3 0,-0.3 -0.1,-0.5 -0.2,-0.8 0,-0.1 -0.1,-0.3 -0.1,-0.3 0.1,-0.5 0.2,-0.9 0.3,-1.4 0,-0.2 0.1,-0.4 0.1,-0.5 l 5.8,-23.6 c 0.1,0.1 0.2,0.1 0.3,0.1 0,0 0,0 0.1,0 0.2,0 0.3,-0.1 0.4,-0.2 l 0.2,0 0,-0.1 c 0,-0.1 0,-0.1 0,-0.2 0,-0.1 0,-0.1 0.1,-0.2 l 0,-0.4 0,0 c 0,-0.4 -0.3,-0.7 -0.6,-0.8 0,0 -0.1,0 -0.1,0 l 0.6,-2.6 14.6,-32.6 c 0.5,-1.1 0.6,-2.2 0.2,-3.1 -0.3,-0.7 -0.8,-1.2 -1.5,-1.4 -0.8,-0.3 -1.8,-0.2 -2.5,0.3 -0.9,0.6 -1.3,1.6 -1.6,2.5 -0.1,0.2 -0.2,0.4 -0.2,0.6 l -2,4.7 0.9,-3.8 c 0.3,-1.1 0.2,-2.2 -0.3,-2.9 -0.4,-0.6 -0.9,-1 -1.7,-1.1 -0.8,-0.2 -1.7,0.1 -2.3,0.7 -0.7,0.7 -0.9,1.7 -1.1,2.6 0,0.2 -0.1,0.4 -0.1,0.6 l -6.5,30.4 -0.1,0.3 c 0,0 0,0 0,0 l -0.2,0.4 -12.3,29.7 c 0,0.1 -0.1,0.2 -0.1,0.3 0,0.1 -0.1,0.3 -0.1,0.4 -1.5,1.1 -2.7,3.1 -1.6,4.8 0.2,-0.3 0.2,-0.2 0.3,-0.1 z"
           id="XMLID_8_"
           inkscape:connector-curvature="0"
           style="fill:#000000;fill-opacity:0.50447795" />
        <path
           d="m 467.6,344.1 c 0.7,0.4 1.5,0.5 2.5,0.5 0.2,0 0.4,0 0.6,0 0.6,0 1.8,-0.2 2.8,-0.8 1,-0.6 1.5,-1.5 1.5,-2.6 -0.1,-2 -2.7,-6.6 -4.8,-6.6 0,0 -0.1,0 -0.1,0 -2.1,0.1 -4,5.4 -3.9,7.1 0,1 0.5,1.9 1.4,2.4 z"
           id="XMLID_7_"
           inkscape:connector-curvature="0"
           style="fill:#000000;fill-opacity:0.50447795" />
        <path
           d="m 465,353.8 c 0.9,0.7 2.2,1.3 3.2,1.3 0.3,0 0.5,0 0.7,-0.1 1.1,-0.5 1.4,-2.3 1.5,-3.8 0.1,-1.4 0,-3.3 -0.4,-4.2 -0.4,-1 -1.2,-1.5 -2.2,-1.7 -0.9,-0.1 -1.9,0.1 -3.1,0.6 -2.5,1.2 -3.5,3 -2.7,4.7 0.5,1.2 1.9,2.5 3,3.2 z"
           id="XMLID_6_"
           inkscape:connector-curvature="0"
           style="fill:#000000;fill-opacity:0.50447795" />
        <path
           d="m 461.2,365.8 c 0,0 0,0 0,0 2,0 6.9,-2.4 6.9,-4.5 0,-2.1 -5.1,-4.3 -6.9,-4.3 0,0 0,0 0,0 -0.9,0 -3.1,0.4 -3.1,4.4 0,2.7 1.2,4.4 3.1,4.4 z"
           id="XMLID_5_"
           inkscape:connector-curvature="0"
           style="fill:#000000;fill-opacity:0.50447795" />
        <path
           d="m 444.3,387 c -0.1,-0.4 -0.3,-0.8 -0.5,-1.2 -1.1,-2.6 -3.2,-4.5 -5.7,-5.6 -2.6,-1 -5.4,-1 -7.9,0.1 -5.1,2.3 -7.4,8.4 -5.1,13.7 0.2,0.4 0.4,0.8 0.6,1.2 0.1,0.2 0.4,0.3 0.6,0.3 0.1,0 0.1,0 0.2,0 6.1,-1.8 12,-4.4 17.4,-7.7 0.4,-0.2 0.5,-0.5 0.4,-0.8 z"
           id="XMLID_4_"
           inkscape:connector-curvature="0"
           style="fill:#000000;fill-opacity:0.50447795" />
        <path
           d="m 432,400.8 c 0.1,0.2 0.3,0.3 0.5,0.3 0.1,0 0.2,0 0.2,0 3.9,-1.3 7.7,-3 11.3,-5 0.3,-0.1 0.4,-0.4 0.4,-0.7 -0.1,-0.9 -0.1,-1.9 0.1,-2.8 0.2,-1 0.3,-2 0.3,-3 0,-0.2 -0.2,-0.5 -0.4,-0.6 -0.2,-0.1 -0.5,-0.1 -0.7,0 -5,3 -10.5,5.4 -16.1,7.1 -0.2,0.1 -0.4,0.3 -0.5,0.5 -0.1,0.2 0,0.5 0.2,0.7 0.7,0.7 1.5,1.3 2.4,1.8 0.9,0.4 1.7,1 2.3,1.7 z"
           id="XMLID_3_"
           inkscape:connector-curvature="0"
           style="fill:#000000;fill-opacity:0.50447795" />
      </g>
    </g>
  </g>
  <g
     inkscape:groupmode="layer"
     id="layer3"
     inkscape:label="Discover"
     style="display:none">
    <text
       xml:space="preserve"
       style="font-style:normal;font-variant:normal;font-weight:normal;font-stretch:normal;font-size:20.26743698px;line-height:125%;font-family:Museo;-inkscape-font-specification:'Museo, Normal';text-align:start;letter-spacing:0px;word-spacing:0px;writing-mode:lr-tb;text-anchor:start;fill:#ffffff;fill-opacity:1;stroke:none;stroke-width:0.50668812px;stroke-linecap:butt;stroke-linejoin:miter;stroke-opacity:1"
       x="173.85484"
       y="40.767208"
       id="text4147"
       sodipodi:linespacing="125%"><tspan
         sodipodi:role="line"
         id="tspan4164"
         x="173.85484"
         y="40.767208">DISCOVER:</tspan></text>
  </g>
  <g
     inkscape:label="Interview"
     id="g4209"
     inkscape:groupmode="layer"
     style="display:inline">
    <text
       sodipodi:linespacing="125%"
       id="text4211"
       y="50.769566"
       x="203.76604"
       style="font-style:normal;font-variant:normal;font-weight:normal;font-stretch:normal;font-size:16.55484772px;line-height:125%;font-family:Museo;-inkscape-font-specification:'Museo, Normal';text-align:start;letter-spacing:0px;word-spacing:0px;writing-mode:lr-tb;text-anchor:start;fill:#ffffff;fill-opacity:1;stroke:none;stroke-width:0.41387296px;stroke-linecap:butt;stroke-linejoin:miter;stroke-opacity:1"
       xml:space="preserve"><tspan
         id="tspan4213"
         sodipodi:role="line"
         x="203.76604"
         y="50.769566"
         style="stroke-width:0.41387296px">GEAR:</tspan></text>
  </g>
  <g
     inkscape:groupmode="layer"
     id="layer4"
     inkscape:label="Artist Name"
     style="display:inline">
    <text
       xml:space="preserve"
       style="font-style:normal;font-variant:normal;font-weight:600;font-stretch:normal;font-size:20.68652725px;line-height:100%;font-family:Museo;-inkscape-font-specification:'Museo, Semi-Bold';text-align:start;letter-spacing:0px;word-spacing:0px;writing-mode:lr-tb;text-anchor:start;fill:#ffffff;fill-opacity:1;stroke:none;stroke-width:0.51715869px;stroke-linecap:butt;stroke-linejoin:miter;stroke-opacity:1"
       x="204.37587"
       y="68.139427"
       id="text4158"
       sodipodi:linespacing="100%"><tspan
         sodipodi:role="line"
         x="204.37587"
         y="68.139427"
         style="font-style:normal;font-variant:normal;font-weight:600;font-stretch:normal;font-size:20.68652725px;line-height:100%;font-family:Museo;-inkscape-font-specification:'Museo, Semi-Bold';text-align:start;writing-mode:lr-tb;text-anchor:start;fill:#ffffff;fill-opacity:1;stroke-width:0.51715869px"
         id="tspan4365">Soundslice</tspan><tspan
         sodipodi:role="line"
         x="204.37587"
         y="88.825951"
         style="font-style:normal;font-variant:normal;font-weight:600;font-stretch:normal;font-size:20.68652725px;line-height:100%;font-family:Museo;-inkscape-font-specification:'Museo, Semi-Bold';text-align:start;writing-mode:lr-tb;text-anchor:start;fill:#ffffff;fill-opacity:1;stroke-width:0.51715869px"
         id="tspan4232">with Adrian</tspan><tspan
         sodipodi:role="line"
         x="204.37587"
         y="109.51248"
         style="font-style:normal;font-variant:normal;font-weight:600;font-stretch:normal;font-size:20.68652725px;line-height:100%;font-family:Museo;-inkscape-font-specification:'Museo, Semi-Bold';text-align:start;writing-mode:lr-tb;text-anchor:start;fill:#ffffff;fill-opacity:1;stroke-width:0.51715869px"
         id="tspan4234">Holovaty</tspan></text>
  </g>
  <g
     inkscape:groupmode="layer"
     id="layer21"
     inkscape:label="Artist Picture">
    <g
       id="g4346"
       transform="matrix(0.17197917,0,0,0.17197917,13.229167,8.7312491)">
      <g
         style="display:none"
         inkscape:label="BG"
         id="layer1-0">
        <rect
           inkscape:export-ydpi="96"
           inkscape:export-xdpi="96"
           y="0"
           x="0"
           height="1000"
           width="1000"
           id="rect4380"
           style="opacity:1;fill:#ffffff;fill-opacity:1;stroke:none;stroke-width:3;stroke-linecap:round;stroke-miterlimit:4;stroke-dasharray:none;stroke-opacity:1" />
      </g>
      <g
         inkscape:label="Logo"
         id="layer2-0">
        <polygon
           transform="matrix(34.119213,0,0,34.119213,-322.90423,-181.79022)"
           points="14.349,14.76 23.474,14.76 24.056,13.162 14.349,13.162 "
           id="polygon4303"
           style="fill:#eb684a" />
        <polygon
           transform="matrix(34.119213,0,0,34.119213,-322.90423,-181.79022)"
           points="38.773,13.162 29.16,13.162 28.578,14.76 38.773,14.76 "
           id="polygon4305"
           style="fill:#e9a353" />
        <polygon
           transform="matrix(34.119213,0,0,34.119213,-322.90423,-181.79022)"
           points="33.888,17.188 27.695,17.188 27.112,18.785 33.888,18.785 "
           id="polygon4307"
           style="fill:#e9a353" />
        <polygon
           transform="matrix(34.119213,0,0,34.119213,-322.90423,-181.79022)"
           points="9.464,18.785 22.009,18.785 22.59,17.188 9.464,17.188 "
           id="polygon4309"
           style="fill:#eb684a" />
        <polygon
           transform="matrix(34.119213,0,0,34.119213,-322.90423,-181.79022)"
           points="13.904,22.812 20.543,22.812 21.125,21.213 13.904,21.213 "
           id="polygon4311"
           style="fill:#eb684a" />
        <polygon
           transform="matrix(34.119213,0,0,34.119213,-322.90423,-181.79022)"
           points="38.773,21.213 26.229,21.213 25.648,22.812 38.773,22.812 "
           id="polygon4313"
           style="fill:#e9a353" />
        <polygon
           transform="matrix(34.119213,0,0,34.119213,-322.90423,-181.79022)"
           points="33.888,25.24 24.764,25.24 24.182,26.838 33.888,26.838 "
           id="polygon4315"
           style="fill:#e9a353" />
        <polygon
           transform="matrix(34.119213,0,0,34.119213,-322.90423,-181.79022)"
           points="9.464,26.838 19.078,26.838 19.66,25.24 9.464,25.24 "
           id="polygon4317"
           style="fill:#eb684a" />
        <path
           d="M 745.16361,26.371099 C 695.65664,8.3220348 638.77991,39.643472 618.1719,96.213128 l -62.26756,171.073732 -19.85738,54.5225 -30.16139,82.80733 -19.85738,54.52251 -30.16138,82.84145 -19.85739,54.55662 -30.12726,82.87557 -19.85738,54.5225 -55.47784,152.44464 c -10.09929,27.7048 -36.23461,44.79853 -57.08145,37.25818 -11.9076,-4.36726 -19.92562,-15.96779 -22.79163,-30.22962 12.7947,-3.13897 23.78109,-12.41939 28.62602,-25.72589 7.74506,-21.25627 -3.20721,-44.73029 -24.42936,-52.47535 -21.25627,-7.71094 -44.73029,3.30957 -52.44123,24.4976 -20.608,56.60377 2.8319,117.16538 52.40711,135.21444 49.50698,17.98082 106.38371,-13.27237 126.99171,-69.94439 l 62.26757,-171.03961 19.85738,-54.5225 30.16138,-82.87557 19.85739,-54.55662 30.16138,-82.84145 19.85738,-54.52251 30.09315,-82.80733 19.85738,-54.5225 55.47784,-152.41052 c 10.06517,-27.773042 36.23461,-44.832649 57.08144,-37.292303 11.87349,4.33314 19.89151,15.933673 22.75752,30.229623 -12.76059,3.13897 -23.78109,12.41939 -28.5919,25.72589 -7.74506,21.22215 3.17309,44.69617 24.42936,52.44123 21.25627,7.74506 44.73028,-3.24133 52.44123,-24.42936 20.64212,-56.63789 -2.8319,-117.165377 -52.373,-135.180321 z"
           id="path4319"
           inkscape:connector-curvature="0"
           style="fill:#43444e;stroke-width:34.1192131" />
      </g>
    </g>
  </g>
  <g
     inkscape:groupmode="layer"
     id="layer6"
     inkscape:label="WEIRD"
     style="display:none">
    <path
       style="opacity:1;fill:#ffffff;fill-opacity:1;stroke:none;stroke-width:17.2258606;stroke-miterlimit:4;stroke-dasharray:none;stroke-opacity:1"
       d="m 245.3457,602.625 0,70 250,0 0,-70 -250,0 z m 8.86133,10.875 3.87695,0 c 3.39947,0 5.09819,0.67987 5.91407,3.94336 l 7.41015,30.86719 c 0.61191,2.58359 0.95313,5.09961 0.95313,5.09961 l 0.13476,0 c 0,0 0.40837,-2.44803 1.15625,-5.09961 l 9.6543,-34.67578 6.11914,0 8.97461,34.67578 c 0.67989,2.65158 1.01953,5.09961 1.01953,5.09961 l 0.13672,0 c 0,0 0.27286,-2.51602 0.88477,-5.09961 l 7.54687,-30.86719 c 0.81587,-3.26349 2.44624,-3.94336 5.8457,-3.94336 l 3.875,0 0,5.8457 -1.01953,0 c -1.2238,0 -1.9706,0.27229 -2.31054,1.4961 l -10.53907,40.6582 -7.88672,0 -8.1582,-30.32227 c -0.81587,-3.12751 -1.35937,-6.5957 -1.35937,-6.5957 l -0.13672,0 c 0,0 -0.68059,3.46782 -1.56445,6.52735 L 276.0332,661.5 l -7.95508,0 -10.53906,-40.6582 c -0.33994,-1.22381 -1.08674,-1.4961 -2.31054,-1.4961 l -1.02149,0 0,-5.8457 z m 72.29297,0 28.2168,0 c 3.05952,0 4.34961,1.29204 4.34961,4.35156 l 0,6.05078 -6.18555,0 0,-3.06054 c 0,-1.01984 -0.54424,-1.4961 -1.49609,-1.4961 l -13.66602,0 0,15.02735 16.79297,0 0,5.8457 -16.79297,0 0,13.9375 c 0,0.95185 0.54424,1.49609 1.49609,1.49609 l 14.00586,0 c 0.95185,0 1.4961,-0.54424 1.4961,-1.49609 l 0,-3.05859 6.2539,0 0,6.05078 c 0,3.05952 -1.29204,4.35156 -4.35156,4.35156 l -21.34766,0 c -3.05952,0 -4.35156,-1.29204 -4.35156,-4.35156 l 0,-37.80274 -4.41992,0 0,-5.8457 z m 43.91406,0 15.8418,0 0,5.8457 -4.69141,0 0,36.30664 4.69141,0 0,5.84766 -15.8418,0 0,-5.84766 4.69141,0 0,-36.30664 -4.69141,0 0,-5.8457 z m 26.24024,0 20.9414,0 c 8.43068,0 14.34571,5.30359 14.34571,14.07422 0,8.02274 -5.2353,11.96501 -8.63477,12.71289 l 0,0.13672 c 0,0 1.22319,0.61202 2.03906,2.17578 l 5.7793,11.49023 c 0.67989,1.42778 1.76865,1.5625 3.40039,1.5625 l 0.88281,0 0,5.84766 -3.33008,0 c -3.73941,0 -5.1003,-0.47601 -6.66406,-3.60352 l -6.52734,-12.91796 c -1.22381,-2.24365 -2.10623,-2.58399 -4.75781,-2.58399 l -6.25586,0 0,19.10547 -6.79883,0 0,-42.1543 -4.41992,0 0,-5.8457 z m 47.0957,0 19.44531,0 c 14.61771,0 24.27149,8.77002 24.27149,23.93164 0,15.22961 -9.65378,24.06836 -24.27149,24.06836 l -10.67578,0 c -3.05952,0 -4.34961,-1.29204 -4.34961,-4.35156 l 0,-37.80274 -4.41992,0 0,-5.8457 z m -35.87695,5.8457 0,17.20313 8.83789,0 c 5.16719,0 8.22656,-3.33197 8.22656,-8.70313 0,-5.37115 -3.05863,-8.5 -8.08984,-8.5 l -8.97461,0 z m 47.0957,0 0,34.81055 c 0,0.95185 0.54424,1.49609 1.49609,1.49609 l 6.25391,0 c 10.67433,0 17.67773,-6.39055 17.67773,-18.2207 0,-11.76215 -7.07139,-18.08594 -17.67773,-18.08594 l -7.75,0 z"
       transform="scale(0.26458334)"
       id="rect4172"
       inkscape:connector-curvature="0" />
  </g>
  <g
     inkscape:groupmode="layer"
     id="layer7"
     inkscape:label="MAKE"
     style="display:none">
    <text
       xml:space="preserve"
       style="font-style:normal;font-variant:normal;font-weight:normal;font-stretch:normal;font-size:17.99166679px;line-height:100%;font-family:Museo;-inkscape-font-specification:'Museo, Normal';text-align:start;letter-spacing:0px;word-spacing:0px;writing-mode:lr-tb;text-anchor:start;fill:#ffffff;fill-opacity:1;stroke:none;stroke-width:0.26458335px;stroke-linecap:butt;stroke-linejoin:miter;stroke-opacity:1"
       x="10.690782"
       y="175.02188"
       id="text4175"
       sodipodi:linespacing="100%"><tspan
         sodipodi:role="line"
         id="tspan4177"
         x="10.690782"
         y="175.02188"
         style="font-style:normal;font-variant:normal;font-weight:normal;font-stretch:normal;font-size:17.99166679px;line-height:100%;font-family:Museo;-inkscape-font-specification:'Museo, Normal';text-align:start;letter-spacing:1.32291675px;writing-mode:lr-tb;text-anchor:start;fill:#ffffff;fill-opacity:1;stroke-width:0.26458335px">MAKE</tspan></text>
  </g>
  <g
     inkscape:groupmode="layer"
     id="layer8"
     inkscape:label="MUSIC"
     style="display:none">
    <text
       xml:space="preserve"
       style="font-style:normal;font-variant:normal;font-weight:normal;font-stretch:normal;font-size:17.99166679px;line-height:100%;font-family:Museo;-inkscape-font-specification:'Museo, Normal';text-align:start;letter-spacing:0px;word-spacing:0px;writing-mode:lr-tb;text-anchor:start;fill:#ffffff;fill-opacity:1;stroke:none;stroke-width:0.26458335px;stroke-linecap:butt;stroke-linejoin:miter;stroke-opacity:1"
       x="134.21758"
       y="174.80598"
       id="text4180"
       sodipodi:linespacing="100%"><tspan
         sodipodi:role="line"
         id="tspan4182"
         x="134.21758"
         y="174.80598"
         style="font-style:normal;font-variant:normal;font-weight:normal;font-stretch:normal;font-size:17.99166679px;line-height:100%;font-family:Museo;-inkscape-font-specification:'Museo, Normal';text-align:start;writing-mode:lr-tb;text-anchor:start;fill:#ffffff;fill-opacity:1;stroke-width:0.26458335px">MUSIC</tspan></text>
  </g>
</svg>
