<?xml version="1.0" encoding="UTF-8" standalone="no"?>
<!-- Created with Inkscape (http://www.inkscape.org/) -->

<svg
   xmlns:dc="http://purl.org/dc/elements/1.1/"
   xmlns:cc="http://creativecommons.org/ns#"
   xmlns:rdf="http://www.w3.org/1999/02/22-rdf-syntax-ns#"
   xmlns:svg="http://www.w3.org/2000/svg"
   xmlns="http://www.w3.org/2000/svg"
   xmlns:xlink="http://www.w3.org/1999/xlink"
   xmlns:sodipodi="http://sodipodi.sourceforge.net/DTD/sodipodi-0.dtd"
   xmlns:inkscape="http://www.inkscape.org/namespaces/inkscape"
   width="1280"
   height="720"
   viewBox="0 0 338.66666 190.50001"
   id="svg2"
   version="1.1"
   inkscape:version="0.91+devel r13925"
   sodipodi:docname="residents-video-thumbnail.svg">
  <defs
     id="defs4">
    <linearGradient
       id="linearGradient5627">
      <stop
         style="stop-color:#f80000;stop-opacity:1"
         id="stop5629"
         offset="0" />
      <stop
         style="stop-color:#e69595;stop-opacity:1"
         id="stop5631"
         offset="1" />
    </linearGradient>
    <linearGradient
       id="linearGradient5619">
      <stop
         style="stop-color:#000000;stop-opacity:1"
         id="stop5621"
         offset="0" />
      <stop
         style="stop-color:#000000;stop-opacity:0"
         id="stop5623"
         offset="1" />
    </linearGradient>
    <linearGradient
       id="linearGradient4846"
       inkscape:collect="always">
      <stop
         style="stop-color:#d1d1d1;stop-opacity:1"
         id="stop4848"
         offset="0" />
      <stop
         style="stop-color:#d1d1d1;stop-opacity:0"
         id="stop4850"
         offset="1" />
    </linearGradient>
    <linearGradient
       id="linearGradient4838">
      <stop
         style="stop-color:#606060;stop-opacity:1"
         id="stop4840"
         offset="0" />
      <stop
         style="stop-color:#ffffff;stop-opacity:1"
         id="stop4842"
         offset="1" />
    </linearGradient>
    <linearGradient
       id="linearGradient4776">
      <stop
         style="stop-color:#c9c9c9;stop-opacity:1"
         offset="0"
         id="stop4778" />
      <stop
         style="stop-color:#555555;stop-opacity:1"
         offset="1"
         id="stop4780" />
    </linearGradient>
    <linearGradient
       id="linearGradient4760">
      <stop
         style="stop-color:#000000;stop-opacity:1"
         offset="0"
         id="stop4762" />
      <stop
         style="stop-color:#555555;stop-opacity:1"
         id="stop4764"
         offset="0.52" />
      <stop
         style="stop-color:#000000;stop-opacity:1"
         offset="1"
         id="stop4766" />
    </linearGradient>
    <linearGradient
       id="linearGradient4744">
      <stop
         style="stop-color:#000000;stop-opacity:1"
         id="stop4746"
         offset="0" />
      <stop
         style="stop-color:#555555;stop-opacity:1"
         offset="0.65"
         id="stop4748" />
      <stop
         style="stop-color:#000000;stop-opacity:1"
         id="stop4750"
         offset="1" />
    </linearGradient>
    <linearGradient
       id="linearGradient4728">
      <stop
         style="stop-color:#000000;stop-opacity:1"
         offset="0"
         id="stop4730" />
      <stop
         style="stop-color:#555555;stop-opacity:1"
         id="stop4732"
         offset="0.72" />
      <stop
         style="stop-color:#000000;stop-opacity:1"
         offset="1"
         id="stop4734" />
    </linearGradient>
    <linearGradient
       id="linearGradient4708">
      <stop
         style="stop-color:#000000;stop-opacity:1"
         id="stop4710"
         offset="0" />
      <stop
         style="stop-color:#555555;stop-opacity:1"
         offset="0.5"
         id="stop4718" />
      <stop
         style="stop-color:#000000;stop-opacity:1"
         id="stop4712"
         offset="1" />
    </linearGradient>
    <linearGradient
       id="linearGradient4679">
      <stop
         style="stop-color:#000000;stop-opacity:1"
         id="stop4681"
         offset="0" />
      <stop
         style="stop-color:#555555;stop-opacity:1"
         id="stop4683"
         offset="1" />
    </linearGradient>
    <linearGradient
       gradientUnits="userSpaceOnUse"
       y2="828.25"
       x2="231"
       y1="849.75"
       x1="430.5"
       id="linearGradient4685"
       xlink:href="#linearGradient4679"
       inkscape:collect="always" />
    <linearGradient
       gradientUnits="userSpaceOnUse"
       y2="807"
       x2="751.5"
       y1="893.5"
       x1="569.5"
       id="linearGradient4687"
       xlink:href="#linearGradient4679"
       inkscape:collect="always" />
    <linearGradient
       gradientUnits="userSpaceOnUse"
       y2="195.33"
       x2="630.42"
       y1="260.38"
       x1="298.55"
       id="linearGradient4716"
       xlink:href="#linearGradient4708"
       inkscape:collect="always" />
    <linearGradient
       gradientUnits="userSpaceOnUse"
       y2="298.9"
       x2="632.87"
       y1="348.4"
       x1="347.7"
       id="linearGradient4726"
       xlink:href="#linearGradient4728"
       inkscape:collect="always" />
    <linearGradient
       gradientTransform="translate(-1,52.362183)"
       gradientUnits="userSpaceOnUse"
       y2="18.08"
       x2="469.83"
       y1="119.9"
       x1="498.64"
       id="linearGradient4742"
       xlink:href="#linearGradient4744"
       inkscape:collect="always" />
    <linearGradient
       gradientUnits="userSpaceOnUse"
       y2="224.82"
       x2="462.96"
       y1="383.21"
       x1="496.34"
       id="linearGradient4758"
       xlink:href="#linearGradient4760"
       inkscape:collect="always" />
    <linearGradient
       gradientUnits="userSpaceOnUse"
       y2="684.34"
       x2="525.11"
       y1="970.02"
       x1="510.85"
       id="linearGradient4774"
       xlink:href="#linearGradient4776"
       inkscape:collect="always" />
    <radialGradient
       gradientUnits="userSpaceOnUse"
       gradientTransform="matrix(1.2593254,0.06018201,-0.05959167,1.2469723,-100.53836,-165.12178)"
       r="136.32"
       fy="543.67"
       fx="512.62"
       cy="543.67"
       cx="512.62"
       id="radialGradient4852"
       xlink:href="#linearGradient4846"
       inkscape:collect="always" />
    <linearGradient
       gradientUnits="userSpaceOnUse"
       y2="514.92"
       x2="488.4"
       y1="307.04"
       x1="497.3"
       id="linearGradient5615"
       xlink:href="#linearGradient4838"
       inkscape:collect="always" />
  </defs>
  <sodipodi:namedview
     id="base"
     pagecolor="#ffffff"
     bordercolor="#666666"
     borderopacity="1.0"
     inkscape:pageopacity="0.0"
     inkscape:pageshadow="2"
     inkscape:zoom="0.98994949"
     inkscape:cx="649.15928"
     inkscape:cy="317.56339"
     inkscape:document-units="px"
     inkscape:current-layer="layer3"
     showgrid="false"
     units="px"
     inkscape:window-width="1920"
     inkscape:window-height="1152"
     inkscape:window-x="0"
     inkscape:window-y="0"
     inkscape:window-maximized="1" />
  <metadata
     id="metadata7">
    <rdf:RDF>
      <cc:Work
         rdf:about="">
        <dc:format>image/svg+xml</dc:format>
        <dc:type
           rdf:resource="http://purl.org/dc/dcmitype/StillImage" />
        <dc:title></dc:title>
      </cc:Work>
    </rdf:RDF>
  </metadata>
  <g
     inkscape:label="Gray BG"
     inkscape:groupmode="layer"
     id="layer1"
     transform="translate(0,-106.49999)">
    <rect
       style="opacity:1;fill:#596268;fill-opacity:1;stroke:none;stroke-width:16.0535984;stroke-miterlimit:4;stroke-dasharray:none;stroke-opacity:1"
       id="rect4141"
       width="338.66669"
       height="190.5"
       x="1.4210855e-14"
       y="106.49999" />
  </g>
  <g
     inkscape:groupmode="layer"
     id="layer5"
     inkscape:label="Residents">
    <g
       id="g5552"
       transform="matrix(0.14857013,0,0,0.14857013,-2.5610528,-1.9492328)">
      <g
         display="inline"
         inkscape:label="BG"
         id="layer15"
         style="display:inline" />
      <g
         display="inline"
         inkscape:label="Shirt"
         id="layer27"
         style="display:inline">
        <path
           inkscape:connector-curvature="0"
           id="path4695"
           d="m 426,717 24,284 100,0 63.5,-283 z"
           style="fill:url(#linearGradient4774)" />
      </g>
      <g
         display="inline"
         inkscape:label="Vest"
         id="layer26"
         style="display:inline">
        <path
           inkscape:connector-curvature="0"
           id="path4690"
           d="m 423.5,720 48.5,281 -68,0 -14.5,-254.5 z"
           style="fill:#ececec" />
        <path
           inkscape:connector-curvature="0"
           id="path4692"
           d="m 609,727.5 -81.5,273.5 62.5,0 31,-266 z"
           style="fill:#ececec" />
      </g>
      <g
         inkscape:label="Shoulders"
         id="layer25">
        <path
           style="fill:#000000;stroke:#000000"
           inkscape:connector-curvature="0"
           id="path4675"
           d="m 676,761 c 0,0 42,29 48,29 6,0 48,21.5 59.5,25 11.5,3.5 37,13 37,13 l 23.5,173 -182.5,0 z" />
        <path
           style="fill:#000000;stroke:#000000"
           inkscape:connector-curvature="0"
           id="path4677"
           d="m 307.5,767.5 c 0,0 -57.5,22 -63.5,23.5 -6,1.5 -43.5,8 -43.5,8 0,0 -36,114 -37,142.5 -1,28.5 -8.5,59.5 -8.5,59.5 l 161.5,0 z" />
      </g>
      <g
         display="inline"
         inkscape:label="Lapels"
         id="layer24"
         style="display:inline">
        <path
           inkscape:connector-curvature="0"
           id="path4670"
           d="m 421.5,722.5 -15.5,10 -46.5,8.5 -55,26 -43,61 16,8.5 L 227,827 c 0,0 24,85.5 34,107.5 10,22 34.5,66.5 34.5,66.5 l 135,0 c 0,0 -16.5,-94.5 -19,-131.5 -2.5,-37 -4.5,-113.5 0.5,-127 5,-13.5 9.5,-20 9.5,-20 z"
           style="fill:url(#linearGradient4685)" />
        <path
           inkscape:connector-curvature="0"
           id="path4672"
           d="m 624,720 -2,13 75.5,39 -7,24 11.5,-11 26.5,29 26,-3.5 c 0,0 -28.5,102 -39.5,121 -11,19 -37,69.5 -37,69.5 l -117.5,0 c 0,0 11,-55.5 16.5,-83 5.5,-27.5 37,-167 37,-173.5 0,-6.5 -4,-21 -4,-21 z"
           style="fill:url(#linearGradient4687)" />
      </g>
      <g
         inkscape:label="Bowtie"
         id="layer28">
        <path
           style="fill:#ffffff;stroke:#d1d1d1"
           inkscape:connector-curvature="0"
           id="path4698"
           d="m 503.5,769.5 c 0,0 -18.5,-12 -24.5,-12 -6,0 -50,3 -50,3 0,0 -2.5,47.5 2,61.5 4.5,14 16,35 19,44 3,9 3.5,21.5 3.5,21.5 0,0 14.5,-16.5 23,-21.5 8.5,-5 18,-22.5 22,-31 4,-8.5 11,-27 11,-27 0,0 -6,-11.5 -6,-16.5 0,-5 -2,-19.5 0,-22 z" />
        <path
           style="fill:#ffffff;stroke:#d1d1d1"
           inkscape:connector-curvature="0"
           id="path4700"
           d="m 503,769 c 0,0 13,-3.5 18.5,-2 5.5,1.5 18.5,4.5 18.5,4.5 0,0 3.5,11 1,18 -2.5,7 -10,22 -10,22 0,0 -6.5,-1.5 -10.5,-2 -4,-0.5 -11.5,-0.5 -11.5,-0.5 0,0 -7,-14 -7,-23 0,-9 1,-17 1,-17 z" />
        <path
           style="fill:#ffffff;stroke:#d1d1d1"
           inkscape:connector-curvature="0"
           id="path4702"
           d="m 539.88,772.31 c 0,0 9.19,-4.6 15.2,-4.95 6.01,-0.35 26.52,5.3 32.53,6.36 6.01,1.06 28.99,6.36 28.99,6.36 0,0 -4.95,29.34 -9.9,37.83 -4.95,8.49 -25.46,36.06 -27.58,41.72 -2.12,5.66 -14.85,27.58 -14.85,27.58 0,0 -18.03,-10.25 -20.51,-21.21 -2.47,-10.96 -1.41,-25.81 -4.95,-32.53 -3.54,-6.72 -8.84,-23.69 -8.84,-23.69 0,0 9.9,-16.26 10.96,-22.27 1.06,-6.01 -1.06,-15.2 -1.06,-15.2 z" />
        <path
           style="fill:#a5a5a5;fill-opacity:0.6"
           inkscape:connector-curvature="0"
           id="path4704"
           d="m 541.29,787.16 c 0,0 10.96,-2.12 12.73,0 1.77,2.12 6.01,9.9 7.78,10.96 1.77,1.06 -8.49,-4.95 -10.96,-4.95 -2.47,0 -9.55,-6.01 -9.55,-6.01 z" />
        <path
           style="fill:#a5a5a5;fill-opacity:0.6"
           inkscape:connector-curvature="0"
           id="path4706"
           d="m 501.34,787.87 c 0,0 -14.5,-0.71 -18.38,0.35 -3.89,1.06 -13.08,3.89 -13.08,3.89 0,0 13.08,0.35 17.68,-0.35 4.6,-0.71 13.79,-3.89 13.79,-3.89 z" />
      </g>
      <g
         display="inline"
         inkscape:label="Eyeball"
         id="layer19"
         style="display:inline">
        <ellipse
           style="fill:url(#linearGradient5615);fill-rule:evenodd;stroke:#000000"
           transform="translate(4,-17)"
           id="path5097"
           cx="514.77002"
           cy="536.14001"
           rx="224.86"
           ry="229.10001" />
        <path
           style="fill:#db3737;stroke:#b32929"
           sodipodi:nodetypes="csssssscssssscssscsscsc"
           inkscape:connector-curvature="0"
           id="path5635"
           d="m 732.92,446.34 c 0,0 -2.47,-6.36 -7.78,-1.41 -5.3,4.95 -18.03,30.41 -23.33,30.76 -5.3,0.35 -21.92,-20.15 -27.22,-21.21 -5.3,-1.06 -9.55,3.54 -11.67,0.71 -2.12,-2.83 -4.24,-25.81 -7.42,-29.34 -3.18,-3.54 -16.26,-11.67 -19.45,-9.9 -3.18,1.77 -1.06,16.26 -1.06,16.26 0,0 0,-9.19 2.83,-9.9 2.83,-0.71 12.37,4.6 14.14,8.84 1.77,4.24 4.6,25.1 9.19,28.64 4.6,3.54 8.49,-2.47 12.37,0 3.89,2.47 17.28,17.62 22.98,19.8 5.78,2.21 7.76,0.39 7.85,-0.08 0,0 10.33,18.68 8.56,25.4 -1.77,6.72 -6.14,19.83 -18.7,20.73 -7.77,0.56 -16.8,-6.11 -20.34,-9.99 -3.54,-3.89 -5,-6.89 -5,-6.89 0,0 3.94,20.68 24.1,21.39 20.15,0.71 24.04,-23.69 24.04,-28.99 0,-5.3 -9.55,-24.04 -9.55,-24.04 0,0 18.74,-27.93 21.92,-27.58 3.18,0.35 3.54,-3.18 3.54,-3.18 z" />
        <path
           style="fill:#db3737;stroke:#b32929"
           sodipodi:nodetypes="csssssscssssssc"
           inkscape:connector-curvature="0"
           id="path5637"
           d="m 732.93,590.96 c 1.01,0 5.28,-14.46 -4.15,-16.35 -9.43,-1.89 -10.31,18.74 -13.71,16.85 -3.4,-1.89 8.93,-14.84 -0.88,-18.24 -9.81,-3.4 -18.99,15.22 -19.5,12.96 -0.5,-2.26 11.19,-19.87 7.8,-23.02 -3.4,-3.14 -10.57,0.5 -17.36,-0.38 -6.79,-0.88 -17.86,-10.69 -17.86,-10.69 0,0 6.79,14.46 15.47,15.6 8.68,1.13 14.21,-4.91 15.09,-2.01 0.88,2.89 -14.21,20 -5.41,24.9 8.8,4.91 15.47,-18.36 19.75,-12.45 4.28,5.91 -10.19,11.57 0,17.61 10.19,6.04 13.21,-17.36 14.97,-16.23 1.76,1.13 5.91,1.51 5.79,11.45 z" />
      </g>
      <g
         inkscape:label="Iris"
         id="layer21">
        <path
           style="fill:#235814;stroke:#183b0d;stroke-width:4;stroke-miterlimit:4"
           inkscape:connector-curvature="0"
           id="path4657"
           d="m 514.29,397.14 c 61.43,-5 136.43,47.86 144.29,114.29 C 666.43,577.86 630,672.14 535,681.43 440,690.71 377.14,607.14 377.14,540 377.14,472.86 430,397.14 514.29,397.14 Z" />
      </g>
      <g
         inkscape:label="Iris detail"
         id="layer29">
        <path
           style="opacity:0.47000002;fill:none;stroke:url(#radialGradient4852);stroke-miterlimit:4"
           transform="translate(6,-6)"
           inkscape:transform-center-y="-0.02"
           d="m 514.837,539.21601 80.70461,-99.25121 -77.83495,98.04553 81.94697,-95.36913 -82.31916,96.36916 79.84716,-97.13389 -80.51551,96.38259 85.43529,-92.65167 -86.67822,93.37242 87.97502,-96.24383 -84.43018,97.37852 84.50342,-95.20342 -86.6228,94.58669 92.56172,-91.28848 -90.17697,90.85481 88.52123,-89.26632 -88.26535,93.1862 88.56873,-88.93354 -92.42855,87.16222 96.01688,-85.55951 -94.79422,86.54902 95.7145,-88.83666 -94.78807,88.66898 99.52679,-84.49033 -97.04786,80.84775 96.17159,-77.79231 -96.40566,80.23519 95.51626,-81.5442 -96.32532,78.90213 L 620.02106,464.55499 517.82505,542.52103 621.4538,464.3872 516.13924,539.13528 624.80913,464.95514 518.95719,540.11155 622.78665,469.97843 516.11069,539.33606 624.16872,473.22751 520.17896,539.39535 625.517,474.47603 516.17707,540.50499 628.94816,474.35835 517.24659,539.2684 630.95924,475.40578 517.4518,542.39368 631.81175,481.46932 519.1982,540.52189 633.53269,481.6505 l -115.00093,60.52748 115.64525,-60.30031 -114.77037,58.14802 116.08157,-52.30578 -118.204,52.44148 118.34921,-50.38947 -118.62991,50.12185 119.73608,-51.43951 -117.65156,53.59047 119.13949,-47.72423 -120.29757,50.297 116.79328,-49.63603 -115.86432,48.89784 121.26144,-49.48973 -123.87,46.23188 121.95168,-41.08361 -122.18955,40.70794 122.77324,-41.53459 -120.8802,42.04432 123.71033,-39.16861 -122.98209,41.22905 124.57082,-35.95273 -126.55051,38.00491 125.27796,-38.83637 -125.41624,38.70181 127.18474,-36.5244 -122.54114,36.93342 121.59917,-31.37301 -123.19365,29.71725 124.85146,-29.53453 -123.7858,28.46476 122.53163,-26.51525 -125.28189,26.7433 126.77839,-20.68072 -124.45748,23.3355 123.09128,-25.76271 -127.00846,26.35259 128.10309,-22.96668 -127.22745,19.06501 130.78271,-15.8291 -130.49329,17.2444 130.51807,-15.18675 -130.89776,14.96299 128.09774,-12.06329 -128.96973,14.30387 131.34146,-12.27289 -127.42055,10.61617 126.8843,-5.1534 -129.20708,5.74145 128.17394,-5.14847 -125.42003,3.25871 123.60609,1.18578 -124.38432,-0.35849 128.0309,-1.93104 -126.72233,3.62591 126.78795,-0.41028 -131.4336,2.05384 131.39084,-0.0374 -131.24917,-3.27471 130.70895,7.5873 -128.43639,-4.64668 130.07192,7.99421 -131.09169,-11.07598 127.15115,13.23337 -129.04105,-13.60691 129.98215,13.02318 -129.45169,-9.44009 127.39576,15.61534 -125.07897,-15.16442 127.98773,14.817 L 517.85996,546.51773 644.10643,563.696 519.31029,544.772 644.19359,565.56529 516.93374,543.39592 646.21111,569.98468 517.21713,546.18991 643.18764,570.40121 519.3421,547.3906 642.37869,575.38026 518.7536,547.52395 643.94655,578.04808 519.42239,546.01287 640.61165,577.4603 517.38871,543.76746 l 122.63213,35.58299 -122.83533,-35.57566 124.75973,41.86423 -125.53787,-40.38691 122.71137,42.17391 -118.70772,-41.93721 119.47622,45.26457 -123.8323,-42.27762 121.47692,42.77839 -118.34508,-45.79716 116.27892,45.50986 -119.3795,-45.35717 121.02055,49.15199 -119.04982,-47.16801 115.4172,50.21108 -114.02148,-53.31405 116.71404,56.61157 -116.19375,-52.10264 111.48029,52.57327 -111.2455,-55.4473 112.85779,55.5766 -115.04697,-52.26708 112.25477,57.29171 -113.1811,-61.72004 114.4995,62.74023 -115.7224,-59.96944 112.71982,61.50921 -108.86015,-60.75349 110.35205,62.09184 -110.60308,-64.76416 107.97558,71.22594 -110.36091,-69.41643 108.98234,69.67061 -106.8639,-70.05798 105.19179,69.6961 -109.02185,-71.45517 109.97899,74.38581 -108.44803,-71.24188 102.65396,74.29555 -101.98724,-73.94294 103.01254,74.79727 -102.6367,-77.51802 98.953,79.62362 -101.81945,-77.74521 99.97111,80.86023 -100.18258,-80.04989 101.32235,79.2998 -97.31933,-78.39055 93.08965,81.29946 -94.45612,-81.58038 95.5878,86.49522 -94.82829,-86.35632 94.16571,86.26662 -96.11376,-87.9209 93.3622,88.24318 -95.89024,-89.4863 94.80276,89.47102 -89.83701,-86.7095 85.77785,90.51827 -88.88748,-88.95562 86.36502,92.37858 -84.97605,-93.47687 83.60755,91.52037 -85.17122,-90.91005 82.58994,95.47645 -81.49283,-95.47069 81.2242,93.83128 -83.36906,-94.59462 81.30454,99.42603 -81.07811,-99.09238 78.96029,100.07261 L 517.29875,548.1336 591.11266,653.33551 516.94407,546.49911 589.35159,651.78433 513.3478,551.24655 586.44845,651.89459 518.06962,550.71588 586.44543,658.38503 513.89787,547.99644 584.1708,656.30219 512.67092,551.45986 582.50788,659.30493 513.28085,551.67638 578.95771,656.94357 516.84661,547.67283 579.17843,663.02573 517.16526,548.39865 575.13523,660.9919 516.90432,548.94097 576.53324,663.87031 514.52069,547.74085 572.87305,662.31378 513.96858,548.19802 571.72168,663.82259 516.3671,550.52807 566.89317,666.21793 515.52955,551.95815 566.99154,669.20887 514.68575,551.73392 564.57163,666.29803 516.50864,550.17984 561.71746,669.21953 515.0903,549.04515 560.96688,671.13958 513.95509,548.13942 554.18772,671.68582 515.19739,549.38851 555.91298,673.11671 513.48233,552.47655 551.07558,674.05962 511.77209,548.28093 550.04323,672.15776 513.01278,551.3261 545.52239,672.78361 511.01227,548.23388 544.73057,673.61927 514.08442,551.7456 544.78288,674.63186 511.79369,549.16239 537.886,677.21896 512.74316,549.14652 538.82929,676.29108 510.45175,549.54997 537.15594,673.99265 513.23856,551.05872 533.1561,678.16919 510.9465,548.48646 l 21.55246,127.63525 -20.604,-126.45145 18.2005,129.2773 -15.12498,-128.86291 11.78257,128.43968 -14.36458,-126.32563 11.18249,125.04931 -10.52389,-129.9152 9.13356,131.85285 -11.4264,-129.64248 6.21522,126.37119 -3.1401,-125.35149 0.30075,128.4663 -2.59366,-128.63728 1.87642,126.85543 0.16172,-125.79382 -2.49373,126.17293 0.49572,-126.3782 -1.79453,128.56339 -0.20892,-130.42305 -2.6305,130.37438 3.57861,-130.36125 -3.71949,130.50192 7.3737,-132.2652 -14.13233,132.05539 12.13479,-132.24963 -10.52507,129.07764 12.3419,-125.20342 -16.78033,128.08643 15.07265,-128.18426 -16.9729,124.2841 15.54946,-128.33224 -17.08055,127.20835 19.18756,-125.02268 -23.4796,124.77638 L 511.84277,551.23816 486.94408,677.93825 510.99917,548.57356 487.29493,673.1728 508.32356,552.01216 484.89249,673.92833 513.14376,549.90781 483.26779,672.71417 512.8803,548.62685 477.60919,672.80486 510.78502,548.67548 477.00195,672.39162 510.81747,547.36047 475.09151,674.9732 509.00727,547.63636 471.67204,673.69776 509.90917,551.96771 469.8139,671.06133 510.52233,547.26289 464.28222,668.53868 509.58224,551.40032 466.05904,668.59055 511.06495,551.74758 463.411,670.20341 510.71053,547.59281 462.18779,670.07607 507.40561,551.10891 458.16786,669.00749 507.34224,547.64534 457.24343,664.45191 510.27511,550.84565 454.33665,664.8497 511.08168,547.66069 448.92467,661.41688 511.88905,548.05901 447.47861,663.11982 510.32484,550.34764 448.13825,660.78705 506.92371,548.13436 446.6018,658.31968 511.30829,548.22409 441.29825,658.57119 508.488,549.17995 l -65.81839,105.83573 68.36704,-106.66449 -69.89303,109.67679 64.99172,-110.9111 -66.95914,107.66861 70.66757,-105.74075 -72.95739,102.23297 71.58849,-103.1969 -74.06761,101.4932 73.27861,-98.69194 -76.74359,97.84475 78.66732,-101.1293 -78.04264,99.24261 77.83485,-98.63989 -81.94696,100.73713 82.31916,-101.73717 -85.21508,97.72826 86.16737,-94.36865 -85.72467,95.542 81.60513,-95.79902 -82.8964,93.76616 86.84682,-94.47959 -91.71482,91.4281 88.75006,-94.16543 -89.89431,91.14924 92.59379,-92.13513 -92.03386,92.60641 89.94001,-89.69626 -94.52102,88.88247 92.42855,-92.53022 -90.64879,91.52189 94.79965,-86.67966 -98.67137,80.53585 98.0288,-83.72223 -99.81617,82.01265 99.75941,-80.37542 -101.82905,80.08828 102.05769,-82.40052 -101.17373,78.47216 96.33075,-79.03276 -97.85527,82.06916 102.19593,-78.56041 -103.33936,75.24351 99.94656,-80.11608 -101.17455,75.19576 103.43521,-73.2817 -106.78073,73.62642 104.5487,-75.14689 -104.06979,70.928 L 509.34073,544.47678 398.63469,614.7641 505.5635,546.29995 398.4497,614.32988 504.77792,544.77684 396.4331,612.81872 504.57815,546.88892 395.87567,610.88533 507.90484,545.81931 396.2819,605.16303 508.86611,546.51025 392.93156,604.92726 504.75057,544.31018 391.62027,603.85865 504.45075,545.58544 391.46961,601.93728 507.1537,544.44209 390.65292,595.59099 508.02054,544.7602 389.17051,595.55647 506.51112,547.1003 389.4339,594.12802 508.24965,542.92562 389.39933,589.48255 505.7796,543.29314 383.82792,589.74475 505.72264,546.68979 385.36596,585.16094 504.41382,545.63676 386.81898,584.67808 505.52345,546.88791 382.81353,581.27646 505.08105,547.43544 382.22518,578.3041 505.22477,547.43935 380.4566,575.53232 l 125.78196,-31.39231 -121.89408,33.7996 120.24229,-32.18632 -124.55663,26.51357 126.73172,-25.86505 -125.77237,21.5685 128.23876,-23.81049 -126.784,24.99061 124.75248,-25.16773 -128.17542,22.40866 126.42969,-20.57193 -127.52432,17.18601 126.6542,-18.18862 -124.83603,14.82208 124.63493,-14.78003 -124.949,16.20708 125.23485,-17.9044 -127.80827,15.13533 128.68026,-12.00791 -125.67855,9.8463 127.42063,-10.0218 -126.88438,4.55903 128.91769,-8.21913 -133.25264,7.03177 130.78268,-7.9017 -129.26356,6.47819 127.09035,-5.00092 -125.07402,-0.50415 126.43286,-1.32996 -126.7934,0.54092 126.07104,3.18353 -126.02266,-4.14191 125.87555,2.21661 -125.05155,-5.10963 125.49056,2.64134 -127.40996,-8.00281 126.01308,8.18566 -127.44606,-10.80678 129.04097,13.01254 -124.3246,-14.72476 124.37851,11.78712 -127.97462,-10.42906 130.44706,10.3908 -127.98772,-14.817 125.95676,16.97486 -128.66303,-19.48283 130.45904,21.8654 -124.88881,-26.62501 124.02463,23.05436 -123.61999,-24.1111 120.91434,22.72807 -125.67551,-26.04352 125.9728,28.79986 -125.16938,-28.87465 129.28792,30.20334 -125.77173,-30.11147 124.51873,26.79786 -126.55182,-31.57808 123.51241,31.39689 -122.92704,-33.15639 122.83525,34.98128 -118.05994,-36.57244 118.84368,36.15322 -118.43374,-40.24478 122.20922,42.44328 -121.89287,-42.7955 118.46983,42.74136 -116.11436,-48.01576 118.63981,47.54982 -121.94174,-47.85689 119.67432,47.70421 -115.3686,-51.91168 118.76587,49.9277 -120.78511,-49.61671 121.51666,47.77293 -118.84122,-51.07046 118.31549,52.06017 -119.25951,-55.60284 119.03033,54.16698 -115.28005,-54.16563 115.62583,57.81679 -118.1961,-62.37769 118.54909,61.72004 -114.21011,-60.26257 110.05949,57.02804 -107.35182,-61.50921 109.44445,60.80457 -110.93082,-61.67918 113.01972,62.29508 -110.10284,-66.2792 107.40395,65.88927 -106.32029,-69.08485 109.28607,73.42064 -108.41486,-73.42559 104.46027,72.28573 -102.19995,-72.54498 106.03147,68.93732 -107.43766,-74.24447 106.77094,73.89186 -103.00701,-74.33354 102.63669,77.51803 -104.03713,-77.60968 104.24162,75.73986 -102.67723,-81.46319 100.75591,79.76787 -99.19518,-79.47291 99.98139,84.34432 -97.87336,-86.61639 99.23983,86.8973 -95.5878,-86.49522 97.25047,84.35099 -96.58236,-89.16555 96.11375,87.9209 -94.16328,-89.79876 91.61271,88.15154 -89.44028,-89.93474 92.25918,90.07215 -91.44076,-88.09167 87.05513,91.47576 -84.23777,-97.32532 87.63802,93.46827 -88.97555,-91.52037 90.53922,96.27805 -87.95802,-101.43882 87.15029,98.54273 -86.30281,-96.72161 85.20694,97.90621 -78.35879,-98.01506 75.71571,94.78249 L 430.82411,436.00652 507.14794,539.2743 434.9,434.93482 510.15897,539.8421 432.67283,437.03454 l 78.13114,101.55341 -75.228,-107.03166 73.74683,106.5467 -68.65966,-104.31508 69.5962,102.55151 -72.40011,-108.13263 71.78927,112.68799 -65.05334,-113.85851 64.1485,110.70059 -65.96633,-108.33922 67.77393,111.61777 -62.62665,-112.33193 62.59747,109.31015 -59.64464,-110.7152 61.73793,113.02073 L 450.5698,422.47089 512.58787,539.06409 451.57355,424.49975 513.13999,538.60691 455.96013,422.10596 510.73594,535.81313 455.13678,423.06467 511.57901,540.21478 460.40089,419.61 512.70668,537.08496 463.11018,419.63051 510.59984,536.03072 464.2952,419.05079 512.01827,537.75978 466.43107,418.14302 513.43733,540.67946 467.84223,417.59679 511.91117,537.41642 468.23863,415.52905 513.62079,539.82703 470.66499,418.11331 510.25234,540.53795 477.06542,415.24154 509.30655,540.43417 476.79151,413.7393 511.30707,538.15839 481.577,412.22446 513.01862,539.9636 482.32569,412.17308 l 28.94202,125.06015 -27.41867,-122.74299 29.70984,121.74324 -28.23096,-122.8207 25.15991,122.88098 -23.48656,-125.95054 25.77836,127.33212 -21.78404,-126.60439 21.12474,126.70758 -17.22134,-124.61763 19.51354,122.4182 -18.2005,-123.9093 15.41436,125.97258 -11.27097,-124.58815 10.32295,126.38006 -10.0922,-127.57281 12.38495,124.17177 -8.04871,-123.50971 10.34155,126.66734 -8.0762,-130.76939 4.99565,129.88033 -4.57303,-131.12044 3.91449,128.22797 -0.49113,-125.84314 2.78411,127.79915 -2.57936,-128.59952 4.58289,129.26852 1.49962,-126.13678 -2.73691,128.4177 5.87116,-131.39 -9.24135,128.60858 9.08748,-125.13392 -7.0844,123.41251 8.76434,-126.68739 -7.05065,130.23569 L 527.8723,412.58766 513.68708,539.97814 530.18355,409.87777 514.82151,535.58435 532.07836,408.54057 516.24487,539.03812 533.32542,411.82978 514.42181,539.46077 532.53893,409.78011 515.2658,535.56677 534.79649,414.23468 516.10387,537.76764 539.80819,413.76278 513.7063,536.67608 542.21046,411.8185 514.25419,539.37479 543.03425,412.66583 516.63938,540.61328 544.71014,413.58742 516.61293,540.60712 550.10653,413.81895 516.29101,538.85009 552.30643,414.30941 512.72777,538.70484 555.72039,415.12111 517.48878,537.3149 557.57852,417.75754 513.63488,537.07297 559.87491,415.20281 517.5208,540.30888 559.95907,419.54913 513.08674,537.49255 560.74621,419.50045 516.6819,541.22607 564.91525,421.63313 516.7516,538.59496 565.98935,420.69637 514.39824,538.56523 566.91379,419.88395 514.17148,541.33589 572.76639,421.4915 l -56.45003,115.35678 56.49953,-111.46022 -57.59637,113.35786 59.33174,-113.1775 -57.76754,110.88887 62.18659,-110.43941 -63.86407,115.13036 65.39509,-112.53234 -62.28432,108.09025 62.51461,-106.5891 -62.11097,108.1023 65.81278,-106.89383 -68.36161,106.53385 72.30977,-106.18349 -70.35972,105.5431 70.19435,-103.18559 -70.95151,103.13244 72.95195,-102.10234 -71.58849,103.1969 75.39941,-101.56941 -79.68903,101.24582 81.82221,-100.32242 z"
           inkscape:randomized="0.02"
           inkscape:rounded="0"
           inkscape:flatsided="false"
           sodipodi:arg2="-0.9"
           sodipodi:arg1="-0.79"
           sodipodi:r2="134.2"
           sodipodi:r1="6"
           sodipodi:cy="543.91998"
           sodipodi:cx="512.65002"
           sodipodi:sides="350"
           id="path4828"
           sodipodi:type="star" />
      </g>
      <g
         inkscape:label="Pupil"
         id="layer22">
        <path
           inkscape:connector-curvature="0"
           id="path4660"
           d="m 514.29,468.57 c 51.43,0 77.86,40 77.86,70.71 0,30.71 -19.29,75 -68.57,77.86 -49.29,2.86 -75.71,-30 -77.86,-69.29 -2.14,-39.29 31.43,-77.14 68.57,-79.29 z"
           style="fill:#000000" />
      </g>
      <g
         inkscape:label="Reflections"
         id="layer23">
        <path
           style="fill:#d3d3d3;fill-opacity:0.87000002"
           inkscape:connector-curvature="0"
           id="path4663"
           d="m 557.14,460.71 c 6.43,-3.57 32.14,3.57 38.57,10.71 6.43,7.14 15,17.14 5.71,22.14 -9.29,5 -45,-20 -44.29,-32.86 z" />
        <path
           style="fill:#e9e9e9;fill-opacity:0.88999999"
           sodipodi:nodetypes="cscssssssc"
           inkscape:connector-curvature="0"
           id="path4665"
           d="m 420.71,562.14 c -2.86,-16.43 0.71,-32.86 5.71,-30 5,2.86 10,17.14 10,17.14 0,0 3.43,-20.64 7.93,-35.93 2.98,-10.12 19.93,-31.93 23.5,-29.07 3.57,2.86 -30.9,27.09 -23.07,73.07 6.27,36.85 34.7,47.45 31.64,49.79 -7.92,6.07 -34.28,-26.43 -37.85,-39.28 -3.57,-12.86 5.72,17.85 1.43,20 -4.29,2.14 -17.86,-16.43 -19.29,-25.72 z" />
      </g>
      <g
         inkscape:label="Veins"
         id="layer20">
        <path
           style="fill:#db3737;stroke:#b32929"
           sodipodi:nodetypes="csssccssssscsssscsssc"
           inkscape:connector-curvature="0"
           id="path5617"
           d="m 359.36,501 c 0,0 -6.84,-24 -14.95,-24.25 -8.11,-0.25 -13.43,31 -21.53,33.75 -8.11,2.75 -5.83,-9 -12.16,-8 -6.33,1 -16.72,34 -16.72,34 l 1.27,5.25 c 0,0 3.55,3 7.35,2.75 3.8,-0.25 8.11,-7 13.43,-4.25 5.32,2.75 16.47,63 27.86,69 11.4,6 13.93,-7.25 17.48,-4.5 3.55,2.75 8.87,25 13.43,30.5 4.56,5.5 14.69,5.53 14.69,5.53 0,0 -11.91,-12.78 -13.17,-19.53 -1.27,-6.75 -5.32,-23 -10.64,-24.25 -5.32,-1.25 -12,6.48 -17.57,5.23 -5.57,-1.25 -20.93,-64.48 -25.49,-67.48 -4.56,-3 -21.03,3 -21.03,3 0,0 5.32,-26.5 8.61,-26 3.29,0.5 8.65,8.44 15.24,5.94 6.59,-2.5 14.14,-32.94 18.7,-31.69 4.56,1.25 10.13,18.5 15.2,15 z" />
      </g>
      <g
         inkscape:label="Hat rim"
         id="layer17">
        <path
           sodipodi:nodetypes="cssscc"
           inkscape:connector-curvature="0"
           id="path4639"
           d="m 349.29,282.86 c -5,10 -55,22.86 -57.86,35.71 -2.86,12.86 33.57,85 189.29,64.29 155.71,-20.71 210,-88.57 198.57,-120.71 C 667.86,230 605,224.29 605,224.29 Z"
           style="fill:url(#linearGradient4758)" />
      </g>
      <g
         display="inline"
         inkscape:label="Hat cylinder"
         id="layer16"
         style="display:inline">
        <path
           sodipodi:nodetypes="cssssc"
           inkscape:connector-curvature="0"
           id="path4636"
           d="m 590,34.29 c 0,0 8.67,220.1 38.57,250 17.16,17.16 -90,60.71 -127.14,67.14 -37.14,6.43 -133.96,9.61 -153.57,-10 -4.29,-4.29 12.86,-110 -50.71,-242.86 C 296.04,96.27 590,34.29 590,34.29 Z"
           style="fill:url(#linearGradient4716)" />
      </g>
      <g
         display="inline"
         inkscape:label="Hat Ribbon"
         id="layer18"
         style="display:inline">
        <path
           sodipodi:nodetypes="cscsssc"
           inkscape:connector-curvature="0"
           id="path4642"
           d="m 346.43,287.86 c 0,0 75.71,23.57 147.14,5 71.43,-18.57 119.29,-52.15 119.29,-52.15 0,0 4.29,32.86 18.57,44.29 14.29,11.43 -81.43,59.29 -127.14,67.86 -45.71,8.57 -136.43,3.57 -157.14,-10 -1.33,-0.87 -0.71,-55 -0.71,-55 z"
           style="fill:url(#linearGradient4726)" />
      </g>
      <g
         transform="translate(0,-52.362183)"
         id="layer1-7"
         inkscape:label="Hat lid">
        <path
           inkscape:connector-curvature="0"
           id="path4633"
           d="m 296.86,150.93 c -2.14,-30.71 100,-57.14 128.57,-64.29 28.57,-7.14 167.14,-25.71 165,4.29 -2.14,30 -94.29,50.71 -140,60.71 -45.71,10 -148.57,25.71 -153.57,-0.71 z"
           style="fill:url(#linearGradient4742)" />
      </g>
    </g>
  </g>
  <g
     inkscape:groupmode="layer"
     id="layer2"
     inkscape:label="Orange Banner">
    <rect
       style="opacity:1;fill:#de3d2d;fill-opacity:1;stroke:none;stroke-width:11.03082752;stroke-miterlimit:4;stroke-dasharray:none;stroke-opacity:1"
       id="rect4144"
       width="338.66669"
       height="43.65625"
       x="0"
       y="146.84375" />
  </g>
  <g
     inkscape:label="Blue Banner"
     id="g4203"
     inkscape:groupmode="layer"
     style="display:none">
    <rect
       y="146.84375"
       x="0"
       height="43.65625"
       width="338.66669"
       id="rect4205"
       style="opacity:1;fill:#407d93;fill-opacity:1;stroke:none;stroke-width:11.03082752;stroke-miterlimit:4;stroke-dasharray:none;stroke-opacity:1" />
  </g>
  <g
     inkscape:groupmode="layer"
     id="layer3"
     inkscape:label="Discover"
     style="display:inline">
    <text
       xml:space="preserve"
       style="font-style:normal;font-variant:normal;font-weight:normal;font-stretch:normal;font-size:20.26743698px;line-height:125%;font-family:Museo;-inkscape-font-specification:'Museo, Normal';text-align:start;letter-spacing:0px;word-spacing:0px;writing-mode:lr-tb;text-anchor:start;fill:#ffffff;fill-opacity:1;stroke:none;stroke-width:0.50668812px;stroke-linecap:butt;stroke-linejoin:miter;stroke-opacity:1"
       x="173.85484"
       y="51.457989"
       id="text4147"
       sodipodi:linespacing="125%"><tspan
         sodipodi:role="line"
         id="tspan4164"
         x="173.85484"
         y="51.457989">DISCOVER:</tspan></text>
  </g>
  <g
     inkscape:label="Interview"
     id="g4209"
     inkscape:groupmode="layer"
     style="display:none">
    <text
       sodipodi:linespacing="125%"
       id="text4211"
       y="40.767208"
       x="173.85484"
       style="font-style:normal;font-variant:normal;font-weight:normal;font-stretch:normal;font-size:20.26743698px;line-height:125%;font-family:Museo;-inkscape-font-specification:'Museo, Normal';text-align:start;letter-spacing:0px;word-spacing:0px;writing-mode:lr-tb;text-anchor:start;fill:#ffffff;fill-opacity:1;stroke:none;stroke-width:0.50668812px;stroke-linecap:butt;stroke-linejoin:miter;stroke-opacity:1"
       xml:space="preserve"><tspan
         id="tspan4213"
         sodipodi:role="line"
         x="173.85484"
         y="40.767208">INTERVIEW:</tspan></text>
  </g>
  <g
     inkscape:groupmode="layer"
     id="layer4"
     inkscape:label="Artist Name">
    <text
       xml:space="preserve"
       style="font-style:normal;font-variant:normal;font-weight:600;font-stretch:normal;font-size:34.05963898px;line-height:100%;font-family:Museo;-inkscape-font-specification:'Museo, Semi-Bold';text-align:start;letter-spacing:0px;word-spacing:0px;writing-mode:lr-tb;text-anchor:start;fill:#ffffff;fill-opacity:1;stroke:none;stroke-width:0.85148358px;stroke-linecap:butt;stroke-linejoin:miter;stroke-opacity:1"
       x="174.2778"
       y="81.324768"
       id="text4158"
       sodipodi:linespacing="100%"><tspan
         sodipodi:role="line"
         x="174.2778"
         y="81.324768"
         style="font-style:normal;font-variant:normal;font-weight:600;font-stretch:normal;font-size:34.05963898px;line-height:100%;font-family:Museo;-inkscape-font-specification:'Museo, Semi-Bold';text-align:start;writing-mode:lr-tb;text-anchor:start;fill:#ffffff;fill-opacity:1;stroke-width:0.85148358px"
         id="tspan4162">The</tspan><tspan
         sodipodi:role="line"
         x="174.2778"
         y="115.38441"
         style="font-style:normal;font-variant:normal;font-weight:600;font-stretch:normal;font-size:34.05963898px;line-height:100%;font-family:Museo;-inkscape-font-specification:'Museo, Semi-Bold';text-align:start;writing-mode:lr-tb;text-anchor:start;fill:#ffffff;fill-opacity:1;stroke-width:0.85148358px"
         id="tspan4730">Residents</tspan></text>
  </g>
  <g
     inkscape:groupmode="layer"
     id="layer6"
     inkscape:label="WEIRD">
    <path
       style="opacity:1;fill:#ffffff;fill-opacity:1;stroke:none;stroke-width:17.2258606;stroke-miterlimit:4;stroke-dasharray:none;stroke-opacity:1"
       d="M 245.3457 602.625 L 245.3457 672.625 L 495.3457 672.625 L 495.3457 602.625 L 245.3457 602.625 z M 254.20703 613.5 L 258.08398 613.5 C 261.48345 613.5 263.18217 614.17987 263.99805 617.44336 L 271.4082 648.31055 C 272.02011 650.89414 272.36133 653.41016 272.36133 653.41016 L 272.49609 653.41016 C 272.49609 653.41016 272.90446 650.96213 273.65234 648.31055 L 283.30664 613.63477 L 289.42578 613.63477 L 298.40039 648.31055 C 299.08028 650.96213 299.41992 653.41016 299.41992 653.41016 L 299.55664 653.41016 C 299.55664 653.41016 299.8295 650.89414 300.44141 648.31055 L 307.98828 617.44336 C 308.80415 614.17987 310.43452 613.5 313.83398 613.5 L 317.70898 613.5 L 317.70898 619.3457 L 316.68945 619.3457 C 315.46565 619.3457 314.71885 619.61799 314.37891 620.8418 L 303.83984 661.5 L 295.95312 661.5 L 287.79492 631.17773 C 286.97905 628.05022 286.43555 624.58203 286.43555 624.58203 L 286.29883 624.58203 C 286.29883 624.58203 285.61824 628.04985 284.73438 631.10938 L 276.0332 661.5 L 268.07812 661.5 L 257.53906 620.8418 C 257.19912 619.61799 256.45232 619.3457 255.22852 619.3457 L 254.20703 619.3457 L 254.20703 613.5 z M 326.5 613.5 L 354.7168 613.5 C 357.77632 613.5 359.06641 614.79204 359.06641 617.85156 L 359.06641 623.90234 L 352.88086 623.90234 L 352.88086 620.8418 C 352.88086 619.82196 352.33662 619.3457 351.38477 619.3457 L 337.71875 619.3457 L 337.71875 634.37305 L 354.51172 634.37305 L 354.51172 640.21875 L 337.71875 640.21875 L 337.71875 654.15625 C 337.71875 655.1081 338.26299 655.65234 339.21484 655.65234 L 353.2207 655.65234 C 354.17255 655.65234 354.7168 655.1081 354.7168 654.15625 L 354.7168 651.09766 L 360.9707 651.09766 L 360.9707 657.14844 C 360.9707 660.20796 359.67866 661.5 356.61914 661.5 L 335.27148 661.5 C 332.21196 661.5 330.91992 660.20796 330.91992 657.14844 L 330.91992 619.3457 L 326.5 619.3457 L 326.5 613.5 z M 370.41406 613.5 L 386.25586 613.5 L 386.25586 619.3457 L 381.56445 619.3457 L 381.56445 655.65234 L 386.25586 655.65234 L 386.25586 661.5 L 370.41406 661.5 L 370.41406 655.65234 L 375.10547 655.65234 L 375.10547 619.3457 L 370.41406 619.3457 L 370.41406 613.5 z M 396.6543 613.5 L 417.5957 613.5 C 426.02638 613.5 431.94141 618.80359 431.94141 627.57422 C 431.94141 635.59696 426.70611 639.53923 423.30664 640.28711 L 423.30664 640.42383 C 423.30664 640.42383 424.52983 641.03585 425.3457 642.59961 L 431.125 654.08984 C 431.80489 655.51762 432.89365 655.65234 434.52539 655.65234 L 435.4082 655.65234 L 435.4082 661.5 L 432.07812 661.5 C 428.33871 661.5 426.97782 661.02399 425.41406 657.89648 L 418.88672 644.97852 C 417.66291 642.73487 416.78049 642.39453 414.12891 642.39453 L 407.87305 642.39453 L 407.87305 661.5 L 401.07422 661.5 L 401.07422 619.3457 L 396.6543 619.3457 L 396.6543 613.5 z M 443.75 613.5 L 463.19531 613.5 C 477.81302 613.5 487.4668 622.27002 487.4668 637.43164 C 487.4668 652.66125 477.81302 661.5 463.19531 661.5 L 452.51953 661.5 C 449.46001 661.5 448.16992 660.20796 448.16992 657.14844 L 448.16992 619.3457 L 443.75 619.3457 L 443.75 613.5 z M 407.87305 619.3457 L 407.87305 636.54883 L 416.71094 636.54883 C 421.87813 636.54883 424.9375 633.21686 424.9375 627.8457 C 424.9375 622.47455 421.87887 619.3457 416.84766 619.3457 L 407.87305 619.3457 z M 454.96875 619.3457 L 454.96875 654.15625 C 454.96875 655.1081 455.51299 655.65234 456.46484 655.65234 L 462.71875 655.65234 C 473.39308 655.65234 480.39648 649.26179 480.39648 637.43164 C 480.39648 625.66949 473.32509 619.3457 462.71875 619.3457 L 454.96875 619.3457 z "
       transform="scale(0.26458334)"
       id="rect4172" />
  </g>
  <g
     inkscape:groupmode="layer"
     id="layer7"
     inkscape:label="MAKE">
    <text
       xml:space="preserve"
       style="font-style:normal;font-variant:normal;font-weight:normal;font-stretch:normal;font-size:17.99166679px;line-height:100%;font-family:Museo;-inkscape-font-specification:'Museo, Normal';text-align:start;letter-spacing:0px;word-spacing:0px;writing-mode:lr-tb;text-anchor:start;fill:#ffffff;fill-opacity:1;stroke:none;stroke-width:0.26458335px;stroke-linecap:butt;stroke-linejoin:miter;stroke-opacity:1"
       x="10.690782"
       y="175.02188"
       id="text4175"
       sodipodi:linespacing="100%"><tspan
         sodipodi:role="line"
         id="tspan4177"
         x="10.690782"
         y="175.02188"
         style="font-style:normal;font-variant:normal;font-weight:normal;font-stretch:normal;font-size:17.99166679px;line-height:100%;font-family:Museo;-inkscape-font-specification:'Museo, Normal';text-align:start;writing-mode:lr-tb;text-anchor:start;fill:#ffffff;fill-opacity:1;stroke-width:0.26458335px;letter-spacing:1.32291669px">MAKE</tspan></text>
  </g>
  <g
     inkscape:groupmode="layer"
     id="layer8"
     inkscape:label="MUSIC">
    <text
       xml:space="preserve"
       style="font-style:normal;font-variant:normal;font-weight:normal;font-stretch:normal;font-size:17.99166679px;line-height:100%;font-family:Museo;-inkscape-font-specification:'Museo, Normal';text-align:start;letter-spacing:0px;word-spacing:0px;writing-mode:lr-tb;text-anchor:start;fill:#ffffff;fill-opacity:1;stroke:none;stroke-width:0.26458335px;stroke-linecap:butt;stroke-linejoin:miter;stroke-opacity:1"
       x="134.21758"
       y="174.80598"
       id="text4180"
       sodipodi:linespacing="100%"><tspan
         sodipodi:role="line"
         id="tspan4182"
         x="134.21758"
         y="174.80598"
         style="font-style:normal;font-variant:normal;font-weight:normal;font-stretch:normal;font-size:17.99166679px;line-height:100%;font-family:Museo;-inkscape-font-specification:'Museo, Normal';text-align:start;writing-mode:lr-tb;text-anchor:start;fill:#ffffff;fill-opacity:1;stroke-width:0.26458335px">MUSIC</tspan></text>
  </g>
</svg>
