<?xml version="1.0" encoding="UTF-8" standalone="no"?>
<!-- Created with Inkscape (http://www.inkscape.org/) -->

<svg
   xmlns:dc="http://purl.org/dc/elements/1.1/"
   xmlns:cc="http://creativecommons.org/ns#"
   xmlns:rdf="http://www.w3.org/1999/02/22-rdf-syntax-ns#"
   xmlns:svg="http://www.w3.org/2000/svg"
   xmlns="http://www.w3.org/2000/svg"
   xmlns:sodipodi="http://sodipodi.sourceforge.net/DTD/sodipodi-0.dtd"
   xmlns:inkscape="http://www.inkscape.org/namespaces/inkscape"
   width="1280"
   height="720"
   viewBox="0 0 338.66666 190.50001"
   id="svg2"
   version="1.1"
   inkscape:version="0.91 r13725"
   sodipodi:docname="teddy-kumpel-interview-thumbnail.svg"
   inkscape:export-filename="/Users/agarone/Documents/git/art/teddy-kumpel/interview/teddy-kumpel-interview-thumbnail.png"
   inkscape:export-xdpi="135"
   inkscape:export-ydpi="135">
  <defs
     id="defs4" />
  <sodipodi:namedview
     id="base"
     pagecolor="#ffffff"
     bordercolor="#666666"
     borderopacity="1.0"
     inkscape:pageopacity="0.0"
     inkscape:pageshadow="2"
     inkscape:zoom="1.140625"
     inkscape:cx="306.41095"
     inkscape:cy="324.93151"
     inkscape:document-units="px"
     inkscape:current-layer="layer4"
     showgrid="false"
     units="px"
     inkscape:window-width="2560"
     inkscape:window-height="1475"
     inkscape:window-x="0"
     inkscape:window-y="1"
     inkscape:window-maximized="1"
     showguides="true" />
  <metadata
     id="metadata7">
    <rdf:RDF>
      <cc:Work
         rdf:about="">
        <dc:format>image/svg+xml</dc:format>
        <dc:type
           rdf:resource="http://purl.org/dc/dcmitype/StillImage" />
        <dc:title />
      </cc:Work>
    </rdf:RDF>
  </metadata>
  <g
     inkscape:label="Gray BG"
     inkscape:groupmode="layer"
     id="layer1"
     transform="translate(0,-106.49999)">
    <rect
       style="opacity:1;fill:#6d757b;fill-opacity:1;stroke:none;stroke-width:16.0535984;stroke-miterlimit:4;stroke-dasharray:none;stroke-opacity:1"
       id="rect4141"
       width="338.66669"
       height="190.5"
       x="1.4210855e-14"
       y="106.49999" />
  </g>
  <g
     inkscape:groupmode="layer"
     id="layer2"
     inkscape:label="Orange Banner">
    <rect
       style="opacity:1;fill:#de3d2d;fill-opacity:1;stroke:none;stroke-width:11.03082752;stroke-miterlimit:4;stroke-dasharray:none;stroke-opacity:1"
       id="rect4144"
       width="338.66669"
       height="43.65625"
       x="0"
       y="146.84375" />
  </g>
  <g
     inkscape:groupmode="layer"
     id="layer5"
     inkscape:label="Artist Image" />
  <g
     inkscape:label="Blue Banner"
     id="g4203"
     inkscape:groupmode="layer">
    <rect
       y="146.84375"
       x="0"
       height="43.65625"
       width="338.66669"
       id="rect4205"
       style="opacity:1;fill:#407d93;fill-opacity:1;stroke:none;stroke-width:11.03082752;stroke-miterlimit:4;stroke-dasharray:none;stroke-opacity:1" />
  </g>
  <g
     inkscape:groupmode="layer"
     id="layer3"
     inkscape:label="Discover"
     style="display:none">
    <text
       xml:space="preserve"
       style="font-style:normal;font-variant:normal;font-weight:normal;font-stretch:normal;font-size:20.26743698px;line-height:125%;font-family:Museo;-inkscape-font-specification:'Museo, Normal';text-align:start;letter-spacing:0px;word-spacing:0px;writing-mode:lr-tb;text-anchor:start;fill:#ffffff;fill-opacity:1;stroke:none;stroke-width:0.50668812px;stroke-linecap:butt;stroke-linejoin:miter;stroke-opacity:1"
       x="173.85484"
       y="40.767208"
       id="text4147"
       sodipodi:linespacing="125%"><tspan
         sodipodi:role="line"
         id="tspan4164"
         x="173.85484"
         y="40.767208">DISCOVER:</tspan></text>
  </g>
  <g
     inkscape:label="Interview"
     id="g4209"
     inkscape:groupmode="layer">
    <text
       sodipodi:linespacing="125%"
       id="text4211"
       y="40.767208"
       x="173.85484"
       style="font-style:normal;font-variant:normal;font-weight:normal;font-stretch:normal;font-size:20.26743698px;line-height:125%;font-family:Museo;-inkscape-font-specification:'Museo, Normal';text-align:start;letter-spacing:0px;word-spacing:0px;writing-mode:lr-tb;text-anchor:start;fill:#ffffff;fill-opacity:1;stroke:none;stroke-width:0.50668812px;stroke-linecap:butt;stroke-linejoin:miter;stroke-opacity:1"
       xml:space="preserve"><tspan
         id="tspan4213"
         sodipodi:role="line"
         x="173.85484"
         y="40.767208">INTERVIEW:</tspan></text>
    <text
       xml:space="preserve"
       style="font-style:normal;font-variant:normal;font-weight:normal;font-stretch:normal;font-size:20.26743698px;line-height:125%;font-family:Museo;-inkscape-font-specification:'Museo, Normal';text-align:start;letter-spacing:0px;word-spacing:0px;writing-mode:lr-tb;text-anchor:start;fill:#ffffff;fill-opacity:1;stroke:none;stroke-width:0.50668812px;stroke-linecap:butt;stroke-linejoin:miter;stroke-opacity:1"
       x="173.85484"
       y="40.767208"
       id="text4167"
       sodipodi:linespacing="125%"><tspan
         y="40.767208"
         x="173.85484"
         sodipodi:role="line"
         id="tspan4169">INTERVIEW:</tspan></text>
    <g
       id="g4331"
       transform="matrix(0.57735124,0,0,0.57735124,-1.6148886e-5,-5.9137492)">
      <g
         style="display:none"
         transform="translate(0,-32.41665)"
         id="layer1-4"
         inkscape:label="BG">
        <rect
           y="32.416653"
           x="0"
           height="264.58334"
           width="264.58334"
           id="rect5606"
           style="opacity:1;fill:#ffffff;fill-opacity:1;stroke:none;stroke-width:11.60810661;stroke-miterlimit:4;stroke-dasharray:none;stroke-opacity:1" />
      </g>
      <g
         style="display:inline"
         inkscape:label="Head"
         id="layer3-0">
        <path
           sodipodi:nodetypes="cccsssssccsssc"
           inkscape:connector-curvature="0"
           id="path4783"
           d="M 94.346142,57.716718 83.922631,72.282906 82.586283,86.915913 c 0,0 -4.009042,-5.144937 -8.151722,-3.942224 -4.142676,1.202712 -3.407684,9.020345 -0.601355,14.365735 2.80633,5.345396 3.80859,9.153986 5.278572,9.554886 1.469983,0.40091 0.601357,1.67044 1.002262,2.33861 0.400904,0.66817 4.6104,21.44838 4.343129,22.65109 -0.267269,1.20271 30.602361,39.82316 30.602361,39.82316 l 26.72695,-21.64883 c 0,0 16.30344,-31.40417 16.70435,-39.42226 0.4009,-8.01808 -3.20724,-22.049731 -3.20724,-25.524234 0,-3.474506 1.06908,-23.386084 0.26727,-23.920625 -0.80181,-0.534537 -61.204718,-3.474503 -61.204718,-3.474503 z"
           style="fill:#2e200f;fill-opacity:1;fill-rule:evenodd;stroke:none;stroke-width:0.26458332px;stroke-linecap:butt;stroke-linejoin:miter;stroke-opacity:1" />
      </g>
      <g
         style="display:inline"
         inkscape:label="Shirt"
         id="layer7-8">
        <path
           inkscape:connector-curvature="0"
           id="path4857"
           d="m 83.38809,123.33139 c 0,0 1.069079,8.41899 3.741775,12.42803 2.672696,4.00904 22.450635,20.98066 28.464205,21.9161 6.01356,0.93544 32.74052,-22.04973 35.41321,-27.12786 2.6727,-5.07812 4.40995,-11.22532 4.94449,-10.69078 0.53454,0.53454 -6.1472,144.72645 -6.1472,144.72645 l -49.845768,0 c 0,0 -19.64431,-124.5476 -18.842501,-128.69028 0.801809,-4.14267 0,-12.29439 2.271789,-12.56166 z"
           style="fill:#461717;fill-opacity:1;fill-rule:evenodd;stroke:none;stroke-width:0.26458332px;stroke-linecap:butt;stroke-linejoin:miter;stroke-opacity:1" />
        <path
           inkscape:export-ydpi="144"
           inkscape:export-xdpi="144"
           sodipodi:nodetypes="csssscccsc"
           inkscape:connector-curvature="0"
           id="path4859"
           d="m 82.185379,126.53862 c -1.202714,-0.93544 -6.949008,2.13816 -9.354433,3.34087 -2.405425,1.20271 -9.48807,2.00452 -14.699824,5.61266 -5.211757,3.60814 -16.704347,8.15172 -18.040694,9.88897 -1.336347,1.73726 -14.967093,5.7463 -17.639788,7.75082 C 19.777945,155.13646 0,203.24497 0,203.24497 l 0,61.33836 100.76061,0 c 0,0 -20.178849,-124.9485 -20.045213,-128.69028 0.133635,-3.74177 1.870886,-8.41899 1.469982,-9.35443 z"
           style="fill:#150c07;fill-opacity:1;fill-rule:evenodd;stroke:none;stroke-width:0.26458332px;stroke-linecap:butt;stroke-linejoin:miter;stroke-opacity:1" />
        <path
           sodipodi:nodetypes="ccsssszccsc"
           inkscape:connector-curvature="0"
           id="path4861"
           d="m 155.6845,119.58961 1.20271,-3.34087 c 0,0 1.73725,3.74178 3.60814,3.74178 1.87089,0 13.22984,2.27179 18.70887,3.60814 5.47902,1.33634 10.55714,5.47902 14.16528,5.87993 3.60814,0.4009 15.63527,3.74177 17.63979,5.47902 2.00452,1.73725 33.6611,55.45478 41.92265,77.5472 8.26155,22.09243 11.65138,52.07852 11.65138,52.07852 l -115.98146,0 c 0,0 5.87993,-114.65863 6.14719,-119.33584 0.26727,-4.67722 0.40091,-24.45516 0.93545,-25.65788 z"
           style="fill:#150c07;fill-opacity:1;fill-rule:evenodd;stroke:none;stroke-width:0.26458332px;stroke-linecap:butt;stroke-linejoin:miter;stroke-opacity:1" />
        <path
           inkscape:connector-curvature="0"
           id="path4863"
           d="m 114.52678,157.80506 c -1.5119,0 -14.741066,7.9375 -17.953865,14.93006 -3.212798,6.99256 -7.181548,16.63095 -8.315475,15.49702 -1.13393,-1.13393 -8.126489,-45.35714 -7.9375,-49.70387 0.188986,-4.34672 0.755951,-11.90625 1.889882,-11.90625 1.133927,0 2.267854,0.37798 2.645833,3.40179 0.377976,3.02381 1.511903,4.91369 4.157736,7.74851 2.645834,2.83482 18.709819,18.52083 25.513389,20.03274 z"
           style="fill:#5d1f1f;fill-opacity:1;fill-rule:evenodd;stroke:none;stroke-width:0.26458332px;stroke-linecap:butt;stroke-linejoin:miter;stroke-opacity:1" />
        <path
           inkscape:connector-curvature="0"
           id="path4865"
           d="m 119.25149,157.04911 c 0,0 9.4494,1.5119 12.09523,4.15773 2.64584,2.64584 17.38691,19.65477 19.46578,19.65477 2.07887,0 4.34672,-37.79762 4.34672,-41.95536 0,-4.15774 1.32292,-19.46578 0.75596,-19.46578 -0.56697,0 -5.66965,15.11905 -8.50447,18.52084 -2.83482,3.40178 -26.45833,17.76488 -28.15922,19.0878 z"
           style="fill:#5d1f1f;fill-opacity:1;fill-rule:evenodd;stroke:none;stroke-width:0.26458332px;stroke-linecap:butt;stroke-linejoin:miter;stroke-opacity:1" />
      </g>
      <g
         style="display:inline"
         inkscape:label="Tie"
         id="layer8-6">
        <path
           inkscape:connector-curvature="0"
           id="path4868"
           d="m 101.10863,264.58333 c 0,0 6.23661,-67.09077 7.55952,-73.89434 1.32292,-6.80358 4.34673,-14.3631 4.34673,-14.3631 0,0 3.96875,3.40179 7.55952,3.2128 3.59078,-0.18899 9.6384,-5.29167 9.6384,-5.29167 0,0 8.50446,56.31845 8.31547,60.47619 -0.18899,4.15774 3.59078,29.86012 3.59078,29.86012 z"
           style="fill:#17273e;fill-opacity:1;fill-rule:evenodd;stroke:none;stroke-width:0.26458332px;stroke-linecap:butt;stroke-linejoin:miter;stroke-opacity:1" />
        <path
           sodipodi:nodetypes="cssssssc"
           inkscape:connector-curvature="0"
           id="path4870"
           d="m 112.82589,176.89286 c 0,0 -4.67884,-12.19645 -4.67884,-13.89734 0,-1.70089 4.19016,-4.78956 5.1351,-4.78956 0.94494,0 7.67023,-1.53483 9.56011,-1.34584 1.88988,0.18899 7.6568,3.26815 8.41275,4.78006 0.75595,1.5119 -0.66424,12.03988 -1.04221,12.79583 -0.37798,0.75595 -7.37054,6.80358 -9.82739,6.23661 -2.45684,-0.56696 -6.80357,-3.2128 -7.55952,-3.77976 z"
           style="fill:#142236;fill-opacity:1;fill-rule:evenodd;stroke:none;stroke-width:0.26458332px;stroke-linecap:butt;stroke-linejoin:miter;stroke-opacity:1" />
      </g>
      <g
         style="display:inline"
         inkscape:label="Face"
         id="layer4-1">
        <path
           inkscape:connector-curvature="0"
           id="path4786"
           d="m 95.014316,86.180924 c 1.737251,-0.400905 6.013564,1.46998 6.013564,2.405425 0,0.935442 0.80181,4.276312 2.80633,4.810849 2.00452,0.534541 -0.93544,-4.543581 0.66818,-6.013563 1.60361,-1.469983 12.02712,-3.073599 13.0962,-3.073599 1.06908,0 2.93997,0.80181 2.93997,0 0,-0.801809 -0.80181,-2.138156 0.53453,-2.138156 1.33635,0 -1.06907,5.879928 -1.60361,9.354434 -0.53454,3.474503 0.93544,8.15172 0.66817,8.819896 -0.26727,0.66817 -2.6727,3.60814 -2.27179,5.47902 0.4009,1.87089 5.34539,2.80633 5.21176,3.60814 -0.13364,0.80181 -12.02713,3.60814 -13.36348,5.7463 -1.33635,2.13815 -4.27631,5.07812 -4.94449,4.27631 -0.66817,-0.80181 1.46999,-6.81537 1.20272,-9.6217 -0.26727,-2.80634 -0.40091,-9.35444 -2.80633,-8.68626 -2.40543,0.66817 -8.418993,0.4009 -8.018088,-4.276316 0.400904,-4.677217 1.202711,-8.418991 -0.133636,-10.69078 z"
           style="fill:#965831;fill-opacity:1;fill-rule:evenodd;stroke:none;stroke-width:0.26458332px;stroke-linecap:butt;stroke-linejoin:miter;stroke-opacity:1" />
        <path
           inkscape:connector-curvature="0"
           id="path4790"
           d="m 113.05501,77.093759 c 0.4009,-1.469983 8.41899,0.801809 9.2208,-0.133636 0.80181,-0.935442 -0.26727,-2.271789 0.80181,-4.276312 1.06907,-2.00452 5.07812,-2.405425 5.07812,-0.133633 0,2.271789 -1.73726,6.414468 -1.20272,6.681737 0.53454,0.267269 1.20272,-7.082642 3.20724,-7.750815 2.00452,-0.668176 2.53906,0.133633 2.53906,0.668173 0,0.534538 -0.80181,6.414469 -0.26727,6.1472 0.53454,-0.267272 0.66817,-7.216278 2.00452,-7.216278 1.33635,0 6.41447,2.004521 5.21176,3.073599 -1.20272,1.069078 -6.94901,4.142679 -7.21628,6.949008 -0.26727,2.80633 4.94449,16.971613 4.94449,19.109768 0,2.13816 -2.80633,6.28084 -4.14268,5.87993 -1.33635,-0.4009 -6.01357,-3.4745 -5.47903,-5.07812 0.53454,-1.603615 3.60814,-2.806329 2.93997,-4.409947 -0.66818,-1.603616 -5.47903,-14.29892 -4.54358,-14.967093 0.93544,-0.668174 2.53906,-1.870887 -0.40091,-1.870887 -2.93996,0 -12.82894,-1.336347 -12.6953,-2.672694 z"
           style="fill:#965831;fill-opacity:1;fill-rule:evenodd;stroke:none;stroke-width:0.26458332px;stroke-linecap:butt;stroke-linejoin:miter;stroke-opacity:1" />
        <path
           inkscape:connector-curvature="0"
           id="path4792"
           d="m 141.25194,76.82649 c 0,0 5.21176,-2.806332 7.61719,-2.138156 2.40542,0.668173 2.27178,6.815373 1.06907,7.617179 -1.20271,0.80181 -10.69078,1.202714 -9.6217,2.004523 1.06908,0.80181 5.07812,2.405425 6.28083,2.405425 1.20272,0 3.87541,-3.207234 4.27632,-2.405425 0.4009,0.80181 -2.00452,5.612659 -4.00905,4.81085 -2.00452,-0.801806 -10.95805,-5.211754 -11.09168,-4.142676 -0.13364,1.069078 0.66817,12.962572 2.80633,13.898014 2.13816,0.935445 5.87993,-0.668173 5.87993,0.935445 0,1.603621 2.27179,6.414471 4.94448,6.280831 2.6727,-0.13363 -0.13363,3.60814 0.80181,4.54358 0.93544,0.93545 1.87089,4.27632 2.00452,3.47451 0.13364,-0.80181 1.46999,-5.61266 1.87089,-7.88445 0.4009,-2.27179 0.27515,-4.03083 0.9366,-3.88909 0.66146,0.14174 -3.40178,14.83557 -3.16555,16.91444 0.23624,2.07887 2.55134,1.79538 3.82701,-1.98438 1.27567,-3.77976 2.59859,-6.42559 1.84263,-13.70164 -0.75595,-7.276037 -3.0238,-14.882808 -2.92931,-17.71763 0.0945,-2.83482 0.99219,-12.284226 -0.47247,-13.040178 -1.46466,-0.755951 -10.19142,0.478129 -12.86785,4.018828 z"
           style="fill:#965831;fill-opacity:1;fill-rule:evenodd;stroke:none;stroke-width:0.26458332px;stroke-linecap:butt;stroke-linejoin:miter;stroke-opacity:1" />
        <path
           inkscape:connector-curvature="0"
           id="path4794"
           d="m 136.57473,107.42885 c 1.46998,0.66817 12.82893,4.94449 12.42803,3.74177 -0.4009,-1.20271 -7.21628,-6.94901 -8.55263,-6.94901 -1.33634,0 -3.4745,2.13816 -3.8754,3.20724 z"
           style="fill:#965831;fill-opacity:1;fill-rule:evenodd;stroke:none;stroke-width:0.26458332px;stroke-linecap:butt;stroke-linejoin:miter;stroke-opacity:1" />
        <path
           inkscape:connector-curvature="0"
           id="path4796"
           d="m 112.65411,121.59413 c 1.20271,-0.13363 11.75985,4.54359 11.75985,6.01357 0,1.46998 -2.67269,5.21175 -6.28083,3.4745 -3.60814,-1.73725 -6.41447,-5.61266 -5.47902,-9.48807 z"
           style="fill:#965831;fill-opacity:1;fill-rule:evenodd;stroke:none;stroke-width:0.26458332px;stroke-linecap:butt;stroke-linejoin:miter;stroke-opacity:1" />
        <path
           inkscape:connector-curvature="0"
           id="path4798"
           d="m 136.97563,128.14224 c 0,-1.87089 6.28083,-8.68626 6.41447,-10.15624 0.13364,-1.46999 1.60362,10.15624 -2.27179,11.75985 -3.87541,1.60362 -4.27631,-0.13363 -4.14268,-1.60361 z"
           style="fill:#965831;fill-opacity:1;fill-rule:evenodd;stroke:none;stroke-width:0.26458332px;stroke-linecap:butt;stroke-linejoin:miter;stroke-opacity:1" />
        <path
           inkscape:connector-curvature="0"
           id="path4800"
           d="m 96.083394,111.70516 c 2.00452,0 2.80633,4.67722 2.939965,8.68626 0.133633,4.00904 5.479031,5.47903 4.409951,6.94901 -1.06908,1.46998 -7.617185,-2.00452 -7.617185,-5.21176 0,-3.20723 -0.400904,-8.68625 0.267269,-10.42351 z"
           style="fill:#965831;fill-opacity:1;fill-rule:evenodd;stroke:none;stroke-width:0.26458332px;stroke-linecap:butt;stroke-linejoin:miter;stroke-opacity:1" />
        <path
           inkscape:connector-curvature="0"
           id="path4825"
           d="m 124.28033,106.42659 c 0,-0.40091 0.86862,-2.40543 1.60362,-2.40543 0.73499,0 3.17382,1.10249 3.17382,1.40317 0,0.30068 -3.94222,1.46998 -4.77744,1.00226 z"
           style="fill:#150c07;fill-opacity:1;fill-rule:evenodd;stroke:none;stroke-width:0.26458332px;stroke-linecap:butt;stroke-linejoin:miter;stroke-opacity:1" />
        <path
           inkscape:connector-curvature="0"
           id="path4827"
           d="m 122.46428,99.218749 c 0,0 -2.09277,3.432661 -1.89232,5.336951 0.20046,1.9043 0.83522,2.97338 1.87089,3.17383 1.03567,0.20045 3.67496,-0.16705 3.64155,0.26727 -0.0334,0.43431 -2.90656,0.93544 -5.01131,-0.3675 -2.10474,-1.30294 -2.90655,-2.23838 -1.9377,-4.37654 0.96885,-2.13815 3.10701,-6.314241 3.24064,-5.712882 0.13364,0.601355 0.24332,1.252995 0.0883,1.678871 z"
           style="fill:#150c07;fill-opacity:1;fill-rule:evenodd;stroke:none;stroke-width:0.26458332px;stroke-linecap:butt;stroke-linejoin:miter;stroke-opacity:1" />
        <path
           inkscape:connector-curvature="0"
           id="path4831"
           d="m 82.185379,97.807146 c 0,0 -0.164547,-1.895689 -0.920498,-2.415407 -0.755955,-0.519716 -1.511906,-1.795386 -1.27567,-3.212796 0.236236,-1.417413 1.464656,-4.346728 -0.377976,-5.480656 -1.842635,-1.133927 -4.393975,-2.645833 -5.055434,0.377976 -0.661458,3.023809 0.377979,6.472843 1.511906,7.323288 1.133928,0.850448 4.723067,0.956559 6.117672,3.407595 z"
           style="fill:#150c07;fill-opacity:1;fill-rule:evenodd;stroke:none;stroke-width:0.26458332px;stroke-linecap:butt;stroke-linejoin:miter;stroke-opacity:1" />
      </g>
      <g
         style="display:inline"
         inkscape:label="Hair"
         id="layer5-8">
        <path
           inkscape:connector-curvature="0"
           id="path4803"
           transform="scale(0.26458333,0.26458333)"
           d="m 509.11719,410.57617 c -3.53552,0 -9.09185,14.64649 -14.14258,14.64649 -5.05077,0 -14.14146,-10.10157 -22.22266,-10.10157 -8.08123,0 -44.95239,14.14337 -52.02343,17.17383 -2.52541,1.01016 -12.1215,14.64576 -16.16211,21.7168 -4.04058,7.07108 6.5664,22.22384 6.5664,29.29492 0,7.07104 -7.07229,16.66803 -9.59765,26.76953 -2.52541,10.10155 50.50818,81.31763 52.02343,88.38867 1.51522,7.07108 100.0051,-17.67853 107.07618,-25.75976 7.07104,-8.08124 -0.50586,-80.81257 -0.50586,-95.96485 0,-15.15231 10.60701,-41.41524 9.09179,-48.48632 -1.51525,-7.07108 -56.56799,-17.67774 -60.10351,-17.67774 z m 35.40234,28.58789 c 1.42176,0.0721 2.32067,0.83253 2.47852,2.72656 0.50506,6.06089 1.5148,44.4473 -9.0918,52.02344 -10.6066,7.57614 -26.76873,2.52457 -26.26367,-8.08203 0.50509,-10.6066 14.64648,-25.75781 14.64648,-25.75781 0,0 -10.60709,6.56522 -21.71875,7.07031 -11.1117,0.50506 -46.97148,-6.06171 -44.95117,-3.03125 2.02031,3.03046 29.79998,17.17267 29.29492,25.25391 -0.50506,8.08119 -23.73832,15.15236 -36.36523,12.62695 -12.62691,-2.52537 -41.41635,-25.75869 -30.30469,-46.4668 6.06093,-3.53556 33.83989,-3.53556 46.4668,-5.05078 12.62691,-1.51521 17.67738,-4.54529 26.26367,-6.06054 8.58629,-1.51522 26.26328,2.0195 34.84961,-0.50586 5.90308,-1.73622 11.56744,-4.9048 14.69531,-4.7461 z"
           style="fill:#745f53;fill-opacity:1;fill-rule:evenodd;stroke:none;stroke-width:0.99999994px;stroke-linecap:butt;stroke-linejoin:miter;stroke-opacity:1" />
        <path
           inkscape:connector-curvature="0"
           id="path4807"
           d="m 134.97111,79.63282 c 0,-0.668174 -0.41159,-0.730293 0.48611,-1.769727 0.89769,-1.039434 7.46502,-5.764136 9.26041,-6.331101 1.79539,-0.566965 5.81139,-4.582961 6.56734,-4.252232 0.75595,0.330729 2.59858,2.976562 1.98437,3.874257 -0.61421,0.897694 -3.35454,-0.04725 -7.32329,1.748139 -3.96875,1.795388 -8.90971,4.342651 -10.97494,6.730664 z"
           style="fill:#745f53;fill-opacity:1;fill-rule:evenodd;stroke:none;stroke-width:0.26458332px;stroke-linecap:butt;stroke-linejoin:miter;stroke-opacity:1" />
        <path
           inkscape:connector-curvature="0"
           id="path4809"
           d="m 121.89732,80.934152 c -0.0945,-0.33073 -4.29948,0.04725 -6.61458,-0.944941 -2.31511,-0.992188 -6.23661,-3.96875 -8.92969,-3.449035 -2.69308,0.519719 -6.850819,3.354539 -5.90588,4.063246 0.94494,0.708705 4.77195,-1.181176 7.37054,-1.13393 2.59858,0.04725 7.79576,2.078869 9.30766,2.078869 1.51191,0 4.29948,0.188989 4.77195,-0.614209 z"
           style="fill:#745f53;fill-opacity:1;fill-rule:evenodd;stroke:none;stroke-width:0.26458332px;stroke-linecap:butt;stroke-linejoin:miter;stroke-opacity:1" />
        <path
           inkscape:connector-curvature="0"
           id="path4833"
           d="m 89.958332,96.667409 c 0,0 -3.874256,-3.212799 -3.212798,-6.331101 0.661458,-3.118302 2.645833,-3.685267 2.645833,-5.575149 0,-1.889882 -2.929316,-13.134673 -1.133927,-13.607142 1.795385,-0.47247 4.913691,1.039434 4.913691,-0.944941 0,-1.984375 -0.661459,-3.118303 0.188986,-5.858632 0.850448,-2.740326 2.740329,-5.197171 2.740329,-5.197171 l -24.379464,1.984375 c 0,0 1.984375,8.976934 -3.590775,10.394344 -5.575149,1.41741 -7.654017,-9.260416 -7.654017,-9.260416 0,0 -0.755952,7.370535 2.55134,9.449406 3.307292,2.078868 1.511903,3.212795 -0.0945,3.401785 -1.606399,0.188989 -4.441219,-0.377976 -4.630208,-2.740327 -0.188987,-2.362351 1.13393,-5.008184 1.13393,-5.008184 0,0 -2.55134,2.929313 -2.362351,5.008184 0.188987,2.078868 1.700893,3.401785 1.700893,3.401785 0,0 -4.346726,-0.09449 -6.425597,-1.889882 -2.078868,-1.795386 -3.023809,-4.819195 -3.023809,-4.819195 0,0 -1.700893,4.063244 2.078868,6.425594 3.779763,2.362351 9.638395,2.645834 9.07143,3.496281 -0.566965,0.850445 -2.456847,2.173362 -6.52009,1.700893 -4.063243,-0.472472 -6.992559,-3.307292 -6.898066,-2.55134 0.0945,0.755951 6.70908,3.023809 6.331101,3.49628 -0.377976,0.47247 -2.83482,0.377976 -4.819195,-0.472471 -1.984375,-0.850445 -3.212798,-1.511903 -3.212798,-1.511903 0,0 4.724701,7.937499 8.787947,7.937499 4.063244,0 7.559524,-1.795388 6.898066,-0.661458 -0.661458,1.133928 -2.929316,4.063243 -5.291666,4.346726 -2.362354,0.283482 -8.976937,-0.850448 -7.843007,-0.283483 1.133927,0.566965 7.276041,0.377976 9.638392,3.685268 2.362351,3.307291 7.843007,14.552086 6.992559,15.780506 -0.850445,1.22842 -2.55134,3.49628 -3.496278,2.64583 -0.944941,-0.85044 -1.795388,-2.55134 -1.795388,-2.55134 0,0 -2.078869,4.34673 0.944941,7.55953 3.023809,3.2128 6.803572,1.32291 7.559524,3.49628 0.755951,2.17336 -1.795389,2.92931 -1.795389,2.92931 0,0 4.913691,0.66146 7.276042,1.7009 2.362353,1.03943 7.087055,2.07887 8.693454,1.60639 1.606399,-0.47247 3.118302,-2.07886 3.118302,-2.07886 0,0 -2.078868,-10.96131 -2.55134,-13.13468 -0.472469,-2.17336 0.283483,-5.57514 0.283483,-5.57514 0,0 -2.456844,0.75595 -3.590774,-0.47248 -1.133928,-1.22842 -4.346726,-7.087049 -5.38616,-10.772316 -1.039434,-3.68527 -2.267858,-7.087055 -1.795386,-9.07143 0.472469,-1.984375 3.307292,-3.685268 6.425594,-2.078868 3.118305,1.606399 4.157739,3.023809 3.779764,5.291666 -0.377979,2.267858 0.755951,9.071428 7.74851,6.709077 z"
           style="fill:#150c07;fill-opacity:1;fill-rule:evenodd;stroke:none;stroke-width:0.26458332px;stroke-linecap:butt;stroke-linejoin:miter;stroke-opacity:1" />
        <path
           sodipodi:nodetypes="csssscscscssssscssscc"
           inkscape:connector-curvature="0"
           id="path4835"
           d="m 155.72619,65.106398 c 0,0 -0.85045,6.425594 -0.66146,8.031994 0.18899,1.606399 0.37798,5.102679 0.28349,7.087054 -0.0945,1.984375 -0.37798,4.630207 0.18899,8.69345 0.56697,4.063243 2.00089,10.879415 2.26786,13.701644 l 0.66146,6.99255 c 0,0 -0.56697,-1.70089 1.60639,-1.98437 2.17337,-0.28348 2.55134,1.6064 2.55134,1.6064 0,0 -2.26785,-4.63021 -1.13393,-5.66965 1.13393,-1.03943 3.87426,-1.22842 3.87426,-1.22842 0,0 -4.15774,-2.26786 -3.1183,-3.874253 1.03943,-1.606399 7.65402,-3.496281 8.22098,-3.874257 0.56696,-0.377975 -6.3311,1.133928 -6.3311,-0.755951 0,-1.889882 -3.02381,-4.252233 -2.07887,-5.10268 0.94494,-0.850445 2.17336,-3.023809 4.06324,-2.55134 1.88988,0.472472 4.34673,4.630208 4.34673,4.630208 0,0 -2.45685,-4.157736 -1.79539,-8.126486 0.66146,-3.96875 3.11831,-7.654018 1.98438,-9.921875 -1.13393,-2.267858 -2.55134,-9.732889 -5.29167,-9.732889 -2.74033,0 -9.63839,2.078871 -9.63839,2.078871 z"
           style="fill:#150c07;fill-opacity:1;fill-rule:evenodd;stroke:none;stroke-width:0.26458332px;stroke-linecap:butt;stroke-linejoin:miter;stroke-opacity:1" />
      </g>
      <g
         style="display:inline"
         inkscape:label="Eyes"
         id="layer6-4">
        <path
           sodipodi:nodetypes="csssc"
           inkscape:connector-curvature="0"
           id="path4812"
           d="m 138.52827,82.115326 c 0,-0.566965 0.56697,-2.362351 3.49628,-4.252233 2.92932,-1.889879 4.35148,-0.965901 4.72945,0.262522 0.37798,1.228423 1.03469,2.383311 -0.7607,3.233759 -1.79539,0.850445 -7.18155,1.039434 -7.46503,0.755952 z"
           style="fill:#b09d92;fill-opacity:1;fill-rule:evenodd;stroke:none;stroke-width:0.26458332px;stroke-linecap:butt;stroke-linejoin:miter;stroke-opacity:1" />
        <path
           inkscape:connector-curvature="0"
           id="path4814"
           d="m 119.77016,83.875723 c 0,-0.400905 0.16704,-1.703843 -1.80407,-2.037929 -1.97112,-0.334087 -5.34539,-0.233863 -7.684,0.233859 -2.33861,0.467723 -5.04471,0.80181 -6.11379,1.670434 -1.06908,0.868627 -2.60588,3.875408 -2.3052,3.908817 0.30068,0.03341 1.80407,-2.539061 2.93996,-3.207235 1.1359,-0.668173 1.77066,-0.935442 2.90656,-0.801806 1.13589,0.133633 2.93996,0.501129 4.87767,0.501129 1.9377,0 4.20949,-1.135896 4.87766,-1.135896 0.66818,0 1.87089,0.935445 2.30521,0.868627 z"
           style="fill:#181411;fill-opacity:1;fill-rule:evenodd;stroke:none;stroke-width:0.26458332px;stroke-linecap:butt;stroke-linejoin:miter;stroke-opacity:1" />
        <path
           inkscape:connector-curvature="0"
           id="path4816"
           d="m 108.24416,83.240958 c 0,0 1.87088,0.300678 3.44109,0.300678 1.57021,0 4.34313,-0.367496 4.34313,-0.367496 0,0 0.43431,-0.968851 -0.23386,-0.968851 -0.66817,0 -1.63702,-0.200453 -4.07586,0.03341 -2.43883,0.233862 -3.4745,1.002262 -3.4745,1.002262 z"
           style="fill:#b09d92;fill-opacity:1;fill-rule:evenodd;stroke:none;stroke-width:0.26458332px;stroke-linecap:butt;stroke-linejoin:miter;stroke-opacity:1" />
      </g>
      <g
         inkscape:label="Hat"
         id="layer2-9">
        <path
           inkscape:connector-curvature="0"
           id="path4776"
           d="m 70.114582,71.437499 c 0,0 17.197917,-11.528274 20.032739,-10.961309 2.83482,0.566962 13.607139,11.717261 25.891369,11.528274 12.28423,-0.188989 28.72619,-4.346728 36.66369,-5.669645 7.9375,-1.322917 22.86756,-2.078868 24.56845,-3.590771 1.70089,-1.511906 6.54378,-0.617382 6.00925,-5.56187 -0.53454,-4.944486 -6.74856,-12.695301 -20.24567,-23.786986 -13.49711,-11.091686 -26.59332,-15.367998 -26.59332,-15.367998 0,0 1.06908,-1.069078 -3.0736,-2.939965 -4.14267,-1.870887 -7.75081,-1.336348 -7.75081,-1.336348 0,0 -18.97614,-4.4099467 -26.192416,-3.340869 -7.216278,1.069078 -26.192414,3.875408 -35.546847,17.372518 -9.354434,13.497113 3.073598,21.916102 3.741772,28.33057 0.668176,6.414471 2.495393,15.324399 2.495393,15.324399 z"
           style="fill:#220a0a;fill-opacity:1;fill-rule:evenodd;stroke:none;stroke-width:0.26458332px;stroke-linecap:butt;stroke-linejoin:miter;stroke-opacity:1" />
        <path
           inkscape:connector-curvature="0"
           id="path4778"
           d="m 69.490076,29.920686 c 0,3.608139 13.764381,8.151723 17.773425,12.02713 4.00904,3.875408 2.806329,12.428032 5.211754,13.096206 2.405425,0.668176 47.039435,2.405427 50.513945,4.276312 3.4745,1.870887 5.47902,2.405428 9.22079,1.469983 3.74178,-0.935443 10.15625,-2.539061 16.16981,-2.672694 6.01357,-0.133636 13.36348,3.207234 13.76438,0.668173 0.40091,-2.53906 3.4745,-7.082641 -14.69982,-20.980659 -18.17433,-13.898014 -31.00327,-20.579752 -31.00327,-19.510674 0,1.069078 17.10525,26.326047 17.10525,30.735995 0,4.409948 0.66818,9.888974 -2.00452,8.953529 -2.67269,-0.935442 -0.26727,-8.552624 -1.46998,-11.893494 -1.20271,-3.340867 -11.89349,-26.326047 -13.76438,-26.459682 -1.87089,-0.133635 -6.28084,-2.271791 -8.41899,-0.534539 -2.13816,1.737252 -8.95353,7.750816 -11.49259,16.036171 -2.53906,8.285356 -4.81085,20.446119 -5.7463,20.045215 -0.93544,-0.400905 5.21176,-23.653353 7.21628,-26.860587 2.00452,-3.207235 10.28988,-10.289877 8.28536,-11.22532 -2.00453,-0.935444 -23.78699,-1.469983 -25.79151,0.534539 -2.004524,2.004521 -6.815377,9.755338 -7.48355,8.018085 -0.668174,-1.737252 4.276312,-10.289876 6.548104,-10.824416 2.271786,-0.534539 24.187886,1.603618 24.321526,0.935444 0.13364,-0.668174 -11.75986,-6.4144687 -23.38608,-4.409947 -11.626227,2.004521 -26.593322,7.349912 -30.869634,18.57523 z"
           style="fill:#421414;fill-opacity:1;fill-rule:evenodd;stroke:none;stroke-width:0.26458332px;stroke-linecap:butt;stroke-linejoin:miter;stroke-opacity:1" />
        <path
           inkscape:connector-curvature="0"
           id="path4780"
           d="m 92.742524,59.587605 c 0,0 15.100726,1.336347 23.653356,1.737252 8.55262,0.400905 23.38608,-0.267269 26.45968,0.267269 3.0736,0.53454 2.6727,1.737251 6.81537,1.469982 4.14268,-0.267268 26.86059,-3.207234 26.86059,-2.405424 0,0.801809 0.40091,1.603615 -2.00452,1.870887 -2.40543,0.267269 -18.8425,2.138156 -29.13238,4.00904 -10.28988,1.870888 -25.3906,5.746295 -30.06782,4.677217 C 110.64958,70.14475 92.742524,61.191221 92.742524,59.587605 Z"
           style="fill:#421414;fill-opacity:1;fill-rule:evenodd;stroke:none;stroke-width:0.26458332px;stroke-linecap:butt;stroke-linejoin:miter;stroke-opacity:1" />
        <path
           sodipodi:nodetypes="csssc"
           inkscape:connector-curvature="0"
           id="path4819"
           d="m 145.66257,81.501114 c 1.18118,-0.377976 1.84264,-1.181174 1.6064,-2.787573 -0.23623,-1.606399 -1.41741,-2.031622 -2.22061,-2.031622 -0.8032,0 -2.4096,1.086681 -1.84263,2.645833 0.56696,1.55915 1.98437,2.267858 2.45684,2.173362 z"
           style="fill:#12361b;fill-opacity:1;fill-rule:evenodd;stroke:none;stroke-width:0.26458332px;stroke-linecap:butt;stroke-linejoin:miter;stroke-opacity:1" />
        <path
           inkscape:connector-curvature="0"
           id="path4821"
           d="m 145.52083,79.989211 c 0.33073,-0.141743 0.51972,-0.850448 0.33073,-1.417413 -0.18899,-0.566962 -0.42522,-0.850445 -0.66146,-0.850445 -0.23623,0 -0.47247,0.755952 -0.33073,1.322917 0.14175,0.566965 0.28349,0.992187 0.66146,0.944941 z"
           style="fill:#150c07;fill-opacity:1;fill-rule:evenodd;stroke:none;stroke-width:0.26458332px;stroke-linecap:butt;stroke-linejoin:miter;stroke-opacity:1" />
        <path
           sodipodi:nodetypes="cssscc"
           inkscape:connector-curvature="0"
           id="path4823"
           d="m 114.13211,82.134405 c 0,0 0.25293,1.140151 1.19787,1.092904 0.94495,-0.04725 0.92627,-0.450526 0.85135,-0.820396 -0.0313,-0.154704 0.15252,-0.22776 -0.67072,-0.239194 -0.61352,-0.0085 -1.27415,-0.06672 -1.3952,-0.06672 z"
           style="fill:#12361b;fill-opacity:1;fill-rule:evenodd;stroke:none;stroke-width:0.26458332px;stroke-linecap:butt;stroke-linejoin:miter;stroke-opacity:1" />
        <path
           inkscape:connector-curvature="0"
           id="path4829"
           d="m 148.35565,80.130951 c 0,0 1.7009,-2.645834 0.99219,-3.732514 -0.7087,-1.086681 -1.32292,-1.653646 -3.54353,-0.944941 -2.22061,0.708705 -3.59077,2.267857 -3.59077,2.267857 0,0 4.58296,-2.409597 5.5279,-1.322916 0.94494,1.08668 -0.42522,3.165549 -0.0472,3.496278 0.37797,0.330729 0.18898,0.519718 0.66145,0.236236 z"
           style="fill:#181411;fill-opacity:1;fill-rule:evenodd;stroke:none;stroke-width:0.26458332px;stroke-linecap:butt;stroke-linejoin:miter;stroke-opacity:1" />
        <path
           sodipodi:nodetypes="cccc"
           inkscape:connector-curvature="0"
           id="path4183"
           d="m 115.19858,82.156189 0.98556,0.03526 c 0,0 -0.12528,0.277946 -0.40926,0.298825 -0.17122,1.4e-5 -0.60971,-0.0167 -0.5763,-0.334085 z"
           style="fill:#000000;fill-opacity:1;fill-rule:evenodd;stroke:none;stroke-width:0.26458332px;stroke-linecap:butt;stroke-linejoin:miter;stroke-opacity:1" />
      </g>
    </g>
  </g>
  <g
     inkscape:groupmode="layer"
     id="layer18"
     inkscape:label="Part"
     style="display:inline" />
  <g
     inkscape:groupmode="layer"
     id="layer4"
     inkscape:label="Artist Name">
    <text
       xml:space="preserve"
       style="font-style:normal;font-variant:normal;font-weight:600;font-stretch:normal;font-size:43.88739395px;line-height:100%;font-family:Museo;-inkscape-font-specification:'Museo, Semi-Bold';text-align:start;letter-spacing:0px;word-spacing:0px;writing-mode:lr-tb;text-anchor:start;fill:#ffffff;fill-opacity:1;stroke:none;stroke-width:0.84843826px;stroke-linecap:butt;stroke-linejoin:miter;stroke-opacity:1"
       x="173.96526"
       y="77.611694"
       id="text4158"
       sodipodi:linespacing="100%"><tspan
         sodipodi:role="line"
         x="173.96526"
         y="77.611694"
         style="font-style:normal;font-variant:normal;font-weight:600;font-stretch:normal;font-size:43.88739395px;line-height:100%;font-family:Museo;-inkscape-font-specification:'Museo, Semi-Bold';text-align:start;writing-mode:lr-tb;text-anchor:start;fill:#ffffff;fill-opacity:1;stroke-width:0.84843826px"
         id="tspan4415">Teddy</tspan><tspan
         sodipodi:role="line"
         x="173.96526"
         y="121.49908"
         style="font-style:normal;font-variant:normal;font-weight:600;font-stretch:normal;font-size:43.88739395px;line-height:100%;font-family:Museo;-inkscape-font-specification:'Museo, Semi-Bold';text-align:start;writing-mode:lr-tb;text-anchor:start;fill:#ffffff;fill-opacity:1;stroke-width:0.84843826px"
         id="tspan4378">Kumpel</tspan></text>
  </g>
  <g
     inkscape:groupmode="layer"
     id="layer6"
     inkscape:label="WEIRD">
    <path
       style="opacity:1;fill:#ffffff;fill-opacity:1;stroke:none;stroke-width:17.2258606;stroke-miterlimit:4;stroke-dasharray:none;stroke-opacity:1"
       d="M 245.3457 602.625 L 245.3457 672.625 L 495.3457 672.625 L 495.3457 602.625 L 245.3457 602.625 z M 254.20703 613.5 L 258.08398 613.5 C 261.48345 613.5 263.18217 614.17987 263.99805 617.44336 L 271.4082 648.31055 C 272.02011 650.89414 272.36133 653.41016 272.36133 653.41016 L 272.49609 653.41016 C 272.49609 653.41016 272.90446 650.96213 273.65234 648.31055 L 283.30664 613.63477 L 289.42578 613.63477 L 298.40039 648.31055 C 299.08028 650.96213 299.41992 653.41016 299.41992 653.41016 L 299.55664 653.41016 C 299.55664 653.41016 299.8295 650.89414 300.44141 648.31055 L 307.98828 617.44336 C 308.80415 614.17987 310.43452 613.5 313.83398 613.5 L 317.70898 613.5 L 317.70898 619.3457 L 316.68945 619.3457 C 315.46565 619.3457 314.71885 619.61799 314.37891 620.8418 L 303.83984 661.5 L 295.95312 661.5 L 287.79492 631.17773 C 286.97905 628.05022 286.43555 624.58203 286.43555 624.58203 L 286.29883 624.58203 C 286.29883 624.58203 285.61824 628.04985 284.73438 631.10938 L 276.0332 661.5 L 268.07812 661.5 L 257.53906 620.8418 C 257.19912 619.61799 256.45232 619.3457 255.22852 619.3457 L 254.20703 619.3457 L 254.20703 613.5 z M 326.5 613.5 L 354.7168 613.5 C 357.77632 613.5 359.06641 614.79204 359.06641 617.85156 L 359.06641 623.90234 L 352.88086 623.90234 L 352.88086 620.8418 C 352.88086 619.82196 352.33662 619.3457 351.38477 619.3457 L 337.71875 619.3457 L 337.71875 634.37305 L 354.51172 634.37305 L 354.51172 640.21875 L 337.71875 640.21875 L 337.71875 654.15625 C 337.71875 655.1081 338.26299 655.65234 339.21484 655.65234 L 353.2207 655.65234 C 354.17255 655.65234 354.7168 655.1081 354.7168 654.15625 L 354.7168 651.09766 L 360.9707 651.09766 L 360.9707 657.14844 C 360.9707 660.20796 359.67866 661.5 356.61914 661.5 L 335.27148 661.5 C 332.21196 661.5 330.91992 660.20796 330.91992 657.14844 L 330.91992 619.3457 L 326.5 619.3457 L 326.5 613.5 z M 370.41406 613.5 L 386.25586 613.5 L 386.25586 619.3457 L 381.56445 619.3457 L 381.56445 655.65234 L 386.25586 655.65234 L 386.25586 661.5 L 370.41406 661.5 L 370.41406 655.65234 L 375.10547 655.65234 L 375.10547 619.3457 L 370.41406 619.3457 L 370.41406 613.5 z M 396.6543 613.5 L 417.5957 613.5 C 426.02638 613.5 431.94141 618.80359 431.94141 627.57422 C 431.94141 635.59696 426.70611 639.53923 423.30664 640.28711 L 423.30664 640.42383 C 423.30664 640.42383 424.52983 641.03585 425.3457 642.59961 L 431.125 654.08984 C 431.80489 655.51762 432.89365 655.65234 434.52539 655.65234 L 435.4082 655.65234 L 435.4082 661.5 L 432.07812 661.5 C 428.33871 661.5 426.97782 661.02399 425.41406 657.89648 L 418.88672 644.97852 C 417.66291 642.73487 416.78049 642.39453 414.12891 642.39453 L 407.87305 642.39453 L 407.87305 661.5 L 401.07422 661.5 L 401.07422 619.3457 L 396.6543 619.3457 L 396.6543 613.5 z M 443.75 613.5 L 463.19531 613.5 C 477.81302 613.5 487.4668 622.27002 487.4668 637.43164 C 487.4668 652.66125 477.81302 661.5 463.19531 661.5 L 452.51953 661.5 C 449.46001 661.5 448.16992 660.20796 448.16992 657.14844 L 448.16992 619.3457 L 443.75 619.3457 L 443.75 613.5 z M 407.87305 619.3457 L 407.87305 636.54883 L 416.71094 636.54883 C 421.87813 636.54883 424.9375 633.21686 424.9375 627.8457 C 424.9375 622.47455 421.87887 619.3457 416.84766 619.3457 L 407.87305 619.3457 z M 454.96875 619.3457 L 454.96875 654.15625 C 454.96875 655.1081 455.51299 655.65234 456.46484 655.65234 L 462.71875 655.65234 C 473.39308 655.65234 480.39648 649.26179 480.39648 637.43164 C 480.39648 625.66949 473.32509 619.3457 462.71875 619.3457 L 454.96875 619.3457 z "
       transform="scale(0.26458334)"
       id="rect4172" />
  </g>
  <g
     inkscape:groupmode="layer"
     id="layer7"
     inkscape:label="MAKE">
    <text
       xml:space="preserve"
       style="font-style:normal;font-variant:normal;font-weight:normal;font-stretch:normal;font-size:17.99166679px;line-height:100%;font-family:Museo;-inkscape-font-specification:'Museo, Normal';text-align:start;letter-spacing:0px;word-spacing:0px;writing-mode:lr-tb;text-anchor:start;fill:#ffffff;fill-opacity:1;stroke:none;stroke-width:0.26458335px;stroke-linecap:butt;stroke-linejoin:miter;stroke-opacity:1"
       x="10.690782"
       y="175.02188"
       id="text4175"
       sodipodi:linespacing="100%"><tspan
         sodipodi:role="line"
         id="tspan4177"
         x="10.690782"
         y="175.02188"
         style="font-style:normal;font-variant:normal;font-weight:normal;font-stretch:normal;font-size:17.99166679px;line-height:100%;font-family:Museo;-inkscape-font-specification:'Museo, Normal';text-align:start;writing-mode:lr-tb;text-anchor:start;fill:#ffffff;fill-opacity:1;stroke-width:0.26458335px;letter-spacing:1.32291669px">MAKE</tspan></text>
  </g>
  <g
     inkscape:groupmode="layer"
     id="layer8"
     inkscape:label="MUSIC">
    <text
       xml:space="preserve"
       style="font-style:normal;font-variant:normal;font-weight:normal;font-stretch:normal;font-size:17.99166679px;line-height:100%;font-family:Museo;-inkscape-font-specification:'Museo, Normal';text-align:start;letter-spacing:0px;word-spacing:0px;writing-mode:lr-tb;text-anchor:start;fill:#ffffff;fill-opacity:1;stroke:none;stroke-width:0.26458335px;stroke-linecap:butt;stroke-linejoin:miter;stroke-opacity:1"
       x="134.21758"
       y="174.80598"
       id="text4180"
       sodipodi:linespacing="100%"><tspan
         sodipodi:role="line"
         id="tspan4182"
         x="134.21758"
         y="174.80598"
         style="font-style:normal;font-variant:normal;font-weight:normal;font-stretch:normal;font-size:17.99166679px;line-height:100%;font-family:Museo;-inkscape-font-specification:'Museo, Normal';text-align:start;writing-mode:lr-tb;text-anchor:start;fill:#ffffff;fill-opacity:1;stroke-width:0.26458335px">MUSIC</tspan></text>
  </g>
</svg>
