<?xml version="1.0" encoding="UTF-8" standalone="no"?>
<!-- Created with Inkscape (http://www.inkscape.org/) -->

<svg
   xmlns:dc="http://purl.org/dc/elements/1.1/"
   xmlns:cc="http://creativecommons.org/ns#"
   xmlns:rdf="http://www.w3.org/1999/02/22-rdf-syntax-ns#"
   xmlns:svg="http://www.w3.org/2000/svg"
   xmlns="http://www.w3.org/2000/svg"
   xmlns:sodipodi="http://sodipodi.sourceforge.net/DTD/sodipodi-0.dtd"
   xmlns:inkscape="http://www.inkscape.org/namespaces/inkscape"
   width="1000"
   height="1000"
   viewBox="0 0 264.58333 264.58334"
   version="1.1"
   id="svg8"
   inkscape:version="0.92.1 r15371"
   sodipodi:docname="markus-reuter-2017.svg"
   inkscape:export-filename="C:\Users\Anthony Garone\Documents\GitHub\art\markus-reuter\markus-reuter-2017.png"
   inkscape:export-xdpi="96"
   inkscape:export-ydpi="96">
  <defs
     id="defs2" />
  <sodipodi:namedview
     id="base"
     pagecolor="#ffffff"
     bordercolor="#666666"
     borderopacity="1.0"
     inkscape:pageopacity="0.0"
     inkscape:pageshadow="2"
     inkscape:zoom="0.7"
     inkscape:cx="595.66127"
     inkscape:cy="497.28442"
     inkscape:document-units="px"
     inkscape:current-layer="layer1"
     showgrid="false"
     units="px"
     showguides="true"
     inkscape:guide-bbox="true"
     inkscape:window-width="1920"
     inkscape:window-height="1017"
     inkscape:window-x="-8"
     inkscape:window-y="-8"
     inkscape:window-maximized="1"
     inkscape:snap-global="true">
    <sodipodi:guide
       position="264.58334,264.58334"
       orientation="1,0"
       id="guide10"
       inkscape:locked="false"
       inkscape:label=""
       inkscape:color="rgb(0,0,255)" />
    <sodipodi:guide
       position="0,0"
       orientation="1,0"
       id="guide12"
       inkscape:locked="false"
       inkscape:label=""
       inkscape:color="rgb(0,0,255)" />
    <sodipodi:guide
       position="264.58334,264.58334"
       orientation="0,1"
       id="guide14"
       inkscape:locked="false"
       inkscape:label=""
       inkscape:color="rgb(0,0,255)" />
    <sodipodi:guide
       position="0,0"
       orientation="0,1"
       id="guide16"
       inkscape:locked="false"
       inkscape:label=""
       inkscape:color="rgb(0,0,255)" />
  </sodipodi:namedview>
  <metadata
     id="metadata5">
    <rdf:RDF>
      <cc:Work
         rdf:about="">
        <dc:format>image/svg+xml</dc:format>
        <dc:type
           rdf:resource="http://purl.org/dc/dcmitype/StillImage" />
        <dc:title></dc:title>
      </cc:Work>
    </rdf:RDF>
  </metadata>
  <g
     inkscape:label="BG"
     inkscape:groupmode="layer"
     id="layer1"
     style="display:none"
     transform="translate(0,-32.41665)">
    <rect
       id="rect4493"
       width="264.58334"
       height="264.58334"
       x="0"
       y="32.416641"
       style="fill:#ffffff;fill-opacity:1;stroke-width:0.26458332" />
  </g>
  <g
     inkscape:groupmode="layer"
     id="layer2"
     inkscape:label="Head"
     style="display:inline">
    <path
       style="fill:#4d4d4d;fill-opacity:1;stroke:none;stroke-width:0.26458332px;stroke-linecap:butt;stroke-linejoin:miter;stroke-opacity:1"
       d="m 42.427826,111.69196 20.97768,3.49628 v 9.35491 l -22.489583,-6.2366 z"
       id="path4593"
       inkscape:connector-curvature="0" />
    <path
       style="fill:#cccccc;fill-opacity:1;stroke:none;stroke-width:0.26458332px;stroke-linecap:butt;stroke-linejoin:miter;stroke-opacity:1"
       d="m 162.76714,161.68456 c 0,9.08717 2.00452,18.97614 -6.1472,27.39513 -8.15172,8.41899 -45.83672,29.26601 -52.25119,29.39965 -6.414469,0.13363 -10.690781,-1.46998 -13.764382,-1.73726 -3.073598,-0.26726 -8.285356,0.66818 -11.759859,-2.00452 -3.474503,-2.67269 -24.321526,-52.11755 -22.71791,-70.69279 1.603618,-18.57523 4.197749,-20.07142 1.650143,-25.57101 -2.547607,-5.49959 1.016449,-9.82345 3.558563,-16.78183 2.542112,-6.958382 3.076649,-19.787321 8.822944,-30.21083 5.746295,-10.423512 13.096208,-22.717911 34.878671,-20.71339 21.78247,2.004523 47.03944,10.022607 50.24667,23.386084 3.20724,13.363477 11.95938,35.059626 11.15061,46.058806 -0.80876,10.99918 -3.66706,41.47196 -3.66706,41.47196 z"
       id="path4534"
       inkscape:connector-curvature="0" />
    <path
       style="fill:#808080;stroke:none;stroke-width:0.26458332px;stroke-linecap:butt;stroke-linejoin:miter;stroke-opacity:1"
       d="m 56.928408,115.98147 c 0,0 10.156243,-2.40542 14.566191,-2.27179 4.409945,0.13364 4.142676,-3.74177 -0.534541,-5.47902 -4.677216,-1.73725 -16.971615,3.74177 -14.03165,7.75081 z"
       id="path4559"
       inkscape:connector-curvature="0" />
    <path
       style="fill:#333333;stroke:none;stroke-width:0.26458332px;stroke-linecap:butt;stroke-linejoin:miter;stroke-opacity:1;fill-opacity:1"
       d="m 112.52047,194.02418 c -8.01808,4.54358 -35.546848,32.07234 -40.624969,35.0123 -5.078119,2.93997 -41.426775,10.95805 -52.652095,15.7689 -11.2253204,4.81086 -36.081386,19.77795 -34.477769,19.77795 1.603617,0 153.947243,0 153.947243,0 z"
       id="path4599"
       inkscape:connector-curvature="0" />
    <path
       style="fill:#b3b3b3;stroke:none;stroke-width:0.26458332px;stroke-linecap:butt;stroke-linejoin:miter;stroke-opacity:1"
       d="m 170.38432,165.42634 c 0,0 5.61266,22.38382 2.93996,31.33735 -2.67269,8.95352 -76.706346,67.41874 -76.706346,67.41874 0,0 -7.216277,-27.6624 -6.815373,-34.2105 0.400902,-6.54811 0.801807,-9.75534 -0.133635,-11.62623 -0.935443,-1.87088 -1.870888,-2.40542 -1.870888,-2.40542 0,0 44.366742,-13.22984 57.062042,-27.52877 12.69531,-14.29891 19.24341,-27.12785 19.24341,-27.12785 0,0 4.81085,1.33635 6.28083,4.14268 z"
       id="path4569"
       inkscape:connector-curvature="0"
       sodipodi:nodetypes="cscsccccc" />
    <path
       style="fill:#333333;stroke:none;stroke-width:0.26458332px;stroke-linecap:butt;stroke-linejoin:miter;stroke-opacity:1"
       d="m 165.03893,114.64513 -0.93544,41.82768 22.317,-34.07687 z"
       id="path4589"
       inkscape:connector-curvature="0" />
    <path
       style="fill:#808080;fill-opacity:1;stroke:none;stroke-width:0.99999994px;stroke-linecap:butt;stroke-linejoin:miter;stroke-opacity:1"
       d="m 598.00937,453.50828 c -3.03042,31.31475 -31.31292,178.29139 -41.91953,191.42336 -10.6066,13.13201 -62.12464,56.56755 -70.71093,51.01172 -8.5863,-5.55583 -27.77897,-54.04183 -38.89063,-59.59766 -11.11166,-5.55583 -94.95513,-48.99295 -110.10742,-49.49804 -15.15229,-0.50506 -19.19298,12.12189 -25.25391,12.62695 -6.0609,0.5051 -14.14262,-10.60587 -26.76953,-7.07031 -12.62691,3.53552 -55.05194,66.16448 -54.54687,72.73047 0.50507,6.56598 46.46648,140.91644 65.15429,152.5332 18.68784,11.61675 42.4266,1.5152 50.50782,2.52539 8.08122,1.01012 38.89062,11.11172 46.46679,10.10156 7.57614,-1.01015 197.48444,-76.26702 212.63672,-133.8457 15.15228,-57.57872 39.39604,-222.73945 33.33515,-225.26482 -6.06093,-2.52536 -39.90195,-17.67612 -39.90195,-17.67612 z M 325.67188,622.6875 c 0.19946,-0.002 0.40223,0.004 0.60742,0.0195 6.56598,0.5051 70.20552,26.26447 79.29687,34.3457 9.09139,8.0812 10.60704,40.91177 11.61719,54.54883 1.01015,13.63707 -30.30475,14.6465 -47.98242,19.69727 -17.67767,5.05077 -13.13166,-30.30355 -18.6875,-35.85938 -5.55584,-5.55583 -55.55823,-3.03163 -61.61914,-2.02148 -14.01587,1.51525 -7.57618,16.66767 -7.57618,35.35547 0,18.68783 -18.68791,10e-4 -25.2539,-24.24219 -6.56599,-24.24363 25.75816,-40.40628 14.64648,-47.98242 -11.11168,-7.57614 11.61722,-26.76991 19.19336,-28.28516 7.57614,-1.51521 12.12229,5.05117 19.19336,4.04102 6.8501,-0.97859 10.38092,-9.54216 16.56446,-9.61719 z"
       transform="scale(0.26458333)"
       id="path4541"
       inkscape:connector-curvature="0"
       sodipodi:nodetypes="ccsscccsccsscccccssscssscccc" />
    <path
       style="fill:#b3b3b3;fill-opacity:1;stroke:none;stroke-width:0.26458332px;stroke-linecap:butt;stroke-linejoin:miter;stroke-opacity:1"
       d="m 105.57146,174.78077 c -6.548101,-3.20724 -15.234361,-8.01809 -18.307959,-7.34991 -3.073601,0.66817 -3.474506,1.87089 -5.746295,1.46998 -2.271792,-0.4009 -4.409948,-1.20271 -6.280835,-0.66817 -1.870888,0.53453 -4.276313,4.67721 -2.27179,6.01356 2.004521,1.33635 0.267269,4.54358 4.009041,5.61266 3.741775,1.06908 9.48807,1.73725 15.768902,-0.80181 6.280835,-2.53906 12.828936,-4.27631 12.828936,-4.27631 z"
       id="path4545"
       inkscape:connector-curvature="0" />
    <path
       style="fill:#808080;stroke:none;stroke-width:0.26458332px;stroke-linecap:butt;stroke-linejoin:miter;stroke-opacity:1"
       d="m 98.75609,113.70968 c -1.069078,-1.87088 1.069078,-5.74629 2.40543,-5.74629 1.33634,0 25.3906,0.93544 27.39512,2.67269 2.00452,1.73726 3.87541,5.7463 1.33635,4.94449 -2.53906,-0.80181 -26.99422,-2.6727 -31.1369,-1.87089 z"
       id="path4561"
       inkscape:connector-curvature="0" />
    <path
       style="fill:#4d4d4d;fill-opacity:1;stroke:none;stroke-width:0.26458332px;stroke-linecap:butt;stroke-linejoin:miter;stroke-opacity:1"
       d="m 61.605625,144.98022 c 0,0 -1.870887,-3.74178 -1.469983,-5.7463 0.400905,-2.00452 5.612662,-6.28083 5.612662,-9.75533 0,-3.47451 -1.069078,-4.00905 0,-4.94449 1.069078,-0.93544 1.469983,-1.06908 1.469983,-1.06908 0,0 4.543581,1.77066 7.182865,0.13363 2.672697,-1.60361 5.245167,-3.8754 5.111531,-4.67721 -0.133633,-0.80181 -4.276312,-2.13816 -9.755338,-0.13363 -5.479024,2.00452 -5.211755,2.67269 -7.483547,2.40542 -2.271789,-0.26727 -2.939962,-0.53454 -2.939962,-3.0736 0,-2.53906 0.267268,-2.7061 0.267268,-2.7061 0,0 -2.405427,4.17608 10e-7,6.04697 2.405424,1.87089 2.806329,4.00904 2.806329,4.00904 0,0 1.870887,-2.93996 2.00452,-2.13815 0.133636,0.80181 0.935445,4.94448 -0.267268,6.81537 -1.202714,1.87089 -5.61266,6.81537 -5.078122,9.48807 0.534541,2.67269 0,4.94448 2.539061,5.34539 z"
       id="path4582"
       inkscape:connector-curvature="0"
       sodipodi:nodetypes="csssccccsscsccscc" />
    <path
       style="fill:#f9f9f9;stroke:none;stroke-width:0.26458332px;stroke-linecap:butt;stroke-linejoin:miter;stroke-opacity:1"
       d="m 68.821902,120.12415 c 0,0 -3.875407,0.80181 -2.806329,2.53906 1.069078,1.73725 4.944485,1.60362 4.944485,1.60362 0,0 -2.405424,-1.73725 -2.138156,-4.14268 z"
       id="path4555"
       inkscape:connector-curvature="0" />
    <path
       style="fill:#4d4d4d;fill-opacity:1;stroke:none;stroke-width:0.26458332px;stroke-linecap:butt;stroke-linejoin:miter;stroke-opacity:1"
       d="m 112.67031,118.05647 c 0,0 7.30372,1.11199 8.81563,1.58445 1.5119,0.47247 0.46674,3.75684 0.46674,3.75684 0,0 -4.14808,1.38499 -7.94799,0.39992 -1.79538,-0.28349 -3.60223,-4.60728 -1.33438,-5.74121 z"
       id="path4587"
       inkscape:connector-curvature="0"
       sodipodi:nodetypes="ccccc" />
    <path
       style="fill:#f9f9f9;fill-opacity:1;stroke:none;stroke-width:0.26458332px;stroke-linecap:butt;stroke-linejoin:miter;stroke-opacity:1"
       d="m 115.86134,124.26683 c 0,0 -9.35443,-0.93544 -9.48807,-2.40543 -0.13363,-1.46998 3.20723,-3.8754 4.54358,-3.8754 1.33635,0 1.87089,0.13363 1.87089,0.13363 0,0 -0.93544,4.81085 3.0736,6.1472 z"
       id="path4557"
       inkscape:connector-curvature="0" />
    <path
       style="fill:#f9f9f9;fill-opacity:1;stroke:none;stroke-width:0.26458332px;stroke-linecap:butt;stroke-linejoin:miter;stroke-opacity:1"
       d="m 119.46948,123.99956 c 0,0 7.88445,-1.06908 7.21628,-1.87089 -0.66818,-0.8018 -5.21176,-2.53906 -5.21176,-2.53906 0,0 0.93544,3.34087 -2.00452,4.40995 z"
       id="path4563"
       inkscape:connector-curvature="0" />
    <path
       style="display:inline;fill:#4d4d4d;fill-opacity:1;stroke:none;stroke-width:0.99999994px;stroke-linecap:butt;stroke-linejoin:miter;stroke-opacity:1"
       d="m 504.57031,421.6875 -174.25,7.57617 v 27.27344 c 0,0 -6.56723,29.29613 -17.17383,38.89258 -10.6066,9.59644 -45.11489,57.65601 -45.61997,70.28292 -0.50508,12.62691 41.65185,16.00379 54.27876,14.99364 10.27082,-0.50703 17.94094,-0.12273 24.42423,2.85841 6.48328,2.98114 25.00099,3.28373 35.10253,-3.78732 10.10151,-7.07108 -2.5246,-28.28552 0.50586,-24.75 3.03046,3.53556 158.08913,-3.5344 175.26172,-8.08007 17.17259,-4.54568 38.38477,-82.83399 38.38477,-82.83399 z m -37.30078,6.00781 c 1.48175,0.004 2.97321,0.0212 4.47266,0.0527 47.98223,1.01019 98.48825,39.90164 90.91211,62.125 -7.57618,22.22335 -21.21179,40.40626 -39.39453,45.45703 -18.18274,5.05077 -132.33086,16.16127 -137.88672,8.08008 -5.55583,-8.08124 -25.75777,-59.09338 -15.65625,-70.20508 5.55584,-0.50506 13.13052,19.69768 24.24218,21.21289 11.1117,1.51525 9.0918,-1.51367 9.0918,-1.51367 0,0 -32.97775,-15.28479 -24.24414,-29.80078 10.8876,-18.0961 41.48856,-18.47907 41.48856,-18.47907 0,0 -27.65716,-3.84155 -27.15207,-6.36692 0.48928,-2.44649 28.19212,-10.67833 74.1264,-10.56222 z"
       transform="scale(0.26458333)"
       id="path4576"
       inkscape:connector-curvature="0"
       sodipodi:nodetypes="cccssczccscccscsccccscccc" />
    <path
       style="fill:#999999;stroke:none;stroke-width:0.99999994px;stroke-linecap:butt;stroke-linejoin:miter;stroke-opacity:1"
       d="m 442.61328,416.11133 c -35.81967,0.074 -102.27118,8.60742 -120.375,8.60742 -18.68782,0 -65.15438,-4.5469 -87.88281,-7.07227 -22.72843,-2.52536 -76.26642,3.03048 -79.29688,5.05079 -3.03046,2.0203 -3.53594,16.66874 -4.04101,22.22461 -0.50508,5.55581 8.58673,2.52385 11.61719,9.08984 3.03046,6.56598 7.57617,66.16566 7.57617,74.75195 0,8.58629 20.70714,18.18204 51.01172,22.22266 30.30457,4.04058 42.93282,-1.00898 47.47851,-5.55469 4.54568,-4.54567 17.17111,-44.44696 21.7168,-58.08398 4.54568,-13.63707 10.1016,-30.81055 22.72851,-30.81055 23.23351,1.01012 42.93283,85.35862 47.47852,89.9043 4.54569,4.54571 4.54426,5.05156 41.91992,8.08203 37.37564,3.03046 82.83403,-11.6184 87.88477,-16.16406 5.05077,-4.54572 19.69807,-74.24494 25.2539,-82.32618 5.55583,-8.08123 10.60547,-6.5664 10.60547,-6.5664 l 114.65235,31.82031 -2.52539,-36.87109 c 0,0 -116.16798,-27.7793 -123.74414,-27.7793 -7.57614,0 -33.83923,10e-4 -68.68946,-0.50391 -1.08907,-0.0158 -2.21367,-0.0239 -3.36914,-0.0215 z m -244.48633,9.54883 c 16.18513,-0.0289 36.76483,2.12064 52.39063,4.10937 27.7792,3.53556 33.84103,10.10043 38.38672,20.70703 1.51523,12.62691 -28.28479,84.34728 -34.34571,90.40821 -6.06091,6.06092 -71.21603,-8.08086 -75.76171,-13.63672 -4.5457,-5.55583 -12.62655,-87.88246 -6.06055,-96.46875 2.87262,-3.75651 12.80219,-5.0967 25.39062,-5.11914 z M 431.9668,427.875 c 27.02158,-0.12627 52.40157,1.13576 56.94726,4.92383 9.09139,7.57614 -5.05121,91.41915 -11.61718,98.49023 -6.56599,7.07108 -96.46879,19.19333 -104.04493,11.61719 -7.57615,-7.57614 -37.37694,-84.85242 -34.85156,-97.98437 4.04061,-7.57618 4.54617,-10.10316 26.76953,-13.63868 11.11167,-1.76778 39.7753,-3.28193 66.79688,-3.4082 z"
       transform="scale(0.26458333)"
       id="path4549"
       inkscape:connector-curvature="0" />
    <path
       style="display:inline;fill:#333333;stroke:none;stroke-width:0.26458332px;stroke-linecap:butt;stroke-linejoin:miter;stroke-opacity:1"
       d="m 149.00276,105.2341 c 3.87541,11.09168 -0.2691,21.10736 0.93544,25.65787 1.20454,4.55051 6.81538,16.70435 17.10525,20.84702 10.28988,4.14268 17.37252,6.28084 17.77342,12.56167 0.40091,6.28084 0.80181,10.55715 0.80181,10.55715 0,0 6.81538,-5.21176 5.87993,-15.10073 -0.93544,-9.88897 -3.34087,-13.76438 2.40543,-18.70887 5.74629,-4.94448 2.53906,-20.44612 2.53906,-20.44612 0,0 9.08716,-6.01356 4.00904,-11.09168 -5.07812,-5.07812 -11.22532,-3.74178 -11.22532,-3.74178 0,0 -0.53454,-4.67721 9.62171,-8.01808 10.15624,-3.34087 14.56619,-2.53906 14.56619,-2.53906 0,0 -11.35896,-3.741775 -21.64884,0.801809 -10.28987,4.543581 -11.49259,-7.617182 -7.75081,-11.091688 3.74177,-3.474503 13.63074,-10.69078 13.63074,-10.69078 0,0 -11.09168,7.082644 -16.97161,6.548104 -5.87993,-0.534538 4.40995,-22.985179 4.40995,-22.985179 0,0 -14.56619,21.247927 -24.05426,16.837979 -9.48807,-4.409948 4.94448,-12.962572 4.94448,-12.962572 0,0 -11.22532,3.34087 -16.1698,0.267271 -4.94449,-3.0736 -7.75082,-10.958051 -7.75082,-10.958051 0,0 -10.42351,10.289875 -14.29892,8.418991 -3.8754,-1.870888 -1.46998,-20.579754 -1.46998,-20.579754 0,0 -7.08264,18.976136 -12.2944,17.639788 C 108.7787,55.12106 99.691535,37.347637 92.207986,36.278559 c -7.483548,-1.069078 -18.307962,4.276313 -18.307962,4.276313 0,0 18.307962,-4.276313 18.708867,9.755337 0.400905,14.03165 -20.045214,-6.013564 -27.261492,-1.202713 -7.216277,4.810852 -10.958052,18.842502 -10.958052,18.842502 0,0 11.326415,-26.135164 18.842503,-11.893494 4.694987,8.896177 -16.528239,5.047122 -25.256971,21.648832 -6.815371,12.962572 -7.483546,20.045214 -7.483546,20.045214 0,0 10.824417,-31.270535 18.976136,-21.782468 5.111429,5.949369 -14.165284,25.123338 -14.165284,25.123338 0,0 11.759859,-12.02713 14.031651,-5.211757 2.271789,6.815377 -0.534541,15.902537 -0.534541,15.902537 0,0 6.013564,0.53454 6.013564,2.27179 0,1.73725 -3.474503,4.67722 -3.474503,4.67722 0,0 3.34087,1.73725 1.469983,4.27631 -1.870888,2.53906 -4.543581,2.27179 -5.078122,4.94448 -0.53454,2.6727 0.534541,3.60814 0.534541,3.60814 0,0 3.608136,-5.87992 3.207234,-3.34086 -0.400905,2.53906 -3.073601,12.02712 -3.073601,12.02712 0,0 1.561696,-1.16356 4.76893,-12.38889 3.207234,-11.22531 4.585503,-15.54078 9.529989,-23.42523 4.944486,-7.884444 15.234364,-13.764372 25.79151,-13.898007 10.17124,-0.12875 47.03944,3.741774 50.51394,14.699827 z"
       id="path4565"
       inkscape:connector-curvature="0"
       sodipodi:nodetypes="czscccscscscsscscscscccszczscsscscscscsccccsssc"
       transform="translate(0,-32.41665)" />
    <path
       style="fill:#b3b3b3;fill-opacity:1;stroke:none;stroke-width:0.26458332px;stroke-linecap:butt;stroke-linejoin:miter;stroke-opacity:1"
       d="m 164.10349,159.54641 c 0,0 -1.20271,4.67721 2.27179,6.01356 3.4745,1.33635 10.69078,-3.0736 14.96709,-13.0962 4.27631,-10.02261 9.6217,-21.5152 6.68174,-25.65788 -2.93996,-4.14268 -13.22984,-5.61266 -16.30344,-0.93544 -3.0736,4.67721 -7.61718,31.67144 -7.61718,33.67596 z"
       id="path4571"
       inkscape:connector-curvature="0" />
    <path
       style="fill:#cccccc;fill-opacity:1;stroke:none;stroke-width:0.26458332px;stroke-linecap:butt;stroke-linejoin:miter;stroke-opacity:1"
       d="m 84.457169,121.59413 c -1.603616,0 -3.474503,2.00453 -5.078119,5.3454 -1.603619,3.34087 -3.87541,8.15172 -5.479026,9.88897 -1.603619,1.73725 -3.34087,5.34539 -3.608139,7.21627 -0.267269,1.87089 -1.870887,2.2718 -1.469983,4.81086 0.400905,2.53906 5.746295,4.00904 5.746295,4.00904 0,0 -5.34539,-3.60814 -2.806329,-2.6727 2.53906,0.93545 7.216277,4.14268 9.220798,4.14268 2.004523,0 2.138156,-0.66817 2.138156,-0.66817 0,0 -3.474503,-2.80633 1.336347,-3.74178 4.810852,-0.93544 8.151722,0.26727 6.949008,1.33635 -1.202714,1.06908 -4.276312,2.27179 -4.276312,2.27179 0,0 9.854579,0.4353 9.787762,-2.17058 -0.06682,-2.60588 -1.357915,-4.52312 -4.442372,-6.38204 -3.084457,-1.85892 -13.911444,1.19322 -13.911444,-2.54856 0,-3.74177 6.026993,-10.68128 7.36334,-13.22034 1.33635,-2.53906 1.870887,-5.61266 -1.469982,-7.61719 z"
       id="path4547"
       inkscape:connector-curvature="0"
       sodipodi:nodetypes="cssssccsccsczzssc" />
    <path
       style="fill:#4d4d4d;stroke:none;stroke-width:0.26458332px;stroke-linecap:butt;stroke-linejoin:miter;stroke-opacity:1"
       d="m 73.632755,175.44894 c 0,0 1.469983,-1.33634 3.608139,-1.73725 2.138156,-0.4009 3.474503,0.40091 7.216275,0.26727 3.741774,-0.13363 11.22532,-0.53454 11.22532,0.53454 0,1.06908 -8.285355,4.67722 -7.34991,5.21176 0.935442,0.53453 8.552624,-2.40543 10.958049,-2.93997 2.405422,-0.53454 6.280832,-1.73725 6.280832,-1.73725 0,0 -9.755335,-5.21176 -12.6953,-6.28084 -2.939965,-1.06907 -6.681737,3.60814 -6.1472,4.14268 0.534541,0.53454 -2.672693,0.26727 -4.009043,0.26727 -1.336347,0 -4.677217,-0.4009 -5.746295,0 -1.069078,0.40091 -3.875407,1.80407 -4.710626,1.83748 -0.835215,0.0334 -1.436573,1.26953 1.369759,0.43431 z"
       id="path4584"
       inkscape:connector-curvature="0" />
    <path
       style="fill:#4d4d4d;fill-opacity:1;stroke:none;stroke-width:0.26458332px;stroke-linecap:butt;stroke-linejoin:miter;stroke-opacity:1"
       d="m 105.90555,122.93048 c 0,0 -1.1359,-0.73499 0,-2.13815 1.13589,-1.40317 4.00904,-2.60588 5.0113,-2.6727 1.00226,-0.0668 10.49033,1.40317 11.8935,2.00452 1.40316,0.60136 3.94222,2.27179 4.27631,2.13816 0.33409,-0.13364 -3.87541,-2.60588 -6.48129,-3.27405 -2.60587,-0.66818 -9.35443,-1.46999 -10.42351,-1.46999 -1.06908,0 -9.15398,3.27406 -4.27631,5.41221 z"
       id="path4591"
       inkscape:connector-curvature="0" />
    <path
       style="fill:#8e8e8e;fill-opacity:1;stroke:none;stroke-width:0.26458332px;stroke-linecap:butt;stroke-linejoin:miter;stroke-opacity:1"
       d="m 75.236371,184.40247 c 1.603618,-0.93544 8.953529,-1.33635 9.888974,-0.26727 0.935442,1.06908 0.935442,11.09169 0.133633,14.16529 -0.801809,3.0736 5.34539,13.0962 4.409948,15.23436 -0.935443,2.13816 -3.87541,4.64381 -8.552627,3.30746 -4.677216,-1.33635 -5.980154,-5.98015 -7.182865,-8.11831 -1.202714,-2.13816 -13.129618,-31.37076 -12.595078,-33.00779 0.768399,-1.33635 11.626225,-17.77342 14.83346,-18.04069 3.207234,-0.26727 5.078118,2.00452 5.479023,2.40542 0.400905,0.40091 1.33635,6.41448 0.267271,6.41448 -1.069078,0 -3.474505,-1.33635 -4.810852,-1.06908 -1.336347,0.26727 -7.483546,4.67721 -7.082642,7.08264 0.400905,2.40542 1.870885,2.13816 1.069078,3.20723 -0.801809,1.06908 -4.810852,6.81538 -4.677217,8.55263 0.133634,1.73725 4.543581,12.96257 7.617183,11.35895 3.073598,-1.60361 -0.267272,-10.42351 1.202711,-11.22532 z"
       id="path4595"
       inkscape:connector-curvature="0"
       sodipodi:nodetypes="ccsssccscssccscc" />
    <path
       style="fill:#333333;fill-opacity:1;stroke:none;stroke-width:0.26458332px;stroke-linecap:butt;stroke-linejoin:miter;stroke-opacity:1"
       d="m 173.67056,183.78617 c 0,4.53571 -2.25836,11.06055 -4.7152,14.27335 -2.45685,3.2128 -78.430063,66.52381 -78.430063,66.52381 H 292.11209 c 0,0 -17.04395,-15.32732 -27.52876,-21.73363 -10.48481,-6.40631 -24.75744,-13.22917 -35.15178,-16.06399 -10.39435,-2.83482 -24.75745,-10.77232 -30.2381,-12.6622 -5.48065,-1.88988 -13.79613,-3.59077 -16.25298,-6.99256 -2.45684,-3.40179 -6.81307,-23.91174 -9.26991,-23.34478 z"
       id="path4597"
       inkscape:connector-curvature="0"
       sodipodi:nodetypes="cccczsscc" />
  </g>
</svg>
