<?xml version="1.0" encoding="UTF-8" standalone="no"?>
<!-- Created with Inkscape (http://www.inkscape.org/) -->

<svg
   xmlns:dc="http://purl.org/dc/elements/1.1/"
   xmlns:cc="http://creativecommons.org/ns#"
   xmlns:rdf="http://www.w3.org/1999/02/22-rdf-syntax-ns#"
   xmlns:svg="http://www.w3.org/2000/svg"
   xmlns="http://www.w3.org/2000/svg"
   xmlns:sodipodi="http://sodipodi.sourceforge.net/DTD/sodipodi-0.dtd"
   xmlns:inkscape="http://www.inkscape.org/namespaces/inkscape"
   width="1000"
   height="1000"
   viewBox="0 0 264.58333 264.58334"
   id="svg4332"
   version="1.1"
   inkscape:version="0.91+devel r13925"
   sodipodi:docname="michael-manring.svg"
   inkscape:export-filename="/Users/agarone/Documents/git/art/michael-manring/michael-manring.png"
   inkscape:export-xdpi="95.951363"
   inkscape:export-ydpi="95.951363">
  <defs
     id="defs4334" />
  <sodipodi:namedview
     id="base"
     pagecolor="#ffffff"
     bordercolor="#666666"
     borderopacity="1.0"
     inkscape:pageopacity="0.0"
     inkscape:pageshadow="2"
     inkscape:zoom="2.8"
     inkscape:cx="294.83277"
     inkscape:cy="922.47087"
     inkscape:document-units="px"
     inkscape:current-layer="layer24"
     showgrid="false"
     units="px"
     showguides="true"
     inkscape:guide-bbox="true"
     inkscape:window-width="1920"
     inkscape:window-height="1075"
     inkscape:window-x="0"
     inkscape:window-y="1"
     inkscape:window-maximized="1">
    <sodipodi:guide
       position="264.58333,0"
       orientation="1,0"
       id="guide4340"
       inkscape:label=""
       inkscape:color="rgb(0,0,255)" />
    <sodipodi:guide
       position="0,0"
       orientation="1,0"
       id="guide4342"
       inkscape:label=""
       inkscape:color="rgb(0,0,255)" />
    <sodipodi:guide
       position="0,0"
       orientation="0,1"
       id="guide4344"
       inkscape:label=""
       inkscape:color="rgb(0,0,255)" />
    <sodipodi:guide
       position="0,264.58333"
       orientation="0,1"
       id="guide4346"
       inkscape:label=""
       inkscape:color="rgb(0,0,255)" />
  </sodipodi:namedview>
  <metadata
     id="metadata4337">
    <rdf:RDF>
      <cc:Work
         rdf:about="">
        <dc:format>image/svg+xml</dc:format>
        <dc:type
           rdf:resource="http://purl.org/dc/dcmitype/StillImage" />
        <dc:title />
      </cc:Work>
    </rdf:RDF>
  </metadata>
  <g
     inkscape:label="BG"
     inkscape:groupmode="layer"
     id="layer1"
     transform="translate(0,-32.41665)"
     style="display:none">
    <rect
       style="opacity:1;fill:#ffffff;fill-opacity:1;stroke:none;stroke-width:11.60810661;stroke-miterlimit:4;stroke-dasharray:none;stroke-opacity:1"
       id="rect5606"
       width="264.58334"
       height="264.58334"
       x="0"
       y="32.416653" />
  </g>
  <g
     inkscape:groupmode="layer"
     id="layer26"
     inkscape:label="Chair">
    <path
       sodipodi:nodetypes="ccsscsscccssccsccc"
       inkscape:connector-curvature="0"
       id="path6019"
       d="m 89.467755,264.58333 9.085198,-52.14672 c 0,0 0.668178,-2.07134 1.336344,-2.80633 0.668173,-0.73499 1.603613,-1.67043 2.739513,-1.67043 1.13589,0 20.64657,1.33634 20.64657,1.33634 0,0 1.79673,0.23571 3.0736,1.73994 1.09638,1.2916 1.20271,2.73683 1.33635,3.53863 0.13363,0.80181 3.4745,46.30445 3.4745,46.30445 l 7.48355,0.20045 -3.40769,-41.29314 c 0,0 0,-4.74403 -1.87089,-8.15172 -1.87088,-3.40769 -1.46998,-2.73951 -2.87314,-4.07586 -1.40317,-1.33634 -6.94901,-1.20271 -6.94901,-1.20271 l -24.054256,-1.60362 c 0,0 -1.804069,0.26727 -3.073598,1.33635 -1.269531,1.06908 -2.472245,4.67721 -2.472245,4.67721 L 83.72146,264.58333 Z"
       style="fill:#0d0704;fill-opacity:1;fill-rule:evenodd;stroke:none;stroke-width:0.26458332px;stroke-linecap:butt;stroke-linejoin:miter;stroke-opacity:1" />
    <path
       style="fill:#301b0d;fill-opacity:1;fill-rule:evenodd;stroke:none;stroke-width:0.26458332px;stroke-linecap:butt;stroke-linejoin:miter;stroke-opacity:1"
       d="m 45.970359,264.58333 7.951269,-48.4426 c 0,0 0.668173,-2.07134 1.336346,-2.80633 0.668174,-0.73499 1.603616,-1.67043 2.739512,-1.67043 1.135896,0 20.646572,1.33634 20.646572,1.33634 0,0 1.796728,0.23571 3.073598,1.73994 1.096382,1.2916 1.202715,2.73683 1.336348,3.53863 0.133635,0.80181 3.474505,46.30445 3.474505,46.30445 l 7.483545,0.20045 -3.407686,-41.29314 c 0,0 3e-6,-4.74403 -1.870885,-8.15172 -1.870887,-3.40769 -1.469983,-2.73951 -2.873148,-4.07586 -1.403164,-1.33634 -6.949008,-1.20271 -6.949008,-1.20271 L 54.85707,208.45673 c 0,0 -1.80407,0.26727 -3.073599,1.33635 -1.269531,1.06908 -2.472245,4.67721 -2.472245,4.67721 l -9.087162,50.11304 z"
       id="path6015"
       inkscape:connector-curvature="0"
       sodipodi:nodetypes="ccsscsscccssccsccc" />
    <path
       style="fill:#25150a;fill-rule:evenodd;stroke:none;stroke-width:0.26458332px;stroke-linecap:butt;stroke-linejoin:miter;stroke-opacity:1;fill-opacity:1"
       d="m 51.593749,198.24851 c -2.078868,0.94494 -2.015251,9.40641 -1.614347,9.7405 0.400902,0.33409 36.950012,3.00678 38.48681,2.87315 1.5368,-0.13364 33.675958,-3.14042 33.675958,-3.14042 l -9.88897,-10.49033 z"
       id="path6017"
       inkscape:connector-curvature="0" />
  </g>
  <g
     inkscape:groupmode="layer"
     id="layer22"
     inkscape:label="Shirt">
    <path
       style="fill:#24221c;fill-opacity:1;fill-rule:evenodd;stroke:none;stroke-width:0.26458332px;stroke-linecap:butt;stroke-linejoin:miter;stroke-opacity:1"
       d="m 45.168155,142.49702 c 0,0 -1.984375,3.49628 -4.630208,5.48066 -2.645833,1.98437 -6.331103,3.87425 -7.65402,5.38616 -1.322917,1.5119 -2.929313,4.15773 -3.401785,4.15773 -0.472469,0 -4.157737,-4.81919 -4.91369,-6.14211 -0.755952,-1.32291 0,-3.49628 -1.322917,-3.87425 -1.322916,-0.37798 -3.118303,-0.56697 -3.874255,-1.7009 -0.755953,-1.13393 -2.834822,-6.42559 -3.401786,-7.65401 -0.566964,-1.22843 -2.078869,-2.74033 -3.401786,-3.49628 C 11.244792,133.89806 8.5989582,128.5119 8.315476,127.37797 8.031994,126.24405 6.8035714,122.84226 5.2916666,122.46428 3.7797618,122.08631 0,115.37723 0,115.37723 L 0,87.218006 c 0,0 3.96875,-2.834823 4.8191964,-2.834823 0.8504463,0 1.4174108,-0.377976 2.0788691,-0.377976 0.6614583,0 1.3229167,-1.795388 2.6458333,-2.740326 1.3229162,-0.944941 3.5907732,-1.795389 4.3467262,-2.078871 0.755952,-0.283483 2.929315,-3.307292 5.764137,-4.441219 2.834821,-1.13393 5.953125,-0.472472 8.220981,-1.41741 2.267857,-0.944941 4.157739,-4.630208 6.709079,-5.291667 2.551337,-0.661458 5.38616,-1.228423 5.480653,-1.984375 0.09449,-0.755954 4.346726,0 5.480656,-0.944941 1.133928,-0.94494 2.83482,-4.346725 7.087052,-4.91369 4.252233,-0.566965 5.953125,-0.377976 7.654018,-0.755952 1.700892,-0.377978 9.543899,-3.779763 11.811756,-3.96875 2.267858,-0.188989 11.622768,-2.267857 12.567709,-2.456847 0.94494,-0.188986 2.078868,-1.228423 2.078868,-1.228423 0,0 4.346726,-2.929313 5.10268,-3.874254 0.755952,-0.944941 3.96875,-7.276042 4.819195,-7.181548 0.850447,0.09449 1.511906,0.566965 1.511906,1.133927 0,0.566965 -1.6064,2.456847 -1.511906,4.157739 0.0945,1.700893 0.377976,5.953125 1.322916,7.654018 0.944941,1.700892 4.535715,6.614583 7.276045,8.598958 2.74033,1.984375 6.14211,6.425597 7.843,6.331101 1.7009,-0.09449 5.5555,-0.9412 6.4256,-0.897694 0.94494,0.04725 4.20498,-1.417409 5.33891,-0.661457 1.13393,0.755954 4.20499,2.598586 5.33892,2.787575 1.13393,0.188986 3.96875,1.984374 5.57515,3.77976 1.6064,1.795388 6.99255,6.142114 8.31547,8.409971 1.32292,2.267858 3.2128,5.953125 4.91369,7.559524 1.70089,1.6064 6.4256,6.520088 7.46503,8.315476 1.03943,1.795386 2.82392,23.560738 4.42754,25.164358 1.60362,1.60361 5.96886,2.03301 7.83975,1.76574 0.85199,-0.12171 3.53976,-0.63898 5.69999,-1.37213 2.58342,-0.87678 4.6156,-1.98102 4.6156,-1.98102 2.01793,-0.36631 4.53691,0.51903 4.53691,0.51903 0,0 -2.17336,0.56697 -2.26785,2.74033 -0.0945,2.17336 0.0945,3.2128 1.88988,4.53571 1.79538,1.32292 2.17336,3.59078 3.49628,3.02381 1.32291,-0.56696 5.29166,-3.87425 5.29166,-3.87425 0,0 1.09033,0.0589 0.85647,0.7605 -0.23386,0.70158 -3.842,4.17608 -5.47903,4.57699 -1.63702,0.4009 -5.91333,6.28083 -13.12961,7.08264 -7.21628,0.80181 -20.04521,5.61266 -21.9161,4.54358 -1.87088,-1.06907 -10.95805,-12.2944 -12.82894,-10.15624 -1.87089,2.13816 -2.13815,7.21628 -1.06908,12.2944 1.06908,5.07812 2.13816,14.69982 2.13816,14.69982 l -77.240894,10.95805 3.741775,-26.99422 -36.081385,-29.13238 c 0,0 3.474503,4.27632 3.474503,7.48355 0,3.20723 0.801809,5.07812 2.138156,6.94901 1.336347,1.87088 4.543581,3.20723 4.543581,5.07812 0,1.87088 3.740984,4.65531 4.008649,5.93579 z"
       id="path5985"
       inkscape:connector-curvature="0"
       sodipodi:nodetypes="cssssssssssccssssssssssssscsssssssssssssssssccssscssssssccccsssc" />
  </g>
  <g
     inkscape:groupmode="layer"
     id="layer18"
     inkscape:label="Bass Body"
     style="display:inline">
    <path
       style="fill:#9f672a;fill-opacity:1;fill-rule:evenodd;stroke:none;stroke-width:0.26458332px;stroke-linecap:butt;stroke-linejoin:miter;stroke-opacity:1"
       d="m 18.709822,177.08184 c 1.039434,3.49628 6.08248,13.13179 13.134671,16.53646 6.365451,3.07313 16.914434,3.30729 22.111607,1.7009 5.197173,-1.6064 13.418156,-7.27605 18.048364,-12.8512 4.630208,-5.57514 2.173362,-5.85863 10.394344,-12.28422 8.220983,-6.4256 22.300592,-4.72471 23.056552,-5.48066 0.75595,-0.75595 -0.56697,-7.18155 -5.19718,-7.37053 -4.630205,-0.18899 -24.473955,8.22098 -25.702379,8.22098 -1.22842,0 -4.346725,-0.0945 -6.047618,-4.25223 -1.700892,-4.15774 3.590774,-8.78795 3.590774,-8.78795 L 108.0067,124.63765 c 0,0 -5.48066,-1.13393 -5.66965,-4.06325 -0.18899,-2.92931 0.66146,-7.843 7.65402,-12.37872 6.99256,-4.53571 16.81994,-5.66964 16.81994,-6.52009 0,-0.85044 -5.29167,-5.669638 -10.48884,-7.276039 -4.74978,-1.468117 -7.9375,-1.039434 -9.26041,-0.283482 -1.32292,0.755954 -15.780511,20.032741 -31.466522,23.718011 -15.686013,3.68526 -26.458333,-5.38616 -42.805804,-1.32292 -16.34747,4.06324 -24.6629459,16.72545 -22.8675591,28.6317 1.7953871,11.90625 8.7879471,31.93898 8.7879471,31.93898 z"
       id="path5926"
       inkscape:connector-curvature="0"
       sodipodi:nodetypes="cssssssssccssssssssc" />
    <circle
       style="fill:#000000;fill-rule:evenodd;stroke:none;stroke-width:0.26458332px;stroke-linecap:butt;stroke-linejoin:miter;stroke-opacity:1;fill-opacity:1"
       id="path5998"
       cx="56.126598"
       cy="186.27336"
       r="1.7372519" />
    <circle
       r="1.7372519"
       cy="188.94606"
       cx="47.039433"
       id="circle6000"
       style="fill:#000000;fill-opacity:1;fill-rule:evenodd;stroke:none;stroke-width:0.26458332px;stroke-linecap:butt;stroke-linejoin:miter;stroke-opacity:1" />
  </g>
  <g
     inkscape:groupmode="layer"
     id="layer17"
     inkscape:label="Legs"
     style="display:inline">
    <path
       style="fill:#000000;fill-opacity:1;fill-rule:evenodd;stroke:none;stroke-width:0.26458332px;stroke-linecap:butt;stroke-linejoin:miter;stroke-opacity:1"
       d="m 145.80431,208.64285 c 0,0 8.69346,2.64584 11.05581,2.64584 2.36235,0 11.0558,0.37797 11.0558,0.37797 0,0 -3.40178,0.0945 -7.65402,4.34673 -4.25223,4.25223 -13.79613,16.25298 -13.79613,16.25298 l 6.23661,26.55282 39.21503,-55.84598 -14.3631,-17.85937 -35.71875,13.04017 z"
       id="path5923"
       inkscape:connector-curvature="0" />
    <path
       style="fill:#000000;fill-opacity:1;fill-rule:evenodd;stroke:none;stroke-width:0.26458332px;stroke-linecap:butt;stroke-linejoin:miter;stroke-opacity:1"
       d="m 77.777283,173.81926 c 0,0 -8.783588,11.5995 -12.643208,14.62283 -6.81897,5.34146 -14.201784,7.63305 -14.201784,7.63305 0,0 0.944941,5.76414 3.212798,8.31548 2.267858,2.55134 7.370535,6.52009 10.866816,6.23661 3.496278,-0.28348 24.284969,-1.41741 29.671129,-3.49628 5.386166,-2.07887 13.040176,-4.91369 13.040176,-4.91369 0,0 1.7009,-0.47247 1.6064,1.22842 -0.0945,1.70089 7.84301,41.76637 7.84301,47.05804 0,5.29166 1.79539,14.07961 1.79539,14.07961 l 10.58333,0 -6.3311,-94.11607 c 0,0 -42.70263,-0.23878 -45.442957,3.352 z"
       id="path5921"
       inkscape:connector-curvature="0"
       sodipodi:nodetypes="cscssscsscccc" />
    <path
       style="fill:#6a6a6a;fill-opacity:1;fill-rule:evenodd;stroke:none;stroke-width:0.26458332px;stroke-linecap:butt;stroke-linejoin:miter;stroke-opacity:1"
       d="m 143.06399,167.25446 c 0,0 5.85863,1.41741 6.89806,1.98438 1.03944,0.56696 4.7247,1.32291 6.23661,1.41741 1.5119,0.0945 33.2619,9.07143 37.32515,11.62277 4.06324,2.55134 7.65401,4.6302 8.12649,5.76413 0.47246,1.13393 3.40178,9.6384 2.64583,13.22917 -0.75595,3.59077 -12.09524,22.39509 -14.2686,27.49777 -2.17337,5.10267 -15.49703,29.86012 -16.25298,31.27753 -0.75595,1.41741 -5.19717,4.53571 -5.19717,4.53571 l -12.09524,0 -8.59896,-32.60045 c 0,0 5.48066,-5.95312 7.08706,-7.843 1.6064,-1.88988 8.50446,-9.16592 8.50446,-9.92188 0,-0.75595 0,-3.02381 0.56696,-3.96875 0.56697,-0.94494 5.29167,-2.17336 7.9375,-3.30729 2.64584,-1.13393 3.68527,-2.26786 3.40179,-3.1183 -0.28348,-0.85045 -4.53571,2.17336 -5.19717,1.98437 -0.66146,-0.18898 3.30729,-1.98437 1.6064,-2.83482 -1.7009,-0.85045 -2.92932,0.85045 -3.96875,0.85045 -1.03944,0 4.53571,-3.40179 6.14211,-3.49628 1.6064,-0.0945 4.25223,-0.47247 4.15774,-1.03943 -0.0945,-0.56697 -3.02381,-1.79539 -4.72471,-1.03944 -1.70089,0.75595 -5.85862,5.85863 -7.74851,5.76414 -1.88988,-0.0945 -0.37797,-1.03944 -3.1183,-0.85045 -2.74033,0.18899 -4.91369,2.55134 -7.46503,2.45685 -2.55134,-0.0945 -5.00818,-1.41742 -5.00818,-1.41742 0,0 4.15773,0.94494 7.9375,-1.98437 3.77976,-2.92931 4.53571,-2.45685 4.53571,-2.45685 0,0 -8.78795,-0.75595 -7.08705,-1.41741 1.70089,-0.66145 12.47321,-1.5119 10.29985,-2.17336 -2.17336,-0.66146 -5.95313,-1.5119 -10.86682,0.75595 -4.91369,2.26786 -7.843,3.68527 -7.843,3.68527 0,0 -17.38691,-22.11161 -3.96875,-33.3564 z"
       id="path5911"
       inkscape:connector-curvature="0" />
    <path
       style="fill:#757575;fill-opacity:1;fill-rule:evenodd;stroke:none;stroke-width:0.26458332px;stroke-linecap:butt;stroke-linejoin:miter;stroke-opacity:1"
       d="m 75.973214,177.64881 c 0.661458,-1.98438 4.819195,-8.97694 7.559524,-10.29985 2.740327,-1.32292 12.095237,-4.72471 17.292412,-6.14212 5.19717,-1.41741 22.58407,-4.25223 27.11979,-4.15773 4.53571,0.0945 10.96131,1.70089 12.7567,3.40178 1.79538,1.70089 6.04761,5.76414 6.04761,7.18155 0,1.41741 3.2128,10.11086 3.2128,13.04018 0,2.92931 -0.28348,11.81175 -0.75595,13.22916 -0.47247,1.41742 -0.85045,1.03944 -0.85045,2.36235 0,1.32292 1.98438,4.91369 1.98438,8.40997 0,3.49628 0.18899,24.19048 0.85044,28.15923 0.66146,3.96875 4.63021,20.50521 5.76414,22.86756 1.13393,2.36235 3.87426,8.88244 3.87426,8.88244 l -40.34896,0 c 0,0 -2.07887,-12.94568 -2.07887,-15.11905 0,-2.17336 -0.37798,-5.00818 -0.66146,-6.80357 -0.28348,-1.79539 -1.79538,-10.58333 -1.79538,-11.90625 0,-1.32291 -0.94494,-8.12649 -1.51191,-12.56771 -0.56696,-4.44122 -1.22842,-11.62276 -0.75595,-13.98512 0.47247,-2.36235 0.37797,-6.3311 0.37797,-7.9375 0,-1.60639 0.0945,-6.2366 0.85045,-7.27604 0.75595,-1.03943 2.74033,-6.52009 2.74033,-6.52009 0,0 -2.92932,3.68527 -3.30729,3.68527 -0.37798,0 -4.06325,-3.02381 -4.91369,-2.92931 -0.85045,0.0945 -0.47248,4.06324 -0.47248,4.06324 0,0 -0.94493,-3.68527 -0.94493,-4.34673 0,-0.66145 -3.3073,3.02381 -6.4256,4.44123 -3.118303,1.41741 -9.5439,8.03199 -11.055803,8.03199 -1.511906,0 2.929316,-6.4256 5.197171,-8.88244 2.267857,-2.45685 12.851192,-8.97694 12.851192,-8.97694 0,0 -13.701637,3.3073 -15.780505,3.96875 -2.078871,0.66146 -12.284229,8.31548 -14.268604,9.73289 -1.984375,1.41741 -5.764135,6.14211 -6.236604,6.14211 -0.472472,0 2.456844,-3.21279 2.83482,-5.00818 0.377975,-1.79539 1.606399,-5.85863 1.606399,-5.85863 0,0 -5.291667,4.53571 -6.709077,4.53571 -1.417412,0 -3.685267,0.37798 -3.685267,0.37798 0,0 8.315475,-10.01637 9.638392,-13.79613 z"
       id="path5909"
       inkscape:connector-curvature="0" />
  </g>
  <g
     inkscape:groupmode="layer"
     id="layer19"
     inkscape:label="Bass Neck"
     style="display:inline">
    <path
       style="fill:#000000;fill-opacity:1;fill-rule:evenodd;stroke:none;stroke-width:0.26458332px;stroke-linecap:butt;stroke-linejoin:miter;stroke-opacity:1"
       d="m 61.421131,139.94568 4.630208,13.32366 176.136901,-65.484372 c 0,0 2.26786,-0.661458 4.44122,-0.188987 2.17336,0.47247 6.52009,2.551338 6.52009,2.551338 0,0 5.65998,-3.644428 7.46503,-4.441219 1.88988,-0.834235 3.96874,-1.795386 3.96874,-1.795386 l 0,-19.654763 c 0,0 -7.64255,2.911137 -10.47737,3.662339 -2.75391,0.729761 -9.55536,1.723821 -9.55536,1.723821 0,0 -1.5119,3.96875 -3.02381,5.764138 -1.5119,1.795386 -4.44122,3.023809 -4.44122,3.023809 z"
       id="path5929"
       inkscape:connector-curvature="0"
       sodipodi:nodetypes="cccscsccscscc" />
    <rect
       style="opacity:1;fill:#000000;fill-opacity:1;stroke:none;stroke-width:1.45320511;stroke-linecap:round;stroke-miterlimit:4;stroke-dasharray:none;stroke-opacity:1"
       id="rect5931"
       width="12.819414"
       height="22.1999"
       x="0.2795248"
       y="150.17151"
       transform="matrix(0.94757653,-0.31952891,0.31795027,0.94810739,0,0)"
       ry="1.0600638" />
    <rect
       ry="1.231231"
       transform="matrix(0.94757653,-0.31952891,0.31795027,0.94810739,0,0)"
       y="147.67442"
       x="-31.53244"
       height="25.784489"
       width="14.889348"
       id="rect5992"
       style="opacity:1;fill:#000000;fill-opacity:1;stroke:none;stroke-width:1.68785226;stroke-linecap:round;stroke-miterlimit:4;stroke-dasharray:none;stroke-opacity:1" />
  </g>
  <g
     inkscape:groupmode="layer"
     id="layer21"
     inkscape:label="Strings"
     style="display:inline">
    <path
       style="fill:none;fill-rule:evenodd;stroke:#7f7f7f;stroke-width:0.26458332;stroke-linecap:round;stroke-linejoin:miter;stroke-miterlimit:4;stroke-dasharray:none;stroke-opacity:1"
       d="M 24.453731,154.36756 237.86988,79.098279 252.30243,72.282906"
       id="path5976"
       inkscape:connector-curvature="0"
       sodipodi:nodetypes="ccc" />
    <path
       style="fill:none;fill-rule:evenodd;stroke:#7f7f7f;stroke-width:0.26458332;stroke-linecap:round;stroke-linejoin:miter;stroke-miterlimit:4;stroke-dasharray:none;stroke-opacity:1"
       d="M 26.499696,158.18367 238.93896,81.370071 264.58333,69.932833"
       id="path5978"
       inkscape:connector-curvature="0"
       sodipodi:nodetypes="ccc" />
    <path
       style="fill:none;fill-rule:evenodd;stroke:#7f7f7f;stroke-width:0.26458332;stroke-linecap:round;stroke-linejoin:miter;stroke-miterlimit:4;stroke-dasharray:none;stroke-opacity:1"
       d="M 28.510257,162.2168 240.40894,84.176401 264.58332,78.83101"
       id="path5980"
       inkscape:connector-curvature="0"
       sodipodi:nodetypes="ccc" />
    <path
       style="fill:none;fill-rule:evenodd;stroke:#7f7f7f;stroke-width:0.26458332;stroke-linecap:round;stroke-linejoin:miter;stroke-miterlimit:4;stroke-dasharray:none;stroke-opacity:1"
       d="M 29.303722,166.15034 241.47802,86.98273 255.50966,83.107323"
       id="path5982"
       inkscape:connector-curvature="0"
       sodipodi:nodetypes="ccc" />
  </g>
  <g
     inkscape:groupmode="layer"
     id="layer23"
     inkscape:label="Sleeve">
    <path
       sodipodi:nodetypes="csssssssssccccsssc"
       inkscape:connector-curvature="0"
       id="path5987"
       d="m 45.168155,142.49702 c 0,0 -1.984375,3.49628 -4.630208,5.48066 -2.645833,1.98437 -6.331103,3.87425 -7.65402,5.38616 -1.322917,1.5119 -2.929313,4.15773 -3.401785,4.15773 -0.472469,0 -4.157737,-4.81919 -4.91369,-6.14211 -0.755952,-1.32291 0,-3.49628 -1.322917,-3.87425 -1.322916,-0.37798 -3.118303,-0.56697 -3.874255,-1.7009 -0.755953,-1.13393 -2.834822,-6.42559 -3.401786,-7.65401 -0.566964,-1.22843 -2.078869,-2.74033 -3.401786,-3.49628 C 11.244792,133.89806 8.5989582,128.5119 8.315476,127.37797 8.031994,126.24405 6.8035714,122.84226 5.2916666,122.46428 3.7797618,122.08631 0,115.37723 0,115.37723 c 8.3379381,-2.88205 9.9188789,-2.72822 15.01843,-2.92868 l 15.984836,4.602 c 0,0 3.474503,4.27632 3.474503,7.48355 0,3.20723 0.801809,5.07812 2.138156,6.94901 1.336347,1.87088 4.543581,3.20723 4.543581,5.07812 0,1.87088 3.740984,4.65531 4.008649,5.93579 z"
       style="display:inline;fill:#24221c;fill-opacity:1;fill-rule:evenodd;stroke:none;stroke-width:0.26458332px;stroke-linecap:butt;stroke-linejoin:miter;stroke-opacity:1" />
  </g>
  <g
     inkscape:groupmode="layer"
     id="layer20"
     inkscape:label="Hands"
     style="display:inline">
    <path
       style="fill:#b76933;fill-opacity:1;fill-rule:evenodd;stroke:none;stroke-width:0.26458332px;stroke-linecap:butt;stroke-linejoin:miter;stroke-opacity:1"
       d="m 44.901281,142.44116 c 0,0 3.00678,1.33635 3.875407,1.33635 0.868627,0 1.202714,-0.46773 1.937705,-0.33409 0.734992,0.13363 4.009041,1.67043 6.214015,1.13589 2.204974,-0.53454 5.078121,-2.80633 5.612662,-2.87314 0.534538,-0.0668 0.734991,-0.20046 1.46998,0.20045 0.734991,0.4009 0.400904,5.74629 -4.009041,7.41673 -4.409948,1.67043 -5.813113,0.93544 -6.949009,1.73725 -1.135895,0.80181 -1.603615,2.47224 -0.868627,3.40769 0.734992,0.93544 1.269532,1.20271 1.269532,1.20271 0,0 0.801809,-0.86863 1.336347,-0.80181 0.53454,0.0668 3.942225,3.00678 4.34313,4.07586 0.400905,1.06908 0.734991,2.13816 0.200454,3.00678 -0.534541,0.86863 -1.469983,2.33861 -1.469983,2.33861 0,0 0.601356,1.5368 0.133633,2.07134 -0.46772,0.53454 -2.271789,3.20723 -3.207234,3.40769 -0.935442,0.20045 -1.403165,-0.13364 -1.403165,-0.13364 0,0 -2.53906,3.20724 -3.674956,3.20724 -1.135894,0 -2.873148,-1.5368 -2.873148,-1.5368 0,0 -1.069078,0.66817 -2.00452,0.53454 -0.935442,-0.13364 -7.416729,-5.27858 -8.485807,-6.94901 -1.069078,-1.67044 -5.011303,-8.35218 -4.944488,-9.2208 0.06682,-0.86863 4.409948,-5.47903 7.283095,-7.21628 2.873148,-1.73725 5.946746,-4.27631 6.214018,-6.01356 z"
       id="path5934"
       inkscape:connector-curvature="0" />
    <path
       style="fill:#b36129;fill-opacity:1;fill-rule:evenodd;stroke:none;stroke-width:0.26458332px;stroke-linecap:butt;stroke-linejoin:miter;stroke-opacity:1"
       d="m 180.40693,124.73455 c 0.53454,-1.00226 1.06908,-2.53906 1.67043,-2.53906 0.60136,0 1.46999,-0.13364 1.46999,-0.60136 0,-0.46772 0.53454,-1.67043 0.8018,-2.00452 0.26727,-0.33408 0.0668,-1.9377 0.53454,-2.07134 0.46773,-0.13363 -1.60361,-7.01582 -2.20497,-8.4858 -0.60136,-1.46999 -1.29295,-4.29393 -0.73499,-5.01131 0.93544,-1.20271 2.27179,-1.46997 3.27405,-0.53454 0.62556,0.58385 2.53906,6.74856 3.0736,7.01583 0.25796,0.12898 1.41438,3.43127 1.99047,3.17899 0.50489,-0.2211 -0.52049,-3.40005 -0.52049,-3.78035 0,-0.73499 -1.67043,-4.67722 -2.73951,-6.5481 -1.06908,-1.87089 -2.40543,-3.27405 -1.26953,-4.476766 1.1359,-1.202713 3.00678,-0.534537 3.00678,-0.534537 0,0 -0.73499,-0.734992 0.26727,-1.80407 1.00226,-1.069078 1.80407,-0.801809 2.47224,-0.734991 0.66818,0.06682 1.20272,0.534538 1.20272,0.534538 0,0 0.0668,-0.601356 0.86862,-0.734992 0.80181,-0.133633 1.26953,-0.267268 2.53906,0.133636 1.26954,0.400905 6.74856,5.879932 7.21628,6.882192 0.46772,1.00226 1.67043,3.94222 1.1359,5.34539 -0.53454,1.40316 0.33408,5.81311 -0.20046,6.61492 -0.53453,0.80181 -1.40316,0.60136 -2.00452,1.40316 -0.60135,0.80181 -0.66817,2.80634 -1.46998,3.27406 -0.80181,0.46772 -5.74629,7.55036 -6.81537,8.15172 -1.06908,0.60135 -4.87767,5.67947 -6.94901,5.54584 -2.07134,-0.13364 -6.94901,1.26953 -6.61492,-8.21854 z"
       id="path5936"
       inkscape:connector-curvature="0"
       sodipodi:nodetypes="cssccsssssssscsscssssscsssc" />
    <path
       style="fill:#a05c2c;fill-opacity:1;fill-rule:evenodd;stroke:none;stroke-width:0.26458332px;stroke-linecap:butt;stroke-linejoin:miter;stroke-opacity:1"
       d="m 41.760864,161.61775 c 0,0 1.135894,1.80406 1.937703,1.80406 0.801809,0 1.269532,-0.4009 2.071338,0 0.801809,0.40091 4.209497,2.53907 4.944488,2.93997 0.734992,0.4009 2.605876,0.26727 2.672694,0.53454 0.06682,0.26727 2.271792,2.73951 1.336347,2.67269 -0.935442,-0.0668 -3.140416,-0.60135 -4.476763,-1.60361 -1.336347,-1.00226 -2.873147,-2.47225 -3.674957,-2.47225 -0.801809,0 -2.071338,0 -3.207234,-0.53453 -1.135896,-0.53455 -1.603616,-1.93771 -1.603616,-3.34087 z"
       id="path5938"
       inkscape:connector-curvature="0" />
    <path
       style="fill:#a05c2c;fill-opacity:1;fill-rule:evenodd;stroke:none;stroke-width:0.26458332px;stroke-linecap:butt;stroke-linejoin:miter;stroke-opacity:1"
       d="m 47.106255,158.94505 c 0,0 1.469982,-0.53454 2.806329,-0.20045 1.336347,0.33408 5.412208,3.27405 6.414469,3.34087 1.00226,0.0668 2.939965,0 2.472242,0.60135 -0.467722,0.60136 -0.06682,2.73952 -1.135896,2.60588 -1.069078,-0.13363 -8.753075,-3.34087 -10.557144,-6.34765 z"
       id="path5940"
       inkscape:connector-curvature="0" />
    <path
       style="fill:#a05c2c;fill-opacity:1;fill-rule:evenodd;stroke:none;stroke-width:0.26458332px;stroke-linecap:butt;stroke-linejoin:miter;stroke-opacity:1"
       d="m 46.70535,171.17263 c 0,0 -4.944486,-4.87767 -5.746295,-5.21175 -0.801809,-0.33409 -1.670436,-0.33409 -2.605878,-1.46999 -0.935443,-1.13589 -1.002261,-3.60814 -0.133636,-3.74177 0.868627,-0.13363 -4.009041,-3.20723 -5.011304,-3.80859 -1.00226,-0.60136 -2.204971,-1.9377 -1.937702,-1.20271 0.267269,0.73499 3.875406,7.81763 4.877669,8.68625 1.00226,0.86863 2.438833,1.43658 3.040191,1.73726 0.601355,0.30068 4.944485,5.11153 5.646068,5.17834 0.701582,0.0668 1.436574,0.33409 1.870887,-0.16704 z"
       id="path5942"
       inkscape:connector-curvature="0"
       sodipodi:nodetypes="cssssssscc" />
    <path
       style="fill:#a05c2c;fill-opacity:1;fill-rule:evenodd;stroke:none;stroke-width:0.26458332px;stroke-linecap:butt;stroke-linejoin:miter;stroke-opacity:1"
       d="m 53.620947,155.73782 c 0,0 3.674957,2.60587 4.309721,2.83974 0.634767,0.23386 0.935445,0.13363 0.935445,0.13363 0,0 -2.706105,-3.74177 -3.541321,-3.77518 -0.835218,-0.0334 -1.369755,0.0668 -1.703845,0.80181 z"
       id="path5944"
       inkscape:connector-curvature="0" />
    <path
       style="fill:#c66c2f;fill-opacity:1;fill-rule:evenodd;stroke:none;stroke-width:0.26458332px;stroke-linecap:butt;stroke-linejoin:miter;stroke-opacity:1"
       d="m 193.45294,96.053197 c 0.59059,-0.259858 1.41741,-0.425222 1.88988,-0.307104 0.47247,0.118117 6.68545,5.929497 7.03981,6.685457 0.35435,0.75595 1.41741,2.43322 0.25985,2.92931 -1.15755,0.49609 -1.81901,0.49609 -2.19698,0.14174 -0.37798,-0.35435 -2.26786,-3.30729 -3.28367,-4.34672 -1.01581,-1.03944 -3.80339,-3.307295 -3.89788,-3.850635 -0.0945,-0.543343 -0.0945,-0.874072 0.18899,-1.252048 z"
       id="path5967"
       inkscape:connector-curvature="0" />
    <path
       style="fill:#c66c2f;fill-opacity:1;fill-rule:evenodd;stroke:none;stroke-width:0.26458332px;stroke-linecap:butt;stroke-linejoin:miter;stroke-opacity:1"
       d="m 189.95666,96.360304 c 0.49609,-0.25986 1.41741,-0.425225 1.84263,-0.188989 0.42522,0.236236 4.15774,3.992375 4.67746,4.630205 0.51971,0.63784 2.78757,4.44122 2.66945,5.00819 -0.11812,0.56696 -0.4016,1.70089 -0.7087,1.88988 -0.30711,0.18899 -2.33873,0.54334 -2.74033,0.11812 -0.4016,-0.42523 -2.66946,-4.60659 -3.16555,-5.48066 -0.49609,-0.87407 -3.44903,-3.543524 -3.5199,-3.992371 -0.0709,-0.448847 -0.0945,-1.441034 0.94494,-1.984375 z"
       id="path5969"
       inkscape:connector-curvature="0" />
    <path
       style="fill:#c66c2f;fill-opacity:1;fill-rule:evenodd;stroke:none;stroke-width:0.26458332px;stroke-linecap:butt;stroke-linejoin:miter;stroke-opacity:1"
       d="m 186.57849,98.769902 c 0.75596,-0.236236 1.25205,-0.496094 1.84264,-0.09449 0.59059,0.401598 2.92932,3.141928 3.40178,4.110488 0.47248,0.96856 2.59859,4.7247 2.57497,5.43341 -0.0236,0.7087 -0.35435,1.25204 -1.03944,1.53553 -0.68508,0.28348 -2.3151,0.49609 -2.78757,-0.0709 -0.47247,-0.56696 -2.05525,-4.41759 -1.9135,-4.7247 0.14174,-0.3071 0.66145,-0.66146 0.47246,-0.75595 -0.18898,-0.0945 -1.22842,-0.51972 -1.53552,-0.96856 -0.30711,-0.44885 -1.91351,-2.66946 -1.84264,-3.09469 0.0709,-0.425214 0.14174,-0.944932 0.82682,-1.370154 z"
       id="path5971"
       inkscape:connector-curvature="0" />
    <path
       style="fill:#c66c2f;fill-opacity:1;fill-rule:evenodd;stroke:none;stroke-width:0.26458332px;stroke-linecap:butt;stroke-linejoin:miter;stroke-opacity:1"
       d="m 183.15308,104.06157 c -0.47246,0.25986 -0.87406,0.7087 -0.87406,0.89769 0,0.18899 0.4016,2.7167 0.92131,3.00019 0.51972,0.28348 1.48829,0.14174 1.39379,0.35435 -0.0945,0.21261 -0.8032,0.61421 -0.8032,1.11031 0,0.49609 0.63783,4.08686 1.25205,4.58296 0.61421,0.49609 1.53552,0.75595 2.14974,0.56696 0.61421,-0.18899 1.44103,-1.25205 1.37016,-1.86626 -0.0709,-0.61421 -1.70089,-4.34672 -2.14974,-5.33891 -0.44885,-0.99219 -1.27567,-3.42541 -1.70089,-3.5199 -0.42523,-0.0945 -0.96857,-0.11812 -1.55916,0.21261 z"
       id="path5973"
       inkscape:connector-curvature="0" />
  </g>
  <g
     inkscape:groupmode="layer"
     id="layer24"
     inkscape:label="Head">
    <path
       style="fill:#ba6934;fill-opacity:1;fill-rule:evenodd;stroke:none;stroke-width:0.26458332px;stroke-linecap:butt;stroke-linejoin:miter;stroke-opacity:1"
       d="m 138.90625,19.607514 c 0,0 1.08668,2.69308 1.18117,4.819197 0.0945,2.126115 -0.33072,9.591146 -0.18898,10.063615 0.14174,0.472472 0.75595,1.181177 0.75595,1.842635 0,0.661459 -0.37798,1.653646 -0.89769,1.748139 -0.51972,0.09449 -0.0472,1.582775 -0.35436,2.362351 -0.3071,0.779576 -1.79539,1.795388 -1.77176,1.984374 0.0236,0.18899 0.51971,1.34654 0.51971,2.504092 0,0.683161 -0.95418,2.421821 -1.34184,4.245301 -0.26919,1.266239 0.0116,2.780965 -0.0756,3.148861 -0.21262,0.897692 -0.4016,2.220608 -0.92132,2.882066 -0.51972,0.661459 -0.87407,0.377977 -1.63002,0.992189 -0.75595,0.614212 -3.25055,1.590881 -3.34504,2.063352 -0.0945,0.47247 -1.09075,3.323503 -1.79945,4.528304 -0.68733,1.16846 -2.60649,4.125548 -5.03725,4.535017 -1.67461,0.282093 -3.18917,0.0945 -3.85063,0.472471 -0.66146,0.377976 -9.31831,-0.759887 -10.6176,-1.090617 -1.29929,-0.330729 -10.076595,-7.933564 -11.635748,-10.815633 -1.559152,-2.882069 -1.984375,-9.520277 -1.677268,-10.583333 0.307105,-1.063059 1.889879,-3.141927 1.795386,-3.519903 -0.09449,-0.377978 -2.385975,-2.811197 -2.69308,-3.614398 -0.307107,-0.803199 -1.015812,-3.708892 -0.755952,-5.457032 0.259858,-1.748139 1.157553,-5.220795 2.267855,-5.598771 1.110306,-0.377975 3.236427,-1.086682 3.897877,-0.04725 0.66146,1.039434 18.96968,-10.984934 18.96968,-10.984934 z"
       id="path6006"
       inkscape:connector-curvature="0"
       sodipodi:nodetypes="cssssccsscsscssssssssssscc" />
    <path
       style="fill:#1e1616;fill-opacity:1;fill-rule:evenodd;stroke:none;stroke-width:0.26458332px;stroke-linecap:butt;stroke-linejoin:miter;stroke-opacity:1"
       d="m 118.4004,58.652161 c 0.66817,0.53454 2.33861,-0.46772 3.54132,-0.668174 1.20271,-0.200451 2.73951,0.868627 3.4745,0.868627 0.735,0 3.14042,0 3.47451,0.267269 0.33409,0.267269 -0.13364,3.073598 -1.33635,3.34087 -1.20271,0.267269 -2.20497,-0.935445 -4.27631,-0.801809 -2.07134,0.133635 -5.21176,-0.601356 -4.81085,0.06682 0.4009,0.668173 1.06908,2.672693 2.13815,2.605876 1.06908,-0.06682 2.33861,-0.734989 3.40769,-0.734989 1.06908,0 2.53906,0.334087 2.53906,1.00226 0,0.668173 -0.73499,3.140416 -5.81311,2.605876 -5.07812,-0.534538 -6.01357,-7.082642 -6.81538,-7.14946 -0.8018,-0.06682 2.40543,5.479026 1.67044,5.479026 -0.73499,0 -5.54584,-3.207234 -6.68174,-3.608138 -1.1359,-0.400905 -3.54132,-3.34087 -3.67495,-2.539061 -0.13364,0.801809 1.87088,4.677217 0.93544,4.677217 -0.93544,0 -8.418992,-8.552625 -9.020348,-11.024868 -0.601356,-2.472242 -0.935442,-6.88219 -0.601356,-8.018086 0.334087,-1.135896 1.135896,-3.073599 1.202712,-2.338607 0.06682,0.734991 3.340872,4.409948 4.009042,4.009043 0.66817,-0.400905 0.53454,-1.603618 0.53454,-0.467722 0,1.135895 -0.20045,6.080381 0.73499,7.34991 0.93544,1.269532 6.34765,6.080384 6.28084,5.144939 -0.0668,-0.935442 -1.06908,-5.078121 -2.00453,-5.879928 -0.93544,-0.801809 -1.9377,-0.06682 -2.60587,-1.403167 -0.66818,-1.336347 -0.93545,-7.349911 -2.00452,-7.349911 -1.06908,0 -2.873152,-1.135895 -4.343134,-2.138156 -1.469983,-1.00226 -3.741775,-3.875407 -3.942226,-6.214017 -0.200453,-2.338607 0.46772,-7.617182 1.469983,-8.218538 1.00226,-0.601355 3.006781,-1.870886 4.543577,-0.467722 1.5368,1.403167 -0.868623,-2.873146 -0.868623,-2.873146 l -6.748555,4.209495 1.737251,12.895755 2.605879,1.135896 c 0,0 -1.603616,2.138156 -1.603616,3.741772 0,1.603618 0.133633,6.013563 0.734989,7.884451 0.601358,1.870887 8.018085,10.69078 9.554885,11.292138 1.5368,0.601356 5.54584,3.608139 7.34991,3.741772 1.80407,0.133636 7.21628,-1.069078 8.75308,-1.269529 1.5368,-0.200453 4.34313,-0.267269 5.41221,-1.336349 1.06908,-1.069078 3.08801,-5.19595 3.57244,-6.549 0.48443,-1.353053 2.89214,-3.206336 3.07589,-3.40679 0.18374,-0.200451 0.51783,-0.434313 0.35079,-0.434313 -0.16705,0 -0.90204,0.434313 -1.67043,0.116933 -0.7684,-0.317384 -1.95441,-2.57247 -3.07361,-2.856445 -1.11919,-0.283974 -2.73951,-0.467722 -2.82303,-0.267269 -0.0835,0.200451 0.10023,1.386459 0.71829,1.737252 0.61806,0.35079 1.21941,0.35079 1.30294,0.718285 0.0835,0.367496 0.88533,2.271792 0.71828,2.639288 -0.16704,0.367496 -0.33408,0.03341 -1.20271,-0.250566 -0.86862,-0.283972 -2.42213,0.06682 -2.85644,-0.08352 -0.43432,-0.150339 -1.72055,-1.5368 -2.80633,-1.570209 -1.08578,-0.03341 -5.31199,1.570209 -4.25961,2.388722 z"
       id="path6008"
       inkscape:connector-curvature="0"
       sodipodi:nodetypes="cssssssssssssscssssssscsssssssccccssssssscssscsccssscc" />
    <path
       style="fill:#1e1616;fill-opacity:1;fill-rule:evenodd;stroke:none;stroke-width:0.26458332px;stroke-linecap:butt;stroke-linejoin:miter;stroke-opacity:1"
       d="m 136.11868,50.459819 c -0.21262,-0.637833 -0.92132,-1.27567 -0.96857,-1.724514 -0.0473,-0.448847 -0.11812,-5.031809 -0.25986,-5.457031 -0.14174,-0.425225 -0.63783,-1.110306 -0.51972,-1.819011 0.11812,-0.708707 0.4961,-2.196989 0.99219,-2.4096 0.49609,-0.212611 2.64583,-1.252045 3.26005,-1.133927 0.61421,0.118118 1.01581,0 1.03943,0.330729 0.0236,0.330729 -0.0709,1.370163 -0.16539,1.913504 -0.30711,0.897693 -0.89769,1.464659 -1.18117,2.173363 -0.25991,0.590589 0.0918,1.661056 0.0682,2.487879 -0.0138,0.482537 -0.93507,2.852664 -1.37093,4.69328 -0.31098,1.313265 -0.16983,2.258563 -0.20918,2.504481 -0.0945,0.590587 -0.37368,1.622163 -0.37368,1.622163 -0.29625,-1.0371 -0.0112,-2.166786 -0.31137,-3.181316 z"
       id="path6010"
       inkscape:connector-curvature="0"
       sodipodi:nodetypes="ccscssccccsscc" />
    <path
       style="fill:#1e1616;fill-rule:evenodd;stroke:none;stroke-width:0.26458332px;stroke-linecap:butt;stroke-linejoin:miter;stroke-opacity:1;fill-opacity:1"
       d="m 117.81045,39.073288 c 0.0472,-0.448847 2.55134,-1.346541 5.2208,-1.41741 2.66946,-0.07087 5.50428,1.063056 5.9295,1.063056 0.42522,0 0.63784,-0.614212 1.27567,-0.87407 0.63784,-0.259857 3.44903,1.110306 3.40179,1.535528 -0.0472,0.425225 -5.45703,4.84282 -7.03981,4.771951 -1.58278,-0.07087 -4.48847,-1.748142 -3.63802,-1.748142 0.85044,0 3.2128,0.236236 3.56715,-0.09449 0.35435,-0.330729 -1.06306,-0.850445 -0.8032,-1.157552 0.25986,-0.307104 2.69308,-0.897694 2.12612,-1.228423 -0.56697,-0.330729 -1.03944,0.25986 -2.92932,0.188989 -1.88988,-0.07087 -3.23642,-0.755952 -3.1183,-0.401601 0.11811,0.354354 2.38597,1.110306 2.10249,1.181177 -0.28348,0.07087 -1.13393,-0.165364 -1.72452,-0.118118 -0.59059,0.04725 -0.66145,0.330729 -1.25204,0.212612 -0.59059,-0.118118 -2.85845,-1.204799 -3.11831,-1.913504 z"
       id="path6012"
       inkscape:connector-curvature="0" />
  </g>
  <g
     inkscape:groupmode="layer"
     id="layer25"
     inkscape:label="Hair">
    <path
       style="fill:#28170b;fill-rule:evenodd;stroke:none;stroke-width:0.26458332px;stroke-linecap:butt;stroke-linejoin:miter;stroke-opacity:1;fill-opacity:1"
       d="m 137.53608,21.072172 c 0.51972,0 2.03163,-0.897694 2.4096,-2.551339 0.37798,-1.653646 1.13393,-4.346726 0.61421,-5.055432 -0.51971,-0.708705 -1.22842,-1.181176 -1.22842,-1.181176 0,0 -0.23623,-2.6930798 -0.99219,-3.5907732 C 137.58333,7.7957584 135.6462,6.2366066 134.46503,5.9531244 133.28385,5.6696421 132.38616,5.1026779 130.87426,4.2994786 129.36235,3.4962793 123.83445,4.9999997e-6 123.83445,4.9999997e-6 l -19.84375,0 c 0,0 -3.73252,1.4174052000003 -4.819198,2.5513337000003 -1.086681,1.1339285 -3.401785,2.3623513 -4.11049,3.5435267 -0.708707,1.1811756 -4.299479,7.1343006 -4.299479,8.4099706 0,1.275669 0.425223,3.827008 -0.992187,4.204985 -1.417413,0.377976 -3.590775,0.755952 -3.590775,0.755952 0,0 4.393973,0.236235 4.204984,1.27567 -0.188987,1.039434 -1.937129,0.803199 -1.937129,0.803199 0,0 0.944941,0.755952 1.842635,1.039435 0.897695,0.283482 0.33073,2.69308 0.18899,3.260044 -0.141743,0.566965 -2.078871,2.645834 -2.74033,2.787574 -0.661458,0.141742 -2.031621,-0.28348 -4.157736,0.992187 -2.126118,1.27567 -2.55134,3.023812 -4.015997,3.449034 -1.464659,0.425223 -3.874256,2.267858 -4.157739,3.496278 -0.283482,1.228424 -1.748139,2.126118 -1.937128,3.449035 -0.188987,1.322916 0.09449,4.015996 1.13393,4.866444 1.039434,0.850445 2.220608,0.566962 2.220608,1.464656 0,0.897695 -1.937128,1.464657 -1.653646,1.937129 0.283483,0.472469 1.937129,2.740326 3.212799,2.976562 1.27567,0.236236 2.834822,0.377976 2.834822,0.377976 0,0 -2.362353,-1.133927 -1.984375,-1.889882 0.377976,-0.755951 1.748139,-0.755951 1.795386,-1.181174 0.04725,-0.425225 -0.14174,-2.362351 0.236236,-1.700892 0.377975,0.661458 2.740326,2.69308 4.11049,2.598584 1.370163,-0.09449 3.921503,-2.078868 3.212798,-2.173362 -0.708705,-0.09449 -4.771951,-0.992187 -4.157739,-2.315104 0.614211,-1.322917 3.96875,-2.740326 5.622395,-2.69308 1.653646,0.04725 3.212799,3.118303 3.779764,2.929316 0.566965,-0.188989 4.393972,-3.449034 3.921503,-4.063246 -0.472472,-0.614212 -2.598586,-3.212796 -2.645833,-5.055431 -0.04725,-1.842635 -0.425225,-4.204985 0.614212,-6.378347 1.039434,-2.173364 1.417409,-2.834823 2.740326,-2.929316 1.322917,-0.09449 2.409593,0.330729 2.598583,0.661458 0.18899,0.33073 -0.18899,2.078869 1.22842,3.16555 1.41742,1.086683 2.64584,1.27567 3.07106,2.126117 0.42523,0.850445 -0.23623,4.393972 0.56697,4.771948 0.8032,0.377976 4.20498,1.700893 4.06324,-0.04725 -0.14174,-1.748139 -1.03943,-2.69308 -0.18899,-3.260045 0.85045,-0.566963 9.21317,-1.086681 9.49665,-1.937129 0.28349,-0.850445 -2.55134,-6.236606 -2.07886,-9.071427 0.47247,-2.834821 -1.37017,-4.582961 2.50409,-5.71689 3.87425,-1.133929 14.45759,1.228423 17.81212,3.590774 z"
       id="path6004"
       inkscape:connector-curvature="0" />
  </g>
</svg>
