<?xml version="1.0" encoding="UTF-8" standalone="no"?>
<!-- Created with Inkscape (http://www.inkscape.org/) -->

<svg
   xmlns:dc="http://purl.org/dc/elements/1.1/"
   xmlns:cc="http://creativecommons.org/ns#"
   xmlns:rdf="http://www.w3.org/1999/02/22-rdf-syntax-ns#"
   xmlns:svg="http://www.w3.org/2000/svg"
   xmlns="http://www.w3.org/2000/svg"
   xmlns:sodipodi="http://sodipodi.sourceforge.net/DTD/sodipodi-0.dtd"
   xmlns:inkscape="http://www.inkscape.org/namespaces/inkscape"
   width="1000"
   height="1000"
   viewBox="0 0 264.58333 264.58334"
   id="svg4332"
   version="1.1"
   inkscape:version="0.91+devel r13925"
   sodipodi:docname="steve-ball-neon.svg"
   inkscape:export-filename="/Users/agarone/Documents/git/art/steve-ball/steve-ball-neon.png"
   inkscape:export-xdpi="96"
   inkscape:export-ydpi="96">
  <defs
     id="defs4334" />
  <sodipodi:namedview
     id="base"
     pagecolor="#ffffff"
     bordercolor="#666666"
     borderopacity="1.0"
     inkscape:pageopacity="0.0"
     inkscape:pageshadow="2"
     inkscape:zoom="0.49497475"
     inkscape:cx="270.27826"
     inkscape:cy="503.42325"
     inkscape:document-units="px"
     inkscape:current-layer="g7015"
     showgrid="false"
     units="px"
     showguides="true"
     inkscape:guide-bbox="true"
     inkscape:window-width="1920"
     inkscape:window-height="1151"
     inkscape:window-x="0"
     inkscape:window-y="1"
     inkscape:window-maximized="1">
    <sodipodi:guide
       position="264.58333,0"
       orientation="1,0"
       id="guide4340"
       inkscape:label=""
       inkscape:color="rgb(0,0,255)" />
    <sodipodi:guide
       position="0,0"
       orientation="1,0"
       id="guide4342"
       inkscape:label=""
       inkscape:color="rgb(0,0,255)" />
    <sodipodi:guide
       position="0,0"
       orientation="0,1"
       id="guide4344"
       inkscape:label=""
       inkscape:color="rgb(0,0,255)" />
    <sodipodi:guide
       position="0,264.58333"
       orientation="0,1"
       id="guide4346"
       inkscape:label=""
       inkscape:color="rgb(0,0,255)" />
  </sodipodi:namedview>
  <metadata
     id="metadata4337">
    <rdf:RDF>
      <cc:Work
         rdf:about="">
        <dc:format>image/svg+xml</dc:format>
        <dc:type
           rdf:resource="http://purl.org/dc/dcmitype/StillImage" />
        <dc:title />
      </cc:Work>
    </rdf:RDF>
  </metadata>
  <g
     inkscape:label="BG"
     inkscape:groupmode="layer"
     id="layer1"
     transform="translate(0,-32.41665)"
     style="display:none">
    <rect
       style="opacity:1;fill:#ffffff;fill-opacity:1;stroke:none;stroke-width:11.60810661;stroke-miterlimit:4;stroke-dasharray:none;stroke-opacity:1"
       id="rect5606"
       width="264.58334"
       height="264.58334"
       x="0"
       y="32.416653" />
    <g
       id="g7015"
       transform="matrix(0.26458333,0,0,0.26458333,109.88593,100.20246)" />
  </g>
  <g
     inkscape:groupmode="layer"
     id="layer3"
     inkscape:label="Neck"
     style="display:inline">
    <path
       style="fill:#000000;fill-rule:evenodd;stroke:#000000;stroke-width:0.26458332px;stroke-linecap:butt;stroke-linejoin:miter;stroke-opacity:1;fill-opacity:1"
       d="m 86.934523,205.99702 107.345237,-1.13393 13.98512,59.72024 -135.315475,0 z"
       id="path6864"
       inkscape:connector-curvature="0" />
    <path
       style="fill:#2e345c;fill-rule:evenodd;stroke:none;stroke-width:0.26458332px;stroke-linecap:butt;stroke-linejoin:miter;stroke-opacity:1;fill-opacity:1"
       d="m 107.06176,192.38988 c 0,-1.32292 -2.17337,-18.33185 -2.26786,-20.78869 -0.0945,-2.45685 71.81547,-9.73289 71.81547,-8.69345 0,1.03943 0,20.22172 0.47247,22.39508 0.47247,2.17337 2.17337,3.87426 3.87426,10.01638 1.70089,6.14211 2.26786,13.89062 -0.66146,16.91443 -2.92932,3.02381 -16.34747,15.30803 -36.38021,15.21354 -20.03273,-0.0945 -35.05729,-4.34673 -40.44345,-14.45759 -5.386159,-10.11086 -7.181547,-20.50521 3.59078,-20.5997 z"
       id="path4829"
       inkscape:connector-curvature="0" />
    <path
       style="fill:#2e5c52;fill-rule:evenodd;stroke:none;stroke-width:0.26458332px;stroke-linecap:butt;stroke-linejoin:miter;stroke-opacity:1;fill-opacity:1"
       d="m 125.3936,224.04538 c 0.28348,-1.88988 -11.24479,-18.14285 -8.78795,-18.9933 2.45685,-0.85045 9.16593,8.59896 13.41816,10.77232 4.25223,2.17336 6.99256,4.34673 13.89062,3.87426 6.89807,-0.47247 26.26935,-17.19792 27.11979,-15.78051 0.85045,1.41741 -12.37872,17.00893 -11.0558,17.10342 1.32292,0.0945 10.39435,-14.55208 13.79613,-14.55208 3.40179,0 6.89807,0.37798 6.89807,2.26786 0,1.88988 -9.35491,15.21354 -24.09598,16.63095 -14.74108,1.41741 -38.08111,3.30729 -31.18304,-1.32292 z"
       id="path4831"
       inkscape:connector-curvature="0" />
    <path
       style="fill:#3f7f72;fill-rule:evenodd;stroke:none;stroke-width:0.26458332px;stroke-linecap:butt;stroke-linejoin:miter;stroke-opacity:1;fill-opacity:1"
       d="m 133.23661,206.56399 c 0,-1.98438 -4.72471,-8.40998 -7.65402,-10.96132 -2.92932,-2.55133 -20.22173,-25.13541 -20.31622,-23.52901 -0.0945,1.6064 1.88988,18.42634 3.49628,24.56845 1.6064,6.14211 11.24479,20.41071 12.18973,20.12723 0.94494,-0.28348 -9.63839,-14.45759 -6.80357,-15.40253 2.83482,-0.94494 19.46577,16.81994 21.92262,14.55209 2.45684,-2.26786 -12.47322,-9.92188 -10.11087,-12.09524 2.36236,-2.17336 3.77976,2.64583 7.27605,2.74033 z"
       id="path4833"
       inkscape:connector-curvature="0" />
    <path
       style="fill:#2e5c52;fill-rule:evenodd;stroke:none;stroke-width:0.26458332px;stroke-linecap:butt;stroke-linejoin:miter;stroke-opacity:1;fill-opacity:1"
       d="m 133.61458,203.54017 c 1.03944,-1.22842 9.92188,-2.74032 11.62277,-2.07886 1.70089,0.66145 0.0945,2.92931 1.32292,2.83482 1.22842,-0.0945 10.58333,-4.72471 13.98512,-7.65402 3.40178,-2.92931 7.08705,-6.52009 6.3311,-7.55952 -0.75596,-1.03944 -15.9695,11.15029 -25.60789,10.67782 -9.63839,-0.47246 -13.89063,-3.96875 -13.89063,-2.07886 0,1.88987 -5.00818,5.57515 -3.59077,7.74851 1.41741,2.17336 10.48884,9.16592 17.57589,8.97693 7.08706,-0.18899 20.41072,-9.5439 20.22173,-10.29985 -0.18899,-0.75595 -15.30804,7.18155 -21.26116,6.52009 -5.95313,-0.66146 -8.59896,-5.38616 -6.70908,-7.08706 z"
       id="path4835"
       inkscape:connector-curvature="0" />
  </g>
  <g
     inkscape:groupmode="layer"
     id="layer10"
     inkscape:label="Shirt">
    <path
       style="fill:#58114d;fill-rule:evenodd;stroke:none;stroke-width:0.26458332px;stroke-linecap:butt;stroke-linejoin:miter;stroke-opacity:1;fill-opacity:1"
       d="m 187.35594,188.81242 c 0,0 11.75986,9.48807 17.50615,12.02713 5.7463,2.53906 23.25245,6.01356 26.32605,5.87993 3.0736,-0.13364 18.17433,1.46998 23.51972,5.61266 5.34539,4.14268 9.87546,11.62622 9.87546,11.62622 l 0,40.62497 -105.82522,0 18.04069,-20.17885 z"
       id="path6858"
       inkscape:connector-curvature="0" />
    <path
       style="display:inline;fill:#741665;fill-opacity:1;fill-rule:evenodd;stroke:none;stroke-width:0.26458332px;stroke-linecap:butt;stroke-linejoin:miter;stroke-opacity:1"
       d="m 155.55086,264.58333 c 0,0 14.56619,-13.36348 15.50164,-18.04069 0.93544,-4.67722 4.40994,-17.63979 6.41446,-20.71339 2.00452,-3.0736 5.27857,-17.50616 4.74403,-23.51972 -0.53453,-6.01357 -5.4122,-15.50163 -5.4122,-17.50615 0,-2.00452 -0.66817,-14.69983 0,-15.50164 0.66818,-0.80181 8.41899,4.27632 9.48807,8.41899 1.06908,4.14268 11.35895,35.68049 11.35895,40.62497 0,4.94449 -3.8754,21.5152 -3.34087,25.52424 0.53454,4.00905 1.20272,5.87993 0.53454,5.61266 -0.66817,-0.26727 -4.40994,-5.47902 -4.40994,-8.55262 0,-3.0736 0.80181,-19.24341 -0.13364,-19.24341 -0.93544,0 -8.55262,17.37252 -11.62622,23.11881 -3.0736,5.7463 -17.90706,19.77795 -17.90706,19.77795 z"
       id="path6854"
       inkscape:connector-curvature="0"
       sodipodi:nodetypes="csssssssssssscc" />
    <path
       style="fill:#410c39;fill-rule:evenodd;stroke:none;stroke-width:0.26458332px;stroke-linecap:butt;stroke-linejoin:miter;stroke-opacity:1;fill-opacity:1"
       d="m 98.488819,191.35148 c 0,0 -25.657873,7.21628 -36.081385,11.22532 -10.423512,4.00904 -31.805073,14.16528 -33.809596,16.16981 -2.00452,2.00452 -8.819893,6.81537 -9.354432,10.0226 -0.534539,3.20724 -3.340869,13.63075 -6.013565,18.8425 -2.672695,5.21176 -7.0826418,16.97162 -7.0826418,16.97162 l 96.2170308,0 -9.087166,-37.81864 z"
       id="path6862"
       inkscape:connector-curvature="0" />
    <path
       style="fill:#58114d;fill-opacity:1;fill-rule:evenodd;stroke:none;stroke-width:0.26458332px;stroke-linecap:butt;stroke-linejoin:miter;stroke-opacity:1"
       d="m 105.37101,176.25075 c 0,0 1.93771,15.43481 1.67044,16.50389 -0.26727,1.06908 -10.156247,19.31023 -10.156247,26.92741 0,7.61718 1.336347,21.38156 3.474507,28.33057 2.13815,6.94901 7.75081,16.57071 7.75081,16.57071 l -9.220796,0 c 0,0 -6.414469,-16.16981 -7.884451,-20.44612 -1.469983,-4.27631 1.069078,-34.74504 0,-34.74504 -1.069078,0 -8.285356,21.38156 -10.156241,22.18337 -1.870887,0.80181 -5.479026,3.87541 -5.479026,2.93997 0,-0.93545 3.207235,-1.60362 6.280833,-8.55263 3.073601,-6.949 7.884451,-23.51972 9.2208,-26.45968 1.336347,-2.93996 11.158501,-25.25697 14.499371,-23.25245 z"
       id="path6860"
       inkscape:connector-curvature="0"
       sodipodi:nodetypes="csssccssssssc" />
  </g>
  <g
     inkscape:groupmode="layer"
     id="layer2"
     inkscape:label="Head"
     style="display:inline;opacity:1">
    <path
       style="fill:#68bd51;fill-rule:evenodd;stroke:none;stroke-width:0.26458332px;stroke-linecap:butt;stroke-linejoin:miter;stroke-opacity:1;fill-opacity:1"
       d="m 88.599848,110.63608 c 0,0 -3.875408,-3.00678 -5.011304,-2.40542 -1.135896,0.60135 -1.804069,3.34087 -2.539061,7.08264 -0.734991,3.74177 -0.868627,6.1472 0.133636,10.55715 1.00226,4.40995 2.405425,16.30344 5.612659,18.64205 3.207234,2.3386 4.075861,4.47676 5.34539,4.47676 1.26953,0 1.870888,-0.93544 2.204974,-0.80181 0.334087,0.13364 1.069079,10.02261 4.409948,15.30118 3.34087,5.27857 6.01356,7.684 7.41673,9.95579 1.40316,2.27179 8.41899,18.10751 16.63753,22.04974 8.21854,3.94222 12.02713,4.81085 18.04069,4.27631 6.01356,-0.53454 15.90254,-3.80859 20.91384,-9.02035 5.0113,-5.21175 7.48355,-7.34991 9.2208,-12.42803 1.73725,-5.07812 4.54358,-12.6953 6.28083,-16.57071 1.73725,-3.87541 4.74404,-12.76212 4.81085,-14.29892 0.0668,-1.5368 0,-2.13815 0.16705,-2.13815 0.16704,0 3.4745,-0.60136 4.91107,-4.47677 1.43658,-3.87541 2.73952,-6.48129 3.10701,-9.25421 0.3675,-2.77292 0.73499,-11.29214 1.06908,-12.42803 0.33409,-1.13589 1.33635,-4.47676 0.7684,-6.61492 -0.56795,-2.13816 -2.00452,-9.45466 -4.91108,-9.72193 -2.90655,-0.26727 -3.30746,1.36976 -3.50791,1.03567 -0.20045,-0.33409 0.3675,-29.13238 -0.73499,-31.103491 -1.10249,-1.971114 -9.32102,-26.893996 -15.33459,-30.502135 -6.01356,-3.608139 -14.93368,-7.216277 -21.5486,-7.583773 -6.61493,-0.367496 -39.22181,3.173825 -44.83447,8.886711 -5.612659,5.712886 -13.229838,24.856067 -14.666412,28.597841 -1.436573,3.741772 -0.601358,25.524238 0.434311,29.299417 1.035672,3.77518 2.071341,8.65286 1.603619,9.18739 z"
       id="path4776"
       inkscape:connector-curvature="0" />
    <path
       style="fill:#447e85;fill-rule:evenodd;stroke:none;stroke-width:0.26458332px;stroke-linecap:butt;stroke-linejoin:miter;stroke-opacity:1;fill-opacity:1"
       d="m 107.84325,169.63583 c 1.1359,0 -2.00452,-9.2208 -1.40316,-11.35895 0.60135,-2.13816 5.41221,-5.7463 5.94675,-5.27858 0.53453,0.46773 -3.94223,2.80633 -3.87541,6.48129 0.0668,3.67496 5.34539,13.76438 7.81763,12.42803 2.47224,-1.33635 -4.40995,-9.2208 -3.67495,-11.82668 0.73499,-2.60587 12.49484,-14.76663 6.5481,-18.17432 -5.94675,-3.40769 -14.29892,10.0226 -14.63301,13.22984 -0.33409,3.20723 2.00452,13.43029 3.27405,14.49937 z"
       id="path4780"
       inkscape:connector-curvature="0" />
    <path
       style="fill:#447e85;fill-rule:evenodd;stroke:none;stroke-width:0.26458332px;stroke-linecap:butt;stroke-linejoin:miter;stroke-opacity:1;fill-opacity:1"
       d="m 105.57146,75.222872 c -0.13363,-2.672694 -3.20723,-11.893495 -6.147196,-11.893495 -2.939965,0 -9.755338,12.02713 -10.423512,21.515197 -0.668173,9.488069 2.672694,25.925146 2.672694,29.533286 0,3.60814 -1.069078,10.82441 -0.267269,19.10977 0.801809,8.28535 4.276312,21.78246 5.746295,26.19241 1.469983,4.40995 8.552628,11.35896 10.289878,13.63075 1.73725,2.27179 2.93996,6.949 7.48354,13.36347 4.54359,6.41447 12.02713,10.42351 11.49259,9.48807 -0.53453,-0.93544 -6.28083,-8.15172 -6.68173,-12.42803 -0.40091,-4.27631 -0.66818,-6.94901 -2.40543,-6.81538 -1.73725,0.13364 2.33861,12.42804 1.33635,12.2944 -1.00226,-0.13363 -6.21402,-6.5481 -7.41673,-9.82215 -1.20271,-3.27405 -8.35217,-15.16755 -9.42125,-19.37704 -1.06908,-4.2095 -4.6104,-18.10751 0.26727,-21.18111 4.87767,-3.0736 20.84702,-4.14268 23.18563,-3.34087 2.33861,0.80181 2.13816,4.81085 1.20271,6.81537 -0.93544,2.00452 -2.07134,1.46999 -1.00226,2.47225 1.06908,1.00226 4.67722,2.67269 6.08038,2.67269 1.40317,0 3.80859,-0.66817 4.14268,-10.28988 0.33409,-9.6217 1.67044,-22.78472 -1.20271,-26.5265 -2.87315,-3.74177 -4.67722,-7.81763 -12.82894,-7.95126 -8.15172,-0.13364 -23.386082,6.81537 -23.386082,5.81311 0,-1.00226 2.672692,-5.94675 6.748552,-7.48355 4.07586,-1.5368 9.35444,-1.737251 9.95579,-3.00678 0.60136,-1.269532 -2.60587,-4.009043 -1.9377,-4.276315 0.66817,-0.267269 6.68174,-0.601355 6.5481,-0.868624 -0.13363,-0.267269 -7.08264,0.400904 -7.41673,0.334086 -0.33408,-0.06682 -9.08716,-10.490329 -6.61492,-17.973875 z"
       id="path4800"
       inkscape:connector-curvature="0" />
    <path
       style="fill:#df8cb4;fill-rule:evenodd;stroke:none;stroke-width:0.26458332px;stroke-linecap:butt;stroke-linejoin:miter;stroke-opacity:1;fill-opacity:1"
       d="m 133.10022,119.9237 c 0.46773,-1.33635 1.46999,-4.40995 4.14268,-4.00904 2.6727,0.4009 5.94675,7.81763 9.42125,9.55488 3.4745,1.73725 3.40769,5.94675 2.13816,7.61718 -1.26953,1.67044 -5.87993,-8.68626 -6.68174,-7.75081 -0.80181,0.93544 1.20271,12.6953 2.20497,13.36347 1.00226,0.66818 2.80633,-0.33408 3.60814,0.80181 0.80181,1.1359 1.60362,3.40769 1.06908,4.94449 -0.53454,1.5368 -2.20497,2.87315 -2.27179,2.47224 -0.0668,-0.4009 1.00226,-1.9377 0.46772,-2.13815 -0.53454,-0.20046 -1.26953,-0.86863 -2.20497,-0.20046 -0.93545,0.66818 -2.60588,4.54359 -5.81311,-1.80407 -3.20724,-6.34765 -1.53681,-21.31474 -2.53907,-21.84928 -1.00226,-0.53454 -3.60813,1.60362 -3.54132,-1.00226 z"
       id="path4786"
       inkscape:connector-curvature="0" />
    <path
       style="fill:#aca0cf;fill-rule:evenodd;stroke:none;stroke-width:0.26458332px;stroke-linecap:butt;stroke-linejoin:miter;stroke-opacity:1;fill-opacity:1"
       d="m 103.70058,104.28843 c 0.86862,-2.27179 15.30118,-4.543578 16.63752,-4.744032 1.33635,-0.200451 2.73952,2.672692 3.60814,2.539062 0.86863,-0.13363 1.06908,-6.013565 2.13816,-5.946747 1.06908,0.06682 1.46998,3.674956 1.46998,6.481287 0,2.80633 -0.73499,4.74403 -1.33635,4.74403 -0.60135,0 -1.46998,-3.27405 -2.53906,-3.67495 -1.06908,-0.40091 -6.48128,-1.40317 -12.36121,0 -5.87993,1.40316 -8.01809,2.20497 -7.61718,0.60135 z"
       id="path4782"
       inkscape:connector-curvature="0" />
    <path
       style="fill:#75f683;fill-rule:evenodd;stroke:none;stroke-width:0.26458332px;stroke-linecap:butt;stroke-linejoin:miter;stroke-opacity:1;fill-opacity:1"
       d="m 129.62572,51.76997 c -0.0668,3.741774 4.14268,9.621705 13.22984,9.888974 9.08716,0.267269 20.71339,17.038431 16.97161,21.715647 -3.74177,4.677217 -17.50615,2.739515 -17.50615,5.14494 0,2.405425 3.60814,7.082641 8.75308,7.750815 5.14494,0.668176 19.71113,6.748554 19.71113,9.488074 0,2.73951 -11.96032,-2.00453 -11.69305,-1.20272 0.26728,0.80181 5.81312,3.20724 7.14946,4.27631 1.33635,1.06908 0.73499,3.00679 2.47225,2.60588 1.73725,-0.4009 5.61266,-2.60588 5.61266,-2.27179 0,0.33409 -5.34539,2.73951 -5.14494,3.34087 0.20045,0.60136 7.08264,-0.80181 7.08264,-0.33409 0,0.46773 -8.21854,0.60136 -8.21854,1.40317 0,0.80181 6.81538,3.80859 6.68174,4.14268 -0.13363,0.33408 -6.94901,-2.93997 -7.95127,-3.54133 -1.00226,-0.60135 -2.87314,-2.40542 -3.00678,-1.60361 -0.13363,0.80181 -2.00452,2.00452 -3.74177,2.67269 -1.73725,0.66818 -0.13364,2.87315 0.86862,2.93997 1.00226,0.0668 3.67496,-0.26727 5.14494,0.16704 1.46998,0.43432 4.37654,4.07586 4.10927,4.10927 -0.26727,0.0334 -3.87541,-3.842 -4.6104,-3.34087 -0.73499,0.50113 0.96885,3.57473 1.77066,3.90882 0.80181,0.33409 5.41221,4.64381 5.17835,4.97789 -0.23386,0.33409 -5.98016,-4.71062 -6.48129,-5.3788 -0.50113,-0.66817 -1.20271,-2.13815 -1.43657,-1.67043 -0.23386,0.46772 -0.0668,5.17835 -2.40543,6.04697 -2.33861,0.86863 -8.35217,2.93997 -6.88219,4.94449 1.46999,2.00452 12.82894,4.07586 15.63527,7.14946 2.80633,3.0736 4.94449,7.28309 4.54358,12.2944 -0.4009,5.0113 -4.00904,21.38156 -3.54132,21.64883 0.46772,0.26727 5.34539,-20.64657 5.81311,-20.44612 0.46773,0.20045 -4.47676,17.10525 -4.07586,16.83798 0.40091,-0.26727 7.88446,-19.9784 7.88446,-20.98066 0,-1.00226 0.33408,-5.67948 0.66817,-5.67948 0.33409,0 -0.20045,1.67044 0.33409,1.60362 0.53453,-0.0668 2.27179,-1.00226 3.40768,-2.67269 1.1359,-1.67044 3.67496,-8.68626 3.67496,-9.35444 0,-0.66817 0.53454,-8.0849 0,-10.62396 -0.53454,-2.53906 -3.74177,-14.69983 -4.34313,-13.36348 -0.60136,1.33635 -1.80407,3.67496 -1.80407,5.14494 0,1.46998 4.87767,6.68174 4.87767,7.95127 0,1.26953 1.13589,3.0736 -0.33409,4.67722 -1.46998,1.60361 -4.87767,3.54132 -5.07812,2.60587 -0.20045,-0.93544 -1.60362,-14.03165 -1.5368,-15.36799 0.0668,-1.33635 -1.5368,-34.477772 -3.4745,-40.357702 C 175.99698,67.13797 167.04345,49.498181 162.76714,45.95686 158.49083,42.415539 149.5373,38.406495 143.791,38.606946 138.04471,38.8074 128.22255,46.758666 129.62572,51.76997 Z"
       id="path4790"
       inkscape:connector-curvature="0" />
    <path
       style="fill:#e6a4cf;fill-rule:evenodd;stroke:none;stroke-width:0.26458332px;stroke-linecap:butt;stroke-linejoin:miter;stroke-opacity:1;fill-opacity:1"
       d="m 130.6948,158.7446 c -0.53454,-1.60362 5.87993,-5.21176 6.28083,-4.00905 0.40091,1.20272 -5.21175,5.7463 -6.28083,4.00905 z"
       id="path4792"
       inkscape:connector-curvature="0" />
    <path
       style="fill:#e6a4cf;fill-rule:evenodd;stroke:none;stroke-width:0.26458332px;stroke-linecap:butt;stroke-linejoin:miter;stroke-opacity:1;fill-opacity:1"
       d="m 141.38558,152.06286 c 0.93544,-2.27179 6.28083,-4.54358 7.21628,-2.80633 0.93544,1.73725 13.76438,7.75082 11.89349,8.28536 -1.87089,0.53453 -15.50163,2.53905 -15.90254,0.53453 -0.4009,-2.00452 1.33635,-1.73725 -3.20723,-6.01356 z"
       id="path4794"
       inkscape:connector-curvature="0" />
    <path
       style="fill:#e6a4cf;fill-rule:evenodd;stroke:none;stroke-width:0.26458332px;stroke-linecap:butt;stroke-linejoin:miter;stroke-opacity:1;fill-opacity:1"
       d="m 166.64255,149.65744 c 1.87089,0 3.34087,0.66817 3.20723,6.14719 -0.13363,5.47903 -1.06908,16.43708 -2.40542,20.71339 -1.33635,4.27631 -1.73725,8.15172 -5.47903,12.42803 -3.74177,4.27632 -22.18337,7.88446 -20.84702,3.47451 1.33635,-4.40995 5.21175,-5.7463 5.07812,-9.2208 -0.13363,-3.4745 -8.55263,-8.01809 -6.94901,-11.49259 1.60362,-3.4745 1.73725,-6.01356 4.27632,-6.41447 2.53906,-0.4009 14.29891,-5.34539 14.83345,-4.27631 0.53454,1.06908 -0.8018,9.88897 -0.13363,9.88897 0.66817,0 8.28535,-7.08264 9.08716,-12.02713 0.80181,-4.94448 -1.73725,-7.34991 -0.66817,-9.22079 z"
       id="path4796"
       inkscape:connector-curvature="0" />
    <path
       style="fill:#aca0cf;fill-rule:evenodd;stroke:none;stroke-width:0.26458332px;stroke-linecap:butt;stroke-linejoin:miter;stroke-opacity:1;fill-opacity:1"
       d="m 134.1693,97.272609 c -2.53906,-0.801809 -4.54358,4.677221 -4.54358,7.617181 0,2.93996 0.4009,5.87993 2.53906,5.61266 2.13815,-0.26727 4.94449,-1.60362 4.94449,-0.4009 0,1.20271 -2.6727,0.8018 -2.13816,2.40542 0.53454,1.60362 6.28083,5.87993 6.28083,4.81085 0,-1.06908 -2.40542,-4.94448 -0.66817,-7.21627 1.73725,-2.2718 10.55714,-5.87994 10.42351,-6.41447 -0.13363,-0.53454 -7.61718,-0.26727 -7.88445,-1.73725 -0.26727,-1.46999 -2.53906,-4.409952 -4.14268,-4.276317 -1.60361,0.133633 -0.8018,6.013567 -1.87088,6.013567 -1.06908,0 0.26727,-2.80633 -2.93997,-6.414471 z"
       id="path4798"
       inkscape:connector-curvature="0" />
    <path
       style="fill:#2e345c;fill-rule:evenodd;stroke:none;stroke-width:0.26458332px;stroke-linecap:butt;stroke-linejoin:miter;stroke-opacity:1;fill-opacity:1"
       d="m 125.88395,112.17288 c 1.33634,0 3.80859,4.2095 5.4122,11.15851 1.60362,6.94901 0.0668,20.57975 -1.33634,20.7802 -1.40317,0.20045 -2.07134,-1.33635 -3.40769,-1.33635 -1.33635,0 -2.80633,1.60362 -2.80633,0.0668 0,-1.5368 0.26727,-4.6104 1.60362,-5.07812 1.33635,-0.46772 2.13815,1.20271 2.67269,0.46772 0.53454,-0.73499 1.40317,-8.81989 0.60136,-8.81989 -0.80181,0 -4.74403,7.14946 -6.5481,6.81537 -1.80407,-0.33409 1.26953,-9.2208 2.20497,-10.89123 0.93544,-1.67044 -1.9377,0.0668 -2.00452,-1.20271 -0.0668,-1.26954 3.74177,-5.67948 4.07586,-7.55037 0.33409,-1.87089 -4.27631,-4.54358 -0.46772,-4.40995 z"
       id="path4802"
       inkscape:connector-curvature="0" />
    <path
       style="fill:#e6a4cf;fill-rule:evenodd;stroke:none;stroke-width:0.26458332px;stroke-linecap:butt;stroke-linejoin:miter;stroke-opacity:1;fill-opacity:1"
       d="m 125.88395,144.04477 c 1.06907,0 3.27405,2.40543 4.27631,2.40543 1.00226,0 3.80859,-4.00904 7.14946,-3.87541 3.34087,0.13364 4.20949,3.34087 5.14494,3.34087 0.93544,0 2.47224,-1.33635 2.47224,-1.00226 0,0.33409 -3.67496,4.74404 -7.55036,4.81085 -3.87541,0.0668 -6.61493,-2.33861 -7.75082,-2.33861 -1.1359,0 -4.81085,0.60136 -4.94449,-1.33634 -0.13363,-1.93771 0.53454,-2.07134 1.20272,-2.00453 z"
       id="path4784"
       inkscape:connector-curvature="0" />
    <path
       style="fill:#a9569c;fill-rule:evenodd;stroke:none;stroke-width:0.26458332px;stroke-linecap:butt;stroke-linejoin:miter;stroke-opacity:1;fill-opacity:1"
       d="m 122.00854,122.39594 c 0.4009,0.60136 -2.53906,4.2095 -3.74178,5.34539 -1.20271,1.1359 -0.0668,-1.26953 -4.61039,-1.33635 -4.54359,-0.0668 -7.41673,-1.67043 -9.55489,-0.66817 -2.13816,1.00226 -5.078121,3.54132 -5.078121,2.53906 0,-1.00226 5.545841,-4.00904 6.949011,-4.00904 1.40316,0 3.94222,0.66817 7.01582,0.60136 3.0736,-0.0668 7.2831,-2.47225 6.61492,-2.80634 -0.66817,-0.33408 -4.54358,1.20272 -7.41673,1.67044 -2.87314,0.46772 -6.08038,-0.60136 -6.949,-0.33409 -0.86863,0.26727 -3.47451,2.27179 -3.54133,1.87089 -0.0668,-0.4009 1.33635,-2.60588 2.80634,-2.53906 1.46998,0.0668 5.87992,0.33409 5.81311,-0.46772 -0.0668,-0.80181 -3.80859,-0.80181 -5.27858,-0.53454 -1.46998,0.26727 -6.28083,1.46998 -6.28083,1.13589 0,-0.33408 5.41221,-3.00678 6.81537,-2.93996 1.40317,0.0668 3.40769,1.73725 6.74856,1.26953 3.34087,-0.46772 9.48807,-2.13816 10.7576,-3.14042 1.26953,-1.00226 1.53679,-1.13589 1.46998,-1.87088 -0.0668,-0.73499 -5.54584,-4.67722 -9.28762,-4.74404 -3.74177,-0.0668 -7.88445,0.93544 -9.82215,2.6727 -1.93771,1.73725 -2.27179,3.4745 -3.67496,4.07586 -1.40316,0.60136 -4.54358,0.53454 -4.54358,-0.0668 0,-0.60136 3.67496,0.26727 4.54358,-0.93544 0.86863,-1.20272 2.40543,-3.54132 3.34087,-4.07586 0.93544,-0.53454 7.01582,-2.93997 10.08943,-2.60588 3.07359,0.33409 8.68626,4.00904 8.68626,3.0736 0,-0.93544 -5.21176,-3.4745 -7.61719,-3.4745 -2.40542,0 -9.6217,0.4009 -12.02713,2.53906 -2.40542,2.13815 -3.94222,4.81085 -4.543577,4.27631 -0.601356,-0.53454 -0.267269,-4.81085 0.868627,-6.21402 1.13589,-1.40316 16.23662,-5.47903 19.84476,-4.14268 3.60814,1.33635 5.67948,4.74404 5.67948,6.01357 0,1.26953 -1.06908,-0.0668 -1.06908,0.53454 0,0.60135 1.5368,1.60361 1.5368,2.33861 0,0.73499 -1.20271,2.53906 -2.13816,3.8754 -0.93544,1.33635 -5.14494,1.73725 -2.40542,3.0736 z"
       id="path4788"
       inkscape:connector-curvature="0" />
    <path
       style="fill:#e6aaff;fill-rule:evenodd;stroke:none;stroke-width:0.26458332px;stroke-linecap:butt;stroke-linejoin:miter;stroke-opacity:1;fill-opacity:1"
       d="m 89.936195,120.45824 c 1.336346,0 3.006783,5.27857 3.006783,8.0849 0,2.80633 1.603615,9.55489 2.739511,13.96483 1.135896,4.40995 2.939966,8.48581 2.405425,8.48581 -0.534537,0 -6.614919,-18.17433 -7.149459,-22.71791 -0.534538,-4.54358 -1.469983,-7.75081 -1.00226,-7.81763 z"
       id="path4778"
       inkscape:connector-curvature="0" />
    <path
       style="fill:#447e85;fill-rule:evenodd;stroke:none;stroke-width:0.26458332px;stroke-linecap:butt;stroke-linejoin:miter;stroke-opacity:1;fill-opacity:1"
       d="m 134.79576,150.43452 c -0.0945,-0.23623 -4.29948,-1.84263 -4.86645,-2.22061 -0.56696,-0.37797 -4.34672,-0.14174 -5.14992,-0.8032 -0.8032,-0.66146 -1.6064,-1.55915 -1.13393,-2.36235 0.47247,-0.8032 1.13393,-2.12612 0.61421,-2.17336 -0.51972,-0.0472 -2.22061,1.65364 -1.88988,3.07105 0.33073,1.41741 1.93713,3.40179 4.016,3.59078 2.07887,0.18899 1.13393,4.11049 -0.85045,4.44122 -1.98437,0.33073 -8.45722,1.27567 -8.31547,2.78757 0.14174,1.51191 9.16592,2.59859 11.57552,0.14174 2.40959,-2.45684 -0.0945,-3.73251 1.65364,-5.29166 1.74814,-1.55915 4.20499,0.33073 4.34673,-1.18118 z"
       id="path4804"
       inkscape:connector-curvature="0" />
    <path
       style="fill:#a77867;fill-rule:evenodd;stroke:none;stroke-width:0.26458332px;stroke-linecap:butt;stroke-linejoin:miter;stroke-opacity:1;fill-opacity:1"
       d="m 115.18824,160.49814 c 0.18899,-0.56697 2.55134,-0.99219 4.29948,-0.33073 1.74814,0.66146 5.5279,1.37016 7.65402,1.18117 2.12612,-0.18898 6.47284,-0.61421 7.18155,-0.61421 0.7087,0 1.41741,0.37798 2.78757,0.42523 1.37017,0.0472 2.4096,-0.51972 3.26005,-0.51972 0.85044,0 7.1343,0.14174 10.63058,-0.56697 3.49628,-0.7087 5.48065,-1.55915 6.52008,-1.55915 1.03944,0 2.88207,0.51972 2.64584,0.85045 -0.23624,0.33073 -0.94494,-0.0473 -3.73252,0.42522 -2.78757,0.47247 -12.42596,5.05543 -17.71763,5.14993 -5.29166,0.0945 -14.64658,-1.79539 -16.77269,-2.55134 -2.12612,-0.75595 -5.14993,-1.84264 -6.75633,-1.88988 z"
       id="path4806"
       inkscape:connector-curvature="0" />
    <path
       style="fill:#624841;fill-rule:evenodd;stroke:none;stroke-width:0.26458332px;stroke-linecap:butt;stroke-linejoin:miter;stroke-opacity:1;fill-opacity:1"
       d="m 116.59633,160.39833 c 0,-0.16705 1.5535,-0.25057 2.00452,-0.0668 0.45102,0.18375 2.08804,1.01897 3.4411,1.23612 1.35305,0.21716 6.33094,0.96885 7.73411,0.83522 1.40316,-0.13363 3.60814,-0.18375 4.40994,-0.0835 0.80181,0.10022 2.47225,0.20045 3.07361,0.18375 0.60135,-0.0167 6.34765,-0.88533 7.40002,-1.08579 1.05237,-0.20045 5.52914,-0.71828 7.40002,-1.21941 1.87089,-0.50113 4.9946,-1.33635 5.69619,-1.33635 0.70158,0 1.83748,0.11693 1.72055,0.25056 -0.11693,0.13364 -1.25283,0.0167 -2.42214,0.15034 -1.1693,0.13364 -9.75533,2.3052 -11.97701,2.6727 -2.22168,0.36749 -6.09709,1.13589 -7.71741,1.13589 -1.62032,0 -7.61718,-0.18374 -8.8533,-0.3842 -1.23612,-0.20045 -5.72959,-0.4176 -7.61718,-1.11919 -1.88759,-0.70158 -2.92326,-1.186 -4.29302,-1.1693 z"
       id="path4808"
       inkscape:connector-curvature="0" />
    <path
       style="fill:#5fc2d3;fill-rule:evenodd;stroke:none;stroke-width:0.26458332px;stroke-linecap:butt;stroke-linejoin:miter;stroke-opacity:1;fill-opacity:1"
       d="m 130.77976,189.55506 c 2.07887,0.0945 5.95313,-12.7567 3.77976,-13.89063 -2.17336,-1.13393 -8.59896,-0.37797 -8.40997,-3.1183 0.18899,-2.74033 4.8192,-5.19717 3.68527,-5.85863 -1.13393,-0.66146 -16.81994,-8.50447 -13.79613,-3.40179 3.02381,5.10268 3.68527,9.44941 0.85044,9.5439 -2.83482,0.0945 -5.48065,-2.83482 -7.08705,-6.61458 -1.6064,-3.77976 -2.17336,-8.40997 -2.55134,-8.40997 -0.37797,0 0.28348,5.19717 0.94494,8.50446 0.66146,3.30729 2.55134,11.1503 4.91369,14.74107 2.36235,3.59078 4.06325,5.76414 4.44122,5.76414 0.37798,0 -3.30729,-11.0558 -1.41741,-10.96131 1.88988,0.0945 3.59078,-0.0945 4.25224,1.70089 0.66145,1.79539 2.83482,12.47322 10.39434,12.00075 z"
       id="path4810"
       inkscape:connector-curvature="0" />
    <path
       style="fill:#bd7db9;fill-rule:evenodd;stroke:none;stroke-width:0.26458332px;stroke-linecap:butt;stroke-linejoin:miter;stroke-opacity:1;fill-opacity:1"
       d="m 159.22247,115.47172 c 0,-0.47246 -6.89807,0 -9.5439,-0.28348 -2.64583,-0.28348 -5.29167,0.18899 -4.91369,-1.5119 0.37798,-1.7009 5.57515,-6.70908 8.88244,-6.61458 3.30729,0.0945 7.27604,1.32291 9.4494,2.55133 2.17337,1.22843 2.4096,2.45685 3.02381,2.4096 0.61421,-0.0472 1.03944,-1.41741 -2.88206,-3.54352 -3.92151,-2.12612 -6.85082,-2.07887 -10.20536,-1.93713 -3.35454,0.14174 -10.01637,7.18155 -10.01637,6.52009 0,-0.66146 3.63802,-4.96094 5.57515,-6.4256 1.93713,-1.46466 4.016,-2.36235 4.67745,-2.36235 0.66146,0 6.09487,1.41741 5.85863,1.13393 -0.23623,-0.28348 -4.39397,-2.03162 -6.47284,-1.98438 -2.07887,0.0472 -11.57552,5.90588 -11.81175,8.26823 -0.23624,2.36235 2.97656,7.32329 5.14992,9.92188 2.17336,2.59858 10.48884,3.21279 10.06362,2.88207 -0.42522,-0.33073 -8.88244,-3.11831 -7.65402,-3.96875 1.22842,-0.85045 4.53572,0.14174 9.21317,-0.33073 4.67746,-0.47247 6.61458,-0.75596 6.42559,-1.03944 -0.18898,-0.28348 -12.37871,-0.0472 -12.14248,-1.37016 0.23623,-1.32292 6.85082,-1.18118 7.32329,-2.31511 z"
       id="path4812"
       inkscape:connector-curvature="0" />
    <path
       style="fill:#c8beb7;fill-rule:evenodd;stroke:none;stroke-width:0.26458332px;stroke-linecap:butt;stroke-linejoin:miter;stroke-opacity:1"
       d="m 148.11942,112.68415 c 0,-0.56696 0.94494,-4.48847 5.81138,-4.53571 4.86644,-0.0472 8.59896,1.88988 8.7407,2.97656 0.14174,1.08668 -3.68527,3.16555 -6.47284,3.16555 -2.78758,0 -7.9375,-0.94494 -8.07924,-1.6064 z"
       id="path4814"
       inkscape:connector-curvature="0" />
    <path
       style="fill:#163223;fill-rule:evenodd;stroke:none;stroke-width:2.17576694px;stroke-linecap:butt;stroke-linejoin:miter;stroke-opacity:1;fill-opacity:1"
       d="M 581.78516 408.75 C 579.05726 408.77648 576.66334 409.13135 574.55078 409.71289 A 15.840688 16.019259 0 0 0 572.73047 417.14258 A 15.840688 16.019259 0 0 0 581.3418 431.38086 C 584.61115 431.74618 587.75704 431.96484 590.35742 431.96484 C 592.11969 431.96484 593.99321 431.72909 595.88672 431.34375 A 15.840688 16.019259 0 0 0 604.41211 417.14258 A 15.840688 16.019259 0 0 0 603.64258 412.27344 C 597.88436 410.20189 590.3068 408.66735 581.78516 408.75 z "
       transform="scale(0.26458333)"
       id="circle4822" />
    <path
       style="fill:#c8beb7;fill-rule:evenodd;stroke:none;stroke-width:0.26458332px;stroke-linecap:butt;stroke-linejoin:miter;stroke-opacity:1"
       d="m 120.71614,115.70796 c 0,-0.75595 -2.17336,-3.07106 -3.9215,-3.44903 -1.74814,-0.37798 -4.29948,-0.51972 -7.55952,0.7087 -3.26005,1.22842 -4.06325,2.97656 -4.016,3.26005 0.0472,0.28348 4.34673,2.22061 7.32329,2.17336 2.97656,-0.0472 8.07924,-2.12612 8.17373,-2.69308 z"
       id="path4816"
       inkscape:connector-curvature="0" />
    <path
       style="fill:#163223;fill-rule:evenodd;stroke:none;stroke-width:2.23275208px;stroke-linecap:butt;stroke-linejoin:miter;stroke-opacity:1;fill-opacity:1"
       d="M 432.73438 423.28125 C 427.21331 423.18359 420.5583 424.06306 412.85742 426.96484 C 412.17337 427.2226 411.52824 427.48728 410.90039 427.75586 A 16.169337 16.526481 0 0 0 410.25977 432.32227 A 16.169337 16.526481 0 0 0 418.91211 446.94141 C 421.13995 447.3156 423.33091 447.53217 425.35742 447.5 C 428.34301 447.45266 431.89626 446.85522 435.50977 445.97656 A 16.169337 16.526481 0 0 0 442.59766 432.32227 A 16.169337 16.526481 0 0 0 440.43164 424.10156 C 438.17378 423.66472 435.62711 423.33242 432.73438 423.28125 z "
       transform="scale(0.26458333)"
       id="circle4826" />
    <circle
       style="fill:#242424;fill-rule:evenodd;stroke:none;stroke-width:0.26458332px;stroke-linecap:butt;stroke-linejoin:miter;stroke-opacity:1;fill-opacity:1"
       id="path4818"
       cx="112.82589"
       cy="114.38504"
       r="1.9371279" />
    <circle
       r="1.9371279"
       cy="110.36904"
       cx="155.72618"
       id="circle4820"
       style="fill:#242424;fill-rule:evenodd;stroke:none;stroke-width:0.26458332px;stroke-linecap:butt;stroke-linejoin:miter;stroke-opacity:1;fill-opacity:1" />
    <path
       style="fill:#762d36;fill-rule:evenodd;stroke:none;stroke-width:0.26458332px;stroke-linecap:butt;stroke-linejoin:miter;stroke-opacity:1;fill-opacity:1"
       d="m 185.49181,108.57366 c 0,-1.22842 -0.56696,-1.79539 1.03944,-1.70089 1.6064,0.0945 3.30729,3.30729 4.06324,5.10267 0.75596,1.79539 -0.56696,7.84301 -1.70089,7.84301 -1.13393,0 -1.6064,-7.84301 -3.40179,-11.24479 z"
       id="path4839"
       inkscape:connector-curvature="0" />
    <path
       style="fill:#762d36;fill-rule:evenodd;stroke:none;stroke-width:0.26458332px;stroke-linecap:butt;stroke-linejoin:miter;stroke-opacity:1;fill-opacity:1"
       d="m 83.060266,123.97619 c -0.566965,-0.85045 -0.283482,-11.52827 1.133931,-11.05581 1.417409,0.47248 4.535712,4.53572 3.968749,4.53572 -0.566965,0 -2.456846,-3.2128 -2.456846,-2.36235 0,0.85044 -1.133928,10.11086 -2.645834,8.88244 z"
       id="path4837"
       inkscape:connector-curvature="0" />
    <path
       style="fill:#624841;fill-opacity:1;fill-rule:evenodd;stroke:none;stroke-width:0.26458332px;stroke-linecap:butt;stroke-linejoin:miter;stroke-opacity:1"
       d="m 143.12283,103.08572 c 0,-1.26953 1.1359,-3.407686 3.67496,-3.407686 2.53906,0 9.87079,0.875336 13.3453,3.013496 3.4745,2.13816 7.58671,4.82904 6.91854,5.22994 -0.66817,0.40091 -6.89758,-3.83349 -10.37209,-4.43485 -3.4745,-0.60135 -13.03217,0.20046 -13.56671,-0.4009 z"
       id="path4861"
       inkscape:connector-curvature="0"
       sodipodi:nodetypes="cssssc" />
    <path
       style="fill:#624841;fill-rule:evenodd;stroke:none;stroke-width:0.26458332px;stroke-linecap:butt;stroke-linejoin:miter;stroke-opacity:1;fill-opacity:1"
       d="m 125.21577,105.35751 c 0,-1.1359 -0.66817,-3.20723 -2.13815,-3.20723 -1.46999,0 -8.55263,0.33408 -11.82668,1.73725 -3.27405,1.40316 -9.68852,6.41447 -9.15398,7.01582 0.53454,0.60136 7.95127,-4.81085 11.55941,-5.14493 3.60813,-0.33409 10.35669,0.33408 11.5594,-0.40091 z"
       id="path4863"
       inkscape:connector-curvature="0" />
  </g>
  <g
     inkscape:groupmode="layer"
     id="layer4"
     inkscape:label="Hair">
    <path
       style="fill:#e0e39c;fill-rule:evenodd;stroke:none;stroke-width:0.26458332px;stroke-linecap:butt;stroke-linejoin:miter;stroke-opacity:1;fill-opacity:1"
       d="m 89.107885,120.47991 c 1.606399,0 2.362353,0.47247 2.55134,-0.37798 0.188989,-0.85044 1.984375,-7.27604 1.228423,-10.58333 -0.755952,-3.30729 -5.858632,-23.906994 -4.819197,-27.78125 1.039434,-3.874257 9.732888,-23.056548 13.890629,-25.324406 4.15773,-2.267855 14.64657,-13.040177 19.93824,-12.851188 5.29167,0.188987 6.70908,3.590772 7.9375,3.590772 1.22842,0 7.46503,-6.425594 13.98512,-5.197171 6.52009,1.228421 12.7567,2.456844 17.57589,6.992559 4.8192,4.535715 9.44941,12.756695 10.96131,18.615326 1.51191,5.858632 1.03943,17.103424 2.45685,19.84375 1.41741,2.740327 4.15773,9.732888 4.81919,13.985118 0.66146,4.25223 0.37798,14.07961 1.70089,14.07961 1.32292,0 2.64584,-7.37053 2.55134,-9.26041 -0.0945,-1.88988 0.94495,-28.820686 -0.47246,-35.246283 -1.41742,-6.425594 -11.05581,-26.741813 -13.04018,-29.104166 -1.98438,-2.362351 -13.22917,-7.465028 -13.98512,-9.35491 -0.75595,-1.889881 3.30729,-5.197173 2.45684,-4.819195 -0.85044,0.377976 -3.49628,3.212796 -6.42559,3.118303 -2.92932,-0.09449 -9.82738,-1.133928 -9.92188,-2.078869 -0.0945,-0.94494 1.22843,-2.267857 0.85045,-2.173364 -0.37798,0.09449 -0.94494,1.606399 -2.45685,1.889882 -1.5119,0.283482 -13.70163,0.09449 -15.30803,0.09449 -1.6064,0 -4.06324,-1.039434 -6.04762,-1.039434 -1.98438,0 4.25223,1.322917 1.03943,1.700893 -3.21279,0.377975 -8.59895,1.41741 -10.39434,2.078868 -1.79539,0.661458 -2.17336,3.212798 -4.44122,3.874257 -2.26786,0.661458 -9.73289,4.91369 -11.339289,6.992559 -1.606396,2.07887 -1.984375,11.906249 -3.023809,12.567708 -1.039434,0.661458 -3.779761,3.685267 -5.102677,6.142114 -1.322917,2.456844 -4.535715,14.174107 -4.441222,18.23735 0.0945,4.063244 4.724704,36.380207 7.276042,41.388397 z"
       id="path4844"
       inkscape:connector-curvature="0" />
  </g>
</svg>
