<?xml version="1.0" encoding="UTF-8" standalone="no"?>
<!-- Created with Inkscape (http://www.inkscape.org/) -->

<svg
   xmlns:dc="http://purl.org/dc/elements/1.1/"
   xmlns:cc="http://creativecommons.org/ns#"
   xmlns:rdf="http://www.w3.org/1999/02/22-rdf-syntax-ns#"
   xmlns:svg="http://www.w3.org/2000/svg"
   xmlns="http://www.w3.org/2000/svg"
   xmlns:sodipodi="http://sodipodi.sourceforge.net/DTD/sodipodi-0.dtd"
   xmlns:inkscape="http://www.inkscape.org/namespaces/inkscape"
   width="1280"
   height="720"
   viewBox="0 0 338.66666 190.50001"
   id="svg2"
   version="1.1"
   inkscape:version="0.91+devel r13925"
   sodipodi:docname="dale-turner-youtube.svg"
   inkscape:export-filename="/Users/agarone/Desktop/MWM Art/dale-turner/dale-turner-youtube.png"
   inkscape:export-xdpi="96"
   inkscape:export-ydpi="96">
  <defs
     id="defs4" />
  <sodipodi:namedview
     id="base"
     pagecolor="#ffffff"
     bordercolor="#666666"
     borderopacity="1.0"
     inkscape:pageopacity="0.0"
     inkscape:pageshadow="2"
     inkscape:zoom="0.98994949"
     inkscape:cx="468.81486"
     inkscape:cy="398.37559"
     inkscape:document-units="px"
     inkscape:current-layer="layer11"
     showgrid="false"
     units="px"
     inkscape:window-width="1920"
     inkscape:window-height="1152"
     inkscape:window-x="0"
     inkscape:window-y="0"
     inkscape:window-maximized="1" />
  <metadata
     id="metadata7">
    <rdf:RDF>
      <cc:Work
         rdf:about="">
        <dc:format>image/svg+xml</dc:format>
        <dc:type
           rdf:resource="http://purl.org/dc/dcmitype/StillImage" />
        <dc:title></dc:title>
      </cc:Work>
    </rdf:RDF>
  </metadata>
  <g
     inkscape:label="Gray BG"
     inkscape:groupmode="layer"
     id="layer1"
     transform="translate(0,-106.49999)">
    <rect
       style="opacity:1;fill:#313133;fill-opacity:1;stroke:none;stroke-width:16.0535984;stroke-miterlimit:4;stroke-dasharray:none;stroke-opacity:1"
       id="rect4141"
       width="338.66669"
       height="190.5"
       x="1.4210855e-14"
       y="106.49999" />
  </g>
  <g
     inkscape:groupmode="layer"
     id="layer2"
     inkscape:label="Orange Banner">
    <rect
       style="opacity:1;fill:#de3d2d;fill-opacity:1;stroke:none;stroke-width:11.03082752;stroke-miterlimit:4;stroke-dasharray:none;stroke-opacity:1"
       id="rect4144"
       width="338.66669"
       height="43.65625"
       x="0"
       y="146.84375" />
  </g>
  <g
     inkscape:groupmode="layer"
     id="layer11"
     inkscape:label="Dale">
    <g
       id="g8926"
       transform="matrix(0.55490193,0,0,0.55490193,0,0.02595195)">
      <g
         style="display:none"
         inkscape:label="BG"
         id="layer2-8">
        <rect
           ry="264.58334"
           rx="264.58334"
           height="0"
           width="0"
           y="-5.6696429"
           x="-10.961308"
           id="rect4223"
           style="opacity:1;fill:#4e8bff;fill-opacity:1;stroke:none;stroke-width:5.21202707;stroke-miterlimit:4;stroke-dasharray:none;stroke-opacity:1" />
        <rect
           y="-1.0172526e-05"
           x="0"
           height="264.58334"
           width="264.58334"
           id="rect4225"
           style="opacity:1;fill:#ffffff;fill-opacity:1;stroke:none;stroke-width:5.21202707;stroke-miterlimit:4;stroke-dasharray:none;stroke-opacity:1" />
      </g>
      <g
         style="display:inline"
         inkscape:label="Shirt Back"
         id="layer9">
        <rect
           y="123.14429"
           x="78.577232"
           height="141.43903"
           width="186.00609"
           id="rect4256"
           style="opacity:1;fill:#000000;fill-opacity:1;stroke:none;stroke-width:5.08577681;stroke-miterlimit:4;stroke-dasharray:none;stroke-opacity:1" />
      </g>
      <g
         inkscape:label="Guitar Neck"
         id="layer10">
        <path
           inkscape:connector-curvature="0"
           id="path4259"
           d="m 136.26041,236.93437 63.89688,-14.02291 c 0,0 4.23333,6.35 5.68854,11.24479 1.45521,4.89479 -0.26458,14.15521 -0.26458,14.15521 0,0 -7.01146,1.85208 -3.96875,2.77812 3.04271,0.92604 62.97083,13.49375 62.97083,13.49375 l -129.51354,0 z"
           style="fill:#392717;fill-opacity:1;fill-rule:evenodd;stroke:none;stroke-width:0.26458332px;stroke-linecap:butt;stroke-linejoin:miter;stroke-opacity:1" />
      </g>
      <g
         inkscape:label="Guitar Sides"
         id="layer5">
        <path
           sodipodi:nodetypes="cssscscssscc"
           inkscape:connector-curvature="0"
           id="path4244"
           d="m 46.698958,146.18229 c 0,0 19.949449,22.5233 25.902574,23.84621 5.953125,1.32292 15.413926,-13.28947 22.689967,-11.96655 7.276041,1.32291 20.728291,17.62138 29.194961,39.71409 8.46666,22.09271 12.96458,40.08437 12.96458,40.08437 0,0 25.4,-1.4552 38.62917,-5.95312 13.22916,-4.49792 24.47395,-9.12813 24.47395,-9.12813 0,0 -14.81666,-51.99062 -26.59062,-67.20416 -11.77396,-15.21354 -16.40417,-17.19792 -23.15104,-16.80104 -6.74688,0.39687 -36.64479,10.9802 -40.08438,10.9802 -3.43958,0 -9.525,-5.95312 -9.525,-5.95312 z"
           style="fill:#5d391f;fill-opacity:1;fill-rule:evenodd;stroke:none;stroke-width:0.26458332px;stroke-linecap:butt;stroke-linejoin:miter;stroke-opacity:1" />
      </g>
      <g
         style="display:inline"
         inkscape:label="Guitar Front"
         id="layer6-0">
        <path
           inkscape:connector-curvature="0"
           id="path4247"
           d="m 137.45104,237.72812 c 0,0 -12.17083,-49.60937 -26.19375,-66.41041 -14.022916,-16.80105 -15.610416,-16.40417 -19.976041,-16.40417 -4.365625,0 -13.229167,9.78958 -19.05,9.92187 -5.820833,0.1323 -20.902083,-18.25625 -27.119791,-18.52083 C 38.89375,146.05 36.5125,153.85521 36.5125,153.85521 l 3.042708,110.72812 100.541662,0 z"
           style="fill:#ae6a3a;fill-opacity:1;fill-rule:evenodd;stroke:none;stroke-width:0.26458332px;stroke-linecap:butt;stroke-linejoin:miter;stroke-opacity:1" />
      </g>
      <g
         inkscape:label="Guitar Soundhole"
         id="layer8-8">
        <path
           inkscape:connector-curvature="0"
           id="path4253"
           d="m 105.43646,233.49479 c 0,0 -6.350003,-17.4625 -13.229169,-17.85938 -6.879167,-0.39687 -6.482292,22.225 -3.96875,29.10417 2.513541,6.87917 10.451041,19.84375 10.451041,19.84375 l 13.758338,0 z"
           style="fill:#000000;fill-opacity:1;fill-rule:evenodd;stroke:none;stroke-width:0.26458332px;stroke-linecap:butt;stroke-linejoin:miter;stroke-opacity:1" />
      </g>
      <g
         inkscape:label="Guitar Fretboard"
         id="layer7-6">
        <path
           inkscape:connector-curvature="0"
           id="path4250"
           d="m 103.1875,230.58437 149.09271,33.99896 -140.89063,0 z"
           style="fill:#2b1a0e;fill-opacity:1;fill-rule:evenodd;stroke:none;stroke-width:0.26458332px;stroke-linecap:butt;stroke-linejoin:miter;stroke-opacity:1" />
      </g>
      <g
         inkscape:label="Arm"
         id="layer4-4">
        <path
           sodipodi:nodetypes="csccssssccscscscscscscscssssscsscc"
           inkscape:connector-curvature="0"
           id="path4241"
           d="m 14.592916,120.52506 c 0,0 -5.2384827,4.11595 -8.3254457,8.79316 C 3.1805073,133.99544 0,143.16279 0,143.16279 l 0,23.10545 c 0,0 1.8708867,17.3057 6.735192,24.13443 4.864305,6.82874 8.886712,18.61533 10.009244,23.76026 1.122532,5.14494 6.26747,12.90912 7.296458,17.4928 1.028987,4.58367 1.870886,11.78658 4.957849,16.65089 3.086963,4.8643 5.893292,16.27671 5.893292,16.27671 l 44.714194,0 c 0,0 6.173925,-5.05139 6.267468,-6.5481 0.09355,-1.49671 -0.467719,-9.63507 -1.122531,-9.72861 -0.65481,-0.0936 -1.309622,0.46772 -3.461139,0.18709 -2.151521,-0.28064 -3.367598,-1.59026 -3.367598,-1.59026 0,0 -1.964431,1.21608 -2.151518,2.89987 -0.187089,1.6838 0,4.2095 0,4.2095 0,0 -0.463881,0.28483 -1.02612,0.97936 -0.56224,0.69454 -1.35599,1.91823 -1.35599,1.91823 0,0 -1.521354,-0.79375 -4.497916,-1.22369 -2.976563,-0.42995 -5.159375,0.56224 -5.159375,0.56224 0,0 -1.223698,-1.95131 -2.844271,-2.8112 -1.620573,-0.8599 -2.811198,-2.28203 -2.811198,-2.28203 0,0 3.770312,-0.99219 5.159375,-2.41433 1.389062,-1.42213 4.365625,-5.09323 4.365625,-5.09323 0,0 8.73125,3.04271 9.921875,3.20808 1.190625,0.16536 2.348177,3.57187 8.73125,0.95911 6.383072,-2.61276 5.622395,-11.97239 3.63802,-12.93151 -1.984375,-0.95911 -8.929687,-0.0331 -18.884635,-6.58151 -9.954948,-6.54844 -13.592968,-9.39271 -17.727083,-10.48411 -4.134114,-1.09141 -8.995833,-3.37344 -8.995833,-3.37344 0,0 -4.001823,-9.62422 -3.671094,-21.76198 0.330729,-12.13776 -0.661458,-14.38672 0.661458,-24.40781 1.322917,-10.0211 -3.009635,-18.95078 -3.009635,-18.95078 z"
           style="fill:#c29268;fill-opacity:1;fill-rule:evenodd;stroke:none;stroke-width:0.26458332px;stroke-linecap:butt;stroke-linejoin:miter;stroke-opacity:1" />
      </g>
      <g
         style="display:inline"
         inkscape:label="Neck"
         id="layer11-1">
        <path
           sodipodi:nodetypes="csccsccccc"
           inkscape:connector-curvature="0"
           id="path4262"
           d="m 264.58333,58.952557 c 0,0 -8.59896,-0.744224 -13.22917,-4.977558 -4.6302,-4.233333 -10.45104,-16.271874 -10.45104,-16.271874 l -11.1125,9.524999 c 0,0 0.39688,14.816667 -2.77812,22.621875 -3.175,7.805208 -33.46979,38.629171 -33.46979,38.629171 l 20.6375,2.24895 34.39583,-16.404163 16.05406,-31.614954 z"
           style="fill:#c29268;fill-opacity:1;fill-rule:evenodd;stroke:none;stroke-width:0.26458332px;stroke-linecap:butt;stroke-linejoin:miter;stroke-opacity:1" />
      </g>
      <g
         style="display:inline"
         inkscape:label="Shirt Front"
         id="layer3-5">
        <path
           sodipodi:nodetypes="cscscssssssscscsccc"
           inkscape:connector-curvature="0"
           id="path4238"
           d="m 264.58333,59.002083 c 0,0 -19.57917,37.835416 -47.36042,46.566667 C 189.44166,114.3 134.9375,65.616666 134.9375,65.616666 c 0,0 -11.90625,-0.79375 -15.875,1.5875 -3.96875,2.38125 -7.40833,6.35 -7.40833,6.35 0,0 -7.14375,-2.116667 -13.229171,-0.79375 -6.085417,1.322916 -10.054167,6.614583 -16.404167,8.995833 -6.35,2.38125 -15.345833,0.79375 -18.785416,3.439583 -3.439583,2.645834 -1.5875,9.525 -5.820833,11.90625 -4.233334,2.38125 -20.6375,4.762498 -28.839583,10.054168 -8.202084,5.29167 -16.139583,11.37708 -16.139583,16.13958 0,4.7625 4.233333,19.31458 12.964583,25.92917 8.73125,6.61458 26.193749,-1.32292 26.193749,-1.32292 0,0 6.35,0.52917 19.05,-0.52917 12.7,-1.05833 14.2875,-3.175 14.2875,-3.175 0,0 12.170833,2.64584 17.991671,1.5875 5.82083,-1.05833 58.6486,-14.03504 58.6486,-14.03504 l 103.01181,132.83296 z"
           style="fill:#000000;fill-opacity:1;fill-rule:evenodd;stroke:none;stroke-width:0.26458332px;stroke-linecap:butt;stroke-linejoin:miter;stroke-opacity:1" />
      </g>
      <g
         style="display:inline"
         inkscape:label="Face"
         id="layer12">
        <path
           sodipodi:nodetypes="cssssssscsssssssssscccc"
           inkscape:connector-curvature="0"
           id="path4265"
           d="m 107.81771,0 c 0,0 1.19062,9.392708 3.175,13.096875 1.98437,3.704166 3.9026,12.964583 4.03489,16.139583 0.13229,3.175 2.57969,5.159375 4.56407,6.614583 1.98437,1.455209 4.3078,9.88532 4.3078,11.615891 0,1.730571 1.91766,5.706205 3.695,7.249686 1.77734,1.543482 3.97563,5.659433 4.86431,8.044813 0.88867,2.38538 1.02898,6.641647 2.15152,9.0738 1.12253,2.432154 2.29183,4.536901 2.29183,4.536901 0,0 -1.30962,3.180506 0.18709,6.314241 1.49671,3.133736 3.83532,5.098166 5.0514,5.285256 1.21607,0.187087 9.02702,10.336649 10.10278,12.067221 1.07576,1.73057 3.22728,8.93348 4.5369,10.85114 1.30962,1.91766 4.25627,6.12716 9.5883,6.78196 5.33202,0.65481 16.08962,1.30963 26.19241,-7.99804 10.10279,-9.30766 33.06793,-35.266205 34.70495,-38.820894 0.57808,-1.25526 2.57349,-10.42481 4.45819,-21.841775 0.55097,-3.337627 4.6809,0.05654 6.63084,-2.911829 C 240.26115,43.197688 252.9477,23.217999 252.9746,12.700084 253.00301,1.5922903 244.01956,1.5875 244.01956,1.5875 l -6.41792,1.3541916 0.13061,-2.99141509 z"
           style="fill:#c29268;fill-opacity:1;fill-rule:evenodd;stroke:none;stroke-width:0.26458332px;stroke-linecap:butt;stroke-linejoin:miter;stroke-opacity:1" />
      </g>
      <g
         inkscape:label="Ear"
         id="layer21">
        <path
           inkscape:connector-curvature="0"
           id="path4311"
           d="m 250.75885,6.8130202 c 0,0 -0.59531,0.9591146 -3.24114,1.2898438 -2.64584,0.3307291 -4.53099,0 -5.95313,0.8268229 -1.42214,0.8268229 -4.06797,2.7450521 -4.72943,3.9026041 -0.66146,1.157552 -0.56224,2.811198 -0.85989,4.134115 -0.29766,1.322916 -1.55443,3.505729 -2.38125,3.737239 -0.82683,0.231511 -1.71979,0.165365 -1.71979,0.165365 0,0 2.71197,0.760677 3.83645,-1.5875 1.12448,-2.348177 0.72761,-3.638021 1.05834,-4.795573 0.33073,-1.157552 1.15755,-2.447396 2.54661,-3.406511 1.38906,-0.959114 2.11667,-1.8851558 3.5388,-2.0174475 1.42214,-0.1322916 2.61276,0.033073 3.77032,-0.099219 1.15755,-0.1322917 3.175,-0.4299479 4.13411,-2.1497396 z"
           style="fill:#28220b;fill-opacity:1;fill-rule:evenodd;stroke:none;stroke-width:0.26458332px;stroke-linecap:butt;stroke-linejoin:miter;stroke-opacity:1" />
      </g>
      <g
         inkscape:label="Jaw"
         id="layer19">
        <path
           inkscape:connector-curvature="0"
           id="path4303"
           d="m 229.44086,55.488358 c 0,0 -0.74835,7.553706 -2.94664,12.581712 -2.1983,5.02801 -13.77441,22.053079 -17.53956,25.888394 -3.76517,3.835318 -12.18415,11.622886 -12.18415,11.622886 l 2.03458,0.6782 c 0,0 8.44238,-8.746401 11.34225,-12.324469 2.89988,-3.578072 9.51814,-13.891334 10.78099,-15.130799 1.26285,-1.239462 5.16833,-7.226297 6.33763,-11.038231 1.1693,-3.811932 2.71278,-9.61168 2.1749,-12.277693 z"
           style="fill:#000000;fill-opacity:1;fill-rule:evenodd;stroke:none;stroke-width:0.26458332px;stroke-linecap:butt;stroke-linejoin:miter;stroke-opacity:1" />
      </g>
      <g
         inkscape:label="Hair"
         id="layer15">
        <path
           sodipodi:nodetypes="ccsssccssc"
           inkscape:connector-curvature="0"
           id="path4285"
           d="m 214.44479,63.764583 13.75833,-14.419792 c 0,0 -3.83646,-14.552083 -2.51354,-23.8125 1.32292,-9.260416 4.22732,-16.1118241 6.87917,-18.3885414 3.10595,-2.6665785 5.41393,-3.3103943 5.3801,-4.0553422 -0.14874,-3.27549607 -0.14874,-3.27549607 -0.14874,-3.27549607 L 200.42187,0 c 0,0 8.99584,4.1010414 11.77396,8.4666663 2.77813,4.3656247 8.20208,16.9333337 7.67292,24.6062497 -0.52917,7.672917 -5.42396,30.691667 -5.42396,30.691667 z"
           style="fill:#502d16;fill-opacity:1;fill-rule:evenodd;stroke:none;stroke-width:0.26458332px;stroke-linecap:butt;stroke-linejoin:miter;stroke-opacity:1" />
      </g>
      <g
         inkscape:label="Brows"
         id="layer16">
        <path
           inkscape:connector-curvature="0"
           id="path4290"
           d="m 160.10113,34.744903 c 0,0 7.24968,-2.993419 10.19633,-3.601458 2.94665,-0.608036 9.26089,-1.543481 12.06722,-1.730571 2.80633,-0.187087 9.12057,-2.712783 9.26089,-2.245063 0.14031,0.467722 -2.75956,3.507914 -4.58367,4.162723 -1.82412,0.65481 -12.9559,4.115951 -16.79121,5.051394 -3.83532,0.935445 -10.94469,1.73057 -13.33007,2.291836 -2.38538,0.561266 -7.24969,1.917661 -8.88671,1.917661 -1.63703,0 -4.02241,-1.543484 -3.13374,-2.478927 0.88867,-0.935442 12.7688,-2.432153 15.20096,-3.367595 z"
           style="fill:#502d16;fill-opacity:1;fill-rule:evenodd;stroke:none;stroke-width:0.26458332px;stroke-linecap:butt;stroke-linejoin:miter;stroke-opacity:1" />
        <path
           inkscape:connector-curvature="0"
           id="path4292"
           d="m 135.03125,39.88984 c 0,0 -3.27406,-3.086963 -6.31425,-3.882089 -3.04019,-0.795126 -7.01582,-1.683797 -8.51253,-3.040192 -1.49671,-1.356392 -5.33203,-3.695001 -5.33203,-3.695001 0,0 0.32741,3.367598 0.74836,3.835318 0.42095,0.467722 4.58367,2.946648 6.40778,3.507914 1.82412,0.561266 5.09817,1.870885 7.34323,2.057974 2.24507,0.18709 4.77076,1.262849 5.65944,1.216076 z"
           style="fill:#502d16;fill-opacity:1;fill-rule:evenodd;stroke:none;stroke-width:0.26458332px;stroke-linecap:butt;stroke-linejoin:miter;stroke-opacity:1" />
      </g>
      <g
         inkscape:label="Nose"
         id="layer17">
        <path
           inkscape:connector-curvature="0"
           id="path4295"
           d="m 138.39884,50.787754 c 0,0 -0.79512,2.33861 -0.42095,8.325448 0.37418,5.986836 -1.12253,18.334688 -1.12253,18.334688 0,0 1.63703,-9.681836 1.63703,-14.125193 0,-4.443357 -0.98222,-10.14956 -0.0935,-12.534943 z"
           style="fill:#000000;fill-opacity:1;fill-rule:evenodd;stroke:none;stroke-width:0.26458332px;stroke-linecap:butt;stroke-linejoin:miter;stroke-opacity:1" />
        <path
           inkscape:connector-curvature="0"
           id="path4297"
           d="m 142.46802,87.737766 c 0,0 3.92886,0.561266 6.96905,-1.356391 3.04019,-1.917658 5.33203,-4.864307 7.57709,-5.519116 2.24507,-0.654809 6.17393,-2.338607 6.7352,-3.086963 0.56126,-0.748355 2.99341,-3.461141 1.21607,-5.986838 -1.77734,-2.525696 -1.44993,-1.449938 -1.44993,-1.449938 0,0 2.94664,2.104748 2.47892,3.788548 -0.46772,1.683798 -1.44994,4.723987 -4.95785,5.986836 -3.50791,1.262848 -5.42557,1.73057 -7.53032,3.507911 -2.10475,1.777344 -5.23848,5.332029 -11.03823,4.115951 z"
           style="fill:#000000;fill-opacity:1;fill-rule:evenodd;stroke:none;stroke-width:0.26458332px;stroke-linecap:butt;stroke-linejoin:miter;stroke-opacity:1" />
      </g>
      <g
         inkscape:label="Lips"
         id="layer18">
        <path
           inkscape:connector-curvature="0"
           id="path4300"
           d="m 144.76015,89.396093 c 0,0 2.31511,2.149739 3.27422,2.513541 0.95912,0.363802 3.24115,1.554427 4.43177,2.348177 1.19063,0.79375 3.00964,1.422136 3.60495,1.35599 0.59531,-0.06615 4.26641,-0.628386 6.28386,-0.529167 2.01744,0.09922 4.96093,0.56224 6.58151,0.264584 1.62057,-0.297657 5.1263,-1.256771 6.41614,-1.289844 1.28985,-0.03307 4.66328,0.23151 4.66328,0.23151 0,0 -2.28203,-0.496094 -5.02708,0 -2.74505,0.496094 -5.29167,1.35599 -7.30911,1.422136 -2.01745,0.06615 -4.63021,-0.33073 -8.30131,0.09922 -3.67109,0.429948 -4.96093,0.165365 -6.44922,-0.529166 -1.48828,-0.694532 -0.59531,-0.926042 -3.00963,-1.885157 -2.41432,-0.959114 -3.9026,-2.778124 -5.15938,-4.001822 z"
           style="fill:#000000;fill-opacity:1;fill-rule:evenodd;stroke:none;stroke-width:0.26458332px;stroke-linecap:butt;stroke-linejoin:miter;stroke-opacity:1" />
      </g>
      <g
         inkscape:label="Eyes"
         id="layer20">
        <path
           inkscape:connector-curvature="0"
           id="path4306"
           d="m 160.61562,40.076929 c 0,0 1.49671,5.144939 2.73617,5.612659 1.23946,0.467723 4.11595,2.291837 6.71181,2.315223 2.59585,0.02339 7.50693,-1.309621 9.42459,-2.993419 1.91766,-1.683797 4.30304,-4.630443 5.72959,-5.191709 1.42655,-0.561266 3.48453,-0.818513 3.48453,-0.818513 0,0 -2.66602,0.397563 -3.55469,0.958829 -0.88867,0.561266 -4.8643,5.448956 -5.84652,6.080382 -0.98221,0.631425 -6.08038,3.133735 -9.21412,2.712786 -3.13373,-0.42095 -6.68841,-1.590254 -7.90449,-3.367596 -1.21608,-1.777343 -1.49671,-4.41997 -1.56687,-5.308642 z"
           style="fill:#000000;fill-opacity:1;fill-rule:evenodd;stroke:none;stroke-width:0.26458332px;stroke-linecap:butt;stroke-linejoin:miter;stroke-opacity:1" />
        <path
           inkscape:connector-curvature="0"
           id="path4308"
           d="m 135.59896,41.241927 c 0,0 -2.84427,1.686718 -4.43177,2.149739 -1.5875,0.463021 -2.74506,2.116667 -4.82865,1.918229 -2.08359,-0.198437 -4.20026,-0.959114 -4.69635,-1.521354 -0.4961,-0.562239 -1.09141,-0.264583 -1.09141,-0.264583 0,0 2.71198,2.711979 5.55625,2.38125 2.84427,-0.330729 4.72943,-1.951302 5.4901,-2.215886 0.76068,-0.264583 3.50573,-1.951302 4.00183,-2.447395 z"
           style="fill:#000000;fill-opacity:1;fill-rule:evenodd;stroke:none;stroke-width:0.26458332px;stroke-linecap:butt;stroke-linejoin:miter;stroke-opacity:1" />
      </g>
      <g
         style="display:inline"
         inkscape:label="Glasses"
         id="layer13">
        <path
           sodipodi:nodetypes="sscssssssccccssscsssssccscssccsssscssscssssssssssscs"
           inkscape:connector-curvature="0"
           id="path4268"
           transform="scale(0.26458333)"
           d="m 888.53906,7.9882812 c -0.3923,0.013733 -0.78125,0.058594 -1.16406,0.1367188 -6.12499,1.2500001 -174.25,155 -174.25,155 0,0 -12.87499,4 -23.5,3.375 -10.62501,-0.625 -37.37501,-4.625 -64.875,-5.125 -27.50003,-0.5 -62.25,1.75 -68.625,4 -6.37497,2.25 -16.00001,10.125 -26.375,10.125 -10.37499,0 -8.24999,-4.875 -18,-8.75 -9.75001,-3.875 -42.62502,-9.75 -66.375,-10.5 -23.74998,-0.75 -39,-0.5 -39,-0.5 l 28.75,-37.875 -2.5,-27.375 -52.125,68.125 c 0,0 23.62501,39.125 33.625,46.375 9.99999,7.25 23.99999,17.5 54.75,18.625 30.75001,1.125 39.12501,1.25 45.625,-2.125 6.49999,-3.375 7.25,-7.625 7.25,-7.625 0,0 -1.62501,-8.25 -0.5,-14.75 1.12501,-6.5 1.25001,-12.125 11.625,-10.75 10.37499,1.375 16.875,2.625 30.625,18.125 13.75,15.5 30.12501,23.5 57.25,26.125 27.12499,2.625 62.375,2 72.625,-1 10.25,-3 10.375,-9.25 10.75,-11.5 0.37493,-2.25 -1.49992,-17.125 -0.125,-20.5 1.37503,-3.375 7.37502,-4.875 9.75,-7.25 2.37502,-2.375 10,-7.5 10,-7.5 0,0 159.74998,-167.75 162.125,-168.375 2.37498,-0.625 4,-1.5 6.625,-1.75 2.625,-0.250001 2.36091,1.732233 2.36091,1.732233 L 901.125,14.375 c 0,0 -6.70137,-6.5927123 -12.58594,-6.3867188 z M 428.72266,164.7832 c 15.89333,-0.008 40.48715,0.65385 53.34765,4.89649 17.14734,5.65686 18.7388,4.77305 23.15821,8.30859 4.41943,3.53553 12.54979,13.43563 12.72656,21.74414 0.17688,8.3085 1.23811,19.2675 -15.73242,19.97461 -16.97057,0.7071 -42.24943,0.88514 -56.56836,-2.65039 -14.31889,-3.53554 -34.64944,-16.61751 -43.48828,-31.82031 -8.83885,-15.2028 -4.24219,-12.72852 -4.24219,-12.72852 4.06586,-5.65686 8.1327,-7.42478 18.5625,-7.60156 2.60746,-0.0442 6.93855,-0.12029 12.23633,-0.12305 z m 169.11328,4.13868 c 0.99112,0.006 1.99983,0.0232 3.02734,0.0508 32.88045,0.88388 51.97394,2.65173 67.35352,8.30859 15.37957,5.65685 17.14712,6.18708 20.15234,10.07617 3.00522,3.88909 8.48528,13.96497 9.01563,21.91992 0.5303,7.95495 0.17623,14.31913 -3.00586,16.26368 -3.18199,1.94454 -35.53243,7.2472 -51.97266,6.00976 -16.44023,-1.23743 -47.55192,-5.65576 -55.33008,-10.25195 -7.77819,-4.5962 -30.93724,-28.10789 -33.41211,-32.88086 -2.47487,-4.77297 -2.12109,-6.00977 -2.12109,-6.00977 2.22629,-3.9388 15.56802,-13.68467 46.29297,-13.48632 z"
           style="fill:#000000;fill-opacity:1;fill-rule:evenodd;stroke:none;stroke-width:0.99999994px;stroke-linecap:butt;stroke-linejoin:miter;stroke-opacity:1" />
      </g>
      <g
         inkscape:label="Lenses"
         id="layer14" />
    </g>
  </g>
  <g
     inkscape:label="Blue Banner"
     id="g4203"
     inkscape:groupmode="layer">
    <rect
       y="146.84375"
       x="0"
       height="43.65625"
       width="338.66669"
       id="rect4205"
       style="opacity:1;fill:#407d93;fill-opacity:1;stroke:none;stroke-width:11.03082752;stroke-miterlimit:4;stroke-dasharray:none;stroke-opacity:1" />
  </g>
  <g
     inkscape:groupmode="layer"
     id="layer3"
     inkscape:label="Discover"
     style="display:none">
    <text
       xml:space="preserve"
       style="font-style:normal;font-variant:normal;font-weight:normal;font-stretch:normal;font-size:20.26743698px;line-height:125%;font-family:Museo;-inkscape-font-specification:'Museo, Normal';text-align:start;letter-spacing:0px;word-spacing:0px;writing-mode:lr-tb;text-anchor:start;fill:#ffffff;fill-opacity:1;stroke:none;stroke-width:0.50668812px;stroke-linecap:butt;stroke-linejoin:miter;stroke-opacity:1"
       x="173.85484"
       y="40.767208"
       id="text4147"
       sodipodi:linespacing="125%"><tspan
         sodipodi:role="line"
         id="tspan4164"
         x="173.85484"
         y="40.767208">DISCOVER:</tspan></text>
  </g>
  <g
     inkscape:label="Interview"
     id="g4209"
     inkscape:groupmode="layer">
    <text
       sodipodi:linespacing="125%"
       id="text4211"
       y="40.767208"
       x="173.85484"
       style="font-style:normal;font-variant:normal;font-weight:normal;font-stretch:normal;font-size:20.26743698px;line-height:125%;font-family:Museo;-inkscape-font-specification:'Museo, Normal';text-align:start;letter-spacing:0px;word-spacing:0px;writing-mode:lr-tb;text-anchor:start;fill:#ffffff;fill-opacity:1;stroke:none;stroke-width:0.50668812px;stroke-linecap:butt;stroke-linejoin:miter;stroke-opacity:1"
       xml:space="preserve"><tspan
         id="tspan4213"
         sodipodi:role="line"
         x="173.85484"
         y="40.767208">INTERVIEW:</tspan></text>
  </g>
  <g
     inkscape:groupmode="layer"
     id="layer4"
     inkscape:label="Artist Name">
    <text
       xml:space="preserve"
       style="font-style:normal;font-variant:normal;font-weight:600;font-stretch:normal;font-size:40.92222214px;line-height:100%;font-family:Museo;-inkscape-font-specification:'Museo, Semi-Bold';text-align:start;letter-spacing:0px;word-spacing:0px;writing-mode:lr-tb;text-anchor:start;fill:#ffffff;fill-opacity:1;stroke:none;stroke-width:1.02304661px;stroke-linecap:butt;stroke-linejoin:miter;stroke-opacity:1"
       x="174.17487"
       y="75.506424"
       id="text4158"
       sodipodi:linespacing="100%"><tspan
         sodipodi:role="line"
         id="tspan4160"
         x="174.17487"
         y="75.506424"
         style="font-style:normal;font-variant:normal;font-weight:600;font-stretch:normal;font-size:40.92222214px;line-height:100%;font-family:Museo;-inkscape-font-specification:'Museo, Semi-Bold';text-align:start;writing-mode:lr-tb;text-anchor:start;fill:#ffffff;fill-opacity:1;stroke-width:1.02304661px">Dale</tspan><tspan
         sodipodi:role="line"
         x="174.17487"
         y="116.42865"
         style="font-style:normal;font-variant:normal;font-weight:600;font-stretch:normal;font-size:40.92222214px;line-height:100%;font-family:Museo;-inkscape-font-specification:'Museo, Semi-Bold';text-align:start;writing-mode:lr-tb;text-anchor:start;fill:#ffffff;fill-opacity:1;stroke-width:1.02304661px"
         id="tspan4162">Turner</tspan></text>
  </g>
  <g
     inkscape:groupmode="layer"
     id="layer6"
     inkscape:label="WEIRD">
    <path
       style="opacity:1;fill:#ffffff;fill-opacity:1;stroke:none;stroke-width:17.2258606;stroke-miterlimit:4;stroke-dasharray:none;stroke-opacity:1"
       d="M 245.3457 602.625 L 245.3457 672.625 L 495.3457 672.625 L 495.3457 602.625 L 245.3457 602.625 z M 254.20703 613.5 L 258.08398 613.5 C 261.48345 613.5 263.18217 614.17987 263.99805 617.44336 L 271.4082 648.31055 C 272.02011 650.89414 272.36133 653.41016 272.36133 653.41016 L 272.49609 653.41016 C 272.49609 653.41016 272.90446 650.96213 273.65234 648.31055 L 283.30664 613.63477 L 289.42578 613.63477 L 298.40039 648.31055 C 299.08028 650.96213 299.41992 653.41016 299.41992 653.41016 L 299.55664 653.41016 C 299.55664 653.41016 299.8295 650.89414 300.44141 648.31055 L 307.98828 617.44336 C 308.80415 614.17987 310.43452 613.5 313.83398 613.5 L 317.70898 613.5 L 317.70898 619.3457 L 316.68945 619.3457 C 315.46565 619.3457 314.71885 619.61799 314.37891 620.8418 L 303.83984 661.5 L 295.95312 661.5 L 287.79492 631.17773 C 286.97905 628.05022 286.43555 624.58203 286.43555 624.58203 L 286.29883 624.58203 C 286.29883 624.58203 285.61824 628.04985 284.73438 631.10938 L 276.0332 661.5 L 268.07812 661.5 L 257.53906 620.8418 C 257.19912 619.61799 256.45232 619.3457 255.22852 619.3457 L 254.20703 619.3457 L 254.20703 613.5 z M 326.5 613.5 L 354.7168 613.5 C 357.77632 613.5 359.06641 614.79204 359.06641 617.85156 L 359.06641 623.90234 L 352.88086 623.90234 L 352.88086 620.8418 C 352.88086 619.82196 352.33662 619.3457 351.38477 619.3457 L 337.71875 619.3457 L 337.71875 634.37305 L 354.51172 634.37305 L 354.51172 640.21875 L 337.71875 640.21875 L 337.71875 654.15625 C 337.71875 655.1081 338.26299 655.65234 339.21484 655.65234 L 353.2207 655.65234 C 354.17255 655.65234 354.7168 655.1081 354.7168 654.15625 L 354.7168 651.09766 L 360.9707 651.09766 L 360.9707 657.14844 C 360.9707 660.20796 359.67866 661.5 356.61914 661.5 L 335.27148 661.5 C 332.21196 661.5 330.91992 660.20796 330.91992 657.14844 L 330.91992 619.3457 L 326.5 619.3457 L 326.5 613.5 z M 370.41406 613.5 L 386.25586 613.5 L 386.25586 619.3457 L 381.56445 619.3457 L 381.56445 655.65234 L 386.25586 655.65234 L 386.25586 661.5 L 370.41406 661.5 L 370.41406 655.65234 L 375.10547 655.65234 L 375.10547 619.3457 L 370.41406 619.3457 L 370.41406 613.5 z M 396.6543 613.5 L 417.5957 613.5 C 426.02638 613.5 431.94141 618.80359 431.94141 627.57422 C 431.94141 635.59696 426.70611 639.53923 423.30664 640.28711 L 423.30664 640.42383 C 423.30664 640.42383 424.52983 641.03585 425.3457 642.59961 L 431.125 654.08984 C 431.80489 655.51762 432.89365 655.65234 434.52539 655.65234 L 435.4082 655.65234 L 435.4082 661.5 L 432.07812 661.5 C 428.33871 661.5 426.97782 661.02399 425.41406 657.89648 L 418.88672 644.97852 C 417.66291 642.73487 416.78049 642.39453 414.12891 642.39453 L 407.87305 642.39453 L 407.87305 661.5 L 401.07422 661.5 L 401.07422 619.3457 L 396.6543 619.3457 L 396.6543 613.5 z M 443.75 613.5 L 463.19531 613.5 C 477.81302 613.5 487.4668 622.27002 487.4668 637.43164 C 487.4668 652.66125 477.81302 661.5 463.19531 661.5 L 452.51953 661.5 C 449.46001 661.5 448.16992 660.20796 448.16992 657.14844 L 448.16992 619.3457 L 443.75 619.3457 L 443.75 613.5 z M 407.87305 619.3457 L 407.87305 636.54883 L 416.71094 636.54883 C 421.87813 636.54883 424.9375 633.21686 424.9375 627.8457 C 424.9375 622.47455 421.87887 619.3457 416.84766 619.3457 L 407.87305 619.3457 z M 454.96875 619.3457 L 454.96875 654.15625 C 454.96875 655.1081 455.51299 655.65234 456.46484 655.65234 L 462.71875 655.65234 C 473.39308 655.65234 480.39648 649.26179 480.39648 637.43164 C 480.39648 625.66949 473.32509 619.3457 462.71875 619.3457 L 454.96875 619.3457 z "
       transform="scale(0.26458334)"
       id="rect4172" />
  </g>
  <g
     inkscape:groupmode="layer"
     id="layer7"
     inkscape:label="MAKE">
    <text
       xml:space="preserve"
       style="font-style:normal;font-variant:normal;font-weight:normal;font-stretch:normal;font-size:17.99166679px;line-height:100%;font-family:Museo;-inkscape-font-specification:'Museo, Normal';text-align:start;letter-spacing:0px;word-spacing:0px;writing-mode:lr-tb;text-anchor:start;fill:#ffffff;fill-opacity:1;stroke:none;stroke-width:0.26458335px;stroke-linecap:butt;stroke-linejoin:miter;stroke-opacity:1"
       x="10.690782"
       y="175.02188"
       id="text4175"
       sodipodi:linespacing="100%"><tspan
         sodipodi:role="line"
         id="tspan4177"
         x="10.690782"
         y="175.02188"
         style="font-style:normal;font-variant:normal;font-weight:normal;font-stretch:normal;font-size:17.99166679px;line-height:100%;font-family:Museo;-inkscape-font-specification:'Museo, Normal';text-align:start;writing-mode:lr-tb;text-anchor:start;fill:#ffffff;fill-opacity:1;stroke-width:0.26458335px;letter-spacing:1.32291669px">MAKE</tspan></text>
  </g>
  <g
     inkscape:groupmode="layer"
     id="layer8"
     inkscape:label="MUSIC">
    <text
       xml:space="preserve"
       style="font-style:normal;font-variant:normal;font-weight:normal;font-stretch:normal;font-size:17.99166679px;line-height:100%;font-family:Museo;-inkscape-font-specification:'Museo, Normal';text-align:start;letter-spacing:0px;word-spacing:0px;writing-mode:lr-tb;text-anchor:start;fill:#ffffff;fill-opacity:1;stroke:none;stroke-width:0.26458335px;stroke-linecap:butt;stroke-linejoin:miter;stroke-opacity:1"
       x="134.21758"
       y="174.80598"
       id="text4180"
       sodipodi:linespacing="100%"><tspan
         sodipodi:role="line"
         id="tspan4182"
         x="134.21758"
         y="174.80598"
         style="font-style:normal;font-variant:normal;font-weight:normal;font-stretch:normal;font-size:17.99166679px;line-height:100%;font-family:Museo;-inkscape-font-specification:'Museo, Normal';text-align:start;writing-mode:lr-tb;text-anchor:start;fill:#ffffff;fill-opacity:1;stroke-width:0.26458335px">MUSIC</tspan></text>
  </g>
</svg>
