<?xml version="1.0" encoding="UTF-8" standalone="no"?>
<svg
   xmlns:dc="http://purl.org/dc/elements/1.1/"
   xmlns:cc="http://creativecommons.org/ns#"
   xmlns:rdf="http://www.w3.org/1999/02/22-rdf-syntax-ns#"
   xmlns:svg="http://www.w3.org/2000/svg"
   xmlns="http://www.w3.org/2000/svg"
   xmlns:sodipodi="http://sodipodi.sourceforge.net/DTD/sodipodi-0.dtd"
   xmlns:inkscape="http://www.inkscape.org/namespaces/inkscape"
   inkscape:export-ydpi="96"
   inkscape:export-xdpi="96"
   inkscape:export-filename="C:\Users\Anthony Garone\Documents\GitHub\art\laurie-anderson\laurie-anderson-transparent.png"
   sodipodi:docname="laurie-anderson.svg"
   inkscape:version="1.0 (4035a4fb49, 2020-05-01)"
   id="svg8"
   version="1.1"
   viewBox="0 0 264.58333 264.58334"
   height="1000"
   width="1000">
  <defs
     id="defs2" />
  <sodipodi:namedview
     inkscape:snap-global="false"
     inkscape:document-rotation="0"
     inkscape:window-maximized="1"
     inkscape:window-y="-8"
     inkscape:window-x="-8"
     inkscape:window-height="1057"
     inkscape:window-width="1920"
     inkscape:guide-bbox="true"
     showguides="true"
     units="px"
     showgrid="false"
     inkscape:current-layer="layer1"
     inkscape:document-units="px"
     inkscape:cy="431.03848"
     inkscape:cx="475.21661"
     inkscape:zoom="0.7"
     inkscape:pageshadow="2"
     inkscape:pageopacity="0.0"
     borderopacity="1.0"
     bordercolor="#666666"
     pagecolor="#ffffff"
     id="base">
    <sodipodi:guide
       inkscape:color="rgb(0,0,255)"
       inkscape:label=""
       inkscape:locked="false"
       id="guide10"
       orientation="1,0"
       position="264.58334,264.58334" />
    <sodipodi:guide
       inkscape:color="rgb(0,0,255)"
       inkscape:label=""
       inkscape:locked="false"
       id="guide12"
       orientation="1,0"
       position="0,0" />
    <sodipodi:guide
       inkscape:color="rgb(0,0,255)"
       inkscape:label=""
       inkscape:locked="false"
       id="guide14"
       orientation="0,1"
       position="264.58334,264.58334" />
    <sodipodi:guide
       inkscape:color="rgb(0,0,255)"
       inkscape:label=""
       inkscape:locked="false"
       id="guide16"
       orientation="0,1"
       position="0,0" />
  </sodipodi:namedview>
  <metadata
     id="metadata5">
    <rdf:RDF>
      <cc:Work
         rdf:about="">
        <dc:format>image/svg+xml</dc:format>
        <dc:type
           rdf:resource="http://purl.org/dc/dcmitype/StillImage" />
        <dc:title></dc:title>
      </cc:Work>
    </rdf:RDF>
  </metadata>
  <g
     style="display:none"
     transform="translate(0,-32.41665)"
     id="layer1"
     inkscape:groupmode="layer"
     inkscape:label="BG">
    <rect
       style="fill:#ffffff;fill-opacity:1;stroke-width:0.264583"
       y="32.416641"
       x="0"
       height="264.58334"
       width="264.58334"
       id="rect4493" />
  </g>
  <g
     style="display:inline"
     inkscape:label="Pic"
     id="layer2"
     inkscape:groupmode="layer" />
  <g
     inkscape:label="Laurie"
     id="layer3"
     inkscape:groupmode="layer">
    <path
       id="path102"
       d="m 117.33132,53.988443 c -31.003264,3.207234 -44.366741,31.537804 -44.366741,38.486812 0,6.949009 3.207237,30.468725 0.53454,31.537805 -2.672696,1.06908 -6.949008,-6.41447 -6.414468,6.41447 0.534538,12.82893 5.879928,29.93419 10.156243,28.86511 4.276312,-1.06908 3.207234,-6.94901 4.276312,-0.53454 1.069078,6.41447 4.276312,13.36347 6.414468,16.03617 2.138156,2.67269 5.34539,7.48355 5.879928,11.75986 0.53454,4.27631 0.53454,14.96709 -1.069078,20.84702 -1.603616,5.87993 -10.69078,11.75986 -13.898015,17.10525 -3.207234,5.34539 34.745041,86.0608 43.832201,87.66441 9.08716,1.60361 59.86838,-80.18086 57.73022,-86.59533 -2.13816,-6.41447 -14.96709,-18.17433 -16.03617,-22.98518 -1.06908,-4.81085 -2.13816,-14.96709 -1.06908,-17.63979 1.06908,-2.67269 12.2944,-16.03617 12.82894,-20.84702 0.53453,-4.81085 -1.06908,-8.55263 1.60361,-9.62171 2.6727,-1.06907 7.48355,-5.34539 6.94901,-13.89801 -0.53454,-8.55262 -5.87993,-22.45064 -6.94901,-33.14142 -1.06908,-10.690783 -0.53453,-26.192416 -8.55262,-35.279578 -8.01809,-9.087164 -12.2944,-22.985179 -51.85029,-18.174329 z"
       style="fill:#784421;stroke:none;stroke-width:0.264583px;stroke-linecap:butt;stroke-linejoin:miter;stroke-opacity:1" />
    <path
       id="path128"
       d="m 92.408437,119.9372 c 2.138156,-1.06908 6.013567,-4.94449 9.488073,-6.01357 3.4745,-1.06907 7.88445,-1.46998 9.6217,-0.93544 1.73725,0.53454 7.08264,4.81085 6.1472,4.67722 -0.93545,-0.13364 -4.00904,-3.0736 -5.87993,-3.60814 -1.87089,-0.53454 -3.60814,0 -2.80633,0.26727 0.80181,0.26727 1.87089,0.53454 3.34087,1.46998 1.46998,0.93544 3.20723,3.34087 3.0736,3.60814 -0.13364,0.26727 -6.68174,3.34087 -8.8199,3.34087 -2.13815,0 -9.087161,-1.06908 -9.35443,-1.73725 -0.267269,-0.66818 -1.202714,-0.13364 -0.935445,0.53454 0.267271,0.66817 2.405428,1.60361 3.741775,1.87088 1.33635,0.26727 3.0736,0.13364 3.0736,0.13364 0,0 -0.66818,0.66817 -1.46998,1.33635 -0.80181,0.66817 -0.80181,-0.93545 -1.33635,-0.93545 -0.534539,0 -2.004522,0.26727 -2.939964,0.40091 -0.935445,0.13363 -2.539061,-0.66818 -2.539061,-1.46999 0,-0.8018 1.603616,-2.53906 1.202711,-3.0736 -0.400905,-0.53454 -3.741772,0.93545 -3.608139,0.13364 z"
       style="fill:#28170b;stroke:none;stroke-width:0.264583px;stroke-linecap:butt;stroke-linejoin:miter;stroke-opacity:1" />
    <path
       id="path122"
       d="m 97.21929,120.87264 c 0,-1.06908 1.202714,-2.53906 3.20723,-3.74177 2.00452,-1.20271 6.1472,-2.40543 9.35444,-1.87089 3.20723,0.53454 5.47902,4.27632 5.47902,4.27632 -1.46998,0.93544 -6.68173,3.20723 -8.95352,3.34087 -2.2718,0.13363 -8.151728,-0.80182 -9.08717,-2.00453 z"
       style="fill:#e3dbdb;stroke:none;stroke-width:0.264583px;stroke-linecap:butt;stroke-linejoin:miter;stroke-opacity:1" />
    <path
       id="path130"
       d="m 141.18513,115.79452 c 1.60361,-1.20271 4.27631,-6.1472 11.62622,-5.34539 7.34991,0.80181 10.95805,5.61266 12.02713,6.41447 1.06908,0.80181 2.27179,0.4009 2.00452,0.80181 -0.26727,0.4009 -2.67269,0.53454 -3.20723,0.66817 -0.53454,0.13364 -1.33635,1.33635 -1.33635,1.33635 -1.73725,0.53454 -6.94901,0.53454 -6.94901,0.53454 -1.06907,-0.26727 3.20724,0 4.81086,-0.66817 1.60361,-0.66818 2.40542,-1.60362 1.60361,-2.13816 -0.80181,-0.53454 -0.53454,-0.66817 -1.33634,0 -0.80181,0.66817 -4.40995,2.00452 -8.55263,1.60362 -4.14268,-0.40091 -7.08264,-1.06908 -7.88445,-1.06908 -0.80181,0 -0.26727,-0.66817 0.4009,-1.46998 0.66818,-0.80181 2.00452,-2.6727 3.47451,-3.60814 1.46998,-0.93544 3.0736,-2.00452 1.46998,-1.60362 -1.60362,0.40091 -8.15172,4.54358 -8.15172,4.54358 z"
       style="fill:#28170b;stroke:none;stroke-width:0.264583px;stroke-linecap:butt;stroke-linejoin:miter;stroke-opacity:1" />
    <path
       transform="scale(0.26458333)"
       d="M 407.80469 435.14062 C 399.35393 435.27745 390.35056 437.65918 383.92188 440.49023 A 17.172593 17.172593 0 0 0 383.09961 445.73047 A 17.172593 17.172593 0 0 0 400.27344 462.90234 A 17.172593 17.172593 0 0 0 417.44531 445.73047 A 17.172593 17.172593 0 0 0 414.08008 435.51758 C 412.05715 435.23328 409.9533 435.10584 407.80469 435.14062 z "
       style="fill:#2d5016;fill-rule:evenodd;stroke-width:2.42857;stroke:none"
       id="circle138" />
    <path
       id="path124"
       d="m 144.39236,117.79904 c 0.4009,-1.06908 4.00904,-5.87993 8.41899,-5.34539 4.40995,0.53454 7.88445,3.60814 7.88445,4.40995 0,0.80181 -1.60362,2.13816 -6.28083,2.13816 -4.67722,0 -10.15624,-0.53454 -10.02261,-1.20272 z"
       style="fill:#e3dbdb;stroke:none;stroke-width:0.264583px;stroke-linecap:butt;stroke-linejoin:miter;stroke-opacity:1" />
    <path
       sodipodi:nodetypes="cssssssssscsssssssscsssssssssssscssssssssssssssscsssssssssc"
       id="path146"
       d="m 76.634672,126.81101 c 0.188987,5.85863 0.755952,12.6622 1.322917,14.93006 0.566962,2.26786 -0.188989,-6.23661 2.267858,-4.53571 2.456844,1.70089 4.157736,7.37053 4.724701,11.52827 0.566965,4.15774 -0.188989,10.96131 -0.377976,14.36309 -0.188989,3.40179 6.236608,14.74108 6.047619,12.85119 -0.18899,-1.88988 -1.511906,-9.4494 -0.18899,-12.6622 1.322917,-3.2128 4.346729,-3.59077 4.346729,-6.04762 0,-2.45684 2.645833,-2.26785 4.346725,0.56697 1.700895,2.83482 0.755952,8.50446 1.133925,10.96131 0.37798,2.45684 0.94494,2.45684 0.94494,2.45684 0,0 -0.37797,-3.77976 1.13393,-7.18155 1.51191,-3.40178 7.58639,-10.7209 3.99562,-15.82358 -3.59077,-5.10268 -6.738728,-10.31606 -13.731287,-11.63898 -6.992559,-1.32291 -6.228737,0.59383 -6.039751,-2.24099 0.188989,-2.83482 -1.09594,-5.61035 0.03799,-6.55529 1.133927,-0.94494 2.319275,-1.91675 4.020168,-2.29472 1.700892,-0.37798 2.834822,-3.2128 2.267857,-2.45685 -0.566965,0.75595 -3.779763,3.2128 -6.236607,1.5119 -2.456844,-1.70089 -1.511906,-4.53571 -1.511906,-4.53571 1.133931,-1.70089 2.078872,-6.80357 3.2128,-7.55952 1.133929,-0.75595 4.346726,-4.15774 2.267857,-2.83482 -2.078869,1.32291 -3.401785,3.77976 -4.346726,2.45684 -0.94494,-1.32292 6.803572,-8.12649 8.504465,-8.88244 1.700892,-0.75595 12.011389,-1.77917 13.145319,-1.77917 1.13393,0 -4.26288,-0.67767 -2.75097,-2.567555 1.5119,-1.889881 3.40178,-2.834822 2.45684,-4.535715 -0.94494,-1.700893 -1.62818,-5.845199 -0.49425,-9.624961 1.13393,-3.779762 6.73086,-16.644384 16.74723,-16.455396 10.01637,0.188988 13.60714,2.267857 16.25297,7.9375 2.64584,5.669643 2.64584,10.772321 3.96875,13.985119 1.32292,3.212798 -0.90694,6.236607 -0.90694,7.559524 0,1.322917 -1.95474,4.613994 -1.95474,4.613994 2.26785,-0.56696 11.74412,-4.236018 15.71287,-4.425006 3.96875,-0.188988 9.82739,3.212796 11.33929,4.913686 1.5119,1.7009 1.5119,4.53572 0.18899,3.77977 -1.32292,-0.75596 -0.37798,-0.94494 0.37797,3.02381 0.75596,3.96875 2.07887,4.34672 3.02381,5.48065 0.94494,1.13393 0,4.53572 0.94494,4.7247 0.94494,0.18899 -1.09593,3.98219 -0.71796,7.006 0.37798,3.02381 -11.60655,9.29284 -11.98453,11.56069 -0.37797,2.26786 -0.0917,8.53133 -0.65868,10.61019 -0.56696,2.07887 -1.42019,3.10766 -3.12108,4.61957 -1.70089,1.5119 -0.96394,4.73813 -0.019,5.68307 0.94494,0.94495 6.48489,2.09786 6.48489,0.39697 0,-1.70089 -2.26786,-5.29166 0,-5.10268 2.26785,0.18899 1.70089,3.2128 3.40178,3.02381 1.70089,-0.18899 3.40179,-4.7247 3.40179,-2.64583 0,2.07887 2.64583,0.18899 2.64583,0.18899 1.32292,-1.7009 -0.56696,-2.64584 -0.18899,-6.23661 0.37798,-3.59077 3.96875,-7.55952 4.91369,-10.20536 0.94494,-2.64583 1.88988,-7.37053 1.88988,-10.96131 0,-3.59077 -2.26785,-29.293152 -3.77976,-32.505949 -1.5119,-3.212798 -0.94494,-10.205357 -1.88988,-12.851191 -0.94494,-2.645833 -8.88244,-17.575893 -13.22917,-19.276786 -4.34672,-1.700893 -28.5372,-8.315476 -35.71875,-7.748512 -7.18154,0.566965 -15.68601,-0.755952 -21.73363,4.346727 -6.047617,5.102678 -21.544641,15.686012 -24.379462,25.702381 -2.834821,10.016369 -1.511906,41.38839 -1.511906,41.38839 z"
       style="fill:#d3946e;fill-opacity:1;stroke:none;stroke-width:0.264583px;stroke-linecap:butt;stroke-linejoin:miter;stroke-opacity:1" />
    <path
       id="path104"
       d="m 123.21125,61.471992 c -5.34539,0 -9.08716,-7.483549 -13.89801,-2.672697 -4.81085,4.810853 -8.01809,10.156243 -18.174332,17.105249 -10.156242,6.949009 -8.552624,4.276312 -10.69078,15.501633 -2.138156,11.225323 -1.069078,10.690783 -2.672697,16.036173 -1.603615,5.34539 2.138156,22.45064 -0.534537,28.86511 -2.672697,6.41447 -5.879931,12.82893 -12.82894,15.50163 -6.949006,2.67269 -8.552624,2.67269 -8.552624,2.67269 0,0 9.087165,-2.67269 11.759859,-6.41446 2.672696,-3.74178 -8.018084,3.74177 -12.828937,3.74177 -4.81085,0 -4.81085,-1.06908 -4.81085,-1.06908 0,0 9.621703,0.53454 14.432552,-5.87993 4.810853,-6.41447 -5.34539,1.06908 -5.34539,1.06908 0,0 7.483547,-8.55262 1.603619,-4.81085 -5.879931,3.74177 -5.879931,3.74177 -5.879931,3.74177 l -3.207234,1.60362 c 0,0 8.552624,-6.41447 6.949008,-7.48355 -1.603618,-1.06908 -6.414468,3.74178 -6.414468,3.74178 0,0 1.069078,-3.20724 4.81085,-6.41447 3.741775,-3.20724 -5.879928,-0.53454 -5.879928,-0.53454 0,0 11.225318,-6.41447 8.552625,-8.55263 -2.672697,-2.13815 -2.672697,-2.13815 -2.672697,-2.13815 l -7.483546,2.67269 c 0,0 1.603618,0 -2.138156,0 -3.741775,0 -4.276313,-2.67269 -4.276313,-2.67269 0,0 3.207235,-1.06908 3.207235,-3.20724 0,-2.13815 1.069078,-1.60361 0,-2.13815 -1.069078,-0.53454 7.483546,-3.20724 5.34539,-6.41447 -2.138156,-3.20724 -6.414468,-3.20724 -6.414468,-3.20724 0,0 5.87993,-1.60361 4.276313,-3.74177 -1.603617,-2.13815 -6.414469,-2.13815 -6.414469,-2.13815 0,0 6.949008,-3.74178 9.087164,-7.48355 2.138156,-3.741774 1.069078,0 -5.34539,-3.741774 -6.414469,-3.741773 -5.87993,-6.414469 -5.87993,-6.414469 0,0 12.294398,2.138157 13.363476,-0.534539 1.069079,-2.672695 -6.949007,-3.741773 -9.621703,-6.949007 -2.672695,-3.207235 -2.672695,-4.810852 -2.672695,-4.810852 0,0 11.22532,2.138156 9.621703,0 -1.603617,-2.138156 -4.276312,-3.207234 -4.276312,-3.207234 0,0 4.810851,1.069078 4.810851,-3.741774 0,-4.810851 -3.741773,-9.087164 -3.741773,-9.087164 -6.949008,-1.603617 -8.018086,-5.34539 -8.018086,-5.34539 0,0 6.949008,5.34539 10.690781,2.672695 3.741774,-2.672695 -4.276312,-11.759859 -4.276312,-11.759859 0,0 8.018086,8.018086 9.087164,5.879929 1.069078,-2.138156 -1.069078,-11.759859 -1.069078,-11.759859 0,0 7.483546,6.414469 11.759859,3.741774 4.276312,-2.672696 -3.741774,-8.552625 -3.741774,-8.552625 0,0 7.483547,6.949007 10.156243,3.741773 2.672695,-3.207234 2.672695,-12.828937 2.672695,-12.828937 0,0 2.138156,11.22532 5.34539,6.949007 3.207235,-4.276312 5.87993,-12.294398 5.87993,-12.294398 0,0 4.276312,4.810852 5.345391,0.534539 1.069078,-4.276312 5.34539,-9.087164 5.34539,-9.087164 0,0 2.138156,9.087164 5.345392,3.741774 3.20723,-5.3453911 8.55262,-9.6217035 8.55262,-9.6217035 0,0 -4.81085,13.8980155 -2.13815,11.2253205 2.67269,-2.672696 4.27631,-6.9490081 4.27631,-6.9490081 l 1.60362,5.8799301 c 2.67269,-6.4144691 2.13815,-9.6217035 2.13815,-9.6217035 0,0 1.06908,10.1562425 4.81085,5.8799295 3.74178,-4.2763123 5.87993,-6.9490076 5.87993,-6.9490076 0,0 -1.06907,10.1562426 2.6727,6.4144686 3.74177,-3.7417733 6.94901,-5.3453905 6.94901,-5.3453905 0,0 -9.08717,10.1562425 -4.27631,9.0871645 4.81085,-1.069079 11.22532,-6.4144692 11.22532,-6.4144692 0,0 -8.01809,8.0180862 -5.87993,8.0180862 2.13815,0 6.41446,-4.810852 6.41446,-4.810852 0,0 -3.74177,7.483547 0,5.87993 3.74178,-1.603617 5.87993,-5.345391 5.87993,-5.345391 0,0 -3.20723,7.483547 2.13816,7.483547 5.34539,0 6.41447,-2.672695 6.41447,-2.672695 0,0 -4.27631,8.552625 0.53454,7.483547 4.81085,-1.069079 5.34539,-2.672696 5.34539,-2.672696 0,0 -1.60362,5.87993 2.67269,5.87993 4.27632,0 9.08717,-2.138156 9.08717,-2.138156 0,0 -9.62171,4.810851 -4.81085,5.34539 4.81085,0.534539 8.01808,0.534539 8.01808,0.534539 0,0 -4.27631,3.207235 -1.06908,3.741774 3.20724,0.534539 7.48355,-0.534539 7.48355,-0.534539 0,0 -13.89801,7.483547 -5.87993,6.949007 8.01809,-0.534539 7.48355,6.414469 10.69078,6.414469 3.20724,0 5.87993,-1.603617 5.87993,-1.603617 0,0 -3.74177,2.672695 -2.13815,4.276312 1.60361,1.603618 0.53453,10.156243 0.53453,10.156243 0,0 4.27632,-0.534539 6.41447,-3.207235 2.13816,-2.672695 2.6727,-3.207234 2.6727,-3.207234 0,0 -4.81085,9.087164 -2.13816,8.552625 2.6727,-0.534539 7.48355,-2.672695 7.48355,-2.672695 0,0 -1.60362,5.879929 -6.94901,8.552624 -5.34539,2.672696 -7.48355,5.87993 -4.27631,5.87993 3.20723,0 6.94901,-2.138156 6.94901,-2.138156 0,0 0.53454,2.672695 -2.6727,4.810851 -3.20723,2.138157 -0.53454,6.949008 2.6727,4.810852 3.20723,-2.138156 3.74177,-4.810852 3.74177,-4.810852 0,0 0,7.483547 -3.20723,10.690782 -3.20724,3.207234 0.53454,4.810851 0.53454,4.810851 0,0 0.53453,2.672695 -6.41447,4.276313 -6.94901,1.603617 -10.69078,1.603617 -10.69078,1.603617 0,0 1.06907,4.810852 6.949,7.483542 5.87993,2.6727 8.01809,0 8.01809,0 0,0 -1.06908,4.81086 -4.27631,6.41447 -3.20724,1.60362 -5.34539,1.60362 -5.34539,1.60362 0,0 1.60361,6.41447 6.949,5.87993 5.34539,-0.53454 6.94901,-2.6727 6.94901,-2.6727 0,0 -3.20723,5.3454 -6.94901,5.3454 -3.74177,0 -6.949,-1.60362 -6.949,-1.60362 0,0 0.53453,3.20723 5.34539,5.34539 4.81085,2.13816 9.6217,0.53454 9.6217,0.53454 0,0 -4.27631,3.74177 -11.75986,2.13815 -7.48355,-1.60361 -3.74177,4.27632 -1.60362,7.48355 2.13816,3.20724 5.34539,3.20724 5.34539,3.20724 0,0 -2.46812,0.87103 -3.79103,0.49306 -1.32292,-0.37798 -2.07887,-1.13393 -2.07887,-1.13393 0,0 1.88988,2.26785 3.21279,2.45684 1.32292,0.18899 2.07887,0 2.07887,0 0,0 -1.32291,1.32292 -3.02381,1.32292 -1.70089,0 -3.59077,-0.56697 -3.59077,-0.56697 0,0 -0.18899,0.18899 1.70089,1.51191 1.88988,1.32292 2.83482,3.40178 2.83482,3.40178 0,0 -1.13392,-1.70089 -3.40178,-2.83482 -2.26786,-1.13393 -6.23661,-3.40178 -7.18155,-4.34672 -0.94494,-0.94494 -1.5119,-2.07887 -1.5119,-2.07887 0,0 -0.75596,1.70089 2.45684,4.91369 3.2128,3.2128 4.91369,2.64583 4.91369,2.64583 0,0 -1.32291,0.75595 -2.26786,1.13393 -0.94494,0.37798 -0.75595,2.64583 0.56697,3.59077 1.32292,0.94494 1.70089,5.48066 1.70089,5.48066 0,0 -0.56696,-2.64583 -2.45684,-4.91369 -1.88988,-2.26786 -6.4256,-5.48066 -6.4256,-5.48066 l 3.59078,3.77977 c 0,0 -2.26786,-1.13393 -3.96875,-2.83483 -1.7009,-1.70089 -6.04762,-8.12648 -6.80358,-14.36309 -0.75595,-6.23661 -1.5119,-28.72619 -2.64583,-32.88393 -1.13393,-4.157738 -3.59077,-13.985119 -3.59077,-13.985119 0,0 -2.45685,-2.456845 -4.34673,-6.425595 -1.88988,-3.96875 -5.29167,-11.528274 -8.12649,-12.662203 -2.83482,-1.133928 -13.98512,-3.401785 -18.89881,-5.669643 -4.91369,-2.267857 -10.20535,-3.401785 -12.47321,-1.511904 -2.26786,1.889881 -4.55369,3.314518 -5.58414,3.452646 z"
       style="fill:#4a250b;stroke:none;stroke-width:0.264583px;stroke-linecap:butt;stroke-linejoin:miter;stroke-opacity:1;fill-opacity:1" />
    <path
       transform="scale(0.26458333)"
       d="M 574.4668 424.87109 C 568.07752 425.0169 562.26186 427.96344 557.53711 431.60352 A 17.172593 17.172593 0 0 0 557.35156 434.11328 A 17.172593 17.172593 0 0 0 566.25391 449.16211 C 571.19246 449.49645 576.46952 449.69979 581.63672 449.74219 A 17.172593 17.172593 0 0 0 591.69727 434.11328 A 17.172593 17.172593 0 0 0 590.83203 428.73438 C 586.84673 426.99427 582.35624 425.60349 577.55469 425.02148 C 576.51297 424.89522 575.48262 424.84791 574.4668 424.87109 z "
       style="fill:#2d5016;fill-rule:evenodd;stroke-width:2.42857;stroke:none"
       id="circle136" />
    <path
       id="path106"
       d="m 85.139135,125.4881 c -2.456844,0.75595 -5.669643,8.88243 -2.83482,10.39434 2.83482,1.51191 12.284225,2.45684 15.68601,6.04762 3.401785,3.59077 7.748515,8.88244 7.748515,13.60714 0,4.7247 -4.53572,8.69345 -4.72471,11.71726 -0.18898,3.02381 1.13393,8.69345 1.13393,8.69345 0,0 -2.456842,-4.15773 -3.40178,-7.55952 -0.944941,-3.40178 -0.18899,-7.37053 -2.078871,-8.12649 -1.889879,-0.75595 -4.157737,1.51191 -4.913691,4.91369 -0.755952,3.40179 -0.566962,8.31548 0.755954,11.71727 1.322917,3.40178 4.535713,8.88244 7.559528,10.77232 3.02381,1.88988 10.39434,4.7247 9.07142,3.40178 -1.32291,-1.32291 -7.55952,-8.88244 -6.2366,-7.74851 1.32291,1.13393 6.61458,8.12649 9.4494,9.44941 2.83482,1.32291 11.1503,4.34672 13.79613,3.59077 2.64584,-0.75595 7.18155,1.32292 10.20536,0.37798 3.02381,-0.94495 11.90625,-3.2128 13.60714,-5.10268 1.7009,-1.88988 6.04762,-9.6384 5.85863,-7.9375 -0.18898,1.70089 -4.91369,6.61458 -3.21279,5.85863 1.70089,-0.75595 7.55952,-8.50447 8.69345,-13.22917 1.13393,-4.7247 -1.32292,-0.37798 -1.32292,-2.07887 0,-1.70089 1.88988,-4.15774 2.45685,-8.31547 0.56696,-4.15774 -0.94495,-5.85864 -0.94495,-5.85864 -2.45684,0.37798 -4.91368,-3.0238 -3.21279,-5.48065 1.70089,-2.45684 6.4256,-6.04762 6.23661,-10.20535 -0.18899,-4.15774 -2.45685,-5.85864 -0.18899,-8.12649 2.26786,-2.26786 9.82738,-6.23661 9.63839,-9.44941 -0.18899,-3.21279 -0.18899,-6.04762 -1.70089,-6.04762 -1.5119,0 -3.40179,0.75596 -5.10268,0.56697 -1.70089,-0.18899 -2.64583,-0.56697 -5.66964,0 -3.02381,0.56696 -9.82738,0.56696 -11.90625,-0.18899 -2.07887,-0.75595 -3.77976,-1.13393 -5.66964,-1.13393 -1.88989,0 -3.77977,0.75595 -3.40179,-0.18899 0.37798,-0.94494 4.91369,-4.91369 3.77976,-4.91369 -1.13393,0 -5.29166,3.40179 -5.29166,5.48066 0,2.07887 4.15773,4.53571 4.34672,5.66964 0.18899,1.13393 -3.2128,-1.32292 -3.59077,0.18899 -0.37798,1.5119 0,5.29167 1.88988,7.55952 1.88988,2.26786 4.15774,7.37054 4.15774,9.82738 0,2.45685 -0.94494,4.53572 -3.02381,4.91369 -2.07887,0.37798 -5.66965,0 -6.99256,-0.18898 -1.32292,-0.18899 -2.07887,0.56696 -4.15774,0.75595 -2.07887,0.18899 -3.2128,-1.51191 -4.34673,-1.13393 -1.13393,0.37798 -0.56696,1.13393 -2.45684,1.70089 -1.88988,0.56697 -5.85863,0.56697 -6.80357,-1.32291 -0.94494,-1.88989 -2.07887,-5.29167 -0.75596,-7.55953 1.32292,-2.26786 3.40179,-4.15774 4.72471,-7.9375 1.32291,-3.77976 1.5119,-7.55952 1.13393,-9.4494 -0.37798,-1.88988 -2.83483,-3.96875 -3.96876,-3.96875 -1.13392,0 0,1.13393 -0.37797,1.70089 -0.37798,0.56696 -2.26786,0.37798 -3.77976,0.56696 -1.51191,0.18899 -3.77977,0.94494 -6.4256,2.26786 -2.64583,1.32292 -7.37053,1.32292 -5.48065,2.26786 1.88988,0.94494 5.85863,1.13393 8.50446,0 2.64583,-1.13393 4.53572,-3.2128 4.15774,-1.51191 -0.37798,1.7009 -2.26786,3.59078 -5.66964,4.15774 -3.40179,0.56697 -14.741075,1.70089 -13.607147,0.56697 1.133929,-1.13393 1.322917,-0.18899 -0.377976,-2.07887 -1.700893,-1.88988 -4.535714,-1.7009 -6.803571,-1.51191 -2.267857,0.18899 -2.456851,-0.37797 -4.157741,-0.37797 z"
       style="fill:#deaa87;stroke:none;stroke-width:0.264583px;stroke-linecap:butt;stroke-linejoin:miter;stroke-opacity:1" />
    <path
       id="path108"
       d="m 106.87277,166.87649 c 0.37797,-1.32292 4.15774,-3.96875 4.53571,-3.2128 0.37798,0.75595 3.02381,0.75595 5.10268,-0.18899 2.07887,-0.94494 9.82738,-2.83482 12.09524,-2.83482 2.26786,0 2.26786,0.56696 4.53571,0 2.26786,-0.56697 3.40179,-0.94494 5.29167,-0.56697 1.88988,0.37798 5.48065,1.13393 7.74851,1.7009 2.26786,0.56696 4.7247,-0.37798 6.04762,-0.37798 1.32291,0 4.15774,1.32292 3.02381,1.32292 -1.13393,0 -3.59077,0 -4.53572,0.94494 -0.94494,0.94494 -1.88988,3.59077 -4.53571,4.91369 -2.64583,1.32292 -10.20536,3.40178 -14.17411,3.40178 -3.96875,0 -8.50446,-0.75595 -11.52827,-1.88988 -3.02381,-1.13392 -5.29167,-3.59077 -7.37054,-4.15773 -2.07886,-0.56697 -6.2366,1.5119 -6.2366,0.94494 z"
       style="fill:#784421;stroke:none;stroke-width:0.264583px;stroke-linecap:butt;stroke-linejoin:miter;stroke-opacity:1" />
    <path
       sodipodi:nodetypes="cssszszccscssszsssc"
       id="path110"
       d="m 121.34036,67.886459 c -5.34539,0 -16.83798,8.819895 -17.63978,14.432554 -0.80181,5.612661 1.87089,10.690783 0.26727,13.096208 -1.60362,2.405425 0.26726,5.345389 2.40542,5.879929 0,0 9.08717,1.46998 10.69078,2.67269 1.60362,1.20272 5.34539,3.74178 6.94901,8.55263 1.60362,4.81085 2.59499,7.19196 2.92375,9.65135 0.32876,2.45938 0.55075,7.18663 0.55075,7.18663 l 0.26727,4.54359 c 0,0 -0.80181,2.67269 -1.87088,4.00904 -1.06908,1.33635 4.00904,4.27631 4.00904,4.27631 2.40543,0.80181 4.54358,1.60362 6.1472,-0.53454 1.60362,-2.13816 3.20723,-3.4745 1.60362,-5.34539 -1.60362,-1.87089 -1.91484,-5.82187 -2.13815,-10.95805 -0.26727,-6.1472 0.53452,-16.30344 1.6036,-18.17433 1.06908,-1.87089 8.55264,-6.41447 9.62171,-9.354432 1.06908,-2.939965 -2.13815,-5.879929 -2.40542,-10.690781 -0.26727,-4.810851 -3.47451,-14.165286 -7.75082,-17.105251 -4.27631,-2.939964 -11.75987,-2.672697 -15.23437,-2.138157 z"
       style="fill:#deaa87;stroke:none;stroke-width:0.264583px;stroke-linecap:butt;stroke-linejoin:miter;stroke-opacity:1" />
    <path
       id="path112"
       d="m 130.49628,146.56027 c -0.94494,-2.45685 -5.85863,-3.59078 -7.18155,-2.07887 -1.32292,1.5119 0,2.07887 1.88988,1.70089 1.88988,-0.37798 4.15774,-0.75595 5.29167,0.37798 z"
       style="fill:#28170b;stroke:none;stroke-width:0.264583px;stroke-linecap:butt;stroke-linejoin:miter;stroke-opacity:1" />
    <path
       id="path116"
       d="m 86.462051,111.40848 c 2.267858,-2.45685 6.992562,-7.37053 10.583334,-8.12649 3.590775,-0.75595 8.126485,-1.13393 12.095235,-0.37797 3.96875,0.75595 6.23661,1.70089 6.23661,3.21279 0,1.51191 -6.23661,-0.94494 -11.71726,-1.32291 -5.480655,-0.37798 -6.614585,-0.18899 -9.07143,1.13393 -2.456844,1.32291 -8.315475,6.61458 -8.126489,5.48065 z"
       style="fill:#552200;stroke:none;stroke-width:0.264583px;stroke-linecap:butt;stroke-linejoin:miter;stroke-opacity:1" />
    <path
       id="path118"
       d="m 139.94568,106.87277 c 0.56697,-1.7009 3.59078,-3.96875 7.74852,-5.48066 4.15773,-1.511903 8.88244,-2.83482 12.6622,-1.889879 3.77976,0.944939 8.69345,4.724699 8.12649,5.480649 -0.56697,0.75596 -6.99257,-3.96875 -11.33929,-3.40178 -4.34673,0.56696 -10.96131,3.2128 -12.6622,3.77976 -1.7009,0.56697 -3.40179,2.07887 -4.53572,1.51191 z"
       style="fill:#552200;stroke:none;stroke-width:0.264583px;stroke-linecap:butt;stroke-linejoin:miter;stroke-opacity:1" />
    <path
       id="path120"
       d="m 158.35719,185.35142 c 4.00905,-7.48355 5.61266,-12.56167 6.1472,-16.03618 0.53454,-3.4745 1.87089,-8.55262 4.00905,-10.69078 2.13815,-2.13815 3.4745,-1.60361 2.67269,3.47451 -0.80181,5.07812 -0.26727,8.55262 -3.74177,13.63074 -3.47451,5.07812 -8.55263,11.22532 -9.08717,9.62171 z"
       style="fill:#deaa87;stroke:none;stroke-width:0.264583px;stroke-linecap:butt;stroke-linejoin:miter;stroke-opacity:1" />
    <circle
       r="1.8708867"
       cy="117.66541"
       cx="105.90556"
       id="path132"
       style="fill:#000000;fill-rule:evenodd;stroke-width:0.264583;stroke:none" />
    <circle
       style="fill:#000000;fill-rule:evenodd;stroke-width:0.264583;stroke:none"
       id="circle134"
       cx="152.00955"
       cy="114.85908"
       r="1.8708867" />
    <path
       sodipodi:nodetypes="csczssscssc"
       id="path140"
       d="m 89.334839,118.06631 c -1.069078,-1.33635 2.672694,-9.6217 5.746295,-10.82441 3.073598,-1.20272 7.884446,-1.46998 11.358956,-0.66818 4.06715,1.01418 8.89239,5.14887 10.15624,5.47903 1.26385,0.33015 5.21176,2.13816 5.34539,3.60814 0.13364,1.46998 -0.53454,1.87088 -2.80633,0.13363 -2.27179,-1.73725 -6.28083,-3.74177 -8.55262,-3.74177 h -2.2718 c 0,0 -7.48354,0.26727 -9.755333,2.00452 -2.271792,1.73725 -0.534538,-3.87541 -2.271792,-4.00904 -1.737252,-0.13364 -5.879928,7.75081 -6.949006,8.01808 z"
       style="fill:#deaa87;stroke:none;stroke-width:0.264583px;stroke-linecap:butt;stroke-linejoin:miter;stroke-opacity:1" />
    <path
       id="path142"
       d="m 144.39236,110.91685 c 0,-1.46998 7.61718,-6.01356 8.95353,-6.81537 1.33635,-0.80181 5.21176,-1.20271 7.21628,-0.4009 2.00452,0.80181 6.1472,2.93996 6.81537,5.21175 0.66817,2.27179 0.80181,6.01356 1.73725,6.68174 0.93545,0.66817 3.60814,2.67269 2.53906,3.20723 -1.06908,0.53454 -5.34539,1.46999 -4.54358,0.40091 0.80181,-1.06908 2.13816,-1.87089 0.66817,-3.0736 -1.46998,-1.20272 -6.28083,-6.28083 -9.35443,-6.81537 -3.0736,-0.53454 4.00904,2.40542 2.13816,2.00452 -1.87089,-0.40091 -6.68174,-2.13816 -10.02261,-1.73726 -3.34087,0.40091 -6.28083,3.07361 -6.1472,1.33635 z"
       style="fill:#deaa87;stroke:none;stroke-width:0.264583px;stroke-linecap:butt;stroke-linejoin:miter;stroke-opacity:1" />
    <path
       id="path148"
       d="m 71.360963,148.33459 c 1.603616,0.53454 3.207234,-7.88446 4.810853,-6.81538 1.603615,1.06908 2.271789,3.87541 2.806329,7.08265 0.534538,3.20723 1.469983,9.75533 -1.202714,9.35443 -2.672693,-0.4009 -5.211754,-1.73725 -6.414468,-9.6217 z"
       style="fill:#deaa87;stroke:none;stroke-width:0.264583px;stroke-linecap:butt;stroke-linejoin:miter;stroke-opacity:1" />
    <path
       id="path150"
       d="m 113.25112,164.98661 c 2.26785,0 9.54389,-2.74033 11.71726,-3.3073 2.17336,-0.56696 4.25223,0.28349 6.61458,-0.18899 2.36235,-0.47246 2.83482,-1.13392 6.80357,-0.75595 3.96875,0.37798 8.12649,1.7009 9.82738,1.79539 1.70089,0.0945 3.87426,-0.56696 3.59078,0 -0.28349,0.56696 -2.17337,1.13393 -2.45685,1.79539 -0.28348,0.66146 -0.28348,0.66146 -0.28348,0.66146 l -3.02381,3.40178 c -2.17336,0.85045 -8.12649,2.92932 -12.37872,3.02381 -4.25223,0.0945 -10.86681,0 -13.89062,-1.88988 -3.02381,-1.88988 -7.74851,-4.81919 -6.52009,-4.53571 z"
       style="fill:#501616;stroke:none;stroke-width:0.264583px;stroke-linecap:butt;stroke-linejoin:miter;stroke-opacity:1" />
    <path
       id="path152"
       d="m 118.63728,164.98661 c -0.56697,-0.47247 1.03943,-0.47247 2.26785,-0.85045 1.22842,-0.37798 6.23661,-2.07887 7.46503,-1.79539 1.22843,0.28348 1.88988,0.56697 2.55134,0.28348 0.66146,-0.28348 0.66146,-0.66145 1.51191,-0.28348 0.85044,0.37798 3.21279,-0.56696 3.40178,-0.56696 0.18899,0 -0.66146,0.0945 0.28349,0 0.94494,-0.0945 2.74032,0.28348 3.96874,0.37797 1.22843,0.0945 4.44122,-0.28348 4.8192,0.66146 0.37798,0.94494 -0.37798,0.85045 -1.13393,1.03944 -0.75595,0.18898 -0.56696,0.0945 -0.85045,0.18898 -0.28348,0.0945 -3.30729,0.0945 -3.59077,0.18899 -0.28348,0.0945 -0.18899,0.0945 -0.75595,0.18899 -0.56697,0.0945 -1.98438,0.37798 -3.40179,0.47247 -1.41741,0.0945 -3.59077,0.0945 -4.53571,0.18899 -0.94494,0.0945 -0.94494,0.0945 -0.94494,0.0945 0,0 -1.5119,-0.18898 -2.83482,-0.28348 -1.32292,-0.0945 -2.64583,0.47247 -3.87426,0.18899 -1.22842,-0.28348 -1.22842,-0.28348 -1.22842,-0.28348 0,0 -2.55134,0.18899 -3.1183,0.18899 z"
       style="fill:#782121;stroke:none;stroke-width:0.264583px;stroke-linecap:butt;stroke-linejoin:miter;stroke-opacity:1" />
    <path
       id="path154"
       d="m 120.24368,168.57738 c 0,0 1.5119,0.56697 2.36235,0.94494 0.85044,0.37798 2.55134,0.56697 3.77976,0.85045 1.22842,0.28348 3.30729,0.28348 4.7247,0.37798 1.41741,0.0945 3.2128,0.0945 4.53572,-0.18899 1.32291,-0.28348 2.45684,-0.47247 4.06324,-0.85045 1.6064,-0.37798 1.79539,-1.32292 2.45685,-1.6064 0.66145,-0.28348 1.60639,0.0945 2.64583,-0.37798 0,0 0.75595,-1.22842 1.32291,-1.70089 0.56697,-0.47247 0.94494,0.37798 1.6064,-0.56697 0.66146,-0.94493 -1.41741,-0.66146 -2.36235,-0.56696 -0.94494,0.0945 -2.64583,0.18899 -4.34672,0.18899 -1.7009,0 -1.88989,0.56696 -2.92932,0.85045 -1.03943,0.28348 -3.49628,0 -4.53571,0 -1.03944,0 -1.41741,0.47247 -2.07887,0.66145 -0.66146,0.18899 -2.64584,-0.66145 -3.59078,-0.66145 -0.94494,0 -3.1183,0.75595 -4.7247,0.28348 -1.6064,-0.47247 -3.49628,-0.0945 -5.10268,0 -0.47247,0.66146 1.13394,2.17336 2.17337,2.36235 z"
       style="fill:#782121;stroke:none;stroke-width:0.264583px;stroke-linecap:butt;stroke-linejoin:miter;stroke-opacity:1" />
    <path
       id="path156"
       d="m 124.30692,168.48289 c 1.70089,0 3.77976,0 5.48065,-0.0945 1.7009,-0.0945 3.2128,0.18899 4.34673,0.0945 1.13393,-0.0945 4.44122,-0.75596 4.44122,-0.18899 0,0.56696 -3.02381,1.6064 -5.19717,1.6064 -2.17337,0 -5.10268,0 -6.61459,-0.28349 -1.5119,-0.28348 -3.59077,-0.56696 -2.45684,-1.13392 z"
       style="fill:#d35f5f;stroke:none;stroke-width:0.264583px;stroke-linecap:butt;stroke-linejoin:miter;stroke-opacity:1" />
    <path
       id="path158"
       d="m 123.81261,142.52148 c -1.33635,-0.93545 -1.73725,-2.93997 -3.60814,-1.60362 -1.87089,1.33634 -1.87089,5.34539 -1.20271,6.68173 0.66817,1.33635 3.74177,1.46999 5.47902,0.80181 1.73725,-0.66817 4.00904,-0.80181 3.74177,-1.46998 -0.26727,-0.66817 -4.54358,-0.13363 -4.54358,-0.13363 -1.46998,0.13363 -3.74177,-0.80181 -1.87088,-2.6727 1.87088,-1.87088 2.40542,-0.66816 2.00452,-1.60361 z"
       style="fill:#deaa87;stroke:none;stroke-width:0.264583px;stroke-linecap:butt;stroke-linejoin:miter;stroke-opacity:1" />
    <path
       id="path160"
       d="m 142.65511,139.31424 c 0.26727,1.60362 0.4009,2.93996 -0.40091,3.87541 -0.8018,0.93544 -3.07359,1.33635 -2.93996,2.40542 0.13363,1.06908 1.06908,2.40543 2.80633,1.73726 1.73725,-0.66818 2.80633,-2.80633 2.27179,-4.94449 -0.53454,-2.13816 -0.26727,-2.80633 -1.73725,-3.0736 z"
       style="fill:#deaa87;stroke:none;stroke-width:0.264583px;stroke-linecap:butt;stroke-linejoin:miter;stroke-opacity:1" />
    <path
       id="path114"
       d="m 135.59896,146.37128 c 1.13393,-1.13393 4.53571,-4.91369 5.66964,-3.59078 1.13393,1.32292 -1.13393,1.88989 -1.70089,2.26786 -0.56697,0.37798 -2.64584,0 -3.96875,1.32292 z"
       style="fill:#28170b;stroke:none;stroke-width:0.264583px;stroke-linecap:butt;stroke-linejoin:miter;stroke-opacity:1" />
    <path
       id="path162"
       d="m 120.93946,59.868373 c -4.27631,-6.147199 -10.42351,-18.708867 -11.49259,-23.786988 -1.06908,-5.078119 2.13816,-16.57071 2.13816,-16.57071 0,0 0,-0.267269 1.06908,-2.405425 1.06907,-2.138157 -2.13816,12.561667 1.06907,21.648831 3.20724,9.087165 10.15625,19.243405 10.15625,20.579755 0,1.336347 -2.93997,0.534537 -2.93997,0.534537 z"
       style="fill:#914919;stroke:none;stroke-width:0.264583px;stroke-linecap:butt;stroke-linejoin:miter;stroke-opacity:1;fill-opacity:1" />
    <path
       id="path164"
       d="m 128.15574,49.177593 c 4.00904,-7.216278 7.21627,-13.898015 9.08716,-19.777945 1.87089,-5.87993 1.87089,-5.87993 1.87089,-5.87993 l 0.26727,-6.414468 c 0,0 0.53454,6.681738 0.80181,7.483546 0.26726,0.801809 1.87088,-5.879929 1.87088,-5.879929 0,0 0.53454,1.069078 1.06908,4.009042 0.53454,2.939965 -6.41447,13.363476 -5.07812,13.363476 1.33635,0 6.41447,-11.759858 6.41447,-13.630745 0,-1.870887 0,-3.474504 0,-3.474504 0,0 2.40542,0.534539 2.40542,5.078121 0,4.543581 -1.87088,11.49259 -3.74177,14.699824 -1.87089,3.207234 -3.74177,4.276312 -3.74177,4.276312 0,0 1.33635,-5.078121 0,-2.939965 -1.33635,2.138156 -8.01809,10.423512 -11.22532,9.087165 z"
       style="fill:#914919;stroke:none;stroke-width:0.264583px;stroke-linecap:butt;stroke-linejoin:miter;stroke-opacity:1;fill-opacity:1" />
    <path
       id="path166"
       d="m 132.69932,51.04848 c 0,0 7.48355,-5.612662 11.22532,-8.285355 3.74177,-2.672697 7.48355,-10.423512 7.48355,-10.423512 0,0 0.26727,5.078121 2.67269,4.009043 2.40543,-1.069078 6.41447,-3.741774 6.41447,-3.741774 0,0 -5.34539,5.87993 -3.74177,6.949008 1.60361,1.069079 5.34539,-1.870887 10.69078,-1.870887 5.34539,0 5.61266,2.138156 5.61266,2.138156 0,0 -5.07812,-1.069078 -7.21628,0.267269 -2.13816,1.336347 2.6727,3.741775 2.6727,3.741775 0,0 -4.54359,-1.069078 -8.28536,0.267269 -3.74177,1.336346 -13.63075,6.681737 -14.69982,9.354433 -1.06908,2.672694 -4.00905,2.672694 -4.81085,0.801809 -0.80181,-1.870887 5.07811,-6.414468 5.87992,-8.018086 0.80181,-1.603616 -11.22532,5.612659 -13.89801,4.810852 z"
       style="fill:#914919;stroke:none;stroke-width:0.264583px;stroke-linecap:butt;stroke-linejoin:miter;stroke-opacity:1;fill-opacity:1" />
    <path
       id="path170"
       d="m 115.05953,54.790252 c -7.48355,-4.81085 -12.2944,-8.285356 -18.708867,-8.819893 -6.414468,-0.534541 -16.30344,-4.009044 -16.30344,-4.009044 0,0 6.1472,1.870888 6.414469,2.672697 0.267268,0.801806 -9.087165,1.870884 -9.621703,1.870884 -0.53454,0 1.603616,-0.534537 -1.069078,0 -2.672696,0.534541 -8.018087,3.474506 -8.018087,3.474506 0,0 4.276313,-1.603618 9.621703,-1.870887 5.34539,-0.267269 -3.474503,5.34539 -3.474503,5.34539 0,0 1.870887,1.069078 7.750815,0.267269 5.879931,-0.801809 15.234364,-2.672694 15.234364,-2.672694 0,0 -5.87993,-0.267271 -3.207234,-1.870887 2.672694,-1.603618 8.018081,-1.603618 12.828941,1.603616 4.81085,3.207234 8.55262,4.009043 8.55262,4.009043 z"
       style="fill:#914919;stroke:none;stroke-width:0.264583px;stroke-linecap:butt;stroke-linejoin:miter;stroke-opacity:1;fill-opacity:1" />
    <path
       id="path172"
       d="m 100.09244,51.850287 c -3.474506,1.336349 -9.354436,5.34539 -16.303445,5.078121 -6.949006,-0.267269 -15.768902,-4.276312 -15.768902,-4.276312 0,0 4.810853,4.543581 5.612662,4.543581 0.801806,0 0.534538,2.405428 0.534538,2.405428 0,0 0.801809,-1.336347 7.216277,-1.069079 6.414468,0.267269 16.83798,-3.741774 18.70887,-6.681739 z"
       style="fill:#914919;stroke:none;stroke-width:0.264583px;stroke-linecap:butt;stroke-linejoin:miter;stroke-opacity:1;fill-opacity:1" />
    <path
       id="path174"
       d="m 179.73876,140.85104 c -2.40543,4.27631 -3.20724,8.55262 -3.20724,9.08716 0,0.53454 0,-0.80181 0,0.80181 0,1.60362 2.40543,4.27632 4.00904,-0.80181 1.60362,-5.07812 -1.33634,-5.34539 -0.8018,-9.08716 z"
       style="fill:#deaa87;stroke:none;stroke-width:0.264583px;stroke-linecap:butt;stroke-linejoin:miter;stroke-opacity:1" />
    <path
       id="path176"
       d="m 91.272541,212.212 c 1.870888,-2.67269 1.603619,-4.00904 1.870888,-1.60361 0.267269,2.40542 2.138156,6.68173 1.603618,2.40542 -0.53454,-4.27631 -1.336349,-10.42351 -0.53454,-9.08716 0.801809,1.33635 4.810852,11.75985 4.543583,9.08716 -0.267271,-2.6727 -3.207234,-10.42351 -2.405427,-13.89801 0.801809,-3.47451 7.216277,-4.00905 10.958047,0.53453 3.74178,4.54359 13.36348,13.63075 15.23437,11.22533 1.87088,-2.40543 4.00904,-6.1472 5.34539,-8.28536 1.33635,-2.13816 5.61266,-2.6727 7.21627,-0.80181 1.60362,1.87089 0.53454,10.69078 2.6727,10.42351 2.13816,-0.26727 17.63979,-15.50163 17.63979,-15.50163 2.13816,-1.06907 6.68174,-2.67269 4.27631,1.33635 -2.40542,4.00904 -4.27631,6.68174 -2.13815,5.61266 2.13815,-1.06908 4.54358,-6.1472 4.54358,-3.74177 0,2.40542 -0.53454,14.16528 0.26727,15.7689 0.80181,1.60362 0.80181,1.60362 0.80181,1.60362 0,0 2.93996,4.00904 1.60361,7.75081 -1.33634,3.74178 -4.81085,24.85607 -9.08716,35.27958 -4.27631,10.42351 -26.45968,44.90128 -30.73599,44.90128 -4.27632,0 -28.063306,-48.10851 -31.537809,-60.40291 -3.474504,-12.2944 -4.00905,-29.39966 -2.13816,-32.60689 z"
       style="fill:#deaa87;stroke:none;stroke-width:0.264583px;stroke-linecap:butt;stroke-linejoin:miter;stroke-opacity:1" />
    <path
       id="path178"
       d="m 98.75609,58.532026 c 0,0 -5.345392,-0.267268 -10.958052,0.80181 -5.612659,1.069078 -10.958049,2.939962 -18.441595,1.336347 -7.483549,-1.603619 -16.570711,-4.810853 -16.570711,-4.810853 0,0 1.870887,1.870887 6.414468,5.879931 4.543581,4.009043 -1.870887,4.81085 -1.870887,4.81085 0,0 6.681737,-1.336347 13.898014,-0.801807 7.216278,0.534538 24.054258,-2.672696 27.528763,-7.216278 z"
       style="fill:#914919;stroke:none;stroke-width:0.264583px;stroke-linecap:butt;stroke-linejoin:miter;stroke-opacity:1;fill-opacity:1" />
    <path
       id="path180"
       d="m 71.494599,68.955538 c 0,0 14.967093,4.543581 21.114292,3.474503 6.147199,-1.069078 10.156239,-11.225321 10.156239,-11.225321 0,0 -4.276308,6.68174 -9.621699,7.750819 -5.345391,1.069078 -21.648832,-10e-7 -21.648832,-10e-7 z"
       style="fill:#914919;stroke:none;stroke-width:0.264583px;stroke-linecap:butt;stroke-linejoin:miter;stroke-opacity:1;fill-opacity:1" />
    <path
       id="path182"
       d="m 167.17709,63.075608 c 0,0 10.95805,1.603618 14.96709,0.53454 4.00904,-1.069078 6.41447,-2.939965 6.41447,-2.939965 0,0 -9.08717,1.870887 -8.55263,0.267268 0.53454,-1.603615 8.28536,-7.483546 8.28536,-7.483546 0,0 2.13816,2.138156 4.54358,-0.267269 2.40543,-2.405427 2.6727,-1.336349 2.6727,-1.336349 0,0 -4.81085,6.681739 -2.6727,8.285355 2.13816,1.603619 7.75082,-1.336347 7.75082,-1.336347 l -1.33635,3.741775 c 0.80181,1.870887 8.55263,0.534539 8.55263,0.534539 0,0 0,2.939965 -10.15624,6.147199 -10.15625,3.207234 -24.32153,0.534537 -30.46873,-6.1472 z"
       style="fill:#914919;stroke:none;stroke-width:0.264583px;stroke-linecap:butt;stroke-linejoin:miter;stroke-opacity:1;fill-opacity:1" />
    <path
       id="path184"
       d="m 169.84978,73.23185 c 0,0 2.40543,17.372518 13.09621,19.777946 10.69078,2.405425 18.97614,-2.672697 18.97614,-2.672697 0,0 -5.61267,1.870887 -3.20724,-0.801809 2.40543,-2.672694 5.07812,-6.414468 5.07812,-6.414468 0,0 -2.93996,2.138156 -10.15624,0.53454 -7.21628,-1.603618 -14.16529,-6.68174 -14.16529,-6.68174 0,0 9.88898,-0.534538 12.2944,-2.939962 2.40543,-2.405428 2.13816,-3.207237 2.13816,-3.207237 0,0 -2.13816,4.810852 -11.75986,4.543583 -9.6217,-0.267268 -12.2944,-2.138156 -12.2944,-2.138156 z"
       style="fill:#914919;stroke:none;stroke-width:0.264583px;stroke-linecap:butt;stroke-linejoin:miter;stroke-opacity:1;fill-opacity:1" />
    <path
       id="path186"
       d="m 86.194423,75.370006 c 0,0 -2.672697,5.345391 -11.225321,5.078122 C 66.416477,80.180856 59.2002,71.895501 59.2002,71.895501 c 0,0 1.870887,2.672696 6.414468,3.474505 4.543581,0.80181 8.552625,-2.405425 8.552625,-2.405425 0,0 -3.741772,3.207235 -2.672694,3.207235 1.069078,0 4.81085,2.405425 4.81085,2.405425 0,0 -4.543581,-2.138157 -2.405425,0 2.138156,2.138156 12.294399,-3.207235 12.294399,-3.207235 z"
       style="fill:#914919;stroke:none;stroke-width:0.264583px;stroke-linecap:butt;stroke-linejoin:miter;stroke-opacity:1;fill-opacity:1" />
    <path
       id="path188"
       d="m -18.520833,261.9375 c 11.3392855,-12.09524 28.72619,-21.92262 38.553571,-24.94643 9.82738,-3.02381 23.434522,-7.55952 33.261904,-12.09524 9.827381,-4.53571 26.458333,-7.55952 26.458333,-11.33928 0,-3.77977 13.607142,-15.875 13.607142,-15.875 v 0 c 0,0 -4.535712,10.58333 -2.267857,15.875 2.267857,5.29166 12.85119,16.63095 12.85119,20.41071 0,3.77976 -5.291666,11.33929 -4.535712,15.875 0.755952,4.53571 24.946432,50.64881 24.946432,50.64881 2.86613,-2.21828 15.69506,-44.9814 16.2296,-46.85229 0.53454,-1.87088 14.16529,-0.53454 14.16529,-2.93996 0,-2.40543 -0.53454,-8.28536 0.26727,-12.02713 0.80181,-3.74177 9.88897,-23.51972 10.95805,-26.72695 1.06908,-3.20724 -2.6727,-15.76891 -2.6727,-15.76891 0,0 5.87993,1.06908 9.35444,5.3454 3.4745,4.27631 5.61266,14.69982 8.81989,16.30344 3.20723,1.60361 13.89802,7.75081 22.18337,10.69078 8.28536,2.93996 27.26149,9.88897 36.61593,13.89801 9.35443,4.00905 14.96709,6.1472 16.83798,9.08717 1.87088,2.93996 7.48354,9.88897 9.6217,14.69982 2.13816,4.81085 8.28536,53.18664 8.28536,53.18664 l -303.35092,0 c 0,0 5.988728,-49.15087 9.809737,-57.44959 z"
       style="display:inline;fill:#000055;stroke:none;stroke-width:0.264583px;stroke-linecap:butt;stroke-linejoin:miter;stroke-opacity:1" />
  </g>
</svg>
