<?xml version="1.0" encoding="UTF-8" standalone="no"?>
<!-- Created with Inkscape (http://www.inkscape.org/) -->

<svg
   xmlns:dc="http://purl.org/dc/elements/1.1/"
   xmlns:cc="http://creativecommons.org/ns#"
   xmlns:rdf="http://www.w3.org/1999/02/22-rdf-syntax-ns#"
   xmlns:svg="http://www.w3.org/2000/svg"
   xmlns="http://www.w3.org/2000/svg"
   xmlns:xlink="http://www.w3.org/1999/xlink"
   xmlns:sodipodi="http://sodipodi.sourceforge.net/DTD/sodipodi-0.dtd"
   xmlns:inkscape="http://www.inkscape.org/namespaces/inkscape"
   width="1000"
   height="1000"
   viewBox="0 0 264.58333 264.58334"
   id="svg4332"
   version="1.1"
   inkscape:version="0.91+devel r13925"
   sodipodi:docname="barbara-hannigan.svg"
   inkscape:export-filename="/Users/agarone/Documents/git/art/barbara-hannigan/barbara-hannigan-transparent.png"
   inkscape:export-xdpi="96"
   inkscape:export-ydpi="96">
  <defs
     id="defs4334">
    <linearGradient
       id="linearGradient5054"
       inkscape:collect="always">
      <stop
         id="stop5056"
         offset="0"
         style="stop-color:#93410d;stop-opacity:1" />
      <stop
         id="stop5058"
         offset="1"
         style="stop-color:#f69797;stop-opacity:0;" />
    </linearGradient>
    <linearGradient
       inkscape:collect="always"
       id="linearGradient4955">
      <stop
         style="stop-color:#f69797;stop-opacity:1;"
         offset="0"
         id="stop4957" />
      <stop
         style="stop-color:#f69797;stop-opacity:0;"
         offset="1"
         id="stop4959" />
    </linearGradient>
    <radialGradient
       inkscape:collect="always"
       xlink:href="#linearGradient5054"
       id="radialGradient4953"
       cx="152.9117"
       cy="100.33062"
       fx="152.9117"
       fy="100.33062"
       r="8.5527506"
       gradientTransform="matrix(-1.2694382,0.23266072,-0.09374915,-0.84660936,356.96411,149.42211)"
       gradientUnits="userSpaceOnUse" />
    <radialGradient
       inkscape:collect="always"
       xlink:href="#linearGradient4955"
       id="radialGradient4963"
       cx="120.76582"
       cy="102.47052"
       fx="120.76582"
       fy="102.47052"
       r="9.0856447"
       gradientTransform="matrix(1.0625105,0,0,0.52646175,-7.9166212,48.705803)"
       gradientUnits="userSpaceOnUse" />
    <radialGradient
       inkscape:collect="always"
       xlink:href="#linearGradient5054"
       id="radialGradient5027"
       gradientUnits="userSpaceOnUse"
       gradientTransform="matrix(1.2860623,-0.28012412,0.13116142,0.85199472,-48.354195,48.776793)"
       cx="120.76582"
       cy="102.47052"
       fx="120.76582"
       fy="102.47052"
       r="9.0856447" />
  </defs>
  <sodipodi:namedview
     id="base"
     pagecolor="#ffffff"
     bordercolor="#666666"
     borderopacity="1.0"
     inkscape:pageopacity="0.0"
     inkscape:pageshadow="2"
     inkscape:zoom="0.98994949"
     inkscape:cx="383.99606"
     inkscape:cy="580.58348"
     inkscape:document-units="px"
     inkscape:current-layer="g5301"
     showgrid="false"
     units="px"
     showguides="true"
     inkscape:guide-bbox="true"
     inkscape:window-width="1920"
     inkscape:window-height="1151"
     inkscape:window-x="0"
     inkscape:window-y="1"
     inkscape:window-maximized="1">
    <sodipodi:guide
       position="264.58333,0"
       orientation="1,0"
       id="guide4340"
       inkscape:label=""
       inkscape:color="rgb(0,0,255)" />
    <sodipodi:guide
       position="0,0"
       orientation="1,0"
       id="guide4342"
       inkscape:label=""
       inkscape:color="rgb(0,0,255)" />
    <sodipodi:guide
       position="0,0"
       orientation="0,1"
       id="guide4344"
       inkscape:label=""
       inkscape:color="rgb(0,0,255)" />
    <sodipodi:guide
       position="0,264.58333"
       orientation="0,1"
       id="guide4346"
       inkscape:label=""
       inkscape:color="rgb(0,0,255)" />
  </sodipodi:namedview>
  <metadata
     id="metadata4337">
    <rdf:RDF>
      <cc:Work
         rdf:about="">
        <dc:format>image/svg+xml</dc:format>
        <dc:type
           rdf:resource="http://purl.org/dc/dcmitype/StillImage" />
        <dc:title></dc:title>
      </cc:Work>
    </rdf:RDF>
  </metadata>
  <g
     inkscape:label="BG"
     inkscape:groupmode="layer"
     id="layer1"
     transform="translate(0,-32.41665)"
     style="display:none">
    <rect
       style="opacity:1;fill:#ffffff;fill-opacity:1;stroke:none;stroke-width:11.60810661;stroke-miterlimit:4;stroke-dasharray:none;stroke-opacity:1"
       id="rect5606"
       width="264.58334"
       height="264.58334"
       x="0"
       y="32.416653" />
    <g
       id="g5301"
       transform="matrix(0.40438206,0,0,0.40438206,-1.2820244e-7,72.404997)" />
  </g>
  <g
     inkscape:groupmode="layer"
     id="layer2"
     inkscape:label="Head"
     style="display:inline;opacity:1">
    <path
       style="fill:#2b190c;fill-opacity:1;fill-rule:evenodd;stroke:none;stroke-width:0.26458332px;stroke-linecap:butt;stroke-linejoin:miter;stroke-opacity:1"
       d="m 76.706353,126.13772 39.555887,-4.54359 -5.34539,51.85029 -37.952271,5.34539 z"
       id="path5083"
       inkscape:connector-curvature="0" />
    <path
       inkscape:connector-curvature="0"
       id="path5085"
       d="m 147.80005,146.4502 39.55588,-4.54359 -5.34539,51.85029 -37.95227,5.34539 z"
       style="fill:#2b190c;fill-opacity:1;fill-rule:evenodd;stroke:none;stroke-width:0.26458332px;stroke-linecap:butt;stroke-linejoin:miter;stroke-opacity:1" />
    <path
       style="fill:#d9a17a;fill-opacity:1;fill-rule:evenodd;stroke:none;stroke-width:0.26458332px;stroke-linecap:butt;stroke-linejoin:miter;stroke-opacity:1"
       d="m 153.08036,154.78125 c 0,0 -1.32292,9.63839 -0.94495,10.11086 0.37798,0.47247 15.875,4.8192 17.95387,5.66964 2.07887,0.85045 12.56771,23.34003 12.56771,23.34003 l -7.46503,70.68155 -72.00446,0 -19.465775,-71.53199 -7.9375,-14.17411 c 0,0 18.898809,-9.35491 21.733631,-11.62277 2.834824,-2.26785 4.819194,-10.77232 4.819194,-13.70164 0,-2.92931 -4.913687,-20.97767 -4.157735,-22.67856 0.755951,-1.7009 54.901045,23.90699 54.901045,23.90699 z"
       id="path5060"
       inkscape:connector-curvature="0" />
    <path
       style="fill:#2b190c;fill-opacity:0.3837838;fill-rule:evenodd;stroke:none;stroke-width:0.26458332px;stroke-linecap:butt;stroke-linejoin:miter;stroke-opacity:1"
       d="m 90.903273,174.24702 c 1.322917,-0.56696 3.590774,-2.92931 4.157737,-2.17336 0.566965,0.75595 1.984375,5.57515 1.984375,5.57515 0,0 -0.188987,-6.52009 1.511905,-7.27604 1.70089,-0.75596 3.30729,9.35491 3.87426,9.35491 0.56696,0 -3.590777,-12.85119 -1.79539,-13.51265 1.79539,-0.66146 5.38616,0.18899 6.4256,-3.2128 1.03943,-3.40178 1.5119,-9.07143 4.15773,-9.07143 2.64584,0 14.74107,4.44122 14.74107,2.83482 0,-1.6064 -27.592259,-27.0253 -27.592259,-27.0253 -2.323794,0 1.700899,23.05655 -1.322916,28.15923 -3.023814,5.10268 -8.315476,14.07961 -6.142112,16.34747 z"
       id="path5098"
       inkscape:connector-curvature="0"
       sodipodi:nodetypes="cscsssssscsc" />
    <path
       style="fill:#946648;fill-opacity:1;fill-rule:evenodd;stroke:none;stroke-width:0.26458332px;stroke-linecap:butt;stroke-linejoin:miter;stroke-opacity:1"
       d="m 97.848585,131.06324 c 0.614212,0.0472 6.898065,13.70164 8.551715,15.26079 1.65364,1.55915 19.46577,13.04018 28.06473,13.84338 8.59896,0.8032 11.90625,0 14.36309,-0.8977 2.45685,-0.89769 7.84301,-6.80357 10.48884,-11.7645 2.64584,-4.96094 4.7247,-15.40253 5.00819,-17.29241 0.28348,-1.88988 2.88207,-9.5439 2.74032,-16.72545 -0.14174,-7.18155 -2.12611,-11.10305 -2.50409,-13.559896 -0.37797,-2.456844 -2.12611,-14.882813 -2.4096,-17.29241 -0.28348,-2.4096 -1.98437,-11.528274 -7.46503,-16.867187 -5.48065,-5.338914 -9.02418,-6.000372 -13.93787,-5.953125 -4.91369,0.04725 -5.95312,5.008184 -9.02418,5.24442 -3.07106,0.236233 -8.97693,-2.74033 -15.02455,-0.850448 -6.04762,1.889882 -10.63058,8.835194 -12.14249,13.040177 -1.5119,4.204986 -1.03943,8.646208 -3.59077,12.473215 -2.55134,3.82701 -5.480655,5.858632 -6.425596,9.449406 -0.944941,3.590778 1.039434,7.370538 -0.330729,9.732888 -1.370164,2.36235 -11.528274,3.44903 -11.859004,5.29166 -0.330729,1.84264 0.377976,6.66183 3.260045,10.3471 2.88207,3.68527 6.000372,6.09487 7.984747,6.37835 1.984375,0.28348 3.638021,0 4.252232,0.14174 z"
       id="path4854"
       inkscape:connector-curvature="0" />
    <path
       style="fill:#dea986;fill-opacity:1;fill-rule:evenodd;stroke:none;stroke-width:0.26458332px;stroke-linecap:butt;stroke-linejoin:miter;stroke-opacity:1"
       d="m 102.57329,109.18787 c 0.51972,-1.46466 4.11049,-6.42559 4.29948,-7.65402 0.18899,-1.22842 1.74814,-5.66964 4.25223,-7.039803 2.50409,-1.370166 5.48065,-1.464659 5.19717,-2.126117 -0.28348,-0.661459 -6.04762,-0.09449 -7.22879,-1.228424 -1.18118,-1.133927 -2.12612,-4.441219 -1.18118,-7.087052 0.94494,-2.645833 1.88988,-14.032365 7.51228,-15.780507 5.62239,-1.748139 15.92224,0.992188 17.57589,0.0945 1.65365,-0.897694 4.53571,-6.425596 8.55171,-5.953125 4.016,0.47247 10.29985,1.984375 13.79613,7.748511 3.49628,5.764136 6.04762,12.04799 7.03981,16.725447 0.99219,4.677455 1.03943,7.417782 1.46466,10.677827 0.42522,3.260043 2.59858,8.976933 2.78757,14.315843 0.18899,5.33891 -1.79538,14.07961 -2.83482,19.0878 -1.03944,5.00818 -2.78757,12.23698 -4.29948,15.40253 -1.5119,3.16555 -6.80357,10.39434 -9.87463,12.00074 -3.07105,1.6064 -10.2526,2.17336 -16.30022,0.99219 -6.04762,-1.18118 -22.2061,-10.2526 -23.43452,-13.79613 -1.22843,-3.54353 -6.00038,-12.80395 -3.87426,-16.01674 2.12612,-3.2128 3.63802,-6.04762 1.13393,-10.3471 -2.50409,-4.29948 -5.24442,-7.37054 -4.58296,-10.01637 z"
       id="path4856"
       inkscape:connector-curvature="0" />
    <path
       style="fill:#000000;fill-opacity:0.01960784;fill-rule:evenodd;stroke:none;stroke-width:0.26458332px;stroke-linecap:butt;stroke-linejoin:miter;stroke-opacity:1"
       d="m 138.44561,146.71747 c -1.46998,0 -2.65766,5.2762 -2.46868,7.30783 0.18899,2.03162 2.74033,4.48846 1.74814,4.86644 -0.99218,0.37797 -4.44122,-3.59078 -3.96875,-5.95313 0.47247,-2.36235 1.9608,-6.34742 4.68929,-6.22114 z"
       id="path4933"
       inkscape:connector-curvature="0" />
    <path
       style="fill:#000000;fill-opacity:0.02352941;fill-rule:evenodd;stroke:none;stroke-width:0.26458332px;stroke-linecap:butt;stroke-linejoin:miter;stroke-opacity:1"
       d="m 156.07049,142.57479 c 0,0 2.60587,-2.40542 3.30746,-4.84426 0.70158,-2.43883 1.10248,-5.24516 0.90203,-5.24516 -0.20045,0 -1.20271,4.97789 -1.43657,4.97789 -0.23386,0 0.53454,-5.07812 0.26727,-5.07812 -0.26727,0 -0.66818,4.54358 -1.03567,6.08038 -0.3675,1.5368 -2.13816,3.50792 -2.00452,4.10927 z"
       id="path4931"
       inkscape:connector-curvature="0" />
    <path
       style="fill:#e9c6af;fill-opacity:0.20540538;fill-rule:evenodd;stroke:none;stroke-width:0.26458332px;stroke-linecap:butt;stroke-linejoin:miter;stroke-opacity:1"
       d="m 139.7567,124.25967 c 0.94494,-0.56696 1.08668,-0.33073 1.46465,0.0473 0.37798,0.37797 1.6064,5.81138 1.13393,5.76413 -0.47247,-0.0472 -2.88207,0.66146 -2.88207,0.28349 0,-0.37798 0.33073,-5.6224 0.28349,-6.09487 z"
       id="path4870"
       inkscape:connector-curvature="0" />
    <path
       style="fill:#e9c6af;fill-opacity:0.20540538;fill-rule:evenodd;stroke:none;stroke-width:0.26458332px;stroke-linecap:butt;stroke-linejoin:miter;stroke-opacity:1"
       d="m 143.25297,124.25967 c 0.47248,-0.0473 1.22843,-0.51972 1.51191,-0.18899 0.28348,0.33073 1.13393,4.20499 0.94494,4.53572 -0.18899,0.33073 -2.12612,1.03943 -2.12612,0.61421 0,-0.42523 -0.56696,-4.15774 -0.33073,-4.96094 z"
       id="path4872"
       inkscape:connector-curvature="0" />
    <path
       style="fill:#d65353;fill-opacity:1;fill-rule:evenodd;stroke:none;stroke-width:0.26458332px;stroke-linecap:butt;stroke-linejoin:miter;stroke-opacity:1"
       d="m 129.97656,136.78013 c 0.56697,-0.7087 8.88244,-5.24442 10.39435,-5.24442 1.5119,0 2.69308,0.47247 3.26004,0.47247 0.56696,0 1.84263,-1.03943 3.26004,-1.18117 1.41742,-0.14174 2.88207,0.23623 4.06325,1.27567 1.18117,1.03943 3.02381,2.17336 2.69308,2.4096 -0.33073,0.23623 -3.54353,3.68526 -8.83519,4.15773 -5.29167,0.47247 -14.74108,-1.46465 -14.83557,-1.88988 z"
       id="path4876"
       inkscape:connector-curvature="0" />
    <path
       style="fill:#c98c64;fill-opacity:1;fill-rule:evenodd;stroke:none;stroke-width:0.26458332px;stroke-linecap:butt;stroke-linejoin:miter;stroke-opacity:1"
       d="m 129.95981,93.464016 c 0.46772,-0.23386 -1.16931,-3.574729 -1.77066,-3.574729 -0.60136,0 -14.1987,0.868627 -16.77117,1.737251 -2.57247,0.868627 -5.41221,5.746295 -5.41221,6.214017 0,0.467723 3.54133,-4.075861 5.61267,-4.710625 2.07133,-0.634765 12.36121,-0.467723 13.76437,-0.100227 1.40317,0.367495 4.04246,0.734991 4.577,0.434313 z"
       id="path4878"
       inkscape:connector-curvature="0" />
    <path
       style="fill:#c98c64;fill-opacity:1;fill-rule:evenodd;stroke:none;stroke-width:0.26458332px;stroke-linecap:butt;stroke-linejoin:miter;stroke-opacity:1"
       d="m 146.33006,93.965148 c -0.43431,-0.400905 -0.36749,-2.973374 0.96886,-3.507912 1.33635,-0.534541 10.52373,-1.904296 11.39236,-1.737254 0.86863,0.167044 4.04245,1.870887 4.37654,2.572469 0.33408,0.701583 0.4009,1.703843 0.13363,1.703843 -0.26727,0 -2.3052,-2.338607 -4.34313,-2.405425 -2.03793,-0.06682 -7.01582,2.104747 -8.8533,2.57247 -1.83748,0.467722 -3.54132,0.935442 -3.67496,0.801809 z"
       id="path4880"
       inkscape:connector-curvature="0" />
    <path
       style="fill:#e0ac8a;fill-opacity:1;fill-rule:evenodd;stroke:none;stroke-width:0.26458332px;stroke-linecap:butt;stroke-linejoin:miter;stroke-opacity:1"
       d="m 129.3151,108.10119 c -0.33073,-0.99219 -1.08668,-1.08668 -6.00037,-0.0945 -4.91369,0.99219 -9.4494,3.87426 -9.16592,4.77195 0.28348,0.8977 7.89025,16.39472 11.43378,15.49703 3.54353,-0.8977 5.05543,-17.81213 3.73251,-20.17448 z"
       id="path4868"
       inkscape:connector-curvature="0" />
    <path
       style="fill:#000000;fill-opacity:0.19459462;fill-rule:evenodd;stroke:none;stroke-width:0.26458332px;stroke-linecap:butt;stroke-linejoin:miter;stroke-opacity:1"
       d="m 130.49435,136.62805 c 0,0 5.04471,-0.90204 6.04697,-1.10249 1.00226,-0.20046 4.00904,-0.80181 4.91108,-0.80181 0.90203,0 1.70384,-0.0334 2.20497,-0.10023 0.50113,-0.0668 3.20723,-0.53454 4.04245,-0.53454 0.83522,0 5.44562,0.0334 5.44562,0.20046 0,0.16704 -3.842,0.10022 -4.87767,0.16704 -1.03567,0.0668 -3.04019,0.46772 -4.47677,0.63477 -1.43657,0.16704 -2.10474,-0.0334 -4.07586,0.20045 -1.97111,0.23386 -4.71062,0.93544 -5.81311,1.10248 -1.10248,0.16705 -3.44109,0.43432 -3.40768,0.23387 z"
       id="path4971"
       inkscape:connector-curvature="0" />
    <path
       style="fill:#000000;fill-opacity:0.04705882;fill-rule:evenodd;stroke:none;stroke-width:0.26458332px;stroke-linecap:butt;stroke-linejoin:miter;stroke-opacity:1"
       d="m 143.35669,105.25728 c 0.26727,0.23387 0.26727,4.07587 0.63477,4.94449 0.36749,0.86863 3.94222,4.71063 4.04245,6.11379 0.10022,1.40317 -0.60136,3.20724 -0.7684,3.0736 -0.16704,-0.13363 0.56795,-2.03793 0.50113,-2.7061 -0.0668,-0.66818 -4.14268,-5.31199 -4.2095,-6.41447 -0.0668,-1.10249 -0.23386,-5.01131 -0.20045,-5.01131 z"
       id="path4973"
       inkscape:connector-curvature="0" />
    <path
       style="display:inline;fill:url(#radialGradient4953);fill-opacity:1;fill-rule:evenodd;stroke:none;stroke-width:0.38480771px;stroke-linecap:butt;stroke-linejoin:miter;stroke-opacity:1"
       d="m 142.47943,103.00447 c 0,-1.21247 4.19817,-9.920189 11.09517,-10.140639 6.897,-0.220447 10.79528,5.070323 10.83813,7.164579 0.0428,2.09426 -4.19816,6.99926 -7.79661,7.21971 -3.59843,0.22045 -14.05101,-3.1414 -14.13669,-4.24365 z"
       id="path4888"
       inkscape:connector-curvature="0" />
    <path
       inkscape:connector-curvature="0"
       id="path4943"
       d="m 159.4638,100.37426 c 0.28329,-0.584288 0.098,-0.403208 0.23467,-0.632846 -0.16763,0.07779 -0.35024,-0.229417 -0.44845,-0.362177 -0.0982,-0.132746 -0.0934,-0.294523 0.1179,-0.58644 -0.3366,-0.03882 -0.3814,-0.124622 -0.58382,-0.128274 -0.20243,-0.0035 -9.2e-4,-0.816983 -9.2e-4,-0.816983 0,0 -0.26056,0.339548 -0.59791,0.333462 -0.33736,-0.0061 -0.17205,-1.006927 -0.17205,-1.006927 0,0 -0.21209,0.421861 -0.47975,0.318791 -0.26765,-0.103059 -0.69654,-0.536492 -0.69654,-0.536492 0,0 -0.10645,0.227294 -0.37556,0.189702 -0.26914,-0.03759 -0.53083,-0.402526 -0.53083,-0.402526 0,0 -0.0135,0.589176 -0.34632,0.3867 -0.33288,-0.202484 -0.59307,-0.632869 -0.59307,-0.632869 0,0 -0.14538,0.45581 -0.34707,0.419428 -0.20165,-0.03638 -0.86667,-0.474073 -0.86667,-0.474073 0,0 0.0276,0.262465 -0.17467,0.258813 -0.20241,-0.0035 -0.4326,-0.269769 -0.4326,-0.269769 0,0 0.19274,0.429166 -0.27956,0.420645 -0.47231,-0.0085 -0.46412,-0.368572 -0.46412,-0.368572 0,0 -0.21284,0.454593 -0.45048,0.515798 -0.23764,0.0612 -0.43484,-0.171575 -0.43484,-0.171575 0,0 0.0578,0.426734 -0.2466,0.453987 -0.30437,0.02725 -0.80743,-0.112807 -0.80743,-0.112807 0,0 -0.008,0.392778 -0.17911,0.4552 -0.17016,0.0624 -0.90639,-0.212824 -0.90639,-0.212824 0,0 0.52785,0.533448 0.15228,0.723142 -0.37558,0.189693 -0.53382,-0.271594 -0.53382,-0.271594 0,0 -0.0794,0.522493 -0.28404,0.617039 -0.20467,0.09454 -0.50009,-0.270986 -0.50009,-0.270986 0,0 0.0571,0.459463 -0.18434,0.684324 -0.24135,0.224861 -0.67992,0.216947 -0.67992,0.216947 0,0 0.23465,0.0697 -0.0112,0.49098 -0.24583,0.421256 -0.51125,0.219991 -0.51125,0.219991 0,0 -0.0103,0.458245 -0.14835,0.586725 -0.13792,0.1285 -0.50903,0.12182 -0.50903,0.12182 l 0.72158,0.29493 z"
       style="fill:#000000;fill-opacity:0.65945949;fill-rule:evenodd;stroke:none;stroke-width:0.2632232px;stroke-linecap:butt;stroke-linejoin:miter;stroke-opacity:1"
       sodipodi:nodetypes="cccccccccccccccccccccccccccccccccccccc" />
    <path
       sodipodi:nodetypes="ccccccccscccccccccccccccsccccccccccccc"
       style="fill:#000000;fill-opacity:0.65945949;fill-rule:evenodd;stroke:none;stroke-width:0.24359073px;stroke-linecap:butt;stroke-linejoin:miter;stroke-opacity:1"
       d="m 146.82763,100.72749 c 0.0254,0.13328 -0.14332,0.34842 -0.33322,0.62189 0.20338,-0.10345 0.45811,-0.25983 0.55,-0.14012 0.0919,0.11969 0.0847,0.24931 -4.8e-4,0.48259 0.19577,-0.0552 0.13813,-0.10833 0.33529,-0.0986 0.19714,0.01 0.0685,0.52161 0.0685,0.52161 0,0 0.21056,-0.21992 0.53915,-0.20369 0.3286,0.0162 0.50064,0.45656 0.50064,0.45656 0,0 0.21891,-0.36347 0.47677,-0.26436 0.25786,0.0991 0.66327,0.4934 0.66327,0.4934 0,0 0.11026,-0.19609 0.37149,-0.15441 0.26121,0.0416 0.50568,0.37046 0.50568,0.37046 0,0 0.0302,-0.51675 0.34866,-0.32828 0.31856,0.18849 0.55968,0.57467 0.55968,0.57467 0,0 0.15485,-0.39543 0.35036,-0.35698 0.19547,0.0385 0.8309,0.4441 0.8309,0.4441 0,0 -0.0194,-0.23129 0.17768,-0.22156 0.19717,0.01 0.41378,0.25076 0.41378,0.25076 0,0 -0.17538,-0.38294 0.28465,-0.36022 0.46002,0.0228 0.44161,0.33849 0.44161,0.33849 0,0 0.22059,-0.39219 0.45396,-0.43825 0.23336,-0.046 0.41881,0.16465 0.41881,0.16465 0,0 -0.044,-0.37646 0.25346,-0.39058 0.2974,-0.0141 0.7836,0.12508 0.7836,0.12508 0,0 0.02,-0.34449 0.18772,-0.3938 0.16766,-0.0493 0.87716,0.21604 0.87716,0.21604 0,0 -0.49897,-0.48528 -0.12746,-0.63969 0.37149,-0.1544 0.51237,0.25562 0.51237,0.25562 0,0 0.0925,-0.45608 0.29466,-0.53249 0.20217,-0.0763 0.4795,0.25401 0.4795,0.25401 0,0 -0.0422,-0.40516 0.19945,-0.59475 0.24173,-0.1896 0.62628,0.1841 0.62628,0.1841 0,0 -0.10455,0.0178 0.14714,-0.34415 0.25177,-0.36185 0.37257,0.0934 0.37257,0.0934 0,0 0.18237,-0.3467 0.32053,-0.45503 0.13814,-0.10835 0.39322,-0.854913 0.39322,-0.854913 l -0.0359,0.385533 z"
       id="path4945"
       inkscape:connector-curvature="0" />
    <path
       style="fill:#f6e4e4;fill-opacity:1;fill-rule:evenodd;stroke:none;stroke-width:0.26458332px;stroke-linecap:butt;stroke-linejoin:miter;stroke-opacity:1"
       d="m 159.19241,100.41302 c 0,-0.835213 -1.63702,-3.17382 -4.84426,-3.073596 -3.20723,0.100227 -7.3165,2.305201 -7.18287,3.340866 0.13364,1.03567 4.30972,1.80407 6.21402,1.60362 1.90429,-0.20045 5.64607,-1.5368 5.81311,-1.87089 z"
       id="path4886"
       inkscape:connector-curvature="0" />
    <path
       style="fill:#00581d;fill-opacity:1;fill-rule:evenodd;stroke:none;stroke-width:0.26458332px;stroke-linecap:butt;stroke-linejoin:miter;stroke-opacity:1"
       d="m 154.14614,97.353229 c -1.59384,0.09136 -3.37459,0.6706 -4.74183,1.35754 a 3.0710563,3.0710563 0 0 0 -0.19843,1.07487 3.0710563,3.0710563 0 0 0 1.02474,2.285641 c 1.13802,0.20767 2.3452,0.29696 3.14865,0.21239 0.25707,-0.0271 0.55072,-0.0774 0.86144,-0.14056 a 3.0710563,3.0710563 0 0 0 1.10743,-2.357471 3.0710563,3.0710563 0 0 0 -1.202,-2.43241 z"
       id="path4890"
       inkscape:connector-curvature="0" />
    <circle
       r="1.5762943"
       cy="99.785713"
       cx="152.27716"
       id="circle4894"
       style="fill:#000000;fill-opacity:1;fill-rule:evenodd;stroke:none;stroke-width:0.13580382px;stroke-linecap:butt;stroke-linejoin:miter;stroke-opacity:1" />
    <path
       style="display:inline;fill:url(#radialGradient5027);fill-opacity:1;fill-rule:evenodd;stroke:none;stroke-width:0.43927485px;stroke-linecap:butt;stroke-linejoin:miter;stroke-opacity:1"
       d="m 133.66803,101.96336 c -0.29355,-1.44614 -3.57188,-7.733832 -5.87159,-8.048218 -2.29971,-0.314384 -8.26919,-0.125738 -11.05822,1.006033 -2.789,1.131778 -10.37316,7.796715 -9.59028,10.563325 0.78288,2.76654 7.14379,5.78464 11.30284,5.15589 4.15905,-0.62877 16.00015,-5.34454 15.21725,-8.67703 z"
       id="path4882"
       inkscape:connector-curvature="0" />
    <path
       style="fill:#000000;fill-opacity:0.65882353;fill-rule:evenodd;stroke:none;stroke-width:0.28235906px;stroke-linecap:butt;stroke-linejoin:miter;stroke-opacity:1"
       d="m 127.68033,102.01946 c 0.27706,-0.66064 0.27706,-0.95426 0.0692,-0.95426 -0.2078,0 -0.69267,0.29362 -0.79658,0.14681 -0.1039,-0.14681 -0.2078,-0.66065 -0.55414,-0.69734 -0.34634,-0.0367 -0.13854,0.1468 -0.34634,0.1468 -0.2078,0 -0.1039,-0.66064 -0.1039,-0.66064 0,0 -0.2078,0.29361 -0.55415,0.29361 -0.34634,0 -0.55414,-0.550525 -0.55414,-0.550525 0,0 -0.2078,0.477125 -0.48487,0.367015 -0.27707,-0.1101 -0.72731,-0.587235 -0.72731,-0.587235 0,0 -0.10391,0.256913 -0.38098,0.22022 -0.27707,-0.03669 -0.55414,-0.440434 -0.55414,-0.440434 0,0 0,0.660647 -0.34634,0.440434 -0.34634,-0.22022 -0.62341,-0.697354 -0.62341,-0.697354 0,0 -0.13853,0.513836 -0.34634,0.477134 -0.2078,-0.0367 -0.90048,-0.513837 -0.90048,-0.513837 0,0 0.0346,0.293623 -0.17317,0.293623 -0.20781,0 -0.45024,-0.293623 -0.45024,-0.293623 0,0 0.2078,0.477134 -0.27707,0.477134 -0.48488,0 -0.48488,-0.403728 -0.48488,-0.403728 0,0 -0.2078,0.513835 -0.45024,0.587243 -0.24243,0.07339 -0.45024,-0.183515 -0.45024,-0.183515 0,0 0.0693,0.477136 -0.24244,0.513838 -0.3117,0.0367 -0.83122,-0.11011 -0.83122,-0.11011 0,0 0,0.44043 -0.17316,0.51383 -0.17317,0.0734 -0.93511,-0.22021 -0.93511,-0.22021 0,0 0.55414,0.58724 0.17316,0.80745 -0.38097,0.22022 -0.55414,-0.29362 -0.55414,-0.29362 0,0 -0.0692,0.58725 -0.27707,0.69736 -0.2078,0.1101 -0.51951,-0.29362 -0.51951,-0.29362 0,0 0.0692,0.51383 -0.17317,0.77075 -0.24243,0.25691 -0.69268,0.25691 -0.69268,0.25691 0,0 0.24244,0.0734 0,0.55054 -0.24244,0.47713 -0.51951,0.25692 -0.51951,0.25692 0,0 0,0.51383 -0.13853,0.66065 -0.13854,0.1468 -0.51951,0.1468 -0.51951,0.1468 l 0.2078,0.47713 z"
       id="path4935"
       inkscape:connector-curvature="0" />
    <path
       inkscape:connector-curvature="0"
       id="path4939"
       d="m 113.33546,104.19771 c -0.24489,0.57476 -0.22972,0.82114 -0.0204,0.80583 0.20926,-0.0153 0.68236,-0.29743 0.79458,-0.18189 0.11221,0.11552 0.24339,0.53904 0.59406,0.5443 0.35065,0.006 0.13191,-0.13339 0.34117,-0.1487 0.20926,-0.0153 0.13876,0.54669 0.13876,0.54669 0,0 0.1941,-0.26169 0.54288,-0.28721 0.34877,-0.0255 0.58646,0.42111 0.58646,0.42111 0,0 0.18462,-0.41568 0.46933,-0.34369 0.2847,0.072 0.76274,0.43915 0.76274,0.43915 0,0 0.0913,-0.22325 0.37227,-0.21287 0.28093,0.0103 0.5808,0.32874 0.5808,0.32874 0,0 -0.0341,-0.55436 0.326,-0.3951 0.36016,0.15927 0.66382,0.53922 0.66382,0.53922 0,0 0.11296,-0.44138 0.32413,-0.42589 0.21115,0.0155 0.93333,0.36481 0.93333,0.36481 0,0 -0.05,-0.24384 0.15923,-0.25915 0.20926,-0.0153 0.46856,0.21321 0.46856,0.21321 0,0 -0.2339,-0.38506 0.25438,-0.42079 0.48828,-0.0357 0.50913,0.30303 0.50913,0.30303 0,0 0.18271,-0.44649 0.42306,-0.52595 0.24036,-0.0794 0.46289,0.12082 0.46289,0.12082 0,0 -0.0944,-0.39527 0.2176,-0.44905 0.31199,-0.0539 0.84274,0.0311 0.84274,0.0311 0,0 -0.0227,-0.36957 0.14784,-0.44393 0.1706,-0.0744 0.95305,0.11587 0.95305,0.11587 0,0 -0.58836,-0.45192 -0.21609,-0.66479 0.37228,-0.21285 0.57321,0.20554 0.57321,0.20554 0,0 0.0394,-0.49786 0.24299,-0.60557 0.20357,-0.1077 0.53832,0.2081 0.53832,0.2081 0,0 -0.0963,-0.42607 0.13457,-0.65951 0.23087,-0.23345 0.68428,0.11452 0.68428,0.11452 0,0 -0.10811,0.0325 0.11135,-0.38575 0.2195,-0.41823 0.40503,0.051 0.40503,0.051 0,0 -0.21797,-0.3458 -0.086,-0.4792 -0.22303,-0.0541 -0.0958,-0.31222 -0.0958,-0.31222 l 0.19978,-0.3288 z"
       style="fill:#000000;fill-opacity:0.65882353;fill-rule:evenodd;stroke:none;stroke-width:0.26013988px;stroke-linecap:butt;stroke-linejoin:miter;stroke-opacity:1"
       sodipodi:nodetypes="ccccccccscccccccccccccccsccccccccccccc" />
    <path
       style="fill:#f6e4e4;fill-opacity:1;fill-rule:evenodd;stroke:none;stroke-width:0.26458332px;stroke-linecap:butt;stroke-linejoin:miter;stroke-opacity:1"
       d="m 113.62296,104.22161 c 0,-0.53453 3.24064,-3.8754 6.1806,-4.10926 2.93997,-0.233865 7.6506,1.26953 7.6506,2.20497 0,0.93544 -6.64834,2.67269 -8.31877,2.97337 -1.67044,0.30068 -5.54584,-0.66817 -5.51243,-1.06908 z"
       id="path4884"
       inkscape:connector-curvature="0" />
    <path
       style="fill:#00581d;fill-opacity:1;fill-rule:evenodd;stroke:none;stroke-width:0.26458332px;stroke-linecap:butt;stroke-linejoin:miter;stroke-opacity:1"
       d="m 120.37405,100.08846 c -0.196,0.002 -0.38676,0.009 -0.57051,0.0238 -1.17187,0.0932 -2.38818,0.68201 -3.43132,1.38803 a 3.3545385,3.3545385 0 0 0 -0.0501,0.55345 3.3545385,3.3545385 0 0 0 2.5957,3.26388 c 0.0741,-0.008 0.15026,-0.0148 0.21756,-0.0269 0.51753,-0.0932 1.52877,-0.33273 2.65617,-0.6351 a 3.3545385,3.3545385 0 0 0 1.23972,-2.60191 3.3545385,3.3545385 0 0 0 -0.51367,-1.7818 c -0.73477,-0.11846 -1.47049,-0.18897 -2.14353,-0.18345 z"
       id="path4892"
       inkscape:connector-curvature="0" />
    <circle
       r="1.8090872"
       cy="102.31815"
       cx="119.67671"
       id="circle4896"
       style="fill:#000000;fill-opacity:1;fill-rule:evenodd;stroke:none;stroke-width:0.14268856px;stroke-linecap:butt;stroke-linejoin:miter;stroke-opacity:1" />
    <path
       style="display:inline;fill:#000000;fill-opacity:0.05405405;fill-rule:evenodd;stroke:none;stroke-width:0.28824475px;stroke-linecap:butt;stroke-linejoin:miter;stroke-opacity:1"
       d="m 109.39446,105.34074 c 0,-0.95366 4.96175,-7.127354 6.33414,-5.57138 1.37241,1.55597 -0.47505,1.80693 0.47507,3.51348 0.95012,1.70655 3.48378,2.86098 3.37821,3.11194 -0.10557,0.25097 -4.38112,-0.85326 -4.22277,-0.0501 0.15837,0.80308 4.22277,1.65635 3.80049,2.20848 -0.42228,0.55211 -9.02615,-2.1081 -9.76514,-3.21233 z"
       id="path4866"
       inkscape:connector-curvature="0" />
    <path
       style="display:inline;fill:#000000;fill-opacity:0.04864867;fill-rule:evenodd;stroke:none;stroke-width:0.26458332px;stroke-linecap:butt;stroke-linejoin:miter;stroke-opacity:1"
       d="m 133.00037,97.234374 c 0.66146,0 3.77976,2.834816 3.87426,5.197176 0.0945,2.36235 -0.33073,2.40959 0.0945,3.73251 0.42523,1.32292 2.50409,2.45685 2.4096,4.91369 -0.0945,2.45685 -1.93713,3.96875 -1.79539,5.48066 0.14174,1.5119 1.32292,2.55134 0.75595,2.55134 -0.56696,0 -3.16555,-1.03944 -4.15773,1.5119 -0.99219,2.55134 0.7087,3.1183 0.33073,3.63802 -0.37798,0.51972 -4.34673,-1.27567 -3.87426,-3.26004 0.47247,-1.98438 4.7247,-5.90588 4.8192,-7.27604 0.5399,-1.74235 0.43347,-1.97139 0.28348,-3.59078 -0.18899,-1.55915 -2.41006,-1.87699 -2.78758,-3.26004 -0.37752,-1.38305 0.81851,-3.16013 0.17852,-4.40069 -0.64,-1.24056 -2.54087,0.007 -2.11565,-0.65474 0.42523,-0.66146 2.12612,-1.46466 2.17337,-2.409605 0.0473,-0.944938 0.33073,-0.992187 -0.18899,-2.173361 z"
       id="path4860"
       inkscape:connector-curvature="0"
       sodipodi:nodetypes="csssssscscczzsccc" />
    <path
       style="display:inline;fill:#000000;fill-opacity:0.01960784;fill-rule:evenodd;stroke:none;stroke-width:0.26458332px;stroke-linecap:butt;stroke-linejoin:miter;stroke-opacity:1"
       d="m 123.40922,132.4334 c -0.75595,-0.0945 -2.55133,5.14993 -3.1183,5.14993 -0.56696,0 -5.24442,-5.38616 -5.76414,-5.19717 -0.51971,0.18899 6.00038,14.55208 7.27605,14.50483 1.27567,-0.0472 2.55134,-13.18192 1.60639,-14.45759 z"
       id="path4874"
       inkscape:connector-curvature="0" />
    <path
       style="display:inline;fill:#000000;fill-opacity:0.58918918;fill-rule:evenodd;stroke:none;stroke-width:0.26458332px;stroke-linecap:butt;stroke-linejoin:miter;stroke-opacity:1"
       d="m 141.55208,121.70833 c 0.56697,0 -0.0945,-1.5119 -1.84263,-1.5119 -1.74814,0 -3.11831,0.85044 -3.02381,1.5119 0.0945,0.66146 1.70089,0.47247 1.98437,-0.47247 0.28348,-0.94494 0.42523,-0.89769 1.27567,-0.8032 0.85045,0.0945 1.51191,0.37798 1.6064,1.27567 z"
       id="path4862"
       inkscape:connector-curvature="0" />
    <path
       style="display:inline;fill:#000000;fill-opacity:0.58918918;fill-rule:evenodd;stroke:none;stroke-width:0.26458332px;stroke-linecap:butt;stroke-linejoin:miter;stroke-opacity:1"
       d="m 144.90662,121.28311 c 0.28348,0 1.22842,-0.61421 1.46466,-0.51972 0.23623,0.0945 0.47247,0.8032 0.7087,0.8032 0.23624,0 -0.18899,-1.79539 -0.66145,-1.65365 -0.47248,0.14175 -1.41741,1.08669 -1.51191,1.37017 z"
       id="path4864"
       inkscape:connector-curvature="0" />
    <path
       style="fill:#2b190c;fill-opacity:0.13513513;fill-rule:evenodd;stroke:none;stroke-width:0.26458332px;stroke-linecap:butt;stroke-linejoin:miter;stroke-opacity:1"
       d="m 151.66295,168.1994 c 0.75595,0 -0.56697,18.89881 2.64583,21.07217 3.21279,2.17337 12.75669,-8.40996 13.60714,-7.55952 0.85045,0.85045 -12.28422,18.9933 -15.11905,16.72545 -2.83482,-2.26786 -1.88988,-23.71801 -1.13392,-30.2381 z"
       id="path5092"
       inkscape:connector-curvature="0" />
    <path
       style="fill:#2b190c;fill-opacity:0.13513513;fill-rule:evenodd;stroke:none;stroke-width:0.26458332px;stroke-linecap:butt;stroke-linejoin:miter;stroke-opacity:1"
       d="m 105.83333,196.64211 c 1.88988,0.75595 7.18155,3.02381 11.43378,3.02381 4.25224,0 5.76414,-0.18899 6.89807,0.0945 1.13393,0.28349 6.04762,4.15774 4.91369,4.25224 -1.13393,0.0945 -5.00819,-1.79539 -10.01637,-2.64584 -5.00819,-0.85044 -14.64658,-1.70089 -13.22917,-4.7247 z"
       id="path5094"
       inkscape:connector-curvature="0" />
    <path
       style="fill:#2b190c;fill-opacity:0.13513513;fill-rule:evenodd;stroke:none;stroke-width:0.26458332px;stroke-linecap:butt;stroke-linejoin:miter;stroke-opacity:1"
       d="m 132.00818,197.68155 c 1.13393,0.37797 3.59078,6.2366 5.00819,6.04761 1.41741,-0.18899 3.77976,-6.61458 4.6302,-5.95312 0.85045,0.66146 -2.83482,10.11086 -3.96875,10.11086 -1.13392,0 -6.2366,-9.4494 -5.66964,-10.20535 z"
       id="path5096"
       inkscape:connector-curvature="0" />
    <path
       style="fill:#2b190c;fill-opacity:0.13513513;fill-rule:evenodd;stroke:none;stroke-width:0.26458332px;stroke-linecap:butt;stroke-linejoin:miter;stroke-opacity:1"
       d="m 145.80431,159.97842 c 1.03944,0 -0.56696,9.73289 -1.70089,13.70164 -1.13393,3.96875 -2.83482,8.03199 -3.40178,7.9375 -0.56697,-0.0945 2.83482,-6.04762 3.87425,-11.1503 1.03943,-5.10268 0.66146,-10.20536 1.22842,-10.48884 z"
       id="path5100"
       inkscape:connector-curvature="0" />
    <path
       style="fill:#000000;fill-rule:evenodd;stroke:none;stroke-width:0.26458332px;stroke-linecap:butt;stroke-linejoin:miter;stroke-opacity:1;fill-opacity:0.14509805"
       d="m 93.549106,125.11012 c 0,0 -2.409597,-4.15774 -2.409597,-5.48066 0,-1.32291 1.511903,-5.10268 0.850445,-5.10268 -0.661459,0 -2.173362,0.14175 -2.173362,0.94494 0,0.8032 1.039434,3.59078 0.14174,3.87426 -0.897694,0.28348 -3.023809,1.22842 -2.929316,1.74814 0.09449,0.51972 2.031622,3.1183 1.46466,3.1183 -0.566965,0 -3.401788,-1.18117 -3.449035,-2.40959 -0.04725,-1.22843 -0.803198,-6.56734 -1.322916,-6.75633 -0.519716,-0.18899 -0.283483,4.39397 0.236236,6.04762 0.519715,1.65365 3.921503,3.68527 4.488465,4.48847 0.566965,0.8032 2.031625,1.84263 1.748142,0.99219 -0.283482,-0.85045 -1.181177,-1.84264 -1.086683,-3.49628 0.0945,-1.65365 1.27567,-2.17337 1.653648,-1.88989 0.377976,0.28349 2.126115,4.016 2.787573,3.92151 z"
       id="path5116"
       inkscape:connector-curvature="0" />
    <path
       style="fill:#000000;fill-opacity:0.14594595;fill-rule:evenodd;stroke:none;stroke-width:0.26458332px;stroke-linecap:butt;stroke-linejoin:miter;stroke-opacity:1"
       d="m 98.132068,130.96875 c -2.007999,-4.98456 -3.874257,-17.95387 -3.543528,-18.33185 0.33073,-0.37797 5.57515,18.19011 9.96912,27.92299 1.9391,4.29522 7.73091,9.30292 7.35294,9.30292 -0.37798,0 -3.31153,-1.49996 -5.65204,-4.29473 -2.32867,-2.78064 -6.11849,-9.61477 -8.126492,-14.59933 z"
       id="path5118"
       inkscape:connector-curvature="0"
       sodipodi:nodetypes="zcsssz" />
  </g>
  <g
     inkscape:groupmode="layer"
     id="layer4"
     inkscape:label="Shirt"
     style="display:inline;opacity:1">
    <path
       style="fill:#6c5d53;fill-opacity:1;fill-rule:evenodd;stroke:none;stroke-width:0.26458332px;stroke-linecap:butt;stroke-linejoin:miter;stroke-opacity:1"
       d="m 158.08854,166.30952 c 0.56696,-0.18899 0.94494,-0.56696 2.36235,-0.37797 1.41741,0.18898 8.31548,3.30729 9.26042,3.30729 0.94494,0 3.1183,-0.18899 3.96875,0 0.85044,0.18898 0.47247,1.03943 2.74033,2.26786 2.26785,1.22842 18.70982,5.38616 24.19047,7.37053 5.48065,1.98438 15.02455,6.52009 18.33185,15.875 3.30729,9.35491 5.4158,19.45004 5.4158,23.60778 0,4.15774 1.53876,26.02107 1.16079,28.85589 -0.37798,2.83482 1.64947,17.36743 1.64947,17.36743 l -86.18365,0 c 0,0 20.97768,-37.04167 22.48958,-45.64062 1.51191,-8.59896 0.28348,-13.60715 0.47247,-14.17411 0.18899,-0.56697 10.96131,-15.96949 9.26042,-23.24554 -1.70089,-7.27604 -3.59078,-10.11086 -6.3311,-11.62276 -2.74033,-1.51191 -8.88244,-3.11831 -8.78795,-3.59078 z"
       id="path5063"
       inkscape:connector-curvature="0"
       sodipodi:nodetypes="cssssssssccssssc" />
    <path
       style="fill:#6c5d53;fill-opacity:1;fill-rule:evenodd;stroke:none;stroke-width:0.27286398px;stroke-linecap:butt;stroke-linejoin:miter;stroke-opacity:1"
       d="m 79.752975,172.92609 c 12.029911,-3.60924 24.401245,20.16654 26.763595,25.0911 2.36235,4.92457 19.14354,35.8027 21.84663,41.11124 2.83205,5.5618 13.77993,25.4549 13.77993,25.4549 l -111.149082,0 c 0,0 -2.645833,-16.88423 -1.606399,-22.91431 1.039434,-6.03008 8.598958,-21.40679 9.543899,-26.43186 0.944941,-5.02507 7.370535,-16.68323 12.567708,-21.6078 5.197171,-4.92456 24.851934,-15.67821 28.253719,-20.70327 z"
       id="path5065"
       inkscape:connector-curvature="0"
       sodipodi:nodetypes="cssccsssc" />
    <path
       style="fill:#000000;fill-rule:evenodd;stroke:none;stroke-width:0.26458332px;stroke-linecap:butt;stroke-linejoin:miter;stroke-opacity:1;fill-opacity:0.35135135"
       d="m 98.889724,264.58333 c 0,0 -4.543582,-8.15172 -4.677217,-18.30796 -0.133633,-10.15625 -0.400905,-23.25245 -2.271789,-29.13238 -1.870888,-5.87993 -5.612662,-15.10073 -6.1472,-14.43255 -0.53454,0.66817 6.280833,14.03164 6.414468,22.58427 0.133633,8.55263 -1.069078,17.77342 0,24.72243 1.069078,6.94901 4.009044,14.56619 4.009044,14.56619 z"
       id="path5102"
       inkscape:connector-curvature="0" />
    <path
       style="fill:#000000;fill-rule:evenodd;stroke:none;stroke-width:0.26458332px;stroke-linecap:butt;stroke-linejoin:miter;stroke-opacity:1;fill-opacity:0.35135135"
       d="m 90.203463,264.58333 c 0,0 -3.608138,-14.69982 -3.207234,-21.11429 0.400905,-6.41447 0,-13.63075 -1.202711,-13.09621 -1.202714,0.53454 0.668174,18.04069 0.668174,22.98518 0,4.94449 -0.534541,11.22532 -0.534541,11.22532 z"
       id="path5104"
       inkscape:connector-curvature="0" />
    <path
       style="fill:#000000;fill-rule:evenodd;stroke:none;stroke-width:0.26458332px;stroke-linecap:butt;stroke-linejoin:miter;stroke-opacity:1;fill-opacity:0.35135135"
       d="m 79.512683,264.58333 c 0,0 -2.539061,-16.97162 -2.271789,-22.85154 0.267269,-5.87993 -0.668176,-20.44612 -1.737254,-20.44612 -1.069079,0 -0.801807,18.8425 -1.202712,24.32152 -0.400904,5.47903 1.069078,12.2944 1.069078,15.63527 0,3.34087 -0.801809,3.34087 -0.801809,3.34087 z"
       id="path5106"
       inkscape:connector-curvature="0" />
    <path
       style="fill:#000000;fill-rule:evenodd;stroke:none;stroke-width:0.26458332px;stroke-linecap:butt;stroke-linejoin:miter;stroke-opacity:1;fill-opacity:0.35135135"
       d="m 50.781209,264.58333 c 0,0 0,-21.11429 0.801809,-28.73147 0.801809,-7.61719 4.409948,-17.77343 2.405425,-16.16981 -2.004521,1.60362 -5.211755,14.03165 -5.746295,23.11881 -0.534538,9.08717 -3.608136,21.78247 -3.608136,21.78247 z"
       id="path5108"
       inkscape:connector-curvature="0" />
    <path
       style="fill:#000000;fill-rule:evenodd;stroke:none;stroke-width:0.26458332px;stroke-linecap:butt;stroke-linejoin:miter;stroke-opacity:1;fill-opacity:0.35135135"
       d="m 33.943229,264.58333 c 0,0 0,-11.09169 1.870887,-20.98066 1.870887,-9.88897 15.100728,-33.80959 13.229841,-33.80959 -1.870887,0 -9.621702,9.6217 -14.967093,20.44612 -5.34539,10.82441 -4.009043,34.34413 -4.009043,34.34413 z"
       id="path5110"
       inkscape:connector-curvature="0" />
    <path
       style="fill:#000000;fill-rule:evenodd;stroke:none;stroke-width:0.26458332px;stroke-linecap:butt;stroke-linejoin:miter;stroke-opacity:1;fill-opacity:0.35135135"
       d="m 178.40241,264.58333 c 0,0 5.74629,-16.30344 5.74629,-24.32153 0,-8.01808 1.60362,-34.47777 2.13816,-34.07686 0.53454,0.4009 -1.60362,29.39965 -0.66818,29.66692 0.93545,0.26726 7.75082,-10.15625 8.01809,-18.30797 0.26727,-8.15172 -0.4009,-11.49259 0.40091,-11.49259 0.8018,0 2.00452,11.09169 0.53453,16.30345 -1.46998,5.21175 -5.74629,12.82893 -7.88445,21.24792 -2.13815,8.41899 -2.53906,20.98066 -2.53906,20.98066 z"
       id="path5112"
       inkscape:connector-curvature="0" />
    <path
       style="fill:#000000;fill-rule:evenodd;stroke:none;stroke-width:0.26458332px;stroke-linecap:butt;stroke-linejoin:miter;stroke-opacity:1;fill-opacity:0.35135135"
       d="m 203.79301,264.58333 c 0,0 3.34087,-27.92967 3.34087,-34.74504 0,-6.81537 0,-31.1369 0.66817,-31.1369 0.66818,0 0.40091,29.66692 0.13364,37.2841 -0.26727,7.61718 -3.0736,24.9897 -2.13816,25.25697 0.93545,0.26727 6.01357,-15.90253 6.54811,-23.51972 0.53454,-7.61718 3.74177,-26.32605 4.54358,-25.92514 0.80181,0.4009 -6.1472,36.61592 -5.34539,38.08591 0.80181,1.46998 7.48354,-23.38609 7.48354,-27.6624 0,-4.27631 0.13364,-10.28988 0.66818,-8.95353 0.53454,1.33635 -1.60362,22.45064 -4.40995,34.87867 -2.80633,12.42804 -0.4009,16.43708 -0.4009,16.43708 z"
       id="path5114"
       inkscape:connector-curvature="0" />
  </g>
  <g
     inkscape:groupmode="layer"
     id="layer3"
     inkscape:label="Hair"
     style="display:inline">
    <path
       style="fill:#2b190c;fill-opacity:1;fill-rule:evenodd;stroke:none;stroke-width:0.99999994px;stroke-linecap:butt;stroke-linejoin:miter;stroke-opacity:1"
       d="m 637.85742,308.57227 -24.89844,4.52734 c 1.21887,10.08756 7.59909,55.43396 9.00586,64.57812 1.42859,9.28572 8.92718,24.10714 9.46289,51.25 0.53575,27.14287 -9.28404,56.07199 -10.35546,63.21485 -1.07146,7.14285 -8.92967,46.60741 -18.92969,65.35742 -5.92482,11.10903 -15.47932,23.44385 -24.21875,32.38086 -1.26898,9.68182 -4.04767,31.92916 -2.92383,33.33398 0.94262,1.17826 26.26523,8.59754 45.98047,14.52344 l 42.5918,-7.02344 14.28515,-174.28711 -40,-147.85546 z"
       transform="scale(0.26458333)"
       id="path5048"
       inkscape:connector-curvature="0" />
    <path
       style="fill:#432512;fill-opacity:1;fill-rule:evenodd;stroke:none;stroke-width:0.26458332px;stroke-linecap:butt;stroke-linejoin:miter;stroke-opacity:1"
       d="m 151.60864,63.596647 c 0,0 -0.20045,-12.027128 3.27405,-10.557146 3.4745,1.469983 11.44259,12.491178 14.29892,17.105249 1.73725,2.806331 5.7463,12.02713 5.7463,12.02713 -11.11509,-10.289318 4.39045,13.235121 8.55261,17.50615 4.09404,5.25368 6.76674,12.3134 6.76674,12.3134 0,0 -5.96492,7.73182 0.18228,18.4226 6.1472,10.69078 -0.80181,20.71339 0,25.52424 0.80181,4.81085 -1.87089,18.70887 4.67721,18.57523 6.54811,-0.13363 17.90706,-1.73725 16.43708,4.81085 -1.46998,6.54811 -15.10073,9.35444 -15.10073,9.35444 0,0 15.90254,-5.87993 13.76438,-10.28988 -2.13815,-4.40995 -16.1698,4.00904 -22.18337,0.80181 -6.01356,-3.20724 -24.45516,-21.78247 -20.31248,-40.09043 4.14267,-18.30796 3.8754,-53.320271 0.53454,-54.389349 -3.34087,-1.069078 -4.81086,7.015824 -5.07813,5.278572 -0.26727,-1.737251 -5.54584,-23.586536 -11.5594,-26.392866 z"
       id="path5035"
       inkscape:connector-curvature="0"
       sodipodi:nodetypes="csscccsssscsssssc" />
    <path
       style="fill:#2b190c;fill-opacity:1;fill-rule:evenodd;stroke:none;stroke-width:0.99999994px;stroke-linecap:butt;stroke-linejoin:miter;stroke-opacity:1"
       d="m 377.85742,283.57227 -100.71484,117.14257 73.57226,130 14.54883,-35.46289 c -3.02923,0.09 -6.97641,0.21849 -11.51367,-0.42968 -7.5,-1.07142 -19.28487,-10.17885 -30.17773,-24.10743 C 312.67941,456.78626 310,438.57173 311.25,431.60742 c 1.25,-6.96427 39.64369,-11.07143 44.82227,-20 5.17856,-8.92856 -2.32143,-23.21371 1.25,-36.78515 3.57143,-13.57143 14.64229,-21.25056 24.28515,-35.71485 9.33324,-13.99985 7.97899,-30.17257 13.0625,-45.60742 -3.94053,-6.29959 -9.38852,-10.04748 -16.8125,-9.92773 z"
       transform="scale(0.26458333)"
       id="path5037"
       inkscape:connector-curvature="0" />
    <path
       style="fill:#552f17;fill-opacity:1;fill-rule:evenodd;stroke:none;stroke-width:0.26458332px;stroke-linecap:butt;stroke-linejoin:miter;stroke-opacity:1"
       d="m 153.74679,64.999812 c 0,0 5.94675,-23.519718 -18.10751,-25.123334 -24.05425,-1.603618 -34.34413,7.14946 -43.832198,15.902535 -9.48807,8.753078 -22.250188,22.049737 -24.722431,27.32831 -2.472243,5.278572 -16.385319,59.335797 -20.060276,66.618897 -3.674954,7.28309 -4.862609,23.98547 -5.196695,29.13041 -0.334087,5.14494 0.734991,19.77795 -1.269529,25.05652 -2.004523,5.27857 -1.536801,29.13238 -10.891234,37.88545 -9.354433,8.75308 -15.56845,7.81764 -17.238884,5.87993 -1.670435,-1.9377 -2.4722433,-2.73951 -2.4722433,-2.73951 0,0 4.2763123,9.88897 12.8957543,6.61492 8.619442,-3.27405 8.352173,-5.47902 8.352173,-5.47902 0,0 -0.334087,4.74403 -6.147199,6.48128 -5.813112,1.73725 -7.951268,1.33635 -7.951268,1.33635 0,0 11.693042,3.20723 16.102987,-3.87541 4.409948,-7.08264 3.006784,-21.9161 8.084905,-30.53554 5.078121,-8.61944 19.577492,-18.17433 31.270535,-25.19016 11.693041,-7.01582 19.777942,-22.11655 22.65109,-28.4642 2.873147,-6.34765 5.813113,-15.03391 5.679483,-19.57749 -0.13364,-4.54358 -2.939969,-15.43481 -2.939969,-15.43481 0,0 -6.013564,0.26727 -9.087163,-2.60589 -3.118613,-2.91523 -5.813114,-7.41672 -6.481288,-11.89349 -0.668173,-4.47676 10.289879,-40.959053 28.53102,-49.043957 18.24115,-8.084902 38.01909,-6.34765 42.82994,-2.271791 z"
       id="path5029"
       inkscape:connector-curvature="0"
       sodipodi:nodetypes="csssssssscscscssssscsssc" />
    <path
       style="fill:#64371b;fill-opacity:1;fill-rule:evenodd;stroke:none;stroke-width:0.26458332px;stroke-linecap:butt;stroke-linejoin:miter;stroke-opacity:1"
       d="m 132.76614,68.407499 c 2.13815,-0.601356 9.02034,-3.207234 8.75307,-5.813113 C 141.25194,59.98851 138.17835,49.364545 118.86812,56.1131 99.557897,62.861658 98.75609,75.423325 92.141168,78.897828 85.526247,82.372331 64.746041,103.35299 56.794775,105.95887 c -7.951269,2.60587 -28.196937,3.4745 -33.876413,9.42125 -5.679478,5.94675 -8.352173,19.17659 -8.352173,19.17659 0,0 2.672695,-12.56167 9.554886,-16.77117 6.882191,-4.20949 27.662396,-8.4858 28.531021,-5.81311 0.868627,2.6727 -21.715648,27.52876 -27.194674,37.35092 -5.479025,9.82215 -6.61492,18.57523 -8.886711,22.45064 -2.271791,3.87541 -10.2898771,13.43029 -10.2898771,13.43029 0,0 14.5661891,-14.36574 16.3702581,-18.97614 1.804069,-4.61039 10.757599,-28.39738 12.895755,-24.9897 2.138156,3.40769 -9.621703,21.18111 -11.091686,31.07009 -1.469982,9.88897 2.338608,19.91158 2.338608,19.91158 0,0 -3.340868,-10.62397 0.200454,-20.04522 3.541321,-9.42125 11.425772,-21.78247 12.361214,-19.91158 0.935445,1.87089 0.601358,8.15172 -3.274052,14.63301 -3.875408,6.48128 -7.683998,7.01582 -7.683998,7.01582 0,0 3.207235,-0.0668 7.349911,-2.87314 4.142679,-2.80633 5.746295,-7.01583 6.347653,-6.41447 0.601356,0.60135 -2.873147,5.67948 -1.737254,15.368 1.135896,9.68852 3.274052,14.16528 3.274052,14.16528 0,0 -3.140416,-7.41673 4.34313,-10.08942 7.483546,-2.6727 3.808592,5.81311 3.808592,5.81311 0,0 1.937703,-7.48355 9.621703,-12.89576 7.683997,-5.41221 13.096205,-7.34991 17.038431,-23.31926 3.942225,-15.96936 4.610399,-12.76212 4.810852,-11.96031 0.200451,0.8018 0.06682,12.36121 -3.407687,19.71112 -3.474503,7.34991 -8.218538,12.36122 -8.218538,12.36122 0,0 12.428035,-11.49259 13.296659,-21.84929 0.868627,-10.35669 2.739514,-28.39738 -2.939965,-27.72921 -5.679477,0.66818 -7.082642,19.71113 -8.418989,19.71113 -1.336347,0 4.543581,-17.57297 3.34087,-19.51068 -1.202714,-1.9377 -15.234364,19.77795 -20.71339,25.45743 -5.479024,5.67947 -8.953529,8.15172 -8.953529,8.15172 0,0 11.02487,-9.2208 19.510676,-22.98518 8.485807,-13.76438 8.485807,-24.32153 16.102989,-32.13916 7.617182,-7.817635 25.323787,-25.457424 28.130117,-30.535546 2.80633,-5.078121 18.10751,-12.093945 21.78247,-3.942225 z"
       id="path5031"
       inkscape:connector-curvature="0" />
  </g>
</svg>
