<?xml version="1.0" encoding="UTF-8" standalone="no"?>
<!-- Created with Inkscape (http://www.inkscape.org/) -->

<svg
   xmlns:dc="http://purl.org/dc/elements/1.1/"
   xmlns:cc="http://creativecommons.org/ns#"
   xmlns:rdf="http://www.w3.org/1999/02/22-rdf-syntax-ns#"
   xmlns:svg="http://www.w3.org/2000/svg"
   xmlns="http://www.w3.org/2000/svg"
   xmlns:sodipodi="http://sodipodi.sourceforge.net/DTD/sodipodi-0.dtd"
   xmlns:inkscape="http://www.inkscape.org/namespaces/inkscape"
   width="1280"
   height="720"
   viewBox="0 0 338.66666 190.50001"
   id="svg2"
   version="1.1"
   inkscape:version="0.92.2 5c3e80d, 2017-08-06"
   sodipodi:docname="o-holy-night-facebook-thumbnail.svg"
   inkscape:export-filename="C:\Users\Anthony Garone\Documents\GitHub\art\anthony-garone\three-legged-dog\three-legged-dog-facebook-video-thumbnail.png"
   inkscape:export-xdpi="96"
   inkscape:export-ydpi="96">
  <defs
     id="defs4">
    <linearGradient
       id="linearGradient5609">
      <stop
         id="stop5611"
         offset="0"
         style="stop-color:#e8cb8e;stop-opacity:1;" />
      <stop
         id="stop5613"
         offset="1"
         style="stop-color:#d0b16e;stop-opacity:1;" />
    </linearGradient>
  </defs>
  <sodipodi:namedview
     id="base"
     pagecolor="#ffffff"
     bordercolor="#666666"
     borderopacity="1.0"
     inkscape:pageopacity="0.0"
     inkscape:pageshadow="2"
     inkscape:zoom="0.98994949"
     inkscape:cx="445.65049"
     inkscape:cy="357.96949"
     inkscape:document-units="px"
     inkscape:current-layer="g4209"
     showgrid="false"
     units="px"
     inkscape:window-width="3200"
     inkscape:window-height="1677"
     inkscape:window-x="0"
     inkscape:window-y="1"
     inkscape:window-maximized="1"
     showguides="true"
     inkscape:guide-bbox="true">
    <sodipodi:guide
       position="-9.8889724,152.4"
       orientation="0,1"
       id="guide4205"
       inkscape:label=""
       inkscape:color="rgb(0,0,255)"
       inkscape:locked="false" />
    <sodipodi:guide
       position="-3.7417733,114.3"
       orientation="0,1"
       id="guide4207"
       inkscape:label=""
       inkscape:color="rgb(0,0,255)"
       inkscape:locked="false" />
    <sodipodi:guide
       position="-12.561668,76.200001"
       orientation="0,1"
       id="guide4209"
       inkscape:label=""
       inkscape:color="rgb(0,0,255)"
       inkscape:locked="false" />
    <sodipodi:guide
       position="0,38.100001"
       orientation="0,1"
       id="guide4211"
       inkscape:label=""
       inkscape:color="rgb(0,0,255)"
       inkscape:locked="false" />
    <sodipodi:guide
       position="67.733334,0"
       orientation="1,0"
       id="guide4213"
       inkscape:label=""
       inkscape:color="rgb(0,0,255)"
       inkscape:locked="false" />
    <sodipodi:guide
       position="135.46667,0"
       orientation="1,0"
       id="guide4215"
       inkscape:label=""
       inkscape:color="rgb(0,0,255)"
       inkscape:locked="false" />
    <sodipodi:guide
       position="203.2,0"
       orientation="1,0"
       id="guide4217"
       inkscape:label=""
       inkscape:color="rgb(0,0,255)"
       inkscape:locked="false" />
    <sodipodi:guide
       position="270.93334,0"
       orientation="1,0"
       id="guide4219"
       inkscape:label=""
       inkscape:color="rgb(0,0,255)"
       inkscape:locked="false" />
  </sodipodi:namedview>
  <metadata
     id="metadata7">
    <rdf:RDF>
      <cc:Work
         rdf:about="">
        <dc:format>image/svg+xml</dc:format>
        <dc:type
           rdf:resource="http://purl.org/dc/dcmitype/StillImage" />
        <dc:title />
      </cc:Work>
    </rdf:RDF>
  </metadata>
  <g
     inkscape:label="Gray BG"
     inkscape:groupmode="layer"
     id="layer1"
     transform="translate(0,-106.49999)"
     style="display:inline">
    <rect
       style="opacity:1;fill:#f9a234;fill-opacity:1;stroke:none;stroke-width:16.0535984;stroke-miterlimit:4;stroke-dasharray:none;stroke-opacity:1"
       id="rect4141"
       width="338.66669"
       height="190.5"
       x="1.4210855e-14"
       y="106.49999" />
  </g>
  <g
     inkscape:groupmode="layer"
     id="layer2"
     inkscape:label="Orange Banner"
     style="display:none">
    <rect
       style="opacity:1;fill:#de3d2d;fill-opacity:1;stroke:none;stroke-width:11.03082752;stroke-miterlimit:4;stroke-dasharray:none;stroke-opacity:1"
       id="rect4144"
       width="338.66669"
       height="43.65625"
       x="0"
       y="146.84375" />
  </g>
  <g
     inkscape:label="Blue Banner"
     id="g4203"
     inkscape:groupmode="layer"
     style="display:inline">
    <rect
       y="146.84375"
       x="0"
       height="43.65625"
       width="338.66669"
       id="rect4205"
       style="opacity:1;fill:#000000;fill-opacity:0.2119403;stroke:none;stroke-width:11.03082752;stroke-miterlimit:4;stroke-dasharray:none;stroke-opacity:1" />
  </g>
  <g
     inkscape:groupmode="layer"
     id="layer20"
     inkscape:label="MWM"
     style="display:inline;opacity:0.461">
    <g
       id="g5055"
       transform="matrix(0.26458334,0,0,0.26458334,-11.628575,-87.177825)"
       style="opacity:1">
      <g
         id="XMLID_2_"
         style="fill:#000000;fill-opacity:0.50447795"
         transform="matrix(1.1513012,0,0,1.1513012,-28.515719,44.746426)">
        <polygon
           points="637.1,357.5 636.9,347.7 635.4,354.7 634.1,353.7 633.4,359.5 631.9,358.4 632.1,368.2 633.6,361.2 634.9,362.2 635.6,356.4 "
           id="XMLID_80_"
           style="fill:#000000;fill-opacity:0.50447795" />
        <polygon
           points="627.4,371.4 624.5,360.3 627,360.8 623.8,352 626.7,352.5 619.3,338.7 622.3,349.8 619.7,349.3 623,358.1 620.1,357.5 "
           id="XMLID_79_"
           style="fill:#000000;fill-opacity:0.50447795" />
        <polygon
           points="621.5,374 616.4,366.2 618.5,365.9 613.7,360 616.1,359.7 606.9,350.9 612,358.7 609.9,358.9 614.7,364.9 612.3,365.2 "
           id="XMLID_78_"
           style="fill:#000000;fill-opacity:0.50447795" />
        <polygon
           points="131.8,300.5 129.7,304.6 134.3,321.7 134.7,304.1 "
           id="XMLID_77_"
           style="fill:#000000;fill-opacity:0.50447795" />
        <polygon
           points="139.6,306.2 137.2,309 137.4,323.2 141.2,309.5 "
           id="XMLID_76_"
           style="fill:#000000;fill-opacity:0.50447795" />
        <polygon
           points="126.7,310.1 123.3,308.7 123.4,312.4 133,322.8 "
           id="XMLID_75_"
           style="fill:#000000;fill-opacity:0.50447795" />
        <polygon
           points="282.7,410.6 289.5,418.3 287.2,418.9 293.3,424.7 290.8,425.4 302.1,433.6 295.4,425.9 297.6,425.3 291.5,419.5 294.1,418.8 "
           id="XMLID_74_"
           style="fill:#000000;fill-opacity:0.50447795" />
        <polygon
           points="285.3,407.8 295.9,413 293.8,414.6 302.9,418 300.5,420 316.2,423.6 305.6,418.4 307.7,416.7 298.7,413.3 301.1,411.4 "
           id="XMLID_73_"
           style="fill:#000000;fill-opacity:0.50447795" />
        <polygon
           points="497.7,292.9 495.1,282.9 497.4,283.3 494.5,275.5 497.1,275.9 490.5,263.5 493.2,273.4 490.9,273 493.8,280.9 491.1,280.4 "
           id="XMLID_72_"
           style="fill:#000000;fill-opacity:0.50447795" />
        <polygon
           points="516.1,258.4 511.2,271.3 509,269 506,279.9 503.5,277.3 500.9,296 505.8,283.2 508,285.4 511,274.6 513.5,277.2 "
           id="XMLID_71_"
           style="fill:#000000;fill-opacity:0.50447795" />
        <polygon
           points="503.5,298.8 511.8,291.5 512.5,293.9 518.6,287.3 519.4,290 528.2,277.7 519.9,285.1 519.2,282.6 513.1,289.2 512.3,286.5 "
           id="XMLID_70_"
           style="fill:#000000;fill-opacity:0.50447795" />
        <path
           d="m 540.4,425.1 c 0.1,0.1 0.3,0.2 0.5,0.3 h 0.3 c 0,0 0,0 0.1,0 0.1,0 0.3,-0.1 0.4,-0.1 l 2.9,0.3 c 0,0.5 0.1,0.9 0.3,1.3 0.3,0.5 0.8,0.8 1.3,0.8 0,0 0.1,0 0.1,0 0.5,0 0.9,-0.2 1.3,-0.6 0.3,-0.4 0.6,-0.9 0.6,-1.4 0,-0.4 2.9,-44.1 4.3,-58.5 v 0 c 1.3,-14.2 6.7,-56.7 6.7,-57.2 0,-0.1 0,-0.3 0,-0.4 l 0.3,-1.9 c 0.1,-0.9 -0.7,-1.7 -1.4,-2.1 l -5.3,-2.6 c -0.2,-0.1 -0.5,-0.1 -0.7,0 -0.2,0.1 -0.3,0.3 -0.4,0.6 l -0.3,4 -11.1,116.8 v 0 0 0.2 c -0.1,0.2 0,0.3 0.1,0.5 z m 8.4,-58.3 c -1,10.5 -2.8,36.6 -3.7,50.1 -0.8,-0.4 -1.5,-0.9 -2.2,-1.6 l 9.8,-103.3 2.4,1.2 c -1.4,10.5 -5.2,41.8 -6.3,53.6 z"
           id="XMLID_67_"
           inkscape:connector-curvature="0"
           style="fill:#000000;fill-opacity:0.50447795" />
        <path
           d="m 742.4,336.8 -6,-5.6 0.1,-0.7 c 0,-0.3 -0.1,-0.6 -0.4,-0.7 l -6.2,-3.2 c 0,0 -0.1,0 -0.1,-0.1 l -8.3,-2.1 c -0.2,0 -0.3,0 -0.5,0 l -3,-1.4 c -0.1,-0.1 -0.3,-0.1 -0.4,-0.1 -1.6,-1 -4.1,-3.6 -5.7,-5.9 l -0.1,-0.1 c 0,-0.1 -0.1,-0.1 -0.1,-0.2 0.2,0 0.5,-0.1 0.7,-0.2 0.5,-0.4 0.6,-1.2 0.2,-1.7 l -0.9,-1.3 c -0.1,-0.2 -0.3,-0.3 -0.4,-0.3 -0.4,-0.4 -0.8,-0.9 -1.1,-1.3 0.1,-0.1 0.1,-0.2 0.1,-0.2 0.1,-0.3 0.1,-0.8 -0.6,-1.3 -0.7,-0.5 -1.2,-0.4 -1.5,-0.2 -1.5,-1.3 -3.2,-2.3 -5.1,-3.2 -2,-1 -6.6,-1.6 -10.5,0 -1.9,0.8 -3.5,2.3 -4.7,4 h -3.5 c -0.2,0 -0.4,0.1 -0.5,0.2 -0.1,0.1 -0.2,0.3 -0.2,0.5 l 0.2,6.5 c -0.2,0 -0.3,0.1 -0.5,0.1 L 683,318 c -0.5,-0.2 -1.1,0 -1.4,0.7 l -0.6,1.4 c -0.2,0.3 -0.2,0.7 -0.1,1 0.1,0.2 0.2,0.4 0.4,0.5 l 1.2,0.6 c -0.4,0.8 -0.7,1.6 -1.1,2.3 -1,0.1 -1.9,0.8 -2.5,2 -0.6,1.2 -0.5,2.4 0.1,3.2 l -0.4,0.8 c -0.3,0 -0.5,0.1 -0.7,0.4 l -6.5,14.7 -1.4,3 c -0.2,-0.2 -0.3,-0.4 -0.6,-0.5 0,0 -0.1,0 -0.1,-0.1 0,0 -0.1,0 -0.1,-0.1 -0.4,-0.2 -0.9,-0.2 -1.3,0 -0.7,0.2 -1.3,0.9 -1.7,1.7 -0.4,0.8 -0.5,1.7 -0.2,2.4 0,0.1 0.1,0.1 0.1,0.2 -0.9,0 -1.9,0.6 -2.4,1.8 -0.1,0.3 -0.2,0.6 -0.3,0.9 -0.4,0.4 -0.7,0.9 -0.9,1.4 -0.3,0.7 -0.5,1.4 -0.5,2.1 0,0 0,0.1 -0.1,0.1 -0.5,1 -0.5,2.1 0,2.8 -0.8,0.2 -1.5,0.8 -2,1.7 -0.1,0.2 -0.2,0.4 -0.2,0.7 0,0 0,0 0,0 0,0 -0.1,0 -0.1,0 -0.8,-0.4 -1.9,0.2 -2.4,1.3 -0.2,0.5 -0.3,1 -0.2,1.5 -0.2,0 -0.5,0.1 -0.7,0.3 -0.4,0.2 -0.7,0.6 -1,1.1 -0.5,1.1 -0.3,2.3 0.6,2.7 0,0 0.1,0 0.1,0 0,0 0.1,0 0.1,0 0.4,0.2 0.9,0.2 1.4,-0.1 0.1,0.7 0.5,1.2 1,1.4 0,0 0.1,0 0.1,0 0,0 0.1,0 0.1,0.1 0.1,0 0.1,0.1 0.2,0.1 l -0.2,0.3 c 0,0 -0.1,0 -0.1,0 -0.1,0 -0.2,-0.1 -0.2,-0.1 -0.1,0 -0.1,-0.1 -0.2,-0.1 -1,-0.5 -2.2,-0.2 -3.2,0.8 l -0.1,-0.1 c 0.1,-0.4 -0.1,-0.8 -0.5,-1 0,0 -0.1,0 -0.1,0 -0.2,-0.1 -0.4,-0.1 -0.7,0 -0.2,0.1 -0.4,0.3 -0.5,0.5 l -17.5,35.6 -0.7,0.1 c 1.5,-3.9 3.8,-10.3 4.9,-15.6 0.9,-4.7 0.8,-11.5 -0.3,-19.1 0,-0.2 0,-0.3 0,-0.3 0,-0.2 0.4,-1.2 0.8,-2.1 l 2.4,-1 c 0.3,-0.1 0.5,-0.5 0.4,-0.9 l -0.2,-0.6 c -0.1,-0.2 -0.2,-0.3 -0.4,-0.4 -0.2,-0.1 -0.4,-0.1 -0.6,0 l -28.1,10.5 c 1.5,-0.9 2.2,-2.1 1.7,-3 -0.5,-1 -2.1,-1 -3.8,-0.2 -0.1,-0.2 -0.1,-0.3 -0.2,-0.5 -0.3,-0.6 -0.8,-0.9 -1.5,-0.9 0,0 0,0 0,0 l -1.5,-2.9 c 0,-0.2 0,-0.5 -0.1,-0.7 -0.1,-0.2 -0.3,-0.4 -0.5,-0.5 l -4.8,-9.2 c 0.3,-0.2 0.5,-0.5 0.6,-0.8 0.1,-0.4 0.1,-0.8 -0.1,-1.2 l -2.6,-5.1 c -0.4,-0.7 -1.2,-1 -1.9,-0.8 l -15.3,-29.5 c -0.9,-1.8 -3,-5.2 -5,-8.4 -0.5,-0.8 -0.9,-1.5 -1.4,-2.2 l 2,-15.3 c 0,-0.2 0,-0.4 -0.1,-0.5 -0.1,-0.1 -0.3,-0.2 -0.5,-0.3 l -16.3,-1.9 c -0.2,0 -0.4,0 -0.5,0.2 -0.1,0.1 -0.2,0.3 -0.3,0.5 l -12.6,138.1 c -2.9,1.3 -4.9,0.5 -5,0.4 -0.2,-0.1 -0.5,-0.1 -0.7,0.1 -0.2,0.1 -0.3,0.4 -0.3,0.6 0,0.1 0.4,3.6 0.5,7.8 l -3.2,-0.4 c -0.5,-1.6 -1.8,-2.8 -3.6,-3 -1.1,-0.1 -2.3,0.2 -3.1,0.9 -0.9,0.7 -1.5,1.7 -1.6,2.9 0,0 0,0 0,0 -0.3,2.3 1.4,4.5 3.7,4.7 0.2,0 0.3,0 0.5,0 1.4,0 2.7,-0.7 3.5,-1.8 l 3.7,0.4 c 0,1 -0.1,1.9 -0.2,2.9 -0.1,1 -0.3,2.1 -0.6,3.2 l -3.6,-0.4 c -0.2,-0.5 -0.4,-1 -0.8,-1.5 -0.7,-0.9 -1.7,-1.5 -2.8,-1.6 -1.1,-0.1 -2.3,0.2 -3.1,0.9 -0.9,0.7 -1.5,1.7 -1.6,2.9 -0.3,2.3 1.4,4.5 3.7,4.7 0.2,0 0.3,0 0.5,0 1,0 1.9,-0.3 2.6,-0.9 0.3,-0.2 0.6,-0.5 0.8,-0.8 l 3.4,0.4 c -1,3.6 -2,6.8 -2,6.9 -0.1,0.3 0,0.5 0.2,0.7 0.2,0.2 0.5,0.2 0.7,0.1 0,0 1.8,-0.7 3.3,-0.5 0.7,0.1 1.3,0.6 2,1.2 1.2,0.9 2.6,2.1 5.2,2.5 0.5,0.1 0.9,0.1 1.3,0.1 2.1,0 3.6,-0.7 4.7,-1.3 0.9,-0.4 1.5,-0.8 2.2,-0.6 1.8,0.3 3.1,1.2 3.1,1.2 0.2,0.2 0.5,0.2 0.8,0 0.2,-0.1 0.4,-0.4 0.3,-0.7 0,0 -0.3,-3.2 -0.4,-7.2 l 3,0.4 c 0.6,1.4 1.9,2.4 3.4,2.6 0.2,0 0.3,0 0.5,0 1,0 1.9,-0.3 2.6,-0.9 0.9,-0.7 1.5,-1.7 1.6,-2.9 0.1,-1.1 -0.2,-2.3 -0.9,-3.1 -0.7,-0.9 -1.7,-1.5 -2.9,-1.6 -1.1,-0.1 -2.2,0.2 -3.1,0.9 -0.4,0.4 -0.8,0.8 -1.1,1.3 l -3.1,-0.4 c 0.1,-0.9 0.1,-1.9 0.2,-2.8 0.1,-1 0.3,-2.1 0.5,-3.2 l 3.1,0.4 c 0.6,1.4 1.9,2.5 3.5,2.7 0.2,0 0.3,0 0.5,0 1,0 1.9,-0.3 2.6,-0.9 0.9,-0.7 1.5,-1.7 1.6,-2.9 0.3,-2.3 -1.4,-4.5 -3.7,-4.7 -1.7,-0.2 -3.3,0.7 -4.2,2.1 l -2.6,-0.3 c 0.9,-4 2,-7.5 2,-7.5 0.1,-0.2 0,-0.4 -0.1,-0.6 -0.1,-0.2 -0.3,-0.3 -0.6,-0.3 -0.1,0 -2.1,0 -4.7,-1.9 l 14.3,-106.7 15.8,30.5 c 0,0 0,0 0,0.1 l 1.5,2.9 -0.4,0.2 c -0.2,0.1 -0.3,0.2 -0.3,0.4 -0.1,0.2 0,0.4 0,0.5 l 3.1,5.9 c 0,0 0,0 0,0 0,0 0,0 0,0 l 2.9,5.6 0.2,5.9 c -0.1,0 -0.1,0.1 -0.2,0.1 -0.4,0.2 -0.6,0.5 -0.7,0.9 -0.1,0.4 -0.1,0.8 0.1,1.1 0.2,0.3 0.5,0.6 0.8,0.7 -0.1,0.4 -0.1,0.7 0.1,1.1 0.4,0.7 1.3,1 2,0.6 0,0 0,0 0,0 l 0.1,0.2 c 0,0.3 0,0.5 0.2,0.8 0.1,0.3 0.3,0.5 0.6,0.6 l 0.2,0.4 c 0,0.3 0,0.6 0.1,0.8 0.2,0.3 0.5,0.6 0.8,0.7 0.4,0.1 0.8,0.1 1.2,-0.1 0.4,-0.2 0.6,-0.5 0.7,-0.9 0.1,-0.2 0.1,-0.4 0.1,-0.6 l 0.5,0.9 c 0,0 0,0.1 0,0.1 0,0 0,0 0,0 l 2,3.8 c 0,0 0,0 0,0 l 6,11.5 c 0,0 0,0 0,0 0,0 0,0.1 0,0.1 l 0.8,1.5 c 0.1,0.2 0.2,0.3 0.4,0.3 0,0 0.1,0 0.1,0 l -1.2,0.6 c -0.5,0.3 -0.9,0.7 -1.1,1.3 -0.2,0.5 -0.1,1.1 0.1,1.6 0.3,0.5 0.7,0.9 1.2,1.1 0.1,0 0.2,0 0.2,0.1 -0.3,0.6 -0.3,1.3 0,1.9 0.2,0.5 0.7,0.8 1.1,1 -1.5,3.6 -3.1,7.3 -3.8,9.1 -0.2,0.5 -0.3,1.2 -0.3,2 -0.2,0.6 -0.4,1 -0.5,1.2 -0.4,0.9 -1.6,3.8 -2.4,5.6 0,0 -0.1,0.1 -0.1,0.1 -0.2,0.2 -0.2,0.4 -0.2,0.6 -1,2.5 -2.1,5.1 -2.5,6.3 -1.1,3.1 -2.6,13.1 4.9,19.1 0.5,0.7 1.2,1.3 2,1.6 0.4,0.2 0.8,0.3 1.2,0.4 0.1,0 0.1,0.1 0.2,0.1 2.8,1.3 5.5,1.9 8,1.9 7.1,0 12.4,-4.6 14.1,-8.2 0.4,-0.8 0.9,-2.1 1.6,-3.5 1.9,6.2 2.1,11.3 2.1,13 -0.2,0.2 -0.5,0.5 -0.6,0.9 -0.1,0.4 -0.1,0.9 0.1,1.3 0.1,0.3 0.5,0.7 1.3,0.9 0.3,0.1 0.8,0.2 1.5,0.2 1.7,0 4.5,-0.6 8.9,-2.9 9.6,-5 8.4,-8.2 8.2,-8.5 -0.5,-0.9 -1.4,-1 -2.1,-0.8 -2,-1.4 -8.9,-6.8 -14.1,-16.2 1.2,-2.9 2.3,-5.3 2.8,-6.4 0.1,-0.1 0.1,-0.3 0.2,-0.5 0.5,-0.2 1.2,-0.9 3.2,-5.3 0.7,-0.4 1.4,-0.4 1.9,-0.2 1.3,0.5 1.8,2.5 1.8,2.5 0.1,0.3 0.4,0.6 0.7,0.5 0.3,0 0.6,-0.3 0.6,-0.7 0.1,-1.8 -0.4,-3.1 -1.4,-4 -0.2,-0.2 -0.5,-0.4 -0.8,-0.5 0.4,-0.2 0.7,-0.5 0.9,-0.9 l 2.6,-5.6 c 0.2,-0.4 0.2,-0.9 0.1,-1.3 -0.2,-0.4 -0.5,-0.8 -0.9,-1 l -1.6,-0.7 c 1.5,-3.6 2.8,-6.7 3.6,-8.4 1.2,-2.7 3.1,-7.4 4.9,-11.5 0.2,0.2 0.5,0.4 0.8,0.6 0.6,0.3 1.2,0.3 1.8,0.1 0.6,-0.2 1,-0.6 1.3,-1.2 0.5,-1.1 0,-2.5 -1.1,-3.1 -0.3,-0.1 -0.5,-0.2 -0.8,-0.2 0.1,-0.3 0.2,-0.5 0.3,-0.7 l 1.1,0.4 c 0.3,0.1 0.7,0 0.9,-0.4 l 0.3,-0.7 c 0.1,-0.2 0.1,-0.4 0,-0.5 -0.1,-0.2 -0.2,-0.3 -0.4,-0.4 l -0.8,-0.4 c 0.3,-0.5 0.7,-1.1 1.1,-1.9 0.9,-0.3 1.8,-1.2 2.3,-2.4 0.5,-1.1 0.6,-2.2 0.3,-3 0.1,0 0.1,0 0.2,-0.1 0.2,-0.1 0.3,-0.2 0.4,-0.4 l 1.8,-5.2 0.6,0.2 c 0.3,0.1 0.7,0 0.9,-0.4 L 672,372 c 0.1,-0.2 0.1,-0.4 0,-0.5 -0.1,-0.2 -0.2,-0.3 -0.4,-0.4 l -0.7,-0.3 1,-3 c 1.1,-0.2 2.2,-1.3 2.9,-2.8 0.5,-1.2 0.6,-2.3 0.4,-3.3 0.4,-0.2 0.8,-0.7 1.2,-1.2 0.2,0 0.5,0 0.6,-0.2 1.2,-1.1 1.9,-2.7 2,-4.3 0,-0.9 -0.2,-1.8 -0.6,-2.4 0.6,-1 0.6,-1.8 0.5,-2.3 0,-0.1 -0.1,-0.3 -0.1,-0.4 0.4,-1.1 1.6,-4.1 2.9,-7.4 l 0.7,0.3 c 0.1,0 0.1,0 0.2,0 0.1,0 0.1,0.1 0.2,0.1 l 0.4,0.2 c 0.4,0.1 0.8,0 0.9,-0.4 l 0.2,-0.5 1.7,65.1 c -0.4,1.8 -1,4.1 -2,5.5 -2.6,3.6 -5.6,4.7 -5.7,4.7 -0.2,0.1 -0.3,0.2 -0.4,0.4 -0.1,0.2 -0.1,0.4 0,0.5 0,0.1 2.9,8.6 3.6,25.2 0.2,4.5 -0.5,10.6 -1.1,16.1 -1.1,10 -1.5,15.2 0.8,15.8 0.1,0 0.2,0 0.3,0 0.9,0 1.6,-0.9 2.6,-2 1.2,-1.4 2.6,-3.1 4.4,-3.5 0.8,-0.2 3.1,0.2 4.3,0.4 0.4,0.1 0.7,-0.1 0.8,-0.5 l 1.3,-4.4 h 1.2 c 0.2,0.4 0.4,0.7 0.7,1 0.6,0.6 1.5,1 2.4,1 0,0 0,0 0,0 1.9,0 3.4,-1.5 3.3,-3.4 0,-1.8 -1.5,-3.3 -3.4,-3.3 0,0 0,0 0,0 -0.9,0 -1.7,0.4 -2.4,1 -0.3,0.3 -0.5,0.6 -0.6,0.9 h -0.3 l 1.4,-4.6 h 1.3 c 0.2,0.4 0.4,0.7 0.7,1 0.6,0.6 1.5,1 2.4,1 0,0 0,0 0,0 0.9,0 1.7,-0.4 2.4,-1 0.6,-0.6 1,-1.5 1,-2.4 0,-0.9 -0.4,-1.7 -1,-2.4 -0.6,-0.6 -1.5,-1 -2.4,-1 0,0 0,0 0,0 -0.9,0 -1.7,0.4 -2.4,1 -0.3,0.3 -0.5,0.6 -0.6,0.9 h -0.4 l 1.6,-5.2 h 1.4 c 0.2,0.4 0.4,0.7 0.7,1 0.6,0.6 1.5,1 2.4,1 0,0 0,0 0,0 0.9,0 1.7,-0.4 2.4,-1 0.6,-0.6 1,-1.5 1,-2.4 0,-0.9 -0.4,-1.7 -1,-2.4 -0.6,-0.6 -1.5,-1 -2.4,-1 0,0 0,0 0,0 -0.9,0 -1.7,0.4 -2.4,1 -0.3,0.3 -0.5,0.6 -0.6,0.9 h -0.5 l 1.6,-5.2 h 1.3 c 0.5,1.2 1.7,1.9 3.1,1.9 0,0 0,0 0,0 1.9,0 3.4,-1.5 3.3,-3.4 0,-1.8 -1.5,-3.3 -3.4,-3.3 0,0 0,0 0,0 -1.3,0 -2.4,0.8 -3,1.9 h -0.4 l 1.7,-5.6 h 1.1 c 0.2,0.4 0.4,0.7 0.7,1 0.6,0.6 1.5,1 2.4,1 0,0 0,0 0,0 1.9,0 3.4,-1.5 3.3,-3.4 0,-1.8 -1.5,-3.3 -3.4,-3.3 0,0 0,0 0,0 -0.9,0 -1.7,0.4 -2.4,1 -0.3,0.3 -0.5,0.6 -0.6,0.9 h -0.2 l 1.8,-6 h 1.1 c 0.5,1.2 1.7,2 3.1,2 0,0 0,0 0,0 1.9,0 3.4,-1.5 3.3,-3.4 0,-1.8 -1.5,-3.3 -3.4,-3.3 0,0 0,0 0,0 -1.3,0 -2.4,0.8 -3,1.9 h -0.2 l 2,-6.6 c 0.1,-0.2 0,-0.4 -0.1,-0.5 -0.1,-0.2 -0.2,-0.3 -0.4,-0.3 0,0 -2.6,-0.7 -4.1,-2.2 -1.1,-1 -1.5,-2.5 -1.8,-3.8 l 1,-90.7 c 1.1,1.1 2.2,2.5 3.1,3.6 0.7,0.9 1.3,1.7 1.8,2.1 2,1.8 3.7,3.1 4.9,3.8 0,0.2 0.2,0.4 0.4,0.6 l 3,1.4 c 0,0.2 0.1,0.4 0.3,0.5 l 5.5,3.1 0.1,0.4 c 0,0.2 0.2,0.3 0.3,0.4 l 1.7,1 c 0,0 0.1,0 0.1,0.1 l 13.8,4.4 c 0.2,0.1 0.5,0 0.7,-0.1 l 1.1,-1 c 0.1,-0.1 0.1,-0.1 0.2,-0.2 l 0.1,-0.2 c 0.4,-1.3 0.4,-1.6 0.1,-1.8 z m -43.1,-28.2 c -0.8,0 -1.6,0.1 -2.4,0.2 v 0 c 0.1,-0.2 0.1,-0.4 0.1,-0.6 2.1,-0.2 4.2,0.2 5.3,0.7 -1,-0.2 -2,-0.3 -3,-0.3 z m -5.6,0.3 c 0,0 0,0.1 0,0.1 -0.5,0.3 -1.2,0.8 -1.7,1 -0.5,0.2 -0.9,0.5 -1.2,0.7 0.7,-0.7 1.6,-1.3 2.5,-1.8 0.3,0.1 0.3,0 0.4,0 z M 663.2,391 c -0.1,0.2 -0.3,0.3 -0.5,0.2 -0.2,-0.1 -0.3,-0.3 -0.2,-0.5 v 0 c 0.1,-0.2 0.3,-0.3 0.5,-0.2 0.1,0.1 0.2,0.2 0.2,0.2 0,0.1 0,0.2 0,0.3 z m -27.4,24.3 -1.3,-0.6 1.3,-2.6 c -0.4,1.1 -0.3,2.3 0,3.2 z m 4.1,-8 c -0.8,0.1 -1.6,0.7 -2.4,1.5 -0.1,0 -0.1,-0.1 -0.2,-0.1 l 2.1,-4.3 c -0.1,1.2 0,2.2 0.5,2.9 z m 13.3,-29.1 c 0.2,0.7 0.7,1.2 1.3,1.4 0.1,0 0.2,0.1 0.2,0.1 0.1,0 0.1,0.1 0.2,0.1 0,0 0,0 0,0 l -0.1,0.2 c -0.2,-0.2 -0.4,-0.4 -0.7,-0.5 -0.1,0 -0.2,-0.1 -0.2,-0.1 -0.1,0 -0.1,-0.1 -0.2,-0.1 -0.7,-0.3 -1.5,-0.3 -2.2,0.1 l 1.5,-3.1 c -0.1,0.7 0,1.4 0.2,1.9 z M 627.4,431 c -0.2,-0.1 -0.3,-0.1 -0.5,-0.1 -0.1,0 -0.2,0 -0.3,0.1 l 1.1,-2.3 0.7,1.4 c -0.3,0.2 -0.6,0.5 -1,0.9 z m -2.7,3.9 1.3,-2.7 c 0.1,0.2 0.2,0.3 0.3,0.4 0,0.1 -0.1,0.2 -0.1,0.3 -0.4,0.8 -0.6,1.6 -0.7,2.4 z m -4.8,7.3 c 0.3,-0.6 1.1,-2.5 2.3,-5.1 0.1,0.1 0.2,0.2 0.3,0.2 0,0 0.1,0 0.1,0 0.5,0.2 1,0 1.3,-0.5 l 0.1,-0.2 1.9,0.9 c 0.2,0.5 0.5,0.9 0.9,1.1 l -3,6.2 c -0.1,0.3 -0.4,0.5 -0.7,0.6 -0.2,0.1 -0.6,0.2 -1.1,-0.1 -0.5,-0.2 -1.2,-0.7 -1.7,-1.4 -0.8,-0.9 -0.5,-1.5 -0.4,-1.7 z m 16.7,-24.1 c -0.1,-0.1 -0.2,-0.1 -0.3,-0.2 -0.4,-0.2 -0.9,-0.2 -1.4,-0.1 -0.4,-0.4 -0.8,-0.7 -1.3,-0.8 0,0 -0.1,0 -0.1,0 l 0.3,-0.5 3,1.5 z m 13.5,-31 c 0.1,0 0.2,0.1 0.2,0.1 0.1,0 0.1,0.1 0.2,0.1 0.2,0.1 0.5,0.2 0.7,0.2 l -0.2,0.5 -2.9,-1.4 0.7,-1.3 c 0.1,0.8 0.6,1.5 1.3,1.8 z m -1,2.1 c -0.3,0 -0.5,0.1 -0.8,0.2 -1,0.4 -2,1.3 -2.6,2.6 -1,2.2 -0.6,4.4 0.9,5.1 0,0 0.1,0 0.1,0 l -1.1,2.3 c -0.1,-0.1 -0.3,-0.3 -0.5,-0.3 -1.1,-0.5 -2.5,0 -3.6,1.3 l 5.8,-12.1 z m -17.4,26.7 -0.1,-0.1 c 0.7,-1.6 1.6,-3.5 2.4,-5.6 l 0.5,-0.1 z m -16.8,-35.5 c 0.9,0.2 2.9,0.9 3.7,1.9 1,1.3 1.6,3.1 1.9,5.3 0.1,0.7 0.3,3.3 0.1,6.5 l -6.9,-13.3 z m -12.4,3 -1.8,-3.5 0.1,-0.8 2.3,4.5 c -0.1,0 -0.4,-0.1 -0.6,-0.2 z m 1.1,1.8 c 0.1,-0.2 0.1,-0.3 0.1,-0.5 l 0.4,0.8 c -0.2,-0.1 -0.4,-0.2 -0.5,-0.3 z"
           id="XMLID_49_"
           inkscape:connector-curvature="0"
           style="fill:#000000;fill-opacity:0.50447795" />
        <path
           d="m 572.7,420.9 c -1.1,-0.5 -2.5,-0.6 -4.3,-0.3 -0.9,0.1 -2.5,0.5 -3.7,1.4 -1.3,0.9 -1.8,2.2 -1.6,3.7 0.2,1.4 1.4,3.5 2.9,5.4 1,1.2 2.8,3.1 4.3,3.1 0.1,0 0.2,0 0.3,0 2.6,-0.4 4.8,-7.7 4.4,-10.3 -0.3,-1.4 -1,-2.4 -2.3,-3 z"
           id="XMLID_48_"
           inkscape:connector-curvature="0"
           style="fill:#000000;fill-opacity:0.50447795" />
        <path
           d="m 221.4,406.7 c 0.3,-1.2 0,-2.4 -0.8,-3.3 -0.5,-0.6 -1,-1 -1.7,-1.2 -1.9,-0.7 -3.9,0.1 -4.8,1.9 -1.1,-0.1 -2.2,0.6 -2.7,1.6 0,0 0,0.1 -0.1,0.1 v 0.1 c 0,0 0,0.1 0,0.1 -0.3,0.9 -0.1,1.8 0.5,2.5 0,0.1 0.1,0.1 0.1,0.1 -1,0.1 -1.8,0.7 -2.2,1.6 0,0 -0.1,0.1 -0.1,0.1 v 0.1 c 0,0 0,0.1 0,0.1 -0.3,0.9 -0.1,1.8 0.5,2.5 0.1,0.1 0.1,0.1 0.2,0.2 -0.9,0.1 -1.8,0.7 -2.2,1.6 0,0 -0.1,0.1 -0.1,0.1 v 0.1 c 0,0 0,0.1 0,0.1 -0.3,0.9 -0.1,1.8 0.5,2.5 0,0 0.1,0.1 0.1,0.1 -1,0.1 -1.9,0.7 -2.3,1.6 0,0 -0.1,0.1 -0.1,0.1 v 0.1 c 0,0 0,0.1 0,0.1 -0.3,0.9 -0.1,1.8 0.5,2.5 0.1,0.2 0.3,0.3 0.4,0.4 -0.1,0.2 -0.2,0.4 -0.1,0.6 v 0.1 c 0,0.2 0,0.3 0.1,0.5 0,0.4 0,1.3 -0.4,2.5 -0.3,0.9 -1,2 -1.8,3.2 -0.8,1.3 -1.7,2.7 -2.2,4 -0.5,1.2 -0.7,3.5 -0.4,4.9 0.1,0.6 0.4,1.2 0.8,1.7 v 0.1 c 0.6,0.8 1.8,1.3 2.9,1.3 0.2,0 0.4,0 0.6,0 0.6,-0.1 1.1,-0.4 1.6,-0.8 1.1,-0.8 2.5,-2.8 2.9,-4 0.5,-1.2 0.7,-2.9 0.9,-4.6 0.2,-1.4 0.4,-2.7 0.7,-3.5 0.3,-1 0.9,-1.8 1.3,-2.2 0.2,-0.1 0.4,-0.2 0.4,-0.4 l 0.2,-0.6 c 1.1,0 2.2,-0.6 2.6,-1.7 0,0 0,-0.1 0.1,-0.1 v -0.1 c 0,0 0,-0.1 0,-0.1 0.2,-0.9 0,-1.8 -0.5,-2.5 -0.1,-0.1 -0.1,-0.2 -0.2,-0.2 0.9,-0.1 1.7,-0.7 2.1,-1.6 0,0 0.1,-0.1 0.1,-0.1 v -0.1 c 0,0 0,-0.1 0,-0.1 0.2,-0.9 0,-1.8 -0.5,-2.5 0,0 -0.1,-0.1 -0.1,-0.1 1,-0.1 1.8,-0.7 2.3,-1.7 0,0 0.1,-0.1 0.1,-0.1 v -0.1 c 0,0 0,-0.1 0,-0.1 0.2,-0.9 0,-1.8 -0.5,-2.5 0,-0.1 -0.1,-0.1 -0.2,-0.2 0.9,-0.1 1.8,-0.7 2.2,-1.7 0,0 0,-0.1 0.1,-0.1 v -0.1 c 0,0 0,-0.1 0,-0.1 0.2,-0.9 0,-1.8 -0.5,-2.5 0,0 -0.1,-0.1 -0.3,-0.2 z"
           id="XMLID_47_"
           inkscape:connector-curvature="0"
           style="fill:#000000;fill-opacity:0.50447795" />
        <path
           d="m 106,437 c 0,-0.1 0,-0.1 0,-0.2 l -0.3,-4.3 c 0.2,-0.1 0.5,-0.2 0.6,-0.4 0.2,-0.3 0.4,-0.6 0.3,-1 0,-0.6 -0.5,-1.2 -1.1,-1.2 v -0.7 c 0.6,-0.2 1,-0.7 1,-1.4 0,-0.6 -0.5,-1.2 -1.1,-1.2 v -0.5 c 0.1,-0.1 0.1,-0.2 0.1,-0.4 0.1,-0.2 0,-0.4 -0.1,-0.6 0,-0.1 -0.1,-0.2 -0.2,-0.2 l -0.9,-14 c 0.1,-0.1 0.1,-0.3 0.2,-0.5 0.1,-0.3 0,-0.7 -0.3,-0.9 l -0.3,-4.7 c 0.1,-0.1 0.2,-0.1 0.3,-0.2 0.2,-0.2 0.2,-0.4 0.2,-0.6 v 0 l 0.5,-3 c 0,0 0,-0.1 0,-0.1 0,0 0,0 0,-0.1 l -1,-16.3 c 0.5,0 0.9,-0.5 0.8,-1 v -0.1 c 0,-0.2 -0.1,-0.5 -0.3,-0.6 -0.2,-0.2 -0.4,-0.2 -0.6,-0.2 l -0.1,-0.9 c 0.3,-0.2 0.7,-0.4 1,-0.8 0.8,-0.8 1.4,-1.9 0.8,-2.5 -0.1,-0.1 -0.2,-0.2 -0.4,-0.2 0.1,-0.2 0.2,-0.4 0.3,-0.5 0.4,-0.8 0.1,-1.2 -0.1,-1.4 -0.2,-0.2 -0.4,-0.3 -0.7,-0.3 0,0 0,0 0,0 -0.7,0 -1.6,0.7 -1.9,1 0,0 -0.1,0.1 -0.1,0.1 v -0.3 c 0,-0.1 0.1,-0.2 0.1,-0.3 v -0.1 c 0,-0.1 0,-0.2 -0.1,-0.3 l -0.2,-2.9 c 0,-0.1 0.1,-0.2 0.1,-0.4 v -0.1 c 0,-0.1 0,-0.2 -0.1,-0.3 l -0.2,-2.8 c 0.1,-0.1 0.1,-0.2 0.1,-0.4 v -0.1 c 0,-0.1 0,-0.2 -0.1,-0.4 l -0.1,-1.5 c 0.1,-0.1 0.1,-0.2 0.1,-0.4 v -0.1 c 0,-0.1 0,-0.3 -0.1,-0.4 l -0.2,-2.4 c 0.1,-0.1 0.1,-0.3 0.1,-0.4 v -0.1 c 0,-0.4 -0.3,-0.7 -0.7,-0.8 l -0.8,-11.7 c 1,-0.1 1.7,-1.3 1.6,-2.6 -0.1,-1.4 -0.9,-2.4 -1.9,-2.4 L 99.3,332 c 0.5,-0.1 1,-0.4 1.3,-0.9 0.3,-0.5 0.4,-1.1 0.3,-1.7 -0.1,-0.8 -0.4,-1.6 -0.9,-2 -0.3,-0.3 -0.7,-0.4 -1.1,-0.4 l -0.2,-3.3 c 0.2,-0.3 0.3,-0.6 0.4,-0.9 0.1,-0.3 0,-0.5 -0.1,-0.7 0.3,-1.3 0.6,-2.7 0.8,-4.1 0.4,-2.3 0.9,-4.9 1.5,-5.5 0.4,-0.4 0.6,-1 0.3,-1.5 -0.7,-1.5 -4.1,-2.9 -6.8,-2.7 -2.7,0.2 -5.9,1.9 -6.4,3.5 -0.2,0.6 0,1.2 0.5,1.5 0.5,0.4 1.2,2.7 1.8,4.6 0.5,1.5 1,3.2 1.6,4.7 -0.1,0.2 -0.1,0.5 0,0.7 0.1,0.3 0.3,0.6 0.5,0.9 l 2.8,42.9 c 0,0 0,0 -0.1,0 h -0.1 c 0,0 -0.1,0 -0.1,0 h -0.7 c -0.5,0 -0.9,0.5 -0.9,1 v 0.1 c 0,0.2 0.1,0.3 0.2,0.5 L 94,370 c -0.3,0.2 -0.6,0.4 -0.9,0.7 -0.8,0.8 -1.4,1.9 -0.8,2.5 0.1,0.1 0.4,0.3 0.8,0.3 -0.3,0.6 -0.4,1.1 0,1.5 0.2,0.2 0.4,0.3 0.7,0.3 0,0 0,0 0,0 0.7,0 1.6,-0.7 1.9,-1 0.1,-0.1 0.2,-0.2 0.3,-0.4 l 2.3,35.9 c -0.2,0.2 -0.2,0.6 -0.1,0.9 0.1,0.1 0.1,0.3 0.2,0.4 l 0.9,14 c -0.2,0.2 -0.3,0.6 -0.2,0.9 0.1,0.2 0.1,0.3 0.2,0.4 l 0.1,1.6 c -0.1,0.1 -0.1,0.2 -0.2,0.3 -0.1,0.2 -0.1,0.4 0,0.6 0.1,0.2 0.1,0.3 0.2,0.5 l 0.1,2.2 c 0,0.1 -0.1,0.1 -0.1,0.2 -0.1,0.2 -0.1,0.4 0,0.6 0,0.1 0.1,0.2 0.2,0.3 l 0.3,4.4 c 0,0.1 0,0.1 0,0.2 0.3,1.4 1.5,2.8 3,2.8 0,0 0.1,0 0.1,0 1.8,0 2.9,-1.9 3,-3.1 z"
           id="XMLID_46_"
           inkscape:connector-curvature="0"
           style="fill:#000000;fill-opacity:0.50447795" />
        <path
           d="m 294,446.5 c -0.8,0.1 -1.3,0.9 -1.4,1.8 h -0.2 c -0.4,-0.7 -0.9,-1.4 -1.5,-2.1 0.3,0.2 0.6,0.3 0.9,0.3 0.1,0 0.2,0 0.3,0 1.1,-0.2 1.7,-1.5 1.4,-3 -0.3,-1.5 -1.3,-2.4 -2.4,-2.2 -0.8,0.1 -1.3,0.9 -1.4,1.8 l -1,0.2 c -0.8,-1.1 -1.4,-2.2 -1.6,-3 0,-0.1 0,-0.1 0,-0.2 l 1.2,-0.2 c 0.4,0.8 1.1,1.3 1.8,1.3 0.1,0 0.2,0 0.3,0 0.6,-0.1 1,-0.5 1.3,-1.2 0.2,-0.5 0.2,-1.2 0.1,-1.8 -0.1,-0.6 -0.4,-1.2 -0.8,-1.6 -0.5,-0.5 -1,-0.7 -1.6,-0.6 -0.3,0.1 -0.6,0.2 -0.9,0.5 0.4,-0.7 0.6,-1.5 0.4,-2.2 -0.4,-1.8 -1.4,-3 -2.9,-3.7 -0.3,-0.1 -0.6,-0.3 -1,-0.4 l -4.1,-18.8 c -0.1,-0.4 -0.4,-0.6 -0.8,-0.5 l -9.9,1.9 c -0.2,0 -0.4,0.2 -0.5,0.3 -0.1,0.2 -0.1,0.4 -0.1,0.6 l 5.3,19.5 c -1.6,1.7 -2.6,4.2 -1.8,8 0.5,2.4 4.8,6.8 6.6,8.5 -1.5,0.9 -4.4,3.1 -3.5,6.2 1.2,4.1 4.7,5.2 7.6,5.2 1,0 2,-0.1 2.7,-0.3 0,0 0,0 0,0 3.1,-0.8 6.7,-3 6.8,-9.1 0,-0.1 0,-0.2 0,-0.2 0.4,0.4 0.8,0.6 1.3,0.6 0.1,0 0.2,0 0.3,0 1.1,-0.2 1.7,-1.5 1.4,-3 -0.2,-1.8 -1.3,-2.8 -2.3,-2.6 z m -6.2,-8.9 c 0.1,-0.1 0.2,-0.3 0.2,-0.4 0,0.1 -0.1,0.3 -0.1,0.4 z"
           id="XMLID_43_"
           inkscape:connector-curvature="0"
           style="fill:#000000;fill-opacity:0.50447795" />
        <path
           d="m 264.7,411.1 c 2.9,-0.3 6,-0.8 8.6,-1.4 0.2,0 16.5,-4 15.8,-7.1 -0.2,-1 -1.3,-1.3 -2.5,-1.7 -1.4,-0.4 -3.3,-0.9 -5.2,-2.6 -3.4,-3.1 -5.7,-6.6 -9.1,-17.1 -3.3,-10.4 -16.8,-63.6 -17.6,-67.3 l -0.2,-0.9 c 0,0 0,0 0,-0.1 L 252,301.8 c 0,-0.2 -0.2,-0.3 -0.3,-0.4 -0.1,-0.1 -0.3,-0.1 -0.5,-0.1 l -0.5,-2.2 c -0.2,-0.9 -1.7,-2.9 -3.7,-4.4 -1.8,-1.4 -4.7,-3 -7.9,-2.2 l -7,1.6 c -5.6,1.3 -6.7,9.4 -6.4,10.9 l 0.5,2.2 c 0,0 0,0 0,0 -0.1,0.2 -0.1,0.3 -0.1,0.5 l 1.6,7.2 c 0,0.1 0,0.2 0,0.3 0,0.1 0,0.1 0,0.2 -0.2,0.4 -0.2,0.8 -0.3,1.3 0,0.2 -0.1,0.3 -0.1,0.5 0,0.2 -0.1,0.3 -0.1,0.5 0,0.1 -0.1,0.4 -0.1,0.5 0,0 0,0 0,0 0,0 -0.1,0 -0.1,0 -0.2,0.1 -0.7,0.3 -0.8,0.9 -0.1,0.3 -0.1,0.5 -0.1,0.8 0,0.1 0,0.2 0,0.3 0,0.2 -0.1,0.3 -0.2,0.6 -0.1,0.1 -0.1,0.3 -0.1,0.4 l -0.1,0.3 c -0.5,1.2 -1,2.4 -0.8,3.8 0,0 0,0 0,0.1 -0.2,0.7 -0.3,1.2 -0.5,1.5 0,0.1 -0.1,0.1 -0.2,0.2 -0.2,0.2 -0.5,0.5 -0.6,0.9 -0.1,0.3 -0.1,0.7 0,0.9 0,0.1 0,0.3 0,0.3 0,0.3 -0.2,0.5 -0.4,0.9 -0.2,0.3 -0.4,0.7 -0.5,1.1 -0.2,0.8 -0.4,1.8 0.2,2.7 0.2,0.4 0.5,0.7 0.8,0.9 -0.1,0 -0.2,0 -0.3,0 0,0 0,0 -0.1,0 -2,0.3 -2.7,2.4 -2.5,4.2 v 0.2 c 0,0.5 0.1,1.1 0.4,1.6 -0.4,0 -0.7,0.2 -0.8,0.3 -0.4,0.4 -0.3,1.1 -0.2,1.5 0,0.1 0,0.2 0,0.2 0,0 0,0.1 -0.1,0.1 0,0 0,0.1 -0.1,0.1 -1.8,0.7 -1.8,2.5 -1.9,3.8 v 0.1 0.1 c 0,0.6 0,1.4 0.5,2 0,0 0,0 0,0 -0.4,0.2 -0.5,0.6 -0.6,1 -0.4,-0.1 -0.8,0 -1,0.1 -1,0.5 -1.4,1.9 -1.6,3 0,0 0,0 0,0.1 0,1 0,2 0.3,2.7 0.4,0.9 1.3,1.1 2,1.1 -0.1,0.2 -0.1,0.5 -0.2,0.6 -0.1,0 -0.2,-0.1 -0.3,-0.1 -0.2,-0.1 -0.4,-0.2 -0.7,-0.3 -1.4,-0.5 -2.2,0.6 -2.4,1 -0.7,1.1 -1,2.6 -0.7,3.9 -0.3,0.3 -0.6,0.8 -0.6,1.3 0,0.2 0.1,0.5 0.3,0.8 -0.2,0.4 -0.2,0.7 -0.2,1 0,0.2 0,0.3 0,0.5 0,0.1 -0.1,0.4 -0.3,0.6 -0.1,0.2 -0.3,0.5 -0.4,0.8 -0.1,0.4 -0.2,1 -0.2,1.5 0,0.2 0,0.5 0,0.7 -1.1,0.5 -1.6,1.4 -1.9,2.5 -0.3,0.9 -0.5,2.4 0.3,3.2 0,0.1 -0.1,0.3 -0.1,0.4 0,0.1 0,0.3 -0.1,0.4 -0.4,-0.1 -0.9,0 -1.3,0.2 -0.9,0.6 -1,1.5 -1.1,2.2 -0.2,0.9 -0.2,1.7 0,2.3 -0.1,0 -0.3,0 -0.4,0.1 0,0 0,0 -0.1,0 -1.1,0.5 -1.4,1.4 -1.6,2.2 0,0 0,0 0,0.1 -0.1,0.5 -0.2,1.6 0.1,2.6 0.1,0.2 0.2,0.5 0.4,0.8 -0.1,0 -0.2,0 -0.3,0.1 -0.7,0.3 -1.2,1 -1.4,2.1 v 0.2 c -0.1,0.6 -0.3,1.4 0.3,2.2 0.3,0.3 0.7,0.4 1.1,0.5 0,0 0,0 0.1,0 -0.2,0.5 -0.4,1 -0.5,1.5 -0.1,0.4 -0.3,0.9 -0.4,1.2 -0.5,-0.2 -1,-0.2 -1.4,-0.1 -1.4,0.3 -1.5,1.5 -1.6,2.2 v 0.2 c -0.1,0.7 -0.3,1.8 0.7,2.5 v 0 c 0.1,0.1 0.4,0.2 0.8,0.3 -0.1,0.4 -0.3,0.8 -0.5,1.2 -0.2,0.4 -0.3,0.8 -0.4,1.1 -0.6,2.2 -1.3,4.2 -2.1,6.3 -0.1,0.3 -0.3,0.7 -0.4,1 -0.3,0.7 -0.6,1.5 -0.7,2.2 v 0.2 c -0.1,0.3 -0.2,0.9 -0.3,1.1 0,0 0,0 -0.1,0.1 l -0.1,0.1 c -0.4,0.4 -1.1,0.9 -1.2,1.8 0,0.1 0.1,0.6 0.3,1.1 0,0.1 0,0.2 0,0.3 0,0.1 -0.1,0.5 -0.4,1.4 0,0 0,0 0,0.1 -0.1,0.5 -0.3,1 -0.5,1.5 -0.1,0.3 -0.2,0.5 -0.3,0.8 -0.4,1.1 -0.8,2.2 -1.2,3.3 -0.2,0.1 -0.5,0.3 -0.7,0.8 -0.2,0.6 0,1 0.2,1.3 0.1,0.1 0.1,0.2 0.1,0.2 0,0 0,0 0,0 -0.5,1.4 -1,2.9 -1.5,4.4 l -3.9,-5.9 c 4,-13.6 -5.4,-26 -15.2,-39.1 -4.1,-5.5 -8.3,-11.1 -11.7,-16.9 l 0.8,-0.5 c 0.7,-0.4 0.9,-1.2 0.5,-1.9 l -0.7,-1.2 c -0.2,-0.3 -0.5,-0.5 -0.9,-0.6 -0.2,0 -0.4,-0.1 -0.5,0 l -11,-18.4 c -0.4,-0.7 -1.2,-0.9 -1.9,-0.5 L 140,328.8 c -0.3,-0.4 -0.6,-0.8 -1.1,-1 -0.1,0 -0.2,-0.1 -0.2,-0.1 l 0.1,-0.3 c 0.1,-0.4 -0.1,-0.8 -0.5,-0.9 l -2.8,-0.7 c -0.2,0 -0.4,0 -0.5,0.1 -0.2,0.1 -0.3,0.2 -0.3,0.4 l -0.7,2.8 c -0.1,0.4 0.1,0.8 0.5,0.9 l 0.3,0.1 c 0,0.1 0,0.2 0,0.3 0,0.5 0.1,1 0.3,1.4 l 9.3,15.7 c -0.3,0.2 -0.5,0.5 -0.6,0.9 -0.1,0.4 0,0.7 0.2,1.1 l 11,18.4 c -0.1,0.1 -0.2,0.3 -0.2,0.5 -0.1,0.4 0,0.7 0.2,1 l 0.7,1.2 c 0.4,0.7 1.2,0.9 1.9,0.5 l 0.4,-0.3 c 3,5.3 7,10.6 10.8,15.8 7.1,9.6 14.4,19.4 16,29 l -11.2,-17 c 0,0 0,0 0,0 L 162,381.9 c 0,0 0,0 0,0 l -0.6,-0.9 c 0,0 0,0 0,0 l -0.5,-0.8 c 0,0 0,0 0,0 l -0.1,-0.2 c 0,0 0,0 0,0 v 0 c 0,0 0,0 0,0 0,0 0,0 0,0 0,0 0,0 0,0 0,0 0,0 0,0 v 0 c 0,0 0,0 0,0 0,0 0,0 0,0 l -37.6,-57 -0.2,-6.8 c 0,-0.2 -0.1,-0.4 -0.2,-0.5 -0.1,-0.1 -0.3,-0.2 -0.5,-0.2 l -4.1,0.1 c -0.1,-0.2 -0.2,-0.4 -0.2,-0.6 -0.1,-5.8 -3.5,-8.7 -6.6,-8.9 -0.1,0 -0.2,0 -0.3,0 -2.1,0.2 -3.6,1.3 -4.3,3 -0.7,2.1 0,4.8 1.7,6.7 l -2.2,0.1 c -0.2,0 -0.4,0.1 -0.5,0.2 -0.1,0.1 -0.2,0.3 -0.2,0.5 l 7,113 c 0,0.6 -0.5,6.8 -2,10.2 -0.7,1.5 -2,2.6 -3.4,3.7 -1.4,1.1 -2.7,2.2 -3.1,3.7 -0.2,1 0.6,2.2 1.7,4 1.4,2.2 3.1,4.9 3.2,7.5 0.1,1.6 -1.1,4.1 -2.2,6.5 -1.3,2.8 -2.6,5.7 -2.3,7.8 0.7,5.5 3.1,8.2 4.9,9.6 2,1.5 3.9,1.7 4,1.7 0,0 0,0 0.1,0 0.3,0 0.5,-0.2 0.6,-0.4 l 2.7,-5.8 1.7,0.8 c 0,0.2 0,0.5 0.1,0.7 0.1,1.2 0.2,2.9 1.8,3.8 0.3,0.1 0.6,0.2 0.8,0.2 0.9,0 1.7,-0.6 2.2,-1.1 0.8,0.1 2,-0.1 2.7,-1.6 0.7,-1.4 0.1,-2.5 -0.5,-3.1 0.1,-0.9 0,-2.2 -1.1,-2.7 -1.9,-1 -3.3,0.2 -4.2,0.9 -0.1,0.1 -0.3,0.2 -0.4,0.3 l -1.8,-0.9 2.8,-6.1 1.6,0.8 c 0,0.2 0,0.5 0.1,0.7 0.1,1.2 0.2,2.9 1.8,3.7 0.3,0.1 0.6,0.2 0.8,0.2 0.9,0 1.7,-0.6 2.2,-1.1 0.8,0.1 2,-0.1 2.7,-1.6 0.7,-1.4 0.1,-2.5 -0.5,-3.1 0.1,-0.9 0,-2.2 -1.1,-2.7 -1.9,-1 -3.3,0.2 -4.2,0.9 -0.1,0.1 -0.3,0.2 -0.4,0.3 l -1.7,-0.8 2.8,-6.1 2,1 c 0,0.2 0,0.5 0.1,0.7 0.1,1.2 0.2,2.9 1.8,3.8 0.3,0.1 0.6,0.2 0.8,0.2 0.9,0 1.7,-0.6 2.2,-1.1 0.8,0.1 2,-0.1 2.7,-1.6 0.7,-1.4 0.1,-2.5 -0.5,-3.1 0.1,-0.9 0,-2.2 -1.1,-2.7 -1.9,-1 -3.3,0.2 -4.2,0.9 -0.1,0.1 -0.3,0.2 -0.4,0.3 l -2.1,-1 2.8,-6.1 2.4,1.2 c 0,0.2 0,0.5 0.1,0.7 0.1,1.2 0.2,2.9 1.8,3.8 0.3,0.1 0.6,0.2 0.8,0.2 0.9,0 1.7,-0.6 2.2,-1.1 0.8,0.1 2,-0.1 2.7,-1.6 0.7,-1.4 0.1,-2.5 -0.5,-3.1 0.1,-0.9 0,-2.2 -1.1,-2.7 -1.9,-1 -3.3,0.2 -4.2,0.9 -0.1,0.1 -0.3,0.2 -0.4,0.3 l -2.5,-1.2 2.7,-5.9 c 0.1,-0.2 0.1,-0.4 0,-0.6 -0.1,-0.2 -0.3,-0.3 -0.5,-0.4 0,0 -2.6,-0.3 -4.9,-2.8 -1.5,-1.6 -1.9,-6.7 -1.9,-8.5 l -2.3,-93.6 65.2,105 c -0.3,0.9 -0.6,1.5 -0.7,1.7 0,0 -0.1,0.1 -0.2,0.1 -0.2,0.1 -0.5,0.3 -0.7,0.5 -0.3,0.4 -0.6,1 -0.7,1.4 -0.2,0.5 -0.4,1.1 -0.6,1.7 -0.4,1 -0.8,1.9 -1,2.9 -0.1,0.5 -0.2,1 -0.2,1.5 0,0.3 -0.1,0.7 -0.1,1 0,0 0,0 0,0.1 -0.1,0.8 0.1,1.4 0.3,1.9 0,0.1 0,0.1 0.1,0.2 0,0.1 0,0.2 0,0.2 0.1,0.2 -0.2,1 -0.4,1.3 -0.1,0.1 -0.1,0.3 -0.1,0.4 -0.2,0.7 -0.5,1.4 -0.8,2 -0.3,0.8 -0.6,1.5 -0.8,2.2 0,0.1 -0.1,0.2 -0.1,0.4 0,0.1 -0.1,0.4 -0.1,0.5 0,0 -0.1,0.1 -0.1,0.1 -0.7,0.4 -0.7,1.4 -0.6,2.1 0.3,1.2 1.4,1.8 2,2.2 0.5,0.2 1.1,0.4 1.8,0.4 0.6,0 1.1,-0.1 1.6,-0.4 0.6,-0.4 0.9,-1 1,-1.7 V 465 c 0,0 0,-0.1 0,-0.1 0.1,-0.3 1.8,-5.1 5.2,-15.1 l 5.6,9.1 c 1.4,2.2 3.3,3.8 5.2,4.2 0.4,0.1 0.7,0.1 1.1,0.1 1.1,0 2.1,-0.3 3.1,-1 1.3,-0.9 2.3,-2.8 2.2,-4.5 0,-2.3 -1.4,-4.2 -2.7,-6 -0.3,-0.5 -0.6,-0.9 -0.9,-1.3 v 0 L 198,436.6 c 1.5,-4.3 2.7,-7.9 3.2,-9.1 0.4,-0.2 0.7,-0.5 0.9,-1 0.2,-0.4 0.2,-0.8 0.2,-1.1 0,0 0,0 0,0 0.2,-0.5 0.3,-1 0.5,-1.5 0.2,-0.7 0.4,-1.4 0.7,-2.1 0.1,-0.3 0.2,-0.5 0.3,-0.8 0.2,-0.4 0.4,-0.8 0.5,-1.4 0.1,-0.6 0.3,-1.2 0.5,-1.8 0.9,-0.8 0.8,-2 0.7,-2.6 0.3,-0.9 0.6,-1.8 0.9,-2.7 0.3,-0.8 0.5,-1.7 0.8,-2.5 0.1,0 0.2,0 0.2,-0.1 0.6,-0.1 1.3,-0.3 1.8,-1.1 0,0 0,0 0,0 0.4,-0.7 0.4,-1.4 0.2,-2 0.5,-0.3 1,-0.8 1.2,-1.3 0.5,-1.3 0.2,-2.4 -0.9,-3.1 0,-0.1 0.1,-0.3 0.2,-0.4 0.1,-0.2 0.2,-0.4 0.2,-0.6 0.1,-0.3 0.2,-0.6 0.3,-0.9 0.2,-0.6 0.4,-1.1 0.6,-1.6 0.5,-1.3 0.9,-2.5 1.4,-3.8 0.1,0 0.2,0 0.3,0 0.2,-0.1 0.5,-0.2 0.7,-0.4 0.8,0.2 1.7,-0.1 2.4,-0.8 0.5,-0.5 1,-1.3 0.9,-2.2 0,-0.2 -0.1,-0.4 -0.1,-0.6 0.5,-0.6 0.8,-1.5 1,-2.2 0,-0.2 0.1,-0.3 0.1,-0.4 0.2,-0.7 0.2,-1.6 0.1,-2.4 0,-0.3 -0.1,-0.7 -0.2,-1 -0.1,-0.2 -0.1,-0.4 -0.2,-0.6 0.3,0.1 0.5,0.1 0.8,-0.1 0.6,-0.3 0.9,-1.2 0.7,-1.9 -0.1,-0.5 -0.5,-0.8 -1,-0.9 0.1,-0.3 0.1,-0.5 0.2,-0.7 0.1,-0.5 0.2,-0.9 0.3,-1.4 0.1,-0.4 0.1,-0.8 0.2,-1.2 0,-0.3 0.1,-0.7 0.1,-1 0,-0.1 0.1,-0.3 0.1,-0.4 0.1,-0.4 0.2,-0.8 0.1,-1.3 0.1,-0.4 0.2,-0.9 0.2,-1.4 0.1,-0.5 0.1,-1 0.3,-1.4 1.2,0.1 2.5,-0.9 3,-1.8 0.4,-0.8 0.5,-1.5 0.5,-2.3 0,-0.9 -0.4,-1.3 -0.7,-1.7 -0.1,-0.1 -0.2,-0.3 -0.3,-0.5 0,0 0,-0.1 -0.1,-0.1 -0.1,-0.1 -0.1,-0.1 0.1,-0.5 0.1,-0.2 0.1,-0.3 0.2,-0.5 0.4,-1.1 8.4,-24.4 9.1,-26.5 0.6,-0.5 0.7,-1.3 0.8,-1.9 0,-0.2 0.1,-0.5 0.1,-0.6 0,-0.1 0.1,-0.5 0.3,-1.1 l 5.8,25.8 c -0.1,0.1 -0.3,0.2 -0.3,0.4 -0.2,0.3 -0.3,0.7 -0.2,1.1 0.1,0.5 0.5,1 1,1.2 l 1.7,8.9 c -0.4,0.3 -0.6,0.9 -0.5,1.4 0.1,0.6 0.5,1 1.1,1.2 l 18,96.3 c 0.9,4.7 4.6,8 8.6,8 0.4,0 0.9,0 1.3,-0.1 4.5,-0.8 7.4,-5.7 6.4,-10.9 z m -20,-36.6 c 0,0 0,0 0,0 0.8,-0.2 1.4,-1 1.2,-1.8 -0.1,-0.5 -0.5,-0.9 -0.9,-1.1 l -0.9,-4.7 7.9,-1.5 0.9,4.6 c -0.4,0.3 -0.6,0.9 -0.5,1.4 0.1,0.4 0.3,0.8 0.6,1 0.3,0.2 0.6,0.3 0.9,0.3 l 0.3,1.8 -9.2,1.7 z m -1,-13.3 c -0.1,-0.7 -0.7,-1.2 -1.4,-1.3 l -1.4,-6 c 0.2,0.2 0.4,0.4 0.6,0.6 0.7,0.5 1.6,0.6 2.6,0.4 l 4.3,-1 c 0.7,1.7 1.6,2.6 2.6,2.8 0.1,0.7 0.3,1.5 0.4,2.1 l -0.5,0.1 c -0.1,0 -0.1,0 -0.2,0.1 -0.3,-0.1 -0.6,-0.1 -0.9,0 -1.2,0.2 -2,1.4 -1.8,2.6 0.1,0.6 0.4,1.1 0.9,1.4 0.1,0.1 0.3,0.2 0.4,0.2 l -5.8,1.1 -0.3,-1.7 c 0.1,-0.1 0.2,-0.2 0.2,-0.3 0.3,-0.3 0.4,-0.7 0.3,-1.1 z m 3.2,-10.3 0.1,0.7 -3.4,0.8 c -0.4,0.1 -0.6,0 -0.6,0 -0.2,-0.1 -0.3,-0.6 -0.4,-1.1 l 4.3,-0.9 c 0,0.2 -0.1,0.3 0,0.5 z m 15.4,47.6 -4.9,-26.4 c 0.7,-0.3 1.1,-1 1,-1.7 -0.1,-0.5 -0.5,-0.9 -0.9,-1.1 l -1.6,-8.8 c 0.2,-0.1 0.4,-0.4 0.3,-0.7 l -0.2,-1 c 0,-0.2 -0.1,-0.3 -0.3,-0.5 -0.2,-0.1 -0.3,-0.1 -0.5,-0.1 l -0.5,0.1 -0.4,-2.1 c 1.4,-0.8 1.5,-3 1.4,-4.2 h 0.2 c 0.1,0 0.3,-0.1 0.4,-0.2 2.1,10.9 5,26.3 5.7,31.7 0.9,7.5 0.9,11.8 0.3,15 z m -12.1,-37.7 c 0,0 0.1,0 0,0 0.2,0 0.4,0.1 0.4,0.3 0,0.1 0,0.2 -0.1,0.3 0,0.1 -0.1,0.1 -0.2,0.1 -0.2,0 -0.4,-0.1 -0.4,-0.3 0,-0.2 0.1,-0.4 0.3,-0.4 z m 4.5,16.4 5.2,27.8 c -0.8,1.1 -1.7,1.9 -2.4,2.5 -1,0.8 -1.8,1.6 -1.6,2.6 0.2,0.7 0.9,1.4 5.1,1.3 l 10.8,57.6 c 0.3,1.5 0,3 -0.7,4.2 -0.7,1.2 -1.7,1.9 -2.9,2.2 -2.5,0.5 -5.1,-1.6 -5.6,-4.6 l -17.1,-91.7 z m -17.2,-40.8 0.9,3.9 c -0.1,0 -0.1,0 -0.2,0 -0.1,0 -0.1,0 -0.2,0 l -0.9,-3.9 z m 5.8,-34.3 c 0.4,-0.2 0.8,-0.5 0.9,-0.9 0.2,-0.4 0.1,-0.9 -0.1,-1.3 -0.8,-1.3 -2.6,-1.9 -3.9,-2.4 l -0.2,-0.1 c -0.7,-0.2 -2.7,-0.3 -3.4,0.7 -0.2,0.2 -0.5,0.7 -0.1,1.5 -0.2,0.6 -0.4,1.1 -0.7,1.7 -0.3,0.6 -0.5,1.3 -0.8,2 -0.1,0.4 -0.2,0.8 -0.3,1.1 -0.1,0.4 -0.2,0.7 -0.3,1 0,0.1 -0.1,0.2 -0.2,0.3 -0.1,0 -0.3,0 -0.4,0 -0.1,0 -0.3,0 -0.3,0 -0.1,-0.1 -0.2,-0.2 -0.4,-0.4 -0.3,-0.3 -0.9,-1 -1.7,-0.6 -0.6,0.3 -0.8,0.9 -0.9,1.5 0,0 -0.1,-0.1 -0.1,-0.1 -0.1,0 -0.2,-0.1 -0.2,-0.1 -0.1,-0.4 -0.2,-0.9 -0.3,-1.4 -0.1,-0.7 0.7,-6.2 3.2,-6.7 l 6.9,-1.6 c 0.6,-0.1 1.9,0.2 3.4,1.1 1.4,0.9 2.4,2 2.6,3 l 0.4,1.9 c -0.2,0.2 -0.3,0.4 -0.2,0.7 l 2.7,12.1 c 0,0 0,0 0,0 0.3,1.3 1.5,7.3 3,15 l -1.5,0.3 -0.7,-3 c -0.4,-1.9 -1.7,-3.3 -3.7,-4 -1.5,-0.6 -3.5,-0.7 -5.1,-0.3 -2.5,0.6 -3.8,1.9 -4.4,2.9 -0.7,1.1 -0.9,2.5 -0.7,3.7 l 0.9,3.9 -0.4,0.1 -1.5,-6.6 c 2.7,-7.3 6.2,-18 8.5,-25 z m -1.4,24.6 c 0.9,-0.2 2,-0.2 2.8,0.1 0.9,0.3 1.5,0.8 1.6,1.5 l 2.3,10.2 c 0.4,1.7 -2,4.2 -3.2,4.5 l -2.1,0.5 c -0.2,-0.6 -0.4,-1.1 -0.9,-1.6 l -2.9,-12.8 c 0,-0.2 -0.1,-1.8 2.4,-2.4 z m 0.5,20.7 3.8,-0.9 c 3,-0.7 6.8,-4.9 5.9,-8.8 l -1.1,-4.7 1.4,-0.3 c 0.7,3.8 1.6,8 2.4,12.2 l -13.7,3.5 c 0.5,-0.2 1,-0.6 1.3,-1 z"
           id="XMLID_31_"
           inkscape:connector-curvature="0"
           style="fill:#000000;fill-opacity:0.50447795" />
        <path
           d="m 498.6,298 c -6.1,-2.5 -13,-3.4 -16.2,-2 v 0 c -1.2,0.5 -1.8,1.3 -1.9,2.3 0,0.6 0.3,1 0.5,1.1 0.2,0.2 0.8,0.8 1.7,3.4 0,0 0,0.1 0,0.1 5.6,11.1 -2.9,33.6 -12,57.4 -1.5,3.8 -3.1,8.2 -4.7,12.4 -0.3,0.5 -0.8,1 -1.3,1.3 -1,0.7 -2.5,1 -3.5,0.3 -0.4,-0.3 -0.6,-1.2 -0.7,-1.8 -0.1,-0.8 -0.3,-2 -1.5,-2.1 h -0.3 c -0.3,0 -0.6,0.2 -0.7,0.4 l -0.1,0.3 c -0.6,1.4 -0.5,2.8 0.1,4 0.5,1 1.5,1.9 2.7,2.4 1.1,0.4 2.4,0.5 3.5,0.2 -0.2,0.7 -0.5,1.3 -0.7,2 0,0 -0.1,0 -0.1,0 0,-0.1 -0.1,-0.3 -0.1,-0.4 -0.2,-0.5 -0.7,-0.8 -1.1,-0.9 h -0.1 c 0,0 0,0 0,0 0,0 0,-0.1 -0.1,-0.1 l -0.1,-0.1 c -0.1,-0.1 -0.2,-0.2 -0.3,-0.2 l -0.7,-0.2 c 0,0 -0.1,0 -0.1,0 h -0.1 c 0,0 -0.1,0 -0.1,0 -1,-0.1 -1.5,0.7 -1.9,1.4 l -0.5,-0.2 c 0.2,-1.2 -0.3,-1.6 -0.8,-1.8 -0.7,-0.3 -1.7,-0.1 -2.7,2.3 l -0.1,0.1 c -0.8,2 -0.5,2.8 0,3.2 -0.6,0.2 -1.2,0.8 -1.9,2.4 l -0.1,0.1 c -0.5,1.3 -0.6,2.1 -0.4,2.6 -0.1,0 -0.1,-0.1 -0.2,-0.1 -0.6,-0.3 -1.6,-0.1 -2.6,2.1 -0.1,-0.2 -0.1,-0.3 -0.2,-0.5 -4,-8.7 -7.8,-17.2 -8.2,-17.9 l -4.4,-9.6 c 0,-0.1 0,-0.3 -0.1,-0.4 l -0.1,-0.2 c 0,0 0,-0.1 -0.1,-0.1 0,0 0,0 0,-0.1 l -0.1,-0.2 c 0,0 0,-0.1 -0.1,-0.1 0,0 0,0 0,-0.1 l -0.1,-0.2 c 0,0 0,-0.1 -0.1,-0.1 0,0 0,-0.1 0,-0.1 l -0.2,-0.5 c 0.1,-0.1 0.1,-0.2 0.2,-0.4 0.1,-0.4 0.1,-0.8 0,-1.1 l -1.3,-2.8 c -0.2,-0.4 -0.4,-0.6 -0.8,-0.8 -0.4,-0.1 -0.8,-0.1 -1.1,0 l -1.4,0.7 c -0.4,0.2 -0.7,0.6 -0.8,1 -0.1,0 -0.1,0 -0.2,0 l -4.2,-9.4 0.6,0.8 c 0.7,1 1.9,1.3 2.6,0.8 0.3,-0.2 0.5,-0.5 0.5,-0.9 0.1,-0.6 -0.1,-1.2 -0.6,-1.8 l -11.1,-14.3 0.3,-0.7 c 0.5,-1.3 -0.2,-2.7 -1.4,-3.2 h -0.1 c -0.6,-0.2 -1.2,-0.2 -1.8,0 l -3,-3.8 0.1,-0.2 c 0.1,-0.1 0.1,-0.3 0.1,-0.4 0,0 0,0 0,0 12.2,2.2 23.3,1.7 27.5,-1.4 1.1,-0.8 1.7,-1.7 1.9,-2.8 0.9,-5.8 -12.8,-11.8 -26.5,-14.3 -12.2,-2.2 -23.3,-1.7 -27.5,1.4 -1.1,0.8 -1.7,1.7 -1.9,2.8 -0.8,5.2 10.3,10.6 21.9,13.3 l -0.3,0.7 c -0.2,0.5 -0.1,1.1 0.2,1.5 0.3,0.4 0.7,0.8 1.3,1 l 0.1,0.1 c 0.2,0.1 0.4,0.1 0.5,0.1 l 3.6,4.6 c -0.2,0.6 -0.1,1.3 0.2,1.9 L 393,387.3 c -0.8,0.3 -1.4,0.9 -1.7,1.7 -0.3,0.7 -0.2,1.5 0.1,2.2 l -9.1,24.1 c -0.5,-0.3 -1.1,-0.5 -1.9,-0.3 -0.1,-0.1 -0.3,-0.1 -0.4,-0.1 l -28.4,-77.1 c 0,0 0,0 0,0 -1.1,-3.7 -0.8,-7.6 0.9,-11.1 0.1,-0.2 0.1,-0.3 0.1,-0.5 l -0.7,-2.8 3.2,-1 0.7,2.3 c 0.1,0.2 0.2,0.4 0.4,0.4 0.4,0.1 0.8,0.2 1.2,0.2 0.4,0 0.7,-0.1 1.1,-0.2 2.2,-0.7 3.2,-3.6 2.3,-6.3 -0.9,-2.8 -3.4,-4.4 -5.6,-3.7 -0.7,0.2 -1.3,0.7 -1.8,1.3 -0.1,0.2 -0.2,0.4 -0.1,0.6 l 0.7,2.2 -2.9,1 -1.9,-7.3 2.5,-0.8 0.7,2.3 c 0.1,0.2 0.2,0.4 0.4,0.4 0.4,0.1 0.8,0.2 1.2,0.2 0.4,0 0.7,-0.1 1.1,-0.2 1.1,-0.4 1.9,-1.2 2.3,-2.5 0.4,-1.2 0.4,-2.5 -0.1,-3.8 -0.9,-2.8 -3.4,-4.4 -5.6,-3.7 -0.7,0.2 -1.3,0.7 -1.8,1.3 -0.1,0.2 -0.2,0.4 -0.1,0.6 l 0.7,2.2 -2.3,0.8 -1.9,-7.3 1.8,-0.6 0.7,2.3 c 0.1,0.2 0.2,0.4 0.4,0.4 0.4,0.1 0.8,0.2 1.2,0.2 0.4,0 0.7,-0.1 1.1,-0.2 2.2,-0.7 3.2,-3.6 2.3,-6.3 -0.4,-1.3 -1.2,-2.4 -2.3,-3.1 -1.1,-0.7 -2.3,-1 -3.4,-0.6 -0.7,0.2 -1.3,0.7 -1.8,1.3 -0.1,0.2 -0.2,0.4 -0.1,0.6 l 0.7,2.2 -1.6,0.5 -1.3,-4.8 c -0.1,-0.2 -0.3,-0.4 -0.5,-0.5 -0.3,-0.1 -6.8,-1.8 -13.9,0.6 -7.1,2.4 -10.9,7.4 -11.1,7.7 -0.1,0.2 -0.2,0.4 -0.1,0.7 l 1.8,4.7 -1.2,0.4 -0.7,-2.2 c -0.1,-0.2 -0.2,-0.4 -0.4,-0.4 -0.7,-0.2 -1.5,-0.3 -2.2,0 -2.2,0.7 -3.2,3.6 -2.3,6.3 0.8,2.3 2.7,3.9 4.6,3.9 0.4,0 0.7,-0.1 1.1,-0.2 0.7,-0.2 1.3,-0.7 1.8,-1.3 0.1,-0.2 0.2,-0.4 0.1,-0.6 l -0.7,-2.3 1.4,-0.5 2.7,7 -1.7,0.6 -0.7,-2.2 c -0.1,-0.2 -0.2,-0.4 -0.4,-0.4 -0.8,-0.2 -1.5,-0.3 -2.2,0 -2.2,0.7 -3.2,3.6 -2.3,6.3 0.8,2.3 2.7,3.9 4.6,3.9 0.4,0 0.7,-0.1 1.1,-0.2 0.7,-0.2 1.3,-0.7 1.8,-1.3 0.1,-0.2 0.2,-0.4 0.1,-0.6 l -0.7,-2.3 1.9,-0.6 2.7,7 -2.2,0.7 -0.7,-2.2 c -0.1,-0.2 -0.2,-0.4 -0.4,-0.4 -0.8,-0.2 -1.5,-0.3 -2.2,0 -1.1,0.4 -1.9,1.2 -2.3,2.5 -0.4,1.2 -0.4,2.5 0.1,3.8 0.4,1.3 1.2,2.4 2.3,3.1 0.7,0.5 1.5,0.8 2.3,0.8 0.4,0 0.7,-0.1 1.1,-0.2 0.7,-0.2 1.3,-0.7 1.8,-1.3 0.1,-0.2 0.2,-0.4 0.1,-0.6 l -0.7,-2.3 2.3,-0.8 0.9,2.4 c 0.1,0.2 0.2,0.3 0.4,0.4 2.6,1.2 4.7,3.1 6.2,5.4 l 26.6,85.8 c 0,0.1 -0.1,0.2 -0.1,0.3 l -0.4,0.3 c -1.8,-5.6 -5.8,-15.6 -9.6,-25.3 -3.2,-7.9 -6.1,-15.4 -7.6,-19.8 l 0.4,-0.2 c 0.3,-0.1 0.5,-0.3 0.7,-0.6 0.1,-0.3 0.2,-0.6 0,-0.9 l -0.3,-0.9 c -0.1,-0.3 -0.3,-0.5 -0.6,-0.7 -0.1,0 -0.2,-0.1 -0.3,-0.1 l -5,-14.1 c -0.1,-0.3 -0.3,-0.5 -0.6,-0.7 -0.2,-0.1 -0.5,-0.1 -0.7,-0.1 l -4.3,-12 c -0.1,-0.4 -0.4,-0.7 -0.7,-0.9 v 0 c 0.2,-0.3 0,-0.8 -0.3,-0.9 l -1.8,-0.9 c -0.2,-0.1 -0.4,-0.1 -0.5,0 -0.2,0.1 -0.3,0.2 -0.4,0.4 l -0.9,1.9 c -0.2,0.3 0,0.8 0.3,0.9 v 0 c 0,0 0,0 0,0 -0.1,0.4 -0.1,0.8 0,1.1 l 4.3,12 c -0.5,0.3 -0.7,0.9 -0.5,1.4 l 5,14.1 c -0.3,0.3 -0.4,0.8 -0.2,1.2 l 0.3,0.9 c 0.2,0.6 0.9,0.9 1.5,0.7 l 0.1,-0.1 c 1.4,4.1 4.5,11.3 7.7,18.9 4.2,9.8 8.8,20.8 10.6,26.8 l -10,6.2 c -0.6,-0.1 -1.2,0 -1.8,0.4 l -1.7,1.1 c -0.5,0.4 -0.9,0.9 -1,1.5 -0.1,0.6 0,1.3 0.4,1.9 v 0.1 c 0.8,1.1 2.3,1.4 3.5,0.7 l 1.7,-1.1 c 0.7,-0.5 1.1,-1.2 1.1,-2 l 12.8,-7.9 7.7,24.7 c 0.1,0.2 0.2,0.3 0.3,0.4 0.1,0.1 0.2,0.1 0.3,0.1 0.1,0 0.1,0 0.2,0 l 0.8,-0.3 c 0,0.1 -0.1,0.2 -0.1,0.4 l -0.2,2 c -0.1,1.3 0.8,2.5 2.2,2.7 h 0.1 c 0.7,0.1 1.4,-0.1 1.9,-0.5 0.5,-0.4 0.8,-1 0.9,-1.6 l 0.2,-2 c 0.1,-0.6 -0.1,-1.3 -0.5,-1.8 0.3,-0.3 0.5,-0.6 0.7,-0.9 l 12,-4 c 0.2,-0.1 0.3,-0.2 0.4,-0.4 0.1,-0.2 0.1,-0.4 0,-0.5 l -3,-8.1 3.8,0.1 6.3,15.9 c -0.2,0.6 -0.2,1.2 0,1.8 l 0.8,1.9 c 0.4,1 1.4,1.6 2.4,1.6 0.3,0 0.6,0 0.8,-0.1 h 0.1 c 0.6,-0.2 1.1,-0.7 1.4,-1.3 0.3,-0.6 0.3,-1.3 0,-1.9 l -0.8,-1.9 c -0.3,-0.8 -1,-1.3 -1.8,-1.5 l -6.4,-16.2 c -0.1,-0.3 -0.3,-0.5 -0.6,-0.6 0.1,-0.3 0.1,-0.6 0,-0.9 l -6.6,-16.7 c -0.1,-0.1 -0.1,-0.3 -0.2,-0.4 0,-0.1 -0.1,-0.2 -0.1,-0.3 -0.5,-0.5 -1.2,-1 -1.9,-1.1 l 0.6,-1.6 c 0.2,0.5 0.6,0.8 1.1,1.1 0.3,0.1 0.6,0.2 0.9,0.2 0.8,0 1.7,-0.5 2,-1.3 l 0.8,-1.8 c 0.1,-0.3 0,-0.7 -0.2,-0.9 0,0 0,0 0,-0.1 L 411.4,370 c 0.1,0 0.2,0 0.2,0 0.3,0 0.5,-0.2 0.6,-0.4 l 0.5,-1.1 0.3,0.7 c 0.2,0.3 0.5,0.5 0.9,0.4 l 6,13.5 c 0.2,0.4 0.5,0.8 1,0.9 0.2,0.1 0.4,0.1 0.6,0.1 0.2,0 0.5,-0.1 0.7,-0.2 l 15.6,-7 c 0.9,-0.4 1.3,-1.4 0.9,-2.3 l -6,-13.4 c 0.1,0 0.1,-0.1 0.2,-0.2 0.2,0.1 0.3,0.1 0.5,0.2 l 0.2,0.5 c 0,0 0,0.1 0.1,0.1 0,0 0,0.1 0,0.1 l 0.1,0.2 c 0,0 0,0.1 0.1,0.1 0,0 0,0.1 0,0.1 l 0.1,0.2 c 0,0 0,0.1 0.1,0.1 0,0 0,0.1 0,0.1 l 0.1,0.2 c 0.1,0.1 0.2,0.3 0.3,0.3 l 4.3,9.6 c 0.3,0.7 4,8.7 7.8,17.1 2.6,5.6 5.2,11.4 7,15.4 -1,2.5 -2,5 -2.9,7.3 l -5.8,-14.9 c -0.1,-0.2 -0.2,-0.3 -0.4,-0.4 -0.2,-0.1 -0.4,-0.1 -0.6,0 -3.4,1.8 -7,3.3 -10.6,4.7 -0.2,0.1 -0.3,0.2 -0.4,0.4 -0.1,0.2 -0.1,0.4 0,0.6 l 12,24.1 c -0.4,1.1 -0.8,2 -1.1,2.8 -0.3,0.8 -0.6,1.4 -0.7,1.9 -0.4,0.3 -0.6,0.7 -0.7,1.1 -0.1,0.1 -0.1,0.3 -0.2,0.5 0,0.1 -0.1,0.3 -0.1,0.4 l -3.3,8 c -0.1,0.3 -0.3,0.6 -0.5,1.1 -0.3,0.5 -0.6,1 -0.7,1.5 -0.2,0.5 -0.3,0.9 -0.2,1.3 l -3.4,8.2 c -0.2,0.4 -0.5,1 -0.9,1.6 l -0.1,0.2 c -0.2,0.1 -0.5,0.2 -0.7,0.4 -0.7,0.5 -1.2,1.2 -1.6,2 l -0.1,0.2 c 0,0.1 -0.1,0.2 -0.1,0.4 -0.1,0.1 -0.2,0.2 -0.3,0.2 l -0.1,0.1 c -0.1,0.1 -0.1,0.1 -0.1,0.2 l -0.4,1 c 0,0 0,0.1 0,0.1 -0.4,1.6 1.2,2.6 1.9,3 0.5,0.3 2,0.7 2.4,0.8 0.3,0.1 0.6,0.1 0.9,0.1 1.1,0 1.8,-0.5 2.1,-1.5 l 0.3,-0.7 c 0,0 0,-0.1 0,-0.1 0.1,-0.2 0.1,-0.5 0.1,-0.7 0,-0.1 0.1,-0.2 0.1,-0.3 l 0.1,-0.2 c 0.3,-0.6 0.4,-1.3 0.3,-1.9 0.1,-0.4 0.2,-0.8 0.3,-1.3 0.2,-0.7 0.3,-1.3 0.5,-1.7 l 3.4,-8.3 c 0.4,-0.3 0.7,-0.8 0.9,-1.4 0.2,-0.4 0.3,-0.8 0.4,-1.3 l -0.7,-0.2 0.7,0.2 c 0.1,-0.3 0.2,-0.5 0.2,-0.7 1.3,1.2 3.2,2.4 6.1,3.7 9,4 11.7,0.6 14.5,-4.8 2.3,-4.4 8.1,-17.8 9.9,-22.1 0.1,-0.1 0.2,-0.1 0.2,-0.2 0.4,-0.3 1,-0.7 1.4,-1.4 0.4,-0.8 1.4,-3.1 2.6,-5.7 0.9,-2.1 1.9,-4.2 2.6,-5.8 0.3,-0.3 0.4,-0.7 0.4,-1.1 l 3,1.2 c 0.2,0.5 0.6,0.8 1.1,1 0,0 0.1,0 0.1,0 0.1,0.1 0.2,0.2 0.4,0.3 0,0 0,0 0.1,0 l 0.5,0.2 c 1.4,0.6 2.2,-0.9 2.5,-1.6 0.1,-0.3 0.3,-0.8 0.6,-1.3 0.1,-0.2 0.2,-0.6 0.3,-0.9 0,-0.1 0.1,-0.3 0.1,-0.4 0.1,-0.4 0.3,-0.9 0.3,-1.4 0.4,-0.4 0.7,-0.9 0.9,-1.4 0.1,-0.3 0.3,-0.8 0.6,-1.3 0.1,-0.2 0.2,-0.6 0.3,-0.9 0,-0.2 0.1,-0.3 0.1,-0.4 0.2,-0.5 0.3,-1.1 0.2,-1.6 0.4,-0.4 0.7,-0.9 0.9,-1.3 0.1,-0.3 0.3,-0.8 0.6,-1.3 0.1,-0.2 0.2,-0.6 0.3,-0.9 0,-0.2 0.1,-0.3 0.1,-0.4 0.2,-0.8 0.6,-1.9 -0.3,-2.6 0,0 -0.1,-0.1 -0.1,-0.1 l -0.7,-0.3 c -0.1,-0.1 -0.3,-0.1 -0.4,-0.1 h -0.1 c 0,0 -0.1,0 -0.1,0 0,0 0,0 0,0 h -0.1 c -0.3,-0.1 -0.9,-0.3 -1.4,-0.1 -0.2,0.1 -0.3,0.2 -0.4,0.3 l -3.5,-1.5 1.7,-4.2 c 1.5,-3.7 3.2,-7.8 4.7,-11.6 0.1,0 0.1,0 0.2,0 0.1,0.1 0.1,0.1 0.2,0.2 0.2,0.2 0.3,0.3 0.5,0.4 h 0.1 c 0.7,0.3 1.5,0 1.9,-0.7 0.2,-0.2 0.3,-0.4 0.5,-0.7 0.1,-0.2 0.1,-0.4 0.1,-0.6 l 0.9,-2.3 c 0.1,-0.1 0.2,-0.3 0.3,-0.4 0.1,-0.1 0.2,-0.2 0.3,-0.4 0,-0.1 0.1,-0.3 0.1,-0.5 l 1.4,-3.3 c 0.4,-0.4 0.6,-0.6 0.8,-0.9 0,0 0.1,0 0.1,-0.1 0.2,-0.1 0.3,-0.2 0.4,-0.4 0.1,-0.3 0.1,-0.7 -0.2,-1 0,0 0,-0.1 -0.1,-0.1 l 0.9,-2.4 c 0,0 0,0 0,0 0.7,-0.6 0.9,-0.9 1.2,-1.3 0,0 0,0 0,-0.1 0,0 0.1,-0.1 0.1,-0.1 v -0.1 c 0.1,-0.1 0.1,-0.2 0.1,-0.3 0,-0.2 0,-0.6 -0.1,-0.9 -0.2,-0.4 -0.9,-0.7 -1.6,-1 l 0.2,-1.9 c 0,0 0,0 0,-0.1 V 355 c 0,0 0,0 0,-0.1 0,-0.2 0,-0.4 -0.1,-0.6 0.1,-0.1 0.2,-0.3 0.3,-0.5 0.1,-0.1 0.2,-0.2 0.2,-0.3 0.5,-1.3 -0.1,-2.7 -1.4,-3.2 -0.2,-0.4 -0.4,-0.8 -0.6,-1.1 l 0.1,-2 c 0.3,-0.2 0.5,-0.6 0.7,-1 0.5,-1.1 0,-2.4 -1.1,-3 -0.5,-2.2 -1.3,-3.7 -2.4,-4.5 -0.8,-0.6 -1.7,-0.7 -2.8,-0.5 l -0.5,0.1 c -0.2,0.1 -0.4,0.2 -0.5,0.4 -0.4,-0.2 -0.8,-0.3 -1.2,-0.5 -1.5,-0.6 -2.9,-0.9 -4.2,-1 6.6,-13.8 12.3,-21.6 18,-24.3 3.5,-1.1 4.5,-1.3 4.5,-1.3 0.1,0 0.2,0 0.2,-0.1 l 0.1,-0.1 c 0.2,-0.1 0.3,-0.4 0.3,-0.6 v -0.1 c 0.9,-3.3 -4.4,-9.2 -12.8,-12.7 z m -5.4,51.2 c -2.8,0 -3.9,2.6 -5.3,5.7 -0.3,0.6 -1.1,2.6 -2.5,6.2 -0.9,2.2 -1.9,4.8 -3,7.5 l -0.1,0.3 c -0.2,0.4 -0.6,1.4 -1,2.4 l -1,1.8 c -0.4,-0.4 -0.8,-0.7 -1.3,-0.9 -0.9,-0.4 -1.9,-0.4 -2.7,0 -0.8,0.4 -1.5,1 -1.8,1.9 -0.7,1.7 0.2,3.7 1.9,4.5 0.6,0.2 1.2,0.3 1.8,0.2 l -0.6,2.3 c -0.4,1 -0.7,1.9 -1.1,2.8 0,0.1 -0.1,0.2 -0.1,0.3 l -0.3,0.7 -6.6,-2.7 c 0.5,-1.3 1.1,-2.7 1.7,-4 v -0.1 c 1.8,-4.4 3.6,-8.8 5.3,-13.1 2.9,-7.2 5.8,-14.6 8.8,-21.2 1.7,-1.6 3.2,-1.1 5.2,-0.4 1.3,0.4 2.1,1.1 2.5,2 0.5,0.8 0.5,2.1 0.2,3.8 z m -34.9,86 c -0.1,-0.2 -0.2,-0.3 -0.4,-0.4 -0.2,-0.1 -0.4,-0.1 -0.6,0 l -5,2.2 c -0.2,0.1 -0.3,0.2 -0.4,0.4 -0.1,0.2 0,0.4 0.1,0.6 l 3,5.5 c -1,0 -2,-0.2 -3.2,-0.7 0,0 0,0 0,0 l -0.5,-0.2 c -5.1,-2.4 -5.3,-2.5 -3.2,-7.6 0.1,-0.3 0.3,-0.6 0.4,-1 l 1.4,2.8 c 0.1,0.2 0.4,0.4 0.6,0.4 0.1,0 0.2,0 0.3,-0.1 l 7.5,-3.3 c 0.3,-0.2 0.5,-0.5 0.4,-0.9 l -4.8,-12.3 c 2.3,-5.8 5.4,-13.5 8.8,-21.9 l 0.6,0.2 c 0.3,1.8 2.4,2.3 3.8,2.6 0.4,0.1 1.1,0.3 1.4,0.4 0,0.1 -0.1,0.2 -0.3,0.4 -0.2,0.1 -1,0.3 -1.4,0.4 -1.4,0.3 -3,0.6 -3.5,1.9 -0.2,0.4 -0.2,0.8 -0.1,1.2 l 0.1,0.4 c 0,0.2 0.2,0.4 0.4,0.5 0.2,0.1 0.4,0.1 0.6,0 l 0.7,-0.3 c 0.1,0 0.2,-0.1 0.3,-0.2 l 0.1,-0.1 c 0.3,-0.4 0.8,-0.6 1.5,-0.7 0,0.8 -0.2,1.7 -0.5,2.5 -0.1,0.3 -0.2,0.5 -0.2,0.8 l -0.1,0.4 c 0,0.2 0,0.3 0,0.5 -0.6,1.4 -1.3,3 -1.6,3.9 -0.1,0.3 -0.2,0.5 -0.2,0.6 -1.3,4 1.7,5.7 4,6.6 0.1,0 0.1,0 0.2,0.1 -2.9,7 -5.9,14.4 -7.3,17.3 -0.4,0.8 -0.7,1.4 -1.1,2 z m 11.1,-21.8 c 0.1,-0.4 0.3,-0.8 0.5,-1.2 l 0.3,-0.8 c 0.1,-0.3 0.5,-1.1 1,-2.2 v -0.1 c 0.9,-1.9 2,-4.4 2.6,-6.1 l 1.5,0.6 c -0.9,2 -2.3,5.5 -4.6,11.3 l -0.6,1.5 c -0.1,0 -0.3,-0.1 -0.4,-0.2 -0.9,-0.3 -1.2,-0.6 -0.3,-2.8 z M 457,382 c 0.1,-0.1 0.1,-0.2 0.2,-0.3 l 0.5,0.2 c 0,0 0,0 0,0 -0.1,0.4 -0.3,0.9 -0.3,1.4 -0.4,0.3 -0.7,0.7 -1,1.2 0.1,-0.9 -0.1,-1.4 -0.5,-1.7 0.4,-0.1 0.7,-0.3 1.1,-0.8 z m -5.1,10.5 1.1,0.4 c -0.2,0.9 -0.5,2.2 0.8,2.6 l 0.5,0.2 c 0,0 0.1,0 0.1,0 0.2,0.1 0.4,0.1 0.7,0 v 0 c 0.2,0.1 0.8,0.3 1.4,0 0.1,0.1 0.3,0.2 0.4,0.2 l 0.4,0.2 c -0.7,1.8 -1.4,3.5 -2.1,5.2 -1.1,-2.4 -2.4,-5.3 -3.8,-8.3 0.2,0 0.4,-0.2 0.5,-0.5 z m 1.4,-4 c 0.3,0.1 0.6,0.1 1,0 0.3,-0.1 0.6,-0.4 0.9,-0.8 -0.1,0.3 -0.2,0.7 -0.2,1.1 -0.4,0.3 -0.7,0.9 -0.9,1.3 v 0 l -1,-0.4 c 0.1,-0.6 0.1,-1 0,-1.3 0,0 0.1,0 0.2,0.1 z m -67.8,31.4 c 0,-0.1 0.1,-0.1 0.1,-0.2 l 6.1,15.4 -3.7,-0.1 -3.2,-8.8 c 0.1,-0.3 0.1,-0.6 0.2,-0.9 0.3,-1.5 0.6,-2.8 0.7,-3.3 0.1,-0.7 0,-1.4 -0.2,-2.1 z M 325.4,304.1 c -0.2,-0.5 0.2,-1.1 0.8,-1.3 0.2,-0.1 0.3,-0.1 0.5,-0.1 0.2,0 0.3,0 0.5,0.1 0.2,0.1 0.4,0.2 0.5,0.5 l 0.5,1.4 -2.3,0.8 z m 13,-4.4 c -0.1,-0.3 0,-0.5 0.1,-0.7 0.2,-0.3 0.4,-0.5 0.8,-0.6 0.1,0 0.3,-0.1 0.4,-0.1 0.2,0 0.4,0 0.5,0.1 0.2,0.1 0.4,0.3 0.5,0.6 l 0.4,1.4 -2.3,0.8 z m 9.5,25.4 c -0.2,0.3 -0.4,0.5 -0.8,0.5 -0.5,0.1 -1,0 -1.3,-0.3 l 2.2,-0.7 c 0,0.2 0,0.3 -0.1,0.5 z m -3.1,-3 -2.1,-7.2 2.3,-0.8 2.1,7.2 z m -3,-10.5 -2.1,-7.2 2.3,-0.8 2.1,7.2 z m -12.4,-3.7 2.7,7 -2.3,0.8 -2.7,-7 z m 3.8,10.2 2.7,7 -2.3,0.8 -2.7,-7 z m 3.8,10.2 c 0,0.4 -0.3,0.8 -0.8,1 -0.5,0.2 -1.1,0.1 -1.3,-0.3 z m 76.8,29.7 c -0.1,0 -0.4,0.1 -0.4,0.1 -0.1,0 -0.2,-0.2 -0.3,-0.3 -0.1,-0.2 -0.2,-0.4 -0.4,-0.5 -0.2,-0.2 -0.4,-0.3 -0.6,-0.4 -0.1,-0.1 -0.3,-0.2 -0.3,-0.3 0,-0.1 0,-0.3 0,-0.4 0,-0.2 0.1,-0.4 0.1,-0.7 0,-0.2 -0.1,-0.5 -0.1,-0.7 0,-0.1 -0.1,-0.4 -0.1,-0.4 0,-0.1 0.2,-0.2 0.3,-0.3 0.2,-0.1 0.4,-0.2 0.5,-0.4 0.2,-0.2 0.3,-0.4 0.4,-0.6 0.1,-0.1 0.2,-0.3 0.3,-0.3 0,0 0,0 0.1,0 0.1,0 0.3,0 0.4,0.1 0.2,0 0.4,0.1 0.7,0.1 0,0 0.1,0 0.1,0 l -0.5,1.4 c -0.1,0.2 -0.1,0.4 0,0.5 0.1,0.2 0.2,0.3 0.4,0.4 l 0.3,0.1 c 0.1,0 0.2,0 0.3,0 0.3,0 0.5,-0.2 0.7,-0.4 l 0.5,-1.4 c 0,0 0,0.1 0.1,0.1 0.2,0.2 0.4,0.3 0.6,0.4 0.1,0.1 0.3,0.2 0.3,0.3 0,0.1 0,0.3 0,0.4 0,0.2 -0.1,0.4 -0.1,0.7 0,0.2 0.1,0.5 0.1,0.7 0,0.1 0.1,0.4 0.1,0.4 0,0.1 -0.2,0.2 -0.3,0.3 -0.2,0.1 -0.4,0.2 -0.5,0.4 -0.2,0.2 -0.3,0.4 -0.4,0.6 -0.1,0.1 -0.2,0.3 -0.3,0.3 -0.1,0 -0.3,0 -0.4,0 -0.2,0 -0.4,-0.1 -0.7,-0.1 -0.4,-0.2 -0.7,-0.2 -0.9,-0.1 z m 5.6,-6.3 c 0.1,-0.2 0.2,-0.4 0.3,-0.6 0.1,-0.2 0.1,-0.5 0.1,-0.7 0,-0.1 0,-0.4 0.1,-0.4 0.1,0 0.3,-0.1 0.4,-0.1 0.2,0 0.4,-0.1 0.6,-0.2 0.2,-0.1 0.4,-0.2 0.6,-0.4 0.1,-0.1 0.3,-0.2 0.4,-0.2 0,0 0,0 0,0 0.1,0 0.3,0.1 0.4,0.2 0.2,0.1 0.4,0.2 0.6,0.3 0.2,0.1 0.5,0.1 0.7,0.1 0.1,0 0.4,0 0.4,0.1 0,0.1 0.1,0.3 0.1,0.4 0.1,0.2 0.1,0.4 0.2,0.6 0,0 0,0.1 0.1,0.1 l -1.5,0.1 c -0.2,0 -0.4,0.1 -0.5,0.2 -0.1,0.1 -0.2,0.3 -0.2,0.5 v 0.3 c 0,0.4 0.3,0.7 0.7,0.7 0,0 0,0 0,0 l 1.5,-0.1 c 0,0 0,0.1 0,0.1 -0.1,0.2 -0.1,0.5 -0.1,0.7 0,0.1 0,0.4 -0.1,0.4 -0.1,0 -0.3,0.1 -0.4,0.1 -0.2,0 -0.4,0.1 -0.6,0.2 -0.2,0.1 -0.4,0.2 -0.5,0.4 -0.1,0.1 -0.3,0.2 -0.4,0.2 -0.1,0 -0.3,-0.1 -0.4,-0.2 -0.2,-0.1 -0.4,-0.2 -0.6,-0.3 -0.2,-0.1 -0.5,-0.1 -0.7,-0.1 -0.1,0 -0.4,0 -0.4,-0.1 0,-0.1 -0.1,-0.3 -0.1,-0.4 -0.1,-0.2 -0.1,-0.4 -0.2,-0.6 -0.1,-0.2 -0.2,-0.4 -0.4,-0.6 -0.1,-0.1 -0.2,-0.3 -0.2,-0.4 -0.1,0 0,-0.2 0.1,-0.3 z m 4.1,-7.4 -12.3,5.5 5.6,-15.4 7.6,9.8 c -0.3,-0.1 -0.6,-0.1 -0.9,0.1 z m -27.9,47.8 c 0.5,-0.3 1,-0.8 1.2,-1.4 0.2,-0.6 0.2,-1.3 0.1,-1.9 l 11.7,-31.8 1.4,3.2 -2.9,6.6 c -0.1,0.2 -0.1,0.4 0,0.5 0,0.1 0.1,0.2 0.1,0.2 0,0 0,0 0,0 l -18.6,43.2 c 0,0 0,0 0,0.1 0,0 0,0 0,0 z m 91.4,16.4 c 0,0 0,0 0,0 z"
           id="XMLID_9_"
           inkscape:connector-curvature="0"
           style="fill:#000000;fill-opacity:0.50447795" />
        <path
           d="m 378.1,396.9 c 0.5,0.6 1.2,1 1.9,1 0.2,0 0.4,0 0.6,-0.1 1.1,-0.3 2.1,-1.4 2.3,-2.7 0,-0.3 0,-0.6 0,-0.8 0,-0.1 0,-0.4 0,-0.4 0.2,-0.5 0.4,-0.9 0.6,-1.4 0.1,-0.2 0.2,-0.4 0.2,-0.5 l 4.1,-9.2 -1.9,8.8 c 0,0.1 0,0.2 0,0.3 0,0.1 0,0.3 -0.1,0.3 -1.2,1.3 -1.9,3.3 -0.7,4.8 0,0.1 0.1,0.1 0.1,0.2 0.5,0.4 1,0.6 1.6,0.6 0.3,0 0.6,-0.1 0.9,-0.2 1,-0.5 1.7,-1.7 1.7,-3 0,-0.3 -0.1,-0.5 -0.2,-0.8 0,-0.1 -0.1,-0.3 -0.1,-0.3 0.1,-0.5 0.2,-0.9 0.3,-1.4 0,-0.2 0.1,-0.4 0.1,-0.5 l 5.8,-23.6 c 0.1,0.1 0.2,0.1 0.3,0.1 0,0 0,0 0.1,0 0.2,0 0.3,-0.1 0.4,-0.2 h 0.2 v -0.1 c 0,-0.1 0,-0.1 0,-0.2 0,-0.1 0,-0.1 0.1,-0.2 v -0.4 0 c 0,-0.4 -0.3,-0.7 -0.6,-0.8 0,0 -0.1,0 -0.1,0 l 0.6,-2.6 14.6,-32.6 c 0.5,-1.1 0.6,-2.2 0.2,-3.1 -0.3,-0.7 -0.8,-1.2 -1.5,-1.4 -0.8,-0.3 -1.8,-0.2 -2.5,0.3 -0.9,0.6 -1.3,1.6 -1.6,2.5 -0.1,0.2 -0.2,0.4 -0.2,0.6 l -2,4.7 0.9,-3.8 c 0.3,-1.1 0.2,-2.2 -0.3,-2.9 -0.4,-0.6 -0.9,-1 -1.7,-1.1 -0.8,-0.2 -1.7,0.1 -2.3,0.7 -0.7,0.7 -0.9,1.7 -1.1,2.6 0,0.2 -0.1,0.4 -0.1,0.6 l -6.5,30.4 -0.1,0.3 c 0,0 0,0 0,0 l -0.2,0.4 -12.3,29.7 c 0,0.1 -0.1,0.2 -0.1,0.3 0,0.1 -0.1,0.3 -0.1,0.4 -1.5,1.1 -2.7,3.1 -1.6,4.8 0.2,-0.3 0.2,-0.2 0.3,-0.1 z"
           id="XMLID_8_"
           inkscape:connector-curvature="0"
           style="fill:#000000;fill-opacity:0.50447795" />
        <path
           d="m 467.6,344.1 c 0.7,0.4 1.5,0.5 2.5,0.5 0.2,0 0.4,0 0.6,0 0.6,0 1.8,-0.2 2.8,-0.8 1,-0.6 1.5,-1.5 1.5,-2.6 -0.1,-2 -2.7,-6.6 -4.8,-6.6 0,0 -0.1,0 -0.1,0 -2.1,0.1 -4,5.4 -3.9,7.1 0,1 0.5,1.9 1.4,2.4 z"
           id="XMLID_7_"
           inkscape:connector-curvature="0"
           style="fill:#000000;fill-opacity:0.50447795" />
        <path
           d="m 465,353.8 c 0.9,0.7 2.2,1.3 3.2,1.3 0.3,0 0.5,0 0.7,-0.1 1.1,-0.5 1.4,-2.3 1.5,-3.8 0.1,-1.4 0,-3.3 -0.4,-4.2 -0.4,-1 -1.2,-1.5 -2.2,-1.7 -0.9,-0.1 -1.9,0.1 -3.1,0.6 -2.5,1.2 -3.5,3 -2.7,4.7 0.5,1.2 1.9,2.5 3,3.2 z"
           id="XMLID_6_"
           inkscape:connector-curvature="0"
           style="fill:#000000;fill-opacity:0.50447795" />
        <path
           d="m 461.2,365.8 c 0,0 0,0 0,0 2,0 6.9,-2.4 6.9,-4.5 0,-2.1 -5.1,-4.3 -6.9,-4.3 0,0 0,0 0,0 -0.9,0 -3.1,0.4 -3.1,4.4 0,2.7 1.2,4.4 3.1,4.4 z"
           id="XMLID_5_"
           inkscape:connector-curvature="0"
           style="fill:#000000;fill-opacity:0.50447795" />
        <path
           d="m 444.3,387 c -0.1,-0.4 -0.3,-0.8 -0.5,-1.2 -1.1,-2.6 -3.2,-4.5 -5.7,-5.6 -2.6,-1 -5.4,-1 -7.9,0.1 -5.1,2.3 -7.4,8.4 -5.1,13.7 0.2,0.4 0.4,0.8 0.6,1.2 0.1,0.2 0.4,0.3 0.6,0.3 0.1,0 0.1,0 0.2,0 6.1,-1.8 12,-4.4 17.4,-7.7 0.4,-0.2 0.5,-0.5 0.4,-0.8 z"
           id="XMLID_4_"
           inkscape:connector-curvature="0"
           style="fill:#000000;fill-opacity:0.50447795" />
        <path
           d="m 432,400.8 c 0.1,0.2 0.3,0.3 0.5,0.3 0.1,0 0.2,0 0.2,0 3.9,-1.3 7.7,-3 11.3,-5 0.3,-0.1 0.4,-0.4 0.4,-0.7 -0.1,-0.9 -0.1,-1.9 0.1,-2.8 0.2,-1 0.3,-2 0.3,-3 0,-0.2 -0.2,-0.5 -0.4,-0.6 -0.2,-0.1 -0.5,-0.1 -0.7,0 -5,3 -10.5,5.4 -16.1,7.1 -0.2,0.1 -0.4,0.3 -0.5,0.5 -0.1,0.2 0,0.5 0.2,0.7 0.7,0.7 1.5,1.3 2.4,1.8 0.9,0.4 1.7,1 2.3,1.7 z"
           id="XMLID_3_"
           inkscape:connector-curvature="0"
           style="fill:#000000;fill-opacity:0.50447795" />
      </g>
    </g>
  </g>
  <g
     inkscape:groupmode="layer"
     id="layer3"
     inkscape:label="Discover"
     style="display:none">
    <text
       xml:space="preserve"
       style="font-style:normal;font-variant:normal;font-weight:normal;font-stretch:normal;line-height:0%;font-family:Museo;-inkscape-font-specification:'Museo, Normal';text-align:start;letter-spacing:0px;word-spacing:0px;writing-mode:lr-tb;text-anchor:start;fill:#ffffff;fill-opacity:1;stroke:none;stroke-width:0.50668812px;stroke-linecap:butt;stroke-linejoin:miter;stroke-opacity:1"
       x="173.85484"
       y="40.767208"
       id="text4147"><tspan
         sodipodi:role="line"
         id="tspan4164"
         x="173.85484"
         y="40.767208"
         style="font-size:20.26743698px;line-height:1.25">DISCOVER:</tspan></text>
  </g>
  <g
     inkscape:label="Interview"
     id="g4209"
     inkscape:groupmode="layer"
     style="display:inline">
    <text
       id="text4211"
       y="53.019234"
       x="175.22334"
       style="font-style:normal;font-variant:normal;font-weight:normal;font-stretch:normal;font-size:10.36680412px;line-height:0%;font-family:Museo;-inkscape-font-specification:'Museo, Normal';text-align:start;letter-spacing:0px;word-spacing:0px;writing-mode:lr-tb;text-anchor:start;fill:#ffffff;fill-opacity:1;stroke:none;stroke-width:0.35754496px;stroke-linecap:butt;stroke-linejoin:miter;stroke-opacity:1"
       xml:space="preserve"><tspan
         id="tspan4213"
         sodipodi:role="line"
         x="175.22334"
         y="53.019234"
         style="font-size:14.30173779px;line-height:1.25;stroke-width:0.35754496px">SHARE:</tspan></text>
  </g>
  <g
     inkscape:groupmode="layer"
     id="layer4"
     inkscape:label="Artist Name"
     style="display:inline">
    <text
       xml:space="preserve"
       style="font-style:normal;font-variant:normal;font-weight:600;font-stretch:normal;font-size:17.34395409px;line-height:0%;font-family:Museo;-inkscape-font-specification:'Museo, Semi-Bold';text-align:start;letter-spacing:0px;word-spacing:0px;writing-mode:lr-tb;text-anchor:start;fill:#ffffff;fill-opacity:1;stroke:none;stroke-width:0.70465994px;stroke-linecap:butt;stroke-linejoin:miter;stroke-opacity:1"
       x="175.50977"
       y="78.655106"
       id="text4158"><tspan
         sodipodi:role="line"
         x="175.50977"
         y="78.655106"
         style="font-style:normal;font-variant:normal;font-weight:600;font-stretch:normal;font-size:28.1866436px;line-height:100%;font-family:Museo;-inkscape-font-specification:'Museo, Semi-Bold';text-align:start;writing-mode:lr-tb;text-anchor:start;fill:#ffffff;fill-opacity:1;stroke-width:0.70465994px"
         id="tspan4628">O Holy</tspan><tspan
         sodipodi:role="line"
         x="175.50977"
         y="106.84175"
         style="font-style:normal;font-variant:normal;font-weight:600;font-stretch:normal;font-size:28.1866436px;line-height:100%;font-family:Museo;-inkscape-font-specification:'Museo, Semi-Bold';text-align:start;writing-mode:lr-tb;text-anchor:start;fill:#ffffff;fill-opacity:1;stroke-width:0.70465994px"
         id="tspan1073">Night in 5/4</tspan></text>
  </g>
  <g
     inkscape:groupmode="layer"
     id="layer21"
     inkscape:label="Artist Picture">
    <g
       id="g1060"
       transform="matrix(0.71427007,0,0,0.71427007,16.94673,1.4215575)">
      <g
         style="display:none"
         transform="translate(0,-32.41665)"
         id="layer1-9"
         inkscape:label="BG">
        <rect
           style="fill:#ffffff;fill-opacity:1;stroke-width:0.26458332"
           y="32.416641"
           x="0"
           height="264.58334"
           width="264.58334"
           id="rect4493" />
      </g>
      <g
         inkscape:label="Sarah"
         id="layer2-3">
        <path
           sodipodi:nodetypes="cssccscc"
           inkscape:connector-curvature="0"
           id="path1210"
           d="m 169.98342,172.64261 c 1.33634,7.75082 3.74177,13.89802 20.84702,19.24341 17.10525,5.34539 48.37578,5.87993 62.54107,24.05426 14.16528,18.17432 16.03618,48.64305 16.03618,48.64305 H -11.171502 c 0,0 2.3516077,-26.19241 13.3096582,-41.96132 10.9580508,-15.7689 87.9316738,-48.64305 93.0097958,-50.24667 5.078118,-1.60361 74.835468,0.26727 74.835468,0.26727 z"
           style="fill:#080404;fill-opacity:1;stroke:#000000;stroke-width:0.26458332px;stroke-linecap:butt;stroke-linejoin:miter;stroke-opacity:1" />
        <path
           inkscape:connector-curvature="0"
           id="path1208"
           d="m 103.72773,174.85521 c -0.57972,5.54577 6.66677,19.75683 27.24677,19.41022 20.58002,-0.3466 36.52227,-18.37039 39.42087,-21.83649 2.89859,-3.46612 8.11605,-12.1314 8.11605,-16.63734 0,-4.50596 -60.00087,6.93222 -74.78369,19.06361 z"
           style="fill:#885a39;fill-opacity:1;stroke:none;stroke-width:0.31378195px;stroke-linecap:butt;stroke-linejoin:miter;stroke-opacity:1" />
        <path
           inkscape:connector-curvature="0"
           id="path1206"
           d="m 89.802561,196.16233 c 4.543581,0.53454 5.345391,3.74177 5.345391,3.74177 0,0 -0.534541,-2.93996 1.603615,-5.61266 2.138157,-2.67269 6.681743,0.26727 6.681743,-8.28535 0,-8.55262 -21.916104,-70.02462 -21.916104,-70.02462 0,0 -1.069078,68.15373 8.285355,80.18086 z"
           style="fill:#190e07;fill-opacity:1;stroke:none;stroke-width:0.26458332px;stroke-linecap:butt;stroke-linejoin:miter;stroke-opacity:1" />
        <path
           sodipodi:nodetypes="csscssc"
           inkscape:connector-curvature="0"
           id="path1130"
           d="M 122.08631,85.522303 C 92.982141,88.92409 73.458182,97.654482 74.839284,138.43897 c 1.338653,39.53094 30.616076,85.04464 44.412206,85.04464 13.79613,0 13.41815,0.37798 20.41071,-4.15774 6.99256,-4.53571 30.99405,-17.57589 35.90774,-36.85267 4.91369,-19.27679 10.20536,-49.3259 3.40178,-73.89435 -6.80357,-24.568451 -47.625,-23.056547 -56.88541,-23.056547 z"
           style="fill:#c8865b;fill-opacity:1;stroke:none;stroke-width:0.26458332px;stroke-linecap:butt;stroke-linejoin:miter;stroke-opacity:1"
           transform="translate(0,-32.41665)" />
        <path
           inkscape:connector-curvature="0"
           id="path1135"
           d="m 120.00744,90.903273 c -1.70089,3.96875 0.56696,21.166667 -0.37798,25.702377 -0.94494,4.53572 -1.5119,10.77232 -1.5119,14.17411 0,3.40179 2.83482,4.7247 2.45684,5.48065 -0.37797,0.75596 2.07887,0.94495 2.83482,1.88989 0.75596,0.94494 3.59078,3.96875 3.40179,6.99256 -0.18899,3.0238 -1.5119,3.40178 -0.94494,4.34672 0.56696,0.94494 1.70089,2.07887 1.32292,2.83482 -0.37798,0.75596 0.18898,3.2128 0.56696,3.77976 0.37798,0.56697 5.29167,-0.94494 4.91369,1.13393 -0.37797,2.07887 -3.2128,5.10268 -3.77976,6.61459 -0.56696,1.5119 3.59077,1.32291 3.77976,3.40178 0.18899,2.07887 -0.18899,6.04762 -2.07887,6.61459 -1.88988,0.56696 -2.07887,4.15773 -0.56696,6.61458 1.5119,2.45684 1.13393,6.04762 2.45684,6.99256 1.32292,0.94494 2.45685,1.88988 6.4256,-0.56697 3.96875,-2.45684 25.51339,-14.93006 29.48214,-25.13541 3.96875,-10.20536 -4.7247,-38.1756 -10.58333,-40.25447 -5.85863,-2.07887 -16.63095,-3.77976 -15.49703,4.34673 1.13393,8.12649 7.37054,13.41815 6.4256,17.19792 -0.94494,3.77976 -2.83482,5.85863 -2.83482,4.15773 0,-1.70089 -0.75595,-4.15773 -5.10268,-6.61458 -4.34673,-2.45684 -5.82502,-5.44908 -6.8941,-5.24863 -1.06908,0.20046 -4.27631,0.93545 -6.81537,0.66818 -2.53906,-0.26727 -5.41221,-0.86863 -4.6104,-1.67044 0.80181,-0.80181 4.6104,-1.9377 6.21402,-1.33634 1.60361,0.60135 3.4745,1.20271 2.80633,1.73725 -0.66818,0.53454 0.4009,0.93544 1.5368,0 1.13589,-0.93544 2.67269,-2.80633 2.00452,-4.81085 -0.66818,-2.00452 -3.80859,-4.07586 -2.53906,-4.07586 1.26953,0 3.27405,2.60588 3.40768,1.5368 0.13364,-1.06908 -3.74177,-15.30118 -5.34539,-18.24115 -1.60362,-2.93996 -6.68173,-6.01356 -5.74629,-7.88445 0.93544,-1.870885 3.4745,-0.4009 3.34087,-3.608139 -0.13364,-3.207234 -2.27179,-7.015824 -3.00679,-4.209495 -0.73499,2.80633 -2.13815,4.610399 -3.07359,2.004523 -0.93545,-2.605878 -0.59452,-4.520133 -2.06792,-4.565266 z"
           style="fill:#deaa87;stroke:none;stroke-width:0.26458332px;stroke-linecap:butt;stroke-linejoin:miter;stroke-opacity:1" />
        <path
           inkscape:connector-curvature="0"
           id="path1137"
           d="m 122.94398,78.697375 c -2.13816,4.075861 -2.47224,7.216277 -1.13589,8.352173 1.33634,1.135896 18.44159,-4.009043 24.25471,-2.472243 5.81311,1.536801 12.36121,7.884451 12.42803,7.015824 0.0668,-0.868624 -1.40317,-8.819893 -4.67722,-13.49711 -3.27405,-4.677217 -5.0113,-11.960312 -9.75534,-14.566188 -4.74403,-2.605879 -23.58653,2.00452 -24.05425,4.610399 -0.46772,2.605878 0.8018,1.336347 5.07812,0.601355 4.27631,-0.734991 14.76664,-1.202711 12.2944,-0.801809 -2.47225,0.400905 -13.56393,1.202714 -13.76439,3.875411 -0.20045,2.672693 1.26954,3.407685 -0.66817,6.882188 z"
           style="fill:#cd9169;fill-opacity:1;stroke:none;stroke-width:0.26458332px;stroke-linecap:butt;stroke-linejoin:miter;stroke-opacity:1" />
        <path
           inkscape:connector-curvature="0"
           id="path1141"
           d="m 126.68576,92.461756 c 2.40542,0.267269 4.07585,1.202714 7.01582,-0.267269 2.93996,-1.469982 8.15172,-3.608138 13.8312,-2.939965 5.67948,0.668173 12.29439,3.80859 12.09394,5.211755 -0.20045,1.403167 -0.4009,3.87541 -2.20497,3.006783 -1.80407,-0.868627 -7.61718,-6.414469 -13.36348,-5.078122 -5.74629,1.336347 -9.75534,3.34087 -8.81989,3.674957 0.93544,0.334087 1.80407,0.334087 0.0668,1.135896 -1.73725,0.801809 -8.41899,2.405425 -7.88445,4.610399 0.53453,2.20497 1.73725,5.54584 3.34086,6.41447 1.60362,0.86863 0.80181,3.0736 2.6727,4.14267 1.87089,1.06909 8.75308,2.13816 14.96709,1.80407 6.21402,-0.33408 8.88671,-5.87992 9.15399,-7.08264 0.26726,-1.20271 -2.33861,-5.67947 -6.34766,-7.550362 -4.00904,-1.870887 -6.88219,-3.140416 -9.48806,-2.271789 -2.60588,0.868624 -2.33861,-0.734992 -0.13364,-1.135896 2.20497,-0.400905 6.94901,-0.801809 10.55715,1.603616 3.60814,2.405431 9.95579,7.750821 10.49032,6.681741 0.53454,-1.06908 -2.73951,-5.078123 -0.66817,-4.877672 2.07134,0.200454 3.54132,-1.603616 3.87541,-0.06682 0.33409,1.536802 5.14494,13.363482 5.67948,17.238882 0.53454,3.87541 2.00452,6.34766 2.00452,3.60814 0,-2.73951 -4.74404,-17.43933 -3.87541,-16.70434 0.86863,0.73499 4.6104,11.55941 5.27857,18.37478 0.66818,6.81537 2.00453,22.04973 1.33635,24.05426 -0.66817,2.00452 -3.74177,-20.11203 -4.40995,-22.98518 -0.66817,-2.87315 -3.27405,-11.15851 -4.67721,-11.8935 -1.40317,-0.73499 -3.54132,2.6727 -9.2208,4.87767 -5.67948,2.20498 -16.10299,4.87767 -22.51746,-0.46772 -6.41447,-5.34539 -11.29214,-11.69304 -11.22532,-13.96483 0.0668,-2.271795 0.0668,-8.819899 2.47225,-9.153986 z"
           style="fill:#cd9169;fill-opacity:1;stroke:none;stroke-width:0.26458332px;stroke-linecap:butt;stroke-linejoin:miter;stroke-opacity:1" />
        <path
           inkscape:connector-curvature="0"
           id="path1147"
           d="m 157.15448,103.48662 c -2.07134,1.26954 -3.74177,1.20272 -5.21176,1.80407 -1.46998,0.60136 -5.14493,2.07134 -9.22079,2.20498 -4.07587,0.13363 -9.15398,-0.93545 -9.2208,-1.33635 -0.0668,-0.4009 0.46772,-3.34087 2.00452,-5.07812 1.5368,-1.737253 4.14268,-3.674958 6.81537,-3.808591 2.6727,-0.133636 6.08038,1.069078 8.41899,2.672694 2.33861,1.603617 5.61266,2.071337 5.61266,2.071337 0,0 -0.93544,0.20045 -1.33634,0.20045 -0.40091,0 0.60135,0.46773 1.33634,0.33409 0.73499,-0.13363 1.06908,-0.33409 1.06908,-0.33409 0,0 -0.13364,0.60136 -0.86863,0.735 -0.73499,0.13363 -1.00226,0.20045 -1.00226,0.20045 0,0 0.93545,0.60135 1.60362,0.33408 z"
           style="fill:#1a1a1a;stroke:none;stroke-width:0.26458332px;stroke-linecap:butt;stroke-linejoin:miter;stroke-opacity:1" />
        <path
           inkscape:connector-curvature="0"
           id="path1139"
           d="m 131.0957,111.43789 c 3.60814,3.74178 12.49485,6.74856 19.17659,6.21402 6.68174,-0.53454 10.62396,-5.0113 12.09395,-3.80859 1.46998,1.20271 6.5481,14.2321 6.5481,19.9784 0,5.74629 0.0668,8.0849 -0.80181,6.41446 -0.86862,-1.67043 -5.94675,-17.77342 -11.75986,-18.24114 -5.81311,-0.46772 -13.22984,-1.46998 -13.63074,2.20497 -0.40091,3.67496 7.14946,16.23663 6.48128,17.63979 -0.66817,1.40316 -0.26727,1.87089 -2.40542,-2.33861 -2.13816,-4.20949 -4.47677,-9.35443 -8.21854,-10.82441 -3.74177,-1.46999 -7.34991,-12.56167 -7.48355,-17.23889 z"
           style="fill:#deaa87;fill-opacity:1;stroke:none;stroke-width:0.26458332px;stroke-linecap:butt;stroke-linejoin:miter;stroke-opacity:1" />
        <path
           inkscape:connector-curvature="0"
           id="path1143"
           d="m 135.97337,105.89205 c -0.13363,-1.60362 1.40317,-5.67948 5.54584,-6.013565 4.14268,-0.334087 10.55715,2.873145 10.49033,3.808595 -0.0668,0.93544 -4.14267,3.20723 -9.08716,3.27405 -4.94449,0.0668 -6.41447,-0.40091 -6.94901,-1.06908 z"
           style="fill:#e3e2db;stroke:none;stroke-width:0.26458332px;stroke-linecap:butt;stroke-linejoin:miter;stroke-opacity:1" />
        <path
           id="circle1151"
           transform="scale(0.26458333)"
           d="m 537.9043,377.4082 c -1.03759,-0.0203 -2.05071,0.007 -3.0293,0.0859 -6.80629,0.54889 -11.74858,3.76994 -15.12305,7.73438 a 19.445437,19.445437 0 0 0 -0.0293,0.5996 19.445437,19.445437 0 0 0 13.26757,18.41797 c 2.15724,0.0424 4.52679,0.0516 7.18946,0.0156 2.13208,-0.0288 4.21319,-0.17841 6.24219,-0.4043 a 19.445437,19.445437 0 0 0 12.19335,-18.0293 19.445437,19.445437 0 0 0 -0.41796,-3.90624 c -6.46466,-2.4537 -13.86147,-4.38794 -20.29297,-4.51368 z"
           style="fill:#242e42;fill-opacity:1;stroke:none;stroke-width:2.57070851;stroke-linecap:round;stroke-miterlimit:4;stroke-dasharray:none;stroke-opacity:1"
           inkscape:connector-curvature="0" />
        <path
           inkscape:connector-curvature="0"
           id="path1145"
           d="m 127.75483,90.524051 c -0.20045,-1.403165 1.33635,-3.140416 3.27406,-3.474503 1.9377,-0.334087 11.42577,-1.804069 14.36573,-1.202714 2.93997,0.601358 11.96031,5.011304 11.62623,5.946749 -0.33409,0.935442 -1.26953,0.534537 -1.46999,0.467722 -0.20045,-0.06682 -7.28309,-3.741774 -10.35669,-3.808592 -3.0736,-0.06682 -16.37026,3.541321 -17.43934,2.071338 z"
           style="fill:#482727;fill-opacity:1;stroke:none;stroke-width:0.26458332px;stroke-linecap:butt;stroke-linejoin:miter;stroke-opacity:1" />
        <circle
           r="2.0045214"
           cy="101.94983"
           cx="142.65512"
           id="path1149"
           style="fill:#110409;fill-opacity:1;stroke:none;stroke-width:0.26499999;stroke-linecap:round;stroke-miterlimit:4;stroke-dasharray:none;stroke-opacity:1" />
        <path
           inkscape:connector-curvature="0"
           id="path1159"
           d="m 106.84099,67.538874 c -4.67721,5.81311 -10.62396,15.969353 -10.62396,18.976136 0,3.006781 -0.400905,2.939963 1.00226,2.873148 1.403165,-0.06682 7.08264,-1.202714 8.41899,-0.200454 1.33635,1.00226 2.47224,4.810853 1.33635,4.810853 -1.1359,0 -9.087167,-0.200454 -10.824418,0 -1.737252,0.200451 9.755338,0.801806 12.227578,1.536798 2.47225,0.734991 7.14946,5.144935 7.08264,8.084905 -0.0668,2.93996 -1.60361,13.76438 -2.3386,16.43707 -0.73499,2.6727 -1.00227,-2.00452 -0.60136,-4.81085 0.4009,-2.80633 0.26727,-6.41447 -0.40091,-5.54584 -0.66817,0.86863 -3.74177,5.07812 -6.48128,6.41447 -2.73951,1.33635 -13.430294,-1.87089 -16.236623,0.80181 -2.80633,2.67269 -4.075861,10.7576 -3.006783,16.57071 1.069078,5.81311 10.356693,21.9161 12.160763,21.5152 1.804073,-0.40091 4.409943,-19.37704 6.614923,-23.45291 2.20497,-4.07586 3.60814,-5.74629 3.40768,-5.0113 -0.20045,0.73499 -1.67043,5.07812 -1.40316,7.2831 0.26727,2.20497 0.93544,2.20497 1.33635,1.20271 0.4009,-1.00226 1.40316,-2.47225 2.80633,-2.80633 1.40316,-0.33409 3.20723,1.46998 4.27631,1.80407 1.06908,0.33408 3.40769,1.06908 3.74177,2.20497 0.33409,1.1359 -0.93544,1.46998 0.46772,2.00452 1.40317,0.53454 3.00679,1.40317 3.0736,2.73952 0.0668,1.33634 -0.93544,1.87088 -2.47224,1.80406 -1.5368,-0.0668 -2.53906,-1.5368 -4.00904,-0.86862 -1.46999,0.66817 -0.53454,-2.87315 -1.73725,-2.6727 -1.20272,0.20046 -4.2095,1.67044 -5.34539,1.06908 -1.1359,-0.60136 -2.2718,-1.67043 -2.87315,0.0668 -0.60136,1.73725 -4.47677,13.76438 -5.94675,15.10073 -1.469981,1.33635 1.73725,12.76212 4.74404,15.63526 3.00678,2.87315 4.40994,3.94223 4.27631,6.54811 -0.13364,2.60587 2.40542,7.88445 6.61492,9.48807 4.20949,1.60361 6.1472,-2.6727 8.95353,-2.40543 2.80633,0.26727 5.74629,3.0736 5.47902,4.40995 -0.26727,1.33635 -2.00452,2.13815 -5.41221,1.80407 -3.40768,-0.33409 -8.01808,0.20045 -14.90027,-6.88219 -6.88219,-7.08265 -16.437078,-17.10525 -19.644312,-25.52424 -3.207234,-8.41899 -7.550364,-23.65336 -6.614919,-36.14821 0.935442,-12.49485 3.00678,-33.60914 9.955789,-43.965834 6.949012,-10.356694 9.688522,-11.559408 12.895752,-10.891232 z"
           style="fill:#bc7c50;fill-opacity:1;stroke:none;stroke-width:0.26458332px;stroke-linecap:butt;stroke-linejoin:miter;stroke-opacity:1" />
        <path
           style="fill:#482727;fill-opacity:1;stroke:none;stroke-width:0.26458332px;stroke-linecap:butt;stroke-linejoin:miter;stroke-opacity:1"
           d="m 106.60836,91.547774 c -0.1421,-1.41027 -2.05079,-2.728055 -4.01206,-2.587468 -1.96126,0.140584 -11.52488,0.990013 -14.234681,2.279187 -2.70981,1.289179 -10.40859,7.734563 -9.859826,8.56253 0.548772,0.827957 1.360698,0.214327 1.539272,0.10136 0.178563,-0.11296 6.172588,-5.379907 9.140377,-6.182222 2.967789,-0.802317 16.741758,-0.489837 17.426918,-2.173387 z"
           id="path1204"
           inkscape:connector-curvature="0" />
        <path
           style="fill:#1a1a1a;stroke:none;stroke-width:0.26458332px;stroke-linecap:butt;stroke-linejoin:miter;stroke-opacity:1"
           d="m 86.487603,110.20814 c 2.288116,0.81652 3.909116,0.40767 5.471342,0.69392 1.562219,0.28627 5.460895,0.96922 9.477145,0.26196 4.01626,-0.70728 8.76605,-2.79764 8.74901,-3.20371 -0.0171,-0.40607 -1.14465,-3.17332 -3.00582,-4.55747 -1.86116,-1.38415 -4.80978,-2.74465 -7.45284,-2.32588 -2.643069,0.41875 -5.730646,2.29643 -7.689563,4.34663 -1.958917,2.05021 -5.066843,3.18112 -5.066843,3.18112 0,0 0.956668,0.004 1.349002,-0.0786 0.392344,-0.0824 -0.49233,0.58138 -1.239094,0.60172 -0.746761,0.0203 -1.11493,-0.10714 -1.11493,-0.10714 0,0 0.254432,0.56104 1.001196,0.5407 0.746761,-0.0204 1.02206,-0.01 1.02206,-0.01 0,0 -0.791818,0.78084 -1.500665,0.65666 z"
           id="path1187"
           inkscape:connector-curvature="0" />
        <path
           inkscape:connector-curvature="0"
           id="path1153"
           d="m 93.87842,110.76972 c 2.672696,0.26727 7.75082,-0.20045 9.88897,-0.60136 2.13816,-0.4009 4.2095,-2.00452 4.14268,-2.73951 -0.0668,-0.73499 -3.54132,-4.00904 -7.951268,-3.94223 -4.409946,0.0668 -7.817634,4.54359 -7.884451,5.21176 -0.06682,0.66817 0.868627,1.9377 1.804069,2.07134 z"
           style="fill:#e3e2db;stroke:none;stroke-width:0.26458332px;stroke-linecap:butt;stroke-linejoin:miter;stroke-opacity:1" />
        <path
           id="circle1155"
           transform="scale(0.26458333)"
           d="m 377.79688,391.13086 c -9.82544,0.14883 -18.30744,6.08527 -23.68946,11.45508 a 19.445437,19.445437 0 0 0 11.30274,16.30468 c 6.19477,-0.15579 13.01245,-0.68342 18.66015,-1.33789 a 19.445437,19.445437 0 0 0 8.87891,-16.32031 19.445437,19.445437 0 0 0 -1.56055,-7.57812 c -4.06623,-1.55669 -8.66734,-2.59805 -13.59179,-2.52344 z"
           style="fill:#242e42;fill-opacity:1;stroke:none;stroke-width:2.57070851;stroke-linecap:round;stroke-miterlimit:4;stroke-dasharray:none;stroke-opacity:1"
           inkscape:connector-curvature="0" />
        <circle
           style="fill:#110409;fill-opacity:1;stroke:none;stroke-width:0.26499999;stroke-linecap:round;stroke-miterlimit:4;stroke-dasharray:none;stroke-opacity:1"
           id="circle1157"
           cx="98.822922"
           cy="106.02569"
           r="2.0045214" />
        <path
           inkscape:connector-curvature="0"
           id="path1165"
           d="m 106.30645,157.54189 c 1.26953,-3.8086 4.34313,-8.95353 9.28762,-8.75308 4.94449,0.20045 5.81311,0.66817 9.68852,-0.33409 3.87541,-1.00226 4.20949,-1.60362 7.41673,-0.93544 3.20723,0.66817 8.61944,2.53906 9.48807,4.47676 0.86862,1.93771 0.86862,1.67044 0.4009,2.13816 -0.46772,0.46772 -10.15624,9.88897 -16.83798,10.15624 -6.68174,0.26727 -11.42577,-0.73499 -15.30118,-3.27405 -3.87541,-2.53906 -3.94222,-3.00678 -4.14268,-3.4745 z"
           style="fill:#4a1414;fill-opacity:1;stroke:none;stroke-width:0.26458332px;stroke-linecap:butt;stroke-linejoin:miter;stroke-opacity:1" />
        <path
           sodipodi:nodetypes="cssssscccccscssssssccscscccscssscccscssccsssc"
           inkscape:connector-curvature="0"
           id="path1128"
           d="m 138.52827,59.441948 c -4.7247,-2.456846 -19.46577,-7.748513 -41.38839,7.181546 -21.92262,14.930059 -30.238096,46.491076 -39.687499,55.751486 -9.449406,9.26042 -7.9375,26.45834 -11.90625,30.42709 -3.96875,3.96875 4.157737,15.68601 2.83482,22.67857 -1.322917,6.99256 -4.913691,8.88244 -4.157737,14.55208 0.755952,5.66964 10.77232,15.30804 9.827379,19.65476 -0.944938,4.34673 -4.535712,6.23661 -4.535712,6.23661 0,0 3.401785,-1.13393 4.913691,-1.70089 1.511903,-0.56697 -0.566965,7.9375 -0.566965,7.9375 0,0 -0.755952,-0.75596 2.456844,-0.18899 3.212798,0.56696 16.441965,14.55208 25.513392,15.68601 9.07143,1.13393 13.607145,-1.13393 13.607145,-1.13393 0,0 -5.977207,-19.92108 -8.056075,-27.29162 -2.078869,-7.37053 -4.209159,-44.5887 -4.228153,-54.54022 -0.01733,-9.08125 4.535715,-36.28572 8.315478,-42.9003 3.779761,-6.61458 11.150292,-15.686014 17.197912,-15.686014 6.04762,0 12.85119,-2.267855 21.35566,-5.291667 8.50446,-3.023809 18.70982,2.834823 20.5997,9.07143 1.88988,6.236611 15.875,13.796131 18.14286,17.575891 2.26785,3.77976 1.70089,24.94643 8.12649,34.39583 6.42559,9.44941 -5.66965,31.93899 -6.80358,48.56994 -1.13392,16.63096 4.53572,17.5759 4.15774,26.26935 -0.37797,8.69345 -5.48065,11.71726 1.32292,18.89881 6.80357,7.18155 12.85119,5.66964 12.85119,5.66964 0,0 -13.04018,-4.53571 -11.33929,-13.60714 1.7009,-9.07143 3.96875,-8.12649 4.53572,-2.64583 0.56696,5.48065 3.59077,14.1741 11.90625,14.36309 8.31547,0.18899 9.26041,-2.26786 9.26041,-2.26786 0,0 -7.18154,2.64584 -8.31547,-2.07887 -1.13393,-4.7247 0.56696,-5.85863 4.7247,-2.64583 4.15774,3.2128 11.52827,6.99256 16.63095,4.91369 5.10268,-2.07887 5.66965,-6.61458 5.66965,-6.61458 0,0 -5.48066,5.85863 -6.80358,-0.37798 -1.32291,-6.2366 5.10268,-4.91369 5.10268,-4.91369 0,0 -5.10268,-2.64583 -0.56696,-5.10268 4.53571,-2.45684 7.37053,3.96875 7.37053,3.96875 0,0 0.37798,-5.66964 -5.29166,-8.69345 -5.66965,-3.02381 -12.66221,-11.1503 -8.31548,-13.98512 4.34673,-2.83482 4.91369,8.50447 4.91369,8.50447 0,0 4.15774,-8.69346 1.88988,-17.19792 -2.26785,-8.50446 6.61459,-16.81994 3.02381,-37.23065 -3.59077,-20.41072 -10.39434,-23.24554 -14.74107,-41.01042 C 203.72916,106.87796 195.60268,80.98659 169.52232,66.056531 143.44196,51.126471 142.875,56.985102 138.52827,59.441948 Z"
           style="fill:#28170b;stroke:none;stroke-width:0.26458332px;stroke-linecap:butt;stroke-linejoin:miter;stroke-opacity:1"
           transform="translate(0,-32.41665)" />
        <path
           inkscape:connector-curvature="0"
           id="path1167"
           d="m 109.71414,157.07416 c 0.73499,-0.8018 4.47677,-4.34313 7.75081,-4.67721 3.27406,-0.33409 4.74404,0.66817 7.2831,-0.13364 2.53906,-0.80181 4.20949,-1.13589 6.74856,-0.73499 2.53906,0.4009 5.54584,1.87089 5.07812,2.33861 -0.46773,0.46772 -3.67496,1.60362 -6.28084,2.33861 -2.60587,0.73499 -4.40994,1.80407 -6.1472,1.9377 -1.73725,0.13364 -7.61718,-0.33408 -10.42351,-0.60135 -2.80633,-0.26727 -4.00904,-0.0668 -4.00904,-0.46773 z"
           style="fill:#501616;stroke:none;stroke-width:0.26458332px;stroke-linecap:butt;stroke-linejoin:miter;stroke-opacity:1" />
        <path
           inkscape:connector-curvature="0"
           id="path1169"
           d="m 116.26224,148.92244 c -0.66817,0.46772 3.67496,2.47225 7.34991,1.80407 3.67496,-0.66817 4.94449,-1.06907 6.94901,-1.06907 2.00452,0 5.47903,2.93996 7.55037,3.14041 2.07134,0.20045 4.47676,0.46772 4.07586,-0.0668 -0.40091,-0.53454 -0.40091,-1.80407 -4.81085,-3.27405 -4.40995,-1.46998 -6.88219,-2.40542 -9.15399,-1.67043 -2.27179,0.73499 -4.34312,1.5368 -6.48128,1.60361 -2.13816,0.0668 -5.07812,-0.20045 -5.47903,-0.46772 z"
           style="fill:#782121;stroke:none;stroke-width:0.26458332px;stroke-linecap:butt;stroke-linejoin:miter;stroke-opacity:1" />
        <path
           id="path1183"
           transform="scale(0.26458333)"
           d="m 488.75977,572.06836 c -5.62774,0.0841 -10.67393,1.33062 -17.27149,3.41406 -9.59645,3.03046 -15.15099,-0.75684 -27.52539,0.50586 -6.80629,0.69451 -14.13741,5.05669 -19.82812,9.3457 -0.7094,1.04423 -1.13282,1.76563 -1.13282,1.76563 0,0 16.41444,1.76852 17.92969,0.50586 1.51521,-1.2627 2.5256,-0.50604 3.2832,1.26172 0.75765,1.7678 16.16273,0.2537 18.43555,-0.50391 2.27286,-0.75757 2.77696,-1.26346 3.78711,-0.50586 1.01015,0.75765 20.45528,-3.0303 21.21289,-4.29297 0.75764,-1.2627 1.51563,-3.2832 1.51563,-3.2832 0,0 1.76815,0.25237 4.04101,1.76758 2.27282,1.51525 8.93668,-0.61943 15.36524,-3.47656 0,0 0.44078,-1.03084 0.35351,-2.39063 -3.55349,-1.48477 -7.89455,-2.83913 -11.93164,-3.47656 -2.9989,-0.47351 -5.67631,-0.67495 -8.23437,-0.63672 z"
           style="fill:#c8beb7;stroke:none;stroke-width:0.99999994px;stroke-linecap:butt;stroke-linejoin:miter;stroke-opacity:1"
           inkscape:connector-curvature="0" />
        <path
           inkscape:connector-curvature="0"
           id="path1171"
           d="m 108.51143,158.87823 c 1.60361,-0.53454 4.6104,-1.06907 7.34991,-0.73499 2.73951,0.33409 6.28083,2.27179 9.02035,1.73725 2.73951,-0.53454 4.34313,-2.20497 7.81763,-3.67495 3.4745,-1.46999 5.21175,-1.46999 6.1472,-1.5368 0.93544,-0.0668 3.00678,-1.1359 2.73951,-0.73499 -0.26727,0.4009 -2.67269,3.54132 -7.14946,5.94674 -4.47676,2.40543 -6.48129,2.07134 -8.21854,1.73726 -1.73725,-0.33409 -2.87314,0.26726 -4.54358,0.86862 -1.67043,0.60136 -5.47902,0.66818 -7.81763,-0.60136 -2.33861,-1.26952 -5.54585,-2.60587 -5.34539,-3.00678 z"
           style="fill:#782121;stroke:none;stroke-width:0.26458332px;stroke-linecap:butt;stroke-linejoin:miter;stroke-opacity:1" />
        <path
           inkscape:connector-curvature="0"
           id="path1185"
           d="m 123.21125,154.26783 c 0,0 0.60136,0.60136 1.67044,0.0668 1.06907,-0.53454 3.60813,-2.53906 4.00904,-2.13816 0.4009,0.40091 1.00226,0.66818 1.00226,0.66818 0,0 0.33409,0.13363 1.87089,0 1.53679,-0.13364 2.27179,-0.20045 2.13815,0 -0.13363,0.20045 -1.9377,1.13589 -3.14042,0.93544 -1.20271,-0.20045 -1.53679,-0.73499 -1.60361,-0.4009 -0.0668,0.33408 0,0.60135 -1.20272,1.00226 -1.20271,0.4009 -3.74177,0.93544 -4.14267,0.66817 -0.40091,-0.26727 -0.60136,-0.80181 -0.60136,-0.80181 z"
           style="fill:#e3dedb;stroke:none;stroke-width:0.26458332px;stroke-linecap:butt;stroke-linejoin:miter;stroke-opacity:1" />
        <path
           inkscape:connector-curvature="0"
           id="path1161"
           d="m 122.87716,166.83972 c 0.0668,-0.66817 2.80633,-1.67043 4.54359,-1.20271 1.73725,0.46772 2.67269,1.5368 2.07133,1.73725 -0.60135,0.20045 -5.21175,0.13364 -6.61492,-0.53454 z"
           style="display:inline;fill:#492626;fill-opacity:1;stroke:none;stroke-width:0.26458332px;stroke-linecap:butt;stroke-linejoin:miter;stroke-opacity:1"
           transform="translate(0,-32.41665)" />
        <path
           inkscape:connector-curvature="0"
           id="path1163"
           d="m 106.84099,163.23158 c -0.80181,0.66818 -1.80407,4.14268 -0.4009,5.87993 1.40316,1.73725 9.48807,0.93545 8.61944,0.26727 -0.86862,-0.66817 -3.74177,-2.87315 -4.67722,-1.73725 -0.93544,1.1359 -0.46772,1.80407 -1.5368,1.67043 -1.06908,-0.13363 -2.27179,-0.86862 -2.27179,-2.47224 0,-1.60362 0,-2.73951 0.26727,-3.60814 z"
           style="display:inline;fill:#492626;fill-opacity:1;stroke:none;stroke-width:0.26458332px;stroke-linecap:butt;stroke-linejoin:miter;stroke-opacity:1"
           transform="translate(0,-32.41665)" />
        <circle
           r="0.76839983"
           cy="104.72275"
           cx="100.72721"
           id="circle1191"
           style="fill:#eae1e5;fill-opacity:1;stroke:none;stroke-width:0.10158333;stroke-linecap:round;stroke-miterlimit:4;stroke-dasharray:none;stroke-opacity:1" />
        <circle
           style="fill:#eae1e5;fill-opacity:1;stroke:none;stroke-width:0.10158333;stroke-linecap:round;stroke-miterlimit:4;stroke-dasharray:none;stroke-opacity:1"
           id="circle1193"
           cx="144.29214"
           cy="101.04779"
           r="0.76839983" />
        <path
           inkscape:connector-curvature="0"
           id="path1173"
           d="m 113.58184,58.964284 c -0.75595,-3.96875 -2.07887,-5.291666 -5.85863,-2.267857 -3.77976,3.023809 -16.819937,19.276787 -19.843746,29.104166 -3.023809,9.827382 -7.370538,14.174107 -7.370538,14.174107 0,0 5.669645,-9.071427 7.748514,-18.520833 2.078868,-9.449403 12.85119,-30.427083 22.86756,-33.072916 10.01637,-2.645833 12.09524,6.614583 12.09524,6.614583 0,0 -2.07887,-3.77976 -6.04762,-4.346725 -3.96875,-0.566966 -8.50447,3.77976 -8.50447,3.77976 0,0 5.66965,-1.511903 4.91369,4.535715 z"
           style="fill:#502d16;stroke:none;stroke-width:0.26458332px;stroke-linecap:butt;stroke-linejoin:miter;stroke-opacity:1" />
        <path
           inkscape:connector-curvature="0"
           id="path1175"
           d="m 131.91369,53.105653 c 2.07887,-5.669643 5.10268,-11.150296 3.59077,-16.441963 -1.5119,-5.291666 -9.82738,-11.150298 -18.89881,-9.07143 -9.07143,2.078871 -22.867557,6.992559 -29.671127,17.00893 -6.803572,10.016368 -13.04018,23.8125 -13.04018,23.8125 0,0 10.772323,-19.087798 19.087798,-26.269346 8.315479,-7.181546 28.348219,-12.851191 32.694939,-10.016369 4.34673,2.834823 6.80357,3.779761 6.61458,10.205358 -0.18898,6.425594 -0.37797,10.77232 -0.37797,10.77232 z"
           style="fill:#502d16;stroke:none;stroke-width:0.26458332px;stroke-linecap:butt;stroke-linejoin:miter;stroke-opacity:1" />
        <path
           inkscape:connector-curvature="0"
           id="path1177"
           d="m 133.61458,52.727677 c 2.26786,-13.985118 1.51191,-23.8125 6.99256,-25.891368 5.48066,-2.078869 12.28423,-2.645833 17.00893,0.377976 4.7247,3.023809 8.88244,6.803572 8.88244,6.803572 0,0 -10.20536,-8.504465 -18.70982,-5.669642 -8.50447,2.83482 -8.88244,8.315475 -8.88244,8.315475 0,0 3.96875,-6.04762 13.41815,-5.480655 9.44941,0.566965 16.44197,5.291666 24.19048,11.528274 7.74851,6.236607 19.65476,19.276784 23.24553,28.159225 3.59078,8.882441 10.77233,31.372026 10.77233,31.372026 0,0 -0.37798,-2.456846 -11.52828,-14.552085 -11.1503,-12.095239 -22.1116,-23.245535 -20.97768,-29.860118 1.13393,-6.614583 0.94494,-9.638393 -7.55952,-13.418156 -8.50446,-3.779761 -16.06399,-9.260416 -25.51339,-3.779761 -9.44941,5.480654 -11.33929,12.095237 -11.33929,12.095237 z"
           style="fill:#502d16;stroke:none;stroke-width:0.26458332px;stroke-linecap:butt;stroke-linejoin:miter;stroke-opacity:1" />
        <path
           inkscape:connector-curvature="0"
           id="path1179"
           d="m 154.78125,58.019343 c 0,0 3.77976,-5.291666 13.04018,-0.566962 9.26041,4.724702 21.54464,44.979169 29.29315,57.263389 7.74851,12.28423 11.1503,16.63095 11.33929,33.26191 0.18898,16.63095 -4.72471,17.19791 -4.72471,17.19791 0,0 5.10268,-8.12648 0.56697,-13.79613 -4.53572,-5.66964 -19.0878,-8.69345 -28.34822,-39.6875 -9.26041,-30.994044 -10.01636,-44.790176 -10.01636,-44.790176 0,0 1.5119,5.480656 2.64583,9.260417 1.13393,3.779763 3.40178,-7.370535 -1.13393,-12.662202 -4.53571,-5.291666 -12.6622,-5.480656 -12.6622,-5.480656 z"
           style="fill:#5f361a;fill-opacity:1;stroke:none;stroke-width:0.26458332px;stroke-linecap:butt;stroke-linejoin:miter;stroke-opacity:1" />
        <path
           inkscape:connector-curvature="0"
           id="path1181"
           d="m 186.72024,179.3497 c -4.72471,5.48066 -11.52828,10.58333 -11.90625,17.38691 -0.37798,6.80356 2.64583,12.85119 2.64583,12.85119 0,0 -4.53571,-10.77233 1.88988,-15.11905 6.4256,-4.34673 1.70089,5.85863 4.34673,13.79613 2.64583,7.9375 7.55952,8.69345 7.55952,8.69345 0,0 -9.26042,-6.42559 -6.04762,-13.60714 3.2128,-7.18155 3.02381,5.85863 17.00893,10.77232 13.98512,4.91369 15.68601,-2.45685 15.68601,-2.45685 0,0 -10.58333,2.07887 -12.85119,-5.48065 -2.26786,-7.55952 2.07887,-3.2128 4.34673,-1.13393 2.26785,2.07887 4.15774,0.94494 4.15774,0.94494 0,0 -7.74852,-1.5119 -6.99256,-13.22916 0.75595,-11.71727 5.85863,-16.06399 8.12648,-15.49703 2.26786,0.56697 3.40179,4.34673 3.40179,4.34673 0,0 1.5119,-3.02381 0,-8.31548 -1.51191,-5.29167 -5.85863,-8.69345 -3.96875,-13.22917 1.88988,-4.53571 2.83482,-7.18154 2.83482,-7.18154 0,0 -4.7247,8.88244 -7.74851,15.49702 -3.02381,6.61458 -22.67857,18.14286 -22.67857,18.14286 0,0 4.15774,-4.7247 0.18899,-7.18155 z"
           style="fill:#502d16;stroke:none;stroke-width:0.26458332px;stroke-linecap:butt;stroke-linejoin:miter;stroke-opacity:1" />
      </g>
    </g>
  </g>
  <g
     inkscape:groupmode="layer"
     id="layer6"
     inkscape:label="WEIRD"
     style="display:none">
    <path
       style="opacity:1;fill:#ffffff;fill-opacity:1;stroke:none;stroke-width:17.2258606;stroke-miterlimit:4;stroke-dasharray:none;stroke-opacity:1"
       d="m 245.3457,602.625 0,70 250,0 0,-70 -250,0 z m 8.86133,10.875 3.87695,0 c 3.39947,0 5.09819,0.67987 5.91407,3.94336 l 7.41015,30.86719 c 0.61191,2.58359 0.95313,5.09961 0.95313,5.09961 l 0.13476,0 c 0,0 0.40837,-2.44803 1.15625,-5.09961 l 9.6543,-34.67578 6.11914,0 8.97461,34.67578 c 0.67989,2.65158 1.01953,5.09961 1.01953,5.09961 l 0.13672,0 c 0,0 0.27286,-2.51602 0.88477,-5.09961 l 7.54687,-30.86719 c 0.81587,-3.26349 2.44624,-3.94336 5.8457,-3.94336 l 3.875,0 0,5.8457 -1.01953,0 c -1.2238,0 -1.9706,0.27229 -2.31054,1.4961 l -10.53907,40.6582 -7.88672,0 -8.1582,-30.32227 c -0.81587,-3.12751 -1.35937,-6.5957 -1.35937,-6.5957 l -0.13672,0 c 0,0 -0.68059,3.46782 -1.56445,6.52735 L 276.0332,661.5 l -7.95508,0 -10.53906,-40.6582 c -0.33994,-1.22381 -1.08674,-1.4961 -2.31054,-1.4961 l -1.02149,0 0,-5.8457 z m 72.29297,0 28.2168,0 c 3.05952,0 4.34961,1.29204 4.34961,4.35156 l 0,6.05078 -6.18555,0 0,-3.06054 c 0,-1.01984 -0.54424,-1.4961 -1.49609,-1.4961 l -13.66602,0 0,15.02735 16.79297,0 0,5.8457 -16.79297,0 0,13.9375 c 0,0.95185 0.54424,1.49609 1.49609,1.49609 l 14.00586,0 c 0.95185,0 1.4961,-0.54424 1.4961,-1.49609 l 0,-3.05859 6.2539,0 0,6.05078 c 0,3.05952 -1.29204,4.35156 -4.35156,4.35156 l -21.34766,0 c -3.05952,0 -4.35156,-1.29204 -4.35156,-4.35156 l 0,-37.80274 -4.41992,0 0,-5.8457 z m 43.91406,0 15.8418,0 0,5.8457 -4.69141,0 0,36.30664 4.69141,0 0,5.84766 -15.8418,0 0,-5.84766 4.69141,0 0,-36.30664 -4.69141,0 0,-5.8457 z m 26.24024,0 20.9414,0 c 8.43068,0 14.34571,5.30359 14.34571,14.07422 0,8.02274 -5.2353,11.96501 -8.63477,12.71289 l 0,0.13672 c 0,0 1.22319,0.61202 2.03906,2.17578 l 5.7793,11.49023 c 0.67989,1.42778 1.76865,1.5625 3.40039,1.5625 l 0.88281,0 0,5.84766 -3.33008,0 c -3.73941,0 -5.1003,-0.47601 -6.66406,-3.60352 l -6.52734,-12.91796 c -1.22381,-2.24365 -2.10623,-2.58399 -4.75781,-2.58399 l -6.25586,0 0,19.10547 -6.79883,0 0,-42.1543 -4.41992,0 0,-5.8457 z m 47.0957,0 19.44531,0 c 14.61771,0 24.27149,8.77002 24.27149,23.93164 0,15.22961 -9.65378,24.06836 -24.27149,24.06836 l -10.67578,0 c -3.05952,0 -4.34961,-1.29204 -4.34961,-4.35156 l 0,-37.80274 -4.41992,0 0,-5.8457 z m -35.87695,5.8457 0,17.20313 8.83789,0 c 5.16719,0 8.22656,-3.33197 8.22656,-8.70313 0,-5.37115 -3.05863,-8.5 -8.08984,-8.5 l -8.97461,0 z m 47.0957,0 0,34.81055 c 0,0.95185 0.54424,1.49609 1.49609,1.49609 l 6.25391,0 c 10.67433,0 17.67773,-6.39055 17.67773,-18.2207 0,-11.76215 -7.07139,-18.08594 -17.67773,-18.08594 l -7.75,0 z"
       transform="scale(0.26458334)"
       id="rect4172"
       inkscape:connector-curvature="0" />
  </g>
  <g
     inkscape:groupmode="layer"
     id="layer7"
     inkscape:label="MAKE"
     style="display:none">
    <text
       xml:space="preserve"
       style="font-style:normal;font-variant:normal;font-weight:normal;font-stretch:normal;line-height:0%;font-family:Museo;-inkscape-font-specification:'Museo, Normal';text-align:start;letter-spacing:0px;word-spacing:0px;writing-mode:lr-tb;text-anchor:start;fill:#ffffff;fill-opacity:1;stroke:none;stroke-width:0.26458335px;stroke-linecap:butt;stroke-linejoin:miter;stroke-opacity:1"
       x="10.690782"
       y="175.02188"
       id="text4175"><tspan
         sodipodi:role="line"
         id="tspan4177"
         x="10.690782"
         y="175.02188"
         style="font-style:normal;font-variant:normal;font-weight:normal;font-stretch:normal;font-size:17.99166679px;line-height:100%;font-family:Museo;-inkscape-font-specification:'Museo, Normal';text-align:start;letter-spacing:1.32291675px;writing-mode:lr-tb;text-anchor:start;fill:#ffffff;fill-opacity:1;stroke-width:0.26458335px">MAKE</tspan></text>
  </g>
  <g
     inkscape:groupmode="layer"
     id="layer8"
     inkscape:label="MUSIC"
     style="display:none">
    <text
       xml:space="preserve"
       style="font-style:normal;font-variant:normal;font-weight:normal;font-stretch:normal;line-height:0%;font-family:Museo;-inkscape-font-specification:'Museo, Normal';text-align:start;letter-spacing:0px;word-spacing:0px;writing-mode:lr-tb;text-anchor:start;fill:#ffffff;fill-opacity:1;stroke:none;stroke-width:0.26458335px;stroke-linecap:butt;stroke-linejoin:miter;stroke-opacity:1"
       x="134.21758"
       y="174.80598"
       id="text4180"><tspan
         sodipodi:role="line"
         id="tspan4182"
         x="134.21758"
         y="174.80598"
         style="font-style:normal;font-variant:normal;font-weight:normal;font-stretch:normal;font-size:17.99166679px;line-height:100%;font-family:Museo;-inkscape-font-specification:'Museo, Normal';text-align:start;writing-mode:lr-tb;text-anchor:start;fill:#ffffff;fill-opacity:1;stroke-width:0.26458335px">MUSIC</tspan></text>
  </g>
</svg>
