<?xml version="1.0" encoding="UTF-8" standalone="no"?>
<!-- Created with Inkscape (http://www.inkscape.org/) -->

<svg
   xmlns:dc="http://purl.org/dc/elements/1.1/"
   xmlns:cc="http://creativecommons.org/ns#"
   xmlns:rdf="http://www.w3.org/1999/02/22-rdf-syntax-ns#"
   xmlns:svg="http://www.w3.org/2000/svg"
   xmlns="http://www.w3.org/2000/svg"
   xmlns:sodipodi="http://sodipodi.sourceforge.net/DTD/sodipodi-0.dtd"
   xmlns:inkscape="http://www.inkscape.org/namespaces/inkscape"
   width="1280"
   height="720"
   viewBox="0 0 338.66666 190.50001"
   id="svg2"
   version="1.1"
   inkscape:version="0.91+devel r13925"
   sodipodi:docname="moonjune-video-thumbnail.svg"
   inkscape:export-filename="/Users/agarone/Documents/git/art/moonjune-records/discover/moonjune-video-thumbnail.png"
   inkscape:export-xdpi="96"
   inkscape:export-ydpi="96">
  <defs
     id="defs4">
    <linearGradient
       id="linearGradient5627">
      <stop
         style="stop-color:#f80000;stop-opacity:1"
         id="stop5629"
         offset="0" />
      <stop
         style="stop-color:#e69595;stop-opacity:1"
         id="stop5631"
         offset="1" />
    </linearGradient>
    <linearGradient
       id="linearGradient5619">
      <stop
         style="stop-color:#000000;stop-opacity:1"
         id="stop5621"
         offset="0" />
      <stop
         style="stop-color:#000000;stop-opacity:0"
         id="stop5623"
         offset="1" />
    </linearGradient>
    <linearGradient
       id="linearGradient4838">
      <stop
         style="stop-color:#606060;stop-opacity:1"
         id="stop4840"
         offset="0" />
      <stop
         style="stop-color:#ffffff;stop-opacity:1"
         id="stop4842"
         offset="1" />
    </linearGradient>
    <linearGradient
       id="linearGradient4776">
      <stop
         style="stop-color:#c9c9c9;stop-opacity:1"
         offset="0"
         id="stop4778" />
      <stop
         style="stop-color:#555555;stop-opacity:1"
         offset="1"
         id="stop4780" />
    </linearGradient>
    <linearGradient
       id="linearGradient4760">
      <stop
         style="stop-color:#000000;stop-opacity:1"
         offset="0"
         id="stop4762" />
      <stop
         style="stop-color:#555555;stop-opacity:1"
         id="stop4764"
         offset="0.52" />
      <stop
         style="stop-color:#000000;stop-opacity:1"
         offset="1"
         id="stop4766" />
    </linearGradient>
    <linearGradient
       id="linearGradient4744">
      <stop
         style="stop-color:#000000;stop-opacity:1"
         id="stop4746"
         offset="0" />
      <stop
         style="stop-color:#555555;stop-opacity:1"
         offset="0.65"
         id="stop4748" />
      <stop
         style="stop-color:#000000;stop-opacity:1"
         id="stop4750"
         offset="1" />
    </linearGradient>
    <linearGradient
       id="linearGradient4728">
      <stop
         style="stop-color:#000000;stop-opacity:1"
         offset="0"
         id="stop4730" />
      <stop
         style="stop-color:#555555;stop-opacity:1"
         id="stop4732"
         offset="0.72" />
      <stop
         style="stop-color:#000000;stop-opacity:1"
         offset="1"
         id="stop4734" />
    </linearGradient>
    <linearGradient
       id="linearGradient4708">
      <stop
         style="stop-color:#000000;stop-opacity:1"
         id="stop4710"
         offset="0" />
      <stop
         style="stop-color:#555555;stop-opacity:1"
         offset="0.5"
         id="stop4718" />
      <stop
         style="stop-color:#000000;stop-opacity:1"
         id="stop4712"
         offset="1" />
    </linearGradient>
    <linearGradient
       id="linearGradient4679">
      <stop
         style="stop-color:#000000;stop-opacity:1"
         id="stop4681"
         offset="0" />
      <stop
         style="stop-color:#555555;stop-opacity:1"
         id="stop4683"
         offset="1" />
    </linearGradient>
  </defs>
  <sodipodi:namedview
     id="base"
     pagecolor="#ffffff"
     bordercolor="#666666"
     borderopacity="1.0"
     inkscape:pageopacity="0.0"
     inkscape:pageshadow="2"
     inkscape:zoom="0.98994949"
     inkscape:cx="737.05508"
     inkscape:cy="317.56339"
     inkscape:document-units="px"
     inkscape:current-layer="layer3"
     showgrid="false"
     units="px"
     inkscape:window-width="1920"
     inkscape:window-height="1151"
     inkscape:window-x="0"
     inkscape:window-y="1"
     inkscape:window-maximized="1" />
  <metadata
     id="metadata7">
    <rdf:RDF>
      <cc:Work
         rdf:about="">
        <dc:format>image/svg+xml</dc:format>
        <dc:type
           rdf:resource="http://purl.org/dc/dcmitype/StillImage" />
        <dc:title />
      </cc:Work>
    </rdf:RDF>
  </metadata>
  <g
     inkscape:label="Gray BG"
     inkscape:groupmode="layer"
     id="layer1"
     transform="translate(0,-106.49999)">
    <rect
       style="opacity:1;fill:#596268;fill-opacity:1;stroke:none;stroke-width:16.0535984;stroke-miterlimit:4;stroke-dasharray:none;stroke-opacity:1"
       id="rect4141"
       width="338.66669"
       height="190.5"
       x="1.4210855e-14"
       y="106.49999" />
  </g>
  <g
     inkscape:groupmode="layer"
     id="layer5"
     inkscape:label="Residents">
    <g
       id="g4550"
       transform="matrix(0.56691961,0,0,0.56691961,0,-3.4209953)">
      <g
         style="display:none"
         transform="translate(0,-32.41665)"
         id="layer1-0"
         inkscape:label="BG">
        <rect
           y="32.416653"
           x="0"
           height="264.58334"
           width="264.58334"
           id="rect5606"
           style="opacity:1;fill:#ffffff;fill-opacity:1;stroke:none;stroke-width:11.60810661;stroke-miterlimit:4;stroke-dasharray:none;stroke-opacity:1" />
      </g>
      <g
         style="display:inline"
         inkscape:label="Shirt"
         id="layer5-8">
        <path
           inkscape:connector-curvature="0"
           id="path4850"
           d="m 0,244.00358 c 0,0 20.579753,-12.82894 26.459682,-16.03618 5.879931,-3.20723 9.888974,-3.74177 9.888974,-4.81085 0,-1.06907 -2.405427,-1.06907 -0.267271,-2.13815 2.138156,-1.06908 12.561668,-4.81085 13.363477,-8.28536 0.801809,-3.4745 2.138156,-18.70886 5.87993,-19.77794 3.741772,-1.06908 98.087918,-9.6217 107.175078,-6.41447 9.08716,3.20723 25.12334,24.85606 30.20146,27.26149 5.07812,2.40543 54.25571,14.69983 59.86837,18.4416 5.61266,3.74177 8.30649,3.96383 12.01362,9.35443 3.70713,5.3906 7.00055,22.98518 7.00055,22.98518 L 0,264.58333 Z"
           style="fill:#51725b;fill-opacity:1;fill-rule:evenodd;stroke:none;stroke-width:0.26458332px;stroke-linecap:butt;stroke-linejoin:miter;stroke-opacity:1"
           sodipodi:nodetypes="csssssssszccc" />
        <path
           inkscape:connector-curvature="0"
           id="path4854"
           d="m 36.285715,255.61159 c 0,0 32.600444,26.45833 38.175593,29.67113 5.575149,3.2128 28.442712,11.71726 28.442712,11.71726 l -2.17337,0 c 0,0 -24.001484,-8.22098 -27.497765,-10.29985 -3.496278,-2.07887 -39.49851,-28.6317 -36.94717,-31.08854 z"
           style="display:inline;fill:#3a5242;fill-opacity:1;fill-rule:evenodd;stroke:none;stroke-width:0.26458332px;stroke-linecap:butt;stroke-linejoin:miter;stroke-opacity:1"
           transform="translate(0,-32.41665)" />
        <path
           inkscape:connector-curvature="0"
           id="path4857"
           d="m 165.17559,260.61458 c -2.83482,0 -9.4494,-0.56696 -11.24479,0.75595 -1.79539,1.32292 -2.74033,3.2128 -2.74033,3.2128 l -3.1183,0 c 0,0 3.87426,-4.34673 5.00819,-4.7247 1.13392,-0.37798 9.35491,0.0945 12.00074,0 2.64583,-0.0945 10.11086,-3.02381 12.56771,-1.6064 2.45684,1.41741 4.25223,6.3311 4.25223,6.3311 l -3.59077,0 c 0,0 -0.18899,-3.68527 -1.79539,-4.15774 -1.6064,-0.47247 -11.33929,0.18899 -11.33929,0.18899 z"
           style="fill:none;fill-rule:evenodd;stroke:none;stroke-width:0.26458332px;stroke-linecap:butt;stroke-linejoin:miter;stroke-opacity:1" />
        <path
           inkscape:connector-curvature="0"
           id="path4859"
           d="m 191.25595,213.55655 c 0,0 -1.49459,7.32821 1.71265,18.68717 3.20723,11.35895 5.87993,22.45064 5.87993,25.65787 0,3.20724 -0.13364,6.68174 -0.13364,6.68174 l -26.19241,0 c 0,0 -7.21628,-4.14268 -6.81537,-4.81085 0.4009,-0.66818 17.50615,-8.68626 18.97613,-13.22984 1.46998,-4.54358 4.72643,-34.43438 6.57271,-32.98609 z"
           style="fill:#3a5242;fill-opacity:1;fill-rule:evenodd;stroke:none;stroke-width:0.26458332px;stroke-linecap:butt;stroke-linejoin:miter;stroke-opacity:1" />
      </g>
      <g
         inkscape:label="Head"
         id="layer2-7">
        <path
           sodipodi:nodetypes="csscsssssscsssssssssssscsc"
           inkscape:connector-curvature="0"
           id="path4776"
           d="m 69.387796,205.88401 c 0,0 11.877085,-7.82449 12.25506,-10.47032 0.377976,-2.64583 2.078869,-12.6622 2.078869,-15.30804 0,-2.64583 -0.944941,-9.26041 -0.944941,-9.26041 0,0 -2.173362,0.56696 -4.063243,-0.94494 -1.889882,-1.51191 -3.118303,-6.52009 -3.590774,-8.88244 -0.47247,-2.36236 -4.819195,-11.33929 -4.913691,-13.13468 -0.09449,-1.79538 -0.755952,-8.40997 -1.795386,-9.92187 -1.039434,-1.51191 -3.401785,-5.38616 -3.401785,-7.18155 0,-1.79539 0.188987,-11.52827 0.28348,-13.13467 0.0945,-1.6064 0.944941,-1.79539 0.944941,-1.79539 0,0 -2.833669,-25.093492 -2.739175,-29.251231 0.0945,-4.157737 -1.135079,-28.957101 0.7548,-31.602935 1.889881,-2.645833 9.260416,-14.174107 12.756697,-17.292409 3.496278,-3.118306 21.355653,-18.42634 30.332592,-19.465774 8.97693,-1.039435 82.4933,-1.700893 86.36756,1.322916 3.87425,3.02381 15.96949,16.347469 20.31621,28.631697 4.34673,12.284226 5.48066,27.686754 4.15774,36.474702 -1.32291,8.787944 -4.44122,22.017114 -4.25223,25.513394 0.18899,3.49628 2.92932,14.55208 2.83482,18.42634 -0.0945,3.87425 -0.0945,32.60044 -6.42559,47.71949 -6.3311,15.11905 -17.67039,32.12798 -19.46578,36.00223 -1.79538,3.87426 -2.07886,22.67857 -5.85863,32.41146 -3.77976,9.73289 -19.82705,15.0329 -19.82705,15.0329 0,0 -23.17466,-1.54647 -38.11027,-6.94901 -23.31397,-8.43318 -57.694224,-46.93946 -57.694224,-46.93946 z"
           style="fill:#dfc6a8;fill-opacity:1;fill-rule:evenodd;stroke:none;stroke-width:0.26458332px;stroke-linecap:butt;stroke-linejoin:miter;stroke-opacity:1" />
        <path
           inkscape:connector-curvature="0"
           id="path4778"
           d="m 114.05431,97.75409 c -0.85044,-0.566963 4.34673,-3.874254 6.00038,-4.204984 1.65364,-0.330729 5.19717,-1.559152 7.65401,-1.937128 2.45685,-0.377976 12.66221,-1.086681 14.45759,-1.464659 1.79539,-0.377976 3.02381,-1.700893 4.53572,-1.322917 1.5119,0.377979 7.37053,3.921503 9.02418,3.874257 1.65364,-0.04725 5.10268,0.472472 5.38616,1.13393 0.28348,0.661458 -1.41741,3.260042 -3.77976,3.212796 -2.36235,-0.04725 -9.30767,-1.74814 -13.74889,-1.984375 -4.44122,-0.236234 -13.55989,-0.566963 -17.10342,-0.09449 -3.54352,0.472469 -10.91406,3.874257 -12.42597,2.787574 z"
           style="fill:#2b2117;fill-opacity:1;fill-rule:evenodd;stroke:none;stroke-width:0.26458332px;stroke-linecap:butt;stroke-linejoin:miter;stroke-opacity:1" />
        <path
           inkscape:connector-curvature="0"
           id="path4780"
           d="m 212.7061,97.28162 c -0.0945,-1.464656 -2.78758,-4.063243 -6.80357,-5.338913 -4.016,-1.27567 -17.43415,-0.377976 -20.36347,-0.188989 -2.92932,0.188989 -5.71689,2.740329 -6.70908,4.535715 -0.99218,1.795386 -2.22061,9.874627 -1.18117,9.874627 1.03943,0 6.42559,-4.11049 10.48884,-4.7247 4.06324,-0.61421 7.46503,-1.32292 11.0558,-0.33073 3.59077,0.99219 6.3311,3.16555 7.18155,4.91369 0.85044,1.74814 -0.42523,6.80357 0.0945,7.51228 0.51972,0.7087 2.97656,2.3151 2.88207,-1.03944 -0.0945,-3.35454 -0.0473,-6.37835 -0.75595,-7.32329 -0.70871,-0.94494 -5.43341,-4.20498 -7.55953,-4.96093 -2.12611,-0.755955 -9.30766,-0.944945 -12.47321,-0.614215 -3.16555,0.330729 -5.66964,2.551335 -6.18936,1.322915 -0.51972,-1.228422 -1.41741,-1.937127 1.55915,-2.456843 2.97656,-0.519718 16.81994,-3.023812 20.31622,-1.937128 3.49628,1.086681 8.50446,3.118302 8.45722,0.755951 z"
           style="fill:#2b2117;fill-opacity:1;fill-rule:evenodd;stroke:none;stroke-width:0.26458332px;stroke-linecap:butt;stroke-linejoin:miter;stroke-opacity:1" />
        <path
           sodipodi:nodetypes="csssssssssscsssssc"
           inkscape:connector-curvature="0"
           id="path4782"
           d="m 154.92299,106.25855 c 0.61421,0 0.89769,-6.661825 0.23623,-6.709072 -0.66145,-0.04725 -0.42522,1.842632 -1.55915,1.842632 -1.13393,0 -6.18936,-2.078868 -8.69345,-2.409597 -2.50409,-0.330729 -11.1503,-0.614212 -16.86719,1.370167 -5.71689,1.98437 -14.22135,10.67783 -13.74888,11.90625 0.47247,1.22842 12.18973,-3.96875 11.71726,-4.44122 -0.47247,-0.47247 -2.69308,-1.55916 -1.79538,-1.79539 0.89769,-0.23623 6.09486,-2.55134 9.02418,-2.55134 2.92931,0 8.36272,0.99219 8.69345,1.84263 0.33073,0.85045 -1.32292,2.26786 -0.37798,2.26786 0.94494,0 7.18155,-0.14174 7.41779,-0.61421 0.23623,-0.47247 0.6142,-2.03162 -0.61422,-2.45684 -1.22842,-0.42523 -10.39435,-2.74034 -13.51265,-2.74034 -3.1183,0 -8.97693,2.03163 -8.97693,1.55916 0,-0.47247 1.22842,-1.93713 6.61458,-2.50409 5.38616,-0.56697 10.06362,0 13.51265,1.41741 3.44903,1.41741 8.40997,2.17336 8.92969,4.01599 z"
           style="fill:#2b2117;fill-opacity:1;fill-rule:evenodd;stroke:none;stroke-width:0.26458332px;stroke-linecap:butt;stroke-linejoin:miter;stroke-opacity:1" />
        <path
           inkscape:connector-curvature="0"
           id="path4784"
           d="m 146.0628,110.00132 c 0.60135,0.96885 -6.81538,6.61492 -10.82442,7.21628 -4.00904,0.60135 -10.02261,-0.0334 -9.92238,-0.66818 0.10022,-0.63476 5.07812,0.30068 7.38332,-0.26727 2.3052,-0.56795 11.35895,-3.842 13.36348,-6.28083 z"
           style="fill:#634c35;fill-opacity:1;fill-rule:evenodd;stroke:none;stroke-width:0.26458332px;stroke-linecap:butt;stroke-linejoin:miter;stroke-opacity:1" />
        <path
           inkscape:connector-curvature="0"
           id="path4786"
           d="m 135.63928,170.03674 c 0,0 7.01583,-19.37704 9.02035,-22.04974 2.00452,-2.67269 4.34313,-6.61492 5.14494,-6.61492 0.80181,0 1.40316,3.0736 1.87089,2.93996 0.46772,-0.13363 -1.20272,-4.40994 -0.26727,-7.41673 0.93544,-3.00678 3.4745,-11.42577 4.74403,-11.42577 1.26953,0 4.07586,0.86863 4.6104,1.80407 0.53454,0.93544 -0.0668,1.87089 0.93544,1.93771 1.00226,0.0668 1.93771,-5.41221 0.73499,-5.47903 -1.20271,-0.0668 -3.60814,-2.07134 -4.81085,-1.33635 -1.20271,0.73499 -4.67722,4.87767 -11.35895,17.84024 -6.68174,12.96258 -11.96032,27.92967 -10.62397,29.80056 z"
           style="fill:#906e4d;fill-opacity:1;fill-rule:evenodd;stroke:none;stroke-width:0.26458332px;stroke-linecap:butt;stroke-linejoin:miter;stroke-opacity:1" />
        <path
           inkscape:connector-curvature="0"
           id="path4788"
           d="m 181.74328,124.5341 c 1.46998,0.13363 3.34087,5.21175 4.47676,6.68174 1.1359,1.46998 3.54132,4.14267 3.54132,5.81311 0,1.67043 -1.46998,3.94223 -1.46998,5.07812 0,1.13589 9.2208,19.31022 9.2208,20.51294 0,1.20271 0.26727,7.48354 -0.26727,7.48354 -0.53454,0 -0.53454,-5.21175 -1.20271,-6.68174 -0.66818,-1.46998 -9.35444,-17.43933 -9.35444,-18.8425 0,-1.40316 2.33861,-5.07812 2.20498,-6.48128 -0.13364,-1.40317 -5.01131,-4.6104 -5.21176,-7.41673 -0.20045,-2.80633 -2.00452,-4.94449 -1.9377,-6.1472 z"
           style="fill:#634c35;fill-opacity:1;fill-rule:evenodd;stroke:none;stroke-width:0.26458332px;stroke-linecap:butt;stroke-linejoin:miter;stroke-opacity:1" />
        <path
           inkscape:connector-curvature="0"
           id="path4790"
           d="m 172.78975,140.43664 c 1.73725,0 7.55036,-2.07134 7.75082,-1.5368 0.20045,0.53454 -4.2095,5.21175 -3.34087,5.47902 0.86862,0.26727 8.55262,-3.20723 8.55262,-2.27179 0,0.93544 -2.93997,4.87767 -4.00904,4.87767 -1.06908,0 -2.53906,-0.86863 -3.67496,-0.86863 -1.13589,0 -6.41447,6.34766 -7.81763,6.34766 -1.40317,0 -9.08717,-4.14268 -11.29214,-4.67722 -2.20497,-0.53454 -6.48129,-0.80181 -6.5481,-2.27179 -0.0668,-1.46999 0.60135,-5.41221 1.9377,-5.41221 1.33635,0 8.28535,-2.53906 10.28988,-2.53906 2.00452,0 6.81537,2.80633 8.15172,2.87315 z"
           style="opacity:0.79199997;fill:#533f2c;fill-opacity:1;fill-rule:evenodd;stroke:none;stroke-width:0.26458332px;stroke-linecap:butt;stroke-linejoin:miter;stroke-opacity:1" />
        <path
           inkscape:connector-curvature="0"
           id="path4792"
           d="m 168.44662,144.44568 c 0,0 -2.33861,-3.34087 -4.81085,-3.60814 -2.47225,-0.26727 -7.88445,-0.46772 -8.08491,1.20271 -0.20045,1.67044 3.87541,2.07134 5.07812,2.07134 1.20272,0 6.34765,-1.20271 7.81764,0.33409 z"
           style="fill:#261d14;fill-opacity:1;fill-rule:evenodd;stroke:none;stroke-width:0.26458332px;stroke-linecap:butt;stroke-linejoin:miter;stroke-opacity:1" />
        <path
           inkscape:connector-curvature="0"
           id="path4794"
           d="m 179.33785,144.24523 c 0,0 3.67496,-4.07586 4.94449,-3.60814 1.26953,0.46772 1.67043,3.34087 -4.94449,3.60814 z"
           style="fill:#261d14;fill-opacity:1;fill-rule:evenodd;stroke:none;stroke-width:0.26458332px;stroke-linecap:butt;stroke-linejoin:miter;stroke-opacity:1" />
        <path
           inkscape:connector-curvature="0"
           id="path4798"
           d="m 144.39236,171.17263 c 0.60136,1.00226 24.25471,2.20497 27.86285,2.20497 3.60814,0 15.63527,-1.87088 16.10299,-3.27405 0.46772,-1.40316 -5.41221,-4.87767 -7.55037,-4.87767 -2.13815,0 -5.4122,1.67044 -7.55036,1.67044 -2.13816,0 -5.47903,-2.60588 -9.82216,-2.27179 -4.34313,0.33409 -17.97387,5.61266 -19.04295,6.5481 z"
           style="fill:#653e38;fill-opacity:1;fill-rule:evenodd;stroke:none;stroke-width:0.26458332px;stroke-linecap:butt;stroke-linejoin:miter;stroke-opacity:1" />
        <path
           inkscape:connector-curvature="0"
           id="path4796"
           d="m 142.65511,171.97444 c 0.0668,-0.60136 13.89801,-4.2095 20.71339,-3.87541 6.81537,0.33409 7.75081,1.1359 9.6217,1.26953 1.87089,0.13364 9.15398,-1.9377 10.95805,-1.5368 1.80407,0.40091 5.54584,1.06908 5.54584,2.07134 0,1.00226 -3.40768,1.1359 -5.27857,1.00226 -1.87089,-0.13363 -5.34539,-1.00226 -7.41673,-1.00226 -2.07134,0 -10.55715,0.46772 -15.43481,0.66817 -4.87767,0.20046 -11.42578,-0.13363 -13.89802,0.33409 -2.47224,0.46772 -4.47676,1.87089 -4.81085,1.06908 z"
           style="fill:#241b13;fill-opacity:1;fill-rule:evenodd;stroke:none;stroke-width:0.26458332px;stroke-linecap:butt;stroke-linejoin:miter;stroke-opacity:1" />
        <path
           inkscape:connector-curvature="0"
           id="path4800"
           d="m 195.37402,185.47155 c 1.26953,0 0.73499,-6.68174 -0.0668,-8.48581 -0.8018,-1.80407 -4.47676,-7.95127 -5.4122,-7.55036 -0.93545,0.4009 1.40316,3.14042 2.87314,6.81537 1.46999,3.67496 3.20724,6.28084 2.60588,9.2208 z"
           style="fill:#906e4d;fill-opacity:1;fill-rule:evenodd;stroke:none;stroke-width:0.26458332px;stroke-linecap:butt;stroke-linejoin:miter;stroke-opacity:1" />
        <path
           inkscape:connector-curvature="0"
           id="path4802"
           d="m 139.11379,173.91214 c 1.20271,0.66818 8.4858,-4.20949 9.02034,-5.54584 0.53454,-1.33635 5.41221,-4.67722 5.01131,-5.27857 -0.40091,-0.60136 -4.34313,0.66817 -7.2831,3.54132 -2.93996,2.87315 -6.68173,5.81311 -6.74855,7.28309 z"
           style="fill:#906e4d;fill-opacity:1;fill-rule:evenodd;stroke:none;stroke-width:0.26458332px;stroke-linecap:butt;stroke-linejoin:miter;stroke-opacity:1" />
        <path
           sodipodi:nodetypes="csscc"
           inkscape:connector-curvature="0"
           id="path4804"
           d="m 125.81713,105.42433 c 0,0 0.80181,3.74177 5.14494,3.80859 4.34313,0.0668 5.21175,-3.27405 5.21175,-3.87541 0,-0.60135 0.77414,-5.19833 -10.35669,0.0668 z"
           style="fill:#2b2117;fill-opacity:1;fill-rule:evenodd;stroke:none;stroke-width:0.26458332px;stroke-linecap:butt;stroke-linejoin:miter;stroke-opacity:1" />
        <path
           inkscape:connector-curvature="0"
           id="path4806"
           d="m 202.65712,110.50245 c 0,-0.53454 0.66817,-0.33409 0.4009,-1.87089 -0.26727,-1.5368 -3.74177,-2.93996 -4.07586,-2.93996 -0.33409,0 -0.13363,5.0113 -5.14494,4.6104 -5.0113,-0.40091 -6.41447,-2.33861 -6.41447,-4.00905 0,-1.67043 -3.14041,0.53454 -3.0736,0.93545 0.0668,0.4009 3.27406,0.53454 2.53907,1.26953 -0.735,0.73499 -6.94901,1.00226 -6.8822,-0.33409 0.0668,-1.33635 7.684,-5.41221 12.42804,-5.34539 4.74403,0.0668 13.89801,3.00678 13.96483,5.61266 0.0668,2.60588 -3.67495,2.6727 -3.74177,2.07134 z"
           style="fill:#2b2117;fill-opacity:1;fill-rule:evenodd;stroke:none;stroke-width:0.26458332px;stroke-linecap:butt;stroke-linejoin:miter;stroke-opacity:1" />
        <path
           inkscape:connector-curvature="0"
           id="path4808"
           d="m 185.81914,113.04151 c 1.73725,0 4.87767,2.53906 7.55036,3.00678 2.6727,0.46772 7.75082,0.0668 7.75082,1.20271 0,1.1359 -4.00905,2.13816 -7.75082,0.53454 -3.74177,-1.60361 -7.41673,-4.27631 -7.55036,-4.74403 z"
           style="fill:#634c35;fill-opacity:1;fill-rule:evenodd;stroke:none;stroke-width:0.26458332px;stroke-linecap:butt;stroke-linejoin:miter;stroke-opacity:1" />
        <path
           inkscape:connector-curvature="0"
           id="path4810"
           d="m 178.93695,111.23744 c 0.86862,0 8.01808,5.81311 10.28987,7.21628 2.27179,1.40316 7.55037,1.87088 7.21628,2.33861 -0.33409,0.46772 -5.74629,0.60135 -8.01808,-0.66818 -2.2718,-1.26953 -6.08039,-5.61266 -9.48807,-8.88671 z"
           style="fill:#634c35;fill-opacity:1;fill-rule:evenodd;stroke:none;stroke-width:0.26458332px;stroke-linecap:butt;stroke-linejoin:miter;stroke-opacity:1" />
        <path
           inkscape:connector-curvature="0"
           id="path4812"
           d="m 158.27753,188.61012 c 0,-1.22842 7.37053,-2.17337 10.39434,-2.17337 3.02381,0 10.96131,1.32292 10.20536,1.88988 -0.75595,0.56697 -5.19717,-0.28348 -9.26042,-0.28348 -4.06324,0 -11.15029,0.85045 -11.33928,0.56697 z"
           style="fill:#826045;fill-opacity:1;fill-rule:evenodd;stroke:none;stroke-width:0.26458332px;stroke-linecap:butt;stroke-linejoin:miter;stroke-opacity:1" />
        <path
           inkscape:connector-curvature="0"
           id="path4814"
           d="m 197.30357,200.61086 c -0.85045,-0.18899 -10.96131,11.90625 -13.98512,11.90625 -3.02381,0 -11.1503,-5.48065 -13.79613,-5.48065 -2.64583,0 -9.35491,6.70907 -15.21354,6.70907 -5.85863,0 -18.04837,-13.41815 -21.54464,-13.32366 -3.49628,0.0945 -5.76414,0.18899 -9.35492,-0.94494 -3.59077,-1.13393 -18.9933,-14.93006 -19.65476,-14.93006 -0.66145,0 13.41816,28.34822 17.85938,32.60045 4.44122,4.25223 27.59226,29.10417 34.20684,29.19866 6.61459,0.0945 40.25447,-39.97098 41.48289,-45.73512 z"
           style="opacity:0.81300001;fill:#6e513a;fill-opacity:1;fill-rule:evenodd;stroke:none;stroke-width:0.26458332px;stroke-linecap:butt;stroke-linejoin:miter;stroke-opacity:1" />
        <path
           inkscape:connector-curvature="0"
           id="path4816"
           d="m 132.48065,210.34375 c -0.0945,-1.22843 2.64584,-3.68527 5.19717,-1.98438 2.55134,1.70089 18.99331,8.78795 32.03349,9.16593 13.04018,0.37797 20.12723,-7.84301 21.07217,-6.89807 0.94494,0.94494 -8.03199,10.11086 -21.35566,9.26042 -13.32366,-0.85045 -30.80505,-10.11087 -36.94717,-9.5439 z"
           style="fill:#463425;fill-opacity:1;fill-rule:evenodd;stroke:none;stroke-width:0.26458332px;stroke-linecap:butt;stroke-linejoin:miter;stroke-opacity:1" />
        <path
           inkscape:connector-curvature="0"
           id="path4820"
           d="m 65.956843,115.75521 c 1.606399,-0.37798 2.267858,-2.17337 5.669645,-0.94494 3.401785,1.22842 10.866813,9.07142 12.756695,9.07142 1.889882,0 2.267858,-17.85937 4.535715,-21.73363 2.267858,-3.874252 5.480653,-7.937495 5.480653,-7.937495 0,0 -1.984375,-14.835566 -0.566962,-18.142858 1.41741,-3.307291 1.41741,-3.96875 1.41741,-3.96875 L 76.162201,75.500742 59.625743,96.383926 c 0,0 6.3311,16.063994 6.3311,19.371284 z"
           style="fill:#413223;fill-opacity:1;fill-rule:evenodd;stroke:none;stroke-width:0.26458332px;stroke-linecap:butt;stroke-linejoin:miter;stroke-opacity:1" />
        <path
           inkscape:connector-curvature="0"
           id="path4818"
           d="m 59.868373,96.738068 c 5.345391,0 19.510677,-21.114292 25.390605,-21.114292 5.87993,0 9.621702,-1.069078 9.621702,-1.069078 0,0 0.747295,-12.850087 2.353694,-15.306931 1.606399,-2.456844 -0.661459,8.598958 2.078868,11.71726 2.740328,3.118305 5.764138,1.984375 5.764138,1.984375 0,0 -3.1183,-9.260416 -0.75595,-8.126486 2.36235,1.133927 2.92931,9.165923 5.66964,9.165923 2.74033,0 -0.0945,-10.583333 6.52009,-20.78869 6.61458,-10.205358 12.94569,-10.48884 12.94569,-10.48884 0,0 6.52008,4.346725 12.85118,10.866815 6.33111,6.52009 15.875,11.528274 15.875,11.528274 0,0 -18.89881,-16.536458 -15.49702,-17.292412 3.40179,-0.755952 37.98661,25.796875 44.69569,27.308781 6.70907,1.511905 11.62276,3.307291 11.62276,3.307291 0,0 -8.12649,-6.425594 -6.42559,-6.425594 1.70089,0 7.18154,6.331101 14.07961,6.331101 6.89807,0 8.03199,-3.590774 8.69345,-2.929316 0.66146,0.661458 -1.41741,2.267858 1.41741,5.197173 2.83482,2.929314 4.15774,3.118303 4.15774,3.118303 0,0 -2.36235,-8.598958 -1.03943,-8.598958 1.32291,0 3.1183,-4.913691 2.74032,-10.110865 -0.37797,-5.19717 0.94494,-12.189729 -9.73288,-26.647319 -10.67783,-14.45759 -23.34003,-32.4114586 -58.01935,-32.7894347 -34.67931,-0.377976 -35.43527,8.1264877 -37.60863,8.3154767 -2.17336,0.188987 -4.25223,-2.173364 -8.97693,0.377976 -4.72471,2.551339 -30.238098,18.993302 -33.734379,23.529017 -3.496278,4.535715 -9.449403,13.04018 -10.866813,17.764881 -1.417412,4.724702 -2.740329,14.930059 -5.575149,17.575893 -2.834822,2.645833 3.590774,-3.401785 3.590774,-0.661459 0,2.740327 -4.063245,6.142114 -4.063245,6.142114 0,0 1.606399,0.28348 1.795388,7.181546 0.188987,6.898066 -0.932151,9.02376 0.431617,10.937475 z"
           style="fill:#281f15;fill-opacity:1;fill-rule:evenodd;stroke:none;stroke-width:0.26458332px;stroke-linecap:butt;stroke-linejoin:miter;stroke-opacity:1" />
        <path
           inkscape:connector-curvature="0"
           id="path4822"
           d="m 210.24925,78.335565 c 0,0 2.55134,-0.472472 2.64584,3.96875 0.0945,4.441219 -0.85045,15.591517 0.28348,19.465775 1.13393,3.87425 1.13393,5.57515 1.13393,5.57515 0,0 3.30729,-13.229171 4.91369,-14.835568 1.6064,-1.606399 2.17336,0.188987 2.17336,0.188987 0,0 -2.07887,-6.52009 -1.79539,-11.811757 0.28349,-5.291666 0.37798,-8.031993 0.37798,-8.031993 0,0 -8.22098,1.984375 -9.73289,5.480656 z"
           style="fill:#413223;fill-opacity:1;fill-rule:evenodd;stroke:none;stroke-width:0.26458332px;stroke-linecap:butt;stroke-linejoin:miter;stroke-opacity:1" />
        <path
           sodipodi:nodetypes="csssc"
           inkscape:connector-curvature="0"
           id="path4852"
           d="m 69.317301,205.81645 c 0,0 11.569604,-7.94592 11.94758,-9.26883 0.377975,-1.32292 1.511903,-5.57515 1.039434,-5.57515 -0.472472,0 -26.174851,1.70089 -25.324406,3.2128 0.850448,1.5119 12.337392,11.63118 12.337392,11.63118 z"
           style="fill:#3a5242;fill-opacity:1;fill-rule:evenodd;stroke:none;stroke-width:0.26458332px;stroke-linecap:butt;stroke-linejoin:miter;stroke-opacity:1" />
      </g>
      <path
         inkscape:connector-curvature="0"
         id="path4824"
         d="m 78.0427,129.87949 c 2.806332,0.40091 2.539061,1.60362 2.405428,3.60814 -0.133636,2.00452 -2.271792,2.00452 -2.271792,5.34539 0,3.34087 -7.617182,5.34539 -5.34539,2.53906 2.271792,-2.80633 5.746295,-6.81537 5.211754,-11.49259 z"
         style="fill:#826045;fill-opacity:1;fill-rule:evenodd;stroke:none;stroke-width:0.26458332px;stroke-linecap:butt;stroke-linejoin:miter;stroke-opacity:1" />
      <path
         inkscape:connector-curvature="0"
         id="path4826"
         d="m 76.171816,128.94405 c 0.668173,-0.13364 0.801806,-2.93997 -0.80181,-4.14268 -1.603618,-1.20271 -4.944485,-5.47903 -6.147199,-4.54358 -1.202714,0.93544 -3.608139,10.15624 -0.801809,11.35895 2.806329,1.20271 0.267269,-7.75082 2.138156,-7.48354 1.870887,0.26726 5.078121,0.93544 5.612662,4.81085 z"
         style="fill:#826045;fill-opacity:1;fill-rule:evenodd;stroke:none;stroke-width:0.26458332px;stroke-linecap:butt;stroke-linejoin:miter;stroke-opacity:1" />
      <path
         inkscape:connector-curvature="0"
         id="path4828"
         d="m 76.706353,166.62905 c 0,0 1.737252,2.00452 4.276313,2.00452 2.53906,0 4.276312,-3.20723 4.276312,-3.20723 l 1.069078,4.40994 c 0,0 -1.336347,1.20272 -3.875408,1.20272 -2.539061,0 -4.677217,-0.93545 -5.746295,-4.40995 z"
         style="fill:#cba270;fill-opacity:1;fill-rule:evenodd;stroke:none;stroke-width:0.26458332px;stroke-linecap:butt;stroke-linejoin:miter;stroke-opacity:1" />
      <path
         inkscape:connector-curvature="0"
         id="path4836"
         d="m 129.49208,125.20227 c 5.61266,0 19.24341,-12.96257 19.24341,-10.15624 0,2.80633 -3.34087,5.7463 -3.0736,9.35443 0.26727,3.60814 1.33635,13.89802 -12.02713,14.56619 -13.36347,0.66818 -43.832199,-18.97613 -39.823158,-20.71338 4.009043,-1.73726 11.626228,-4.54359 17.773428,-1.60362 6.1472,2.93996 9.88897,8.15172 17.90705,8.55262 z"
         style="fill:#e2ccb0;fill-opacity:1;fill-rule:evenodd;stroke:none;stroke-width:0.26458332px;stroke-linecap:butt;stroke-linejoin:miter;stroke-opacity:1" />
      <path
         inkscape:connector-curvature="0"
         id="path4838"
         d="m 126.01758,60.389412 c 4.54358,-1.46998 6.5481,-3.207234 10.42351,0.133636 3.87541,3.34087 9.2208,11.358954 17.23889,12.160763 8.01808,0.801809 30.33509,2.138156 30.73599,4.944486 0.40091,2.806332 -29.39964,3.608138 -31.27053,5.746294 -1.87089,2.138157 -6.81538,4.276313 -18.0407,4.810853 -11.22531,0.534538 -22.58427,-4.142676 -20.31248,-8.418991 2.27179,-4.276313 29.39965,2.405427 32.60688,0.133635 3.20724,-2.271791 -40.62497,-5.612659 -21.38156,-19.510676 z"
         style="fill:#e2ccb0;fill-opacity:1;fill-rule:evenodd;stroke:none;stroke-width:0.26458332px;stroke-linecap:butt;stroke-linejoin:miter;stroke-opacity:1" />
      <path
         inkscape:connector-curvature="0"
         id="path4840"
         d="m 161.43079,103.0189 c 0.13364,-3.474502 3.0736,-6.5481 6.41447,-6.280832 3.34087,0.267269 5.47903,-0.668173 5.47903,2.405425 0,3.073597 -1.87089,0.80181 -0.53454,8.018087 1.33634,7.21628 9.75534,26.99422 8.28535,27.26149 -1.46998,0.26727 -3.4745,-0.93544 -6.1472,-0.80181 -2.67269,0.13364 -5.21175,1.87089 -5.74629,0 -0.53454,-1.87088 1.20271,-16.97161 0.13363,-23.25245 -1.06907,-6.28083 -2.40542,-10.28987 -7.88445,-7.34991 z"
         style="fill:#e2ccb0;fill-opacity:1;fill-rule:evenodd;stroke:none;stroke-width:0.26458332px;stroke-linecap:butt;stroke-linejoin:miter;stroke-opacity:1" />
      <g
         inkscape:label="Face"
         id="layer3-9" />
      <g
         style="display:inline"
         inkscape:label="Beard"
         id="layer4-5">
        <path
           inkscape:connector-curvature="0"
           transform="scale(0.26458333)"
           id="path4830"
           d="m 315.93164,465.20898 c -0.76273,-0.0245 -1.52168,0.11215 -2.2793,0.41993 0,0 6.56605,130.30946 12.62696,158.59375 6.06092,28.28424 56.06433,166.1697 117.68359,217.6875 61.61934,51.51779 127.27894,90.41015 143.44141,90.41015 16.16243,0 89.90203,-57.07358 111.11523,-89.39843 21.2132,-32.32491 96.97461,-174.25196 96.97461,-174.25196 0,0 -39.39454,6.06049 -44.44531,-4.04101 -5.05074,-10.10155 -7.57699,-44.44577 -18.1836,-58.58789 -10.6066,-14.14216 -51.01218,-44.95154 -70.20507,-41.41602 -19.1929,3.53556 -18.68757,-2.52617 -33.83985,-0.50586 -15.15227,2.02031 -66.67043,20.20288 -98.49023,56.56836 -31.81981,36.36552 -16.16178,56.56836 -34.84961,56.56836 -18.6878,0 -98.9954,-33.83964 -123.74414,-90.4082 -23.58864,-53.91688 -40.29585,-121.14023 -55.80469,-121.63868 z m 390.38867,186.2129 c 1.79786,-0.003 3.59584,0.48498 5.33203,1.58984 11.1117,7.07108 29.29528,44.95352 20.70899,48.99414 -8.58633,4.04062 -43.43672,-9.59771 -45.45703,-27.27539 0,-8.94932 9.70761,-23.29237 19.41601,-23.30859 z m -154.35547,2.17968 c 15.70792,0.15522 45.61875,13.80646 46.04493,20.625 0.50505,8.0812 -25.75824,30.80943 -39.90039,46.4668 -14.14213,15.65737 -11.11139,-3.53636 -28.78907,-8.08203 -7.57614,-20.70815 5.04965,-51.01214 15.65625,-57.57813 1.65728,-1.02594 4.07941,-1.46038 6.98828,-1.43164 z"
           style="opacity:0.12700004;fill:#826045;fill-opacity:1;fill-rule:evenodd;stroke:none;stroke-width:0.99999994px;stroke-linecap:butt;stroke-linejoin:miter;stroke-opacity:1" />
      </g>
    </g>
  </g>
  <g
     inkscape:groupmode="layer"
     id="layer2"
     inkscape:label="Orange Banner">
    <rect
       style="opacity:1;fill:#de3d2d;fill-opacity:1;stroke:none;stroke-width:11.03082752;stroke-miterlimit:4;stroke-dasharray:none;stroke-opacity:1"
       id="rect4144"
       width="338.66669"
       height="43.65625"
       x="0"
       y="146.84375" />
  </g>
  <g
     inkscape:label="Blue Banner"
     id="g4203"
     inkscape:groupmode="layer"
     style="display:none">
    <rect
       y="146.84375"
       x="0"
       height="43.65625"
       width="338.66669"
       id="rect4205"
       style="opacity:1;fill:#407d93;fill-opacity:1;stroke:none;stroke-width:11.03082752;stroke-miterlimit:4;stroke-dasharray:none;stroke-opacity:1" />
  </g>
  <g
     inkscape:groupmode="layer"
     id="layer3"
     inkscape:label="Discover"
     style="display:inline">
    <text
       xml:space="preserve"
       style="font-style:normal;font-variant:normal;font-weight:normal;font-stretch:normal;font-size:20.26743698px;line-height:125%;font-family:Museo;-inkscape-font-specification:'Museo, Normal';text-align:start;letter-spacing:0px;word-spacing:0px;writing-mode:lr-tb;text-anchor:start;fill:#ffffff;fill-opacity:1;stroke:none;stroke-width:0.50668812px;stroke-linecap:butt;stroke-linejoin:miter;stroke-opacity:1"
       x="146.86063"
       y="51.457989"
       id="text4147"
       sodipodi:linespacing="125%"><tspan
         sodipodi:role="line"
         id="tspan4164"
         x="146.86063"
         y="51.457989">DISCOVER:</tspan></text>
  </g>
  <g
     inkscape:label="Interview"
     id="g4209"
     inkscape:groupmode="layer"
     style="display:none">
    <text
       sodipodi:linespacing="125%"
       id="text4211"
       y="40.767208"
       x="173.85484"
       style="font-style:normal;font-variant:normal;font-weight:normal;font-stretch:normal;font-size:20.26743698px;line-height:125%;font-family:Museo;-inkscape-font-specification:'Museo, Normal';text-align:start;letter-spacing:0px;word-spacing:0px;writing-mode:lr-tb;text-anchor:start;fill:#ffffff;fill-opacity:1;stroke:none;stroke-width:0.50668812px;stroke-linecap:butt;stroke-linejoin:miter;stroke-opacity:1"
       xml:space="preserve"><tspan
         id="tspan4213"
         sodipodi:role="line"
         x="173.85484"
         y="40.767208">INTERVIEW:</tspan></text>
  </g>
  <g
     inkscape:groupmode="layer"
     id="layer4"
     inkscape:label="Artist Name">
    <text
       xml:space="preserve"
       style="font-style:normal;font-variant:normal;font-weight:600;font-stretch:normal;font-size:34.05963898px;line-height:100%;font-family:Museo;-inkscape-font-specification:'Museo, Semi-Bold';text-align:start;letter-spacing:0px;word-spacing:0px;writing-mode:lr-tb;text-anchor:start;fill:#ffffff;fill-opacity:1;stroke:none;stroke-width:0.85148358px;stroke-linecap:butt;stroke-linejoin:miter;stroke-opacity:1"
       x="147.28358"
       y="81.324768"
       id="text4158"
       sodipodi:linespacing="100%"><tspan
         sodipodi:role="line"
         x="147.28358"
         y="81.324768"
         style="font-style:normal;font-variant:normal;font-weight:600;font-stretch:normal;font-size:34.05963898px;line-height:100%;font-family:Museo;-inkscape-font-specification:'Museo, Semi-Bold';text-align:start;writing-mode:lr-tb;text-anchor:start;fill:#ffffff;fill-opacity:1;stroke-width:0.85148358px"
         id="tspan4730">MoonJune</tspan><tspan
         sodipodi:role="line"
         x="147.28358"
         y="115.38441"
         style="font-style:normal;font-variant:normal;font-weight:600;font-stretch:normal;font-size:34.05963898px;line-height:100%;font-family:Museo;-inkscape-font-specification:'Museo, Semi-Bold';text-align:start;writing-mode:lr-tb;text-anchor:start;fill:#ffffff;fill-opacity:1;stroke-width:0.85148358px"
         id="tspan4249">Records</tspan></text>
  </g>
  <g
     inkscape:groupmode="layer"
     id="layer6"
     inkscape:label="WEIRD">
    <path
       style="opacity:1;fill:#ffffff;fill-opacity:1;stroke:none;stroke-width:17.2258606;stroke-miterlimit:4;stroke-dasharray:none;stroke-opacity:1"
       d="M 245.3457 602.625 L 245.3457 672.625 L 495.3457 672.625 L 495.3457 602.625 L 245.3457 602.625 z M 254.20703 613.5 L 258.08398 613.5 C 261.48345 613.5 263.18217 614.17987 263.99805 617.44336 L 271.4082 648.31055 C 272.02011 650.89414 272.36133 653.41016 272.36133 653.41016 L 272.49609 653.41016 C 272.49609 653.41016 272.90446 650.96213 273.65234 648.31055 L 283.30664 613.63477 L 289.42578 613.63477 L 298.40039 648.31055 C 299.08028 650.96213 299.41992 653.41016 299.41992 653.41016 L 299.55664 653.41016 C 299.55664 653.41016 299.8295 650.89414 300.44141 648.31055 L 307.98828 617.44336 C 308.80415 614.17987 310.43452 613.5 313.83398 613.5 L 317.70898 613.5 L 317.70898 619.3457 L 316.68945 619.3457 C 315.46565 619.3457 314.71885 619.61799 314.37891 620.8418 L 303.83984 661.5 L 295.95312 661.5 L 287.79492 631.17773 C 286.97905 628.05022 286.43555 624.58203 286.43555 624.58203 L 286.29883 624.58203 C 286.29883 624.58203 285.61824 628.04985 284.73438 631.10938 L 276.0332 661.5 L 268.07812 661.5 L 257.53906 620.8418 C 257.19912 619.61799 256.45232 619.3457 255.22852 619.3457 L 254.20703 619.3457 L 254.20703 613.5 z M 326.5 613.5 L 354.7168 613.5 C 357.77632 613.5 359.06641 614.79204 359.06641 617.85156 L 359.06641 623.90234 L 352.88086 623.90234 L 352.88086 620.8418 C 352.88086 619.82196 352.33662 619.3457 351.38477 619.3457 L 337.71875 619.3457 L 337.71875 634.37305 L 354.51172 634.37305 L 354.51172 640.21875 L 337.71875 640.21875 L 337.71875 654.15625 C 337.71875 655.1081 338.26299 655.65234 339.21484 655.65234 L 353.2207 655.65234 C 354.17255 655.65234 354.7168 655.1081 354.7168 654.15625 L 354.7168 651.09766 L 360.9707 651.09766 L 360.9707 657.14844 C 360.9707 660.20796 359.67866 661.5 356.61914 661.5 L 335.27148 661.5 C 332.21196 661.5 330.91992 660.20796 330.91992 657.14844 L 330.91992 619.3457 L 326.5 619.3457 L 326.5 613.5 z M 370.41406 613.5 L 386.25586 613.5 L 386.25586 619.3457 L 381.56445 619.3457 L 381.56445 655.65234 L 386.25586 655.65234 L 386.25586 661.5 L 370.41406 661.5 L 370.41406 655.65234 L 375.10547 655.65234 L 375.10547 619.3457 L 370.41406 619.3457 L 370.41406 613.5 z M 396.6543 613.5 L 417.5957 613.5 C 426.02638 613.5 431.94141 618.80359 431.94141 627.57422 C 431.94141 635.59696 426.70611 639.53923 423.30664 640.28711 L 423.30664 640.42383 C 423.30664 640.42383 424.52983 641.03585 425.3457 642.59961 L 431.125 654.08984 C 431.80489 655.51762 432.89365 655.65234 434.52539 655.65234 L 435.4082 655.65234 L 435.4082 661.5 L 432.07812 661.5 C 428.33871 661.5 426.97782 661.02399 425.41406 657.89648 L 418.88672 644.97852 C 417.66291 642.73487 416.78049 642.39453 414.12891 642.39453 L 407.87305 642.39453 L 407.87305 661.5 L 401.07422 661.5 L 401.07422 619.3457 L 396.6543 619.3457 L 396.6543 613.5 z M 443.75 613.5 L 463.19531 613.5 C 477.81302 613.5 487.4668 622.27002 487.4668 637.43164 C 487.4668 652.66125 477.81302 661.5 463.19531 661.5 L 452.51953 661.5 C 449.46001 661.5 448.16992 660.20796 448.16992 657.14844 L 448.16992 619.3457 L 443.75 619.3457 L 443.75 613.5 z M 407.87305 619.3457 L 407.87305 636.54883 L 416.71094 636.54883 C 421.87813 636.54883 424.9375 633.21686 424.9375 627.8457 C 424.9375 622.47455 421.87887 619.3457 416.84766 619.3457 L 407.87305 619.3457 z M 454.96875 619.3457 L 454.96875 654.15625 C 454.96875 655.1081 455.51299 655.65234 456.46484 655.65234 L 462.71875 655.65234 C 473.39308 655.65234 480.39648 649.26179 480.39648 637.43164 C 480.39648 625.66949 473.32509 619.3457 462.71875 619.3457 L 454.96875 619.3457 z "
       transform="scale(0.26458334)"
       id="rect4172" />
  </g>
  <g
     inkscape:groupmode="layer"
     id="layer7"
     inkscape:label="MAKE">
    <text
       xml:space="preserve"
       style="font-style:normal;font-variant:normal;font-weight:normal;font-stretch:normal;font-size:17.99166679px;line-height:100%;font-family:Museo;-inkscape-font-specification:'Museo, Normal';text-align:start;letter-spacing:0px;word-spacing:0px;writing-mode:lr-tb;text-anchor:start;fill:#ffffff;fill-opacity:1;stroke:none;stroke-width:0.26458335px;stroke-linecap:butt;stroke-linejoin:miter;stroke-opacity:1"
       x="10.690782"
       y="175.02188"
       id="text4175"
       sodipodi:linespacing="100%"><tspan
         sodipodi:role="line"
         id="tspan4177"
         x="10.690782"
         y="175.02188"
         style="font-style:normal;font-variant:normal;font-weight:normal;font-stretch:normal;font-size:17.99166679px;line-height:100%;font-family:Museo;-inkscape-font-specification:'Museo, Normal';text-align:start;writing-mode:lr-tb;text-anchor:start;fill:#ffffff;fill-opacity:1;stroke-width:0.26458335px;letter-spacing:1.32291669px">MAKE</tspan></text>
  </g>
  <g
     inkscape:groupmode="layer"
     id="layer8"
     inkscape:label="MUSIC">
    <text
       xml:space="preserve"
       style="font-style:normal;font-variant:normal;font-weight:normal;font-stretch:normal;font-size:17.99166679px;line-height:100%;font-family:Museo;-inkscape-font-specification:'Museo, Normal';text-align:start;letter-spacing:0px;word-spacing:0px;writing-mode:lr-tb;text-anchor:start;fill:#ffffff;fill-opacity:1;stroke:none;stroke-width:0.26458335px;stroke-linecap:butt;stroke-linejoin:miter;stroke-opacity:1"
       x="134.21758"
       y="174.80598"
       id="text4180"
       sodipodi:linespacing="100%"><tspan
         sodipodi:role="line"
         id="tspan4182"
         x="134.21758"
         y="174.80598"
         style="font-style:normal;font-variant:normal;font-weight:normal;font-stretch:normal;font-size:17.99166679px;line-height:100%;font-family:Museo;-inkscape-font-specification:'Museo, Normal';text-align:start;writing-mode:lr-tb;text-anchor:start;fill:#ffffff;fill-opacity:1;stroke-width:0.26458335px">MUSIC</tspan></text>
  </g>
</svg>
