<?xml version="1.0" encoding="UTF-8" standalone="no"?>
<!-- Created with Inkscape (http://www.inkscape.org/) -->

<svg
   xmlns:dc="http://purl.org/dc/elements/1.1/"
   xmlns:cc="http://creativecommons.org/ns#"
   xmlns:rdf="http://www.w3.org/1999/02/22-rdf-syntax-ns#"
   xmlns:svg="http://www.w3.org/2000/svg"
   xmlns="http://www.w3.org/2000/svg"
   xmlns:xlink="http://www.w3.org/1999/xlink"
   xmlns:sodipodi="http://sodipodi.sourceforge.net/DTD/sodipodi-0.dtd"
   xmlns:inkscape="http://www.inkscape.org/namespaces/inkscape"
   width="1280"
   height="720"
   viewBox="0 0 338.66666 190.50001"
   id="svg2"
   version="1.1"
   inkscape:version="0.91+devel r13925"
   sodipodi:docname="michael-manring-concert-thumbnail.svg"
   inkscape:export-filename="/Users/agarone/Documents/git/art/michael-manring/concert/michael-manring-concert-covers-thumbnail-1920x1080.png"
   inkscape:export-xdpi="144"
   inkscape:export-ydpi="144">
  <defs
     id="defs4">
    <linearGradient
       id="linearGradient4224"
       inkscape:collect="always">
      <stop
         id="stop4226"
         offset="0"
         style="stop-color:#ababab;stop-opacity:1" />
      <stop
         id="stop4228"
         offset="1"
         style="stop-color:#7f7f7f;stop-opacity:1" />
    </linearGradient>
    <linearGradient
       gradientUnits="userSpaceOnUse"
       y2="137.17874"
       x2="147.86943"
       y1="171.19659"
       x1="146.57872"
       id="linearGradient4230"
       xlink:href="#linearGradient4224"
       inkscape:collect="always" />
  </defs>
  <sodipodi:namedview
     id="base"
     pagecolor="#ffffff"
     bordercolor="#666666"
     borderopacity="1.0"
     inkscape:pageopacity="0.0"
     inkscape:pageshadow="2"
     inkscape:zoom="0.80654367"
     inkscape:cx="567.0927"
     inkscape:cy="307.39726"
     inkscape:document-units="px"
     inkscape:current-layer="layer4"
     showgrid="false"
     units="px"
     inkscape:window-width="1920"
     inkscape:window-height="1151"
     inkscape:window-x="0"
     inkscape:window-y="1"
     inkscape:window-maximized="1"
     showguides="true" />
  <metadata
     id="metadata7">
    <rdf:RDF>
      <cc:Work
         rdf:about="">
        <dc:format>image/svg+xml</dc:format>
        <dc:type
           rdf:resource="http://purl.org/dc/dcmitype/StillImage" />
        <dc:title />
      </cc:Work>
    </rdf:RDF>
  </metadata>
  <g
     inkscape:label="Gray BG"
     inkscape:groupmode="layer"
     id="layer1"
     transform="translate(0,-106.49999)">
    <rect
       style="opacity:1;fill:#6d757b;fill-opacity:1;stroke:none;stroke-width:16.0535984;stroke-miterlimit:4;stroke-dasharray:none;stroke-opacity:1"
       id="rect4141"
       width="338.66669"
       height="190.5"
       x="1.4210855e-14"
       y="106.49999" />
  </g>
  <g
     inkscape:groupmode="layer"
     id="layer2"
     inkscape:label="Orange Banner">
    <rect
       style="opacity:1;fill:#de3d2d;fill-opacity:1;stroke:none;stroke-width:11.03082752;stroke-miterlimit:4;stroke-dasharray:none;stroke-opacity:1"
       id="rect4144"
       width="338.66669"
       height="43.65625"
       x="0"
       y="146.84375" />
  </g>
  <g
     inkscape:groupmode="layer"
     id="layer5"
     inkscape:label="Artist Image" />
  <g
     inkscape:label="Blue Banner"
     id="g4203"
     inkscape:groupmode="layer">
    <rect
       y="146.84375"
       x="0"
       height="43.65625"
       width="338.66669"
       id="rect4205"
       style="opacity:1;fill:#0e2e71;fill-opacity:1;stroke:none;stroke-width:11.03082752;stroke-miterlimit:4;stroke-dasharray:none;stroke-opacity:1" />
  </g>
  <g
     inkscape:groupmode="layer"
     id="layer3"
     inkscape:label="Discover"
     style="display:none">
    <text
       xml:space="preserve"
       style="font-style:normal;font-variant:normal;font-weight:normal;font-stretch:normal;font-size:20.26743698px;line-height:125%;font-family:Museo;-inkscape-font-specification:'Museo, Normal';text-align:start;letter-spacing:0px;word-spacing:0px;writing-mode:lr-tb;text-anchor:start;fill:#ffffff;fill-opacity:1;stroke:none;stroke-width:0.50668812px;stroke-linecap:butt;stroke-linejoin:miter;stroke-opacity:1"
       x="173.85484"
       y="40.767208"
       id="text4147"
       sodipodi:linespacing="125%"><tspan
         sodipodi:role="line"
         id="tspan4164"
         x="173.85484"
         y="40.767208">DISCOVER:</tspan></text>
  </g>
  <g
     inkscape:label="Interview"
     id="g4209"
     inkscape:groupmode="layer">
    <text
       sodipodi:linespacing="125%"
       id="text4211"
       y="27.317327"
       x="162.70128"
       style="font-style:normal;font-variant:normal;font-weight:normal;font-stretch:normal;font-size:20.26743698px;line-height:125%;font-family:Museo;-inkscape-font-specification:'Museo, Normal';text-align:start;letter-spacing:0px;word-spacing:0px;writing-mode:lr-tb;text-anchor:start;fill:#ffffff;fill-opacity:1;stroke:none;stroke-width:0.50668812px;stroke-linecap:butt;stroke-linejoin:miter;stroke-opacity:1"
       xml:space="preserve"><tspan
         id="tspan4213"
         sodipodi:role="line"
         x="162.70128"
         y="27.317327">CONCERT:</tspan></text>
    <text
       xml:space="preserve"
       style="font-style:normal;font-variant:normal;font-weight:normal;font-stretch:normal;font-size:20.26743698px;line-height:125%;font-family:Museo;-inkscape-font-specification:'Museo, Normal';text-align:start;letter-spacing:0px;word-spacing:0px;writing-mode:lr-tb;text-anchor:start;fill:#ffffff;fill-opacity:1;stroke:none;stroke-width:0.50668812px;stroke-linecap:butt;stroke-linejoin:miter;stroke-opacity:1"
       x="173.85484"
       y="40.767208"
       id="text4167"
       sodipodi:linespacing="125%"><tspan
         y="40.767208"
         x="173.85484"
         sodipodi:role="line"
         id="tspan4169" /></text>
    <g
       id="g4767"
       transform="matrix(0.55457992,0,0,0.55457992,67.249391,-9.2154692e-6)">
      <g
         style="display:none"
         transform="translate(0,-32.41665)"
         id="layer1-4"
         inkscape:label="BG">
        <rect
           y="32.416653"
           x="0"
           height="264.58334"
           width="264.58334"
           id="rect5606"
           style="opacity:1;fill:#ffffff;fill-opacity:1;stroke:none;stroke-width:11.60810661;stroke-miterlimit:4;stroke-dasharray:none;stroke-opacity:1" />
      </g>
      <g
         inkscape:label="Chair"
         id="layer26">
        <path
           style="fill:#0d0704;fill-opacity:1;fill-rule:evenodd;stroke:none;stroke-width:0.26458332px;stroke-linecap:butt;stroke-linejoin:miter;stroke-opacity:1"
           d="m 89.467755,264.58333 9.085198,-52.14672 c 0,0 0.668178,-2.07134 1.336344,-2.80633 0.668173,-0.73499 1.603613,-1.67043 2.739513,-1.67043 1.13589,0 20.64657,1.33634 20.64657,1.33634 0,0 1.79673,0.23571 3.0736,1.73994 1.09638,1.2916 1.20271,2.73683 1.33635,3.53863 0.13363,0.80181 3.4745,46.30445 3.4745,46.30445 l 7.48355,0.20045 -3.40769,-41.29314 c 0,0 0,-4.74403 -1.87089,-8.15172 -1.87088,-3.40769 -1.46998,-2.73951 -2.87314,-4.07586 -1.40317,-1.33634 -6.94901,-1.20271 -6.94901,-1.20271 l -24.054256,-1.60362 c 0,0 -1.804069,0.26727 -3.073598,1.33635 -1.269531,1.06908 -2.472245,4.67721 -2.472245,4.67721 L 83.72146,264.58333 Z"
           id="path6019"
           inkscape:connector-curvature="0"
           sodipodi:nodetypes="ccsscsscccssccsccc" />
        <path
           sodipodi:nodetypes="ccsscsscccssccsccc"
           inkscape:connector-curvature="0"
           id="path6015"
           d="m 45.970359,264.58333 7.951269,-48.4426 c 0,0 0.668173,-2.07134 1.336346,-2.80633 0.668174,-0.73499 1.603616,-1.67043 2.739512,-1.67043 1.135896,0 20.646572,1.33634 20.646572,1.33634 0,0 1.796728,0.23571 3.073598,1.73994 1.096382,1.2916 1.202715,2.73683 1.336348,3.53863 0.133635,0.80181 3.474505,46.30445 3.474505,46.30445 l 7.483545,0.20045 -3.407686,-41.29314 c 0,0 3e-6,-4.74403 -1.870885,-8.15172 -1.870887,-3.40769 -1.469983,-2.73951 -2.873148,-4.07586 -1.403164,-1.33634 -6.949008,-1.20271 -6.949008,-1.20271 L 54.85707,208.45673 c 0,0 -1.80407,0.26727 -3.073599,1.33635 -1.269531,1.06908 -2.472245,4.67721 -2.472245,4.67721 l -9.087162,50.11304 z"
           style="fill:#301b0d;fill-opacity:1;fill-rule:evenodd;stroke:none;stroke-width:0.26458332px;stroke-linecap:butt;stroke-linejoin:miter;stroke-opacity:1" />
        <path
           inkscape:connector-curvature="0"
           id="path6017"
           d="m 51.593749,198.24851 c -2.078868,0.94494 -2.015251,9.40641 -1.614347,9.7405 0.400902,0.33409 36.950012,3.00678 38.48681,2.87315 1.5368,-0.13364 33.675958,-3.14042 33.675958,-3.14042 l -9.88897,-10.49033 z"
           style="fill:#25150a;fill-opacity:1;fill-rule:evenodd;stroke:none;stroke-width:0.26458332px;stroke-linecap:butt;stroke-linejoin:miter;stroke-opacity:1" />
      </g>
      <g
         inkscape:label="Shirt"
         id="layer22">
        <path
           sodipodi:nodetypes="cssssssssssccssssssssssssscsssssssssssssssssccssscssssssccccsssc"
           inkscape:connector-curvature="0"
           id="path5985"
           d="m 45.168155,142.49702 c 0,0 -1.984375,3.49628 -4.630208,5.48066 -2.645833,1.98437 -6.331103,3.87425 -7.65402,5.38616 -1.322917,1.5119 -2.929313,4.15773 -3.401785,4.15773 -0.472469,0 -4.157737,-4.81919 -4.91369,-6.14211 -0.755952,-1.32291 0,-3.49628 -1.322917,-3.87425 -1.322916,-0.37798 -3.118303,-0.56697 -3.874255,-1.7009 -0.755953,-1.13393 -2.834822,-6.42559 -3.401786,-7.65401 -0.566964,-1.22843 -2.078869,-2.74033 -3.401786,-3.49628 C 11.244792,133.89806 8.5989582,128.5119 8.315476,127.37797 8.031994,126.24405 6.8035714,122.84226 5.2916666,122.46428 3.7797618,122.08631 0,115.37723 0,115.37723 L 0,87.218006 c 0,0 3.96875,-2.834823 4.8191964,-2.834823 0.8504463,0 1.4174108,-0.377976 2.0788691,-0.377976 0.6614583,0 1.3229167,-1.795388 2.6458333,-2.740326 1.3229162,-0.944941 3.5907732,-1.795389 4.3467262,-2.078871 0.755952,-0.283483 2.929315,-3.307292 5.764137,-4.441219 2.834821,-1.13393 5.953125,-0.472472 8.220981,-1.41741 2.267857,-0.944941 4.157739,-4.630208 6.709079,-5.291667 2.551337,-0.661458 5.38616,-1.228423 5.480653,-1.984375 0.09449,-0.755954 4.346726,0 5.480656,-0.944941 1.133928,-0.94494 2.83482,-4.346725 7.087052,-4.91369 4.252233,-0.566965 5.953125,-0.377976 7.654018,-0.755952 1.700892,-0.377978 9.543899,-3.779763 11.811756,-3.96875 2.267858,-0.188989 11.622768,-2.267857 12.567709,-2.456847 0.94494,-0.188986 2.078868,-1.228423 2.078868,-1.228423 0,0 4.346726,-2.929313 5.10268,-3.874254 0.755952,-0.944941 3.96875,-7.276042 4.819195,-7.181548 0.850447,0.09449 1.511906,0.566965 1.511906,1.133927 0,0.566965 -1.6064,2.456847 -1.511906,4.157739 0.0945,1.700893 0.377976,5.953125 1.322916,7.654018 0.944941,1.700892 4.535715,6.614583 7.276045,8.598958 2.74033,1.984375 6.14211,6.425597 7.843,6.331101 1.7009,-0.09449 5.5555,-0.9412 6.4256,-0.897694 0.94494,0.04725 4.20498,-1.417409 5.33891,-0.661457 1.13393,0.755954 4.20499,2.598586 5.33892,2.787575 1.13393,0.188986 3.96875,1.984374 5.57515,3.77976 1.6064,1.795388 6.99255,6.142114 8.31547,8.409971 1.32292,2.267858 3.2128,5.953125 4.91369,7.559524 1.70089,1.6064 6.4256,6.520088 7.46503,8.315476 1.03943,1.795386 2.82392,23.560738 4.42754,25.164358 1.60362,1.60361 5.96886,2.03301 7.83975,1.76574 0.85199,-0.12171 3.53976,-0.63898 5.69999,-1.37213 2.58342,-0.87678 4.6156,-1.98102 4.6156,-1.98102 2.01793,-0.36631 4.53691,0.51903 4.53691,0.51903 0,0 -2.17336,0.56697 -2.26785,2.74033 -0.0945,2.17336 0.0945,3.2128 1.88988,4.53571 1.79538,1.32292 2.17336,3.59078 3.49628,3.02381 1.32291,-0.56696 5.29166,-3.87425 5.29166,-3.87425 0,0 1.09033,0.0589 0.85647,0.7605 -0.23386,0.70158 -3.842,4.17608 -5.47903,4.57699 -1.63702,0.4009 -5.91333,6.28083 -13.12961,7.08264 -7.21628,0.80181 -20.04521,5.61266 -21.9161,4.54358 -1.87088,-1.06907 -10.95805,-12.2944 -12.82894,-10.15624 -1.87089,2.13816 -2.13815,7.21628 -1.06908,12.2944 1.06908,5.07812 2.13816,14.69982 2.13816,14.69982 l -77.240894,10.95805 3.741775,-26.99422 -36.081385,-29.13238 c 0,0 3.474503,4.27632 3.474503,7.48355 0,3.20723 0.801809,5.07812 2.138156,6.94901 1.336347,1.87088 4.543581,3.20723 4.543581,5.07812 0,1.87088 3.740984,4.65531 4.008649,5.93579 z"
           style="fill:#0f0e0c;fill-opacity:1;fill-rule:evenodd;stroke:none;stroke-width:0.26458332px;stroke-linecap:butt;stroke-linejoin:miter;stroke-opacity:1" />
      </g>
      <g
         style="display:inline"
         inkscape:label="Bass Body"
         id="layer18-9">
        <path
           sodipodi:nodetypes="cssssssssccssssssssc"
           inkscape:connector-curvature="0"
           id="path5926"
           d="m 18.709822,177.08184 c 1.039434,3.49628 6.08248,13.13179 13.134671,16.53646 6.365451,3.07313 16.914434,3.30729 22.111607,1.7009 5.197173,-1.6064 13.418156,-7.27605 18.048364,-12.8512 4.630208,-5.57514 2.173362,-5.85863 10.394344,-12.28422 8.220983,-6.4256 22.300592,-4.72471 23.056552,-5.48066 0.75595,-0.75595 -0.56697,-7.18155 -5.19718,-7.37053 -4.630205,-0.18899 -24.473955,8.22098 -25.702379,8.22098 -1.22842,0 -4.346725,-0.0945 -6.047618,-4.25223 -1.700892,-4.15774 3.590774,-8.78795 3.590774,-8.78795 L 108.0067,124.63765 c 0,0 -5.48066,-1.13393 -5.66965,-4.06325 -0.18899,-2.92931 0.66146,-7.843 7.65402,-12.37872 6.99256,-4.53571 16.81994,-5.66964 16.81994,-6.52009 0,-0.85044 -5.29167,-5.669638 -10.48884,-7.276039 -4.74978,-1.468117 -7.9375,-1.039434 -9.26041,-0.283482 -1.32292,0.755954 -15.780511,20.032741 -31.466522,23.718011 -15.686013,3.68526 -26.458333,-5.38616 -42.805804,-1.32292 -16.34747,4.06324 -24.6629459,16.72545 -22.8675591,28.6317 1.7953871,11.90625 8.7879471,31.93898 8.7879471,31.93898 z"
           style="fill:#9f672a;fill-opacity:1;fill-rule:evenodd;stroke:none;stroke-width:0.26458332px;stroke-linecap:butt;stroke-linejoin:miter;stroke-opacity:1" />
        <circle
           r="1.7372519"
           cy="186.27336"
           cx="56.126598"
           id="path5998"
           style="fill:#000000;fill-opacity:1;fill-rule:evenodd;stroke:none;stroke-width:0.26458332px;stroke-linecap:butt;stroke-linejoin:miter;stroke-opacity:1" />
        <circle
           style="fill:#000000;fill-opacity:1;fill-rule:evenodd;stroke:none;stroke-width:0.26458332px;stroke-linecap:butt;stroke-linejoin:miter;stroke-opacity:1"
           id="circle6000"
           cx="47.039433"
           cy="188.94606"
           r="1.7372519" />
      </g>
      <g
         style="display:inline"
         inkscape:label="Legs"
         id="layer17">
        <path
           inkscape:connector-curvature="0"
           id="path5923"
           d="m 145.80431,208.64285 c 0,0 8.69346,2.64584 11.05581,2.64584 2.36235,0 11.0558,0.37797 11.0558,0.37797 0,0 -3.40178,0.0945 -7.65402,4.34673 -4.25223,4.25223 -13.79613,16.25298 -13.79613,16.25298 l 6.23661,26.55282 39.21503,-55.84598 -14.3631,-17.85937 -35.71875,13.04017 z"
           style="fill:#000000;fill-opacity:1;fill-rule:evenodd;stroke:none;stroke-width:0.26458332px;stroke-linecap:butt;stroke-linejoin:miter;stroke-opacity:1" />
        <path
           sodipodi:nodetypes="cscssscsscccc"
           inkscape:connector-curvature="0"
           id="path5921"
           d="m 77.777283,173.81926 c 0,0 -8.783588,11.5995 -12.643208,14.62283 -6.81897,5.34146 -14.201784,7.63305 -14.201784,7.63305 0,0 0.944941,5.76414 3.212798,8.31548 2.267858,2.55134 7.370535,6.52009 10.866816,6.23661 3.496278,-0.28348 24.284969,-1.41741 29.671129,-3.49628 5.386166,-2.07887 13.040176,-4.91369 13.040176,-4.91369 0,0 1.7009,-0.47247 1.6064,1.22842 -0.0945,1.70089 7.84301,41.76637 7.84301,47.05804 0,5.29166 1.79539,14.07961 1.79539,14.07961 l 10.58333,0 -6.3311,-94.11607 c 0,0 -42.70263,-0.23878 -45.442957,3.352 z"
           style="fill:#000000;fill-opacity:1;fill-rule:evenodd;stroke:none;stroke-width:0.26458332px;stroke-linecap:butt;stroke-linejoin:miter;stroke-opacity:1" />
        <path
           inkscape:connector-curvature="0"
           id="path5911"
           d="m 143.06399,167.25446 c 0,0 5.85863,1.41741 6.89806,1.98438 1.03944,0.56696 4.7247,1.32291 6.23661,1.41741 1.5119,0.0945 33.2619,9.07143 37.32515,11.62277 4.06324,2.55134 7.65401,4.6302 8.12649,5.76413 0.47246,1.13393 3.40178,9.6384 2.64583,13.22917 -0.75595,3.59077 -12.09524,22.39509 -14.2686,27.49777 -2.17337,5.10267 -15.49703,29.86012 -16.25298,31.27753 -0.75595,1.41741 -5.19717,4.53571 -5.19717,4.53571 l -12.09524,0 -8.59896,-32.60045 c 0,0 5.48066,-5.95312 7.08706,-7.843 1.6064,-1.88988 8.50446,-9.16592 8.50446,-9.92188 0,-0.75595 0,-3.02381 0.56696,-3.96875 0.56697,-0.94494 5.29167,-2.17336 7.9375,-3.30729 2.64584,-1.13393 3.68527,-2.26786 3.40179,-3.1183 -0.28348,-0.85045 -4.53571,2.17336 -5.19717,1.98437 -0.66146,-0.18898 3.30729,-1.98437 1.6064,-2.83482 -1.7009,-0.85045 -2.92932,0.85045 -3.96875,0.85045 -1.03944,0 4.53571,-3.40179 6.14211,-3.49628 1.6064,-0.0945 4.25223,-0.47247 4.15774,-1.03943 -0.0945,-0.56697 -3.02381,-1.79539 -4.72471,-1.03944 -1.70089,0.75595 -5.85862,5.85863 -7.74851,5.76414 -1.88988,-0.0945 -0.37797,-1.03944 -3.1183,-0.85045 -2.74033,0.18899 -4.91369,2.55134 -7.46503,2.45685 -2.55134,-0.0945 -5.00818,-1.41742 -5.00818,-1.41742 0,0 4.15773,0.94494 7.9375,-1.98437 3.77976,-2.92931 4.53571,-2.45685 4.53571,-2.45685 0,0 -8.78795,-0.75595 -7.08705,-1.41741 1.70089,-0.66145 12.47321,-1.5119 10.29985,-2.17336 -2.17336,-0.66146 -5.95313,-1.5119 -10.86682,0.75595 -4.91369,2.26786 -7.843,3.68527 -7.843,3.68527 0,0 -17.38691,-22.11161 -3.96875,-33.3564 z"
           style="fill:#6a6a6a;fill-opacity:1;fill-rule:evenodd;stroke:none;stroke-width:0.26458332px;stroke-linecap:butt;stroke-linejoin:miter;stroke-opacity:1" />
        <path
           inkscape:connector-curvature="0"
           id="path5909"
           d="m 75.973214,177.64881 c 0.661458,-1.98438 4.819195,-8.97694 7.559524,-10.29985 2.740327,-1.32292 12.095237,-4.72471 17.292412,-6.14212 5.19717,-1.41741 22.58407,-4.25223 27.11979,-4.15773 4.53571,0.0945 10.96131,1.70089 12.7567,3.40178 1.79538,1.70089 6.04761,5.76414 6.04761,7.18155 0,1.41741 3.2128,10.11086 3.2128,13.04018 0,2.92931 -0.28348,11.81175 -0.75595,13.22916 -0.47247,1.41742 -0.85045,1.03944 -0.85045,2.36235 0,1.32292 1.98438,4.91369 1.98438,8.40997 0,3.49628 0.18899,24.19048 0.85044,28.15923 0.66146,3.96875 4.63021,20.50521 5.76414,22.86756 1.13393,2.36235 3.87426,8.88244 3.87426,8.88244 l -40.34896,0 c 0,0 -2.07887,-12.94568 -2.07887,-15.11905 0,-2.17336 -0.37798,-5.00818 -0.66146,-6.80357 -0.28348,-1.79539 -1.79538,-10.58333 -1.79538,-11.90625 0,-1.32291 -0.94494,-8.12649 -1.51191,-12.56771 -0.56696,-4.44122 -1.22842,-11.62276 -0.75595,-13.98512 0.47247,-2.36235 0.37797,-6.3311 0.37797,-7.9375 0,-1.60639 0.0945,-6.2366 0.85045,-7.27604 0.75595,-1.03943 2.74033,-6.52009 2.74033,-6.52009 0,0 -2.92932,3.68527 -3.30729,3.68527 -0.37798,0 -4.06325,-3.02381 -4.91369,-2.92931 -0.85045,0.0945 -0.47248,4.06324 -0.47248,4.06324 0,0 -0.94493,-3.68527 -0.94493,-4.34673 0,-0.66145 -3.3073,3.02381 -6.4256,4.44123 -3.118303,1.41741 -9.5439,8.03199 -11.055803,8.03199 -1.511906,0 2.929316,-6.4256 5.197171,-8.88244 2.267857,-2.45685 12.851192,-8.97694 12.851192,-8.97694 0,0 -13.701637,3.3073 -15.780505,3.96875 -2.078871,0.66146 -12.284229,8.31548 -14.268604,9.73289 -1.984375,1.41741 -5.764135,6.14211 -6.236604,6.14211 -0.472472,0 2.456844,-3.21279 2.83482,-5.00818 0.377975,-1.79539 1.606399,-5.85863 1.606399,-5.85863 0,0 -5.291667,4.53571 -6.709077,4.53571 -1.417412,0 -3.685267,0.37798 -3.685267,0.37798 0,0 8.315475,-10.01637 9.638392,-13.79613 z"
           style="fill:#757575;fill-opacity:1;fill-rule:evenodd;stroke:none;stroke-width:0.26458332px;stroke-linecap:butt;stroke-linejoin:miter;stroke-opacity:1" />
      </g>
      <g
         style="display:inline"
         inkscape:label="Bass Neck"
         id="layer19">
        <path
           sodipodi:nodetypes="cccscsccccscscc"
           inkscape:connector-curvature="0"
           id="path5929"
           d="m 61.421131,139.94568 4.630208,13.32366 176.136901,-65.484372 c 0,0 2.26786,-0.661458 4.44122,-0.188987 2.17336,0.47247 6.52009,2.551338 6.52009,2.551338 0,0 5.65998,-3.644428 7.46503,-4.441219 1.88988,-0.834235 9.01764,-2.358253 9.01764,-2.358253 l 0.22115,-3.034479 c 0,0 1.16235,-0.568022 3.40687,-0.876474 0.0943,-2.271463 2.19035,-7.441263 2.38839,-9.040265 -2.18104,-1.528405 -5.25555,-4.651087 -6.33438,-5.802692 -1.17734,0.588666 -2.59487,1.262413 -2.59487,1.262413 0,0 -0.75378,-0.11192 -2.13606,-1.879016 -2.03898,1.12241 -7.64255,3.189754 -10.47737,3.940956 -2.75391,0.729761 -9.55536,1.723821 -9.55536,1.723821 0,0 -1.5119,3.96875 -3.02381,5.764138 -1.5119,1.795386 -4.44122,3.023809 -4.44122,3.023809 z"
           style="fill:#000000;fill-opacity:1;fill-rule:evenodd;stroke:none;stroke-width:0.26458332px;stroke-linecap:butt;stroke-linejoin:miter;stroke-opacity:1" />
        <rect
           ry="1.0600638"
           transform="matrix(0.94757653,-0.31952891,0.31795027,0.94810739,0,0)"
           y="150.17151"
           x="0.2795248"
           height="22.1999"
           width="12.819414"
           id="rect5931"
           style="opacity:1;fill:#000000;fill-opacity:1;stroke:none;stroke-width:1.45320511;stroke-linecap:round;stroke-miterlimit:4;stroke-dasharray:none;stroke-opacity:1" />
        <rect
           style="opacity:1;fill:#000000;fill-opacity:1;stroke:none;stroke-width:1.68785226;stroke-linecap:round;stroke-miterlimit:4;stroke-dasharray:none;stroke-opacity:1"
           id="rect5992"
           width="14.889348"
           height="25.784489"
           x="-31.53244"
           y="147.67442"
           transform="matrix(0.94757653,-0.31952891,0.31795027,0.94810739,0,0)"
           ry="1.231231" />
      </g>
      <g
         style="display:inline"
         inkscape:label="Strings"
         id="layer21">
        <path
           sodipodi:nodetypes="ccc"
           inkscape:connector-curvature="0"
           id="path5976"
           d="M 24.453731,154.36756 237.86988,79.098279 252.30243,72.282906"
           style="fill:none;fill-rule:evenodd;stroke:#7f7f7f;stroke-width:0.26458332;stroke-linecap:round;stroke-linejoin:miter;stroke-miterlimit:4;stroke-dasharray:none;stroke-opacity:1" />
        <path
           sodipodi:nodetypes="ccc"
           inkscape:connector-curvature="0"
           id="path5978"
           d="M 26.499696,158.18367 238.93896,81.370071 264.58333,69.932833"
           style="fill:none;fill-rule:evenodd;stroke:#7f7f7f;stroke-width:0.26458332;stroke-linecap:round;stroke-linejoin:miter;stroke-miterlimit:4;stroke-dasharray:none;stroke-opacity:1" />
        <path
           sodipodi:nodetypes="ccc"
           inkscape:connector-curvature="0"
           id="path5980"
           d="M 28.510257,162.2168 240.40894,84.176401 264.58332,78.83101"
           style="fill:none;fill-rule:evenodd;stroke:#7f7f7f;stroke-width:0.26458332;stroke-linecap:round;stroke-linejoin:miter;stroke-miterlimit:4;stroke-dasharray:none;stroke-opacity:1" />
        <path
           sodipodi:nodetypes="ccc"
           inkscape:connector-curvature="0"
           id="path5982"
           d="M 29.303722,166.15034 241.47802,86.98273 255.50966,83.107323"
           style="fill:none;fill-rule:evenodd;stroke:#7f7f7f;stroke-width:0.26458332;stroke-linecap:round;stroke-linejoin:miter;stroke-miterlimit:4;stroke-dasharray:none;stroke-opacity:1" />
      </g>
      <g
         inkscape:label="Sleeve"
         id="layer23"
         style="fill:#0f0e0c;fill-opacity:1">
        <path
           style="display:inline;fill:#0f0e0c;fill-opacity:1;fill-rule:evenodd;stroke:none;stroke-width:0.26458332px;stroke-linecap:butt;stroke-linejoin:miter;stroke-opacity:1"
           d="m 45.168155,142.49702 c 0,0 -1.984375,3.49628 -4.630208,5.48066 -2.645833,1.98437 -6.331103,3.87425 -7.65402,5.38616 -1.322917,1.5119 -2.929313,4.15773 -3.401785,4.15773 -0.472469,0 -4.157737,-4.81919 -4.91369,-6.14211 -0.755952,-1.32291 0,-3.49628 -1.322917,-3.87425 -1.322916,-0.37798 -3.118303,-0.56697 -3.874255,-1.7009 -0.755953,-1.13393 -2.834822,-6.42559 -3.401786,-7.65401 -0.566964,-1.22843 -2.078869,-2.74033 -3.401786,-3.49628 C 11.244792,133.89806 8.5989582,128.5119 8.315476,127.37797 8.031994,126.24405 6.8035714,122.84226 5.2916666,122.46428 3.7797618,122.08631 0,115.37723 0,115.37723 c 8.3379381,-2.88205 9.9188789,-2.72822 15.01843,-2.92868 l 15.984836,4.602 c 0,0 3.474503,4.27632 3.474503,7.48355 0,3.20723 0.801809,5.07812 2.138156,6.94901 1.336347,1.87088 4.543581,3.20723 4.543581,5.07812 0,1.87088 3.740984,4.65531 4.008649,5.93579 z"
           id="path5987"
           inkscape:connector-curvature="0"
           sodipodi:nodetypes="csssssssssccccsssc" />
      </g>
      <g
         style="display:inline"
         inkscape:label="Hands"
         id="layer20">
        <path
           inkscape:connector-curvature="0"
           id="path5934"
           d="m 44.901281,142.44116 c 0,0 3.00678,1.33635 3.875407,1.33635 0.868627,0 1.202714,-0.46773 1.937705,-0.33409 0.734992,0.13363 4.009041,1.67043 6.214015,1.13589 2.204974,-0.53454 5.078121,-2.80633 5.612662,-2.87314 0.534538,-0.0668 0.734991,-0.20046 1.46998,0.20045 0.734991,0.4009 0.400904,5.74629 -4.009041,7.41673 -4.409948,1.67043 -5.813113,0.93544 -6.949009,1.73725 -1.135895,0.80181 -1.603615,2.47224 -0.868627,3.40769 0.734992,0.93544 1.269532,1.20271 1.269532,1.20271 0,0 0.801809,-0.86863 1.336347,-0.80181 0.53454,0.0668 3.942225,3.00678 4.34313,4.07586 0.400905,1.06908 0.734991,2.13816 0.200454,3.00678 -0.534541,0.86863 -1.469983,2.33861 -1.469983,2.33861 0,0 0.601356,1.5368 0.133633,2.07134 -0.46772,0.53454 -2.271789,3.20723 -3.207234,3.40769 -0.935442,0.20045 -1.403165,-0.13364 -1.403165,-0.13364 0,0 -2.53906,3.20724 -3.674956,3.20724 -1.135894,0 -2.873148,-1.5368 -2.873148,-1.5368 0,0 -1.069078,0.66817 -2.00452,0.53454 -0.935442,-0.13364 -7.416729,-5.27858 -8.485807,-6.94901 -1.069078,-1.67044 -5.011303,-8.35218 -4.944488,-9.2208 0.06682,-0.86863 4.409948,-5.47903 7.283095,-7.21628 2.873148,-1.73725 5.946746,-4.27631 6.214018,-6.01356 z"
           style="fill:#b76933;fill-opacity:1;fill-rule:evenodd;stroke:none;stroke-width:0.26458332px;stroke-linecap:butt;stroke-linejoin:miter;stroke-opacity:1" />
        <path
           sodipodi:nodetypes="cssccsssssssscsscssssscsssc"
           inkscape:connector-curvature="0"
           id="path5936"
           d="m 180.40693,124.73455 c 0.53454,-1.00226 1.06908,-2.53906 1.67043,-2.53906 0.60136,0 1.46999,-0.13364 1.46999,-0.60136 0,-0.46772 0.53454,-1.67043 0.8018,-2.00452 0.26727,-0.33408 0.0668,-1.9377 0.53454,-2.07134 0.46773,-0.13363 -1.60361,-7.01582 -2.20497,-8.4858 -0.60136,-1.46999 -1.29295,-4.29393 -0.73499,-5.01131 0.93544,-1.20271 2.27179,-1.46997 3.27405,-0.53454 0.62556,0.58385 2.53906,6.74856 3.0736,7.01583 0.25796,0.12898 1.41438,3.43127 1.99047,3.17899 0.50489,-0.2211 -0.52049,-3.40005 -0.52049,-3.78035 0,-0.73499 -1.67043,-4.67722 -2.73951,-6.5481 -1.06908,-1.87089 -2.40543,-3.27405 -1.26953,-4.476766 1.1359,-1.202713 3.00678,-0.534537 3.00678,-0.534537 0,0 -0.73499,-0.734992 0.26727,-1.80407 1.00226,-1.069078 1.80407,-0.801809 2.47224,-0.734991 0.66818,0.06682 1.20272,0.534538 1.20272,0.534538 0,0 0.0668,-0.601356 0.86862,-0.734992 0.80181,-0.133633 1.26953,-0.267268 2.53906,0.133636 1.26954,0.400905 6.74856,5.879932 7.21628,6.882192 0.46772,1.00226 1.67043,3.94222 1.1359,5.34539 -0.53454,1.40316 0.33408,5.81311 -0.20046,6.61492 -0.53453,0.80181 -1.40316,0.60136 -2.00452,1.40316 -0.60135,0.80181 -0.66817,2.80634 -1.46998,3.27406 -0.80181,0.46772 -5.74629,7.55036 -6.81537,8.15172 -1.06908,0.60135 -4.87767,5.67947 -6.94901,5.54584 -2.07134,-0.13364 -6.94901,1.26953 -6.61492,-8.21854 z"
           style="fill:#b36129;fill-opacity:1;fill-rule:evenodd;stroke:none;stroke-width:0.26458332px;stroke-linecap:butt;stroke-linejoin:miter;stroke-opacity:1" />
        <path
           inkscape:connector-curvature="0"
           id="path5938"
           d="m 41.760864,161.61775 c 0,0 1.135894,1.80406 1.937703,1.80406 0.801809,0 1.269532,-0.4009 2.071338,0 0.801809,0.40091 4.209497,2.53907 4.944488,2.93997 0.734992,0.4009 2.605876,0.26727 2.672694,0.53454 0.06682,0.26727 2.271792,2.73951 1.336347,2.67269 -0.935442,-0.0668 -3.140416,-0.60135 -4.476763,-1.60361 -1.336347,-1.00226 -2.873147,-2.47225 -3.674957,-2.47225 -0.801809,0 -2.071338,0 -3.207234,-0.53453 -1.135896,-0.53455 -1.603616,-1.93771 -1.603616,-3.34087 z"
           style="fill:#a05c2c;fill-opacity:1;fill-rule:evenodd;stroke:none;stroke-width:0.26458332px;stroke-linecap:butt;stroke-linejoin:miter;stroke-opacity:1" />
        <path
           inkscape:connector-curvature="0"
           id="path5940"
           d="m 47.106255,158.94505 c 0,0 1.469982,-0.53454 2.806329,-0.20045 1.336347,0.33408 5.412208,3.27405 6.414469,3.34087 1.00226,0.0668 2.939965,0 2.472242,0.60135 -0.467722,0.60136 -0.06682,2.73952 -1.135896,2.60588 -1.069078,-0.13363 -8.753075,-3.34087 -10.557144,-6.34765 z"
           style="fill:#a05c2c;fill-opacity:1;fill-rule:evenodd;stroke:none;stroke-width:0.26458332px;stroke-linecap:butt;stroke-linejoin:miter;stroke-opacity:1" />
        <path
           sodipodi:nodetypes="cssssssscc"
           inkscape:connector-curvature="0"
           id="path5942"
           d="m 46.70535,171.17263 c 0,0 -4.944486,-4.87767 -5.746295,-5.21175 -0.801809,-0.33409 -1.670436,-0.33409 -2.605878,-1.46999 -0.935443,-1.13589 -1.002261,-3.60814 -0.133636,-3.74177 0.868627,-0.13363 -4.009041,-3.20723 -5.011304,-3.80859 -1.00226,-0.60136 -2.204971,-1.9377 -1.937702,-1.20271 0.267269,0.73499 3.875406,7.81763 4.877669,8.68625 1.00226,0.86863 2.438833,1.43658 3.040191,1.73726 0.601355,0.30068 4.944485,5.11153 5.646068,5.17834 0.701582,0.0668 1.436574,0.33409 1.870887,-0.16704 z"
           style="fill:#a05c2c;fill-opacity:1;fill-rule:evenodd;stroke:none;stroke-width:0.26458332px;stroke-linecap:butt;stroke-linejoin:miter;stroke-opacity:1" />
        <path
           inkscape:connector-curvature="0"
           id="path5944"
           d="m 53.620947,155.73782 c 0,0 3.674957,2.60587 4.309721,2.83974 0.634767,0.23386 0.935445,0.13363 0.935445,0.13363 0,0 -2.706105,-3.74177 -3.541321,-3.77518 -0.835218,-0.0334 -1.369755,0.0668 -1.703845,0.80181 z"
           style="fill:#a05c2c;fill-opacity:1;fill-rule:evenodd;stroke:none;stroke-width:0.26458332px;stroke-linecap:butt;stroke-linejoin:miter;stroke-opacity:1" />
        <path
           inkscape:connector-curvature="0"
           id="path5967"
           d="m 193.45294,96.053197 c 0.59059,-0.259858 1.41741,-0.425222 1.88988,-0.307104 0.47247,0.118117 6.68545,5.929497 7.03981,6.685457 0.35435,0.75595 1.41741,2.43322 0.25985,2.92931 -1.15755,0.49609 -1.81901,0.49609 -2.19698,0.14174 -0.37798,-0.35435 -2.26786,-3.30729 -3.28367,-4.34672 -1.01581,-1.03944 -3.80339,-3.307295 -3.89788,-3.850635 -0.0945,-0.543343 -0.0945,-0.874072 0.18899,-1.252048 z"
           style="fill:#c66c2f;fill-opacity:1;fill-rule:evenodd;stroke:none;stroke-width:0.26458332px;stroke-linecap:butt;stroke-linejoin:miter;stroke-opacity:1" />
        <path
           inkscape:connector-curvature="0"
           id="path5969"
           d="m 189.95666,96.360304 c 0.49609,-0.25986 1.41741,-0.425225 1.84263,-0.188989 0.42522,0.236236 4.15774,3.992375 4.67746,4.630205 0.51971,0.63784 2.78757,4.44122 2.66945,5.00819 -0.11812,0.56696 -0.4016,1.70089 -0.7087,1.88988 -0.30711,0.18899 -2.33873,0.54334 -2.74033,0.11812 -0.4016,-0.42523 -2.66946,-4.60659 -3.16555,-5.48066 -0.49609,-0.87407 -3.44903,-3.543524 -3.5199,-3.992371 -0.0709,-0.448847 -0.0945,-1.441034 0.94494,-1.984375 z"
           style="fill:#c66c2f;fill-opacity:1;fill-rule:evenodd;stroke:none;stroke-width:0.26458332px;stroke-linecap:butt;stroke-linejoin:miter;stroke-opacity:1" />
        <path
           inkscape:connector-curvature="0"
           id="path5971"
           d="m 186.57849,98.769902 c 0.75596,-0.236236 1.25205,-0.496094 1.84264,-0.09449 0.59059,0.401598 2.92932,3.141928 3.40178,4.110488 0.47248,0.96856 2.59859,4.7247 2.57497,5.43341 -0.0236,0.7087 -0.35435,1.25204 -1.03944,1.53553 -0.68508,0.28348 -2.3151,0.49609 -2.78757,-0.0709 -0.47247,-0.56696 -2.05525,-4.41759 -1.9135,-4.7247 0.14174,-0.3071 0.66145,-0.66146 0.47246,-0.75595 -0.18898,-0.0945 -1.22842,-0.51972 -1.53552,-0.96856 -0.30711,-0.44885 -1.91351,-2.66946 -1.84264,-3.09469 0.0709,-0.425214 0.14174,-0.944932 0.82682,-1.370154 z"
           style="fill:#c66c2f;fill-opacity:1;fill-rule:evenodd;stroke:none;stroke-width:0.26458332px;stroke-linecap:butt;stroke-linejoin:miter;stroke-opacity:1" />
        <path
           inkscape:connector-curvature="0"
           id="path5973"
           d="m 183.15308,104.06157 c -0.47246,0.25986 -0.87406,0.7087 -0.87406,0.89769 0,0.18899 0.4016,2.7167 0.92131,3.00019 0.51972,0.28348 1.48829,0.14174 1.39379,0.35435 -0.0945,0.21261 -0.8032,0.61421 -0.8032,1.11031 0,0.49609 0.63783,4.08686 1.25205,4.58296 0.61421,0.49609 1.53552,0.75595 2.14974,0.56696 0.61421,-0.18899 1.44103,-1.25205 1.37016,-1.86626 -0.0709,-0.61421 -1.70089,-4.34672 -2.14974,-5.33891 -0.44885,-0.99219 -1.27567,-3.42541 -1.70089,-3.5199 -0.42523,-0.0945 -0.96857,-0.11812 -1.55916,0.21261 z"
           style="fill:#c66c2f;fill-opacity:1;fill-rule:evenodd;stroke:none;stroke-width:0.26458332px;stroke-linecap:butt;stroke-linejoin:miter;stroke-opacity:1" />
      </g>
      <g
         inkscape:label="Head"
         id="layer24">
        <path
           sodipodi:nodetypes="cssssccsscsscssssssssssscc"
           inkscape:connector-curvature="0"
           id="path6006"
           d="m 138.90625,19.607514 c 0,0 1.08668,2.69308 1.18117,4.819197 0.0945,2.126115 -0.33072,9.591146 -0.18898,10.063615 0.14174,0.472472 0.75595,1.181177 0.75595,1.842635 0,0.661459 -0.37798,1.653646 -0.89769,1.748139 -0.51972,0.09449 -0.0472,1.582775 -0.35436,2.362351 -0.3071,0.779576 -1.79539,1.795388 -1.77176,1.984374 0.0236,0.18899 0.51971,1.34654 0.51971,2.504092 0,0.683161 -0.95418,2.421821 -1.34184,4.245301 -0.26919,1.266239 0.0116,2.780965 -0.0756,3.148861 -0.21262,0.897692 -0.4016,2.220608 -0.92132,2.882066 -0.51972,0.661459 -0.87407,0.377977 -1.63002,0.992189 -0.75595,0.614212 -3.25055,1.590881 -3.34504,2.063352 -0.0945,0.47247 -1.09075,3.323503 -1.79945,4.528304 -0.68733,1.16846 -2.60649,4.125548 -5.03725,4.535017 -1.67461,0.282093 -3.18917,0.0945 -3.85063,0.472471 -0.66146,0.377976 -9.31831,-0.759887 -10.6176,-1.090617 -1.29929,-0.330729 -10.076595,-7.933564 -11.635748,-10.815633 -1.559152,-2.882069 -1.984375,-9.520277 -1.677268,-10.583333 0.307105,-1.063059 1.889879,-3.141927 1.795386,-3.519903 -0.09449,-0.377978 -2.385975,-2.811197 -2.69308,-3.614398 -0.307107,-0.803199 -1.015812,-3.708892 -0.755952,-5.457032 0.259858,-1.748139 1.157553,-5.220795 2.267855,-5.598771 1.110306,-0.377975 3.236427,-1.086682 3.897877,-0.04725 0.66146,1.039434 18.96968,-10.984934 18.96968,-10.984934 z"
           style="fill:#ba6934;fill-opacity:1;fill-rule:evenodd;stroke:none;stroke-width:0.26458332px;stroke-linecap:butt;stroke-linejoin:miter;stroke-opacity:1" />
        <path
           sodipodi:nodetypes="cssssssssssssscssssssscsssssssccccssssssscssscsccssscc"
           inkscape:connector-curvature="0"
           id="path6008"
           d="m 118.4004,58.652161 c 0.66817,0.53454 2.33861,-0.46772 3.54132,-0.668174 1.20271,-0.200451 2.73951,0.868627 3.4745,0.868627 0.735,0 3.14042,0 3.47451,0.267269 0.33409,0.267269 -0.13364,3.073598 -1.33635,3.34087 -1.20271,0.267269 -2.20497,-0.935445 -4.27631,-0.801809 -2.07134,0.133635 -5.21176,-0.601356 -4.81085,0.06682 0.4009,0.668173 1.06908,2.672693 2.13815,2.605876 1.06908,-0.06682 2.33861,-0.734989 3.40769,-0.734989 1.06908,0 2.53906,0.334087 2.53906,1.00226 0,0.668173 -0.73499,3.140416 -5.81311,2.605876 -5.07812,-0.534538 -6.01357,-7.082642 -6.81538,-7.14946 -0.8018,-0.06682 2.40543,5.479026 1.67044,5.479026 -0.73499,0 -5.54584,-3.207234 -6.68174,-3.608138 -1.1359,-0.400905 -3.54132,-3.34087 -3.67495,-2.539061 -0.13364,0.801809 1.87088,4.677217 0.93544,4.677217 -0.93544,0 -8.418992,-8.552625 -9.020348,-11.024868 -0.601356,-2.472242 -0.935442,-6.88219 -0.601356,-8.018086 0.334087,-1.135896 1.135896,-3.073599 1.202712,-2.338607 0.06682,0.734991 3.340872,4.409948 4.009042,4.009043 0.66817,-0.400905 0.53454,-1.603618 0.53454,-0.467722 0,1.135895 -0.20045,6.080381 0.73499,7.34991 0.93544,1.269532 6.34765,6.080384 6.28084,5.144939 -0.0668,-0.935442 -1.06908,-5.078121 -2.00453,-5.879928 -0.93544,-0.801809 -1.9377,-0.06682 -2.60587,-1.403167 -0.66818,-1.336347 -0.93545,-7.349911 -2.00452,-7.349911 -1.06908,0 -2.873152,-1.135895 -4.343134,-2.138156 -1.469983,-1.00226 -3.741775,-3.875407 -3.942226,-6.214017 -0.200453,-2.338607 0.46772,-7.617182 1.469983,-8.218538 1.00226,-0.601355 3.006781,-1.870886 4.543577,-0.467722 1.5368,1.403167 -0.868623,-2.873146 -0.868623,-2.873146 l -6.748555,4.209495 1.737251,12.895755 2.605879,1.135896 c 0,0 -1.603616,2.138156 -1.603616,3.741772 0,1.603618 0.133633,6.013563 0.734989,7.884451 0.601358,1.870887 8.018085,10.69078 9.554885,11.292138 1.5368,0.601356 5.54584,3.608139 7.34991,3.741772 1.80407,0.133636 7.21628,-1.069078 8.75308,-1.269529 1.5368,-0.200453 4.34313,-0.267269 5.41221,-1.336349 1.06908,-1.069078 3.08801,-5.19595 3.57244,-6.549 0.48443,-1.353053 2.89214,-3.206336 3.07589,-3.40679 0.18374,-0.200451 0.51783,-0.434313 0.35079,-0.434313 -0.16705,0 -0.90204,0.434313 -1.67043,0.116933 -0.7684,-0.317384 -1.95441,-2.57247 -3.07361,-2.856445 -1.11919,-0.283974 -2.73951,-0.467722 -2.82303,-0.267269 -0.0835,0.200451 0.10023,1.386459 0.71829,1.737252 0.61806,0.35079 1.21941,0.35079 1.30294,0.718285 0.0835,0.367496 0.88533,2.271792 0.71828,2.639288 -0.16704,0.367496 -0.33408,0.03341 -1.20271,-0.250566 -0.86862,-0.283972 -2.42213,0.06682 -2.85644,-0.08352 -0.43432,-0.150339 -1.72055,-1.5368 -2.80633,-1.570209 -1.08578,-0.03341 -5.31199,1.570209 -4.25961,2.388722 z"
           style="fill:#1e1616;fill-opacity:1;fill-rule:evenodd;stroke:none;stroke-width:0.26458332px;stroke-linecap:butt;stroke-linejoin:miter;stroke-opacity:1" />
        <path
           sodipodi:nodetypes="ccscssccccsscc"
           inkscape:connector-curvature="0"
           id="path6010"
           d="m 136.11868,50.459819 c -0.21262,-0.637833 -0.92132,-1.27567 -0.96857,-1.724514 -0.0473,-0.448847 -0.11812,-5.031809 -0.25986,-5.457031 -0.14174,-0.425225 -0.63783,-1.110306 -0.51972,-1.819011 0.11812,-0.708707 0.4961,-2.196989 0.99219,-2.4096 0.49609,-0.212611 2.64583,-1.252045 3.26005,-1.133927 0.61421,0.118118 1.01581,0 1.03943,0.330729 0.0236,0.330729 -0.0709,1.370163 -0.16539,1.913504 -0.30711,0.897693 -0.89769,1.464659 -1.18117,2.173363 -0.25991,0.590589 0.0918,1.661056 0.0682,2.487879 -0.0138,0.482537 -0.93507,2.852664 -1.37093,4.69328 -0.31098,1.313265 -0.16983,2.258563 -0.20918,2.504481 -0.0945,0.590587 -0.37368,1.622163 -0.37368,1.622163 -0.29625,-1.0371 -0.0112,-2.166786 -0.31137,-3.181316 z"
           style="fill:#1e1616;fill-opacity:1;fill-rule:evenodd;stroke:none;stroke-width:0.26458332px;stroke-linecap:butt;stroke-linejoin:miter;stroke-opacity:1" />
        <path
           inkscape:connector-curvature="0"
           id="path6012"
           d="m 117.81045,39.073288 c 0.0472,-0.448847 2.55134,-1.346541 5.2208,-1.41741 2.66946,-0.07087 5.50428,1.063056 5.9295,1.063056 0.42522,0 0.63784,-0.614212 1.27567,-0.87407 0.63784,-0.259857 3.44903,1.110306 3.40179,1.535528 -0.0472,0.425225 -5.45703,4.84282 -7.03981,4.771951 -1.58278,-0.07087 -4.48847,-1.748142 -3.63802,-1.748142 0.85044,0 3.2128,0.236236 3.56715,-0.09449 0.35435,-0.330729 -1.06306,-0.850445 -0.8032,-1.157552 0.25986,-0.307104 2.69308,-0.897694 2.12612,-1.228423 -0.56697,-0.330729 -1.03944,0.25986 -2.92932,0.188989 -1.88988,-0.07087 -3.23642,-0.755952 -3.1183,-0.401601 0.11811,0.354354 2.38597,1.110306 2.10249,1.181177 -0.28348,0.07087 -1.13393,-0.165364 -1.72452,-0.118118 -0.59059,0.04725 -0.66145,0.330729 -1.25204,0.212612 -0.59059,-0.118118 -2.85845,-1.204799 -3.11831,-1.913504 z"
           style="fill:#1e1616;fill-opacity:1;fill-rule:evenodd;stroke:none;stroke-width:0.26458332px;stroke-linecap:butt;stroke-linejoin:miter;stroke-opacity:1" />
      </g>
      <g
         inkscape:label="Hair"
         id="layer25">
        <path
           inkscape:connector-curvature="0"
           id="path6004"
           d="m 137.53608,21.072172 c 0.51972,0 2.03163,-0.897694 2.4096,-2.551339 0.37798,-1.653646 1.13393,-4.346726 0.61421,-5.055432 -0.51971,-0.708705 -1.22842,-1.181176 -1.22842,-1.181176 0,0 -0.23623,-2.6930798 -0.99219,-3.5907732 C 137.58333,7.7957584 135.6462,6.2366066 134.46503,5.9531244 133.28385,5.6696421 132.38616,5.1026779 130.87426,4.2994786 129.36235,3.4962793 123.83445,4.9999997e-6 123.83445,4.9999997e-6 l -19.84375,0 c 0,0 -3.73252,1.4174052000003 -4.819198,2.5513337000003 -1.086681,1.1339285 -3.401785,2.3623513 -4.11049,3.5435267 -0.708707,1.1811756 -4.299479,7.1343006 -4.299479,8.4099706 0,1.275669 0.425223,3.827008 -0.992187,4.204985 -1.417413,0.377976 -3.590775,0.755952 -3.590775,0.755952 0,0 4.393973,0.236235 4.204984,1.27567 -0.188987,1.039434 -1.937129,0.803199 -1.937129,0.803199 0,0 0.944941,0.755952 1.842635,1.039435 0.897695,0.283482 0.33073,2.69308 0.18899,3.260044 -0.141743,0.566965 -2.078871,2.645834 -2.74033,2.787574 -0.661458,0.141742 -2.031621,-0.28348 -4.157736,0.992187 -2.126118,1.27567 -2.55134,3.023812 -4.015997,3.449034 -1.464659,0.425223 -3.874256,2.267858 -4.157739,3.496278 -0.283482,1.228424 -1.748139,2.126118 -1.937128,3.449035 -0.188987,1.322916 0.09449,4.015996 1.13393,4.866444 1.039434,0.850445 2.220608,0.566962 2.220608,1.464656 0,0.897695 -1.937128,1.464657 -1.653646,1.937129 0.283483,0.472469 1.937129,2.740326 3.212799,2.976562 1.27567,0.236236 2.834822,0.377976 2.834822,0.377976 0,0 -2.362353,-1.133927 -1.984375,-1.889882 0.377976,-0.755951 1.748139,-0.755951 1.795386,-1.181174 0.04725,-0.425225 -0.14174,-2.362351 0.236236,-1.700892 0.377975,0.661458 2.740326,2.69308 4.11049,2.598584 1.370163,-0.09449 3.921503,-2.078868 3.212798,-2.173362 -0.708705,-0.09449 -4.771951,-0.992187 -4.157739,-2.315104 0.614211,-1.322917 3.96875,-2.740326 5.622395,-2.69308 1.653646,0.04725 3.212799,3.118303 3.779764,2.929316 0.566965,-0.188989 4.393972,-3.449034 3.921503,-4.063246 -0.472472,-0.614212 -2.598586,-3.212796 -2.645833,-5.055431 -0.04725,-1.842635 -0.425225,-4.204985 0.614212,-6.378347 1.039434,-2.173364 1.417409,-2.834823 2.740326,-2.929316 1.322917,-0.09449 2.409593,0.330729 2.598583,0.661458 0.18899,0.33073 -0.18899,2.078869 1.22842,3.16555 1.41742,1.086683 2.64584,1.27567 3.07106,2.126117 0.42523,0.850445 -0.23623,4.393972 0.56697,4.771948 0.8032,0.377976 4.20498,1.700893 4.06324,-0.04725 -0.14174,-1.748139 -1.03943,-2.69308 -0.18899,-3.260045 0.85045,-0.566963 9.21317,-1.086681 9.49665,-1.937129 0.28349,-0.850445 -2.55134,-6.236606 -2.07886,-9.071427 0.47247,-2.834821 -1.37017,-4.582961 2.50409,-5.71689 3.87425,-1.133929 14.45759,1.228423 17.81212,3.590774 z"
           style="fill:#28170b;fill-opacity:1;fill-rule:evenodd;stroke:none;stroke-width:0.26458332px;stroke-linecap:butt;stroke-linejoin:miter;stroke-opacity:1" />
      </g>
    </g>
    <g
       id="g4418"
       transform="matrix(0.55443769,0,0,0.55443769,-25.551182,0.14878113)">
      <g
         style="display:inline"
         inkscape:label="Neck"
         id="layer3-8">
        <path
           sodipodi:nodetypes="ccccccccsc"
           inkscape:connector-curvature="0"
           id="path4812"
           d="m 93.410698,133.88853 -18.708865,16.83798 2.00452,19.64431 21.114292,20.98066 29.132375,1.60362 12.42804,-21.38157 -29.26602,-17.37251 -15.932176,-37.58797 c 0,0 -0.394189,5.46027 -0.594642,8.86796 -0.177044,3.00973 -0.04389,3.86394 -0.177524,8.40752 z"
           style="fill:#deaa87;fill-opacity:1;fill-rule:evenodd;stroke:none;stroke-width:0.26458332px;stroke-linecap:butt;stroke-linejoin:miter;stroke-opacity:1" />
      </g>
      <g
         inkscape:label="Arm"
         id="layer10">
        <path
           inkscape:connector-curvature="0"
           id="path4879"
           d="m 189.02637,245.80764 6.61492,-6.949 18.04069,-2.27179 6.34766,4.14268 c 0,0 2.07134,0.20045 2.07134,9.6217 0,9.42125 -1.00227,14.2321 -1.00227,14.2321 l -32.40643,0 c 0,0 -3.34086,-14.03165 0.33409,-18.77569 z"
           style="fill:#deaa87;fill-opacity:1;fill-rule:evenodd;stroke:none;stroke-width:0.26458332px;stroke-linecap:butt;stroke-linejoin:miter;stroke-opacity:1" />
      </g>
      <g
         style="display:inline"
         inkscape:label="Shirt"
         id="layer4-5">
        <path
           sodipodi:nodetypes="csssscccscssssssccccsssc"
           inkscape:connector-curvature="0"
           id="path4815"
           d="m 93.832587,133.70908 c 0,0 -14.835564,10.01636 -21.54464,16.53645 -6.70908,6.52009 -17.859375,13.70164 -22.867562,16.81994 -5.008184,3.11831 -12.18973,12.28423 -17.859375,23.05655 -5.669641,10.77232 -13.229165,40.91592 -14.74107,49.32589 -1.511904,8.40997 -2.173363,25.13542 -2.173363,25.13542 l 172.829613,0 0.37797,-18.9933 c 0,0 10.39435,-7.27604 20.97768,-7.46503 10.58334,-0.18899 12.85119,5.10267 12.85119,5.10267 0,0 -5.00818,-9.54389 -5.76413,-12.37871 -0.75596,-2.83483 1.5119,-2.26786 -0.0945,-4.9137 -1.6064,-2.64583 -3.1183,-0.66145 -3.77976,-2.55134 -0.66146,-1.88987 2.64583,-1.5119 -1.32292,-7.08705 -3.96875,-5.57515 -3.77976,-7.46503 -5.66964,-12.7567 -1.88988,-5.29166 -26.26934,-47.34151 -29.48214,-50.93229 -3.2128,-3.59077 -13.13467,-8.40997 -13.13467,-8.40997 l -5.76414,12.94569 -14.74107,13.70164 -7.08705,2.64583 c 0,0 -2.26786,11.52827 -12.09524,13.79613 -9.82739,2.26786 -21.73364,-1.32292 -27.308782,-6.14211 -5.575149,-4.8192 -17.103423,-14.55209 -16.347472,-21.35566 0.755952,-6.80357 5.57515,-19.65476 14.741071,-26.08035 z"
           style="fill:#000000;fill-opacity:1;fill-rule:evenodd;stroke:none;stroke-width:0.26458332px;stroke-linecap:butt;stroke-linejoin:miter;stroke-opacity:1" />
      </g>
      <g
         style="display:inline"
         inkscape:label="Bass Horn"
         id="layer5-0">
        <path
           inkscape:connector-curvature="0"
           id="path4818"
           d="m 135.03199,264.58333 c 0,0 -7.08705,-4.8192 -6.14211,-16.53646 0.94494,-11.71726 5.00818,-15.40253 4.91369,-17.57589 -0.0945,-2.17336 -3.2128,-5.76414 -5.10268,-5.95313 -1.88988,-0.18898 -13.04018,3.3073 -16.44196,19.56027 -3.40179,16.25298 -1.98438,20.50521 -1.98438,20.50521 z"
           style="fill:#c87137;fill-opacity:1;fill-rule:evenodd;stroke:none;stroke-width:0.26458332px;stroke-linecap:butt;stroke-linejoin:miter;stroke-opacity:1" />
      </g>
      <g
         style="display:inline"
         inkscape:label="Bass Fretboard"
         id="layer6-2">
        <path
           inkscape:connector-curvature="0"
           id="path4821"
           d="M 229.33705,4.9999997e-6 155.06473,264.58333 l 25.4189,0 62.74405,-253.338539 -0.28349,-2.9293153 2.07887,0 L 244.83407,5.8586306 234.15625,4.9999997e-6 Z"
           style="fill:#000000;fill-opacity:1;fill-rule:evenodd;stroke:none;stroke-width:0.26458332px;stroke-linecap:butt;stroke-linejoin:miter;stroke-opacity:1" />
      </g>
      <g
         style="display:inline"
         inkscape:label="Bass Frets"
         id="layer7-1">
        <path
           inkscape:connector-curvature="0"
           id="path4824"
           d="m 228.10863,3.5907733 14.83556,8.3154757"
           style="fill:none;fill-rule:evenodd;stroke:#9a9a9a;stroke-width:0.58208334;stroke-linecap:round;stroke-linejoin:miter;stroke-miterlimit:4;stroke-dasharray:none;stroke-opacity:1" />
        <path
           inkscape:connector-curvature="0"
           id="path4826"
           d="m 222.53348,24.75744 15.21354,7.843005"
           style="fill:none;fill-rule:evenodd;stroke:#9a9a9a;stroke-width:0.58208334;stroke-linecap:round;stroke-linejoin:miter;stroke-miterlimit:4;stroke-dasharray:none;stroke-opacity:1" />
        <path
           inkscape:connector-curvature="0"
           id="path4828"
           d="m 216.86384,44.506694 16.34747,7.559524"
           style="fill:none;fill-rule:evenodd;stroke:#9a9a9a;stroke-width:0.58208334;stroke-linecap:round;stroke-linejoin:miter;stroke-miterlimit:4;stroke-dasharray:none;stroke-opacity:1" />
        <path
           inkscape:connector-curvature="0"
           id="path4830"
           d="m 211.85565,63.31101 16.72545,7.181548"
           style="fill:none;fill-rule:evenodd;stroke:#9a9a9a;stroke-width:0.58208334;stroke-linecap:round;stroke-linejoin:miter;stroke-miterlimit:4;stroke-dasharray:none;stroke-opacity:1" />
        <path
           inkscape:connector-curvature="0"
           id="path4832"
           d="m 206.75297,80.792409 17.85938,6.898066"
           style="fill:none;fill-rule:evenodd;stroke:#9a9a9a;stroke-width:0.58208334;stroke-linecap:round;stroke-linejoin:miter;stroke-miterlimit:4;stroke-dasharray:none;stroke-opacity:1" />
        <path
           inkscape:connector-curvature="0"
           id="path4834"
           d="m 202.31175,97.990325 17.95387,6.331105"
           style="fill:none;fill-rule:evenodd;stroke:#9a9a9a;stroke-width:0.58208334;stroke-linecap:round;stroke-linejoin:miter;stroke-miterlimit:4;stroke-dasharray:none;stroke-opacity:1" />
        <path
           inkscape:connector-curvature="0"
           id="path4836"
           d="m 197.77604,114.05431 18.89881,6.04762"
           style="fill:none;fill-rule:evenodd;stroke:#9a9a9a;stroke-width:0.58208334;stroke-linecap:round;stroke-linejoin:miter;stroke-miterlimit:4;stroke-dasharray:none;stroke-opacity:1" />
        <path
           inkscape:connector-curvature="0"
           id="path4838"
           d="m 193.33482,129.17336 19.74925,5.95312"
           style="fill:none;fill-rule:evenodd;stroke:#9a9a9a;stroke-width:0.58208334;stroke-linecap:round;stroke-linejoin:miter;stroke-miterlimit:4;stroke-dasharray:none;stroke-opacity:1" />
        <path
           inkscape:connector-curvature="0"
           id="path4840"
           d="m 189.27157,143.81994 20.22173,5.38616"
           style="fill:none;fill-rule:evenodd;stroke:#9a9a9a;stroke-width:0.58208334;stroke-linecap:round;stroke-linejoin:miter;stroke-miterlimit:4;stroke-dasharray:none;stroke-opacity:1" />
        <path
           inkscape:connector-curvature="0"
           id="path4842"
           d="m 185.58631,157.71056 20.69419,4.91369"
           style="fill:none;fill-rule:evenodd;stroke:#9a9a9a;stroke-width:0.58208334;stroke-linecap:round;stroke-linejoin:miter;stroke-miterlimit:4;stroke-dasharray:none;stroke-opacity:1" />
        <path
           inkscape:connector-curvature="0"
           id="path4844"
           d="m 181.90104,170.46726 20.88318,4.63021"
           style="fill:none;fill-rule:evenodd;stroke:#9a9a9a;stroke-width:0.58208334;stroke-linecap:round;stroke-linejoin:miter;stroke-miterlimit:4;stroke-dasharray:none;stroke-opacity:1" />
        <path
           inkscape:connector-curvature="0"
           id="path4846"
           d="m 178.31027,182.84598 21.35565,4.06324"
           style="fill:none;fill-rule:evenodd;stroke:#9a9a9a;stroke-width:0.58208334;stroke-linecap:round;stroke-linejoin:miter;stroke-miterlimit:4;stroke-dasharray:none;stroke-opacity:1" />
        <path
           inkscape:connector-curvature="0"
           id="path4848"
           d="m 175.00297,194.09077 22.39509,3.77976"
           style="fill:none;fill-rule:evenodd;stroke:#9a9a9a;stroke-width:0.58208334;stroke-linecap:round;stroke-linejoin:miter;stroke-miterlimit:4;stroke-dasharray:none;stroke-opacity:1" />
        <path
           inkscape:connector-curvature="0"
           id="path4850"
           d="m 172.16815,205.24107 22.2061,3.49628"
           style="fill:none;fill-rule:evenodd;stroke:#9a9a9a;stroke-width:0.58208334;stroke-linecap:round;stroke-linejoin:miter;stroke-miterlimit:4;stroke-dasharray:none;stroke-opacity:1" />
        <path
           inkscape:connector-curvature="0"
           id="path4852"
           d="m 169.23884,215.25744 22.86756,3.2128"
           style="fill:none;fill-rule:evenodd;stroke:#9a9a9a;stroke-width:0.58208334;stroke-linecap:round;stroke-linejoin:miter;stroke-miterlimit:4;stroke-dasharray:none;stroke-opacity:1" />
        <path
           inkscape:connector-curvature="0"
           id="path4854"
           d="m 166.593,224.89583 22.77307,2.74033"
           style="fill:none;fill-rule:evenodd;stroke:#9a9a9a;stroke-width:0.58208334;stroke-linecap:round;stroke-linejoin:miter;stroke-miterlimit:4;stroke-dasharray:none;stroke-opacity:1" />
        <path
           inkscape:connector-curvature="0"
           id="path4856"
           d="m 163.94717,233.87276 23.62351,2.64584"
           style="fill:none;fill-rule:evenodd;stroke:#9a9a9a;stroke-width:0.58208334;stroke-linecap:round;stroke-linejoin:miter;stroke-miterlimit:4;stroke-dasharray:none;stroke-opacity:1" />
        <path
           inkscape:connector-curvature="0"
           id="path4858"
           d="m 161.39583,242.28274 24.09598,2.74032"
           style="fill:none;fill-rule:evenodd;stroke:#9a9a9a;stroke-width:0.58208334;stroke-linecap:round;stroke-linejoin:miter;stroke-miterlimit:4;stroke-dasharray:none;stroke-opacity:1" />
        <path
           inkscape:connector-curvature="0"
           id="path4860"
           d="m 159.12797,250.31473 24.37947,2.07887"
           style="fill:none;fill-rule:evenodd;stroke:#9a9a9a;stroke-width:0.58208334;stroke-linecap:round;stroke-linejoin:miter;stroke-miterlimit:4;stroke-dasharray:none;stroke-opacity:1" />
      </g>
      <g
         style="display:inline"
         inkscape:label="Bass Strings"
         id="layer8-2">
        <path
           inkscape:connector-curvature="0"
           id="path4863"
           d="M 230.84896,4.9999997e-6 230.75446,5.1971723 160.07291,257.96875"
           style="fill:none;fill-rule:evenodd;stroke:#bebebe;stroke-width:0.5291667;stroke-linecap:round;stroke-linejoin:miter;stroke-miterlimit:4;stroke-dasharray:none;stroke-opacity:1" />
        <path
           inkscape:connector-curvature="0"
           id="path4865"
           d="M 233.49479,4.9999997e-6 233.68378,6.2366066 164.79762,257.87425"
           style="fill:none;fill-rule:evenodd;stroke:#bebebe;stroke-width:0.5291667;stroke-linecap:round;stroke-linejoin:miter;stroke-miterlimit:4;stroke-dasharray:none;stroke-opacity:1" />
        <path
           inkscape:connector-curvature="0"
           id="path4867"
           d="m 236.32961,2.5513388 -0.0945,5.1971727 -66.14584,247.9523785 0,0"
           style="fill:none;fill-rule:evenodd;stroke:#bebebe;stroke-width:0.5291667;stroke-linecap:round;stroke-linejoin:miter;stroke-miterlimit:4;stroke-dasharray:none;stroke-opacity:1" />
        <path
           inkscape:connector-curvature="0"
           id="path4869"
           d="M 238.97544,4.2522317 238.50297,9.3549101 174.43601,256.36235"
           style="fill:none;fill-rule:evenodd;stroke:#bebebe;stroke-width:0.5291667;stroke-linecap:round;stroke-linejoin:miter;stroke-miterlimit:4;stroke-dasharray:none;stroke-opacity:1" />
        <path
           inkscape:connector-curvature="0"
           id="path4871"
           d="M 241.14881,5.6696424 240.67634,10.299851 179.63318,253.52753"
           style="fill:none;fill-rule:evenodd;stroke:#bebebe;stroke-width:0.5291667;stroke-linecap:round;stroke-linejoin:miter;stroke-miterlimit:4;stroke-dasharray:none;stroke-opacity:1" />
        <path
           inkscape:connector-curvature="0"
           id="path4873"
           d="M 243.22768,7.1815472 242.66071,12.189732 182.18452,254"
           style="fill:none;fill-rule:evenodd;stroke:#bebebe;stroke-width:0.5291667;stroke-linecap:round;stroke-linejoin:miter;stroke-miterlimit:4;stroke-dasharray:none;stroke-opacity:1" />
      </g>
      <g
         inkscape:label="Hand"
         id="layer9">
        <path
           inkscape:connector-curvature="0"
           id="path4876"
           d="m 135.03199,264.58333 c 0,0 1.32292,-2.07887 3.30729,-5.00818 1.98438,-2.92932 0.66146,-4.15774 3.77977,-7.08706 3.1183,-2.92931 6.2366,-6.89806 9.16592,-6.70908 2.92931,0.18899 5.19717,1.98438 5.19717,1.98438 0,0 -4.06324,2.55134 -1.98437,2.36235 2.07887,-0.18899 7.08705,1.41741 8.50446,1.22842 1.41741,-0.18899 8.03199,-3.40178 9.16592,-3.40178 1.13393,0 3.49628,-1.70089 5.19717,-2.36235 1.7009,-0.66146 8.40998,-3.49628 8.97694,-4.06325 0.56696,-0.56696 1.03944,-2.55134 1.03944,-2.55134 0,0 2.64583,1.6064 3.68526,4.06325 1.03944,2.45684 2.07887,3.40178 0.66146,5.95312 -1.41741,2.55134 -2.74033,4.63021 -2.74033,4.63021 0,0 1.6064,0.0945 2.26786,2.36235 0.66146,2.26786 1.32292,3.68527 0.28348,6.14212 -1.03943,2.45684 -3.68527,2.45684 -3.68527,2.45684 z"
           style="fill:#e9c6af;fill-opacity:1;fill-rule:evenodd;stroke:none;stroke-width:0.26458332px;stroke-linecap:butt;stroke-linejoin:miter;stroke-opacity:1" />
      </g>
      <g
         style="display:inline"
         inkscape:label="Head"
         id="layer11">
        <path
           inkscape:connector-curvature="0"
           id="path4882"
           d="m 91.807082,92.996297 c 0,0 1.336347,-17.372521 3.207234,-22.98518 1.870887,-5.612662 6.013564,-13.630746 16.570714,-18.976136 10.55714,-5.345393 18.30796,-8.552627 27.12785,-7.082644 8.8199,1.469982 19.51068,7.082644 24.45516,13.363477 4.94449,6.280835 9.88898,10.958052 11.62623,19.109771 1.73725,8.15172 0.66817,17.238885 1.06908,20.312483 0.4009,3.073601 0.93544,6.548102 -0.26727,9.755342 -1.20271,3.20723 -1.73725,2.93996 -2.13816,5.34539 -0.4009,2.40542 0.53454,4.40994 -0.4009,8.95353 -0.93545,4.54358 -8.01809,27.39512 -11.22532,33.80959 -3.20724,6.41447 -9.75534,23.78699 -21.5152,21.9161 -11.75986,-1.87088 -22.85155,-9.08716 -31.27053,-20.98066 -8.41899,-11.89349 -11.091689,-18.57523 -13.898018,-32.07234 -2.806333,-13.49711 -3.34087,-30.468723 -3.34087,-30.468723 z"
           style="fill:#e9c6af;fill-opacity:1;fill-rule:evenodd;stroke:none;stroke-width:0.26458332px;stroke-linecap:butt;stroke-linejoin:miter;stroke-opacity:1" />
      </g>
      <g
         style="display:inline"
         inkscape:label="Goatee"
         id="layer12">
        <path
           inkscape:connector-curvature="0"
           id="path4885"
           d="m 149.80457,130.01312 c 0,0 5.61266,0.66818 8.28535,4.67722 2.6727,4.00904 6.1472,10.02261 5.07812,19.64431 -1.06907,9.6217 0,10.42351 -4.54358,17.90706 -4.54358,7.48355 -14.29892,16.97161 -17.23888,16.97161 -2.93997,0 -16.43708,-9.48806 -20.84702,-17.63979 -4.40995,-8.15172 -5.34539,-16.43707 -2.80633,-22.7179 2.53906,-6.28084 6.68173,-14.56619 15.90253,-16.57071 9.2208,-2.00452 11.62623,-3.0736 16.16981,-2.2718 z"
           style="fill:url(#linearGradient4230);fill-opacity:1;fill-rule:evenodd;stroke:none;stroke-width:0.26458332px;stroke-linecap:butt;stroke-linejoin:miter;stroke-opacity:1" />
      </g>
      <g
         style="display:inline"
         inkscape:label="Minus Goatee"
         id="layer13">
        <path
           inkscape:connector-curvature="0"
           id="path4888"
           d="m 148.06732,139.36756 c 0,0 6.81537,0.66817 7.61718,2.27179 0.80181,1.60361 1.46998,10.02261 -0.26727,11.35895 -1.73725,1.33635 -3.60814,0.13364 -2.93997,-2.67269 0.66818,-2.80633 2.53907,-5.21176 0.26727,-5.07812 -2.27179,0.13363 -2.00452,2.67269 -6.81537,1.60361 -4.81085,-1.06907 -8.01809,-4.27631 -8.01809,-2.67269 0,1.60362 2.53906,9.88897 -1.06907,9.6217 -3.60814,-0.26727 -13.09621,-4.94448 -9.08717,-8.01808 4.00905,-3.0736 6.81538,-6.01357 11.22532,-6.68174 4.40995,-0.66818 6.01357,0 9.08717,0.26727 z"
           style="fill:#e9c6af;fill-opacity:1;fill-rule:evenodd;stroke:none;stroke-width:0.26458332px;stroke-linecap:butt;stroke-linejoin:miter;stroke-opacity:1" />
      </g>
      <g
         style="display:inline"
         inkscape:label="Hair"
         id="layer15">
        <path
           inkscape:connector-curvature="0"
           id="path4894"
           d="m 105.83873,55.511744 c 0,0 2.60588,2.672697 1.67044,4.610399 -0.93545,1.937705 -5.34539,6.548104 -3.87541,16.169807 1.46998,9.621702 1.9377,8.352173 1.40316,15.03391 -0.53453,6.68174 -4.94448,15.70208 -3.20723,20.98066 1.73725,5.27857 5.61266,7.55036 6.08038,12.42803 0.46772,4.87767 -1.1359,10.02261 -0.53454,11.69304 0.60136,1.67044 0.80181,3.00679 0.80181,3.00679 0,0 -11.626224,-9.42126 -12.227582,-16.70435 -0.601355,-7.28309 -0.400902,-14.56619 0.801809,-18.77568 1.202714,-4.209498 3.407693,-7.149464 0.868627,-10.623967 -2.53906,-3.474505 -6.214017,-2.672696 -6.214017,-2.672696 0,0 0.400905,-9.888971 2.405425,-17.105249 2.004523,-7.216277 2.138156,-9.955789 4.009043,-11.960312 1.870888,-2.004521 6.748555,-6.614919 8.018085,-6.080382 z"
           style="fill:#999999;fill-opacity:1;fill-rule:evenodd;stroke:none;stroke-width:0.26458332px;stroke-linecap:butt;stroke-linejoin:miter;stroke-opacity:1" />
        <path
           inkscape:connector-curvature="0"
           id="path4896"
           d="m 114.52499,96.537617 c 0,0 9.28762,-5.144939 13.02939,-4.142679 3.74177,1.00226 9.35443,4.209495 11.96031,5.011304 2.60588,0.801809 6.08038,1.403165 6.08038,1.403165 0,0 -2.27179,1.737253 -6.01356,0.601358 -3.74177,-1.135896 -9.2208,-4.944488 -12.89575,-4.810853 -3.67496,0.133636 -10.08943,2.405425 -12.16077,1.937705 z"
           style="fill:#999999;fill-opacity:1;fill-rule:evenodd;stroke:none;stroke-width:0.26458332px;stroke-linecap:butt;stroke-linejoin:miter;stroke-opacity:1" />
        <path
           inkscape:connector-curvature="0"
           id="path4898"
           d="m 156.61994,101.61574 c 0,0 3.00678,0.60135 4.74404,0.13363 1.73725,-0.46772 4.20949,-2.405423 7.75081,-1.06908 3.54132,1.33635 5.41221,1.20272 6.21402,1.67044 0.80181,0.46772 1.13589,1.80407 -0.0668,2.07134 -1.20271,0.26727 -5.87993,-1.40317 -9.02035,-1.67044 -3.14041,-0.26727 -4.34313,0.66818 -6.14719,0.33409 -1.80407,-0.33409 -3.54133,-0.66817 -3.47451,-1.46998 z"
           style="fill:#999999;fill-opacity:1;fill-rule:evenodd;stroke:none;stroke-width:0.26458332px;stroke-linecap:butt;stroke-linejoin:miter;stroke-opacity:1" />
      </g>
      <g
         style="display:inline"
         inkscape:label="Ear"
         id="layer16">
        <path
           sodipodi:nodetypes="csssssc"
           inkscape:connector-curvature="0"
           id="path4910"
           d="m 94.305058,92.604166 c 0,0 -3.543525,-5.149927 -5.575149,-6.189361 -2.031622,-1.039434 -3.590774,1.559152 -3.449032,3.496281 0.14174,1.937128 -0.141742,15.166294 0.992188,19.182294 1.133927,4.01599 1.039434,8.97693 3.590774,11.00855 2.55134,2.03162 4.724701,3.87426 5.338913,-1.37016 0.614212,-5.24442 -0.897694,-18.14286 -0.897694,-26.127604 z"
           style="fill:#e9c6af;fill-opacity:1;fill-rule:evenodd;stroke:none;stroke-width:0.26458332px;stroke-linecap:butt;stroke-linejoin:miter;stroke-opacity:1" />
      </g>
      <g
         style="display:inline"
         inkscape:label="Face Lines"
         id="layer14">
        <path
           inkscape:connector-curvature="0"
           id="path4891"
           d="m 133.03341,140.87095 c 0,0 2.77292,-0.30068 4.34313,-0.70158 1.57021,-0.40091 2.93996,-0.10023 4.10926,0.20045 1.16931,0.30068 1.77067,-0.16704 2.70611,0.20045 0.93544,0.3675 1.60361,0.73499 2.60588,0.7684 1.00226,0.0334 4.10926,-0.26727 4.94448,-0.0668 0.83522,0.20045 1.87089,0.66818 2.53906,0.66818 0.66818,0 1.36976,2.20497 1.5368,2.87314 0.16705,0.66818 -0.73499,-1.73725 -1.67043,-2.17156 -0.93544,-0.43431 -1.9377,-0.86863 -2.93997,-0.86863 -1.00226,0 -3.20723,0.53454 -4.71062,0.23386 -1.50339,-0.30067 -2.07134,-0.8018 -3.60814,-0.96885 -1.5368,-0.16704 -1.80407,-0.50113 -3.4745,-0.66817 -1.67044,-0.16704 -2.17157,0.26727 -3.37428,0.46772 -1.20271,0.20045 -3.40769,0.26727 -3.00678,0.0334 z"
           style="fill:#6c3d1e;fill-opacity:1;fill-rule:evenodd;stroke:none;stroke-width:0.26458332px;stroke-linecap:butt;stroke-linejoin:miter;stroke-opacity:1" />
        <path
           inkscape:connector-curvature="0"
           id="path4900"
           d="m 148.46822,92.461756 c 0,0 1.1359,3.140416 0.26727,4.677217 -0.86862,1.5368 -5.14494,2.472243 -5.14494,2.472243 0,0 3.00678,-1.202714 4.00904,-2.539061 1.00227,-1.336347 1.26954,-1.937702 0.86863,-4.610399 z"
           style="fill:#6c3d1e;fill-opacity:1;fill-rule:evenodd;stroke:none;stroke-width:0.26458332px;stroke-linecap:butt;stroke-linejoin:miter;stroke-opacity:1" />
        <path
           sodipodi:nodetypes="cscsc"
           inkscape:connector-curvature="0"
           id="path4902"
           d="m 155.41723,94.065375 c 0,0 -1.80407,5.679477 -0.4009,7.884455 1.40316,2.20497 6.81537,0 6.81537,0 0,0 -5.47903,1.20271 -6.28083,-1.06908 -0.80181,-2.271796 -0.13364,-2.605881 -0.13364,-6.815375 z"
           style="fill:#6c3d1e;fill-opacity:1;fill-rule:evenodd;stroke:none;stroke-width:0.26458332px;stroke-linecap:butt;stroke-linejoin:miter;stroke-opacity:1" />
        <path
           inkscape:connector-curvature="0"
           id="path4904"
           d="m 134.43657,126.13772 c 0,0 4.81085,-7.41673 7.14946,-7.21628 2.33861,0.20045 2.60588,1.67043 0.13364,1.33635 -2.47225,-0.33409 -2.73952,2.40542 -2.53906,3.94222 0.20045,1.5368 1.20271,5.01131 2.87314,4.34313 1.67044,-0.66817 1.46999,-0.80181 1.46999,-0.80181 0,0 -1.67044,2.40543 -4.07587,0.60136 -2.40542,-1.80407 -0.66817,-6.68174 -0.66817,-6.68174 0,0 -2.6727,2.00452 -4.34313,4.47677 z"
           style="fill:#6c3d1e;fill-opacity:1;fill-rule:evenodd;stroke:none;stroke-width:0.26458332px;stroke-linecap:butt;stroke-linejoin:miter;stroke-opacity:1" />
        <path
           inkscape:connector-curvature="0"
           id="path4906"
           d="m 153.54634,128.54314 c 0,0 -1.00226,0.13364 -3.60814,-1.40316 -2.60587,-1.5368 -5.4122,-0.66818 -6.5481,0.33408 -1.1359,1.00227 -1.20271,1.1359 -1.20271,1.1359 0,0 1.80407,-0.86863 4.6104,-0.46772 2.80633,0.4009 3.94222,1.80407 6.74855,0.4009 z"
           style="fill:#6c3d1e;fill-opacity:1;fill-rule:evenodd;stroke:none;stroke-width:0.26458332px;stroke-linecap:butt;stroke-linejoin:miter;stroke-opacity:1" />
        <path
           inkscape:connector-curvature="0"
           id="path4908"
           d="m 155.41723,129.01086 1.67043,-1.20271 c 0,0 1.1359,1.33635 0.60136,1.60362 -0.53454,0.26727 -2.27179,-0.40091 -2.27179,-0.40091 z"
           style="fill:#6c3d1e;fill-opacity:1;fill-rule:evenodd;stroke:none;stroke-width:0.26458332px;stroke-linecap:butt;stroke-linejoin:miter;stroke-opacity:1" />
        <path
           inkscape:connector-curvature="0"
           id="path4212"
           d="m 94.021575,96.242186 c 0,0 -6.850816,-7.134301 -7.74851,-7.276041 -0.897694,-0.14174 -0.188989,3.401785 -0.188989,3.401785 0,0 -0.377976,-1.748139 0.377975,-1.464657 0.755955,0.283483 5.149927,4.960937 7.559524,5.338913 z"
           style="fill:#6c3d1e;fill-opacity:1;fill-rule:evenodd;stroke:none;stroke-width:0.26458332px;stroke-linecap:butt;stroke-linejoin:miter;stroke-opacity:1" />
        <path
           inkscape:connector-curvature="0"
           id="path4222"
           d="m 157.42175,118.72099 c 0,0 1.73725,3.0736 1.60362,4.94448 -0.13364,1.87089 -1.46999,3.40769 -1.46999,3.40769 0,0 1.02925,-1.53782 1.24186,-3.07335 0.21262,-1.53553 -1.37549,-5.27882 -1.37549,-5.27882 z"
           style="fill:#6c3d1e;fill-opacity:1;fill-rule:evenodd;stroke:none;stroke-width:0.26458332px;stroke-linecap:butt;stroke-linejoin:miter;stroke-opacity:1" />
      </g>
      <g
         inkscape:label="Lenses"
         id="layer18-0">
        <path
           sodipodi:nodetypes="cssssscc"
           inkscape:connector-curvature="0"
           id="path4218"
           d="m 121.85007,100.44717 c 0,0 4.15774,-3.118303 12.56771,-1.653644 8.40997,1.464654 12.14249,3.307284 12.56771,4.913684 0.42523,1.6064 -0.8032,7.13431 -2.22061,8.74071 -1.41741,1.60639 -4.58296,3.26004 -11.81176,1.79538 -7.22879,-1.46466 -10.86681,-4.15774 -11.0558,-6.56733 -0.18899,-2.4096 -0.28348,-5.85863 -0.0472,-7.2288 z"
           style="fill:#8e1a1a;fill-opacity:1;fill-rule:evenodd;stroke:none;stroke-width:0.26458332px;stroke-linecap:butt;stroke-linejoin:miter;stroke-opacity:1" />
        <path
           inkscape:connector-curvature="0"
           id="path4220"
           d="m 158.32478,106.58928 2.36235,-2.50409 8.59895,-0.33073 9.87463,2.59859 0.42523,3.35454 c 0,0 -1.6064,6.99256 -4.15774,8.03199 -2.55134,1.03944 -5.00819,0.8977 -8.64621,0.8032 -3.63802,-0.0945 -8.92969,-1.46466 -9.49665,-4.39397 -0.56696,-2.92932 -0.75595,-5.5279 1.03944,-7.55953 z"
           style="fill:#8e1a1a;fill-opacity:1;fill-rule:evenodd;stroke:none;stroke-width:0.26458332px;stroke-linecap:butt;stroke-linejoin:miter;stroke-opacity:1" />
      </g>
      <g
         inkscape:label="Sunglasses"
         id="layer17-8">
        <path
           inkscape:connector-curvature="0"
           id="path4215"
           d="m 91.753718,89.060638 c 0,0 -0.14174,-0.661458 0.944941,-0.330729 1.086683,0.330729 24.379461,10.914062 25.655131,11.197545 1.27567,0.283486 2.12612,0.708706 2.12612,0.708706 0,0 1.03943,-1.370165 2.4096,-1.74814 1.37016,-0.377976 9.11867,-1.6064 14.74107,-0.283483 5.62239,1.322917 8.69345,2.598583 9.26041,3.449033 0.56697,0.85045 1.18118,2.69308 1.18118,2.69308 0,0 2.45685,-0.0945 4.29948,0.14174 1.84263,0.23624 4.8192,1.27567 4.8192,1.27567 0,0 1.84263,-1.88988 3.1183,-2.4096 1.27567,-0.51971 5.57515,-1.27567 10.67783,-0.18899 5.10267,1.08669 7.51227,1.74814 8.88244,2.64584 1.37016,0.89769 1.55915,1.70089 1.55915,1.70089 0,0 1.13393,0.14174 1.32292,0.42523 0.18898,0.28348 0.18898,1.5119 -0.0945,1.84263 -0.28348,0.33073 -2.4096,-0.0472 -2.4096,-0.0472 0,0 -0.94494,2.78757 -1.22842,3.30729 -0.28348,0.51972 -0.61421,-0.42522 -0.61421,-0.42522 0,0 1.13393,-3.44903 0.8032,-4.63021 -0.33073,-1.18117 -1.93713,-3.02381 -8.50447,-3.87425 -6.56733,-0.85045 -9.26041,-0.61422 -10.72507,0.61421 -1.46466,1.22842 -2.4096,2.40959 -2.83482,4.81919 -0.42522,2.4096 -0.8032,3.44904 -1.03944,3.30729 -0.23623,-0.14174 -0.18898,-3.21279 0.0472,-4.20498 0.23624,-0.99219 0.51972,-1.79539 0.51972,-1.79539 0,0 -1.13393,-1.08668 -3.59077,-1.37016 -2.45685,-0.28348 -5.38616,0.0473 -5.38616,0.0473 0,0 -0.14175,1.88988 -0.70871,3.21279 -0.56696,1.32292 -1.18118,1.51191 -1.13393,0.85045 0.0472,-0.66146 1.55915,-3.77976 0.70871,-5.48065 -0.85045,-1.7009 -2.12612,-3.77977 -9.40216,-4.913695 -7.27604,-1.133928 -11.19755,-0.850445 -13.4654,0.283482 -2.26786,1.133923 -1.55916,5.622393 -1.55916,5.622393 0,0 -0.89769,-0.42522 -0.94494,-1.32291 -0.0472,-0.8977 0,-1.84264 0,-1.84264 0,0 -0.47247,0.14174 -2.64583,-0.61421 -2.17336,-0.75595 -26.269344,-11.622768 -26.269344,-11.622768 z"
           style="fill:#000000;fill-opacity:1;fill-rule:evenodd;stroke:none;stroke-width:0.26458332px;stroke-linecap:butt;stroke-linejoin:miter;stroke-opacity:1" />
      </g>
    </g>
  </g>
  <g
     inkscape:groupmode="layer"
     id="layer18"
     inkscape:label="Part"
     style="display:inline" />
  <g
     inkscape:groupmode="layer"
     id="layer4"
     inkscape:label="Artist Name">
    <text
       xml:space="preserve"
       style="font-style:normal;font-variant:normal;font-weight:600;font-stretch:normal;font-size:31.79755783px;line-height:100%;font-family:Museo;-inkscape-font-specification:'Museo, Semi-Bold';text-align:start;letter-spacing:0px;word-spacing:0px;writing-mode:lr-tb;text-anchor:start;fill:#ffffff;fill-opacity:1;stroke:none;stroke-width:0.84843826px;stroke-linecap:butt;stroke-linejoin:miter;stroke-opacity:1"
       x="163.02931"
       y="55.578026"
       id="text4158"
       sodipodi:linespacing="100%"><tspan
         sodipodi:role="line"
         x="163.02931"
         y="55.578026"
         style="font-style:normal;font-variant:normal;font-weight:600;font-stretch:normal;font-size:31.79755783px;line-height:100%;font-family:Museo;-inkscape-font-specification:'Museo, Semi-Bold';text-align:start;writing-mode:lr-tb;text-anchor:start;fill:#ffffff;fill-opacity:1;stroke-width:0.84843826px"
         id="tspan4415">Michael</tspan><tspan
         sodipodi:role="line"
         x="163.02931"
         y="87.37558"
         style="font-style:normal;font-variant:normal;font-weight:600;font-stretch:normal;font-size:31.79755783px;line-height:100%;font-family:Museo;-inkscape-font-specification:'Museo, Semi-Bold';text-align:start;writing-mode:lr-tb;text-anchor:start;fill:#ffffff;fill-opacity:1;stroke-width:0.84843826px"
         id="tspan4619">Manring &amp;</tspan><tspan
         sodipodi:role="line"
         x="163.02931"
         y="119.17314"
         style="font-style:normal;font-variant:normal;font-weight:600;font-stretch:normal;font-size:31.79755783px;line-height:100%;font-family:Museo;-inkscape-font-specification:'Museo, Semi-Bold';text-align:start;writing-mode:lr-tb;text-anchor:start;fill:#ffffff;fill-opacity:1;stroke-width:0.84843826px"
         id="tspan4220">Andy West</tspan></text>
  </g>
  <g
     inkscape:groupmode="layer"
     id="layer6"
     inkscape:label="WEIRD">
    <path
       style="opacity:1;fill:#ffffff;fill-opacity:1;stroke:none;stroke-width:17.2258606;stroke-miterlimit:4;stroke-dasharray:none;stroke-opacity:1"
       d="M 245.3457 602.625 L 245.3457 672.625 L 495.3457 672.625 L 495.3457 602.625 L 245.3457 602.625 z M 254.20703 613.5 L 258.08398 613.5 C 261.48345 613.5 263.18217 614.17987 263.99805 617.44336 L 271.4082 648.31055 C 272.02011 650.89414 272.36133 653.41016 272.36133 653.41016 L 272.49609 653.41016 C 272.49609 653.41016 272.90446 650.96213 273.65234 648.31055 L 283.30664 613.63477 L 289.42578 613.63477 L 298.40039 648.31055 C 299.08028 650.96213 299.41992 653.41016 299.41992 653.41016 L 299.55664 653.41016 C 299.55664 653.41016 299.8295 650.89414 300.44141 648.31055 L 307.98828 617.44336 C 308.80415 614.17987 310.43452 613.5 313.83398 613.5 L 317.70898 613.5 L 317.70898 619.3457 L 316.68945 619.3457 C 315.46565 619.3457 314.71885 619.61799 314.37891 620.8418 L 303.83984 661.5 L 295.95312 661.5 L 287.79492 631.17773 C 286.97905 628.05022 286.43555 624.58203 286.43555 624.58203 L 286.29883 624.58203 C 286.29883 624.58203 285.61824 628.04985 284.73438 631.10938 L 276.0332 661.5 L 268.07812 661.5 L 257.53906 620.8418 C 257.19912 619.61799 256.45232 619.3457 255.22852 619.3457 L 254.20703 619.3457 L 254.20703 613.5 z M 326.5 613.5 L 354.7168 613.5 C 357.77632 613.5 359.06641 614.79204 359.06641 617.85156 L 359.06641 623.90234 L 352.88086 623.90234 L 352.88086 620.8418 C 352.88086 619.82196 352.33662 619.3457 351.38477 619.3457 L 337.71875 619.3457 L 337.71875 634.37305 L 354.51172 634.37305 L 354.51172 640.21875 L 337.71875 640.21875 L 337.71875 654.15625 C 337.71875 655.1081 338.26299 655.65234 339.21484 655.65234 L 353.2207 655.65234 C 354.17255 655.65234 354.7168 655.1081 354.7168 654.15625 L 354.7168 651.09766 L 360.9707 651.09766 L 360.9707 657.14844 C 360.9707 660.20796 359.67866 661.5 356.61914 661.5 L 335.27148 661.5 C 332.21196 661.5 330.91992 660.20796 330.91992 657.14844 L 330.91992 619.3457 L 326.5 619.3457 L 326.5 613.5 z M 370.41406 613.5 L 386.25586 613.5 L 386.25586 619.3457 L 381.56445 619.3457 L 381.56445 655.65234 L 386.25586 655.65234 L 386.25586 661.5 L 370.41406 661.5 L 370.41406 655.65234 L 375.10547 655.65234 L 375.10547 619.3457 L 370.41406 619.3457 L 370.41406 613.5 z M 396.6543 613.5 L 417.5957 613.5 C 426.02638 613.5 431.94141 618.80359 431.94141 627.57422 C 431.94141 635.59696 426.70611 639.53923 423.30664 640.28711 L 423.30664 640.42383 C 423.30664 640.42383 424.52983 641.03585 425.3457 642.59961 L 431.125 654.08984 C 431.80489 655.51762 432.89365 655.65234 434.52539 655.65234 L 435.4082 655.65234 L 435.4082 661.5 L 432.07812 661.5 C 428.33871 661.5 426.97782 661.02399 425.41406 657.89648 L 418.88672 644.97852 C 417.66291 642.73487 416.78049 642.39453 414.12891 642.39453 L 407.87305 642.39453 L 407.87305 661.5 L 401.07422 661.5 L 401.07422 619.3457 L 396.6543 619.3457 L 396.6543 613.5 z M 443.75 613.5 L 463.19531 613.5 C 477.81302 613.5 487.4668 622.27002 487.4668 637.43164 C 487.4668 652.66125 477.81302 661.5 463.19531 661.5 L 452.51953 661.5 C 449.46001 661.5 448.16992 660.20796 448.16992 657.14844 L 448.16992 619.3457 L 443.75 619.3457 L 443.75 613.5 z M 407.87305 619.3457 L 407.87305 636.54883 L 416.71094 636.54883 C 421.87813 636.54883 424.9375 633.21686 424.9375 627.8457 C 424.9375 622.47455 421.87887 619.3457 416.84766 619.3457 L 407.87305 619.3457 z M 454.96875 619.3457 L 454.96875 654.15625 C 454.96875 655.1081 455.51299 655.65234 456.46484 655.65234 L 462.71875 655.65234 C 473.39308 655.65234 480.39648 649.26179 480.39648 637.43164 C 480.39648 625.66949 473.32509 619.3457 462.71875 619.3457 L 454.96875 619.3457 z "
       transform="scale(0.26458334)"
       id="rect4172" />
  </g>
  <g
     inkscape:groupmode="layer"
     id="layer7"
     inkscape:label="MAKE">
    <text
       xml:space="preserve"
       style="font-style:normal;font-variant:normal;font-weight:normal;font-stretch:normal;font-size:17.99166679px;line-height:100%;font-family:Museo;-inkscape-font-specification:'Museo, Normal';text-align:start;letter-spacing:0px;word-spacing:0px;writing-mode:lr-tb;text-anchor:start;fill:#ffffff;fill-opacity:1;stroke:none;stroke-width:0.26458335px;stroke-linecap:butt;stroke-linejoin:miter;stroke-opacity:1"
       x="10.690782"
       y="175.02188"
       id="text4175"
       sodipodi:linespacing="100%"><tspan
         sodipodi:role="line"
         id="tspan4177"
         x="10.690782"
         y="175.02188"
         style="font-style:normal;font-variant:normal;font-weight:normal;font-stretch:normal;font-size:17.99166679px;line-height:100%;font-family:Museo;-inkscape-font-specification:'Museo, Normal';text-align:start;writing-mode:lr-tb;text-anchor:start;fill:#ffffff;fill-opacity:1;stroke-width:0.26458335px;letter-spacing:1.32291669px">MAKE</tspan></text>
  </g>
  <g
     inkscape:groupmode="layer"
     id="layer8"
     inkscape:label="MUSIC">
    <text
       xml:space="preserve"
       style="font-style:normal;font-variant:normal;font-weight:normal;font-stretch:normal;font-size:17.99166679px;line-height:100%;font-family:Museo;-inkscape-font-specification:'Museo, Normal';text-align:start;letter-spacing:0px;word-spacing:0px;writing-mode:lr-tb;text-anchor:start;fill:#ffffff;fill-opacity:1;stroke:none;stroke-width:0.26458335px;stroke-linecap:butt;stroke-linejoin:miter;stroke-opacity:1"
       x="134.21758"
       y="174.80598"
       id="text4180"
       sodipodi:linespacing="100%"><tspan
         sodipodi:role="line"
         id="tspan4182"
         x="134.21758"
         y="174.80598"
         style="font-style:normal;font-variant:normal;font-weight:normal;font-stretch:normal;font-size:17.99166679px;line-height:100%;font-family:Museo;-inkscape-font-specification:'Museo, Normal';text-align:start;writing-mode:lr-tb;text-anchor:start;fill:#ffffff;fill-opacity:1;stroke-width:0.26458335px">MUSIC</tspan></text>
  </g>
</svg>
