<?xml version="1.0" encoding="UTF-8" standalone="no"?>
<!-- Created with Inkscape (http://www.inkscape.org/) -->

<svg
   xmlns:dc="http://purl.org/dc/elements/1.1/"
   xmlns:cc="http://creativecommons.org/ns#"
   xmlns:rdf="http://www.w3.org/1999/02/22-rdf-syntax-ns#"
   xmlns:svg="http://www.w3.org/2000/svg"
   xmlns="http://www.w3.org/2000/svg"
   xmlns:xlink="http://www.w3.org/1999/xlink"
   xmlns:sodipodi="http://sodipodi.sourceforge.net/DTD/sodipodi-0.dtd"
   xmlns:inkscape="http://www.inkscape.org/namespaces/inkscape"
   width="1000"
   height="1000"
   viewBox="0 0 264.58333 264.58334"
   version="1.1"
   id="svg8"
   inkscape:version="0.92.1 r15371"
   sodipodi:docname="andy-west-markus-reuter.svg"
   inkscape:export-filename="C:\Users\Anthony Garone\Documents\GitHub\art\andy-west-markus-reuter\andy-west-markus-reuter.png"
   inkscape:export-xdpi="96"
   inkscape:export-ydpi="96">
  <defs
     id="defs2">
    <linearGradient
       id="linearGradient4224"
       inkscape:collect="always">
      <stop
         id="stop4226"
         offset="0"
         style="stop-color:#ababab;stop-opacity:1" />
      <stop
         id="stop4228"
         offset="1"
         style="stop-color:#7f7f7f;stop-opacity:1" />
    </linearGradient>
    <linearGradient
       gradientUnits="userSpaceOnUse"
       y2="137.17874"
       x2="147.86943"
       y1="171.19659"
       x1="146.57872"
       id="linearGradient4230"
       xlink:href="#linearGradient4224"
       inkscape:collect="always" />
  </defs>
  <sodipodi:namedview
     id="base"
     pagecolor="#ffffff"
     bordercolor="#666666"
     borderopacity="1.0"
     inkscape:pageopacity="0.0"
     inkscape:pageshadow="2"
     inkscape:zoom="0.7"
     inkscape:cx="353.51841"
     inkscape:cy="497.28442"
     inkscape:document-units="px"
     inkscape:current-layer="g4683"
     showgrid="false"
     units="px"
     showguides="true"
     inkscape:guide-bbox="true"
     inkscape:window-width="1920"
     inkscape:window-height="1017"
     inkscape:window-x="-8"
     inkscape:window-y="-8"
     inkscape:window-maximized="1"
     inkscape:snap-global="true">
    <sodipodi:guide
       position="264.58334,264.58334"
       orientation="1,0"
       id="guide10"
       inkscape:locked="false"
       inkscape:label=""
       inkscape:color="rgb(0,0,255)" />
    <sodipodi:guide
       position="0,0"
       orientation="1,0"
       id="guide12"
       inkscape:locked="false"
       inkscape:label=""
       inkscape:color="rgb(0,0,255)" />
    <sodipodi:guide
       position="264.58334,264.58334"
       orientation="0,1"
       id="guide14"
       inkscape:locked="false"
       inkscape:label=""
       inkscape:color="rgb(0,0,255)" />
    <sodipodi:guide
       position="0,0"
       orientation="0,1"
       id="guide16"
       inkscape:locked="false"
       inkscape:label=""
       inkscape:color="rgb(0,0,255)" />
  </sodipodi:namedview>
  <metadata
     id="metadata5">
    <rdf:RDF>
      <cc:Work
         rdf:about="">
        <dc:format>image/svg+xml</dc:format>
        <dc:type
           rdf:resource="http://purl.org/dc/dcmitype/StillImage" />
        <dc:title />
      </cc:Work>
    </rdf:RDF>
  </metadata>
  <g
     inkscape:label="BG"
     inkscape:groupmode="layer"
     id="layer1"
     style="display:none"
     transform="translate(0,-32.41665)">
    <rect
       id="rect4493"
       width="264.58334"
       height="264.58334"
       x="0"
       y="32.416641"
       style="fill:#ffffff;fill-opacity:1;stroke-width:0.26458332" />
  </g>
  <g
     inkscape:groupmode="layer"
     id="layer2"
     inkscape:label="Markus"
     style="display:inline">
    <g
       id="g4683"
       transform="matrix(0.70537652,0,0,0.70537652,6.1871439,21.088066)">
      <path
         inkscape:connector-curvature="0"
         id="path4593"
         d="m 42.427826,111.69196 20.97768,3.49628 v 9.35491 l -22.489583,-6.2366 z"
         style="fill:#4d4d4d;fill-opacity:1;stroke:none;stroke-width:0.26458332px;stroke-linecap:butt;stroke-linejoin:miter;stroke-opacity:1" />
      <path
         inkscape:connector-curvature="0"
         id="path4534"
         d="m 162.76714,161.68456 c 0,9.08717 2.00452,18.97614 -6.1472,27.39513 -8.15172,8.41899 -45.83672,29.26601 -52.25119,29.39965 -6.414469,0.13363 -10.690781,-1.46998 -13.764382,-1.73726 -3.073598,-0.26726 -8.285356,0.66818 -11.759859,-2.00452 -3.474503,-2.67269 -24.321526,-52.11755 -22.71791,-70.69279 1.603618,-18.57523 4.197749,-20.07142 1.650143,-25.57101 -2.547607,-5.49959 1.016449,-9.82345 3.558563,-16.78183 2.542112,-6.958382 3.076649,-19.787321 8.822944,-30.21083 5.746295,-10.423512 13.096208,-22.717911 34.878671,-20.71339 21.78247,2.004523 47.03944,10.022607 50.24667,23.386084 3.20724,13.363477 11.95938,35.059626 11.15061,46.058806 -0.80876,10.99918 -3.66706,41.47196 -3.66706,41.47196 z"
         style="fill:#cccccc;fill-opacity:1;stroke:none;stroke-width:0.26458332px;stroke-linecap:butt;stroke-linejoin:miter;stroke-opacity:1" />
      <path
         inkscape:connector-curvature="0"
         id="path4559"
         d="m 56.928408,115.98147 c 0,0 10.156243,-2.40542 14.566191,-2.27179 4.409945,0.13364 4.142676,-3.74177 -0.534541,-5.47902 -4.677216,-1.73725 -16.971615,3.74177 -14.03165,7.75081 z"
         style="fill:#808080;stroke:none;stroke-width:0.26458332px;stroke-linecap:butt;stroke-linejoin:miter;stroke-opacity:1" />
      <path
         inkscape:connector-curvature="0"
         id="path4599"
         d="m 112.52047,194.02418 c -8.01808,4.54358 -35.546848,32.07234 -40.624969,35.0123 -5.078119,2.93997 -41.426775,10.95805 -52.652095,15.7689 C 8.0180856,249.61624 -20.053082,345.199 -18.449465,345.199 H 152.64499 Z"
         style="fill:#333333;fill-opacity:1;stroke:none;stroke-width:0.26458332px;stroke-linecap:butt;stroke-linejoin:miter;stroke-opacity:1"
         sodipodi:nodetypes="ccsscc" />
      <path
         sodipodi:nodetypes="cscsccccc"
         inkscape:connector-curvature="0"
         id="path4569"
         d="m 170.38432,165.42634 c 0,0 5.61266,22.38382 2.93996,31.33735 -2.67269,8.95352 -76.706346,67.41874 -76.706346,67.41874 0,0 -7.216277,-27.6624 -6.815373,-34.2105 0.400902,-6.54811 0.801807,-9.75534 -0.133635,-11.62623 -0.935443,-1.87088 -1.870888,-2.40542 -1.870888,-2.40542 0,0 44.366742,-13.22984 57.062042,-27.52877 12.69531,-14.29891 19.24341,-27.12785 19.24341,-27.12785 0,0 4.81085,1.33635 6.28083,4.14268 z"
         style="fill:#b3b3b3;stroke:none;stroke-width:0.26458332px;stroke-linecap:butt;stroke-linejoin:miter;stroke-opacity:1" />
      <path
         inkscape:connector-curvature="0"
         id="path4589"
         d="m 165.03893,114.64513 -0.93544,41.82768 22.317,-34.07687 z"
         style="fill:#333333;stroke:none;stroke-width:0.26458332px;stroke-linecap:butt;stroke-linejoin:miter;stroke-opacity:1" />
      <path
         sodipodi:nodetypes="ccsscccsccsscccccssscssscccc"
         inkscape:connector-curvature="0"
         id="path4541"
         transform="scale(0.26458333)"
         d="m 598.00937,453.50828 c -3.03042,31.31475 -31.31292,178.29139 -41.91953,191.42336 -10.6066,13.13201 -62.12464,56.56755 -70.71093,51.01172 -8.5863,-5.55583 -27.77897,-54.04183 -38.89063,-59.59766 -11.11166,-5.55583 -94.95513,-48.99295 -110.10742,-49.49804 -15.15229,-0.50506 -19.19298,12.12189 -25.25391,12.62695 -6.0609,0.5051 -14.14262,-10.60587 -26.76953,-7.07031 -12.62691,3.53552 -55.05194,66.16448 -54.54687,72.73047 0.50507,6.56598 46.46648,140.91644 65.15429,152.5332 18.68784,11.61675 42.4266,1.5152 50.50782,2.52539 8.08122,1.01012 38.89062,11.11172 46.46679,10.10156 7.57614,-1.01015 197.48444,-76.26702 212.63672,-133.8457 15.15228,-57.57872 39.39604,-222.73945 33.33515,-225.26482 -6.06093,-2.52536 -39.90195,-17.67612 -39.90195,-17.67612 z M 325.67188,622.6875 c 0.19946,-0.002 0.40223,0.004 0.60742,0.0195 6.56598,0.5051 70.20552,26.26447 79.29687,34.3457 9.09139,8.0812 10.60704,40.91177 11.61719,54.54883 1.01015,13.63707 -30.30475,14.6465 -47.98242,19.69727 -17.67767,5.05077 -13.13166,-30.30355 -18.6875,-35.85938 -5.55584,-5.55583 -55.55823,-3.03163 -61.61914,-2.02148 -14.01587,1.51525 -7.57618,16.66767 -7.57618,35.35547 0,18.68783 -18.68791,10e-4 -25.2539,-24.24219 -6.56599,-24.24363 25.75816,-40.40628 14.64648,-47.98242 -11.11168,-7.57614 11.61722,-26.76991 19.19336,-28.28516 7.57614,-1.51521 12.12229,5.05117 19.19336,4.04102 6.8501,-0.97859 10.38092,-9.54216 16.56446,-9.61719 z"
         style="fill:#808080;fill-opacity:1;stroke:none;stroke-width:0.99999994px;stroke-linecap:butt;stroke-linejoin:miter;stroke-opacity:1" />
      <path
         inkscape:connector-curvature="0"
         id="path4545"
         d="m 105.57146,174.78077 c -6.548101,-3.20724 -15.234361,-8.01809 -18.307959,-7.34991 -3.073601,0.66817 -3.474506,1.87089 -5.746295,1.46998 -2.271792,-0.4009 -4.409948,-1.20271 -6.280835,-0.66817 -1.870888,0.53453 -4.276313,4.67721 -2.27179,6.01356 2.004521,1.33635 0.267269,4.54358 4.009041,5.61266 3.741775,1.06908 9.48807,1.73725 15.768902,-0.80181 6.280835,-2.53906 12.828936,-4.27631 12.828936,-4.27631 z"
         style="fill:#b3b3b3;fill-opacity:1;stroke:none;stroke-width:0.26458332px;stroke-linecap:butt;stroke-linejoin:miter;stroke-opacity:1" />
      <path
         inkscape:connector-curvature="0"
         id="path4561"
         d="m 98.75609,113.70968 c -1.069078,-1.87088 1.069078,-5.74629 2.40543,-5.74629 1.33634,0 25.3906,0.93544 27.39512,2.67269 2.00452,1.73726 3.87541,5.7463 1.33635,4.94449 -2.53906,-0.80181 -26.99422,-2.6727 -31.1369,-1.87089 z"
         style="fill:#808080;stroke:none;stroke-width:0.26458332px;stroke-linecap:butt;stroke-linejoin:miter;stroke-opacity:1" />
      <path
         sodipodi:nodetypes="csssccccsscsccscc"
         inkscape:connector-curvature="0"
         id="path4582"
         d="m 61.605625,144.98022 c 0,0 -1.870887,-3.74178 -1.469983,-5.7463 0.400905,-2.00452 5.612662,-6.28083 5.612662,-9.75533 0,-3.47451 -1.069078,-4.00905 0,-4.94449 1.069078,-0.93544 1.469983,-1.06908 1.469983,-1.06908 0,0 4.543581,1.77066 7.182865,0.13363 2.672697,-1.60361 5.245167,-3.8754 5.111531,-4.67721 -0.133633,-0.80181 -4.276312,-2.13816 -9.755338,-0.13363 -5.479024,2.00452 -5.211755,2.67269 -7.483547,2.40542 -2.271789,-0.26727 -2.939962,-0.53454 -2.939962,-3.0736 0,-2.53906 0.267268,-2.7061 0.267268,-2.7061 0,0 -2.405427,4.17608 10e-7,6.04697 2.405424,1.87089 2.806329,4.00904 2.806329,4.00904 0,0 1.870887,-2.93996 2.00452,-2.13815 0.133636,0.80181 0.935445,4.94448 -0.267268,6.81537 -1.202714,1.87089 -5.61266,6.81537 -5.078122,9.48807 0.534541,2.67269 0,4.94448 2.539061,5.34539 z"
         style="fill:#4d4d4d;fill-opacity:1;stroke:none;stroke-width:0.26458332px;stroke-linecap:butt;stroke-linejoin:miter;stroke-opacity:1" />
      <path
         inkscape:connector-curvature="0"
         id="path4555"
         d="m 68.821902,120.12415 c 0,0 -3.875407,0.80181 -2.806329,2.53906 1.069078,1.73725 4.944485,1.60362 4.944485,1.60362 0,0 -2.405424,-1.73725 -2.138156,-4.14268 z"
         style="fill:#f9f9f9;stroke:none;stroke-width:0.26458332px;stroke-linecap:butt;stroke-linejoin:miter;stroke-opacity:1" />
      <path
         sodipodi:nodetypes="ccccc"
         inkscape:connector-curvature="0"
         id="path4587"
         d="m 112.67031,118.05647 c 0,0 7.30372,1.11199 8.81563,1.58445 1.5119,0.47247 0.46674,3.75684 0.46674,3.75684 0,0 -4.14808,1.38499 -7.94799,0.39992 -1.79538,-0.28349 -3.60223,-4.60728 -1.33438,-5.74121 z"
         style="fill:#4d4d4d;fill-opacity:1;stroke:none;stroke-width:0.26458332px;stroke-linecap:butt;stroke-linejoin:miter;stroke-opacity:1" />
      <path
         inkscape:connector-curvature="0"
         id="path4557"
         d="m 115.86134,124.26683 c 0,0 -9.35443,-0.93544 -9.48807,-2.40543 -0.13363,-1.46998 3.20723,-3.8754 4.54358,-3.8754 1.33635,0 1.87089,0.13363 1.87089,0.13363 0,0 -0.93544,4.81085 3.0736,6.1472 z"
         style="fill:#f9f9f9;fill-opacity:1;stroke:none;stroke-width:0.26458332px;stroke-linecap:butt;stroke-linejoin:miter;stroke-opacity:1" />
      <path
         inkscape:connector-curvature="0"
         id="path4563"
         d="m 119.46948,123.99956 c 0,0 7.88445,-1.06908 7.21628,-1.87089 -0.66818,-0.8018 -5.21176,-2.53906 -5.21176,-2.53906 0,0 0.93544,3.34087 -2.00452,4.40995 z"
         style="fill:#f9f9f9;fill-opacity:1;stroke:none;stroke-width:0.26458332px;stroke-linecap:butt;stroke-linejoin:miter;stroke-opacity:1" />
      <path
         sodipodi:nodetypes="cccssczccscccscsccccscccc"
         inkscape:connector-curvature="0"
         id="path4576"
         transform="scale(0.26458333)"
         d="m 504.57031,421.6875 -174.25,7.57617 v 27.27344 c 0,0 -6.56723,29.29613 -17.17383,38.89258 -10.6066,9.59644 -45.11489,57.65601 -45.61997,70.28292 -0.50508,12.62691 41.65185,16.00379 54.27876,14.99364 10.27082,-0.50703 17.94094,-0.12273 24.42423,2.85841 6.48328,2.98114 25.00099,3.28373 35.10253,-3.78732 10.10151,-7.07108 -2.5246,-28.28552 0.50586,-24.75 3.03046,3.53556 158.08913,-3.5344 175.26172,-8.08007 17.17259,-4.54568 38.38477,-82.83399 38.38477,-82.83399 z m -37.30078,6.00781 c 1.48175,0.004 2.97321,0.0212 4.47266,0.0527 47.98223,1.01019 98.48825,39.90164 90.91211,62.125 -7.57618,22.22335 -21.21179,40.40626 -39.39453,45.45703 -18.18274,5.05077 -132.33086,16.16127 -137.88672,8.08008 -5.55583,-8.08124 -25.75777,-59.09338 -15.65625,-70.20508 5.55584,-0.50506 13.13052,19.69768 24.24218,21.21289 11.1117,1.51525 9.0918,-1.51367 9.0918,-1.51367 0,0 -32.97775,-15.28479 -24.24414,-29.80078 10.8876,-18.0961 41.48856,-18.47907 41.48856,-18.47907 0,0 -27.65716,-3.84155 -27.15207,-6.36692 0.48928,-2.44649 28.19212,-10.67833 74.1264,-10.56222 z"
         style="display:inline;fill:#4d4d4d;fill-opacity:1;stroke:none;stroke-width:0.99999994px;stroke-linecap:butt;stroke-linejoin:miter;stroke-opacity:1" />
      <path
         inkscape:connector-curvature="0"
         id="path4549"
         transform="scale(0.26458333)"
         d="m 442.61328,416.11133 c -35.81967,0.074 -102.27118,8.60742 -120.375,8.60742 -18.68782,0 -65.15438,-4.5469 -87.88281,-7.07227 -22.72843,-2.52536 -76.26642,3.03048 -79.29688,5.05079 -3.03046,2.0203 -3.53594,16.66874 -4.04101,22.22461 -0.50508,5.55581 8.58673,2.52385 11.61719,9.08984 3.03046,6.56598 7.57617,66.16566 7.57617,74.75195 0,8.58629 20.70714,18.18204 51.01172,22.22266 30.30457,4.04058 42.93282,-1.00898 47.47851,-5.55469 4.54568,-4.54567 17.17111,-44.44696 21.7168,-58.08398 4.54568,-13.63707 10.1016,-30.81055 22.72851,-30.81055 23.23351,1.01012 42.93283,85.35862 47.47852,89.9043 4.54569,4.54571 4.54426,5.05156 41.91992,8.08203 37.37564,3.03046 82.83403,-11.6184 87.88477,-16.16406 5.05077,-4.54572 19.69807,-74.24494 25.2539,-82.32618 5.55583,-8.08123 10.60547,-6.5664 10.60547,-6.5664 l 114.65235,31.82031 -2.52539,-36.87109 c 0,0 -116.16798,-27.7793 -123.74414,-27.7793 -7.57614,0 -33.83923,10e-4 -68.68946,-0.50391 -1.08907,-0.0158 -2.21367,-0.0239 -3.36914,-0.0215 z m -244.48633,9.54883 c 16.18513,-0.0289 36.76483,2.12064 52.39063,4.10937 27.7792,3.53556 33.84103,10.10043 38.38672,20.70703 1.51523,12.62691 -28.28479,84.34728 -34.34571,90.40821 -6.06091,6.06092 -71.21603,-8.08086 -75.76171,-13.63672 -4.5457,-5.55583 -12.62655,-87.88246 -6.06055,-96.46875 2.87262,-3.75651 12.80219,-5.0967 25.39062,-5.11914 z M 431.9668,427.875 c 27.02158,-0.12627 52.40157,1.13576 56.94726,4.92383 9.09139,7.57614 -5.05121,91.41915 -11.61718,98.49023 -6.56599,7.07108 -96.46879,19.19333 -104.04493,11.61719 -7.57615,-7.57614 -37.37694,-84.85242 -34.85156,-97.98437 4.04061,-7.57618 4.54617,-10.10316 26.76953,-13.63868 11.11167,-1.76778 39.7753,-3.28193 66.79688,-3.4082 z"
         style="fill:#999999;stroke:none;stroke-width:0.99999994px;stroke-linecap:butt;stroke-linejoin:miter;stroke-opacity:1" />
      <path
         transform="translate(0,-32.41665)"
         sodipodi:nodetypes="czscccscscscsscscscscccszczscsscscscscsccccsssc"
         inkscape:connector-curvature="0"
         id="path4565"
         d="m 149.00276,105.2341 c 3.87541,11.09168 -0.2691,21.10736 0.93544,25.65787 1.20454,4.55051 6.81538,16.70435 17.10525,20.84702 10.28988,4.14268 17.37252,6.28084 17.77342,12.56167 0.40091,6.28084 0.80181,10.55715 0.80181,10.55715 0,0 6.81538,-5.21176 5.87993,-15.10073 -0.93544,-9.88897 -3.34087,-13.76438 2.40543,-18.70887 5.74629,-4.94448 2.53906,-20.44612 2.53906,-20.44612 0,0 9.08716,-6.01356 4.00904,-11.09168 -5.07812,-5.07812 -11.22532,-3.74178 -11.22532,-3.74178 0,0 -0.53454,-4.67721 9.62171,-8.01808 10.15624,-3.34087 14.56619,-2.53906 14.56619,-2.53906 0,0 -11.35896,-3.741775 -21.64884,0.801809 -10.28987,4.543581 -11.49259,-7.617182 -7.75081,-11.091688 3.74177,-3.474503 13.63074,-10.69078 13.63074,-10.69078 0,0 -11.09168,7.082644 -16.97161,6.548104 -5.87993,-0.534538 4.40995,-22.985179 4.40995,-22.985179 0,0 -14.56619,21.247927 -24.05426,16.837979 -9.48807,-4.409948 4.94448,-12.962572 4.94448,-12.962572 0,0 -11.22532,3.34087 -16.1698,0.267271 -4.94449,-3.0736 -7.75082,-10.958051 -7.75082,-10.958051 0,0 -10.42351,10.289875 -14.29892,8.418991 -3.8754,-1.870888 -1.46998,-20.579754 -1.46998,-20.579754 0,0 -7.08264,18.976136 -12.2944,17.639788 C 108.7787,55.12106 99.691535,37.347637 92.207986,36.278559 c -7.483548,-1.069078 -18.307962,4.276313 -18.307962,4.276313 0,0 18.307962,-4.276313 18.708867,9.755337 0.400905,14.03165 -20.045214,-6.013564 -27.261492,-1.202713 -7.216277,4.810852 -10.958052,18.842502 -10.958052,18.842502 0,0 11.326415,-26.135164 18.842503,-11.893494 4.694987,8.896177 -16.528239,5.047122 -25.256971,21.648832 -6.815371,12.962572 -7.483546,20.045214 -7.483546,20.045214 0,0 10.824417,-31.270535 18.976136,-21.782468 5.111429,5.949369 -14.165284,25.123338 -14.165284,25.123338 0,0 11.759859,-12.02713 14.031651,-5.211757 2.271789,6.815377 -0.534541,15.902537 -0.534541,15.902537 0,0 6.013564,0.53454 6.013564,2.27179 0,1.73725 -3.474503,4.67722 -3.474503,4.67722 0,0 3.34087,1.73725 1.469983,4.27631 -1.870888,2.53906 -4.543581,2.27179 -5.078122,4.94448 -0.53454,2.6727 0.534541,3.60814 0.534541,3.60814 0,0 3.608136,-5.87992 3.207234,-3.34086 -0.400905,2.53906 -3.073601,12.02712 -3.073601,12.02712 0,0 1.561696,-1.16356 4.76893,-12.38889 3.207234,-11.22531 4.585503,-15.54078 9.529989,-23.42523 4.944486,-7.884444 15.234364,-13.764372 25.79151,-13.898007 10.17124,-0.12875 47.03944,3.741774 50.51394,14.699827 z"
         style="display:inline;fill:#333333;stroke:none;stroke-width:0.26458332px;stroke-linecap:butt;stroke-linejoin:miter;stroke-opacity:1" />
      <path
         inkscape:connector-curvature="0"
         id="path4571"
         d="m 164.10349,159.54641 c 0,0 -1.20271,4.67721 2.27179,6.01356 3.4745,1.33635 10.69078,-3.0736 14.96709,-13.0962 4.27631,-10.02261 9.6217,-21.5152 6.68174,-25.65788 -2.93996,-4.14268 -13.22984,-5.61266 -16.30344,-0.93544 -3.0736,4.67721 -7.61718,31.67144 -7.61718,33.67596 z"
         style="fill:#b3b3b3;fill-opacity:1;stroke:none;stroke-width:0.26458332px;stroke-linecap:butt;stroke-linejoin:miter;stroke-opacity:1" />
      <path
         sodipodi:nodetypes="cssssccsccsczzssc"
         inkscape:connector-curvature="0"
         id="path4547"
         d="m 84.457169,121.59413 c -1.603616,0 -3.474503,2.00453 -5.078119,5.3454 -1.603619,3.34087 -3.87541,8.15172 -5.479026,9.88897 -1.603619,1.73725 -3.34087,5.34539 -3.608139,7.21627 -0.267269,1.87089 -1.870887,2.2718 -1.469983,4.81086 0.400905,2.53906 5.746295,4.00904 5.746295,4.00904 0,0 -5.34539,-3.60814 -2.806329,-2.6727 2.53906,0.93545 7.216277,4.14268 9.220798,4.14268 2.004523,0 2.138156,-0.66817 2.138156,-0.66817 0,0 -3.474503,-2.80633 1.336347,-3.74178 4.810852,-0.93544 8.151722,0.26727 6.949008,1.33635 -1.202714,1.06908 -4.276312,2.27179 -4.276312,2.27179 0,0 9.854579,0.4353 9.787762,-2.17058 -0.06682,-2.60588 -1.357915,-4.52312 -4.442372,-6.38204 -3.084457,-1.85892 -13.911444,1.19322 -13.911444,-2.54856 0,-3.74177 6.026993,-10.68128 7.36334,-13.22034 1.33635,-2.53906 1.870887,-5.61266 -1.469982,-7.61719 z"
         style="fill:#cccccc;fill-opacity:1;stroke:none;stroke-width:0.26458332px;stroke-linecap:butt;stroke-linejoin:miter;stroke-opacity:1" />
      <path
         inkscape:connector-curvature="0"
         id="path4584"
         d="m 73.632755,175.44894 c 0,0 1.469983,-1.33634 3.608139,-1.73725 2.138156,-0.4009 3.474503,0.40091 7.216275,0.26727 3.741774,-0.13363 11.22532,-0.53454 11.22532,0.53454 0,1.06908 -8.285355,4.67722 -7.34991,5.21176 0.935442,0.53453 8.552624,-2.40543 10.958049,-2.93997 2.405422,-0.53454 6.280832,-1.73725 6.280832,-1.73725 0,0 -9.755335,-5.21176 -12.6953,-6.28084 -2.939965,-1.06907 -6.681737,3.60814 -6.1472,4.14268 0.534541,0.53454 -2.672693,0.26727 -4.009043,0.26727 -1.336347,0 -4.677217,-0.4009 -5.746295,0 -1.069078,0.40091 -3.875407,1.80407 -4.710626,1.83748 -0.835215,0.0334 -1.436573,1.26953 1.369759,0.43431 z"
         style="fill:#4d4d4d;stroke:none;stroke-width:0.26458332px;stroke-linecap:butt;stroke-linejoin:miter;stroke-opacity:1" />
      <path
         inkscape:connector-curvature="0"
         id="path4591"
         d="m 105.90555,122.93048 c 0,0 -1.1359,-0.73499 0,-2.13815 1.13589,-1.40317 4.00904,-2.60588 5.0113,-2.6727 1.00226,-0.0668 10.49033,1.40317 11.8935,2.00452 1.40316,0.60136 3.94222,2.27179 4.27631,2.13816 0.33409,-0.13364 -3.87541,-2.60588 -6.48129,-3.27405 -2.60587,-0.66818 -9.35443,-1.46999 -10.42351,-1.46999 -1.06908,0 -9.15398,3.27406 -4.27631,5.41221 z"
         style="fill:#4d4d4d;fill-opacity:1;stroke:none;stroke-width:0.26458332px;stroke-linecap:butt;stroke-linejoin:miter;stroke-opacity:1" />
      <path
         sodipodi:nodetypes="ccsssccscssccscc"
         inkscape:connector-curvature="0"
         id="path4595"
         d="m 75.236371,184.40247 c 1.603618,-0.93544 8.953529,-1.33635 9.888974,-0.26727 0.935442,1.06908 0.935442,11.09169 0.133633,14.16529 -0.801809,3.0736 5.34539,13.0962 4.409948,15.23436 -0.935443,2.13816 -3.87541,4.64381 -8.552627,3.30746 -4.677216,-1.33635 -5.980154,-5.98015 -7.182865,-8.11831 -1.202714,-2.13816 -13.129618,-31.37076 -12.595078,-33.00779 0.768399,-1.33635 11.626225,-17.77342 14.83346,-18.04069 3.207234,-0.26727 5.078118,2.00452 5.479023,2.40542 0.400905,0.40091 1.33635,6.41448 0.267271,6.41448 -1.069078,0 -3.474505,-1.33635 -4.810852,-1.06908 -1.336347,0.26727 -7.483546,4.67721 -7.082642,7.08264 0.400905,2.40542 1.870885,2.13816 1.069078,3.20723 -0.801809,1.06908 -4.810852,6.81538 -4.677217,8.55263 0.133634,1.73725 4.543581,12.96257 7.617183,11.35895 3.073598,-1.60361 -0.267272,-10.42351 1.202711,-11.22532 z"
         style="fill:#8e8e8e;fill-opacity:1;stroke:none;stroke-width:0.26458332px;stroke-linecap:butt;stroke-linejoin:miter;stroke-opacity:1" />
      <path
         sodipodi:nodetypes="ccccczsscc"
         inkscape:connector-curvature="0"
         id="path4597"
         d="m 173.67056,183.78617 c 0,4.53571 -2.25836,11.06055 -4.7152,14.27335 -2.45685,3.2128 -78.430063,66.52381 -78.430063,66.52381 L 86.07409,345.199 h 216.21915 c 0,0 -27.2251,-95.94299 -37.70991,-102.3493 -10.48481,-6.40631 -24.75744,-13.22917 -35.15178,-16.06399 -10.39435,-2.83482 -24.75745,-10.77232 -30.2381,-12.6622 -5.48065,-1.88988 -13.79613,-3.59077 -16.25298,-6.99256 -2.45684,-3.40179 -6.81307,-23.91174 -9.26991,-23.34478 z"
         style="fill:#333333;fill-opacity:1;stroke:none;stroke-width:0.26458332px;stroke-linecap:butt;stroke-linejoin:miter;stroke-opacity:1" />
    </g>
  </g>
  <g
     inkscape:groupmode="layer"
     id="layer3"
     inkscape:label="Andy"
     style="display:inline">
    <g
       id="g4658"
       transform="translate(53.98845,4.9999999e-6)">
      <g
         style="display:inline"
         inkscape:label="Neck"
         id="layer3-1">
        <path
           sodipodi:nodetypes="ccccccccsc"
           inkscape:connector-curvature="0"
           id="path4812"
           d="m 93.410698,133.88853 -18.708865,16.83798 2.00452,19.64431 21.114292,20.98066 29.132375,1.60362 12.42804,-21.38157 -29.26602,-17.37251 -15.932176,-37.58797 c 0,0 -0.394189,5.46027 -0.594642,8.86796 -0.177044,3.00973 -0.04389,3.86394 -0.177524,8.40752 z"
           style="fill:#deaa87;fill-opacity:1;fill-rule:evenodd;stroke:none;stroke-width:0.26458332px;stroke-linecap:butt;stroke-linejoin:miter;stroke-opacity:1" />
      </g>
      <g
         inkscape:label="Arm"
         id="layer10">
        <path
           inkscape:connector-curvature="0"
           id="path4879"
           d="m 189.02637,245.80764 6.61492,-6.949 18.04069,-2.27179 6.34766,4.14268 c 0,0 2.07134,0.20045 2.07134,9.6217 0,9.42125 -1.00227,14.2321 -1.00227,14.2321 h -32.40643 c 0,0 -3.34086,-14.03165 0.33409,-18.77569 z"
           style="fill:#deaa87;fill-opacity:1;fill-rule:evenodd;stroke:none;stroke-width:0.26458332px;stroke-linecap:butt;stroke-linejoin:miter;stroke-opacity:1" />
      </g>
      <g
         style="display:inline"
         inkscape:label="Shirt"
         id="layer4">
        <path
           sodipodi:nodetypes="csssscccscssssssccccsssc"
           inkscape:connector-curvature="0"
           id="path4815"
           d="m 93.832587,133.70908 c 0,0 -14.835564,10.01636 -21.54464,16.53645 -6.70908,6.52009 -17.859375,13.70164 -22.867562,16.81994 -5.008184,3.11831 -12.18973,12.28423 -17.859375,23.05655 -5.669641,10.77232 -13.229165,40.91592 -14.74107,49.32589 -1.511904,8.40997 -2.173363,25.13542 -2.173363,25.13542 H 187.47619 l 0.37797,-18.9933 c 0,0 10.39435,-7.27604 20.97768,-7.46503 10.58334,-0.18899 12.85119,5.10267 12.85119,5.10267 0,0 -5.00818,-9.54389 -5.76413,-12.37871 -0.75596,-2.83483 1.5119,-2.26786 -0.0945,-4.9137 -1.6064,-2.64583 -3.1183,-0.66145 -3.77976,-2.55134 -0.66146,-1.88987 2.64583,-1.5119 -1.32292,-7.08705 -3.96875,-5.57515 -3.77976,-7.46503 -5.66964,-12.7567 -1.88988,-5.29166 -26.26934,-47.34151 -29.48214,-50.93229 -3.2128,-3.59077 -13.13467,-8.40997 -13.13467,-8.40997 l -5.76414,12.94569 -14.74107,13.70164 -7.08705,2.64583 c 0,0 -2.26786,11.52827 -12.09524,13.79613 -9.82739,2.26786 -21.73364,-1.32292 -27.308782,-6.14211 -5.575149,-4.8192 -17.103423,-14.55209 -16.347472,-21.35566 0.755952,-6.80357 5.57515,-19.65476 14.741071,-26.08035 z"
           style="fill:#000000;fill-opacity:1;fill-rule:evenodd;stroke:none;stroke-width:0.26458332px;stroke-linecap:butt;stroke-linejoin:miter;stroke-opacity:1" />
      </g>
      <g
         style="display:inline"
         inkscape:label="Bass Horn"
         id="layer5">
        <path
           inkscape:connector-curvature="0"
           id="path4818"
           d="m 135.03199,264.58333 c 0,0 -7.08705,-4.8192 -6.14211,-16.53646 0.94494,-11.71726 5.00818,-15.40253 4.91369,-17.57589 -0.0945,-2.17336 -3.2128,-5.76414 -5.10268,-5.95313 -1.88988,-0.18898 -13.04018,3.3073 -16.44196,19.56027 -3.40179,16.25298 -1.98438,20.50521 -1.98438,20.50521 z"
           style="fill:#c87137;fill-opacity:1;fill-rule:evenodd;stroke:none;stroke-width:0.26458332px;stroke-linecap:butt;stroke-linejoin:miter;stroke-opacity:1" />
      </g>
      <g
         style="display:inline"
         inkscape:label="Bass Fretboard"
         id="layer6">
        <path
           inkscape:connector-curvature="0"
           id="path4821"
           d="M 229.33705,4.9999997e-6 155.06473,264.58333 h 25.4189 L 243.22768,11.244791 242.94419,8.3154757 h 2.07887 L 244.83407,5.8586306 234.15625,4.9999997e-6 Z"
           style="fill:#000000;fill-opacity:1;fill-rule:evenodd;stroke:none;stroke-width:0.26458332px;stroke-linecap:butt;stroke-linejoin:miter;stroke-opacity:1" />
      </g>
      <g
         style="display:inline"
         inkscape:label="Bass Frets"
         id="layer7">
        <path
           inkscape:connector-curvature="0"
           id="path4824"
           d="m 228.10863,3.5907733 14.83556,8.3154757"
           style="fill:none;fill-rule:evenodd;stroke:#9a9a9a;stroke-width:0.58208334;stroke-linecap:round;stroke-linejoin:miter;stroke-miterlimit:4;stroke-dasharray:none;stroke-opacity:1" />
        <path
           inkscape:connector-curvature="0"
           id="path4826"
           d="m 222.53348,24.75744 15.21354,7.843005"
           style="fill:none;fill-rule:evenodd;stroke:#9a9a9a;stroke-width:0.58208334;stroke-linecap:round;stroke-linejoin:miter;stroke-miterlimit:4;stroke-dasharray:none;stroke-opacity:1" />
        <path
           inkscape:connector-curvature="0"
           id="path4828"
           d="m 216.86384,44.506694 16.34747,7.559524"
           style="fill:none;fill-rule:evenodd;stroke:#9a9a9a;stroke-width:0.58208334;stroke-linecap:round;stroke-linejoin:miter;stroke-miterlimit:4;stroke-dasharray:none;stroke-opacity:1" />
        <path
           inkscape:connector-curvature="0"
           id="path4830"
           d="m 211.85565,63.31101 16.72545,7.181548"
           style="fill:none;fill-rule:evenodd;stroke:#9a9a9a;stroke-width:0.58208334;stroke-linecap:round;stroke-linejoin:miter;stroke-miterlimit:4;stroke-dasharray:none;stroke-opacity:1" />
        <path
           inkscape:connector-curvature="0"
           id="path4832"
           d="m 206.75297,80.792409 17.85938,6.898066"
           style="fill:none;fill-rule:evenodd;stroke:#9a9a9a;stroke-width:0.58208334;stroke-linecap:round;stroke-linejoin:miter;stroke-miterlimit:4;stroke-dasharray:none;stroke-opacity:1" />
        <path
           inkscape:connector-curvature="0"
           id="path4834"
           d="m 202.31175,97.990325 17.95387,6.331105"
           style="fill:none;fill-rule:evenodd;stroke:#9a9a9a;stroke-width:0.58208334;stroke-linecap:round;stroke-linejoin:miter;stroke-miterlimit:4;stroke-dasharray:none;stroke-opacity:1" />
        <path
           inkscape:connector-curvature="0"
           id="path4836"
           d="m 197.77604,114.05431 18.89881,6.04762"
           style="fill:none;fill-rule:evenodd;stroke:#9a9a9a;stroke-width:0.58208334;stroke-linecap:round;stroke-linejoin:miter;stroke-miterlimit:4;stroke-dasharray:none;stroke-opacity:1" />
        <path
           inkscape:connector-curvature="0"
           id="path4838"
           d="m 193.33482,129.17336 19.74925,5.95312"
           style="fill:none;fill-rule:evenodd;stroke:#9a9a9a;stroke-width:0.58208334;stroke-linecap:round;stroke-linejoin:miter;stroke-miterlimit:4;stroke-dasharray:none;stroke-opacity:1" />
        <path
           inkscape:connector-curvature="0"
           id="path4840"
           d="m 189.27157,143.81994 20.22173,5.38616"
           style="fill:none;fill-rule:evenodd;stroke:#9a9a9a;stroke-width:0.58208334;stroke-linecap:round;stroke-linejoin:miter;stroke-miterlimit:4;stroke-dasharray:none;stroke-opacity:1" />
        <path
           inkscape:connector-curvature="0"
           id="path4842"
           d="m 185.58631,157.71056 20.69419,4.91369"
           style="fill:none;fill-rule:evenodd;stroke:#9a9a9a;stroke-width:0.58208334;stroke-linecap:round;stroke-linejoin:miter;stroke-miterlimit:4;stroke-dasharray:none;stroke-opacity:1" />
        <path
           inkscape:connector-curvature="0"
           id="path4844"
           d="m 181.90104,170.46726 20.88318,4.63021"
           style="fill:none;fill-rule:evenodd;stroke:#9a9a9a;stroke-width:0.58208334;stroke-linecap:round;stroke-linejoin:miter;stroke-miterlimit:4;stroke-dasharray:none;stroke-opacity:1" />
        <path
           inkscape:connector-curvature="0"
           id="path4846"
           d="m 178.31027,182.84598 21.35565,4.06324"
           style="fill:none;fill-rule:evenodd;stroke:#9a9a9a;stroke-width:0.58208334;stroke-linecap:round;stroke-linejoin:miter;stroke-miterlimit:4;stroke-dasharray:none;stroke-opacity:1" />
        <path
           inkscape:connector-curvature="0"
           id="path4848"
           d="m 175.00297,194.09077 22.39509,3.77976"
           style="fill:none;fill-rule:evenodd;stroke:#9a9a9a;stroke-width:0.58208334;stroke-linecap:round;stroke-linejoin:miter;stroke-miterlimit:4;stroke-dasharray:none;stroke-opacity:1" />
        <path
           inkscape:connector-curvature="0"
           id="path4850"
           d="m 172.16815,205.24107 22.2061,3.49628"
           style="fill:none;fill-rule:evenodd;stroke:#9a9a9a;stroke-width:0.58208334;stroke-linecap:round;stroke-linejoin:miter;stroke-miterlimit:4;stroke-dasharray:none;stroke-opacity:1" />
        <path
           inkscape:connector-curvature="0"
           id="path4852"
           d="m 169.23884,215.25744 22.86756,3.2128"
           style="fill:none;fill-rule:evenodd;stroke:#9a9a9a;stroke-width:0.58208334;stroke-linecap:round;stroke-linejoin:miter;stroke-miterlimit:4;stroke-dasharray:none;stroke-opacity:1" />
        <path
           inkscape:connector-curvature="0"
           id="path4854"
           d="m 166.593,224.89583 22.77307,2.74033"
           style="fill:none;fill-rule:evenodd;stroke:#9a9a9a;stroke-width:0.58208334;stroke-linecap:round;stroke-linejoin:miter;stroke-miterlimit:4;stroke-dasharray:none;stroke-opacity:1" />
        <path
           inkscape:connector-curvature="0"
           id="path4856"
           d="m 163.94717,233.87276 23.62351,2.64584"
           style="fill:none;fill-rule:evenodd;stroke:#9a9a9a;stroke-width:0.58208334;stroke-linecap:round;stroke-linejoin:miter;stroke-miterlimit:4;stroke-dasharray:none;stroke-opacity:1" />
        <path
           inkscape:connector-curvature="0"
           id="path4858"
           d="m 161.39583,242.28274 24.09598,2.74032"
           style="fill:none;fill-rule:evenodd;stroke:#9a9a9a;stroke-width:0.58208334;stroke-linecap:round;stroke-linejoin:miter;stroke-miterlimit:4;stroke-dasharray:none;stroke-opacity:1" />
        <path
           inkscape:connector-curvature="0"
           id="path4860"
           d="m 159.12797,250.31473 24.37947,2.07887"
           style="fill:none;fill-rule:evenodd;stroke:#9a9a9a;stroke-width:0.58208334;stroke-linecap:round;stroke-linejoin:miter;stroke-miterlimit:4;stroke-dasharray:none;stroke-opacity:1" />
      </g>
      <g
         style="display:inline"
         inkscape:label="Bass Strings"
         id="layer8">
        <path
           inkscape:connector-curvature="0"
           id="path4863"
           d="M 230.84896,4.9999997e-6 230.75446,5.1971723 160.07291,257.96875"
           style="fill:none;fill-rule:evenodd;stroke:#bebebe;stroke-width:0.5291667;stroke-linecap:round;stroke-linejoin:miter;stroke-miterlimit:4;stroke-dasharray:none;stroke-opacity:1" />
        <path
           inkscape:connector-curvature="0"
           id="path4865"
           d="M 233.49479,4.9999997e-6 233.68378,6.2366066 164.79762,257.87425"
           style="fill:none;fill-rule:evenodd;stroke:#bebebe;stroke-width:0.5291667;stroke-linecap:round;stroke-linejoin:miter;stroke-miterlimit:4;stroke-dasharray:none;stroke-opacity:1" />
        <path
           inkscape:connector-curvature="0"
           id="path4867"
           d="m 236.32961,2.5513388 -0.0945,5.1971727 -66.14584,247.9523785 v 0"
           style="fill:none;fill-rule:evenodd;stroke:#bebebe;stroke-width:0.5291667;stroke-linecap:round;stroke-linejoin:miter;stroke-miterlimit:4;stroke-dasharray:none;stroke-opacity:1" />
        <path
           inkscape:connector-curvature="0"
           id="path4869"
           d="M 238.97544,4.2522317 238.50297,9.3549101 174.43601,256.36235"
           style="fill:none;fill-rule:evenodd;stroke:#bebebe;stroke-width:0.5291667;stroke-linecap:round;stroke-linejoin:miter;stroke-miterlimit:4;stroke-dasharray:none;stroke-opacity:1" />
        <path
           inkscape:connector-curvature="0"
           id="path4871"
           d="M 241.14881,5.6696424 240.67634,10.299851 179.63318,253.52753"
           style="fill:none;fill-rule:evenodd;stroke:#bebebe;stroke-width:0.5291667;stroke-linecap:round;stroke-linejoin:miter;stroke-miterlimit:4;stroke-dasharray:none;stroke-opacity:1" />
        <path
           inkscape:connector-curvature="0"
           id="path4873"
           d="M 243.22768,7.1815472 242.66071,12.189732 182.18452,254"
           style="fill:none;fill-rule:evenodd;stroke:#bebebe;stroke-width:0.5291667;stroke-linecap:round;stroke-linejoin:miter;stroke-miterlimit:4;stroke-dasharray:none;stroke-opacity:1" />
      </g>
      <g
         inkscape:label="Hand"
         id="layer9">
        <path
           inkscape:connector-curvature="0"
           id="path4876"
           d="m 135.03199,264.58333 c 0,0 1.32292,-2.07887 3.30729,-5.00818 1.98438,-2.92932 0.66146,-4.15774 3.77977,-7.08706 3.1183,-2.92931 6.2366,-6.89806 9.16592,-6.70908 2.92931,0.18899 5.19717,1.98438 5.19717,1.98438 0,0 -4.06324,2.55134 -1.98437,2.36235 2.07887,-0.18899 7.08705,1.41741 8.50446,1.22842 1.41741,-0.18899 8.03199,-3.40178 9.16592,-3.40178 1.13393,0 3.49628,-1.70089 5.19717,-2.36235 1.7009,-0.66146 8.40998,-3.49628 8.97694,-4.06325 0.56696,-0.56696 1.03944,-2.55134 1.03944,-2.55134 0,0 2.64583,1.6064 3.68526,4.06325 1.03944,2.45684 2.07887,3.40178 0.66146,5.95312 -1.41741,2.55134 -2.74033,4.63021 -2.74033,4.63021 0,0 1.6064,0.0945 2.26786,2.36235 0.66146,2.26786 1.32292,3.68527 0.28348,6.14212 -1.03943,2.45684 -3.68527,2.45684 -3.68527,2.45684 z"
           style="fill:#e9c6af;fill-opacity:1;fill-rule:evenodd;stroke:none;stroke-width:0.26458332px;stroke-linecap:butt;stroke-linejoin:miter;stroke-opacity:1" />
      </g>
      <g
         style="display:inline"
         inkscape:label="Head"
         id="layer11">
        <path
           inkscape:connector-curvature="0"
           id="path4882"
           d="m 91.807082,92.996297 c 0,0 1.336347,-17.372521 3.207234,-22.98518 1.870887,-5.612662 6.013564,-13.630746 16.570714,-18.976136 10.55714,-5.345393 18.30796,-8.552627 27.12785,-7.082644 8.8199,1.469982 19.51068,7.082644 24.45516,13.363477 4.94449,6.280835 9.88898,10.958052 11.62623,19.109771 1.73725,8.15172 0.66817,17.238885 1.06908,20.312483 0.4009,3.073601 0.93544,6.548102 -0.26727,9.755342 -1.20271,3.20723 -1.73725,2.93996 -2.13816,5.34539 -0.4009,2.40542 0.53454,4.40994 -0.4009,8.95353 -0.93545,4.54358 -8.01809,27.39512 -11.22532,33.80959 -3.20724,6.41447 -9.75534,23.78699 -21.5152,21.9161 -11.75986,-1.87088 -22.85155,-9.08716 -31.27053,-20.98066 -8.41899,-11.89349 -11.091689,-18.57523 -13.898018,-32.07234 -2.806333,-13.49711 -3.34087,-30.468723 -3.34087,-30.468723 z"
           style="fill:#e9c6af;fill-opacity:1;fill-rule:evenodd;stroke:none;stroke-width:0.26458332px;stroke-linecap:butt;stroke-linejoin:miter;stroke-opacity:1" />
      </g>
      <g
         style="display:inline"
         inkscape:label="Goatee"
         id="layer12">
        <path
           inkscape:connector-curvature="0"
           id="path4885"
           d="m 149.80457,130.01312 c 0,0 5.61266,0.66818 8.28535,4.67722 2.6727,4.00904 6.1472,10.02261 5.07812,19.64431 -1.06907,9.6217 0,10.42351 -4.54358,17.90706 -4.54358,7.48355 -14.29892,16.97161 -17.23888,16.97161 -2.93997,0 -16.43708,-9.48806 -20.84702,-17.63979 -4.40995,-8.15172 -5.34539,-16.43707 -2.80633,-22.7179 2.53906,-6.28084 6.68173,-14.56619 15.90253,-16.57071 9.2208,-2.00452 11.62623,-3.0736 16.16981,-2.2718 z"
           style="fill:url(#linearGradient4230);fill-opacity:1;fill-rule:evenodd;stroke:none;stroke-width:0.26458332px;stroke-linecap:butt;stroke-linejoin:miter;stroke-opacity:1" />
      </g>
      <g
         style="display:inline"
         inkscape:label="Minus Goatee"
         id="layer13">
        <path
           inkscape:connector-curvature="0"
           id="path4888"
           d="m 148.06732,139.36756 c 0,0 6.81537,0.66817 7.61718,2.27179 0.80181,1.60361 1.46998,10.02261 -0.26727,11.35895 -1.73725,1.33635 -3.60814,0.13364 -2.93997,-2.67269 0.66818,-2.80633 2.53907,-5.21176 0.26727,-5.07812 -2.27179,0.13363 -2.00452,2.67269 -6.81537,1.60361 -4.81085,-1.06907 -8.01809,-4.27631 -8.01809,-2.67269 0,1.60362 2.53906,9.88897 -1.06907,9.6217 -3.60814,-0.26727 -13.09621,-4.94448 -9.08717,-8.01808 4.00905,-3.0736 6.81538,-6.01357 11.22532,-6.68174 4.40995,-0.66818 6.01357,0 9.08717,0.26727 z"
           style="fill:#e9c6af;fill-opacity:1;fill-rule:evenodd;stroke:none;stroke-width:0.26458332px;stroke-linecap:butt;stroke-linejoin:miter;stroke-opacity:1" />
      </g>
      <g
         style="display:inline"
         inkscape:label="Hair"
         id="layer15">
        <path
           inkscape:connector-curvature="0"
           id="path4894"
           d="m 105.83873,55.511744 c 0,0 2.60588,2.672697 1.67044,4.610399 -0.93545,1.937705 -5.34539,6.548104 -3.87541,16.169807 1.46998,9.621702 1.9377,8.352173 1.40316,15.03391 -0.53453,6.68174 -4.94448,15.70208 -3.20723,20.98066 1.73725,5.27857 5.61266,7.55036 6.08038,12.42803 0.46772,4.87767 -1.1359,10.02261 -0.53454,11.69304 0.60136,1.67044 0.80181,3.00679 0.80181,3.00679 0,0 -11.626224,-9.42126 -12.227582,-16.70435 -0.601355,-7.28309 -0.400902,-14.56619 0.801809,-18.77568 1.202714,-4.209498 3.407693,-7.149464 0.868627,-10.623967 -2.53906,-3.474505 -6.214017,-2.672696 -6.214017,-2.672696 0,0 0.400905,-9.888971 2.405425,-17.105249 2.004523,-7.216277 2.138156,-9.955789 4.009043,-11.960312 1.870888,-2.004521 6.748555,-6.614919 8.018085,-6.080382 z"
           style="fill:#999999;fill-opacity:1;fill-rule:evenodd;stroke:none;stroke-width:0.26458332px;stroke-linecap:butt;stroke-linejoin:miter;stroke-opacity:1" />
        <path
           inkscape:connector-curvature="0"
           id="path4896"
           d="m 114.52499,96.537617 c 0,0 9.28762,-5.144939 13.02939,-4.142679 3.74177,1.00226 9.35443,4.209495 11.96031,5.011304 2.60588,0.801809 6.08038,1.403165 6.08038,1.403165 0,0 -2.27179,1.737253 -6.01356,0.601358 -3.74177,-1.135896 -9.2208,-4.944488 -12.89575,-4.810853 -3.67496,0.133636 -10.08943,2.405425 -12.16077,1.937705 z"
           style="fill:#999999;fill-opacity:1;fill-rule:evenodd;stroke:none;stroke-width:0.26458332px;stroke-linecap:butt;stroke-linejoin:miter;stroke-opacity:1" />
        <path
           inkscape:connector-curvature="0"
           id="path4898"
           d="m 156.61994,101.61574 c 0,0 3.00678,0.60135 4.74404,0.13363 1.73725,-0.46772 4.20949,-2.405423 7.75081,-1.06908 3.54132,1.33635 5.41221,1.20272 6.21402,1.67044 0.80181,0.46772 1.13589,1.80407 -0.0668,2.07134 -1.20271,0.26727 -5.87993,-1.40317 -9.02035,-1.67044 -3.14041,-0.26727 -4.34313,0.66818 -6.14719,0.33409 -1.80407,-0.33409 -3.54133,-0.66817 -3.47451,-1.46998 z"
           style="fill:#999999;fill-opacity:1;fill-rule:evenodd;stroke:none;stroke-width:0.26458332px;stroke-linecap:butt;stroke-linejoin:miter;stroke-opacity:1" />
      </g>
      <g
         style="display:inline"
         inkscape:label="Ear"
         id="layer16">
        <path
           sodipodi:nodetypes="csssssc"
           inkscape:connector-curvature="0"
           id="path4910"
           d="m 94.305058,92.604166 c 0,0 -3.543525,-5.149927 -5.575149,-6.189361 -2.031622,-1.039434 -3.590774,1.559152 -3.449032,3.496281 0.14174,1.937128 -0.141742,15.166294 0.992188,19.182294 1.133927,4.01599 1.039434,8.97693 3.590774,11.00855 2.55134,2.03162 4.724701,3.87426 5.338913,-1.37016 0.614212,-5.24442 -0.897694,-18.14286 -0.897694,-26.127604 z"
           style="fill:#e9c6af;fill-opacity:1;fill-rule:evenodd;stroke:none;stroke-width:0.26458332px;stroke-linecap:butt;stroke-linejoin:miter;stroke-opacity:1" />
      </g>
      <g
         style="display:inline"
         inkscape:label="Face Lines"
         id="layer14">
        <path
           inkscape:connector-curvature="0"
           id="path4891"
           d="m 133.03341,140.87095 c 0,0 2.77292,-0.30068 4.34313,-0.70158 1.57021,-0.40091 2.93996,-0.10023 4.10926,0.20045 1.16931,0.30068 1.77067,-0.16704 2.70611,0.20045 0.93544,0.3675 1.60361,0.73499 2.60588,0.7684 1.00226,0.0334 4.10926,-0.26727 4.94448,-0.0668 0.83522,0.20045 1.87089,0.66818 2.53906,0.66818 0.66818,0 1.36976,2.20497 1.5368,2.87314 0.16705,0.66818 -0.73499,-1.73725 -1.67043,-2.17156 -0.93544,-0.43431 -1.9377,-0.86863 -2.93997,-0.86863 -1.00226,0 -3.20723,0.53454 -4.71062,0.23386 -1.50339,-0.30067 -2.07134,-0.8018 -3.60814,-0.96885 -1.5368,-0.16704 -1.80407,-0.50113 -3.4745,-0.66817 -1.67044,-0.16704 -2.17157,0.26727 -3.37428,0.46772 -1.20271,0.20045 -3.40769,0.26727 -3.00678,0.0334 z"
           style="fill:#6c3d1e;fill-opacity:1;fill-rule:evenodd;stroke:none;stroke-width:0.26458332px;stroke-linecap:butt;stroke-linejoin:miter;stroke-opacity:1" />
        <path
           inkscape:connector-curvature="0"
           id="path4900"
           d="m 148.46822,92.461756 c 0,0 1.1359,3.140416 0.26727,4.677217 -0.86862,1.5368 -5.14494,2.472243 -5.14494,2.472243 0,0 3.00678,-1.202714 4.00904,-2.539061 1.00227,-1.336347 1.26954,-1.937702 0.86863,-4.610399 z"
           style="fill:#6c3d1e;fill-opacity:1;fill-rule:evenodd;stroke:none;stroke-width:0.26458332px;stroke-linecap:butt;stroke-linejoin:miter;stroke-opacity:1" />
        <path
           sodipodi:nodetypes="cscsc"
           inkscape:connector-curvature="0"
           id="path4902"
           d="m 155.41723,94.065375 c 0,0 -1.80407,5.679477 -0.4009,7.884455 1.40316,2.20497 6.81537,0 6.81537,0 0,0 -5.47903,1.20271 -6.28083,-1.06908 -0.80181,-2.271796 -0.13364,-2.605881 -0.13364,-6.815375 z"
           style="fill:#6c3d1e;fill-opacity:1;fill-rule:evenodd;stroke:none;stroke-width:0.26458332px;stroke-linecap:butt;stroke-linejoin:miter;stroke-opacity:1" />
        <path
           inkscape:connector-curvature="0"
           id="path4904"
           d="m 134.43657,126.13772 c 0,0 4.81085,-7.41673 7.14946,-7.21628 2.33861,0.20045 2.60588,1.67043 0.13364,1.33635 -2.47225,-0.33409 -2.73952,2.40542 -2.53906,3.94222 0.20045,1.5368 1.20271,5.01131 2.87314,4.34313 1.67044,-0.66817 1.46999,-0.80181 1.46999,-0.80181 0,0 -1.67044,2.40543 -4.07587,0.60136 -2.40542,-1.80407 -0.66817,-6.68174 -0.66817,-6.68174 0,0 -2.6727,2.00452 -4.34313,4.47677 z"
           style="fill:#6c3d1e;fill-opacity:1;fill-rule:evenodd;stroke:none;stroke-width:0.26458332px;stroke-linecap:butt;stroke-linejoin:miter;stroke-opacity:1" />
        <path
           inkscape:connector-curvature="0"
           id="path4906"
           d="m 153.54634,128.54314 c 0,0 -1.00226,0.13364 -3.60814,-1.40316 -2.60587,-1.5368 -5.4122,-0.66818 -6.5481,0.33408 -1.1359,1.00227 -1.20271,1.1359 -1.20271,1.1359 0,0 1.80407,-0.86863 4.6104,-0.46772 2.80633,0.4009 3.94222,1.80407 6.74855,0.4009 z"
           style="fill:#6c3d1e;fill-opacity:1;fill-rule:evenodd;stroke:none;stroke-width:0.26458332px;stroke-linecap:butt;stroke-linejoin:miter;stroke-opacity:1" />
        <path
           inkscape:connector-curvature="0"
           id="path4908"
           d="m 155.41723,129.01086 1.67043,-1.20271 c 0,0 1.1359,1.33635 0.60136,1.60362 -0.53454,0.26727 -2.27179,-0.40091 -2.27179,-0.40091 z"
           style="fill:#6c3d1e;fill-opacity:1;fill-rule:evenodd;stroke:none;stroke-width:0.26458332px;stroke-linecap:butt;stroke-linejoin:miter;stroke-opacity:1" />
        <path
           inkscape:connector-curvature="0"
           id="path4212"
           d="m 94.021575,96.242186 c 0,0 -6.850816,-7.134301 -7.74851,-7.276041 -0.897694,-0.14174 -0.188989,3.401785 -0.188989,3.401785 0,0 -0.377976,-1.748139 0.377975,-1.464657 0.755955,0.283483 5.149927,4.960937 7.559524,5.338913 z"
           style="fill:#6c3d1e;fill-opacity:1;fill-rule:evenodd;stroke:none;stroke-width:0.26458332px;stroke-linecap:butt;stroke-linejoin:miter;stroke-opacity:1" />
        <path
           inkscape:connector-curvature="0"
           id="path4222"
           d="m 157.42175,118.72099 c 0,0 1.73725,3.0736 1.60362,4.94448 -0.13364,1.87089 -1.46999,3.40769 -1.46999,3.40769 0,0 1.02925,-1.53782 1.24186,-3.07335 0.21262,-1.53553 -1.37549,-5.27882 -1.37549,-5.27882 z"
           style="fill:#6c3d1e;fill-opacity:1;fill-rule:evenodd;stroke:none;stroke-width:0.26458332px;stroke-linecap:butt;stroke-linejoin:miter;stroke-opacity:1" />
      </g>
      <g
         inkscape:label="Lenses"
         id="layer18">
        <path
           sodipodi:nodetypes="cssssscc"
           inkscape:connector-curvature="0"
           id="path4218"
           d="m 121.85007,100.44717 c 0,0 4.15774,-3.118303 12.56771,-1.653644 8.40997,1.464654 12.14249,3.307284 12.56771,4.913684 0.42523,1.6064 -0.8032,7.13431 -2.22061,8.74071 -1.41741,1.60639 -4.58296,3.26004 -11.81176,1.79538 -7.22879,-1.46466 -10.86681,-4.15774 -11.0558,-6.56733 -0.18899,-2.4096 -0.28348,-5.85863 -0.0472,-7.2288 z"
           style="fill:#8e1a1a;fill-opacity:1;fill-rule:evenodd;stroke:none;stroke-width:0.26458332px;stroke-linecap:butt;stroke-linejoin:miter;stroke-opacity:1" />
        <path
           inkscape:connector-curvature="0"
           id="path4220"
           d="m 158.32478,106.58928 2.36235,-2.50409 8.59895,-0.33073 9.87463,2.59859 0.42523,3.35454 c 0,0 -1.6064,6.99256 -4.15774,8.03199 -2.55134,1.03944 -5.00819,0.8977 -8.64621,0.8032 -3.63802,-0.0945 -8.92969,-1.46466 -9.49665,-4.39397 -0.56696,-2.92932 -0.75595,-5.5279 1.03944,-7.55953 z"
           style="fill:#8e1a1a;fill-opacity:1;fill-rule:evenodd;stroke:none;stroke-width:0.26458332px;stroke-linecap:butt;stroke-linejoin:miter;stroke-opacity:1" />
      </g>
      <g
         inkscape:label="Sunglasses"
         id="layer17">
        <path
           inkscape:connector-curvature="0"
           id="path4215"
           d="m 91.753718,89.060638 c 0,0 -0.14174,-0.661458 0.944941,-0.330729 1.086683,0.330729 24.379461,10.914062 25.655131,11.197545 1.27567,0.283486 2.12612,0.708706 2.12612,0.708706 0,0 1.03943,-1.370165 2.4096,-1.74814 1.37016,-0.377976 9.11867,-1.6064 14.74107,-0.283483 5.62239,1.322917 8.69345,2.598583 9.26041,3.449033 0.56697,0.85045 1.18118,2.69308 1.18118,2.69308 0,0 2.45685,-0.0945 4.29948,0.14174 1.84263,0.23624 4.8192,1.27567 4.8192,1.27567 0,0 1.84263,-1.88988 3.1183,-2.4096 1.27567,-0.51971 5.57515,-1.27567 10.67783,-0.18899 5.10267,1.08669 7.51227,1.74814 8.88244,2.64584 1.37016,0.89769 1.55915,1.70089 1.55915,1.70089 0,0 1.13393,0.14174 1.32292,0.42523 0.18898,0.28348 0.18898,1.5119 -0.0945,1.84263 -0.28348,0.33073 -2.4096,-0.0472 -2.4096,-0.0472 0,0 -0.94494,2.78757 -1.22842,3.30729 -0.28348,0.51972 -0.61421,-0.42522 -0.61421,-0.42522 0,0 1.13393,-3.44903 0.8032,-4.63021 -0.33073,-1.18117 -1.93713,-3.02381 -8.50447,-3.87425 -6.56733,-0.85045 -9.26041,-0.61422 -10.72507,0.61421 -1.46466,1.22842 -2.4096,2.40959 -2.83482,4.81919 -0.42522,2.4096 -0.8032,3.44904 -1.03944,3.30729 -0.23623,-0.14174 -0.18898,-3.21279 0.0472,-4.20498 0.23624,-0.99219 0.51972,-1.79539 0.51972,-1.79539 0,0 -1.13393,-1.08668 -3.59077,-1.37016 -2.45685,-0.28348 -5.38616,0.0473 -5.38616,0.0473 0,0 -0.14175,1.88988 -0.70871,3.21279 -0.56696,1.32292 -1.18118,1.51191 -1.13393,0.85045 0.0472,-0.66146 1.55915,-3.77976 0.70871,-5.48065 -0.85045,-1.7009 -2.12612,-3.77977 -9.40216,-4.913695 -7.27604,-1.133928 -11.19755,-0.850445 -13.4654,0.283482 -2.26786,1.133923 -1.55916,5.622393 -1.55916,5.622393 0,0 -0.89769,-0.42522 -0.94494,-1.32291 -0.0472,-0.8977 0,-1.84264 0,-1.84264 0,0 -0.47247,0.14174 -2.64583,-0.61421 -2.17336,-0.75595 -26.269344,-11.622768 -26.269344,-11.622768 z"
           style="fill:#000000;fill-opacity:1;fill-rule:evenodd;stroke:none;stroke-width:0.26458332px;stroke-linecap:butt;stroke-linejoin:miter;stroke-opacity:1" />
      </g>
    </g>
  </g>
</svg>
