<?xml version="1.0" encoding="UTF-8" standalone="no"?>
<!-- Created with Inkscape (http://www.inkscape.org/) -->

<svg
   xmlns:dc="http://purl.org/dc/elements/1.1/"
   xmlns:cc="http://creativecommons.org/ns#"
   xmlns:rdf="http://www.w3.org/1999/02/22-rdf-syntax-ns#"
   xmlns:svg="http://www.w3.org/2000/svg"
   xmlns="http://www.w3.org/2000/svg"
   xmlns:sodipodi="http://sodipodi.sourceforge.net/DTD/sodipodi-0.dtd"
   xmlns:inkscape="http://www.inkscape.org/namespaces/inkscape"
   width="1280"
   height="720"
   viewBox="0 0 338.66666 190.50001"
   id="svg2"
   version="1.1"
   inkscape:version="0.91+devel r13925"
   sodipodi:docname="steve-vai-interview-video-thumbnail.svg"
   inkscape:export-filename="/Users/agarone/Documents/git/art/steve-vai/interview/steve-vai-interview-video-thumbnail-1920x1080.png"
   inkscape:export-xdpi="144"
   inkscape:export-ydpi="144">
  <defs
     id="defs4" />
  <sodipodi:namedview
     id="base"
     pagecolor="#ffffff"
     bordercolor="#666666"
     borderopacity="1.0"
     inkscape:pageopacity="0.0"
     inkscape:pageshadow="2"
     inkscape:zoom="0.98994949"
     inkscape:cx="656.19989"
     inkscape:cy="398.37559"
     inkscape:document-units="px"
     inkscape:current-layer="layer1"
     showgrid="false"
     units="px"
     inkscape:window-width="1920"
     inkscape:window-height="1151"
     inkscape:window-x="0"
     inkscape:window-y="0"
     inkscape:window-maximized="1" />
  <metadata
     id="metadata7">
    <rdf:RDF>
      <cc:Work
         rdf:about="">
        <dc:format>image/svg+xml</dc:format>
        <dc:type
           rdf:resource="http://purl.org/dc/dcmitype/StillImage" />
        <dc:title></dc:title>
      </cc:Work>
    </rdf:RDF>
  </metadata>
  <g
     inkscape:label="Gray BG"
     inkscape:groupmode="layer"
     id="layer1"
     transform="translate(0,-106.49999)">
    <rect
       style="opacity:1;fill:#6d757b;fill-opacity:1;stroke:none;stroke-width:16.0535984;stroke-miterlimit:4;stroke-dasharray:none;stroke-opacity:1"
       id="rect4141"
       width="338.66669"
       height="190.5"
       x="1.4210855e-14"
       y="106.49999" />
  </g>
  <g
     inkscape:groupmode="layer"
     id="layer2"
     inkscape:label="Orange Banner">
    <rect
       style="opacity:1;fill:#de3d2d;fill-opacity:1;stroke:none;stroke-width:11.03082752;stroke-miterlimit:4;stroke-dasharray:none;stroke-opacity:1"
       id="rect4144"
       width="338.66669"
       height="43.65625"
       x="0"
       y="146.84375" />
  </g>
  <g
     inkscape:label="Blue Banner"
     id="g4203"
     inkscape:groupmode="layer">
    <rect
       y="146.84375"
       x="0"
       height="43.65625"
       width="338.66669"
       id="rect4205"
       style="opacity:1;fill:#407d93;fill-opacity:1;stroke:none;stroke-width:11.03082752;stroke-miterlimit:4;stroke-dasharray:none;stroke-opacity:1" />
  </g>
  <g
     inkscape:groupmode="layer"
     id="layer3"
     inkscape:label="Discover"
     style="display:none">
    <text
       xml:space="preserve"
       style="font-style:normal;font-variant:normal;font-weight:normal;font-stretch:normal;font-size:20.26743698px;line-height:125%;font-family:Museo;-inkscape-font-specification:'Museo, Normal';text-align:start;letter-spacing:0px;word-spacing:0px;writing-mode:lr-tb;text-anchor:start;fill:#ffffff;fill-opacity:1;stroke:none;stroke-width:0.50668812px;stroke-linecap:butt;stroke-linejoin:miter;stroke-opacity:1"
       x="173.85484"
       y="40.767208"
       id="text4147"
       sodipodi:linespacing="125%"><tspan
         sodipodi:role="line"
         id="tspan4164"
         x="173.85484"
         y="40.767208">DISCOVER:</tspan></text>
  </g>
  <g
     inkscape:label="Interview"
     id="g4209"
     inkscape:groupmode="layer">
    <text
       sodipodi:linespacing="125%"
       id="text4211"
       y="40.767208"
       x="173.85484"
       style="font-style:normal;font-variant:normal;font-weight:normal;font-stretch:normal;font-size:20.26743698px;line-height:125%;font-family:Museo;-inkscape-font-specification:'Museo, Normal';text-align:start;letter-spacing:0px;word-spacing:0px;writing-mode:lr-tb;text-anchor:start;fill:#ffffff;fill-opacity:1;stroke:none;stroke-width:0.50668812px;stroke-linecap:butt;stroke-linejoin:miter;stroke-opacity:1"
       xml:space="preserve"><tspan
         id="tspan4213"
         sodipodi:role="line"
         x="173.85484"
         y="40.767208">INTERVIEW:</tspan></text>
  </g>
  <g
     inkscape:groupmode="layer"
     id="layer4"
     inkscape:label="Artist Name">
    <text
       xml:space="preserve"
       style="font-style:normal;font-variant:normal;font-weight:600;font-stretch:normal;font-size:40.92222214px;line-height:100%;font-family:Museo;-inkscape-font-specification:'Museo, Semi-Bold';text-align:start;letter-spacing:0px;word-spacing:0px;writing-mode:lr-tb;text-anchor:start;fill:#ffffff;fill-opacity:1;stroke:none;stroke-width:1.02304661px;stroke-linecap:butt;stroke-linejoin:miter;stroke-opacity:1"
       x="174.17487"
       y="75.506424"
       id="text4158"
       sodipodi:linespacing="100%"><tspan
         sodipodi:role="line"
         x="174.17487"
         y="75.506424"
         style="font-style:normal;font-variant:normal;font-weight:600;font-stretch:normal;font-size:40.92222214px;line-height:100%;font-family:Museo;-inkscape-font-specification:'Museo, Semi-Bold';text-align:start;writing-mode:lr-tb;text-anchor:start;fill:#ffffff;fill-opacity:1;stroke-width:1.02304661px"
         id="tspan4162">Steve</tspan><tspan
         sodipodi:role="line"
         x="174.17487"
         y="116.42865"
         style="font-style:normal;font-variant:normal;font-weight:600;font-stretch:normal;font-size:40.92222214px;line-height:100%;font-family:Museo;-inkscape-font-specification:'Museo, Semi-Bold';text-align:start;writing-mode:lr-tb;text-anchor:start;fill:#ffffff;fill-opacity:1;stroke-width:1.02304661px"
         id="tspan4730">Vai</tspan></text>
    <g
       id="g4904"
       transform="matrix(0.5642003,0,0,0.5642003,-6.3902269,-2.4342418)">
      <g
         style="display:none"
         transform="translate(0,-32.41665)"
         id="layer1-9"
         inkscape:label="BG">
        <rect
           inkscape:export-ydpi="96"
           inkscape:export-xdpi="96"
           y="32.416653"
           x="0"
           height="264.58334"
           width="264.58334"
           id="rect5606"
           style="opacity:1;fill:#ffffff;fill-opacity:1;stroke:none;stroke-width:11.60810661;stroke-miterlimit:4;stroke-dasharray:none;stroke-opacity:1" />
      </g>
      <g
         style="display:inline"
         inkscape:label="body"
         id="layer3-4">
        <path
           sodipodi:nodetypes="cssssssssssccc"
           inkscape:connector-curvature="0"
           id="path4809"
           d="m 34.77381,264.58333 c 0,0 1.234858,-11.75986 1.234858,-15.23436 0,-3.47451 0.77888,-22.92033 0.77888,-25.05849 0,-2.13815 0.958371,-9.65969 0.958371,-11.53057 0,-1.87089 3.91733,-11.11068 3.91733,-13.1152 0,-2.00452 4.975283,-20.32036 12.592465,-23.9285 7.617182,-3.60814 66.951016,-41.42677 76.305446,-42.09495 9.35444,-0.66817 51.98393,-1.06908 58.7993,-0.13363 6.81537,0.93544 19.64431,5.87993 26.05878,7.08264 6.41446,1.20271 25.80331,9.02231 29.41145,13.03135 3.60814,4.00905 11.66814,22.59934 11.5345,27.94473 -0.13363,5.34539 8.21814,32.05987 8.21814,32.05987 l -10e-6,50.97711 z"
           style="fill:#2c2d38;fill-opacity:1;fill-rule:evenodd;stroke:none;stroke-width:0.26458332px;stroke-linecap:butt;stroke-linejoin:miter;stroke-opacity:1" />
      </g>
      <g
         style="display:inline"
         inkscape:label="Shirt"
         id="layer18">
        <path
           sodipodi:nodetypes="csscccc"
           inkscape:connector-curvature="0"
           id="path4889"
           d="m 163.18451,138.30293 c 0,0 -17.47469,25.36076 -27.86904,26.49469 -10.39434,1.13393 -27.40327,-5.29167 -31.37202,-8.12649 -3.96875,-2.83482 -14.741069,-0.18899 -14.741069,-0.18899 l -4.913691,108.10119 96.7619,0 z"
           style="display:inline;fill:#000000;fill-opacity:1;fill-rule:evenodd;stroke:none;stroke-width:0.26458332px;stroke-linecap:butt;stroke-linejoin:miter;stroke-opacity:1" />
      </g>
      <g
         style="display:inline"
         inkscape:label="Lapels"
         id="layer17">
        <path
           inkscape:connector-curvature="0"
           id="path4887"
           d="m 62.273798,183.86793 c 2.405428,-4.27631 7.483547,-9.08716 12.561668,-17.37251 5.078121,-8.28536 7.483546,-19.51068 12.294399,-26.72696 4.810853,-7.21628 13.630745,-28.59784 26.726955,-29.93418 13.0962,-1.33635 45.97035,-3.20724 48.64305,-0.53454 2.6727,2.67269 33.40869,41.1595 36.34866,42.76312 2.93996,1.60362 6.48703,3.85232 6.48703,4.79726 0,0.94494 -7.27604,4.91369 -10.48884,5.29166 -3.21279,0.37798 -7.843,3.11831 -7.843,3.11831 0,0 6.89806,1.13393 8.50446,1.13393 1.6064,0 6.70908,0.85044 7.84301,0.66145 1.13393,-0.18898 2.45684,-1.6064 2.92931,-1.03943 0.47247,0.56696 2.45685,48.28646 -1.03943,64.53943 -3.49628,16.25298 -6.80357,26.55283 -8.31548,29.29316 -1.5119,2.74033 -1.5119,4.7247 -1.5119,4.7247 l -20.97768,0 c 0,0 -6.23661,-44.5067 -6.04762,-56.50744 0.18899,-12.00074 -2.64583,-49.42039 -3.49628,-54.99553 -0.85045,-5.57515 -7.18155,-28.91518 -9.92187,-29.76563 -2.74033,-0.85045 -48.56994,18.04836 -52.06622,22.77307 -3.496282,4.7247 -8.31548,17.76488 -8.31548,21.35565 0,3.59077 -1.417409,41.57738 -2.36235,47.90848 -0.944941,6.3311 -1.984375,49.2314 -1.984375,49.2314 l -19.938243,0 c 0,0 -8.315479,-39.97098 -8.504465,-49.04241 -0.188989,-9.07143 -0.472472,-13.22917 -0.850448,-15.49702 -0.377976,-2.26786 -2.551337,-6.04762 -2.173361,-6.70908 0.377975,-0.66146 8.031993,-3.02381 9.827379,-4.06325 1.795388,-1.03943 5.008186,-2.83482 5.008186,-2.83482 0,0 -3.023811,0.56697 -6.047621,0.85045 -3.023809,0.28348 -5.381714,-2.20832 -5.289444,-3.41927 z"
           style="fill:#1d1e24;fill-opacity:1;fill-rule:evenodd;stroke:none;stroke-width:0.26458332px;stroke-linecap:butt;stroke-linejoin:miter;stroke-opacity:1" />
      </g>
      <g
         style="display:inline"
         inkscape:label="Neck"
         id="layer4-0">
        <path
           sodipodi:nodetypes="cssscscscscc"
           inkscape:connector-curvature="0"
           id="path4812"
           d="m 141.41899,97.072156 c 0,0 3.17382,4.610394 3.57473,6.748554 0.4009,2.13816 1.60361,9.88897 2.27179,12.42803 0.66817,2.53907 3.20723,5.87993 3.60814,9.88898 0.4009,4.00904 0.4009,29.39964 0.4009,29.39964 0,0 -12.16076,8.95353 -18.30796,9.2208 -6.1472,0.26727 -25.92515,-6.1472 -25.92515,-6.1472 0,0 -2.40542,-3.87541 -2.67269,-5.87993 -0.26727,-2.00452 -0.53454,-5.21175 -0.53454,-5.21175 0,0 1.06908,-2.00452 1.06908,-3.47451 0,-1.46998 -1.73725,-7.34991 -1.73725,-7.34991 z"
           style="fill:#d6a483;fill-opacity:1;fill-rule:evenodd;stroke:none;stroke-width:0.26458332px;stroke-linecap:butt;stroke-linejoin:miter;stroke-opacity:1" />
      </g>
      <g
         style="display:inline"
         inkscape:label="Neck Shadow"
         id="layer7-9">
        <path
           sodipodi:nodetypes="cssscsccscccc"
           inkscape:connector-curvature="0"
           id="path4821"
           d="m 141.74107,98.935266 c 0,0 2.62388,13.302694 -2.00632,20.956714 -4.63021,7.65402 -19.29398,20.42971 -21.75082,21.75262 -2.45685,1.32292 2.30699,5.67162 4.00788,5.9551 1.7009,0.28348 3.77977,-1.6064 3.77977,-1.6064 0,0 -2.26786,4.53572 -7.37054,2.36235 -5.10268,-2.17336 -13.79614,5.76414 -13.79614,5.76414 0,0 -0.63469,-3.27121 -0.70263,-6.65911 0.86245,-1.75756 0.90893,-3.17952 0.84438,-4.01872 -0.0598,-0.77809 -0.3157,-2.44032 -0.66755,-3.21747 13.96278,-1.48947 26.75464,-9.04501 33.5604,-22.76266 3.68526,-8.40998 4.10157,-18.526574 4.10157,-18.526574 z"
           style="fill:#000000;fill-opacity:0.4017857;fill-rule:evenodd;stroke:none;stroke-width:0.26458332px;stroke-linecap:butt;stroke-linejoin:miter;stroke-opacity:1" />
      </g>
      <g
         style="display:inline"
         inkscape:label="Head"
         id="layer5">
        <path
           inkscape:connector-curvature="0"
           id="path4815"
           d="m 141.92012,98.47532 c 0,0 0,14.29892 -0.66818,16.57071 -0.66817,2.27179 -12.56166,18.04069 -20.31248,21.11429 -7.75082,3.0736 -17.10525,5.61266 -18.97614,4.40995 -1.87088,-1.20271 -3.407683,-2.27179 -4.810848,-4.94448 -1.403165,-2.6727 -8.418989,-9.62171 -10.089425,-12.82894 -1.670434,-3.20724 -2.873147,-7.01583 -3.608139,-8.61945 -0.734991,-1.60361 -7.683997,-9.35443 -7.817633,-11.96031 -0.133635,-2.605874 0.467723,-4.409944 0.200454,-6.080377 -0.267272,-1.670436 -3.207237,-7.082642 -2.739514,-9.421252 0.467722,-2.338607 -3.875408,-13.563928 -2.605879,-18.040693 1.269532,-4.476764 0.601358,-15.234362 13.831199,-19.777943 13.229842,-4.543584 31.136895,-6.214017 35.413215,-4.87767 4.27631,1.336346 28.33057,24.054257 29.19919,26.660136 0.86863,2.605876 2.73952,15.702084 1.87089,19.577491 -0.86863,3.875408 -3.80859,10.156238 -5.67948,9.888978 -1.87089,-0.267275 -3.20723,-1.67044 -3.20723,-1.67044 z"
           style="fill:#deaa87;fill-opacity:1;fill-rule:evenodd;stroke:none;stroke-width:0.26458332px;stroke-linecap:butt;stroke-linejoin:miter;stroke-opacity:1" />
      </g>
      <g
         inkscape:label="Scarf"
         id="layer19">
        <path
           sodipodi:nodetypes="csssccssssc"
           inkscape:connector-curvature="0"
           id="path4908"
           d="m 148.0005,118.52053 c 0,0 2.14808,13.14031 2.60861,24.12937 0.29493,7.03749 -2.33311,12.32559 -2.54179,15.56016 -0.53454,8.28536 0.13363,56.79477 2.27179,64.54559 2.13815,7.75082 8.55262,41.82768 8.55262,41.82768 l 15.7689,0 c 0,0 -3.8754,-29.53328 -3.8754,-33.14142 0,-3.60814 -1.20272,-27.6624 -1.87089,-29.13238 -0.66817,-1.46998 -4.14268,-32.33961 -4.14268,-36.34865 0,-4.00905 -2.40542,-29.39965 -4.27631,-34.74504 -1.87089,-5.34539 -3.27405,-14.03165 -12.49485,-12.69531 z"
           style="fill:#083d44;fill-opacity:1;fill-rule:evenodd;stroke:none;stroke-width:0.26458332px;stroke-linecap:butt;stroke-linejoin:miter;stroke-opacity:1" />
        <path
           inkscape:connector-curvature="0"
           id="path4910"
           d="m 109.5805,264.58333 -19.911574,0 c 0,0 -5.412208,-40.82542 -5.412208,-44.90128 0,-4.07586 0.267268,-38.48681 3.340869,-44.63401 3.073599,-6.1472 6.214015,-22.18337 9.488067,-24.72243 3.274056,-2.53906 5.813116,-6.74856 6.681736,-6.74856 0.86863,0 1.20272,-0.13363 1.20272,-0.13363 0,0 -0.0668,2.47224 -0.46772,3.94222 -0.40091,1.46999 1.67043,9.62171 2.67269,11.29214 1.00226,1.67044 4.00904,6.61492 3.20723,24.78925 -0.80181,18.17433 -0.80181,38.68726 -1.60361,47.3067 -0.80181,8.61945 -0.93545,21.84929 -0.33409,26.1256 0.60136,4.27631 1.13589,7.684 1.13589,7.684 z"
           style="fill:#083d44;fill-opacity:1;fill-rule:evenodd;stroke:none;stroke-width:0.26458332px;stroke-linecap:butt;stroke-linejoin:miter;stroke-opacity:1" />
      </g>
      <g
         style="display:inline"
         inkscape:label="Jaw Shadow"
         id="layer8-8">
        <path
           sodipodi:nodetypes="cssssssccscscsscscsscsssssssssccc"
           inkscape:connector-curvature="0"
           id="path4824"
           d="m 141.78648,99.277129 c 0,0 1.5368,12.093941 -3.87541,19.777941 -5.4122,7.684 -12.42803,14.29892 -15.63526,15.50164 -3.20724,1.20271 -8.55263,2.73951 -12.22758,3.54132 -3.67496,0.80181 -4.47677,2.33861 -6.61492,1.9377 -2.13816,-0.4009 -5.078124,-2.20497 -6.21402,-5.74629 -1.135896,-3.54133 -7.182869,-10.45692 -7.249687,-11.62623 -0.06682,-1.1693 1.469983,-0.43431 1.469983,-0.43431 0,0 -0.935442,-1.93771 -1.737251,-2.43883 -0.80181,-0.50114 -0.701583,-0.20046 -0.935445,-1.16931 -0.23386,-0.96885 -0.167042,-2.40542 -0.167042,-2.40542 0,0 -0.567947,0.50112 -0.567947,1.03566 0,0.53454 0.03341,1.33635 0.03341,1.33635 0,0 -0.835215,-0.4009 -0.835215,-1.13589 0,-0.735 -0.06682,-1.36976 -0.400905,-1.97112 -0.334087,-0.60135 -2.037929,-2.00452 -2.037929,-2.00452 0,0 1.23612,1.5368 1.403165,2.00452 0.167042,0.46772 0.534537,1.63703 0.534537,1.63703 0,0 -1.336347,-1.83748 -2.00452,-2.83974 -0.668173,-1.00226 -2.973374,-4.44335 -3.674957,-5.0113 -0.701582,-0.56795 -3.307461,-3.0736 -3.307461,-3.0736 0,0 1.069078,2.13815 2.405428,3.70836 1.336347,1.57021 3.107007,3.77519 3.641545,5.14494 0.53454,1.36976 2.137751,6.17881 4.34313,9.6217 0.819678,1.27963 7.283096,8.70346 8.385582,10.17344 1.102487,1.46999 2.427103,4.24282 4.710619,5.46183 2.06001,1.0997 4.87891,0.38488 6.62205,0.0334 2.17058,-0.43767 5.01466,-1.31539 7.086,-2.02172 1.97294,-0.67278 4.29924,-1.31915 7.53988,-2.95618 3.24064,-1.63702 8.45269,-6.56261 11.05115,-9.53196 3.82543,-4.37143 6.38303,-7.90262 7.67072,-10.66338 0.6615,-5.11141 1.08891,-8.81928 0.58835,-15.886041 z"
           style="fill:#000000;fill-opacity:0.55357139;fill-rule:evenodd;stroke:none;stroke-width:0.26458332px;stroke-linecap:butt;stroke-linejoin:miter;stroke-opacity:1" />
        <path
           inkscape:connector-curvature="0"
           id="path4884"
           d="m 100.54167,130.68527 c 0,0 2.45684,-1.41741 4.44121,-1.98438 1.98438,-0.56696 4.06325,-1.13393 5.19718,-1.13393 1.13393,0 3.68527,-0.0945 3.68527,-0.0945 0,0 -3.01529,-0.63317 -6.1223,0.0684 -3.10701,0.70158 -6.2176,2.1795 -7.20136,3.14439 z"
           style="fill:#000000;fill-opacity:0.27083333;fill-rule:evenodd;stroke:none;stroke-width:0.26458332px;stroke-linecap:butt;stroke-linejoin:miter;stroke-opacity:1" />
      </g>
      <g
         style="display:inline"
         inkscape:label="Lips"
         id="layer9">
        <path
           inkscape:connector-curvature="0"
           id="path4829"
           d="m 93.845011,122.19549 c 0,0 0.434314,-1.36976 1.870887,-1.87089 1.436574,-0.50113 5.980152,-0.16704 6.915602,-0.36749 0.93544,-0.20045 3.17382,-1.46998 4.10927,-1.50339 0.93544,-0.0334 3.64154,0.0668 4.84426,-0.13364 1.20271,-0.20045 4.47676,-1.43657 5.21175,-1.60362 0.73499,-0.16704 2.53906,0.16705 2.53906,0.16705 0,0 -2.17156,0.23386 -2.77292,0.4009 -0.60135,0.16705 -9.45466,3.80859 -9.45466,3.80859 l -7.784223,1.00226 z"
           style="fill:#754026;fill-opacity:1;fill-rule:evenodd;stroke:none;stroke-width:0.26458332px;stroke-linecap:butt;stroke-linejoin:miter;stroke-opacity:1" />
        <path
           sodipodi:nodetypes="cssccccscssc"
           inkscape:connector-curvature="0"
           id="path4827"
           d="m 119.33584,116.8501 c 0,0 -3.40768,0.20045 -6.81537,2.60588 -3.40769,2.40542 -4.94449,3.0736 -5.7463,3.27405 -0.8018,0.20045 -2.00452,0.0668 -3.34086,0.53454 -1.33635,0.46772 -1.87089,0.4009 -2.60588,0.46772 -0.735,0.0668 -3.140418,-1.13589 -4.009045,-1.26953 -0.868627,-0.13363 -3.274052,-0.20045 -3.274052,-0.20045 0,0 3.073601,-1.26953 4.543581,-1.20272 1.469983,0.0668 5.011306,0.20046 5.011306,0.20046 0,0 1.80407,-0.40091 3.54132,-1.06908 1.73725,-0.66817 4.47676,-1.06908 5.81311,-1.46998 1.33635,-0.40091 4.6104,-2.00453 6.88219,-1.87089 z"
           style="fill:#9b5f2c;fill-opacity:1;fill-rule:evenodd;stroke:none;stroke-width:0.26458332px;stroke-linecap:butt;stroke-linejoin:miter;stroke-opacity:1" />
      </g>
      <g
         inkscape:label="Lip Shadow"
         id="layer10">
        <path
           sodipodi:nodetypes="csccsccc"
           inkscape:connector-curvature="0"
           id="path4832"
           d="m 92.698659,118.44829 c 0,0 -0.330729,1.13392 -0.04725,1.84263 0.283483,0.70871 1.417413,1.88988 1.417413,1.88988 0,0 1.81901,-0.82683 2.693079,-0.99218 0.826823,-0.11807 3.496279,-0.18899 5.551519,0.0945 0.56166,0.0775 -4.370344,-1.46466 -6.118483,-1.41741 -1.748139,0.0472 -3.354539,0.47247 -3.496281,-1.41741 z"
           style="fill:#000000;fill-opacity:0.37797618;fill-rule:evenodd;stroke:none;stroke-width:0.26458332px;stroke-linecap:butt;stroke-linejoin:miter;stroke-opacity:1" />
      </g>
      <g
         inkscape:label="Cheek"
         id="layer11">
        <path
           inkscape:connector-curvature="0"
           id="path4835"
           d="m 125.91332,122.84226 c 0,0 0.23623,-2.12612 0.51971,-2.59859 0.28349,-0.47247 0.61422,-1.22842 0.61422,-1.22842 0,0 -0.8032,-2.4096 -1.27567,-4.48847 -0.47247,-2.07886 -1.03944,-4.39397 -0.85045,-4.77194 0.18899,-0.37798 3.9215,-4.39398 4.06324,-4.86645 0.14175,-0.47247 0.61422,-3.54353 0.61422,-3.54353 0,0 -0.47247,2.4096 -1.37017,3.63802 -0.89769,1.22843 -5.5279,3.63803 -5.71689,4.06325 -0.18899,0.42522 1.55915,3.82701 2.12612,5.05543 0.56696,1.22842 1.84263,4.20499 1.84263,4.77195 0,0.56696 -0.56696,3.96875 -0.56696,3.96875 z"
           style="fill:#000000;fill-opacity:0.36011903;fill-rule:evenodd;stroke:none;stroke-width:0.26458332px;stroke-linecap:butt;stroke-linejoin:miter;stroke-opacity:1" />
      </g>
      <g
         inkscape:label="Eyes"
         id="layer13">
        <path
           sodipodi:nodetypes="csccscscsssscc"
           inkscape:connector-curvature="0"
           id="path4847"
           d="m 104.88839,86.698287 c 0.28348,0.330729 1.32292,-0.614211 2.22061,-0.661458 0.8977,-0.04725 1.65365,0.188989 1.65365,0.188989 0,0 -1.28902,-0.425716 -1.37017,-0.850447 0.23624,-0.708705 2.34041,-2.834329 4.27753,-3.306801 1.93713,-0.472469 5.09337,-0.280892 5.6112,-0.09714 0.51784,0.183747 1.10248,1.753956 0.81851,2.037931 -0.28397,0.283972 -1.20271,1.00226 -1.20271,1.00226 0,0 3.29075,-0.300678 3.0903,-0.751697 -0.20045,-0.451017 -2.10474,-2.57247 -2.43883,-2.57247 -0.33409,0 -4.46006,-0.601356 -5.98016,-0.100224 -1.52009,0.501129 -4.35983,2.555764 -4.6271,2.973371 -0.26727,0.417611 -0.0668,0.818515 -0.23386,0.91874 -0.16705,0.100226 -1.03206,1.151662 -1.81897,1.218948 z"
           style="fill:#000000;fill-opacity:0.47619048;fill-rule:evenodd;stroke:none;stroke-width:0.26458332px;stroke-linecap:butt;stroke-linejoin:miter;stroke-opacity:1" />
        <path
           inkscape:connector-curvature="0"
           id="path4849"
           d="m 82.001631,95.819329 c 0,0 -1.687139,-0.968851 -1.687139,-1.820772 0,-0.851922 0.484426,-1.637028 1.00226,-1.620322 0.517835,0.01669 1.252826,0.100224 1.252826,0.100224 0,0 -0.684876,-0.551243 -0.618061,-1.269529 0.06682,-0.718288 0.601358,-1.486686 1.353052,-1.804069 0.751698,-0.317384 2.956669,-0.818512 4.059156,-0.517835 1.102487,0.300678 2.956671,1.002261 2.956671,1.002261 0,0 -1.085784,-0.734992 -2.522358,-1.069079 -1.436573,-0.334086 -4.57699,-0.100226 -5.311981,0.618062 -0.734991,0.718285 -1.186008,1.5368 -1.987817,1.904296 -0.801809,0.367496 -1.419871,0.618059 -1.419871,0.618059 0,0 0.484429,0.183748 0.551244,0.785106 0.06682,0.601355 -0.23386,1.620321 0.250566,2.037929 0.484425,0.417608 1.30294,0.985557 2.121452,1.035669 z"
           style="fill:#000000;fill-opacity:0.47619048;fill-rule:evenodd;stroke:none;stroke-width:0.26458332px;stroke-linecap:butt;stroke-linejoin:miter;stroke-opacity:1" />
        <path
           sodipodi:nodetypes="cccccscsc"
           inkscape:connector-curvature="0"
           id="path4912"
           d="m 102.97489,86.887276 c -0.0236,-0.283482 0.0814,-1.187316 0.9747,-2.182861 0.70378,-0.328827 2.07964,-1.432033 3.7671,-2.073832 -3.00752,0.373402 -4.13978,1.11862 -4.81562,1.487297 -0.47247,0.354354 -1.88693,1.942574 -1.91056,2.107938 -0.0236,0.165365 0,1.393785 0.96857,2.622209 0.96856,1.228423 3.54352,2.267857 3.70889,2.244233 0.16536,-0.02363 -0.8977,-0.354352 -1.58278,-1.346539 -0.68508,-0.992188 -1.29929,-2.196986 -1.1103,-2.858445 z"
           style="fill:#000000;fill-opacity:0.4745098;fill-rule:evenodd;stroke:none;stroke-width:0.26458332px;stroke-linecap:butt;stroke-linejoin:miter;stroke-opacity:1" />
      </g>
      <g
         style="display:inline"
         inkscape:label="Iris"
         id="layer14">
        <path
           inkscape:connector-curvature="0"
           id="path4852"
           transform="scale(0.26458333)"
           d="m 431.0625,308.64062 c -1.76619,-0.0126 -4.41045,0.0873 -6.95508,1.0918 -2.91615,1.15112 -6.44507,3.00012 -7.95703,3.78711 a 9.2176419,9.2176419 0 0 0 -0.2207,1.97656 9.2176419,9.2176419 0 0 0 3.29297,7.06055 c 0.52926,0.30778 1.11487,0.5359 1.75976,0.6582 0,0 4.46399,0.0885 7.14258,-0.44726 1.42544,-0.28509 3.24031,-1.17725 4.64062,-2.08399 a 9.2176419,9.2176419 0 0 0 1.59961,-5.1875 9.2176419,9.2176419 0 0 0 -3.0664,-6.85156 c -0.0914,-10e-4 -0.13954,-0.003 -0.23633,-0.004 z"
           style="fill:#3b0000;fill-opacity:1;fill-rule:evenodd;stroke:none;stroke-width:0.99999994px;stroke-linecap:butt;stroke-linejoin:miter;stroke-opacity:1" />
        <path
           id="circle4854"
           transform="scale(0.26458333)"
           d="m 326.12305,335.28516 c -0.87751,0.004 -1.6596,0.0505 -2.19532,0.16211 -1.74808,0.36418 -5.77361,1.61388 -7.64843,2.54882 a 9.2176419,9.2176419 0 0 0 -0.60742,3.25782 9.2176419,9.2176419 0 0 0 0.17187,1.73242 c 0.14524,0.40216 0.29256,0.78492 0.40625,1.03125 0.45181,0.97889 1.58891,2.82146 2.13867,3.76367 a 9.2176419,9.2176419 0 0 0 0.67969,0.61328 c 0.86625,0.008 6.86144,0.0439 8.52148,-0.53711 1.27113,-0.44489 4.19146,-1.97042 5.84766,-3.16992 a 9.2176419,9.2176419 0 0 0 0.66992,-3.43359 9.2176419,9.2176419 0 0 0 -1.94531,-5.65821 c -0.73746,-0.0461 -3.60966,-0.32213 -6.03906,-0.31054 z"
           style="fill:#3b0000;fill-opacity:1;fill-rule:evenodd;stroke:none;stroke-width:0.99999994px;stroke-linecap:butt;stroke-linejoin:miter;stroke-opacity:1"
           inkscape:connector-curvature="0" />
        <circle
           r="0.73232883"
           cy="83.556358"
           cx="112.51878"
           id="path4864"
           style="fill:#000000;fill-opacity:1;fill-rule:evenodd;stroke:none;stroke-width:0.26458332px;stroke-linecap:butt;stroke-linejoin:miter;stroke-opacity:1" />
        <circle
           style="fill:#000000;fill-opacity:1;fill-rule:evenodd;stroke:none;stroke-width:0.26458332px;stroke-linecap:butt;stroke-linejoin:miter;stroke-opacity:1"
           id="circle4866"
           cx="85.85865"
           cy="90.304916"
           r="0.73232883" />
      </g>
      <g
         inkscape:label="Nose"
         id="layer12">
        <path
           inkscape:connector-curvature="0"
           id="path4838"
           d="m 92.36793,104.7939 c 0,0 -0.897692,2.36235 -0.472469,3.21279 0.425222,0.85045 2.315104,1.55916 2.315104,1.55916 0,0 0.897694,0.85044 1.653645,1.03943 0.755952,0.18899 1.937129,0.66146 2.740327,0.51972 0.803201,-0.14174 1.984373,-0.28348 2.409603,-0.51972 0.42522,-0.23623 2.40959,-1.27567 2.40959,-1.27567 0,0 -2.12611,0.75595 -2.92931,1.08668 -0.8032,0.33073 -3.35454,-0.47247 -3.779762,-0.94494 -0.425225,-0.47247 -0.566965,-1.08668 -1.559152,-1.27567 -0.992188,-0.18899 -1.370164,0.0945 -1.653646,-0.56696 -0.283483,-0.66146 -0.325022,-3.49063 -0.325022,-3.49063 0,0 -0.334087,2.33861 -0.267269,2.73952 0.06682,0.4009 0.167042,0.8018 0.167042,0.8018 0,0 -0.451017,0.0668 -0.601356,-0.53454 -0.150339,-0.60135 -0.107325,-2.35097 -0.107325,-2.35097 z"
           style="fill:#000000;fill-opacity:0.46130952;fill-rule:evenodd;stroke:none;stroke-width:0.26458332px;stroke-linecap:butt;stroke-linejoin:miter;stroke-opacity:1" />
        <path
           inkscape:connector-curvature="0"
           id="path4840"
           d="m 106.00577,108.73179 c 0,0 1.46999,-0.48443 1.95441,-1.40317 0.48443,-0.91873 0.56795,-2.25508 0.56795,-2.25508 0,0 -0.0334,2.3052 -0.35079,2.65599 -0.31738,0.35079 -1.40317,1.05237 -2.17157,1.00226 z"
           style="fill:#000000;fill-opacity:0.2142857;fill-rule:evenodd;stroke:none;stroke-width:0.26458332px;stroke-linecap:butt;stroke-linejoin:miter;stroke-opacity:1" />
        <path
           inkscape:connector-curvature="0"
           id="path4842"
           d="m 106.67395,106.97783 c 0,0 -2.90656,-0.80181 -3.8587,-0.31738 -0.95215,0.48442 -2.43884,1.40316 -2.77292,2.10475 -0.334094,0.70158 -0.3675,0.71828 -0.183753,0.7851 0.183753,0.0668 0.534543,-0.68488 1.269533,-1.1526 0.73499,-0.46772 1.68714,-0.88533 2.05463,-0.88533 0.3675,0 0.7517,0.31738 0.98556,0.31738 0.23386,0 2.78962,-0.50113 2.50565,-0.85192 z"
           style="fill:#000000;fill-opacity:0.47619048;fill-rule:evenodd;stroke:none;stroke-width:0.26458332px;stroke-linecap:butt;stroke-linejoin:miter;stroke-opacity:1" />
      </g>
      <g
         inkscape:label="Brow"
         id="layer16">
        <path
           inkscape:connector-curvature="0"
           id="path4876"
           d="m 100.82743,83.909132 c 0,0 -1.937706,-0.400905 -1.937706,-1.870887 0,-1.469983 2.739516,-3.006784 4.944486,-3.741772 2.20497,-0.734992 7.14946,-1.33635 8.61944,-1.33635 1.46998,0 6.1472,0.267269 5.61266,0.668174 -0.53454,0.400904 -5.94675,0.601358 -9.08716,1.804069 -3.14042,1.202714 -6.61492,2.672696 -8.15172,4.476766 z"
           style="fill:#180505;fill-opacity:0.80059521;fill-rule:evenodd;stroke:none;stroke-width:0.26458332px;stroke-linecap:butt;stroke-linejoin:miter;stroke-opacity:1" />
        <path
           sodipodi:nodetypes="cssscsc"
           inkscape:connector-curvature="0"
           id="path4878"
           d="m 91.51017,87.284393 c 0,0 -1.106255,-1.838461 -1.841244,-2.105732 -0.734992,-0.267269 -4.075862,-2.271789 -6.882191,-1.403165 -2.80633,0.868627 -5.430387,2.649767 -6.236943,3.612888 -0.597522,0.713509 -0.8457,3.737025 -0.8457,3.737025 0,0 2.405426,-3.274052 6.214018,-4.476766 3.80859,-1.202711 8.456164,-0.767415 9.59206,0.63575 z"
           style="fill:#180505;fill-opacity:0.8;fill-rule:evenodd;stroke:none;stroke-width:0.26458332px;stroke-linecap:butt;stroke-linejoin:miter;stroke-opacity:1" />
        <path
           inkscape:connector-curvature="0"
           id="path4880"
           d="m 93.549106,76.540176 c 0,0 1.889882,3.685268 3.354539,4.393976 1.464659,0.708704 3.921505,0.283479 3.921505,0.283479 0,0 -1.13393,1.889882 -3.071058,1.653646 -1.937128,-0.236233 -3.779763,-4.015996 -4.204986,-6.331101 z"
           style="fill:#180505;fill-opacity:0.25595242;fill-rule:evenodd;stroke:none;stroke-width:0.26458332px;stroke-linecap:butt;stroke-linejoin:miter;stroke-opacity:1" />
        <path
           inkscape:connector-curvature="0"
           id="path4882"
           d="m 89.958332,77.107142 c 0,0 1.795389,6.047618 2.504094,7.228794 0.708705,1.181175 0.897691,1.653646 0.897691,1.653646 0,0 -2.929313,-2.834822 -3.401785,-8.88244 z"
           style="fill:#180505;fill-opacity:0.25490196;fill-rule:evenodd;stroke:none;stroke-width:0.26458332px;stroke-linecap:butt;stroke-linejoin:miter;stroke-opacity:1" />
      </g>
      <g
         inkscape:label="Hair"
         id="layer6-0">
        <path
           sodipodi:nodetypes="csssssscccsscscscsczcsssscscsscscscscssssssc"
           inkscape:connector-curvature="0"
           id="path4818"
           d="m 72.949405,87.501488 c 0,0 -12.425968,-2.740329 -13.323662,-15.780506 C 58.728051,58.680802 61.8936,45.687871 70.020089,39.49851 78.146576,33.309152 82.824031,22.914806 88.871651,22.820312 c 6.047619,-0.09449 26.080359,-5.149926 34.159599,0.803199 8.07924,5.953124 26.55282,29.576638 28.15922,37.325148 1.6064,7.748514 -0.18898,15.922247 0.28349,19.938243 0.47247,4.015999 4.58296,7.039809 4.58296,7.039809 0,0 -1.27567,0.661458 -1.32292,4.063243 -0.0473,3.401785 1.6064,4.960937 1.6064,4.960937 0,0 -3.96875,0.283483 -5.10268,3.071059 -1.13393,2.78757 -0.75595,6.14211 0.56697,6.85082 1.32291,0.7087 2.74032,0.94494 2.74032,0.94494 0,0 -3.07105,-0.51972 -2.4096,1.22842 0.66146,1.74814 3.11831,2.59858 3.11831,2.59858 0,0 -2.83482,-1.32291 -3.30729,-0.99218 -0.47247,0.33073 3.49628,3.35454 3.49628,3.35454 0,0 -2.03163,-0.61421 -3.87426,0.56696 -1.84263,1.18118 -3.40179,4.8192 -3.40179,4.8192 0,0 -1.25397,-4.41487 -1.94808,-7.9313 -0.69411,-3.51643 -4.32251,-12.873199 -4.32251,-12.873199 0,0 3.01055,1.858439 4.28622,0.771758 1.27567,-1.086681 5.71689,-7.843004 4.77195,-16.111233 -0.94494,-8.268229 -1.79539,-13.559896 -3.68527,-13.654392 -1.88988,-0.09449 -8.22098,3.260045 -6.85082,7.323288 1.37017,4.063246 0.85045,2.929316 0.85045,2.929316 0,0 -0.75595,0.04725 -1.74814,1.748142 -0.99219,1.700892 -1.79539,4.960937 -1.79539,4.960937 0,0 -6.56733,-13.890625 -9.02418,-16.867187 -2.45684,-2.976562 -5.05543,-9.402159 -7.9375,-12.142486 -2.88207,-2.740326 -7.08705,-5.858631 -7.08705,-5.858631 0,0 1.6064,4.630208 3.87426,7.79576 2.26785,3.165549 7.32328,9.402156 7.32328,9.402156 0,0 -7.0398,-3.354538 -10.91406,-8.457216 -3.87426,-5.10268 -3.96875,-5.764138 -3.96875,-5.764138 0,0 3.16555,10.252604 3.40179,14.126861 0.23623,3.874256 -1.27567,9.118674 -1.27567,9.118674 0,0 0.7087,-6.945313 -1.74814,-14.693823 -2.45685,-7.748511 -3.77977,-15.591518 -11.292041,-16.819941 -7.512278,-1.228423 -8.504465,4.630208 -12.567708,6.047618 -4.063246,1.417413 -8.362725,-0.28348 -10.866816,2.787576 -2.504093,3.071056 -5.197173,7.843007 -4.677455,13.701636 0.519716,5.858631 2.362351,13.512649 2.362351,15.166295 0,1.653645 -0.377976,3.401787 -0.377976,3.401787 z"
           style="fill:#000000;fill-opacity:1;fill-rule:evenodd;stroke:none;stroke-width:0.26458332px;stroke-linecap:butt;stroke-linejoin:miter;stroke-opacity:1" />
      </g>
      <g
         style="display:inline"
         inkscape:label="Shades"
         id="layer15">
        <path
           sodipodi:nodetypes="ccsccsc"
           inkscape:connector-curvature="0"
           id="path4873"
           d="m 68.020093,88.7868 5.273825,-3.438719 c 0,0 0.449541,4.900596 1.384986,7.10557 0.935443,2.204971 1.145969,3.919297 1.145969,3.919297 l -3.060745,6.980042 c 0,0 -4.075861,-4.209497 -4.543581,-6.68174 -0.467723,-2.472242 -0.200454,-7.88445 -0.200454,-7.88445 z"
           style="fill:#180505;fill-opacity:0.95238097;fill-rule:evenodd;stroke:none;stroke-width:0.26458332px;stroke-linecap:butt;stroke-linejoin:miter;stroke-opacity:1" />
        <path
           inkscape:connector-curvature="0"
           id="path4869"
           d="m 68.082961,88.588169 c 0,0 7.181548,-2.787576 8.976934,-2.787576 1.795386,0 9.780135,-0.566962 11.76451,0.0945 1.984375,0.661458 3.307291,0.614209 4.441219,0.377976 1.13393,-0.236236 3.638021,-1.700893 4.441222,-2.362351 0.803198,-0.661458 5.480654,-3.874257 9.165924,-4.960937 3.68526,-1.086684 10.48884,-2.126118 11.33928,-1.984375 0.85045,0.14174 4.016,2.976562 4.96094,7.323288 0.94494,4.346726 0.18899,7.74851 -0.23623,8.220982 -0.42523,0.472469 -5.10268,4.25223 -7.9375,5.338913 -2.83483,1.086681 -7.03981,1.74814 -8.12649,1.41741 -1.08668,-0.330729 -8.220986,-7.134301 -9.165924,-7.512277 -0.944941,-0.377976 -1.795389,-0.472469 -2.504094,-0.14174 -0.708705,0.330729 -1.937128,0.803198 -2.031621,1.228423 -0.09449,0.425223 0.141739,6.047619 -0.18899,6.945313 -0.330729,0.897692 -4.346725,4.441212 -7.559524,5.197162 -3.212795,0.75596 -8.646205,0.75596 -11.481025,-0.7087 -2.834822,-1.46466 -4.91369,-5.48065 -5.764138,-7.984743 -0.850445,-2.504093 -0.09449,-7.701264 -0.09449,-7.701264 z"
           style="fill:#5c1212;fill-opacity:0.78571424;fill-rule:evenodd;stroke:none;stroke-width:0.26458332px;stroke-linecap:butt;stroke-linejoin:miter;stroke-opacity:1" />
        <path
           sodipodi:nodetypes="csccsscscc"
           inkscape:connector-curvature="0"
           id="path4871"
           d="m 119.00176,77.093759 c 0,0 3.00678,-0.334087 3.54132,-0.668174 0.53454,-0.334086 14.29892,-8.018086 14.29892,-8.018086 l 0.73499,7.483546 c 0,0 -3.87541,3.073601 -6.1472,6.1472 -2.27179,3.073601 -3.74177,6.481286 -4.6104,7.550364 -0.86863,1.069078 -3.80859,2.939965 -3.80859,2.939965 0,0 0.93544,-6.280835 0.0668,-8.418991 -0.86863,-2.138156 -2.35552,-5.129422 -4.76094,-7.133942 z"
           style="fill:#410d0d;fill-opacity:0.95238097;fill-rule:evenodd;stroke:none;stroke-width:0.26458332px;stroke-linecap:butt;stroke-linejoin:miter;stroke-opacity:1" />
      </g>
    </g>
  </g>
  <g
     inkscape:groupmode="layer"
     id="layer6"
     inkscape:label="WEIRD">
    <path
       style="opacity:1;fill:#ffffff;fill-opacity:1;stroke:none;stroke-width:17.2258606;stroke-miterlimit:4;stroke-dasharray:none;stroke-opacity:1"
       d="M 245.3457 602.625 L 245.3457 672.625 L 495.3457 672.625 L 495.3457 602.625 L 245.3457 602.625 z M 254.20703 613.5 L 258.08398 613.5 C 261.48345 613.5 263.18217 614.17987 263.99805 617.44336 L 271.4082 648.31055 C 272.02011 650.89414 272.36133 653.41016 272.36133 653.41016 L 272.49609 653.41016 C 272.49609 653.41016 272.90446 650.96213 273.65234 648.31055 L 283.30664 613.63477 L 289.42578 613.63477 L 298.40039 648.31055 C 299.08028 650.96213 299.41992 653.41016 299.41992 653.41016 L 299.55664 653.41016 C 299.55664 653.41016 299.8295 650.89414 300.44141 648.31055 L 307.98828 617.44336 C 308.80415 614.17987 310.43452 613.5 313.83398 613.5 L 317.70898 613.5 L 317.70898 619.3457 L 316.68945 619.3457 C 315.46565 619.3457 314.71885 619.61799 314.37891 620.8418 L 303.83984 661.5 L 295.95312 661.5 L 287.79492 631.17773 C 286.97905 628.05022 286.43555 624.58203 286.43555 624.58203 L 286.29883 624.58203 C 286.29883 624.58203 285.61824 628.04985 284.73438 631.10938 L 276.0332 661.5 L 268.07812 661.5 L 257.53906 620.8418 C 257.19912 619.61799 256.45232 619.3457 255.22852 619.3457 L 254.20703 619.3457 L 254.20703 613.5 z M 326.5 613.5 L 354.7168 613.5 C 357.77632 613.5 359.06641 614.79204 359.06641 617.85156 L 359.06641 623.90234 L 352.88086 623.90234 L 352.88086 620.8418 C 352.88086 619.82196 352.33662 619.3457 351.38477 619.3457 L 337.71875 619.3457 L 337.71875 634.37305 L 354.51172 634.37305 L 354.51172 640.21875 L 337.71875 640.21875 L 337.71875 654.15625 C 337.71875 655.1081 338.26299 655.65234 339.21484 655.65234 L 353.2207 655.65234 C 354.17255 655.65234 354.7168 655.1081 354.7168 654.15625 L 354.7168 651.09766 L 360.9707 651.09766 L 360.9707 657.14844 C 360.9707 660.20796 359.67866 661.5 356.61914 661.5 L 335.27148 661.5 C 332.21196 661.5 330.91992 660.20796 330.91992 657.14844 L 330.91992 619.3457 L 326.5 619.3457 L 326.5 613.5 z M 370.41406 613.5 L 386.25586 613.5 L 386.25586 619.3457 L 381.56445 619.3457 L 381.56445 655.65234 L 386.25586 655.65234 L 386.25586 661.5 L 370.41406 661.5 L 370.41406 655.65234 L 375.10547 655.65234 L 375.10547 619.3457 L 370.41406 619.3457 L 370.41406 613.5 z M 396.6543 613.5 L 417.5957 613.5 C 426.02638 613.5 431.94141 618.80359 431.94141 627.57422 C 431.94141 635.59696 426.70611 639.53923 423.30664 640.28711 L 423.30664 640.42383 C 423.30664 640.42383 424.52983 641.03585 425.3457 642.59961 L 431.125 654.08984 C 431.80489 655.51762 432.89365 655.65234 434.52539 655.65234 L 435.4082 655.65234 L 435.4082 661.5 L 432.07812 661.5 C 428.33871 661.5 426.97782 661.02399 425.41406 657.89648 L 418.88672 644.97852 C 417.66291 642.73487 416.78049 642.39453 414.12891 642.39453 L 407.87305 642.39453 L 407.87305 661.5 L 401.07422 661.5 L 401.07422 619.3457 L 396.6543 619.3457 L 396.6543 613.5 z M 443.75 613.5 L 463.19531 613.5 C 477.81302 613.5 487.4668 622.27002 487.4668 637.43164 C 487.4668 652.66125 477.81302 661.5 463.19531 661.5 L 452.51953 661.5 C 449.46001 661.5 448.16992 660.20796 448.16992 657.14844 L 448.16992 619.3457 L 443.75 619.3457 L 443.75 613.5 z M 407.87305 619.3457 L 407.87305 636.54883 L 416.71094 636.54883 C 421.87813 636.54883 424.9375 633.21686 424.9375 627.8457 C 424.9375 622.47455 421.87887 619.3457 416.84766 619.3457 L 407.87305 619.3457 z M 454.96875 619.3457 L 454.96875 654.15625 C 454.96875 655.1081 455.51299 655.65234 456.46484 655.65234 L 462.71875 655.65234 C 473.39308 655.65234 480.39648 649.26179 480.39648 637.43164 C 480.39648 625.66949 473.32509 619.3457 462.71875 619.3457 L 454.96875 619.3457 z "
       transform="scale(0.26458334)"
       id="rect4172" />
  </g>
  <g
     inkscape:groupmode="layer"
     id="layer7"
     inkscape:label="MAKE">
    <text
       xml:space="preserve"
       style="font-style:normal;font-variant:normal;font-weight:normal;font-stretch:normal;font-size:17.99166679px;line-height:100%;font-family:Museo;-inkscape-font-specification:'Museo, Normal';text-align:start;letter-spacing:0px;word-spacing:0px;writing-mode:lr-tb;text-anchor:start;fill:#ffffff;fill-opacity:1;stroke:none;stroke-width:0.26458335px;stroke-linecap:butt;stroke-linejoin:miter;stroke-opacity:1"
       x="10.690782"
       y="175.02188"
       id="text4175"
       sodipodi:linespacing="100%"><tspan
         sodipodi:role="line"
         id="tspan4177"
         x="10.690782"
         y="175.02188"
         style="font-style:normal;font-variant:normal;font-weight:normal;font-stretch:normal;font-size:17.99166679px;line-height:100%;font-family:Museo;-inkscape-font-specification:'Museo, Normal';text-align:start;writing-mode:lr-tb;text-anchor:start;fill:#ffffff;fill-opacity:1;stroke-width:0.26458335px;letter-spacing:1.32291669px">MAKE</tspan></text>
  </g>
  <g
     inkscape:groupmode="layer"
     id="layer8"
     inkscape:label="MUSIC">
    <text
       xml:space="preserve"
       style="font-style:normal;font-variant:normal;font-weight:normal;font-stretch:normal;font-size:17.99166679px;line-height:100%;font-family:Museo;-inkscape-font-specification:'Museo, Normal';text-align:start;letter-spacing:0px;word-spacing:0px;writing-mode:lr-tb;text-anchor:start;fill:#ffffff;fill-opacity:1;stroke:none;stroke-width:0.26458335px;stroke-linecap:butt;stroke-linejoin:miter;stroke-opacity:1"
       x="134.21758"
       y="174.80598"
       id="text4180"
       sodipodi:linespacing="100%"><tspan
         sodipodi:role="line"
         id="tspan4182"
         x="134.21758"
         y="174.80598"
         style="font-style:normal;font-variant:normal;font-weight:normal;font-stretch:normal;font-size:17.99166679px;line-height:100%;font-family:Museo;-inkscape-font-specification:'Museo, Normal';text-align:start;writing-mode:lr-tb;text-anchor:start;fill:#ffffff;fill-opacity:1;stroke-width:0.26458335px">MUSIC</tspan></text>
  </g>
</svg>
