<?xml version="1.0" encoding="UTF-8" standalone="no"?>
<!-- Created with Inkscape (http://www.inkscape.org/) -->

<svg
   xmlns:dc="http://purl.org/dc/elements/1.1/"
   xmlns:cc="http://creativecommons.org/ns#"
   xmlns:rdf="http://www.w3.org/1999/02/22-rdf-syntax-ns#"
   xmlns:svg="http://www.w3.org/2000/svg"
   xmlns="http://www.w3.org/2000/svg"
   xmlns:sodipodi="http://sodipodi.sourceforge.net/DTD/sodipodi-0.dtd"
   xmlns:inkscape="http://www.inkscape.org/namespaces/inkscape"
   width="1000"
   height="1000"
   viewBox="0 0 264.58333 264.58334"
   version="1.1"
   id="svg8"
   inkscape:version="0.92.1 r15371"
   sodipodi:docname="chris-opperman.svg">
  <defs
     id="defs2" />
  <sodipodi:namedview
     id="base"
     pagecolor="#ffffff"
     bordercolor="#666666"
     borderopacity="1.0"
     inkscape:pageopacity="0.0"
     inkscape:pageshadow="2"
     inkscape:zoom="0.7"
     inkscape:cx="254.38226"
     inkscape:cy="575.83707"
     inkscape:document-units="px"
     inkscape:current-layer="layer1"
     showgrid="false"
     units="px"
     showguides="true"
     inkscape:guide-bbox="true"
     inkscape:window-width="1920"
     inkscape:window-height="1017"
     inkscape:window-x="-8"
     inkscape:window-y="-8"
     inkscape:window-maximized="1"
     inkscape:snap-global="true">
    <sodipodi:guide
       position="264.58334,264.58334"
       orientation="1,0"
       id="guide10"
       inkscape:locked="false"
       inkscape:label=""
       inkscape:color="rgb(0,0,255)" />
    <sodipodi:guide
       position="0,0"
       orientation="1,0"
       id="guide12"
       inkscape:locked="false"
       inkscape:label=""
       inkscape:color="rgb(0,0,255)" />
    <sodipodi:guide
       position="264.58334,264.58334"
       orientation="0,1"
       id="guide14"
       inkscape:locked="false"
       inkscape:label=""
       inkscape:color="rgb(0,0,255)" />
    <sodipodi:guide
       position="0,0"
       orientation="0,1"
       id="guide16"
       inkscape:locked="false"
       inkscape:label=""
       inkscape:color="rgb(0,0,255)" />
  </sodipodi:namedview>
  <metadata
     id="metadata5">
    <rdf:RDF>
      <cc:Work
         rdf:about="">
        <dc:format>image/svg+xml</dc:format>
        <dc:type
           rdf:resource="http://purl.org/dc/dcmitype/StillImage" />
        <dc:title></dc:title>
      </cc:Work>
    </rdf:RDF>
  </metadata>
  <g
     inkscape:label="BG"
     inkscape:groupmode="layer"
     id="layer1"
     transform="translate(0,-32.41665)"
     style="display:none">
    <rect
       id="rect4493"
       width="264.58334"
       height="264.58334"
       x="0"
       y="32.416641"
       style="fill:#ffffff;fill-opacity:1;stroke-width:0.26458332" />
  </g>
  <g
     inkscape:groupmode="layer"
     id="layer4"
     inkscape:label="Clothing">
    <path
       style="fill:#1a0d04;fill-opacity:1;stroke:none;stroke-width:0.27557939px;stroke-linecap:butt;stroke-linejoin:miter;stroke-opacity:1"
       d="m 148.19866,98.842 c -6.69266,-1.181056 -46.06116,9.05475 -46.06116,9.05475 l -8.267381,156.68658 h 18.769821 c 0,0 50.91242,-149.20657 35.55872,-165.74133 z"
       id="path5253"
       inkscape:connector-curvature="0"
       sodipodi:nodetypes="ccccc" />
    <path
       style="fill:#252220;fill-opacity:1;stroke:none;stroke-width:0.27557939px;stroke-linecap:butt;stroke-linejoin:miter;stroke-opacity:1"
       d="m 139.73443,87.425134 c 0,0 7.4243,2.198096 8.88578,3.311605 1.46148,1.113509 6.82023,11.413461 9.04726,12.596571 2.22702,1.1831 5.70673,1.53107 8.35131,3.13174 2.6446,1.60067 6.40266,5.08039 7.86414,5.49795 1.46148,0.41757 6.95943,1.53108 10.57833,3.54931 3.61891,2.01824 13.57089,6.05471 15.86751,8.14253 2.29661,2.08784 8.49051,14.68441 9.53442,19.13844 1.04391,4.45404 0.20879,8.83849 2.50539,14.96278 2.29661,6.1243 9.8824,19.13844 12.45739,26.16747 2.57499,7.02902 6.05471,40.15591 6.33308,44.05319 0.27838,3.89729 -0.55675,10.9959 0.76555,19.83438 1.3223,8.83848 1.31001,16.77223 1.31001,16.77223 h -39.79568 c 0,0 -0.62634,-31.66541 -0.90472,-39.59916 -0.27838,-7.93376 -6.05471,-37.65053 -6.82025,-36.74581 -0.76553,0.90473 -4.03646,15.38034 -4.80201,20.04317 -0.76554,4.66281 -1.39188,5.56755 -1.46147,9.8128 -0.0696,4.24525 4.03647,25.95867 4.38443,30.96947 0.34798,5.01079 1.3223,15.51953 1.3223,15.51953 h -72.51726 c 0,0 -2.50542,-25.88909 -2.57501,-31.8742 -0.0696,-5.98511 0,-8.83848 0.83512,-10.71752 0.83516,-1.87905 7.44663,-24.14923 9.39527,-32.98771 1.94864,-8.83846 6.19391,-26.58501 8.28174,-31.8046 2.08781,-5.21956 8.45217,-27.9567 9.18643,-32.29175 0.73427,-4.33507 10.09118,-24.28842 10.09118,-25.332334 0,-1.043913 -12.69117,-9.615765 -8.12024,-12.150082 z"
       id="path5233"
       inkscape:connector-curvature="0" />
    <path
       style="fill:#6f6f6f;fill-opacity:1;stroke:#000000;stroke-width:0.27557939px;stroke-linecap:butt;stroke-linejoin:miter;stroke-opacity:1"
       d="m 148.75939,91.154302 c 0,0.626351 -0.20879,6.959439 -0.34797,8.490511 -0.13919,1.531077 -7.93374,19.347217 -7.93374,19.347217 l 5.9851,6.19388 c 0,0 8.6297,-2.78376 8.76889,-3.34052 0.13919,-0.55675 1.1135,-6.75065 1.67026,-8.97766 0.55676,-2.22702 1.11351,-6.40268 0.76554,-7.93375 -0.34798,-1.53107 -5.28917,-7.585786 -5.84592,-9.186455 -0.55676,-1.60067 -3.06216,-4.593223 -3.06216,-4.593223 z"
       id="path5235"
       inkscape:connector-curvature="0" />
    <path
       style="fill:#6f6f6f;fill-opacity:1;stroke:#000000;stroke-width:0.27557939px;stroke-linecap:butt;stroke-linejoin:miter;stroke-opacity:1"
       d="m 140.47768,118.99203 c -1.72721,2.92825 -2.458,9.91881 -3.96689,13.71007 -1.50888,3.79127 -1.94863,9.25605 -4.45403,16.35467 -2.50537,7.09862 -6.19387,18.23371 -7.79455,26.37625 -1.60068,8.14253 -4.80201,20.32153 -6.2635,26.09786 -1.46148,5.77632 -3.89728,13.15333 -5.08039,16.49385 -1.18311,3.34054 -2.22706,6.47228 -2.22706,6.47228 0,0 2.15747,-2.78378 5.49799,-7.4466 3.34054,-4.66282 14.61481,-21.36545 19.27763,-35.2843 4.66282,-13.91888 8.11631,-23.14724 11.34388,-32.083 3.22756,-8.93574 10.02157,-26.37623 9.6736,-27.14177 -0.34796,-0.76555 -10.02158,2.64457 -10.02158,2.64457 z"
       id="path5237"
       inkscape:connector-curvature="0" />
    <path
       style="fill:#252220;fill-opacity:1;stroke:none;stroke-width:0.27557939px;stroke-linecap:butt;stroke-linejoin:miter;stroke-opacity:1"
       d="m 110.40419,97.6353 c 0,0 -13.056533,8.61681 -14.025265,8.95376 -0.96873,0.33695 -8.932138,2.52058 -11.298345,4.46922 -2.366208,1.94863 -5.149979,7.377 -6.402676,12.52698 -1.252697,5.14997 -3.340523,7.79455 -3.618898,11.13509 -0.278375,3.34052 1.636615,7.13171 1.538191,7.82066 -0.09842,0.68896 -1.18105,3.10028 -1.771574,4.42897 -0.590531,1.32867 -0.541318,2.26368 -0.935007,2.75579 -0.393684,0.49211 -2.509742,0.73815 -2.362107,1.67316 0.14763,0.935 1.082633,1.52552 0.934998,2.11605 -0.14763,0.59053 -1.722372,2.31291 -1.820793,2.7558 -0.09842,0.4429 -1.427107,-0.63974 -2.55895,0.29525 -1.131846,0.93501 -2.411319,5.46239 -4.773427,5.75766 -2.362105,0.29526 -4.773424,0.44289 -5.511584,1.47632 -0.738159,1.03341 -0.196843,1.32868 -0.738159,1.72236 -0.541318,0.39369 -1.52553,0.19684 -2.214478,0.8858 -0.688949,0.68894 -7.037116,10.13737 -8.365802,13.72976 -1.328688,3.59237 -3.493954,9.3008 -3.346322,12.25344 0.147632,2.95264 0,6.15132 1.67316,9.05475 1.673162,2.90342 4.72422,6.34816 6.692641,6.74185 1.968426,0.39369 7.184751,-4.47817 8.85791,-6.29896 1.673161,-1.8208 5.560793,-8.11975 7.135533,-9.3008 1.574738,-1.18106 7.480017,-4.08448 8.218174,-4.47816 0.738157,-0.39369 2.755789,-0.63976 2.460528,-1.42711 -0.295264,-0.78737 -0.688948,-1.32869 -0.196843,-1.52554 0.492104,-0.19683 1.870002,-0.73816 2.608161,-1.77158 0.738159,-1.03342 2.017635,-2.46053 2.460531,-2.31289 0.442893,0.14762 0.590527,0.73815 1.328686,0.59053 0.738159,-0.14763 1.574738,-1.67317 1.574738,-1.67317 0,0 0.639738,1.96843 0.738162,3.98606 0.09842,2.01763 1.427107,6.84027 1.968422,9.00554 0.541318,2.16527 2.903428,12.25344 2.854218,16.09187 -0.04921,3.83843 -0.295264,7.72607 -0.836582,9.25159 -0.541317,1.52554 -4.084482,8.90713 -5.117904,15.55056 -1.033423,6.64344 -2.755795,19.33977 -2.60816,22.2432 0.14763,2.90342 -0.344476,8.46422 -0.344476,8.46422 h 24.457659 c 0,0 4.92109,-13.28687 5.9053,-18.79845 0.98422,-5.51159 1.87001,-35.53006 1.52554,-40.20507 -0.34448,-4.67502 -4.97029,-25.83557 -5.85608,-32.03611 -0.8858,-6.20054 -1.47634,-14.61555 -1.52555,-21.40662 -0.0492,-6.79107 0.78738,-22.7845 1.18107,-26.22924 0.39369,-3.44475 3.09889,-26.280546 2.11536,-28.27254 z"
       id="path5239"
       inkscape:connector-curvature="0" />
    <path
       style="fill:#6f6f6f;fill-opacity:1;stroke:#000000;stroke-width:0.27557939px;stroke-linecap:butt;stroke-linejoin:miter;stroke-opacity:1"
       d="m 111.78279,98.891203 c 0,0 -12.745558,13.040807 -12.253452,13.631347 0.492102,0.59052 4.133672,5.16712 4.133672,5.16712 l 5.51161,-3.78922 c 0,0 0.0984,-10.03897 2.60817,-15.009247 z"
       id="path5241"
       inkscape:connector-curvature="0" />
    <path
       style="fill:#6f6f6f;fill-opacity:1;stroke:#000000;stroke-width:0.27557939px;stroke-linecap:butt;stroke-linejoin:miter;stroke-opacity:1"
       d="m 109.17462,113.90045 -5.51161,3.78922 c 0,0 -4.428933,-4.33054 -4.576564,-3.6416 -0.147631,0.68895 -2.165265,14.12345 -1.968421,25.49109 0.196834,11.36766 -0.885793,23.42426 0.885783,30.06768 1.771588,6.64345 6.889452,24.90059 8.907102,29.32954 2.01766,4.42895 7.33241,16.14107 7.33241,16.14107 0,0 -1.03341,-14.12344 -1.87,-19.43819 -0.83659,-5.31474 -3.88764,-21.3574 -4.62581,-25.78635 -0.73817,-4.42895 -1.07369,-11.00899 -1.08265,-15.55056 -0.009,-4.54157 0.0984,-16.33792 0.19684,-20.8653 0.0984,-4.52736 2.31292,-19.5366 2.31292,-19.5366 z"
       id="path5243"
       inkscape:connector-curvature="0" />
  </g>
  <g
     inkscape:groupmode="layer"
     id="layer2"
     inkscape:label="Head and Hand"
     style="display:inline">
    <path
       style="fill:#f1bc99;fill-opacity:1;stroke:none;stroke-width:0.27557939px;stroke-linecap:butt;stroke-linejoin:miter;stroke-opacity:1"
       d="m 115.28452,118.99203 c -2.92296,-2.78377 -3.47971,-7.72497 -5.0804,-9.39524 -1.60066,-1.67026 -9.42077,-9.70194 -11.635017,-13.41107 -2.214239,-3.709123 -4.510856,-10.042206 -4.510856,-10.042206 0,0 -1.948643,-1.60067 -2.57499,-3.897283 -0.626348,-2.296612 -2.157424,-7.307401 -2.783774,-8.420911 -0.626348,-1.113508 -3.270931,-5.010791 -2.087827,-6.193895 1.183103,-1.183101 -3.618904,-17.885738 -2.296614,-24.358007 1.322294,-6.472272 4.454037,-17.328985 13.083735,-21.087078 8.629653,-3.758093 17.537783,-5.428355 24.845183,-2.087828 7.30743,3.340526 12.94455,7.864157 14.8236,14.266831 1.87903,6.402678 5.01079,24.845172 5.49794,24.358011 0.48716,-0.487161 1.3223,-1.809451 2.15743,0.347972 0.83513,2.157422 0.13918,5.915515 0.48716,7.168214 0.34797,1.252698 0.97431,5.289168 0.27838,6.889838 -0.69596,1.600666 -1.3919,4.941195 -2.29663,5.845922 -0.90472,0.904727 -1.87905,1.670261 -1.94863,2.783773 -0.0696,1.113509 -0.62635,8.281721 0.20878,9.882391 0.83513,1.600672 5.21957,6.40268 5.35877,6.889839 0.13918,0.487157 -3.72746,19.596197 -16.65252,21.872707 -12.92507,2.27652 -14.87372,-1.41198 -14.87372,-1.41198 z"
       id="path4534"
       inkscape:connector-curvature="0" />
    <path
       style="fill:#8c6d59;fill-opacity:1;stroke:none;stroke-width:0.27557939px;stroke-linecap:butt;stroke-linejoin:miter;stroke-opacity:1"
       d="m 95.395652,68.872734 c 0.442897,-0.565921 0.516714,-0.861186 0.541318,-1.62395 0.02461,-0.762766 0.172235,-2.214476 1.328685,-2.829611 1.156442,-0.615133 3.592365,-1.476318 4.994865,-1.156448 1.40249,0.319868 2.65734,0.713552 3.42012,1.722372 0.76277,1.008816 1.84541,3.198689 1.62397,3.149478 -0.22146,-0.04921 -0.44291,-0.861186 -1.62397,-1.033422 -1.18106,-0.172238 -5.53617,-2.140663 -5.954458,-2.091453 -0.418291,0.04921 -1.746976,0.565921 -2.165266,1.353294 -0.41829,0.787369 -0.688949,1.623949 -0.811977,1.131842 -0.123019,-0.492106 0.147641,-1.402503 0.738162,-1.820791 0.590522,-0.41829 0.541319,-0.935002 0.123029,-0.688948 -0.41829,0.24605 -1.058025,0.516711 -1.25487,1.402501 -0.196841,0.885791 -0.123028,2.46053 -0.959608,2.485136 z"
       id="path5213"
       inkscape:connector-curvature="0" />
    <path
       style="display:inline;fill:#fefefe;fill-opacity:1;stroke:none;stroke-width:0.27557939px;stroke-linecap:butt;stroke-linejoin:miter;stroke-opacity:1"
       d="m 98.446709,69.512472 c -0.738161,-1.23027 -1.181054,-2.706588 0.442893,-3.789216 1.623948,-1.08263 3.936838,-1.820793 5.609978,-0.393689 1.67316,1.427114 1.3779,2.06685 1.03342,2.362112 -0.34447,0.295261 -1.9192,1.870007 -3.98603,2.214482 -2.066835,0.344475 -3.100261,-0.393689 -3.100261,-0.393689 z"
       id="path5166"
       inkscape:connector-curvature="0" />
    <circle
       style="opacity:1;fill:#0a3a21;fill-opacity:1;stroke:none;stroke-width:0.90690118;stroke-miterlimit:4;stroke-dasharray:none;stroke-opacity:1"
       id="circle4554"
       cx="102.18676"
       cy="66.855095"
       r="2.2636881" />
    <path
       style="fill:#2d1f15;fill-opacity:1;stroke:none;stroke-width:0.27557939px;stroke-linecap:butt;stroke-linejoin:miter;stroke-opacity:1"
       d="m 114.93656,84.682034 c -0.48716,-0.626351 1.46148,-3.549311 2.85336,-3.131746 1.3919,0.417566 0.55676,2.435803 -0.41756,2.157424 -0.97432,-0.278377 -1.87904,-1.113509 -2.4358,0.974322 z"
       id="path4536"
       inkscape:connector-curvature="0" />
    <path
       style="fill:#2d1f15;fill-opacity:1;stroke:none;stroke-width:0.27557939px;stroke-linecap:butt;stroke-linejoin:miter;stroke-opacity:1"
       d="m 111.52642,85.099599 c -0.48718,-0.556755 -1.60067,-2.227017 -2.08782,-2.08783 -0.48718,0.139189 -0.76555,1.043914 -0.34798,1.531075 0.41756,0.487161 2.0878,0.208784 2.4358,0.556755 z"
       id="path4540"
       inkscape:connector-curvature="0" />
    <path
       style="fill:#8c6d59;fill-opacity:1;stroke:none;stroke-width:0.27557939px;stroke-linecap:butt;stroke-linejoin:miter;stroke-opacity:1"
       d="m 117.90952,64.271541 c 0.0984,-0.442894 0.4429,-2.460529 1.74697,-3.174085 1.30409,-0.713551 3.6908,-1.525527 5.56083,-1.525527 1.87002,0 3.66619,0.787368 3.98606,1.181053 0.31986,0.393685 1.20564,1.870004 1.59932,2.21448 0.39369,0.344474 0.4675,0.295263 0.29527,0.344474 -0.17224,0.04921 -1.42711,-1.377898 -1.69775,-1.870006 -0.27066,-0.492104 -0.9596,-0.934999 -2.18985,-1.230263 -1.23028,-0.295264 -4.01071,-0.418291 -4.23215,0 -0.22145,0.418288 1.99304,-0.615134 3.91227,0.295264 1.9192,0.910395 2.18986,2.18987 2.60816,2.485135 0.41826,0.295263 0.83655,0.09843 0.83655,0.09843 0,0 -0.68894,0.295261 -1.23024,0 -0.54133,-0.295265 -8.58728,-0.935004 -9.17781,-0.811976 -0.59052,0.123027 -1.4517,2.066846 -2.01763,1.993029 z"
       id="path5211"
       inkscape:connector-curvature="0" />
    <path
       style="display:inline;fill:#f6f5f5;fill-opacity:1;stroke:none;stroke-width:0.27557939px;stroke-linecap:butt;stroke-linejoin:miter;stroke-opacity:1"
       d="m 119.60729,64.985092 c -0.4429,-0.787367 -0.4429,-1.131843 0.0984,-1.919211 0.54132,-0.787367 1.77159,-2.312898 4.13369,-2.312898 2.36213,0 4.5274,1.673163 4.5274,1.91921 0,0.246058 -0.68893,3.198693 -3.74002,3.395538 -3.05107,0.196844 -4.57659,-0.738164 -5.01949,-1.082639 z"
       id="path5168"
       inkscape:connector-curvature="0" />
    <path
       style="fill:#43351d;fill-opacity:1;stroke:none;stroke-width:0.27557939px;stroke-linecap:butt;stroke-linejoin:miter;stroke-opacity:1"
       d="m 92.233353,67.045846 c -0.904723,-1.809454 0.0626,-6.131295 2.386596,-6.626898 3.014085,-0.64277 11.629531,-0.957903 11.919531,1.476916 0.28553,2.397187 -2.18131,0.655178 -4.06033,0.515988 -1.87904,-0.139187 -9.709423,-0.868904 -10.245797,4.633994 z"
       id="path4542"
       inkscape:connector-curvature="0"
       sodipodi:nodetypes="csscc" />
    <path
       style="fill:#43351d;fill-opacity:1;stroke:none;stroke-width:0.27557939px;stroke-linecap:butt;stroke-linejoin:miter;stroke-opacity:1"
       d="m 115.66627,61.609046 c -0.48717,-0.487161 -0.34303,-2.415419 1.04886,-3.250551 1.39188,-0.835129 6.66971,-3.965427 10.56704,-3.0607 3.89724,0.904725 7.03249,4.169265 6.05816,4.934802 -0.97431,0.765537 -3.49166,-2.520834 -6.13621,-2.66002 -2.64459,-0.139191 -10.63312,2.853365 -11.53785,4.036469 z"
       id="path4544"
       inkscape:connector-curvature="0"
       sodipodi:nodetypes="ccsccc" />
    <circle
       r="2.3621092"
       cy="62.967461"
       cx="123.88871"
       id="circle4552"
       style="opacity:1;fill:#0e522f;fill-opacity:1;stroke:none;stroke-width:0.94633168;stroke-miterlimit:4;stroke-dasharray:none;stroke-opacity:1" />
    <circle
       style="opacity:1;fill:#0a0620;fill-opacity:1;stroke:none;stroke-width:0.27601337;stroke-miterlimit:4;stroke-dasharray:none;stroke-opacity:1"
       id="path4548"
       cx="123.88871"
       cy="62.967461"
       r="0.68894851" />
    <circle
       r="0.68894851"
       cy="66.855095"
       cx="102.18676"
       id="circle4550"
       style="opacity:1;fill:#0a0620;fill-opacity:1;stroke:none;stroke-width:0.27601337;stroke-miterlimit:4;stroke-dasharray:none;stroke-opacity:1" />
    <circle
       r="0.37577412"
       cy="62.149731"
       cx="124.51498"
       id="circle4556"
       style="opacity:1;fill:#dadada;fill-opacity:1;stroke:none;stroke-width:0.15054636;stroke-miterlimit:4;stroke-dasharray:none;stroke-opacity:1" />
    <circle
       style="opacity:1;fill:#dadada;fill-opacity:1;stroke:none;stroke-width:0.11111586;stroke-miterlimit:4;stroke-dasharray:none;stroke-opacity:1"
       id="circle4558"
       cx="122.98394"
       cy="63.037056"
       r="0.2773529" />
    <circle
       style="opacity:1;fill:#dadada;fill-opacity:1;stroke:none;stroke-width:0.15054636;stroke-miterlimit:4;stroke-dasharray:none;stroke-opacity:1"
       id="circle4560"
       cx="102.83633"
       cy="66.151405"
       r="0.37577412" />
    <circle
       r="0.2773529"
       cy="67.038734"
       cx="101.30529"
       id="circle4562"
       style="opacity:1;fill:#dadada;fill-opacity:1;stroke:none;stroke-width:0.11111586;stroke-miterlimit:4;stroke-dasharray:none;stroke-opacity:1" />
    <path
       style="display:inline;fill:#9c6a49;fill-opacity:0.26213594;stroke:none;stroke-width:0.27557939px;stroke-linecap:butt;stroke-linejoin:miter;stroke-opacity:1"
       d="m 107.62913,79.288473 c -0.0696,1.287496 -0.66115,1.809452 -0.73075,2.679381 -0.0696,0.86993 -0.24359,1.478881 0.27838,1.931241 0.52196,0.452364 0.38278,0.347972 0.38278,0.347972 0,0 -0.36538,0.05219 -0.62636,0.608951 -0.26099,0.556756 -0.52197,2.470599 -0.90475,2.992555 -0.38276,0.521959 -0.55676,0.661148 -0.62634,0.556756 -0.0696,-0.104392 1.09612,-3.114345 1.13091,-4.854204 0.0348,-1.739858 0.087,-2.209619 0.34798,-2.696779 0.26098,-0.487162 0.57416,-1.565873 0.74815,-1.565873 z"
       id="path5188"
       inkscape:connector-curvature="0" />
    <path
       style="fill:#602c09;fill-opacity:1;stroke:none;stroke-width:0.27557939px;stroke-linecap:butt;stroke-linejoin:miter;stroke-opacity:1"
       d="m 124.99295,94.407839 -1.30491,0.243579 -2.22701,0.208781 -2.67939,-0.06957 -6.64625,0.791639 -4.0017,1.035217 2.2705,1.017822 5.81986,0.939519 5.76763,-2.227023 z"
       id="path5227"
       inkscape:connector-curvature="0" />
    <path
       style="display:inline;fill:#c69473;fill-opacity:1;stroke:none;stroke-width:0.27557939px;stroke-linecap:butt;stroke-linejoin:miter;stroke-opacity:1"
       d="m 107.94435,96.676731 c 0,-0.196844 2.75578,-1.033424 3.42013,-1.402501 0.66438,-0.369088 1.11957,-0.67665 1.36562,-0.664349 0.24606,0.01229 2.12836,0.356776 2.7804,0.209145 0.65205,-0.14763 1.42711,-0.713552 1.68546,-0.775066 0.25836,-0.06156 4.0845,0.565921 4.83495,0.652047 0.75047,0.08614 3.40713,-0.38947 3.40713,-0.38947 0,0 -1.66016,0.463275 -2.63207,0.549402 -0.9719,0.08614 -3.19868,0.08614 -3.7154,0.221447 -0.51671,0.135329 -1.96842,0.516707 -2.81731,0.652036 -0.84888,0.135331 -2.59585,-0.02458 -3.2971,-0.02458 -0.70125,0 -2.78042,0.701241 -3.44476,0.787367 -0.66434,0.08614 -1.58705,0.184544 -1.58705,0.184544 z"
       id="path5172"
       inkscape:connector-curvature="0"
       sodipodi:nodetypes="sccccccccssccs" />
    <path
       style="display:inline;fill:#c69473;fill-opacity:1;stroke:none;stroke-width:0.27557939px;stroke-linecap:butt;stroke-linejoin:miter;stroke-opacity:1"
       d="m 107.94435,96.676731 c 0.49211,0.147632 1.08265,0.885785 1.55013,1.746978 0.46751,0.861182 2.6328,3.112571 4.9826,2.989541 2.34981,-0.12302 5.22863,-0.33217 7.08633,-1.845398 1.8577,-1.51323 3.00186,-3.395527 3.32173,-4.059876 0.31987,-0.664338 0.73308,-1.107741 0.70847,-1.218468 -0.0246,-0.110729 -2.25862,0.652547 -2.93527,1.009323 -0.67664,0.356776 -4.2075,2.239083 -6.06519,2.448229 -1.85771,0.209145 -4.53969,-0.01229 -5.49934,-0.40599 -0.9596,-0.393679 -3.23559,-0.910396 -3.14946,-0.664339 z"
       id="path5174"
       inkscape:connector-curvature="0"
       sodipodi:nodetypes="cccccccscc" />
    <path
       style="display:inline;fill:#f8f6f5;fill-opacity:0.89690719;stroke:none;stroke-width:0.27557939px;stroke-linecap:butt;stroke-linejoin:miter;stroke-opacity:1"
       d="m 121.66206,94.915758 c -1.01973,0.038 -2.21047,0.06688 -2.57172,0.161473 -0.5167,0.135328 -1.96827,0.517017 -2.81715,0.652346 -0.84887,0.135331 -2.59601,-0.02475 -3.29726,-0.02475 -0.0751,0 -0.17239,0.01138 -0.27559,0.02582 l -0.5237,0.257278 c 0.20915,0.861183 0.22137,0.971528 0.3321,1.057644 0.11072,0.08614 0.79936,0.307568 0.89778,0.172237 0.0984,-0.135329 0.11088,-0.122746 0.28311,-0.03661 0.17225,0.08614 0.17225,0.418292 0.77507,0.344474 0.60283,-0.07385 1.00883,-0.03679 1.03342,-0.159857 0.0246,-0.123027 0.0248,-0.196759 0.12326,-0.159856 0.0984,0.03687 0.0491,0.110262 0.22122,0.184076 0.17224,0.07385 1.26717,-0.08613 1.37789,-0.172237 0.11073,-0.08614 0.16001,-0.294876 0.27074,-0.282577 0.11071,0.01229 0.0738,0.233607 0.34448,0.14748 0.27066,-0.08614 0.99636,-0.258359 1.09478,-0.344475 0.0984,-0.08614 0.25874,-0.344554 0.32025,-0.356853 0.0614,-0.01229 0.0858,0.135478 0.29496,0.110876 0.20915,-0.02458 1.21804,-0.393916 1.21804,-0.467729 0,-0.07385 0.0864,-0.245977 0.12325,-0.245977 0.0368,0 -0.0124,0.196692 0.0738,0.147477 0.0861,-0.04916 0.52863,-0.196684 0.62705,-0.319714 0.0967,-0.120845 0.0751,-0.67081 0.0742,-0.690564 z"
       id="path5176"
       inkscape:connector-curvature="0"
       sodipodi:nodetypes="accscccccccccccccccsscca" />
    <path
       style="display:inline;fill:#9c6a49;fill-opacity:0.44329894;stroke:none;stroke-width:0.27557939px;stroke-linecap:butt;stroke-linejoin:miter;stroke-opacity:1"
       d="m 113.67741,103.88609 c -0.0739,-0.0984 1.52553,-0.76277 3.42014,-0.93501 1.89461,-0.17223 4.13369,-0.19685 4.01066,-0.0739 -0.12303,0.12303 -4.42895,0.66435 -5.21632,0.83659 -0.78737,0.17224 -2.2883,0.29526 -2.21448,0.17224 z"
       id="path5186"
       inkscape:connector-curvature="0" />
    <path
       style="display:inline;fill:#9c6a49;fill-opacity:0.44329894;stroke:none;stroke-width:0.27557939px;stroke-linecap:butt;stroke-linejoin:miter;stroke-opacity:1"
       d="m 130.52568,104.02925 c -0.45236,0.1044 -0.99921,0.9593 -2.05217,2.05438 -1.05296,1.09509 -3.65453,4.41789 -6.8559,4.59188 -3.20134,0.17399 -6.75065,-0.0348 -8.03814,-1.1831 -1.28749,-1.14831 -3.37535,-3.51452 -4.21047,-3.96688 -0.83513,-0.45237 -1.25271,-0.45237 -1.25271,-0.45237 0,0 1.53108,0.48716 3.09693,2.36621 1.56591,1.87905 2.12267,2.74898 4.0713,3.16654 1.94865,0.41757 5.54988,0.36356 7.51619,0.17399 1.96633,-0.18956 3.4085,-2.00542 4.65464,-3.25321 1.34597,-1.3478 3.13993,-3.11467 3.07033,-3.49744 z"
       id="path5190"
       inkscape:connector-curvature="0"
       sodipodi:nodetypes="cccsccscssc" />
    <path
       style="fill:#9c6a49;fill-opacity:0.44329894;stroke:none;stroke-width:0.27557939px;stroke-linecap:butt;stroke-linejoin:miter;stroke-opacity:1"
       d="m 139.71214,90.59755 c -0.27839,1.078711 -2.15743,6.472266 -2.95776,7.968551 -0.80034,1.496269 -2.22702,2.679379 -2.05304,2.679379 0.17399,0 2.05304,-1.391886 3.30574,-5.149981 1.25269,-3.758093 1.84425,-5.289167 1.70506,-5.497949 z"
       id="path5215"
       inkscape:connector-curvature="0" />
    <path
       style="fill:#9c6a49;fill-opacity:0.26213594;stroke:none;stroke-width:0.27557939px;stroke-linecap:butt;stroke-linejoin:miter;stroke-opacity:1"
       d="m 119.59937,78.070575 c 2.22703,0 4.73242,5.567544 5.98514,7.029024 1.25269,1.461481 2.92296,2.366205 2.36621,2.4358 -0.55674,0.06959 -4.10609,-1.600669 -5.08041,-3.479713 -0.97433,-1.879046 -1.73986,-2.783774 -1.80945,-2.157426 -0.0696,0.62635 -0.83513,2.018235 -1.11351,2.018235 -0.27838,0 0.97431,-1.600669 0.97431,-3.062149 0,-1.461481 -1.32229,-2.783771 -1.32229,-2.783771 z"
       id="path5217"
       inkscape:connector-curvature="0" />
    <path
       style="fill:#9c6a49;fill-opacity:0.2010309;stroke:none;stroke-width:0.27557939px;stroke-linecap:butt;stroke-linejoin:miter;stroke-opacity:1"
       d="m 125.7237,94.286049 c 0.48715,-0.139194 2.15741,-0.626352 2.57498,0.278378 0.41757,0.90472 3.34051,4.106058 2.71416,4.106058 -0.62635,0 -2.78374,-2.435792 -3.75805,-2.92296 -0.97434,-0.487158 -2.01825,-1.252695 -1.53109,-1.461476 z"
       id="path5219"
       inkscape:connector-curvature="0" />
    <path
       style="fill:#9c6a49;fill-opacity:0.2010309;stroke:none;stroke-width:0.27557939px;stroke-linecap:butt;stroke-linejoin:miter;stroke-opacity:1"
       d="m 107.90751,96.930633 c -0.48717,-0.208781 -1.6007,1.043914 -1.73988,2.227022 -0.1392,1.183095 -0.1392,2.505385 0.0696,2.227015 0.20879,-0.27838 1.04394,-3.966879 1.67029,-4.454037 z"
       id="path5221"
       inkscape:connector-curvature="0" />
    <path
       style="fill:#9c6a49;fill-opacity:0.26213594;stroke:none;stroke-width:0.27557939px;stroke-linecap:butt;stroke-linejoin:miter;stroke-opacity:1"
       d="m 103.12169,76.992486 c 2.3621,-0.393687 4.19426,-8.438936 4.17686,-8.804305 -0.0174,-0.365372 -1.04393,-0.713342 -1.4441,-0.05219 -0.40017,0.661145 -1.02652,4.24525 -1.47888,5.532746 -0.45235,1.287493 -1.84661,3.359174 -1.25388,3.323753 z"
       id="path5223"
       inkscape:connector-curvature="0" />
    <path
       style="fill:#9c6a49;fill-opacity:0.26213594;stroke:none;stroke-width:0.27557939px;stroke-linecap:butt;stroke-linejoin:miter;stroke-opacity:1"
       d="m 117.99871,66.030759 c 0.62635,-0.939525 1.42668,-0.487162 1.94864,-0.243583 0.52196,0.243583 1.67026,1.844249 2.78377,1.844249 1.11351,0 2.15744,-0.521955 1.91386,-0.173985 -0.24359,0.347972 -1.70507,1.078713 -1.14832,1.461481 0.55676,0.382769 -1.11351,-0.278377 -1.2179,0.382769 -0.10439,0.661145 1.84424,1.287496 1.73986,1.600669 -0.10439,0.313175 -1.77466,1.357088 -2.22702,1.009118 -0.45236,-0.347972 -3.82769,-2.679382 -3.79289,-5.880718 z"
       id="path5225"
       inkscape:connector-curvature="0" />
    <path
       style="fill:#f1bc99;fill-opacity:1;stroke:none;stroke-width:0.27557939px;stroke-linecap:butt;stroke-linejoin:miter;stroke-opacity:1"
       d="m 60.259284,185.84635 c 1.427106,-2.41132 5.314737,-8.21817 5.46237,-9.98974 0.14763,-1.77159 0.442895,-4.42896 0.787369,-5.41317 0.344474,-0.98422 1.919215,-2.70659 1.968425,-5.16712 0.04921,-2.46052 0.147632,-5.06869 -0.787371,-6.34817 -0.935,-1.27947 -3.936846,-1.82079 -4.970268,0.49211 -1.033419,2.31289 -1.820788,7.48001 -2.411316,8.41501 -0.590528,0.935 -7.480014,6.39739 -9.842123,8.66107 -2.362105,2.26368 -3.247898,2.75579 -3.592372,4.57659 -0.344474,1.82079 -0.541318,3.73999 -1.525528,5.26553 -0.984213,1.52552 -2.214478,2.7558 -1.328687,4.67501 0.88579,1.91921 1.722372,2.50974 1.525528,3.78921 -0.196841,1.27947 0.492109,2.85422 0.787369,3.88764 0.295264,1.03343 -0.639736,2.11606 0.344474,4.97027 0.984212,2.85421 2.41132,9.44844 2.509744,11.5645 0.09842,2.11605 0.147631,3.54316 -0.04921,4.28132 -0.196843,0.73816 -1.033423,2.55895 -0.787372,3.00185 0.246055,0.44289 1.820794,1.37789 2.657373,0.39368 0.836578,-0.98421 1.67316,-2.50974 2.41132,-3.54315 0.738159,-1.03344 1.62395,-1.32869 1.62395,-2.2637 0,-0.935 0.196842,-3.34633 0.295265,-5.21632 0.09842,-1.87001 -0.639739,-4.18291 -0.639739,-4.18291 0,0 1.082633,-0.88579 1.279475,-1.96842 0.196843,-1.08263 0.09843,-4.37975 0.04921,-5.41316 -0.04921,-1.03343 -0.344474,-1.87001 0.147631,-2.50975 0.492105,-0.63973 1.525528,-1.82079 2.26369,-4.67501 0.738157,-2.85422 2.362106,-6.54501 1.820791,-7.28317 z"
       id="path5245"
       inkscape:connector-curvature="0" />
    <path
       style="fill:#533f32;fill-opacity:1;stroke:none;stroke-width:0.27557939px;stroke-linecap:butt;stroke-linejoin:miter;stroke-opacity:1"
       d="m 49.334529,219.30957 c 0.393683,0.83658 0.738158,1.32869 1.673159,1.3779 0.935002,0.0492 2.558951,-1.67316 2.558951,-1.67316 0,0 -1.804326,1.58542 -2.535067,1.44622 -0.730739,-0.13918 -1.323656,-0.49248 -1.697043,-1.15096 z"
       id="path5247"
       inkscape:connector-curvature="0" />
    <path
       style="fill:#533f32;fill-opacity:1;stroke:none;stroke-width:0.27557939px;stroke-linecap:butt;stroke-linejoin:miter;stroke-opacity:1"
       d="m 46.160443,193.69544 c 0.393687,1.08264 1.279476,3.49395 1.943822,4.05988 0.664342,0.56592 0.910395,0.51672 0.934999,1.08264 0.02461,0.56592 0.221447,1.62394 0.836582,2.70658 0.61513,1.08263 0.664341,1.50093 0.664341,2.18987 0,0.68895 -0.196841,2.80501 0.147633,3.69079 0.344474,0.8858 0.910397,1.77159 1.746974,1.57475 0.836582,-0.19685 2.263685,-1.30409 2.263685,-1.30409 0,0 -1.96842,1.3779 -2.558948,1.13185 -0.590525,-0.24605 -1.230264,-0.73816 -1.377897,-1.79618 -0.14763,-1.05803 -0.09842,-2.97725 -0.09842,-3.19869 0,-0.22145 0.935003,-1.08264 0.836579,-1.18106 -0.09842,-0.0984 -0.787369,0.86117 -0.787369,0.66435 0,-0.19685 -0.270658,-1.25488 -0.639738,-1.8208 -0.369077,-0.56592 -0.959606,-2.53436 -0.934999,-2.90343 0.02461,-0.36907 -0.811975,-0.4675 -1.131845,-1.30407 -0.319869,-0.83658 -1.353291,-2.63278 -1.427108,-3.1987 -0.07382,-0.56592 0.147633,-1.72238 0.442895,-1.99302 0.295263,-0.27066 0.935002,-0.34448 0.836582,-0.44291 -0.09842,-0.0984 -1.00882,0.22145 -1.279477,0.0246 -0.270658,-0.19685 -0.319867,-0.61514 -0.565922,-0.14764 -0.246054,0.4675 -0.319867,1.42711 0.147631,2.16527 z"
       id="path5249"
       inkscape:connector-curvature="0" />
    <path
       style="fill:#533f32;fill-opacity:1;stroke:none;stroke-width:0.27557939px;stroke-linecap:butt;stroke-linejoin:miter;stroke-opacity:1"
       d="m 48.369589,184.86305 c 0.313175,1.07871 1.322293,1.49627 1.11351,2.08782 -0.208782,0.59156 -0.730741,1.49629 -0.904725,2.12263 -0.173987,0.62635 -0.556756,1.00911 -0.139189,1.94864 0.417565,0.93952 1.043914,1.80945 1.80945,1.60067 0.765537,-0.20877 2.992555,-1.46148 3.270935,-2.12262 0.278376,-0.66116 0.695942,-0.76554 0.835129,-1.42669 0.13919,-0.66114 0.417567,-2.36621 0.800336,-3.02736 0.382769,-0.66114 1.148306,-1.28749 1.35709,-2.29661 0.208782,-1.00911 0.278376,-2.2966 0.0348,-2.95775 -0.243579,-0.66115 -2.122627,-2.22702 -2.122627,-2.22702 0,0 2.053036,1.3571 2.331411,2.29661 0.278377,0.93953 0.139187,2.19223 -0.06959,3.20134 -0.20878,1.00911 -1.148304,1.77466 -1.357086,2.67939 -0.208786,0.90472 -0.974322,2.92295 -1.217902,3.27093 -0.243579,0.34796 -0.347971,0.66114 -0.835135,1.1831 -0.48716,0.52195 -2.470595,1.98344 -3.444915,1.70506 -0.974321,-0.27838 -1.983437,-0.97432 -1.983437,-2.01824 0,-1.04392 0.521956,-2.71417 0.556754,-3.58411 0.0348,-0.86992 -0.800336,-2.05303 -0.0348,-2.43579 z"
       id="path5251"
       inkscape:connector-curvature="0" />
  </g>
  <g
     inkscape:groupmode="layer"
     id="layer3"
     inkscape:label="Hair and Shadow"
     style="display:inline">
    <path
       style="display:inline;fill:#9c5d26;fill-opacity:0.17010307;stroke:none;stroke-width:0.27557939px;stroke-linecap:butt;stroke-linejoin:miter;stroke-opacity:1"
       d="m 99.086597,27.782027 -8.576869,0.05006 c -3.61131,4.816976 -5.309693,11.110127 -6.194616,15.441598 -1.322292,6.47227 3.479779,23.174461 2.296676,24.357562 -1.183104,1.183103 1.461488,5.080568 2.087836,6.194076 0.626351,1.11351 2.157434,6.124169 2.783782,8.420782 0.626347,2.296612 2.574946,3.897404 2.574946,3.897404 0,0 2.296758,6.332839 4.510996,10.041962 2.214252,3.709131 10.033952,11.741079 11.634612,13.411349 1.60068,1.67027 2.15752,6.61122 5.08049,9.395 0,0 1.5165,2.85984 10.71155,1.98556 -1.00172,-1.19485 -2.54547,-3.18734 -2.56905,-4.17781 -0.0347,-1.46148 2.88798,-2.36585 2.6444,-3.40976 -0.24357,-1.04391 -3.58404,-0.31324 -3.75802,-1.60074 -0.17398,-1.28749 3.16684,-1.63566 3.13204,-2.12282 -0.0347,-0.48715 -1.46164,-0.0693 -3.30588,0.45266 -1.84425,0.52196 -2.71422,-1.63547 -3.58416,-1.39188 -0.86992,0.24359 -3.4794,-0.27832 -4.31454,-1.87901 -0.83513,-1.60066 2.22653,-2.81877 4.9755,-3.51471 2.74897,-0.69594 3.6189,0.24356 4.07126,-0.10442 0.45237,-0.34797 -1.46136,-0.97452 -2.95764,-1.42688 -1.49628,-0.45237 -5.81118,-0.0693 -7.06387,-0.45212 -1.2527,-0.38276 -1.60073,-1.46143 -1.49632,-2.574943 0.1044,-1.113508 1.98165,-1.015504 2.47377,-1.507612 0.4921,-0.492104 -1.74263,-4.7562 -1.70784,-6.600449 0.0347,-1.844249 0.45213,-2.539856 1.14806,-3.514175 0.69595,-0.974322 2.12263,-1.566014 2.08785,-1.913988 -0.0348,-0.347968 -0.90461,0.522041 -1.56575,0.313257 -0.66115,-0.208782 -0.3827,-1.774797 -1.07864,-2.60993 -0.69594,-0.83513 -2.78365,-1.113627 -3.54918,-2.505512 -0.76547,-1.39189 1.12191,-14.861148 0.0393,-18.010627 -1.08262,-3.149478 -9.3497,-8.464146 -12.696024,-15.058368 -3.34632,-6.594221 -1.082556,-13.877085 2.165341,-19.585517 z"
       id="path4564"
       inkscape:connector-curvature="0" />
    <path
       style="display:inline;fill:#43351d;fill-opacity:1;stroke:none;stroke-width:0.27557939px;stroke-linecap:butt;stroke-linejoin:miter;stroke-opacity:1"
       d="m 140.54727,69.580067 c 0.90472,0 0.97432,-5.567546 1.60066,-7.655373 0.62635,-2.087832 1.80945,-6.124301 1.80945,-8.003348 0,-1.879046 -5.28915,-22.339774 -6.33308,-23.662066 -1.04392,-1.322291 0.55675,-0.208782 0.55675,-0.208782 0,0 -1.53107,-2.366208 -1.53107,-2.992556 0,-0.626347 -2.4358,-2.087828 -2.92296,-2.366208 -0.48715,-0.278375 -3.75809,-2.714176 -4.66279,-4.036469 -0.90474,-1.32229 -5.2892,-4.871601 -6.75067,-4.941196 -1.46149,-0.0696 -4.31485,0.487161 -4.31485,0.487161 0,0 -0.20879,-1.879046 -2.36621,-2.505396 -2.15742,-0.626349 -6.33309,-0.48716 -8.00337,-0.347972 -1.67029,0.139189 -5.98511,0.0696 -5.98511,0.0696 0,0 0.69594,0.695944 -0.62635,0.904728 -1.322287,0.208782 -5.35875,0.97432 -6.402665,2.227017 -1.043918,1.252698 -1.531077,3.270932 -2.783777,2.992555 -1.252699,-0.278376 -0.765537,-2.227017 -0.765537,-2.227017 0,0 -0.904728,1.252697 -0.556754,2.574988 0.347972,1.322294 -0.695945,3.549311 -1.879046,6.054706 -1.183104,2.505394 -2.157426,3.549309 -2.157426,3.549309 0,0 0.417568,1.113508 -0.139186,2.505397 -0.556756,1.391886 -2.922962,3.06215 -2.853368,4.245251 0.06959,1.183104 0.417565,1.322294 0.417565,1.322294 0,0 0.695943,-0.765537 0.487162,0 -0.208785,0.765537 -1.391886,2.366208 -1.531076,4.593225 -0.13919,2.227018 0.347972,13.153324 1.113509,16.424258 0.765537,3.270931 2.435803,7.933749 3.340527,9.116853 0.904727,1.183104 2.644583,3.410122 3.340527,6.263488 0.695943,2.853368 0.939524,4.732415 1.148306,4.975994 0.208785,0.243579 -1.635468,-9.395232 -1.70506,-10.299957 -0.06959,-0.904728 -0.208785,-2.366207 -0.765538,-4.488834 -0.556754,-2.122628 -0.695942,-5.567544 -0.452362,-6.437474 0.243579,-0.86993 -2.296613,-6.402677 -2.540192,-9.604014 -0.243583,-3.201341 -0.273431,-7.301434 1.814396,-11.3727 2.08783,-4.071267 7.890094,-8.833532 9.664747,-8.763938 1.774649,0.06958 1.88894,2.522282 1.88894,2.522282 0,0 1.246728,-3.333533 2.708198,-3.472722 1.46145,-0.13919 2.60975,1.983438 1.80943,2.679381 -0.80033,0.695942 -1.1483,0.487161 -1.1483,0.487161 0,0 1.1831,0.695943 1.77464,-0.313176 0.59155,-1.009116 1.63548,-2.261815 2.36623,-1.56587 0.73074,0.695942 0.38277,1.287493 0.86993,2.505395 0.48717,1.217901 2.78376,2.574989 5.15001,1.46148 2.3662,-1.113509 2.71206,-4.28602 1.94652,-5.190748 -0.76554,-0.904724 -1.43163,-1.023647 -1.59855,-1.07274 -0.074,-0.02175 1.52672,0.543703 1.50062,2.013884 -0.0783,0.826433 -0.22247,0.952596 -0.22247,0.952596 0,0 0.20197,-0.487441 -0.008,-1.287772 -0.20878,-0.800337 -0.98692,-1.034749 -0.98692,-1.034749 0,0 0.53071,0.498376 0.66988,1.194319 0.16094,1.074362 -0.92198,1.632994 -1.4341,2.053034 -0.57363,0.43234 -2.82595,0.70191 -3.13913,-1.594699 -0.31315,-2.296613 2.33145,-3.479716 3.65373,-3.20134 1.32229,0.278377 2.33142,1.426683 4.03648,2.087831 1.70505,0.661146 4.14085,-0.765537 4.14085,-0.765537 0,0 -2.78378,0.800331 -3.27093,-0.765539 -0.48716,-1.565872 2.74898,-2.470598 3.51451,-1.148306 0.76554,1.322291 1.21791,2.331408 0.52196,3.758094 -0.69594,1.426682 -1.42668,1.183103 -1.42668,1.183103 0,0 2.36621,0.487159 2.57499,-1.043917 0.20878,-1.531075 2.33143,-3.549308 4.48886,-0.800334 2.1574,2.748975 5.42832,9.534422 5.42832,12.874948 0,3.340527 1.4267,7.864158 2.5054,10.682726 1.07871,2.818571 0.93953,3.827688 0.93953,3.827688 0,0 0.0696,-2.57499 0.41756,-1.879046 0.34797,0.695942 0.90472,5.39356 1.39189,7.724967 0.48716,2.33141 1.56588,5.637141 1.2875,6.576665 -0.27838,0.939522 -0.86994,1.252698 -0.86994,1.252698 0,0 0.90473,-0.313176 1.04391,-0.765538 0.1392,-0.452363 0.2088,1.670263 0.2088,1.670263 z"
       id="path4546"
       inkscape:connector-curvature="0"
       sodipodi:nodetypes="ccsccsccccsscscsccccccccsscsccssssccssccccscscccccccsscssccsssscccscccc" />
  </g>
</svg>
