<?xml version="1.0" encoding="UTF-8" standalone="no"?>
<!-- Created with Inkscape (http://www.inkscape.org/) -->

<svg
   xmlns:dc="http://purl.org/dc/elements/1.1/"
   xmlns:cc="http://creativecommons.org/ns#"
   xmlns:rdf="http://www.w3.org/1999/02/22-rdf-syntax-ns#"
   xmlns:svg="http://www.w3.org/2000/svg"
   xmlns="http://www.w3.org/2000/svg"
   xmlns:xlink="http://www.w3.org/1999/xlink"
   xmlns:sodipodi="http://sodipodi.sourceforge.net/DTD/sodipodi-0.dtd"
   xmlns:inkscape="http://www.inkscape.org/namespaces/inkscape"
   width="1000"
   height="1000"
   id="svg2"
   version="1.1"
   inkscape:version="0.48.2 r9819"
   sodipodi:docname="captain-beefheart.svg"
   inkscape:export-filename="/Users/agarone/Desktop/MWM Art/captain-beefheart/captain-beefheart.png"
   inkscape:export-xdpi="90"
   inkscape:export-ydpi="90">
  <defs
     id="defs4">
    <linearGradient
       id="linearGradient3994">
      <stop
         style="stop-color:#4b1f0f;stop-opacity:1;"
         offset="0"
         id="stop3996" />
      <stop
         style="stop-color:#712f17;stop-opacity:1;"
         offset="1"
         id="stop3998" />
    </linearGradient>
    <linearGradient
       id="linearGradient3986">
      <stop
         style="stop-color:#ebc48c;stop-opacity:1;"
         offset="0"
         id="stop3988" />
      <stop
         style="stop-color:#f3dbb9;stop-opacity:1;"
         offset="1"
         id="stop3990" />
    </linearGradient>
    <linearGradient
       id="linearGradient3966">
      <stop
         style="stop-color:#1d2452;stop-opacity:1;"
         offset="0"
         id="stop3968" />
      <stop
         style="stop-color:#0e1127;stop-opacity:1;"
         offset="1"
         id="stop3970" />
    </linearGradient>
    <linearGradient
       id="linearGradient3958">
      <stop
         style="stop-color:#8d5a36;stop-opacity:1;"
         offset="0"
         id="stop3960" />
      <stop
         style="stop-color:#2f1e12;stop-opacity:1;"
         offset="1"
         id="stop3962" />
    </linearGradient>
    <linearGradient
       id="linearGradient3932">
      <stop
         style="stop-color:#1d5224;stop-opacity:1;"
         offset="0"
         id="stop3934" />
      <stop
         style="stop-color:#0b200e;stop-opacity:1;"
         offset="1"
         id="stop3936" />
    </linearGradient>
    <linearGradient
       id="linearGradient3924">
      <stop
         style="stop-color:#ba9c36;stop-opacity:1;"
         offset="0"
         id="stop3926" />
      <stop
         style="stop-color:#9b5a2d;stop-opacity:1;"
         offset="1"
         id="stop3928" />
    </linearGradient>
    <linearGradient
       id="linearGradient3914">
      <stop
         style="stop-color:#bc6a06;stop-opacity:1;"
         offset="0"
         id="stop3916" />
      <stop
         style="stop-color:#ad3106;stop-opacity:1;"
         offset="1"
         id="stop3918" />
    </linearGradient>
    <radialGradient
       inkscape:collect="always"
       xlink:href="#linearGradient3914"
       id="radialGradient3922"
       cx="508.08035"
       cy="477.58063"
       fx="508.08035"
       fy="477.58063"
       r="110.53654"
       gradientTransform="matrix(1,0,0,1.2476021,0,-118.24998)"
       gradientUnits="userSpaceOnUse" />
    <radialGradient
       inkscape:collect="always"
       xlink:href="#linearGradient3924"
       id="radialGradient3930"
       cx="510.35126"
       cy="443.95163"
       fx="510.35126"
       fy="443.95163"
       r="72.356419"
       gradientTransform="matrix(-0.92082763,0.30351662,-0.68006477,-2.0632229,1282.2126,1180.9341)"
       gradientUnits="userSpaceOnUse" />
    <linearGradient
       inkscape:collect="always"
       xlink:href="#linearGradient3932"
       id="linearGradient3938"
       x1="312.85715"
       y1="1000"
       x2="221.88858"
       y2="779.72119"
       gradientUnits="userSpaceOnUse" />
    <linearGradient
       inkscape:collect="always"
       xlink:href="#linearGradient3932"
       id="linearGradient3946"
       x1="598.92853"
       y1="1031.25"
       x2="506.78571"
       y2="716.96429"
       gradientUnits="userSpaceOnUse" />
    <linearGradient
       inkscape:collect="always"
       xlink:href="#linearGradient3924"
       id="linearGradient3954"
       x1="403.10257"
       y1="1000"
       x2="317.14285"
       y2="743.75"
       gradientUnits="userSpaceOnUse" />
    <linearGradient
       inkscape:collect="always"
       xlink:href="#linearGradient3924"
       id="linearGradient3956"
       x1="616.78571"
       y1="1000"
       x2="628.92853"
       y2="773.39288"
       gradientUnits="userSpaceOnUse" />
    <linearGradient
       inkscape:collect="always"
       xlink:href="#linearGradient3958"
       id="linearGradient3964"
       x1="395.01831"
       y1="708.15796"
       x2="574.41562"
       y2="558.15798"
       gradientUnits="userSpaceOnUse" />
    <linearGradient
       inkscape:collect="always"
       xlink:href="#linearGradient3966"
       id="linearGradient3972"
       x1="492.85715"
       y1="896.07141"
       x2="490.87997"
       y2="670.35712"
       gradientUnits="userSpaceOnUse" />
    <linearGradient
       inkscape:collect="always"
       xlink:href="#linearGradient3986"
       id="linearGradient3992"
       x1="383.53165"
       y1="671.99902"
       x2="295.27695"
       y2="511.38477"
       gradientUnits="userSpaceOnUse" />
    <linearGradient
       inkscape:collect="always"
       xlink:href="#linearGradient3994"
       id="linearGradient4000"
       x1="425.36853"
       y1="496.42838"
       x2="449.91925"
       y2="469.28546"
       gradientUnits="userSpaceOnUse" />
  </defs>
  <sodipodi:namedview
     id="base"
     pagecolor="#ffffff"
     bordercolor="#666666"
     borderopacity="1.0"
     inkscape:pageopacity="0.0"
     inkscape:pageshadow="2"
     inkscape:zoom="0.98994949"
     inkscape:cx="397.66131"
     inkscape:cy="453.96008"
     inkscape:document-units="px"
     inkscape:current-layer="layer2"
     showgrid="false"
     showguides="true"
     inkscape:guide-bbox="true"
     inkscape:window-width="1928"
     inkscape:window-height="1090"
     inkscape:window-x="0"
     inkscape:window-y="0"
     inkscape:window-maximized="0">
    <sodipodi:guide
       orientation="0,1"
       position="0,1000"
       id="guide3835" />
    <sodipodi:guide
       orientation="1,0"
       position="1000,1000"
       id="guide3837" />
    <sodipodi:guide
       orientation="1,0"
       position="0,0"
       id="guide3839" />
    <sodipodi:guide
       orientation="0,1"
       position="0,0"
       id="guide3841" />
  </sodipodi:namedview>
  <metadata
     id="metadata7">
    <rdf:RDF>
      <cc:Work
         rdf:about="">
        <dc:format>image/svg+xml</dc:format>
        <dc:type
           rdf:resource="http://purl.org/dc/dcmitype/StillImage" />
        <dc:title></dc:title>
      </cc:Work>
    </rdf:RDF>
  </metadata>
  <g
     inkscape:groupmode="layer"
     id="layer2"
     inkscape:label="Jacket"
     style="display:inline">
    <path
       style="fill:url(#linearGradient3946);fill-opacity:1;stroke:none"
       d="m 18.214286,1000 c 0,0 7.5,-6.07143 10,-11.07143 2.5,-5 7.142857,-16.78571 10,-19.64286 2.857143,-2.85714 9.642857,-6.78571 11.428571,-11.07142 1.785715,-4.28572 3.214286,-13.57143 5,-16.07143 1.785715,-2.5 8.928572,-5 8.214286,-11.07143 C 62.142857,925 61.785714,915.71429 65,913.21429 c 3.214286,-2.5 13.928572,-15.71429 12.142857,-25 -1.785714,-9.28572 6.071429,-13.57143 7.5,-17.14286 1.428572,-3.57143 -1.785714,-8.21429 0.714286,-14.64286 2.5,-6.42857 6.428571,-7.85714 7.5,-12.85714 1.071429,-5 -2.857143,-10.71429 0.714286,-19.64286 3.571428,-8.92857 7.857141,-5.35714 7.857141,-8.21428 0,-2.85715 -4.999998,-3.92858 -2.499998,-14.64286 C 101.42857,790.35714 109.28571,795 109.64286,792.5 c 0.35714,-2.5 -2.5,-9.64286 3.57143,-20.35714 6.07142,-10.71429 8.57142,-7.5 8.57142,-12.5 0,-5 -3.92857,-10.35715 -3.21428,-14.28572 0.71428,-3.92857 5.35714,-2.85714 6.78571,-10.71428 1.42857,-7.85715 5,-21.42857 11.78572,-26.42857 6.78571,-5 11.78571,-2.5 16.42857,-5.35715 4.64286,-2.85714 21.78571,-16.42857 32.85714,-18.92857 11.07143,-2.5 31.78572,-5.71428 45.71429,-10 13.92857,-4.28571 231.07143,-78.57143 231.07143,-78.57143 l 237.14285,80.35715 c 0,0 21.78572,2.5 35.71429,7.14285 C 750,687.5 786.78572,705 790.71429,706.07143 c 3.92857,1.07143 7.5,-1.42857 11.42857,7.14286 3.92857,8.57142 16.07143,66.07142 21.78571,80 5.71429,13.92857 23.57143,42.14285 29.28572,63.21428 C 858.92857,877.5 891.07143,1000 891.07143,1000 z"
       id="path3843"
       inkscape:connector-curvature="0" />
  </g>
  <g
     inkscape:groupmode="layer"
     id="layer6"
     inkscape:label="Shirt"
     style="display:inline">
    <path
       style="fill:url(#linearGradient3972);fill-opacity:1;stroke:none"
       d="m 556.07143,633.57143 c 0,0 -44.28571,102.5 -52.14286,109.28571 -7.85714,6.78572 -151.07143,-86.42857 -151.07143,-86.42857 L 454.28572,1000 l 93.92857,0 c 0,0 95.35714,-346.07143 7.85714,-366.42857 z"
       id="path3857"
       inkscape:connector-curvature="0" />
  </g>
  <g
     inkscape:groupmode="layer"
     id="layer4"
     inkscape:label="Scarf"
     style="display:inline">
    <path
       style="fill:url(#linearGradient3954);fill-opacity:1;stroke:none"
       d="m 309.64286,618.92857 c 0,0 -12.85715,10.71429 -21.07143,13.57143 -8.21429,2.85714 -23.21429,5.71429 -27.14286,16.42857 -3.92857,10.71429 0,31.42857 -3.92857,37.5 -3.92857,6.07143 -12.85714,15.35714 -9.28571,22.14286 3.57142,6.78571 17.5,18.92857 14.64285,25.35714 C 260,740.35714 297.5,1000 297.5,1000 l 170.35714,0 c 0,0 -16.42857,-72.5 -21.07143,-83.21429 C 442.14286,906.07143 423.21429,841.42857 425,830 426.78571,818.57143 309.64286,618.92857 309.64286,618.92857 z"
       id="path3849"
       inkscape:connector-curvature="0" />
    <path
       style="fill:url(#linearGradient3956);fill-opacity:1;stroke:none"
       d="m 552.85714,603.92857 c 0,0 44.64286,0 52.85715,2.5 8.21428,2.5 25.71428,18.57143 31.78571,18.57143 6.07143,0 33.57143,6.42857 38.21429,12.5 4.64285,6.07143 24.28571,16.42857 24.28571,27.85714 0,11.42857 2.85714,90.35715 8.57143,101.78572 5.71429,11.42857 30.71429,137.85714 29.28571,152.5 -1.42857,14.64285 -7.14285,28.92857 -7.14285,38.21428 0,9.28572 9.64285,42.14286 9.64285,42.14286 l -222.14285,0 c 0,0 24.28571,-32.85714 23.57143,-46.42857 C 541.07143,940 547.5,917.14286 552.14286,911.78571 c 4.64286,-5.35714 -21.07143,-111.42857 -16.07143,-127.5 5,-16.07142 23.57143,-74.64285 21.42857,-92.85714 -2.14286,-18.21428 -14.28571,-76.42857 -4.64286,-87.5 z"
       id="path3851"
       inkscape:connector-curvature="0" />
  </g>
  <g
     inkscape:groupmode="layer"
     id="layer11"
     inkscape:label="Head"
     style="display:inline">
    <path
       style="fill:url(#linearGradient3964);fill-opacity:1;stroke:none"
       d="m 568.71588,581.79685 c 0,0 12.12183,22.22335 1.01016,40.4061 -11.11168,18.18274 -67.68022,124.24876 -67.68022,124.24876 L 395.9798,681.80195 328.58976,450.71326 378.61287,369.86425 z"
       id="path3885"
       inkscape:connector-curvature="0"
       sodipodi:nodetypes="csccccc" />
  </g>
  <g
     inkscape:groupmode="layer"
     id="layer10"
     inkscape:label="Hair"
     style="display:inline">
    <path
       style="fill:#000000;fill-opacity:1;stroke:none"
       d="m 292.5,436.42857 c 0,0 3.21429,11.42857 1.42857,13.57143 -1.78571,2.14286 -21.78571,8.21428 -27.5,19.64286 -5.71428,11.42857 -19.28571,49.64285 -19.28571,49.64285 l 5,3.21429 c 0,0 5.71428,-18.21429 10,-23.57143 4.28571,-5.35714 -10.35715,25.35714 -9.64286,41.07143 0.71429,15.71429 9.64286,42.14286 11.07143,50.71429 1.42857,8.57142 1.07143,16.42857 1.07143,16.42857 0,0 11.42857,-16.07143 7.85714,-34.28572 -3.57143,-18.21428 2.5,-28.57143 2.5,-28.57143 l 18.21429,44.64286 57.85714,-72.14286 c 0,0 -1.07143,-25.71428 1.42857,-32.85714 2.5,-7.14286 3.92857,-16.42857 3.92857,-16.42857 0,0 1.42857,14.28571 7.85714,20.35714 6.42858,6.07143 0,-31.42857 5,-45.71428 5,-14.28572 15,-23.21429 15,-23.21429 0,0 -12.5,22.5 -12.14285,38.57143 0.35714,16.07143 9.28571,25.71428 9.28571,25.71428 0,0 -3.57143,-24.64285 3.92857,-39.64285 7.5,-15 12.14286,-17.5 12.14286,-17.5 l -13.21429,56.78571 c 0,0 19.64286,-20.35714 21.07143,-32.5 1.42857,-12.14286 28.57143,-86.78571 28.57143,-86.78571 z"
       id="path3880"
       inkscape:connector-curvature="0" />
    <path
       style="fill:#543620;fill-opacity:1;stroke:none"
       d="m 515.71429,344.28571 80.71428,77.14286 c 0,0 12.5,-3.21429 10.35715,-22.5 -2.14286,-19.28571 -36.07143,-54.64286 -36.07143,-54.64286 z"
       id="path3882"
       inkscape:connector-curvature="0" />
  </g>
  <g
     inkscape:groupmode="layer"
     id="layer5"
     inkscape:label="Hand"
     style="display:inline">
    <path
       style="fill:url(#linearGradient3992);fill-opacity:1;stroke:none"
       d="m 303.21429,745 6.42857,-26.78571 -23.92857,52.85714 57.14285,85.71428 c 0,0 45.71429,-66.07142 52.14286,-73.57142 6.42857,-7.5 33.21429,-37.14286 42.5,-47.5 9.28571,-10.35715 21.42857,-30.71429 22.5,-45 1.07143,-14.28572 14.64286,-43.57143 26.07143,-51.78572 11.42857,-8.21428 37.5,-20.71428 37.5,-25 0,-4.28571 -25.35714,-23.57143 -41.42857,-18.92857 -16.07143,4.64286 -28.57143,30 -38.21429,32.5 -9.63045,2.49678 -24.28571,0.35714 -26.07143,-6.78571 -1.78571,-7.14286 -8.21428,-36.07143 -11.78571,-42.85715 -3.57143,-6.78571 1.42857,-27.5 -2.85714,-41.78571 C 398.92857,521.78571 395,479.64286 390,470.35714 385,461.07143 373.92857,448.57143 367.14286,452.5 c -6.78572,3.92857 -7.14286,6.78571 -6.42857,10.35714 0.71428,3.57143 5.35714,42.14286 4.64285,48.21429 -0.71428,6.07143 -2.85714,24.28571 -2.85714,24.28571 0,0 -2.14286,-11.78571 -9.28571,-28.21428 C 346.07143,490.71428 350,485.71428 342.5,468.21428 335,450.71428 322.85714,421.07143 308.57143,427.5 c -14.28572,6.42857 -2.14286,19.64286 0.35714,27.5 2.5,7.85714 8.92857,28.92857 9.64286,39.64286 0.71428,10.71428 2.5,34.64285 2.5,34.64285 0,0 -13.21429,-21.78571 -25.35714,-38.57143 -12.14286,-16.78571 -8.57143,-33.92857 -28.92858,-39.28571 -20.35714,-5.35714 -4.28571,24.64286 1.42858,40.71429 5.71428,16.07142 13.92857,38.21428 19.28571,54.28571 C 292.85714,562.5 297.85714,575 297.85714,575 c 0,0 -3.21428,-2.14286 -16.78571,-15 C 267.5,547.14286 265.71429,533.57143 255,523.21428 c -10.71429,-10.35714 -22.5,-16.42857 -28.21429,-6.78571 -5.71428,9.64286 19.28572,34.64286 30,52.85714 10.71429,18.21429 42.5,60.35715 46.42858,72.14286 3.92857,11.78572 15.77248,80.06872 0,103.57143 z"
       id="path3854"
       inkscape:connector-curvature="0"
       sodipodi:nodetypes="ccccsssssssssssssscssssscsssscsssssc" />
  </g>
  <g
     inkscape:groupmode="layer"
     id="layer3"
     inkscape:label="Sleeve">
    <path
       style="fill:url(#linearGradient3938);stroke:none;stroke-width:1px;stroke-linecap:butt;stroke-linejoin:miter;stroke-opacity:1;fill-opacity:1"
       d="m 25.714286,1000 c 0,0 30.357143,-38.92857 42.142857,-46.07143 C 79.642857,946.78571 91.071429,936.07143 93.928572,930 c 2.857142,-6.07143 29.999998,-31.78571 38.214288,-37.5 8.21428,-5.71429 15.71428,-3.92857 20,-9.28571 4.28571,-5.35715 8.21428,-15.71429 16.42857,-22.5 C 176.78571,853.92857 186.42857,855.35714 190,850 c 3.57143,-5.35714 11.07143,-19.64286 25.35714,-32.5 14.28572,-12.85714 23.21429,-17.14286 31.07143,-26.78571 7.85714,-9.64286 49.64286,-57.14286 51.07143,-59.64286 1.42857,-2.5 2.5,-11.78572 4.64286,-12.85714 2.14285,-1.07143 8.21428,2.5 8.21428,2.5 0,0 -3.92857,17.14285 -2.14285,26.42857 1.78571,9.28571 13.21428,67.5 20,81.42857 C 335,842.5 344.28571,855 344.28571,855 l 51.42858,-71.42857 c 0,0 5.71428,38.92857 2.14285,61.07143 C 394.28571,866.78571 387.5,871.42857 383.92857,875 c -3.57143,3.57143 -23.57143,36.78571 -31.07143,46.78571 -7.5,10 -31.07143,29.28572 -39.64285,40.35715 C 304.64286,973.21429 285,1000 285,1000 z"
       id="path3846"
       inkscape:connector-curvature="0" />
    <path
       style="fill:#e6b46d;fill-opacity:1;stroke:none"
       d="m 400.02041,725.74358 c -15.12058,19.4016 -10.66366,20.96039 -40.91118,26.26397 -17.67767,-3.03046 -45.96194,-4.54569 -48.73986,-18.68782 -2.77792,-14.14214 -8.33376,-69.70053 -7.57614,-76.01398 0.75761,-6.31345 3.78807,-7.82868 -4.79823,-22.98097 -8.5863,-15.15229 -51.26524,-73.23606 -57.32616,-84.60028 -6.06091,-11.36421 -12.04786,-20.86349 -12.04786,-20.86349 0,0 9.77502,9.24674 14.06817,14.55004 4.29315,5.3033 15.15229,17.42513 18.43528,23.23351 3.283,5.80837 10.35407,19.69797 16.66752,26.76904 6.31345,7.07107 22.47589,22.72843 26.5165,30.55711 4.04061,7.82869 15.40483,72.73099 21.97082,82.83251 6.56599,10.10153 24.74874,38.89088 40.15357,36.87057 15.40482,-2.0203 17.17259,-5.80838 33.58757,-17.93021 z"
       id="path3974"
       inkscape:connector-curvature="0"
       sodipodi:nodetypes="ccsssscssssssc" />
    <path
       style="fill:#e6b46d;fill-opacity:1;stroke:none"
       d="m 309.86429,588.61538 c 0,0 -6.81853,-25.75889 -13.13198,-40.40611 -6.31345,-14.64721 -11.11168,-21.46574 -17.17259,-37.37564 -6.06092,-15.9099 -14.14214,-32.32488 -17.42513,-38.63834 -3.283,-6.31345 -4.79823,-9.09137 -4.79823,-9.09137 0,0 5.05076,20.45559 8.5863,26.76904 3.53553,6.31346 8.95613,20.05512 12.49166,31.67187 3.53553,11.61676 19.58068,54.94871 19.58068,54.94871 z"
       id="path3976"
       inkscape:connector-curvature="0"
       sodipodi:nodetypes="cssscsscc" />
    <path
       style="fill:#e6b46d;fill-opacity:1;stroke:none"
       d="m 336.88587,561.84633 c 0,0 -6.31345,-38.38579 -9.84898,-53.53808 -3.53554,-15.15229 -8.33376,-29.04189 -10.6066,-38.13326 -2.27285,-9.09137 -10.96375,-22.50128 -10.96375,-22.50128 0,0 4.39775,11.3896 5.91298,17.19798 1.51523,5.80838 5.42676,17.49634 6.31346,22.98097 1.07143,6.62727 1.63252,17.37654 2.10696,26.01143 0.35077,6.38412 1.32397,15.38688 1.32397,15.38688 0,0 4.39775,8.09916 7.42821,15.17023 3.03045,7.07107 5.80837,15.15229 8.33375,17.42513 z"
       id="path3978"
       inkscape:connector-curvature="0"
       sodipodi:nodetypes="csscssscsc" />
    <path
       style="fill:#e6b46d;fill-opacity:1;stroke:none"
       d="m 376.53436,566.13948 c 0,0 -6.06091,3.283 -9.09137,-1.51523 -3.03046,-4.79822 -3.03046,-23.48604 -4.79823,-31.56726 -1.76776,-8.08122 2.02031,-32.82996 0.75762,-44.95179 -1.26269,-12.12183 -2.58666,-22.7792 -2.58666,-22.7792 0,0 4.60696,5.6066 7.88996,21.01143 3.283,15.40483 -0.25254,22.47589 0.50508,35.60788 0.75761,13.13198 7.82868,30.05204 7.3236,44.19417 z"
       id="path3980"
       inkscape:connector-curvature="0"
       sodipodi:nodetypes="cssscssc" />
    <path
       style="fill:#e6b46d;fill-opacity:1;stroke:none"
       d="m 444.21458,627.53688 c 0,0 3.32632,-1.61983 5.09409,-3.64013 1.76777,-2.02031 15.3615,-17.09863 18.6445,-20.38162 3.28299,-3.283 55.23188,10.64992 55.23188,10.64992 0,0 5.01885,0.74185 -29.87347,19.75925 -12.123,6.60742 -18.9224,18.22082 -22.59318,26.65175 -1.87523,4.30696 -6.31346,12.33105 -6.31346,12.33105 0,0 4.30584,-24.44019 -3.2703,-34.28917 -7.57615,-9.84899 -16.92006,-11.08105 -16.92006,-11.08105 z"
       id="path3984"
       inkscape:connector-curvature="0"
       sodipodi:nodetypes="csscsscsc" />
  </g>
  <g
     inkscape:groupmode="layer"
     id="layer7"
     inkscape:label="Fish"
     style="display:inline">
    <path
       style="fill:url(#radialGradient3922);fill-opacity:1;stroke:none"
       d="m 556.07143,611.42857 c 19.64286,-5 56.78571,-27.5 61.42857,-71.07143 4.64286,-43.57143 -3.57143,-128.92857 -55.71428,-168.92857 -52.14286,-40 -64.64286,-33.57143 -87.14286,-26.42857 -22.5,7.14286 -62.5,10 -70.35715,79.64286 -7.85714,69.64285 -8.57142,57.85714 -3.57142,84.64285 5,26.78572 22.85714,127.5 155.35714,102.14286 z"
       id="path3860"
       inkscape:connector-curvature="0" />
  </g>
  <g
     inkscape:groupmode="layer"
     id="layer12"
     inkscape:label="Face">
    <path
       sodipodi:type="arc"
       style="fill:#ffffff;fill-rule:evenodd;stroke:#000000;stroke-width:1px;stroke-linecap:butt;stroke-linejoin:miter;stroke-opacity:1;fill-opacity:1"
       id="path3888"
       sodipodi:cx="441.25"
       sodipodi:cy="446.42856"
       sodipodi:rx="9.4642859"
       sodipodi:ry="13.928572"
       d="m 450.71429,446.42856 a 9.4642859,13.928572 0 1 1 -18.92858,0 9.4642859,13.928572 0 1 1 18.92858,0 z"
       transform="matrix(0.9567649,0.2908624,-0.2908624,0.9567649,148.92677,-109.04165)" />
    <path
       sodipodi:type="arc"
       style="fill:#ffffff;fill-rule:evenodd;stroke:#000000;stroke-width:1px;stroke-linecap:butt;stroke-linejoin:miter;stroke-opacity:1;fill-opacity:1"
       id="path3890"
       sodipodi:cx="594.64288"
       sodipodi:cy="443.39285"
       sodipodi:rx="7.1428571"
       sodipodi:ry="13.035714"
       d="m 601.78574,443.39285 a 7.1428571,13.035714 0 1 1 -14.28571,0 7.1428571,13.035714 0 1 1 14.28571,0 z"
       transform="matrix(0.98502585,-0.17240674,0.17240674,0.98502585,-67.539641,109.15987)" />
    <path
       transform="matrix(0.33385165,0.10149295,-0.10149295,0.33385165,339.24731,252.60388)"
       d="m 450.71429,446.42856 a 9.4642859,13.928572 0 1 1 -18.92858,0 9.4642859,13.928572 0 1 1 18.92858,0 z"
       sodipodi:ry="13.928572"
       sodipodi:rx="9.4642859"
       sodipodi:cy="446.42856"
       sodipodi:cx="441.25"
       id="path3896"
       style="fill:#000000;fill-opacity:1;fill-rule:evenodd;stroke:#000000;stroke-width:1px;stroke-linecap:butt;stroke-linejoin:miter;stroke-opacity:1"
       sodipodi:type="arc" />
    <path
       transform="matrix(0.38295139,-0.06702707,0.06702707,0.38295139,337.20424,313.45211)"
       d="m 601.78574,443.39285 a 7.1428571,13.035714 0 1 1 -14.28571,0 7.1428571,13.035714 0 1 1 14.28571,0 z"
       sodipodi:ry="13.035714"
       sodipodi:rx="7.1428571"
       sodipodi:cy="443.39285"
       sodipodi:cx="594.64288"
       id="path3898"
       style="fill:#000000;fill-opacity:1;fill-rule:evenodd;stroke:#000000;stroke-width:1px;stroke-linecap:butt;stroke-linejoin:miter;stroke-opacity:1"
       sodipodi:type="arc" />
    <path
       style="fill:url(#radialGradient3930);stroke:none;stroke-width:1px;stroke-linecap:butt;stroke-linejoin:miter;stroke-opacity:1;fill-opacity:1"
       d="m 531.60714,509.46428 c 0,0 -1.60714,7.5 -5.35714,8.75 -3.75,1.25 -15.53571,1.78572 -12.67857,5.53572 2.85714,3.75 6.25,7.32143 3.21429,9.64286 -3.03572,2.32142 -9.64286,14.82142 -9.64286,14.82142 0,0 15,-3.03571 21.42857,-3.57142 6.42857,-0.53572 10.17857,-1.25 11.25,1.60714 1.07143,2.85714 -1.07143,5.89286 -1.07143,5.89286 0,0 1.60714,-2.32143 6.96429,-5.17858 5.35714,-2.85714 37.32143,-3.39285 40.35714,0.35715 3.03571,3.75 7.5,14.10714 -0.53571,17.85714 -8.03572,3.75 -11.60715,-5.89286 -14.64286,-5 -3.03572,0.89286 -4.10714,7.5 -9.82143,9.46429 -5.71429,1.96428 -9.10714,-0.89286 -14.28571,0.71428 -5.17858,1.60714 -9.82143,7.32143 -20.17858,9.10714 -10.35714,1.78572 -18.57142,-8.03571 -21.25,-6.07142 -2.67857,1.96428 0.35715,8.39285 -4.64285,10 -5,1.60714 -11.42857,2.5 -10.71429,-0.17858 0.71429,-2.67857 6.07143,-6.42857 4.10714,-8.21428 -1.96428,-1.78572 -9.10714,8.21428 -8.92857,11.07143 0.17857,2.85714 8.75,4.28571 12.85715,7.5 4.10714,3.21428 1.78571,5.89285 1.78571,5.89285 0,0 6.60714,2.67858 6.25,-3.57142 -0.35714,-6.25 -6.07143,-7.85715 -2.85714,-9.64286 3.21428,-1.78572 8.21428,6.25 20.71428,6.25 12.5,0 39.64286,-4.10714 48.57143,-7.14286 8.92857,-3.03571 20.53572,-8.57143 20.53572,-13.92857 0,-5.35714 -1.07143,-8.39286 2.14285,-8.21429 3.21429,0.17858 4.10715,20.53572 5.89286,21.78572 1.78571,1.25 3.39286,-15.17857 -1.07143,-22.67857 -4.46428,-7.5 -6.78571,-12.67857 -6.07143,-16.78572 0.71429,-4.10714 12.67857,-6.60714 13.39286,-13.57143 C 608.03572,525 608.92857,514.46428 598.21429,505 587.5,495.53571 571.25,487.67857 568.75,491.78571 c -2.5,4.10715 13.03572,11.60715 11.78572,16.25 -1.25,4.64286 -11.78572,3.92857 -7.67858,6.60715 4.10715,2.67857 13.21429,2.32142 11.78572,9.28571 -1.42857,6.96429 -2.14286,6.25 -6.96429,1.42857 -4.82143,-4.82143 -9.10714,-10.71428 -16.25,-10.71428 -7.14285,0 -15.17857,1.60714 -18.03571,-4.82143 -2.85714,-6.42857 10.89286,-8.57143 11.25,-15.89286 C 555,486.60714 552.5,482.14286 556.25,480.89286 c 3.75,-1.25 6.96429,-10.53572 6.07143,-23.03572 -0.89286,-12.5 -7.85714,-69.28571 -18.92857,-77.32143 -11.07143,-8.03571 -29.10714,-18.75 -41.78572,-13.92857 -12.67857,4.82143 -40.71428,30.71429 -33.03571,40.71429 7.67857,10 -6.42857,21.60714 -5.53571,27.85714 0.89285,6.25 11.07142,22.67857 21.07142,23.03571 10,0.35715 12.85715,11.96429 15.35715,19.10715 2.5,7.14285 27.5,24.10714 32.14285,32.14285 z"
       id="path3900"
       inkscape:connector-curvature="0" />
    <path
       style="fill:url(#linearGradient4000);stroke:none;stroke-width:1px;stroke-linecap:butt;stroke-linejoin:miter;stroke-opacity:1;fill-opacity:1"
       d="m 518.21429,500.71428 c 4.28571,2.85715 6.07143,10.53572 1.60714,11.60715 -4.46429,1.07143 -9.82143,6.25 -18.39286,6.25 -8.57143,0 -17.67857,-1.25 -17.67857,-1.25 0,0 14.46429,-16.25 9.28572,-19.64286 -5.17858,-3.39286 -35.17858,0.17857 -41.78572,5.17857 -6.60714,5 -11.07143,22.67857 -21.25,17.5 -10.17857,-5.17857 -11.78571,-32.67857 -19.46428,-35.71428 -7.67858,-3.03572 -10.35715,-56.78572 4.28571,-63.57143 14.64286,-6.78572 10.71429,3.75 16.07143,3.39285 C 436.25,424.10714 445,411.60714 452.32143,415 c 7.32143,3.39286 4.64286,23.75 4.64286,23.75 0,0 2.5,-15 -8.57143,-14.82143 -11.07143,0.17857 -18.92857,8.57143 -20,14.46429 -1.07143,5.89285 -7.5,24.28571 7.14286,29.64285 14.64285,5.35715 26.96428,-14.46428 26.96428,-14.46428 0,0 -16.42857,20.17857 -4.28571,23.03571 12.14285,2.85714 10.89285,-5 15.17857,-6.42857 4.28571,-1.42857 24.46428,3.75 25.89286,10.89286 1.42857,7.14285 6.96428,16.78571 1.42857,24.10714 -5.53572,7.32143 3.57143,6.25 8.57143,2.5 5,-3.75 8.92857,-6.96429 8.92857,-6.96429 z"
       id="path3902"
       inkscape:connector-curvature="0" />
    <path
       style="fill:#bd4d26;stroke:none;stroke-width:1px;stroke-linecap:butt;stroke-linejoin:miter;stroke-opacity:1;fill-opacity:1"
       d="m 494.10714,563.21428 c 0,0 21.25,-10.35714 49.10715,-13.57142 27.85714,-3.21429 37.67857,-3.39286 41.07143,2.85714 3.39285,6.25 2.14285,8.75 2.14285,8.75 0,0 -8.57143,-7.67857 -31.78571,-0.71429 -23.21429,6.96429 -16.96429,11.42857 -33.57143,10.71429 -16.60714,-0.71429 -23.75,1.42857 -26.96429,-8.03572 z"
       id="path3904"
       inkscape:connector-curvature="0" />
  </g>
  <g
     inkscape:groupmode="layer"
     id="layer9"
     inkscape:label="Shuttlecock">
    <path
       style="fill:#ff1b1b;fill-opacity:1;stroke:none;stroke-width:1px;stroke-linecap:butt;stroke-linejoin:miter;stroke-opacity:1"
       d="M 328.92857,38.571427 322.5,11.42857 c 0,0 6.42857,-11.42857 18.57143,-11.42857 12.14286,0 16.35714,4.8571429 16.35714,4.8571429 l 4.35714,30.8571411 z"
       id="path3875"
       inkscape:connector-curvature="0"
       sodipodi:nodetypes="ccsccc" />
    <path
       style="fill:#3d1bff;stroke:none;stroke-width:1px;stroke-linecap:butt;stroke-linejoin:miter;stroke-opacity:1;fill-opacity:1"
       d="m 329.64286,38.571427 -3.21429,-10 c 0,0 8.21429,-9.285714 13.92857,-10.357143 5.71429,-1.071428 19.28572,1.785714 19.28572,1.785714 L 360,34.285713 z"
       id="path3877"
       inkscape:connector-curvature="0" />
    <path
       style="fill:#ffffff;stroke:none;stroke-width:1px;stroke-linecap:butt;stroke-linejoin:miter;stroke-opacity:1;fill-opacity:1"
       d="m 321.78571,80.714284 6.78572,-45 c 0,0 8.57143,-8.928571 16.07143,-9.642857 7.5,-0.714286 15.35714,2.5 15.35714,2.5 l 21.78571,37.5 z"
       id="path3873"
       inkscape:connector-curvature="0" />
  </g>
  <g
     inkscape:groupmode="layer"
     id="layer8"
     inkscape:label="Hat"
     style="display:inline">
    <path
       style="fill:#000000;fill-opacity:1;stroke:none;stroke-width:1px;stroke-linecap:butt;stroke-linejoin:miter;stroke-opacity:1"
       d="M 153.57143,422.5 C 152.5,419.28571 151.78571,416.78571 155,416.78571 c 3.21429,0 47.5,6.42857 75.71429,3.57143 28.21428,-2.85714 70.35714,-7.5 70.35714,-7.5 0,0 -12.14286,-75.71428 -12.85714,-82.5 -0.71429,-6.78571 -5,-14.64286 -6.07143,-37.5 -1.07143,-22.85714 -2.5,-56.42857 -6.78572,-85 -4.28571,-28.57143 -10,-61.07143 -7.14285,-79.64286 2.85714,-18.57142 38.57142,-56.78571 84.28571,-67.857139 45.71429,-11.071428 81.42857,-5 88.57143,4.642858 7.14286,9.642857 78.57143,146.785711 83.92857,158.928571 5.35714,12.14286 40.71429,101.78571 40.71429,101.78571 0,0 30.35714,5.35715 33.21428,8.92858 2.85715,3.57142 9.28572,8.57142 6.42857,15.71428 -2.85714,7.14286 -4.64285,18.57143 -4.64285,18.57143 0,0 17.14285,-6.07143 21.78571,-6.07143 4.64286,0 31.42857,-2.85714 39.28572,-3.92857 7.85714,-1.07143 30,-7.5 30,-7.5 0,0 -2.85715,5.35714 -7.5,8.21429 -4.64286,2.85714 -90.71429,28.21428 -90.71429,28.21428 0,0 5.71429,-18.21428 -16.78571,-26.78571 -22.5,-8.57143 -53.92858,-20.35715 -92.5,-11.78572 -38.57143,8.57143 -157.85715,80.35715 -169.64286,85.71429 -11.78572,5.35714 -23.92857,5.71428 -23.92857,5.71428 0,0 -79.28572,-3.92857 -92.85715,-6.07142 C 184.28571,432.5 153.57143,422.5 153.57143,422.5 z"
       id="path3863"
       inkscape:connector-curvature="0" />
  </g>
</svg>
