<?xml version="1.0" encoding="UTF-8" standalone="no"?>
<!-- Created with Inkscape (http://www.inkscape.org/) -->

<svg
   xmlns:dc="http://purl.org/dc/elements/1.1/"
   xmlns:cc="http://creativecommons.org/ns#"
   xmlns:rdf="http://www.w3.org/1999/02/22-rdf-syntax-ns#"
   xmlns:svg="http://www.w3.org/2000/svg"
   xmlns="http://www.w3.org/2000/svg"
   xmlns:sodipodi="http://sodipodi.sourceforge.net/DTD/sodipodi-0.dtd"
   xmlns:inkscape="http://www.inkscape.org/namespaces/inkscape"
   width="1280"
   height="720"
   viewBox="0 0 338.66666 190.50001"
   id="svg2"
   version="1.1"
   inkscape:version="0.92.2 5c3e80d, 2017-08-06"
   sodipodi:docname="frank-pesci-video-thumbnail.svg"
   inkscape:export-filename="/Users/agarone/Documents/GitHub/art/electric-gauchos/discover/electric-gauchos-video-thumbnail.svg.png"
   inkscape:export-xdpi="96"
   inkscape:export-ydpi="96">
  <defs
     id="defs4">
    <linearGradient
       id="linearGradient5627">
      <stop
         style="stop-color:#f80000;stop-opacity:1"
         id="stop5629"
         offset="0" />
      <stop
         style="stop-color:#e69595;stop-opacity:1"
         id="stop5631"
         offset="1" />
    </linearGradient>
    <linearGradient
       id="linearGradient5619">
      <stop
         style="stop-color:#000000;stop-opacity:1"
         id="stop5621"
         offset="0" />
      <stop
         style="stop-color:#000000;stop-opacity:0"
         id="stop5623"
         offset="1" />
    </linearGradient>
    <linearGradient
       id="linearGradient4838">
      <stop
         style="stop-color:#606060;stop-opacity:1"
         id="stop4840"
         offset="0" />
      <stop
         style="stop-color:#ffffff;stop-opacity:1"
         id="stop4842"
         offset="1" />
    </linearGradient>
    <linearGradient
       id="linearGradient4776">
      <stop
         style="stop-color:#c9c9c9;stop-opacity:1"
         offset="0"
         id="stop4778" />
      <stop
         style="stop-color:#555555;stop-opacity:1"
         offset="1"
         id="stop4780" />
    </linearGradient>
    <linearGradient
       id="linearGradient4760">
      <stop
         style="stop-color:#000000;stop-opacity:1"
         offset="0"
         id="stop4762" />
      <stop
         style="stop-color:#555555;stop-opacity:1"
         id="stop4764"
         offset="0.52" />
      <stop
         style="stop-color:#000000;stop-opacity:1"
         offset="1"
         id="stop4766" />
    </linearGradient>
    <linearGradient
       id="linearGradient4744">
      <stop
         style="stop-color:#000000;stop-opacity:1"
         id="stop4746"
         offset="0" />
      <stop
         style="stop-color:#555555;stop-opacity:1"
         offset="0.65"
         id="stop4748" />
      <stop
         style="stop-color:#000000;stop-opacity:1"
         id="stop4750"
         offset="1" />
    </linearGradient>
    <linearGradient
       id="linearGradient4728">
      <stop
         style="stop-color:#000000;stop-opacity:1"
         offset="0"
         id="stop4730" />
      <stop
         style="stop-color:#555555;stop-opacity:1"
         id="stop4732"
         offset="0.72" />
      <stop
         style="stop-color:#000000;stop-opacity:1"
         offset="1"
         id="stop4734" />
    </linearGradient>
    <linearGradient
       id="linearGradient4708">
      <stop
         style="stop-color:#000000;stop-opacity:1"
         id="stop4710"
         offset="0" />
      <stop
         style="stop-color:#555555;stop-opacity:1"
         offset="0.5"
         id="stop4718" />
      <stop
         style="stop-color:#000000;stop-opacity:1"
         id="stop4712"
         offset="1" />
    </linearGradient>
    <linearGradient
       id="linearGradient4679">
      <stop
         style="stop-color:#000000;stop-opacity:1"
         id="stop4681"
         offset="0" />
      <stop
         style="stop-color:#555555;stop-opacity:1"
         id="stop4683"
         offset="1" />
    </linearGradient>
  </defs>
  <sodipodi:namedview
     id="base"
     pagecolor="#ffffff"
     bordercolor="#666666"
     borderopacity="1.0"
     inkscape:pageopacity="0.0"
     inkscape:pageshadow="2"
     inkscape:zoom="0.98994949"
     inkscape:cx="729.91056"
     inkscape:cy="331.70553"
     inkscape:document-units="px"
     inkscape:current-layer="layer4"
     showgrid="false"
     units="px"
     inkscape:window-width="2560"
     inkscape:window-height="1315"
     inkscape:window-x="0"
     inkscape:window-y="1"
     inkscape:window-maximized="1" />
  <metadata
     id="metadata7">
    <rdf:RDF>
      <cc:Work
         rdf:about="">
        <dc:format>image/svg+xml</dc:format>
        <dc:type
           rdf:resource="http://purl.org/dc/dcmitype/StillImage" />
        <dc:title />
      </cc:Work>
    </rdf:RDF>
  </metadata>
  <g
     inkscape:label="Gray BG"
     inkscape:groupmode="layer"
     id="layer1"
     transform="translate(0,-106.49999)">
    <rect
       style="opacity:1;fill:#596268;fill-opacity:1;stroke:none;stroke-width:16.0535984;stroke-miterlimit:4;stroke-dasharray:none;stroke-opacity:1"
       id="rect4141"
       width="338.66669"
       height="190.5"
       x="1.4210855e-14"
       y="106.49999" />
  </g>
  <g
     inkscape:groupmode="layer"
     id="layer5"
     inkscape:label="Residents">
    <g
       id="g1112"
       transform="matrix(0.59203353,0,0,0.59203353,3.9687501,-9.7984506)">
      <g
         style="display:none"
         transform="translate(0,-32.41665)"
         id="layer1-9"
         inkscape:label="BG">
        <rect
           style="fill:#ffffff;fill-opacity:1;stroke-width:0.26458332"
           y="32.416641"
           x="0"
           height="264.58334"
           width="264.58334"
           id="rect4493" />
      </g>
      <g
         style="display:inline"
         inkscape:label="Steve"
         id="layer2-3">
        <g
           inkscape:label="Head"
           id="layer3-8"
           inkscape:groupmode="layer">
          <path
             sodipodi:nodetypes="cccscccccccc"
             inkscape:connector-curvature="0"
             id="path4756"
             d="m 68.035714,89.958332 c 0,0 -2.755132,0.832991 -2.82195,1.968886 -0.06682,1.135894 -1.336347,2.605876 -1.469983,4.009041 -0.133633,1.403165 0.868627,3.674957 0.467722,4.610401 -0.400904,0.93544 -0.133635,2.47224 -0.668173,3.20723 -0.53454,0.73499 -1.469983,2.73952 -1.469983,2.73952 l 37.618186,158.08992 h 32.600137 c 0,0 -21.64209,-139.64832 -21.70891,-143.65737 -0.0668,-4.00904 -5.87992,-7.61718 -5.74629,-9.28761 0.13364,-1.67044 -1.20271,-8.21854 -1.20271,-8.21854 0,0 -24.223474,-13.893564 -35.598046,-13.461478 z"
             style="fill:#1a1a1a;stroke:none;stroke-width:0.26458332px;stroke-linecap:butt;stroke-linejoin:miter;stroke-opacity:1" />
          <path
             sodipodi:nodetypes="cssssssscscscc"
             inkscape:connector-curvature="0"
             id="path4718"
             d="M 67.752824,101.94983 C 68.554634,91.392678 67.084651,82.706418 66.149209,80.434629 65.213764,78.162837 56.986544,76.29195 54.714752,64.665727 52.442963,53.039501 57.462948,28.183435 68.688267,26.04528 c 11.22532,-2.138157 26.726954,-3.0736 32.072343,2.806328 5.34539,5.879931 12.2944,16.036174 12.2944,18.976139 0,2.939963 0.66817,6.280833 1.73725,7.349911 1.06908,1.069078 2.00452,20.178849 0.53454,23.786988 -1.46998,3.608139 -4.14268,15.768902 -4.27631,16.83798 -0.13364,1.069078 -0.53454,5.879924 -3.87541,6.681734 -3.34087,0.80181 -3.87541,0.93545 -3.87541,0.93545 0,0 0.13364,3.0736 -0.66817,6.5481 -0.80181,3.47451 3.34087,11.35896 3.34087,11.35896 0,0 -30.067826,5.47902 -38.219546,-19.37704 z"
             style="fill:#502d16;stroke:none;stroke-width:0.26458332px;stroke-linecap:butt;stroke-linejoin:miter;stroke-opacity:1" />
          <path
             sodipodi:nodetypes="cssccccc"
             inkscape:connector-curvature="0"
             id="path4789"
             d="M 66.015571,82.773237 C 67.285103,79.499185 58.598844,73.686071 57.730217,71.815187 56.86159,69.944299 56.059784,66.737065 56.661139,65.267082 57.262495,63.7971 63.944235,60.99077 63.944235,60.99077 l -3.140419,-3.34087 -7.817633,2.472243 0.267268,17.172067 z"
             style="fill:#a67a28;fill-opacity:1;stroke:none;stroke-width:0.26458332px;stroke-linecap:butt;stroke-linejoin:miter;stroke-opacity:1" />
          <path
             sodipodi:nodetypes="sscccsscccssscssscsscscccccsccccscsccscccccccscccscsccsccsssccscccccccssscscsccccsscc"
             inkscape:connector-curvature="0"
             id="path4733"
             transform="scale(0.26458333)"
             d="m 316.64324,104.65039 c -32.6472,5.02258 -65.46984,1.459 -71.93324,7.42522 -9.84899,9.09138 22.72691,128.03747 22.47436,133.59331 -0.25254,5.55584 -16.66563,-12.37418 -22.22147,-10.60642 -5.55584,1.76777 -1.51681,5.80742 -3.53711,6.3125 -2.02031,0.50507 -13.38421,-12.37322 -23.73828,-5.55469 -10.35405,6.81853 -6.56658,26.51587 0.25195,39.90039 6.81854,13.38453 20.96213,24.24299 28.03321,27.27344 7.07105,3.03046 18.18125,0.7582 19.1914,-2.77734 1.01016,-3.53553 1.76915,-4.54588 2.7793,-0.75782 1.01016,3.78807 3.8e-4,10.8588 -1.00977,13.63672 -1.01015,2.77792 -9.84982,-6.81836 -13.13281,-6.81836 -3.283,0 6e-4,5.30415 2.27344,15.65821 2.27284,10.35407 1.51406,32.07093 3.0293,39.39453 1.51522,7.32361 75.25645,68.94453 80.05468,70.96484 4.79822,2.02031 20.20292,-14.39453 16.91992,-14.39453 -3.28297,0 -13.13203,-6.06232 -12.62695,-7.83008 0.50508,-1.76776 8.08148,4.54544 15.91016,4.29297 7.82868,-0.25255 10.60743,-10.60646 13.13281,-14.39453 2.52538,-3.78807 -22.98056,-8.33283 -45.70898,-16.41406 -22.72843,-8.08121 -21.71811,-22.9822 -14.39454,-14.64844 7.32361,8.33376 41.66689,17.67812 64.9004,16.66797 23.23351,-1.01016 27.02247,-15.65649 30.81054,-21.46484 3.78807,-5.80839 1.01017,-13.63732 -2.52539,-13.38477 -3.53552,0.25254 -28.03086,-5.05118 -29.04101,-6.56641 -1.01015,-1.51522 18.4352,-2.52481 24.49609,-5.30273 6.06093,-2.77792 6.5654,-8.83908 5.30273,-10.85938 0.25251,-1.76776 -5.55551,0.50586 -8.58593,0.50586 -3.03047,0 -11.86913,2.02013 -14.39453,1.76758 -2.52537,-0.25255 -10.35392,-0.25255 -14.39454,0 -4.04061,0.25254 -11.11211,-1.51543 -14.14257,-0.75781 -3.03046,0.75761 -6.81974,6.5662 -9.59766,3.2832 -2.77792,-3.28299 -0.25156,-11.11153 1.26367,-14.39453 1.51523,-3.283 7.07091,-5.80841 6.81836,-7.57617 -0.25254,-1.76777 -10.60742,3.28222 -10.60742,2.01953 0,-1.26269 11.61799,-3.7881 14.64844,-10.10156 3.03046,-6.31345 17.67752,-22.47501 21.9707,-23.99024 4.29313,-1.51523 11.61719,2.27267 11.61719,4.29297 0,2.02031 -7.5762,-2.52598 -10.10157,-2.27344 -2.52534,0.25254 -7.32461,5.30335 -6.31445,10.10157 1.01015,4.79823 6.31388,5.30389 9.0918,2.27343 2.77791,-3.03046 8.58615,-2.02168 14.39453,-2.77929 5.80838,-0.75762 6.81954,1.51503 8.83984,1.76758 2.02031,0.25254 5.80685,-4.2926 6.56446,-7.82813 0.7576,-3.53553 -18.43556,-52.52696 -23.48633,-53.53711 -5.05077,-1.01016 -7.82735,6.05978 -9.84766,10.60547 -2.02031,4.54568 -63.13439,3.8e-4 -66.66992,-3.53516 -3.53554,-3.53553 17.42386,-15.65645 25,-18.93945 7.57615,-3.28299 28.78966,-1.76875 33.58789,-3.78906 4.79822,-2.0203 6.81956,-6.81796 8.83984,-5.30274 2.02031,1.51524 -1.51519,12.37463 0,15.91016 1.51526,3.53554 5.80823,0.25156 9.34376,-1.26367 3.53553,-1.51523 -2.77774,-16.41446 -1.76758,-17.92969 1.01015,-1.51522 0.75605,2.52462 4.03906,4.54492 3.28301,2.02031 20.20336,-9.09082 28.53711,-10.35351 8.33378,-1.26269 1.26224,-9.84925 1.00976,-15.91016 -0.25251,-6.06092 -4.54455,-5.05001 -8.08007,-7.07031 -3.53556,-2.02031 -4.2924,-8.83892 -7.07032,-22.72852 -2.77791,-13.88959 -18.68951,-43.69004 -33.33671,-49.24588 -6.37304,-2.41736 -39.05275,-3.85106 -56.85989,-1.11154 z m -91.10027,135.66602 c 5.96578,-0.23328 13.59555,5.51729 16.13672,7.87695 -1.76777,3.53553 -10.60746,-5.8078 -18.1836,-2.77734 -7.57613,3.03045 -4.04082,23.9908 -5.80859,21.21289 -1.76776,-2.77792 -3.02928,-13.88969 2.02148,-22.72852 1.42053,-2.48592 3.49955,-3.4927 5.83399,-3.58398 z m 18.49805,14.60156 c 1.76086,0.003 2.12145,1.57802 3.44726,4.89258 -1.26269,3.53554 -5.80957,2.02111 -7.07226,5.55664 -1.2627,3.53553 -5.55527,8.58575 -2.77735,12.8789 2.77792,4.29314 4.54494,-3.28242 9.59571,-5.30273 5.05074,-2.0203 2.27324,-6.0625 4.04101,-6.0625 1.76776,0 1.51601,3.28342 0.50586,6.56641 -1.01015,3.283 -7.32521,6.81993 -13.63867,7.83007 -6.31345,1.01017 -10.85742,-7.32521 -10.85742,-11.11328 0,-3.78808 4.03907,-4.79785 6.56445,-6.06054 2.52539,-1.26269 -0.75664,-5.30274 1.26367,-5.30274 2.0203,0 5.55469,-3.28399 8.08008,-3.78906 0.31567,-0.0631 0.5961,-0.0942 0.84766,-0.0937 z m 86.7832,54.13672 c -4.04061,4.04061 -4.54561,6.94659 -4.67188,9.3457 -0.12627,2.39911 0.37979,12.12178 -1.26172,12.24805 -1.64149,0.12627 -0.12695,-2.77785 -0.12695,-7.19727 0,-4.41941 -0.75798,-13.26007 6.06055,-14.39648 z"
             style="fill:#deaa87;stroke:none;stroke-width:0.99999994px;stroke-linecap:butt;stroke-linejoin:miter;stroke-opacity:1" />
          <path
             inkscape:connector-curvature="0"
             id="path4735"
             d="m 97.553377,78.363288 c 0.734991,-0.267269 1.336347,0.601358 2.472243,0.935445 1.1359,0.334087 1.5368,0.801806 2.27179,0.400904 0.73499,-0.400904 1.73725,-0.53454 1.67043,0.200451 -0.0668,0.734992 -0.60135,2.539061 -0.13363,3.006784 0.46772,0.467719 1.9377,0.668173 2.20497,0.06681 0.26727,-0.601356 0.13364,-1.937703 0.73499,-1.737252 0.60136,0.200454 1.5368,2.071341 1.06908,2.271792 -0.46772,0.200451 -0.80181,0.734992 -2.00452,0.935442 -1.20271,0.200454 -1.67043,-0.06682 -2.87315,0.200454 -1.20271,0.267269 -2.87314,1.069078 -4.877666,1.202711 -2.00452,0.133636 -4.409945,0.133636 -4.409945,-0.334086 0,-0.46772 -0.53454,-1.737252 0.734991,-3.340868 1.269529,-1.603618 1.737252,-3.674956 3.140417,-3.808592 z"
             style="fill:#deaa87;stroke:none;stroke-width:0.26458332px;stroke-linecap:butt;stroke-linejoin:miter;stroke-opacity:1" />
          <path
             sodipodi:nodetypes="cccccssssccccscsscssscsssssscccsssscscscccsccccccccccscscccscscccscc"
             inkscape:connector-curvature="0"
             d="m 75.612957,86.5978 c 0,0 -1.312029,-0.824461 -2.113838,-4.10801 C 72.69731,79.20624 67.35192,60.108043 59.534287,59.571953 51.716654,59.035864 54.783536,73.17523 57.055328,76.123724 c 2.271792,2.948495 10.764313,3.015505 8.893429,8.108359 -1.870888,5.092852 -4.744037,4.42274 -4.810855,8.376401 -0.06681,3.953663 1.403168,5.964001 0.935445,7.706296 -0.467722,1.74228 -2.204974,2.94849 -2.204974,2.94849 0,0 1.737252,-1.80931 1.202714,-4.824809 -0.53454,-3.015506 -2.939965,-4.288717 -3.274052,-4.154694 -0.334087,0.134021 -1.603618,2.27838 -0.734991,4.288718 0.868624,2.010335 2.204974,2.345385 2.204974,2.345385 0,0 -2.605879,0.20104 -3.274052,-2.613432 -0.668174,-2.814471 -1.00226,-2.412404 -1.00226,-2.412404 0,0 0.06681,5.427906 -2.138156,7.974336 -2.204974,2.54642 -3.006784,6.83514 -3.006784,6.83514 0,0 0.133636,-2.01034 0.467723,-3.21653 0.334087,-1.20621 0.601355,-2.27838 0.601355,-2.27838 0,0 -0.734991,2.01033 -2.472242,3.35056 -1.737252,1.34022 -4.476766,3.14952 -4.877668,5.82997 -0.400905,2.68045 0.734988,4.22171 0.734988,4.22171 0,0 -1.937702,-1.00518 -1.804069,-2.88148 0.133636,-1.87631 0.601358,-2.47943 0.601358,-2.47943 0,0 -0.868627,1.1392 -1.603618,3.68563 -0.734991,2.54642 -1.069078,3.21653 -2.472243,5.15986 -1.403165,1.94333 -5.612659,2.07734 -7.14946,2.88148 -1.5368,0.80414 -2.338607,1.67528 -2.338607,1.67528 0,0 0.133634,-1.13919 0.801807,-1.74229 0.668176,-0.6031 0.801809,-1.00516 0.801809,-1.00516 0,0 -1.336347,-0.6031 -2.739512,1.47425 -1.403164,2.07734 -0.467722,3.81963 -0.467722,3.81963 0,0 -2.004521,-1.47424 -1.603617,-3.0155 0.400903,-1.54126 0.734993,-4.35573 0.467721,-4.89182 -0.267269,-0.53609 -1.403164,0.80413 -1.603616,2.14435 -0.200452,1.34022 0.200452,1.87631 0.200452,1.87631 0,0 -1.469983,-0.6031 -0.868626,-3.6186 0.601356,-3.0155 2.472244,-5.29388 2.939964,-8.30939 m 0,0 c 0,0 2.004523,-6.70112 2.07134,-9.85065 0.06682,-3.14952 -1.403164,-4.020671 -1.403164,-4.020671 0,0 -0.133636,0.603101 0.133633,1.608271 0.267269,1.00517 0.53454,1.20621 0.53454,1.20621 0,0 -1.469983,-0.93816 -1.5368,-5.025852 -0.06682,-4.087682 2.271791,-8.108357 2.405425,-12.866154 0.133635,-4.757796 -2.80633,-19.500265 -0.133634,-24.995186 2.672694,-5.494918 6.280833,-9.381569 6.61492,-11.860985 0.334086,-2.479415 -1.670434,-0.06701 -3.741772,1.407237 -2.071341,1.474244 -6.347652,0.737121 -6.347652,0.737121 0,0 3.006782,-0.134021 4.07586,-0.737121 1.069078,-0.603103 1.00226,-1.340227 1.00226,-1.340227 0,0 -0.868624,-0.201032 -1.737251,0.402069 -0.868627,0.6031 -1.536801,0.134023 -1.536801,0.134023 0,0 2.360425,-1.088448 3.340869,-2.546426 0.980444,-1.457977 5.813114,-10.453752 13.964834,-12.263054 8.151719,-1.809303 12.027127,-1.206203 12.027127,-1.206203 0,0 2.739514,-5.963998 6.882191,-8.175368 4.142679,-2.21137 13.831199,-6.500088 20.512936,-4.824809 6.681737,1.675282 14.165286,5.695955 15.635266,7.438247 1.46998,1.742292 2.80633,5.092852 2.80633,5.092852 0,0 -1.60362,-2.345393 -6.681737,-2.948493 -5.078122,-0.603103 -10.690781,1.541256 -15.30118,1.67528 -4.610399,0.134024 -10.156242,-1.340224 -11.091685,2.948494 -0.935442,4.288718 -0.868627,16.082692 1.469983,17.757974 2.338607,1.67528 2.204974,1.139188 0.868624,3.953662 -1.336347,2.81447 -0.868624,11.995006 -0.267268,15.41258 0.601355,3.417571 3.664794,14.848864 3.875407,15.680625 0.08569,0.338423 0.307106,0.663377 0.307106,0.663377 L 75.612957,86.5978"
             style="fill:#a67a28;fill-opacity:1;stroke:none;stroke-width:0.26496685px;stroke-linecap:butt;stroke-linejoin:miter;stroke-opacity:1"
             id="path4731" />
          <path
             inkscape:connector-curvature="0"
             id="path4737"
             d="m 109.5805,71.547915 c 0.93545,0.400905 2.73952,0.601358 3.74178,0.868627 1.00226,0.267269 0.53454,7.082642 0.4009,8.485807 -0.13363,1.403164 -2.13815,7.617182 -2.67269,6.614922 -0.53454,-1.002261 1.40316,-3.808593 1.33635,-4.343131 -0.0668,-0.53454 -2.47225,-3.073601 -2.13816,-3.808589 0.33409,-0.734992 1.26953,-2.873148 0.93544,-3.674957 -0.33408,-0.801809 -2.00452,-4.009043 -1.60362,-4.142679 z"
             style="fill:#784421;stroke:none;stroke-width:0.26458332px;stroke-linecap:butt;stroke-linejoin:miter;stroke-opacity:1" />
          <path
             inkscape:connector-curvature="0"
             id="path4743"
             d="m 101.77009,79.138763 c -0.18899,-0.472469 1.13393,-1.606399 2.12611,-1.322917 0.99219,0.283483 1.79539,0.661459 1.51191,0.661459 -0.28348,0 -1.32292,-0.236236 -2.03162,0.09449 -0.70871,0.330729 -1.27567,0.755954 -1.6064,0.566965 z"
             style="fill:#1f0c00;fill-opacity:1;stroke:none;stroke-width:0.26458332px;stroke-linecap:butt;stroke-linejoin:miter;stroke-opacity:1" />
          <path
             sodipodi:nodetypes="scccscccccccccssccccccscccccccccccsccccccccccsscssscscssscccccscccsc"
             inkscape:connector-curvature="0"
             id="path4747"
             transform="scale(0.26458333)"
             d="m 219.09766,115.87695 c -0.0508,0.0888 -0.095,0.16868 -0.14454,0.25586 0.0161,-0.0247 0.1543,-0.24023 0.1543,-0.24023 0,0 -0.008,-0.0112 -0.01,-0.0156 z m -9.1836,5.1836 c -6.99905,-0.0666 -19.94319,0.64271 -39.19922,4.90429 -30.80965,6.81853 -49.07368,40.72032 -52.77929,46.21485 -3.70562,5.49452 -12.62696,9.59765 -12.62696,9.59765 0,0 2.5256,1.76699 5.8086,-0.50586 3.283,-2.27284 6.5664,-1.51562 6.5664,-1.51562 0,0 0.25155,2.77793 -3.78906,5.05078 -4.04061,2.27284 -15.404296,2.77734 -15.404296,2.77734 0,0 16.161546,2.77849 23.990236,-2.77734 7.82868,-5.55586 15.40526,-14.64664 14.14258,-5.30273 -1.26269,9.34391 -14.90044,23.9911 -25.00196,44.69921 -10.10152,20.70813 1.01094,76.26706 0.50586,94.19727 -0.50507,17.93021 -9.34434,33.08151 -9.09179,48.48633 0.25253,15.40484 5.80859,18.9414 5.80859,18.9414 0,0 -1.00938,-0.7588 -2.01953,-4.54687 -1.01015,-3.78809 -0.50586,-6.06055 -0.50586,-6.06055 0,0 5.55528,3.28308 5.30273,15.15235 -0.25253,11.8693 -7.82812,37.12304 -7.82812,37.12304 -1.76776,11.36421 -8.838488,19.95025 -11.111329,31.31446 -2.272846,11.3642 3.283203,13.63672 3.283203,13.63672 0,0 -1.515427,-2.01955 -0.757813,-7.07032 0.757614,-5.05073 5.050399,-10.10234 6.060549,-8.08203 1.01016,2.02031 -0.25236,12.62717 -1.76758,18.43555 -1.515228,5.80838 6.06055,11.36523 6.06055,11.36523 0,0 -3.53572,-6.56584 1.76757,-14.39453 5.30331,-7.82868 10.35547,-5.55664 10.35547,-5.55664 0,0 -0.50586,1.51425 -3.03125,3.78711 -2.52537,2.27282 -3.03125,6.56641 -3.03125,6.56641 0,0 3.03147,-3.28204 8.83985,-6.3125 5.80838,-3.03047 21.71818,-3.53579 27.02148,-10.85938 5.3033,-7.32363 6.56583,-9.84886 9.34375,-19.44531 2.77792,-9.59645 6.06055,-13.89063 6.06055,-13.89063 0,0 -1.76836,2.27267 -2.27344,9.34375 -0.50507,7.07105 6.82031,10.85938 6.82031,10.85938 0,0 -4.29452,-5.80865 -2.77929,-15.91016 1.51522,-10.10154 11.86955,-16.91997 18.43554,-21.9707 6.56599,-5.05077 9.34375,-12.62695 9.34375,-12.62695 0,0 -1.00879,4.04217 -2.27148,8.58789 -1.26269,4.54567 -1.76953,12.12109 -1.76953,12.12109 0,0 3.03147,-16.16332 11.36523,-25.75976 6.50119,-7.48624 7.76495,-21.4582 8.01172,-27.29493 -2.09028,-18.19493 -4.63,-37.57784 -6.87695,-46.48242 -4.82143,-19.10714 -12.3217,-32.85686 -15.35742,-20.89258 -3.03571,11.96429 6.96484,30.89258 6.96484,30.89258 0,0 -0.89231,0.89203 -8.03516,-18.57226 -7.14286,-19.46428 10.35577,-33.39202 10.71289,-55.17774 0.35714,-21.78571 -17.32115,-39.28571 -19.64257,-57.5 -2.32142,-18.21428 14.82142,-39.46399 18.57143,-40.89258 1.60832,-0.61269 -2.15513,10.04324 -3.84845,24.1376 -0.77738,6.47051 -0.96199,30.04123 3.129,45.95005 7.77536,30.23636 23.06529,57.0527 23.39941,56.5181 0.26307,-0.42091 -13.81436,-25.68889 -21.1134,-53.16625 -5.30752,-19.98025 -4.75886,-42.64344 -3.58454,-50.38548 2.69199,-17.74762 10.76881,-30.7337 10.76881,-30.7337 0,0 0.35743,-0.53487 -3.39258,-0.17774 -3.74999,0.35714 -16.60715,16.42857 -17.5,15 -0.89286,-1.42857 9.28488,-13.21428 6.42774,-13.75 -2.85715,-0.53571 -17.14287,7.14314 -17.5,6.60742 -0.35715,-0.53571 6.07226,-6.07282 17.32226,-11.78711 11.25,-5.71429 14.99972,1.96569 16.24972,-1.07003 1.25,-3.03571 5.14286,-11.08426 5.14286,-11.08426 1.39429,-2.83302 3.91828,-7.02099 6.0332,-10.41797 -0.7902,-0.0926 -2.60567,-0.26523 -5.72656,-0.29492 z"
             style="fill:#d5a64f;fill-opacity:1;stroke:none;stroke-width:0.99999994px;stroke-linecap:butt;stroke-linejoin:miter;stroke-opacity:1" />
          <path
             inkscape:connector-curvature="0"
             id="path4749"
             d="m 60.665177,62.03534 c 0.472471,-0.661458 0.425225,-1.511903 2.929315,-1.700892 2.504094,-0.188987 20.363469,2.929315 20.363469,2.929315 0,0 1.322916,-0.330729 1.937128,-0.283482 0.614212,0.04725 2.456844,-3.496278 7.654017,-3.496278 5.197174,0 5.622396,0.614211 6.661834,0.614211 1.03943,0 1.32291,-0.708707 2.17336,-0.803201 0.85045,-0.09449 2.12612,0.708705 2.92932,0 0.80319,-0.708705 2.3151,-3.071055 6.18935,-3.590774 3.87426,-0.519716 3.26005,-0.472469 3.26005,-0.472469 0,0 -1.03943,-1.228423 -0.8032,-1.27567 0.23623,-0.04725 1.41741,0.425223 2.50409,0.519719 1.08669,0.09449 6.52009,-0.0945 6.61459,0.283479 0.0945,0.377979 0.33072,2.456847 0.14174,2.598587 -0.18899,0.141743 -0.61421,0.188989 -1.13393,0.755954 -0.51972,0.566963 -0.66146,1.181174 -1.03944,1.133928 -0.37797,-0.04725 0.66146,4.204986 -1.22842,6.66183 -1.88988,2.456846 -6.09486,5.197173 -10.58333,2.36235 -4.48847,-2.834819 -3.30729,-7.465028 -3.49628,-7.701264 -0.18899,-0.236235 -0.8032,0.283483 -1.41741,0.236236 -0.61421,-0.04725 -1.03944,-0.377976 -2.07887,-0.141742 -1.03944,0.236236 -1.65365,0.850447 -1.98438,1.653645 -0.330726,0.803201 1.27567,4.630209 -0.708702,7.654018 -1.984375,3.023812 -4.582962,5.24442 -8.740698,4.393975 -4.157739,-0.850448 -5.197174,-3.779763 -5.291667,-5.575149 -0.0945,-1.795389 0.09449,-2.598587 0.09449,-2.598587 0,0 -0.283482,0.09449 -1.464659,-0.09449 C 82.96577,65.9096 64.303194,61.94085 63.547243,61.94085 c -0.755952,0 -1.511903,0.755951 -1.511903,0.755951 z"
             style="fill:#1a1a1a;stroke:none;stroke-width:0.26458332px;stroke-linecap:butt;stroke-linejoin:miter;stroke-opacity:1" />
          <path
             inkscape:connector-curvature="0"
             id="path4751"
             d="m 86.651041,65.484374 c 0.614211,-2.078868 2.409597,-4.866444 5.622395,-5.10268 3.212799,-0.236233 6.047619,0.519719 6.567337,0.992188 0.519718,0.472471 1.700897,6.18936 0.519718,7.890253 -1.181176,1.700892 -4.015999,5.858632 -8.220982,4.346726 -4.204986,-1.511904 -5.197173,-2.976563 -4.488468,-8.126487 z"
             style="fill:#903198;fill-opacity:1;stroke:none;stroke-width:0.26458332px;stroke-linecap:butt;stroke-linejoin:miter;stroke-opacity:1" />
          <path
             inkscape:connector-curvature="0"
             id="path4753"
             d="m 106.63653,61.043152 c 0.89769,-2.787573 2.74033,-4.157736 5.00819,-4.582959 2.26785,-0.425225 6.04762,-1.039436 7.22879,0.566963 1.18118,1.606399 1.79539,5.953125 0.8032,7.701267 -0.99219,1.748139 -3.35454,4.819194 -8.22098,3.543524 -4.86645,-1.27567 -4.77195,-5.19717 -4.8192,-7.228795 z"
             style="fill:#903198;fill-opacity:1;stroke:none;stroke-width:0.26458332px;stroke-linecap:butt;stroke-linejoin:miter;stroke-opacity:1" />
          <path
             inkscape:connector-curvature="0"
             id="path4791"
             d="m 54.806548,32.033482 c -1.984375,1.41741 -2.929316,3.779761 -2.929316,5.197171 0,1.417412 0.944941,3.68527 0.944941,3.68527"
             style="fill:none;stroke:#4d4d4d;stroke-width:0.5291667;stroke-linecap:round;stroke-linejoin:miter;stroke-miterlimit:4;stroke-dasharray:none;stroke-opacity:1" />
        </g>
        <g
           inkscape:label="Jacket"
           id="layer4-0"
           inkscape:groupmode="layer">
          <path
             inkscape:connector-curvature="0"
             id="path4763"
             d="m 67.752824,90.189964 c 0.534541,0.80181 0,3.073601 0.935443,4.810853 0.935445,1.737251 9.755338,7.349913 10.557147,8.285353 0.801809,0.93544 2.271792,0.40091 3.34087,2.00452 1.069078,1.60362 7.617179,7.61718 8.285355,13.09621 0.668174,5.47902 -6.147199,25.12334 -6.147199,25.12334 l -22.049737,-36.8832 z"
             style="fill:#1a1a1a;stroke:none;stroke-width:0.26458332px;stroke-linecap:butt;stroke-linejoin:miter;stroke-opacity:1" />
          <path
             inkscape:connector-curvature="0"
             id="path4759"
             d="m 63.075608,105.35751 c -1.670434,-0.86863 -1.002261,-0.73499 -2.138157,0.60136 -1.135895,1.33635 -10.156242,9.75533 -14.833459,12.6953 -4.677217,2.93996 -13.764379,7.08264 -17.105249,9.35443 -3.340869,2.2718 -11.759859,10.82442 -12.695302,13.36348 -0.935443,2.53906 -7.0826424,26.32605 -7.0826424,29.13238 0,2.80633 0.1336347,8.15172 -0.6681739,10.55714 -0.8018084,2.40543 -3.2072342,21.38156 -3.2072342,24.05426 C 5.3453905,207.78856 0,264.58333 0,264.58333 h 111.18412 c 0,0 -8.01808,-93.54433 -9.48807,-99.02336 -1.46998,-5.47903 -4.409942,-10.69078 -4.276309,-13.63075 0.133636,-2.93996 1.069078,-2.93996 0.801809,-3.74177 -0.267269,-0.80181 -11.759858,-11.89349 -18.174327,-19.91158 -6.414468,-8.01808 -11.626225,-20.17885 -16.971615,-22.91836 z"
             style="fill:#de8787;stroke:none;stroke-width:0.26458332px;stroke-linecap:butt;stroke-linejoin:miter;stroke-opacity:1" />
          <path
             sodipodi:nodetypes="csccsccsssc"
             inkscape:connector-curvature="0"
             id="path4761"
             d="m 106.77417,114.51149 c 0,0 12.02713,4.27632 14.16529,5.47903 2.13816,1.20271 10.15624,5.74629 12.02713,6.94901 1.87089,1.20271 3.0736,1.73725 3.87541,4.27631 0.8018,2.53906 18.30796,51.58302 18.8425,59.86837 0.53454,8.28536 0.26727,73.49912 0.26727,73.49912 h -38.35318 c 0,0 -1.87088,-92.94298 -4.27631,-102.83195 -1.88206,-7.73735 -5.4404,-12.73004 -5.74319,-13.66035 -0.37935,-1.16554 0.22334,-1.55919 0.3978,-1.9081 0.80181,-1.60362 3.20723,-24.18789 -1.20272,-31.67144 z"
             style="fill:#de8787;stroke:none;stroke-width:0.26458332px;stroke-linecap:butt;stroke-linejoin:miter;stroke-opacity:1" />
        </g>
      </g>
      <g
         inkscape:label="Alex"
         id="layer5-2">
        <g
           style="display:inline"
           inkscape:label="Head 1"
           id="layer7-4"
           inkscape:groupmode="layer">
          <path
             inkscape:connector-curvature="0"
             id="path4798"
             d="m 161.06511,138.24479 c -2.51355,-3.96875 -8.13594,-47.360416 -8.7974,-57.282291 -0.66146,-9.921875 6.08542,-24.209375 18.25625,-23.746354 12.17083,0.463021 40.48125,5.55625 41.93646,10.847917 1.45521,5.291666 1.65364,14.684374 2.18281,16.271874 0.52917,1.5875 2.3151,20.042184 1.32292,23.547914 -0.99219,3.50573 -4.82865,13.49375 -5.42396,16.27188 -0.59531,2.77812 -0.79375,8.79739 -1.78594,10.58333 -0.99219,1.78594 -2.77812,4.29948 -2.77812,6.41615 0,2.11666 0.92604,4.69635 1.71979,6.35 0.79375,1.65364 1.98437,4.56406 1.85208,6.54843 -0.13229,1.98438 -4.49792,9.06198 -7.9375,11.70782 -3.43958,2.64583 -40.54739,-27.51667 -40.54739,-27.51667 z"
             style="fill:#502d16;stroke:none;stroke-width:0.26458332px;stroke-linecap:butt;stroke-linejoin:miter;stroke-opacity:1" />
          <path
             sodipodi:nodetypes="cccscscccsssccssccsccccccccccccssccscscscsssssscsccsscscccc"
             inkscape:connector-curvature="0"
             id="path4822"
             d="m 160.99896,140.22916 c -1.71979,-1.19062 -2.51354,-3.0427 -3.83646,-2.38125 -1.32292,0.66146 -1.98437,2.91042 -1.98437,2.91042 0,0 -1.7198,-2.77812 -1.19063,-5.55625 0.52917,-2.77812 1.71979,-4.7625 0.13229,-4.49791 -1.5875,0.26458 -4.7625,4.23333 -4.23333,8.06979 0.52917,3.83645 7.67292,9.3927 7.67292,9.3927 0,0 -2.38125,-0.13229 -1.98438,0.66146 0.39688,0.79375 -0.13229,0.79375 -0.13229,0.79375 0,0 -0.66146,-1.19062 -3.83646,-4.89479 -3.175,-3.70417 -4.49792,-3.70417 -5.29167,-8.46667 -0.79375,-4.76249 6.4823,-5.68854 5.02709,-8.86354 -1.45521,-3.175 -3.43959,-6.48229 -4.63021,-4.10104 -1.19063,2.38125 -1.19063,3.70417 -1.19063,3.70417 0,0 -1.05833,-2.91042 0.39688,-6.08542 1.45521,-3.175 2.51354,-2.24896 1.5875,-5.42396 -0.92604,-3.175 1.19062,-2.38125 0.52917,-4.6302 -0.66146,-2.24896 -7.9375,1.4552 -7.9375,1.4552 0,0 7.54062,-3.70416 6.74687,-4.23333 -0.79375,-0.52917 -6.35,-0.26458 -6.35,-0.26458 0,0 5.02708,-1.19063 6.61458,-0.92604 1.5875,0.26458 -0.52916,-2.24896 -2.51354,-3.175 -1.98437,-0.92605 -2.91041,2.11666 -2.91041,2.11666 0,0 -1.19063,-1.71979 0.13229,-3.175 1.32291,-1.45521 3.30729,-0.39687 3.43958,-1.45521 0.13229,-1.05833 -3.57187,-1.19062 -3.57187,-1.19062 0,0 2.38125,-0.264585 3.0427,-1.984376 0.66146,-1.719792 -0.26458,-4.894792 -1.32291,-3.704167 -1.05834,1.190625 -1.19063,3.439583 -1.19063,3.439583 0,0 -1.05833,-3.042708 0.92604,-4.630208 1.98438,-1.5875 3.04271,-2.778125 1.7198,-4.365625 -1.32292,-1.5875 -2.64584,-0.661458 -1.85209,-2.778125 0.79375,-2.116666 2.51354,-2.513541 2.38125,-4.101041 -0.13229,-1.5875 2.24896,-5.820834 1.32292,-5.953125 -0.92604,-0.132292 -1.05833,2.910416 -1.05833,2.910416 0,0 -1.32292,-3.042708 0.26458,-6.085416 1.5875,-3.042709 3.43958,-5.55625 2.91042,-6.879167 -0.52917,-1.322916 -4.36563,3.042708 -6.08542,9.789583 -1.71979,6.746875 -0.79375,13.890625 -0.79375,13.890625 0,0 -2.38125,-8.73125 0.66146,-16.66875 3.04271,-7.937499 6.35,-11.244791 8.33437,-13.361458 1.98438,-2.116666 4.36563,-4.7625 5.95313,-6.746875 1.5875,-1.984375 2.38125,-5.027083 5.15937,-4.630208 2.77813,0.396875 4.36563,2.645833 5.42396,2.116667 1.05833,-0.529167 2.51354,-2.116667 5.55625,-1.5875 3.04271,0.529166 5.55625,1.058333 8.46667,0.661458 2.91041,-0.396875 9.26041,0.396875 12.17083,-0.396875 2.91042,-0.79375 4.7625,-0.132292 4.7625,-0.132292 0,0 1.98438,3.307292 5.02708,3.96875 3.04271,0.661459 8.0698,4.497917 9.39271,8.202084 1.32292,3.704166 2.38125,4.101041 2.77813,4.630208 0.39687,0.529166 -0.52917,0.79375 0.39687,2.513541 0.92604,1.719792 2.77813,4.894792 2.11667,5.55625 -0.66146,0.661459 0,-1.719791 -1.19063,-1.058333 -1.19062,0.661458 0.26459,4.365625 0.39688,6.746875 0.13229,2.38125 0.44891,9.953974 0.44891,9.953974 l -2.97802,-0.906544 -8.27967,-9.804141 z"
             style="fill:#1a1a1a;stroke:none;stroke-width:0.26458332px;stroke-linecap:butt;stroke-linejoin:miter;stroke-opacity:1" />
          <path
             sodipodi:nodetypes="cccccscccssscscscscscsscsccscsscscscccccscccscsccsscc"
             inkscape:connector-curvature="0"
             id="path4796"
             d="m 151.87083,159.01458 c 0,0 9.26042,-15.08125 9.6573,-19.84375 0.39687,-4.7625 -3.04271,-20.76979 -3.70417,-21.82812 -0.66146,-1.05834 3.10885,-1.38907 3.70417,-0.72761 0.59531,0.66146 0.99218,1.98438 1.19062,1.5875 0.19844,-0.39687 -0.13229,-2.64583 -1.05833,-2.84427 -0.92604,-0.19844 -1.91823,0.92604 -4.82865,0.26459 -2.91041,-0.66146 -4.82864,-3.77032 -6.01927,-6.21771 -1.19062,-2.4474 -5.35781,-6.81302 -4.49792,-10.980211 0.8599,-4.167188 4.23334,-7.871354 7.67292,-5.490104 3.43958,2.38125 2.64583,4.43177 4.29948,6.548437 1.65365,2.116668 3.37344,3.108858 3.70417,7.011458 0.33073,3.9026 -0.13229,5.35781 0.0661,5.6224 0.19844,0.26458 2.31511,0.92604 2.77813,1.38906 0.46302,0.46302 1.32291,0.79375 1.19062,0.39687 -0.13229,-0.39687 -2.44739,-8.73125 -2.11666,-11.70781 0.33073,-2.976561 0.52916,-9.19427 3.30729,-13.163019 2.77812,-3.96875 5.95312,-5.291667 5.35781,-6.085417 -0.59531,-0.79375 -8.92969,-10.120312 -6.15156,-14.221354 2.77812,-4.101042 12.36927,-6.019271 21.16666,-5.423958 8.7974,0.595312 16.20573,0.926041 19.97605,5.291666 3.77031,4.365625 3.77031,12.104688 3.9026,13.49375 0.13229,1.389063 1.6376,3.740967 0.71156,3.476384 -0.92604,-0.264583 -4.15779,0.226642 -7.72302,0.624658 -2.91041,4.233333 -2.44739,4.960937 -1.38906,6.746875 1.05833,1.785937 1.78594,4.233333 2.3151,6.085416 0.52917,1.852079 2.11667,3.241149 1.85209,5.357809 -0.26459,2.11667 -2.77813,3.90261 -2.11667,4.0349 0.66146,0.13229 2.51354,-0.66146 2.57969,-1.5875 0.0661,-0.92604 -0.19844,-2.05052 1.12448,-2.05052 1.32291,0 2.05052,1.71979 3.70416,1.71979 1.65365,0 2.57969,-0.59531 1.91823,1.71979 -0.66146,2.31511 -2.57969,10.51719 -4.10104,13.03073 -1.52135,2.51354 -0.79375,9.12813 -2.11667,10.78177 -1.32291,1.65365 -1.91822,5.68854 -9.3927,4.43177 -7.47448,-1.25677 -9.45886,-1.45521 -10.58334,-3.24114 -1.12448,-1.78594 1.71979,-3.24115 0.8599,-3.37344 -0.8599,-0.13229 -3.43958,0.99219 -3.57188,4.56406 -0.13229,3.57188 3.10886,6.28386 4.63021,6.81302 1.52136,0.52917 0.46302,3.70417 1.12448,4.69636 0.66146,0.99218 2.91042,1.52135 2.71198,2.64583 -0.19844,1.12448 -3.83646,2.24896 -4.7625,3.43958 -0.92604,1.19063 -2.24896,3.63802 -1.71979,3.70417 0.52917,0.0661 3.10885,-3.43958 4.82864,-3.96875 1.7198,-0.52917 4.82865,-3.04271 4.69636,-4.16719 -0.13229,-1.12448 2.05052,-5.15937 4.16719,-5.75469 2.11666,-0.59531 3.96875,-1.78593 3.96875,-0.85989 0,0.92604 -0.0661,3.96875 0.39687,5.09323 0.46302,1.12448 1.98438,1.98437 2.05052,4.29948 0.0661,2.3151 2.11667,4.56406 -0.92604,10.78177 -3.04271,6.21771 -19.11615,31.41927 -34.52812,27.11979 -15.41198,-4.29948 -20.30678,-29.23646 -20.30678,-29.23646 z"
             style="fill:#deaa87;fill-opacity:1;stroke:none;stroke-width:0.26458332px;stroke-linecap:butt;stroke-linejoin:miter;stroke-opacity:1" />
          <path
             inkscape:connector-curvature="0"
             id="path4804"
             d="m 201.14948,107.95 c 0.13229,-0.46302 0,-0.99219 -1.71979,-1.12448 -1.71979,-0.13229 -3.175,0.19844 -4.0349,0.19844 -0.85989,0 -2.51354,-0.52917 -2.3151,-1.71979 0.19844,-1.19063 1.19062,-1.85209 1.19062,-1.85209 0,0 -3.37343,1.12448 -4.03489,2.57969 -0.66146,1.45521 -1.05834,2.77812 -2.05052,3.37344 -0.99219,0.59531 -3.63802,2.97656 -3.63802,3.96875 0,0.99218 0.33073,1.32291 0.33073,1.32291 0,0 2.38125,-2.05052 3.10885,-3.0427 0.7276,-0.99219 2.24896,-2.24896 2.77812,-2.91042 0.52917,-0.66146 0.0661,-1.38906 0.66146,-1.52136 0.59532,-0.13229 1.5875,1.05834 3.10886,0.79375 1.52135,-0.26458 1.52135,-0.52916 3.04271,-0.39687 1.52135,0.13229 3.24114,0.0661 3.57187,0.33073 z"
             style="fill:#502d16;fill-opacity:1;stroke:none;stroke-width:0.26458332px;stroke-linecap:butt;stroke-linejoin:miter;stroke-opacity:1" />
          <path
             inkscape:connector-curvature="0"
             id="path4820"
             d="m 186.62048,117.43809 c 1.96443,1.26285 3.32082,2.15152 4.91107,2.05798 1.59026,-0.0935 2.38538,-0.32741 4.30304,-0.23386 1.91766,0.0935 4.58368,1.30962 6.26747,1.12253 1.6838,-0.18709 2.80633,-1.12253 3.18051,-0.60804 0.37418,0.51449 0.46772,2.01121 0.0935,2.43215 -0.37417,0.42095 -2.38538,0.65481 -2.10474,0.93545 0.28063,0.28063 2.66601,0.37418 3.08696,-0.42095 0.42095,-0.79513 -0.0468,-2.75956 0.65481,-3.97564 0.70158,-1.21607 2.24507,-1.68379 2.24507,-2.47892 0,-0.79513 1.82411,-4.86431 -2.94665,-5.05139 -4.77076,-0.18709 -22.21678,2.8531 -19.69108,6.22069 z"
             style="fill:#502d16;fill-opacity:1;stroke:none;stroke-width:0.26458332px;stroke-linecap:butt;stroke-linejoin:miter;stroke-opacity:1" />
          <path
             inkscape:connector-curvature="0"
             id="path4818"
             d="m 199.16511,114.86224 c 1.85208,-0.16537 2.21588,0.39687 2.94348,0.39687 0.72761,0 1.7198,-0.42994 2.14974,-0.29765 0.42995,0.13229 0.39688,-2.57969 0.39688,-2.57969 l -5.35781,0.26458 z"
             style="fill:#e9c6af;stroke:none;stroke-width:0.26458332px;stroke-linecap:butt;stroke-linejoin:miter;stroke-opacity:1" />
          <path
             inkscape:connector-curvature="0"
             id="path4800"
             d="m 186.00208,120.84844 c -1.19062,-0.59532 -1.78593,-6.01927 -1.32291,-7.14375 0.46302,-1.12448 3.37344,-2.05052 3.70416,-1.85209 0.33073,0.19844 0.19844,0.72761 0.59532,0.66146 0.39687,-0.0661 0.99218,-1.38906 1.19062,-1.19062 0.19844,0.19843 -0.13229,1.4552 0.26459,1.78593 0.39687,0.33073 1.19062,-0.99218 1.71979,-0.99218 0.52916,0 1.05833,0.79375 1.32291,0.7276 0.26459,-0.0662 1.05834,-2.11667 1.78594,-2.4474 0.72761,-0.33072 4.29948,-1.12447 5.35781,-1.19062 1.05834,-0.0662 2.84427,-0.0662 3.77032,-0.19844 0.92604,-0.13229 5.09322,1.19063 5.55625,1.85209 0.46302,0.66145 1.12447,6.61458 0.99218,7.27604 -0.13229,0.66146 -1.5875,1.71979 -2.3151,2.05052 -0.72761,0.33073 -1.05833,0.85989 -0.92604,0.46302 0.13229,-0.39688 0.79375,-3.30729 0.19843,-4.10104 -0.59531,-0.79375 -3.50572,-1.71979 -4.23333,-2.31511 -0.7276,-0.59531 -0.59531,-0.99218 -1.25677,-0.85989 -0.66146,0.13229 -2.11667,1.71979 -3.96875,1.78593 -1.85208,0.0661 -2.77812,0.0661 -4.23333,0.1323 -1.45521,0.0661 -2.18281,0.39687 -3.50573,0.66145 -1.32292,0.26459 -2.51354,0.1323 -3.10886,0.39688 -0.59531,0.26458 -0.7276,2.3151 -0.85989,3.04271 -0.13229,0.7276 -0.8599,0.99219 -0.72761,1.45521 z"
             style="fill:#1a1a1a;stroke:none;stroke-width:0.26458332px;stroke-linecap:butt;stroke-linejoin:miter;stroke-opacity:1" />
          <path
             inkscape:connector-curvature="0"
             id="path4816"
             d="m 189.50781,117.40885 c 0.59532,-0.52916 1.35599,-1.19062 1.91823,-0.7276 0.56224,0.46302 0.4961,0.69453 0.92604,0.29765 0.42995,-0.39687 1.02526,-1.12447 1.75287,-0.76067 0.7276,0.3638 1.09141,1.19062 1.28984,1.15755 0.19844,-0.0331 0.42995,-1.28984 1.15755,-0.95911 0.72761,0.33072 0.42995,0.7276 0.76068,0.69453 0.33073,-0.0331 0.46302,-1.55443 1.91823,-1.02526 1.45521,0.52916 1.19063,1.19062 1.42214,1.22369 0.23151,0.0331 1.05833,-0.99218 1.88515,-0.59531 0.82683,0.39688 0.59532,1.02526 0.79375,1.02526 0.19844,0 0.79375,-1.0914 1.42214,-0.56224 0.62838,0.52917 0.49609,1.52136 0.3638,1.65365 -0.13229,0.13229 -1.62057,0.3638 -1.71979,0.33073 -0.0992,-0.0331 -0.0331,-0.52917 -0.13229,-0.33073 -0.0992,0.19844 -0.0331,0.46302 -0.23151,0.46302 -0.19844,0 -1.88516,-0.0331 -2.14974,-0.0992 -0.26459,-0.0661 -0.26459,-0.52917 -0.39688,-0.49609 -0.13229,0.0331 0.13229,0.39687 -0.42995,0.42994 -0.56224,0.0331 -2.71198,0.0331 -2.91041,-0.13229 -0.19844,-0.16536 -0.16537,-0.42995 -0.29766,-0.42995 -0.13229,0 0.0331,0.33073 -0.13229,0.33073 -0.16537,0 -1.25677,0.0331 -1.32292,-0.13229 -0.0661,-0.16536 -0.23151,0.0661 -0.46302,0.13229 -0.23151,0.0661 -2.64583,-0.0331 -2.6789,-0.19843 -0.0331,-0.16537 -0.0661,0.16536 -0.36381,0.16536 -0.29765,0 -2.3151,-0.16536 -2.41432,-0.33073 -0.0992,-0.16536 0.0331,-1.02526 0.0331,-1.12448 z"
             style="fill:#e6e6e6;stroke:none;stroke-width:0.26458332px;stroke-linecap:butt;stroke-linejoin:miter;stroke-opacity:1" />
          <path
             inkscape:connector-curvature="0"
             id="path4802"
             d="m 196.58542,126.47083 c 0.33073,-0.59531 2.71198,-1.45521 2.51354,-1.25677 -0.19844,0.19844 0.46302,0.72761 0.79375,0.59531 0.33073,-0.13229 1.12448,-0.0661 1.78594,0.1323 0.66146,0.19843 1.52135,0.33072 2.05052,0.19843 0.52916,-0.13229 2.18281,-1.25677 2.3151,-0.85989 0.13229,0.39687 -0.19844,1.38906 -0.13229,1.91823 0.0662,0.52916 0.26458,0.66145 0.26458,0.66145 0,0 -1.05833,-0.52916 -1.19062,-0.19843 -0.13229,0.33073 -0.39688,0.92604 -0.39688,0.92604 0,0 -0.59531,-0.13229 -0.92604,-0.0661 -0.33073,0.0661 -1.12448,0.13229 -1.12448,0.52917 0,0.39687 0.0661,0.99219 0.0661,0.99219 0,0 -0.92604,-0.52917 -1.05833,-1.25677 -0.1323,-0.72761 -0.33073,-1.19063 -0.79375,-0.99219 -0.46303,0.19844 -0.79375,0.39687 -0.79375,0.39687 0,0 -0.26459,-0.85989 -0.72761,-0.79375 -0.46302,0.0661 -0.99219,0.26459 -0.99219,0.26459 0,0 -0.13229,-1.5875 -1.65364,-1.19063 z"
             style="fill:#1a1a1a;stroke:none;stroke-width:0.26458332px;stroke-linecap:butt;stroke-linejoin:miter;stroke-opacity:1" />
          <path
             inkscape:connector-curvature="0"
             id="path4806"
             d="m 175.22031,90.090624 c 0,0 2.57969,-3.836458 4.36563,-4.167188 1.78594,-0.330729 3.04271,-1.124479 3.9026,-1.521354 0.8599,-0.396875 3.70417,-0.396875 5.29167,-0.463021 1.5875,-0.06614 4.49792,1.719792 6.01927,1.91823 1.52135,0.198437 1.91823,0.396875 1.78594,0.79375 -0.13229,0.396875 -1.25677,1.852083 -2.05052,1.918229 -0.79375,0.06615 -3.96875,-1.322917 -5.95313,-1.256771 -1.98437,0.06615 -5.09323,1.124479 -5.88698,0.926042 -0.79375,-0.198438 -1.12448,-0.06615 -1.12448,-0.06615 0,0 0.66146,-0.595313 0.26459,-0.595313 -0.39688,0 -2.57969,1.058334 -3.83646,1.190625 -1.25677,0.132292 -2.77813,1.322917 -2.77813,1.322917 z"
             style="fill:#1a1a1a;stroke:none;stroke-width:0.26458332px;stroke-linecap:butt;stroke-linejoin:miter;stroke-opacity:1" />
          <path
             inkscape:connector-curvature="0"
             id="path4808"
             d="m 202.40625,89.230728 c -0.0661,-0.926042 0.33073,-2.38125 0.72761,-2.645833 0.39687,-0.264584 1.12447,-0.463021 1.12447,-0.463021 0,0 -0.33072,0.330729 0.26459,0.198437 0.59531,-0.132291 2.05052,-1.124479 3.77031,-1.719791 1.71979,-0.595313 6.01927,0.132291 5.95312,0.396875 -0.0661,0.264583 0.79375,0.926041 0.79375,1.389062 0,0.463021 -0.19843,1.719792 -0.19843,1.719792 0,0 -6.28386,-0.595313 -8.92969,-0.06615 -2.64583,0.529167 -3.50573,1.190625 -3.50573,1.190625 z"
             style="fill:#1a1a1a;stroke:none;stroke-width:0.26458332px;stroke-linecap:butt;stroke-linejoin:miter;stroke-opacity:1" />
          <path
             inkscape:connector-curvature="0"
             id="path4824"
             d="m 163.77708,120.78229 c 0.92605,-0.52917 2.11667,4.36563 4.7625,6.08542 2.64584,1.71979 7.67292,3.175 7.40834,3.57187 -0.26459,0.39688 -8.20209,-1.98437 -8.99584,-2.91041 -0.79375,-0.92605 -3.43958,-5.95313 -3.175,-6.74688 z"
             style="fill:#502d16;fill-opacity:1;stroke:none;stroke-width:0.26458332px;stroke-linecap:butt;stroke-linejoin:miter;stroke-opacity:1" />
          <path
             inkscape:connector-curvature="0"
             id="path4826"
             d="m 150.88654,106.58695 c -0.65481,-1.21608 -4.95785,-6.26747 -2.89987,-9.354434 2.05797,-3.086962 3.08696,-3.086962 5.33202,-2.245063 2.24507,0.841899 3.08697,2.619242 2.5257,3.461141 -0.56127,0.841899 -1.49671,1.496709 -1.49671,1.496709 0,0 1.77734,-1.964431 0.56127,-3.180506 -1.21608,-1.216078 -3.55469,-2.057977 -4.77076,-0.374179 -1.21608,1.683797 -1.87089,4.490132 0.74835,10.196332 z"
             style="fill:#502d16;fill-opacity:1;stroke:none;stroke-width:0.26458332px;stroke-linecap:butt;stroke-linejoin:miter;stroke-opacity:1" />
          <path
             inkscape:connector-curvature="0"
             id="path4828"
             d="m 156.87338,100.50657 c 0.0935,0.37418 0.0935,2.61924 0.56126,4.67722 0.46773,2.05797 2.80633,4.30304 2.24507,4.58367 -0.56127,0.28063 -4.77076,-0.56127 -5.7062,-1.49671 -0.93545,-0.93544 -2.71279,-2.89988 -1.02899,-4.30304 1.68379,-1.40316 3.08696,-3.55469 3.92886,-3.46114 z"
             style="fill:#502d16;fill-opacity:1;stroke:none;stroke-width:0.26458332px;stroke-linecap:butt;stroke-linejoin:miter;stroke-opacity:1" />
          <path
             sodipodi:nodetypes="cccccsscscscscscsccccc"
             inkscape:connector-curvature="0"
             id="path4810"
             d="m 154.31823,93.199478 25.99531,1.256771 c 0,0 -0.46302,4.564062 1.38907,7.805211 1.85208,3.24114 4.49791,4.36562 6.94531,4.16718 2.44739,-0.19843 6.21771,-3.0427 7.87135,-5.75468 1.65365,-2.711982 2.57969,-5.556253 2.24896,-6.680732 -0.33073,-1.124479 -0.13229,-2.38125 0.99219,-2.711979 1.12448,-0.330729 4.36562,-0.859896 4.43177,0.661458 0.0661,1.521354 0.39687,3.241146 1.19062,6.019271 0.79375,2.778122 1.7198,5.490102 5.75469,6.350002 4.0349,0.85989 7.33748,-1.38907 8.32967,-3.90261 0.99219,-2.513538 0.33073,-9.431452 -0.0661,-10.026765 -0.39688,-0.595312 -2.12136,-2.812171 -6.67603,-2.673231 -5.5446,0.169138 -7.40833,2.116667 -8.06979,2.182812 -0.66146,0.06615 -2.05052,-0.46302 -4.0349,-0.198437 -1.98437,0.264583 -2.64583,0.727604 -3.0427,0.529167 -0.39688,-0.198438 -1.25678,-2.71198 -6.81303,-2.315105 -5.55625,0.396875 -9.19427,4.29948 -10.18645,4.630209 -0.99219,0.330729 -1.52136,0.727604 -1.52136,0.727604 l -26.22309,-0.87927 c 0,0 0.16163,0.08552 1.48455,0.813124 z"
             style="fill:#000000;stroke:none;stroke-width:0.26458332px;stroke-linecap:butt;stroke-linejoin:miter;stroke-opacity:1" />
          <path
             inkscape:connector-curvature="0"
             id="path4812"
             d="m 181.36645,98.689582 c -0.25309,-2.711979 -0.0632,-5.027083 0.1898,-5.55625 0.25309,-0.529166 3.85949,-4.431771 8.79456,-4.431771 4.93508,0 6.13721,1.521355 6.83318,2.844271 0.69598,1.322917 0.88579,4.960938 -0.56943,7.342188 -1.45521,2.38125 -3.85948,7.01146 -8.60474,6.61458 -4.74527,-0.39687 -6.13722,-4.16718 -6.64337,-6.813018 z"
             style="fill:#903198;fill-opacity:1;stroke:none;stroke-width:0.25876814px;stroke-linecap:butt;stroke-linejoin:miter;stroke-opacity:1" />
          <path
             sodipodi:nodetypes="cccscc"
             inkscape:connector-curvature="0"
             id="path4814"
             d="m 205.51473,93.199478 c -0.0641,-1.719792 0.064,-2.844271 2.49707,-3.836458 2.43305,-0.992188 8.06748,-0.79375 9.41205,0.463021 1.43812,0.227782 2.94527,5.291666 1.8568,9.128124 -1.08847,3.836455 -3.58554,5.556255 -8.38761,4.299475 -4.80206,-1.25677 -5.31428,-8.598954 -5.37831,-10.054162 z"
             style="fill:#903198;fill-opacity:1;stroke:none;stroke-width:0.26031229px;stroke-linecap:butt;stroke-linejoin:miter;stroke-opacity:1" />
          <path
             inkscape:connector-curvature="0"
             id="path4830"
             d="m 189.23972,129.59886 c 0,0 -2.15152,0.65481 -2.99342,2.52569 -0.8419,1.87089 -0.56127,4.39659 0,5.0514 0.56127,0.65481 0.93544,0.74835 0.93544,0.74835 0,0 -0.28063,-0.74835 0.37418,-0.37418 0.65481,0.37418 1.21608,1.6838 2.33861,2.15152 1.12253,0.46773 1.49671,0.46773 1.49671,0.46773 0,0 -0.37418,-0.93545 0.0935,-0.8419 0.46772,0.0935 1.21608,0.93544 1.87089,1.02899 0.65481,0.0935 1.49671,0.56126 1.49671,0.56126 0,0 0,-0.65481 0.46772,-0.65481 0.46772,0 1.40317,0.8419 1.40317,0.8419 0,0 0.93544,-0.37418 1.40316,-0.18709 0.46772,0.18709 0.8419,0.65481 0.8419,0.65481 0,0 1.02898,-0.74835 1.49671,-0.46772 0.46772,0.28063 1.02899,0.37418 1.02899,0.37418 0,0 0.56126,-0.8419 1.12253,-0.74836 0.56126,0.0936 1.30962,0 1.30962,0 0,0 -0.18709,-0.37417 0.65481,-0.37417 0.8419,0 1.40316,0.46772 1.40316,0.46772 0,0 0.28064,-1.02899 0.65482,-1.02899 0.37417,0 0.74835,0 0.74835,0 0,0 -0.37418,-0.8419 0.0935,-1.40316 0.46772,-0.56127 0.8419,-0.84191 0.8419,-0.84191 0,0 -1.12253,-0.37417 -0.65481,-0.93544 0.46772,-0.56126 1.12253,-1.40316 1.12253,-1.40316 0,0 -0.37417,-0.93545 -0.28063,-1.6838 0.0936,-0.74836 0.56127,-1.59026 0.56127,-1.59026 0,0 -1.02899,0.65482 -1.49671,1.6838 -0.46773,1.02899 -1.40317,2.33861 -2.24507,2.43216 -0.8419,0.0935 -1.59025,-0.56127 -1.59025,-0.56127 0,0 0.18709,0.46772 -0.65481,0.56127 -0.8419,0.0935 -1.40316,-0.46773 -1.40316,-0.46773 0,0 0.37417,0.74836 -1.49672,0.74836 -1.87088,0 -1.40316,-0.93544 -1.40316,-0.93544 0,0 -0.18709,0.46772 -0.56127,0.46772 -0.37417,0 -0.93544,-1.02899 -0.93544,-1.02899 0,0 -0.56126,1.02899 -1.6838,0.65481 -1.12253,-0.37418 -0.8419,-0.74836 -0.8419,-0.74836 0,0 -0.56126,0.8419 -1.21607,0.56127 -0.65481,-0.28063 -2.99342,-0.18709 -2.99342,-0.65481 0,-0.46772 -0.18709,-0.18709 -0.8419,-0.56127 -0.65481,-0.37417 -0.28063,-0.93544 -0.28063,-0.93544 0,0 -0.37418,0.65481 -0.74836,-0.0935 -0.37418,-0.74836 0.56127,-3.46114 0.56127,-3.46114 z"
             style="fill:#000000;stroke:none;stroke-width:0.26458332px;stroke-linecap:butt;stroke-linejoin:miter;stroke-opacity:1" />
        </g>
        <g
           inkscape:label="Clothes"
           id="layer8-8"
           inkscape:groupmode="layer">
          <path
             inkscape:connector-curvature="0"
             id="path4859"
             d="m 271.46249,248.70832 c 0,0 -5.68853,3.83647 -14.68436,4.8948 -8.99584,1.05834 12.3031,-25.26772 14.68436,-4.8948 z"
             style="fill:#1a1a1a;stroke:none;stroke-width:0.26458332px;stroke-linecap:butt;stroke-linejoin:miter;stroke-opacity:1" />
          <path
             inkscape:connector-curvature="0"
             id="path4855"
             d="m 235.21458,264.58331 -0.52916,-15.21352 c 0,0 27.64896,-4.89479 28.04583,-3.70417 0.39688,1.19063 0.52917,4.89479 0.66146,11.90625 0.13229,7.01146 -0.26458,7.01146 -0.26458,7.01146 z"
             style="fill:#deaa87;fill-opacity:1;stroke:none;stroke-width:0.26458332px;stroke-linecap:butt;stroke-linejoin:miter;stroke-opacity:1" />
          <path
             inkscape:connector-curvature="0"
             id="path4857"
             d="m 261.94628,245.48217 c -4.11576,-0.11969 -22.15203,2.99776 -25.7545,3.62769 -0.56705,0.30544 -1.06356,0.62262 -1.4826,0.94981 l 0.0904,2.59881 c 3.42154,-0.90532 8.37294,-1.71858 11.13059,-1.83348 3.175,-0.13229 12.17082,1.19062 13.36145,1.98437 1.19062,0.79375 0.92605,1.71979 0.26459,6.74688 l -0.66146,5.02708 h 4.23333 c 0,0 0.39687,0 0.26459,-7.01146 -0.13229,-7.01146 -0.26458,-10.71562 -0.66146,-11.90625 -0.0372,-0.11162 -0.31396,-0.16975 -0.78497,-0.18345 z"
             style="fill:#502d16;fill-opacity:1;stroke:none;stroke-width:0.26458332px;stroke-linecap:butt;stroke-linejoin:miter;stroke-opacity:1" />
          <path
             inkscape:connector-curvature="0"
             id="path4851"
             d="m 78.109048,233.90079 c -4.49013,8.2319 -5.877798,14.67525 -7.465298,17.58567 -1.5875,2.91041 -2.910417,7.01145 -3.836459,8.46666 -0.926041,1.45521 -2.513541,4.63021 -2.513541,4.63021 l 26.458333,-10e-6 L 101.6,239.84479 Z"
             style="fill:#deaa87;fill-opacity:1;stroke:none;stroke-width:0.26458332px;stroke-linecap:butt;stroke-linejoin:miter;stroke-opacity:1" />
          <path
             inkscape:connector-curvature="0"
             id="path4853"
             d="m 97.358402,239.84479 c -0.300964,2.24896 -1.655301,10.71562 -3.461082,14.2875 -1.805782,3.57187 -6.320237,10.45104 -6.320237,10.45104 h 3.611564 l 10.317993,-20.68607 z"
             style="fill:#502d16;fill-opacity:1;stroke:none;stroke-width:0.28218782px;stroke-linecap:butt;stroke-linejoin:miter;stroke-opacity:1" />
          <path
             sodipodi:nodetypes="csscccsccccssccssscsssscsc"
             inkscape:connector-curvature="0"
             id="path4835"
             d="m 156.52374,150.88999 c 0,0 0.63876,16.32667 6.45959,20.29542 5.82084,3.96875 17.99167,6.87917 25.13542,2.11667 7.14375,-4.7625 18.2081,-12.57161 19.59521,-16.10473 0.82586,-3.34604 1.04504,-5.69794 1.04504,-5.69794 0,0 15.0785,9.10267 24.33892,12.54225 9.26041,3.43959 18.78541,6.35 23.28333,10.31875 4.49792,3.96875 13.49375,26.72292 12.96458,33.07292 -0.52916,6.35 -3.175,13.22917 -2.11666,19.31458 1.05833,6.08542 4.23333,21.96042 4.23333,21.96042 0,0 1.85208,-1.5875 -6.87917,-1.85208 -8.73125,-0.26459 -17.19791,3.43958 -21.16666,3.43958 -3.96875,0 -8.99584,1.05833 -8.99584,2.11667 0,1.05833 0.79375,12.17083 0.79375,12.17083 H 90.752083 c 0,0 9.950077,-18.03707 10.214667,-19.0954 0.26458,-1.05833 -5.452167,-4.45252 -9.420917,-4.45252 -3.96875,0 -10.583334,-2.38125 -12.964584,-3.96875 -2.38125,-1.5875 -4.233333,-1.05833 -3.968749,-2.11666 0.264583,-1.05834 5.291666,-7.67292 5.556249,-10.31875 0.264584,-2.64584 -1.852083,-5.29167 0.264584,-11.1125 2.116666,-5.82084 5.820833,-8.99584 6.879166,-15.08125 1.058334,-6.08542 6.085417,-15.875 7.408334,-19.05 1.322916,-3.175 6.085417,-7.67292 11.377087,-10.58334 5.29167,-2.91041 18.79705,-9.02554 27.2579,-10.86277 8.46085,-1.83723 22.97279,-7.48605 23.16792,-7.0514 z"
             style="fill:#2f5151;fill-opacity:1;stroke:none;stroke-width:0.26458332px;stroke-linecap:butt;stroke-linejoin:miter;stroke-opacity:1" />
          <path
             sodipodi:nodetypes="csssccssscsc"
             inkscape:connector-curvature="0"
             id="path4837"
             d="m 112.97709,165.62916 c -0.26459,5.82084 -2.64584,30.69167 -3.70417,39.6875 -1.05834,8.99584 -5.29167,24.07709 -6.35,29.63334 -1.05834,5.55625 -5.027087,11.37708 -6.350004,15.875 -1.322917,4.49791 -5.820833,13.75832 -5.820833,13.75832 l 67.733337,10e-6 c 0,0 -0.26459,-26.72292 -2.11667,-40.74583 -1.85208,-14.02292 -4.23333,-26.45834 -3.96875,-34.925 0.26458,-8.46667 -4.89081,-11.84386 -3.39459,-19.81018 1.49621,-7.96631 7.51833,-18.21233 7.51833,-18.21233 0,0 -20.25637,5.78708 -23.16792,6.2095 -2.94325,0.42702 -20.37873,8.52967 -20.37873,8.52967 z"
             style="fill:#223322;fill-opacity:1;stroke:none;stroke-width:0.26458332px;stroke-linecap:butt;stroke-linejoin:miter;stroke-opacity:1" />
          <path
             sodipodi:nodetypes="cccccccscscsc"
             inkscape:connector-curvature="0"
             id="path4839"
             d="m 208.759,151.49941 c 0.59275,2.79515 -4.64573,23.18782 -6.61016,28.4263 -1.96444,5.23848 -13.09621,39.10153 -16.6509,47.33343 -3.55468,8.2319 -6.08038,17.39925 -6.82873,23.66672 -0.74836,6.26747 0,13.65747 0,13.65747 l 56.54537,-10e-6 c 0,0 -0.51232,-12.34784 0.1425,-14.68645 0.6548,-2.33861 2.99341,-15.43481 2.99341,-20.11203 0,-4.67722 -0.56126,-15.43482 1.49671,-23.38609 2.05798,-7.95126 4.11595,-20.4862 3.64823,-26.09887 -0.46772,-5.61265 -0.93544,-12.90911 -1.12253,-13.47038 -0.18709,-0.56126 -11.5605,-2.81508 -17.31053,-6.86376 -5.61819,-3.95585 -16.30337,-8.46633 -16.30337,-8.46633 z"
             style="fill:#223322;fill-opacity:1;stroke:none;stroke-width:0.26458332px;stroke-linecap:butt;stroke-linejoin:miter;stroke-opacity:1" />
        </g>
      </g>
    </g>
  </g>
  <g
     inkscape:groupmode="layer"
     id="layer2"
     inkscape:label="Orange Banner">
    <rect
       style="opacity:1;fill:#de3d2d;fill-opacity:1;stroke:none;stroke-width:11.03082752;stroke-miterlimit:4;stroke-dasharray:none;stroke-opacity:1"
       id="rect4144"
       width="338.66669"
       height="43.65625"
       x="0"
       y="146.84375" />
  </g>
  <g
     inkscape:label="Blue Banner"
     id="g4203"
     inkscape:groupmode="layer"
     style="display:none">
    <rect
       y="146.84375"
       x="0"
       height="43.65625"
       width="338.66669"
       id="rect4205"
       style="opacity:1;fill:#407d93;fill-opacity:1;stroke:none;stroke-width:11.03082752;stroke-miterlimit:4;stroke-dasharray:none;stroke-opacity:1" />
  </g>
  <g
     inkscape:groupmode="layer"
     id="layer3"
     inkscape:label="Discover"
     style="display:inline">
    <text
       xml:space="preserve"
       style="font-style:normal;font-variant:normal;font-weight:normal;font-stretch:normal;font-size:11.09478283px;line-height:0%;font-family:Museo;-inkscape-font-specification:'Museo, Normal';text-align:start;letter-spacing:0px;word-spacing:0px;writing-mode:lr-tb;text-anchor:start;fill:#ffffff;fill-opacity:1;stroke:none;stroke-width:0.52590871px;stroke-linecap:butt;stroke-linejoin:miter;stroke-opacity:1"
       x="143.81041"
       y="40.100548"
       id="text4147"><tspan
         sodipodi:role="line"
         id="tspan4164"
         x="143.81041"
         y="40.100548"
         style="font-size:21.03625298px;line-height:1.25;stroke-width:0.52590871px">DISCOVER:</tspan></text>
  </g>
  <g
     inkscape:label="Interview"
     id="g4209"
     inkscape:groupmode="layer"
     style="display:none">
    <text
       id="text4211"
       y="40.767208"
       x="173.85484"
       style="font-style:normal;font-variant:normal;font-weight:normal;font-stretch:normal;line-height:0%;font-family:Museo;-inkscape-font-specification:'Museo, Normal';text-align:start;letter-spacing:0px;word-spacing:0px;writing-mode:lr-tb;text-anchor:start;fill:#ffffff;fill-opacity:1;stroke:none;stroke-width:0.50668812px;stroke-linecap:butt;stroke-linejoin:miter;stroke-opacity:1"
       xml:space="preserve"><tspan
         id="tspan4213"
         sodipodi:role="line"
         x="173.85484"
         y="40.767208"
         style="font-size:20.26743698px;line-height:1.25">INTERVIEW:</tspan></text>
  </g>
  <g
     inkscape:groupmode="layer"
     id="layer4"
     inkscape:label="Artist Name">
    <text
       xml:space="preserve"
       style="font-style:normal;font-variant:normal;font-weight:600;font-stretch:normal;font-size:14.75708008px;line-height:0%;font-family:Museo;-inkscape-font-specification:'Museo, Semi-Bold';text-align:start;letter-spacing:0px;word-spacing:0px;writing-mode:lr-tb;text-anchor:start;fill:#ffffff;fill-opacity:1;stroke:none;stroke-width:1.12226129px;stroke-linecap:butt;stroke-linejoin:miter;stroke-opacity:1"
       x="143.81262"
       y="77.046394"
       id="text4158"><tspan
         sodipodi:role="line"
         x="143.81262"
         y="77.046394"
         style="font-style:normal;font-variant:normal;font-weight:600;font-stretch:normal;font-size:44.89084625px;line-height:100%;font-family:Museo;-inkscape-font-specification:'Museo, Semi-Bold';text-align:start;writing-mode:lr-tb;text-anchor:start;fill:#ffffff;fill-opacity:1;stroke-width:1.12226129px"
         id="tspan4569">Electric</tspan><tspan
         sodipodi:role="line"
         x="143.81262"
         y="121.93724"
         style="font-style:normal;font-variant:normal;font-weight:600;font-stretch:normal;font-size:44.89084625px;line-height:100%;font-family:Museo;-inkscape-font-specification:'Museo, Semi-Bold';text-align:start;writing-mode:lr-tb;text-anchor:start;fill:#ffffff;fill-opacity:1;stroke-width:1.12226129px"
         id="tspan4652">Gauchos</tspan></text>
  </g>
  <g
     inkscape:groupmode="layer"
     id="layer6"
     inkscape:label="WEIRD">
    <path
       style="opacity:1;fill:#ffffff;fill-opacity:1;stroke:none;stroke-width:17.2258606;stroke-miterlimit:4;stroke-dasharray:none;stroke-opacity:1"
       d="M 245.3457 602.625 L 245.3457 672.625 L 495.3457 672.625 L 495.3457 602.625 L 245.3457 602.625 z M 254.20703 613.5 L 258.08398 613.5 C 261.48345 613.5 263.18217 614.17987 263.99805 617.44336 L 271.4082 648.31055 C 272.02011 650.89414 272.36133 653.41016 272.36133 653.41016 L 272.49609 653.41016 C 272.49609 653.41016 272.90446 650.96213 273.65234 648.31055 L 283.30664 613.63477 L 289.42578 613.63477 L 298.40039 648.31055 C 299.08028 650.96213 299.41992 653.41016 299.41992 653.41016 L 299.55664 653.41016 C 299.55664 653.41016 299.8295 650.89414 300.44141 648.31055 L 307.98828 617.44336 C 308.80415 614.17987 310.43452 613.5 313.83398 613.5 L 317.70898 613.5 L 317.70898 619.3457 L 316.68945 619.3457 C 315.46565 619.3457 314.71885 619.61799 314.37891 620.8418 L 303.83984 661.5 L 295.95312 661.5 L 287.79492 631.17773 C 286.97905 628.05022 286.43555 624.58203 286.43555 624.58203 L 286.29883 624.58203 C 286.29883 624.58203 285.61824 628.04985 284.73438 631.10938 L 276.0332 661.5 L 268.07812 661.5 L 257.53906 620.8418 C 257.19912 619.61799 256.45232 619.3457 255.22852 619.3457 L 254.20703 619.3457 L 254.20703 613.5 z M 326.5 613.5 L 354.7168 613.5 C 357.77632 613.5 359.06641 614.79204 359.06641 617.85156 L 359.06641 623.90234 L 352.88086 623.90234 L 352.88086 620.8418 C 352.88086 619.82196 352.33662 619.3457 351.38477 619.3457 L 337.71875 619.3457 L 337.71875 634.37305 L 354.51172 634.37305 L 354.51172 640.21875 L 337.71875 640.21875 L 337.71875 654.15625 C 337.71875 655.1081 338.26299 655.65234 339.21484 655.65234 L 353.2207 655.65234 C 354.17255 655.65234 354.7168 655.1081 354.7168 654.15625 L 354.7168 651.09766 L 360.9707 651.09766 L 360.9707 657.14844 C 360.9707 660.20796 359.67866 661.5 356.61914 661.5 L 335.27148 661.5 C 332.21196 661.5 330.91992 660.20796 330.91992 657.14844 L 330.91992 619.3457 L 326.5 619.3457 L 326.5 613.5 z M 370.41406 613.5 L 386.25586 613.5 L 386.25586 619.3457 L 381.56445 619.3457 L 381.56445 655.65234 L 386.25586 655.65234 L 386.25586 661.5 L 370.41406 661.5 L 370.41406 655.65234 L 375.10547 655.65234 L 375.10547 619.3457 L 370.41406 619.3457 L 370.41406 613.5 z M 396.6543 613.5 L 417.5957 613.5 C 426.02638 613.5 431.94141 618.80359 431.94141 627.57422 C 431.94141 635.59696 426.70611 639.53923 423.30664 640.28711 L 423.30664 640.42383 C 423.30664 640.42383 424.52983 641.03585 425.3457 642.59961 L 431.125 654.08984 C 431.80489 655.51762 432.89365 655.65234 434.52539 655.65234 L 435.4082 655.65234 L 435.4082 661.5 L 432.07812 661.5 C 428.33871 661.5 426.97782 661.02399 425.41406 657.89648 L 418.88672 644.97852 C 417.66291 642.73487 416.78049 642.39453 414.12891 642.39453 L 407.87305 642.39453 L 407.87305 661.5 L 401.07422 661.5 L 401.07422 619.3457 L 396.6543 619.3457 L 396.6543 613.5 z M 443.75 613.5 L 463.19531 613.5 C 477.81302 613.5 487.4668 622.27002 487.4668 637.43164 C 487.4668 652.66125 477.81302 661.5 463.19531 661.5 L 452.51953 661.5 C 449.46001 661.5 448.16992 660.20796 448.16992 657.14844 L 448.16992 619.3457 L 443.75 619.3457 L 443.75 613.5 z M 407.87305 619.3457 L 407.87305 636.54883 L 416.71094 636.54883 C 421.87813 636.54883 424.9375 633.21686 424.9375 627.8457 C 424.9375 622.47455 421.87887 619.3457 416.84766 619.3457 L 407.87305 619.3457 z M 454.96875 619.3457 L 454.96875 654.15625 C 454.96875 655.1081 455.51299 655.65234 456.46484 655.65234 L 462.71875 655.65234 C 473.39308 655.65234 480.39648 649.26179 480.39648 637.43164 C 480.39648 625.66949 473.32509 619.3457 462.71875 619.3457 L 454.96875 619.3457 z "
       transform="scale(0.26458334)"
       id="rect4172" />
  </g>
  <g
     inkscape:groupmode="layer"
     id="layer7"
     inkscape:label="MAKE">
    <text
       xml:space="preserve"
       style="font-style:normal;font-variant:normal;font-weight:normal;font-stretch:normal;line-height:0%;font-family:Museo;-inkscape-font-specification:'Museo, Normal';text-align:start;letter-spacing:0px;word-spacing:0px;writing-mode:lr-tb;text-anchor:start;fill:#ffffff;fill-opacity:1;stroke:none;stroke-width:0.26458335px;stroke-linecap:butt;stroke-linejoin:miter;stroke-opacity:1"
       x="10.690782"
       y="175.02188"
       id="text4175"><tspan
         sodipodi:role="line"
         id="tspan4177"
         x="10.690782"
         y="175.02188"
         style="font-style:normal;font-variant:normal;font-weight:normal;font-stretch:normal;font-size:17.99166679px;line-height:100%;font-family:Museo;-inkscape-font-specification:'Museo, Normal';text-align:start;letter-spacing:1.32291675px;writing-mode:lr-tb;text-anchor:start;fill:#ffffff;fill-opacity:1;stroke-width:0.26458335px">MAKE</tspan></text>
  </g>
  <g
     inkscape:groupmode="layer"
     id="layer8"
     inkscape:label="MUSIC">
    <text
       xml:space="preserve"
       style="font-style:normal;font-variant:normal;font-weight:normal;font-stretch:normal;line-height:0%;font-family:Museo;-inkscape-font-specification:'Museo, Normal';text-align:start;letter-spacing:0px;word-spacing:0px;writing-mode:lr-tb;text-anchor:start;fill:#ffffff;fill-opacity:1;stroke:none;stroke-width:0.26458335px;stroke-linecap:butt;stroke-linejoin:miter;stroke-opacity:1"
       x="134.21758"
       y="174.80598"
       id="text4180"><tspan
         sodipodi:role="line"
         id="tspan4182"
         x="134.21758"
         y="174.80598"
         style="font-style:normal;font-variant:normal;font-weight:normal;font-stretch:normal;font-size:17.99166679px;line-height:100%;font-family:Museo;-inkscape-font-specification:'Museo, Normal';text-align:start;writing-mode:lr-tb;text-anchor:start;fill:#ffffff;fill-opacity:1;stroke-width:0.26458335px">MUSIC</tspan></text>
  </g>
</svg>
