<?xml version="1.0" encoding="UTF-8" standalone="no"?>
<!-- Created with Inkscape (http://www.inkscape.org/) -->

<svg
   xmlns:dc="http://purl.org/dc/elements/1.1/"
   xmlns:cc="http://creativecommons.org/ns#"
   xmlns:rdf="http://www.w3.org/1999/02/22-rdf-syntax-ns#"
   xmlns:svg="http://www.w3.org/2000/svg"
   xmlns="http://www.w3.org/2000/svg"
   xmlns:xlink="http://www.w3.org/1999/xlink"
   xmlns:sodipodi="http://sodipodi.sourceforge.net/DTD/sodipodi-0.dtd"
   xmlns:inkscape="http://www.inkscape.org/namespaces/inkscape"
   width="1000"
   height="1000"
   viewBox="0 0 264.58333 264.58334"
   id="svg4332"
   version="1.1"
   inkscape:version="0.91+devel r13925"
   sodipodi:docname="mike-keneally-live.svg"
   inkscape:export-filename="/Users/agarone/Desktop/MWM Art/mike-keneally/mike-keneally-live.png"
   inkscape:export-xdpi="96"
   inkscape:export-ydpi="96">
  <defs
     id="defs4334">
    <linearGradient
       inkscape:collect="always"
       id="linearGradient4888">
      <stop
         style="stop-color:#1b752b;stop-opacity:1;"
         offset="0"
         id="stop4890" />
      <stop
         style="stop-color:#1b752b;stop-opacity:1"
         offset="1"
         id="stop4892" />
    </linearGradient>
    <linearGradient
       inkscape:collect="always"
       id="linearGradient4880">
      <stop
         style="stop-color:#171717;stop-opacity:1"
         offset="0"
         id="stop4882" />
      <stop
         style="stop-color:#323232;stop-opacity:1"
         offset="1"
         id="stop4884" />
    </linearGradient>
    <linearGradient
       inkscape:collect="always"
       id="linearGradient4851">
      <stop
         style="stop-color:#ffe6d5;stop-opacity:1;"
         offset="0"
         id="stop4853" />
      <stop
         style="stop-color:#ffc9a4;stop-opacity:1"
         offset="1"
         id="stop4855" />
    </linearGradient>
    <linearGradient
       inkscape:collect="always"
       id="linearGradient4838">
      <stop
         style="stop-color:#545454;stop-opacity:1;"
         offset="0"
         id="stop4840" />
      <stop
         style="stop-color:#222222;stop-opacity:1"
         offset="1"
         id="stop4842" />
    </linearGradient>
    <linearGradient
       inkscape:collect="always"
       id="linearGradient4826">
      <stop
         style="stop-color:#d6d6d6;stop-opacity:1"
         offset="0"
         id="stop4828" />
      <stop
         style="stop-color:#828282;stop-opacity:1"
         offset="1"
         id="stop4830" />
    </linearGradient>
    <linearGradient
       inkscape:collect="always"
       id="linearGradient4785">
      <stop
         style="stop-color:#c8c8c8;stop-opacity:1;"
         offset="0"
         id="stop4787" />
      <stop
         style="stop-color:#f0f0f0;stop-opacity:1"
         offset="1"
         id="stop4789" />
    </linearGradient>
    <linearGradient
       inkscape:collect="always"
       xlink:href="#linearGradient4785"
       id="linearGradient4791"
       x1="132.85204"
       y1="92.673195"
       x2="161.09653"
       y2="24.102463"
       gradientUnits="userSpaceOnUse" />
    <radialGradient
       inkscape:collect="always"
       xlink:href="#linearGradient4826"
       id="radialGradient4834"
       cx="187.87778"
       cy="87.903091"
       fx="187.87778"
       fy="87.903091"
       r="12.874813"
       gradientUnits="userSpaceOnUse"
       gradientTransform="matrix(0.95045867,0,0,0.95045867,11.323108,3.4258001)" />
    <linearGradient
       inkscape:collect="always"
       xlink:href="#linearGradient4838"
       id="linearGradient4844"
       x1="217.16295"
       y1="93.761711"
       x2="211.05243"
       y2="110.7234"
       gradientUnits="userSpaceOnUse" />
    <linearGradient
       inkscape:collect="always"
       xlink:href="#linearGradient4851"
       id="linearGradient4857"
       x1="27.671131"
       y1="36.876442"
       x2="186.28686"
       y2="68.948787"
       gradientUnits="userSpaceOnUse" />
    <linearGradient
       inkscape:collect="always"
       xlink:href="#linearGradient4880"
       id="linearGradient4886"
       x1="236.9146"
       y1="128.22842"
       x2="249.84224"
       y2="100.82514"
       gradientUnits="userSpaceOnUse" />
    <linearGradient
       inkscape:collect="always"
       xlink:href="#linearGradient4888"
       id="linearGradient4894"
       x1="126.3391"
       y1="220.39328"
       x2="125.34941"
       y2="118.83085"
       gradientUnits="userSpaceOnUse" />
  </defs>
  <sodipodi:namedview
     id="base"
     pagecolor="#ffffff"
     bordercolor="#666666"
     borderopacity="1.0"
     inkscape:pageopacity="0.0"
     inkscape:pageshadow="2"
     inkscape:zoom="0.98994949"
     inkscape:cx="602.12748"
     inkscape:cy="538.64999"
     inkscape:document-units="px"
     inkscape:current-layer="layer1"
     showgrid="false"
     units="px"
     showguides="true"
     inkscape:guide-bbox="true"
     inkscape:window-width="1920"
     inkscape:window-height="1152"
     inkscape:window-x="0"
     inkscape:window-y="0"
     inkscape:window-maximized="1">
    <sodipodi:guide
       position="264.58333,0"
       orientation="1,0"
       id="guide4340"
       inkscape:label=""
       inkscape:color="rgb(0,0,255)" />
    <sodipodi:guide
       position="0,0"
       orientation="1,0"
       id="guide4342"
       inkscape:label=""
       inkscape:color="rgb(0,0,255)" />
    <sodipodi:guide
       position="0,0"
       orientation="0,1"
       id="guide4344"
       inkscape:label=""
       inkscape:color="rgb(0,0,255)" />
    <sodipodi:guide
       position="0,264.58333"
       orientation="0,1"
       id="guide4346"
       inkscape:label=""
       inkscape:color="rgb(0,0,255)" />
  </sodipodi:namedview>
  <metadata
     id="metadata4337">
    <rdf:RDF>
      <cc:Work
         rdf:about="">
        <dc:format>image/svg+xml</dc:format>
        <dc:type
           rdf:resource="http://purl.org/dc/dcmitype/StillImage" />
        <dc:title></dc:title>
      </cc:Work>
    </rdf:RDF>
  </metadata>
  <g
     inkscape:label="BG"
     inkscape:groupmode="layer"
     id="layer1"
     transform="translate(0,-32.41665)"
     style="display:none">
    <rect
       style="opacity:1;fill:#ffffff;fill-opacity:1;stroke:none;stroke-width:11.60810661;stroke-miterlimit:4;stroke-dasharray:none;stroke-opacity:1"
       id="rect5606"
       width="264.58334"
       height="264.58334"
       x="0"
       y="32.416653" />
  </g>
  <g
     inkscape:groupmode="layer"
     id="layer3"
     inkscape:label="Body"
     style="display:inline">
    <path
       style="fill:url(#linearGradient4894);fill-opacity:1;fill-rule:evenodd;stroke:none;stroke-width:0.26458332px;stroke-linecap:butt;stroke-linejoin:miter;stroke-opacity:1"
       d="M 0,264.58333 0,121.32687 c 0,0 -3.4745031,-4.27632 35.546847,-27.796036 13.625461,-8.212607 28.852554,-12.77849 43.608848,-11.039438 27.503595,3.241342 54.189875,22.775174 71.584315,41.909064 26.72695,29.39965 47.30671,75.77092 47.30671,98.35519 0,22.58428 -0.66817,41.82768 -0.66817,41.82768 z"
       id="path4777"
       inkscape:connector-curvature="0"
       sodipodi:nodetypes="ccsssscc" />
  </g>
  <g
     inkscape:groupmode="layer"
     id="layer15"
     inkscape:label="Shirt"
     style="display:inline">
    <path
       style="fill:#252a26;fill-opacity:1;fill-rule:evenodd;stroke:none;stroke-width:0.26458332px;stroke-linecap:butt;stroke-linejoin:miter;stroke-opacity:1"
       d="m 76.572718,71.681551 c 0,0 7.684,0.100227 9.955791,1.202714 2.27179,1.102484 0.943142,8.873616 0.943142,8.873616 l -13.629355,3.340124 c 0,0 0.625674,-12.380785 2.730422,-13.416454 z"
       id="path4849"
       inkscape:connector-curvature="0"
       sodipodi:nodetypes="csccc" />
    <path
       style="fill:#444c45;fill-opacity:1;fill-rule:evenodd;stroke:none;stroke-width:0.26458332px;stroke-linecap:butt;stroke-linejoin:miter;stroke-opacity:1"
       d="m 76.729166,71.626486 c -2.645834,-0.188987 -17.197917,10.01637 -21.922618,11.90625 -4.724705,1.889881 -9.827382,3.023811 -13.607143,3.023811 -3.779763,0 -5.669645,6.425594 -5.669645,6.425594 0,0 -5.291664,1.511904 -18.709819,10.772319 C 4.528174,112.23751 0,117.92857 0,117.92857 l 0,146.65476 71.815475,0 c 0,0 32.694945,-63.12202 33.072915,-74.6503 0.37798,-11.52827 -12.473214,-74.27232 -20.221724,-85.6116 -7.748511,-11.339289 -10.394344,-30.049111 -7.9375,-32.694944 z"
       id="path4847"
       inkscape:connector-curvature="0"
       sodipodi:nodetypes="csscscccssc" />
    <path
       style="display:inline;fill:#000000;fill-rule:evenodd;stroke:none;stroke-width:0.26458332px;stroke-linecap:butt;stroke-linejoin:miter;stroke-opacity:1;fill-opacity:0.15686275"
       d="m 53.453905,264.58333 c 0,0 -19.243405,-22.71791 -20.579754,-36.08138 -1.336347,-13.36348 16.83798,-28.33057 18.441598,-35.01231 1.603616,-6.68174 4.543581,-25.12334 4.543581,-25.12334 0,0 1.336347,21.9161 -0.534538,35.01231 -1.870887,13.09621 -6.414468,23.51972 -4.276312,33.40869 2.138156,9.88897 2.405425,27.79603 2.405425,27.79603 z"
       id="path4875"
       inkscape:connector-curvature="0" />
  </g>
  <g
     inkscape:groupmode="layer"
     id="layer4"
     inkscape:label="Head"
     style="display:inline">
    <path
       style="fill:url(#linearGradient4857);fill-opacity:1;fill-rule:evenodd;stroke:none;stroke-width:0.26458332px;stroke-linecap:butt;stroke-linejoin:miter;stroke-opacity:1"
       d="m 82.586284,82.973689 c 0,0 -2.405428,2.80633 0.534538,6.681738 2.939965,3.875407 37.684998,44.233103 42.763128,46.237623 5.07812,2.00452 2.93996,2.00452 2.93996,2.00452 0,0 4.94449,-8.01808 7.88445,-9.35443 2.93997,-1.33635 11.09169,-2.67269 12.36122,-1.9377 1.26953,0.73499 13.69756,4.27631 17.50615,1.80407 3.80859,-2.47224 11.35896,-13.29666 10.89123,-19.44386 -0.46772,-6.1472 1.5368,-20.112033 2.6727,-23.386085 1.13589,-3.274052 2.07134,-5.946745 2.07134,-7.283092 0,-1.33635 -0.53454,-2.539061 -0.53454,-2.539061 0,0 2.00452,-1.403165 2.53906,-2.739514 0.53454,-1.336347 0.26727,-3.006781 -0.20045,-4.276313 -0.46772,-1.269529 -1.93771,-5.412208 -1.93771,-5.412208 0,0 2.13816,-1.202711 2.73952,-2.53906 0.60135,-1.336347 -0.33409,-4.610399 -0.13364,-5.479024 0.20045,-0.868627 1.60362,-0.868627 1.60362,-1.603618 0,-0.734991 -1.5368,-2.873148 -1.67044,-4.543581 -0.13363,-1.670436 0.33409,-6.614922 -0.26727,-8.68626 -0.60135,-2.071339 -2.20497,-7.416729 -2.20497,-8.819894 0,-1.403167 -1.9377,-8.619443 -4.87767,-12.428034 C 174.32655,15.421316 161.8317,5.1847522 155.35041,2.5923786 148.86913,4.9999997e-6 146.39688,4.9999997e-6 146.39688,4.9999997e-6 l -21.11429,0 c 0,0 -11.82668,4.9309819000003 -18.70887,11.2786330000003 -6.882187,6.347651 -19.377037,27.528762 -18.775682,40.357699 0.601356,12.828936 -1.5368,13.49711 -1.469982,17.105248 0.06682,3.608139 1.135896,6.548105 0.668173,9.087165 -0.46772,2.539061 -4.409945,5.144939 -4.409945,5.144939 z"
       id="path4780"
       inkscape:connector-curvature="0" />
    <path
       style="fill:#444c45;fill-opacity:1;fill-rule:evenodd;stroke:none;stroke-width:0.26458332px;stroke-linecap:butt;stroke-linejoin:miter;stroke-opacity:1"
       d="m 143.52374,125.33591 c 0,0 17.37251,48.91032 20.31248,61.73926 2.93996,12.82893 3.20723,49.44486 4.27631,59.06656 1.06908,9.62171 3.4745,18.4416 3.4745,18.4416 l 28.59784,0 c 0,0 2.13816,-41.96132 -0.8018,-54.79025 -2.93997,-12.82894 -30.736,-79.64632 -37.15047,-82.31902 -6.41447,-2.67269 -18.70886,-2.13815 -18.70886,-2.13815 z"
       id="path4859"
       inkscape:connector-curvature="0" />
  </g>
  <g
     inkscape:groupmode="layer"
     id="layer12"
     inkscape:label="Mouth">
    <path
       style="fill:#000000;fill-rule:evenodd;stroke:none;stroke-width:0.26458332px;stroke-linecap:butt;stroke-linejoin:miter;stroke-opacity:1;fill-opacity:0.32142857"
       d="m 156.86012,92.698659 c 0,0 2.07887,-4.866444 3.07105,-5.480653 0.99219,-0.614212 7.89026,-1.748142 10.11087,-0.803201 2.22061,0.944941 5.43341,2.267857 5.66964,3.307291 0.23623,1.039434 -1.55915,4.110493 -1.74814,4.960938 -0.18899,0.850447 0.51972,4.157739 0.0472,4.488468 -0.47247,0.330729 -3.11831,-1.653646 -5.90588,-2.504093 -2.78758,-0.850445 -10.81957,-3.543528 -11.24479,-3.96875 z"
       id="path4816"
       inkscape:connector-curvature="0" />
  </g>
  <g
     inkscape:groupmode="layer"
     id="layer13"
     inkscape:label="Teeth">
    <path
       style="fill:#e0e0e0;fill-rule:evenodd;stroke:none;stroke-width:0.26458332px;stroke-linecap:butt;stroke-linejoin:miter;stroke-opacity:1;fill-opacity:0.3214286"
       d="m 160.45089,87.548735 c 0,0 4.77195,0.614209 6.09487,1.181174 1.32291,0.566965 6.00037,2.456847 6.00037,2.456847 0,0 0.75595,0.661458 1.08668,1.133927 0.33073,0.472469 0.89769,-1.937128 0,-2.834823 -0.89769,-0.897691 -4.7247,-2.787573 -6.09486,-3.118302 -1.37017,-0.330729 -6.23661,-0.04725 -7.08706,1.181177 z"
       id="path4819"
       inkscape:connector-curvature="0" />
    <path
       style="fill:#e0e0e0;fill-rule:evenodd;stroke:none;stroke-width:0.26458332px;stroke-linecap:butt;stroke-linejoin:miter;stroke-opacity:1;fill-opacity:0.3214286"
       d="m 170.89248,97.565103 c 0,0 0.56697,-1.464659 0.51972,-1.748139 -0.0473,-0.283483 -2.78757,-1.559153 -4.25223,-2.078871 -1.46466,-0.519716 -7.32329,-1.889879 -8.12649,-1.889879 -0.8032,0 -1.41741,1.039434 -1.41741,1.039434 0,0 11.9535,4.346726 13.27641,4.677455 z"
       id="path4821"
       inkscape:connector-curvature="0" />
  </g>
  <g
     inkscape:groupmode="layer"
     id="layer5"
     inkscape:label="Beard"
     style="display:inline">
    <path
       style="fill:url(#linearGradient4791);fill-opacity:1;fill-rule:evenodd;stroke:none;stroke-width:0.26458332px;stroke-linecap:butt;stroke-linejoin:miter;stroke-opacity:1"
       d="m 109.23512,44.790177 c 5.66964,0.566965 13.04018,10.016371 12.09524,21.544642 -0.94494,11.528274 -10.39435,25.891371 -10.39435,30.049107 0,4.157744 19.46577,32.411454 23.34003,32.411454 3.87426,0 5.76414,0 8.40997,-0.47246 2.64583,-0.47248 3.63802,-1.79539 5.05543,-1.88988 1.41741,-0.0945 10.53609,5.95312 11.76451,5.95312 1.22842,0 14.57287,-6.479 15.68601,-7.9375 0.7589,-0.99435 5.16845,-14.98821 1.86598,-21.22759 -1.96124,0.0797 -0.82501,2.80999 -0.71941,4.43453 -1.16049,1.03163 -3.16261,0.69174 -3.63699,0.1811 -2.35033,-2.52995 0.97852,-5.59414 -4.12416,-6.2556 -5.10268,-0.66146 -2.17336,4.91369 -5.00818,4.7247 -2.83483,-0.18899 -11.52828,-4.15774 -11.52828,-6.992558 0,-2.83482 6.04762,-12.189732 8.59896,-13.32366 2.55134,-1.13393 10.20536,-0.661458 11.90625,0.661459 1.70089,1.322916 5.57515,3.96875 6.3311,3.96875 0.75595,0 3.11831,-5.669644 0.75596,-9.82738 -2.36235,-4.157739 -6.04762,-4.441222 -8.59896,-4.441222 -2.55134,0 -6.89807,-1.228422 -11.71727,4.724702 -4.81919,5.953125 -7.9375,11.150299 -11.24479,11.150299 -3.30729,0 -13.41815,-17.859375 -15.40253,-27.497767 -1.98437,-9.638395 -8.03199,-19.182292 -7.37053,-23.8125 0.66145,-4.630208 5.10267,-11.055805 4.91369,-16.725447 -0.18899,-5.669643 -0.75595,-13.985119 1.22842,-14.7410718 1.98438,-0.7559524 13.98512,-4.346726 19.37128,-2.7403274 5.38616,1.6063989 22.58407,14.9300592 24.00149,14.5520832 1.41741,-0.377976 7.843,-9.449404 7.843,-10.866815 0,-1.417411 0.66146,-4.3467265 0.66146,-4.3467265 0,0 -3.77976,2.9293155 -8.50446,0.1889881 C 170.08928,3.4962793 161.58482,4.9999997e-6 161.58482,4.9999997e-6 l -43.84524,0 c 0,0 -13.41815,11.5282680000003 -16.72545,15.8749950000003 -3.307287,4.346726 -12.378714,22.300594 -12.75669,28.442708 -0.377976,6.142111 0.188986,10.866815 -0.188989,14.079611 -0.377976,3.212799 -2.267858,5.575149 -1.984375,9.354913 0.283482,3.77976 0.377975,8.88244 2.173364,8.976934 1.795385,0.09449 11.433778,-1.984375 12.00074,-3.496281 0.56697,-1.511903 1.13393,-3.779761 -0.28348,-7.276042 -1.41741,-3.496278 -2.83482,-8.598958 -2.078868,-12.567708 0.755952,-3.96875 4.441218,-10.110861 11.339288,-8.598958 z"
       id="path4783"
       inkscape:connector-curvature="0"
       sodipodi:nodetypes="csssssssccsssssssssssssssssscsccssssssssc" />
    <path
       style="fill:#000000;fill-opacity:0.03273812;fill-rule:evenodd;stroke:none;stroke-width:0.26458332px;stroke-linecap:butt;stroke-linejoin:miter;stroke-opacity:1"
       d="m 113.05501,98.341687 c 0,0 18.8543,7.416393 20.72519,10.089083 1.87089,2.6727 5.10499,7.77999 8.04495,10.71995 2.93997,2.93997 11.61025,10.05249 11.61025,10.05249 0,0 -4.17638,-2.03864 -5.4349,-2.79823 -0.43055,-0.25986 -2.15019,1.40178 -6.20996,2.13411 -2.471,0.212 -7.31244,0.4414 -7.95508,0.19963 -3.86812,-1.57397 -23.05224,-26.52163 -20.78045,-30.397033 z"
       id="path4861"
       inkscape:connector-curvature="0"
       sodipodi:nodetypes="csscsccc" />
  </g>
  <g
     inkscape:groupmode="layer"
     id="layer6"
     inkscape:label="Cheek"
     style="display:inline">
    <path
       style="fill:#000000;fill-opacity:0.09523812;fill-rule:evenodd;stroke:none;stroke-width:0.26458332px;stroke-linecap:butt;stroke-linejoin:miter;stroke-opacity:1"
       d="m 155.15922,75.406249 c 2.07887,-2.55134 10.77233,-10.48884 12.18974,-9.827382 1.41741,0.661459 3.21279,0.944941 3.21279,0.944941 0,0 -2.93979,0.0172 -4.06324,2.173365 -1.18778,2.279634 -1.24217,3.782539 -0.45823,5.896787 0.27106,0.731042 4.47088,1.112967 4.47088,1.112967 0,0 -4.27043,0.01441 -7.10328,1.729554 -4.31758,2.61406 -11.93392,12.427358 -12.97336,11.954886 -1.03943,-0.472469 2.83482,-11.339285 4.7247,-13.985118 z"
       id="path4794"
       inkscape:connector-curvature="0"
       sodipodi:nodetypes="cscsscssc" />
  </g>
  <g
     inkscape:groupmode="layer"
     id="layer7"
     inkscape:label="Nose"
     style="display:inline">
    <path
       style="fill:#000000;fill-opacity:0.09523812;fill-rule:evenodd;stroke:none;stroke-width:0.26458332px;stroke-linecap:butt;stroke-linejoin:miter;stroke-opacity:1"
       d="m 173.68006,68.886159 c 2.64583,0 5.48065,1.511906 6.80357,1.889882 1.32292,0.377976 3.09062,-3.090628 3.09062,-3.090628 0,0 1.29545,2.981647 0.88861,4.980509 -0.50587,2.485505 -4.26271,3.96875 -6.0581,3.96875 -1.79539,0 -3.40179,-1.322916 -5.57515,-1.700895 -2.17336,-0.377976 -5.95312,1.039437 -6.61458,-0.661458 -0.66146,-1.700892 5.38616,-5.197171 7.46503,-5.38616 z"
       id="path4797"
       inkscape:connector-curvature="0"
       sodipodi:nodetypes="cscssssc" />
  </g>
  <g
     inkscape:groupmode="layer"
     id="layer8"
     inkscape:label="Nostril">
    <path
       style="fill:#000000;fill-rule:evenodd;stroke:none;stroke-width:0.26458332px;stroke-linecap:butt;stroke-linejoin:miter;stroke-opacity:1;fill-opacity:0.36309522"
       d="m 174.05803,70.870534 c 2.74033,0.188989 3.59078,2.834823 3.40179,3.685267 -0.18899,0.850448 -1.88988,-0.472469 -3.87426,-0.472469 -1.98437,0 -4.6302,-0.188989 -4.53571,-0.755951 0.0945,-0.566965 3.30729,-2.456847 5.00818,-2.456847 z"
       id="path4800"
       inkscape:connector-curvature="0" />
  </g>
  <g
     inkscape:groupmode="layer"
     id="layer9"
     inkscape:label="Eye Shadow"
     style="display:inline">
    <path
       style="fill:#000000;fill-opacity:0.09411765;fill-rule:evenodd;stroke:none;stroke-width:0.26458332px;stroke-linecap:butt;stroke-linejoin:miter;stroke-opacity:1"
       d="m 153.17485,58.775298 c 0,0 5.38616,3.212795 8.97693,3.685267 3.59078,0.472469 13.22917,-7.748513 15.11905,-7.087055 1.88988,0.661458 1.86657,0.539139 2.23406,1.307539 0.3675,0.7684 2.56563,6.647982 2.56563,6.647982 0,0 2.7423,-1.170577 2.95457,-3.473461 0.12707,-1.378502 -0.63442,-4.503752 -0.21261,-4.832102 0.44004,-0.342541 1.50779,-0.784264 1.50779,-1.285396 0,-0.501128 -1.5368,-3.337856 -1.67043,-4.206484 -0.13364,-0.868624 0.0334,-5.111528 -0.0167,-5.829817 -0.25057,0.534541 -1.18601,3.725071 -1.72055,3.758478 -0.53454,0.03341 -0.80181,-0.935443 -0.80181,-1.837476 0,-0.902036 0.0668,-3.942225 -0.10022,-4.142679 -0.16705,-0.200451 -1.06908,4.677217 -1.73726,4.87767 -0.66817,0.200451 -1.53679,-4.176088 -1.53679,-4.176088 0,0 -1.83748,5.879931 -3.27406,6.280835 -1.43657,0.400905 -4.40994,-2.873147 -6.48128,-2.405427 -2.07134,0.467722 -4.37654,2.372019 -5.14494,2.372019 -0.7684,0 2.7061,0.902033 2.10475,1.804069 -0.60136,0.902033 -8.35218,0.534538 -10.15624,0.668173 -1.80407,0.133633 -6.54811,1.670434 -6.54811,1.670434 0,0 3.97564,1.503392 5.11153,2.438834 1.13589,0.935445 4.81085,1.937705 4.71062,2.772923 -0.10022,0.835216 -2.31319,2.250792 -5.88392,0.991762 z"
       id="path4803"
       inkscape:connector-curvature="0"
       sodipodi:nodetypes="cssscsssccsscscssssscsccc" />
  </g>
  <g
     inkscape:groupmode="layer"
     id="layer10"
     inkscape:label="Eyes">
    <path
       style="fill:#000000;fill-rule:evenodd;stroke:none;stroke-width:0.26458332px;stroke-linecap:butt;stroke-linejoin:miter;stroke-opacity:1;fill-opacity:0.32142857"
       d="m 151.00149,53.105653 c 0,0 7.79002,0.368162 9.36023,0.802473 1.5702,0.434313 3.97563,0.968854 5.21175,0.734991 1.23612,-0.23386 2.90656,-0.367495 2.90656,-0.367495 0,0 -3.74178,2.138156 -7.01583,1.603618 -3.27405,-0.53454 -3.40769,-1.169305 -5.41221,-1.670434 -2.00452,-0.501131 -5.0505,-1.103153 -5.0505,-1.103153 z"
       id="path4806"
       inkscape:connector-curvature="0" />
    <path
       style="fill:#000000;fill-opacity:0.32142861;fill-rule:evenodd;stroke:none;stroke-width:0.26458332px;stroke-linecap:butt;stroke-linejoin:miter;stroke-opacity:1"
       d="m 180.50884,59.078369 c 0,0 2.00689,1.271209 2.50802,1.404842 0.50113,0.133635 1.80931,0.265591 1.80931,0.265591 0,0 -0.088,0.279711 -0.27092,0.468545 -0.17121,0.176697 -1.12858,0.04022 -1.64267,-0.05953 -0.84078,-0.163149 -2.18539,-1.452056 -2.28344,-1.726605 -0.0612,-0.171295 -0.1203,-0.352838 -0.1203,-0.352838 z"
       id="path4808"
       inkscape:connector-curvature="0"
       sodipodi:nodetypes="cscsssc" />
  </g>
  <g
     inkscape:groupmode="layer"
     id="layer11"
     inkscape:label="Brows"
     style="display:inline">
    <path
       style="fill:#000000;fill-opacity:0.32142861;fill-rule:evenodd;stroke:none;stroke-width:0.26458332px;stroke-linecap:butt;stroke-linejoin:miter;stroke-opacity:1"
       d="m 150.57297,47.927971 c 0,0 3.04019,-1.23612 4.40995,-1.135896 1.36975,0.100227 13.66415,4.376539 15.50163,4.209497 1.83747,-0.167045 5.51243,-0.835218 5.57925,-1.436574 0.0668,-0.601358 -17.77342,-6.949008 -21.44838,-5.946748 -3.67496,1.00226 -4.04245,4.309721 -4.04245,4.309721 z"
       id="path4811"
       inkscape:connector-curvature="0" />
    <path
       style="fill:#000000;fill-opacity:0.32142861;fill-rule:evenodd;stroke:none;stroke-width:0.26458332px;stroke-linecap:butt;stroke-linejoin:miter;stroke-opacity:1"
       d="m 180.6742,50.834527 c 0,0 0.30068,0.902036 -0.0334,1.703843 -0.33409,0.801809 -1.43657,1.804069 -1.43657,1.804069 0,0 4.27631,-0.7684 5.14493,-0.434313 0.86863,0.334089 1.06908,0.801809 1.06908,0.801809 0,0 0.90204,-0.300676 0.90204,-0.96885 0,-0.668176 -0.83522,-3.140417 -1.93771,-3.0736 -1.10248,0.06682 -3.70836,0.167042 -3.70836,0.167042 z"
       id="path4813"
       inkscape:connector-curvature="0"
       sodipodi:nodetypes="cscscsscc" />
  </g>
  <g
     inkscape:groupmode="layer"
     id="layer16"
     inkscape:label="Ears">
    <path
       style="fill:#000000;fill-rule:evenodd;stroke:none;stroke-width:0.26458332px;stroke-linecap:butt;stroke-linejoin:miter;stroke-opacity:1;fill-opacity:0.15773809"
       d="m 111.45139,59.253519 c 0,0 -5.34539,3.608139 -5.81311,3.541321 -0.46772,-0.06682 -1.80407,-3.073601 -0.80181,-4.744035 1.00226,-1.670434 4.34313,-2.00452 5.27857,-2.539061 0.93545,-0.534537 1.80407,-2.338607 0.33409,-2.605878 -1.46998,-0.267269 -1.73725,-2.672694 -3.94222,-2.672694 -2.20498,0 -3.20724,2.405425 -4.47677,2.605878 -1.26953,0.200451 -2.939963,4.209495 -2.939963,4.209495 0,0 0.400905,-9.888974 5.278573,-10.022607 4.87767,-0.133636 8.15172,5.078121 7.08264,12.227581 z"
       id="path4868"
       inkscape:connector-curvature="0" />
    <path
       style="fill:#000000;fill-rule:evenodd;stroke:none;stroke-width:0.26458332px;stroke-linecap:butt;stroke-linejoin:miter;stroke-opacity:1;fill-opacity:0.05357143"
       d="m 116.52951,73.218351 c 0,0 1.00226,12.160763 -6.21401,11.626223 -7.21628,-0.534538 -9.08717,-16.236622 -9.08717,-16.236622 0,0 7.14946,9.087162 10.15624,8.886711 3.00679,-0.200453 5.14494,-4.276312 5.14494,-4.276312 z"
       id="path4866"
       inkscape:connector-curvature="0" />
    <path
       style="fill:#000000;fill-rule:evenodd;stroke:none;stroke-width:0.26458332px;stroke-linecap:butt;stroke-linejoin:miter;stroke-opacity:1;fill-opacity:0.15686275"
       d="m 114.12409,61.792579 c 0,0 1.67043,3.27405 0.8018,3.80859 -0.86862,0.534538 -5.74629,-1.5368 -7.14946,0.200451 -1.40316,1.737254 -0.33408,3.741775 -1.20271,3.741775 -0.86862,0 -4.81085,-3.140417 -3.67495,-4.409948 1.13589,-1.269529 11.09168,0.467722 11.42577,-0.267269 0.33409,-0.734991 -0.20045,-3.073599 -0.20045,-3.073599 z"
       id="path4873"
       inkscape:connector-curvature="0" />
  </g>
  <g
     inkscape:groupmode="layer"
     id="layer14"
     inkscape:label="Microphone">
    <circle
       style="fill:url(#radialGradient4834);fill-opacity:1;fill-rule:evenodd;stroke:none;stroke-width:0.25147554px;stroke-linecap:butt;stroke-linejoin:miter;stroke-opacity:1"
       id="path4824"
       cx="189.12982"
       cy="93.171135"
       r="12.236979" />
    <path
       style="fill:url(#linearGradient4844);fill-opacity:1;fill-rule:evenodd;stroke:none;stroke-width:0.26458332px;stroke-linecap:butt;stroke-linejoin:miter;stroke-opacity:1"
       d="m 200.0439,90.052825 c 0,0 -2.45685,1.74814 -3.54353,4.29948 -1.07829,2.531638 -0.0945,6.992555 -0.0945,6.992555 l 68.17744,25.22992 0,-10.63059 z"
       id="path4836"
       inkscape:connector-curvature="0"
       sodipodi:nodetypes="cscccc" />
    <path
       style="fill:#000000;fill-opacity:0.15773812;fill-rule:evenodd;stroke:none;stroke-width:0.26458332px;stroke-linecap:butt;stroke-linejoin:miter;stroke-opacity:1"
       d="m 189.96181,81.035983 c 0.4009,0 1.06908,-0.06682 1.33635,10e-7 0.26727,0.06682 -3.90882,4.376539 -5.14494,8.819894 -1.23612,4.443356 -1.5702,9.087165 -1.50339,10.456922 0.0668,1.36975 0.7684,4.47676 0.7684,4.47676 l -1.03567,-0.33408 c 0,0 -0.80181,-3.10701 -0.86863,-4.2429 -0.0668,-1.135903 0.1801,-6.478327 1.26954,-10.323293 1.11593,-3.938442 4.00904,-8.218537 5.17834,-8.853304 z"
       id="path4864"
       inkscape:connector-curvature="0"
       sodipodi:nodetypes="cssscccsc" />
    <path
       style="fill:url(#linearGradient4886);fill-opacity:1;fill-rule:evenodd;stroke:none;stroke-width:0.26458332px;stroke-linecap:butt;stroke-linejoin:miter;stroke-opacity:1"
       d="m 264.58332,139.75669 0,7.74852 -31.93898,-15.59152 c 0,0 -1.98437,-2.45685 -1.5119,-4.53572 0.47247,-2.07886 1.32291,-5.19717 0.0945,-7.37053 -1.22842,-2.17336 -5.10268,-6.14211 -5.10268,-6.14211 0,0 -0.75595,-5.66965 0.28349,-8.032 1.03943,-2.36235 5.19717,-4.8192 5.19717,-4.8192 l 20.69419,8.40998 c 0,0 -3.59077,2.26785 -4.53571,4.7247 -0.94494,2.45684 0,6.99256 0,6.99256 l -4.15774,7.65401 z"
       id="path4878"
       inkscape:connector-curvature="0"
       sodipodi:nodetypes="cccsscsccsccc" />
  </g>
</svg>
