<?xml version="1.0" encoding="UTF-8" standalone="no"?>
<!-- Created with Inkscape (http://www.inkscape.org/) -->

<svg
   xmlns:dc="http://purl.org/dc/elements/1.1/"
   xmlns:cc="http://creativecommons.org/ns#"
   xmlns:rdf="http://www.w3.org/1999/02/22-rdf-syntax-ns#"
   xmlns:svg="http://www.w3.org/2000/svg"
   xmlns="http://www.w3.org/2000/svg"
   xmlns:sodipodi="http://sodipodi.sourceforge.net/DTD/sodipodi-0.dtd"
   xmlns:inkscape="http://www.inkscape.org/namespaces/inkscape"
   width="1000"
   height="1000"
   viewBox="0 0 264.58333 264.58334"
   id="svg4332"
   version="1.1"
   inkscape:version="0.91+devel r13925"
   sodipodi:docname="moulettes.svg"
   inkscape:export-filename="/Users/agarone/Documents/git/art/moulettes/moulettes.png"
   inkscape:export-xdpi="10.42"
   inkscape:export-ydpi="10.42">
  <defs
     id="defs4334" />
  <sodipodi:namedview
     id="base"
     pagecolor="#ffffff"
     bordercolor="#666666"
     borderopacity="1.0"
     inkscape:pageopacity="0.0"
     inkscape:pageshadow="2"
     inkscape:zoom="0.7"
     inkscape:cx="529.06543"
     inkscape:cy="516.04863"
     inkscape:document-units="px"
     inkscape:current-layer="layer1"
     showgrid="false"
     units="px"
     showguides="true"
     inkscape:guide-bbox="true"
     inkscape:window-width="1920"
     inkscape:window-height="1151"
     inkscape:window-x="0"
     inkscape:window-y="1"
     inkscape:window-maximized="1">
    <sodipodi:guide
       position="264.58333,0"
       orientation="1,0"
       id="guide4340"
       inkscape:label=""
       inkscape:color="rgb(0,0,255)" />
    <sodipodi:guide
       position="0,0"
       orientation="1,0"
       id="guide4342"
       inkscape:label=""
       inkscape:color="rgb(0,0,255)" />
    <sodipodi:guide
       position="0,0"
       orientation="0,1"
       id="guide4344"
       inkscape:label=""
       inkscape:color="rgb(0,0,255)" />
    <sodipodi:guide
       position="0,264.58333"
       orientation="0,1"
       id="guide4346"
       inkscape:label=""
       inkscape:color="rgb(0,0,255)" />
  </sodipodi:namedview>
  <metadata
     id="metadata4337">
    <rdf:RDF>
      <cc:Work
         rdf:about="">
        <dc:format>image/svg+xml</dc:format>
        <dc:type
           rdf:resource="http://purl.org/dc/dcmitype/StillImage" />
        <dc:title></dc:title>
      </cc:Work>
    </rdf:RDF>
  </metadata>
  <g
     inkscape:label="BG"
     inkscape:groupmode="layer"
     id="layer1"
     transform="translate(0,-32.41665)"
     style="display:none">
    <rect
       style="opacity:1;fill:#ffffff;fill-opacity:1;stroke:none;stroke-width:11.60810661;stroke-miterlimit:4;stroke-dasharray:none;stroke-opacity:1"
       id="rect5606"
       width="264.58334"
       height="264.58334"
       x="0"
       y="32.416653" />
  </g>
  <g
     inkscape:groupmode="layer"
     id="layer2"
     inkscape:label="Ollie"
     style="display:inline;opacity:1">
    <path
       style="display:inline;fill:#280b0b;fill-opacity:1;fill-rule:evenodd;stroke:none;stroke-width:0.26458332px;stroke-linecap:butt;stroke-linejoin:miter;stroke-opacity:1"
       d="m 28.507081,162.05729 c -3.874256,2.36235 -24.8519339,14.2686 -32.3169636,15.59152 -7.4650304,1.32291 -34.1123514,16.44196 -37.6086304,20.78869 -3.496281,4.34672 -9.619193,28.08395 -13.134673,38.0811 -3.023808,8.59896 -5.102678,28.06473 -5.102678,28.06473 l 235.479174,0 c 0,0 -4.15774,-43.75074 -7.9375,-51.97173 -3.77977,-8.22098 -7.46504,-24.09598 -20.7887,-30.23809 -13.32365,-6.14211 -27.21428,-8.69345 -39.02604,-13.04018 -11.811758,-4.34672 -69.547621,-11.1503 -79.563989,-7.27604 z"
       id="path5257"
       inkscape:connector-curvature="0"
       sodipodi:nodetypes="csssccsssc" />
    <path
       style="fill:#e9c6af;fill-rule:evenodd;stroke:none;stroke-width:0.26458332px;stroke-linecap:butt;stroke-linejoin:miter;stroke-opacity:1"
       d="m 26.522706,174.05803 c 0.755952,-3.59077 2.645833,-6.2366 2.645833,-9.5439 0,-3.30729 -0.755952,-10.20535 -0.850446,-13.70163 -0.09449,-3.49628 -2.173363,-13.32366 -2.645833,-17.4814 -0.472471,-4.15774 0.755952,-7.55952 0.09449,-7.55952 -0.661459,0 -6.898066,-2.45685 -7.748512,-9.44941 -0.850446,-6.99256 1.039434,-12.56771 2.078869,-15.875 1.039434,-3.30729 0.891163,-6.705239 2.551339,-7.087053 2.003975,-0.460883 2.027859,2.268955 2.589877,1.409955 4.02086,-6.145554 14.821922,-34.278718 23.112503,-35.522305 9.449406,-1.41741 42.049851,2.929316 47.813989,7.843006 5.764135,4.913691 10.394345,26.269344 10.299855,30.805059 -0.0945,4.535718 -0.94494,18.993298 -1.79539,22.678568 -0.85045,3.68527 -3.40179,23.05655 -5.386163,27.59226 -1.984375,4.53572 -10.583333,16.72545 -11.433778,18.99331 -0.850447,2.26785 0.377976,11.90625 -0.661458,16.06399 -1.039437,4.15774 -32.115699,39.49342 -32.115699,39.49342 0,0 -36.95945,-32.21738 -28.54948,-48.65935 z"
       id="path5193"
       inkscape:connector-curvature="0"
       sodipodi:nodetypes="csssssssssssssssccc" />
    <path
       style="fill:#502d16;fill-opacity:1;fill-rule:evenodd;stroke:none;stroke-width:0.26458332px;stroke-linecap:butt;stroke-linejoin:miter;stroke-opacity:1"
       d="m 72.764127,108.23066 c 1.069078,-0.33409 1.269533,-3.94223 0.200455,-5.47903 -1.069078,-1.5368 -13.8312,-8.285353 -16.437079,-8.285353 -2.605876,0 -10.022607,0.400904 -9.15398,2.07134 0.868627,1.670434 4.677217,0.601356 6.414468,1.202712 1.737252,0.601358 8.619443,3.006781 12.428032,5.211761 3.808593,2.20497 5.078122,4.94448 6.548104,5.27857 z"
       id="path5195"
       inkscape:connector-curvature="0"
       sodipodi:nodetypes="csssssc" />
    <path
       style="fill:#6a3c1d;fill-opacity:0.07027025;fill-rule:evenodd;stroke:none;stroke-width:0.26458332px;stroke-linecap:butt;stroke-linejoin:miter;stroke-opacity:1"
       d="m 46.980667,106.73103 c 0.377976,-1.37017 5.38616,-3.68527 11.244792,-2.59859 5.858631,1.08668 8.504464,3.54352 8.126489,2.50409 -0.377979,-1.03943 -2.220611,-5.81138 0.566962,-6.04762 2.787576,-0.23623 7.465031,2.83482 7.323288,4.91369 -0.14174,2.07887 -2.220608,6.99256 -2.173361,10.06362 0.04725,3.07106 0.936257,8.87098 -0.481153,9.53244 -1.41741,0.66145 -4.054562,-0.17753 -5.519219,1.33437 -1.464659,1.51191 -2.220611,3.02381 -2.220611,2.22061 0,-0.8032 2.220611,-6.04761 4.582962,-7.79576 2.362351,-1.74813 1.039434,-8.50446 -0.283483,-8.50446 -1.322916,0 -4.724701,2.83482 -10.347097,0.99219 -5.622396,-1.84264 -9.354912,-5.38616 -10.819569,-6.61458 z"
       id="path5279"
       inkscape:connector-curvature="0"
       sodipodi:nodetypes="csssssssssssc" />
    <path
       style="fill:#502d16;fill-opacity:1;fill-rule:evenodd;stroke:none;stroke-width:0.26458332px;stroke-linecap:butt;stroke-linejoin:miter;stroke-opacity:1"
       d="m 83.120821,111.70516 c -0.133633,-2.80633 2.004523,-4.87766 3.207234,-5.27857 1.202714,-0.4009 9.220799,-2.20498 13.163024,-0.20046 3.942231,2.00453 4.142681,6.54811 2.739511,8.08491 -1.40316,1.53679 -0.66817,0.4009 -0.86862,-1.00226 -0.20045,-1.40317 -0.53454,-2.93996 -2.004525,-3.8754 -1.469983,-0.93545 -10.824416,-0.26728 -12.895754,0.86862 -2.071338,1.13589 -3.207234,2.00452 -3.34087,1.40316 z"
       id="path5197"
       inkscape:connector-curvature="0"
       sodipodi:nodetypes="cssssssc" />
    <path
       style="fill:#deaa87;fill-rule:evenodd;stroke:none;stroke-width:0.26458332px;stroke-linecap:butt;stroke-linejoin:miter;stroke-opacity:1"
       d="m 55.74499,143.46559 c 1.015812,0.37797 10.417968,3.59077 14.126861,4.18136 3.708889,0.59059 11.835378,1.2048 11.788131,0.8032 -0.04725,-0.4016 -4.984562,-3.18918 -10.488839,-4.37035 -5.504278,-1.18118 -15.851376,-1.93713 -15.426153,-0.61421 z"
       id="path5211"
       inkscape:connector-curvature="0" />
    <path
       style="fill:#755139;fill-opacity:1;fill-rule:evenodd;stroke:none;stroke-width:0.26458332px;stroke-linecap:butt;stroke-linejoin:miter;stroke-opacity:1"
       d="m 56.075719,143.2766 c 0.637834,-0.37798 9.992746,0.4016 10.701451,0.56696 0.708705,0.16537 2.007997,0.70871 3.141927,0.92132 1.133928,0.21261 2.173362,0.11812 3.189174,0.33073 1.015812,0.21261 7.299666,2.55134 6.850819,2.76395 -0.448847,0.21261 -1.535528,-0.16537 -2.315104,-0.54334 -0.779576,-0.37798 -3.945128,-1.7009 -5.126302,-1.79539 -1.181177,-0.0945 -1.606399,0.16537 -2.905694,-0.11812 -1.299292,-0.28348 -2.409597,-0.85044 -3.567149,-1.1103 -1.157553,-0.25986 -9.520275,-0.28348 -9.969122,-1.01581 z"
       id="path5213"
       inkscape:connector-curvature="0" />
    <path
       style="fill:#784421;fill-rule:evenodd;stroke:none;stroke-width:0.26458332px;stroke-linecap:butt;stroke-linejoin:miter;stroke-opacity:1"
       d="m 28.731652,106.35991 c -0.200453,2.07134 -3.011592,16.51529 -3.345679,21.25932 -0.334087,4.74403 1.808583,13.3522 6.819886,19.96711 5.011303,6.61493 19.176607,21.45299 33.007804,22.38844 13.831199,0.93544 18.741316,-9.76229 20.411749,-9.49503 1.670434,0.26728 -0.451241,4.99516 1.954186,3.65881 2.405425,-1.33635 12.112054,-14.81528 11.44388,-15.6839 -0.668173,-0.86863 -7.684079,3.94203 -8.886788,3.14022 -1.202716,-0.80181 0.534633,-5.01113 -2.271696,-7.2161 -2.80633,-2.20497 -8.552611,-7.48326 -10.490317,-7.48326 -1.937702,0 -2.606254,0.40077 -4.076236,0.0667 -1.469983,-0.33408 -4.07578,-2.47256 -6.280754,-2.53938 -2.204974,-0.0668 -14.165347,1.67066 -16.704407,4.1429 -2.539058,2.47224 -4.476737,8.21873 -6.481257,7.28328 -2.004523,-0.93544 -6.547668,-14.09864 -7.549928,-18.44177 -1.00226,-4.34313 -5.546068,-7.95125 -5.479251,-11.15849 0.06682,-3.20723 0.467868,-7.41657 -2.071192,-9.88881 z m 30.969169,35.89084 c 4.096742,0.046 10.173909,1.4036 13.974341,2.32492 4.677455,1.13393 10.394344,4.06323 10.914063,5.95312 0.519715,1.88989 -1.79546,6.28408 -3.07113,8.55194 -1.27567,2.26785 -8.061494,-1.61969 -8.155985,-3.46232 -0.09449,-1.84263 7.447274,-3.81395 7.494526,-5.08962 0.04725,-1.27567 -4.677235,-0.94465 -9.638172,-1.6061 -4.960938,-0.66146 -13.228664,-4.76924 -14.693321,-4.01329 -1.464656,0.75595 2.450486,1.95852 3.96239,2.99795 1.511906,1.03944 3.362721,4.19332 1.931876,7.074 -3.118305,4.58296 -13.359876,-3.74385 -13.454367,-7.09839 -0.09449,-3.35454 4.630209,-4.63007 8.268229,-5.43326 0.682131,-0.1506 1.522148,-0.20957 2.46755,-0.19895 z"
       id="path5201"
       inkscape:connector-curvature="0"
       sodipodi:nodetypes="cssssssssscssssscssssssssscsss" />
    <path
       style="fill:#341d0e;fill-opacity:1;fill-rule:evenodd;stroke:none;stroke-width:0.26458332px;stroke-linecap:butt;stroke-linejoin:miter;stroke-opacity:1"
       d="m 30.86963,111.90561 c 0.267269,-5.14493 1.870886,-17.372516 4.276312,-20.379296 2.405425,-3.006783 8.753078,-5.545844 9.68852,-7.349913 0.935443,-1.80407 -0.868627,-14.967093 6.013564,-17.907058 6.882191,-2.939966 33.141422,5.679477 37.350916,6.34765 4.209495,0.668174 11.225321,5.144939 12.895758,7.951269 1.67043,2.806329 3.54132,10.891234 3.00678,13.430295 -0.53454,2.53906 1.26478,20.312483 0.9307,23.653353 -0.33409,3.34087 2.81107,-13.8312 2.5438,-19.577495 C 107.30871,92.32812 107.2419,75.156054 102.29741,68.340681 97.352925,61.525308 87.196682,51.970423 72.630494,50.76771 58.064303,49.564998 41.760864,55.378109 35.012306,62.260299 28.263752,69.14249 24.321527,85.111846 24.588796,90.724505 c 0.26727,5.612659 -0.467722,4.142676 1.26953,6.481286 1.737252,2.338607 3.407687,13.964829 5.011304,14.699819 z"
       id="path5199"
       inkscape:connector-curvature="0"
       sodipodi:nodetypes="csssssssssssssc" />
    <path
       style="fill:#deaa87;fill-rule:evenodd;stroke:none;stroke-width:0.26458332px;stroke-linecap:butt;stroke-linejoin:miter;stroke-opacity:1"
       d="m 65.690489,124.87388 c -0.944941,-0.0473 -2.267857,2.92932 -1.700895,5.05543 0.566965,2.12612 3.874257,3.2128 3.874257,2.83482 0,-0.37797 -3.023809,-1.22842 -2.976563,-3.35453 0.04725,-2.12612 1.133931,-4.016 0.803201,-4.53572 z"
       id="path5219"
       inkscape:connector-curvature="0" />
    <path
       style="fill:#deaa87;fill-rule:evenodd;stroke:none;stroke-width:0.26458332px;stroke-linecap:butt;stroke-linejoin:miter;stroke-opacity:1"
       d="m 72.777542,135.17373 c 0,-0.7087 -0.14174,-1.55915 1.41741,-1.55915 1.559152,0 4.393975,-0.61421 5.008184,-1.41741 0.614211,-0.8032 2.126117,-2.64583 1.511906,-5.66964 -0.614212,-3.02381 -1.559153,-4.15774 -1.086681,-6.4256 0.472469,-2.26785 1.41741,-7.32329 2.126115,-7.0398 0.708705,0.28348 -0.330729,11.90625 -0.14174,13.98512 0.188986,2.07886 1.653646,5.48065 1.181174,6.66182 -0.472469,1.18118 -2.362351,1.55916 -3.638021,1.46466 -1.27567,-0.0945 -4.488466,0.61421 -6.378347,0 z"
       id="path5221"
       inkscape:connector-curvature="0" />
    <path
       style="fill:#502d16;fill-rule:evenodd;stroke:none;stroke-width:0.26458332px;stroke-linecap:butt;stroke-linejoin:miter;stroke-opacity:1"
       d="m 25.457422,129.5454 c 0.935443,0.20045 0.601356,9.88898 6.214016,17.10525 5.61266,7.21628 19.243406,20.71339 31.938709,22.71791 12.695301,2.00452 19.88865,-9.80398 21.692719,-9.60352 1.80407,0.20045 0.624285,3.45632 3.09653,2.11997 2.472243,-1.33634 9.421249,-12.82893 9.621703,-12.02712 0.200451,0.80181 -11.693044,22.58427 -19.911581,25.32378 -8.218538,2.73952 -21.782466,3.14042 -29.065561,-2.40542 C 41.760864,167.2304 30.401908,155.40373 28.330569,148.12064 26.259231,140.83754 24.9897,130.61448 25.457422,129.5454 Z"
       id="path5223"
       inkscape:connector-curvature="0"
       sodipodi:nodetypes="cssssssssc" />
    <path
       style="fill:#28170b;fill-rule:evenodd;stroke:none;stroke-width:0.26458332px;stroke-linecap:butt;stroke-linejoin:miter;stroke-opacity:1"
       d="m 67.037028,131.08687 c 0,-0.77958 2.456847,-0.68509 3.307292,-0.33073 0.850447,0.35435 1.228423,0.82682 0.992187,1.08668 -0.236236,0.25986 -2.763951,-1.46466 -4.299479,-0.75595 z"
       id="path5215"
       inkscape:connector-curvature="0" />
    <path
       style="fill:#28170b;fill-rule:evenodd;stroke:none;stroke-width:0.26458332px;stroke-linecap:butt;stroke-linejoin:miter;stroke-opacity:1"
       d="m 77.856597,134.1343 c -0.09449,-0.87407 1.748139,-1.2048 2.669458,-0.77958 0.921316,0.42523 1.228421,1.11031 1.063056,1.11031 -0.165364,0 -0.779576,-0.89769 -1.866257,-0.8032 -1.086681,0.0945 -1.67727,0.7087 -1.866257,0.47247 z"
       id="path5217"
       inkscape:connector-curvature="0" />
    <path
       style="fill:#d38d5f;fill-rule:evenodd;stroke:none;stroke-width:0.26458332px;stroke-linecap:butt;stroke-linejoin:miter;stroke-opacity:1"
       d="m 26.058778,103.68708 c 0.801809,0 -1.403165,-5.746298 -2.53906,-7.149463 -1.135896,-1.403164 -2.004522,2.472243 -1.603617,2.672694 0.400904,0.200454 0.267269,-2.539061 1.202713,-1.737251 0.935443,0.801809 2.739512,4.34313 2.939964,6.21402 z"
       id="path5225"
       inkscape:connector-curvature="0" />
    <path
       style="fill:#d38d5f;fill-rule:evenodd;stroke:none;stroke-width:0.26458332px;stroke-linecap:butt;stroke-linejoin:miter;stroke-opacity:1"
       d="m 19.711127,108.69838 c 0.734991,0 -0.668174,5.7463 1.135896,7.08264 1.804069,1.33635 5.211755,0.53454 5.211755,1.20272 0,0.66817 -4.409947,0.93544 -5.479025,-0.46773 -1.069078,-1.40316 -1.002261,-5.94674 -0.868626,-7.81763 z"
       id="path5227"
       inkscape:connector-curvature="0" />
    <path
       style="fill:#502d16;fill-rule:evenodd;stroke:none;stroke-width:0.26458332px;stroke-linecap:butt;stroke-linejoin:miter;stroke-opacity:1"
       d="m 50.280079,106.82749 c 0,-0.86862 5.646068,-2.13815 9.287616,-1.20271 3.641548,0.93544 3.841999,1.87089 4.810853,2.7061 0.968851,0.83522 2.806329,2.07134 2.438833,2.27179 -0.367495,0.20046 -2.605878,-0.93544 -2.739514,-1.23612 -0.133633,-0.30067 -0.567946,-2.13815 -4.242903,-2.93996 -3.674957,-0.80181 -5.813113,0.70158 -6.882191,0.70158 -1.069078,0 -2.672694,0.0334 -2.672694,-0.30068 z"
       id="path5229"
       inkscape:connector-curvature="0" />
    <path
       style="fill:#d8dbe6;fill-opacity:1;fill-rule:evenodd;stroke:none;stroke-width:0.26458332px;stroke-linecap:butt;stroke-linejoin:miter;stroke-opacity:1"
       d="m 54.122078,107.02794 c 0,-0.33408 1.837478,-1.10248 4.57699,-0.86862 2.739514,0.23386 4.87767,2.00452 4.844261,2.57247 -0.03341,0.56795 -3.674956,0.33409 -5.412208,-0.0668 -1.737251,-0.4009 -4.376539,-1.46998 -4.009043,-1.63703 z"
       id="path5231"
       inkscape:connector-curvature="0" />
    <path
       style="fill:#502d16;fill-rule:evenodd;stroke:none;stroke-width:0.26458332px;stroke-linecap:butt;stroke-linejoin:miter;stroke-opacity:1"
       d="m 85.826926,113.91014 c -0.133635,-0.53454 3.073599,-0.96886 4.81085,-0.50113 1.737255,0.46772 3.674957,1.73725 4.91108,2.63928 1.23612,0.90204 2.004519,1.50339 1.637023,1.97111 -0.367495,0.46773 -2.53906,-0.83522 -2.639284,-1.03567 -0.100227,-0.20045 -0.100228,-1.73725 -3.808592,-2.77292 -3.801015,-1.06155 -4.309721,-0.46772 -4.911077,-0.30067 z"
       id="path5233"
       inkscape:connector-curvature="0"
       sodipodi:nodetypes="cssscsc" />
    <path
       style="fill:#d8dbe6;fill-opacity:1;fill-rule:evenodd;stroke:none;stroke-width:0.26458332px;stroke-linecap:butt;stroke-linejoin:miter;stroke-opacity:1"
       d="m 85.7267,114.21081 c 0.200451,-0.36749 1.837478,-0.8018 4.142676,-0.23386 2.305201,0.56795 4.510175,1.9043 4.476766,2.6727 -0.03341,0.7684 -2.973374,0.3675 -5.479026,-0.56795 -2.505652,-0.93544 -3.407685,-1.73725 -3.140416,-1.87089 z"
       id="path5235"
       inkscape:connector-curvature="0" />
    <path
       style="fill:#3e4365;fill-opacity:1;fill-rule:evenodd;stroke:none;stroke-width:0.26458332px;stroke-linecap:butt;stroke-linejoin:miter;stroke-opacity:1"
       d="m 57.71593,106.116 c -0.505272,-0.001 -0.966536,0.0321 -1.380795,0.0863 a 2.0770518,2.0770518 0 0 0 -0.234095,0.95395 2.0770518,2.0770518 0 0 0 0.247015,0.97875 c 0.603702,0.20964 1.235975,0.404 1.782837,0.5302 0.341098,0.0787 0.765611,0.14775 1.211812,0.20877 a 2.0770518,2.0770518 0 0 0 0.912607,-1.71772 2.0770518,2.0770518 0 0 0 -0.134877,-0.73329 c -0.447995,-0.12721 -0.924677,-0.22113 -1.42162,-0.26355 -0.342439,-0.0292 -0.670462,-0.0427 -0.982884,-0.0434 z"
       id="path5259"
       inkscape:connector-curvature="0" />
    <path
       style="fill:#3e4365;fill-opacity:1;fill-rule:evenodd;stroke:none;stroke-width:0.26458332px;stroke-linecap:butt;stroke-linejoin:miter;stroke-opacity:1"
       d="m 88.413798,113.73466 a 2.0770518,2.0770518 0 0 0 -0.468191,1.31206 2.0770518,2.0770518 0 0 0 0.130744,0.72089 c 0.245057,0.10259 0.50437,0.20731 0.790649,0.31419 0.762722,0.28475 1.565092,0.519 2.31407,0.68678 a 2.0770518,2.0770518 0 0 0 0.918807,-1.72186 2.0770518,2.0770518 0 0 0 -0.02223,-0.28577 c -0.67129,-0.31402 -1.432819,-0.59291 -2.208133,-0.78393 -0.523457,-0.12896 -1.010173,-0.20424 -1.455724,-0.24236 z"
       id="path5262"
       inkscape:connector-curvature="0" />
    <path
       style="fill:#d38d5f;fill-rule:evenodd;stroke:none;stroke-width:0.26458332px;stroke-linecap:butt;stroke-linejoin:miter;stroke-opacity:1"
       d="m 66.817381,112.64061 c -0.868627,-0.50114 -7.249686,0.20045 -9.488069,-0.63477 -2.238383,-0.83522 -4.81085,-2.07134 -4.81085,-2.07134 0,0 4.142677,2.90656 8.452398,2.87315 4.309721,-0.0334 5.178348,-0.3675 5.846521,-0.16704 z"
       id="path5245"
       inkscape:connector-curvature="0" />
    <path
       style="fill:#d38d5f;fill-rule:evenodd;stroke:none;stroke-width:0.26458332px;stroke-linecap:butt;stroke-linejoin:miter;stroke-opacity:1"
       d="m 84.624213,116.8501 c 1.837478,0.16705 4.543581,3.27405 6.88219,3.842 2.338608,0.56795 3.741772,0.83522 3.741772,0.83522 0,0 -3.57473,-0.33409 -5.245163,-1.10249 -1.670434,-0.7684 -3.708366,-3.10701 -5.378799,-3.57473 z"
       id="path5247"
       inkscape:connector-curvature="0" />
    <path
       style="fill:#deaa87;fill-rule:evenodd;stroke:none;stroke-width:0.26458332px;stroke-linecap:butt;stroke-linejoin:miter;stroke-opacity:1"
       d="m 60.503137,128.40951 c -0.467719,-0.13364 -9.287615,3.57473 -9.287615,4.00904 0,0.43431 8.4524,-3.27405 9.287615,-4.00904 z"
       id="path5249"
       inkscape:connector-curvature="0" />
    <path
       style="fill:#deaa87;fill-rule:evenodd;stroke:none;stroke-width:0.26458332px;stroke-linecap:butt;stroke-linejoin:miter;stroke-opacity:1"
       d="m 97.440489,132.66964 c 1.937128,0.0473 -0.897694,8.92969 -2.4096,8.78795 -1.511903,-0.14174 2.976562,-2.78758 2.4096,-8.78795 z"
       id="path5251"
       inkscape:connector-curvature="0" />
    <path
       style="fill:#1a0707;fill-opacity:1;fill-rule:evenodd;stroke:none;stroke-width:0.26458332px;stroke-linecap:butt;stroke-linejoin:miter;stroke-opacity:1"
       d="m 54.589801,222.9561 c 1.00226,-0.26726 17.907057,-22.85154 22.651092,-29.46646 4.744032,-6.61492 10.089423,-21.78247 10.356695,-24.65562 0.267268,-2.87314 3.541319,-8.28535 4.744033,-4.54357 1.202711,3.74177 4.209495,32.00552 6.147197,36.5491 1.937702,4.54358 3.140422,8.88671 2.472242,9.02035 -0.66817,0.13363 -11.225317,-1.46999 -13.296655,-5.27858 -2.071341,-3.80859 -4.476766,-5.34539 -6.614922,-4.47676 -2.138156,0.86862 -25.190153,25.39061 -26.459682,22.85154 z"
       id="path5255"
       inkscape:connector-curvature="0"
       sodipodi:nodetypes="csssscssc" />
    <path
       style="fill:#1a0707;fill-opacity:1;fill-rule:evenodd;stroke:none;stroke-width:0.26458332px;stroke-linecap:butt;stroke-linejoin:miter;stroke-opacity:1"
       d="m 28.998743,159.07868 c -2.939965,0.40091 -9.087164,3.00679 -10.022607,5.94675 -0.935443,2.93997 -3.741773,49.9794 -2.271791,50.64758 1.469983,0.66817 1.603617,-12.02713 8.285355,-11.09169 6.681738,0.93545 27.662395,18.30796 29.666918,17.90706 2.004521,-0.4009 -16.437075,-12.82894 -21.247928,-27.52876 -4.810851,-14.69983 -4.142677,-34.41095 -4.409947,-35.88094 z"
       id="path5253"
       inkscape:connector-curvature="0"
       sodipodi:nodetypes="csssssc" />
    <path
       style="fill:#6a3c1d;fill-opacity:0.1243243;fill-rule:evenodd;stroke:none;stroke-width:0.26458332px;stroke-linecap:butt;stroke-linejoin:miter;stroke-opacity:1"
       d="m 102.40143,85.044641 c 0,0 1.16551,17.038819 -0.70538,19.444249 -1.870882,2.40542 -2.806327,2.40542 -2.806327,4.40994 0,2.00452 -0.534538,6.81537 1.069078,6.81537 1.603619,0 2.539059,-3.07359 2.539059,0.26727 0,3.34087 -0.4009,19.91158 -2.539059,24.1879 -2.138156,4.27631 -9.621702,14.96709 -10.423512,19.10977 -0.801806,4.14267 -4.543581,9.2208 -2.672693,8.01808 1.870887,-1.20271 13.096205,-18.30796 13.898014,-22.04973 0.80181,-3.74178 4.14268,-23.92062 4.27631,-28.59784 0.13364,-4.67722 -0.59378,-32.20675 -2.63549,-31.605009 z"
       id="path5275"
       inkscape:connector-curvature="0" />
    <path
       style="fill:#6a3c1d;fill-opacity:0.1243243;fill-rule:evenodd;stroke:none;stroke-width:0.26458332px;stroke-linecap:butt;stroke-linejoin:miter;stroke-opacity:1"
       d="m 86.053955,113.39286 c 0.425222,-0.85045 7.465031,-1.51191 9.827381,-0.47248 2.362351,1.03944 3.779761,5.29167 3.354539,6.14212 -0.425223,0.85044 -4.677455,3.35454 -6.709077,3.02381 -2.031621,-0.33073 5.575149,-1.98438 4.204983,-2.74033 -1.370163,-0.75595 -5.905875,-1.41741 -5.575146,-1.5119 0.330729,-0.0945 5.244417,-0.37798 4.819195,-1.08669 -0.425223,-0.7087 -3.732514,-3.82701 -9.921875,-3.35453 z"
       id="path5277"
       inkscape:connector-curvature="0" />
    <circle
       style="display:inline;opacity:1;fill:#181c2f;fill-opacity:1;fill-rule:evenodd;stroke:none;stroke-width:0.26458332px;stroke-linecap:butt;stroke-linejoin:miter;stroke-opacity:1"
       id="path5237"
       cx="58.178211"
       cy="107.15625"
       r="0.8504464" />
    <circle
       r="0.8504464"
       cy="115.0465"
       cx="90.022705"
       id="circle5243"
       style="display:inline;opacity:1;fill:#181c2f;fill-opacity:1;fill-rule:evenodd;stroke:none;stroke-width:0.26458332px;stroke-linecap:butt;stroke-linejoin:miter;stroke-opacity:1" />
    <ellipse
       cy="106.85623"
       cx="57.322868"
       id="circle5334"
       style="display:inline;opacity:1;fill:#e0e3ef;fill-opacity:1;fill-rule:evenodd;stroke:none;stroke-width:0.13194139px;stroke-linecap:butt;stroke-linejoin:miter;stroke-opacity:1"
       rx="0.49119613"
       ry="0.36616436" />
    <ellipse
       ry="0.36616436"
       rx="0.49119613"
       style="display:inline;opacity:1;fill:#e0e3ef;fill-opacity:1;fill-rule:evenodd;stroke:none;stroke-width:0.13194139px;stroke-linecap:butt;stroke-linejoin:miter;stroke-opacity:1"
       id="ellipse5336"
       cx="89.120117"
       cy="114.79372" />
  </g>
  <g
     inkscape:groupmode="layer"
     id="layer3"
     inkscape:label="Hannah"
     style="display:inline;opacity:1">
    <path
       style="fill:#ebcab5;fill-opacity:1;fill-rule:evenodd;stroke:none;stroke-width:0.26458332px;stroke-linecap:butt;stroke-linejoin:miter;stroke-opacity:1"
       d="m 185.55187,166.56223 c -4.07586,-1.9377 -9.01085,-7.03203 -10.88174,-11.24153 -1.87088,-4.20949 -8.16121,-16.22041 -9.56438,-18.42539 -1.40316,-2.20497 -4.40995,-11.82667 -4.6104,-15.03391 -0.20045,-3.20723 -1.5368,-9.68852 -1.5368,-12.09394 0,-2.40543 -7.48354,-18.642051 1.80407,-22.584276 9.28762,-3.942226 46.43808,-13.497113 52.05074,-8.018087 5.61266,5.479026 12.02713,20.17885 12.89576,18.909318 0.86862,-1.269529 1.87088,-5.612659 5.61266,-4.142676 3.74177,1.469982 3.00678,7.884451 3.00678,11.626221 0,3.74178 -2.73951,14.43256 -4.47677,16.30344 -1.73725,1.87089 -3.00678,1.60362 -3.27405,3.34087 -0.26727,1.73726 0.26727,10.02261 1.00226,13.8312 0.73499,3.80859 5.54584,16.50389 10.28988,20.04521 4.74403,3.54133 13.09621,7.34992 12.6953,11.09169 -0.4009,3.74177 0.53454,32.40643 0.53454,32.40643 l -70.82642,1.00226 c 0,0 -5.08728,-23.91113 -3.55048,-26.91791 3.5633,-5.37122 5.04207,-4.284 8.82905,-10.09892 z"
       id="path5282"
       inkscape:connector-curvature="0"
       sodipodi:nodetypes="csssssssssssssscccc" />
    <path
       style="fill:#e3b497;fill-opacity:1;fill-rule:evenodd;stroke:none;stroke-width:0.26458332px;stroke-linecap:butt;stroke-linejoin:miter;stroke-opacity:1"
       d="m 226.57774,140.36982 c 0.53454,0.46772 -0.59466,9.16069 -7.41001,16.04288 -6.81538,6.88219 -16.4094,11.13951 -26.19322,12.02239 -6.94134,0.62637 -13.45438,-5.26908 -16.66161,-10.07993 -3.20724,-4.81086 -7.19811,-14.04312 -9.00217,-17.51762 -1.80407,-3.4745 7.55036,10.69078 6.88219,10.62396 -0.66818,-0.0668 -3.00679,-3.27405 -2.60588,-2.3386 0.4009,0.93544 8.81989,14.49937 10.42351,13.49711 1.60361,-1.00226 -0.94494,-6.47179 -0.20995,-6.13771 0.73499,0.33409 1.74675,10.48084 10.49982,10.48084 8.75308,0 9.2208,-3.74178 10.95806,-3.74178 1.73725,0 4.20949,0 6.08038,-2.20497 1.87088,-2.20497 5.67948,0.0668 9.95579,-5.67948 4.27631,-5.74629 8.01808,-16.83798 6.81537,-18.17433 -1.20271,-1.33634 -2.07134,2.2718 -2.07134,-1.53679 0,-3.8086 0.93544,-17.90706 -0.46772,-17.63979 -1.40316,0.26727 -4.20949,14.29892 -5.34539,12.96257 -1.1359,-1.33635 3.40768,-13.89802 3.14042,-17.03843 -0.26727,-3.14042 3.60813,-4.74404 4.14267,1.20271 0.53454,5.94674 1.06908,21.5152 2.00453,25.05652 0.93544,3.54132 6.48128,13.69756 6.48128,14.633 0,0.93545 -5.07812,-5.87993 -5.81311,-9.2208 -0.73499,-3.34087 -1.20272,-6.14719 -1.60362,-5.21175 z"
       id="path5284"
       inkscape:connector-curvature="0"
       sodipodi:nodetypes="csssscsscsssssssssssssc" />
    <path
       style="fill:#e7bfa6;fill-opacity:1;fill-rule:evenodd;stroke:none;stroke-width:0.26458332px;stroke-linecap:butt;stroke-linejoin:miter;stroke-opacity:1"
       d="m 202.25621,140.77072 c 0.26728,-0.53454 -7.08264,-10.02261 -9.35443,-10.55714 -2.27179,-0.53454 -3.00678,0.73499 -2.47224,0.86862 0.53454,0.13364 3.74177,2.27179 3.20723,3.47451 -0.53454,1.20271 -2.00452,2.3386 -1.5368,2.67269 0.46772,0.33409 1.87089,-2.27179 3.00678,-2.13815 1.1359,0.13363 6.01357,4.54358 7.14946,5.67947 z"
       id="path5286"
       inkscape:connector-curvature="0" />
    <path
       style="fill:#dca17d;fill-opacity:1;fill-rule:evenodd;stroke:none;stroke-width:0.26458332px;stroke-linecap:butt;stroke-linejoin:miter;stroke-opacity:1"
       d="m 186.22004,139.63483 c -0.13363,-0.66818 -1.60361,0.46772 -2.53906,0 -0.93544,-0.46772 -3.14041,-2.80633 -4.00904,-3.20724 -0.86863,-0.4009 -1.46998,-0.26727 -1.33635,-1.13589 0.13364,-0.86863 -0.26727,-2.6727 0.20046,-6.34765 0.46772,-3.67496 0.60135,-6.28084 0.13363,-8.41899 -0.46772,-2.13816 -2.87315,-4.07586 -3.14042,-3.60814 -0.26727,0.46772 2.07134,1.33635 1.67044,2.87315 -0.40091,1.5368 -1.80407,2.40542 -1.20271,2.53906 0.60135,0.13363 1.40316,-2.73952 1.80406,-2.07134 0.40091,0.66817 0.80181,0.53454 0.60136,4.40994 -0.20045,3.87541 -1.33635,11.62623 -0.73499,12.69531 0.60135,1.06907 1.73725,1.46998 2.73951,1.67043 1.00226,0.20045 1.60362,1.20271 3.14042,1.1359 1.5368,-0.0668 2.07134,-0.26727 2.67269,-0.53454 z"
       id="path5288"
       inkscape:connector-curvature="0" />
    <path
       style="fill:#422000;fill-opacity:1;fill-rule:evenodd;stroke:none;stroke-width:0.26458332px;stroke-linecap:butt;stroke-linejoin:miter;stroke-opacity:1"
       d="m 187.43822,137.53608 c 0,-0.7087 0.77958,-1.37016 2.05525,-1.39378 1.27567,-0.0236 2.4096,0.51972 2.26786,0.66146 -0.14175,0.14174 -1.84264,-0.63784 -2.52772,-0.25986 -0.68508,0.37797 -1.18118,1.13392 -1.79539,0.99218 z"
       id="path5290"
       inkscape:connector-curvature="0" />
    <path
       style="fill:#422000;fill-opacity:1;fill-rule:evenodd;stroke:none;stroke-width:0.26458332px;stroke-linecap:butt;stroke-linejoin:miter;stroke-opacity:1"
       d="m 180.09131,138.59914 c 0.28348,-0.37797 0.89769,-0.18899 1.58278,0.18899 0.68508,0.37798 0.63783,0.54334 0.49609,0.51972 -0.14174,-0.0236 -1.29929,-0.73233 -2.07887,-0.70871 z"
       id="path5292"
       inkscape:connector-curvature="0" />
    <path
       style="fill:#e67d91;fill-opacity:1;fill-rule:evenodd;stroke:none;stroke-width:0.26458332px;stroke-linecap:butt;stroke-linejoin:miter;stroke-opacity:1"
       d="m 178.83672,149.02267 c 0.10023,-0.23386 1.93771,0.30068 3.20724,-0.50113 1.26953,-0.80181 3.54132,-1.60362 4.57699,-1.50339 1.03567,0.10023 1.70384,0.60135 2.37201,0.43431 0.66818,-0.16704 0.66818,-1.30294 1.73726,-1.50339 1.06908,-0.20045 4.04245,-0.70158 5.81311,-0.70158 1.77066,0 4.84426,-0.53454 5.71288,-0.93545 0.86863,-0.4009 2.13816,-0.46772 2.17157,-0.13363 0.0334,0.33409 -7.78422,4.91108 -8.98694,4.94449 -1.20271,0.0334 -3.0736,0.26726 -4.91108,0.73499 -1.83747,0.46772 -1.97111,1.30293 -3.67495,1.33634 -1.70384,0.0334 -6.38106,-2.03793 -8.01809,-2.17156 z"
       id="path5294"
       inkscape:connector-curvature="0" />
    <path
       style="fill:#af223d;fill-opacity:1;fill-rule:evenodd;stroke:none;stroke-width:0.26458332px;stroke-linecap:butt;stroke-linejoin:miter;stroke-opacity:1"
       d="m 180.13966,149.08949 c 1.03567,0 3.40769,0.43431 4.94449,0.10022 1.5368,-0.33408 2.83974,-0.96885 3.60814,-0.96885 0.7684,0 1.06907,0.50113 1.83747,0 0.7684,-0.50113 1.10249,-0.63477 2.17157,-0.90203 1.06908,-0.26727 7.78422,-1.9043 8.68626,-2.3052 0.90203,-0.40091 2.07134,-0.93545 1.87089,-0.70159 -0.20046,0.23387 -5.07812,2.17157 -6.21402,2.53906 -1.1359,0.3675 -3.842,0.83522 -4.71063,1.06908 -0.86862,0.23386 -1.80407,0.86863 -2.43883,0.93545 -0.63476,0.0668 -1.26953,-0.13364 -2.60588,0.23386 -1.33635,0.36749 -3.24064,0.60135 -4.27631,0.56794 -1.03567,-0.0334 -3.24064,-0.4009 -2.87315,-0.56794 z"
       id="path5296"
       inkscape:connector-curvature="0" />
    <path
       style="fill:#301a0d;fill-opacity:1;fill-rule:evenodd;stroke:none;stroke-width:0.26458332px;stroke-linecap:butt;stroke-linejoin:miter;stroke-opacity:1"
       d="m 169.64972,124.30692 c -0.37798,0.42522 -2.64583,1.46466 -3.96875,0.47247 -1.32292,-0.99219 -1.6064,-2.22061 -2.55134,-2.78758 -0.94494,-0.56696 -1.6064,-2.4096 -1.6064,-2.4096 0,0 0.85045,1.22843 1.46466,0.66146 0.61421,-0.56696 3.40178,-3.21279 7.51228,-2.74032 4.11049,0.47247 4.81919,2.07886 4.81919,2.07886 0,0 -2.74033,-2.17336 -6.75632,-0.99218 -4.016,1.18117 -3.49628,3.44903 -3.49628,3.44903 0,0 1.46466,3.77976 4.58296,2.26786 z"
       id="path5298"
       inkscape:connector-curvature="0"
       sodipodi:nodetypes="csscsscscc" />
    <path
       style="fill:#301a0d;fill-opacity:1;fill-rule:evenodd;stroke:none;stroke-width:0.26458332px;stroke-linecap:butt;stroke-linejoin:miter;stroke-opacity:1"
       d="m 191.66683,117.40885 c 0,0 1.93713,-2.78757 3.07106,-3.35454 1.13393,-0.56696 4.44122,-0.89769 6.70907,-0.42522 2.26786,0.47247 1.88989,1.41741 1.88989,1.41741 0,0 -0.66146,1.55915 -1.93713,2.17336 -1.27567,0.61422 -1.98438,0.85045 -1.98438,0.85045 0,0 7.84301,-2.50409 6.18936,-4.20498 -1.65364,-1.7009 -9.92187,-0.8977 -11.00855,-0.61422 -1.08669,0.28349 -3.2128,3.92151 -2.92932,4.15774 z"
       id="path5300"
       inkscape:connector-curvature="0"
       sodipodi:nodetypes="csscscssc" />
    <path
       style="fill:#d8dbe6;fill-opacity:1;fill-rule:evenodd;stroke:none;stroke-width:0.26458332px;stroke-linecap:butt;stroke-linejoin:miter;stroke-opacity:1"
       d="m 192.42278,117.17262 c 0,-0.66146 1.08668,-3.54353 4.25224,-3.77976 3.16555,-0.23624 7.08705,0.28348 7.08705,0.94494 0,0.66146 -2.45685,2.88206 -5.29167,3.30729 -2.83482,0.42522 -6.04762,-0.33073 -6.04762,-0.47247 z"
       id="path5302"
       inkscape:connector-curvature="0" />
    <path
       style="fill:#d8dbe6;fill-opacity:1;fill-rule:evenodd;stroke:none;stroke-width:0.26458332px;stroke-linecap:butt;stroke-linejoin:miter;stroke-opacity:1"
       d="m 165.96445,121.18861 c 0,-0.51971 0.99219,-2.83482 4.016,-2.97656 3.02381,-0.14174 5.14992,0.8032 5.14992,1.6064 0,0.8032 -1.98437,2.03162 -3.40178,2.4096 -1.41741,0.37798 -5.76414,-0.23624 -5.76414,-1.03944 z"
       id="path5304"
       inkscape:connector-curvature="0" />
    <path
       style="fill:#945128;fill-opacity:1;fill-rule:evenodd;stroke:none;stroke-width:0.26458332px;stroke-linecap:butt;stroke-linejoin:miter;stroke-opacity:1"
       d="m 187.50909,112.92038 c 0,-0.42522 -0.42522,-1.41741 0.75595,-2.17336 1.18118,-0.75595 8.12649,-3.87425 10.01638,-4.06324 1.88987,-0.18899 8.78794,1.13393 8.50446,1.70089 -0.28348,0.56696 -4.48847,-1.70089 -8.22098,-0.70871 -3.73252,0.99219 -10.53609,4.58297 -11.05581,5.24442 z"
       id="path5306"
       inkscape:connector-curvature="0" />
    <path
       style="fill:#945128;fill-opacity:1;fill-rule:evenodd;stroke:none;stroke-width:0.26458332px;stroke-linecap:butt;stroke-linejoin:miter;stroke-opacity:1"
       d="m 173.47673,116.08594 c -0.14174,-0.18899 -2.55134,-2.59859 -3.40179,-2.59859 -0.85044,0 -8.55171,-0.8032 -9.02418,-0.23624 -0.47247,0.56697 -1.51191,1.79539 -1.41741,2.83483 0.0945,1.03943 0.14174,0.89769 0.14174,0.89769 0,0 0.85045,-2.59859 1.88988,-2.74033 1.03944,-0.14174 6.85082,1.6064 8.36272,1.55915 1.51191,-0.0472 3.44904,0.28349 3.44904,0.28349 z"
       id="path5308"
       inkscape:connector-curvature="0" />
    <path
       style="fill:#001f87;fill-opacity:1;fill-rule:evenodd;stroke:none;stroke-width:0.73792046px;stroke-linecap:butt;stroke-linejoin:miter;stroke-opacity:1"
       d="m 170.53671,118.19795 c -0.18168,8e-4 -0.36706,0.005 -0.55604,0.0139 -0.30785,0.0144 -0.58945,0.0563 -0.85628,0.11162 a 2.5036587,2.5036587 0 0 0 -0.40049,1.35341 2.5036587,2.5036587 0 0 0 2.50372,2.50321 2.5036587,2.5036587 0 0 0 2.50372,-2.50321 2.5036587,2.5036587 0 0 0 -0.24804,-1.08107 c -0.77346,-0.24187 -1.77928,-0.40221 -2.94659,-0.39791 z"
       id="circle5312"
       inkscape:connector-curvature="0" />
    <circle
       style="fill:#000a2c;fill-opacity:1;fill-rule:evenodd;stroke:none;stroke-width:0.26458332px;stroke-linecap:butt;stroke-linejoin:miter;stroke-opacity:1"
       id="path5310"
       cx="171.22775"
       cy="119.6767"
       r="0.8976934" />
    <path
       style="fill:#001f87;fill-opacity:1;fill-rule:evenodd;stroke:none;stroke-width:0.73792046px;stroke-linecap:butt;stroke-linejoin:miter;stroke-opacity:1"
       d="m 198.50451,113.33572 c -0.61587,-0.005 -1.23581,0.0131 -1.82935,0.0574 -0.22194,0.0166 -0.43274,0.0469 -0.63459,0.0879 a 2.5036587,2.5036587 0 0 0 -0.3855,1.32911 2.5036587,2.5036587 0 0 0 2.50372,2.50373 2.5036587,2.5036587 0 0 0 2.50321,-2.50373 2.5036587,2.5036587 0 0 0 -0.43202,-1.40146 c -0.55373,-0.0422 -1.13708,-0.0683 -1.72547,-0.0729 z"
       id="circle5314"
       inkscape:connector-curvature="0" />
    <circle
       r="0.8976934"
       cy="114.81026"
       cx="198.15855"
       id="circle5316"
       style="fill:#000a2c;fill-opacity:1;fill-rule:evenodd;stroke:none;stroke-width:0.26458332px;stroke-linecap:butt;stroke-linejoin:miter;stroke-opacity:1" />
    <path
       style="fill:#252218;fill-opacity:1;fill-rule:evenodd;stroke:none;stroke-width:0.26458332px;stroke-linecap:butt;stroke-linejoin:miter;stroke-opacity:1"
       d="m 243.54406,162.34077 c 0,0 7.9375,6.04762 5.85863,9.44941 -2.07886,3.40178 -25.3244,30.61607 -42.90029,29.29315 -17.5759,-1.32292 -27.78125,-14.17411 -25.32441,-20.5997 2.45685,-6.4256 4.34673,-13.22917 4.34673,-13.22917 0,0 -30.61607,14.3631 -34.9628,19.0878 -4.34673,4.7247 -30.80506,78.24107 -30.80506,78.24107 l 190.5,0 c 0,0 -0.75594,-53.67262 -5.29167,-64.82292 -4.53572,-11.15029 -10.20535,-15.49702 -19.46576,-18.52083 -9.26042,-3.02381 -38.93156,-17.76488 -41.95537,-18.89881 z"
       id="path5328"
       inkscape:connector-curvature="0" />
    <path
       style="fill:#2a1808;fill-opacity:1;fill-rule:evenodd;stroke:none;stroke-width:0.26458332px;stroke-linecap:butt;stroke-linejoin:miter;stroke-opacity:1"
       d="m 159.82234,113.20387 c 0,0 1.46466,-1.27567 1.32291,-2.92932 -0.14174,-1.65364 0.0945,-4.86644 0.47248,-4.86644 0.37797,0 -0.0472,3.54352 0.37797,3.54352 0.42522,0 3.35454,-1.88987 3.07106,-4.11049 -0.28349,-2.22061 -3.11831,-8.031989 -2.17336,-9.402155 0.94493,-1.370163 3.73251,-2.69308 4.01599,-1.133927 0.28348,1.559152 0.75595,4.11049 0.18899,5.716892 -0.56696,1.6064 -1.6064,1.13393 -1.6064,1.13393 0,0 4.63021,1.93713 4.58296,-2.26786 -0.0472,-4.204986 0.33073,-6.898066 2.50409,-7.370535 2.17337,-0.472472 5.43341,0.661458 4.8192,3.685267 -0.61421,3.023809 -5.71689,3.023809 -5.71689,3.023809 0,0 2.64583,6.472839 6.85082,3.071059 4.20499,-3.401788 4.20499,0.33073 4.20499,0.33073 0,0 0.80319,-3.827011 1.65364,-3.07106 0.85045,0.755952 3.2128,5.00818 5.66964,4.86644 2.45685,-0.14174 2.74033,-1.22842 2.74033,-1.22842 0,0 -4.91369,0.70871 -3.9215,-4.015995 0.99218,-4.724705 4.7247,-1.889882 8.12649,-3.96875 3.40178,-2.078871 3.40178,-2.976563 3.40178,-2.976563 0,0 -2.07887,5.338913 -4.86644,6.898066 -2.78758,1.55915 -3.16555,2.929312 -3.16555,2.929312 0,0 2.36235,-2.03162 4.39397,-2.976561 2.03162,-0.944939 7.79576,-10.63058 9.49665,-12.851188 1.70089,-2.220611 0.61421,8.079239 1.88988,10.583333 1.27567,2.504091 5.29167,4.204986 6.09487,7.370536 0.8032,3.16555 0.75595,5.05543 0.75595,5.05543 0,0 0.18899,-4.44122 -0.42522,-6.66183 -0.61421,-2.220611 4.96094,3.49628 5.48065,7.27604 0.51972,3.77976 7.79576,5.66964 7.79576,5.66964 0,0 -5.66964,-4.91369 -1.84263,-5.48065 3.82701,-0.56696 4.48846,5.71689 4.48846,5.71689 0,0 0.85045,-2.59859 1.22843,-1.41741 0.37797,1.18117 -2.31511,8.6462 -4.06325,9.73288 -1.74814,1.08668 -1.27567,2.45685 -1.32291,4.86645 -0.0658,3.35523 1.27567,11.9535 1.27567,11.9535 0,0 -0.56697,-6.70908 2.22061,-8.78795 2.78757,-2.07887 1.93712,-3.96875 1.93712,-3.96875 0,0 -2.36235,3.9215 -2.26785,2.03162 0.0945,-1.88988 3.16555,-8.69345 6.2366,-10.81957 3.07106,-2.12611 8.64621,-1.18117 10.06362,-3.87425 1.41741,-2.69308 0.89769,-3.26005 0.89769,-3.26005 0,0 -6.61458,3.2128 -5.05543,0.8977 1.55915,-2.31511 6.99256,-6.94532 6.52009,-9.11868 -0.47247,-2.17336 -2.07887,-2.22061 -2.07887,-2.22061 0,0 2.36235,1.41741 0.61421,2.83482 -1.74814,1.41741 -5.10267,1.98438 -5.38616,-1.18117 -0.28348,-3.165555 6.09487,-14.788322 5.33892,-17.812131 -0.75595,-3.023809 -2.88207,-2.315104 -2.88207,-2.315104 0,0 1.79539,1.606399 0.47247,1.464656 -1.32292,-0.14174 -4.86644,-2.882069 -1.22842,-5.433406 3.63802,-2.55134 1.03943,-7.606771 1.03943,-7.606771 0,0 0.61421,6.520087 -2.26786,5.38616 -2.88207,-1.133927 -13.79613,-0.850448 -12.42596,-7.606771 1.37016,-6.756323 -0.66146,-10.866815 -4.15774,-13.748885 -3.49628,-2.882066 -8.45722,-1.370163 -8.07924,-4.724701 0.37797,-3.354538 6.61458,-1.559153 3.68527,-3.874257 -2.92932,-2.315104 -5.33892,0.519719 -5.33892,0.519719 0,0 4.7247,-1.464657 3.07106,0 -1.65365,1.464656 -5.95313,2.740326 -8.92969,1.228423 -2.97656,-1.511906 -4.53571,-3.96875 -10.77232,-5.10268 -6.23661,-1.133928 -11.76451,2.362351 -11.76451,2.362351 0,0 -4.25223,-3.543525 -7.9375,-1.228421 -3.68527,2.315104 -4.86644,8.551712 -7.74851,7.843004 -2.88207,-0.708705 -11.38653,0.236236 -10.91406,-3.496278 0.47247,-3.732514 3.1183,-3.732514 3.1183,-3.732514 0,0 -2.74033,-0.614212 -4.48847,3.827007 -1.74814,4.441222 -5.19717,-2.83482 -9.26041,-1.653646 -4.06325,1.181177 -4.29948,2.55134 -4.29948,2.55134 0,0 6.14211,-4.630208 8.40997,0.803198 2.26785,5.43341 -7.55953,9.780135 -11.24479,6.85082 -3.68527,-2.929316 -9.6384,4.346725 -9.6384,4.346725 0,0 7.46503,-6.567336 8.36273,-2.36235 0.89769,4.204985 -3.44904,7.512277 -4.06325,9.02418 -0.61421,1.511906 1.79539,9.874628 -2.64583,9.543899 -4.44122,-0.330729 -4.25223,-2.126115 -4.25223,-2.126115 0,0 0.85044,5.858629 5.71689,3.02381 4.86644,-2.834823 3.21279,7.701264 -0.99219,7.890253 -4.20499,0.188986 -4.25223,7.701264 -4.25223,7.701264 0,0 5.5279,-3.82701 5.10267,1.748139 -0.42522,5.575152 -9.68564,8.409972 -8.97693,4.866442 0.7087,-3.543525 2.64583,-3.1183 2.64583,-3.1183 0,0 -2.50409,-1.559153 -3.40178,3.82701 -0.8977,5.38616 8.7407,2.22061 7.51228,6.47284 -1.22843,4.25223 -5.66965,6.80357 -5.19718,10.06362 0.47247,3.26004 3.26005,8.7407 -1.22842,9.63839 -4.48847,0.89769 -5.24442,8.92968 -5.24442,8.92968 0,0 2.74033,-9.54389 7.22879,-6.70907 4.48847,2.83482 -0.85044,7.41778 2.69308,10.96131 3.54353,3.54352 5.24442,2.92931 5.24442,2.92931 0,0 -8.40997,-2.59858 -3.827,-10.15811 4.58296,-7.55952 1.70089,2.45685 4.44122,5.48066 2.74032,3.02381 5.5279,5.00818 5.5279,5.00818 0,0 -7.74852,-6.85082 -3.73252,-12.42597 4.016,-5.57514 8.36273,4.06325 8.36273,4.06325 0,0 3.02381,-9.68564 7.65401,-7.98475 4.63021,1.7009 8.36273,10.39435 5.52791,14.97731 -2.83483,4.58296 -6.52009,6.47284 -6.52009,6.47284 0,0 11.19754,-4.91369 10.34709,-1.46466 -0.85044,3.44903 -4.01599,3.54353 -4.01599,3.54353 0,0 8.26823,-0.51972 9.4494,4.44122 1.18118,4.96094 0.56697,7.70126 0.56697,7.70126 0,0 7.22879,-1.5119 6.37835,2.55134 -0.85045,4.06325 -1.98438,6.28386 -1.98438,6.28386 0,0 4.39397,-6.89807 6.04762,-3.26005 1.65364,3.63802 1.22842,4.20499 1.22842,4.20499 0,0 5.57515,-3.07105 4.8192,-4.48847 -0.75596,-1.41741 -4.67746,-3.9215 -7.60677,-6.66183 -2.92932,-2.74033 -7.13431,-8.45721 -8.8352,-13.32366 -1.70089,-4.86644 -7.89025,-15.21354 -8.97693,-18.52083 -1.08668,-3.30729 -2.78758,-15.59152 -2.36235,-16.81994 z"
       id="path5318"
       inkscape:connector-curvature="0"
       sodipodi:nodetypes="csssssssccsscscsscsscscsssscsscscssscscssscsscssscsscssssscssscssscsscsscssscsscsscsssscsscsscscsscscscscscssssc" />
    <path
       style="fill:#ffe991;fill-opacity:1;fill-rule:evenodd;stroke:none;stroke-width:0.26458332px;stroke-linecap:butt;stroke-linejoin:miter;stroke-opacity:1"
       d="m 142.67167,126.76376 c 1.27567,-0.23623 2.50409,3.87426 2.50409,3.87426 0,0 -0.42522,-0.66146 1.65365,-2.07887 2.07886,-1.41741 3.44903,0.75595 3.63802,-2.17336 0.18899,-2.92932 0.56696,-7.89026 1.55915,-7.89026 0.99219,0 0.7087,2.31511 1.65365,1.93713 0.94494,-0.37797 1.65364,-2.50409 1.93712,-1.70089 0.28348,0.8032 -0.89769,2.59859 1.08668,4.81919 1.98438,2.22062 4.86645,3.44904 4.25224,6.56734 -0.61421,3.11831 -2.07887,4.53572 -1.27567,8.12649 0.8032,3.59077 1.18117,5.33891 -0.14175,6.42559 -1.32291,1.08669 -2.92931,1.41742 -2.92931,1.41742 0,0 3.82701,-2.59859 1.5119,-2.31511 -2.3151,0.28348 -3.07105,1.51191 -3.07105,1.51191 0,0 2.83482,-2.78758 2.07887,-5.38616 -0.75595,-2.59859 1.37016,-3.63803 0.94494,-5.95313 -0.42522,-2.3151 -1.55915,-2.92932 -1.55915,-2.92932 0,0 -1.7009,0.51972 -1.37017,3.73252 0.33073,3.2128 2.12612,4.44122 0.8032,6.23661 -1.32291,1.79538 -3.96875,2.17336 -3.44903,4.34672 0.51972,2.17337 1.5119,5.48066 -0.23624,6.85082 -1.74814,1.37016 -0.28348,4.29948 -0.28348,4.29948 0,0 -2.74033,-3.40178 -1.6064,-4.63021 1.13393,-1.22842 2.03163,-1.55915 1.08668,-3.73251 -0.94494,-2.17337 -2.03162,-4.48847 -0.66145,-5.33892 1.37016,-0.85044 3.16555,-2.45684 2.3151,-3.44903 -0.85045,-0.99219 -3.02381,-1.98437 -2.03162,-4.29948 0.99219,-2.3151 1.79538,-5.66964 1.22842,-6.80357 -0.56696,-1.13393 -4.29948,1.13393 -4.29948,3.2128 0,2.07887 -0.47247,4.44122 -1.41741,5.43341 -0.94494,0.99218 1.18118,-1.98438 0.37798,-1.74815 -0.8032,0.23624 -1.51191,3.96875 -2.36235,4.96094 -0.85045,0.99219 0.61421,4.15774 0.61421,4.15774 0,0 -3.40179,-2.92931 -2.22061,-5.14993 1.18117,-2.2206 1.93712,-4.58295 1.5119,-5.29166 -0.42522,-0.70871 -2.83482,2.83482 -2.83482,2.83482 0,0 1.6064,-2.55134 1.22842,-3.68527 -0.37797,-1.13393 -2.83482,0.99219 -2.88207,3.30729 -0.0472,2.31511 -2.64583,3.82701 -2.64583,3.82701 0,0 2.36235,-2.69308 2.03162,-5.76413 -0.33072,-3.07106 2.74033,-1.7009 2.83482,-4.06325 0.0945,-2.36235 0.42523,-3.49628 0.42523,-3.49628 z"
       id="path5320"
       inkscape:connector-curvature="0"
       sodipodi:nodetypes="ccssssssssscscsscsssscsssssssscscsscsccssc" />
    <ellipse
       cy="119.67139"
       cx="170.57051"
       id="ellipse5357"
       style="display:inline;opacity:1;fill:#e0e3ef;fill-opacity:1;fill-rule:evenodd;stroke:none;stroke-width:0.13194139px;stroke-linecap:butt;stroke-linejoin:miter;stroke-opacity:1"
       rx="0.49119613"
       ry="0.36616436" />
    <ellipse
       ry="0.36616436"
       rx="0.49119613"
       style="display:inline;opacity:1;fill:#e0e3ef;fill-opacity:1;fill-rule:evenodd;stroke:none;stroke-width:0.13194139px;stroke-linecap:butt;stroke-linejoin:miter;stroke-opacity:1"
       id="ellipse5360"
       cx="197.29747"
       cy="114.7269" />
  </g>
</svg>
