<?xml version="1.0" encoding="UTF-8" standalone="no"?>
<!-- Created with Inkscape (http://www.inkscape.org/) -->

<svg
   xmlns:dc="http://purl.org/dc/elements/1.1/"
   xmlns:cc="http://creativecommons.org/ns#"
   xmlns:rdf="http://www.w3.org/1999/02/22-rdf-syntax-ns#"
   xmlns:svg="http://www.w3.org/2000/svg"
   xmlns="http://www.w3.org/2000/svg"
   xmlns:sodipodi="http://sodipodi.sourceforge.net/DTD/sodipodi-0.dtd"
   xmlns:inkscape="http://www.inkscape.org/namespaces/inkscape"
   width="1280"
   height="720"
   viewBox="0 0 338.66666 190.50001"
   id="svg2"
   version="1.1"
   inkscape:version="0.91+devel r13925"
   sodipodi:docname="lyla-learn-video-thumbnail.svg"
   inkscape:export-filename="/Users/agarone/Documents/git/art/avishai-cohen/lyla/lyla-learn-video-thumbnail-1920x1080.png"
   inkscape:export-xdpi="144"
   inkscape:export-ydpi="144">
  <defs
     id="defs4" />
  <sodipodi:namedview
     id="base"
     pagecolor="#ffffff"
     bordercolor="#666666"
     borderopacity="1.0"
     inkscape:pageopacity="0.0"
     inkscape:pageshadow="2"
     inkscape:zoom="0.7"
     inkscape:cx="454.28231"
     inkscape:cy="284.08988"
     inkscape:document-units="px"
     inkscape:current-layer="g5903"
     showgrid="false"
     units="px"
     inkscape:window-width="1920"
     inkscape:window-height="1075"
     inkscape:window-x="0"
     inkscape:window-y="1"
     inkscape:window-maximized="1" />
  <metadata
     id="metadata7">
    <rdf:RDF>
      <cc:Work
         rdf:about="">
        <dc:format>image/svg+xml</dc:format>
        <dc:type
           rdf:resource="http://purl.org/dc/dcmitype/StillImage" />
        <dc:title />
      </cc:Work>
    </rdf:RDF>
  </metadata>
  <g
     inkscape:label="Gray BG"
     inkscape:groupmode="layer"
     id="layer1"
     transform="translate(0,-106.49999)">
    <rect
       style="opacity:1;fill:#313133;fill-opacity:1;stroke:none;stroke-width:16.0535984;stroke-miterlimit:4;stroke-dasharray:none;stroke-opacity:1"
       id="rect4141"
       width="338.66669"
       height="190.5"
       x="1.4210855e-14"
       y="106.49999" />
  </g>
  <g
     inkscape:groupmode="layer"
     id="g5903"
     inkscape:label="Green Banner">
    <rect
       style="opacity:1;fill:#618242;fill-opacity:1;stroke:none;stroke-width:11.03082752;stroke-miterlimit:4;stroke-dasharray:none;stroke-opacity:1"
       id="rect5905"
       width="338.66669"
       height="43.65625"
       x="0"
       y="146.84375" />
  </g>
  <g
     inkscape:label="Interview"
     id="g4209"
     inkscape:groupmode="layer">
    <text
       sodipodi:linespacing="125%"
       id="text4211"
       y="34.341614"
       x="173.85484"
       style="font-style:normal;font-variant:normal;font-weight:normal;font-stretch:normal;font-size:20.26743698px;line-height:125%;font-family:Museo;-inkscape-font-specification:'Museo, Normal';text-align:start;letter-spacing:0px;word-spacing:0px;writing-mode:lr-tb;text-anchor:start;fill:#ffffff;fill-opacity:1;stroke:none;stroke-width:0.50668812px;stroke-linecap:butt;stroke-linejoin:miter;stroke-opacity:1"
       xml:space="preserve"><tspan
         id="tspan4213"
         sodipodi:role="line"
         x="173.85484"
         y="34.341614">LEARN:</tspan></text>
    <g
       id="g4475"
       transform="matrix(0.55481581,0,0,0.55481581,-4.2452015,-2.4486164e-6)">
      <g
         style="display:none"
         transform="translate(0,-32.41665)"
         id="layer1-3"
         inkscape:label="BG">
        <rect
           y="32.416653"
           x="0"
           height="264.58334"
           width="264.58334"
           id="rect5606"
           style="opacity:1;fill:#ffffff;fill-opacity:1;stroke:none;stroke-width:11.60810661;stroke-miterlimit:4;stroke-dasharray:none;stroke-opacity:1" />
      </g>
      <g
         style="display:inline"
         inkscape:label="Shirt"
         id="layer3">
        <path
           inkscape:connector-curvature="0"
           id="path4154"
           d="m 26.726951,264.58333 c 0,0 3.741775,-15.23436 4.810853,-16.30344 1.069078,-1.06908 -2.672697,-3.47451 -2.672697,-6.68174 0,-3.20723 5.612662,-3.20723 5.612662,-4.81085 0,-1.60362 -4.543581,-11.75986 -3.474503,-17.63979 1.069078,-5.87993 9.818161,-24.86775 10.00715,-28.26954 0.188989,-3.40178 0.944941,-6.61458 8.504465,-11.71726 7.559524,-5.10268 12.095237,-4.53571 15.308035,-6.2366 3.212798,-1.7009 13.796131,-8.31548 17.386906,-9.26042 3.590771,-0.94494 10.205354,-3.02381 10.205354,-3.02381 0,0 1.700895,-11.71726 34.395834,-13.98512 32.69494,-2.26786 35.90774,6.99256 41.01042,7.37054 5.10268,0.37797 30.99404,4.53571 34.77381,7.18154 3.77976,2.64584 8.50446,1.13393 11.90625,1.13393 3.40178,0 5.29166,5.10268 6.99256,6.61459 1.70089,1.5119 12.47321,4.91369 20.22172,10.39434 7.74851,5.48066 15.78051,14.3631 17.4814,15.02455 1.70089,0.66146 5.38615,0.28349 5.38615,0.28349 l 0,69.92559 z"
           style="fill:#484848;fill-opacity:1;fill-rule:evenodd;stroke:none;stroke-width:0.26458332px;stroke-linecap:butt;stroke-linejoin:miter;stroke-opacity:1" />
      </g>
      <g
         style="display:inline"
         inkscape:label="Bass Body"
         id="layer11">
        <path
           inkscape:connector-curvature="0"
           id="path4184"
           d="m 264.58332,264.58333 0,-22.30059 c 0,0 -8.53912,-2.02094 -11.47908,-2.82275 -2.93997,-0.8018 -22.58428,-24.32152 -28.73147,-25.3906 -6.1472,-1.06908 -38.21955,4.81085 -38.21955,4.81085 l 4.27632,45.70309 z"
           style="fill:#552200;fill-opacity:1;fill-rule:evenodd;stroke:none;stroke-width:0.26458332px;stroke-linecap:butt;stroke-linejoin:miter;stroke-opacity:1" />
      </g>
      <g
         style="display:inline"
         inkscape:label="Bass Neck"
         id="layer7-9">
        <path
           inkscape:connector-curvature="0"
           id="path4166"
           d="m 201.27232,231.51041 c 0,0 13.41815,-3.96875 11.33928,-13.98511 -2.07886,-10.01638 -5.66964,-10.20536 -7.9375,-22.3006 -2.26785,-12.09524 -23.43452,-120.385416 -22.1116,-120.763392 1.32291,-0.377976 0.94494,6.236608 4.15774,6.425597 3.21279,0.188986 13.79613,-2.834823 13.41815,-10.205358 -0.37798,-7.370537 -2.45684,-7.559524 -2.45684,-7.559524 l 4.34672,-5.10268 c 0,0 -8.12649,-17.386903 -3.40178,-27.59226 4.7247,-10.205357 6.80357,-14.93006 6.80357,-19.276786 0,-4.3467258 -1.13393,-11.1502920000003 -1.13393,-11.1502920000003 l -29.10417,0 c 0,0 -13.04018,15.6860070000003 -16.25297,24.5684470000003 -3.2128,8.88244 -1.32292,32.69494 -0.56697,36.096725 0.75595,3.401787 42.9003,170.845233 42.9003,170.845233 z"
           style="fill:#784421;fill-opacity:1;fill-rule:evenodd;stroke:none;stroke-width:0.26458332px;stroke-linecap:butt;stroke-linejoin:miter;stroke-opacity:1" />
      </g>
      <g
         style="display:inline"
         inkscape:label="Bass Headstock"
         id="layer8-0">
        <path
           sodipodi:nodetypes="csccscc"
           inkscape:connector-curvature="0"
           id="path4169"
           d="m 163.28571,56.696427 c 0,0 -3.96875,-22.678571 -0.75595,-33.828868 C 164.379,16.449599 177.45982,4.9999997e-6 177.45982,4.9999997e-6 l 6.04762,0 c 0,0 -7.36214,9.1718877000003 -8.69345,17.7648760000003 -2.07887,13.418154 2.64583,30.61607 2.64583,30.61607 z"
           style="fill:#1a1a1a;fill-opacity:1;fill-rule:evenodd;stroke:none;stroke-width:0.26458332px;stroke-linecap:butt;stroke-linejoin:miter;stroke-opacity:1" />
      </g>
      <g
         inkscape:label="Tuners"
         id="layer9">
        <path
           inkscape:connector-curvature="0"
           id="path4172"
           d="m 199.19345,54.995534 -14.17411,-5.858629 c 0,0 -5.29166,-22.111607 -3.77976,-30.994048 C 182.75149,9.2604163 189.74405,4.9999997e-6 189.74405,4.9999997e-6 l 13.60714,0 c 0,0 1.5119,5.8586258000003 1.13393,8.3154710000003 -0.37798,2.456845 -1.51191,5.858631 -1.51191,5.858631 0,0 7.55953,9.260416 9.63839,9.260416 2.07887,0 5.85864,-1.322916 7.55953,2.267858 1.70089,3.590775 -0.18899,13.040178 -7.74851,12.662202 -7.55953,-0.377976 -8.12649,-4.913691 -7.55953,-7.748511 0.56697,-2.834822 1.51191,-6.99256 -0.37797,-8.693453 -1.88988,-1.700893 -2.83482,-2.456846 -2.83482,-2.456846 0,0 -2.26786,3.212798 -3.2128,6.236608 -0.94494,3.023809 -0.75595,6.992559 -0.75595,6.992559 0,0 6.2366,7.559525 9.07142,8.882441 2.83483,1.322917 8.88244,1.322917 9.44941,4.724702 0.56696,3.401785 -3.59078,8.693451 -9.82738,6.614583 -6.23661,-2.078868 -4.34673,-6.992559 -4.91369,-8.504465 -0.56697,-1.511903 -5.29167,-6.236607 -5.29167,-6.236607 0,0 0.56697,10.583333 3.02381,16.81994 z"
           style="fill:#502d16;fill-opacity:1;fill-rule:evenodd;stroke:none;stroke-width:0.26458332px;stroke-linecap:butt;stroke-linejoin:miter;stroke-opacity:1" />
      </g>
      <g
         style="display:inline"
         inkscape:label="Bass Fretboard"
         id="layer6-7">
        <path
           inkscape:connector-curvature="0"
           id="path4163"
           d="M 182.75149,264.58333 159.12797,60.47619 c 0,0 2.45685,-4.535715 6.99256,-6.803572 4.53572,-2.267858 14.93006,-7.748511 15.68602,-6.614584 0.75595,1.13393 3.59077,5.291667 1.88988,5.858632 -1.7009,0.566965 -8.88244,1.700892 -8.88244,1.700892 l 39.87648,209.965772 z"
           style="fill:#000000;fill-opacity:1;fill-rule:evenodd;stroke:none;stroke-width:0.26458332px;stroke-linecap:butt;stroke-linejoin:miter;stroke-opacity:1" />
      </g>
      <g
         style="display:inline"
         inkscape:label="Bass Strings"
         id="layer10">
        <path
           inkscape:connector-curvature="0"
           id="path4175"
           d="m 174.43601,43.845239 -13.98512,14.552083 22.3006,206.186008"
           style="fill:none;fill-rule:evenodd;stroke:#bcbcbc;stroke-width:1.5;stroke-linecap:butt;stroke-linejoin:miter;stroke-miterlimit:4;stroke-dasharray:none;stroke-opacity:1" />
        <path
           inkscape:connector-curvature="0"
           id="path4177"
           d="M 174.625,27.025298 163.66369,57.074405 188.61012,264.58333"
           style="fill:none;fill-rule:evenodd;stroke:#bcbcbc;stroke-width:1.39999998;stroke-linecap:butt;stroke-linejoin:miter;stroke-miterlimit:4;stroke-dasharray:none;stroke-opacity:1" />
        <path
           inkscape:connector-curvature="0"
           id="path4179"
           d="m 175.00297,31.938989 -7.55952,23.434521 28.5372,209.20982"
           style="fill:none;fill-rule:evenodd;stroke:#bcbcbc;stroke-width:1.29999995;stroke-linecap:butt;stroke-linejoin:miter;stroke-miterlimit:4;stroke-dasharray:none;stroke-opacity:1" />
        <path
           inkscape:connector-curvature="0"
           id="path4181"
           d="m 175.75893,38.553572 -4.34673,14.74107 34.01786,211.288688"
           style="fill:none;fill-rule:evenodd;stroke:#bcbcbc;stroke-width:1.10000002;stroke-linecap:butt;stroke-linejoin:miter;stroke-miterlimit:4;stroke-dasharray:none;stroke-opacity:1" />
      </g>
      <g
         inkscape:label="Hand"
         id="layer12">
        <path
           inkscape:connector-curvature="0"
           id="path4187"
           d="m 264.58332,215.53937 c 0,0 -12.68179,-7.88445 -15.08722,-8.68626 -2.40542,-0.80181 -9.35443,-6.41447 -13.36348,-10.15624 -4.00904,-3.74177 -12.96257,-12.02713 -14.96709,-12.16076 -2.00452,-0.13364 -5.61266,0.80181 -7.21628,0.80181 -1.60361,0 -14.69982,-3.20724 -16.30344,-2.40543 -1.60361,0.80181 -14.56619,11.22532 -15.10072,12.56167 -0.53454,1.33635 -3.34087,6.1472 -3.07361,7.34991 0.26728,1.20271 1.60362,2.53906 1.60362,2.53906 0,0 -1.48916,1.93681 -1.11119,3.21248 0.37798,1.27567 4.06325,2.78757 4.06325,2.78757 0,0 -2.12612,2.31511 -2.36236,3.07106 -0.23623,0.75595 0.0472,3.02381 1.51191,3.77976 1.46466,0.75595 3.02381,1.93713 3.73251,1.37016 0.70871,-0.56696 1.84264,-1.93712 2.74033,-2.40959 0.89769,-0.47248 2.45685,-1.51191 3.07106,-1.98438 0.61421,-0.47247 1.03943,-1.74814 1.22842,-1.88988 0.18899,-0.14174 3.63802,-1.37016 4.34673,-1.79539 0.7087,-0.42522 2.83482,-2.55134 3.63802,-2.78757 0.8032,-0.23624 3.49628,0.14174 4.7247,0 1.22842,-0.14174 2.69308,-0.51972 3.54353,-0.51972 0.85044,0 2.3151,2.69308 2.3151,2.69308 0,0 -6.56734,1.55915 -8.55171,2.74033 -1.98438,1.18118 -3.9215,2.69308 -4.96094,3.07105 -1.03943,0.37798 -10.20535,3.92151 -11.19754,4.53572 -0.99219,0.61421 -2.88207,3.30729 -2.64584,4.44122 0.23624,1.13393 4.29948,5.19717 7.37054,4.20498 3.07106,-0.99218 6.4256,-3.07105 8.032,-3.68526 1.60639,-0.61421 3.21279,-0.70871 4.15773,-1.22843 0.94494,-0.51971 1.6064,-1.22842 2.78758,-2.07886 1.18117,-0.85045 3.9215,-0.61422 5.24441,-0.70871 1.32292,-0.0945 2.69309,-1.18118 3.59078,-1.03943 0.89769,0.14174 13.89062,12.28422 17.76488,12.75669 3.87426,0.47247 7.37054,0.66146 9.02418,0 1.65365,-0.66146 1.79539,-0.94494 2.78758,-0.94494 0.99218,0 13.89062,7.9375 15.40253,8.26823 1.5119,0.33073 3.26003,0.89769 3.26003,0.89769 z"
           style="fill:#deaa87;fill-opacity:1;fill-rule:evenodd;stroke:none;stroke-width:0.26458332px;stroke-linecap:butt;stroke-linejoin:miter;stroke-opacity:1" />
      </g>
      <g
         style="display:inline"
         inkscape:label="Neck"
         id="layer4-1">
        <path
           sodipodi:nodetypes="cssssssc"
           inkscape:connector-curvature="0"
           id="path4157"
           d="m 80.448128,121.99504 c 0,0 15.796011,18.16434 16.437075,28.0633 0.520298,8.03416 -2.405427,9.2208 -2.138156,11.09168 0.267269,1.87089 13.630743,22.31701 19.777943,24.1879 6.1472,1.87088 28.19694,4.81085 32.47325,4.00904 4.27631,-0.80181 16.1698,-15.368 15.90254,-19.51068 -0.26728,-4.14267 -3.87541,-16.57071 -4.94449,-17.90706 -1.06908,-1.33634 -73.23185,-32.47324 -77.508162,-29.93418 z"
           style="fill:#d89b73;fill-opacity:1;fill-rule:evenodd;stroke:none;stroke-width:0.26458332px;stroke-linecap:butt;stroke-linejoin:miter;stroke-opacity:1" />
      </g>
      <g
         style="display:inline"
         inkscape:label="Head"
         id="layer5">
        <path
           inkscape:connector-curvature="0"
           id="path4160"
           d="m 155.14996,157.14098 c -4.54358,0.93544 -15.7689,-0.13363 -21.38156,-3.60814 -5.61266,-3.4745 -20.44612,-2.27179 -25.39061,-7.75081 -4.94448,-5.47903 -10.423509,-18.8425 -10.423509,-18.8425 0,0 -0.935445,2.00452 -3.741774,2.00452 -2.80633,0 -14.699824,-5.7463 -16.169807,-8.55263 -1.469982,-2.80633 -9.354433,-27.26149 -8.819893,-41.293141 0.534538,-14.03165 23.252448,-36.348653 34.745033,-37.818636 11.49259,-1.469983 33.27506,5.879928 36.8832,8.953529 3.60814,3.073598 10.82442,15.501633 12.2944,17.773422 1.46998,2.271792 0.80181,3.741775 1.46998,4.543584 0.66817,0.801806 6.01356,5.078119 6.5481,8.418988 0.53454,3.34087 -1.06908,9.354434 -0.66817,10.824417 0.4009,1.469982 4.40995,6.414468 5.21176,10.557147 0.8018,4.14268 1.46998,23.51972 0.8018,30.60236 -0.66817,7.08264 -2.00452,7.75082 -2.00452,10.55715 0,2.80633 1.60362,10.55714 -9.35443,13.63074 z"
           style="fill:#deaa87;fill-opacity:1;fill-rule:evenodd;stroke:none;stroke-width:0.26458332px;stroke-linecap:butt;stroke-linejoin:miter;stroke-opacity:1" />
      </g>
      <g
         inkscape:label="Chin"
         id="layer22">
        <path
           sodipodi:nodetypes="csccscssssccssscscc"
           inkscape:connector-curvature="0"
           id="path4323"
           d="m 98.462797,126.43303 c 0,0 0.912973,0.28691 1.184814,1.41257 0.745249,3.08599 4.732219,12.34007 11.193909,16.49406 6.52008,3.30728 21.96986,4.25223 21.96986,4.25223 0,0 -0.76935,-0.44357 -1.85129,-3.46658 -0.93648,-2.61661 -0.53254,-4.68868 -0.53254,-4.68868 0,0 5.35685,12.25215 14.57765,12.98714 4.77439,0.38057 7.9213,-3.10068 10.70824,-3.85376 2.59549,-0.70135 4.95399,1.37096 6.04949,0.43657 1.09686,-0.93556 1.87447,-6.7975 3.13176,-13.61789 1.34679,-7.30584 1.8147,-18.40269 1.8147,-18.40269 0,0 1.19771,13.6741 -1.97282,24.65155 -0.15612,4.88068 -0.16293,7.18541 -1.83846,9.68989 -2.35599,3.52155 -7.68131,5.28127 -9.5522,5.28127 -1.87088,0 -10.2189,-0.5732 -12.49485,-1.20272 -3.14042,-0.86862 -8.61944,-3.67496 -8.61944,-3.67496 0,0 -12.80313,-2.71413 -17.50616,-3.67496 -6.21401,-1.26952 -12.54689,-7.76153 -16.663547,-21.82123 z"
           style="fill:#b78564;fill-opacity:1;fill-rule:evenodd;stroke:none;stroke-width:0.26458332px;stroke-linecap:butt;stroke-linejoin:miter;stroke-opacity:1" />
        <path
           sodipodi:nodetypes="cscsccssc"
           inkscape:connector-curvature="0"
           id="path4325"
           d="m 159.45968,132.75264 c 0.26727,1.00226 -0.46772,3.00678 -0.60136,4.34313 -0.13363,1.33635 0.46773,2.27179 -0.13363,2.67269 -0.60135,0.40091 -2.73951,0.13364 -4.14268,0.46772 -1.40316,0.33409 -3.60814,1.60362 -4.47676,1.5368 -3.13791,-0.60481 -5.73412,-2.11005 -7.11321,-3.98385 3.73243,0.16413 3.85799,-0.19329 3.70552,-1.96289 -0.0513,-0.59543 7.34991,-0.60136 8.61944,-1.1359 1.26953,-0.53454 4.14268,-1.9377 4.14268,-1.9377 z"
           style="fill:#b8896a;fill-opacity:1;fill-rule:evenodd;stroke:none;stroke-width:0.26458332px;stroke-linecap:butt;stroke-linejoin:miter;stroke-opacity:1" />
      </g>
      <g
         inkscape:label="Ear"
         id="layer23">
        <path
           inkscape:connector-curvature="0"
           id="path4328"
           d="m 77.641796,111.97243 c 0.668176,0.26727 0.935445,1.73725 2.271791,0.40091 1.336347,-1.33635 0.400905,-3.60814 2.004523,-3.74178 1.603616,-0.13363 4.142677,1.73725 5.61266,1.46999 1.469982,-0.26727 2.939965,-1.60362 2.939965,-1.60362 l 0.534538,0.93544 c 0,0 -2.405425,0.66818 -3.073599,2.00452 -0.668173,1.33635 1.336347,5.07812 2.271789,4.94449 0.935445,-0.13364 0.668176,-2.13816 1.737255,-2.53906 1.069078,-0.4009 3.608136,0.13363 3.608136,0.13363 0,0 -2.539058,-2.40542 -2.672694,-3.20723 -0.133636,-0.80181 0.534538,-2.40543 -0.133636,-3.0736 -0.668173,-0.66818 -4.409945,-3.20723 -8.018084,-3.47451 -3.608139,-0.26726 -7.216277,1.06908 -7.750818,3.47451 -0.534538,2.40543 0.668174,4.27631 0.668174,4.27631 z"
           style="fill:#b8896a;fill-opacity:1;fill-rule:evenodd;stroke:none;stroke-width:0.26458332px;stroke-linecap:butt;stroke-linejoin:miter;stroke-opacity:1" />
      </g>
      <g
         inkscape:label="Nose Shadow"
         id="layer20">
        <path
           sodipodi:nodetypes="cssssscccccc"
           inkscape:connector-curvature="0"
           id="path4309"
           d="m 138.29204,110.65253 c 0,0 0.42522,3.49628 1.98437,3.77976 1.55915,0.28348 3.9215,0.0945 5.33891,0.28348 1.41742,0.18899 5.00819,2.83482 6.47285,2.69308 1.46465,-0.14174 3.07105,-2.69308 3.35454,-3.77976 0.28348,-1.08668 1.03943,-1.74814 1.03943,-2.17336 0,-0.42522 -0.23623,-3.20232 -0.0945,-3.67479 -5.57492,0.63776 -7.41625,0.53441 -8.90498,0.70029 -1.40317,0.23386 -3.92553,0.45101 -4.00905,0.75169 -0.0835,0.30068 -1.15259,0.66818 -1.15259,0.66818 0,0 -3.04667,1.93718 -4.02899,0.75143 z"
           style="fill:#6e5341;fill-opacity:0.15476194;fill-rule:evenodd;stroke:none;stroke-width:0.26458332px;stroke-linecap:butt;stroke-linejoin:miter;stroke-opacity:1" />
      </g>
      <g
         inkscape:label="Nose + Cheeks"
         id="layer16">
        <path
           sodipodi:nodetypes="csssc"
           inkscape:connector-curvature="0"
           id="path4201"
           d="m 136.63839,106.02232 c 0,0 -1.80091,7.01919 -2.66954,8.75644 -0.86863,1.73725 -3.20724,6.21402 -3.40769,7.41673 -0.20045,1.20271 0.47722,-5.94675 1.9472,-8.48581 1.46999,-2.53906 2.92417,-6.8221 4.13003,-7.68736 z"
           style="fill:#b78564;fill-opacity:1;fill-rule:evenodd;stroke:none;stroke-width:0.26458332px;stroke-linecap:butt;stroke-linejoin:miter;stroke-opacity:1" />
        <path
           sodipodi:nodetypes="cscscscc"
           inkscape:connector-curvature="0"
           id="path4203"
           d="m 158.08992,105.82523 c 0,0 4.27632,7.98468 4.47677,9.32103 0.20045,1.33635 -0.60134,7.28309 -0.60134,7.28309 0,0 4.04245,-4.6104 4.27631,-8.65285 0.0477,-0.82426 0.17123,-7.58638 -0.19006,-8.32386 -0.17628,2.85741 0.0825,5.03942 -1.23778,6.39273 -1.19114,1.22092 -5.98135,-6.07514 -6.72388,-6.02014 z"
           style="fill:#b78564;fill-opacity:1;fill-rule:evenodd;stroke:none;stroke-width:0.26458332px;stroke-linecap:butt;stroke-linejoin:miter;stroke-opacity:1" />
        <path
           inkscape:connector-curvature="0"
           id="path4205"
           d="m 145.06053,103.75389 c 0,0 -0.86862,-3.14041 -2.73951,-2.80633 -1.87089,0.33409 -4.00904,3.00679 -4.00904,3.00679 0,0 2.20497,-0.93545 3.54132,-0.93545 1.33635,0 2.60588,0.13364 3.20723,0.73499 z"
           style="fill:#b78564;fill-opacity:1;fill-rule:evenodd;stroke:none;stroke-width:0.26458332px;stroke-linecap:butt;stroke-linejoin:miter;stroke-opacity:1" />
        <path
           inkscape:connector-curvature="0"
           id="path4215"
           d="m 137.37654,107.6293 c 0,0 -0.60136,1.9377 0.53453,3.00678 1.1359,1.06908 7.55037,0.20046 7.55037,0.20046 0,0 -1.87089,-0.46773 -1.87089,-0.93545 0,-0.46772 6.34765,-1.5368 6.88219,-0.73499 0.53454,0.80181 -1.20271,1.46998 -1.20271,1.46998 0,0 3.20723,0.20046 3.74177,-0.20045 0.53454,-0.4009 1.26953,-1.73725 1.67044,-1.80407 0.4009,-0.0668 2.93996,-1.06908 3.20723,-1.9377 0.26727,-0.86863 -0.80181,-4.00904 -0.80181,-4.00904 0,0 1.00226,3.20723 -1.9377,3.94222 -2.93997,0.73499 -4.67722,-3.27405 -7.01583,-1.5368 -2.33861,1.73725 0.80181,1.87089 -0.13363,2.27179 -0.93544,0.40091 -3.20724,-0.20045 -4.74404,0.53454 -1.53679,0.73499 -2.73951,2.13816 -3.80859,2.07134 -1.06907,-0.0668 -1.5368,-0.60136 -2.07133,-2.33861 z"
           style="fill:#b78564;fill-opacity:1;fill-rule:evenodd;stroke:none;stroke-width:0.26458332px;stroke-linecap:butt;stroke-linejoin:miter;stroke-opacity:1" />
      </g>
      <g
         style="display:inline"
         inkscape:label="Eye Shadows"
         id="layer17">
        <path
           sodipodi:nodetypes="sccssccscccsscsssscssscsssscssscsscsssscsssccsssscsss"
           inkscape:connector-curvature="0"
           transform="scale(0.26458333)"
           id="path4218"
           d="m 579.07031,301.98438 c -10.09994,0.46976 -28.04321,11.96018 -30.81054,14.27734 l -0.125,-0.38672 c -5.05078,-0.25255 -4.67252,-0.25352 -9.47071,1.26172 -4.79826,1.51523 -14.64791,-2.27285 -22.47656,-2.52539 -7.82869,-0.25255 -37.12229,7.32462 -46.21367,11.11269 l -7.57692,16.41445 c -14.64722,7.07107 -18.18327,22.22287 -22.72894,24.74825 -4.54568,2.52538 -30.55664,5.30273 -30.55664,5.30273 5.80838,1.51523 27.77989,-2.52538 27.52734,0 -0.25247,2.52538 -16.66778,6.31351 -18.43555,7.57617 -1.76776,1.26271 13.38383,0.75779 19.69727,-1.76757 6.31344,-2.52538 19.44554,-12.87852 22.72852,-13.88867 3.28301,-1.01016 9.94091,-4.83492 9.18331,-6.60269 -0.75765,-1.76776 -10.39704,-1.95786 -10.39704,-1.95786 -0.91115,-3.15403 17.62839,-13.40977 22.42662,-14.41992 4.79822,-1.01015 10.10274,-2.52636 12.12304,-1.26368 2.02031,1.2627 10.35431,4.04006 6.56622,8.08067 -3.69639,3.9428 -4.79924,7.07187 -4.79924,7.07187 0,0 7.32443,-5.05057 8.33459,-1.00996 1.01015,4.04061 -8.58716,11.36466 -15.65821,14.14258 -7.07108,2.77792 -21.97092,3.02989 -27.77929,5.30273 -5.80838,2.27285 -16.41407,8.08008 -16.41407,8.08008 0,0 10.85979,-4.54472 19.95118,-6.3125 9.09135,-1.76777 25.5047,2.52615 33.58593,-2.01953 8.08124,-4.54569 26.51736,-29.0422 28.28516,-33.58789 1.76776,-4.54568 2.52443,-9.84981 6.3125,-13.13281 3.35317,-2.90609 13.23159,-6.10412 17.0332,-4.17383 0.97062,3.04053 2.03516,6.3823 2.03516,7.70898 0,2.52538 2.90284,4.79982 4.79687,6.0625 1.89404,1.2627 9.59736,12.12159 10.98633,14.01563 1.38894,1.89403 4.29245,6.18712 4.54492,7.19727 0.25255,1.01015 9.09107,4.29276 16.16211,3.53515 7.07108,-0.75762 10.86035,-8.46034 12.12305,-8.71289 1.26266,-0.25254 3.15625,-0.75781 3.15625,-0.75781 -1.51525,-2.02031 -4.79914,-4.79883 -8.46094,-4.79883 -3.66179,0 -4.7972,1.26435 -13.50976,1.39063 -8.71257,0.12627 -14.14159,-2.14718 -10.35352,-4.79883 3.78807,-2.65165 9.35208,1.07462 16.16211,1.00976 6.62914,-0.0631 11.80469,-2.46289 11.80469,-2.46289 0,0 -5.31745,1.3084 -7.89063,1.20117 -3.03046,-0.12626 -6.18828,-1.6414 -9.21875,-2.14648 -3.03046,-0.50507 -8.45907,-0.38047 -8.83789,-1.39062 -0.37882,-1.01016 3.91417,-2.01894 6.81836,-2.27149 3.90871,0.54285 6.78572,-0.50107 -1.64062,-2.14648 -1.894,-0.25254 -7.19857,1.38878 -9.59766,1.76757 -2.39913,0.37882 -7.70197,-0.63155 -8.20703,-3.2832 -0.50506,-2.65165 11.86938,-9.85001 20.20312,-11.36523 8.33379,-1.51523 13.13097,2.02041 16.03516,2.90429 2.0177,0.61409 2.98255,7.69817 -4.33008,11.74219 6.47717,-0.75638 6.13156,-0.75586 6.47852,-0.75586 1.13643,0 6.81807,-4.5466 5.68164,-10.98633 -1.13639,-6.43972 -14.3948,-23.48554 -25.25391,-22.98046 z"
           style="fill:#c99573;fill-opacity:1;fill-rule:evenodd;stroke:none;stroke-width:0.99999994px;stroke-linecap:butt;stroke-linejoin:miter;stroke-opacity:1" />
        <path
           sodipodi:nodetypes="cscssc"
           inkscape:connector-curvature="0"
           id="path4303"
           d="m 121.54082,93.915033 c 0.11693,0.183748 1.87088,0.701582 3.29075,0.567949 1.41987,-0.133635 5.89664,-1.369757 5.98016,-1.50339 0.0835,-0.133636 1.86032,-1.110594 1.65987,-1.595019 -0.20045,-0.484428 -1.51724,-1.559237 -3.34701,-1.478581 -0.6017,0.02652 -6.33095,1.787364 -7.58377,4.009041 z"
           style="display:inline;fill:#d4d4d4;fill-opacity:1;fill-rule:evenodd;stroke:none;stroke-width:0.26458332px;stroke-linecap:butt;stroke-linejoin:miter;stroke-opacity:1" />
        <path
           sodipodi:nodetypes="zssccz"
           inkscape:connector-curvature="0"
           id="path4306"
           d="m 148.43481,88.152035 c -0.1108,-0.820846 2.12145,-2.004521 3.4578,-2.505653 1.33635,-0.501129 3.77452,-0.648987 4.29424,-0.318258 0.51972,0.330729 1.50009,1.240234 1.4056,1.771764 -0.0945,0.531529 -1.28749,1.606399 -1.59459,1.630021 -0.30711,0.02363 -7.45225,0.242972 -7.56305,-0.577874 z"
           style="fill:#d4d4d4;fill-opacity:1;fill-rule:evenodd;stroke:none;stroke-width:0.26458332px;stroke-linecap:butt;stroke-linejoin:miter;stroke-opacity:1" />
      </g>
      <g
         style="display:inline"
         inkscape:label="Eyes"
         id="layer18">
        <path
           inkscape:connector-curvature="0"
           id="path4242"
           d="m 128.54621,90.073053 c -0.30576,0.06175 -0.61544,0.125949 -0.9186,0.18397 -0.14092,0.02697 -0.33628,0.09235 -0.5565,0.176215 a 2.2049726,2.2550866 0 0 0 -0.98682,1.878439 2.2049726,2.2550866 0 0 0 0.86233,1.786453 c 0.38761,-0.07418 0.90463,-0.175122 1.50807,-0.300239 0.61513,-0.127539 1.27369,-0.304731 1.79172,-0.450101 a 2.2049726,2.2550866 0 0 0 0.24784,-1.036113 2.2049726,2.2550866 0 0 0 -1.94804,-2.238624 z"
           style="fill:#002e10;fill-opacity:1;fill-rule:evenodd;stroke:none;stroke-width:0.27749726px;stroke-linecap:butt;stroke-linejoin:miter;stroke-opacity:1" />
        <path
           sodipodi:nodetypes="sscccccccs"
           inkscape:connector-curvature="0"
           id="path4244"
           transform="scale(0.26458333)"
           d="m 584.78516,321.68945 c -1.32476,-0.0203 -2.76359,0.087 -4.32618,0.3711 -0.68786,0.12506 -1.40917,0.30129 -2.14257,0.49804 -1.83887,1.5691 -2.9058,3.91147 -2.90821,6.38477 0.004,2.26925 0.90412,4.43722 2.49024,5.99609 0.0485,0.004 0.11735,-0.004 0.16211,0.002 5.97275,1.1663 11.78152,0.16483 10.05413,0.37583 0.55224,-0.43299 2.9738,-0.50959 3.20368,-6.37388 -0.004,-2.853 -1.42213,-5.50239 -3.75195,-7.00977 -0.86907,-0.13598 -1.78952,-0.22897 -2.78125,-0.24414 z"
           style="fill:#002e10;fill-opacity:1;fill-rule:evenodd;stroke:none;stroke-width:1.00399196px;stroke-linecap:butt;stroke-linejoin:miter;stroke-opacity:1" />
        <ellipse
           ry="0.90203464"
           rx="0.8018086"
           cy="92.161087"
           cx="128.08893"
           id="path4285"
           style="fill:#000000;fill-opacity:1;fill-rule:evenodd;stroke:none;stroke-width:0.26458332px;stroke-linecap:butt;stroke-linejoin:miter;stroke-opacity:1" />
        <ellipse
           ry="1.0607259"
           rx="0.96049982"
           cy="87.007782"
           cx="154.37321"
           id="path4297"
           style="fill:#000000;fill-opacity:1;fill-rule:evenodd;stroke:none;stroke-width:0.26458332px;stroke-linecap:butt;stroke-linejoin:miter;stroke-opacity:1" />
      </g>
      <g
         inkscape:label="Eyebrows"
         id="layer21">
        <path
           sodipodi:nodetypes="csssssc"
           inkscape:connector-curvature="0"
           id="path4312"
           d="m 136.64154,83.107323 c -1.60361,-0.601356 -3.00678,-2.605879 -8.28535,-1.336347 -5.27858,1.269529 -10.49033,3.54132 -13.63075,6.88219 -3.50594,3.729728 -5.87993,6.949006 -4.67721,7.349911 1.20271,0.400905 2.84269,-0.4104 4.11222,-1.880382 1.26953,-1.469983 4.70767,-4.868173 8.11536,-6.471791 3.40768,-1.603616 14.43255,-2.472243 14.36573,-4.543581 z"
           style="fill:#a97754;fill-opacity:1;fill-rule:evenodd;stroke:none;stroke-width:0.26458332px;stroke-linecap:butt;stroke-linejoin:miter;stroke-opacity:1" />
        <path
           sodipodi:nodetypes="csscssc"
           inkscape:connector-curvature="0"
           id="path4314"
           d="m 147.13188,82.70642 c 0.20045,-1.069078 4.40994,-3.207235 6.68173,-4.075862 2.27179,-0.868625 5.27858,0.133634 5.87993,1.202712 0.60136,1.069078 1.33635,4.343131 1.26953,5.211758 -0.0668,0.868624 -0.0421,3.349099 -0.86863,3.073598 0,0 -0.93544,-6.280834 -4.6104,-6.347649 -3.67495,-0.06682 -5.47902,1.603614 -8.35216,0.935443 z"
           style="fill:#a97754;fill-opacity:1;fill-rule:evenodd;stroke:none;stroke-width:0.26458332px;stroke-linecap:butt;stroke-linejoin:miter;stroke-opacity:1" />
      </g>
      <g
         style="display:inline"
         inkscape:label="Hair"
         id="layer13">
        <g
           id="g4316">
          <path
             sodipodi:nodetypes="csssssssscccsssssc"
             style="fill:#a97754;fill-opacity:1;fill-rule:evenodd;stroke:none;stroke-width:0.26458332px;stroke-linecap:butt;stroke-linejoin:miter;stroke-opacity:1"
             d="m 75.406249,113.77083 c 0,0 -1.511906,-10.77232 3.590774,-11.90625 5.102678,-1.13393 11.90625,1.88988 13.040177,2.83482 1.133931,0.94494 4.15774,3.40179 4.15774,-0.18898 0,-3.59078 1.322916,-10.016373 0.94494,-12.28423 -0.377975,-2.267858 -5.388942,-9.283345 -5.76692,-12.307154 -0.377976,-3.023809 0.358985,-13.310232 2.15437,-15.956063 1.74045,-2.564873 3.391136,-7.402962 8.11584,-9.103855 4.7247,-1.700892 19.13262,-7.059848 22.711,-6.76165 3.40178,0.283482 7.843,1.795386 9.4494,2.929316 1.25032,-1.408337 1.30766,-1.512656 1.99057,-2.865402 2.06873,0.12033 4.63967,2.170935 4.63967,2.170935 0.0111,-1.751903 -0.99443,-4.961054 -3.98441,-6.865057 -2.5205,-1.605045 -11.24757,-6.196312 -18.24013,-5.629349 -6.99256,0.566965 -14.07683,3.550481 -18.423556,4.306433 -4.346726,0.755954 -13.607143,2.645833 -19.465774,10.961311 -5.858632,8.315476 -13.607142,17.575892 -12.284226,27.78125 1.322917,10.205355 3.401785,24.379465 7.370535,32.883925 z"
             id="path4190"
             inkscape:connector-curvature="0" />
          <path
             style="fill:#a97754;fill-opacity:1;fill-rule:evenodd;stroke:none;stroke-width:0.26458332px;stroke-linecap:butt;stroke-linejoin:miter;stroke-opacity:1"
             d="m 93.738093,140.98512 c 0,0 -2.666003,-7.29704 -3.53463,-9.23474 -0.868624,-1.93771 -2.672695,-5.14494 -2.672695,-5.14494 0,0 -2.40137,-1.11702 -3.670902,-1.85202 -1.269529,-0.73499 -3.403633,-2.074 -3.403633,-2.074 0,0 6.078992,8.14362 7.883061,11.61812 1.80407,3.47451 5.124839,9.3074 5.398799,6.68758 z"
             id="path4236"
             inkscape:connector-curvature="0"
             sodipodi:nodetypes="cscscsc" />
        </g>
      </g>
      <g
         style="display:inline"
         inkscape:label="Mouth"
         id="layer19">
        <path
           inkscape:connector-curvature="0"
           id="path4234"
           d="m 160.22808,122.73003 -0.13364,3.34087 -1.06907,4.87767 -13.22985,2.20497 -10.0226,-2.13815 -2.80633,-2.40543 -0.13364,-0.66817 1.80407,-1.83748 4.00904,-2.83974 17.70661,-4.57699 3.60814,1.43657 z"
           style="fill:#422121;fill-opacity:0.73511903;fill-rule:evenodd;stroke:none;stroke-width:0.26458332px;stroke-linecap:butt;stroke-linejoin:miter;stroke-opacity:1" />
      </g>
      <g
         style="display:inline"
         inkscape:label="Teeth"
         id="layer15">
        <path
           inkscape:connector-curvature="0"
           id="path4198"
           d="m 133.90203,127.00634 c 0,0 -0.20045,1.26953 0.33409,1.20271 0.53454,-0.0668 1.46998,-0.60135 1.46998,-0.60135 0,0 0.73499,0.26727 1.1359,0.26727 0.4009,0 0.8018,-0.60136 0.8018,-0.60136 0,0 1.00226,1.00226 1.46999,0.80181 0.46772,-0.20045 1.20271,-1.13589 1.20271,-1.13589 0,0 0.59775,0.7928 1.44819,0.43844 0.85045,-0.35435 2.05525,-2.40959 2.05525,-2.40959 0,0 0.8032,1.15755 1.81901,1.03943 1.01581,-0.11812 1.46466,-1.81901 1.46466,-1.81901 0,0 0.49609,1.34654 0.99218,1.53553 0.4961,0.18899 2.74033,0.14174 2.95294,-0.0472 0.21262,-0.18899 0.0236,-0.4016 0.35436,-0.47247 0.33072,-0.0709 0.7087,0.11812 1.1103,0.0945 0.4016,-0.0236 1.72452,-0.73233 1.74814,-0.8977 0.0236,-0.16536 0.21261,-0.49609 0.30711,-0.51972 0.0945,-0.0236 0.7087,0.77958 1.44103,0.63784 0.73233,-0.14174 1.22842,-0.35435 1.22842,-0.61421 0,-0.25986 -0.18898,-2.74033 -0.44884,-3.2128 -0.25986,-0.47247 -0.75596,-0.85045 -1.37017,-0.68508 -0.61421,0.16536 -1.01581,1.27567 -1.27567,1.32292 -0.25986,0.0472 -0.66145,-0.87407 -1.41741,-0.8032 -0.75595,0.0709 -1.58277,1.9135 -1.9135,2.00799 -0.33073,0.0945 -0.92132,-1.15755 -2.03162,-0.96856 -1.11031,0.18899 -1.41741,1.65365 -1.72452,1.65365 -0.30711,0 -0.54334,-1.01581 -2.008,-0.77958 -1.46466,0.23623 -1.55915,1.5119 -1.84263,1.5119 -0.28349,0 -1.29929,-1.06305 -2.19699,-0.66145 -0.89769,0.4016 -0.63783,1.77176 -0.96856,1.77176 -0.33073,0 -1.18118,-0.82682 -1.79539,-0.68508 -0.61421,0.14174 -0.54334,1.32291 -0.73233,1.32291 -0.18899,0 -0.94494,-0.82682 -1.25205,-0.66145 -0.3071,0.16536 -2.35838,1.96709 -2.35838,1.96709 z"
           style="fill:#d4d4d4;fill-opacity:1;fill-rule:evenodd;stroke:none;stroke-width:0.26458332px;stroke-linecap:butt;stroke-linejoin:miter;stroke-opacity:1" />
      </g>
      <g
         style="display:inline"
         inkscape:label="Lips"
         id="layer14">
        <path
           sodipodi:nodetypes="cssscssssc"
           inkscape:connector-curvature="0"
           id="path4193"
           d="m 132.76614,127.94179 c 0,0 4.34313,-3.94223 6.88219,-4.81085 2.53906,-0.86863 16.1698,-3.94223 17.63978,-3.74178 1.46999,0.20045 2.60588,1.33635 2.60588,2.33861 0,1.00226 0.86863,2.27179 0.93545,1.00226 0.0668,-1.26953 0.60135,-5.74629 -1.93771,-6.08038 -2.53906,-0.33409 -5.27857,0.60135 -6.94901,1.00226 -1.67043,0.4009 -2.3386,-0.20046 -4.61039,0.66817 -0.87129,0.33314 -5.41589,1.99382 -7.91825,3.44905 -4.02226,2.33914 -6.3596,4.89573 -6.64794,6.17266 z"
           style="fill:#ca895d;fill-opacity:1;fill-rule:evenodd;stroke:none;stroke-width:0.26458332px;stroke-linecap:butt;stroke-linejoin:miter;stroke-opacity:1" />
        <path
           inkscape:connector-curvature="0"
           id="path4195"
           d="m 132.96659,128.14224 c 0.33408,0.46772 4.54358,2.60587 6.41447,3.00678 1.87088,0.4009 6.28083,-0.13363 7.684,-0.13363 1.40316,0 5.14493,0.0668 6.5481,-0.46773 1.40317,-0.53454 4.87767,-1.9377 5.14494,-2.60587 0.26727,-0.66818 1.13589,-4.67722 1.60362,-4.34313 0.46772,0.33408 2.00452,8.55262 0.0668,10.15624 -1.9377,1.60361 -7.34991,3.14041 -11.62622,3.00678 -4.27631,-0.13363 -16.37026,-6.21402 -15.83572,-8.61944 z"
           style="fill:#cb9069;fill-opacity:1;fill-rule:evenodd;stroke:none;stroke-width:0.26458332px;stroke-linecap:butt;stroke-linejoin:miter;stroke-opacity:1" />
      </g>
    </g>
  </g>
  <g
     inkscape:groupmode="layer"
     id="layer4"
     inkscape:label="Artist Name">
    <text
       xml:space="preserve"
       style="font-style:normal;font-variant:normal;font-weight:600;font-stretch:normal;font-size:33.95090485px;line-height:100%;font-family:Museo;-inkscape-font-specification:'Museo, Semi-Bold';text-align:start;letter-spacing:0px;word-spacing:0px;writing-mode:lr-tb;text-anchor:start;fill:#ffffff;fill-opacity:1;stroke:none;stroke-width:0.84876513px;stroke-linecap:butt;stroke-linejoin:miter;stroke-opacity:1"
       x="174.40492"
       y="64.040565"
       id="text4158"
       sodipodi:linespacing="100%"><tspan
         sodipodi:role="line"
         x="174.40492"
         y="64.040565"
         style="font-style:normal;font-variant:normal;font-weight:600;font-stretch:normal;font-size:33.95090485px;line-height:100%;font-family:Museo;-inkscape-font-specification:'Museo, Semi-Bold';text-align:start;writing-mode:lr-tb;text-anchor:start;fill:#ffffff;fill-opacity:1;stroke-width:0.84876513px"
         id="tspan4193">Avishai</tspan><tspan
         sodipodi:role="line"
         x="174.40492"
         y="97.99147"
         style="font-style:normal;font-variant:normal;font-weight:600;font-stretch:normal;font-size:33.95090485px;line-height:100%;font-family:Museo;-inkscape-font-specification:'Museo, Semi-Bold';text-align:start;writing-mode:lr-tb;text-anchor:start;fill:#ffffff;fill-opacity:1;stroke-width:0.84876513px"
         id="tspan4542">Cohen's</tspan><tspan
         sodipodi:role="line"
         x="174.40492"
         y="131.94238"
         style="font-style:normal;font-variant:normal;font-weight:600;font-stretch:normal;font-size:33.95090485px;line-height:100%;font-family:Museo;-inkscape-font-specification:'Museo, Semi-Bold';text-align:start;writing-mode:lr-tb;text-anchor:start;fill:#ffffff;fill-opacity:1;stroke-width:0.84876513px"
         id="tspan4544">&quot;Lyla&quot;</tspan></text>
  </g>
  <g
     inkscape:groupmode="layer"
     id="layer6"
     inkscape:label="WEIRD">
    <path
       style="opacity:1;fill:#ffffff;fill-opacity:1;stroke:none;stroke-width:17.2258606;stroke-miterlimit:4;stroke-dasharray:none;stroke-opacity:1"
       d="M 245.3457 602.625 L 245.3457 672.625 L 495.3457 672.625 L 495.3457 602.625 L 245.3457 602.625 z M 254.20703 613.5 L 258.08398 613.5 C 261.48345 613.5 263.18217 614.17987 263.99805 617.44336 L 271.4082 648.31055 C 272.02011 650.89414 272.36133 653.41016 272.36133 653.41016 L 272.49609 653.41016 C 272.49609 653.41016 272.90446 650.96213 273.65234 648.31055 L 283.30664 613.63477 L 289.42578 613.63477 L 298.40039 648.31055 C 299.08028 650.96213 299.41992 653.41016 299.41992 653.41016 L 299.55664 653.41016 C 299.55664 653.41016 299.8295 650.89414 300.44141 648.31055 L 307.98828 617.44336 C 308.80415 614.17987 310.43452 613.5 313.83398 613.5 L 317.70898 613.5 L 317.70898 619.3457 L 316.68945 619.3457 C 315.46565 619.3457 314.71885 619.61799 314.37891 620.8418 L 303.83984 661.5 L 295.95312 661.5 L 287.79492 631.17773 C 286.97905 628.05022 286.43555 624.58203 286.43555 624.58203 L 286.29883 624.58203 C 286.29883 624.58203 285.61824 628.04985 284.73438 631.10938 L 276.0332 661.5 L 268.07812 661.5 L 257.53906 620.8418 C 257.19912 619.61799 256.45232 619.3457 255.22852 619.3457 L 254.20703 619.3457 L 254.20703 613.5 z M 326.5 613.5 L 354.7168 613.5 C 357.77632 613.5 359.06641 614.79204 359.06641 617.85156 L 359.06641 623.90234 L 352.88086 623.90234 L 352.88086 620.8418 C 352.88086 619.82196 352.33662 619.3457 351.38477 619.3457 L 337.71875 619.3457 L 337.71875 634.37305 L 354.51172 634.37305 L 354.51172 640.21875 L 337.71875 640.21875 L 337.71875 654.15625 C 337.71875 655.1081 338.26299 655.65234 339.21484 655.65234 L 353.2207 655.65234 C 354.17255 655.65234 354.7168 655.1081 354.7168 654.15625 L 354.7168 651.09766 L 360.9707 651.09766 L 360.9707 657.14844 C 360.9707 660.20796 359.67866 661.5 356.61914 661.5 L 335.27148 661.5 C 332.21196 661.5 330.91992 660.20796 330.91992 657.14844 L 330.91992 619.3457 L 326.5 619.3457 L 326.5 613.5 z M 370.41406 613.5 L 386.25586 613.5 L 386.25586 619.3457 L 381.56445 619.3457 L 381.56445 655.65234 L 386.25586 655.65234 L 386.25586 661.5 L 370.41406 661.5 L 370.41406 655.65234 L 375.10547 655.65234 L 375.10547 619.3457 L 370.41406 619.3457 L 370.41406 613.5 z M 396.6543 613.5 L 417.5957 613.5 C 426.02638 613.5 431.94141 618.80359 431.94141 627.57422 C 431.94141 635.59696 426.70611 639.53923 423.30664 640.28711 L 423.30664 640.42383 C 423.30664 640.42383 424.52983 641.03585 425.3457 642.59961 L 431.125 654.08984 C 431.80489 655.51762 432.89365 655.65234 434.52539 655.65234 L 435.4082 655.65234 L 435.4082 661.5 L 432.07812 661.5 C 428.33871 661.5 426.97782 661.02399 425.41406 657.89648 L 418.88672 644.97852 C 417.66291 642.73487 416.78049 642.39453 414.12891 642.39453 L 407.87305 642.39453 L 407.87305 661.5 L 401.07422 661.5 L 401.07422 619.3457 L 396.6543 619.3457 L 396.6543 613.5 z M 443.75 613.5 L 463.19531 613.5 C 477.81302 613.5 487.4668 622.27002 487.4668 637.43164 C 487.4668 652.66125 477.81302 661.5 463.19531 661.5 L 452.51953 661.5 C 449.46001 661.5 448.16992 660.20796 448.16992 657.14844 L 448.16992 619.3457 L 443.75 619.3457 L 443.75 613.5 z M 407.87305 619.3457 L 407.87305 636.54883 L 416.71094 636.54883 C 421.87813 636.54883 424.9375 633.21686 424.9375 627.8457 C 424.9375 622.47455 421.87887 619.3457 416.84766 619.3457 L 407.87305 619.3457 z M 454.96875 619.3457 L 454.96875 654.15625 C 454.96875 655.1081 455.51299 655.65234 456.46484 655.65234 L 462.71875 655.65234 C 473.39308 655.65234 480.39648 649.26179 480.39648 637.43164 C 480.39648 625.66949 473.32509 619.3457 462.71875 619.3457 L 454.96875 619.3457 z "
       transform="scale(0.26458334)"
       id="rect4172" />
  </g>
  <g
     inkscape:groupmode="layer"
     id="layer7"
     inkscape:label="MAKE">
    <text
       xml:space="preserve"
       style="font-style:normal;font-variant:normal;font-weight:normal;font-stretch:normal;font-size:17.99166679px;line-height:100%;font-family:Museo;-inkscape-font-specification:'Museo, Normal';text-align:start;letter-spacing:0px;word-spacing:0px;writing-mode:lr-tb;text-anchor:start;fill:#ffffff;fill-opacity:1;stroke:none;stroke-width:0.26458335px;stroke-linecap:butt;stroke-linejoin:miter;stroke-opacity:1"
       x="10.690782"
       y="175.02188"
       id="text4175"
       sodipodi:linespacing="100%"><tspan
         sodipodi:role="line"
         id="tspan4177"
         x="10.690782"
         y="175.02188"
         style="font-style:normal;font-variant:normal;font-weight:normal;font-stretch:normal;font-size:17.99166679px;line-height:100%;font-family:Museo;-inkscape-font-specification:'Museo, Normal';text-align:start;writing-mode:lr-tb;text-anchor:start;fill:#ffffff;fill-opacity:1;stroke-width:0.26458335px;letter-spacing:1.32291669px">MAKE</tspan></text>
  </g>
  <g
     inkscape:groupmode="layer"
     id="layer8"
     inkscape:label="MUSIC">
    <text
       xml:space="preserve"
       style="font-style:normal;font-variant:normal;font-weight:normal;font-stretch:normal;font-size:17.99166679px;line-height:100%;font-family:Museo;-inkscape-font-specification:'Museo, Normal';text-align:start;letter-spacing:0px;word-spacing:0px;writing-mode:lr-tb;text-anchor:start;fill:#ffffff;fill-opacity:1;stroke:none;stroke-width:0.26458335px;stroke-linecap:butt;stroke-linejoin:miter;stroke-opacity:1"
       x="134.21758"
       y="174.80598"
       id="text4180"
       sodipodi:linespacing="100%"><tspan
         sodipodi:role="line"
         id="tspan4182"
         x="134.21758"
         y="174.80598"
         style="font-style:normal;font-variant:normal;font-weight:normal;font-stretch:normal;font-size:17.99166679px;line-height:100%;font-family:Museo;-inkscape-font-specification:'Museo, Normal';text-align:start;writing-mode:lr-tb;text-anchor:start;fill:#ffffff;fill-opacity:1;stroke-width:0.26458335px">MUSIC</tspan></text>
  </g>
</svg>
