<?xml version="1.0" encoding="UTF-8" standalone="no"?>
<!-- Created with Inkscape (http://www.inkscape.org/) -->

<svg
   xmlns:dc="http://purl.org/dc/elements/1.1/"
   xmlns:cc="http://creativecommons.org/ns#"
   xmlns:rdf="http://www.w3.org/1999/02/22-rdf-syntax-ns#"
   xmlns:svg="http://www.w3.org/2000/svg"
   xmlns="http://www.w3.org/2000/svg"
   xmlns:sodipodi="http://sodipodi.sourceforge.net/DTD/sodipodi-0.dtd"
   xmlns:inkscape="http://www.inkscape.org/namespaces/inkscape"
   width="1365.3334"
   height="768"
   viewBox="0 0 338.66666 190.50001"
   id="svg2"
   version="1.1"
   inkscape:version="0.92.1 r15371"
   sodipodi:docname="something-she-said-thumbnail.svg"
   inkscape:export-filename="/Users/agarone/Documents/git/art/henry-cow/decay-of-cities/decay-of-cities-learn-thumbnail.png"
   inkscape:export-xdpi="144"
   inkscape:export-ydpi="144">
  <defs
     id="defs4">
    <linearGradient
       id="linearGradient3995">
      <stop
         style="stop-color:#f46200;stop-opacity:1"
         id="stop3997"
         offset="0" />
      <stop
         style="stop-color:#7a3100;stop-opacity:1"
         id="stop3999"
         offset="1" />
    </linearGradient>
    <linearGradient
       id="linearGradient3980">
      <stop
         style="stop-color:#a05a2c;stop-opacity:1"
         id="stop3982"
         offset="0" />
      <stop
         style="stop-color:#63381b;stop-opacity:1"
         id="stop3984"
         offset="1" />
    </linearGradient>
    <linearGradient
       id="linearGradient3970">
      <stop
         style="stop-color:#d45500;stop-opacity:1"
         id="stop3972"
         offset="0" />
      <stop
         style="stop-color:#8b3800;stop-opacity:1"
         id="stop3974"
         offset="1" />
    </linearGradient>
    <linearGradient
       id="linearGradient3942">
      <stop
         style="stop-color:#f9f9f9;stop-opacity:1"
         id="stop3944"
         offset="0" />
      <stop
         style="stop-color:#c1dfee;stop-opacity:1"
         id="stop3946"
         offset="1" />
    </linearGradient>
    <clipPath
       id="clipPath4408"
       clipPathUnits="userSpaceOnUse">
      <path
         style="fill:#00aad4;stroke:#000000;stroke-width:0.98000002"
         d="m 696.25,529.15 c 0,0 26.26,-20.91 40.41,-24.56 14.14,-3.65 33.34,-6.81 46.97,0.49 13.64,7.29 6.31,65.9 -24.24,72.7 -30.56,6.81 -69.7,-4.86 -63.13,-48.63 z"
         id="path4410"
         inkscape:connector-curvature="0"
         sodipodi:nodetypes="csssc" />
    </clipPath>
    <clipPath
       id="clipPath4415"
       clipPathUnits="userSpaceOnUse">
      <path
         style="fill:#00aad4;stroke:#000000;stroke-width:0.94999999"
         d="m 787.83,524.52 c 0,0 10.35,15.5 2.02,29.86 -8.33,14.36 -24.75,32.82 -61.87,21.65 -37.12,-11.17 -41.16,-53.56 -26.01,-66.55 15.15,-12.99 28.28,-14.13 85.86,15.04 z"
         id="path4417"
         inkscape:connector-curvature="0" />
    </clipPath>
  </defs>
  <sodipodi:namedview
     id="base"
     pagecolor="#ffffff"
     bordercolor="#666666"
     borderopacity="1.0"
     inkscape:pageopacity="0.0"
     inkscape:pageshadow="2"
     inkscape:zoom="0.98994949"
     inkscape:cx="687.30502"
     inkscape:cy="398.37559"
     inkscape:document-units="px"
     inkscape:current-layer="layer4"
     showgrid="false"
     units="px"
     inkscape:window-width="1920"
     inkscape:window-height="1017"
     inkscape:window-x="-8"
     inkscape:window-y="-8"
     inkscape:window-maximized="1" />
  <metadata
     id="metadata7">
    <rdf:RDF>
      <cc:Work
         rdf:about="">
        <dc:format>image/svg+xml</dc:format>
        <dc:type
           rdf:resource="http://purl.org/dc/dcmitype/StillImage" />
        <dc:title />
      </cc:Work>
    </rdf:RDF>
  </metadata>
  <g
     inkscape:label="Gray BG"
     inkscape:groupmode="layer"
     id="layer1"
     transform="translate(0,-106.49999)">
    <rect
       style="opacity:1;fill:#646468;fill-opacity:1;stroke:none;stroke-width:16.0535984;stroke-miterlimit:4;stroke-dasharray:none;stroke-opacity:1"
       id="rect4141"
       width="338.66669"
       height="190.5"
       x="1.4210855e-014"
       y="106.49999" />
  </g>
  <g
     inkscape:groupmode="layer"
     id="layer2"
     inkscape:label="Orange Banner">
    <rect
       style="opacity:1;fill:#de3d2d;fill-opacity:1;stroke:none;stroke-width:11.03082752;stroke-miterlimit:4;stroke-dasharray:none;stroke-opacity:1"
       id="rect4144"
       width="338.66669"
       height="43.65625"
       x="0"
       y="146.84375" />
  </g>
  <g
     inkscape:label="Blue Banner"
     id="g4203"
     inkscape:groupmode="layer">
    <rect
       y="146.84375"
       x="0"
       height="43.65625"
       width="338.66669"
       id="rect4205"
       style="opacity:1;fill:#618242;fill-opacity:1;stroke:none;stroke-width:11.03082752;stroke-miterlimit:4;stroke-dasharray:none;stroke-opacity:1" />
  </g>
  <g
     inkscape:groupmode="layer"
     id="layer3"
     inkscape:label="Discover"
     style="display:none">
    <text
       xml:space="preserve"
       style="font-style:normal;font-variant:normal;font-weight:normal;font-stretch:normal;line-height:0%;font-family:Museo;-inkscape-font-specification:'Museo, Normal';text-align:start;letter-spacing:0px;word-spacing:0px;writing-mode:lr-tb;text-anchor:start;fill:#ffffff;fill-opacity:1;stroke:none;stroke-width:0.50668812px;stroke-linecap:butt;stroke-linejoin:miter;stroke-opacity:1"
       x="173.85484"
       y="40.767208"
       id="text4147"><tspan
         sodipodi:role="line"
         id="tspan4164"
         x="173.85484"
         y="40.767208"
         style="font-size:20.26743698px;line-height:1.25">DISCOVER:</tspan></text>
  </g>
  <g
     inkscape:label="Interview"
     id="g4209"
     inkscape:groupmode="layer">
    <text
       id="text4211"
       y="32.151577"
       x="164.4351"
       style="font-style:normal;font-variant:normal;font-weight:normal;font-stretch:normal;line-height:0%;font-family:Museo;-inkscape-font-specification:'Museo, Normal';text-align:start;letter-spacing:0px;word-spacing:0px;writing-mode:lr-tb;text-anchor:start;fill:#ffffff;fill-opacity:1;stroke:none;stroke-width:0.54964364px;stroke-linecap:butt;stroke-linejoin:miter;stroke-opacity:1"
       xml:space="preserve"><tspan
         id="tspan4213"
         sodipodi:role="line"
         x="164.4351"
         y="32.151577"
         style="font-size:21.98564911px;line-height:1.25;stroke-width:0.54964364px">LEARN:</tspan></text>
  </g>
  <g
     inkscape:groupmode="layer"
     id="layer4"
     inkscape:label="Artist Name">
    <text
       xml:space="preserve"
       style="font-style:normal;font-variant:normal;font-weight:600;font-stretch:normal;line-height:0%;font-family:Museo;-inkscape-font-specification:'Museo, Semi-Bold';text-align:start;letter-spacing:0px;word-spacing:0px;writing-mode:lr-tb;text-anchor:start;fill:#ffffff;fill-opacity:1;stroke:none;stroke-width:0.70015675px;stroke-linecap:butt;stroke-linejoin:miter;stroke-opacity:1"
       x="165.25487"
       y="58.038551"
       id="text4158"><tspan
         sodipodi:role="line"
         x="165.25487"
         y="58.038551"
         style="font-style:normal;font-variant:normal;font-weight:600;font-stretch:normal;font-size:28.0065155px;line-height:100%;font-family:Museo;-inkscape-font-specification:'Museo, Semi-Bold';text-align:start;writing-mode:lr-tb;text-anchor:start;fill:#ffffff;fill-opacity:1;stroke-width:0.70015675px"
         id="tspan12093">Béla Fleck's</tspan><tspan
         sodipodi:role="line"
         x="165.25487"
         y="86.045067"
         style="font-style:normal;font-variant:normal;font-weight:600;font-stretch:normal;font-size:28.0065155px;line-height:100%;font-family:Museo;-inkscape-font-specification:'Museo, Semi-Bold';text-align:start;writing-mode:lr-tb;text-anchor:start;fill:#ffffff;fill-opacity:1;stroke-width:0.70015675px"
         id="tspan2765">&quot;Something</tspan><tspan
         sodipodi:role="line"
         x="165.25487"
         y="114.05158"
         style="font-style:normal;font-variant:normal;font-weight:600;font-stretch:normal;font-size:28.0065155px;line-height:100%;font-family:Museo;-inkscape-font-specification:'Museo, Semi-Bold';text-align:start;writing-mode:lr-tb;text-anchor:start;fill:#ffffff;fill-opacity:1;stroke-width:0.70015675px"
         id="tspan2767">She Said&quot;</tspan><tspan
         sodipodi:role="line"
         x="165.25487"
         y="142.05811"
         style="font-style:normal;font-variant:normal;font-weight:600;font-stretch:normal;font-size:28.0065155px;line-height:100%;font-family:Museo;-inkscape-font-specification:'Museo, Semi-Bold';text-align:start;writing-mode:lr-tb;text-anchor:start;fill:#ffffff;fill-opacity:1;stroke-width:0.70015675px"
         id="tspan2769">Intro</tspan></text>
    <g
       id="g2758"
       transform="matrix(0.56733548,0,0,0.56733523,2.522198,-3.2695731)">
      <g
         style="display:none"
         transform="translate(0,-32.41665)"
         id="layer1-9"
         inkscape:label="BG">
        <rect
           style="fill:#ffffff;fill-opacity:1;stroke-width:0.26458332"
           y="32.416641"
           x="0"
           height="264.58334"
           width="264.58334"
           id="rect4493" />
      </g>
      <g
         style="display:inline"
         inkscape:label="Head"
         id="layer2-5">
        <path
           inkscape:connector-curvature="0"
           id="path4682"
           d="m 89.485863,80.650669 c -0.803201,-0.141743 -2.078871,-0.944941 -2.882069,-0.472472 -0.803201,0.472472 -1.228423,0.992188 -1.228423,0.992188 0,0 1.984375,-2.504091 1.322916,-3.118303 -0.661458,-0.614211 -2.83482,-2.315104 -2.220611,-4.866444 0.614212,-2.55134 1.889882,-5.38616 1.748142,-6.189361 -0.141742,-0.803198 -1.889882,-3.77976 -1.984375,-5.764135 -0.0945,-1.984375 0.519716,-5.291667 0.14174,-5.669643 -0.377976,-0.377976 -3.685267,1.748139 -3.874257,1.748139 -0.188986,0 3.307292,-2.645833 2.834823,-3.260045 -0.472469,-0.614211 -1.133927,-0.614211 -1.133927,-0.614211 0,0 1.700892,-1.41741 1.700892,-2.598584 0,-1.181177 0.236233,-3.638021 -0.188989,-3.543528 -0.425223,0.09449 -1.370164,2.031622 -1.370164,2.031622 0,0 0.803199,-2.882069 1.889882,-4.441219 1.086681,-1.559153 0.04725,-3.071059 0.850445,-4.677458 0.803201,-1.606396 3.401788,-5.953125 3.590774,-7.134299 0.188989,-1.181176 1.559153,-4.582961 3.023809,-5.953125 1.46466,-1.370164 4.346729,-2.598586 6.142114,-3.96875 1.795386,-1.370164 8.504465,-4.582962 8.362725,-5.055432 -0.14174,-0.47247 -4.91369,1.039435 -6.425596,2.504093 -1.511906,1.464657 -2.078868,1.842634 -2.078868,1.842634 0,0 2.031621,-3.779762 5.811384,-4.960938 3.77976,-1.181175 5.33891,-1.795387 7.51228,-2.126116 2.17336,-0.330729 4.20498,0.661458 5.33891,0.661458 1.13393,0 6.23661,-1.937128 7.79576,-1.322916 1.55915,0.614211 6.56733,3.401785 7.51227,3.449032 0.94494,0.04725 3.82701,-0.566964 5.7169,0.897694 1.88987,1.464658 2.3151,2.504092 2.3151,2.504092 0,0 -6.52009,-4.771949 -3.63802,-1.889881 2.88206,2.882068 6.09486,3.96875 6.89806,4.724702 0.8032,0.755953 0.37798,1.181176 1.46466,1.984375 1.08668,0.8032 5.19717,3.968752 6.37835,5.953127 1.18117,1.984375 0.85045,4.866441 1.18117,5.527899 0.33073,0.661459 1.22843,1.322917 1.88988,1.228424 0.66146,-0.09449 0.8032,-0.566965 0.8032,-0.566965 0,0 -0.51971,1.700892 -1.74813,1.086683 -1.22843,-0.614211 0.14174,0.992188 0.85044,1.748139 0.70871,0.755952 -0.37798,3.449032 0.37798,4.346726 0.75595,0.897694 1.65364,0.09449 1.65364,0.09449 0,0 -0.37797,1.842635 -1.18117,1.511906 0,0 -0.85045,0.188992 0.0945,1.133932 0.94494,0.944941 2.07887,1.842634 2.69308,1.464658 0.61422,-0.377976 0.85045,-0.661458 0.85045,-0.661458 0,0 -0.94494,2.504092 -2.07887,2.173363 -1.13393,-0.330729 -0.14174,2.787574 0.85045,2.787574 0.99219,0 0.66146,-0.803199 0.66146,-0.803199 0,0 1.18117,1.464658 -0.66146,1.795387 -1.84264,0.330729 1.41741,1.937128 1.70089,1.181175 0.28348,-0.755952 -0.23623,-0.897693 -0.23623,-0.897693 0,0 1.32291,0.47247 0.61421,1.653646 -0.70871,1.181175 -2.78758,0.94494 -2.17337,1.606399 0.61422,0.661458 1.74814,-0.33073 2.03163,0.614211 0.28348,0.94494 -0.28349,2.645833 0.0472,2.882068 0.33073,0.236235 0.99219,-0.330729 0.99219,-0.330729 0,0 -0.18899,1.27567 -0.85045,1.653646 -0.66145,0.377976 0.51972,0.897693 0.18899,2.173363 -0.33073,1.27567 -1.22842,2.69308 -0.8032,3.354539 0.42523,0.661458 0.94494,0.519717 0.94494,0.519717 0,0 -0.61421,0.944941 -1.27567,0.566964 -0.66145,-0.377976 -0.23623,1.937128 -0.23623,1.937128 0,0 -0.66146,-3.496279 -1.32292,-4.157738 -0.66146,-0.661458 -1.65364,-1.464657 -1.70089,-0.661458 -0.0472,0.803199 0.99219,1.086681 0.99219,1.086681 0,0 -1.03944,-0.141741 -0.66146,0.755953 0.37797,0.897693 0.75595,0.897693 0.75595,0.897693 0,0 -1.08668,1.039435 -0.51972,1.606399 0.56697,0.566964 0.66146,1.511905 1.27567,1.133929 0.61421,-0.377976 0.8977,0.283482 1.74814,0.141741 0.85045,-0.141741 0.85045,-0.708706 0.85045,-0.708706 0,0 0.14174,1.039435 -1.18118,1.370164 -1.32291,0.330729 -2.40959,1.74814 -2.12611,1.889881 0.28348,0.141741 3.1183,0.47247 3.1183,-0.188988 0,-0.661458 0.33073,-0.897693 0.33073,-0.897693 0,0 0.42522,1.559151 -1.08668,2.078869 -1.51191,0.519717 -3.9215,1.275669 -3.40179,2.031622 0.51972,0.755952 1.79539,1.984375 3.49628,1.984375 1.7009,0 2.26786,-2.267857 2.26786,-2.267857 0,0 0.51972,3.071056 -2.07887,3.732514 -2.59858,0.661459 -4.11049,2.315105 -3.02381,2.362352 1.08668,0.04725 1.6064,-0.708706 1.6064,-0.708706 0,0 0,1.417411 -1.46466,1.417411 -1.46465,0 -3.02381,-0.04725 -2.03162,0.425223 0.99219,0.47247 1.84263,0.141741 1.84263,0.141741 0,0 -0.56696,0.8032 -2.40959,0.708706 -1.84264,-0.09449 0.37797,0.708705 -0.14174,1.700893 -0.51972,0.992187 -1.51191,0.850446 -1.51191,0.850446 0,0 1.32292,-1.417411 0.33073,-1.370164 -0.99219,0.04725 -1.88988,0.944941 -1.03943,2.031622 0.85044,1.086682 1.88988,2.362351 1.70089,2.929316 -0.18899,0.566964 -1.55915,1.181175 -1.55915,1.181175 0,0 1.5119,-0.992187 0.47247,-1.889881 -1.03944,-0.897693 -1.84264,-0.614211 -2.03163,0.283483 -0.18898,0.897693 0.28349,2.834821 0.28349,2.834821 z"
           style="fill:#502d16;stroke:none;stroke-width:0.26458332px;stroke-linecap:butt;stroke-linejoin:miter;stroke-opacity:1" />
        <path
           inkscape:connector-curvature="0"
           id="path4634"
           d="m 149.48958,120.6689 c 0,0 -2.17336,-4.91369 -2.17336,-13.13468 0,-8.220978 2.74033,-21.450144 2.74033,-22.206096 0,-0.755952 0.37797,-2.362351 0.37797,-2.362351 0,0 3.68527,-0.283482 3.68527,-5.008184 0,-4.724704 1.22842,-13.512649 -2.74033,-13.323662 -3.96875,0.188989 0.0945,-9.921875 -6.99256,-17.29241 -7.08705,-7.370535 -9.16592,-16.063989 -24.28497,-16.158482 -15.11905,-0.09449 -26.363837,16.536458 -27.592258,24.75744 -1.228423,8.220983 0.566963,21.639136 0.566963,21.639136 0,0 -3.685268,-5.008184 -3.874254,-4.441219 -0.18899,0.566965 1.039434,12.189732 2.267857,13.134673 1.228421,0.944941 2.078868,1.606399 2.929313,1.22842 0.850448,-0.377975 0.566965,-0.850444 0.566965,-0.850444 0,0 3.212799,9.732885 3.874257,12.095236 0.661458,2.362353 0.82995,12.852993 1.274767,14.147023 0.44482,1.29402 2.03252,6.45268 0.61511,12.5003 -1.417408,6.04762 23.62352,53.38914 23.62352,53.38914 z"
           style="fill:#d38d5f;stroke:none;stroke-width:0.26458332px;stroke-linecap:butt;stroke-linejoin:miter;stroke-opacity:1" />
        <path
           inkscape:connector-curvature="0"
           id="path4674"
           d="m 126.55115,62.885788 c -0.0473,-0.354354 2.8112,-2.362351 3.35454,-2.598587 0.54334,-0.236236 1.06306,-0.826823 2.12612,-0.779576 1.06306,0.04725 3.1183,0.212611 2.83482,0 -0.28348,-0.212612 -2.78758,-0.566963 -4.25223,-0.07087 -1.46466,0.496094 -4.70108,2.69308 -4.70108,2.504091 0,-0.188987 2.43322,-2.220611 3.40178,-2.598587 0.96857,-0.377976 5.50428,-0.401598 6.4256,-0.04725 0.92132,0.354354 1.2048,1.441035 1.93712,2.055247 0.73233,0.614211 1.03944,1.370163 0.73233,1.299292 -0.3071,-0.07087 -1.96075,-0.732327 -2.50409,-0.685081 -0.54334,0.04725 -0.99218,0.448847 -0.99218,0.330729 0,-0.118117 1.34653,-0.54334 1.08668,-1.13393 -0.25986,-0.590587 -1.18118,-1.204798 -1.15755,-1.015809 0.0236,0.188987 0.47246,0.708705 0.25985,1.157552 -0.21261,0.448847 -0.42522,1.535528 -2.14974,1.393785 -1.72451,-0.14174 -2.3151,-0.519715 -2.38597,-1.08668 -0.0709,-0.566966 0.14174,-1.039435 0.0236,-1.01581 -0.11812,0.02363 -1.27567,1.039434 -1.72452,1.41741 -0.44885,0.377976 -2.17336,1.039434 -2.31511,0.87407 z"
           style="fill:#784421;stroke:none;stroke-width:0.26458332px;stroke-linecap:butt;stroke-linejoin:miter;stroke-opacity:1" />
        <path
           inkscape:connector-curvature="0"
           id="path4676"
           d="m 132.74051,60.050965 c 0.70871,-0.02363 1.11031,0.07087 1.22843,0.283483 0.11811,0.212611 0.18898,1.81901 -0.96857,1.559152 -1.15755,-0.259858 -1.27567,-1.795386 -0.25986,-1.842635 z"
           style="fill:#2b1100;stroke:none;stroke-width:0.26458332px;stroke-linecap:butt;stroke-linejoin:miter;stroke-opacity:1" />
        <path
           inkscape:connector-curvature="0"
           id="path4678"
           d="m 131.3231,60.547059 c 0,-0.354351 0.96856,-0.637834 0.99219,-0.118116 0.0236,0.519716 -0.8032,0.496094 -0.99219,0.118116 z"
           style="fill:#e3dbdb;stroke:none;stroke-width:0.26458332px;stroke-linecap:butt;stroke-linejoin:miter;stroke-opacity:1" />
        <path
           inkscape:connector-curvature="0"
           id="path4685"
           d="m 108.19568,20.930431 c 0,0 4.72471,-2.504093 6.37835,-1.984375 1.65365,0.519717 3.2128,2.315104 3.2128,2.315104 0,0 -1.93713,-0.850447 -1.5119,0.04725 0.42522,0.897693 1.08668,1.181176 1.08668,1.181176 0,0 -2.5041,-1.889881 -4.11049,-1.133929 -1.6064,0.755952 -0.66146,1.606399 -0.66146,1.606399 0,0 -4.58296,-1.370164 -4.39398,-2.031622 z"
           style="fill:#784421;stroke:none;stroke-width:0.26458332px;stroke-linecap:butt;stroke-linejoin:miter;stroke-opacity:1" />
        <path
           inkscape:connector-curvature="0"
           id="path4638"
           d="m 128.48982,85.312297 c 0.66818,-0.267269 1.46999,-1.536801 1.00226,-2.33861 -0.46772,-0.801807 -3.14041,-1.00226 -4.47676,-1.804067 -1.33635,-0.801809 -2.80633,-2.138159 -3.34087,-1.670436 -0.53454,0.467722 -0.80181,4.075861 -1.06908,4.075861 -0.26727,0 0.46772,-3.942225 0.0668,-4.677217 -0.4009,-0.734991 -1.26953,-0.334086 -1.26953,-0.668173 0,-0.334087 1.46998,-1.002263 0.93544,-1.536801 -0.53454,-0.53454 1.87089,-0.801809 1.93771,-1.5368 0.0668,-0.734992 0.13363,-1.80407 0.66817,-2.071338 0.53454,-0.267269 0.93545,-0.200451 1.06908,-1.80407 0.13363,-1.603616 0.73499,-2.739512 -0.0668,-2.873147 -0.80181,-0.133636 -1.5368,0.06682 -1.73725,-1.536801 -0.20045,-1.603616 0.4009,-5.679477 0.66817,-6.481286 0.26727,-0.801807 0.93545,-1.46998 0.46773,-1.937702 -0.46773,-0.467723 -1.33635,-0.334087 -1.40317,-0.935445 -0.0668,-0.601356 0.93544,-2.138156 4.27631,-3.27405 3.34087,-1.135896 5.7463,-1.336349 7.01583,-1.135896 1.26953,0.200451 2.60588,-0.200453 1.60362,-1.069078 -1.00226,-0.868627 -3.74178,-3.875407 -4.14268,-6.481286 -0.40091,-2.605878 -1.33635,-7.283095 -7.21628,-7.483546 -5.87993,-0.200454 -13.76438,-1.937705 -18.77568,2.071338 -5.011307,4.009043 -10.423515,12.428032 -11.158507,15.768902 -0.734991,3.34087 -0.601376,12.543538 -0.534537,17.105249 0.06684,4.561713 0.902033,6.648331 0.534537,6.648331 -0.367495,0 -1.169305,-1.57021 -1.603615,-1.603619 -0.434314,-0.03341 -1.302941,1.169305 -1.33635,0.801809 -0.03341,-0.367495 0.868627,-1.236122 0.701582,-1.737251 -0.167042,-0.501132 -1.336347,-3.875408 -1.870884,-3.708366 -0.534541,0.167045 1.135893,11.325545 1.904293,12.294399 0.768401,0.968851 2.104747,1.737252 2.57247,1.637025 0.467722,-0.100224 1.054685,-0.699185 1.054685,-0.699185 0,0 3.92321,11.222923 4.157072,12.225183 0.23386,1.002261 1.069074,10.323286 1.570204,12.093946 0.50113,1.77066 2.6727,6.84878 2.73952,8.55263 0.0668,1.70384 0,6.04697 1.06908,6.64832 1.06907,0.60136 23.05316,45.97036 23.05316,45.97036 0,0 7.51579,-44.86787 6.98125,-45.63627 -0.53454,-0.7684 -8.51922,-0.56794 -9.15399,-1.13589 -0.63476,-0.56795 4.94449,-3.87541 5.14494,-4.47677 0.20046,-0.60136 -4.2429,0.0334 -6.41446,-0.93544 -2.17157,-0.96885 7.03807,-0.80295 7.91786,-3.40769 0.87978,-2.60473 -1.30294,-5.84652 -0.50114,-6.9156 0.80181,-1.06908 8.419,-6.34765 7.51696,-6.78196 -0.90203,-0.43431 -12.99598,5.24516 -13.8312,4.51017 -0.83522,-0.73499 -0.36749,-3.04019 0.40091,-3.4745 0.7684,-0.43432 4.04245,-1.80407 3.27405,-4.209496 -0.7684,-2.405425 -2.23838,-5.412208 -5.7463,-5.3788 -3.50791,0.03341 -4.67721,0.567947 -4.67721,0.334087 0,-0.23386 5.44561,-1.703842 7.48354,-1.00226 2.03793,0.701582 5.44562,5.913337 6.28084,4.57699 0.83521,-1.336347 -5.47903,-5.34539 -5.11153,-6.34765 0.36749,-1.002263 2.27179,-2.071341 1.63702,-2.33861 -0.63476,-0.267269 -2.83973,-2.605876 -0.26727,-4.209494 z"
           style="fill:#deaa87;stroke:none;stroke-width:0.26458332px;stroke-linecap:butt;stroke-linejoin:miter;stroke-opacity:1" />
        <path
           inkscape:connector-curvature="0"
           id="path4666"
           d="m 117.69234,108.38467 c 0,0 -4.67746,-1.5119 -6.94532,-2.50409 -2.26785,-0.99219 -3.9215,-1.98438 -3.77976,-1.6064 0.14174,0.37798 5.66964,4.20499 10.72508,4.11049 z"
           style="fill:#d38d5f;stroke:none;stroke-width:0.26458332px;stroke-linecap:butt;stroke-linejoin:miter;stroke-opacity:1" />
        <path
           inkscape:connector-curvature="0"
           id="path4668"
           d="m 101.29762,65.484374 c 0.25986,-0.02363 0.89769,-1.039434 1.5119,-1.748139 0.61421,-0.708708 1.84264,-2.078871 3.59078,-2.315104 1.74814,-0.236236 0.89769,0.259858 0.37797,0.496094 -0.51972,0.236233 -1.18117,0.09449 -2.03162,0.921316 -0.85045,0.826823 -1.86626,1.937128 -1.70089,2.078868 0.16536,0.141743 0.85044,-0.236236 1.27567,-0.236236 0.42522,0 0.94494,0.330729 0.82682,0.188989 -0.11812,-0.141739 -0.70871,-0.259857 -0.42522,-0.708704 0.28348,-0.448848 0.85044,-1.015813 1.03943,-1.015813 0.18899,0 0.33073,1.677271 1.81901,1.677271 1.48828,0 2.55134,-0.04725 2.62221,-1.063059 0.0709,-1.015809 0.4016,-1.252045 0.85045,-1.086681 0.44884,0.165365 0.61421,1.393788 0.77957,1.393788 0.16537,0 1.25205,-0.496094 0.92132,-0.732329 -0.33073,-0.236236 -1.55915,-0.826823 -2.26786,-1.110306 -0.7087,-0.283482 -1.5119,-0.590587 -1.53552,-0.685083 -0.0236,-0.09449 1.22842,-0.165364 2.12611,0.236236 0.8977,0.401601 1.55915,0.73233 1.53553,0.377976 -0.0236,-0.354351 -1.53553,-1.228421 -2.36235,-1.252045 -0.82682,-0.02363 -3.6144,-0.212612 -4.86645,0.330729 -1.25204,0.54334 -3.16554,2.220611 -3.47265,2.905691 -0.30711,0.685083 -0.35435,1.157552 -0.61421,1.346541 z"
           style="fill:#784421;stroke:none;stroke-width:0.26458332px;stroke-linecap:butt;stroke-linejoin:miter;stroke-opacity:1" />
        <path
           inkscape:connector-curvature="0"
           id="path4670"
           d="m 106.58928,62.649552 c -0.0472,-0.212612 0.4961,-0.921317 1.2993,-0.944941 0.8032,-0.02363 1.34654,0.448847 1.34654,0.590589 0,0.14174 -0.11812,1.441035 -1.13393,1.41741 -1.01581,-0.02363 -1.2048,-0.519718 -1.51191,-1.063058 z"
           style="fill:#2b1100;stroke:none;stroke-width:0.26458332px;stroke-linecap:butt;stroke-linejoin:miter;stroke-opacity:1" />
        <path
           inkscape:connector-curvature="0"
           id="path4672"
           d="m 107.2035,62.62593 c -0.0709,-0.18899 0.61421,-0.73233 0.63783,-0.307108 0.0236,0.425226 -0.44885,0.496094 -0.63783,0.307108 z"
           style="fill:#e3dbdb;stroke:none;stroke-width:0.26458332px;stroke-linecap:butt;stroke-linejoin:miter;stroke-opacity:1" />
        <path
           inkscape:connector-curvature="0"
           id="path4658"
           d="m 99.658124,60.322597 c -0.634765,-0.434314 0.734996,-2.438837 2.372016,-3.307461 1.63703,-0.868627 5.34539,-1.336347 6.81537,-1.469983 1.46999,-0.133636 4.64381,0 5.3454,0.23386 0.70158,0.233863 2.50565,1.737252 2.30519,2.305201 -0.20045,0.567947 -3.30746,-0.367496 -5.4122,-0.300678 -2.10475,0.06682 -6.1472,0.100224 -7.75082,0.367496 -1.60362,0.267269 -3.14042,1.269529 -3.674956,2.171565 z"
           style="fill:#552200;stroke:none;stroke-width:0.26458332px;stroke-linecap:butt;stroke-linejoin:miter;stroke-opacity:1" />
        <path
           inkscape:connector-curvature="0"
           id="path5359"
           d="m 149.00276,63.262559 c 0,0 -2.80633,-4.276312 -3.87541,-7.617179 -1.06908,-3.34087 -2.80633,-3.34087 -3.0736,-5.679477 -0.26727,-2.33861 -0.20045,-5.813113 -1.13589,-7.416731 -0.93545,-1.603616 13.02939,6.414468 8.0849,20.713387 z"
           style="fill:#502d16;fill-opacity:1;stroke:none;stroke-width:0.26458332px;stroke-linecap:butt;stroke-linejoin:miter;stroke-opacity:1" />
        <path
           inkscape:connector-curvature="0"
           id="path5355"
           d="m 150.80683,75.757412 c 0,0 1.46998,0.06681 1.5368,-0.935445 0.0668,-1.00226 0.53454,-1.469983 0.66817,-2.071338 0.13364,-0.601356 0.40091,-2.271792 0.26727,-2.939965 -0.13363,-0.668174 -0.20045,-1.202712 -0.26727,-2.27179 -0.0668,-1.06908 -0.20045,-1.937705 0.33409,-2.138158 0.53454,-0.200451 0.33409,-1.002261 0.53454,-1.069078 0.20045,-0.06682 1.80407,0.801809 1.80407,0.801809 0,0 -1.67044,-1.00226 -2.33861,-2.071339 -0.66817,-1.069078 -1.26953,-1.403164 -1.06908,-2.138156 0.20045,-0.734991 1.26953,-0.734991 1.26953,-0.734991 0,0 -0.33408,-1.135896 -1.13589,-1.469983 -0.80181,-0.334086 -1.46999,-0.868624 -1.60362,-0.06682 -0.13364,0.801809 -0.60136,1.937705 -0.80181,1.403164 -0.20045,-0.534537 -0.33409,-1.603615 -1.20271,-2.204971 -0.86863,-0.601358 -2.20498,-0.801809 -2.33861,-1.135896 -0.13364,-0.334087 -1.06908,-1.202714 -0.66818,-1.336349 0.40091,-0.133634 2.73952,-0.133634 3.14042,-0.668174 0.40091,-0.534538 0.53454,-1.269529 0.53454,-1.269529 0,0 -1.06908,1.737252 -3.20723,1.469983 -2.13816,-0.267272 -1.26953,-4.142679 -2.33861,-4.34313 -1.06908,-0.200454 -1.46998,-0.935445 -1.60362,-2.33861 -0.13363,-1.403165 -0.60135,-3.274052 -0.93544,-3.207234 -0.33409,0.06682 -0.0668,3.207234 0.20045,4.810852 0.26727,1.603616 1.1359,2.405425 1.80407,3.34087 0.66817,0.935443 0.86863,3.207234 1.5368,4.209495 0.66817,1.00226 1.00226,1.403164 1.87089,2.873147 0.86862,1.469983 1.73725,2.338607 1.80407,3.875408 0.0668,1.5368 -0.26727,2.138156 0.53453,3.741774 0.80181,1.603616 1.26954,1.937703 1.33635,3.741772 0.0668,1.804069 0.86863,3.006783 0.33409,4.142679 z"
           style="display:inline;fill:#3e2311;fill-opacity:1;stroke:none;stroke-width:0.26458332px;stroke-linecap:butt;stroke-linejoin:miter;stroke-opacity:1" />
        <path
           inkscape:connector-curvature="0"
           id="path4687"
           d="m 119.48772,19.560267 c 0.37798,-0.09449 2.64583,0.519717 4.15774,0.566964 1.51191,0.04725 4.39397,0.09449 4.96094,-0.566964 0.56696,-0.661458 0.61421,-0.992188 0.61421,-0.992188 0,0 1.37016,0.614212 0.94494,1.039435 -0.42523,0.425223 3.2128,0.236235 3.68527,0.661458 0.47247,0.425224 1.08668,3.02381 1.79538,4.346726 0.70871,1.322917 3.16555,7.181548 3.16555,7.181548 0,0 -2.36235,-5.622396 -3.44903,-5.811384 -1.08668,-0.188988 -0.66146,2.409599 0.56697,3.401787 1.22842,0.992187 1.93712,2.929316 1.93712,2.929316 0,0 -5.00818,-3.590775 -4.6302,-2.787576 0.37797,0.803201 7.18154,8.835194 7.70126,10.441593 0.51972,1.606399 1.13393,5.764136 0.56696,7.323288 -0.56696,1.559153 -1.41741,1.559153 -1.41741,1.559153 0,0 2.45685,-4.913691 0.51972,-7.512278 -1.93713,-2.598586 -5.76413,-4.157739 -5.76413,-4.157739 0,0 3.44903,4.063246 3.68526,7.512278 0.23624,3.449031 -1.84263,5.197173 -1.84263,5.197173 0,0 1.46466,-2.220611 0.8032,-5.669643 -0.66146,-3.449034 -2.88207,-4.819197 -2.88207,-4.819197 0,0 2.64583,3.732514 1.65364,6.709077 -0.99218,2.976562 -2.36235,3.590774 -2.36235,3.590774 0,0 2.4096,-3.401785 1.6064,-6.142112 -0.8032,-2.740329 -3.68526,-6.142114 -3.68526,-6.142114 0,0 3.73251,5.433407 2.92931,7.890253 -0.8032,2.456844 -2.12612,2.787573 -2.12612,2.787573 0,0 2.78758,-2.126114 1.13393,-5.811382 -1.65364,-3.685267 -3.68527,-5.622396 -3.59077,-6.756326 0.0945,-1.133927 -1.74814,-1.464656 -1.74814,-1.464656 0,0 2.59858,2.220611 2.83482,7.134299 0.23624,4.913691 -5.90588,8.693454 -5.90588,8.693454 0,0 5.29167,-5.149927 4.15774,-6.236608 -1.13393,-1.08668 -4.58296,5.905879 -5.62239,6.898066 -1.03944,0.992188 -1.84264,0.708705 -1.84264,0.708705 0,0 1.98438,-0.755951 3.68527,-4.346726 1.70089,-3.590774 0.89769,-5.24442 0.89769,-5.24442 0,0 -0.66146,6.378348 -3.26004,8.07924 -2.59859,1.700893 -3.07106,0.897695 -3.07106,0.897695 0,0 3.68527,-0.425223 4.67746,-4.724702 0.99218,-4.299479 0.56696,-5.575149 0.56696,-5.575149 0,0 0.14174,6.756323 -2.92931,8.504465 -3.07106,1.748139 -3.73252,1.511903 -3.73252,1.511903 0,0 4.96094,-1.511903 5.33892,-6.142112 0.37797,-4.630208 -0.42523,-4.819197 -0.42523,-4.819197 0,0 0.75595,6.945312 -3.1183,9.165923 -3.87426,2.220608 -4.25223,1.653646 -4.25223,1.653646 0,0 5.10268,-1.748142 5.90587,-5.575149 0.8032,-3.82701 -0.0945,-5.24442 -0.0945,-5.24442 0,0 0.85045,7.087052 -3.40179,8.929687 -4.25223,1.842635 -4.86644,1.27567 -4.86644,1.27567 0,0 7.03981,-1.08668 7.46503,-6.094867 0.42522,-5.008184 -0.47247,-4.346726 -0.47247,-4.346726 0,0 1.65365,7.417784 -4.016,9.07143 -5.66964,1.653646 -5.5279,0.614212 -5.5279,0.614212 0,0 6.47284,0.708705 7.79576,-4.063246 1.32292,-4.771948 0.0945,-6.945313 0.0945,-6.945313 0,0 1.55916,6.756326 -2.3151,8.646205 -3.87426,1.889882 -6.94531,2.456847 -6.94531,2.456847 0,0 7.37053,-1.889882 8.03199,-5.008184 0.66146,-3.118305 0,-6.992559 -1.08668,-7.79576 -1.08668,-0.803198 2.26786,6.283854 -1.32292,9.024181 -3.59077,2.740329 -6.89806,3.165551 -8.83519,3.496281 -1.93713,0.330729 -2.4096,-0.283483 -2.4096,-0.283483 0,0 6.47284,0.566965 9.49665,-3.685267 3.02381,-4.252233 0.94494,-5.716889 0.94494,-5.716889 0,0 0.18899,6.142111 -4.25223,7.654017 -4.44122,1.511903 -6.18936,0.566965 -6.56733,1.181174 -0.37798,0.614212 1.13392,2.362353 0.0945,4.063246 -1.03943,1.700892 -4.535715,2.078868 -5.102678,3.023809 -0.566965,0.944941 -0.755954,1.795386 -0.755954,1.795386 0,0 0,-0.944941 -0.04725,-1.55915 -0.04725,-0.614212 -1.511903,0.472469 -1.370163,1.322916 0.14174,0.850445 0.897694,2.267855 0.377976,5.149925 -0.519716,2.882069 -1.039434,2.929315 -1.039434,2.929315 0,0 1.511906,-3.496281 0.425222,-5.858631 -1.086681,-2.362351 -1.653646,2.031621 -1.27567,3.071058 0.377979,1.039434 0.330729,1.511903 0.330729,1.511903 0,0 -0.566962,-2.267857 -1.181174,-1.653645 -0.614211,0.614211 0.708705,2.598586 0.614212,3.874256 -0.0945,1.27567 -0.614212,1.700893 -0.614212,1.700893 0,0 -0.236236,-1.370164 -0.708705,-1.464657 -0.472472,-0.0945 -0.992187,5.102677 -0.755954,6.66183 0.236236,1.55915 1.039437,4.063243 1.039437,4.677455 0,0.614212 -0.992193,0.519716 -0.992193,0.519716 0,0 -2.834817,-4.724702 -3.449029,-4.913689 -0.614212,-0.188989 -1.228423,0.519716 -1.133927,1.653646 0.09449,1.133928 -1.653646,3.874254 -1.653646,3.874254 0,0 -1.889882,-1.464656 -1.889882,-2.882066 0,-1.417413 1.842633,-7.276042 1.700893,-8.646208 -0.14174,-1.370163 -1.322917,-1.842632 -1.27567,-3.307291 0.04725,-1.464657 0.755951,-2.551338 0.755951,-2.551338 0,0 0.708708,2.504091 1.559153,2.645834 0.850447,0.141739 -2.126115,-5.43341 -1.795386,-7.512278 0.330729,-2.078868 0.944941,-3.071056 0.944941,-3.071056 0,0 -0.755954,5.5279 0.992187,6.520088 1.748139,0.992187 1.322917,-7.795758 1.795386,-8.504463 0.472472,-0.708705 -2.173364,1.322917 -2.126115,0.188987 0.04725,-1.133927 1.700893,-2.220608 1.842633,-4.346726 0.141742,-2.126115 1.181176,-5.433406 0.897694,-6.189361 -0.283483,-0.755951 -1.039434,4.677458 -1.842635,6.472844 -0.803199,1.795385 -2.976563,3.449031 -2.976563,3.449031 0,0 2.55134,-4.535712 2.220611,-6.945312 -0.330729,-2.409598 1.653646,-5.149924 1.653646,-5.149924 0,0 -3.023809,3.638021 -3.071056,5.905878 -0.04725,2.267858 -0.377976,4.204983 -1.13393,4.771948 -0.755952,0.566965 -0.661458,-0.04725 -0.661458,-0.04725 0,0 0.614211,0 0.755954,-3.071056 0.14174,-3.071058 -0.614212,-3.543528 0.472469,-5.811385 1.086681,-2.267858 4.015997,-6.52009 5.10268,-8.220982 1.086681,-1.700893 6.614583,-5.291667 7.134299,-5.338914 0.519718,-0.04725 1.322917,0.803201 2.929321,0.283483 1.6064,-0.519718 2.83482,-0.708706 2.83482,-0.708706 0,0 -3.02381,4.677456 -2.50409,5.57515 0.51972,0.897692 1.79538,-3.401788 2.26785,-3.449034 0.47247,-0.04725 0.37798,2.031621 0.8032,1.700892 0.42523,-0.330729 0.56697,-2.126115 1.32292,-1.795386 0.75595,0.33073 1.70089,3.496281 2.36235,2.173365 0.66146,-1.322917 -2.97656,-4.063246 -2.45684,-4.346728 0.51971,-0.283482 1.79538,1.322916 2.97656,0.661458 1.18118,-0.661458 2.36235,-2.031622 2.50409,-1.511904 0.14174,0.519717 0.0473,3.307292 0.70871,3.96875 0.66146,0.661459 1.84263,-0.614211 1.84263,-0.614211 0,0 0.0945,0.566965 1.08668,1.511905 0.99219,0.944939 1.37017,2.69308 1.37017,2.69308 0,0 -0.94494,-4.204985 -0.0472,-5.008184 0.89769,-0.803201 5.43341,0.188987 6.85082,1.275668 1.41741,1.086683 2.26785,3.165551 2.26785,3.165551 0,0 0.47248,-2.267857 -2.40959,-4.488468 -2.88207,-2.220609 -1.51191,-5.575148 -1.51191,-5.575148 0,0 5.14993,2.834822 6.89807,3.449033 1.74813,0.614211 3.21279,1.937128 3.21279,1.937128 0,0 -4.48846,-2.031622 -3.77976,-1.228423 0.70871,0.803201 6.56734,2.409598 6.56734,2.409598 0,0 -3.40179,-2.834821 -6.14211,-3.779761 -2.74033,-0.944941 -6.23661,-5.197173 -8.36273,-5.291667 z"
           style="fill:#784421;stroke:none;stroke-width:0.26458332px;stroke-linecap:butt;stroke-linejoin:miter;stroke-opacity:1" />
        <path
           inkscape:connector-curvature="0"
           id="path4636"
           d="m 132.2316,89.120886 c 0.93544,0.668174 2.80633,7.617182 4.07586,7.082645 1.26953,-0.534541 3.67495,-4.610402 3.60814,-6.548104 -0.0668,-1.937706 -1.80407,-4.944486 -1.5368,-6.080382 0.26726,-1.135896 2.13815,-2.33861 2.00452,-4.209494 -0.13364,-1.870888 -1.60362,-4.476766 0,-6.080384 1.60361,-1.603616 4.20949,-5.61266 3.94222,-6.548102 -0.26727,-0.935445 -1.40316,-2.405427 -1.87088,-2.33861 -0.46773,0.06682 -1.06908,1.403165 -2.27179,2.071339 -1.20272,0.668176 -3.40769,0.267271 -3.0736,0.133635 0.33408,-0.133635 3.34086,0.334087 2.80633,-0.801809 -0.53454,-1.135893 -3.20724,0.267272 -5.21176,0.200454 -2.00452,-0.06682 -1.9377,-0.400905 -1.40317,-0.534541 0.53455,-0.133633 5.94675,0.06682 5.21176,-0.801806 -0.73499,-0.868627 -0.60136,-2.004523 -2.07134,-2.004523 -1.46998,0 -4.40994,0.935445 -5.61266,0.467722 -1.20271,-0.467722 -1.13589,-0.801809 -2.07134,-0.601358 -0.93544,0.200454 -2.60587,0.33409 -2.60587,0.868627 0,0.534541 0.0668,1.603619 1.20271,1.80407 1.13589,0.200451 -0.73499,2.138156 -0.33409,3.875407 0.40091,1.737252 5.61266,9.354434 7.14946,11.960312 1.5368,2.605879 3.20724,7.015824 2.73951,7.750816 -0.46772,0.734991 -0.86862,-4.81085 -3.4745,-7.015824 -2.60588,-2.204974 -2.27179,3.274052 -1.5368,3.942225 0.73499,0.668174 2.60588,3.073599 1.73725,3.34087 -0.86862,0.267269 -1.5368,-0.334089 -1.40316,0.06682 z"
           style="display:inline;fill:#deaa87;stroke:none;stroke-width:0.26458332px;stroke-linecap:butt;stroke-linejoin:miter;stroke-opacity:1" />
        <path
           inkscape:connector-curvature="0"
           id="path4640"
           d="m 114.52678,63.405506 c 0.66146,-0.330729 1.37017,7.512275 -2.74032,10.441591 -4.11049,2.929315 -4.67746,0.8032 -6.37835,-0.377976 -1.70089,-1.181177 -3.2128,-0.803199 -3.26005,-1.181177 -0.0472,-0.377976 6.37835,-1.086681 9.11868,-3.779761 2.74033,-2.69308 2.83482,-5.008184 3.26004,-5.102677 z"
           style="display:inline;fill:#e4b89b;fill-opacity:1;stroke:none;stroke-width:0.26458332px;stroke-linecap:butt;stroke-linejoin:miter;stroke-opacity:1" />
        <path
           inkscape:connector-curvature="0"
           id="path4642"
           d="m 118.96801,73.138392 c 0.80319,-0.236236 0.75595,-2.598587 -0.14175,-2.220611 -0.89769,0.377976 -0.28348,2.267857 0.14175,2.220611 z"
           style="display:inline;fill:#e9c6af;stroke:none;stroke-width:0.26458332px;stroke-linecap:butt;stroke-linejoin:miter;stroke-opacity:1" />
        <path
           inkscape:connector-curvature="0"
           id="path4644"
           d="m 122.22805,77.248881 c 0.14174,-0.850444 1.98438,-2.740326 3.35454,-1.889879 1.37016,0.850445 -0.0945,2.126115 -0.85045,2.031622 -0.75595,-0.09449 -1.27567,-1.511906 -2.50409,-0.141743 z"
           style="display:inline;fill:#28170b;stroke:none;stroke-width:0.26458332px;stroke-linecap:butt;stroke-linejoin:miter;stroke-opacity:1" />
        <path
           inkscape:connector-curvature="0"
           id="path4646"
           d="m 119.10975,76.965402 c -0.56697,-0.33073 -1.32292,-1.795389 -2.03163,-1.653646 -0.7087,0.14174 -1.37016,2.409597 -0.75595,2.551337 0.61421,0.141743 1.84263,-1.511903 2.78758,-0.897691 z"
           style="display:inline;fill:#28170b;stroke:none;stroke-width:0.26458332px;stroke-linecap:butt;stroke-linejoin:miter;stroke-opacity:1" />
        <path
           inkscape:connector-curvature="0"
           id="path4648"
           d="m 127.75595,59.814732 c 0,-0.566965 1.93713,-3.638021 6.47284,-3.496281 4.53572,0.141742 5.71689,5.10268 5.14993,5.149927 -0.56697,0.04725 -2.36235,-2.69308 -4.77195,-2.787576 -2.4096,-0.09449 -4.67746,-0.614212 -6.85082,1.13393 z"
           style="display:inline;fill:#deaa87;stroke:none;stroke-width:0.26458332px;stroke-linecap:butt;stroke-linejoin:miter;stroke-opacity:1" />
        <path
           inkscape:connector-curvature="0"
           id="path4650"
           d="m 125.72433,70.256322 c 0,0.519719 -0.56696,1.559153 0.18899,1.984375 0.75595,0.425225 2.64583,0.992188 2.78757,2.267858 0.14174,1.27567 -0.37797,3.118305 -2.03162,3.071056 -1.65365,-0.04725 -4.016,0.897694 -3.44903,0.94494 0.56696,0.04725 2.4096,2.645834 4.15773,1.559153 1.74815,-1.086681 2.78758,-2.976562 1.98438,-4.960937 -0.8032,-1.984375 -2.4096,-2.69308 -2.97656,-3.02381 -0.56697,-0.330729 -0.33073,-1.700892 -0.66146,-1.842635 z"
           style="display:inline;fill:#784421;stroke:none;stroke-width:0.26458332px;stroke-linecap:butt;stroke-linejoin:miter;stroke-opacity:1" />
        <path
           inkscape:connector-curvature="0"
           id="path4652"
           d="m 109.47135,80.508926 c 0.42523,0.04725 4.15774,-5.338913 3.87426,-5.811382 -0.28348,-0.472472 -2.88207,5.055431 -3.87426,5.811382 z"
           style="display:inline;fill:none;stroke:none;stroke-width:0.26458332px;stroke-linecap:butt;stroke-linejoin:miter;stroke-opacity:1" />
        <path
           inkscape:connector-curvature="0"
           id="path4656"
           d="m 111.99907,89.556732 c 0.37797,-0.496094 3.47265,-3.401785 5.2208,-3.921504 1.74814,-0.519715 2.10249,-0.425222 2.74032,-0.212611 0.63784,0.212611 1.34654,0.566965 1.88988,0.543341 0.54334,-0.02363 1.44104,-0.921317 2.14974,-1.110306 0.70871,-0.188986 3.47266,0.212614 4.74833,0.944941 1.27567,0.73233 2.8112,2.078871 2.69308,2.173364 -0.11812,0.09449 -3.54353,0.803198 -4.89007,1.01581 -1.34654,0.212614 -3.5199,0.0945 -5.0318,0.0945 -1.51191,0 -4.25224,-0.307108 -6.21299,-0.141743 -1.96075,0.165365 -3.04743,0.685083 -3.30729,0.614212 z"
           style="display:inline;fill:#be7443;fill-opacity:1;stroke:none;stroke-width:0.26458332px;stroke-linecap:butt;stroke-linejoin:miter;stroke-opacity:1" />
        <path
           inkscape:connector-curvature="0"
           id="path4654"
           d="m 110.08556,90.336308 c -0.14174,-0.330729 2.17337,-1.984375 3.11831,-2.267857 0.94494,-0.283483 5.66964,-1.511904 6.42559,-1.464657 0.75596,0.04725 1.7009,0.330729 2.36235,0.283482 0.66146,-0.04725 3.02381,-0.8032 3.92151,-0.8032 0.89769,0 2.83482,0.897694 3.68527,1.039434 0.85044,0.141742 2.6222,0.165364 2.88206,0.425225 0.25986,0.259858 0.8032,0.944938 -0.63783,0.54334 -1.44104,-0.4016 -3.07106,-0.897694 -3.68527,-0.921319 -0.61421,-0.02363 -2.24423,-0.448844 -3.2128,-0.330729 -0.96856,0.118118 -2.43322,0.543343 -3.30729,0.519719 -0.87407,-0.02363 -1.70089,-0.448848 -2.92931,-0.118118 -1.22843,0.330729 -5.40979,1.322916 -6.37835,1.937128 -0.96857,0.614212 -2.1025,1.346541 -2.24424,1.157552 z"
           style="display:inline;fill:#784421;stroke:none;stroke-width:0.26458332px;stroke-linecap:butt;stroke-linejoin:miter;stroke-opacity:1" />
        <path
           sodipodi:nodetypes="scscssss"
           inkscape:connector-curvature="0"
           id="path4660"
           d="m 125.04873,57.616491 c -0.18375,-0.200452 0.46772,-2.873147 1.60362,-3.173825 1.13589,-0.300678 4.10926,-1.035669 6.64832,-1.069078 2.53907,-0.03341 5.77971,1.703843 6.81538,2.338607 1.03567,0.634767 2.00452,2.873148 1.50339,2.873148 -0.50113,0 -2.40543,-2.639289 -6.34765,-2.873148 -1.76843,-0.104907 -4.30457,-0.05965 -6.21194,0.409346 -2.34458,0.576501 -3.9098,1.605482 -4.01112,1.49495 z"
           style="display:inline;fill:#552200;stroke:none;stroke-width:0.26458332px;stroke-linecap:butt;stroke-linejoin:miter;stroke-opacity:1" />
        <path
           inkscape:connector-curvature="0"
           id="path4680"
           d="m 97.423363,100.30543 c 0,0 0.803198,-1.086681 0.803198,-1.653646 0,-0.566965 -0.566965,-3.212799 -1.228423,-5.480653 -0.661458,-2.267858 -2.031624,-6.52009 -2.031624,-6.52009 0,0 -1.133925,1.181174 -2.504088,1.748139 -1.370164,0.566965 -1.322917,0.897694 -1.322917,0.897694 0,0 1.795386,-1.086681 1.984375,0.04725 0.188986,1.133927 -0.0945,2.031621 0.188986,2.409597 0.283483,0.377976 3.354539,1.27567 3.496281,2.267857 0.14174,0.992188 2.031622,5.10268 0.614212,6.283852 z"
           style="display:inline;fill:#502d16;stroke:none;stroke-width:0.26458332px;stroke-linecap:butt;stroke-linejoin:miter;stroke-opacity:1" />
      </g>
      <g
         style="display:inline"
         inkscape:label="Clothing"
         id="layer4-8">
        <path
           inkscape:connector-curvature="0"
           id="path4690"
           d="m 125.11012,165.93155 c 0,0 -0.85045,-9.16593 -2.07887,-13.70164 -1.22842,-4.53571 -0.28348,-5.19717 -1.5119,-7.18155 -1.22843,-1.98438 -7.55953,-8.12649 -9.92188,-11.90625 -2.36235,-3.77976 -3.87426,-6.52009 -5.95313,-7.08705 -2.07887,-0.56697 -4.7247,-0.47247 -5.764133,-1.98438 -1.039434,-1.5119 -1.133927,-6.61458 -0.472469,-9.92187 0.661462,-3.30729 -0.0945,-13.51265 -0.0945,-13.51265 0,0 -9.449403,15.02455 -10.110861,17.67039 -0.661459,2.64583 -5.10268,11.71726 -5.953125,12.85118 -0.850448,1.13394 -2.929316,2.74033 -2.173365,3.49629 0.755952,0.75595 6.803573,-4.63021 8.031994,-5.66965 1.228423,-1.03943 6.992561,-4.15774 6.992561,-4.15774 0,0 0.566963,23.15105 4.819198,35.90774 4.25223,12.7567 16.34747,48.28646 18.23735,54.14509 1.88988,5.85863 -1.98437,49.70387 -1.98437,49.70387 h 28.63169 c 0,0 11.1503,-73.42187 12.28423,-78.71354 1.13393,-5.29167 1.70089,-16.63095 2.17336,-21.73363 0.47247,-5.10268 1.13393,-20.78869 0.47247,-24.75744 -0.66146,-3.96875 -1.41741,-8.50446 -1.41741,-8.50446 0,0 1.7009,0.66145 2.83482,1.79538 1.13393,1.13393 2.83483,2.64583 2.64584,1.88988 -0.18899,-0.75595 -2.83482,-6.70908 -3.02381,-8.31547 -0.18899,-1.6064 -1.6064,-4.53572 -1.98438,-5.10268 -0.37797,-0.56697 -1.22842,-1.51191 -2.36235,-3.11831 -1.13393,-1.60639 -4.7247,-11.81175 -5.76413,-14.55208 -1.03944,-2.74033 -3.3073,-7.27604 -3.59078,-6.614582 -0.28348,0.661458 -0.85045,10.016372 -0.66146,12.378722 0.18899,2.36235 0.37798,4.44122 0.37798,4.44122 0,0 -1.13393,6.61458 -4.15774,9.16592 -3.02381,2.55134 -7.65402,3.2128 -8.78794,3.77976 -1.13394,0.56696 -3.59078,1.32292 -4.15774,3.96875 -0.56697,2.64584 -1.79539,14.83557 -2.36235,19.18229 -0.56697,4.34673 -3.2128,16.15849 -3.2128,16.15849 z"
           style="fill:#f2f2f2;stroke:none;stroke-width:0.26458332px;stroke-linecap:butt;stroke-linejoin:miter;stroke-opacity:1" />
        <path
           inkscape:connector-curvature="0"
           id="path4692"
           d="m 96.667409,134.74851 c 0,-0.66146 1.228423,-4.8192 1.984375,-4.06324 0.755954,0.75595 2.173366,4.53571 3.307296,5.00818 1.13393,0.47247 -1.32292,-6.80357 -1.79539,-8.31548 -0.472472,-1.5119 -0.566965,-2.64583 -1.41741,-3.1183 -0.850448,-0.47247 -2.645839,0.56696 -2.645839,0.56696 z"
           style="fill:#cccccc;stroke:none;stroke-width:0.26458332px;stroke-linecap:butt;stroke-linejoin:miter;stroke-opacity:1" />
        <path
           inkscape:connector-curvature="0"
           id="path4694"
           d="m 131.25223,131.25223 c 0,0 0.66146,-2.07887 2.17337,-2.92931 1.5119,-0.85045 5.48065,-2.07887 7.65401,-2.74033 2.17336,-0.66146 3.68527,-1.51191 5.10268,-1.41741 1.41741,0.0945 5.29167,2.26785 7.08705,3.40178 1.79539,1.13393 6.04762,3.3073 6.04762,3.3073 0,0 -4.25223,-1.22843 -5.48065,0.18898 -1.22842,1.41741 -3.30729,5.38616 -4.34673,6.52009 -1.03943,1.13393 1.22842,-3.49628 -0.18899,-3.59077 -1.41741,-0.0945 -6.04762,1.32291 -6.99256,1.32291 -0.94494,0 -0.18898,-1.6064 -1.32291,-2.36235 -1.13393,-0.75595 -6.89807,0.18899 -9.73289,-1.70089 z"
           style="fill:#cccccc;stroke:none;stroke-width:0.26458332px;stroke-linecap:butt;stroke-linejoin:miter;stroke-opacity:1" />
        <path
           inkscape:connector-curvature="0"
           id="path4696"
           d="m 145.89881,122.55878 c 0.94494,-2.17336 3.2128,-10.29985 4.06324,-13.89063 0.85045,-3.59077 0.66146,-5.66964 0.0945,-7.27604 -0.56697,-1.606396 -2.36235,-3.874254 -1.6064,-3.77976 0.75595,0.09449 3.59077,7.18155 5.10267,12.7567 1.51191,5.57514 4.63021,9.63839 5.66965,11.24479 1.03943,1.6064 2.07887,4.7247 2.45684,6.61458 0.37798,1.88988 2.92932,5.29167 2.07887,4.8192 -0.85044,-0.47247 -7.46503,-5.29167 -9.4494,-6.4256 -1.98438,-1.13393 -8.032,-3.40178 -8.40997,-4.06324 z"
           style="fill:#e6e6e6;stroke:none;stroke-width:0.26458332px;stroke-linecap:butt;stroke-linejoin:miter;stroke-opacity:1" />
        <path
           inkscape:connector-curvature="0"
           id="path4700"
           d="m 61.071087,128.67678 c -1.870887,0.26727 -7.349913,3.0736 -7.884451,4.54358 -0.53454,1.46998 -2.672696,4.54358 -4.276312,5.87993 -1.603618,1.33635 -2.806332,4.27631 -4.543584,4.81085 -1.737251,0.53454 -3.073598,2.27179 -3.608138,4.54358 -0.534538,2.27179 -5.078122,15.90254 -5.612659,19.37704 -0.534541,3.47451 -13.363477,46.9058 -15.100729,55.85933 -1.737252,8.95353 -3.207234,13.49711 -2.405425,15.23437 0.801808,1.73725 2.138156,3.8754 2.138156,6.5481 0,2.67269 -1.202713,7.21628 -1.603617,9.08716 -0.400905,1.87089 0.400904,10.02261 0.400904,10.02261 h 43.164029 z"
           style="fill:#f9f9f9;stroke:none;stroke-width:0.26458332px;stroke-linecap:butt;stroke-linejoin:miter;stroke-opacity:1" />
        <path
           inkscape:connector-curvature="0"
           id="path4698"
           d="m 91.406177,113.84332 c 0,0 -4.142676,1.33635 -8.68626,3.0736 -4.543581,1.73725 -10.824416,5.07812 -14.432552,6.01356 -3.608139,0.93544 -6.548104,0.80181 -6.815373,1.73725 -0.267272,0.93545 -0.935445,3.87541 -1.202714,8.68626 -0.267269,4.81086 0,36.74956 -0.53454,40.49134 -0.534538,3.74177 -2.672694,27.79603 -2.004521,33.94323 0.668174,6.14719 3.34087,21.64883 3.34087,26.19241 0,4.54358 -2.672696,22.317 -2.405427,26.45968 0.267271,4.14268 0.801809,4.14268 0.801809,4.14268 l 57.705151,-10e-6 c 0,0 3.76684,-42.49584 2.69776,-47.57396 -1.06908,-5.07813 -19.51067,-55.45843 -21.11429,-63.74379 -1.603618,-8.28535 -2.655652,-28.43894 -2.655652,-28.43894 0,0 -5.763339,3.04834 -9.772382,6.52284 -4.009044,3.47451 -5.211755,3.87541 -5.211755,2.93997 0,-0.93545 4.009044,-5.47903 5.746295,-9.35444 1.737252,-3.87541 4.543581,-11.09168 4.543581,-11.09168 z"
           style="fill:#4d4d4d;stroke:none;stroke-width:0.26458332px;stroke-linecap:butt;stroke-linejoin:miter;stroke-opacity:1" />
        <path
           inkscape:connector-curvature="0"
           id="path4702"
           d="m 41.025873,264.58333 c 0,0 3.197341,-2.26786 4.567505,-2.3151 1.370163,-0.0473 9.638392,0.75595 10.016368,-0.28349 0.377976,-1.03943 0.566965,-1.6064 -1.842632,-2.3151 -2.409601,-0.70871 -9.827382,-0.99219 -10.252604,-1.79539 -0.425226,-0.8032 -1.842636,-3.16555 -0.519719,-3.54352 1.322917,-0.37798 8.173736,1.32291 8.220983,0.0945 0.04725,-1.22842 -0.377976,-1.6064 -4.252233,-3.68527 -3.874257,-2.07887 -6.331101,-2.45684 -5.811385,-3.68527 0.519718,-1.22842 1.228423,-2.03162 5.10268,-1.32291 3.874257,0.7087 9.780132,3.2128 9.780132,2.3151 0,-0.89769 -0.188986,-2.74032 -2.173361,-2.83482 -1.984375,-0.0945 -5.527903,0.0472 -8.976934,-1.32292 -3.449034,-1.37016 -8.929688,-4.06324 -7.890253,-5.00818 1.039434,-0.94494 12.236979,1.84263 15.638763,1.37016 3.401785,-0.47247 7.465031,-0.56696 6.709077,-3.26004 -0.755952,-2.69308 -1.511903,-5.5279 -5.149924,-12.14249 -3.638021,-6.61458 -12.047992,-24.42671 -11.339285,-24.42671 0.708705,0 13.843376,29.38765 15.308035,29.24591 1.464657,-0.14174 -1.464659,-22.82031 -2.504093,-26.31659 -1.039435,-3.49628 -2.645834,-8.50447 -1.842633,-8.55171 0.803198,-0.0472 2.598587,-3.77976 3.118303,-2.69308 0.519718,1.08668 0.755951,3.54352 0.850447,5.81138 0.09449,2.26786 0.425223,18.42634 1.41741,22.34784 0.992188,3.92151 1.889882,10.39435 1.937128,13.08743 0.04725,2.69308 -0.94494,11.29204 -1.27567,12.04799 -0.330729,0.75595 -2.315104,0.7087 -2.173364,1.84263 0.141743,1.13393 1.417413,1.93713 1.370166,2.88207 -0.04725,0.94494 -0.519718,9.87463 -0.330729,10.86682 0.188987,0.99218 0.850445,3.59077 0.850445,3.59077 z"
           style="fill:#b3b3b3;stroke:none;stroke-width:0.26458332px;stroke-linecap:butt;stroke-linejoin:miter;stroke-opacity:1" />
        <path
           inkscape:connector-curvature="0"
           id="path4704"
           d="m 58.350073,260.99256 c 0,0 -2.83482,-2.22061 -3.827008,-4.44122 -0.992187,-2.22061 -5.669642,-5.19718 -5.905878,-5.57515 -0.236236,-0.37798 6.142114,-2.4096 7.701264,-1.98438 1.559152,0.42523 2.315104,0.8977 2.55134,1.88988 0.236236,0.99219 -0.944941,9.11868 -0.519718,10.11087 z"
           style="fill:#808080;stroke:none;stroke-width:0.26458332px;stroke-linecap:butt;stroke-linejoin:miter;stroke-opacity:1" />
        <path
           inkscape:connector-curvature="0"
           id="path4706"
           d="m 194.43858,126.13772 c 0,0 4.27631,3.0736 5.54584,5.27857 1.26953,2.20497 2.00452,3.60814 3.87541,5.0113 1.87089,1.40317 3.74177,3.80859 6.28083,8.48581 2.53906,4.67722 2.07134,8.15172 3.94223,12.62849 1.87089,4.47676 7.95127,20.84702 9.82216,23.58653 1.87088,2.73951 6.41446,15.30118 9.6217,19.51068 3.20723,4.20949 2.07134,10.89123 2.07134,10.89123 l -37.75183,-20.91384 c 0,0 -2.13815,-45.43582 -1.87088,-49.04396 0.26727,-3.60814 -0.86863,-14.36574 -1.5368,-15.43481 z"
           style="fill:#ececec;stroke:none;stroke-width:0.26458332px;stroke-linecap:butt;stroke-linejoin:miter;stroke-opacity:1" />
        <path
           inkscape:connector-curvature="0"
           id="path4708"
           d="m 203.25847,136.56123 c 0.46773,0.33408 6.61492,10.0226 6.68174,11.49259 0.0668,1.46998 -0.80181,8.21854 -2.27179,9.88897 -1.46998,1.67043 -5.07812,0.33409 -4.27631,-1.46998 0.80181,-1.80407 3.94222,-6.68174 4.00904,-9.15398 0.0668,-2.47225 -5.14494,-10.42352 -4.14268,-10.7576 z"
           style="fill:#b3b3b3;stroke:none;stroke-width:0.26458332px;stroke-linecap:butt;stroke-linejoin:miter;stroke-opacity:1" />
        <path
           inkscape:connector-curvature="0"
           id="path4710"
           d="m 213.41472,157.40825 c 0.53453,0 4.14267,8.68626 4.14267,10.42351 0,1.73725 -0.66817,1.60362 -0.4009,4.40995 0.26727,2.80633 1.13589,7.14946 0.46772,9.55489 -0.66817,2.40542 -8.21854,-7.95127 -6.5481,-10.89124 1.67043,-2.93996 2.27179,-13.16302 2.33861,-13.49711 z"
           style="fill:#b3b3b3;stroke:none;stroke-width:0.26458332px;stroke-linecap:butt;stroke-linejoin:miter;stroke-opacity:1" />
        <path
           inkscape:connector-curvature="0"
           id="path4712"
           d="m 154.01406,109.63382 c 0.20046,-0.33408 10.42351,4.2095 12.42804,4.40995 2.00452,0.20045 14.90027,4.2095 19.44386,7.2831 4.54358,3.07359 8.55262,4.81085 8.55262,4.81085 0,0 2.80633,15.90253 1.9377,30.13464 -0.86862,14.2321 1.46998,34.34413 1.46998,34.34413 l -41.49359,4.6104 c 0,0 3.27405,-12.42803 3.34087,-23.78699 0.0668,-11.35896 0.86863,-25.12333 0.73499,-28.19694 -0.13363,-3.07359 -1.11157,-12.3687 -1.11157,-12.3687 0,0 2.24747,1.27702 3.71745,2.61337 1.46998,1.33635 2.00452,1.33635 1.46998,-0.0668 -0.53454,-1.40316 -2.93996,-7.55036 -3.60814,-9.75534 -0.66817,-2.20497 -3.20723,-5.34539 -3.94222,-6.74855 -0.73499,-1.40317 -2.93997,-7.2831 -2.93997,-7.2831 z"
           style="fill:#4d4d4d;stroke:none;stroke-width:0.26458332px;stroke-linecap:butt;stroke-linejoin:miter;stroke-opacity:1" />
        <path
           inkscape:connector-curvature="0"
           id="path4714"
           d="m 121.51934,264.58333 c 0,0 -3.96875,-18.33184 3.2128,-37.41964 7.18155,-19.0878 25.70238,-32.50595 38.55357,-37.41964 12.85119,-4.91369 30.21742,-6.07657 30.21742,-6.07657 0,0 -6.28083,3.87541 -12.96256,4.87767 -6.68174,1.00226 -18.57524,6.08038 -30.80282,15.23436 -12.22758,9.15398 -19.10977,16.30344 -23.65335,32.13916 -4.54358,15.83572 -3.20724,28.66466 -3.20724,28.66466 z"
           style="fill:#28170b;stroke:none;stroke-width:0.26458332px;stroke-linecap:butt;stroke-linejoin:miter;stroke-opacity:1" />
        <path
           inkscape:connector-curvature="0"
           id="path4716"
           d="m 122.87716,264.58332 c 0,0 -2.20497,-26.32604 9.28762,-43.29765 11.49259,-16.97162 38.68726,-33.54233 56.1266,-34.27732 17.43934,-0.73499 39.28862,7.21628 52.51846,23.98744 13.22984,16.77116 14.9671,30.13464 15.70209,38.75408 0.73499,8.61944 -0.46773,14.83346 -0.46773,14.83346 z"
           style="fill:#ffe6d5;stroke:none;stroke-width:0.26458332px;stroke-linecap:butt;stroke-linejoin:miter;stroke-opacity:1" />
        <path
           inkscape:connector-curvature="0"
           id="path4718"
           d="m 176.89286,186.90922 c 0,0 -5.48066,-107.534221 -6.4256,-110.936006 -0.94494,-3.401787 -7.18155,-15.497024 -5.29167,-18.709822 1.88988,-3.212799 5.85863,-3.590774 5.85863,-5.480656 0,-1.889879 -2.26785,-51.782741 -2.26785,-51.782741 h 13.98512 l 13.79613,186.342265 c 0,0 -16.44197,2.07887 -19.65476,0.56696 z"
           style="fill:#502d16;stroke:none;stroke-width:0.26458332px;stroke-linecap:butt;stroke-linejoin:miter;stroke-opacity:1" />
        <path
           inkscape:connector-curvature="0"
           id="path4720"
           d="m 175.66289,165.62679 c 0,0 -5.14493,-1.20272 -6.14719,-2.87315 -1.00226,-1.67043 -2.93997,-4.07586 -2.47225,-5.34539 0.46772,-1.26953 2.40543,-3.14042 4.6104,-2.6727 2.20498,0.46773 3.60814,1.33635 3.60814,1.33635 z"
           style="fill:#d38d5f;fill-opacity:1;stroke:none;stroke-width:0.26458332px;stroke-linecap:butt;stroke-linejoin:miter;stroke-opacity:1" />
        <path
           sodipodi:nodetypes="cccccccc"
           inkscape:connector-curvature="0"
           id="path4732"
           d="m 172.52248,163.7559 c 0.66817,-0.93544 2.40542,-2.87315 1.80407,-3.60814 -0.60136,-0.73499 0.4009,0.60136 0.26727,-0.80181 -0.13364,-1.40316 0.29019,-2.99057 0.29019,-2.99057 0,0 -2.56199,-1.82028 -4.43287,-1.1521 -1.87089,0.66817 -3.40769,2.00452 -3.14042,3.0736 0.26727,1.06907 2.00452,3.27405 2.53906,4.14267 0.53454,0.86863 1.87089,1.5368 2.6727,1.33635 z"
           style="fill:#deaa87;stroke:none;stroke-width:0.26458332px;stroke-linecap:butt;stroke-linejoin:miter;stroke-opacity:1" />
        <path
           inkscape:connector-curvature="0"
           id="path4746"
           d="m 173.94465,257.30729 c 0.0945,-0.47247 0.37798,-1.41741 1.51191,-1.70089 1.13392,-0.28349 5.66964,-0.66146 6.04761,-0.0945 0.37798,0.56697 0.75596,1.22842 1.22843,1.13393 0.47247,-0.0945 17.57589,0 17.85937,-0.47247 0.28349,-0.47247 -0.66146,-1.03944 0,-1.13393 0.66146,-0.0945 6.04762,-0.37797 6.4256,0 0.37797,0.37798 1.32291,2.74033 0.85044,3.11831 -0.47247,0.37797 -30.33259,0.75595 -30.33259,0.75595 0,0 -2.26785,0.28348 -3.59077,-1.6064 z"
           style="fill:#ffb380;stroke:#000000;stroke-width:0.26458332px;stroke-linecap:butt;stroke-linejoin:miter;stroke-opacity:1" />
        <path
           inkscape:connector-curvature="0"
           id="path4736"
           d="M 182.5625,264.58333 171.60119,58.964284"
           style="fill:none;stroke:#878787;stroke-width:0.26458332px;stroke-linecap:butt;stroke-linejoin:miter;stroke-opacity:1" />
        <path
           inkscape:connector-curvature="0"
           id="path4738"
           d="M 186.53125,264.58333 170.84524,-5e-6"
           style="fill:none;stroke:#878787;stroke-width:0.26458332px;stroke-linecap:butt;stroke-linejoin:miter;stroke-opacity:1" />
        <path
           inkscape:connector-curvature="0"
           id="path4740"
           d="M 175.00297,-5e-6 191.63393,264.58333"
           style="fill:none;stroke:#878787;stroke-width:0.26458332px;stroke-linecap:butt;stroke-linejoin:miter;stroke-opacity:1" />
        <path
           inkscape:connector-curvature="0"
           id="path4742"
           d="M 197.02009,264.58333 177.93229,-5e-6"
           style="fill:none;stroke:#878787;stroke-width:0.26458332px;stroke-linecap:butt;stroke-linejoin:miter;stroke-opacity:1" />
        <path
           inkscape:connector-curvature="0"
           id="path4744"
           d="M 180.86161,-5e-6 201.6503,264.58333"
           style="fill:none;stroke:#878787;stroke-width:0.26458332px;stroke-linecap:butt;stroke-linejoin:miter;stroke-opacity:1" />
        <path
           inkscape:connector-curvature="0"
           id="path4722"
           d="m 183.21326,158.87823 c -0.33409,-1.06907 -0.26727,-2.33861 0.93544,-3.40768 1.20272,-1.06908 5.54585,-2.80633 6.81537,-3.14042 1.26954,-0.33409 3.54133,-1.73725 5.14494,-1.67043 1.60362,0.0668 3.94223,0.4009 5.14494,1.46998 1.20271,1.06908 1.80407,3.14041 2.40543,3.94222 0.60135,0.80181 1.20271,0.46772 1.67043,1.5368 0.46772,1.06908 0.40091,0.66818 1.87089,3.00679 1.46998,2.3386 2.47224,3.67495 2.73951,5.07812 0.26727,1.40316 0.20045,1.80407 0.66818,2.93996 0.46772,1.1359 1.33634,2.00452 2.07133,3.94223 0.735,1.9377 1.00226,4.47676 2.00452,6.01356 1.00226,1.5368 4.94449,8.0849 4.87768,10.15624 -0.0668,2.07134 -1.60362,4.14268 -1.60362,4.14268 0,0 -10.02261,-4.00904 -11.02487,-4.07586 -1.00226,-0.0668 -2.60588,0.93544 -4.40995,0.93544 -1.80407,0 -10.02261,1.46999 -11.49259,0.46772 -1.46998,-1.00226 -2.73951,-3.40768 -1.73725,-4.47676 1.00226,-1.06908 2.20496,-1.8709 4.20949,-2.07134 2.00453,-0.20045 6.81538,-0.73499 8.15173,-1.20271 1.33634,-0.46772 4.81085,-1.80407 4.74403,-2.07134 -0.0668,-0.26727 -4.87767,1.46998 -8.15172,1.87089 -3.27405,0.4009 -6.34765,0.53454 -9.82215,1.13589 -3.47451,0.60136 -6.74856,1.33635 -8.35218,-0.0668 -1.60362,-1.40317 -1.5368,-3.14042 -0.80181,-4.27632 0.73499,-1.13589 3.54132,-2.20497 5.07812,-2.33861 1.53681,-0.13363 5.67948,-1.26953 7.61719,-1.80407 1.9377,-0.53453 5.21175,-1.13589 6.28083,-1.46998 1.06908,-0.33409 1.67043,-0.26727 3.14042,-0.66817 1.46998,-0.40091 2.73951,-0.93544 2.53906,-1.26953 -0.20045,-0.33409 -5.14494,0.13363 -7.21628,0.4009 -2.07134,0.26727 -7.01582,1.33635 -7.684,1.46998 -0.66817,0.13364 -4.27631,1.26954 -5.81311,1.67044 -1.5368,0.4009 -5.27857,0.93544 -5.61266,-2.47224 -0.33409,-3.40769 2.67269,-4.14268 4.74403,-5.01131 2.07134,-0.86862 6.88219,-2.67269 9.48807,-3.60814 2.60588,-0.93544 4.74404,-2.00452 5.81311,-2.13815 1.06908,-0.13364 1.46999,-0.40091 0.93545,-0.66818 -0.53454,-0.26727 -2.27179,-1.9377 -3.67496,-1.80407 -1.40317,0.13364 -3.34087,0.40091 -4.6104,1.00227 -1.26953,0.60135 -5.41221,2.07133 -7.08264,-1.46999 z"
           style="fill:#d38d5f;fill-opacity:1;stroke:none;stroke-width:0.26458332px;stroke-linecap:butt;stroke-linejoin:miter;stroke-opacity:1" />
        <path
           inkscape:connector-curvature="0"
           id="path4748"
           d="m 215.61969,179.92571 c 0,0 7.61718,7.684 8.15172,9.08716 0.53454,1.40317 2.00452,8.55263 2.00452,8.55263 0,0 -7.81763,-4.67722 -7.81763,-4.67722 0,0 1.80407,-4.6104 1.26953,-5.87993 -0.53454,-1.26953 -3.60814,-7.08264 -3.60814,-7.08264 z"
           style="fill:#333333;stroke:none;stroke-width:0.26458332px;stroke-linecap:butt;stroke-linejoin:miter;stroke-opacity:1" />
        <path
           inkscape:connector-curvature="0"
           id="path4724"
           d="m 208.93795,182.26432 c -0.13363,-1.00227 -1.06908,-1.33635 -2.40542,-0.73499 -1.33635,0.60135 -4.94449,2.00452 -6.1472,2.00452 -1.20272,0 -6.8822,0.13363 -6.8822,0.13363 0,0 -4.40994,1.1359 -4.14267,3.14042 0.26727,2.00452 1.33635,3.0736 2.00452,3.0736 0.66817,0 2.87315,-2.47225 3.27405,-2.00452 0.40091,0.46772 0.33409,1.33634 1.67044,1.33634 1.33634,0 2.27179,-0.66817 3.74177,-1.60361 1.46998,-0.93545 3.14042,-0.93545 4.27631,-1.67044 1.1359,-0.73499 1.46998,-2.27179 2.07134,-2.40542 0.60136,-0.13364 2.20497,0.33408 2.53906,-1.26953 z"
           style="fill:#deaa87;stroke:none;stroke-width:0.26458332px;stroke-linecap:butt;stroke-linejoin:miter;stroke-opacity:1" />
        <path
           inkscape:connector-curvature="0"
           id="path4726"
           d="m 203.45893,173.84533 c -0.80181,-0.735 -1.26954,-1.33635 -2.47225,-0.86863 -1.20271,0.46772 -10.22306,2.47224 -12.89575,3.14042 -2.6727,0.66817 -9.28762,1.5368 -9.2208,4.6104 0.0668,3.0736 2.13815,3.20723 3.4745,2.93996 1.33635,-0.26727 2.13816,-0.86862 3.27405,-0.93544 1.1359,-0.0668 3.34087,-1.26953 4.6104,-1.33635 1.26953,-0.0668 4.00905,0.53454 4.27632,-0.13364 0.26727,-0.66817 0.13363,-2.3386 1.26953,-2.3386 1.13589,0 3.4745,0.33408 4.6104,0.4009 1.13589,0.0668 0.4009,-4.20949 1.40316,-4.67721 1.00226,-0.46773 2.27179,0.20045 1.67044,-0.80181 z"
           style="fill:#deaa87;stroke:none;stroke-width:0.26458332px;stroke-linecap:butt;stroke-linejoin:miter;stroke-opacity:1" />
        <path
           inkscape:connector-curvature="0"
           id="path4728"
           d="m 203.99346,163.28818 c -0.66817,-0.93544 -2.73951,-1.40317 -5.07812,-1.06908 -2.3386,0.33409 -5.47902,1.87089 -8.95353,2.93997 -3.4745,1.06907 -9.55488,2.87314 -10.95805,4.47676 -1.40316,1.60362 -1.40316,3.60814 -0.0668,4.6104 1.33634,1.00226 3.67495,0.60136 4.40994,0.0668 0.735,-0.53454 1.87089,-1.06908 3.0736,-1.20272 1.20272,-0.13363 2.00453,-3.40768 2.73951,-3.07359 0.735,0.33408 0.86863,1.67043 2.93997,1.20271 2.07134,-0.46772 2.6727,-2.00452 4.2095,-2.13816 1.53679,-0.13363 2.53906,0.60136 3.27405,-0.53454 0.73499,-1.13589 0.73499,-2.87314 0.33408,-3.60813 -0.4009,-0.735 -0.86862,-2.47225 0.60136,-1.26954 1.46998,1.20272 2.60588,3.87541 2.60588,3.00679 0,-0.86863 0,-3.27406 0.86862,-3.40769 z"
           style="fill:#deaa87;stroke:none;stroke-width:0.26458332px;stroke-linecap:butt;stroke-linejoin:miter;stroke-opacity:1" />
        <path
           inkscape:connector-curvature="0"
           id="path4730"
           d="m 184.68324,159.88049 c -1.46998,-1.00225 -1.73725,-1.9377 -0.93544,-3.20723 0.80181,-1.26953 2.80633,-2.33861 4.94448,-3.20723 2.13816,-0.86863 5.67948,-2.2718 6.8822,-2.33861 1.20271,-0.0668 3.40768,0.13363 4.94448,1.00226 1.5368,0.86862 1.20271,3.80859 0.73499,4.27631 -0.46772,0.46772 -0.86862,-1.67044 -1.80407,-1.33635 -0.93544,0.33409 -1.33634,1.80407 -2.73951,2.53906 -1.40317,0.73499 -4.47676,0 -5.34539,0.46772 -0.86863,0.46773 -2.47224,2.2718 -3.80859,2.40543 -1.33635,0.13364 0.4009,-0.73499 0.26727,-1.26953 -0.13364,-0.53454 -1.67043,1.67043 -3.14042,0.66817 z"
           style="fill:#deaa87;stroke:none;stroke-width:0.26458332px;stroke-linecap:butt;stroke-linejoin:miter;stroke-opacity:1" />
        <path
           sodipodi:nodetypes="cscsc"
           inkscape:connector-curvature="0"
           id="path5361"
           d="m 100.8724,124.87388 c 0,0 0.99218,-4.06324 0.37797,-7.0398 -0.61421,-2.97657 -1.653645,-10.48884 -1.653645,-10.48884 0,0 -2.220609,11.57552 -1.41741,14.12686 0.803198,2.55134 2.693085,3.40178 2.693085,3.40178 z"
           style="fill:#a4a4a4;fill-opacity:1;stroke:none;stroke-width:0.26458332px;stroke-linecap:butt;stroke-linejoin:miter;stroke-opacity:1" />
      </g>
      <circle
         r="1.984375"
         cy="58.019344"
         cx="169.9003"
         id="path4750"
         style="fill:#c8b7b7;fill-opacity:1;stroke-width:0.26458332" />
    </g>
  </g>
  <g
     inkscape:groupmode="layer"
     id="layer6"
     inkscape:label="WEIRD">
    <path
       style="opacity:1;fill:#ffffff;fill-opacity:1;stroke:none;stroke-width:17.2258606;stroke-miterlimit:4;stroke-dasharray:none;stroke-opacity:1"
       d="m 245.3457,602.625 v 70 h 250 v -70 z m 8.86133,10.875 h 3.87695 c 3.39947,0 5.09819,0.67987 5.91407,3.94336 l 7.41015,30.86719 c 0.61191,2.58359 0.95313,5.09961 0.95313,5.09961 h 0.13476 c 0,0 0.40837,-2.44803 1.15625,-5.09961 l 9.6543,-34.67578 h 6.11914 l 8.97461,34.67578 c 0.67989,2.65158 1.01953,5.09961 1.01953,5.09961 h 0.13672 c 0,0 0.27286,-2.51602 0.88477,-5.09961 l 7.54687,-30.86719 c 0.81587,-3.26349 2.44624,-3.94336 5.8457,-3.94336 h 3.875 v 5.8457 h -1.01953 c -1.2238,0 -1.9706,0.27229 -2.31054,1.4961 L 303.83984,661.5 h -7.88672 l -8.1582,-30.32227 c -0.81587,-3.12751 -1.35937,-6.5957 -1.35937,-6.5957 h -0.13672 c 0,0 -0.68059,3.46782 -1.56445,6.52735 L 276.0332,661.5 h -7.95508 l -10.53906,-40.6582 c -0.33994,-1.22381 -1.08674,-1.4961 -2.31054,-1.4961 h -1.02149 z m 72.29297,0 h 28.2168 c 3.05952,0 4.34961,1.29204 4.34961,4.35156 v 6.05078 h -6.18555 v -3.06054 c 0,-1.01984 -0.54424,-1.4961 -1.49609,-1.4961 h -13.66602 v 15.02735 h 16.79297 v 5.8457 h -16.79297 v 13.9375 c 0,0.95185 0.54424,1.49609 1.49609,1.49609 h 14.00586 c 0.95185,0 1.4961,-0.54424 1.4961,-1.49609 v -3.05859 h 6.2539 v 6.05078 c 0,3.05952 -1.29204,4.35156 -4.35156,4.35156 h -21.34766 c -3.05952,0 -4.35156,-1.29204 -4.35156,-4.35156 V 619.3457 H 326.5 Z m 43.91406,0 h 15.8418 v 5.8457 h -4.69141 v 36.30664 h 4.69141 V 661.5 h -15.8418 v -5.84766 h 4.69141 V 619.3457 h -4.69141 z m 26.24024,0 h 20.9414 c 8.43068,0 14.34571,5.30359 14.34571,14.07422 0,8.02274 -5.2353,11.96501 -8.63477,12.71289 v 0.13672 c 0,0 1.22319,0.61202 2.03906,2.17578 l 5.7793,11.49023 c 0.67989,1.42778 1.76865,1.5625 3.40039,1.5625 h 0.88281 V 661.5 h -3.33008 c -3.73941,0 -5.1003,-0.47601 -6.66406,-3.60352 l -6.52734,-12.91796 c -1.22381,-2.24365 -2.10623,-2.58399 -4.75781,-2.58399 h -6.25586 V 661.5 h -6.79883 v -42.1543 h -4.41992 z m 47.0957,0 h 19.44531 c 14.61771,0 24.27149,8.77002 24.27149,23.93164 0,15.22961 -9.65378,24.06836 -24.27149,24.06836 h -10.67578 c -3.05952,0 -4.34961,-1.29204 -4.34961,-4.35156 V 619.3457 H 443.75 Z m -35.87695,5.8457 v 17.20313 h 8.83789 c 5.16719,0 8.22656,-3.33197 8.22656,-8.70313 0,-5.37115 -3.05863,-8.5 -8.08984,-8.5 z m 47.0957,0 v 34.81055 c 0,0.95185 0.54424,1.49609 1.49609,1.49609 h 6.25391 c 10.67433,0 17.67773,-6.39055 17.67773,-18.2207 0,-11.76215 -7.07139,-18.08594 -17.67773,-18.08594 z"
       transform="scale(0.26458334)"
       id="rect4172"
       inkscape:connector-curvature="0" />
  </g>
  <g
     inkscape:groupmode="layer"
     id="layer7"
     inkscape:label="MAKE">
    <text
       xml:space="preserve"
       style="font-style:normal;font-variant:normal;font-weight:normal;font-stretch:normal;line-height:0%;font-family:Museo;-inkscape-font-specification:'Museo, Normal';text-align:start;letter-spacing:0px;word-spacing:0px;writing-mode:lr-tb;text-anchor:start;fill:#ffffff;fill-opacity:1;stroke:none;stroke-width:0.26458335px;stroke-linecap:butt;stroke-linejoin:miter;stroke-opacity:1"
       x="10.690782"
       y="175.02188"
       id="text4175"><tspan
         sodipodi:role="line"
         id="tspan4177"
         x="10.690782"
         y="175.02188"
         style="font-style:normal;font-variant:normal;font-weight:normal;font-stretch:normal;font-size:17.99166679px;line-height:100%;font-family:Museo;-inkscape-font-specification:'Museo, Normal';text-align:start;letter-spacing:1.32291675px;writing-mode:lr-tb;text-anchor:start;fill:#ffffff;fill-opacity:1;stroke-width:0.26458335px">MAKE</tspan></text>
  </g>
  <g
     inkscape:groupmode="layer"
     id="layer8"
     inkscape:label="MUSIC">
    <text
       xml:space="preserve"
       style="font-style:normal;font-variant:normal;font-weight:normal;font-stretch:normal;line-height:0%;font-family:Museo;-inkscape-font-specification:'Museo, Normal';text-align:start;letter-spacing:0px;word-spacing:0px;writing-mode:lr-tb;text-anchor:start;fill:#ffffff;fill-opacity:1;stroke:none;stroke-width:0.26458335px;stroke-linecap:butt;stroke-linejoin:miter;stroke-opacity:1"
       x="134.21758"
       y="174.80598"
       id="text4180"><tspan
         sodipodi:role="line"
         id="tspan4182"
         x="134.21758"
         y="174.80598"
         style="font-style:normal;font-variant:normal;font-weight:normal;font-stretch:normal;font-size:17.99166679px;line-height:100%;font-family:Museo;-inkscape-font-specification:'Museo, Normal';text-align:start;writing-mode:lr-tb;text-anchor:start;fill:#ffffff;fill-opacity:1;stroke-width:0.26458335px">MUSIC</tspan></text>
  </g>
</svg>
