<?xml version="1.0" encoding="utf-8"?>
<!-- Generator: Adobe Illustrator 19.0.0, SVG Export Plug-In . SVG Version: 6.00 Build 0)  -->
<!DOCTYPE svg PUBLIC "-//W3C//DTD SVG 1.1//EN" "http://www.w3.org/Graphics/SVG/1.1/DTD/svg11.dtd">
<svg version="1.1" id="Layer_1" xmlns="http://www.w3.org/2000/svg" xmlns:xlink="http://www.w3.org/1999/xlink" x="0px" y="0px"
	 viewBox="0 0 821.7 821.7" enable-background="new 0 0 821.7 821.7" xml:space="preserve">
<g id="XMLID_81_">
	<g id="XMLID_365_">
		<path id="XMLID_395_" fill="#D28266" d="M143,528.1h1.8c0.7,0,1-0.3,1.1-1.1l2.4-30.2h3.5l9.1,19.9c0.8,1.8,1.7,4,1.7,4h0.1
			c0,0,0.9-2.3,1.7-4l9.1-19.9h3.5l2.4,30.2c0,0.7,0.4,1.1,1.1,1.1h1.9v3h-3.3c-2.1,0-2.8-0.9-3-3l-1.6-20.8
			c-0.1-1.9-0.1-4.8-0.1-4.8h-0.1c0,0-0.9,3-1.8,4.8l-8.1,17.4H161l-8.1-17.4c-0.8-1.7-1.8-4.9-1.8-4.9H151c0,0,0,3-0.1,4.9
			l-1.6,20.8c-0.1,2.1-0.9,3-3,3H143V528.1z"/>
		<path id="XMLID_392_" fill="#D28266" d="M188.5,528.1h0.6c0.9,0,1.4-0.1,1.8-1.1l11.2-30.2h3.7L217,527c0.3,0.9,0.8,1.1,1.8,1.1
			h0.6v3h-1.6c-2.4,0-3.2-0.5-4-2.8l-3-8.1h-13.6l-3,8.1c-0.9,2.3-1.6,2.8-4,2.8h-1.6V528.1z M209.8,517.2l-4.5-12.2
			c-0.6-1.6-1.3-4.4-1.3-4.4h-0.1c0,0-0.7,2.8-1.3,4.4l-4.5,12.2H209.8z"/>
		<path id="XMLID_390_" fill="#D28266" d="M230.1,501c0-0.7-0.4-1.1-1.1-1.1h-2.1v-3h3.6c2.1,0,3,0.9,3,3v11.9h4.1
			c1.3,0,2.3-0.2,2.9-1.2l8.3-13.6h3.9l-8.8,14.4c-0.9,1.4-1.8,1.9-1.8,1.9v0.1c0,0,0.8,0.3,1.7,1.9l5.9,11.8c0.5,1,1.2,1.1,2.5,1.1
			h1v3h-1.8c-2.8,0-3.6-0.3-4.7-2.6l-6.2-12.5c-0.5-1.1-1.7-1.3-3.1-1.3h-3.8v16.4h-3.4V501z"/>
		<path id="XMLID_388_" fill="#D28266" d="M263.7,499.9h-3.2v-3h19.6c2.1,0,3,0.9,3,3v3.4h-3.2V501c0-0.7-0.4-1.1-1.1-1.1h-11.7
			v12.5h12.9v3h-12.9V527c0,0.7,0.4,1.1,1.1,1.1h12c0.7,0,1.1-0.3,1.1-1.1v-2.3h3.2v3.4c0,2.1-0.9,3-3,3h-14.8c-2.1,0-3-0.9-3-3
			V499.9z"/>
		<path id="XMLID_386_" fill="#D28266" d="M310.7,501c-0.2-0.9-0.9-1.1-1.8-1.1h-0.6v-3h1.5c2.4,0,3.6,0.4,4.1,2.8l5.9,23.6
			c0.4,1.8,0.7,3.7,0.7,3.7h0.1c0,0,0.4-1.9,0.9-3.7l7.6-26.3h3.4l6.9,26.3c0.5,1.8,0.8,3.7,0.8,3.7h0.1c0,0,0.3-1.9,0.8-3.7
			l5.9-23.6c0.6-2.4,1.7-2.8,4.1-2.8h1.5v3h-0.5c-1,0-1.6,0.1-1.8,1.1l-7.9,30.2h-4l-6.4-23.8c-0.6-2.2-1.1-5.1-1.1-5.1h-0.1
			c0,0-0.6,2.8-1.2,5l-7,23.9h-4L310.7,501z"/>
		<path id="XMLID_384_" fill="#D28266" d="M363.6,499.9h-3.2v-3h19.6c2.1,0,3,0.9,3,3v3.4h-3.2V501c0-0.7-0.4-1.1-1.1-1.1h-11.7
			v12.5h12.9v3h-12.9V527c0,0.7,0.4,1.1,1.1,1.1h12c0.7,0,1.1-0.3,1.1-1.1v-2.3h3.2v3.4c0,2.1-0.9,3-3,3h-14.8c-2.1,0-3-0.9-3-3
			V499.9z"/>
		<path id="XMLID_382_" fill="#D28266" d="M392.7,528.1h3.2v-28.2h-3.2v-3h9.8v3h-3.3v28.2h3.3v3h-9.8V528.1z"/>
		<path id="XMLID_379_" fill="#D28266" d="M414.8,499.9h-3.2v-3h14.5c5.7,0,9.8,3.8,9.8,9.7c0,5.3-3.3,8.4-6.6,9.2v0.1
			c0,0,0.7,0.4,1.2,1.4l4.9,9.7c0.5,1,1.2,1.1,2.4,1.1h0.7v3h-1.5c-2.8,0-3.6-0.3-4.7-2.6l-4.9-9.8c-0.9-1.8-1.6-2-3.5-2h-5.7v14.4
			h-3.4V499.9z M425.9,513.7c4.1,0,6.6-2.7,6.6-7c0-4.2-2.5-6.8-6.6-6.8h-7.6v13.8H425.9z"/>
		<path id="XMLID_376_" fill="#D28266" d="M449.2,499.9H446v-3h13.7c10.3,0,17.2,6.3,17.2,17.1c0,10.9-6.9,17.2-17.2,17.2h-7.6
			c-2.1,0-3-0.9-3-3V499.9z M453.7,528.1h5.7c8.4,0,14-5,14-14.1c0-9.1-5.6-14.1-14-14.1h-6.8V527
			C452.6,527.8,453,528.1,453.7,528.1z"/>
		<path id="XMLID_374_" fill="#D28266" d="M502.9,528.1h1.8c0.7,0,1-0.3,1.1-1.1l2.4-30.2h3.5l9.1,19.9c0.8,1.8,1.7,4,1.7,4h0.1
			c0,0,0.9-2.3,1.7-4l9.1-19.9h3.5L539,527c0,0.7,0.4,1.1,1.1,1.1h1.9v3h-3.3c-2.1,0-2.8-0.9-3-3l-1.6-20.8
			c-0.1-1.9-0.1-4.8-0.1-4.8h-0.1c0,0-0.9,3-1.8,4.8l-8.1,17.4h-3.1l-8.1-17.4c-0.8-1.7-1.8-4.9-1.8-4.9h-0.1c0,0,0,3-0.1,4.9
			l-1.6,20.8c-0.1,2.1-0.9,3-3,3h-3.3V528.1z"/>
		<path id="XMLID_372_" fill="#D28266" d="M552.7,501c0-0.7-0.4-1.1-1.1-1.1h-2.1v-3h3.6c2.1,0,3,0.9,3,3v19.4
			c0,5.7,3.6,9.3,9.2,9.3s9.3-3.6,9.3-9.4v-19.3c0-2.1,0.9-3,3-3h3.6v3H579c-0.7,0-1.1,0.3-1.1,1.1v18.4c0,7.4-5.1,12.3-12.6,12.3
			c-7.6,0-12.7-4.9-12.7-12.3V501z"/>
		<path id="XMLID_370_" fill="#D28266" d="M591.6,524.4c0,0,3.5,4.2,8.9,4.2c3.8,0,6.8-2.4,6.8-6.1c0-8.5-16.9-6.8-16.9-17.4
			c0-4.8,4.1-8.8,10.5-8.8c3.3,0,9.3,1.4,9.3,5.9v2.4h-3.2V503c0-2-2.8-3.6-6-3.6c-4.4,0-7,2.6-7,5.5c0,7.9,16.9,6,16.9,17.3
			c0,5.1-3.9,9.5-10.4,9.5c-7,0-10.9-4.9-10.9-4.9L591.6,524.4z"/>
		<path id="XMLID_368_" fill="#D28266" d="M620,528.1h3.2v-28.2H620v-3h9.8v3h-3.3v28.2h3.3v3H620V528.1z"/>
		<path id="XMLID_366_" fill="#D28266" d="M655.7,496.3c4.9,0,12.8,2.1,12.8,7.3v2.8h-3.2v-1.9c0-3.2-5.6-5-9.5-5
			c-7.6,0-13.4,5.9-13.4,14.2c0,8.2,5.8,14.8,13.6,14.8c7.1,0,11.2-4.8,11.2-4.8l1.9,2.5c0,0-4.7,5.6-13.2,5.6c-10,0-17.1-8-17.1-18
			C638.8,503.8,646,496.3,655.7,496.3z"/>
	</g>
</g>
<g id="XMLID_2_">
	<polygon id="XMLID_80_" fill="#424143" points="633.6,361.2 634.9,362.2 635.6,356.4 637.1,357.5 636.9,347.7 635.4,354.7 
		634.1,353.7 633.4,359.5 631.9,358.4 632.1,368.2 	"/>
	<polygon id="XMLID_79_" fill="#424143" points="619.7,349.3 623,358.1 620.1,357.5 627.4,371.4 624.5,360.3 627,360.8 623.8,352 
		626.7,352.5 619.3,338.7 622.3,349.8 	"/>
	<polygon id="XMLID_78_" fill="#424143" points="609.9,358.9 614.7,364.9 612.3,365.2 621.5,374 616.4,366.2 618.5,365.9 613.7,360 
		616.1,359.7 606.9,350.9 612,358.7 	"/>
	<polygon id="XMLID_77_" fill="#424143" points="134.7,304.1 131.8,300.5 129.7,304.6 134.3,321.7 	"/>
	<polygon id="XMLID_76_" fill="#424143" points="141.2,309.5 139.6,306.2 137.2,309 137.4,323.2 	"/>
	<polygon id="XMLID_75_" fill="#424143" points="133,322.8 126.7,310.1 123.3,308.7 123.4,312.4 	"/>
	<polygon id="XMLID_74_" fill="#424143" points="297.6,425.3 291.5,419.5 294.1,418.8 282.7,410.6 289.5,418.3 287.2,418.9 
		293.3,424.7 290.8,425.4 302.1,433.6 295.4,425.9 	"/>
	<polygon id="XMLID_73_" fill="#424143" points="307.7,416.7 298.7,413.3 301.1,411.4 285.3,407.8 295.9,413 293.8,414.6 302.9,418 
		300.5,420 316.2,423.6 305.6,418.4 	"/>
	<polygon id="XMLID_72_" fill="#424143" points="490.9,273 493.8,280.9 491.1,280.4 497.7,292.9 495.1,282.9 497.4,283.3 
		494.5,275.5 497.1,275.9 490.5,263.5 493.2,273.4 	"/>
	<polygon id="XMLID_71_" fill="#424143" points="508,285.4 511,274.6 513.5,277.2 516.1,258.4 511.2,271.3 509,269 506,279.9 
		503.5,277.3 500.9,296 505.8,283.2 	"/>
	<polygon id="XMLID_70_" fill="#424143" points="519.2,282.6 513.1,289.2 512.3,286.5 503.5,298.8 511.8,291.5 512.5,293.9 
		518.6,287.3 519.4,290 528.2,277.7 519.9,285.1 	"/>
	<path id="XMLID_67_" fill="#424143" d="M540.4,425.1c0.1,0.1,0.3,0.2,0.5,0.3l0.3,0c0,0,0,0,0.1,0c0.1,0,0.3-0.1,0.4-0.1l2.9,0.3
		c0,0.5,0.1,0.9,0.3,1.3c0.3,0.5,0.8,0.8,1.3,0.8c0,0,0.1,0,0.1,0c0.5,0,0.9-0.2,1.3-0.6c0.3-0.4,0.6-0.9,0.6-1.4
		c0-0.4,2.9-44.1,4.3-58.5v0c1.3-14.2,6.7-56.7,6.7-57.2c0-0.1,0-0.3,0-0.4l0.3-1.9c0.1-0.9-0.7-1.7-1.4-2.1l-5.3-2.6
		c-0.2-0.1-0.5-0.1-0.7,0c-0.2,0.1-0.3,0.3-0.4,0.6l-0.3,4l-11.1,116.8l0,0l0,0l0,0.2C540.2,424.8,540.3,424.9,540.4,425.1z
		 M548.8,366.8c-1,10.5-2.8,36.6-3.7,50.1c-0.8-0.4-1.5-0.9-2.2-1.6l9.8-103.3l2.4,1.2C553.7,323.7,549.9,355,548.8,366.8z"/>
	<path id="XMLID_49_" fill="#424143" d="M742.4,336.8l-6-5.6l0.1-0.7c0-0.3-0.1-0.6-0.4-0.7l-6.2-3.2c0,0-0.1,0-0.1-0.1l-8.3-2.1
		c-0.2,0-0.3,0-0.5,0l-3-1.4c-0.1-0.1-0.3-0.1-0.4-0.1c-1.6-1-4.1-3.6-5.7-5.9l-0.1-0.1c0-0.1-0.1-0.1-0.1-0.2
		c0.2,0,0.5-0.1,0.7-0.2c0.5-0.4,0.6-1.2,0.2-1.7l-0.9-1.3c-0.1-0.2-0.3-0.3-0.4-0.3c-0.4-0.4-0.8-0.9-1.1-1.3
		c0.1-0.1,0.1-0.2,0.1-0.2c0.1-0.3,0.1-0.8-0.6-1.3c-0.7-0.5-1.2-0.4-1.5-0.2c-1.5-1.3-3.2-2.3-5.1-3.2c-2-1-6.6-1.6-10.5,0
		c-1.9,0.8-3.5,2.3-4.7,4l-3.5,0c-0.2,0-0.4,0.1-0.5,0.2c-0.1,0.1-0.2,0.3-0.2,0.5l0.2,6.5c-0.2,0-0.3,0.1-0.5,0.1L683,318
		c-0.5-0.2-1.1,0-1.4,0.7l-0.6,1.4c-0.2,0.3-0.2,0.7-0.1,1c0.1,0.2,0.2,0.4,0.4,0.5l1.2,0.6c-0.4,0.8-0.7,1.6-1.1,2.3
		c-1,0.1-1.9,0.8-2.5,2c-0.6,1.2-0.5,2.4,0.1,3.2l-0.4,0.8c-0.3,0-0.5,0.1-0.7,0.4l-6.5,14.7l-1.4,3c-0.2-0.2-0.3-0.4-0.6-0.5
		c0,0-0.1,0-0.1-0.1c0,0-0.1,0-0.1-0.1c-0.4-0.2-0.9-0.2-1.3,0c-0.7,0.2-1.3,0.9-1.7,1.7c-0.4,0.8-0.5,1.7-0.2,2.4
		c0,0.1,0.1,0.1,0.1,0.2c-0.9,0-1.9,0.6-2.4,1.8c-0.1,0.3-0.2,0.6-0.3,0.9c-0.4,0.4-0.7,0.9-0.9,1.4c-0.3,0.7-0.5,1.4-0.5,2.1
		c0,0,0,0.1-0.1,0.1c-0.5,1-0.5,2.1,0,2.8c-0.8,0.2-1.5,0.8-2,1.7c-0.1,0.2-0.2,0.4-0.2,0.7c0,0,0,0,0,0c0,0-0.1,0-0.1,0
		c-0.8-0.4-1.9,0.2-2.4,1.3c-0.2,0.5-0.3,1-0.2,1.5c-0.2,0-0.5,0.1-0.7,0.3c-0.4,0.2-0.7,0.6-1,1.1c-0.5,1.1-0.3,2.3,0.6,2.7
		c0,0,0.1,0,0.1,0c0,0,0.1,0,0.1,0c0.4,0.2,0.9,0.2,1.4-0.1c0.1,0.7,0.5,1.2,1,1.4c0,0,0.1,0,0.1,0c0,0,0.1,0,0.1,0.1
		c0.1,0,0.1,0.1,0.2,0.1l-0.2,0.3c0,0-0.1,0-0.1,0c-0.1,0-0.2-0.1-0.2-0.1c-0.1,0-0.1-0.1-0.2-0.1c-1-0.5-2.2-0.2-3.2,0.8l-0.1-0.1
		c0.1-0.4-0.1-0.8-0.5-1c0,0-0.1,0-0.1,0c-0.2-0.1-0.4-0.1-0.7,0c-0.2,0.1-0.4,0.3-0.5,0.5L635.6,408l-0.7,0.1
		c1.5-3.9,3.8-10.3,4.9-15.6c0.9-4.7,0.8-11.5-0.3-19.1c0-0.2,0-0.3,0-0.3c0-0.2,0.4-1.2,0.8-2.1l2.4-1c0.3-0.1,0.5-0.5,0.4-0.9
		l-0.2-0.6c-0.1-0.2-0.2-0.3-0.4-0.4c-0.2-0.1-0.4-0.1-0.6,0l-28.1,10.5c1.5-0.9,2.2-2.1,1.7-3c-0.5-1-2.1-1-3.8-0.2
		c-0.1-0.2-0.1-0.3-0.2-0.5c-0.3-0.6-0.8-0.9-1.5-0.9c0,0,0,0,0,0l-1.5-2.9c0-0.2,0-0.5-0.1-0.7c-0.1-0.2-0.3-0.4-0.5-0.5l-4.8-9.2
		c0.3-0.2,0.5-0.5,0.6-0.8c0.1-0.4,0.1-0.8-0.1-1.2l-2.6-5.1c-0.4-0.7-1.2-1-1.9-0.8l-15.3-29.5c-0.9-1.8-3-5.2-5-8.4
		c-0.5-0.8-0.9-1.5-1.4-2.2l2-15.3c0-0.2,0-0.4-0.1-0.5c-0.1-0.1-0.3-0.2-0.5-0.3l-16.3-1.9c-0.2,0-0.4,0-0.5,0.2
		c-0.1,0.1-0.2,0.3-0.3,0.5l-12.6,138.1c-2.9,1.3-4.9,0.5-5,0.4c-0.2-0.1-0.5-0.1-0.7,0.1c-0.2,0.1-0.3,0.4-0.3,0.6
		c0,0.1,0.4,3.6,0.5,7.8l-3.2-0.4c-0.5-1.6-1.8-2.8-3.6-3c-1.1-0.1-2.3,0.2-3.1,0.9c-0.9,0.7-1.5,1.7-1.6,2.9c0,0,0,0,0,0
		c-0.3,2.3,1.4,4.5,3.7,4.7c0.2,0,0.3,0,0.5,0c1.4,0,2.7-0.7,3.5-1.8l3.7,0.4c0,1-0.1,1.9-0.2,2.9c-0.1,1-0.3,2.1-0.6,3.2l-3.6-0.4
		c-0.2-0.5-0.4-1-0.8-1.5c-0.7-0.9-1.7-1.5-2.8-1.6c-1.1-0.1-2.3,0.2-3.1,0.9c-0.9,0.7-1.5,1.7-1.6,2.9c-0.3,2.3,1.4,4.5,3.7,4.7
		c0.2,0,0.3,0,0.5,0c1,0,1.9-0.3,2.6-0.9c0.3-0.2,0.6-0.5,0.8-0.8l3.4,0.4c-1,3.6-2,6.8-2,6.9c-0.1,0.3,0,0.5,0.2,0.7
		c0.2,0.2,0.5,0.2,0.7,0.1c0,0,1.8-0.7,3.3-0.5c0.7,0.1,1.3,0.6,2,1.2c1.2,0.9,2.6,2.1,5.2,2.5c0.5,0.1,0.9,0.1,1.3,0.1
		c2.1,0,3.6-0.7,4.7-1.3c0.9-0.4,1.5-0.8,2.2-0.6c1.8,0.3,3.1,1.2,3.1,1.2c0.2,0.2,0.5,0.2,0.8,0c0.2-0.1,0.4-0.4,0.3-0.7
		c0,0-0.3-3.2-0.4-7.2l3,0.4c0.6,1.4,1.9,2.4,3.4,2.6c0.2,0,0.3,0,0.5,0c1,0,1.9-0.3,2.6-0.9c0.9-0.7,1.5-1.7,1.6-2.9
		c0.1-1.1-0.2-2.3-0.9-3.1c-0.7-0.9-1.7-1.5-2.9-1.6c-1.1-0.1-2.2,0.2-3.1,0.9c-0.4,0.4-0.8,0.8-1.1,1.3l-3.1-0.4
		c0.1-0.9,0.1-1.9,0.2-2.8c0.1-1,0.3-2.1,0.5-3.2l3.1,0.4c0.6,1.4,1.9,2.5,3.5,2.7c0.2,0,0.3,0,0.5,0c1,0,1.9-0.3,2.6-0.9
		c0.9-0.7,1.5-1.7,1.6-2.9c0.3-2.3-1.4-4.5-3.7-4.7c-1.7-0.2-3.3,0.7-4.2,2.1l-2.6-0.3c0.9-4,2-7.5,2-7.5c0.1-0.2,0-0.4-0.1-0.6
		s-0.3-0.3-0.6-0.3c-0.1,0-2.1,0-4.7-1.9L575.6,328l15.8,30.5c0,0,0,0,0,0.1l1.5,2.9l-0.4,0.2c-0.2,0.1-0.3,0.2-0.3,0.4
		c-0.1,0.2,0,0.4,0,0.5l3.1,5.9c0,0,0,0,0,0c0,0,0,0,0,0l2.9,5.6l0.2,5.9c-0.1,0-0.1,0.1-0.2,0.1c-0.4,0.2-0.6,0.5-0.7,0.9
		c-0.1,0.4-0.1,0.8,0.1,1.1c0.2,0.3,0.5,0.6,0.8,0.7c-0.1,0.4-0.1,0.7,0.1,1.1c0.4,0.7,1.3,1,2,0.6c0,0,0,0,0,0l0.1,0.2
		c0,0.3,0,0.5,0.2,0.8c0.1,0.3,0.3,0.5,0.6,0.6l0.2,0.4c0,0.3,0,0.6,0.1,0.8c0.2,0.3,0.5,0.6,0.8,0.7c0.4,0.1,0.8,0.1,1.2-0.1
		c0.4-0.2,0.6-0.5,0.7-0.9c0.1-0.2,0.1-0.4,0.1-0.6l0.5,0.9c0,0,0,0.1,0,0.1c0,0,0,0,0,0l2,3.8c0,0,0,0,0,0l6,11.5c0,0,0,0,0,0
		c0,0,0,0.1,0,0.1l0.8,1.5c0.1,0.2,0.2,0.3,0.4,0.3c0,0,0.1,0,0.1,0l-1.2,0.6c-0.5,0.3-0.9,0.7-1.1,1.3c-0.2,0.5-0.1,1.1,0.1,1.6
		c0.3,0.5,0.7,0.9,1.2,1.1c0.1,0,0.2,0,0.2,0.1c-0.3,0.6-0.3,1.3,0,1.9c0.2,0.5,0.7,0.8,1.1,1c-1.5,3.6-3.1,7.3-3.8,9.1
		c-0.2,0.5-0.3,1.2-0.3,2c-0.2,0.6-0.4,1-0.5,1.2c-0.4,0.9-1.6,3.8-2.4,5.6c0,0-0.1,0.1-0.1,0.1c-0.2,0.2-0.2,0.4-0.2,0.6
		c-1,2.5-2.1,5.1-2.5,6.3c-1.1,3.1-2.6,13.1,4.9,19.1c0.5,0.7,1.2,1.3,2,1.6c0.4,0.2,0.8,0.3,1.2,0.4c0.1,0,0.1,0.1,0.2,0.1
		c2.8,1.3,5.5,1.9,8,1.9c7.1,0,12.4-4.6,14.1-8.2c0.4-0.8,0.9-2.1,1.6-3.5c1.9,6.2,2.1,11.3,2.1,13c-0.2,0.2-0.5,0.5-0.6,0.9
		c-0.1,0.4-0.1,0.9,0.1,1.3c0.1,0.3,0.5,0.7,1.3,0.9c0.3,0.1,0.8,0.2,1.5,0.2c1.7,0,4.5-0.6,8.9-2.9c9.6-5,8.4-8.2,8.2-8.5
		c-0.5-0.9-1.4-1-2.1-0.8c-2-1.4-8.9-6.8-14.1-16.2c1.2-2.9,2.3-5.3,2.8-6.4c0.1-0.1,0.1-0.3,0.2-0.5c0.5-0.2,1.2-0.9,3.2-5.3
		c0.7-0.4,1.4-0.4,1.9-0.2c1.3,0.5,1.8,2.5,1.8,2.5c0.1,0.3,0.4,0.6,0.7,0.5c0.3,0,0.6-0.3,0.6-0.7c0.1-1.8-0.4-3.1-1.4-4
		c-0.2-0.2-0.5-0.4-0.8-0.5c0.4-0.2,0.7-0.5,0.9-0.9l2.6-5.6c0.2-0.4,0.2-0.9,0.1-1.3c-0.2-0.4-0.5-0.8-0.9-1l-1.6-0.7
		c1.5-3.6,2.8-6.7,3.6-8.4c1.2-2.7,3.1-7.4,4.9-11.5c0.2,0.2,0.5,0.4,0.8,0.6c0.6,0.3,1.2,0.3,1.8,0.1c0.6-0.2,1-0.6,1.3-1.2
		c0.5-1.1,0-2.5-1.1-3.1c-0.3-0.1-0.5-0.2-0.8-0.2c0.1-0.3,0.2-0.5,0.3-0.7l1.1,0.4c0.3,0.1,0.7,0,0.9-0.4l0.3-0.7
		c0.1-0.2,0.1-0.4,0-0.5c-0.1-0.2-0.2-0.3-0.4-0.4l-0.8-0.4c0.3-0.5,0.7-1.1,1.1-1.9c0.9-0.3,1.8-1.2,2.3-2.4c0.5-1.1,0.6-2.2,0.3-3
		c0.1,0,0.1,0,0.2-0.1c0.2-0.1,0.3-0.2,0.4-0.4l1.8-5.2l0.6,0.2c0.3,0.1,0.7,0,0.9-0.4l0.3-0.7c0.1-0.2,0.1-0.4,0-0.5
		c-0.1-0.2-0.2-0.3-0.4-0.4l-0.7-0.3l1-3c1.1-0.2,2.2-1.3,2.9-2.8c0.5-1.2,0.6-2.3,0.4-3.3c0.4-0.2,0.8-0.7,1.2-1.2
		c0.2,0,0.5,0,0.6-0.2c1.2-1.1,1.9-2.7,2-4.3c0-0.9-0.2-1.8-0.6-2.4c0.6-1,0.6-1.8,0.5-2.3c0-0.1-0.1-0.3-0.1-0.4
		c0.4-1.1,1.6-4.1,2.9-7.4l0.7,0.3c0.1,0,0.1,0,0.2,0c0.1,0,0.1,0.1,0.2,0.1l0.4,0.2c0.4,0.1,0.8,0,0.9-0.4l0.2-0.5l1.7,65.1
		c-0.4,1.8-1,4.1-2,5.5c-2.6,3.6-5.6,4.7-5.7,4.7c-0.2,0.1-0.3,0.2-0.4,0.4c-0.1,0.2-0.1,0.4,0,0.5c0,0.1,2.9,8.6,3.6,25.2
		c0.2,4.5-0.5,10.6-1.1,16.1c-1.1,10-1.5,15.2,0.8,15.8c0.1,0,0.2,0,0.3,0c0.9,0,1.6-0.9,2.6-2c1.2-1.4,2.6-3.1,4.4-3.5
		c0.8-0.2,3.1,0.2,4.3,0.4c0.4,0.1,0.7-0.1,0.8-0.5l1.3-4.4l1.2,0c0.2,0.4,0.4,0.7,0.7,1c0.6,0.6,1.5,1,2.4,1c0,0,0,0,0,0
		c1.9,0,3.4-1.5,3.3-3.4c0-1.8-1.5-3.3-3.4-3.3c0,0,0,0,0,0c-0.9,0-1.7,0.4-2.4,1c-0.3,0.3-0.5,0.6-0.6,0.9l-0.3,0l1.4-4.6l1.3,0
		c0.2,0.4,0.4,0.7,0.7,1c0.6,0.6,1.5,1,2.4,1c0,0,0,0,0,0c0.9,0,1.7-0.4,2.4-1c0.6-0.6,1-1.5,1-2.4c0-0.9-0.4-1.7-1-2.4
		c-0.6-0.6-1.5-1-2.4-1c0,0,0,0,0,0c-0.9,0-1.7,0.4-2.4,1c-0.3,0.3-0.5,0.6-0.6,0.9l-0.4,0l1.6-5.2l1.4,0c0.2,0.4,0.4,0.7,0.7,1
		c0.6,0.6,1.5,1,2.4,1c0,0,0,0,0,0c0.9,0,1.7-0.4,2.4-1c0.6-0.6,1-1.5,1-2.4c0-0.9-0.4-1.7-1-2.4c-0.6-0.6-1.5-1-2.4-1c0,0,0,0,0,0
		c-0.9,0-1.7,0.4-2.4,1c-0.3,0.3-0.5,0.6-0.6,0.9l-0.5,0l1.6-5.2l1.3,0c0.5,1.2,1.7,1.9,3.1,1.9c0,0,0,0,0,0c1.9,0,3.4-1.5,3.3-3.4
		c0-1.8-1.5-3.3-3.4-3.3c0,0,0,0,0,0c-1.3,0-2.4,0.8-3,1.9l-0.4,0l1.7-5.6l1.1,0c0.2,0.4,0.4,0.7,0.7,1c0.6,0.6,1.5,1,2.4,1
		c0,0,0,0,0,0c1.9,0,3.4-1.5,3.3-3.4c0-1.8-1.5-3.3-3.4-3.3c0,0,0,0,0,0c-0.9,0-1.7,0.4-2.4,1c-0.3,0.3-0.5,0.6-0.6,0.9l-0.2,0
		l1.8-6l1.1,0c0.5,1.2,1.7,2,3.1,2c0,0,0,0,0,0c1.9,0,3.4-1.5,3.3-3.4c0-1.8-1.5-3.3-3.4-3.3c0,0,0,0,0,0c-1.3,0-2.4,0.8-3,1.9
		l-0.2,0l2-6.6c0.1-0.2,0-0.4-0.1-0.5c-0.1-0.2-0.2-0.3-0.4-0.3c0,0-2.6-0.7-4.1-2.2c-1.1-1-1.5-2.5-1.8-3.8l1-90.7
		c1.1,1.1,2.2,2.5,3.1,3.6c0.7,0.9,1.3,1.7,1.8,2.1c2,1.8,3.7,3.1,4.9,3.8c0,0.2,0.2,0.4,0.4,0.6l3,1.4c0,0.2,0.1,0.4,0.3,0.5
		l5.5,3.1l0.1,0.4c0,0.2,0.2,0.3,0.3,0.4l1.7,1c0,0,0.1,0,0.1,0.1l13.8,4.4c0.2,0.1,0.5,0,0.7-0.1l1.1-1c0.1-0.1,0.1-0.1,0.2-0.2
		l0.1-0.2C742.7,337.3,742.7,337,742.4,336.8z M699.3,308.6c-0.8,0-1.6,0.1-2.4,0.2l0,0c0.1-0.2,0.1-0.4,0.1-0.6
		c2.1-0.2,4.2,0.2,5.3,0.7C701.3,308.7,700.3,308.6,699.3,308.6z M693.7,308.9c0,0,0,0.1,0,0.1c-0.5,0.3-1.2,0.8-1.7,1
		c-0.5,0.2-0.9,0.5-1.2,0.7c0.7-0.7,1.6-1.3,2.5-1.8C693.6,309,693.6,308.9,693.7,308.9z M663.2,391c-0.1,0.2-0.3,0.3-0.5,0.2
		c-0.2-0.1-0.3-0.3-0.2-0.5v0c0.1-0.2,0.3-0.3,0.5-0.2c0.1,0.1,0.2,0.2,0.2,0.2C663.2,390.8,663.2,390.9,663.2,391z M635.8,415.3
		l-1.3-0.6l1.3-2.6C635.4,413.2,635.5,414.4,635.8,415.3z M639.9,407.3c-0.8,0.1-1.6,0.7-2.4,1.5c-0.1,0-0.1-0.1-0.2-0.1l2.1-4.3
		C639.3,405.6,639.4,406.6,639.9,407.3z M653.2,378.2c0.2,0.7,0.7,1.2,1.3,1.4c0.1,0,0.2,0.1,0.2,0.1c0.1,0,0.1,0.1,0.2,0.1
		c0,0,0,0,0,0l-0.1,0.2c-0.2-0.2-0.4-0.4-0.7-0.5c-0.1,0-0.2-0.1-0.2-0.1c-0.1,0-0.1-0.1-0.2-0.1c-0.7-0.3-1.5-0.3-2.2,0.1l1.5-3.1
		C652.9,377,653,377.7,653.2,378.2z M627.4,431c-0.2-0.1-0.3-0.1-0.5-0.1c-0.1,0-0.2,0-0.3,0.1l1.1-2.3l0.7,1.4
		C628.1,430.3,627.8,430.6,627.4,431z M624.7,434.9l1.3-2.7c0.1,0.2,0.2,0.3,0.3,0.4c0,0.1-0.1,0.2-0.1,0.3
		c-0.4,0.8-0.6,1.6-0.7,2.4L624.7,434.9z M619.9,442.2c0.3-0.6,1.1-2.5,2.3-5.1c0.1,0.1,0.2,0.2,0.3,0.2c0,0,0.1,0,0.1,0
		c0.5,0.2,1,0,1.3-0.5l0.1-0.2l1.9,0.9c0.2,0.5,0.5,0.9,0.9,1.1l-3,6.2c-0.1,0.3-0.4,0.5-0.7,0.6c-0.2,0.1-0.6,0.2-1.1-0.1
		c-0.5-0.2-1.2-0.7-1.7-1.4C619.5,443,619.8,442.4,619.9,442.2z M636.6,418.1c-0.1-0.1-0.2-0.1-0.3-0.2c-0.4-0.2-0.9-0.2-1.4-0.1
		c-0.4-0.4-0.8-0.7-1.3-0.8c0,0-0.1,0-0.1,0l0.3-0.5l3,1.5L636.6,418.1z M650.1,387.1c0.1,0,0.2,0.1,0.2,0.1c0.1,0,0.1,0.1,0.2,0.1
		c0.2,0.1,0.5,0.2,0.7,0.2L651,388l-2.9-1.4l0.7-1.3C648.9,386.1,649.4,386.8,650.1,387.1z M649.1,389.2c-0.3,0-0.5,0.1-0.8,0.2
		c-1,0.4-2,1.3-2.6,2.6c-1,2.2-0.6,4.4,0.9,5.1c0,0,0.1,0,0.1,0l-1.1,2.3c-0.1-0.1-0.3-0.3-0.5-0.3c-1.1-0.5-2.5,0-3.6,1.3l5.8-12.1
		L649.1,389.2z M631.7,415.9l-0.1-0.1c0.7-1.6,1.6-3.5,2.4-5.6l0.5-0.1L631.7,415.9z M614.9,380.4c0.9,0.2,2.9,0.9,3.7,1.9
		c1,1.3,1.6,3.1,1.9,5.3c0.1,0.7,0.3,3.3,0.1,6.5l-6.9-13.3L614.9,380.4z M602.5,383.4l-1.8-3.5l0.1-0.8l2.3,4.5
		C603,383.6,602.7,383.5,602.5,383.4z M603.6,385.2c0.1-0.2,0.1-0.3,0.1-0.5l0.4,0.8C603.9,385.4,603.7,385.3,603.6,385.2z"/>
	<path id="XMLID_48_" fill="#424143" d="M572.7,420.9c-1.1-0.5-2.5-0.6-4.3-0.3c-0.9,0.1-2.5,0.5-3.7,1.4c-1.3,0.9-1.8,2.2-1.6,3.7
		c0.2,1.4,1.4,3.5,2.9,5.4c1,1.2,2.8,3.1,4.3,3.1c0.1,0,0.2,0,0.3,0c2.6-0.4,4.8-7.7,4.4-10.3C574.7,422.5,574,421.5,572.7,420.9z"
		/>
	<path id="XMLID_47_" fill="#424143" d="M221.4,406.7c0.3-1.2,0-2.4-0.8-3.3c-0.5-0.6-1-1-1.7-1.2c-1.9-0.7-3.9,0.1-4.8,1.9
		c-1.1-0.1-2.2,0.6-2.7,1.6c0,0,0,0.1-0.1,0.1l0,0.1c0,0,0,0.1,0,0.1c-0.3,0.9-0.1,1.8,0.5,2.5c0,0.1,0.1,0.1,0.1,0.1
		c-1,0.1-1.8,0.7-2.2,1.6c0,0-0.1,0.1-0.1,0.1l0,0.1c0,0,0,0.1,0,0.1c-0.3,0.9-0.1,1.8,0.5,2.5c0.1,0.1,0.1,0.1,0.2,0.2
		c-0.9,0.1-1.8,0.7-2.2,1.6c0,0-0.1,0.1-0.1,0.1l0,0.1c0,0,0,0.1,0,0.1c-0.3,0.9-0.1,1.8,0.5,2.5c0,0,0.1,0.1,0.1,0.1
		c-1,0.1-1.9,0.7-2.3,1.6c0,0-0.1,0.1-0.1,0.1l0,0.1c0,0,0,0.1,0,0.1c-0.3,0.9-0.1,1.8,0.5,2.5c0.1,0.2,0.3,0.3,0.4,0.4
		c-0.1,0.2-0.2,0.4-0.1,0.6l0,0.1c0,0.2,0,0.3,0.1,0.5c0,0.4,0,1.3-0.4,2.5c-0.3,0.9-1,2-1.8,3.2c-0.8,1.3-1.7,2.7-2.2,4
		c-0.5,1.2-0.7,3.5-0.4,4.9c0.1,0.6,0.4,1.2,0.8,1.7l0,0.1c0.6,0.8,1.8,1.3,2.9,1.3c0.2,0,0.4,0,0.6,0c0.6-0.1,1.1-0.4,1.6-0.8
		c1.1-0.8,2.5-2.8,2.9-4c0.5-1.2,0.7-2.9,0.9-4.6c0.2-1.4,0.4-2.7,0.7-3.5c0.3-1,0.9-1.8,1.3-2.2c0.2-0.1,0.4-0.2,0.4-0.4l0.2-0.6
		c1.1,0,2.2-0.6,2.6-1.7c0,0,0-0.1,0.1-0.1l0-0.1c0,0,0-0.1,0-0.1c0.2-0.9,0-1.8-0.5-2.5c-0.1-0.1-0.1-0.2-0.2-0.2
		c0.9-0.1,1.7-0.7,2.1-1.6c0,0,0.1-0.1,0.1-0.1l0-0.1c0,0,0-0.1,0-0.1c0.2-0.9,0-1.8-0.5-2.5c0,0-0.1-0.1-0.1-0.1
		c1-0.1,1.8-0.7,2.3-1.7c0,0,0.1-0.1,0.1-0.1l0-0.1c0,0,0-0.1,0-0.1c0.2-0.9,0-1.8-0.5-2.5c0-0.1-0.1-0.1-0.2-0.2
		c0.9-0.1,1.8-0.7,2.2-1.7c0,0,0-0.1,0.1-0.1l0-0.1c0,0,0-0.1,0-0.1c0.2-0.9,0-1.8-0.5-2.5C221.7,406.9,221.6,406.8,221.4,406.7z"/>
	<path id="XMLID_46_" fill="#424143" d="M106,437c0-0.1,0-0.1,0-0.2l-0.3-4.3c0.2-0.1,0.5-0.2,0.6-0.4c0.2-0.3,0.4-0.6,0.3-1
		c0-0.6-0.5-1.2-1.1-1.2l0-0.7c0.6-0.2,1-0.7,1-1.4c0-0.6-0.5-1.2-1.1-1.2l0-0.5c0.1-0.1,0.1-0.2,0.1-0.4c0.1-0.2,0-0.4-0.1-0.6
		c0-0.1-0.1-0.2-0.2-0.2l-0.9-14c0.1-0.1,0.1-0.3,0.2-0.5c0.1-0.3,0-0.7-0.3-0.9l-0.3-4.7c0.1-0.1,0.2-0.1,0.3-0.2
		c0.2-0.2,0.2-0.4,0.2-0.6l0,0l0.5-3c0,0,0-0.1,0-0.1c0,0,0,0,0-0.1l-1-16.3c0.5,0,0.9-0.5,0.8-1l0-0.1c0-0.2-0.1-0.5-0.3-0.6
		c-0.2-0.2-0.4-0.2-0.6-0.2l-0.1-0.9c0.3-0.2,0.7-0.4,1-0.8c0.8-0.8,1.4-1.9,0.8-2.5c-0.1-0.1-0.2-0.2-0.4-0.2
		c0.1-0.2,0.2-0.4,0.3-0.5c0.4-0.8,0.1-1.2-0.1-1.4c-0.2-0.2-0.4-0.3-0.7-0.3c0,0,0,0,0,0c-0.7,0-1.6,0.7-1.9,1c0,0-0.1,0.1-0.1,0.1
		l0-0.3c0-0.1,0.1-0.2,0.1-0.3l0-0.1c0-0.1,0-0.2-0.1-0.3l-0.2-2.9c0-0.1,0.1-0.2,0.1-0.4l0-0.1c0-0.1,0-0.2-0.1-0.3l-0.2-2.8
		c0.1-0.1,0.1-0.2,0.1-0.4l0-0.1c0-0.1,0-0.2-0.1-0.4l-0.1-1.5c0.1-0.1,0.1-0.2,0.1-0.4l0-0.1c0-0.1,0-0.3-0.1-0.4l-0.2-2.4
		c0.1-0.1,0.1-0.3,0.1-0.4l0-0.1c0-0.4-0.3-0.7-0.7-0.8l-0.8-11.7c1-0.1,1.7-1.3,1.6-2.6c-0.1-1.4-0.9-2.4-1.9-2.4l-0.9-13.9
		c0.5-0.1,1-0.4,1.3-0.9c0.3-0.5,0.4-1.1,0.3-1.7c-0.1-0.8-0.4-1.6-0.9-2c-0.3-0.3-0.7-0.4-1.1-0.4l-0.2-3.3
		c0.2-0.3,0.3-0.6,0.4-0.9c0.1-0.3,0-0.5-0.1-0.7c0.3-1.3,0.6-2.7,0.8-4.1c0.4-2.3,0.9-4.9,1.5-5.5c0.4-0.4,0.6-1,0.3-1.5
		c-0.7-1.5-4.1-2.9-6.8-2.7c-2.7,0.2-5.9,1.9-6.4,3.5c-0.2,0.6,0,1.2,0.5,1.5c0.5,0.4,1.2,2.7,1.8,4.6c0.5,1.5,1,3.2,1.6,4.7
		c-0.1,0.2-0.1,0.5,0,0.7c0.1,0.3,0.3,0.6,0.5,0.9l2.8,42.9c0,0,0,0-0.1,0l-0.1,0c0,0-0.1,0-0.1,0l-0.7,0c-0.5,0-0.9,0.5-0.9,1
		l0,0.1c0,0.2,0.1,0.3,0.2,0.5L94,370c-0.3,0.2-0.6,0.4-0.9,0.7c-0.8,0.8-1.4,1.9-0.8,2.5c0.1,0.1,0.4,0.3,0.8,0.3
		c-0.3,0.6-0.4,1.1,0,1.5c0.2,0.2,0.4,0.3,0.7,0.3c0,0,0,0,0,0c0.7,0,1.6-0.7,1.9-1c0.1-0.1,0.2-0.2,0.3-0.4l2.3,35.9
		c-0.2,0.2-0.2,0.6-0.1,0.9c0.1,0.1,0.1,0.3,0.2,0.4l0.9,14c-0.2,0.2-0.3,0.6-0.2,0.9c0.1,0.2,0.1,0.3,0.2,0.4l0.1,1.6
		c-0.1,0.1-0.1,0.2-0.2,0.3c-0.1,0.2-0.1,0.4,0,0.6c0.1,0.2,0.1,0.3,0.2,0.5l0.1,2.2c0,0.1-0.1,0.1-0.1,0.2c-0.1,0.2-0.1,0.4,0,0.6
		c0,0.1,0.1,0.2,0.2,0.3l0.3,4.4c0,0.1,0,0.1,0,0.2c0.3,1.4,1.5,2.8,3,2.8c0,0,0.1,0,0.1,0C104.8,440.1,105.9,438.2,106,437z"/>
	<path id="XMLID_43_" fill="#424143" d="M294,446.5c-0.8,0.1-1.3,0.9-1.4,1.8l-0.2,0c-0.4-0.7-0.9-1.4-1.5-2.1
		c0.3,0.2,0.6,0.3,0.9,0.3c0.1,0,0.2,0,0.3,0c1.1-0.2,1.7-1.5,1.4-3s-1.3-2.4-2.4-2.2c-0.8,0.1-1.3,0.9-1.4,1.8l-1,0.2
		c-0.8-1.1-1.4-2.2-1.6-3c0-0.1,0-0.1,0-0.2l1.2-0.2c0.4,0.8,1.1,1.3,1.8,1.3c0.1,0,0.2,0,0.3,0c0.6-0.1,1-0.5,1.3-1.2
		c0.2-0.5,0.2-1.2,0.1-1.8c-0.1-0.6-0.4-1.2-0.8-1.6c-0.5-0.5-1-0.7-1.6-0.6c-0.3,0.1-0.6,0.2-0.9,0.5c0.4-0.7,0.6-1.5,0.4-2.2
		c-0.4-1.8-1.4-3-2.9-3.7c-0.3-0.1-0.6-0.3-1-0.4l-4.1-18.8c-0.1-0.4-0.4-0.6-0.8-0.5l-9.9,1.9c-0.2,0-0.4,0.2-0.5,0.3
		c-0.1,0.2-0.1,0.4-0.1,0.6l5.3,19.5c-1.6,1.7-2.6,4.2-1.8,8c0.5,2.4,4.8,6.8,6.6,8.5c-1.5,0.9-4.4,3.1-3.5,6.2
		c1.2,4.1,4.7,5.2,7.6,5.2c1,0,2-0.1,2.7-0.3c0,0,0,0,0,0c3.1-0.8,6.7-3,6.8-9.1c0-0.1,0-0.2,0-0.2c0.4,0.4,0.8,0.6,1.3,0.6
		c0.1,0,0.2,0,0.3,0c1.1-0.2,1.7-1.5,1.4-3C296.1,447.3,295,446.3,294,446.5z M287.8,437.6c0.1-0.1,0.2-0.3,0.2-0.4
		c0,0.1-0.1,0.3-0.1,0.4L287.8,437.6z"/>
	<path id="XMLID_31_" fill="#424143" d="M264.7,411.1c2.9-0.3,6-0.8,8.6-1.4c0.2,0,16.5-4,15.8-7.1c-0.2-1-1.3-1.3-2.5-1.7
		c-1.4-0.4-3.3-0.9-5.2-2.6c-3.4-3.1-5.7-6.6-9.1-17.1c-3.3-10.4-16.8-63.6-17.6-67.3l-0.2-0.9c0,0,0,0,0-0.1l-2.5-11.1
		c0-0.2-0.2-0.3-0.3-0.4c-0.1-0.1-0.3-0.1-0.5-0.1l-0.5-2.2c-0.2-0.9-1.7-2.9-3.7-4.4c-1.8-1.4-4.7-3-7.9-2.2l-7,1.6
		c-5.6,1.3-6.7,9.4-6.4,10.9l0.5,2.2c0,0,0,0,0,0c-0.1,0.2-0.1,0.3-0.1,0.5l1.6,7.2c0,0.1,0,0.2,0,0.3c0,0.1,0,0.1,0,0.2
		c-0.2,0.4-0.2,0.8-0.3,1.3c0,0.2-0.1,0.3-0.1,0.5c0,0.2-0.1,0.3-0.1,0.5c0,0.1-0.1,0.4-0.1,0.5c0,0,0,0,0,0c0,0-0.1,0-0.1,0
		c-0.2,0.1-0.7,0.3-0.8,0.9c-0.1,0.3-0.1,0.5-0.1,0.8c0,0.1,0,0.2,0,0.3c0,0.2-0.1,0.3-0.2,0.6c-0.1,0.1-0.1,0.3-0.1,0.4l-0.1,0.3
		c-0.5,1.2-1,2.4-0.8,3.8c0,0,0,0,0,0.1c-0.2,0.7-0.3,1.2-0.5,1.5c0,0.1-0.1,0.1-0.2,0.2c-0.2,0.2-0.5,0.5-0.6,0.9
		c-0.1,0.3-0.1,0.7,0,0.9c0,0.1,0,0.3,0,0.3c0,0.3-0.2,0.5-0.4,0.9c-0.2,0.3-0.4,0.7-0.5,1.1c-0.2,0.8-0.4,1.8,0.2,2.7
		c0.2,0.4,0.5,0.7,0.8,0.9c-0.1,0-0.2,0-0.3,0c0,0,0,0-0.1,0c-2,0.3-2.7,2.4-2.5,4.2l0,0.2c0,0.5,0.1,1.1,0.4,1.6
		c-0.4,0-0.7,0.2-0.8,0.3c-0.4,0.4-0.3,1.1-0.2,1.5c0,0.1,0,0.2,0,0.2c0,0,0,0.1-0.1,0.1c0,0,0,0.1-0.1,0.1
		c-1.8,0.7-1.8,2.5-1.9,3.8l0,0.1l0,0.1c0,0.6,0,1.4,0.5,2c0,0,0,0,0,0c-0.4,0.2-0.5,0.6-0.6,1c-0.4-0.1-0.8,0-1,0.1
		c-1,0.5-1.4,1.9-1.6,3c0,0,0,0,0,0.1c0,1,0,2,0.3,2.7c0.4,0.9,1.3,1.1,2,1.1c-0.1,0.2-0.1,0.5-0.2,0.6c-0.1,0-0.2-0.1-0.3-0.1
		c-0.2-0.1-0.4-0.2-0.7-0.3c-1.4-0.5-2.2,0.6-2.4,1c-0.7,1.1-1,2.6-0.7,3.9c-0.3,0.3-0.6,0.8-0.6,1.3c0,0.2,0.1,0.5,0.3,0.8
		c-0.2,0.4-0.2,0.7-0.2,1c0,0.2,0,0.3,0,0.5c0,0.1-0.1,0.4-0.3,0.6c-0.1,0.2-0.3,0.5-0.4,0.8c-0.1,0.4-0.2,1-0.2,1.5
		c0,0.2,0,0.5,0,0.7c-1.1,0.5-1.6,1.4-1.9,2.5c-0.3,0.9-0.5,2.4,0.3,3.2c0,0.1-0.1,0.3-0.1,0.4c0,0.1,0,0.3-0.1,0.4
		c-0.4-0.1-0.9,0-1.3,0.2c-0.9,0.6-1,1.5-1.1,2.2c-0.2,0.9-0.2,1.7,0,2.3c-0.1,0-0.3,0-0.4,0.1c0,0,0,0-0.1,0
		c-1.1,0.5-1.4,1.4-1.6,2.2c0,0,0,0,0,0.1c-0.1,0.5-0.2,1.6,0.1,2.6c0.1,0.2,0.2,0.5,0.4,0.8c-0.1,0-0.2,0-0.3,0.1
		c-0.7,0.3-1.2,1-1.4,2.1l0,0.2c-0.1,0.6-0.3,1.4,0.3,2.2c0.3,0.3,0.7,0.4,1.1,0.5c0,0,0,0,0.1,0c-0.2,0.5-0.4,1-0.5,1.5
		c-0.1,0.4-0.3,0.9-0.4,1.2c-0.5-0.2-1-0.2-1.4-0.1c-1.4,0.3-1.5,1.5-1.6,2.2l0,0.2c-0.1,0.7-0.3,1.8,0.7,2.5v0
		c0.1,0.1,0.4,0.2,0.8,0.3c-0.1,0.4-0.3,0.8-0.5,1.2c-0.2,0.4-0.3,0.8-0.4,1.1c-0.6,2.2-1.3,4.2-2.1,6.3c-0.1,0.3-0.3,0.7-0.4,1
		c-0.3,0.7-0.6,1.5-0.7,2.2l0,0.2c-0.1,0.3-0.2,0.9-0.3,1.1c0,0,0,0-0.1,0.1l-0.1,0.1c-0.4,0.4-1.1,0.9-1.2,1.8
		c0,0.1,0.1,0.6,0.3,1.1c0,0.1,0,0.2,0,0.3c0,0.1-0.1,0.5-0.4,1.4c0,0,0,0,0,0.1c-0.1,0.5-0.3,1-0.5,1.5c-0.1,0.3-0.2,0.5-0.3,0.8
		c-0.4,1.1-0.8,2.2-1.2,3.3c-0.2,0.1-0.5,0.3-0.7,0.8c-0.2,0.6,0,1,0.2,1.3c0.1,0.1,0.1,0.2,0.1,0.2c0,0,0,0,0,0
		c-0.5,1.4-1,2.9-1.5,4.4l-3.9-5.9c4-13.6-5.4-26-15.2-39.1c-4.1-5.5-8.3-11.1-11.7-16.9l0.8-0.5c0.7-0.4,0.9-1.2,0.5-1.9l-0.7-1.2
		c-0.2-0.3-0.5-0.5-0.9-0.6c-0.2,0-0.4-0.1-0.5,0l-11-18.4c-0.4-0.7-1.2-0.9-1.9-0.5l-9.3-15.7c-0.3-0.4-0.6-0.8-1.1-1
		c-0.1,0-0.2-0.1-0.2-0.1l0.1-0.3c0.1-0.4-0.1-0.8-0.5-0.9l-2.8-0.7c-0.2,0-0.4,0-0.5,0.1c-0.2,0.1-0.3,0.2-0.3,0.4l-0.7,2.8
		c-0.1,0.4,0.1,0.8,0.5,0.9l0.3,0.1c0,0.1,0,0.2,0,0.3c0,0.5,0.1,1,0.3,1.4l9.3,15.7c-0.3,0.2-0.5,0.5-0.6,0.9
		c-0.1,0.4,0,0.7,0.2,1.1l11,18.4c-0.1,0.1-0.2,0.3-0.2,0.5c-0.1,0.4,0,0.7,0.2,1l0.7,1.2c0.4,0.7,1.2,0.9,1.9,0.5l0.4-0.3
		c3,5.3,7,10.6,10.8,15.8c7.1,9.6,14.4,19.4,16,29l-11.2-17c0,0,0,0,0,0L162,381.9c0,0,0,0,0,0l-0.6-0.9c0,0,0,0,0,0l-0.5-0.8
		c0,0,0,0,0,0l-0.1-0.2c0,0,0,0,0,0l0,0c0,0,0,0,0,0c0,0,0,0,0,0c0,0,0,0,0,0c0,0,0,0,0,0l0,0c0,0,0,0,0,0c0,0,0,0,0,0l-37.6-57
		l-0.2-6.8c0-0.2-0.1-0.4-0.2-0.5s-0.3-0.2-0.5-0.2l-4.1,0.1c-0.1-0.2-0.2-0.4-0.2-0.6c-0.1-5.8-3.5-8.7-6.6-8.9c-0.1,0-0.2,0-0.3,0
		c-2.1,0.2-3.6,1.3-4.3,3c-0.7,2.1,0,4.8,1.7,6.7l-2.2,0.1c-0.2,0-0.4,0.1-0.5,0.2s-0.2,0.3-0.2,0.5l7,113c0,0.6-0.5,6.8-2,10.2
		c-0.7,1.5-2,2.6-3.4,3.7c-1.4,1.1-2.7,2.2-3.1,3.7c-0.2,1,0.6,2.2,1.7,4c1.4,2.2,3.1,4.9,3.2,7.5c0.1,1.6-1.1,4.1-2.2,6.5
		c-1.3,2.8-2.6,5.7-2.3,7.8c0.7,5.5,3.1,8.2,4.9,9.6c2,1.5,3.9,1.7,4,1.7c0,0,0,0,0.1,0c0.3,0,0.5-0.2,0.6-0.4l2.7-5.8l1.7,0.8
		c0,0.2,0,0.5,0.1,0.7c0.1,1.2,0.2,2.9,1.8,3.8c0.3,0.1,0.6,0.2,0.8,0.2c0.9,0,1.7-0.6,2.2-1.1c0.8,0.1,2-0.1,2.7-1.6
		c0.7-1.4,0.1-2.5-0.5-3.1c0.1-0.9,0-2.2-1.1-2.7c-1.9-1-3.3,0.2-4.2,0.9c-0.1,0.1-0.3,0.2-0.4,0.3l-1.8-0.9l2.8-6.1l1.6,0.8
		c0,0.2,0,0.5,0.1,0.7c0.1,1.2,0.2,2.9,1.8,3.7c0.3,0.1,0.6,0.2,0.8,0.2c0.9,0,1.7-0.6,2.2-1.1c0.8,0.1,2-0.1,2.7-1.6
		c0.7-1.4,0.1-2.5-0.5-3.1c0.1-0.9,0-2.2-1.1-2.7c-1.9-1-3.3,0.2-4.2,0.9c-0.1,0.1-0.3,0.2-0.4,0.3l-1.7-0.8l2.8-6.1l2,1
		c0,0.2,0,0.5,0.1,0.7c0.1,1.2,0.2,2.9,1.8,3.8c0.3,0.1,0.6,0.2,0.8,0.2c0.9,0,1.7-0.6,2.2-1.1c0.8,0.1,2-0.1,2.7-1.6
		c0.7-1.4,0.1-2.5-0.5-3.1c0.1-0.9,0-2.2-1.1-2.7c-1.9-1-3.3,0.2-4.2,0.9c-0.1,0.1-0.3,0.2-0.4,0.3l-2.1-1l2.8-6.1l2.4,1.2
		c0,0.2,0,0.5,0.1,0.7c0.1,1.2,0.2,2.9,1.8,3.8c0.3,0.1,0.6,0.2,0.8,0.2c0.9,0,1.7-0.6,2.2-1.1c0.8,0.1,2-0.1,2.7-1.6
		c0.7-1.4,0.1-2.5-0.5-3.1c0.1-0.9,0-2.2-1.1-2.7c-1.9-1-3.3,0.2-4.2,0.9c-0.1,0.1-0.3,0.2-0.4,0.3l-2.5-1.2l2.7-5.9
		c0.1-0.2,0.1-0.4,0-0.6c-0.1-0.2-0.3-0.3-0.5-0.4c0,0-2.6-0.3-4.9-2.8c-1.5-1.6-1.9-6.7-1.9-8.5l-2.3-93.6l65.2,105
		c-0.3,0.9-0.6,1.5-0.7,1.7c0,0-0.1,0.1-0.2,0.1c-0.2,0.1-0.5,0.3-0.7,0.5c-0.3,0.4-0.6,1-0.7,1.4c-0.2,0.5-0.4,1.1-0.6,1.7
		c-0.4,1-0.8,1.9-1,2.9c-0.1,0.5-0.2,1-0.2,1.5c0,0.3-0.1,0.7-0.1,1c0,0,0,0,0,0.1c-0.1,0.8,0.1,1.4,0.3,1.9c0,0.1,0,0.1,0.1,0.2
		c0,0.1,0,0.2,0,0.2c0.1,0.2-0.2,1-0.4,1.3c-0.1,0.1-0.1,0.3-0.1,0.4c-0.2,0.7-0.5,1.4-0.8,2c-0.3,0.8-0.6,1.5-0.8,2.2
		c0,0.1-0.1,0.2-0.1,0.4c0,0.1-0.1,0.4-0.1,0.5c0,0-0.1,0.1-0.1,0.1c-0.7,0.4-0.7,1.4-0.6,2.1c0.3,1.2,1.4,1.8,2,2.2
		c0.5,0.2,1.1,0.4,1.8,0.4c0.6,0,1.1-0.1,1.6-0.4c0.6-0.4,0.9-1,1-1.7l0-0.1c0,0,0-0.1,0-0.1c0.1-0.3,1.8-5.1,5.2-15.1l5.6,9.1
		c1.4,2.2,3.3,3.8,5.2,4.2c0.4,0.1,0.7,0.1,1.1,0.1c1.1,0,2.1-0.3,3.1-1c1.3-0.9,2.3-2.8,2.2-4.5c0-2.3-1.4-4.2-2.7-6
		c-0.3-0.5-0.6-0.9-0.9-1.3v0l-9.1-13.8c1.5-4.3,2.7-7.9,3.2-9.1c0.4-0.2,0.7-0.5,0.9-1c0.2-0.4,0.2-0.8,0.2-1.1c0,0,0,0,0,0
		c0.2-0.5,0.3-1,0.5-1.5c0.2-0.7,0.4-1.4,0.7-2.1c0.1-0.3,0.2-0.5,0.3-0.8c0.2-0.4,0.4-0.8,0.5-1.4c0.1-0.6,0.3-1.2,0.5-1.8
		c0.9-0.8,0.8-2,0.7-2.6c0.3-0.9,0.6-1.8,0.9-2.7c0.3-0.8,0.5-1.7,0.8-2.5c0.1,0,0.2,0,0.2-0.1c0.6-0.1,1.3-0.3,1.8-1.1c0,0,0,0,0,0
		c0.4-0.7,0.4-1.4,0.2-2c0.5-0.3,1-0.8,1.2-1.3c0.5-1.3,0.2-2.4-0.9-3.1c0-0.1,0.1-0.3,0.2-0.4c0.1-0.2,0.2-0.4,0.2-0.6
		c0.1-0.3,0.2-0.6,0.3-0.9c0.2-0.6,0.4-1.1,0.6-1.6c0.5-1.3,0.9-2.5,1.4-3.8c0.1,0,0.2,0,0.3,0c0.2-0.1,0.5-0.2,0.7-0.4
		c0.8,0.2,1.7-0.1,2.4-0.8c0.5-0.5,1-1.3,0.9-2.2c0-0.2-0.1-0.4-0.1-0.6c0.5-0.6,0.8-1.5,1-2.2c0-0.2,0.1-0.3,0.1-0.4
		c0.2-0.7,0.2-1.6,0.1-2.4c0-0.3-0.1-0.7-0.2-1c-0.1-0.2-0.1-0.4-0.2-0.6c0.3,0.1,0.5,0.1,0.8-0.1c0.6-0.3,0.9-1.2,0.7-1.9
		c-0.1-0.5-0.5-0.8-1-0.9c0.1-0.3,0.1-0.5,0.2-0.7c0.1-0.5,0.2-0.9,0.3-1.4c0.1-0.4,0.1-0.8,0.2-1.2c0-0.3,0.1-0.7,0.1-1
		c0-0.1,0.1-0.3,0.1-0.4c0.1-0.4,0.2-0.8,0.1-1.3c0.1-0.4,0.2-0.9,0.2-1.4c0.1-0.5,0.1-1,0.3-1.4c1.2,0.1,2.5-0.9,3-1.8
		c0.4-0.8,0.5-1.5,0.5-2.3c0-0.9-0.4-1.3-0.7-1.7c-0.1-0.1-0.2-0.3-0.3-0.5c0,0,0-0.1-0.1-0.1c-0.1-0.1-0.1-0.1,0.1-0.5
		c0.1-0.2,0.1-0.3,0.2-0.5c0.4-1.1,8.4-24.4,9.1-26.5c0.6-0.5,0.7-1.3,0.8-1.9c0-0.2,0.1-0.5,0.1-0.6c0-0.1,0.1-0.5,0.3-1.1
		l5.8,25.8c-0.1,0.1-0.3,0.2-0.3,0.4c-0.2,0.3-0.3,0.7-0.2,1.1c0.1,0.5,0.5,1,1,1.2l1.7,8.9c-0.4,0.3-0.6,0.9-0.5,1.4
		c0.1,0.6,0.5,1,1.1,1.2l18,96.3c0.9,4.7,4.6,8,8.6,8c0.4,0,0.9,0,1.3-0.1c4.5-0.8,7.4-5.7,6.4-10.9L264.7,411.1z M244.7,374.5
		C244.7,374.5,244.7,374.5,244.7,374.5c0.8-0.2,1.4-1,1.2-1.8c-0.1-0.5-0.5-0.9-0.9-1.1l-0.9-4.7l7.9-1.5l0.9,4.6
		c-0.4,0.3-0.6,0.9-0.5,1.4c0.1,0.4,0.3,0.8,0.6,1c0.3,0.2,0.6,0.3,0.9,0.3l0.3,1.8l-9.2,1.7L244.7,374.5L244.7,374.5z M243.7,361.2
		c-0.1-0.7-0.7-1.2-1.4-1.3l-1.4-6c0.2,0.2,0.4,0.4,0.6,0.6c0.7,0.5,1.6,0.6,2.6,0.4l4.3-1c0.7,1.7,1.6,2.6,2.6,2.8
		c0.1,0.7,0.3,1.5,0.4,2.1l-0.5,0.1c-0.1,0-0.1,0-0.2,0.1c-0.3-0.1-0.6-0.1-0.9,0c-1.2,0.2-2,1.4-1.8,2.6c0.1,0.6,0.4,1.1,0.9,1.4
		c0.1,0.1,0.3,0.2,0.4,0.2l-5.8,1.1l-0.3-1.7c0.1-0.1,0.2-0.2,0.2-0.3C243.7,362,243.8,361.6,243.7,361.2z M246.9,350.9l0.1,0.7
		l-3.4,0.8c-0.4,0.1-0.6,0-0.6,0c-0.2-0.1-0.3-0.6-0.4-1.1l4.3-0.9C246.9,350.6,246.8,350.7,246.9,350.9z M262.3,398.5l-4.9-26.4
		c0.7-0.3,1.1-1,1-1.7c-0.1-0.5-0.5-0.9-0.9-1.1l-1.6-8.8c0.2-0.1,0.4-0.4,0.3-0.7l-0.2-1c0-0.2-0.1-0.3-0.3-0.5
		c-0.2-0.1-0.3-0.1-0.5-0.1l-0.5,0.1l-0.4-2.1c1.4-0.8,1.5-3,1.4-4.2l0.2,0c0.1,0,0.3-0.1,0.4-0.2c2.1,10.9,5,26.3,5.7,31.7
		C262.9,391,262.9,395.3,262.3,398.5z M250.2,360.8C250.2,360.8,250.3,360.8,250.2,360.8c0.2,0,0.4,0.1,0.4,0.3c0,0.1,0,0.2-0.1,0.3
		c0,0.1-0.1,0.1-0.2,0.1c-0.2,0-0.4-0.1-0.4-0.3C249.9,361,250,360.8,250.2,360.8z M254.7,377.2l5.2,27.8c-0.8,1.1-1.7,1.9-2.4,2.5
		c-1,0.8-1.8,1.6-1.6,2.6c0.2,0.7,0.9,1.4,5.1,1.3l10.8,57.6c0.3,1.5,0,3-0.7,4.2c-0.7,1.2-1.7,1.9-2.9,2.2
		c-2.5,0.5-5.1-1.6-5.6-4.6l-17.1-91.7L254.7,377.2z M237.5,336.4l0.9,3.9c-0.1,0-0.1,0-0.2,0c-0.1,0-0.1,0-0.2,0l-0.9-3.9
		L237.5,336.4z M243.3,302.1c0.4-0.2,0.8-0.5,0.9-0.9c0.2-0.4,0.1-0.9-0.1-1.3c-0.8-1.3-2.6-1.9-3.9-2.4l-0.2-0.1
		c-0.7-0.2-2.7-0.3-3.4,0.7c-0.2,0.2-0.5,0.7-0.1,1.5c-0.2,0.6-0.4,1.1-0.7,1.7c-0.3,0.6-0.5,1.3-0.8,2c-0.1,0.4-0.2,0.8-0.3,1.1
		c-0.1,0.4-0.2,0.7-0.3,1c0,0.1-0.1,0.2-0.2,0.3c-0.1,0-0.3,0-0.4,0c-0.1,0-0.3,0-0.3,0c-0.1-0.1-0.2-0.2-0.4-0.4
		c-0.3-0.3-0.9-1-1.7-0.6c-0.6,0.3-0.8,0.9-0.9,1.5c0,0-0.1-0.1-0.1-0.1c-0.1,0-0.2-0.1-0.2-0.1c-0.1-0.4-0.2-0.9-0.3-1.4
		c-0.1-0.7,0.7-6.2,3.2-6.7l6.9-1.6c0.6-0.1,1.9,0.2,3.4,1.1c1.4,0.9,2.4,2,2.6,3l0.4,1.9c-0.2,0.2-0.3,0.4-0.2,0.7l2.7,12.1
		c0,0,0,0,0,0c0.3,1.3,1.5,7.3,3,15l-1.5,0.3l-0.7-3c-0.4-1.9-1.7-3.3-3.7-4c-1.5-0.6-3.5-0.7-5.1-0.3c-2.5,0.6-3.8,1.9-4.4,2.9
		c-0.7,1.1-0.9,2.5-0.7,3.7l0.9,3.9l-0.4,0.1l-1.5-6.6C237.5,319.8,241,309.1,243.3,302.1z M241.9,326.7c0.9-0.2,2-0.2,2.8,0.1
		c0.9,0.3,1.5,0.8,1.6,1.5l2.3,10.2c0.4,1.7-2,4.2-3.2,4.5l-2.1,0.5c-0.2-0.6-0.4-1.1-0.9-1.6l-2.9-12.8
		C239.5,328.9,239.4,327.3,241.9,326.7z M242.4,347.4l3.8-0.9c3-0.7,6.8-4.9,5.9-8.8l-1.1-4.7l1.4-0.3c0.7,3.8,1.6,8,2.4,12.2
		l-13.7,3.5C241.6,348.2,242.1,347.8,242.4,347.4z"/>
	<path id="XMLID_9_" fill="#424143" d="M498.6,298c-6.1-2.5-13-3.4-16.2-2v0c-1.2,0.5-1.8,1.3-1.9,2.3c0,0.6,0.3,1,0.5,1.1
		c0.2,0.2,0.8,0.8,1.7,3.4c0,0,0,0.1,0,0.1c5.6,11.1-2.9,33.6-12,57.4c-1.5,3.8-3.1,8.2-4.7,12.4c-0.3,0.5-0.8,1-1.3,1.3
		c-1,0.7-2.5,1-3.5,0.3c-0.4-0.3-0.6-1.2-0.7-1.8c-0.1-0.8-0.3-2-1.5-2.1l-0.3,0c-0.3,0-0.6,0.2-0.7,0.4l-0.1,0.3
		c-0.6,1.4-0.5,2.8,0.1,4c0.5,1,1.5,1.9,2.7,2.4c1.1,0.4,2.4,0.5,3.5,0.2c-0.2,0.7-0.5,1.3-0.7,2c0,0-0.1,0-0.1,0
		c0-0.1-0.1-0.3-0.1-0.4c-0.2-0.5-0.7-0.8-1.1-0.9l-0.1,0c0,0,0,0,0,0c0,0,0-0.1-0.1-0.1l-0.1-0.1c-0.1-0.1-0.2-0.2-0.3-0.2
		l-0.7-0.2c0,0-0.1,0-0.1,0l-0.1,0c0,0-0.1,0-0.1,0c-1-0.1-1.5,0.7-1.9,1.4l-0.5-0.2c0.2-1.2-0.3-1.6-0.8-1.8
		c-0.7-0.3-1.7-0.1-2.7,2.3l-0.1,0.1c-0.8,2-0.5,2.8,0,3.2c-0.6,0.2-1.2,0.8-1.9,2.4l-0.1,0.1c-0.5,1.3-0.6,2.1-0.4,2.6
		c-0.1,0-0.1-0.1-0.2-0.1c-0.6-0.3-1.6-0.1-2.6,2.1c-0.1-0.2-0.1-0.3-0.2-0.5c-4-8.7-7.8-17.2-8.2-17.9l-4.4-9.6
		c0-0.1,0-0.3-0.1-0.4l-0.1-0.2c0,0,0-0.1-0.1-0.1c0,0,0,0,0-0.1l-0.1-0.2c0,0,0-0.1-0.1-0.1c0,0,0,0,0-0.1l-0.1-0.2
		c0,0,0-0.1-0.1-0.1c0,0,0-0.1,0-0.1l-0.2-0.5c0.1-0.1,0.1-0.2,0.2-0.4c0.1-0.4,0.1-0.8,0-1.1l-1.3-2.8c-0.2-0.4-0.4-0.6-0.8-0.8
		c-0.4-0.1-0.8-0.1-1.1,0l-1.4,0.7c-0.4,0.2-0.7,0.6-0.8,1c-0.1,0-0.1,0-0.2,0l-4.2-9.4l0.6,0.8c0.7,1,1.9,1.3,2.6,0.8
		c0.3-0.2,0.5-0.5,0.5-0.9c0.1-0.6-0.1-1.2-0.6-1.8l-11.1-14.3l0.3-0.7c0.5-1.3-0.2-2.7-1.4-3.2l-0.1,0c-0.6-0.2-1.2-0.2-1.8,0
		l-3-3.8l0.1-0.2c0.1-0.1,0.1-0.3,0.1-0.4c0,0,0,0,0,0c12.2,2.2,23.3,1.7,27.5-1.4c1.1-0.8,1.7-1.7,1.9-2.8
		c0.9-5.8-12.8-11.8-26.5-14.3c-12.2-2.2-23.3-1.7-27.5,1.4c-1.1,0.8-1.7,1.7-1.9,2.8c-0.8,5.2,10.3,10.6,21.9,13.3l-0.3,0.7
		c-0.2,0.5-0.1,1.1,0.2,1.5c0.3,0.4,0.7,0.8,1.3,1l0.1,0.1c0.2,0.1,0.4,0.1,0.5,0.1l3.6,4.6c-0.2,0.6-0.1,1.3,0.2,1.9l-20.3,55.1
		c-0.8,0.3-1.4,0.9-1.7,1.7c-0.3,0.7-0.2,1.5,0.1,2.2l-9.1,24.1c-0.5-0.3-1.1-0.5-1.9-0.3c-0.1-0.1-0.3-0.1-0.4-0.1l-28.4-77.1
		c0,0,0,0,0,0c-1.1-3.7-0.8-7.6,0.9-11.1c0.1-0.2,0.1-0.3,0.1-0.5l-0.7-2.8l3.2-1l0.7,2.3c0.1,0.2,0.2,0.4,0.4,0.4
		c0.4,0.1,0.8,0.2,1.2,0.2c0.4,0,0.7-0.1,1.1-0.2c2.2-0.7,3.2-3.6,2.3-6.3c-0.9-2.8-3.4-4.4-5.6-3.7c-0.7,0.2-1.3,0.7-1.8,1.3
		c-0.1,0.2-0.2,0.4-0.1,0.6l0.7,2.2l-2.9,1l-1.9-7.3l2.5-0.8l0.7,2.3c0.1,0.2,0.2,0.4,0.4,0.4c0.4,0.1,0.8,0.2,1.2,0.2
		c0.4,0,0.7-0.1,1.1-0.2c1.1-0.4,1.9-1.2,2.3-2.5c0.4-1.2,0.4-2.5-0.1-3.8c-0.9-2.8-3.4-4.4-5.6-3.7c-0.7,0.2-1.3,0.7-1.8,1.3
		c-0.1,0.2-0.2,0.4-0.1,0.6l0.7,2.2l-2.3,0.8l-1.9-7.3l1.8-0.6l0.7,2.3c0.1,0.2,0.2,0.4,0.4,0.4c0.4,0.1,0.8,0.2,1.2,0.2
		c0.4,0,0.7-0.1,1.1-0.2c2.2-0.7,3.2-3.6,2.3-6.3c-0.4-1.3-1.2-2.4-2.3-3.1c-1.1-0.7-2.3-1-3.4-0.6c-0.7,0.2-1.3,0.7-1.8,1.3
		c-0.1,0.2-0.2,0.4-0.1,0.6l0.7,2.2l-1.6,0.5l-1.3-4.8c-0.1-0.2-0.3-0.4-0.5-0.5c-0.3-0.1-6.8-1.8-13.9,0.6
		c-7.1,2.4-10.9,7.4-11.1,7.7c-0.1,0.2-0.2,0.4-0.1,0.7l1.8,4.7l-1.2,0.4l-0.7-2.2c-0.1-0.2-0.2-0.4-0.4-0.4c-0.7-0.2-1.5-0.3-2.2,0
		c-2.2,0.7-3.2,3.6-2.3,6.3c0.8,2.3,2.7,3.9,4.6,3.9c0.4,0,0.7-0.1,1.1-0.2c0.7-0.2,1.3-0.7,1.8-1.3c0.1-0.2,0.2-0.4,0.1-0.6
		l-0.7-2.3l1.4-0.5l2.7,7l-1.7,0.6l-0.7-2.2c-0.1-0.2-0.2-0.4-0.4-0.4c-0.8-0.2-1.5-0.3-2.2,0c-2.2,0.7-3.2,3.6-2.3,6.3
		c0.8,2.3,2.7,3.9,4.6,3.9c0.4,0,0.7-0.1,1.1-0.2c0.7-0.2,1.3-0.7,1.8-1.3c0.1-0.2,0.2-0.4,0.1-0.6l-0.7-2.3l1.9-0.6l2.7,7l-2.2,0.7
		l-0.7-2.2c-0.1-0.2-0.2-0.4-0.4-0.4c-0.8-0.2-1.5-0.3-2.2,0c-1.1,0.4-1.9,1.2-2.3,2.5c-0.4,1.2-0.4,2.5,0.1,3.8
		c0.4,1.3,1.2,2.4,2.3,3.1c0.7,0.5,1.5,0.8,2.3,0.8c0.4,0,0.7-0.1,1.1-0.2c0.7-0.2,1.3-0.7,1.8-1.3c0.1-0.2,0.2-0.4,0.1-0.6
		l-0.7-2.3l2.3-0.8l0.9,2.4c0.1,0.2,0.2,0.3,0.4,0.4c2.6,1.2,4.7,3.1,6.2,5.4l26.6,85.8c0,0.1-0.1,0.2-0.1,0.3l-0.4,0.3
		c-1.8-5.6-5.8-15.6-9.6-25.3c-3.2-7.9-6.1-15.4-7.6-19.8l0.4-0.2c0.3-0.1,0.5-0.3,0.7-0.6c0.1-0.3,0.2-0.6,0-0.9l-0.3-0.9
		c-0.1-0.3-0.3-0.5-0.6-0.7c-0.1,0-0.2-0.1-0.3-0.1l-5-14.1c-0.1-0.3-0.3-0.5-0.6-0.7c-0.2-0.1-0.5-0.1-0.7-0.1l-4.3-12
		c-0.1-0.4-0.4-0.7-0.7-0.9l0,0c0.2-0.3,0-0.8-0.3-0.9l-1.8-0.9c-0.2-0.1-0.4-0.1-0.5,0c-0.2,0.1-0.3,0.2-0.4,0.4l-0.9,1.9
		c-0.2,0.3,0,0.8,0.3,0.9l0,0c0,0,0,0,0,0c-0.1,0.4-0.1,0.8,0,1.1l4.3,12c-0.5,0.3-0.7,0.9-0.5,1.4l5,14.1c-0.3,0.3-0.4,0.8-0.2,1.2
		l0.3,0.9c0.2,0.6,0.9,0.9,1.5,0.7l0.1-0.1c1.4,4.1,4.5,11.3,7.7,18.9c4.2,9.8,8.8,20.8,10.6,26.8l-10,6.2c-0.6-0.1-1.2,0-1.8,0.4
		l-1.7,1.1c-0.5,0.4-0.9,0.9-1,1.5c-0.1,0.6,0,1.3,0.4,1.9l0,0.1c0.8,1.1,2.3,1.4,3.5,0.7l1.7-1.1c0.7-0.5,1.1-1.2,1.1-2l12.8-7.9
		l7.7,24.7c0.1,0.2,0.2,0.3,0.3,0.4c0.1,0.1,0.2,0.1,0.3,0.1c0.1,0,0.1,0,0.2,0l0.8-0.3c0,0.1-0.1,0.2-0.1,0.4l-0.2,2
		c-0.1,1.3,0.8,2.5,2.2,2.7l0.1,0c0.7,0.1,1.4-0.1,1.9-0.5c0.5-0.4,0.8-1,0.9-1.6l0.2-2c0.1-0.6-0.1-1.3-0.5-1.8
		c0.3-0.3,0.5-0.6,0.7-0.9l12-4c0.2-0.1,0.3-0.2,0.4-0.4c0.1-0.2,0.1-0.4,0-0.5l-3-8.1l3.8,0.1l6.3,15.9c-0.2,0.6-0.2,1.2,0,1.8
		l0.8,1.9c0.4,1,1.4,1.6,2.4,1.6c0.3,0,0.6,0,0.8-0.1l0.1,0c0.6-0.2,1.1-0.7,1.4-1.3c0.3-0.6,0.3-1.3,0-1.9l-0.8-1.9
		c-0.3-0.8-1-1.3-1.8-1.5l-6.4-16.2c-0.1-0.3-0.3-0.5-0.6-0.6c0.1-0.3,0.1-0.6,0-0.9l-6.6-16.7c-0.1-0.1-0.1-0.3-0.2-0.4
		c0-0.1-0.1-0.2-0.1-0.3c-0.5-0.5-1.2-1-1.9-1.1l0.6-1.6c0.2,0.5,0.6,0.8,1.1,1.1c0.3,0.1,0.6,0.2,0.9,0.2c0.8,0,1.7-0.5,2-1.3
		l0.8-1.8c0.1-0.3,0-0.7-0.2-0.9c0,0,0,0,0-0.1l19.8-42.7c0.1,0,0.2,0,0.2,0c0.3,0,0.5-0.2,0.6-0.4l0.5-1.1l0.3,0.7
		c0.2,0.3,0.5,0.5,0.9,0.4l6,13.5c0.2,0.4,0.5,0.8,1,0.9c0.2,0.1,0.4,0.1,0.6,0.1c0.2,0,0.5-0.1,0.7-0.2l15.6-7
		c0.9-0.4,1.3-1.4,0.9-2.3l-6-13.4c0.1,0,0.1-0.1,0.2-0.2c0.2,0.1,0.3,0.1,0.5,0.2l0.2,0.5c0,0,0,0.1,0.1,0.1c0,0,0,0.1,0,0.1
		l0.1,0.2c0,0,0,0.1,0.1,0.1c0,0,0,0.1,0,0.1l0.1,0.2c0,0,0,0.1,0.1,0.1c0,0,0,0.1,0,0.1l0.1,0.2c0.1,0.1,0.2,0.3,0.3,0.3l4.3,9.6
		c0.3,0.7,4,8.7,7.8,17.1c2.6,5.6,5.2,11.4,7,15.4c-1,2.5-2,5-2.9,7.3l-5.8-14.9c-0.1-0.2-0.2-0.3-0.4-0.4c-0.2-0.1-0.4-0.1-0.6,0
		c-3.4,1.8-7,3.3-10.6,4.7c-0.2,0.1-0.3,0.2-0.4,0.4c-0.1,0.2-0.1,0.4,0,0.6l12,24.1c-0.4,1.1-0.8,2-1.1,2.8
		c-0.3,0.8-0.6,1.4-0.7,1.9c-0.4,0.3-0.6,0.7-0.7,1.1c-0.1,0.1-0.1,0.3-0.2,0.5c0,0.1-0.1,0.3-0.1,0.4l-3.3,8
		c-0.1,0.3-0.3,0.6-0.5,1.1c-0.3,0.5-0.6,1-0.7,1.5c-0.2,0.5-0.3,0.9-0.2,1.3l-3.4,8.2c-0.2,0.4-0.5,1-0.9,1.6l-0.1,0.2
		c-0.2,0.1-0.5,0.2-0.7,0.4c-0.7,0.5-1.2,1.2-1.6,2l-0.1,0.2c0,0.1-0.1,0.2-0.1,0.4c-0.1,0.1-0.2,0.2-0.3,0.2l-0.1,0.1
		c-0.1,0.1-0.1,0.1-0.1,0.2l-0.4,1c0,0,0,0.1,0,0.1c-0.4,1.6,1.2,2.6,1.9,3c0.5,0.3,2,0.7,2.4,0.8c0.3,0.1,0.6,0.1,0.9,0.1
		c1.1,0,1.8-0.5,2.1-1.5l0.3-0.7c0,0,0-0.1,0-0.1c0.1-0.2,0.1-0.5,0.1-0.7c0-0.1,0.1-0.2,0.1-0.3l0.1-0.2c0.3-0.6,0.4-1.3,0.3-1.9
		c0.1-0.4,0.2-0.8,0.3-1.3c0.2-0.7,0.3-1.3,0.5-1.7l3.4-8.3c0.4-0.3,0.7-0.8,0.9-1.4c0.2-0.4,0.3-0.8,0.4-1.3l-0.7-0.2l0.7,0.2
		c0.1-0.3,0.2-0.5,0.2-0.7c1.3,1.2,3.2,2.4,6.1,3.7c9,4,11.7,0.6,14.5-4.8c2.3-4.4,8.1-17.8,9.9-22.1c0.1-0.1,0.2-0.1,0.2-0.2
		c0.4-0.3,1-0.7,1.4-1.4c0.4-0.8,1.4-3.1,2.6-5.7c0.9-2.1,1.9-4.2,2.6-5.8c0.3-0.3,0.4-0.7,0.4-1.1l3,1.2c0.2,0.5,0.6,0.8,1.1,1
		c0,0,0.1,0,0.1,0c0.1,0.1,0.2,0.2,0.4,0.3c0,0,0,0,0.1,0l0.5,0.2c1.4,0.6,2.2-0.9,2.5-1.6c0.1-0.3,0.3-0.8,0.6-1.3
		c0.1-0.2,0.2-0.6,0.3-0.9c0-0.1,0.1-0.3,0.1-0.4c0.1-0.4,0.3-0.9,0.3-1.4c0.4-0.4,0.7-0.9,0.9-1.4c0.1-0.3,0.3-0.8,0.6-1.3
		c0.1-0.2,0.2-0.6,0.3-0.9c0-0.2,0.1-0.3,0.1-0.4c0.2-0.5,0.3-1.1,0.2-1.6c0.4-0.4,0.7-0.9,0.9-1.3c0.1-0.3,0.3-0.8,0.6-1.3
		c0.1-0.2,0.2-0.6,0.3-0.9c0-0.2,0.1-0.3,0.1-0.4c0.2-0.8,0.6-1.9-0.3-2.6c0,0-0.1-0.1-0.1-0.1l-0.7-0.3c-0.1-0.1-0.3-0.1-0.4-0.1
		l-0.1,0c0,0-0.1,0-0.1,0c0,0,0,0,0,0l-0.1,0c-0.3-0.1-0.9-0.3-1.4-0.1c-0.2,0.1-0.3,0.2-0.4,0.3l-3.5-1.5l1.7-4.2
		c1.5-3.7,3.2-7.8,4.7-11.6c0.1,0,0.1,0,0.2,0c0.1,0.1,0.1,0.1,0.2,0.2c0.2,0.2,0.3,0.3,0.5,0.4l0.1,0c0.7,0.3,1.5,0,1.9-0.7
		c0.2-0.2,0.3-0.4,0.5-0.7c0.1-0.2,0.1-0.4,0.1-0.6l0.9-2.3c0.1-0.1,0.2-0.3,0.3-0.4c0.1-0.1,0.2-0.2,0.3-0.4c0-0.1,0.1-0.3,0.1-0.5
		l1.4-3.3c0.4-0.4,0.6-0.6,0.8-0.9c0,0,0.1,0,0.1-0.1c0.2-0.1,0.3-0.2,0.4-0.4c0.1-0.3,0.1-0.7-0.2-1c0,0,0-0.1-0.1-0.1l0.9-2.4
		c0,0,0,0,0,0c0.7-0.6,0.9-0.9,1.2-1.3c0,0,0,0,0-0.1c0,0,0.1-0.1,0.1-0.1l0-0.1c0.1-0.1,0.1-0.2,0.1-0.3c0-0.2,0-0.6-0.1-0.9
		c-0.2-0.4-0.9-0.7-1.6-1l0.2-1.9c0,0,0,0,0-0.1v-0.1c0,0,0,0,0-0.1c0-0.2,0-0.4-0.1-0.6c0.1-0.1,0.2-0.3,0.3-0.5
		c0.1-0.1,0.2-0.2,0.2-0.3c0.5-1.3-0.1-2.7-1.4-3.2c-0.2-0.4-0.4-0.8-0.6-1.1l0.1-2c0.3-0.2,0.5-0.6,0.7-1c0.5-1.1,0-2.4-1.1-3
		c-0.5-2.2-1.3-3.7-2.4-4.5c-0.8-0.6-1.7-0.7-2.8-0.5l-0.5,0.1c-0.2,0.1-0.4,0.2-0.5,0.4c-0.4-0.2-0.8-0.3-1.2-0.5
		c-1.5-0.6-2.9-0.9-4.2-1c6.6-13.8,12.3-21.6,18-24.3c3.5-1.1,4.5-1.3,4.5-1.3c0.1,0,0.2,0,0.2-0.1l0.1-0.1c0.2-0.1,0.3-0.4,0.3-0.6
		l0-0.1C512.3,307.4,507,301.5,498.6,298z M493.2,349.2c-2.8,0-3.9,2.6-5.3,5.7c-0.3,0.6-1.1,2.6-2.5,6.2c-0.9,2.2-1.9,4.8-3,7.5
		l-0.1,0.3c-0.2,0.4-0.6,1.4-1,2.4l-1,1.8c-0.4-0.4-0.8-0.7-1.3-0.9c-0.9-0.4-1.9-0.4-2.7,0c-0.8,0.4-1.5,1-1.8,1.9
		c-0.7,1.7,0.2,3.7,1.9,4.5c0.6,0.2,1.2,0.3,1.8,0.2l-0.6,2.3c-0.4,1-0.7,1.9-1.1,2.8c0,0.1-0.1,0.2-0.1,0.3l-0.3,0.7l-6.6-2.7
		c0.5-1.3,1.1-2.7,1.7-4l0-0.1c1.8-4.4,3.6-8.8,5.3-13.1c2.9-7.2,5.8-14.6,8.8-21.2c1.7-1.6,3.2-1.1,5.2-0.4c1.3,0.4,2.1,1.1,2.5,2
		C493.5,346.2,493.5,347.5,493.2,349.2z M458.3,435.2c-0.1-0.2-0.2-0.3-0.4-0.4c-0.2-0.1-0.4-0.1-0.6,0l-5,2.2
		c-0.2,0.1-0.3,0.2-0.4,0.4c-0.1,0.2,0,0.4,0.1,0.6l3,5.5c-1,0-2-0.2-3.2-0.7c0,0,0,0,0,0l-0.5-0.2c-5.1-2.4-5.3-2.5-3.2-7.6
		c0.1-0.3,0.3-0.6,0.4-1l1.4,2.8c0.1,0.2,0.4,0.4,0.6,0.4c0.1,0,0.2,0,0.3-0.1l7.5-3.3c0.3-0.2,0.5-0.5,0.4-0.9l-4.8-12.3
		c2.3-5.8,5.4-13.5,8.8-21.9l0.6,0.2c0.3,1.8,2.4,2.3,3.8,2.6c0.4,0.1,1.1,0.3,1.4,0.4c0,0.1-0.1,0.2-0.3,0.4
		c-0.2,0.1-1,0.3-1.4,0.4c-1.4,0.3-3,0.6-3.5,1.9c-0.2,0.4-0.2,0.8-0.1,1.2l0.1,0.4c0,0.2,0.2,0.4,0.4,0.5c0.2,0.1,0.4,0.1,0.6,0
		l0.7-0.3c0.1,0,0.2-0.1,0.3-0.2l0.1-0.1c0.3-0.4,0.8-0.6,1.5-0.7c0,0.8-0.2,1.7-0.5,2.5c-0.1,0.3-0.2,0.5-0.2,0.8l-0.1,0.4
		c0,0.2,0,0.3,0,0.5c-0.6,1.4-1.3,3-1.6,3.9c-0.1,0.3-0.2,0.5-0.2,0.6c-1.3,4,1.7,5.7,4,6.6c0.1,0,0.1,0,0.2,0.1
		c-2.9,7-5.9,14.4-7.3,17.3c-0.4,0.8-0.7,1.4-1.1,2L458.3,435.2z M469.4,413.4c0.1-0.4,0.3-0.8,0.5-1.2l0.3-0.8
		c0.1-0.3,0.5-1.1,1-2.2l0-0.1c0.9-1.9,2-4.4,2.6-6.1l1.5,0.6c-0.9,2-2.3,5.5-4.6,11.3l-0.6,1.5c-0.1,0-0.3-0.1-0.4-0.2
		C468.8,415.9,468.5,415.6,469.4,413.4z M457,382c0.1-0.1,0.1-0.2,0.2-0.3l0.5,0.2c0,0,0,0,0,0c-0.1,0.4-0.3,0.9-0.3,1.4
		c-0.4,0.3-0.7,0.7-1,1.2c0.1-0.9-0.1-1.4-0.5-1.7C456.3,382.7,456.6,382.5,457,382z M451.9,392.5l1.1,0.4c-0.2,0.9-0.5,2.2,0.8,2.6
		l0.5,0.2c0,0,0.1,0,0.1,0c0.2,0.1,0.4,0.1,0.7,0l0,0c0.2,0.1,0.8,0.3,1.4,0c0.1,0.1,0.3,0.2,0.4,0.2l0.4,0.2
		c-0.7,1.8-1.4,3.5-2.1,5.2c-1.1-2.4-2.4-5.3-3.8-8.3C451.6,393,451.8,392.8,451.9,392.5z M453.3,388.5c0.3,0.1,0.6,0.1,1,0
		c0.3-0.1,0.6-0.4,0.9-0.8c-0.1,0.3-0.2,0.7-0.2,1.1c-0.4,0.3-0.7,0.9-0.9,1.3l0,0l-1-0.4c0.1-0.6,0.1-1,0-1.3
		C453.1,388.4,453.2,388.4,453.3,388.5z M385.5,419.9c0-0.1,0.1-0.1,0.1-0.2l6.1,15.4l-3.7-0.1l-3.2-8.8c0.1-0.3,0.1-0.6,0.2-0.9
		c0.3-1.5,0.6-2.8,0.7-3.3C385.8,421.3,385.7,420.6,385.5,419.9z M325.4,304.1c-0.2-0.5,0.2-1.1,0.8-1.3c0.2-0.1,0.3-0.1,0.5-0.1
		c0.2,0,0.3,0,0.5,0.1c0.2,0.1,0.4,0.2,0.5,0.5l0.5,1.4l-2.3,0.8L325.4,304.1z M338.4,299.7c-0.1-0.3,0-0.5,0.1-0.7
		c0.2-0.3,0.4-0.5,0.8-0.6c0.1,0,0.3-0.1,0.4-0.1c0.2,0,0.4,0,0.5,0.1c0.2,0.1,0.4,0.3,0.5,0.6l0.4,1.4l-2.3,0.8L338.4,299.7z
		 M347.9,325.1c-0.2,0.3-0.4,0.5-0.8,0.5c-0.5,0.1-1,0-1.3-0.3l2.2-0.7C348,324.8,348,324.9,347.9,325.1z M344.8,322.1l-2.1-7.2
		l2.3-0.8l2.1,7.2L344.8,322.1z M341.8,311.6l-2.1-7.2l2.3-0.8l2.1,7.2L341.8,311.6z M329.4,307.9l2.7,7l-2.3,0.8l-2.7-7
		L329.4,307.9z M333.2,318.1l2.7,7l-2.3,0.8l-2.7-7L333.2,318.1z M337,328.3c0,0.4-0.3,0.8-0.8,1c-0.5,0.2-1.1,0.1-1.3-0.3
		L337,328.3z M413.8,358c-0.1,0-0.4,0.1-0.4,0.1c-0.1,0-0.2-0.2-0.3-0.3c-0.1-0.2-0.2-0.4-0.4-0.5c-0.2-0.2-0.4-0.3-0.6-0.4
		c-0.1-0.1-0.3-0.2-0.3-0.3c0-0.1,0-0.3,0-0.4c0-0.2,0.1-0.4,0.1-0.7c0-0.2-0.1-0.5-0.1-0.7c0-0.1-0.1-0.4-0.1-0.4
		c0-0.1,0.2-0.2,0.3-0.3c0.2-0.1,0.4-0.2,0.5-0.4c0.2-0.2,0.3-0.4,0.4-0.6c0.1-0.1,0.2-0.3,0.3-0.3c0,0,0,0,0.1,0
		c0.1,0,0.3,0,0.4,0.1c0.2,0,0.4,0.1,0.7,0.1c0,0,0.1,0,0.1,0l-0.5,1.4c-0.1,0.2-0.1,0.4,0,0.5c0.1,0.2,0.2,0.3,0.4,0.4l0.3,0.1
		c0.1,0,0.2,0,0.3,0c0.3,0,0.5-0.2,0.7-0.4l0.5-1.4c0,0,0,0.1,0.1,0.1c0.2,0.2,0.4,0.3,0.6,0.4c0.1,0.1,0.3,0.2,0.3,0.3
		c0,0.1,0,0.3,0,0.4c0,0.2-0.1,0.4-0.1,0.7c0,0.2,0.1,0.5,0.1,0.7c0,0.1,0.1,0.4,0.1,0.4c0,0.1-0.2,0.2-0.3,0.3
		c-0.2,0.1-0.4,0.2-0.5,0.4c-0.2,0.2-0.3,0.4-0.4,0.6c-0.1,0.1-0.2,0.3-0.3,0.3c-0.1,0-0.3,0-0.4,0c-0.2,0-0.4-0.1-0.7-0.1
		C414.3,357.9,414,357.9,413.8,358z M419.4,351.7c0.1-0.2,0.2-0.4,0.3-0.6c0.1-0.2,0.1-0.5,0.1-0.7c0-0.1,0-0.4,0.1-0.4
		c0.1,0,0.3-0.1,0.4-0.1c0.2,0,0.4-0.1,0.6-0.2c0.2-0.1,0.4-0.2,0.6-0.4c0.1-0.1,0.3-0.2,0.4-0.2c0,0,0,0,0,0c0.1,0,0.3,0.1,0.4,0.2
		c0.2,0.1,0.4,0.2,0.6,0.3c0.2,0.1,0.5,0.1,0.7,0.1c0.1,0,0.4,0,0.4,0.1c0,0.1,0.1,0.3,0.1,0.4c0.1,0.2,0.1,0.4,0.2,0.6
		c0,0,0,0.1,0.1,0.1l-1.5,0.1c-0.2,0-0.4,0.1-0.5,0.2c-0.1,0.1-0.2,0.3-0.2,0.5l0,0.3c0,0.4,0.3,0.7,0.7,0.7c0,0,0,0,0,0l1.5-0.1
		c0,0,0,0.1,0,0.1c-0.1,0.2-0.1,0.5-0.1,0.7c0,0.1,0,0.4-0.1,0.4c-0.1,0-0.3,0.1-0.4,0.1c-0.2,0-0.4,0.1-0.6,0.2
		c-0.2,0.1-0.4,0.2-0.5,0.4c-0.1,0.1-0.3,0.2-0.4,0.2c-0.1,0-0.3-0.1-0.4-0.2c-0.2-0.1-0.4-0.2-0.6-0.3c-0.2-0.1-0.5-0.1-0.7-0.1
		c-0.1,0-0.4,0-0.4-0.1c0-0.1-0.1-0.3-0.1-0.4c-0.1-0.2-0.1-0.4-0.2-0.6c-0.1-0.2-0.2-0.4-0.4-0.6c-0.1-0.1-0.2-0.3-0.2-0.4
		C419.2,352,419.3,351.8,419.4,351.7z M423.5,344.3l-12.3,5.5l5.6-15.4l7.6,9.8C424.1,344.1,423.8,344.1,423.5,344.3z M395.6,392.1
		c0.5-0.3,1-0.8,1.2-1.4c0.2-0.6,0.2-1.3,0.1-1.9l11.7-31.8l1.4,3.2l-2.9,6.6c-0.1,0.2-0.1,0.4,0,0.5c0,0.1,0.1,0.2,0.1,0.2
		c0,0,0,0,0,0l-18.6,43.2c0,0,0,0,0,0.1c0,0,0,0,0,0L395.6,392.1z M487,408.5C487,408.5,487,408.5,487,408.5L487,408.5L487,408.5z"
		/>
	<path id="XMLID_8_" fill="#424143" d="M378.1,396.9c0.5,0.6,1.2,1,1.9,1c0.2,0,0.4,0,0.6-0.1c1.1-0.3,2.1-1.4,2.3-2.7
		c0-0.3,0-0.6,0-0.8c0-0.1,0-0.4,0-0.4c0.2-0.5,0.4-0.9,0.6-1.4c0.1-0.2,0.2-0.4,0.2-0.5l4.1-9.2l-1.9,8.8c0,0.1,0,0.2,0,0.3
		c0,0.1,0,0.3-0.1,0.3c-1.2,1.3-1.9,3.3-0.7,4.8c0,0.1,0.1,0.1,0.1,0.2c0.5,0.4,1,0.6,1.6,0.6c0.3,0,0.6-0.1,0.9-0.2
		c1-0.5,1.7-1.7,1.7-3c0-0.3-0.1-0.5-0.2-0.8c0-0.1-0.1-0.3-0.1-0.3c0.1-0.5,0.2-0.9,0.3-1.4c0-0.2,0.1-0.4,0.1-0.5l5.8-23.6
		c0.1,0.1,0.2,0.1,0.3,0.1c0,0,0,0,0.1,0c0.2,0,0.3-0.1,0.4-0.2l0.2,0l0-0.1c0-0.1,0-0.1,0-0.2c0-0.1,0-0.1,0.1-0.2l0-0.4v0
		c0-0.4-0.3-0.7-0.6-0.8c0,0-0.1,0-0.1,0l0.6-2.6l14.6-32.6c0.5-1.1,0.6-2.2,0.2-3.1c-0.3-0.7-0.8-1.2-1.5-1.4
		c-0.8-0.3-1.8-0.2-2.5,0.3c-0.9,0.6-1.3,1.6-1.6,2.5c-0.1,0.2-0.2,0.4-0.2,0.6l-2,4.7l0.9-3.8c0.3-1.1,0.2-2.2-0.3-2.9
		c-0.4-0.6-0.9-1-1.7-1.1c-0.8-0.2-1.7,0.1-2.3,0.7c-0.7,0.7-0.9,1.7-1.1,2.6c0,0.2-0.1,0.4-0.1,0.6l-6.5,30.4l-0.1,0.3c0,0,0,0,0,0
		l-0.2,0.4l-12.3,29.7c0,0.1-0.1,0.2-0.1,0.3c0,0.1-0.1,0.3-0.1,0.4c-1.5,1.1-2.7,3.1-1.6,4.8C378,396.7,378,396.8,378.1,396.9z"/>
	<path id="XMLID_7_" fill="#424143" d="M467.6,344.1c0.7,0.4,1.5,0.5,2.5,0.5c0.2,0,0.4,0,0.6,0c0.6,0,1.8-0.2,2.8-0.8
		c1-0.6,1.5-1.5,1.5-2.6c-0.1-2-2.7-6.6-4.8-6.6c0,0-0.1,0-0.1,0c-2.1,0.1-4,5.4-3.9,7.1C466.2,342.7,466.7,343.6,467.6,344.1z"/>
	<path id="XMLID_6_" fill="#424143" d="M465,353.8c0.9,0.7,2.2,1.3,3.2,1.3c0.3,0,0.5,0,0.7-0.1c1.1-0.5,1.4-2.3,1.5-3.8
		c0.1-1.4,0-3.3-0.4-4.2c-0.4-1-1.2-1.5-2.2-1.7c-0.9-0.1-1.9,0.1-3.1,0.6c-2.5,1.2-3.5,3-2.7,4.7
		C462.5,351.8,463.9,353.1,465,353.8z"/>
	<path id="XMLID_5_" fill="#424143" d="M461.2,365.8C461.2,365.8,461.2,365.8,461.2,365.8c2,0,6.9-2.4,6.9-4.5
		c0-2.1-5.1-4.3-6.9-4.3c0,0,0,0,0,0c-0.9,0-3.1,0.4-3.1,4.4C458.1,364.1,459.3,365.8,461.2,365.8z"/>
	<path id="XMLID_4_" fill="#424143" d="M444.3,387c-0.1-0.4-0.3-0.8-0.5-1.2c-1.1-2.6-3.2-4.5-5.7-5.6c-2.6-1-5.4-1-7.9,0.1
		c-5.1,2.3-7.4,8.4-5.1,13.7c0.2,0.4,0.4,0.8,0.6,1.2c0.1,0.2,0.4,0.3,0.6,0.3c0.1,0,0.1,0,0.2,0c6.1-1.8,12-4.4,17.4-7.7
		C444.3,387.6,444.4,387.3,444.3,387z"/>
	<path id="XMLID_3_" fill="#424143" d="M432,400.8c0.1,0.2,0.3,0.3,0.5,0.3c0.1,0,0.2,0,0.2,0c3.9-1.3,7.7-3,11.3-5
		c0.3-0.1,0.4-0.4,0.4-0.7c-0.1-0.9-0.1-1.9,0.1-2.8c0.2-1,0.3-2,0.3-3c0-0.2-0.2-0.5-0.4-0.6c-0.2-0.1-0.5-0.1-0.7,0
		c-5,3-10.5,5.4-16.1,7.1c-0.2,0.1-0.4,0.3-0.5,0.5c-0.1,0.2,0,0.5,0.2,0.7c0.7,0.7,1.5,1.3,2.4,1.8
		C430.6,399.5,431.4,400.1,432,400.8z"/>
</g>
</svg>
