<?xml version="1.0" encoding="UTF-8" standalone="no"?>
<!-- Created with Inkscape (http://www.inkscape.org/) -->

<svg
   xmlns:dc="http://purl.org/dc/elements/1.1/"
   xmlns:cc="http://creativecommons.org/ns#"
   xmlns:rdf="http://www.w3.org/1999/02/22-rdf-syntax-ns#"
   xmlns:svg="http://www.w3.org/2000/svg"
   xmlns="http://www.w3.org/2000/svg"
   xmlns:sodipodi="http://sodipodi.sourceforge.net/DTD/sodipodi-0.dtd"
   xmlns:inkscape="http://www.inkscape.org/namespaces/inkscape"
   width="1000"
   height="1000"
   viewBox="0 0 264.58333 264.58334"
   id="svg4332"
   version="1.1"
   inkscape:version="0.91+devel r13925"
   sodipodi:docname="joni-mitchell.svg"
   inkscape:export-filename="/Users/agarone/Documents/git/art/joni-mitchell/joni-mitchell-transparent.png"
   inkscape:export-xdpi="96"
   inkscape:export-ydpi="96">
  <defs
     id="defs4334" />
  <sodipodi:namedview
     id="base"
     pagecolor="#ffffff"
     bordercolor="#666666"
     borderopacity="1.0"
     inkscape:pageopacity="0.0"
     inkscape:pageshadow="2"
     inkscape:zoom="0.94899997"
     inkscape:cx="500.00002"
     inkscape:cy="689.67332"
     inkscape:document-units="px"
     inkscape:current-layer="layer1"
     showgrid="false"
     units="px"
     showguides="true"
     inkscape:guide-bbox="true"
     inkscape:window-width="1920"
     inkscape:window-height="1151"
     inkscape:window-x="0"
     inkscape:window-y="1"
     inkscape:window-maximized="1">
    <sodipodi:guide
       position="264.58333,0"
       orientation="1,0"
       id="guide4340"
       inkscape:label=""
       inkscape:color="rgb(0,0,255)" />
    <sodipodi:guide
       position="0,0"
       orientation="1,0"
       id="guide4342"
       inkscape:label=""
       inkscape:color="rgb(0,0,255)" />
    <sodipodi:guide
       position="0,0"
       orientation="0,1"
       id="guide4344"
       inkscape:label=""
       inkscape:color="rgb(0,0,255)" />
    <sodipodi:guide
       position="0,264.58333"
       orientation="0,1"
       id="guide4346"
       inkscape:label=""
       inkscape:color="rgb(0,0,255)" />
  </sodipodi:namedview>
  <metadata
     id="metadata4337">
    <rdf:RDF>
      <cc:Work
         rdf:about="">
        <dc:format>image/svg+xml</dc:format>
        <dc:type
           rdf:resource="http://purl.org/dc/dcmitype/StillImage" />
        <dc:title></dc:title>
      </cc:Work>
    </rdf:RDF>
  </metadata>
  <g
     inkscape:label="BG"
     inkscape:groupmode="layer"
     id="layer1"
     transform="translate(0,-32.41665)"
     style="display:none">
    <rect
       style="opacity:1;fill:#ffffff;fill-opacity:1;stroke:none;stroke-width:11.60810661;stroke-miterlimit:4;stroke-dasharray:none;stroke-opacity:1"
       id="rect5606"
       width="264.58334"
       height="264.58334"
       x="0"
       y="32.416653" />
  </g>
  <g
     inkscape:groupmode="layer"
     id="layer5"
     inkscape:label="Coat">
    <path
       style="fill:#000000;fill-opacity:1;fill-rule:evenodd;stroke:none;stroke-width:0.26458332px;stroke-linecap:butt;stroke-linejoin:miter;stroke-opacity:1"
       d="m 161.69806,105.29069 c 0,0 21.38156,6.41447 29.13238,8.8199 7.75082,2.40542 9.08716,6.68174 18.17433,8.01808 9.08716,1.33635 21.64883,6.1472 32.07234,13.36348 10.42351,7.21628 23.50621,22.98518 23.50621,22.98518 l 0,106.106 -234.114594,0 c 0,0 6.681737,-8.01809 6.681737,-18.17433 0,-10.15624 2.405427,-26.72695 6.414468,-40.89223 4.009044,-14.16529 6.949009,-33.14143 12.828939,-46.77217 5.879928,-13.63075 46.5049,-43.0304 65.7483,-44.63401 19.24341,-1.60362 39.55589,-8.8199 39.55589,-8.8199 z"
       id="path4949"
       inkscape:connector-curvature="0"
       sodipodi:nodetypes="cssscccssssc" />
  </g>
  <g
     inkscape:groupmode="layer"
     id="layer2"
     inkscape:label="Head"
     style="display:inline;opacity:1">
    <path
       style="fill:#080808;fill-opacity:1;fill-rule:evenodd;stroke:#000000;stroke-width:0.26458332px;stroke-linecap:butt;stroke-linejoin:miter;stroke-opacity:1"
       d="m 169.58251,98.742591 c 0,0 8.41899,2.672699 15.23437,-0.53454 6.81537,-3.207234 5.87993,-13.49711 4.00904,-17.773422 -1.87089,-4.276312 -6.5481,-9.888974 -7.48355,-13.497113 -0.93544,-3.608139 -4.81085,-13.49711 -11.09168,-22.18337 -6.28084,-8.68626 -17.50616,-19.243405 -31.40417,-20.178849 -13.89802,-0.935443 -13.76438,5.07812 -20.57976,8.285355 -6.81537,3.207234 -9.88897,4.276312 -11.62622,12.02713 -1.73725,7.750815 -1.06908,16.03617 1.73725,19.911578 2.80633,3.875408 53.98845,31.270535 61.20472,33.943231 z"
       id="path4883"
       inkscape:connector-curvature="0" />
    <path
       style="display:inline;opacity:1;fill:#1a1a1a;fill-opacity:1;fill-rule:evenodd;stroke:none;stroke-width:0.26458332px;stroke-linecap:butt;stroke-linejoin:miter;stroke-opacity:1"
       d="m 108.37526,59.721419 -12.962522,11.225154 1.336355,9.755475 -5.078243,5.745904 2.271694,3.207557 -22.985158,15.635221 32.205784,30.60227 c 0,0 5.641,-20.25634 15.79821,-20.64284 16.42627,-0.62506 49.17347,-3.72654 49.17347,-3.72654 L 166.22747,76.165947 C 143.17599,56.946793 116.05369,54.056576 108.37526,59.721419 Z"
       id="path4914"
       inkscape:connector-curvature="0"
       sodipodi:nodetypes="cccccccsccc" />
    <path
       style="fill:#454545;fill-opacity:1;fill-rule:evenodd;stroke:none;stroke-width:0.26458332px;stroke-linecap:butt;stroke-linejoin:miter;stroke-opacity:1"
       d="m 166.10801,82.439149 c 0,0 -1.87089,7.349911 -2.00452,9.621703 -0.13364,2.271791 -0.93545,8.352168 -1.93771,12.227578 -1.00226,3.87541 -4.87767,8.21854 -9.55488,10.82442 -4.67722,2.60588 -9.95579,5.67948 -14.83346,5.67948 -4.87767,0 -9.75534,-0.86863 -11.49259,-2.60588 -1.73725,-1.73725 -9.08716,-9.62171 -10.28988,-13.16303 -1.20271,-3.54132 -0.86862,-10.423508 -1.13589,-11.024863 -0.26727,-0.601359 -4.40995,-2.138156 -4.81085,-5.078122 -0.40091,-2.939965 -0.46773,-4.944485 0.73499,-7.483546 1.20271,-2.539061 2.33861,-10.223061 2.40542,-12.828937 0.0668,-2.605878 0.26727,-8.285355 1.00227,-10.490329 0.73498,-2.204974 2.93996,-5.813113 5.0113,-7.750818 2.07134,-1.937702 10.69078,-4.543581 15.56845,-3.608139 4.87767,0.935445 33.67596,12.494853 31.33735,35.680483 z"
       id="path4795"
       inkscape:connector-curvature="0" />
    <path
       style="fill:#3b3b3b;fill-opacity:1;fill-rule:evenodd;stroke:none;stroke-width:0.26458332px;stroke-linecap:butt;stroke-linejoin:miter;stroke-opacity:1"
       d="m 125.6835,104.18821 c 0,-0.66818 6.61491,-4.04245 7.48354,-4.04245 0.86863,0 2.00452,0.96885 2.60588,0.93544 0.60136,-0.0334 1.97111,-1.03567 2.50565,-1.03567 0.53454,0 9.05376,3.77518 9.05376,4.40995 0,0.63476 -1.83748,0.23386 -3.14042,0.96885 -1.30294,0.73499 -4.54358,2.7061 -7.41673,2.7061 -2.87315,0 -5.34539,-0.53454 -6.88219,-1.87088 -1.5368,-1.33635 -3.34087,-2.50566 -4.20949,-2.07134 z"
       id="path4799"
       inkscape:connector-curvature="0" />
    <path
       style="fill:#868686;fill-opacity:1;fill-rule:evenodd;stroke:none;stroke-width:0.26458332px;stroke-linecap:butt;stroke-linejoin:miter;stroke-opacity:1"
       d="m 128.25596,104.48888 c 0,-0.46772 2.6727,-0.90203 7.78423,-0.76839 5.11153,0.13363 8.98694,0.50112 8.92012,1.03567 -0.0668,0.53453 -1.97111,0.8018 -3.30746,1.63702 -1.33635,0.83522 -2.90656,1.5368 -4.9779,1.46998 -2.07133,-0.0668 -3.24064,-0.16704 -4.20949,-0.63476 -0.96885,-0.46772 -2.63929,-1.20272 -4.2095,-2.73952 z"
       id="path4803"
       inkscape:connector-curvature="0" />
    <path
       style="fill:#cbcbcb;fill-opacity:1;fill-rule:evenodd;stroke:none;stroke-width:0.26458332px;stroke-linecap:butt;stroke-linejoin:miter;stroke-opacity:1"
       d="m 131.79728,104.95661 c -0.0334,-0.33409 8.88672,-0.23386 8.88672,-0.0334 0,0.20045 -2.93997,0.46772 -4.44336,0.43431 -1.50339,-0.0334 -4.37654,-0.20045 -4.44336,-0.4009 z"
       id="path4797"
       inkscape:connector-curvature="0" />
    <path
       style="fill:#868686;fill-opacity:1;fill-rule:evenodd;stroke:none;stroke-width:0.26458332px;stroke-linecap:butt;stroke-linejoin:miter;stroke-opacity:1"
       d="m 129.69254,102.91868 c 0,-0.30068 2.37201,-0.66818 2.37201,-1.10249 0,-0.43431 -1.67043,0.10023 -1.67043,-0.0668 0,-0.16704 1.9377,-1.23612 2.80633,-1.33635 0.86862,-0.10022 1.83748,0.96886 2.50565,0.96886 0.66818,0 1.67044,-1.10249 2.37202,-1.10249 0.70158,0 6.58151,2.57247 6.58151,2.83974 0,0.26727 -4.2429,-1.50339 -4.2429,-1.1359 0,0.3675 2.67269,1.23612 2.60587,1.73726 -0.0668,0.50112 -2.53906,-0.83522 -3.14041,-0.83522 -0.60136,0 -3.14042,0.93544 -3.14042,0.16704 0,-0.7684 -0.53454,0 -0.66817,0 -0.13364,0 -1.00226,-0.90203 -1.00226,-0.4009 0,0.50113 0.63476,0.50113 0.33408,0.63476 -0.30068,0.13364 -5.74629,-0.0334 -5.71288,-0.36749 z"
       id="path4801"
       inkscape:connector-curvature="0" />
    <path
       style="fill:none;fill-rule:evenodd;stroke:none;stroke-width:0.26458332px;stroke-linecap:butt;stroke-linejoin:miter;stroke-opacity:1"
       d="m 112.38684,85.512748 c 0.20045,0 7.61718,9.287615 7.75081,10.924643 0.13364,1.637024 -0.13363,4.810849 -0.96885,4.911079 -0.83522,0.10022 -3.87541,-6.949009 -4.47677,-9.02035 -0.60135,-2.071338 -1.1693,-5.111527 -2.30519,-6.815372 z"
       id="path4807"
       inkscape:connector-curvature="0" />
    <path
       style="fill:#a1a1a1;fill-opacity:1;fill-rule:evenodd;stroke:none;stroke-width:0.26458332px;stroke-linecap:butt;stroke-linejoin:miter;stroke-opacity:1"
       d="m 135.54954,90.136987 c 1.6303,0 2.09426,-0.882465 2.16108,-2.352448 0.0668,-1.469982 -0.0334,-7.216277 0.60136,-9.354433 0.63477,-2.138156 2.07134,-7.38332 3.54132,-9.15398 1.46998,-1.770661 3.00091,-2.898118 4.10927,-3.270694 1.40554,-0.47247 4.20949,-0.537899 4.20949,-1.005618 0,-0.467723 -15.50163,-11.158503 -20.51293,-13.330068 -5.01131,-2.171565 -8.95353,-1.202714 -10.18965,2.806329 -1.23612,4.009044 -1.36976,9.387843 -2.03793,11.459181 -0.66818,2.071338 -1.97112,3.541321 -1.67044,4.142676 0.30068,0.601359 2.90656,-5.412208 6.5147,-5.078118 3.60814,0.334086 10.59055,1.77066 11.99372,5.011303 1.40316,3.240643 1.23612,4.543581 0.83521,7.550364 -0.4009,3.006781 -1.45949,6.695167 -1.43657,8.92012 0.0102,0.987058 0.81565,3.588568 1.88137,3.655386 z"
       id="path4809"
       inkscape:connector-curvature="0"
       sodipodi:nodetypes="ccssssssssssssc" />
    <path
       inkscape:connector-curvature="0"
       id="path4854"
       d="m 147.31622,75.453496 c 0,-0.165365 0.89769,-1.748139 4.37035,-1.819011 3.47265,-0.07087 4.96094,2.055247 4.96094,2.338729 0,0.28348 -2.78758,1.275667 -4.34673,1.252045 -1.55915,-0.02363 -4.79557,-1.13393 -4.98456,-1.771763 z"
       style="opacity:1;fill:#afafaf;fill-opacity:1;fill-rule:evenodd;stroke:none;stroke-width:0.26458332px;stroke-linecap:butt;stroke-linejoin:miter;stroke-opacity:1" />
    <path
       style="fill:#a1a1a1;fill-opacity:1;fill-rule:evenodd;stroke:none;stroke-width:0.26458332px;stroke-linecap:butt;stroke-linejoin:miter;stroke-opacity:1"
       d="m 114.62522,75.924454 c 1.13589,-0.334087 2.17156,-0.534538 4.27631,0.367496 2.10475,0.902036 4.10927,1.703842 6.01356,1.503391 1.9043,-0.200453 6.9156,-1.503391 6.78197,-2.238383 -0.13364,-0.734991 -1.58691,-1.085781 -3.09031,-2.188268 -1.50339,-1.102487 -3.12371,-1.102487 -4.49346,-1.002263 -1.36976,0.100227 -2.52236,0.167045 -2.6727,-0.300677 -0.15034,-0.46772 0.28397,-1.03567 2.95667,-1.186008 2.67269,-0.150339 5.24516,1.202713 5.29528,0.952148 0.0501,-0.250566 -1.9043,-1.520095 -4.14268,-1.536801 -2.23838,-0.01669 -4.15938,0.53454 -4.79415,1.018966 -0.63476,0.484426 -1.31964,0.918739 -1.36975,0.718286 -0.0501,-0.200451 2.88985,-2.739512 6.03026,-2.438834 3.14042,0.300678 4.9612,1.65373 6.39777,3.390982 1.43657,1.737251 1.33635,3.056895 0.7684,4.142679 -0.56795,1.085781 -0.91458,2.894427 -0.41345,4.331 0.50113,1.436574 -0.9229,3.035616 -1.3071,4.655938 -0.3842,1.620321 -1.57021,2.806329 -1.05237,4.476763 0.51783,1.670436 2.03793,2.789626 2.3052,2.655991 0.26727,-0.133634 -0.93545,-1.419868 -0.13364,-1.837479 0.80181,-0.417607 1.28624,1.921002 3.04019,1.937705 1.75396,0.0167 2.13816,-1.152599 2.6727,-1.169304 0.53454,-0.0167 0.50113,0.283974 1.20271,0.250565 0.70158,-0.03341 1.18601,-0.785103 1.75396,-0.501131 0.56794,0.283974 -0.3842,1.353053 -0.25057,1.469982 0.13364,0.116933 1.06908,0.217157 1.60362,-0.551243 0.53454,-0.768398 1.50339,-1.670434 1.03567,-3.474503 -0.46772,-1.804069 -1.6038,-6.023908 -1.78754,-7.310143 -0.18375,-1.286232 0.91891,-5.051071 1.15277,-6.120149 0.23387,-1.069081 4.2262,-6.130496 7.85105,-5.930043 3.62484,0.200451 7.11605,2.23838 7.11605,2.589173 0,0.35079 -2.87315,-1.787366 -5.31199,-1.804069 -2.43883,-0.0167 -5.67947,1.436573 -5.32868,1.954408 0.35079,0.517834 1.58691,-1.620322 5.21175,-1.586913 3.62485,0.03341 4.35984,1.520095 4.34313,1.720549 -0.0167,0.200451 -1.13589,0.668173 -1.87088,0.501128 -0.73499,-0.167042 -1.03567,-0.751694 -2.2885,-0.7684 -1.25282,-0.01669 -3.57473,1.00226 -4.56028,1.820775 -0.98556,0.818513 -2.88986,1.202711 -2.80633,1.35305 0.0835,0.150342 1.92268,-0.309275 2.55744,0.07492 0.63477,0.384199 1.70741,2.393264 4.2095,2.539061 2.85238,0.166208 5.54416,-0.960256 5.86154,-1.327752 0.31738,-0.367496 0.88533,-0.785103 1.20271,-0.317381 0.31739,0.46772 5.09483,1.23612 4.77745,4.794147 -0.31739,3.558024 -3.13657,5.437293 -5.20938,8.577435 -2.03456,3.082169 -6.40014,10.983362 -4.91346,11.668232 1.48669,0.68488 6.28084,-3.658253 7.13276,-3.524617 0.85192,0.133633 -3.04019,11.191917 -6.48129,13.881317 -3.44109,2.6894 -11.40906,7.01582 -16.90479,6.68174 -5.49573,-0.33409 -8.70297,-2.43884 -7.58378,-5.51244 1.11919,-3.0736 5.26187,-3.32416 6.61492,-3.35757 1.35306,-0.0334 8.13502,2.87315 7.93457,1.05237 -0.20045,-1.82077 -2.40543,-2.02122 -1.11919,-2.83973 1.28623,-0.81852 6.23072,-1.8876 5.94674,-3.32417 -0.28397,-1.43657 -1.58691,-1.10248 -4.86097,-2.67269 -3.27405,-1.57021 -4.77743,-2.438841 -5.69617,-2.422141 -0.91874,0.0167 -1.75396,0.968861 -2.40543,1.002271 -0.65147,0.0334 -1.70384,-0.985559 -2.65599,-0.985559 -0.95215,0 -6.21402,3.641539 -7.24968,2.956669 -1.03567,-0.68489 -4.76074,-2.856451 -4.52688,-5.729599 0.23386,-2.873147 -0.10023,-6.34765 -2.12146,-8.452397 -2.02122,-2.104748 -6.5481,-4.677217 -6.51469,-7.216278 0.0334,-2.539061 0.3675,-5.144939 1.87089,-5.412208 z"
       id="path4811"
       inkscape:connector-curvature="0"
       sodipodi:nodetypes="csscsssscsscsssssssssssscssssssssscscscssscssssssssssssscssssscc" />
    <path
       style="fill:#0e0e0e;fill-rule:evenodd;stroke:none;stroke-width:0.26458332px;stroke-linecap:butt;stroke-linejoin:miter;stroke-opacity:1;fill-opacity:1"
       d="m 136.59143,91.826992 c 0.48443,0 0.7684,-0.56795 1.25283,-0.551244 0.48442,0.0167 0.51783,0.684877 0.96885,0.684877 0.45102,0 1.23612,-0.734992 1.25283,-1.269529 0.0167,-0.534541 -0.30068,-1.085784 -1.20272,-1.069078 -0.90203,0.01669 -2.3052,1.23612 -2.27179,2.204974 z"
       id="path4813"
       inkscape:connector-curvature="0" />
    <path
       style="fill:#0e0e0e;fill-rule:evenodd;stroke:none;stroke-width:0.26458332px;stroke-linecap:butt;stroke-linejoin:miter;stroke-opacity:1;fill-opacity:1"
       d="m 134.40316,91.392678 c 0,-0.350792 -0.70158,-2.154862 -1.50339,-2.255086 -0.80181,-0.100227 -0.7851,0.584652 -0.80181,0.918739 -0.0167,0.334087 0.90204,1.486686 1.40317,1.486686 0.50113,0 0.80181,-0.334087 0.90203,-0.150339 z"
       id="path4815"
       inkscape:connector-curvature="0" />
    <path
       style="fill:#676767;fill-opacity:1;fill-rule:evenodd;stroke:none;stroke-width:0.26458332px;stroke-linecap:butt;stroke-linejoin:miter;stroke-opacity:1"
       d="m 118.11756,67.846725 c 0,-0.897694 2.55134,-2.220611 3.68527,-2.267858 1.13393,-0.04725 9.4494,1.370164 9.87462,2.88207 0.42523,1.511903 -3.54352,-0.708707 -5.95312,-1.27567 -2.93371,-0.690284 -5.05543,-1.748139 -7.60677,0.661458 z"
       id="path4817"
       inkscape:connector-curvature="0"
       sodipodi:nodetypes="csssc" />
    <path
       style="fill:#676767;fill-opacity:1;fill-rule:evenodd;stroke:none;stroke-width:0.26458332px;stroke-linecap:butt;stroke-linejoin:miter;stroke-opacity:1"
       d="m 144.19791,68.886159 c -0.0472,-0.377976 -0.75595,-1.181174 1.13393,-2.078868 1.88988,-0.897694 2.83482,-0.236236 4.20499,-0.566965 1.37016,-0.330729 2.03162,-0.992181 4.06324,-0.09449 0.6408,0.283142 2.61311,1.048155 0.89993,0.656024 -1.17328,-0.268555 -4.73642,1.248758 -5.57738,1.281103 -1.22842,0.04725 -3.82701,-0.141742 -4.72471,0.803199 z"
       id="path4819"
       inkscape:connector-curvature="0"
       sodipodi:nodetypes="cssssscc" />
    <path
       style="fill:#7b7b7b;fill-opacity:1;fill-rule:evenodd;stroke:none;stroke-width:0.26458332px;stroke-linecap:butt;stroke-linejoin:miter;stroke-opacity:1"
       d="m 131.56342,119.62302 c 0.0668,-0.26727 -2.20497,-1.63702 -1.9377,-2.20497 0.26727,-0.56795 2.97337,2.63928 5.91334,2.73951 2.93996,0.10023 6.38106,-0.23386 10.3901,-2.00452 4.00904,-1.77066 9.78875,-5.11153 12.46144,-8.28536 2.6727,-3.17382 5.7463,-15.601854 4.91108,-15.635263 -0.83522,-0.03341 -7.45014,6.548103 -7.98468,6.046973 -0.53454,-0.50113 8.0558,-8.750231 9.45466,-14.967093 0.8615,-3.82871 -0.42278,-6.116674 -0.92391,-5.749178 -0.50113,0.367495 0.81338,2.286963 -0.71311,4.947368 -1.15072,2.005506 -2.78302,3.122758 -5.17835,6.815373 -2.32498,3.584172 -4.81085,9.25421 -4.40995,9.78875 0.40091,0.53454 1.63703,0 3.04019,-0.96885 1.40317,-0.968858 3.60814,-2.6727 4.04245,-2.271796 0.43432,0.400905 -0.83521,6.915596 -3.34087,10.724186 -2.50565,3.80859 -4.81085,5.21176 -7.14946,6.41447 -2.3386,1.20272 -8.38558,4.34313 -13.66415,4.04245 -5.27857,-0.30067 -7.65059,-2.57247 -7.684,-4.37653 -0.0334,-1.80407 1.06908,-3.27406 2.17157,-3.94223 1.10248,-0.66817 3.107,-0.7684 3.107,-1.06908 0,-0.30068 -6.88219,-2.40542 -7.24968,-3.94222 -0.3675,-1.5368 2.90991,1.26142 2.90991,0.89393 0,-0.3675 -2.39494,-2.01362 -3.27741,-1.99642 -0.88752,0.0173 -1.87088,0.70158 -1.9377,0.20045 -0.0668,-0.50113 1.26953,-1.26953 1.26953,-1.73725 0,-0.46772 -3.8174,-2.21972 -4.54358,-4.643809 -0.57107,-1.906285 0.60136,-5.278572 -1.23612,-8.285356 -1.44971,-2.372257 -5.98016,-4.844259 -7.38332,-7.283093 -0.36388,-0.632451 -0.3675,3.006781 1.03567,4.710626 1.40316,1.703843 4.94448,5.846519 5.37879,8.285353 0.43432,2.438837 0.63477,5.011299 0.0334,5.011299 -0.60135,0 -3.14041,-6.614914 -3.54132,-6.548097 -0.4009,0.06682 -0.10022,8.251947 0.63477,9.922377 0.73499,1.67044 6.58151,10.92465 10.25646,13.29666 3.67496,2.37202 5.14494,2.37202 5.14494,2.07134 z"
       id="path4821"
       inkscape:connector-curvature="0"
       sodipodi:nodetypes="csssssssssssssssssssssscssssssscsscc" />
    <path
       inkscape:connector-curvature="0"
       id="path4856"
       d="m 129.83482,75.429871 c 0,-0.28348 -1.77176,-2.291479 -4.65383,-2.480469 -2.88207,-0.188986 -4.67746,1.630024 -4.65383,1.842635 0.0236,0.212612 2.17336,1.6064 4.34672,1.6064 2.17337,0 4.96094,-0.87407 4.96094,-0.968566 z"
       style="opacity:1;fill:#afafaf;fill-opacity:1;fill-rule:evenodd;stroke:none;stroke-width:0.26458332px;stroke-linecap:butt;stroke-linejoin:miter;stroke-opacity:1" />
    <path
       style="opacity:1;fill:#636363;fill-opacity:1;fill-rule:evenodd;stroke:none;stroke-width:2.08225703px;stroke-linecap:butt;stroke-linejoin:miter;stroke-opacity:1"
       d="m 471.13086,275.66602 c -2.16357,0.0378 -4.12688,0.3787 -5.89258,0.8789 a 8.676513,8.676513 0 0 0 -0.91016,3.84766 8.676513,8.676513 0 0 0 6.15821,8.30078 c 0.49145,0.036 0.98469,0.0566 1.47851,0.0566 1.31606,0 2.69187,-0.0905 4.07422,-0.23438 a 8.676513,8.676513 0 0 0 5.64063,-8.12304 8.676513,8.676513 0 0 0 -0.45703,-2.74414 c -2.33799,-0.98481 -5.04598,-1.73348 -8.09766,-1.9336 -0.6808,-0.0446 -1.3461,-0.0601 -1.99414,-0.0488 z"
       transform="scale(0.26458333)"
       id="circle4832"
       inkscape:connector-curvature="0" />
    <circle
       style="opacity:1;fill:#161616;fill-opacity:1;fill-rule:evenodd;stroke:none;stroke-width:0.26458332px;stroke-linecap:butt;stroke-linejoin:miter;stroke-opacity:1"
       id="path4828"
       cx="125.14896"
       cy="74.187202"
       r="1.1024867" />
    <circle
       style="opacity:1;fill:#dddddd;fill-opacity:1;fill-rule:evenodd;stroke:none;stroke-width:0.26458332px;stroke-linecap:butt;stroke-linejoin:miter;stroke-opacity:1"
       id="path4824"
       cx="125.51645"
       cy="73.385391"
       r="0.43431297" />
    <path
       style="opacity:1;fill:#636363;fill-opacity:1;fill-rule:evenodd;stroke:none;stroke-width:2.2987082px;stroke-linecap:butt;stroke-linejoin:miter;stroke-opacity:1"
       d="m 573.30273,278.30273 c -3.32954,0.068 -6.02659,0.50624 -8.20703,1.12891 a 9.5784398,9.5784398 0 0 0 -0.52929,3.10742 9.5784398,9.5784398 0 0 0 4.97265,8.39844 c 2.26224,0.54349 4.42908,0.91239 6.08594,0.9375 0.21588,0.003 0.45014,-0.009 0.67773,-0.0156 a 9.5784398,9.5784398 0 0 0 7.42188,-9.32032 9.5784398,9.5784398 0 0 0 -0.34766,-2.55078 c -2.67932,-1.0532 -6.01682,-1.76835 -10.07422,-1.68555 z"
       transform="scale(0.26458333)"
       id="circle4834"
       inkscape:connector-curvature="0" />
    <circle
       r="1.1024867"
       cy="74.75515"
       cx="151.90932"
       id="circle4830"
       style="opacity:1;fill:#161616;fill-opacity:1;fill-rule:evenodd;stroke:none;stroke-width:0.26458332px;stroke-linecap:butt;stroke-linejoin:miter;stroke-opacity:1" />
    <circle
       r="0.43431297"
       cy="73.986748"
       cx="151.8759"
       id="circle4826"
       style="opacity:1;fill:#dddddd;fill-opacity:1;fill-rule:evenodd;stroke:none;stroke-width:0.26458332px;stroke-linecap:butt;stroke-linejoin:miter;stroke-opacity:1" />
    <path
       style="opacity:1;fill:none;fill-rule:evenodd;stroke:none;stroke-width:0.26458332px;stroke-linecap:butt;stroke-linejoin:miter;stroke-opacity:1"
       d="m 147.31622,75.453496 c 0,-0.165365 0.89769,-1.748139 4.37035,-1.819011 3.47265,-0.07087 4.96094,2.055247 4.96094,2.338729 0,0.28348 -2.78758,1.275667 -4.34673,1.252045 -1.55915,-0.02363 -4.79557,-1.13393 -4.98456,-1.771763 z"
       id="path4848"
       inkscape:connector-curvature="0" />
    <path
       style="opacity:1;fill:none;fill-rule:evenodd;stroke:none;stroke-width:0.26458332px;stroke-linecap:butt;stroke-linejoin:miter;stroke-opacity:1"
       d="m 129.83482,75.429871 c 0,-0.28348 -1.77176,-2.291479 -4.65383,-2.480469 -2.88207,-0.188986 -4.67746,1.630024 -4.65383,1.842635 0.0236,0.212612 2.17336,1.6064 4.34672,1.6064 2.17337,0 4.96094,-0.87407 4.96094,-0.968566 z"
       id="path4850"
       inkscape:connector-curvature="0" />
  </g>
  <g
     inkscape:groupmode="layer"
     id="layer3"
     inkscape:label="Hair"
     style="display:inline;opacity:1">
    <path
       style="fill:#919191;fill-rule:evenodd;stroke:none;stroke-width:0.26458332px;stroke-linecap:butt;stroke-linejoin:miter;stroke-opacity:1;fill-opacity:1"
       d="m 166.40402,95.013763 c -0.37798,0.02363 -1.34654,1.889882 -1.86626,4.181361 -0.51972,2.291486 -1.22843,5.598776 -2.4096,7.890256 -1.18118,2.29148 -5.62239,6.63821 -5.50428,6.85082 0.11812,0.21261 2.83482,-2.4096 2.95294,-2.03163 0.11812,0.37798 -3.59077,3.89788 -3.59077,4.016 0,0.11812 2.17336,-1.41741 3.35454,-2.69308 1.18117,-1.27567 2.3151,-2.83482 2.43322,-2.69308 0.11812,0.14174 -1.39379,2.55134 -3.26005,4.22861 -1.86625,1.67727 -4.22861,3.56715 -4.22861,3.68527 0,0.11811 1.51191,-0.61421 2.69308,-1.6064 1.18118,-0.99219 2.07888,-1.63002 2.07888,-1.44104 0,0.18899 -1.79539,2.07887 -2.12612,2.38598 -0.33073,0.3071 1.84263,-0.94494 2.95294,-1.96075 1.1103,-1.01581 2.38597,-2.66946 2.66945,-3.2128 0.28349,-0.54334 0.16537,0.75595 -1.39378,2.45684 -1.55915,1.7009 -5.03181,4.53572 -5.00819,4.77195 0.0236,0.23624 4.48847,-1.84263 6.75633,-5.48065 2.26785,-3.63802 5.50428,-6.44922 5.17355,-11.38653 -0.33073,-4.937318 -0.99219,-7.937502 -1.67727,-7.961127 z"
       id="path4887"
       inkscape:connector-curvature="0" />
    <path
       style="fill:#6c6c6c;fill-rule:evenodd;stroke:none;stroke-width:0.26458332px;stroke-linecap:butt;stroke-linejoin:miter;stroke-opacity:1;fill-opacity:1"
       d="m 169.59319,86.958145 c 0.54334,-0.04725 2.69308,2.456847 2.97656,9.827382 0.28348,7.370533 -0.89769,11.977123 -4.016,15.378903 -3.1183,3.40179 -9.42578,8.17374 -9.42578,7.86663 0,-0.3071 2.9057,-2.19698 3.59078,-3.18917 0.68508,-0.99219 -2.59859,1.84263 -2.78758,1.79539 -0.18898,-0.0473 2.62221,-2.29149 2.52772,-2.64584 -0.0945,-0.35435 -2.19699,2.008 -2.85844,2.24424 -0.66146,0.23623 3.26004,-2.78758 5.5279,-5.69327 2.26785,-2.90569 2.26785,-6.4256 1.84263,-9.47303 -0.42522,-3.04743 1.6064,-16.063988 2.62221,-16.111235 z"
       id="path4889"
       inkscape:connector-curvature="0" />
    <path
       style="fill:#afafaf;fill-rule:evenodd;stroke:none;stroke-width:0.26458332px;stroke-linecap:butt;stroke-linejoin:miter;stroke-opacity:1;fill-opacity:1"
       d="m 166.64255,85.913652 c 0,0 -0.66376,10.84825 -0.0968,12.549145 0.56696,1.700893 2.17336,4.204983 2.36235,4.157733 0.18899,-0.0472 -1.65365,-3.401781 -1.32292,-3.401781 0.33073,0 1.08668,2.078871 1.41741,2.267861 0.33073,0.18898 -0.99219,-1.22843 -0.89769,-4.724708 0.0945,-3.496278 1.13393,-7.181546 0.51972,-9.35491 -0.61422,-2.173361 -1.17658,-1.85275 -1.98208,-1.49334 z"
       id="path4885"
       inkscape:connector-curvature="0" />
    <path
       style="fill:#555555;fill-rule:evenodd;stroke:none;stroke-width:0.26458332px;stroke-linecap:butt;stroke-linejoin:miter;stroke-opacity:1;fill-opacity:1"
       d="m 71.343006,104.88839 c 0,0 -9.638393,12.28423 -18.237351,18.23735 -8.598958,5.95313 -18.142857,12.28423 -18.048364,21.54464 0.09449,9.26042 4.630209,16.81994 4.346726,19.65477 -0.283483,2.83482 -4.252232,6.42559 -4.252232,6.42559 0,0 8.126489,-5.76413 6.898065,-11.0558 -1.228423,-5.29167 2.834823,-8.31548 3.401785,-7.37054 0.566965,0.94494 -4.819195,14.93006 -2.551337,18.52084 2.267857,3.59077 4.252232,2.17336 4.252232,2.17336 0,0 -5.291666,-10.67783 0.850445,-12.18973 6.142114,-1.51191 0.944941,6.61458 0.944941,6.61458 0,0 3.590774,-5.76414 5.008184,-3.77976 1.41741,1.98437 -0.283482,4.34672 -0.283482,4.34672 0,0 1.795388,-4.53571 9.165923,-9.63839 7.370535,-5.10268 24.75744,-17.85937 24.851934,-27.49776 0.09449,-9.6384 2.267857,-19.74926 5.764138,-27.97024 3.496278,-8.220986 -17.103423,5.76413 -22.111607,1.98437 z"
       id="path4901"
       inkscape:connector-curvature="0" />
    <path
       style="fill:#808080;fill-rule:evenodd;stroke:none;stroke-width:0.26458332px;stroke-linecap:butt;stroke-linejoin:miter;stroke-opacity:1;fill-opacity:1"
       d="m 117.49836,127.87497 c 0.43432,0.26727 -4.97789,10.12283 -12.36121,13.39688 -7.383322,3.27406 -14.967093,5.01131 -18.942727,4.04246 -3.975635,-0.96886 -9.354434,-4.84427 -8.886714,-5.17835 0.467722,-0.33409 4.242906,3.70836 8.586033,3.30746 4.34313,-0.40091 6.280835,-1.10249 6.280835,-1.26953 0,-0.16705 -4.810852,1.10248 -7.717408,0.4009 -2.906554,-0.70158 -3.708363,-1.43657 -3.541321,-1.73725 0.167044,-0.30068 5.479026,0.53454 7.684,-0.96885 2.204974,-1.50339 -6.280836,0.56795 -6.280836,0.30068 0,-0.26727 13.363477,-4.77745 13.0628,-5.27858 -0.300678,-0.50113 -4.075862,2.47225 -7.617183,2.90656 -3.54132,0.43431 -9.888971,-3.20724 -9.68852,-3.60814 0.200454,-0.4009 6.982418,3.04019 9.721929,1.70384 2.739515,-1.33634 2.839739,-2.27179 1.403165,-2.60587 -1.436574,-0.33409 -7.149459,1.77066 -7.149459,1.46998 0,-0.30068 1.5368,-0.93544 0.801809,-4.30972 -0.734992,-3.37428 -3.207234,-0.96885 -3.207234,-1.40317 0,-0.43431 1.202713,-4.40995 5.980154,-6.24742 4.777444,-1.83748 11.826677,-1.9043 14.599597,-0.735 2.77292,1.16931 1.5368,2.43884 2.23838,2.43884 0.70159,0 0.50113,-0.96885 0.73499,-0.96885 0.23387,0 0.13364,1.40316 2.90656,1.50339 2.77292,0.10023 4.77744,-0.50113 4.71063,-0.0668 -0.0668,0.43431 -1.23613,4.07586 -0.56795,4.34313 0.66817,0.26727 2.10475,-2.80633 2.40543,-2.77292 0.30067,0.0334 1.43657,1.00226 1.20271,1.67043 -0.23386,0.66818 -2.00452,2.50566 -1.73726,2.57247 0.26728,0.0668 2.6727,-2.30519 2.83974,-2.10474 0.16705,0.20045 -1.46998,1.90429 -1.1693,1.87088 0.30068,-0.0334 3.20724,-1.36975 3.70836,-2.67269 z"
       id="path4891"
       inkscape:connector-curvature="0" />
    <path
       style="fill:#666666;fill-rule:evenodd;stroke:none;stroke-width:0.26458332px;stroke-linecap:butt;stroke-linejoin:miter;stroke-opacity:1;fill-opacity:1"
       d="m 112.06994,126.90551 c 0,0 -9.68564,-2.74033 -14.268601,-6.4256 -4.582962,-3.68527 -8.504465,-6.99256 -15.071802,-8.03199 -6.567336,-1.03944 -17.197916,7.843 -16.96168,7.08705 0.236236,-0.75595 12.189732,-8.59896 11.670014,-9.21317 -0.519716,-0.61421 -5.338914,2.22061 -5.433407,1.74814 -0.0945,-0.47247 6.992559,-5.29167 12.803942,-5.00818 5.811385,0.28348 12.756697,2.50409 17.008934,5.62239 4.25223,3.1183 8.36272,7.74851 12.52046,8.03199 4.15773,0.28349 6.80357,-0.33072 7.27604,0.70871 0.47247,1.03943 0.37797,2.22061 0.18899,2.22061 -0.18899,0 -1.79539,-3.2128 -3.68527,-2.17336 -1.88988,1.03943 1.46466,3.77976 0.89769,3.87425 -0.56696,0.0945 -6.85082,-0.7087 -10.3471,-3.2128 -3.49628,-2.50409 -9.827377,-6.94531 -10.063613,-6.00037 -0.236233,0.94494 12.992933,7.37054 13.465403,10.77233 z"
       id="path4893"
       inkscape:connector-curvature="0" />
    <path
       style="fill:#939393;fill-rule:evenodd;stroke:none;stroke-width:0.26458332px;stroke-linecap:butt;stroke-linejoin:miter;stroke-opacity:1;fill-opacity:1"
       d="m 107.34524,120.5744 c -0.0945,-0.99219 -6.4256,-2.12611 -14.599332,-1.27567 -8.173736,0.85045 -21.922621,3.40179 -31.324777,-0.99218 -9.402159,-4.39398 -14.741072,-8.07925 -16.678201,-10.67783 -1.937128,-2.59859 -3.023809,-3.96875 -3.023809,-3.96875 0,0 3.165552,6.94531 9.35491,10.81957 6.189361,3.87425 16.300225,9.92187 24.048736,9.26041 7.748513,-0.66145 -1.181175,3.2128 -7.370535,2.55134 -6.189361,-0.66145 -9.921875,-1.22842 -15.355284,-5.48065 -5.433407,-4.25223 -8.173734,-7.89026 -8.173734,-7.89026 0,0 4.29948,8.40998 11.433779,11.9535 7.134301,3.54353 19.607516,2.55134 19.418527,3.49628 -0.188989,0.94494 -4.299479,2.5041 -9.638392,1.93713 -5.338914,-0.56697 -7.276042,-3.07106 -12.09524,-2.22061 -4.819194,0.85045 -6.898065,5.10268 -6.898065,5.10268 0,0 3.449034,-4.63021 7.65402,-4.8192 4.204983,-0.18899 8.693451,4.39397 13.418153,4.11049 4.724701,-0.28348 9.260416,-2.3151 9.260416,-1.84263 0,0.47247 -4.819195,4.016 -10.063614,4.77195 -5.24442,0.75595 -6.189361,0.42522 -6.189361,0.42522 0,0 6.52009,0.99219 9.780135,-0.42522 3.260042,-1.41741 8.173733,-0.42523 7.9375,0.28348 -0.236236,0.7087 -0.519719,6.04762 -7.370538,6.99256 -6.850816,0.94494 -13.229166,-2.31511 -13.229166,-2.31511 0,0 6.04762,5.48066 12.567708,3.54353 6.52009,-1.93713 11.386534,-6.52009 11.528274,-5.95312 0.141742,0.56696 -2.315104,5.62239 -8.126487,8.31547 -5.811385,2.69308 -10.441593,2.78758 -10.441593,2.78758 0,0 7.370535,1.13393 12.189732,-2.74033 4.819195,-3.87425 5.716889,-4.20498 10.110862,-10.96131 4.393975,-6.75632 16.583706,-14.9773 21.875376,-14.78832 z"
       id="path4895"
       inkscape:connector-curvature="0" />
    <path
       style="fill:#8a8a8a;fill-rule:evenodd;stroke:none;stroke-width:0.26458332px;stroke-linecap:butt;stroke-linejoin:miter;stroke-opacity:1;fill-opacity:1"
       d="m 110.48254,94.265826 c 0.43431,0.100226 -0.3675,2.204974 -0.13364,2.438833 0.23387,0.23386 1.26954,-2.572469 1.46999,-2.104747 0.20045,0.467723 -0.3675,3.441094 -2.37202,5.813108 -2.00452,2.37202 -3.50791,4.00905 -3.40769,4.17609 0.10023,0.16705 5.81312,-6.548104 6.21402,-6.34765 0.40091,0.200451 -1.9377,4.20949 -1.80407,4.51017 0.13364,0.30068 3.57473,-2.906554 3.57473,-2.43883 0,0.46772 -5.14494,6.88219 -10.08942,10.49033 -4.94449,3.60814 -21.630125,9.58229 -21.630125,9.58229 0,0 17.008927,-18.04837 16.630951,-19.1823 -0.377976,-1.13393 -11.244791,11.71726 -17.764881,14.07962 -6.520088,2.36235 -10.016368,2.45684 -10.016368,2.45684 0,0 12.000743,-4.44122 18.426339,-14.2686 6.425594,-9.82738 6.235769,-12.111711 6.035315,-12.211938 -0.20045,-0.100224 -8.452397,12.127358 -12.795527,15.902538 -4.34313,3.77518 -15.735493,7.55036 -15.735493,7.55036 0,0 19.6109,-16.70434 19.009545,-17.439331 -0.601356,-0.734992 -17.238885,12.661891 -20.279077,9.588291 -3.040189,-3.0736 1.275654,-6.41373 1.275654,-6.41373 0,0 -3.685267,5.48066 -0.09449,5.10268 3.590772,-0.37798 24.568451,-17.575893 24.568451,-18.237351 0,-0.661458 -17.386905,11.811756 -17.386905,11.339285 0,-0.472469 21.828124,-17.197917 21.450149,-17.859375 -0.377976,-0.661458 -12.284226,6.331101 -22.67857,5.008184 -10.394347,-1.322917 -12.189732,-3.96875 -12.189732,-3.96875 0,0 9.354909,4.252233 15.024552,3.023809 5.669642,-1.228421 19.276785,-6.614583 22.773065,-8.22098 3.496277,-1.606399 6.992557,-3.49628 6.992557,-3.49628 0,0 -10.299848,8.976934 -10.488837,9.827381 -0.188987,0.850445 5.008187,-3.307291 5.008187,-3.307291 0,0 -7.276042,8.031993 -6.898066,8.976934 0.377975,0.94494 9.260416,-9.07143 9.354906,-8.315476 0.0945,0.755951 -5.575146,10.394344 -4.913687,11.528274 0.661458,1.133927 7.748507,-14.646579 8.126487,-14.363097 0.37797,0.283483 -2.55134,6.047619 -2.07887,6.142114 0.47247,0.09449 2.55134,-5.858631 2.92931,-4.91369 0.37798,0.944941 -2.45684,7.654017 -1.88988,8.126486 0.56697,0.472472 4.15774,-5.291666 4.15774,-4.25223 0,1.039434 -2.74033,5.480654 -2.74033,9.071428 0,3.590774 2.55134,-2.929316 3.02381,-2.173365 0.47247,0.755955 0.37798,5.57515 -2.64583,10.016371 -3.02381,4.441219 -4.91369,5.669639 -4.44122,6.142109 0.47247,0.47247 7.12505,-6.409563 8.42897,-11.378514 z"
       id="path4897"
       inkscape:connector-curvature="0" />
    <path
       style="fill:#5f5f5f;fill-rule:evenodd;stroke:none;stroke-width:0.26458332px;stroke-linecap:butt;stroke-linejoin:miter;stroke-opacity:1;fill-opacity:1"
       d="m 119.53497,49.325892 c -1.03944,-0.188989 -7.27604,3.590774 -14.64658,11.150298 -7.370534,7.559524 -16.063985,16.536458 -25.891367,22.206101 -9.827381,5.669642 -28.72619,7.465028 -31.088541,14.741069 -2.362351,7.27604 2.929316,11.1503 2.929316,11.1503 0,0 -4.346726,-5.29167 -2.173364,-9.732887 2.173364,-4.441222 8.220982,-3.685267 15.024554,-5.197173 6.80357,-1.511906 14.174105,-2.173365 20.032737,-6.047619 5.858631,-3.874256 20.221725,-14.2686 19.843745,-15.497024 -0.37797,-1.228423 -6.142107,4.157737 -6.236603,3.590775 -0.09449,-0.566965 9.638393,-9.827382 8.882443,-10.110865 -0.75595,-0.283482 -7.748513,3.779764 -7.18155,3.212799 0.566965,-0.566965 3.02381,-0.850448 10.01637,-7.843007 6.99256,-6.992559 11.33929,-9.827381 10.48884,-11.622767 z"
       id="path4899"
       inkscape:connector-curvature="0" />
  </g>
  <g
     inkscape:groupmode="layer"
     id="layer4"
     inkscape:label="Hand">
    <path
       style="fill:#282828;fill-rule:evenodd;stroke:none;stroke-width:0.26458332px;stroke-linecap:butt;stroke-linejoin:miter;stroke-opacity:1;fill-opacity:1"
       d="m 87.998492,215.67301 c 0.06682,-2.27179 2.00452,-7.95127 3.674954,-9.82216 1.670436,-1.87088 4.142679,-4.14268 4.142679,-4.87767 0,-0.73499 0.06682,-1.26953 0.267269,-1.87088 0.200451,-0.60136 1.469983,-2.90656 1.469983,-3.67496 0,-0.7684 -0.400905,-2.07134 -0.400905,-3.14042 0,-1.06907 -2.973374,-5.7797 -2.939965,-7.14945 0.03341,-1.36976 -2.639285,-3.70837 -2.706103,-5.04472 -0.06682,-1.33635 0.801809,-2.83974 0.801809,-3.50791 0,-0.66818 -2.271792,-1.87089 -2.138156,-4.27631 0.133633,-2.40543 1.102484,-2.87315 1.703843,-3.30746 0.601355,-0.43432 3.040189,-1.16931 3.140416,-1.87089 0.100227,-0.70158 0.03341,-3.34087 0.668173,-4.2095 0.634765,-0.86862 2.03793,-1.26953 2.438834,-2.00452 0.400905,-0.73499 1.169305,-2.97337 1.904297,-3.94222 0.73499,-0.96885 1.67043,-1.77066 1.9043,-2.50565 0.23386,-0.735 1.03566,-1.43658 2.57247,-1.87089 1.53679,-0.43432 2.63928,-0.40091 4.97789,-1.06908 2.33861,-0.66817 5.41221,-0.86862 6.88219,-0.80181 1.46998,0.0668 3.90882,0 4.20949,0.56795 0.30068,0.56795 1.26953,2.20497 0.23386,3.60814 -1.03566,1.40316 -0.30067,3.97563 -0.0334,4.2429 0.26726,0.26727 3.842,0.40091 4.81085,0.66818 0.96885,0.26726 1.67043,0.16704 2.03793,1.33634 0.36749,1.16931 1.1693,2.50565 -0.80181,3.50792 -1.97111,1.00226 -6.01357,1.50339 -5.98016,1.87088 0.0334,0.3675 5.3788,0.90204 5.61266,2.53906 0.23387,1.63703 -0.0334,2.80633 -1.20271,3.50792 -1.1693,0.70158 -3.10701,-0.0668 -3.10701,0.8018 0,0.86863 0.70158,0.70159 0.93545,5.14494 0.23386,4.44336 -0.46773,9.65511 -2.57247,12.06054 -2.10475,2.40543 -4.44336,5.91334 -4.71063,7.24969 -0.26727,1.33634 -0.96885,4.97789 -2.33861,6.21401 -1.36975,1.23612 -1.57021,1.5368 -2.40542,3.17383 -0.83522,1.63702 -4.40995,17.03843 -6.18061,18.77568 -1.77066,1.73725 -5.311983,3.34087 -7.283094,1.80407 -1.971115,-1.5368 -8.619443,-4.87767 -9.588294,-12.12735 z"
       id="path4918"
       inkscape:connector-curvature="0" />
    <path
       style="fill:#9c9c9c;fill-rule:evenodd;stroke:none;stroke-width:0.26458332px;stroke-linecap:butt;stroke-linejoin:miter;stroke-opacity:1;fill-opacity:1"
       d="m 111.10138,165.31733 c 0,-0.63783 2.29148,-4.44122 4.20498,-5.0318 1.91351,-0.59059 4.44122,-0.68509 6.47284,-0.70871 2.03162,-0.0236 5.12631,0.33073 5.50428,1.84263 0.37798,1.51191 0.87407,2.33873 -0.92132,3.04744 -1.79538,0.7087 -4.77195,1.37016 -7.27604,1.27567 -2.50409,-0.0945 -7.843,0.4016 -7.98474,-0.42523 z"
       id="path4930"
       inkscape:connector-curvature="0" />
    <path
       style="fill:#9c9c9c;fill-rule:evenodd;stroke:none;stroke-width:0.26458332px;stroke-linecap:butt;stroke-linejoin:miter;stroke-opacity:1;fill-opacity:1"
       d="m 98.462797,181.23958 c -0.307107,-1.46466 -1.606399,-2.48047 -0.07087,-3.42541 1.535528,-0.94494 5.079053,-1.29929 6.520093,-2.10249 1.44103,-0.8032 7.15792,-3.66164 8.57533,-1.63002 1.41741,2.03162 0.77958,2.52771 -1.55915,3.75614 -2.33873,1.22842 -7.74851,4.01599 -9.33129,4.20498 -1.58277,0.18899 -3.756136,0.63784 -4.134112,-0.8032 z"
       id="path4934"
       inkscape:connector-curvature="0" />
    <path
       style="fill:#535353;fill-rule:evenodd;stroke:none;stroke-width:0.26458332px;stroke-linecap:butt;stroke-linejoin:miter;stroke-opacity:1;fill-opacity:1"
       d="m 97.635974,164.34877 c -0.448847,-1.15755 -0.188989,-1.70089 0.307105,-2.62221 0.496093,-0.92132 1.464659,-3.66164 2.669461,-4.96094 1.2048,-1.29929 2.40959,-2.05524 2.40959,-2.05524 l 9.30767,1.88988 c 0,0 -0.94494,0.99219 -2.85845,1.74814 -1.9135,0.75595 -3.42541,1.08668 -4.58296,1.86625 -1.15755,0.77958 -6.425593,4.86645 -7.252416,4.13412 z"
       id="path4936"
       inkscape:connector-curvature="0" />
    <path
       style="fill:#ececec;fill-rule:evenodd;stroke:none;stroke-width:0.26458332px;stroke-linecap:butt;stroke-linejoin:miter;stroke-opacity:1;fill-opacity:1"
       d="m 109.68396,175.66443 c 0,-0.7087 0.23624,-1.46465 1.67727,-2.008 1.44104,-0.54334 4.79558,-1.37016 5.2208,-0.23623 0.42522,1.13393 -5.00818,4.96094 -6.89807,2.24423 z"
       id="path4920"
       inkscape:connector-curvature="0" />
    <path
       style="fill:#9c9c9c;fill-rule:evenodd;stroke:none;stroke-width:0.26458332px;stroke-linecap:butt;stroke-linejoin:miter;stroke-opacity:1;fill-opacity:1"
       d="m 102.12444,158.08854 c -0.23623,-0.87407 -0.44884,-2.36235 0.0472,-3.28367 0.49609,-0.92132 1.5119,-1.79539 3.09468,-2.07887 1.58277,-0.28348 3.16555,-0.44885 4.25223,-0.75595 1.08668,-0.30711 5.2208,-1.06306 6.70908,-0.99219 1.48828,0.0709 4.37035,0.4016 4.46484,1.86626 0.0945,1.46466 -0.49609,2.74033 -2.52772,3.44903 -2.03162,0.70871 -6.18935,1.44104 -7.0398,0.75596 -0.85045,-0.68509 -1.25205,-0.68509 -2.07887,0.0472 -0.82682,0.73233 -4.77195,3.30729 -6.92169,0.99219 z"
       id="path4928"
       inkscape:connector-curvature="0" />
    <path
       style="fill:#797979;fill-rule:evenodd;stroke:none;stroke-width:0.26458332px;stroke-linecap:butt;stroke-linejoin:miter;stroke-opacity:1;fill-opacity:1"
       d="m 110.27455,162.6715 c -0.7087,-0.30711 -1.01581,3.2128 -1.58277,3.68527 -0.56697,0.47247 -1.93713,0.54334 -1.93713,0.77957 0,0.23624 7.9375,-0.51971 7.9375,-0.51971 l 0.63783,5.74051 c 0,0 -5.10268,0.8032 -7.06343,0.82682 -1.96075,0.0236 -5.10267,0.61421 -5.9295,-0.75595 -0.82682,-1.37016 -0.37797,1.81901 0.61421,1.84263 0.99219,0.0236 1.48828,0.37798 1.01581,0.59059 -0.47246,0.21261 -5.149922,2.69308 -5.764131,0.14174 -0.614211,-2.55134 0.118116,-4.13411 -0.07087,-4.39397 -0.188989,-0.25986 -3.141927,1.6064 -3.543528,2.36235 -0.4016,0.75595 -1.417409,2.88207 -0.165364,4.58296 1.252045,1.7009 2.149739,1.7009 2.149739,2.31511 0,0.61421 -0.732329,1.93713 -0.850444,3.28366 -0.118118,1.34655 -0.04725,2.95295 -0.354354,2.95295 -0.307105,0 -0.685083,-1.25205 -0.708705,-1.96076 -0.02363,-0.7087 -2.291482,-2.07887 -2.433222,-3.94512 -0.14174,-1.86626 0.779576,-3.7089 0.54334,-4.13412 -0.236236,-0.42522 -2.385975,-2.3151 -2.362351,-3.00018 0.02363,-0.68509 0.14174,-2.48047 1.228424,-3.28367 1.08668,-0.8032 3.212795,-1.2048 3.590774,-2.19699 0.377976,-0.99219 -0.04725,-3.49628 0.614209,-4.3231 0.661458,-0.82682 3.118305,-2.24423 3.118305,-2.24423 0,0 4.866448,0.49609 4.890068,0.87407 0.0236,0.37797 6.42559,0.77957 6.42559,0.77957 z"
       id="path4940"
       inkscape:connector-curvature="0" />
    <path
       style="fill:#9c9c9c;fill-rule:evenodd;stroke:none;stroke-width:0.26458332px;stroke-linecap:butt;stroke-linejoin:miter;stroke-opacity:1;fill-opacity:1"
       d="m 110.10919,170.13653 c 0,-1.67727 0.7087,-3.18917 1.32292,-3.2128 0.6142,-0.0236 4.81919,-0.63783 7.51227,-0.11811 2.69308,0.51971 6.92169,0.96856 6.87444,2.64583 -0.0472,1.67727 0.11812,2.50409 -1.22842,2.78757 -1.34654,0.28348 -5.45703,0.16537 -8.07924,0.14174 -2.62221,-0.0236 -6.44922,0.94494 -6.40197,-2.24423 z"
       id="path4932"
       inkscape:connector-curvature="0" />
    <path
       style="fill:#ececec;fill-rule:evenodd;stroke:none;stroke-width:0.26458332px;stroke-linecap:butt;stroke-linejoin:miter;stroke-opacity:1;fill-opacity:1"
       d="m 120.52716,169.42782 c -0.0236,-2.55134 1.34654,-2.05524 2.07887,-2.05524 0.73233,0 5.31528,0.0709 5.24442,2.03162 -0.0709,1.96075 -2.8112,2.17336 -4.20499,2.17336 -1.39379,0 -2.85844,-0.59058 -3.1183,-2.14974 z"
       id="path4922"
       inkscape:connector-curvature="0" />
    <path
       style="fill:#ececec;fill-rule:evenodd;stroke:none;stroke-width:0.26458332px;stroke-linecap:butt;stroke-linejoin:miter;stroke-opacity:1;fill-opacity:1"
       d="m 121.35398,162.05729 c 0.0472,-1.51191 0.63783,-2.55134 2.19699,-2.55134 1.55915,0 6.49646,-0.42522 6.61458,1.63002 0.11812,2.05525 -2.10249,2.4096 -4.25223,2.50409 -2.14974,0.0945 -4.13412,0.4016 -4.55934,-1.58277 z"
       id="path4924"
       inkscape:connector-curvature="0" />
    <path
       style="fill:#cdcdcd;fill-rule:evenodd;stroke:none;stroke-width:0.26458332px;stroke-linecap:butt;stroke-linejoin:miter;stroke-opacity:1;fill-opacity:1"
       d="m 104.51042,161.51395 c 0,0 8.2446,-4.22861 9.02418,-4.22861 0.77957,0 1.48828,0.18899 1.70089,0.96856 0.21261,0.77958 0.11812,1.74814 -0.61421,2.12612 -0.73233,0.37797 -8.29185,3.99237 -8.43359,3.99237 -0.14175,0 -3.11831,-1.46466 -1.67727,-2.85844 z"
       id="path4938"
       inkscape:connector-curvature="0" />
    <path
       style="fill:#ececec;fill-rule:evenodd;stroke:none;stroke-width:0.26458332px;stroke-linecap:butt;stroke-linejoin:miter;stroke-opacity:1;fill-opacity:1"
       d="m 114.36142,153.24572 c -0.0236,-1.25205 1.1103,-2.36235 2.88207,-2.29148 1.77176,0.0709 4.08687,0.0236 4.25223,0.82682 0.16537,0.8032 0.0945,3.00019 -3.23642,2.95294 -3.33092,-0.0473 -3.75614,-0.18899 -3.89788,-1.48828 z"
       id="path4926"
       inkscape:connector-curvature="0" />
    <path
       style="fill:#535353;fill-rule:evenodd;stroke:none;stroke-width:0.26458332px;stroke-linecap:butt;stroke-linejoin:miter;stroke-opacity:1;fill-opacity:1"
       d="m 116.67652,175.4282 c 0.25986,-0.61422 0.35436,-1.84264 1.72452,-1.84264 1.37016,0 3.18917,-0.37797 3.40179,0.0709 0.21261,0.44885 0.85044,2.14974 0.94494,4.55934 0.0945,2.4096 -0.0473,6.96894 -0.68508,8.57534 -0.63784,1.60639 -4.63021,7.01618 -5.14993,7.67764 -0.51972,0.66146 -1.65365,0.11812 -1.70089,0.37797 -0.0473,0.25986 0.21261,3.14193 -0.16537,4.51209 -0.37797,1.37017 -2.3151,4.98457 -4.55934,5.36254 -2.24423,0.37798 -6.52009,-0.99219 -6.47284,-1.32292 0.0473,-0.33072 4.93732,-0.3071 6.11849,-1.20479 1.18118,-0.8977 1.51191,-1.63003 1.2993,-1.77177 -0.21262,-0.14174 -2.76396,1.86626 -4.63021,1.13393 -1.86626,-0.73233 -6.44922,-5.38616 -7.252422,-5.74051 -0.803198,-0.35435 -1.441035,-0.96857 -1.086681,-1.01581 0.354351,-0.0472 4.110493,-0.42523 3.378163,-1.13393 -0.73233,-0.70871 -1.77176,-0.4016 -1.72452,-0.82683 0.0473,-0.42522 -2.527712,-2.48046 -3.449031,-3.89787 -0.921316,-1.41741 -1.535528,-3.87426 -1.535528,-3.87426 0,0 0.614212,-2.74033 0.755954,-2.22061 0.14174,0.51972 0.944938,4.20498 1.441032,4.58296 0.496094,0.37798 -0.732327,0.11812 -0.708705,0.30711 0.02363,0.18899 2.102493,1.70089 3.212798,1.22842 1.11031,-0.47247 2.92932,-2.88207 3.09468,-2.50409 0.16537,0.37797 -1.1103,2.78757 -2.43322,3.00018 -1.322918,0.21261 -1.795387,0.87407 -1.370165,0.87407 0.425223,0 2.385975,-0.49609 3.685265,-1.44103 1.29929,-0.94494 1.86626,-2.14974 2.03162,-1.91351 0.16537,0.23624 -0.89769,3.00019 -1.65364,3.96875 -0.75595,0.96857 -2.71671,1.77177 -2.24423,1.79539 0.47246,0.0236 1.72451,-0.3071 3.04743,-2.008 1.32292,-1.70089 1.6064,-3.9215 1.96075,-3.9215 0.35435,0 1.46466,4.37035 1.9135,4.34673 0.44885,-0.0236 -1.41741,-4.70108 -0.80319,-5.05543 0.61421,-0.35436 1.5119,-2.26786 2.52771,-2.24424 1.01581,0.0236 0.87407,1.25205 1.65365,1.2048 0.77957,-0.0472 1.13392,-2.38597 1.96075,-2.57496 0.82682,-0.18899 5.36253,-1.63002 4.74832,-3.59078 -0.61421,-1.96075 -1.55915,-2.97656 -1.27567,-3.47265 z"
       id="path4942"
       inkscape:connector-curvature="0" />
    <path
       style="fill:#535353;fill-rule:evenodd;stroke:none;stroke-width:0.26458332px;stroke-linecap:butt;stroke-linejoin:miter;stroke-opacity:1;fill-opacity:1"
       d="m 97.21929,197.93299 c 0.701582,0 2.104747,6.21402 2.605878,6.18061 0.501132,-0.0334 -0.267271,-2.17156 0.501132,-2.17156 0.7684,0 4.00904,2.63928 5.74629,2.83973 1.73725,0.20046 3.50791,-0.23386 3.50791,0.23386 0,0.46773 -3.44109,1.36976 -4.57699,0.56795 -1.13589,-0.80181 0.80181,1.10249 0.93545,1.5368 0.13363,0.43432 3.40768,-0.53454 3.27405,-0.0334 -0.13363,0.50113 0.0334,1.50339 -1.43658,6.44788 -1.46998,4.94449 -1.40316,10.82442 -3.80859,12.36122 -2.40542,1.5368 -2.90655,1.97111 -4.376534,1.77066 -1.469983,-0.20045 -7.851042,-4.17609 -9.220798,-6.88219 -1.369756,-2.70611 -2.104747,-4.30972 -1.670434,-6.5147 0.434311,-2.20497 1.403165,-5.57925 3.073599,-7.684 1.670433,-2.10474 4.710626,-5.0113 4.610399,-5.51243 -0.100224,-0.50113 -0.133633,-2.3052 0.835218,-3.14042 z"
       id="path4944"
       inkscape:connector-curvature="0" />
    <circle
       style="fill:#c76b38;fill-opacity:1;fill-rule:evenodd;stroke:none;stroke-width:0.26458332px;stroke-linecap:butt;stroke-linejoin:miter;stroke-opacity:1"
       id="path4946"
       cx="105.45535"
       cy="162.87938"
       r="1.6063988" />
  </g>
</svg>
