<?xml version="1.0" encoding="UTF-8" standalone="no"?>
<!-- Created with Inkscape (http://www.inkscape.org/) -->

<svg
   xmlns:dc="http://purl.org/dc/elements/1.1/"
   xmlns:cc="http://creativecommons.org/ns#"
   xmlns:rdf="http://www.w3.org/1999/02/22-rdf-syntax-ns#"
   xmlns:svg="http://www.w3.org/2000/svg"
   xmlns="http://www.w3.org/2000/svg"
   xmlns:sodipodi="http://sodipodi.sourceforge.net/DTD/sodipodi-0.dtd"
   xmlns:inkscape="http://www.inkscape.org/namespaces/inkscape"
   width="1000"
   height="1000"
   viewBox="0 0 264.58333 264.58334"
   version="1.1"
   id="svg8"
   inkscape:version="0.92.1 r15371"
   sodipodi:docname="mattias-eklundh-2017.svg"
   inkscape:export-filename="C:\Users\Anthony Garone\Documents\GitHub\art\mattias-eklundh\mattias-eklundh-2017.png"
   inkscape:export-xdpi="96"
   inkscape:export-ydpi="96">
  <defs
     id="defs2" />
  <sodipodi:namedview
     id="base"
     pagecolor="#ffffff"
     bordercolor="#666666"
     borderopacity="1.0"
     inkscape:pageopacity="0.0"
     inkscape:pageshadow="2"
     inkscape:zoom="0.7"
     inkscape:cx="531.67538"
     inkscape:cy="435.31231"
     inkscape:document-units="px"
     inkscape:current-layer="layer1"
     showgrid="false"
     units="px"
     showguides="true"
     inkscape:guide-bbox="true"
     inkscape:window-width="1920"
     inkscape:window-height="1017"
     inkscape:window-x="-8"
     inkscape:window-y="-8"
     inkscape:window-maximized="1"
     inkscape:snap-global="false">
    <sodipodi:guide
       position="264.58334,264.58334"
       orientation="1,0"
       id="guide10"
       inkscape:locked="false"
       inkscape:label=""
       inkscape:color="rgb(0,0,255)" />
    <sodipodi:guide
       position="0,0"
       orientation="1,0"
       id="guide12"
       inkscape:locked="false"
       inkscape:label=""
       inkscape:color="rgb(0,0,255)" />
    <sodipodi:guide
       position="264.58334,264.58334"
       orientation="0,1"
       id="guide14"
       inkscape:locked="false"
       inkscape:label=""
       inkscape:color="rgb(0,0,255)" />
    <sodipodi:guide
       position="0,0"
       orientation="0,1"
       id="guide16"
       inkscape:locked="false"
       inkscape:label=""
       inkscape:color="rgb(0,0,255)" />
  </sodipodi:namedview>
  <metadata
     id="metadata5">
    <rdf:RDF>
      <cc:Work
         rdf:about="">
        <dc:format>image/svg+xml</dc:format>
        <dc:type
           rdf:resource="http://purl.org/dc/dcmitype/StillImage" />
        <dc:title></dc:title>
      </cc:Work>
    </rdf:RDF>
  </metadata>
  <g
     inkscape:label="BG"
     inkscape:groupmode="layer"
     id="layer1"
     transform="translate(0,-32.41665)"
     style="display:none">
    <rect
       id="rect4493"
       width="264.58334"
       height="264.58334"
       x="0"
       y="32.416641"
       style="fill:#ffffff;fill-opacity:0;stroke-width:0.26458332" />
  </g>
  <g
     inkscape:groupmode="layer"
     id="layer9"
     inkscape:label="Body">
    <path
       style="fill:#deaa87;stroke:none;stroke-width:0.26458332px;stroke-linecap:butt;stroke-linejoin:miter;stroke-opacity:1;fill-opacity:1"
       d="m 24.588796,210.59489 c -4.009043,14.43255 -7.483546,28.33057 -8.819894,31.00326 -1.336348,2.6727 -4.276313,12.82894 -4.810852,16.30344 -0.534539,3.47451 -1.0690776,17.10524 -1.0690776,17.10524 l 28.8651086,-0.53454 c 0,0 -0.267269,-8.28535 0,-13.63073 0.267269,-5.34539 11.49259,-26.45969 13.630746,-32.33961 2.138156,-5.87994 2.138156,-8.28536 2.138156,-8.28536 z"
       id="path5687"
       inkscape:connector-curvature="0" />
    <path
       style="fill:#2b1e16;stroke:none;stroke-width:0.26458332px;stroke-linecap:butt;stroke-linejoin:miter;stroke-opacity:1;fill-opacity:1"
       d="m 57.730217,149.65744 c -8.819893,1.87088 -13.630745,4.54358 -16.570711,9.08716 -2.939965,4.54358 -4.81085,11.49259 -6.949006,13.89801 -2.138156,2.40543 -1.336349,7.21628 -2.939965,12.82894 -1.603618,5.61266 -1.603618,10.15624 -3.474506,12.56167 -1.870885,2.40542 -5.879928,10.42351 -5.879928,12.02713 0,1.60362 10.156243,7.21627 16.570711,8.81989 6.414469,1.60362 17.105249,5.07812 17.105249,5.07812 l 4.810853,-12.29439 c 0,0 0.267269,21.64883 -0.267272,28.33056 -0.534537,6.68174 -2.672694,12.56167 -2.138156,17.63979 0.53454,5.07812 0.267269,8.01809 0.267269,8.01809 l 122.943985,0.80182 c 0,0 -2.40543,-37.95228 -1.33635,-44.63402 1.06908,-6.68174 13.89802,-7.21628 17.90706,-8.8199 4.00904,-1.60362 20.31248,-9.08716 20.31248,-9.08716 L 212.47927,152.06286 165.70711,133.35399 99.403853,69.074124 Z"
       id="path5685"
       inkscape:connector-curvature="0"
       sodipodi:nodetypes="cscscssccssccssccccc" />
  </g>
  <g
     inkscape:groupmode="layer"
     id="layer7"
     inkscape:label="Face"
     style="display:inline">
    <path
       style="display:inline;fill:#502d16;stroke:none;stroke-width:0.26458332px;stroke-linecap:butt;stroke-linejoin:miter;stroke-opacity:1"
       d="m 36.096725,107.34524 c -1.039434,3.77976 -1.511903,6.42559 0,9.16592 1.511906,2.74033 3.307292,6.70908 2.834823,9.82738 -0.472472,3.1183 -3.874257,6.61458 -3.874257,6.61458 0,0 5.291667,-4.15774 5.008184,-7.55952 -0.283482,-3.40179 1.322917,-4.91369 1.322917,-4.91369 0,0 5.480656,6.04762 3.96875,12.00074 -1.511903,5.95313 -5.102677,9.35491 -2.267858,11.52828 2.834823,2.17336 8.031996,0.66145 8.031996,0.66145 0,0 -1.984375,-1.88988 -0.661458,-4.81919 1.322917,-2.92932 3.874254,-5.10268 4.346726,-2.36235 0.472469,2.74032 -0.472472,4.91369 -0.472472,4.91369 l 30.805059,4.44122 -31.088542,-75.217264 z"
       id="path5678"
       inkscape:connector-curvature="0" />
    <path
       style="fill:#deaa87;stroke:none;stroke-width:0.26458332px;stroke-linecap:butt;stroke-linejoin:miter;stroke-opacity:1"
       d="m 53.654356,86.849097 c 0,2.605876 0,4.209494 0.868627,5.879928 0.868627,1.670436 1.80407,9.421255 2.539061,11.225325 0.734991,1.80407 2.873147,4.00904 4.744035,3.4745 1.870884,-0.53454 1.469982,-1.73725 2.806329,-1.33635 1.336347,0.40091 2.405425,1.00226 2.739512,1.60362 0.334086,0.60136 0.133635,0.80181 -0.601356,0.73499 -0.734991,-0.0668 -2.739514,0.73499 -3.541321,0.26727 -0.801809,-0.46772 -1.069078,0.60136 -0.734991,1.73725 0.334087,1.1359 1.603616,3.87541 1.937702,5.01131 0.334087,1.13589 0.400905,3.60813 1.469983,5.61265 1.069078,2.00453 3.808592,7.48355 5.479026,9.95579 1.670434,2.47225 3.80859,5.67948 4.610399,7.95127 0.801809,2.27179 -0.06682,4.14268 3.34087,6.41447 3.407685,2.27179 11.693041,2.00452 14.232101,-0.60135 2.539061,-2.60588 9.755337,-3.47451 11.425777,-6.28084 1.67043,-2.80633 2.74982,-19.27861 1.1462,-21.21631 -1.60361,-1.93771 0.71566,-9.57192 0.78248,-11.24235 0.0668,-1.67044 -3.28403,-61.447856 -10.166216,-65.456898 C 92.199077,37.942501 77.386299,32.064363 58.05935,56.77067 54.160144,61.755162 53.366436,81.242225 53.654356,86.849097 Z"
       id="path5625"
       inkscape:connector-curvature="0"
       sodipodi:nodetypes="csssccccccccssccccssc" />
    <path
       style="fill:#7a4e30;fill-opacity:1;stroke:none;stroke-width:0.99999994px;stroke-linecap:butt;stroke-linejoin:miter;stroke-opacity:1"
       d="m 288.30273,472.23242 c 0,0 -0.98186,0.89287 -3.39257,1.25 -2.41072,0.35717 -3.92774,0.17813 -5.17774,-0.0898 -1.25,-0.26797 -3.57198,-0.89249 -5.08984,-0.26758 -1.51786,0.62498 -1.96485,1.78516 -1.96485,1.78516 0,0 3.06426,-0.94885 2.33594,0.82031 -6.06091,4.04062 -9.0918,0.25287 -11.61719,4.04101 -2.52537,3.78807 3.53691,9.59596 2.7793,15.4043 -0.37817,2.89929 -0.75707,4.79051 -1.04101,5.95899 0.64007,-2.00387 1.84323,-5.06093 3.06054,-4.19141 1.76777,1.26266 -0.50586,6.81836 -0.50586,6.81836 0,0 2.27442,-4.54395 3.53711,-3.28125 1.26269,1.2627 -0.2539,3.78711 -0.2539,3.78711 0,0 2.7795,-3.02948 3.53711,-1.26172 0.75762,1.76776 -0.25391,4.79687 -0.25391,4.79687 0,0 1.51583,-2.52484 2.27344,-0.25195 0.75761,2.27282 -1.00977,8.08203 -1.00977,8.08203 0,0 2.27324,-4.79921 4.04102,-3.78906 1.76775,1.01015 0,7.07031 0,7.07031 0,0 2.01953,-1.76776 2.01953,0 0,1.11469 -0.97488,2.08045 -1.7168,2.67774 1.26651,-0.89717 3.62313,-2.30821 3.99024,-0.65625 0.50507,2.27282 -2.02149,5.05078 -2.02149,5.05078 0,0 4.042,-3.5363 5.30469,2.01953 1.26269,5.55587 1.76659,8.58674 0.5039,9.0918 -1.26269,0.50505 -3.02929,-0.75782 -3.02929,-0.75782 0,0 4.03926,3.78888 4.79687,5.55664 0.75762,1.76776 0.25391,4.54493 0.25391,4.54493 0,0 1.51466,-0.75703 5.30273,2.27343 3.78808,3.03047 4.29297,6.3125 4.29297,6.3125 0,0 0.47517,-3.59791 1.18946,-2.70507 0.71428,0.89287 0.53431,3.1239 1.96289,4.82031 1.42857,1.69644 5.44726,2.41015 5.44726,2.41015 0,0 -2.50028,-3.74834 -0.98242,-4.10546 1.51786,-0.35717 2.76869,4.81975 4.19727,5.35546 1.42857,0.53571 3.57031,0.98243 3.57031,0.98243 0,0 -1.69615,-1.60744 -1.51758,-3.48243 0.17858,-1.87502 3.57227,0.89284 3.57227,2.5 0,1.60714 0.44531,2.05469 0.44531,2.05469 0,0 -0.35601,-5.00028 1.42969,-4.73242 1.78571,0.26797 1.60546,3.74946 3.48046,4.91016 1.87501,1.16073 2.76954,1.25 2.76954,1.25 0,0 -2.14453,-3.74892 -0.89454,-4.19532 1.25,-0.44643 3.0374,3.92827 4.01954,4.01758 l 0.98046,0.0898 c 0,0 -2.58789,-2.76927 -1.33789,-4.91211 1.25,-2.14284 4.10659,5.0011 6.78516,5.17968 2.67857,0.17878 2.94727,-0.89257 2.94727,-0.89257 0,0 -2.85798,-1.69727 -1.69727,-2.94727 1.16072,-1.25 4.375,0.17773 4.375,0.17773 0,0 -1.15987,-3.83956 0.44727,-4.10742 1.60714,-0.26797 2.58789,4.375 2.58789,4.375 0,0 1.87612,-0.44505 2.05468,-2.58789 0.17859,-2.14288 1.51813,-2.32226 2.23243,-3.57226 0.71428,-1.25001 0.625,-2.76758 0.625,-2.76758 0,0 2.14146,3.66045 1.33789,5.26758 -0.80358,1.60716 -1.16016,2.32226 -1.16016,2.32226 0,0 2.58957,-2.85856 4.73242,-4.28711 2.14286,-1.42858 3.39174,-0.98046 3.57031,-3.48047 0.17859,-2.5 -0.17803,-3.75029 1.33985,-4.10742 1.51786,-0.35716 2.05469,1.25 2.05469,1.25 0,0 1.33845,5.17772 3.30273,5.80274 1.96429,0.62498 3.21484,0.625 3.21484,0.625 0,0 -4.4654,-6.15988 -3.92968,-8.92774 0.53571,-2.76786 4.73242,5 4.73242,5 0,0 -0.89256,-4.64399 0.35742,-5.80469 1.25,-1.16073 1.16016,-5.89257 1.16016,-5.89257 0,0 3.48298,3.03599 3.57226,5.35742 0.0893,2.32142 -0.17969,3.03515 -0.17969,3.03515 0,0 4.01898,-3.48213 3.30469,-6.25 -0.71428,-2.76786 0.80274,-4.55273 0.80274,-4.55273 0,0 3.57282,2.76674 3.03711,4.82031 -0.20069,0.7693 -0.40556,1.25943 -0.59375,1.63867 0.6878,-1.00722 1.8555,-2.48091 2.64648,-1.99414 1.16073,0.7143 0.71484,2.85547 0.71484,2.85547 0,0 2.76729,-1.42714 2.41016,-3.21289 -0.35717,-1.78571 -1.16156,-2.7676 0.80273,-6.51758 1.9643,-3.75001 11.87587,-4.19727 12.05441,-7.85797 0.17839,-3.6607 -1.24971,-19.28629 -0.98186,-25.17914 0.26797,-5.89285 -1.78572,-14.46289 -1.78572,-14.46289 0,0 -6.60744,15.80356 -10.08956,18.75 -3.48215,2.94641 -6.07227,3.48047 -6.07227,3.48047 0,0 -0.98075,2.23353 -3.21289,2.41211 -2.23214,0.1784 -5.625,0.44531 -5.625,0.44531 0,0 -1.4294,0.71431 -3.57226,0.625 -2.14286,-0.0892 -4.91016,-1.51757 -4.91016,-1.51757 0,0 -0.44615,0.53598 -2.76758,0.98242 -2.32143,0.44644 -5.53684,0.98213 -5.80468,-1.875 -0.26786,-2.85717 -1.96318,-2.76839 -2.94532,-9.46485 -0.98215,-6.69641 -6.51813,-17.14229 -10.98242,-18.66015 -4.46428,-1.51786 -6.25,-1.60742 -6.25,-1.60742 0,0 1.25,0.53545 0.625,0.89257 -0.625,0.35717 -2.76729,-1.24972 -4.28515,-1.51757 -1.51786,-0.26797 -4.82227,-3.125 -4.82227,-3.125 0,0 5.5e-4,1.78515 -1.16016,1.78515 -1.16072,0 -3.66211,-2.94531 -3.66211,-2.94531 0,0 -0.80273,1.60742 -3.30273,1.60742 -2.5,0 -5.44615,-2.23269 -7.14258,-3.21484 -1.69642,-0.98215 -3.39258,-0.98242 -3.39258,-0.98242 0,0 0.625,0.62614 -0.625,0.80468 -1.25,0.1784 -3.66211,-0.80498 -4.28711,-1.16211 -0.625,-0.35716 -3.75,-1.07031 -3.75,-1.07031 0,0 -0.53515,0.981 -1.78515,1.07031 -1.25,0.0892 -6.33985,-1.07031 -6.33985,-1.07031 z m 90.30079,71.72656 c -0.32149,0.47079 -0.56836,0.86133 -0.56836,0.86133 0,0 0.25419,-0.22822 0.56836,-0.86133 z M 279.86328,521.5918 c -0.47603,0.3372 -0.80859,0.60547 -0.80859,0.60547 0,0 0.37392,-0.25553 0.80859,-0.60547 z M 311.25,491.16016 c 1.78572,0 2.23242,0.98242 2.23242,0.98242 0,0 0.98159,3.9e-4 1.78516,-0.26758 0.80357,-0.26759 1.60742,-0.0898 1.60742,-0.0898 0,0 5.75279,0.10878 6.82422,1.89453 1.07145,1.78571 3.11914,4.50586 3.11914,4.50586 0,0 -2.40596,2.6071 -2.04883,4.125 0.35715,1.51786 -5.12751,1.17273 -6.4668,2.86914 -1.33928,1.69644 -5.44559,-0.35883 -7.67773,0.35547 -2.23214,0.71436 -4.7313,8.6e-4 -10.17773,0.44726 -5.44644,0.44633 -7.14454,-0.26758 -7.14454,-0.26758 0,0 -1.07143,1.07032 -3.75,1.07032 -2.67857,0 -3.66015,-1.60743 -3.66015,-1.60743 0,0 -0.80301,0.71457 -3.03516,-0.26757 -2.23213,-0.98215 -2.41015,-1.96425 -2.41015,-3.75 0,-1.78568 0.89257,-2.76758 0.89257,-2.76758 0,0 -1.16069,0.17884 -1.25,-0.89258 -0.0893,-1.07142 0.35743,-2.76758 0.35743,-2.76758 0,0 -1.161,0.53514 -1.60743,-0.0898 -0.44643,-0.62502 2.58789,-3.39258 2.58789,-3.39258 0,0 1.25,0.98325 3.125,1.42969 1.87501,0.4464 2.23354,-0.80356 3.66211,-1.25 1.42859,-0.44644 1.78516,0.53515 1.78516,0.53515 0,0 1.78517,-0.71405 2.41016,-0.26757 0.62499,0.44628 1.87584,1.07005 3.57226,0.71289 1.69643,-0.35717 1.69699,-0.71459 3.83985,-0.35743 2.14285,0.35713 1.875,0.89454 1.875,0.89454 0,0 0.62499,-0.98243 1.875,-0.98243 1.24999,0 2.8563,0.3566 4.55273,-0.0898 1.69643,-0.44632 1.33929,-0.71484 3.125,-0.71484 z m -46.11719,9.98242 c -0.28794,0.90231 -0.47265,1.60937 -0.47265,1.60937 0,0 0.18855,-0.44138 0.47265,-1.60937 z"
       transform="scale(0.26458333)"
       id="path5627"
       inkscape:connector-curvature="0"
       sodipodi:nodetypes="ccsccccscccscccccccsccccccccsccccccccscccccccsccccccccccccccccccccccccccccccccccccccccsccsccccscscccccccccccccsccccccccccsccsccccccccccccscsccc" />
    <path
       transform="translate(0,-32.41665)"
       style="display:inline;fill:#c58a63;stroke:none;stroke-width:0.26458332px;stroke-linecap:butt;stroke-linejoin:miter;stroke-opacity:1;fill-opacity:1"
       d="m 74.083332,152.42409 c 0,0 0.718725,-2.25531 2.589612,-1.92122 1.870888,0.33409 3.541321,0.90204 3.708366,1.77066 0.167042,0.86863 -0.267269,2.63929 -1.236123,2.50566 -0.968851,-0.13364 -2.204974,-0.46773 -3.207234,-0.23387 -1.00226,0.23387 -3.608139,0.63477 -4.510172,1.06908 -0.902036,0.43431 -1.637027,1.10249 -2.472243,1.1359 -0.835218,0.0334 -1.670436,-0.70159 -1.670436,-0.70159 0,0 1.503391,2.23839 4.710626,1.10249 3.207234,-1.13589 5.245166,-1.43657 6.247426,-1.36975 1.00226,0.0668 3.140416,-0.63477 3.00678,-2.13816 -0.133633,-1.50339 -0.167042,-2.23838 -1.670433,-3.00678 -1.503392,-0.7684 -3.708366,-1.06908 -4.209495,-0.63477 -0.501131,0.43432 -2.105625,1.16974 -1.286674,2.42235 z"
       id="path5631"
       inkscape:connector-curvature="0" />
    <path
       transform="translate(0,-32.41665)"
       style="display:inline;fill:#28170b;stroke:none;stroke-width:0.26458332px;stroke-linecap:butt;stroke-linejoin:miter;stroke-opacity:1"
       d="m 73.933433,155.91508 c -0.434314,-0.43431 1.670433,-1.03567 2.77292,-1.03567 1.102487,0 2.171565,0.4009 2.03793,0.46772 -0.133633,0.0668 -1.436574,-0.30068 -2.27179,-0.10022 -0.835218,0.20045 -2.004523,0.96885 -2.53906,0.66817 z"
       id="path5633"
       inkscape:connector-curvature="0" />
    <path
       transform="translate(0,-32.41665)"
       style="display:inline;fill:#c58a63;stroke:none;stroke-width:0.26458332px;stroke-linecap:butt;stroke-linejoin:miter;stroke-opacity:1;fill-opacity:1"
       d="m 67.786233,149.60084 c 0.03341,-0.90204 0.167045,-3.10701 0.200451,-4.51018 0.03341,-1.40316 0.267272,-3.04019 -0.100224,-3.94222 -0.367496,-0.90204 -0.501131,-1.10249 -0.501131,-1.10249 0,0 -0.0047,0.70732 -0.773148,0.74073 -0.7684,0.0334 -1.732504,0.25915 -2.467495,0.35938 -0.734992,0.10023 -1.503392,-0.2983 -1.503392,-0.2983 0,0 -0.597998,1.07244 -0.297319,1.90765 0.300678,0.83522 0.951655,2.49084 1.252336,3.05878 0.300678,0.56795 0.41474,1.38122 0.71542,1.41463 0.300678,0.0334 1.536798,-3.20723 2.405425,-2.73951 0.868627,0.46772 1.069078,4.30972 1.069077,5.11153 z"
       id="path5635"
       inkscape:connector-curvature="0"
       sodipodi:nodetypes="cccccsccccsc" />
    <path
       transform="translate(0,-32.41665)"
       style="display:inline;fill:#c58a63;stroke:none;stroke-width:0.26458332px;stroke-linecap:butt;stroke-linejoin:miter;stroke-opacity:1;fill-opacity:1"
       d="m 69.189398,138.47574 c 0.23386,0.60136 0.03341,2.20498 0.668173,2.10475 0.634765,-0.10023 0.935445,-0.90203 1.703843,-0.26727 0.7684,0.63477 1.202714,2.17157 1.837478,2.33861 0.634768,0.16704 -0.601355,-1.57021 0.56795,-1.50339 1.169302,0.0668 0.400904,1.36976 2.505651,1.67043 2.104748,0.30068 4.710626,-0.23386 4.376539,-0.33408 -0.334089,-0.10023 -0.734991,-0.3675 0.801807,-0.23386 1.5368,0.13363 2.037932,0.4009 3.441097,-0.30068 1.403164,-0.70159 2.973371,-2.93997 3.140416,-3.67496 0.167042,-0.73499 -5.879931,-4.14268 -8.853302,-3.30746 -2.973374,0.83522 -5.545844,2.47224 -6.982418,2.80633 -1.436574,0.33409 -3.207234,-0.0334 -3.207234,0.70158 z"
       id="path5637"
       inkscape:connector-curvature="0" />
    <path
       transform="translate(0,-32.41665)"
       style="display:inline;fill:#502d16;stroke:none;stroke-width:0.26458332px;stroke-linecap:butt;stroke-linejoin:miter;stroke-opacity:1"
       d="m 73.565937,139.04369 c -0.167045,-0.70158 0.801809,-1.30294 1.603616,-0.96885 0.801809,0.33409 2.438836,1.06908 3.641547,1.03567 1.202714,-0.0334 5.679477,-0.83522 5.646069,-0.30068 -0.03341,0.53454 -5.345391,2.27179 -7.082642,2.40542 -1.737252,0.13364 -1.770661,0.0668 -2.539061,-0.66817 -0.7684,-0.73499 -0.868624,-1.03567 -1.269529,-1.50339 z"
       id="path5639"
       inkscape:connector-curvature="0" />
    <path
       transform="translate(0,-32.41665)"
       style="display:inline;fill:#c58a63;stroke:none;stroke-width:0.26458332px;stroke-linecap:butt;stroke-linejoin:miter;stroke-opacity:1;fill-opacity:1"
       d="m 67.941218,129.88726 c 0,2.26785 -0.992187,5.00818 0.0945,5.6224 1.086681,0.6142 3.023809,0 5.197171,-1.18118 2.173364,-1.18118 5.811385,-2.78757 7.748513,-3.2128 1.937128,-0.42522 3.732514,0.0945 3.874257,-0.61421 0.14174,-0.70871 -16.536458,-4.7247 -16.914437,-0.61421 z"
       id="path5647"
       inkscape:connector-curvature="0" />
    <path
       style="display:inline;fill:#c58a63;stroke:none;stroke-width:0.99999994px;stroke-linecap:butt;stroke-linejoin:miter;stroke-opacity:1;fill-opacity:1"
       d="M 210 315.71484 L 202.94727 318.45703 C 202.67044 321.49146 202.60931 324.74763 202.78906 328.24805 C 202.78906 338.09703 202.78731 344.1592 206.07031 350.47266 C 209.35331 356.78612 212.89005 386.07991 215.66797 392.89844 C 218.44589 399.71697 226.52658 408.05156 233.59766 406.03125 C 238.91846 404.51101 239.3784 401.56158 241.43164 400.83984 C 241.56878 400.22346 241.64873 399.71265 241.60742 399.46484 C 241.42885 398.39342 235.17829 399.28571 234.64258 397.5 C 234.10686 395.71448 240.8937 396.78542 243.57227 395.89258 C 246.25085 394.99974 245.35714 385.71344 243.75 385.17773 C 242.14286 384.64202 242.49972 386.42857 239.64258 391.25 C 236.78543 396.07143 232.85713 392.49975 232.5 390.89258 C 232.14286 389.28545 225.53571 382.85772 221.25 380.71484 C 216.96429 378.572 214.464 373.74946 214.64258 366.78516 C 214.82115 359.82089 218.75028 352.67775 216.60742 346.42773 C 214.46457 340.17776 206.07143 322.50053 210 315.71484 z "
       transform="scale(0.26458333)"
       id="path5649" />
    <path
       transform="translate(0,-32.41665)"
       style="display:inline;fill:#c58a63;stroke:none;stroke-width:0.26458332px;stroke-linecap:butt;stroke-linejoin:miter;stroke-opacity:1;fill-opacity:1"
       d="m 92.074351,141.7832 c -1.904294,2.17157 -5.011304,3.57473 -5.345391,4.54359 -0.334086,0.96885 -1.102487,4.77744 1.035669,6.14719 2.138157,1.36976 5.746295,3.27406 6.113791,5.17835 0.367496,1.9043 -0.801809,5.24517 2.33861,3.04019 3.140416,-2.20497 4.27631,-2.50565 5.11153,-4.97789 0.83522,-2.47225 2.43883,-4.34313 2.40542,-6.74856 -0.0334,-2.40542 1.77067,-4.51017 1.5368,-6.18061 -0.23386,-1.67043 -0.0668,-2.20497 -1.03567,-2.20497 -0.96885,0 -3.44109,-0.63476 -5.579246,0.10023 -2.138157,0.73499 -5.846522,1.20271 -6.581513,1.10248 z"
       id="path5641"
       inkscape:connector-curvature="0" />
    <path
       transform="translate(0,-32.41665)"
       style="display:inline;fill:#502d16;stroke:none;stroke-width:0.26458332px;stroke-linecap:butt;stroke-linejoin:miter;stroke-opacity:1;fill-opacity:0.5235849"
       d="m 96.98543,142.1507 c 0.46772,0.3675 2.873147,2.07134 3.27405,3.842 0.4009,1.77066 0.63477,4.47676 0.33409,5.81311 -0.30068,1.33635 -1.069082,2.63929 -1.002264,3.24064 0.06682,0.60136 0.300678,2.07134 0.734994,2.13816 0.43431,0.0668 1.97111,-4.94449 2.67269,-6.04697 0.70159,-1.10249 -0.23386,-2.43884 0.0334,-4.04245 0.26727,-1.60362 1.50339,-3.64155 1.50339,-4.64381 0,-1.00226 0.56795,-1.00226 -0.63476,-1.26953 -1.20271,-0.26727 -3.50791,-0.56795 -4.610402,-0.20046 -1.102487,0.3675 -2.672694,0.43432 -2.305198,1.16931 z"
       id="path5643"
       inkscape:connector-curvature="0" />
    <path
       transform="translate(0,-32.41665)"
       style="display:inline;fill:#573b29;stroke:none;stroke-width:0.26458332px;stroke-linecap:butt;stroke-linejoin:miter;stroke-opacity:1;fill-opacity:1"
       d="m 76.256697,168.15735 c 0,0 -0.519719,0.87407 -0.755955,1.06306 -0.236233,0.18898 -0.236233,0.18898 -0.236233,0.18898 0,0 0.68508,0.0236 0.87407,-0.23623 0.188986,-0.25986 0.826823,-0.37798 0.614211,0.0236 -0.212611,0.4016 -0.708705,0.59059 -0.708705,0.59059 0,0 0.259858,0.3071 0.685081,-0.0236 0.425222,-0.33073 0.732329,-0.25986 0.732329,-0.25986 0,0 0.07087,0.8032 -0.330729,1.01581 -0.4016,0.21261 -0.330729,0.21261 -0.330729,0.21261 0,0 0.73233,-0.14174 1.299292,-0.7087 0.566965,-0.56697 0.755954,-0.54334 0.755954,-0.14174 0,0.4016 -0.236236,1.01581 -0.236236,1.01581 0,0 0.614212,-0.23624 0.708705,-0.51972 0.09449,-0.28348 0,-0.44885 0.165365,-0.44885 0.165365,0 -0.04725,1.18118 -0.04725,1.18118 0,0 0.236236,0.14174 0.566965,-0.37798 0.330729,-0.51971 0.188987,-1.01581 0.354351,-1.1103 0.165365,-0.0945 0.33073,0.99219 0.33073,0.99219 0,0 0.236236,-0.44885 0.259858,-0.85045 0.02363,-0.4016 0.307107,-0.42522 0.448847,0.0473 0.141742,0.47247 -0.04725,0.94494 -0.04725,0.94494 0,0 0.307107,-0.56697 0.590587,-0.61422 0.283483,-0.0472 0.73233,0.37798 0.874072,0.37798 0.14174,0 0.377976,-0.11812 0.377976,-0.11812 0,0 -0.661458,-0.54334 -0.519718,-0.87407 0.141742,-0.33073 0.519718,0.54335 0.519718,0.54335 0,0 0.307105,-0.35436 0.54334,0 0.236236,0.35435 0.236236,0.33072 0.236236,0.33072 0,0 -0.236236,-0.94494 0.02363,-1.01581 0.259857,-0.0709 0.496093,0.75595 0.496093,0.75595 0,0 0,-0.96856 0.212612,-1.20479 0.212611,-0.23624 0.732329,0.3071 0.732329,0.3071 0,0 -0.4016,-0.77957 -0.02363,-1.2048 0.377978,-0.42522 1.039437,-0.33073 1.039437,-0.33073 0,0 0.09449,-0.3071 -0.236236,-0.66146 -0.330729,-0.35435 -0.755952,-0.42522 -0.803201,-0.63783 -0.04725,-0.21261 -0.0945,-0.21261 -0.0945,-0.21261 0,0 -0.377976,0.3071 -0.566965,0.75595 -0.188987,0.44884 -0.236233,0.35435 -0.236233,0.35435 0,0 -0.236236,-0.28348 -0.614212,-0.21261 -0.377976,0.0709 -0.496094,0.35435 -0.897694,0.44884 -0.401601,0.0945 -0.73233,0.16537 -0.968563,0.0236 -0.236236,-0.14174 -0.496094,-0.42522 -0.496094,-0.42522 0,0 0.09449,0.23623 -0.165364,0.25986 -0.259861,0.0236 -0.448847,-0.25986 -0.448847,-0.25986 0,0 0.07087,0.21261 -0.165365,0.25986 -0.236236,0.0472 -0.425223,-0.16537 -0.425223,-0.16537 0,0 0.14174,0.21261 -0.188989,0.25986 -0.330729,0.0472 -0.165364,-0.35435 -0.165364,-0.35435 0,0 -0.165365,0.25986 -0.401601,0.28348 -0.236233,0.0236 -0.519716,-0.14174 -0.519716,-0.14174 0,0 0.165365,0.16536 -0.212611,0.21261 -0.377978,0.0472 -0.519718,-0.14174 -0.519718,-0.14174 0,0 0.04725,0.0945 -0.307105,0.11812 -0.354353,0.0236 -0.590589,-0.28349 -0.874072,-0.33073 -0.28348,-0.0472 -0.54334,-0.16537 -0.708705,0.0236 -0.165364,0.18899 -0.283482,0.44885 -0.637833,0.59059 -0.354354,0.14174 -0.472472,0.14174 -0.472472,0.14174 0,0 0.212614,0.14174 0.614211,0.0945 0.401601,-0.0472 0.307108,0.16536 0.307108,0.16536 z"
       id="path5645"
       inkscape:connector-curvature="0" />
    <path
       style="fill:#c29070;stroke:none;stroke-width:0.26458332px;stroke-linecap:butt;stroke-linejoin:miter;stroke-opacity:1;fill-opacity:1"
       d="m 75.26978,131.51652 c 0,0.23386 -0.367496,0.73499 0.53454,1.23612 0.902033,0.50113 4.075859,0.43431 5.111528,-0.0334 1.035669,-0.46772 4.276312,-0.30068 4.309721,-0.63477 0.03341,-0.33408 -0.334087,-1.26953 -1.503389,-1.33635 -1.169305,-0.0668 -2.438837,-0.0334 -3.708366,0.30068 -1.269531,0.33409 -2.672696,0.73499 -3.407687,0.43432 -0.734992,-0.30068 -1.536798,-0.60136 -1.336347,0.0334 z"
       id="path5663"
       inkscape:connector-curvature="0" />
    <path
       style="fill:#502d16;stroke:none;stroke-width:0.26458332px;stroke-linecap:butt;stroke-linejoin:miter;stroke-opacity:1"
       d="m 75.653139,131.52057 c 0.334087,-0.0334 1.200688,0.57403 2.13613,0.4738 0.935445,-0.10022 3.228832,-0.70934 4.130868,-0.90979 0.902033,-0.20045 1.746688,-0.22003 2.086857,-0.075 0.316541,0.25141 0.416768,0.40664 0.283132,0.37323 -0.133635,-0.0334 -0.7684,-0.0668 -1.403164,0.0334 -0.634765,0.10023 -3.217019,0.86694 -4.620184,0.90035 -1.403165,0.0334 -2.488949,-0.19927 -2.672697,-0.58346 -0.183748,-0.38419 0.05906,-0.21259 0.05906,-0.21259 z"
       id="path5661"
       inkscape:connector-curvature="0"
       sodipodi:nodetypes="ccsccsczc" />
  </g>
  <g
     inkscape:groupmode="layer"
     id="layer8"
     inkscape:label="Hair"
     style="display:inline">
    <path
       style="fill:#a86d46;fill-opacity:1;stroke:none;stroke-width:0.26458332px;stroke-linecap:butt;stroke-linejoin:miter;stroke-opacity:1"
       d="m 176.51488,196.07515 c 5.48065,4.06324 9.26042,4.7247 11.71726,8.31547 2.45685,3.59078 1.88988,7.37054 3.87426,8.59896 1.98437,1.22842 3.87425,1.51191 3.87425,1.51191 0,0 -5.29166,-3.02382 -3.40178,-5.85864 1.88988,-2.83482 3.77976,0.28349 3.77976,0.28349 0,0 -1.03943,-5.57515 -4.44122,-7.08706 -3.40179,-1.5119 -6.3311,-2.83482 -6.70908,-5.10267 -0.37797,-2.26786 4.7247,0.85044 4.7247,0.85044 0,0 -6.04762,-5.76414 -6.42559,-7.843 -0.37798,-2.07887 -6.52009,-4.34673 -9.82738,-7.08706 -3.30729,-2.74033 -12.56771,-25.79687 -12.56771,-25.79687 l -23.90699,-21.45015 -20.33939,-17.47073 -3.47312,28.999 34.39584,50.45982 z"
       id="path5693"
       inkscape:connector-curvature="0"
       sodipodi:nodetypes="csccscccccscccccc" />
    <path
       style="fill:#b96a35;stroke:none;stroke-width:0.26458332px;stroke-linecap:butt;stroke-linejoin:miter;stroke-opacity:1;fill-opacity:1"
       d="m 116.39588,161.8182 c 0.53454,4.94448 -1.20271,5.07812 1.73725,11.49259 2.93996,6.41447 6.41447,7.34991 7.88445,9.75533 1.46998,2.40543 3.20724,10.55715 5.61266,12.69531 2.40543,2.13815 0.93544,4.54358 1.20271,7.21628 0.26727,2.67269 2.27179,4.00904 2.27179,4.00904 0,0 -3.4745,-4.67722 -1.33634,-6.54811 2.13815,-1.87088 3.34087,7.88446 3.34087,7.88446 0,0 0.93544,-1.73726 0.8018,-3.74178 -0.13363,-2.00452 0,0.80181 2.13816,2.40543 2.13816,1.60361 22.45064,10.28987 27.39513,10.28987 4.94448,0 7.75081,-1.73725 8.15172,2.13816 0.4009,3.87541 -0.40091,8.15172 2.00452,9.88897 2.40542,1.73726 4.00904,1.73726 4.00904,1.73726 0,0 -3.60814,-1.06908 -3.60814,-4.81086 0,-3.74177 2.00452,-5.21175 2.00452,-5.21175 0,0 0.53454,3.34087 3.20724,4.40994 2.6727,1.06908 4.27631,3.34087 4.27631,3.34087 0,0 -0.66817,-2.67269 -2.53906,-3.60813 -1.87089,-0.93545 -2.40542,-2.40543 -2.40542,-2.40543 0,0 3.8754,2.93996 6.41446,2.27179 2.53906,-0.66817 4.54358,-2.80633 6.41447,-1.73725 1.87089,1.06908 2.40543,1.60362 2.40543,1.60362 0,0 -2.80633,-4.00905 -5.47903,-2.80633 -2.67269,1.20271 -9.88897,2.00452 -10.28987,-2.00453 -0.40091,-4.00904 -2.40543,-9.88897 -2.40543,-9.88897 0,0 3.4745,0 4.27631,2.53906 0.80181,2.53906 0.80181,4.81085 0.80181,4.81085 0,0 0.93544,-4.00904 -0.26727,-6.28083 -1.20271,-2.27179 -7.08264,-4.67722 -8.68626,-7.75082 -1.60362,-3.0736 -28.0633,-7.61718 -28.99874,-11.22532 -0.93545,-3.60813 1.73725,-2.13815 1.73725,-2.13815 0,0 -4.27631,-4.81085 -6.5481,-5.34539 -2.27179,-0.53454 -4.14268,-9.75534 0,-8.68626 4.14268,1.06908 5.34539,4.40994 5.34539,6.68174 0,2.27179 -0.80181,3.0736 -0.80181,3.0736 0,0 1.60362,-0.53454 1.87089,-2.00453 0.26727,-1.46998 0.26727,-2.40542 0.26727,-2.40542 0,0 1.60361,1.06908 1.06907,3.34087 -0.53454,2.27179 2.80633,6.28083 2.80633,6.28083 0,0 -2.67269,-5.74629 -1.33635,-8.55262 1.33635,-2.80633 2.93997,-3.0736 1.60362,-5.7463 -1.33634,-2.67269 -2.93996,-0.53454 -2.93996,-0.53454 0,0 3.0736,-1.20271 0.80181,-3.4745 -2.27179,-2.27179 -4.00905,-2.6727 -9.2208,-4.67722 -5.21176,-2.00452 -4.40995,-5.61266 -10.95805,-8.55262 -6.5481,-2.93997 -14.03165,2.27179 -14.03165,2.27179 z"
       id="path5674"
       inkscape:connector-curvature="0" />
    <path
       style="fill:#b97b52;stroke:none;stroke-width:0.26458332px;stroke-linecap:butt;stroke-linejoin:miter;stroke-opacity:1;fill-opacity:1"
       d="m 56.790923,154.30878 c 0.09449,5.66964 -2.74033,12.37872 -4.913691,16.44196 -2.173364,4.06325 -3.307292,8.88244 -3.307292,14.74107 0,5.85864 -1.984375,15.40253 -1.984375,15.40253 0,0 1.039434,-3.87425 1.133928,-2.26785 0.0945,1.60639 -1.322917,2.17336 0.377975,7.27604 1.700896,5.10268 4.913691,6.61458 5.102681,11.43378 0.188986,4.81919 -1.133931,8.97693 -1.133931,8.97693 0,0 1.984375,-4.15774 1.889882,-8.31548 -0.09449,-4.15773 -1.228423,-5.66964 -1.228423,-5.66964 0,0 2.929316,2.64584 2.834822,7.65402 -0.09449,5.00818 -1.039434,6.3311 -1.039434,6.3311 0,0 2.173362,-3.87425 3.212799,-2.64583 1.039434,1.22842 -0.0945,3.30729 -0.0945,3.30729 0,0 2.834822,-3.68527 2.740329,-5.10268 -0.0945,-1.41741 -0.377979,-1.88988 -0.377979,-1.88988 0,0 1.417413,0.56696 1.228424,2.83482 -0.188987,2.26786 -0.661459,2.36235 -0.661459,2.36235 0,0 2.173365,-1.6064 2.456847,-3.59077 0.28348,-1.98438 3.874254,-5.57515 3.874254,-5.57515 0,0 -0.377976,5.76414 -1.984375,6.99256 -1.606399,1.22842 -2.362351,1.79539 -2.362351,1.79539 0,0 4.913691,-1.88988 5.10268,-5.48066 0.188987,-3.59077 1.039435,-7.18155 1.511904,-8.88244 0.472471,-1.70089 0.566965,-2.92932 0.566965,-2.92932 0,0 1.795385,2.26786 1.228423,4.72471 -0.566965,2.45684 -2.078871,6.42559 -2.078871,6.42559 0,0 2.456847,-3.30729 2.645833,-5.57515 0.18899,-2.26785 2.078871,-5.76413 2.078871,-5.76413 0,0 2.83482,2.92931 1.795386,5.48065 -1.039434,2.55134 -2.456844,3.30729 -2.456844,3.30729 0,0 1.606396,0.0945 2.551337,-1.22842 0.944941,-1.32291 2.078871,-2.64583 2.929316,0.47247 0.850448,3.11831 -0.566965,4.53572 -0.566965,4.53572 0,0 1.606399,-2.26786 1.984375,-2.36235 0.377979,-0.0945 1.322917,2.26785 1.322917,2.26785 0,0 1.228423,-1.79539 -0.377976,-4.15774 -1.606399,-2.36235 -3.023809,-7.65401 -0.850445,-6.14211 2.173362,1.51191 1.41741,4.06325 1.41741,4.06325 0,0 0.188989,-2.36236 0.944941,-0.75596 0.755951,1.6064 -0.188989,3.49628 -0.188989,3.49628 0,0 1.795388,0.94494 2.173364,-1.79538 0.377976,-2.74033 -4.063243,-6.70908 -3.307292,-8.78795 0.755952,-2.07887 3.118303,-1.98438 3.496278,0.75595 0.377979,2.74033 0.0945,4.44122 0.0945,4.44122 0,0 1.700893,-1.41741 1.511904,1.51191 -0.188987,2.92931 -1.322917,4.06324 -1.322917,4.06324 0,0 1.700892,-3.02381 3.023809,-2.55134 1.322917,0.47247 2.362353,0.56697 2.362353,0.56697 0,0 -3.779763,-3.11831 -1.984375,-4.53572 1.795386,-1.41741 3.118303,2.64583 3.118303,2.64583 0,0 1.322917,-1.13393 1.511906,0.85045 0.188986,1.98437 -0.188989,2.26786 -0.188989,2.26786 0,0 1.133927,-1.7009 0.94494,-3.40179 -0.188989,-1.70089 2.362351,-0.0945 2.362351,-0.0945 0,0 -1.700892,-0.94494 -2.362351,-4.34673 -0.661458,-3.40178 0.755952,-6.2366 -0.377975,-8.69345 -1.133931,-2.45684 -6.803573,-0.75595 -8.12649,-4.7247 -1.322916,-3.96875 -4.724701,-8.50447 -3.96875,-12.09524 0.755952,-3.59077 1.41741,-6.23661 0.18899,-8.22098 -1.228424,-1.98438 1.889879,-5.48066 1.889879,-5.48066 0,0 -0.944938,4.7247 -0.28348,6.61459 0.661458,1.88988 0.661458,1.88988 0.661458,1.88988 0,0 -1.417412,-5.76414 0,-6.4256 1.41741,-0.66146 -0.850447,-9.4494 -0.850447,-9.4494 l -10.016369,0.0945 c 0,0 0.566963,5.38616 0,7.74851 -0.566965,2.36236 1.133928,4.25223 1.228421,6.89807 0.0945,2.64583 -1.228421,4.91369 -1.41741,7.37054 -0.188986,2.45684 0.661459,3.77976 0.661459,3.77976 0,0 -0.566965,-5.10268 0.188989,-3.49628 0.755951,1.60639 0.188986,4.44122 0.755951,6.99256 0.566965,2.55133 2.267858,4.63021 2.645834,6.3311 0.377976,1.70089 1.322916,5.95312 1.322916,5.95312 0,0 -2.55134,-0.28348 -2.740326,-2.64583 -0.188989,-2.36235 0.472469,-3.40179 -0.472472,-5.10268 -0.944941,-1.70089 -2.645833,-2.26786 -2.83482,-5.38616 -0.188989,-3.1183 0.09449,4.25223 -0.755954,3.2128 -0.850445,-1.03944 0.566965,-9.44941 0.472472,-12.37872 -0.09449,-2.92932 -1.795389,-3.96875 -1.039435,-6.52009 0.755952,-2.55134 1.133928,-4.63021 1.133928,-6.23661 0,-1.6064 -0.850445,-7.74851 -0.850445,-7.74851 l -10.583333,-11.1503 z"
       id="path5682"
       inkscape:connector-curvature="0" />
    <path
       style="fill:#945d38;stroke:none;stroke-width:0.26458332px;stroke-linecap:butt;stroke-linejoin:miter;stroke-opacity:1;fill-opacity:1"
       d="m 73.043898,47.813986 c 0,-1.606397 1.133928,-2.362351 2.740327,-3.401785 1.606399,-1.039434 0.472472,-1.41741 1.889882,-2.645833 1.417409,-1.228424 2.929315,-2.362351 4.91369,-3.023809 1.984375,-0.661459 4.535713,-1.889882 4.630209,-3.023809 0.09449,-1.133931 -0.0945,-1.795389 -0.0945,-1.795389 0,0 0.283482,1.889882 1.039436,2.55134 0.755952,0.661458 3.02381,-1.606399 3.02381,-1.606399 0,0 -1.039435,1.322917 0.09449,1.606399 1.133927,0.283483 3.590774,-1.606399 6.047618,-0.283482 2.456847,1.322916 2.55134,2.078871 2.55134,2.078871 0,0 -5.008184,-2.645834 -4.819197,-1.511906 0.188989,1.133927 3.023811,2.456844 5.858627,2.456844 2.83482,0 5.38616,-0.188987 6.89807,1.700895 1.5119,1.889879 -1.6064,0.944938 -1.6064,0.944938 0,0 2.55134,0.283483 0.75595,-1.133927 -1.79539,-1.41741 -3.40179,0.661458 -0.66146,1.889881 2.74033,1.228421 2.83482,0.188987 6.80357,4.535713 3.96875,4.346728 2.36235,5.858631 5.76414,7.087055 3.40179,1.228423 4.25223,-0.472472 6.99256,2.929315 2.74033,3.401785 0.94494,6.425594 0.94494,6.425594 0,0 -1.13393,-4.630208 -2.17336,-4.630208 -1.03944,0 0.47247,4.346726 2.83482,6.709077 2.36235,2.362353 2.83482,7.559524 4.91369,11.055805 2.07887,3.496278 5.48065,2.36235 6.70908,4.819195 1.22842,2.456846 1.13392,4.346728 1.13392,4.346728 0,0 -3.87425,-6.52009 -2.64583,-2.929316 1.22842,3.590774 1.79539,2.645833 3.68527,4.913691 1.88988,2.267855 0.56696,4.913688 1.41741,7.654017 0.85045,2.740327 2.92931,5.858629 6.04762,9.543899 3.1183,3.68527 4.15774,7.55952 8.03199,9.26042 3.87426,1.70089 7.84301,2.55133 7.84301,2.55133 0,0 -3.02381,-0.66145 -2.74033,1.22843 0.28348,1.88988 8.59896,6.89806 8.59896,6.89806 0,0 -3.77976,0.0945 -1.13393,2.83482 2.64583,2.74033 6.89807,3.02382 9.73289,4.15774 2.83482,1.13393 21.51956,9.49753 24.99406,18.9856 3.47451,9.48807 -2.13815,25.39061 -0.4009,30.46873 1.73725,5.07812 10.95805,3.34087 10.95805,3.34087 0,0 -5.47903,2.27179 -7.75082,1.46998 -2.27179,-0.80181 1.87089,3.0736 5.7463,1.46998 3.8754,-1.60361 3.8754,-1.60361 3.8754,-1.60361 0,0 -2.53906,4.94448 -7.21627,4.40994 -4.67722,-0.53454 -5.47903,-2.40542 -5.47903,-2.40542 0,0 -0.80181,3.0736 4.27632,5.21175 5.07812,2.13816 7.21627,0 7.21627,0 0,0 -2.67269,6.01357 -8.81989,1.73725 -6.1472,-4.27631 -10.55715,-21.11429 -13.63075,-18.17433 -3.0736,2.93997 1.60362,6.41448 3.4745,7.08265 1.87089,0.66817 1.87089,0.66817 1.87089,0.66817 0,0 -4.27631,0.26727 -5.21175,1.20272 -0.93545,0.93544 -0.53454,7.21627 1.87088,5.47902 2.40543,-1.73725 2.40543,-3.20723 2.40543,-3.20723 0,0 -1.87089,9.35443 -5.7463,5.74629 -3.8754,-3.60814 -0.93544,-8.95353 -4.81085,-11.09168 -3.87541,-2.13816 -18.97613,-6.94901 -24.45516,-12.42804 -5.47902,-5.47902 -10.15624,-18.97613 -18.57523,-23.92062 -8.41899,-4.94449 -19.77794,-13.09621 -22.18337,-25.52424 -2.40543,-12.42803 1.33635,-23.118814 -4.00905,-27.26149 C 112.11956,89.521791 103.83421,82.038245 103.29967,72.282906 102.76513,62.527571 82.076744,47.399323 73.043898,47.813986 Z"
       id="path5670"
       inkscape:connector-curvature="0" />
    <path
       style="fill:#854c26;stroke:none;stroke-width:0.26458332px;stroke-linecap:butt;stroke-linejoin:miter;stroke-opacity:1;fill-opacity:1"
       d="m 63.499999,61.421131 c 0.188989,-1.984375 1.795386,-1.984375 2.645833,-3.590774 0.850448,-1.606399 -0.09449,-1.984375 1.228424,-3.118305 1.322917,-1.133928 2.740326,-0.755952 2.83482,-1.984375 0.0945,-1.228421 -1.511903,-1.41741 0,-3.023809 1.511906,-1.6064 1.984375,-1.6064 4.630208,-2.362351 2.645833,-0.755952 2.929316,-2.362351 10.299851,0.09449 7.370537,2.456847 9.921875,3.023809 12.473215,5.669643 2.55134,2.645833 5.85863,8.031995 8.31548,13.040179 2.45684,5.008185 1.5119,6.236608 1.88988,10.016369 0.37797,3.779763 -0.56697,8.126489 4.06324,11.717263 4.63021,3.590771 6.14211,4.346726 6.99256,7.843004 0.85045,3.496281 -1.41741,7.748515 0.56696,8.126495 1.98438,0.37797 9.07143,5.19717 12.7567,8.88244 3.68527,3.68527 6.89807,6.3311 12.09524,8.03199 5.19717,1.70089 11.1503,0.47247 11.1503,0.47247 0,0 -4.91369,2.17336 -6.80357,2.07887 -1.88989,-0.0945 2.26785,4.34673 6.89806,2.26786 4.63021,-2.07887 15.21354,-10.29985 15.21354,-10.29985 0,0 -9.16592,10.86681 -11.33928,11.33928 -2.17337,0.47247 -3.49628,4.44122 1.41741,3.1183 4.91369,-1.32291 12.5677,-8.97693 12.5677,-8.97693 0,0 -3.77976,5.48066 -5.19717,7.9375 -1.41741,2.45684 1.79539,1.51191 1.79539,1.51191 0,0 -3.68527,1.32291 -6.23661,2.45684 -2.55134,1.13393 -6.14211,-1.70089 -10.48884,-1.51191 -4.34672,0.18899 -18.61532,-3.96875 -23.34003,-10.48883 -4.7247,-6.52009 -7.46503,-11.90625 -14.1741,-14.83557 -6.70908,-2.92931 -19.465777,-3.68527 -27.403277,-15.308036 -7.9375,-11.62277 -18.237351,-26.930805 -24.851934,-29.104166 z"
       id="path5668"
       inkscape:connector-curvature="0" />
    <path
       style="fill:#784421;stroke:none;stroke-width:0.26458332px;stroke-linecap:butt;stroke-linejoin:miter;stroke-opacity:1"
       d="m 57.357885,75.406249 c -0.28348,3.212798 -1.039434,5.102677 0.188989,10.583333 1.228424,5.480653 8.315476,12.567708 8.315476,12.567708 0,0 -4.535715,-6.047618 -4.913691,-7.843006 -0.377976,-1.795386 4.535715,5.480656 7.843007,8.598958 3.307291,3.118308 4.724701,3.023808 4.724701,3.023808 0,0 -6.425594,-4.063242 -7.654017,-7.843003 -1.228423,-3.779763 1.889882,3.023809 7.559524,6.047623 5.669642,3.0238 13.040177,6.99255 18.615326,6.99255 5.57515,0 7.654018,-0.37797 13.79613,0.66146 6.14212,1.03944 12.56771,-0.85044 15.02456,-5.95312 2.45684,-5.10268 1.70089,-8.409971 1.70089,-8.409971 0,0 -1.98438,8.315471 -4.34673,7.559521 -2.36235,-0.75595 -3.21279,-2.456844 -6.52009,-2.645833 C 108.38467,98.55729 100.73065,99.502231 94.683034,93.927082 88.635416,88.351933 84.572172,78.997023 83.15476,73.516367 81.73735,68.035714 64.633927,59.531249 64.350447,60.47619 c -0.283483,0.944941 -1.228424,2.362351 -1.795389,3.874254 -0.566965,1.511906 -1.606399,1.700895 -2.078868,3.779763 -0.472472,2.078869 -0.755952,4.157737 -1.511906,4.913691 -0.755951,0.755952 0.188989,1.133928 -1.606399,2.362351 z"
       id="path5666"
       inkscape:connector-curvature="0" />
    <path
       style="fill:#9f5b2d;stroke:none;stroke-width:0.26458332px;stroke-linecap:butt;stroke-linejoin:miter;stroke-opacity:1;fill-opacity:1"
       d="m 104.76965,112.37334 c 0,0 -1.46998,1.87088 -1.46998,6.28083 0,4.40995 1.06908,13.36348 0.53454,15.7689 -0.53454,2.40543 0,7.21628 2.13816,10.95805 2.13815,3.74178 7.48354,10.28988 8.68626,15.50163 1.20271,5.21176 2.93996,6.01357 8.15172,9.48807 5.21175,3.47451 4.67721,7.08265 9.75533,10.42351 5.07812,3.34087 12.2944,0.80181 12.2944,0.80181 0,0 -9.88897,1.73726 -11.22532,-2.53906 -1.33635,-4.27631 5.7463,0.66818 8.28536,-1.73725 2.53906,-2.40543 -0.93545,-4.67722 -0.93545,-4.67722 0,0 2.27179,4.14268 -2.67269,3.0736 -4.94449,-1.06907 -9.2208,-4.94448 -9.48807,-8.95353 -0.26727,-4.00904 -0.13363,-3.4745 -2.93996,-8.68626 -2.80633,-5.21175 -12.56167,-13.36347 -13.09621,-17.50615 -0.53454,-4.14268 -3.87541,-6.01356 -4.27631,-9.88897 -0.40091,-3.87541 0.93544,-7.75082 0.93544,-7.75082 0,0 1.73725,6.54811 1.60362,8.28536 -0.13364,1.73725 -0.80181,1.20271 -0.80181,1.20271 0,0 4.00904,3.74177 4.14268,4.67722 0.13363,0.93544 1.87088,6.5481 4.27631,10.42351 2.40542,3.87541 8.81989,4.81085 13.22984,7.61718 4.40995,2.80633 11.22532,11.89349 17.10525,12.42803 5.87993,0.53454 11.09168,-5.07812 11.09168,-5.07812 0,0 -7.08264,7.88445 -14.69982,1.87089 -7.61718,-6.01357 -9.2208,-12.2944 -12.2944,-15.23436 -3.0736,-2.93997 -6.5481,-4.67722 -5.07812,-5.07813 1.46998,-0.4009 4.00905,-0.13363 8.01809,5.61267 4.00904,5.74629 10.02261,11.75985 13.63074,13.0962 3.60814,1.33635 5.07812,-1.20271 5.07812,-1.20271 0,0 -2.13815,2.40542 -7.75081,-3.34087 -5.61266,-5.74629 -6.01357,-12.96257 -7.21628,-14.9671 -1.20271,-2.00452 -10.15624,-2.00452 -13.36348,-5.61265 -3.20723,-3.60814 -8.28535,-12.2944 -8.28535,-14.69983 0,-2.40542 0,-3.0736 0,-3.0736 0,0 2.13816,4.67722 7.75082,5.87993 5.61266,1.20272 6.68173,0 12.16076,5.21176 5.47903,5.21175 8.41899,12.82894 14.83346,11.75986 6.41447,-1.06908 12.16076,-6.68174 18.04069,-7.75082 5.87993,-1.06908 7.48355,-0.80181 7.48355,-0.80181 0,0 -5.34539,-1.73725 -13.76438,2.6727 -8.41899,4.40994 -16.57071,5.47902 -18.17433,1.33635 -1.60362,-4.14268 -4.00904,-7.34992 -7.48355,-9.88898 -3.4745,-2.53906 -18.30796,-6.68174 -18.70886,-10.69078 -0.40091,-4.00904 4.94448,-0.93544 4.94448,-0.93544 0,0 -1.33634,-4.67722 -6.41447,-6.68174 -5.07812,-2.00452 -10.28987,-0.93544 -13.0962,-1.73725 -2.80633,-0.80181 -2.80633,-0.80181 -2.80633,-0.80181 0,0 3.20723,3.4745 6.81537,3.87541 3.60814,0.4009 5.07812,5.07812 5.07812,5.07812 l -4.67722,-2.93996 c 0,0 0.93545,4.40994 -0.4009,3.60813 -1.33635,-0.80181 -2.93997,-5.07812 -2.93997,-5.07812 0,0 0.80181,4.14268 -0.26726,4.14268 -1.06908,0 -1.73726,-3.74177 -1.73726,-3.74177 z"
       id="path5672"
       inkscape:connector-curvature="0" />
    <path
       style="fill:#784421;stroke:none;stroke-width:0.26458332px;stroke-linecap:butt;stroke-linejoin:miter;stroke-opacity:1"
       d="m 56.794775,79.499184 c -2.672696,7.349913 -6.147199,12.294399 -10.557147,18.441598 -4.409948,6.147198 -12.962573,10.022608 -13.764382,14.833458 -0.801806,4.81085 3.207234,6.01357 3.608139,9.48807 0.400904,3.4745 -2.939963,7.34991 -2.939963,7.34991 0,0 2.405425,-2.80633 2.004521,-6.28083 -0.400905,-3.47451 -6.414469,-7.61719 -4.810853,-10.95805 1.603618,-3.34087 5.612662,-7.48355 7.617182,-13.630749 2.004523,-6.147199 2.138156,-9.087164 6.68174,-17.773425 4.543581,-8.68626 0.801806,-4.276312 0.801806,-4.276312 0,0 0.267272,0.267269 3.207235,-9.488069 2.939965,-9.755336 5.078121,-12.828937 8.018086,-16.30344 2.939966,-3.474503 5.746295,-8.151719 3.073599,-6.949008 -2.672694,1.202714 -2.539061,3.474505 -2.539061,3.474505 0,0 -1.069078,-4.543583 3.474506,-4.677216 4.543581,-0.133636 7.884451,0.133633 9.755338,-2.80633 1.870884,-2.939965 17.238884,-6.548104 16.303439,-3.741774 -0.935442,2.806329 -6.013563,1.469982 -7.750815,4.009043 -1.737251,2.539061 -2.539061,1.336347 -4.810852,4.009043 -2.271792,2.672694 -6.414469,6.013564 -6.1472,7.884451 0.267272,1.870885 -3.207234,2.80633 -4.276312,4.81085 -1.069078,2.004523 -1.069078,4.543584 -2.271789,7.216278 -1.202714,2.672696 -2.405428,1.202713 -3.207234,5.34539 -0.80181,4.142679 -1.469983,10.022607 -1.469983,10.022607 z"
       id="path5676"
       inkscape:connector-curvature="0" />
    <path
       style="fill:#a86d46;stroke:none;stroke-width:0.26458332px;stroke-linecap:butt;stroke-linejoin:miter;stroke-opacity:1;fill-opacity:1"
       d="m 57.830357,121.61384 c -0.377976,6.70908 -0.377976,13.60714 -1.322917,17.3869 -0.944941,3.77976 0.472469,4.53572 -1.984375,6.52009 -2.456847,1.98438 -3.874256,0.94494 -6.236607,3.77976 -2.362351,2.83482 -7.276042,2.83482 -7.654018,5.48066 -0.377975,2.64583 0,4.25223 0,4.25223 0,0 -1.13393,-3.59077 5.008184,-5.38616 6.142115,-1.79539 9.260417,-0.28348 8.315476,1.13393 -0.944941,1.41741 -3.401785,3.96875 -3.496278,6.14211 -0.0945,2.17336 2.267855,0.85045 5.38616,2.83482 3.118302,1.98438 3.685267,4.34673 3.685267,4.34673 0,0 -0.755951,-4.15774 -3.590774,-5.48066 -2.83482,-1.32291 -4.630208,-1.79538 -1.984375,-3.68526 2.645833,-1.88988 4.913691,-3.2128 5.197173,-4.91369 0.283483,-1.7009 -0.09449,-2.36235 -0.09449,-2.36235 0,0 0.755952,7.37053 6.709077,10.39434 5.953125,3.02381 15.68601,-0.85045 19.087798,5.00818 3.401785,5.85864 -1.039437,9.07143 -0.283483,13.41816 0.755952,4.34673 5.197171,9.73289 5.197171,9.73289 0,0 -4.630208,-5.48066 -4.063243,-9.82739 0.566965,-4.34672 1.984375,-4.25223 1.984375,-4.25223 0,0 3.401785,10.77232 3.401785,15.40253 0,4.63021 -3.212796,8.03199 -3.212796,8.03199 0,0 3.779761,-2.26785 3.874254,-6.14211 0.0945,-3.87425 0.0945,-3.87425 0.0945,-3.87425 0,0 0.188986,9.82738 2.267857,12.28422 2.078869,2.45685 2.83482,2.17337 2.83482,2.17337 0,0 -4.157736,-3.40179 -3.874256,-9.07143 0.283482,-5.66965 4.91369,5.57515 4.91369,5.57515 0,0 -1.700892,-6.23661 -3.212795,-8.032 -1.511906,-1.79538 -3.307292,-3.59077 -3.496281,-7.65401 -0.188989,-4.06325 0.944941,-8.22099 0.944941,-8.22099 0,0 2.173361,8.50447 1.700892,10.11087 -0.472469,1.60639 3.023809,-1.32292 3.118303,0.94494 0.0945,2.26785 -1.41741,2.83482 0.0945,4.15773 1.511904,1.32292 2.929318,1.03944 2.929318,1.03944 0,0 -3.496283,-1.03944 -3.307293,-2.36235 0.188986,-1.32292 1.984375,-4.06325 0.661458,-4.7247 -1.322917,-0.66146 -0.850448,-2.92932 -0.283483,-3.68527 0.566963,-0.75596 5.197168,5.00818 5.197168,5.00818 0,0 -4.913685,-5.66964 -4.346723,-5.85863 0.566965,-0.18899 4.063243,4.44122 6.425593,4.8192 2.36235,0.37797 4.06325,-1.32292 5.95313,-1.22842 1.88988,0.0945 3.21279,1.13392 3.21279,1.13392 0,0 -1.70089,-2.17336 -4.15773,-1.6064 -2.45685,0.56697 -4.34673,3.2128 -7.84301,-1.03943 -3.496277,-4.25223 -2.551338,-7.74851 -2.551338,-7.74851 0,0 -1.984375,1.98437 -3.496279,-1.98438 -1.511906,-3.96875 -4.819197,-6.80357 -4.535715,-9.73288 0.283483,-2.92932 2.078869,-2.92932 0.850448,-6.99256 -1.228423,-4.06325 -2.173364,-4.8192 -2.173364,-4.8192 0,0 2.740326,8.12649 0.377975,8.12649 -2.36235,0 -6.142111,-3.2128 -6.142111,-6.04762 0,-2.83482 -3.212798,-5.29167 -3.212798,-5.29167 0,0 3.496281,6.4256 1.41741,7.18155 -2.078869,0.75595 -5.197171,-0.28348 -5.102678,-3.49628 0.09449,-3.2128 -3.685267,-11.90625 -3.685267,-11.90625 0,0 1.511903,5.00818 0.755951,5.19717 -0.755951,0.18899 -3.023809,-11.71726 -3.023809,-11.71726 0,0 1.700893,8.31548 0.850445,9.16592 -0.850445,0.85045 -4.535712,-0.66145 -4.819195,-3.77976 -0.283482,-3.1183 0.188987,-4.81919 0.188987,-4.81919 0,0 -1.889879,4.7247 -2.551337,3.87425 -0.661459,-0.85045 1.889879,-8.40997 1.889879,-8.40997 0,0 -2.645834,6.61458 -3.118303,6.52009 -0.472469,-0.0945 2.456844,-12.09524 2.456844,-12.09524 0,0 -2.740326,7.84301 -3.96875,10.86682 -1.22842,3.02381 -3.96875,7.9375 -3.96875,7.9375 0,0 -0.850445,-1.13393 0.472472,-6.14211 1.322917,-5.00819 -0.661458,-15.59152 -0.661458,-15.59152 z"
       id="path5680"
       inkscape:connector-curvature="0" />
  </g>
  <g
     inkscape:groupmode="layer"
     id="layer10"
     inkscape:label="Guitar">
    <path
       style="fill:#483e37;stroke:none;stroke-width:0.26458332px;stroke-linecap:butt;stroke-linejoin:miter;stroke-opacity:1"
       d="m 136.4494,268.36309 c 0,0 88.057,-164.94328 88.85881,-166.81417 0.80181,-1.870886 4.54358,-4.543583 7.34991,-4.944487 2.80633,-0.400902 3.60814,0.267271 4.14268,-0.534538 0.53454,-0.801809 14.03165,-38.620446 15.23436,-45.16855 1.20272,-6.548104 -0.66817,-11.22532 -3.87541,-15.100728 -3.20723,-3.875408 -7.61718,-5.879931 -7.61718,-5.879931 0,0 3.0736,4.677217 1.87089,9.888974 -1.20271,5.211755 -6.41447,12.428032 -16.03617,19.64431 -9.62171,7.216277 -18.4416,15.367997 -18.30796,16.169806 0.13363,0.801809 3.60813,5.34539 2.53906,8.418992 C 209.53931,87.116366 101.29515,271.7996 101.29515,271.7996 Z"
       id="path5702"
       inkscape:connector-curvature="0" />
    <ellipse
       style="opacity:1;fill:#d4d4d4;fill-opacity:1;stroke:none;stroke-width:0.26499999;stroke-miterlimit:4;stroke-dasharray:none;stroke-opacity:1"
       id="path5704"
       cx="197.49844"
       cy="146.54514"
       rx="3.2740517"
       ry="2.6058779"
       transform="rotate(-24.487236)" />
    <ellipse
       transform="rotate(-24.487236)"
       ry="1.3313723"
       rx="1.6727498"
       cy="146.54514"
       cx="197.49844"
       id="ellipse5706"
       style="opacity:1;fill:#c0c0c0;fill-opacity:1;stroke:none;stroke-width:0.13539147;stroke-miterlimit:4;stroke-dasharray:none;stroke-opacity:1" />
    <ellipse
       transform="rotate(-24.487236)"
       ry="2.6058779"
       rx="3.2740517"
       cy="150.40782"
       cx="186.6349"
       id="ellipse5708"
       style="opacity:1;fill:#d4d4d4;fill-opacity:1;stroke:none;stroke-width:0.26499999;stroke-miterlimit:4;stroke-dasharray:none;stroke-opacity:1" />
    <ellipse
       style="opacity:1;fill:#c0c0c0;fill-opacity:1;stroke:none;stroke-width:0.13539147;stroke-miterlimit:4;stroke-dasharray:none;stroke-opacity:1"
       id="ellipse5710"
       cx="186.6349"
       cy="150.40782"
       rx="1.6727498"
       ry="1.3313723"
       transform="rotate(-24.487236)" />
    <ellipse
       style="opacity:1;fill:#d4d4d4;fill-opacity:1;stroke:none;stroke-width:0.26499999;stroke-miterlimit:4;stroke-dasharray:none;stroke-opacity:1"
       id="ellipse5712"
       cx="175.09706"
       cy="153.81656"
       rx="3.2740517"
       ry="2.6058779"
       transform="rotate(-24.487236)" />
    <ellipse
       transform="rotate(-24.487236)"
       ry="1.3313723"
       rx="1.6727498"
       cy="153.81656"
       cx="175.09706"
       id="ellipse5714"
       style="opacity:1;fill:#c0c0c0;fill-opacity:1;stroke:none;stroke-width:0.13539147;stroke-miterlimit:4;stroke-dasharray:none;stroke-opacity:1" />
    <ellipse
       transform="rotate(-24.487236)"
       ry="2.6058779"
       rx="3.2740517"
       cy="157.56847"
       cx="163.9903"
       id="ellipse5716"
       style="opacity:1;fill:#d4d4d4;fill-opacity:1;stroke:none;stroke-width:0.26499999;stroke-miterlimit:4;stroke-dasharray:none;stroke-opacity:1" />
    <ellipse
       style="opacity:1;fill:#c0c0c0;fill-opacity:1;stroke:none;stroke-width:0.13539147;stroke-miterlimit:4;stroke-dasharray:none;stroke-opacity:1"
       id="ellipse5718"
       cx="163.9903"
       cy="157.56847"
       rx="1.6727498"
       ry="1.3313723"
       transform="rotate(-24.487236)" />
    <ellipse
       style="opacity:1;fill:#d4d4d4;fill-opacity:1;stroke:none;stroke-width:0.26499999;stroke-miterlimit:4;stroke-dasharray:none;stroke-opacity:1"
       id="ellipse5720"
       cx="174.63565"
       cy="179.01019"
       rx="3.2740517"
       ry="2.6058779"
       transform="rotate(-24.487236)" />
    <ellipse
       transform="rotate(-24.487236)"
       ry="1.3313723"
       rx="1.6727498"
       cy="179.01019"
       cx="174.63565"
       id="ellipse5722"
       style="opacity:1;fill:#c0c0c0;fill-opacity:1;stroke:none;stroke-width:0.13539147;stroke-miterlimit:4;stroke-dasharray:none;stroke-opacity:1" />
    <ellipse
       transform="rotate(-24.487236)"
       ry="2.6058779"
       rx="3.2740517"
       cy="170.88733"
       cx="182.5937"
       id="ellipse5724"
       style="opacity:1;fill:#d4d4d4;fill-opacity:1;stroke:none;stroke-width:0.26499999;stroke-miterlimit:4;stroke-dasharray:none;stroke-opacity:1" />
    <ellipse
       style="opacity:1;fill:#c0c0c0;fill-opacity:1;stroke:none;stroke-width:0.13539147;stroke-miterlimit:4;stroke-dasharray:none;stroke-opacity:1"
       id="ellipse5726"
       cx="182.5937"
       cy="170.88733"
       rx="1.6727498"
       ry="1.3313723"
       transform="rotate(-24.487236)" />
    <ellipse
       style="opacity:1;fill:#d4d4d4;fill-opacity:1;stroke:none;stroke-width:0.26499999;stroke-miterlimit:4;stroke-dasharray:none;stroke-opacity:1"
       id="ellipse5728"
       cx="190.44098"
       cy="163.00769"
       rx="3.2740517"
       ry="2.6058779"
       transform="rotate(-24.487236)" />
    <ellipse
       transform="rotate(-24.487236)"
       ry="1.3313723"
       rx="1.6727498"
       cy="163.00769"
       cx="190.44098"
       id="ellipse5730"
       style="opacity:1;fill:#c0c0c0;fill-opacity:1;stroke:none;stroke-width:0.13539147;stroke-miterlimit:4;stroke-dasharray:none;stroke-opacity:1" />
    <ellipse
       transform="rotate(-24.487236)"
       ry="2.6058779"
       rx="3.2740517"
       cy="155.07266"
       cx="198.16664"
       id="ellipse5732"
       style="opacity:1;fill:#d4d4d4;fill-opacity:1;stroke:none;stroke-width:0.26499999;stroke-miterlimit:4;stroke-dasharray:none;stroke-opacity:1" />
    <ellipse
       style="opacity:1;fill:#c0c0c0;fill-opacity:1;stroke:none;stroke-width:0.13539147;stroke-miterlimit:4;stroke-dasharray:none;stroke-opacity:1"
       id="ellipse5734"
       cx="198.16664"
       cy="155.07266"
       rx="1.6727498"
       ry="1.3313723"
       transform="rotate(-24.487236)" />
    <path
       style="fill:none;stroke:#b7b7b7;stroke-width:0.66145834;stroke-linecap:butt;stroke-linejoin:miter;stroke-opacity:1;stroke-miterlimit:4;stroke-dasharray:none"
       d="M 216.20238,75.21726 206.18601,95.816964 97.517856,281.97024"
       id="path5736"
       inkscape:connector-curvature="0" />
    <path
       style="fill:none;stroke:#b7b7b7;stroke-width:0.58208334;stroke-linecap:butt;stroke-linejoin:miter;stroke-opacity:1;stroke-miterlimit:4;stroke-dasharray:none"
       d="M 224.51785,67.468749 208.26488,97.517856 92.793155,297.84524"
       id="path5738"
       inkscape:connector-curvature="0" />
    <path
       style="fill:none;stroke:#b7b7b7;stroke-width:0.50270834;stroke-linecap:butt;stroke-linejoin:miter;stroke-opacity:1;stroke-miterlimit:4;stroke-dasharray:none"
       d="M 233.4003,59.531249 209.96577,99.407738 94.116071,302.94791"
       id="path5740"
       inkscape:connector-curvature="0" />
    <path
       style="fill:none;stroke:#b7b7b7;stroke-width:0.42333334;stroke-linecap:butt;stroke-linejoin:miter;stroke-opacity:1;stroke-miterlimit:4;stroke-dasharray:none"
       d="M 241.71577,51.971725 212.42262,100.91964 92.415176,313.34225"
       id="path5742"
       inkscape:connector-curvature="0" />
    <path
       style="fill:none;stroke:#b7b7b7;stroke-width:0.42333334;stroke-linecap:butt;stroke-linejoin:miter;stroke-opacity:1;stroke-miterlimit:4;stroke-dasharray:none"
       d="M 243.22768,58.586308 214.69047,101.48661 95.06101,316.17708"
       id="path5744"
       inkscape:connector-curvature="0" />
    <path
       style="fill:none;stroke:#b7b7b7;stroke-width:0.37041667;stroke-linecap:butt;stroke-linejoin:miter;stroke-opacity:1;stroke-miterlimit:4;stroke-dasharray:none"
       d="M 239.6369,69.169642 216.58035,102.80952 98.840773,317.87798"
       id="path5746"
       inkscape:connector-curvature="0" />
    <path
       style="fill:none;stroke:#b7b7b7;stroke-width:0.29104167;stroke-linecap:butt;stroke-linejoin:miter;stroke-opacity:1;stroke-miterlimit:4;stroke-dasharray:none"
       d="M 235.85714,79.18601 218.84821,103.75446 113.20387,299.16815"
       id="path5748"
       inkscape:connector-curvature="0" />
    <path
       style="fill:none;stroke:#b7b7b7;stroke-width:0.21166667;stroke-linecap:butt;stroke-linejoin:miter;stroke-opacity:1;stroke-miterlimit:4;stroke-dasharray:none"
       d="M 231.6994,90.525297 220.92708,105.07738 117.36161,300.11309"
       id="path5750"
       inkscape:connector-curvature="0" />
    <path
       style="fill:none;stroke:#676767;stroke-width:1.85208334;stroke-linecap:butt;stroke-linejoin:miter;stroke-opacity:1;stroke-miterlimit:4;stroke-dasharray:none"
       d="m 204.19392,96.069895 18.70886,9.488065"
       id="path5752"
       inkscape:connector-curvature="0" />
  </g>
  <g
     inkscape:groupmode="layer"
     id="layer11"
     inkscape:label="Hand">
    <path
       style="display:inline;fill:#deaa87;stroke:none;stroke-width:0.26458332px;stroke-linecap:butt;stroke-linejoin:miter;stroke-opacity:1"
       d="m 190.56317,215.40574 c 0.80181,9.08716 1.33635,19.2434 6.68174,25.12333 5.34539,5.87993 20.31248,20.31249 25.92514,17.63979 5.61266,-2.67269 11.75986,-17.90706 13.36348,-23.78699 1.60362,-5.87992 3.4745,-14.96709 2.40543,-19.77794 -1.06908,-4.81085 -8.55263,-34.47777 -9.08717,-39.28862 -0.53454,-4.81085 -2.93996,-12.82894 -5.34539,-18.17433 -2.40542,-5.34539 -6.41447,-15.23436 -7.75082,-17.63979 -1.33634,-2.40542 -9.08716,-10.95805 -13.36347,-12.02713 -4.27631,-1.06908 -18.4416,-2.13815 -19.77795,0.80181 -1.33634,2.93997 -0.3902,4.11029 -0.3902,4.11029 0,0 -3.77976,1.03943 -3.96875,2.55134 -0.18899,1.5119 0.0945,3.59077 0.0945,3.59077 0,0 -2.64583,2.07887 -2.83482,3.87426 -0.18899,1.79538 -0.18899,2.74033 -0.18899,2.74033 0,0 -3.1183,0.18898 -2.92932,2.26785 0.18899,2.07887 1.22843,2.45685 3.11831,3.68527 1.88988,1.22842 4.53571,3.2128 7.08705,4.63021 2.55134,1.41741 6.61459,5.38616 8.12649,6.70908 1.5119,1.32291 2.92932,5.19717 4.63021,6.99255 1.70089,1.79539 3.87426,5.66965 6.42559,7.08706 2.55134,1.41741 5.19718,2.83482 6.04762,4.53571 0.85045,1.7009 -0.37797,14.64658 -1.03943,19.93825 -0.66146,5.29166 -1.98438,9.82738 -1.98438,9.82738 z"
       id="path5689"
       inkscape:connector-curvature="0" />
    <path
       style="display:inline;fill:#daa079;stroke:none;stroke-width:0.99999994px;stroke-linecap:butt;stroke-linejoin:miter;stroke-opacity:1;fill-opacity:1"
       d="m 780.3828,790.72424 -61.65975,20.88319 c 3.03046,34.34517 6.56609,75.25515 26.76914,97.47851 20.20305,22.22335 76.77117,76.77146 97.98437,66.66992 21.21321,-10.10151 44.44689,-67.67899 50.50782,-89.90234 0.72083,-2.64305 1.45652,-5.46787 2.18554,-8.40625 -3.08619,1.59918 -7.59941,3.11297 -11.88476,1.48046 -7.49998,-2.85713 -6.78519,-24.28541 -11.78516,-24.64257 -5.00001,-0.35717 -26.07114,64.64314 -34.64258,75.35742 -8.5714,10.71428 -39.28541,4.28569 -54.64258,-17.5 -15.35712,-21.78573 -19.56204,-71.23786 -15.35854,-84.28516 4.2035,-13.0473 7.35071,-25.57246 12.5265,-37.13318 z"
       id="path5691"
       transform="scale(0.26458333)"
       inkscape:connector-curvature="0"
       sodipodi:nodetypes="ccscccsccczc" />
    <path
       style="fill:#a8724d;stroke:none;stroke-width:0.26458332px;stroke-linecap:butt;stroke-linejoin:miter;stroke-opacity:1;fill-opacity:1"
       d="m 209.5878,140.13467 c -1.6064,-0.85045 -7.84301,-4.91369 -9.44941,-6.61458 -1.6064,-1.7009 -2.83482,-2.64583 -4.34673,-2.64583 -1.5119,0 -10.86681,-0.66146 -11.52827,0.18898 -0.66146,0.85045 -1.32292,1.22842 -1.32292,1.22842 0,0 -0.47247,-2.17336 3.49628,-2.07886 3.96875,0.0945 10.01637,-0.18899 11.71726,0.94493 1.7009,1.13393 7.84301,7.46504 11.43379,8.97694 z"
       id="path5699"
       inkscape:connector-curvature="0" />
    <path
       style="fill:#a8724d;stroke:none;stroke-width:0.26458332px;stroke-linecap:butt;stroke-linejoin:miter;stroke-opacity:1;fill-opacity:1"
       d="m 202.02827,146.46577 c -2.83482,-2.83482 -6.61458,-6.89806 -8.03199,-7.37054 -1.41741,-0.47246 -7.9375,-1.5119 -10.01637,-1.88987 -2.07887,-0.37798 -4.44122,1.13392 -4.44122,1.13392 0,0 0.47247,0.85045 2.36235,0.47247 1.88988,-0.37797 5.10268,0 7.84301,0.47247 2.74032,0.47247 5.48065,1.51191 8.03199,3.77976 2.55134,2.26786 4.25223,3.40179 4.25223,3.40179 z"
       id="path5697"
       inkscape:connector-curvature="0" />
    <path
       style="fill:#a8724d;stroke:none;stroke-width:0.26458332px;stroke-linecap:butt;stroke-linejoin:miter;stroke-opacity:1;fill-opacity:1"
       d="m 197.77604,155.72619 c -0.94494,-1.98438 -1.32292,-2.55134 -3.59077,-4.06324 -2.26786,-1.51191 -3.68527,-4.06325 -5.00819,-4.25224 -1.32292,-0.18899 -6.14211,-1.79539 -7.27604,-1.88988 -1.13393,-0.0945 -5.66964,-0.18899 -5.66964,-0.18899 0,0 3.49628,1.03944 5.29166,1.03944 1.79539,0 1.51191,1.32292 4.53572,2.17336 3.02381,0.85045 5.57515,2.45685 7.08705,3.2128 1.51191,0.75595 4.63021,3.96875 4.63021,3.96875 z"
       id="path5695"
       inkscape:connector-curvature="0" />
  </g>
  <path
     style="fill:#6c5d53;stroke:none;stroke-width:0.26458332px;stroke-linecap:butt;stroke-linejoin:miter;stroke-opacity:1"
     d="m 111.50297,253.24405 c -3.0238,0.18898 -10.73202,-2.17059 -12.243928,-14.26583 -1.511906,-12.09524 10.732028,-33.17019 10.921018,-35.62703 0.18899,-2.45685 -3.59078,-6.04762 -7.37054,-3.77977 -3.77976,2.26786 -15.308032,13.98513 -17.953865,27.78125 -2.645833,13.79614 -5.291667,28.7262 -6.425597,32.31697 -1.133927,3.59077 -4.535715,9.07143 -4.535715,9.07143 l 28.537207,1.32292 z"
     id="path5772"
     inkscape:connector-curvature="0"
     sodipodi:nodetypes="csscssccc" />
</svg>
