<?xml version="1.0" encoding="UTF-8" standalone="no"?>
<!-- Created with Inkscape (http://www.inkscape.org/) -->

<svg
   xmlns:dc="http://purl.org/dc/elements/1.1/"
   xmlns:cc="http://creativecommons.org/ns#"
   xmlns:rdf="http://www.w3.org/1999/02/22-rdf-syntax-ns#"
   xmlns:svg="http://www.w3.org/2000/svg"
   xmlns="http://www.w3.org/2000/svg"
   xmlns:sodipodi="http://sodipodi.sourceforge.net/DTD/sodipodi-0.dtd"
   xmlns:inkscape="http://www.inkscape.org/namespaces/inkscape"
   width="1000"
   height="1000"
   viewBox="0 0 264.58333 264.58334"
   id="svg4332"
   version="1.1"
   inkscape:version="0.91+devel r13925"
   sodipodi:docname="evil-genius.svg"
   inkscape:export-filename="/Users/agarone/Documents/git/art/evil-genius/evil-genius.png"
   inkscape:export-xdpi="144"
   inkscape:export-ydpi="144">
  <defs
     id="defs4334" />
  <sodipodi:namedview
     id="base"
     pagecolor="#ffffff"
     bordercolor="#666666"
     borderopacity="1.0"
     inkscape:pageopacity="0.0"
     inkscape:pageshadow="2"
     inkscape:zoom="0.98994949"
     inkscape:cx="511.4641"
     inkscape:cy="428.883"
     inkscape:document-units="px"
     inkscape:current-layer="layer7"
     showgrid="false"
     units="px"
     showguides="true"
     inkscape:guide-bbox="true"
     inkscape:window-width="1920"
     inkscape:window-height="1151"
     inkscape:window-x="0"
     inkscape:window-y="1"
     inkscape:window-maximized="1">
    <sodipodi:guide
       position="264.58333,0"
       orientation="1,0"
       id="guide4340"
       inkscape:label=""
       inkscape:color="rgb(0,0,255)" />
    <sodipodi:guide
       position="0,0"
       orientation="1,0"
       id="guide4342"
       inkscape:label=""
       inkscape:color="rgb(0,0,255)" />
    <sodipodi:guide
       position="0,0"
       orientation="0,1"
       id="guide4344"
       inkscape:label=""
       inkscape:color="rgb(0,0,255)" />
    <sodipodi:guide
       position="0,264.58333"
       orientation="0,1"
       id="guide4346"
       inkscape:label=""
       inkscape:color="rgb(0,0,255)" />
  </sodipodi:namedview>
  <metadata
     id="metadata4337">
    <rdf:RDF>
      <cc:Work
         rdf:about="">
        <dc:format>image/svg+xml</dc:format>
        <dc:type
           rdf:resource="http://purl.org/dc/dcmitype/StillImage" />
        <dc:title></dc:title>
      </cc:Work>
    </rdf:RDF>
  </metadata>
  <g
     inkscape:label="BG"
     inkscape:groupmode="layer"
     id="layer1"
     transform="translate(0,-32.41665)"
     style="display:none">
    <rect
       style="opacity:1;fill:#ffffff;fill-opacity:1;stroke:none;stroke-width:11.60810661;stroke-miterlimit:4;stroke-dasharray:none;stroke-opacity:1"
       id="rect5606"
       width="264.58334"
       height="264.58334"
       x="0"
       y="32.416653" />
  </g>
  <g
     inkscape:groupmode="layer"
     id="layer7"
     inkscape:label="Shirt">
    <path
       style="fill:#c8ab37;fill-rule:evenodd;stroke:#000000;stroke-width:0.26458332px;stroke-linecap:butt;stroke-linejoin:miter;stroke-opacity:1"
       d="m 13.363476,264.58333 c 0,0 -15.2343627,-53.18664 -7.2162768,-63.07561 8.0180858,-9.88897 62.8083388,-26.19241 80.1808568,-26.45968 17.372524,-0.26727 4.009043,18.70887 26.726954,21.9161 22.71791,3.20724 60.67018,-17.63979 71.62823,-16.83798 10.95805,0.80181 9.08717,13.63075 21.38156,16.03617 12.2944,2.40543 52.63859,-14.43255 52.63859,-12.29439 0,2.13815 22.46416,13.36347 18.18783,38.75407 -4.2763,25.39061 -12.3079,41.96132 -12.3079,41.96132 z"
       id="path4994"
       inkscape:connector-curvature="0"
       sodipodi:nodetypes="cssssssscc" />
  </g>
  <g
     inkscape:groupmode="layer"
     id="layer4"
     inkscape:label="Stefan">
    <path
       style="fill:#f4d2bc;fill-rule:evenodd;stroke:#000000;stroke-width:0.30094004px;stroke-linecap:butt;stroke-linejoin:miter;stroke-opacity:1;fill-opacity:1"
       d="M 3.3628594,125.72137 C 2.2880737,118.84274 3.1479024,108.09488 8.0919171,97.991898 13.035932,87.888908 26.363275,73.486779 49.148737,74.346606 c 22.785459,0.859829 33.318359,21.495722 34.608104,38.477334 1.289742,16.98162 0,28.5893 -1.074786,30.09401 -1.074786,1.5047 -8.813242,6.66367 -7.738459,14.40212 1.074786,7.73846 0.214958,11.17777 7.5235,16.76666 7.308546,5.58889 -23.215372,27.94444 -35.897845,27.51452 -12.682474,-0.42992 -17.32505,-13.2757 -17.17305,-15.78366 0.151999,-2.50797 0.227995,-4.17994 -1.367981,-4.17994 -1.595975,0 -9.955846,0.91199 -11.095829,-2.05197 -1.139982,-2.96396 -0.987984,-6.99189 -3.951939,-11.47582 -2.963954,-4.48393 -8.2838734,-14.21178 -8.5118697,-19.68371 -0.2279965,-5.47191 -1.5959757,-11.85581 -0.7599882,-14.13578 0.8359869,-2.27996 0.06852,-6.57416 -0.3457347,-8.569 z"
       id="path4935"
       inkscape:connector-curvature="0" />
    <path
       style="fill:#552200;fill-rule:evenodd;stroke:#000000;stroke-width:0.30094004px;stroke-linecap:butt;stroke-linejoin:miter;stroke-opacity:1"
       d="m 24.83627,128.36247 c -0.683989,-1.51998 -1.291979,-2.20397 -0.303995,-2.65996 0.987983,-0.456 5.775912,-0.68399 9.271858,0.22799 3.495948,0.91199 7.143892,2.05197 6.839894,2.43197 -0.303995,0.37999 -8.815864,-1.59598 -11.931815,-1.13998 -3.115954,0.45599 -2.963955,0.75998 -3.875942,1.13998 z"
       id="path4937"
       inkscape:connector-curvature="0" />
    <path
       style="fill:#552200;fill-rule:evenodd;stroke:#000000;stroke-width:0.30094004px;stroke-linecap:butt;stroke-linejoin:miter;stroke-opacity:1"
       d="m 2.1886172,124.94253 c 0.2279964,-0.836 1.5959756,-1.36799 3.7239427,0.22799 2.1279678,1.59597 6.6878981,3.79994 6.8398961,4.63593 0.151997,0.83598 0.683989,5.8519 -0.607991,9.80385 -1.29198,3.95193 -4.4079332,6.0039 -4.3319337,8.51187 0.076002,2.50796 1.2919797,4.63592 3.3439487,4.63592 2.051969,0 6.763896,-1.51997 8.663867,-1.29198 1.899971,0.228 4.863928,0.83599 4.711928,-0.98799 -0.151999,-1.82396 -1.29198,-2.73595 -1.29198,-2.35595 0,0.37999 1.747973,3.34394 -0.531991,2.96395 -2.279966,-0.37999 -9.499855,1.21598 -10.905834,0.34199 -1.405978,-0.87398 -3.4579476,-2.58396 -2.8879556,-4.25593 0.5699909,-1.67197 4.5979286,-6.23191 4.9399246,-10.18384 0.341995,-3.95194 0.455993,-8.24588 -0.379994,-8.70187 -0.835987,-0.45599 -6.9538945,-6.7259 -9.385857,-5.43391 -2.4319627,1.29197 -1.8999708,2.08997 -1.8999708,2.08997 z"
       id="path4939"
       inkscape:connector-curvature="0" />
    <path
       style="fill:#784421;fill-rule:evenodd;stroke:#000000;stroke-width:0.30094004px;stroke-linecap:butt;stroke-linejoin:miter;stroke-opacity:1"
       d="m 5.1905711,131.06042 c -0.1519976,-0.91197 -0.9119858,-1.63397 0.7219888,-2.01397 1.6339753,-0.37999 4.5219301,0.608 4.7879271,1.40598 0.265996,0.798 -1.1399833,-0.49399 -1.0639838,-0.18999 0.076002,0.30399 0.151998,1.06398 -0.9879849,0.64599 -1.1399828,-0.418 -0.4939924,-0.79799 -0.9879849,-0.94999 -0.4939925,-0.15199 -1.671974,-1.13998 -2.4699623,1.10198 z"
       id="path4941"
       inkscape:connector-curvature="0" />
    <path
       style="fill:#784421;fill-rule:evenodd;stroke:#000000;stroke-width:0.30094004px;stroke-linecap:butt;stroke-linejoin:miter;stroke-opacity:1"
       d="m 28.560214,132.08641 c 0,-0.68399 -0.076,-1.86197 1.519976,-1.86197 1.595974,0 7.751881,2.05197 7.561884,2.50797 -0.189997,0.45598 -4.027937,-1.36799 -4.027937,-0.76 0,0.60799 -0.645992,1.78597 -1.823974,1.44398 -1.177981,-0.342 -0.873986,-2.12796 -1.101982,-2.12796 -0.227998,0 -1.253981,-0.798 -2.127967,0.79798 z"
       id="path4943"
       inkscape:connector-curvature="0" />
    <path
       style="fill:#784421;fill-rule:evenodd;stroke:#000000;stroke-width:0.30094004px;stroke-linecap:butt;stroke-linejoin:miter;stroke-opacity:1"
       d="m 27.648227,149.49015 c 0,-0.91199 9.423855,9.27185 8.359873,9.49985 -1.063985,0.22799 -6.307905,-7.75188 -8.359873,-9.49985 z"
       id="path4945"
       inkscape:connector-curvature="0" />
    <path
       style="fill:#784421;fill-rule:evenodd;stroke:#000000;stroke-width:0.30094004px;stroke-linecap:butt;stroke-linejoin:miter;stroke-opacity:1"
       d="m 10.396492,161.26996 c -0.9119867,-1.21597 -2.0519696,-2.81195 -0.7599888,-4.25593 1.2919798,-1.44398 4.7119288,-2.58396 4.7119288,-1.97597 0,0.60799 0.911985,2.81196 0.455992,3.11595 -0.455992,0.304 -4.787926,0.60799 -4.407932,3.11595 z"
       id="path4947"
       inkscape:connector-curvature="0" />
    <path
       style="fill:#784421;fill-rule:evenodd;stroke:#000000;stroke-width:0.30094004px;stroke-linecap:butt;stroke-linejoin:miter;stroke-opacity:1"
       d="m 15.71641,154.81006 c 0.076,-0.83599 10.183846,0.456 12.007815,2.35596 1.823975,1.89998 3.267951,5.24392 1.97597,5.01593 -1.291981,-0.228 -3.799939,-2.43197 -6.155904,-2.73595 -2.355965,-0.304 -7.523886,-0.684 -7.599884,-1.51998 -0.076,-0.83599 -0.303996,-2.50797 -0.227997,-3.11596 z"
       id="path4949"
       inkscape:connector-curvature="0" />
    <path
       style="fill:#2b1100;fill-rule:evenodd;stroke:#000000;stroke-width:0.30094004px;stroke-linecap:butt;stroke-linejoin:miter;stroke-opacity:1"
       d="M 11.992467,94.542984 C 9.940498,93.782997 9.3325074,85.043129 12.676456,81.015191 16.020405,76.987253 32.056158,65.891423 38.516062,64.979438 c 6.459901,-0.911986 27.131584,0.683989 32.983495,7.827878 5.851907,7.143893 14.591775,20.215692 14.971769,34.959474 0.379995,14.74377 -0.227995,30.39953 -2.583961,34.73146 -2.355963,4.33193 -6.535901,8.89186 -7.599883,12.46381 -1.063982,3.57195 -1.975968,3.95194 -1.747973,0.22799 0.227997,-3.72394 0.607992,-7.37188 2.963955,-10.94382 2.355963,-3.57195 6.5359,-6.38391 5.775912,-13.7558 -0.759988,-7.37188 -5.851912,-13.14779 -10.791837,-7.97987 -4.939924,5.16792 -6.611896,11.01983 -6.079906,13.52779 0.531992,2.50796 2.811957,6.00391 2.431963,6.00391 -0.379995,0 -7.067891,0.60798 -7.067891,-0.456 0,-1.06398 0.151997,-1.29197 -1.139984,-4.93992 -1.291978,-3.64794 -3.419946,-7.37189 -2.203965,-9.80385 1.215982,-2.43197 3.419947,-6.7639 -0.531992,-8.35987 -3.951938,-1.59598 -10.107844,-2.88795 -6.003908,-6.30791 4.103938,-3.41994 5.927909,-14.743772 2.735958,-18.771707 -3.19195,-4.027939 -10.107845,-5.471918 -18.163721,-3.495945 -8.055879,1.975969 -20.215691,8.359866 -24.471626,4.635926 z"
       id="path4951"
       inkscape:connector-curvature="0" />
    <path
       style="fill:#e9c6af;fill-rule:evenodd;stroke:#000000;stroke-width:0.30094004px;stroke-linecap:butt;stroke-linejoin:miter;stroke-opacity:1"
       d="m 78.94744,130.18644 c 0.303998,0.83599 -1.367977,6.8399 -3.647944,7.29589 -2.279963,0.45599 -5.319919,-0.98798 -5.243919,-0.53199 0.076,0.45598 4.787929,2.12797 6.307905,1.13998 1.519976,-0.98798 3.419946,-4.86393 2.583958,-7.90388 z"
       id="path4953"
       inkscape:connector-curvature="0" />
    <path
       style="fill:#e9c6af;fill-rule:evenodd;stroke:#000000;stroke-width:0.30094004px;stroke-linecap:butt;stroke-linejoin:miter;stroke-opacity:1"
       d="m 55.691799,164.46191 c -1.291981,0.76 -11.855818,11.17184 -15.80776,11.62782 -3.951938,0.456 -10.411839,4.48394 -10.335839,5.24392 0.07599,0.76 0.683988,5.62392 2.963952,7.52389 2.279967,1.89998 7.523886,5.24392 6.915893,4.48394 -0.607988,-0.76 -8.967862,-6.53591 -6.687895,-10.71584 2.279964,-4.17994 7.903877,-4.86393 9.727851,-5.92791 1.82397,-1.06398 14.28778,-11.09584 13.223798,-12.23582 z"
       id="path4955"
       inkscape:connector-curvature="0" />
    <path
       style="fill:#e9c6af;fill-rule:evenodd;stroke:#000000;stroke-width:0.30094004px;stroke-linecap:butt;stroke-linejoin:miter;stroke-opacity:1"
       d="m 14.056979,163.93 c -1.504701,-1.39722 -2.472007,-3.06314 -0.967308,-3.06314 1.504701,0 2.418268,0.75235 4.944016,0.64488 2.525747,-0.10749 3.331836,-0.37618 4.944015,0 1.612179,0.37618 6.072538,2.09583 7.254805,2.09583 1.182264,0 -3.385576,0.69861 -5.158973,1.77339 -1.773397,1.0748 -8.38333,3.81549 -10.210466,1.98836 C 13.035932,165.54219 14.056979,163.93 14.056979,163.93 Z"
       id="path4957"
       inkscape:connector-curvature="0" />
  </g>
  <g
     inkscape:groupmode="layer"
     id="layer6"
     inkscape:label="Mike">
    <path
       style="fill:#e9c6af;fill-rule:evenodd;stroke:#000000;stroke-width:0.28072292;stroke-linecap:butt;stroke-linejoin:miter;stroke-opacity:1;stroke-miterlimit:4;stroke-dasharray:none"
       d="m 259.17263,185.32585 c -1.40324,-4.20974 -3.40788,-7.81809 -3.60834,-15.03479 -0.20047,-7.2167 1.60422,-24.99095 6.61584,-34.61322 5.01158,-9.62226 -44.70399,-55.395085 -53.12347,-54.593228 -8.41949,0.801854 -20.44732,14.433402 -20.84825,19.645468 -0.40093,5.21205 -4.41021,12.2283 -4.20974,14.23294 0.20046,2.00464 5.59314,2.60196 3.39603,7.56319 -2.19712,4.96124 -8.15059,13.67883 -8.22146,15.16719 -0.0709,1.48837 -0.42526,4.53598 3.40198,4.67773 3.82724,0.14175 4.60686,1.9845 3.61461,3.75636 -0.99225,1.77186 -1.06312,2.48062 -0.35437,3.54374 0.70874,1.06312 0.21262,1.70098 -0.0709,3.04761 -0.2835,1.34662 -3.6146,9.07196 -2.48062,12.19044 1.134,3.11849 23.67216,8.78847 23.67216,10.34771 0,1.55924 -0.63788,8.07971 -2.268,13.74969 -1.63011,5.66997 -2.4806,8.22147 4.39424,8.50497 6.87485,0.2835 45.47961,-6.01504 50.09027,-12.1858 z"
       id="path4975"
       inkscape:connector-curvature="0"
       sodipodi:nodetypes="csssssscssscsssscc" />
    <path
       style="fill:#784421;fill-rule:evenodd;stroke:#000000;stroke-width:0.28072292;stroke-linecap:butt;stroke-linejoin:miter;stroke-opacity:1;stroke-miterlimit:4;stroke-dasharray:none"
       d="m 235.30599,158.45968 c -4.7486,5.74086 -19.06528,18.35655 -25.86926,20.55367 -6.80397,2.19711 -13.25356,2.76411 -18.42742,0.56699 -5.17385,-2.19711 -9.14283,-6.52047 -11.12733,-6.44959 -1.98449,0.0709 3.47286,-1.134 2.05536,-3.26024 -1.41748,-2.12624 -4.39422,-1.70099 -4.11072,-4.03986 0.28349,-2.33886 4.11072,-4.11073 3.47286,-6.16609 -0.63788,-2.05536 -0.8505,-2.90586 1.48836,-3.75636 2.33887,-0.8505 1.27575,-3.61461 3.11849,-3.68549 1.84274,-0.0709 5.74086,2.19712 4.53598,4.39423 -1.20487,2.19712 -1.41749,4.46511 2.12624,3.47286 3.54374,-0.99224 7.15835,-1.27574 6.80397,-3.8981 -0.35437,-2.62237 -2.90586,-5.66998 -6.87484,-6.52047 -3.96899,-0.8505 -6.52047,-1.84275 -8.57584,-1.55924 -2.05536,0.28349 -1.9845,-2.12625 -0.42524,-3.18937 1.55924,-1.06312 1.91361,-2.19712 5.31559,-1.63012 3.40198,0.567 11.33995,4.18161 12.8992,7.22922 1.55925,3.04761 6.37872,7.0166 8.78846,3.26024 2.40974,-3.75636 5.3156,-7.22923 9.21372,-8.93021 3.8981,-1.701 5.66997,-3.26024 2.40973,-3.18937 -3.26023,0.0709 -6.52047,-0.77962 -3.96898,-1.34662 2.55149,-0.56699 9.00108,-2.33886 6.94572,-2.62236 -2.05537,-0.2835 -4.67773,0.14175 -4.25248,-0.70874 0.42525,-0.8505 7.37096,-0.8505 7.72534,-5.95348 0.35438,-5.10298 1.4175,-4.53599 1.4175,-4.53599 0,0 -0.99225,1.77188 -4.89036,-0.56699 -3.89811,-2.33887 -2.26799,-3.96899 -2.26799,-3.96899 0,0 3.18936,4.89036 6.30785,0.99226 3.11848,-3.89812 -3.75636,-5.38649 -2.40974,-10.13509 1.34662,-4.7486 2.97674,-7.08747 2.97674,-7.08747 0,0 -8.07972,3.26024 -6.87485,7.93797 1.20487,4.67773 2.76411,6.66222 2.76411,6.66222 0,0 -5.3156,-2.76412 -4.4651,-8.36322 0.85049,-5.5991 4.81948,-9.00109 4.81948,-9.00109 0,0 7.79621,-3.543728 11.90695,-0.92136 4.11072,2.62236 29.12949,32.74411 28.91686,34.65773 -0.21262,1.91361 -7.72532,7.44184 -6.59134,11.62345 1.134,4.1816 4.18161,9.42633 1.84275,10.77295 -2.33887,1.34662 -6.30785,6.80397 -6.30785,4.7486 0,-2.05536 0.567,-5.95347 -0.99225,-8.07971 -1.55924,-2.12624 -3.96898,0.92137 -3.96898,0.92137 0,0 3.54374,-5.52823 2.05537,-8.78847 -1.48837,-3.26023 -2.62237,-3.96898 -2.55149,-4.25248 0.0709,-0.2835 12.47395,-10.06421 7.65447,-16.15942 -4.81949,-6.09523 -10.63121,-2.05538 -14.24582,1.34661 -3.6146,3.40199 -6.87484,3.04761 -6.87484,3.04761 0,0 5.24472,-4.25248 3.68548,-4.81948 -1.55924,-0.567 -4.39423,2.69324 -4.4651,5.74085 -0.0709,3.04762 -1.134,6.94573 -2.62237,10.77296 -1.48837,3.82723 0.21262,13.96232 1.91361,14.88368 z"
       id="path4977"
       inkscape:connector-curvature="0" />
    <path
       style="fill:#c87137;fill-rule:evenodd;stroke:#000000;stroke-width:0.28072292;stroke-linecap:butt;stroke-linejoin:miter;stroke-opacity:1;stroke-miterlimit:4;stroke-dasharray:none"
       d="m 200.79002,147.82848 c -0.14175,-1.77187 -6.1661,-13.25357 -6.52047,-12.68656 -0.35438,0.56698 1.55924,4.03985 1.41749,5.17384 -0.14175,1.134 0.42525,0.99225 2.12624,3.61461 1.70099,2.62236 2.97674,3.89811 2.97674,3.89811 z"
       id="path4979"
       inkscape:connector-curvature="0" />
    <path
       style="fill:#c87137;fill-rule:evenodd;stroke:#000000;stroke-width:0.28072292;stroke-linecap:butt;stroke-linejoin:miter;stroke-opacity:1;stroke-miterlimit:4;stroke-dasharray:none"
       d="m 186.33158,138.40214 c 1.13399,-1.41748 4.53598,-2.05536 4.89035,-1.98448 0.35438,0.0708 1.9845,2.19711 1.9845,2.19711 0,0 -1.63012,-2.69323 -6.87485,-0.21263 z"
       id="path4981"
       inkscape:connector-curvature="0" />
    <path
       style="fill:#784421;fill-rule:evenodd;stroke:#000000;stroke-width:0.28072292;stroke-linecap:butt;stroke-linejoin:miter;stroke-opacity:1;stroke-miterlimit:4;stroke-dasharray:none"
       d="m 191.93068,119.40773 c -0.35437,-1.27575 0,-2.55149 1.84275,-2.55149 1.84274,0 8.64671,-0.92138 10.27683,-0.49612 1.63012,0.42524 5.0321,3.68548 5.0321,3.68548 0,0 -8.71759,-3.11848 -10.27683,-1.77187 -1.55925,1.34662 -0.70875,4.25248 0.0709,5.10298 0.77962,0.8505 3.18936,2.40974 2.19712,2.40974 -0.99225,0 -4.60686,0.2835 -4.60686,-1.4175 0,-1.70098 1.34662,-3.96898 -0.2835,-4.39422 -1.63011,-0.42525 -2.26799,-0.14175 -4.25249,-0.567 z"
       id="path4983"
       inkscape:connector-curvature="0" />
    <path
       style="fill:#c87137;fill-rule:evenodd;stroke:#000000;stroke-width:0.28072292;stroke-linecap:butt;stroke-linejoin:miter;stroke-opacity:1;stroke-miterlimit:4;stroke-dasharray:none"
       d="m 186.2607,150.73435 c -0.0709,-0.35438 -0.92136,-1.06312 2.33887,-0.70875 3.26024,0.35437 8.57584,1.77187 7.86709,1.98449 -0.70875,0.21262 -7.08747,-1.98449 -10.20596,-1.27574 z"
       id="path4985"
       inkscape:connector-curvature="0" />
    <path
       style="fill:#c87137;fill-rule:evenodd;stroke:#000000;stroke-width:0.28072292;stroke-linecap:butt;stroke-linejoin:miter;stroke-opacity:1;stroke-miterlimit:4;stroke-dasharray:none"
       d="m 240.6216,140.88276 c -0.0709,-0.99224 8.07972,-1.84274 8.36322,-4.1816 0.2835,-2.33887 -3.18937,-6.4496 -2.69324,-6.52048 0.49612,-0.0709 5.24472,0.77962 5.24472,2.40974 0,1.63012 -0.567,5.8826 -3.6146,6.87484 -3.04762,0.99225 -7.3001,1.4175 -7.3001,1.4175 z"
       id="path4987"
       inkscape:connector-curvature="0" />
    <path
       style="fill:#c8beb7;fill-rule:evenodd;stroke:#000000;stroke-width:0.28072292;stroke-linecap:butt;stroke-linejoin:miter;stroke-opacity:1;stroke-miterlimit:4;stroke-dasharray:none"
       d="m 233.61348,103.03541 c -1.20278,0.10023 -28.16517,-2.30533 -38.48906,-9.121109 -10.3239,-6.815772 -17.23991,-15.535953 -20.34709,-15.736418 -3.1072,-0.200462 -6.11415,0.300696 -6.91601,4.109511 -0.80186,3.808815 1.00232,8.519716 4.7109,10.624587 3.70859,2.104871 12.72946,4.209742 12.72946,4.209742 0,0 -21.14894,-1.70394 -19.34477,-11.927602 1.80417,-10.223661 6.81578,-8.319251 8.21902,-8.419485 1.40325,-0.100228 22.05103,2.806494 26.06031,2.205105 4.00929,-0.601393 13.63156,-10.123429 29.86913,-11.025518 16.23758,-0.902086 24.15591,5.412528 30.47051,9.421805 6.31461,4.00928 17.23991,24.055672 17.03943,31.172142 -0.20047,7.11646 -8.01854,28.96704 -10.92528,28.8668 -2.90673,-0.10024 -18.14198,-28.96704 -33.07655,-34.37956 z"
       id="path4989"
       inkscape:connector-curvature="0" />
    <path
       style="fill:#784421;fill-rule:evenodd;stroke:#000000;stroke-width:0.28072292;stroke-linecap:butt;stroke-linejoin:miter;stroke-opacity:1;stroke-miterlimit:4;stroke-dasharray:none"
       d="m 186.00331,87.900384 c 0,0 -3.20743,3.508118 -2.90673,6.61531 0.3007,3.107191 -4.00928,4.410207 -4.00928,4.410207 0,0 4.41021,-2.505801 5.21206,-0.100238 0.80185,2.405567 0.90209,7.316937 0.90209,7.316937 0,0 0.90209,-6.615314 2.60603,-7.617634 1.70394,-1.002317 5.0116,-6.414845 5.0116,-6.414845 0,0 -3.50812,-4.209742 -6.81577,-4.209742 z"
       id="path4991"
       inkscape:connector-curvature="0" />
  </g>
  <g
     inkscape:groupmode="layer"
     id="layer5"
     inkscape:label="Max"
     style="display:inline">
    <path
       style="fill:#ffccaa;fill-rule:evenodd;stroke:#000000;stroke-width:0.28726062px;stroke-linecap:butt;stroke-linejoin:miter;stroke-opacity:1"
       d="m 113.49417,197.47598 c 0,-2.6116 4.64284,-4.93301 4.06248,-7.25443 -0.58035,-2.32142 -0.80244,-6.62895 -3.98282,-7.34711 -3.18039,-0.71814 -13.747485,1.74409 -15.901934,-1.12851 -2.154459,-2.87261 -4.308913,-8.31005 -4.206318,-11.49043 0.102588,-3.18039 -0.307779,-5.54002 -0.615559,-6.97633 -0.30778,-1.4363 -1.436304,-3.79594 -0.718152,-7.18151 0.718152,-3.38558 0.205187,-5.74522 0.205187,-5.74522 0,0 -2.872605,-3.18038 -2.154454,-4.82187 0.718151,-1.6415 8.207439,-11.49042 8.310038,-15.49156 0.1026,-4.00113 -7.694482,-5.43743 -7.181515,-9.23337 0.512964,-3.79594 3.077791,-5.64263 3.282978,-8.00226 0.205185,-2.35964 4.719279,-11.59303 6.771139,-14.876004 2.05186,-3.282976 69.14774,-5.437431 71.09701,2.359644 1.94926,7.79707 0.51297,16.72268 -1.64149,23.59641 -2.15445,6.87374 -13.13191,23.49381 -13.23451,29.13644 -0.1026,5.64261 0.1026,12.00338 4.20632,16.41488 4.10372,4.41151 17.23564,11.69561 16.51749,13.23452 -0.71816,1.53889 -43.60206,23.90418 -52.93804,21.54454 -9.33597,-2.35964 -11.87785,-6.73783 -11.87785,-6.73783 z"
       id="path4960"
       inkscape:connector-curvature="0" />
    <path
       style="fill:#803300;fill-rule:evenodd;stroke:#000000;stroke-width:0.28726062px;stroke-linecap:butt;stroke-linejoin:miter;stroke-opacity:1"
       d="m 134.29762,109.82817 c -1.94927,-3.59075 -3.38557,-5.12965 -8.31004,-4.51409 -4.92446,0.61556 -22.36529,2.05187 -23.39122,0.71815 -1.02593,-1.33371 -1.84667,-9.335967 -4.514098,-10.567084 -2.667417,-1.231118 -5.847803,0.102589 -3.898533,2.46223 1.949267,2.359644 4.411498,3.795944 4.411498,3.795944 0,0 -6.873732,-1.33371 -6.668547,-4.20631 0.205187,-2.87261 3.898537,-6.668552 3.28298,-8.207451 -0.615559,-1.538895 -3.077793,-1.025928 -3.077793,1.231119 0,2.257046 0.61556,3.69335 0.61556,3.69335 0,0 -4.411505,-3.38557 -1.641491,-7.284107 2.770014,-3.898539 9.541164,-7.078924 12.721544,-9.335971 3.18038,-2.257047 2.9752,-4.411501 5.74521,-4.514097 2.77002,-0.102588 3.69335,4.206318 7.48929,0.30778 3.79595,-3.898538 6.77115,-5.437432 11.69561,-5.64262 4.92448,-0.205184 3.48817,-0.512964 8.41264,-2.154455 4.92447,-1.641487 7.79707,-4.514093 10.97746,-2.359639 3.18038,2.154455 0.71815,6.668548 6.05299,6.771143 5.33484,0.102589 9.33597,-1.846674 12.92673,-0.718151 3.59076,1.128524 2.77001,4.514094 2.77001,4.514094 0,0 -0.92334,-3.795943 -2.05186,-1.846675 -1.12853,1.94927 -0.51296,4.821877 1.84668,6.052992 2.35963,1.231116 4.82187,0.820744 4.82187,3.385571 0,2.564829 -0.61556,2.564829 1.33371,4.514096 1.94927,1.949267 -0.1026,2.154455 1.94927,8.310039 2.05186,6.155582 -0.20519,11.798202 -1.74408,15.901922 -1.5389,4.10373 -8.31005,23.59641 -10.66968,28.31569 -2.35964,4.71929 -8.31004,13.33711 -9.13079,13.64488 -0.82075,0.30778 -1.53889,-4.00113 -0.51296,-5.02706 1.02593,-1.02593 11.69561,-12.41376 6.97632,-15.90193 -4.71927,-3.48815 -8.61782,-4.71927 -14.15784,1.5389 -5.54002,6.25818 -7.79707,11.69562 -6.87374,18.26157 0.92334,6.56596 3.79594,12.72155 1.12853,15.59415 -2.66742,2.8726 -15.08119,13.95266 -23.39122,15.38896 -8.31004,1.43631 -21.647145,2.87261 -22.673074,1.64149 -1.025932,-1.23112 -4.924469,-6.053 -4.719281,-8.72041 0.205184,-2.66743 -0.61556,-8.00226 1.231116,-8.00226 1.846674,0 5.232247,0.61556 7.078919,3.28297 1.84668,2.66743 9.23338,0.92335 9.23338,-2.25704 0,-3.18038 2.05186,-5.54003 -1.02593,-5.74521 -3.0778,-0.20519 -9.643745,-1.12853 -11.593019,-1.33372 -1.949268,-0.20518 -6.565956,0.82076 -6.565956,-0.20518 0,-1.02594 -0.205185,-10.15671 2.154454,-10.15671 2.359642,0 2.154455,2.66742 3.488166,2.66742 1.333714,0 3.488164,-3.0778 4.821875,-1.33371 1.33371,1.74408 9.43857,3.59075 11.08005,6.05299 1.6415,2.46223 2.77002,11.18265 4.20632,9.95153 1.4363,-1.23112 0.30778,-7.18152 2.77002,-7.79708 2.46222,-0.61555 11.90079,0.41038 13.85005,-6.15558 1.94928,-6.56596 5.95041,-18.77453 4.92448,-22.2627 -1.02594,-3.48817 -8.72042,-4.10372 -8.72042,-6.87374 0,-2.77001 6.66855,-10.97745 5.33484,-14.876 z"
       id="path4962"
       inkscape:connector-curvature="0" />
    <path
       style="fill:#000080;fill-rule:evenodd;stroke:#000000;stroke-width:0.28726062px;stroke-linecap:butt;stroke-linejoin:miter;stroke-opacity:1"
       d="m 148.35288,128.29493 c -0.61557,-1.84667 -11.38783,1.33371 -19.59529,4.10372 -8.20744,2.77001 -8.7204,3.48817 -11.7982,2.56484 -3.07779,-0.92334 -10.56709,-4.10373 -13.95265,-4.20632 -3.385583,-0.1026 -4.308913,0.30777 -5.334844,-0.82075 -1.025932,-1.12853 -8.310043,-5.33484 -9.438566,-6.05299 -1.128523,-0.71815 3.385573,-2.05186 3.590757,-3.79594 0.205188,-1.74409 3.590758,-3.89855 0.410372,-2.77002 -3.180386,1.12852 -7.591887,3.59076 -7.591887,5.02707 0,1.43629 0.205187,10.2593 1.744082,11.38782 1.538896,1.12853 6.565956,5.33485 7.489296,4.71928 0.923336,-0.61555 3.693347,-6.56595 4.719277,-5.43742 1.02593,1.12851 2.462233,6.25817 4.206323,7.79706 1.74408,1.5389 12.20857,7.18152 14.56821,3.79595 2.35965,-3.38557 -0.82074,-5.33484 1.02593,-6.05299 1.84668,-0.71815 29.95719,-8.41264 29.95719,-10.25931 z"
       id="path4964"
       inkscape:connector-curvature="0" />
    <path
       style="fill:#ffb380;fill-rule:evenodd;stroke:#000000;stroke-width:0.28726062px;stroke-linecap:butt;stroke-linejoin:miter;stroke-opacity:1"
       d="m 107.00787,147.17206 c 0,0.97463 0.1026,3.74465 -2.35965,4.00112 -2.46223,0.25649 -4.924463,-0.0512 -6.514658,-0.15389 -1.590193,-0.10259 -3.642053,-0.97463 -4.616688,-0.92333 -0.974635,0.0513 -2.923902,-3.48816 -2.770014,-4.00113 0.153891,-0.51296 3.385574,-2.66742 3.385574,-2.30835 0,0.35908 -0.512968,4.00114 1.333708,4.5654 1.846678,0.56425 8.976888,4.66799 11.541728,-1.17982 z"
       id="path4966"
       inkscape:connector-curvature="0" />
    <path
       style="fill:#803300;fill-rule:evenodd;stroke:#000000;stroke-width:0.28726062px;stroke-linecap:butt;stroke-linejoin:miter;stroke-opacity:1"
       d="m 104.20851,128.99419 c -1.59597,-3.04686 6.2388,-3.19195 10.59146,-3.04686 4.35265,0.1451 9.72093,5.36828 8.27005,5.51337 -1.45089,0.14509 -3.62722,-2.32141 -9.28566,-2.75669 -5.65846,-0.43526 -7.97988,-0.87053 -9.57585,0.29018 z"
       id="path4968"
       inkscape:connector-curvature="0" />
    <path
       style="fill:#803300;fill-rule:evenodd;stroke:#000000;stroke-width:0.28726062px;stroke-linecap:butt;stroke-linejoin:miter;stroke-opacity:1"
       d="m 98.840228,126.96295 c -1.305793,-2.03123 -6.238802,-4.06248 -6.238802,-5.94863 0,-1.88614 -1.595974,-2.4665 -1.595974,-0.29017 0,2.17632 8.124954,8.12496 7.834776,6.2388 z"
       id="path4970"
       inkscape:connector-curvature="0" />
    <path
       style="fill:#ffb380;fill-rule:evenodd;stroke:#000000;stroke-width:0.28726062px;stroke-linecap:butt;stroke-linejoin:miter;stroke-opacity:1"
       d="m 107.54554,163.23508 c -2.75668,1.45089 -6.67407,5.36828 -10.156189,3.91739 -3.482127,-1.45088 -2.611596,-6.16625 -1.741066,-6.16625 0.870531,0 0.580355,3.48212 3.119407,3.69975 2.539048,0.21763 7.109338,-0.87054 6.311348,-0.87054 -0.79799,0 -6.238812,-0.5078 -7.472058,-1.37834 -1.233255,-0.87053 8.632768,0.0725 9.938558,0.79799 z"
       id="path4972"
       inkscape:connector-curvature="0" />
  </g>
</svg>
