<?xml version="1.0" encoding="UTF-8" standalone="no"?>
<!-- Created with Inkscape (http://www.inkscape.org/) -->

<svg
   xmlns:dc="http://purl.org/dc/elements/1.1/"
   xmlns:cc="http://creativecommons.org/ns#"
   xmlns:rdf="http://www.w3.org/1999/02/22-rdf-syntax-ns#"
   xmlns:svg="http://www.w3.org/2000/svg"
   xmlns="http://www.w3.org/2000/svg"
   xmlns:xlink="http://www.w3.org/1999/xlink"
   xmlns:sodipodi="http://sodipodi.sourceforge.net/DTD/sodipodi-0.dtd"
   xmlns:inkscape="http://www.inkscape.org/namespaces/inkscape"
   width="1000"
   height="1000"
   viewBox="0 0 264.58333 264.58334"
   version="1.1"
   id="svg8"
   inkscape:version="0.92.1 r15371"
   sodipodi:docname="sara-groves.svg"
   inkscape:export-filename="C:\Users\Anthony Garone\Documents\GitHub\art\sara-groves\sara-groves.png"
   inkscape:export-xdpi="96"
   inkscape:export-ydpi="96">
  <defs
     id="defs2">
    <linearGradient
       inkscape:collect="always"
       id="linearGradient4611">
      <stop
         style="stop-color:#ffffff;stop-opacity:1;"
         offset="0"
         id="stop4607" />
      <stop
         style="stop-color:#ffffff;stop-opacity:0;"
         offset="1"
         id="stop4609" />
    </linearGradient>
    <radialGradient
       inkscape:collect="always"
       xlink:href="#linearGradient4611"
       id="radialGradient4613"
       cx="107.25074"
       cy="104.69941"
       fx="107.25074"
       fy="104.69941"
       r="9.5438995"
       gradientUnits="userSpaceOnUse"
       gradientTransform="translate(-2.1381562,-2.6726953)" />
    <filter
       inkscape:collect="always"
       style="color-interpolation-filters:sRGB"
       id="filter4970"
       x="-0.4068"
       width="1.8136"
       y="-0.4068"
       height="1.8136">
      <feGaussianBlur
         inkscape:collect="always"
         stdDeviation="3.2353819"
         id="feGaussianBlur4972" />
    </filter>
  </defs>
  <sodipodi:namedview
     id="base"
     pagecolor="#ffffff"
     bordercolor="#666666"
     borderopacity="1.0"
     inkscape:pageopacity="0.0"
     inkscape:pageshadow="2"
     inkscape:zoom="0.70000001"
     inkscape:cx="560.93245"
     inkscape:cy="546.7285"
     inkscape:document-units="px"
     inkscape:current-layer="layer1"
     showgrid="false"
     units="px"
     showguides="true"
     inkscape:guide-bbox="true"
     inkscape:window-width="1920"
     inkscape:window-height="1057"
     inkscape:window-x="-8"
     inkscape:window-y="-8"
     inkscape:window-maximized="1"
     inkscape:snap-global="false">
    <sodipodi:guide
       position="264.58334,264.58334"
       orientation="1,0"
       id="guide10"
       inkscape:locked="false"
       inkscape:label=""
       inkscape:color="rgb(0,0,255)" />
    <sodipodi:guide
       position="0,0"
       orientation="1,0"
       id="guide12"
       inkscape:locked="false"
       inkscape:label=""
       inkscape:color="rgb(0,0,255)" />
    <sodipodi:guide
       position="264.58334,264.58334"
       orientation="0,1"
       id="guide14"
       inkscape:locked="false"
       inkscape:label=""
       inkscape:color="rgb(0,0,255)" />
    <sodipodi:guide
       position="0,0"
       orientation="0,1"
       id="guide16"
       inkscape:locked="false"
       inkscape:label=""
       inkscape:color="rgb(0,0,255)" />
  </sodipodi:namedview>
  <metadata
     id="metadata5">
    <rdf:RDF>
      <cc:Work
         rdf:about="">
        <dc:format>image/svg+xml</dc:format>
        <dc:type
           rdf:resource="http://purl.org/dc/dcmitype/StillImage" />
        <dc:title />
      </cc:Work>
    </rdf:RDF>
  </metadata>
  <g
     inkscape:label="BG"
     inkscape:groupmode="layer"
     id="layer1"
     transform="translate(0,-32.41665)"
     style="display:none">
    <rect
       id="rect4493"
       width="264.58334"
       height="264.58334"
       x="0"
       y="32.416641"
       style="fill:#ffffff;fill-opacity:1;stroke-width:0.26458332" />
  </g>
  <g
     inkscape:groupmode="layer"
     id="layer2"
     inkscape:label="Sara">
    <path
       transform="translate(0,-32.41665)"
       style="display:inline;fill:#371600;stroke:none;stroke-width:0.26458332px;stroke-linecap:butt;stroke-linejoin:miter;stroke-opacity:1;fill-opacity:1"
       d="m 93.738092,162.15698 c -0.09449,3.77976 1.889883,15.11904 2.362352,21.35565 0.472471,6.23661 2.36235,11.62277 1.228423,12.6622 -1.133927,1.03944 -15.308035,10.77232 -21.26116,13.79613 -5.953125,3.02381 -11.717263,5.38616 -17.764881,7.37054 -6.047618,1.98437 -11.622767,2.55134 -10.961309,3.59077 0.661458,1.03944 111.125003,9.82738 126.622023,8.97694 15.49702,-0.85045 50.27083,-5.48066 55.84598,-5.66965 5.57515,-0.18898 13.32366,3.68527 13.22917,2.64584 -0.0945,-1.03944 -2.07887,-9.63839 -11.05581,-13.79613 -8.97693,-4.15774 -16.34747,-3.40179 -21.82812,-4.53572 -5.48066,-1.13393 -19.0878,-4.25223 -25.79688,-7.46503 -6.70907,-3.21279 -26.45833,-11.90625 -26.74181,-14.07961 -0.28348,-2.17336 0.18899,-7.37054 -0.94494,-6.04762 -1.13393,1.32292 -11.81176,11.0558 -21.26117,10.01637 -9.4494,-1.03944 -13.98511,-1.6064 -20.41071,-6.04762 -6.42559,-4.44122 -19.843745,-22.96205 -21.261158,-22.77306 z"
       id="path4558"
       inkscape:connector-curvature="0"
       sodipodi:nodetypes="cscsccsccssssscsc" />
    <path
       transform="translate(0,-32.41665)"
       style="fill:#5e2c19;fill-opacity:1;stroke:none;stroke-width:0.26458332px;stroke-linecap:butt;stroke-linejoin:miter;stroke-opacity:1"
       d="m 87.263501,128.21928 c 0.935442,8.95353 3.875407,19.51067 3.875407,24.9897 0,5.47902 5.746295,16.03617 10.557142,20.71338 4.81086,4.67722 19.64432,17.50616 32.07235,18.30797 12.42803,0.80181 25.65787,-10.69078 29.53328,-17.77343 3.87541,-7.08264 12.02713,-33.67596 12.42803,-39.55589 0.40091,-5.87993 0.53455,-14.16528 0.93545,-18.8425 0.4009,-4.67721 0.53454,-28.597838 -6.01357,-37.952272 C 164.10349,68.751807 154.48178,52.448365 126.28485,53.784713 98.087914,55.12106 90.203463,70.756328 87.397134,81.313475 84.590804,91.87062 85.659882,119.53302 87.263501,128.21928 Z"
       id="path6099"
       inkscape:connector-curvature="0"
       sodipodi:nodetypes="csssscssssc" />
    <path
       style="fill:#6a3919;stroke:none;stroke-width:0.26458332px;stroke-linecap:butt;stroke-linejoin:miter;stroke-opacity:1;fill-opacity:1"
       d="m 146.0962,87.550679 c 1.10249,-1.403164 2.20498,-3.741771 4.27631,-3.875407 2.07134,-0.133636 5.87994,0.734991 8.18513,0.100227 2.3052,-0.634765 4.81086,-3.240643 4.577,-3.842002 -0.23387,-0.601355 -14.56619,-1.603615 -16.30345,0.868627 -1.73725,2.472243 -1.13589,6.848782 -0.73499,6.748555 z"
       id="path4552"
       inkscape:connector-curvature="0" />
    <path
       style="fill:#6a2d19;fill-opacity:1;stroke:none;stroke-width:0.26458332px;stroke-linecap:butt;stroke-linejoin:miter;stroke-opacity:1"
       d="m 153.36384,95.86421 c 2.3151,0.472472 7.65401,0.283483 9.63839,-0.141739 1.98437,-0.425223 5.05543,0.04725 5.29166,2.031621 0.23624,1.984375 -2.74032,4.582958 -2.88206,6.709078 -0.14174,2.12612 -3.11831,5.38616 -3.07106,7.9375 0.0473,2.55134 2.4096,6.85082 2.55134,10.53609 0.14174,3.68526 -4.96094,10.34709 -6.99256,14.50483 -2.03162,4.15774 -3.77976,8.88244 -4.11049,7.9375 -0.33073,-0.94494 1.32292,-6.14211 1.41741,-8.55171 0.0945,-2.4096 -1.03943,-2.26786 0.0945,-4.20499 1.13393,-1.93712 1.79539,-1.74813 1.88989,-3.40178 0.0945,-1.65365 -2.07887,-3.68527 -2.17337,-4.86644 -0.0945,-1.18118 2.78758,1.74814 2.45685,0.0945 -0.33073,-1.65364 -1.32292,-5.33891 -2.5041,-7.89025 -1.18117,-2.55134 -3.1183,-3.16555 -2.83482,-4.016 0.28349,-0.85045 2.78758,0.18899 3.3073,-1.84263 0.51971,-2.03163 -2.22061,-3.3073 -3.68527,-6.23661 -1.46466,-2.92932 -2.59859,-5.102679 -0.99219,-4.960939 1.6064,0.141743 6.00037,2.031619 5.71689,1.228419 -0.28348,-0.803194 -3.48436,-1.952463 -4.67745,-3.023804 -1.19309,-1.071341 -3.23791,-2.374542 -2.97657,-3.260046 0.16638,-0.563739 3.316,1.122902 4.53571,1.4174 z"
       id="path4544"
       inkscape:connector-curvature="0"
       sodipodi:nodetypes="cccscsssccssscccccczsc" />
    <path
       style="fill:#e6ab88;stroke:none;stroke-width:0.26458332px;stroke-linecap:butt;stroke-linejoin:miter;stroke-opacity:1;fill-opacity:1"
       d="m 102.09696,82.572785 c 1.06908,-3.474503 7.75081,-6.681737 12.6953,-5.879928 4.94449,0.801806 15.63527,1.202711 17.77342,4.276312 2.13816,3.073599 2.00452,6.548102 0.93545,9.755336 -1.06908,3.207234 -5.7463,10.022605 -7.48355,11.225325 -1.73725,1.20271 -14.03165,1.20271 -16.70434,-0.13364 -2.6727,-1.33635 -5.61267,-2.539058 -6.68174,-8.819893 -1.06908,-6.280833 -0.53454,-10.423512 -0.53454,-10.423512 z"
       id="path4587"
       inkscape:connector-curvature="0" />
    <path
       style="fill:#8f542e;stroke:none;stroke-width:0.26458332px;stroke-linecap:butt;stroke-linejoin:miter;stroke-opacity:1;fill-opacity:1"
       d="m 131.0957,98.141236 c 0.80181,-4.009044 3.80859,-12.49485 7.08264,-12.561668 3.27405,-0.06682 5.7463,0.46772 5.07812,3.942226 -0.66817,3.474503 -1.20271,5.813112 -0.20045,8.018084 1.00226,2.204974 2.93997,4.877672 2.53906,7.082642 -0.4009,2.20497 -2.93996,4.07586 -2.27179,4.54358 0.66818,0.46773 3.40235,-0.92317 4.39454,0.25801 0.99219,1.18117 2.36235,3.26004 0.0945,3.9215 -2.26786,0.66146 -2.29148,-0.4016 -1.84263,-1.01581 0.44884,-0.61421 0.63783,-2.7167 -0.68508,-2.29148 -1.32292,0.42522 -4.8192,3.26004 -4.55934,4.06324 0.25986,0.8032 1.72451,-0.28348 2.85844,0.82682 1.13393,1.11031 1.51191,6.68546 1.11031,7.86664 -0.28467,0.61322 -1.00316,0.58772 -0.46674,0.79746 0.98744,0.20975 2.45111,0.54907 3.4433,1.13966 0.99219,0.59059 4.18136,2.95294 3.59078,3.11831 -0.59059,0.16536 -7.20755,-0.64881 -8.29423,-0.64881 -1.08669,0 -3.25767,-0.0363 -3.65927,-0.24889 -0.4016,-0.21261 -4.63021,-4.29948 -4.32311,-5.38616 0.30711,-1.08668 2.19699,-2.45684 2.14974,-3.59077 -0.0472,-1.13393 -1.01581,-3.04744 -0.54334,-3.28367 0.47247,-0.23624 1.84264,0.51972 2.55134,-2.14974 0.70871,-2.66946 0.33073,-3.37816 0.92132,-3.96875 0.59059,-0.59059 2.45684,-0.63784 3.02381,-2.05525 0.56696,-1.4174 0.68508,-5.0318 -0.25986,-6.520085 -0.94494,-1.488281 -2.45685,-2.433222 -2.64583,-5.835007 -0.18899,-3.401785 0.28348,-4.039621 -0.16537,-4.748326 -0.44884,-0.708705 -2.05524,-0.992188 -2.7167,-0.07087 -0.66146,0.921316 -5.65197,8.499173 -6.20415,8.797113 z"
       id="path4542"
       inkscape:connector-curvature="0"
       sodipodi:nodetypes="cscsccccccscccscscccccsccccccc" />
    <path
       style="fill:#e6ab88;stroke:none;stroke-width:0.26458332px;stroke-linecap:butt;stroke-linejoin:miter;stroke-opacity:1;fill-opacity:1"
       d="m 89.268021,81.770976 c -1.069078,13.630745 -0.668173,14.699824 2.00452,22.717914 2.672697,8.01808 3.34087,13.22984 3.474506,18.70886 0.133633,5.47903 -0.400905,6.68174 2.539061,11.35896 2.939962,4.67721 19.377042,20.04521 27.929662,22.45064 8.55263,2.40542 15.23436,1.87088 17.37252,-3.0736 2.13816,-4.94449 -2.67269,-5.47903 -1.33635,-10.28988 1.33635,-4.81085 0,-5.21176 2.13816,-8.41899 2.13816,-3.20723 -3.60814,-6.81537 -3.60814,-8.8199 0,-2.00452 4.27631,-1.73725 4.27631,-4.27631 0,-2.53906 -0.61631,-6.46796 -1.84473,-6.98767 -1.22842,-0.51972 -3.02381,-0.42523 -3.1183,0.23623 -0.0945,0.66146 0.7087,7.32329 -0.42523,6.94531 -1.13393,-0.37797 -2.83482,0.0945 -3.02381,-0.66145 -0.18898,-0.75596 1.88988,-2.36236 1.98438,-3.68527 0.0945,-1.32292 -0.94494,-2.78758 -0.37798,-2.83482 0.56697,-0.0473 1.88988,-0.42523 2.36235,-2.12612 0.47247,-1.70089 0.0945,-3.40179 1.65365,-4.20499 1.55915,-0.8032 3.02381,-1.08668 3.1183,-3.44903 0.0945,-2.36235 -0.0945,-4.15774 -1.41741,-6.189358 -1.32292,-2.031622 -2.07887,-2.834822 -1.79538,-6.189361 0.28348,-3.354538 0.33072,-4.724701 -0.99219,-4.582961 -1.32292,0.141742 -2.5041,-0.330729 -4.20499,2.456846 -1.70089,2.787574 -6.89806,10.441594 -9.82738,11.386534 -2.92931,0.94494 -16.91443,1.6064 -20.12723,-2.17337 -3.2128,-3.779757 -4.44122,-10.58333 -5.00819,-16.063983 -0.56696,-5.480656 -1.03943,-7.276041 -4.535708,-7.087055 -3.496281,0.18899 -8.184195,1.768145 -7.210401,4.852824 z"
       id="path6102"
       inkscape:connector-curvature="0" />
    <path
       style="fill:#784421;stroke:none;stroke-width:0.26458332px;stroke-linecap:butt;stroke-linejoin:miter;stroke-opacity:1;fill-opacity:0.21568628"
       d="m 127.94494,103.94345 c -2.17336,0.56697 -14.2686,4.63021 -15.49702,7.18155 -1.22843,2.55134 -0.18899,6.61458 1.41741,5.95312 1.60639,-0.66145 9.16592,-9.5439 10.20535,-8.59895 1.03944,0.94494 1.04487,2.35737 2.38121,3.32622 1.33635,0.96885 3.0736,0.93544 2.57247,0.56794 -0.50113,-0.36749 -4.54358,-1.97111 -3.70836,-4.94448 0.83522,-2.97337 3.98835,-3.22902 2.62894,-3.4854 z"
       id="path6104"
       inkscape:connector-curvature="0" />
    <path
       style="fill:#784421;stroke:none;stroke-width:0.26458332px;stroke-linecap:butt;stroke-linejoin:miter;stroke-opacity:1;fill-opacity:0.21568628"
       d="m 137.94448,111.20403 c -0.4009,-0.73499 -0.4009,-1.43657 -3.17382,-1.36975 -2.77292,0.0668 -5.77971,0.63476 -5.71289,1.9377 0.0668,1.30294 1.93771,1.30294 2.50565,1.00226 0.56795,-0.30068 2.07134,-0.66817 3.54132,-0.83522 1.46999,-0.16704 2.90656,0.0668 2.83974,-0.73499 z"
       id="path6106"
       inkscape:connector-curvature="0" />
    <path
       style="fill:#28170b;stroke:none;stroke-width:0.26458332px;stroke-linecap:butt;stroke-linejoin:miter;stroke-opacity:1"
       d="m 130.92866,111.43789 c 0.0334,-0.50113 2.00452,-1.40316 3.67496,-1.20271 1.67043,0.20045 0.96885,0.7684 -0.0668,1.00226 -1.03567,0.23386 -2.97338,-0.26727 -3.60814,0.20045 z"
       id="path6108"
       inkscape:connector-curvature="0" />
    <path
       style="fill:#782121;stroke:none;stroke-width:0.26458332px;stroke-linecap:butt;stroke-linejoin:miter;stroke-opacity:1"
       d="m 118.93494,127.80815 c -0.80181,-0.66817 -1.00226,-0.66817 -0.80181,-1.00226 0.20045,-0.33408 16.83798,-1.87089 19.97839,-1.13589 3.14042,0.73499 4.54359,1.26953 4.61041,2.20497 0.0668,0.93544 0.0668,3.4745 -0.20046,3.67495 -0.26727,0.20046 -21.18111,-1.60361 -23.58653,-3.74177 z"
       id="path4640"
       inkscape:connector-curvature="0" />
    <path
       style="fill:#c8b7b7;stroke:none;stroke-width:0.26458332px;stroke-linecap:butt;stroke-linejoin:miter;stroke-opacity:1"
       d="m 141.78648,128.15894 c 0.91874,-0.48442 1.38646,-0.85192 2.03793,-0.66817 0.65147,0.18375 1.01897,0.80181 1.05238,0.66817 0.0334,-0.13363 0.73499,-0.51783 1.10248,-0.46772 0.3675,0.0501 0.73499,0.45102 0.85192,0.41761 0.11693,-0.0334 0.68488,-0.55124 0.95215,-0.21716 0.26727,0.33409 0.26727,1.77066 0.13364,1.921 -0.13364,0.15034 -3.12372,1.23613 -4.34313,1.28624 -1.21942,0.0501 -2.65599,0.31738 -2.47225,-0.15034 0.18375,-0.46772 0.68488,-2.78963 0.68488,-2.78963 z"
       id="path4648"
       inkscape:connector-curvature="0" />
    <path
       style="fill:#833500;stroke:none;stroke-width:0.26458332px;stroke-linecap:butt;stroke-linejoin:miter;stroke-opacity:1;fill-opacity:1"
       d="m 143.45692,123.34809 c 1.45327,0.30068 3.15712,0.65147 4.66051,1.62032 1.50339,0.96886 3.52462,2.57247 3.4745,2.83974 -0.0501,0.26727 -6.5481,-0.48442 -7.66729,-0.55124 -1.11919,-0.0668 -2.22168,-0.20045 -2.88985,-0.18375 -0.66818,0.0167 -0.7517,-1.58691 -0.0501,-2.43883 0.70158,-0.85192 2.47225,-1.28624 2.47225,-1.28624 z"
       id="path4984"
       inkscape:connector-curvature="0" />
    <path
       style="fill:#f48971;stroke:none;stroke-width:0.26458332px;stroke-linecap:butt;stroke-linejoin:miter;stroke-opacity:1;fill-opacity:1"
       d="m 118.11756,126.66927 c 1.93713,-0.89769 7.55952,-3.07106 10.77232,-3.54353 3.2128,-0.47247 6.56734,-0.56696 8.50447,-0.0472 1.93712,0.51971 3.16554,0.0945 4.96093,0.14174 1.79539,0.0472 2.43798,0.64568 1.97026,0.87955 -0.46772,0.23386 -3.59143,1.36975 -3.24064,1.921 0.35079,0.55124 1.82077,0.7851 1.82077,1.06907 0,0.28398 -5.27037,-0.0426 -6.64053,-0.30247 -1.37016,-0.25986 -7.37526,-0.61421 -9.07615,-0.37798 -1.70089,0.23623 -3.82701,0.77957 -4.96094,0.70871 -1.13393,-0.0709 -4.53571,-0.0236 -4.11049,-0.44885 z"
       id="path6110"
       inkscape:connector-curvature="0" />
    <path
       style="fill:#833500;stroke:none;stroke-width:0.26458332px;stroke-linecap:butt;stroke-linejoin:miter;stroke-opacity:1;fill-opacity:1"
       d="m 142.73326,130.54353 c 2.4096,-0.0945 3.30729,-0.47247 4.6302,-0.85045 1.32292,-0.37798 3.63802,-1.41741 3.82701,-1.27567 0.18899,0.14174 -1.18117,3.1183 -2.59858,4.39397 -1.41741,1.27567 -4.34673,2.92932 -5.81139,3.16555 -1.46465,0.23624 -0.61421,-4.29948 -0.0472,-5.4334 z"
       id="path4642"
       inkscape:connector-curvature="0" />
    <path
       style="fill:#f3f1f0;stroke:none;stroke-width:0.26458332px;stroke-linecap:butt;stroke-linejoin:miter;stroke-opacity:1;fill-opacity:1"
       d="m 123.40922,128.41741 c -0.0709,-0.68508 0.37798,-1.15755 0.77958,-1.22843 0.4016,-0.0709 2.43322,0.35436 2.78758,0.37798 0.35435,0.0236 0.0945,-0.21261 0.33073,-0.42522 0.23623,-0.21261 2.78757,-0.61421 3.47265,-0.11812 0.68508,0.49609 0.25986,0.59059 0.63784,0.33073 0.37797,-0.25986 2.6222,-0.66146 3.56714,-0.42522 0.94495,0.23623 1.48829,0.61421 1.67728,1.03943 0.18898,0.42523 0.18898,-0.0709 0.54334,-0.4016 0.35435,-0.33073 2.45684,-0.73233 3.40178,-0.33073 0.94494,0.4016 1.15755,0.66146 1.27567,0.85045 0.11812,0.18899 0.18899,2.8112 0.0236,2.88207 -0.16537,0.0709 -7.46503,0.0945 -10.18174,-0.35436 -2.7167,-0.44884 -8.40997,-1.86625 -8.31547,-2.19698 z"
       id="path6116"
       inkscape:connector-curvature="0" />
    <path
       style="fill:#f48971;stroke:none;stroke-width:0.26458332px;stroke-linecap:butt;stroke-linejoin:miter;stroke-opacity:1;fill-opacity:1"
       d="m 119.03888,127.61421 c 1.72451,-0.0709 6.89806,0.96856 9.26041,1.53553 2.36235,0.56696 6.16574,1.32291 7.70127,1.22842 1.53552,-0.0945 3.07105,0.0236 4.20498,0.16537 1.13393,0.14174 4.74833,-0.44885 4.91369,0.28348 0.16537,0.73233 -2.55134,1.32291 -2.52771,2.3151 0.0236,0.99219 0.99218,2.38598 0.42522,2.83482 -0.56696,0.44885 -7.37054,-0.0236 -10.3471,-0.73233 -2.97656,-0.7087 -9.37853,-3.35454 -10.96131,-4.91369 -1.58277,-1.55915 -2.97656,-2.45684 -2.66945,-2.7167 z"
       id="path6114"
       inkscape:connector-curvature="0" />
    <path
       style="fill:#efeaea;stroke:none;stroke-width:0.26458332px;stroke-linecap:butt;stroke-linejoin:miter;stroke-opacity:1;fill-opacity:1"
       d="m 111.45573,86.863652 c -0.11812,-1.299292 2.50409,-3.921504 5.9295,-4.134115 3.42541,-0.212611 9.42578,3.543528 9.30766,4.748326 -0.11811,1.204799 -3.9215,2.645834 -7.37053,2.433223 -3.44904,-0.212612 -6.66183,-1.393788 -7.86663,-3.047434 z"
       id="path6122"
       inkscape:connector-curvature="0" />
    <circle
       r="3.4254093"
       cy="86.249443"
       cx="119.3696"
       id="circle6132"
       style="opacity:1;fill:#222b00;fill-opacity:1;stroke:none;stroke-width:3.65795445;stroke-miterlimit:4;stroke-dasharray:none;stroke-opacity:1" />
    <path
       style="fill:#2b1100;stroke:none;stroke-width:0.26458332px;stroke-linecap:butt;stroke-linejoin:miter;stroke-opacity:1"
       d="m 127,87.38337 c 0,0 0.14174,-1.960753 -1.37016,-3.472656 -1.51191,-1.511906 -3.59078,-2.716705 -6.47285,-2.645833 -2.88206,0.07087 -6.96893,1.55915 -7.843,1.606396 -0.87407,0.04725 -1.72452,-0.401598 -1.55915,-0.236233 0.16536,0.165365 1.15755,0.566962 0.96856,0.661458 -0.18899,0.09449 -0.73233,0.401598 -1.58278,0.448847 -0.85044,0.04725 -0.99218,-0.212613 -0.99218,-0.07087 0,0.14174 1.20479,0.401601 1.20479,0.590587 0,0.188989 -0.44884,0.944941 -1.20479,1.063059 -0.75596,0.118118 -1.63003,-0.141743 -1.48829,-0.02363 0.14175,0.118118 1.44104,0.708705 2.14974,0.803201 0.70871,0.09449 1.53553,0.118117 2.48047,-0.307108 0.94494,-0.425222 3.40179,-3.189173 6.26024,-2.952937 2.85844,0.236235 5.55152,1.346538 6.6382,2.173361 1.08668,0.826823 2.71671,2.338729 2.8112,2.362354 z"
       id="path6124"
       inkscape:connector-curvature="0" />
    <path
       style="fill:#2b1100;stroke:none;stroke-width:0.26458332px;stroke-linecap:butt;stroke-linejoin:miter;stroke-opacity:1"
       d="m 110.27455,88.517298 c 0,0 0.56697,-1.063059 1.37017,-0.803199 0.8032,0.259858 3.16555,2.574962 7.06343,2.716702 3.89788,0.141743 6.87444,-1.393785 6.77995,-1.204798 -0.0945,0.188989 -3.07106,1.653645 -6.18937,1.630023 -3.1183,-0.02363 -6.04761,-1.842635 -6.75632,-2.078871 -0.70871,-0.236233 -1.13393,0.543341 -1.13393,0.425226 0,-0.118118 0.23624,-0.448848 0.49609,-0.614212 0.25986,-0.165365 0.0472,-0.401601 -0.44884,-0.354354 -0.4961,0.04725 -1.18118,0.283483 -1.18118,0.283483 z"
       id="path6126"
       inkscape:connector-curvature="0" />
    <circle
       style="opacity:1;fill:#151a00;fill-opacity:1;stroke:none;stroke-width:1.66499996;stroke-miterlimit:4;stroke-dasharray:none;stroke-opacity:1"
       id="path6128"
       cx="119.3696"
       cy="86.249443"
       r="1.5591518" />
    <circle
       style="opacity:1;fill:#ffffff;fill-opacity:1;stroke:none;stroke-width:1.66499996;stroke-miterlimit:4;stroke-dasharray:none;stroke-opacity:1"
       id="path6130"
       cx="116.39304"
       cy="85.517113"
       r="0.96856397" />
    <circle
       style="opacity:0.678;fill:url(#radialGradient4613);fill-opacity:1;stroke:none;stroke-width:1.66499996;stroke-miterlimit:4;stroke-dasharray:none;stroke-opacity:1;filter:url(#filter4970)"
       id="path4597"
       cx="105.11259"
       cy="102.02671"
       r="9.5438995" />
    <path
       style="fill:#e6ab88;stroke:none;stroke-width:0.26458332px;stroke-linecap:butt;stroke-linejoin:miter;stroke-opacity:1;fill-opacity:1"
       d="m 88.54092,76.823662 c 1.322916,-11.055805 13.22917,-50.837798 34.58482,-51.026786 21.35565,-0.188988 46.49107,53.48363 46.30208,54.428571 -0.18898,0.94494 -15.21354,-1.984375 -18.70982,-1.133928 -3.49628,0.850445 -6.61458,5.008184 -9.82738,5.102678 -3.2128,0.09449 -6.04762,-2.362351 -7.27604,-3.96875 -1.22842,-1.6064 -0.56696,-2.456845 -7.37054,-3.401785 -6.80357,-0.944941 -27.592256,-3.496281 -30.143596,-2.645834 -2.551338,0.850445 -6.709077,3.023809 -7.559524,2.645834 z"
       id="path4556"
       inkscape:connector-curvature="0" />
    <path
       style="fill:#784421;stroke:none;stroke-width:0.26458332px;stroke-linecap:butt;stroke-linejoin:miter;stroke-opacity:1;fill-opacity:0.21649484"
       d="m 139.88219,83.307776 c -0.30068,-2.372016 0.13363,-3.741772 0.66817,-5.278572 0.53454,-1.536801 3.87541,-3.274052 4.91108,-4.777444 1.03567,-1.503391 0.0668,-3.875407 0.63476,-3.474503 0.56795,0.400905 -0.0334,6.481286 0.23386,7.14946 0.26727,0.668173 4.67722,-0.434314 6.34766,-1.369756 1.67043,-0.935445 3.54132,-0.434314 3.70836,-0.835218 0.16704,-0.400905 -3.64155,-2.472243 -3.10701,-4.209494 0.53454,-1.737252 11.79327,5.846519 11.72645,7.216277 -0.0668,1.369756 -13.43029,-0.30068 -16.00276,1.069078 -2.57247,1.369756 -4.27631,4.04245 -6.34765,4.409945 -2.07134,0.367496 -2.77292,0.100227 -2.77292,0.100227 z"
       id="path4554"
       inkscape:connector-curvature="0" />
    <path
       style="fill:#6a3919;stroke:none;stroke-width:0.26458332px;stroke-linecap:butt;stroke-linejoin:miter;stroke-opacity:1;fill-opacity:1"
       d="m 148.33459,87.918175 c 0.23386,-0.935442 1.50339,-1.971111 2.83973,-2.438834 1.33635,-0.467722 2.3052,-0.601355 2.37202,-0.267269 0.0668,0.334087 -3.0736,1.670434 -3.80859,1.971112 -0.73499,0.300678 -1.23612,1.035669 -1.40316,0.734991 z"
       id="path4548"
       inkscape:connector-curvature="0" />
    <path
       style="fill:#784421;stroke:none;stroke-width:0.26458332px;stroke-linecap:butt;stroke-linejoin:miter;stroke-opacity:1;fill-opacity:0.21649484"
       d="m 93.009793,68.942039 c 1.336349,2.271792 0.267271,6.280835 0.267271,6.280835 0,0 7.617176,-12.695303 9.488066,-13.630746 1.87089,-0.935444 6.01356,-19.510676 6.01356,-19.510676 z"
       id="path4583"
       inkscape:connector-curvature="0" />
    <path
       transform="translate(0,-32.41665)"
       style="display:inline;fill:#e7b08e;stroke:none;stroke-width:0.26458332px;stroke-linecap:butt;stroke-linejoin:miter;stroke-opacity:1;fill-opacity:1"
       d="m 134.18154,192.86754 c -1.79538,2.64583 1.51191,4.63021 -0.0945,6.23661 -1.6064,1.6064 -9.63839,3.77976 -8.78794,5.19717 0.85044,1.41741 8.31547,-0.56696 8.69345,0.94494 0.37797,1.51191 -4.15774,9.5439 -2.36235,9.92188 1.79538,0.37797 7.65401,-3.59078 7.46502,-1.79539 -0.18898,1.79539 -2.26785,1.5119 -1.88987,4.44122 0.37797,2.92932 2.83482,8.40997 2.83482,8.40997 0,0 -48.569945,-2.64583 -61.704615,-4.15774 -13.134673,-1.5119 -30.33259,-0.66146 -29.293156,-1.6064 1.039434,-0.94494 13.32366,-3.21279 18.331847,-5.76413 5.008184,-2.55134 19.087795,-9.73289 21.922618,-11.90625 2.83482,-2.17337 8.598958,-5.48066 8.882441,-7.37054 0.283479,-1.88988 -0.755955,-6.70908 -1.322917,-11.0558 -0.566965,-4.34673 -1.039437,-8.31548 -0.283483,-8.032 0.755952,0.28348 6.614585,10.11087 8.031995,9.92188 1.41741,-0.18899 -5.953126,-12.94569 -5.386161,-13.79613 0.566962,-0.85045 12.567701,9.92187 19.371281,14.36309 5.85863,4.06324 15.59151,5.00819 15.59151,6.04762 z"
       id="path4560"
       inkscape:connector-curvature="0"
       sodipodi:nodetypes="ccccccccsssccssscccc" />
    <path
       transform="translate(0,-32.41665)"
       style="display:inline;fill:#6a2819;stroke:none;stroke-width:0.26458332px;stroke-linecap:butt;stroke-linejoin:miter;stroke-opacity:1;fill-opacity:1"
       d="m 140.89062,226.12945 c 2.36235,-2.74033 7.65402,-5.10268 8.78795,-8.59896 1.13393,-3.49628 -4.8192,-5.48066 -4.63021,-6.4256 0.18899,-0.94494 6.3311,-5.48065 6.23661,-4.34672 -0.0945,1.13393 -0.75595,5.10268 1.22842,6.99255 1.98438,1.88989 7.55952,-2.55133 7.37054,-1.88987 -0.18899,0.66145 -5.76414,5.48065 -4.72471,5.38616 1.03944,-0.0945 6.52009,-5.29167 8.78795,-4.44122 2.26786,0.85044 6.4256,1.60639 9.73289,0.18898 3.30729,-1.41741 5.57515,-5.38616 10.39434,-5.95312 4.8192,-0.56696 10.58333,2.17336 14.07961,3.49628 3.49628,1.32292 13.51265,-0.66146 17.67039,-0.47247 4.15774,0.18899 10.77232,1.6064 14.2686,5.85863 3.49628,4.25223 3.2128,7.65402 3.2128,7.65402 0,0 -13.22917,0.85044 -25.89137,2.26785 -12.6622,1.41741 -34.49033,4.34673 -47.24702,2.74033 -12.7567,-1.6064 -19.27679,-2.45684 -19.27679,-2.45684 z"
       id="path4562"
       inkscape:connector-curvature="0" />
    <path
       transform="translate(0,-32.41665)"
       style="display:inline;fill:#6a2819;stroke:none;stroke-width:0.26458332px;stroke-linecap:butt;stroke-linejoin:miter;stroke-opacity:1;fill-opacity:1"
       d="m 137.29985,204.39581 c 2.26786,-1.03943 8.40997,-5.66964 8.59896,-4.25223 0.18898,1.41741 -4.06325,3.87426 -2.17337,4.63021 1.88988,0.75595 4.06325,0.94494 3.40179,2.07887 -0.66146,1.13393 -6.99256,4.25223 -6.14211,3.30729 0.85044,-0.94494 -5.10268,-4.63021 -3.68527,-5.76414 z"
       id="path4564"
       inkscape:connector-curvature="0" />
    <path
       style="fill:#ffffff;stroke:none;stroke-width:0.26458332px;stroke-linecap:butt;stroke-linejoin:miter;stroke-opacity:1;fill-opacity:0.30927834"
       d="m 124.51953,130.5199 c -0.0709,-0.42522 4.55934,0.33073 6.04762,0.77958 1.48828,0.44884 4.48847,2.36235 4.016,2.43322 -0.47247,0.0709 -8.90607,-1.63002 -10.06362,-3.2128 z"
       id="path6118"
       inkscape:connector-curvature="0" />
    <path
       style="fill:#784421;stroke:none;stroke-width:0.26458332px;stroke-linecap:butt;stroke-linejoin:miter;stroke-opacity:1;fill-opacity:0.21649484"
       d="m 104.36875,71.4811 c 5.07812,-4.409948 12.02713,-12.428032 11.89349,-16.570711 -0.13363,-4.142677 -5.61266,-15.902535 -5.61266,-15.902535 0,0 9.88897,-11.225321 16.30344,-8.018087 6.41447,3.207234 14.69983,31.270535 14.69983,31.270535 0,0 -10.28988,-4.677217 -15.63527,-8.819893 -5.34539,-4.142679 -6.28083,-7.082645 -5.7463,-5.612662 0.53454,1.469983 7.34992,16.437075 7.61719,19.510676 0.26727,3.073599 -0.40091,4.543581 -0.40091,4.543581 0,0 -0.53454,-3.741774 -3.74177,-11.492589 -3.20724,-7.750815 -6.41447,-14.432555 -6.28084,-11.091685 0.13364,3.34087 3.20724,9.220797 0.53455,12.02713 -2.6727,2.806329 -11.09169,11.225318 -13.63075,10.15624 z"
       id="path4585"
       inkscape:connector-curvature="0" />
    <path
       style="fill:#2d1a0c;stroke:none;stroke-width:0.26458332px;stroke-linecap:butt;stroke-linejoin:miter;stroke-opacity:1;fill-opacity:1"
       d="m 157.95629,150.05834 c 0.66817,-0.80181 3.0736,-0.80181 2.53906,1.33635 -0.53454,2.13815 -1.46998,4.14267 -1.46998,4.14267 0,0 0.8018,-1.46998 2.27179,-2.67269 1.46998,-1.20271 7.34991,-5.07812 9.08716,-3.0736 1.73725,2.00452 6.68174,2.53906 6.68174,2.53906 0,0 -4.40995,-1.60362 -4.54358,-3.34087 -0.13364,-1.73725 1.33635,-2.40543 4.81085,-4.40995 3.4745,-2.00452 2.93996,-4.81085 4.27631,-5.07812 1.33635,-0.26727 -0.4009,1.60362 7.61718,6.01357 8.01809,4.40994 9.08716,2.13815 9.08716,2.13815 0,0 -5.34539,-1.73725 -7.48354,-4.67721 -2.13816,-2.93997 -2.93997,-6.41447 -2.13816,-6.28084 0.80181,0.13364 6.28084,2.53906 8.95353,5.21176 2.6727,2.67269 7.61718,2.67269 7.61718,2.67269 0,0 -4.14268,-0.8018 -5.47902,-2.27179 -1.33635,-1.46998 -1.06908,-3.60814 -4.94449,-6.01356 -3.87541,-2.40543 -6.94901,-2.93997 -6.28083,-4.27631 0.66817,-1.33635 1.20271,-2.53906 1.60361,-6.81538 0.40091,-4.27631 -1.46998,-8.95353 0.40091,-8.15172 1.87089,0.80181 5.74629,6.54811 4.67722,10.15625 -1.06908,3.60813 -3.0736,4.67721 -3.0736,4.67721 0,0 3.34087,-0.53454 5.07812,-4.40994 1.73725,-3.87541 2.13815,-6.28084 2.13815,-10.55715 0,-4.27631 -4.40994,-7.48355 -4.54358,-10.95805 -0.13363,-3.4745 2.40543,-4.81085 2.40543,-4.81085 0,0 -2.13816,4.67721 1.46998,10.69078 3.60814,6.01356 13.63075,6.28083 13.63075,6.28083 0,0 -10.82442,-1.60362 -12.56167,-7.08264 -1.73725,-5.47903 0.26727,-10.69078 1.20271,-17.37252 0.93544,-6.681737 -2.53906,-19.911578 -8.28535,-27.52876 -5.7463,-7.617183 -8.15172,-13.363477 -6.94901,-16.169807 1.20271,-2.806329 4.00904,-10.289876 -0.80181,-14.699824 -4.81085,-4.409945 -10.55715,-3.073598 -16.57071,-10.42351 -6.01356,-7.349912 -8.8199,-12.027129 -19.10977,-12.561668 -10.28988,-0.534539 -19.24341,-1.737252 -19.91158,0.668174 -0.66817,2.405426 -0.93545,3.608138 -2.6727,1.202713 -1.73725,-2.405426 -6.68173,-4.4099475 -15.63526,-2.80633 -8.95353,1.603617 -34.611406,13.630745 -36.081388,15.100728 -1.469983,1.469983 2.939962,5.078121 1.202711,5.612659 -1.737252,0.53454 -8.953529,0.400905 -13.630746,4.142679 -4.677217,3.741772 -8.953529,7.61718 -7.483546,12.828937 1.469982,5.211754 3.875407,13.229841 0,14.566188 -3.875408,1.336347 -7.483546,-0.668174 -7.483546,-0.668174 0,0 4.677216,4.543581 8.953528,1.737252 4.276313,-2.80633 6.013564,-5.34539 4.543582,-8.819893 -1.46998,-3.474503 0.400904,-9.755339 3.207236,-8.285356 2.80633,1.469983 6.681737,1.469983 6.681737,1.469983 0,0 -3.340869,-0.801809 -5.078121,2.672694 -1.737251,3.474505 -0.534538,4.810852 -2.539061,9.087164 -2.00452,4.276312 -9.087162,6.681737 -9.087162,6.681737 0,0 3.073599,1.33635 4.81085,0.668174 1.737252,-0.668174 2.672697,1.069081 1.069078,3.474506 -1.603616,2.405424 -5.879928,1.469982 -8.018086,5.746294 -2.138157,4.276313 2.271791,4.677217 2.138158,8.285356 -0.133635,3.608139 -3.207236,5.078119 -3.207236,5.078119 0,0 2.405427,0.935445 4.009043,-1.336347 1.603618,-2.271789 2.004523,-4.944486 2.539061,-3.875408 0.53454,1.069078 -2.672694,5.34539 -2.27179,7.884451 0.400902,2.539061 3.608136,7.617179 2.539058,11.893499 -1.069078,4.27631 -1.870884,8.15172 -7.34991,7.08264 -5.479026,-1.06908 -6.681737,-4.00905 -6.681737,-4.00905 0,0 0.668173,5.61267 5.078118,7.21628 4.409948,1.60362 8.819896,0.26727 8.819896,0.26727 0,0 -2.672696,2.13816 -0.935445,8.28536 1.737254,6.1472 11.626226,8.41899 11.091685,13.76438 -0.534537,5.34539 -6.147196,2.40542 -6.147196,2.40542 0,0 0.267268,3.34087 4.142676,4.40995 3.875408,1.06908 6.681737,-2.53906 6.681737,-2.53906 0,0 1.870887,-0.40091 1.603619,1.87089 -0.267269,2.27179 -1.737252,2.27179 -1.737252,2.27179 0,0 3.741772,0.80181 4.409945,-0.80181 0.668177,-1.60362 2.672697,-0.13364 1.737255,1.87088 -0.935445,2.00453 -3.34087,2.80633 -4.677217,2.53906 -1.33635,-0.26726 -2.672697,-1.73725 -2.672697,-1.73725 0,0 -0.534537,4.27632 5.078122,4.81086 5.612659,0.53453 9.488066,-2.2718 9.488066,-2.2718 0,0 -3.474503,1.46999 -2.672693,4.67722 0.801809,3.20723 4.409948,4.14268 4.409948,4.14268 0,0 -2.539061,-1.06908 -1.870888,-3.47451 0.668174,-2.40542 6.013564,-5.34539 6.681737,-4.81085 0.668174,0.53454 2.138157,3.20724 3.608139,4.67722 1.469983,1.46998 1.469983,0.93544 1.469983,0.93544 0,0 -2.80633,-5.34539 -2.539061,-7.75081 0.267269,-2.40543 1.336347,-9.48807 1.469983,-11.62623 0.133636,-2.13815 -2.271792,-6.41447 -2.271792,-6.41447 0,0 0.801809,-4.67721 0,-11.75985 -0.801807,-7.08265 -4.81085,-15.368 -5.879928,-20.446123 -1.069078,-5.078121 -1.202714,-13.229841 -0.801809,-17.907058 0.400904,-4.677217 2.00452,-8.68626 2.00452,-8.68626 0,0 3.741775,-2.271792 7.750818,-6.548104 4.009048,-4.276312 5.211758,-12.294396 5.211758,-12.294396 0,0 -0.26727,2.672694 1.33634,8.418988 1.60362,5.746295 -1.20271,9.755339 -1.20271,9.755339 0,0 2.93997,0.668173 3.60814,-7.884451 0.66817,-8.552625 0.40091,-11.358954 2.67269,-14.699824 2.2718,-3.34087 3.20724,-11.225321 3.87541,-10.690781 0.66818,0.534538 1.33635,-0.267271 5.21176,8.686258 3.87541,8.953529 5.87993,24.989702 6.1472,23.653353 0.26727,-1.336347 -1.33635,-12.027128 -3.0736,-19.243405 -1.73725,-7.216278 -2.13816,-6.949006 -1.06908,-11.091685 1.06908,-4.142677 4.14268,-8.15172 5.07812,-7.349911 0.93545,0.801807 0.80181,10.022607 2.27179,16.30344 1.46999,6.280835 9.35444,13.49711 9.35444,13.49711 0,0 -4.81086,-5.612659 -6.01357,-10.022607 -1.20271,-4.409946 -2.00452,-7.483547 -1.33635,-6.147197 0.66818,1.336347 5.47903,14.699824 12.82894,19.510674 7.34991,4.810852 7.88445,2.939965 12.42803,5.34539 4.54359,2.405425 11.22532,7.349913 14.56619,10.423511 3.34087,3.073599 7.21628,6.949009 6.41447,17.506154 -0.80181,10.557145 -4.94448,16.036175 -5.87993,21.247925 -0.93544,5.21176 -3.87541,18.4416 -7.21627,22.71791 -3.34087,4.27631 -5.21176,4.00904 -4.40995,6.68174 z"
       id="path4571"
       inkscape:connector-curvature="0" />
    <path
       style="fill:#803300;stroke:none;stroke-width:0.26458332px;stroke-linecap:butt;stroke-linejoin:miter;stroke-opacity:1"
       d="m 60.670183,81.770976 c -1.33635,2.004523 -2.138157,6.815373 -1.469983,10.824416 0.668173,4.009043 1.202711,6.280835 0.267269,4.944486 -0.935443,-1.336347 -0.801809,-9.621703 -2.004521,-7.216275 -1.202713,2.405425 -0.801809,6.280832 0.400902,9.354431 1.202714,3.073596 6.013567,6.548106 3.608139,9.755336 -2.405425,3.20724 -5.211754,2.53906 -5.211754,2.53906 0,0 1.069078,2.6727 3.608138,2.27179 2.539061,-0.4009 3.741772,-2.27179 3.741772,-2.27179 0,0 1.469983,1.20272 -1.069078,3.47451 -2.539061,2.27179 -3.875407,1.73725 -3.875407,1.73725 0,0 1.603618,1.46998 4.409948,0.26727 2.806329,-1.20272 6.949006,2.80633 6.949006,2.80633 0,0 -1.603616,-0.80181 -3.340868,-5.34539 -1.737251,-4.54358 -2.806329,-11.35896 -1.069078,-10.55715 1.737252,0.80181 6.013564,6.28084 6.681737,9.62171 0.668174,3.34086 -0.935442,11.22531 -0.935442,11.22531 0,0 1.737252,-2.53906 2.138156,-6.28083 0.400905,-3.74177 2.939965,-3.0736 2.004521,1.06908 -0.935443,4.14268 -1.202712,5.87993 -3.741772,7.34991 -2.539061,1.46998 -4.142679,1.06908 -4.142679,1.06908 0,0 4.009043,2.40542 7.216277,-1.06908 3.207234,-3.4745 4.409948,-8.28536 5.211755,-7.34991 0.801809,0.93544 1.202713,5.61266 -1.069078,7.75081 -2.27179,2.13816 -3.207235,2.6727 -3.207235,2.6727 0,0 3.741775,-0.93544 5.078122,-2.40543 1.336349,-1.46998 3.34087,-3.60814 3.741774,-1.60361 0.400905,2.00452 -2.405425,5.21175 -2.405425,5.21175 0,0 3.073599,-1.73725 3.474503,-4.40994 0.400905,-2.6727 -1.336347,-7.21628 -1.737251,-10.28988 -0.400905,-3.0736 0.267269,-4.40995 0.267269,-4.40995 0,0 0.534537,1.87089 2.672693,3.34087 2.138159,1.46998 -2.138156,-5.21175 -5.211754,-8.41899 -3.073598,-3.20723 -2.80633,-6.01356 -2.80633,-6.01356 0,0 0.668174,-1.06908 4.81085,3.87541 4.142679,4.94448 4.944489,7.75081 5.345393,11.35895 0.400902,3.60814 -0.53454,4.81085 -0.53454,4.81085 0,0 3.073598,-5.07812 -0.133636,-11.89349 -3.207234,-6.81538 -4.009041,-7.88445 -10.15624,-12.027132 -6.147199,-4.142677 -7.617182,-8.15172 -7.617182,-8.15172 0,0 1.469983,5.612659 3.608139,8.018086 2.138156,2.405425 3.608138,6.815376 3.608138,6.815376 0,0 -10.423511,-6.949011 -10.958052,-13.096211 -0.534537,-6.147199 0.534541,-10.423511 0.534541,-10.423511 0,0 -1.737252,3.87541 -1.870888,7.483549 -0.133633,3.608136 0.80181,7.216274 2.271792,9.621702 1.469983,2.405421 2.80633,7.349911 2.80633,7.349911 0,0 -1.469983,-3.60814 -4.142677,-5.879928 -2.672696,-2.271792 -4.810852,0.400902 -4.677216,-6.548104 0.133633,-6.949009 -1.069078,-10.958052 -1.069078,-10.958052 z"
       id="path4573"
       inkscape:connector-curvature="0" />
    <path
       style="fill:#f5c3b5;stroke:#be9292;stroke-width:0.99999994px;stroke-linecap:butt;stroke-linejoin:miter;stroke-opacity:1;fill-opacity:1"
       d="M 376.0918 276.65234 C 369.77834 276.63656 365.04336 276.85684 364.0332 277.10938 C 362.0129 277.61445 332.0872 287.21202 329.43555 288.85352 C 326.7839 290.49501 324.68012 302.41169 327.5 306.42773 C 327.5 306.42773 358.92801 296.78487 361.78516 296.42773 C 364.64231 296.07061 373.92801 299.28627 374.28516 308.21484 C 374.64232 317.14342 384.86802 369.41223 400.52539 382.41797 C 416.18273 395.42366 466.9434 397.19108 479.57031 388.47852 C 492.19722 379.76595 509.87471 340.24315 516.31445 333.92969 C 522.75416 327.61624 535.50733 327.36419 538.66406 335.82422 C 541.82076 344.28425 550.28029 382.67072 561.64453 390.75195 C 573.00874 398.83319 601.29363 403.75758 623.76953 400.47461 C 646.24544 397.1916 652.43286 389.61467 659.50391 370.04297 C 666.57499 350.47126 669.98379 336.83513 675.28711 331.2793 C 680.59039 325.72346 683.74609 324.20732 683.74609 322.81836 C 683.74609 321.4294 685.51406 301.85907 684.50391 300.72266 C 683.49375 299.58624 629.19926 295.41778 609.375 294.66016 C 589.55077 293.90255 566.44306 293.27207 560.25586 295.54492 C 554.06866 297.81776 544.09403 311.95909 540.17969 312.33789 C 536.26534 312.7167 521.49179 313.22255 517.45117 310.31836 C 513.41059 307.41417 507.09665 295.92273 498.25781 291.75586 C 489.41897 287.58898 412.26831 279.0042 397.62109 277.61523 C 390.29748 276.92076 382.40525 276.66813 376.0918 276.65234 z M 434.26758 295.95703 C 441.06638 295.88403 448.63304 296.20686 456.9668 296.80664 C 490.30181 299.20575 497.49943 310.44525 500.27734 317.64258 C 505.20184 337.21429 489.67213 364.61361 483.23242 373.32617 C 476.79271 382.03875 464.03958 385.44833 443.58398 384.56445 C 423.12839 383.68057 407.97509 378.75602 399.76758 371.9375 C 391.56011 365.11897 385.37269 324.71244 393.95898 310.57031 C 400.39873 299.96371 413.87118 296.17603 434.26758 295.95703 z M 595.35352 306.90625 C 599.40313 306.95767 603.20349 307.17731 606.4707 307.41406 C 623.89584 308.67675 652.05255 316.63257 653.82031 328.12305 C 655.58807 339.61354 649.90609 380.77709 636.90039 387.2168 C 623.89466 393.65654 611.39449 393.65588 598.76758 392.14062 C 586.14067 390.62541 566.19131 387.72125 560.76172 374.8418 C 555.33216 361.96236 550.02844 343.27396 551.66992 327.86914 C 555.56848 309.60747 577.8052 306.68343 595.35352 306.90625 z "
       id="path6140"
       transform="scale(0.26458333)" />
    <path
       style="fill:#803300;stroke:none;stroke-width:0.26458332px;stroke-linecap:butt;stroke-linejoin:miter;stroke-opacity:1"
       d="m 60.803816,123.33139 c 0,0 -3.875408,-0.53454 2.405427,5.47902 6.280833,6.01357 9.220798,9.35444 10.690781,12.96257 1.469982,3.60814 -4.810853,5.07813 -4.810853,5.07813 0,0 4.677217,-0.13364 6.414469,-2.2718 1.737251,-2.13815 1.336346,-6.81537 1.336346,-6.81537 0,0 3.741775,0.26727 4.14268,3.34087 0.400904,3.0736 -4.677217,5.87993 -4.677217,5.87993 0,0 7.34991,1.33635 9.087164,-0.53454 1.737252,-1.87089 2.27179,0.13363 0.534538,2.27179 -1.737251,2.13816 1.069078,2.93997 1.069078,2.93997 0,0 -0.935442,-1.06908 0.534541,-3.20724 1.469982,-2.13815 4.944485,-4.54358 5.879928,-9.75534 0.935444,-5.21175 0.935444,-25.92514 -1.603616,-24.72242 -2.539061,1.20271 -1.069078,8.28535 -3.608139,14.03164 -2.539061,5.7463 -6.280835,9.2208 -6.280835,9.2208 0,0 -2.539061,0.13364 -5.612659,-2.13815 -3.073599,-2.27179 -7.483547,-2.93997 -10.156243,-6.1472 -2.672694,-3.20724 -3.474503,-1.60362 -5.34539,-5.61266 z"
       id="path4575"
       inkscape:connector-curvature="0" />
    <path
       style="fill:#803300;stroke:none;stroke-width:0.26458332px;stroke-linecap:butt;stroke-linejoin:miter;stroke-opacity:1"
       d="m 79.512683,59.320337 c -9.087165,2.53906 -13.229841,1.336347 -16.30344,4.543581 -3.073601,3.207234 -7.617182,4.009043 -7.617182,4.009043 0,0 1.737252,-0.534538 5.479024,-3.608139 3.741774,-3.073598 3.474505,-5.479023 6.280835,-6.681737 2.806329,-1.202714 10.557144,-1.603618 10.557144,-1.603618 0,0 -7.483546,2.271792 -7.34991,2.806332 0.133636,0.534538 5.211754,-1.603618 8.953529,0.534538 z"
       id="path4577"
       inkscape:connector-curvature="0" />
    <path
       style="fill:#803300;stroke:none;stroke-width:0.26458332px;stroke-linecap:butt;stroke-linejoin:miter;stroke-opacity:1"
       d="m 96.083394,33.929732 c 0,0 -6.147199,5.612659 -7.884451,14.699824 -1.737251,9.087165 -1.603618,16.437075 -1.603618,16.437075 0,0 2.138156,-13.764378 3.207234,-14.699823 1.069078,-0.935443 -1.870887,14.432555 -1.870887,14.432555 0,0 3.340869,-9.220798 4.276314,-14.432555 0.935443,-5.211755 2.138156,-14.699824 3.875408,-16.437076 z"
       id="path4579"
       inkscape:connector-curvature="0" />
    <path
       style="fill:#803300;stroke:none;stroke-width:0.26458332px;stroke-linecap:butt;stroke-linejoin:miter;stroke-opacity:1"
       d="m 77.775431,39.275123 c -5.479026,1.870887 -17.37252,-0.400905 -18.307962,1.202713 -0.935443,1.603616 0.534537,7.216278 0.534537,7.216278 0,0 0.133636,-1.737254 1.069079,-1.737254 0.935444,0 10.423511,3.073601 12.428034,2.672696 2.004521,-0.400904 -5.078121,-0.801809 -4.810852,-3.474503 0.267268,-2.672696 -1.603616,-3.207234 2.806329,-3.87541 4.409948,-0.668174 6.280835,-2.00452 6.280835,-2.00452 z"
       id="path4581"
       inkscape:connector-curvature="0" />
    <path
       style="fill:#efeaea;stroke:none;stroke-width:0.26458332px;stroke-linecap:butt;stroke-linejoin:miter;stroke-opacity:1;fill-opacity:1"
       d="m 149.25332,90.240079 c 0.11693,-0.785103 2.12145,-3.908816 5.86323,-3.57473 3.74177,0.334087 6.84878,1.954409 7.24969,2.6894 0.4009,0.734991 -2.88986,2.689399 -5.44562,2.923259 -2.55577,0.233863 -7.73411,-1.386459 -7.6673,-2.037929 z"
       id="path4589"
       inkscape:connector-curvature="0" />
    <path
       style="opacity:1;fill:#222b00;fill-opacity:1;stroke:none;stroke-width:13.82533932;stroke-miterlimit:4;stroke-dasharray:none;stroke-opacity:1"
       d="M 583.69336 327.46484 C 582.18843 327.49708 580.7711 327.68501 579.43555 327.98438 A 12.946429 12.946429 0 0 0 575.71484 337.05273 A 12.946429 12.946429 0 0 0 581.33008 347.72461 C 585.61574 348.57873 589.8925 349.05979 593.08594 348.76758 C 593.57048 348.72324 594.06609 348.64988 594.5625 348.57422 A 12.946429 12.946429 0 0 0 601.60742 337.05273 A 12.946429 12.946429 0 0 0 599.66602 330.25195 C 595.69004 329.00266 591.12821 327.98867 586.26758 327.55469 C 585.38369 327.47577 584.52581 327.44701 583.69336 327.46484 z "
       transform="scale(0.26458333)"
       id="circle4591" />
    <circle
       r="1.5591518"
       cy="89.178757"
       cx="155.7498"
       id="circle4593"
       style="opacity:1;fill:#151a00;fill-opacity:1;stroke:none;stroke-width:1.66499996;stroke-miterlimit:4;stroke-dasharray:none;stroke-opacity:1" />
    <circle
       r="0.96856397"
       cy="88.446426"
       cx="152.77325"
       id="circle4595"
       style="opacity:1;fill:#ffffff;fill-opacity:1;stroke:none;stroke-width:1.66499996;stroke-miterlimit:4;stroke-dasharray:none;stroke-opacity:1" />
    <path
       style="fill:#6c6753;stroke:none;stroke-width:0.26458332px;stroke-linecap:butt;stroke-linejoin:miter;stroke-opacity:1"
       d="m 10.772321,267.79614 c 1.039435,-4.9137 0.850447,-6.61459 0.944941,-16.81995 0.09449,-10.20536 0.755952,-24.94643 4.063244,-33.07292 3.307291,-8.12649 5.480654,-8.40997 5.575148,-11.1503 0.09449,-2.74032 4.346726,-6.70907 5.291668,-9.26041 0.944938,-2.55134 3.968748,-4.44122 6.142112,-6.3311 2.173364,-1.88989 1.228423,-3.3073 3.118302,-3.68527 1.889882,-0.37798 36.285715,0.85045 47.530506,1.5119 11.244792,0.66146 61.137648,4.15774 70.020088,5.19718 8.88244,1.03943 27.68676,1.03943 41.2939,-0.47247 13.60714,-1.51191 32.88393,-4.53572 38.17559,-4.25224 5.29167,0.28349 10.39435,2.26786 11.71726,4.15774 1.32292,1.88988 6.89807,12.6622 7.37054,21.73363 0.47247,9.07143 -1.03943,24.00149 -2.92931,33.92337 -1.88989,9.92187 -1.51191,17.2924 -1.51191,17.2924 z"
       id="path4926"
       inkscape:connector-curvature="0" />
    <path
       style="fill:#e3e2db;stroke:none;stroke-width:0.26458332px;stroke-linecap:butt;stroke-linejoin:miter;stroke-opacity:1"
       d="m 11.339286,266.94569 c 1.039434,-5.57516 0.661458,-15.02456 1.133928,-22.48959 0.47247,-7.46503 0.566964,-12.85119 2.173363,-19.37128 1.606399,-6.52009 2.362351,-9.82738 4.630208,-13.13467 2.267857,-3.3073 2.834822,-2.74033 3.401786,-5.29167 0.566964,-2.55134 0.661458,-2.17336 2.173363,-5.00818 1.511905,-2.83483 1.228423,-2.26786 3.118305,-5.10268 1.889879,-2.83482 5.480653,-3.96875 6.236605,-5.29167 0.755954,-1.32292 0.850447,-2.64583 1.417412,-3.02381 0.566963,-0.37798 97.139874,4.91369 108.195684,5.95313 11.0558,1.03943 25.70238,2.07887 38.45908,1.13393 12.75669,-0.94495 47.43601,-5.85864 51.49925,-5.19718 4.06324,0.66146 8.97693,1.41741 8.78795,3.59078 -0.18899,2.17336 -3.87426,4.34672 -3.11831,4.91369 0.75596,0.56696 2.07887,-0.94494 2.36235,-0.28349 0.28348,0.66146 -10.01637,13.98512 -14.1741,21.73364 -4.15774,7.74851 -12.18974,18.42633 -15.59152,23.15103 -3.40179,4.72471 -12.56771,18.14286 -12.18973,19.0878 0.37797,0.94494 5.66964,-9.07142 8.40997,-12.37872 2.74032,-3.30729 9.26041,-12.00074 13.04018,-17.85937 3.77976,-5.85863 8.69345,-14.2686 10.86681,-16.06399 2.17336,-1.79539 7.37054,-8.40997 10.58333,-11.0558 3.2128,-2.64584 3.02381,-5.66964 3.68527,-3.49628 0.66146,2.17336 -1.03943,5.00818 -5.29166,12.09524 -4.25224,7.08705 -10.77233,17.57589 -15.02456,22.86755 -4.25223,5.29167 -12.94568,14.93006 -14.83556,19.56027 -1.88988,4.63021 -3.77977,6.4256 -3.49628,6.89807 0.28348,0.47247 3.1183,-4.06325 5.00818,-6.70908 1.88988,-2.64583 7.84301,-8.40997 8.31548,-10.11086 0.47247,-1.7009 2.45684,-3.11831 4.44122,-5.10268 1.98437,-1.98438 2.55134,-4.15774 3.96875,-6.4256 1.41741,-2.26785 11.71726,-12.28422 12.94568,-11.71726 1.22842,0.56697 1.79539,3.2128 0.75595,4.34673 -1.03943,1.13393 -11.62276,6.52009 -11.15029,6.89806 0.47247,0.37798 10.77232,-6.14211 11.0558,-5.19717 0.28348,0.94494 -6.61458,7.84301 -8.40997,9.44941 -1.79539,1.60639 0.85045,0.75595 5.00818,-1.03944 4.15774,-1.79539 9.82739,-10.11086 9.44941,-7.9375 -0.37798,2.17336 -4.06324,7.9375 -8.97693,12.6622 -4.9137,4.72471 -18.80432,11.05581 -17.4814,11.62277 1.32291,0.56697 11.71726,-2.07887 16.91443,-4.8192 5.19717,-2.74032 9.92188,-10.96131 9.35491,-8.31547 -0.56696,2.64583 -2.26786,3.30729 -3.77976,11.43378 -1.51191,8.12649 -1.51191,13.32366 -1.51191,13.32366 l -47.90848,0.66146 c 0,0 0.37798,-0.28348 4.06325,-9.73289 3.68526,-9.4494 6.2366,-14.17411 9.92187,-18.80431 3.68527,-4.63021 7.65402,-8.97694 5.38616,-7.46504 -2.26786,1.51191 -8.03199,6.4256 -10.58333,12.37873 -2.55134,5.95312 -8.12649,20.41071 -9.07143,21.92261 -0.94494,1.5119 -1.98437,1.79538 -1.98437,1.79538 H 60.192708 c 0,0 5.480653,-5.00817 6.709076,-9.73288 1.228423,-4.7247 -3.307292,-17.29241 -4.630208,-15.59151 -1.322917,1.70089 -0.377976,7.843 -3.590774,8.97693 -3.212796,1.13393 -0.472469,3.02381 -1.700893,7.27604 -1.228423,4.25224 -2.267857,7.65402 -3.023809,6.4256 -0.755951,-1.22842 0.755952,-8.69345 -0.377976,-11.1503 -1.13393,-2.45685 -9.35491,-3.1183 -11.055805,-1.5119 -1.700892,1.60639 2.74033,7.843 4.252233,10.48884 1.511906,2.64583 2.362351,4.34671 2.362351,4.34671 l -2.551338,0.2835 c 0,0 0,1.79539 -3.685267,-7.08706 -3.68527,-8.88244 -9.827382,-23.62351 -9.543899,-21.26116 0.283482,2.36235 5.38616,14.83556 6.992559,18.04836 1.606399,3.2128 4.252232,10.29986 4.252232,10.29986 z"
       id="path4928"
       inkscape:connector-curvature="0" />
    <path
       inkscape:connector-curvature="0"
       id="path4930"
       d="m 148.20885,90.724239 c 0,0 -0.14174,-1.960753 1.37016,-3.472656 1.51191,-1.511906 3.49055,-1.81467 6.37262,-1.743798 2.88206,0.07087 6.03349,1.208358 6.90756,1.255604 0.87407,0.04725 2.76019,-0.952841 2.59482,-0.787476 -0.16536,0.165365 -1.89254,1.435588 -1.70355,1.530084 1.04041,-0.346153 1.48494,0.171054 2.25758,0.01048 0,0.14174 -1.87297,0.618758 -1.87297,0.807744 0,0.188989 0.45941,0.68242 1.21534,0.800538 0.75596,0.118118 2.17071,-0.09638 2.02897,0.02173 -0.14175,0.118118 -1.21668,0.727292 -1.92538,0.821788 -0.70871,0.09449 -1.2993,-0.02362 -2.24424,-0.448849 -0.94494,-0.425222 -4.25125,-2.598789 -7.37697,-2.763457 -2.86422,-0.150892 -4.05681,0.401106 -5.14349,1.227929 -1.08668,0.826823 -2.38598,2.716705 -2.48047,2.74033 z"
       style="fill:#150800;stroke:none;stroke-width:0.26458332px;stroke-linecap:butt;stroke-linejoin:miter;stroke-opacity:1;fill-opacity:1"
       sodipodi:nodetypes="ccsccccsccccsscc" />
    <path
       inkscape:connector-curvature="0"
       id="path4932"
       d="m 163.57139,91.257625 c 0,0 -0.56697,-1.063059 -1.37017,-0.803199 -0.8032,0.259858 -1.79579,1.873379 -5.69367,2.015119 -3.89788,0.141743 -7.44239,-2.14548 -7.3479,-1.956493 0.0945,0.188989 4.10673,2.522271 7.22504,2.498649 3.1183,-0.02363 4.21013,-1.257983 4.91884,-1.494219 0.70871,-0.236233 1.13393,0.543341 1.13393,0.425226 0,-0.118118 -0.23624,-0.448848 -0.49609,-0.614212 -0.25986,-0.165365 -0.0472,-0.401601 0.44884,-0.354354 0.4961,0.04725 1.18118,0.283483 1.18118,0.283483 z"
       style="fill:#150800;stroke:none;stroke-width:0.26458332px;stroke-linecap:butt;stroke-linejoin:miter;stroke-opacity:1;fill-opacity:1"
       sodipodi:nodetypes="ccscccsccc" />
  </g>
</svg>
