<?xml version="1.0" encoding="UTF-8" standalone="no"?>
<!-- Created with Inkscape (http://www.inkscape.org/) -->

<svg
   xmlns:dc="http://purl.org/dc/elements/1.1/"
   xmlns:cc="http://creativecommons.org/ns#"
   xmlns:rdf="http://www.w3.org/1999/02/22-rdf-syntax-ns#"
   xmlns:svg="http://www.w3.org/2000/svg"
   xmlns="http://www.w3.org/2000/svg"
   xmlns:sodipodi="http://sodipodi.sourceforge.net/DTD/sodipodi-0.dtd"
   xmlns:inkscape="http://www.inkscape.org/namespaces/inkscape"
   width="1280"
   height="720"
   viewBox="0 0 338.66666 190.50001"
   id="svg2"
   version="1.1"
   inkscape:version="0.92.1 r15371"
   sodipodi:docname="frank-pesci-video-thumbnail.svg"
   inkscape:export-filename="C:\Users\Anthony Garone\Documents\GitHub\art\frank-pesci\discover\frank-pesci-video-thumbnail.png"
   inkscape:export-xdpi="96"
   inkscape:export-ydpi="96">
  <defs
     id="defs4">
    <linearGradient
       id="linearGradient5627">
      <stop
         style="stop-color:#f80000;stop-opacity:1"
         id="stop5629"
         offset="0" />
      <stop
         style="stop-color:#e69595;stop-opacity:1"
         id="stop5631"
         offset="1" />
    </linearGradient>
    <linearGradient
       id="linearGradient5619">
      <stop
         style="stop-color:#000000;stop-opacity:1"
         id="stop5621"
         offset="0" />
      <stop
         style="stop-color:#000000;stop-opacity:0"
         id="stop5623"
         offset="1" />
    </linearGradient>
    <linearGradient
       id="linearGradient4838">
      <stop
         style="stop-color:#606060;stop-opacity:1"
         id="stop4840"
         offset="0" />
      <stop
         style="stop-color:#ffffff;stop-opacity:1"
         id="stop4842"
         offset="1" />
    </linearGradient>
    <linearGradient
       id="linearGradient4776">
      <stop
         style="stop-color:#c9c9c9;stop-opacity:1"
         offset="0"
         id="stop4778" />
      <stop
         style="stop-color:#555555;stop-opacity:1"
         offset="1"
         id="stop4780" />
    </linearGradient>
    <linearGradient
       id="linearGradient4760">
      <stop
         style="stop-color:#000000;stop-opacity:1"
         offset="0"
         id="stop4762" />
      <stop
         style="stop-color:#555555;stop-opacity:1"
         id="stop4764"
         offset="0.52" />
      <stop
         style="stop-color:#000000;stop-opacity:1"
         offset="1"
         id="stop4766" />
    </linearGradient>
    <linearGradient
       id="linearGradient4744">
      <stop
         style="stop-color:#000000;stop-opacity:1"
         id="stop4746"
         offset="0" />
      <stop
         style="stop-color:#555555;stop-opacity:1"
         offset="0.65"
         id="stop4748" />
      <stop
         style="stop-color:#000000;stop-opacity:1"
         id="stop4750"
         offset="1" />
    </linearGradient>
    <linearGradient
       id="linearGradient4728">
      <stop
         style="stop-color:#000000;stop-opacity:1"
         offset="0"
         id="stop4730" />
      <stop
         style="stop-color:#555555;stop-opacity:1"
         id="stop4732"
         offset="0.72" />
      <stop
         style="stop-color:#000000;stop-opacity:1"
         offset="1"
         id="stop4734" />
    </linearGradient>
    <linearGradient
       id="linearGradient4708">
      <stop
         style="stop-color:#000000;stop-opacity:1"
         id="stop4710"
         offset="0" />
      <stop
         style="stop-color:#555555;stop-opacity:1"
         offset="0.5"
         id="stop4718" />
      <stop
         style="stop-color:#000000;stop-opacity:1"
         id="stop4712"
         offset="1" />
    </linearGradient>
    <linearGradient
       id="linearGradient4679">
      <stop
         style="stop-color:#000000;stop-opacity:1"
         id="stop4681"
         offset="0" />
      <stop
         style="stop-color:#555555;stop-opacity:1"
         id="stop4683"
         offset="1" />
    </linearGradient>
  </defs>
  <sodipodi:namedview
     id="base"
     pagecolor="#ffffff"
     bordercolor="#666666"
     borderopacity="1.0"
     inkscape:pageopacity="0.0"
     inkscape:pageshadow="2"
     inkscape:zoom="0.98994949"
     inkscape:cx="625.61891"
     inkscape:cy="331.70553"
     inkscape:document-units="px"
     inkscape:current-layer="layer4"
     showgrid="false"
     units="px"
     inkscape:window-width="1920"
     inkscape:window-height="1017"
     inkscape:window-x="-8"
     inkscape:window-y="-8"
     inkscape:window-maximized="1" />
  <metadata
     id="metadata7">
    <rdf:RDF>
      <cc:Work
         rdf:about="">
        <dc:format>image/svg+xml</dc:format>
        <dc:type
           rdf:resource="http://purl.org/dc/dcmitype/StillImage" />
        <dc:title />
      </cc:Work>
    </rdf:RDF>
  </metadata>
  <g
     inkscape:label="Gray BG"
     inkscape:groupmode="layer"
     id="layer1"
     transform="translate(0,-106.49999)">
    <rect
       style="opacity:1;fill:#596268;fill-opacity:1;stroke:none;stroke-width:16.0535984;stroke-miterlimit:4;stroke-dasharray:none;stroke-opacity:1"
       id="rect4141"
       width="338.66669"
       height="190.5"
       x="1.4210855e-14"
       y="106.49999" />
  </g>
  <g
     inkscape:groupmode="layer"
     id="layer5"
     inkscape:label="Residents">
    <g
       id="g4648"
       transform="matrix(0.5846597,0,0,0.58465925,1.4301576,-7.847339)">
      <g
         style="display:none"
         transform="translate(0,-32.41665)"
         id="layer1-7"
         inkscape:label="BG">
        <rect
           style="fill:#ffffff;fill-opacity:1;stroke-width:0.26458332"
           y="32.416641"
           x="0"
           height="264.58334"
           width="264.58334"
           id="rect4493" />
      </g>
      <g
         style="display:inline;opacity:1"
         inkscape:label="Head"
         id="layer2-7">
        <path
           inkscape:connector-curvature="0"
           id="path4674"
           d="m 105.45536,137.58333 c -9.165927,6.52009 -55.373517,21.92262 -64.350451,27.30878 -8.976934,5.38616 -10.205357,3.30729 -12.473212,8.12649 -2.267858,4.8192 -9.921876,51.02678 -12.189733,58.30282 -2.267857,7.27605 -9.4494047,33.26191 -9.4494047,33.26191 H 115.56622 c 0,0 -0.56696,-57.64137 -3.2128,-73.89434 -2.64583,-16.25298 -3.77976,-48.00298 -6.89806,-53.10566 z"
           style="fill:#7e6e53;fill-opacity:0.995283;stroke:none;stroke-width:0.26458332px;stroke-linecap:butt;stroke-linejoin:miter;stroke-opacity:1" />
        <path
           sodipodi:nodetypes="cscsssssssccc"
           inkscape:connector-curvature="0"
           id="path4578"
           d="m 171.31976,138.03121 c 1.18738,-7.62424 -0.17679,-18.48796 0.52701,-30.18583 0.80118,-13.31649 1.16505,-26.155361 0.80934,-31.419795 -0.66817,-9.888974 -0.26727,-31.938708 -15.10072,-42.763124 -14.83346,-10.824416 -27.2615,-13.898015 -37.55137,-10.958051 -10.28988,2.939965 -24.455164,8.686259 -30.46873,24.856065 -6.013564,16.169807 -5.078121,19.911581 -4.276312,23.653353 0.801809,3.741775 2.004523,16.036174 1.603618,22.717911 -0.400904,6.681741 0.400905,12.027131 4.409945,22.985181 4.009044,10.95805 8.151723,20.31248 13.363479,23.92062 5.21176,3.60814 0.98956,14.65799 0.98956,14.65799 l 32.28549,58.84113 c 0,0 41.65917,-57.79402 33.40869,-76.30545 z"
           style="fill:#be9473;fill-opacity:1;stroke:none;stroke-width:0.26458332px;stroke-linecap:butt;stroke-linejoin:miter;stroke-opacity:1" />
        <path
           inkscape:connector-curvature="0"
           id="path4625"
           d="m 97.887463,83.575045 c -0.868627,-1.00226 -4.409948,-2.33861 -6.280832,-2.739514 -1.870887,-0.400902 -4.677217,-1.937703 -4.610402,-0.935443 0.06682,1.002261 0.534541,5.011304 0.534541,8.15172 0,3.140419 -0.467723,10.089425 -0.267269,12.962572 0.200451,2.87315 6.481286,23.78699 8.418988,26.25923 1.937705,2.47224 11.626221,10.89124 15.167551,12.09395 3.54132,1.20271 5.4122,1.80407 7.21627,-1.5368 1.80407,-3.34087 -2.60588,-23.92062 -3.4745,-24.92289 -0.86863,-1.00226 -2.00452,-0.93544 -3.67496,-1.20271 -1.67043,-0.26727 -3.94222,0.66817 -4.47676,-0.73499 -0.53454,-1.40317 -0.86863,-3.0736 -0.26727,-4.14268 0.60135,-1.06907 1.9377,-4.6104 2.33861,-6.81537 0.4009,-2.204974 0,-7.283095 -0.20046,-9.822156 -0.20045,-2.53906 0,-3.674954 -0.60135,-3.674954 -0.60136,0 -1.00226,0.46772 -0.86863,0.935443 0.13364,0.467722 0.86863,1.469982 -0.53454,1.670433 -1.40316,0.200454 -2.07134,3.875411 -5.74629,4.810853 -3.674957,0.935442 -3.207234,-0.868627 -1.202714,-2.071338 2.004524,-1.202714 4.409944,-2.405428 4.343134,-2.80633 -0.0668,-0.400905 -4.94449,1.336347 -6.882195,1.069078 -1.937705,-0.267271 -3.875407,0.267269 -4.075861,-0.734991 -0.200451,-1.002263 0.200454,-2.539061 1.269532,-3.073601 1.069078,-0.534538 7.149464,-1.202711 7.817634,-0.668174 0.66817,0.534541 0.0668,-1.603618 -4.677218,-1.069078 -4.744035,0.534541 -4.877668,0.935443 -5.278572,2.138156 -0.400905,1.202714 -0.200454,3.541321 -0.734992,3.541321 -0.53454,0 -0.267269,-4.009043 0.334087,-4.81085 0.601356,-0.801809 1.737252,-1.603618 3.207234,-1.670436 1.469983,-0.06682 2.873148,0.400905 3.207234,-0.200451 z"
           style="fill:#e2bfa6;fill-opacity:1;stroke:none;stroke-width:0.26458332px;stroke-linecap:butt;stroke-linejoin:miter;stroke-opacity:1" />
        <path
           sodipodi:nodetypes="ccssccsccscc"
           inkscape:connector-curvature="0"
           id="path4676"
           transform="scale(0.26458333)"
           d="m 398.57227,520 c -2.11555,1.50487 -4.76163,3.13601 -7.85743,4.875 -6.38212,4.15234 -15.11915,10.33042 -20.35742,16.19727 -8.92856,9.99998 -63.21372,86.78559 -67.46875,93.01171 -4.25503,6.22613 22.46792,33.41546 23.89649,37.70118 1.42858,4.28572 -54.64175,26.42994 -58.57032,26.78711 -3.92858,0.35712 9.28461,31.07143 23.57032,70 C 306.07087,807.50083 346.42773,1000 346.42773,1000 h 90.35743 c 0,0 23.11125,-220.38199 13.11123,-281.81054 -9.67249,-59.41677 -39.25305,-171.10105 -50.19131,-195.97071 z"
           style="fill:#75674d;fill-opacity:0.98584906;stroke:none;stroke-width:0.99999994px;stroke-linecap:butt;stroke-linejoin:miter;stroke-opacity:1" />
        <path
           inkscape:connector-curvature="0"
           id="path4617"
           d="m 149.13639,81.370071 c 4.27632,2.405425 2.6727,6.815373 0.66818,10.824416 -2.00452,4.009044 -6.01357,11.358953 -6.28083,17.238883 -0.26728,5.87993 2.13815,9.75534 -0.13364,10.15624 -2.27179,0.40091 -7.21628,-9.48806 -10.55715,-12.29439 -3.34087,-2.80633 -10.15624,-7.21628 -7.61718,-7.884455 2.53906,-0.668174 4.27631,2.672695 4.27631,1.069075 0,-1.603616 -3.8754,-4.142676 -5.47902,-6.548101 -1.60362,-2.405425 -2.40543,-5.612659 -1.06908,-5.612659 1.33635,0 2.93997,-1.737254 1.20271,-1.737254 -1.73725,0 -1.58791,-0.544997 -0.59572,-0.97022 0.99218,-0.425225 0.85044,-0.472471 2.07887,-0.330729 1.22842,0.14174 6.18936,0.330729 7.74851,-0.0945 1.55915,-0.425222 4.6302,-1.937125 5.10268,-1.700892 0.47246,0.236236 -1.88989,2.740329 -3.49629,2.787576 -1.60639,0.04725 -5.48065,-0.04725 -5.14992,0.330729 0.33073,0.377976 1.93713,1.700892 1.22842,1.937128 -0.7087,0.236233 -2.07887,0.14174 -1.60639,0.330729 0.47246,0.188987 -0.42523,1.275668 3.73251,1.133928 4.15774,-0.14174 8.12649,-1.27567 8.40997,-0.283483 0.28348,0.992188 -1.98438,2.126118 -1.22842,2.315104 0.75595,0.18899 4.34672,-2.409597 5.66964,-5.433406 1.32292,-3.023809 0.71104,-5.601002 3.09584,-5.233723 z"
           style="fill:#e2bfa6;fill-opacity:1;stroke:none;stroke-width:0.26458332px;stroke-linecap:butt;stroke-linejoin:miter;stroke-opacity:1" />
        <path
           inkscape:connector-curvature="0"
           id="path4611"
           d="m 132.49887,120.52506 c 0,0 -2.6727,5.21175 -7.34992,6.74855 -4.67721,1.5368 -10.55714,1.73725 -13.56392,0.20045 -3.00679,-1.53679 -3.27406,-4.87766 -3.27406,-4.87766 0,0 25.25698,-8.88672 24.1879,-2.07134 z"
           style="fill:#a76d66;fill-opacity:1;stroke:none;stroke-width:0.26458332px;stroke-linecap:butt;stroke-linejoin:miter;stroke-opacity:1" />
        <path
           inkscape:connector-curvature="0"
           id="path4613"
           d="m 125.61668,85.312297 c -0.33409,-0.601356 1.73725,-3.006784 4.81085,-3.674957 3.0736,-0.668174 7.88445,-0.334087 8.0849,1.202714 0.20045,1.5368 -5.61266,2.806329 -6.81537,2.873147 -1.20271,0.06682 -5.07812,0.467723 -6.08038,-0.400904 z"
           style="fill:#e0d9d4;fill-opacity:1;stroke:none;stroke-width:0.26458332px;stroke-linecap:butt;stroke-linejoin:miter;stroke-opacity:1" />
        <path
           sodipodi:nodetypes="ccsc"
           inkscape:connector-curvature="0"
           id="path4654"
           d="m 172.25521,72.616995 c -1.65847,-0.06007 -5.62925,3.744837 -6.35767,4.857438 -0.72841,1.112601 -1.45682,2.225204 -0.92706,2.225204 0.52975,0 6.88741,-4.931612 7.28473,-7.082642 z"
           style="fill:#a47a58;fill-opacity:1;stroke:none;stroke-width:0.27751714px;stroke-linecap:butt;stroke-linejoin:miter;stroke-opacity:1" />
        <path
           inkscape:connector-curvature="0"
           id="path4648"
           d="m 166.87649,76.918152 c 1.79538,-1.984375 5.85863,-6.236605 9.16592,-4.630208 3.30729,1.606399 5.10268,5.953125 4.8192,9.165923 -0.28349,3.212799 -1.88989,4.724702 -2.17337,6.52009 -0.28348,1.795386 -2.07887,13.890623 -3.87425,16.536463 -1.79539,2.64583 -7.27604,1.79538 -7.27604,1.79538 l -3.2128,-24.851933 c 0,0 1.41741,-3.023809 2.55134,-4.535715 z"
           style="fill:#be9473;fill-opacity:1;stroke:none;stroke-width:0.26458332px;stroke-linecap:butt;stroke-linejoin:miter;stroke-opacity:1" />
        <path
           sodipodi:nodetypes="ccszcsscsssccc"
           inkscape:connector-curvature="0"
           id="path4659"
           d="m 138.98015,212.46577 c 0,0 -7.48354,-31.27053 -9.35443,-34.74504 -1.87089,-3.4745 -16.65456,-21.20168 -17.62134,-23.01439 -0.64701,-1.21314 -1.75367,-2.91005 -2.03231,-4.30344 -0.27863,-1.39338 0.31035,-12.23639 -1.48504,-11.85842 -1.79539,0.37798 -9.362775,6.88186 -10.307715,10.75611 -0.944941,3.87426 0.09449,9.82738 0.850445,10.20536 0.755954,0.37798 1.51191,-3.02381 2.55134,-3.1183 1.03943,-0.0945 6.14211,5.85863 7.74851,8.69345 0.78172,1.3795 5.62032,25.24623 6.95209,49.11339 0.53847,9.65018 -0.91091,20.50757 -1.09031,28.74579 -0.2887,13.25682 0.37468,21.64305 0.37468,21.64305 h 19.93839 z"
           style="fill:#97a1ba;fill-opacity:1;stroke:none;stroke-width:0.26458332px;stroke-linecap:butt;stroke-linejoin:miter;stroke-opacity:1" />
        <path
           inkscape:connector-curvature="0"
           transform="scale(0.26458333)"
           id="path4584"
           d="m 625.53711,297.69141 c 0,0 -6.56682,3.78811 -8.08203,12.62695 -1.51525,8.83883 9.34445,117.93604 -12.87891,144.70508 -22.22336,26.76903 -49.49674,36.61754 -59.3457,28.03125 -9.849,-8.5863 -18.43631,-31.56818 -18.94141,-33.33594 -0.50506,-1.7678 2.77735,3.2832 2.77735,3.2832 0,0 -0.75647,-7.57657 -5.55469,-11.61718 -4.79822,-4.04062 -45.20392,-16.16134 -53.28516,-18.18165 -8.08119,-2.0203 -25.00138,-1.76827 -27.77929,0.25196 -2.77792,2.02031 -3.53634,7.82931 -5.55665,7.32422 -2.0203,-0.50506 -5.80861,-5.05036 -8.33398,-6.06055 -2.5254,-1.01012 -41.41624,13.88829 -44.69922,19.94922 -3.28301,6.06092 -4.29297,11.36523 -4.29297,11.36523 0,0 2.5248,-4.04043 2.77735,-1.76758 0.25247,2.27286 -2.52539,9.34376 -2.52539,9.34376 0,0 0.75857,-2.27338 1.26367,0.25195 0.50506,2.52537 -1.01092,5.80938 -0.50586,8.83984 0.50509,3.03046 1.51562,3.53516 1.51562,3.53516 0,0 1.26249,-2.52537 1.76758,0 0.50506,2.5254 1.51636,16.16253 -8.08008,15.15234 -9.59645,-1.01015 -28.03224,-38.386 -31.82031,-50.50781 -3.78807,-12.12181 -4.29297,-14.90039 -4.29297,-14.90039 0,0 5.05003,28.7889 9.59571,40.6582 4.54569,11.86931 7.07226,20.96113 7.07226,24.24414 0,3.28298 -0.50586,4.29297 -0.50586,4.29297 0,0 1.76875,-4.03963 3.78906,-1.26172 2.0203,2.77792 6.56545,16.16175 10.35352,19.69727 l 3.78711,3.53515 c 0,0 0.25372,-3.28262 2.02148,-1.00976 1.76776,2.27282 6.06035,11.36368 10.35352,15.4043 4.29313,4.04061 9.34472,6.81858 10.60742,10.10156 1.26267,3.28301 0,5.05078 0,5.05078 0,0 2.01917,-1.5156 5.55469,1.00976 3.53552,2.52537 7.57617,7.57618 7.57617,7.57618 0,0 1.76777,-3.53514 5.05078,-1.00977 3.28298,2.52541 20.70863,20.7096 36.8711,22.98242 16.16243,2.27286 12.12109,4.03907 12.12109,4.03907 0,0 7.32442,-3.28282 15.6582,-4.29297 8.33375,-1.01016 34.59749,-4.54592 41.41602,-8.33399 6.81853,-3.78807 9.09179,-6.06054 9.09179,-6.06054 0,0 -2e-4,3.2834 -0.75781,4.04101 -0.35077,0.35079 -0.69512,0.63998 -0.9707,0.85742 1.30036,-0.95849 6.23161,-4.66953 9.30469,-8.18164 3.53556,-4.04061 9.59627,-6.81859 14.39453,-10.10156 4.79822,-3.28301 19.95039,-19.19336 21.9707,-19.19336 2.02031,0 2.01953,1.01172 2.01953,1.01172 0,0 1.0102,-4.54532 5.05078,-8.58594 4.04062,-4.04062 44.44767,-45.70963 48.48828,-63.13476 4.04062,-17.42514 5.30274,-25.75977 5.30274,-25.75977 0,0 0.50586,2.27266 0.50586,4.29297 0,2.02031 -0.75781,4.29297 -0.75781,4.29297 0,0 4.04025,-3.28343 3.53515,-14.14258 -0.50506,-10.85915 -6.06172,-31.56629 -8.08203,-56.0625 -2.02031,-24.49619 -6.06013,-65.6598 -4.54492,-74.24609 z m -97.1875,269.81054 c -0.19568,0.14424 -0.54492,0.4043 -0.54492,0.4043 0,0 0.2253,-0.15211 0.54492,-0.4043 z M 494.66797,450.11133 c 0.2571,0.0129 0.52839,0.0501 0.8125,0.11328 4.54567,1.01015 5.05078,5.05078 5.05078,5.05078 0,0 1.00996,-2.27286 4.29297,0 3.28297,2.27282 10.85857,6.3139 10.35351,19.19336 -0.50509,12.87946 -5.80862,37.37443 -13.38476,40.15234 -7.57618,2.77792 -15.90995,1.8e-4 -15.15235,-6.81836 0.75761,-6.81853 5.8086,-6.3125 5.8086,-6.3125 0,0 -3.78768,-3.53532 -1.00977,-4.29296 2.77792,-0.75761 3.78711,0.75781 3.78711,0.75781 0,0 -0.75604,-4.54631 1.01172,-7.32422 1.7678,-2.77792 1.7674,-1.51469 3.53516,-0.25195 1.76776,1.2627 2.52539,0 2.52539,0 0,0 -2.52616,-0.50587 -3.03125,-5.55664 -0.50506,-5.05074 -2.77735,-11.11133 -2.77735,-11.11133 0,0 -7.32404,6.56604 -14.14257,10.10156 -6.81854,3.53556 -16.66797,2.01953 -16.66797,2.01953 0,0 0.25325,2.7793 -2.01953,2.7793 -2.27282,0 -3.28321,-1.26367 -3.28321,-1.26367 0,0 -3.53538,2.01953 -6.81836,2.01953 -3.28301,0 -5.30313,-0.75586 -9.34375,-0.75586 -4.04061,0 -9.85025,3.02945 -14.64843,-1.26367 0,0 -1.26154,4.29355 -3.0293,6.5664 l -1.76758,2.27149 c 0,0 5.05019,-2.52422 5.30274,-0.50391 0.25247,2.02031 -0.50586,7.57617 -0.50586,7.57617 0,0 3.03106,-2.02069 4.79882,1.00977 1.7678,3.03046 1.00977,4.79883 1.00977,4.79883 0,0 4.79862,-0.25344 4.04102,3.78711 -0.75761,4.04061 -0.25212,9.34491 -8.58594,6.31445 -8.33375,-3.03046 -18.4348,-7.32409 -22.98047,-19.19336 -4.54568,-11.8693 -2.27344,-32.32422 -2.27344,-32.32422 0,0 0.50492,4.5453 1.76758,6.06055 1.2627,1.51521 2.27344,1.51562 2.27344,1.51562 0,0 -0.50469,-7.57599 1.51562,-9.34375 2.02031,-1.76776 6.31211,-2.77888 7.32227,-1.26367 1.01015,1.51525 1.51562,2.77734 1.51562,2.77734 0,0 -0.2519,-4.03943 4.79883,-5.55468 5.05074,-1.51522 7.82813,-0.25391 7.82813,-0.25391 0,0 1.76836,-3.0287 4.79882,-3.28125 3.03047,-0.25247 7.57618,2.01953 7.57618,2.01953 0,0 -1.01058,-2.27284 1.00976,-2.52539 2.02027,-0.25247 10.6072,-1.76724 12.375,-0.25195 1.76776,1.51525 1.76758,3.2832 1.76758,3.2832 0,0 2.02015,-3.28363 4.29297,-2.27344 2.27286,1.01012 2.27344,1.76758 2.27344,1.76758 0,0 1.00999,-4.29317 4.29297,-5.05078 3.28301,-0.75761 3.2832,2.01953 3.2832,2.01953 0,0 -0.25424,-1.26153 3.28125,-3.0293 3.53552,-1.76776 5.30469,0.75782 5.30469,0.75782 0,0 -0.25364,-4.54647 3.02929,-3.03125 3.28301,1.51525 4.04102,3.03125 4.04102,3.03125 0,0 0.88764,-5.10633 4.74414,-4.91211 z"
           style="fill:#a16f49;fill-opacity:1;stroke:none;stroke-width:0.99999994px;stroke-linecap:butt;stroke-linejoin:miter;stroke-opacity:1" />
        <path
           inkscape:connector-curvature="0"
           id="path4615"
           d="m 93.410698,89.32134 c -0.133634,-1.269532 1.804069,-3.34087 5.679479,-3.073601 3.875403,0.267271 5.479023,1.002263 5.479023,1.5368 0,0.534541 -4.40994,2.472243 -6.34765,2.472243 -1.937705,0 -3.608139,-0.267269 -4.810852,-0.935442 z"
           style="fill:#e0d9d4;fill-opacity:1;stroke:none;stroke-width:0.26458332px;stroke-linecap:butt;stroke-linejoin:miter;stroke-opacity:1" />
        <path
           inkscape:connector-curvature="0"
           id="circle4606"
           transform="scale(0.26458333)"
           d="m 371.85352,325.88672 c -2.73553,0.01 -5.16493,0.35155 -7.3125,0.91016 a 11.616754,11.616754 0 0 0 -0.63282,3.74414 11.616754,11.616754 0 0 0 6.83985,10.58007 c 0.16271,0.001 0.31869,0.008 0.48242,0.008 3.34269,0 8.62615,-1.53012 13.38867,-3.38086 a 11.616754,11.616754 0 0 0 2.52148,-7.20703 11.616754,11.616754 0 0 0 -0.39453,-2.97852 c -3.12068,-0.67094 -7.14855,-1.23532 -12.23242,-1.58594 -0.91545,-0.0631 -1.80204,-0.0929 -2.66015,-0.0898 z"
           style="opacity:1;fill:#3e1e1e;fill-opacity:1;stroke:none;stroke-width:2.55958009;stroke-miterlimit:4;stroke-dasharray:none;stroke-opacity:1" />
        <path
           inkscape:connector-curvature="0"
           id="path4592"
           d="m 116.12861,110.7029 c 0,0 1.80407,-2.67269 3.94222,-3.40768 2.13816,-0.735 3.54132,-0.40091 3.47451,0.26726 -0.0668,0.66818 -2.13816,1.1359 -3.40769,0.93545 -1.26953,-0.20045 -1.60362,-0.80181 -4.00904,2.20497 z"
           style="fill:#342418;fill-opacity:1;stroke:none;stroke-width:0.26458332px;stroke-linecap:butt;stroke-linejoin:miter;stroke-opacity:1" />
        <path
           inkscape:connector-curvature="0"
           id="path4594"
           d="m 113.79,111.37107 c 0,0 -1.9377,0.33409 -2.93996,-0.13363 -1.00226,-0.46772 -3.34087,-2.6727 -3.47451,-1.26953 -0.13363,1.40316 2.20497,0.73499 2.73951,1.06908 0.53454,0.33408 2.53907,0.73499 3.67496,0.33408 z"
           style="fill:#342418;fill-opacity:1;stroke:none;stroke-width:0.26458332px;stroke-linecap:butt;stroke-linejoin:miter;stroke-opacity:1" />
        <path
           inkscape:connector-curvature="0"
           id="circle4604"
           transform="scale(0.26458333)"
           d="m 505.03711,307.31641 c -4.1805,0.0262 -8.4518,0.44519 -12.08203,1.23437 -0.50658,0.11013 -0.99655,0.24687 -1.48828,0.38086 a 11.616754,11.616754 0 0 0 -0.78516,4.16406 11.616754,11.616754 0 0 0 7.43359,10.82422 c 2.22575,-0.18879 7.34552,-1.1609 12.44532,-2.67187 a 11.616754,11.616754 0 0 0 3.35547,-8.15235 11.616754,11.616754 0 0 0 -1.31446,-5.35351 c -2.36861,-0.29812 -4.94408,-0.44221 -7.56445,-0.42578 z"
           style="opacity:1;fill:#3e1e1e;fill-opacity:1;stroke:none;stroke-width:2.55958009;stroke-miterlimit:4;stroke-dasharray:none;stroke-opacity:1" />
        <circle
           r="1.2027128"
           cy="82.840057"
           cx="132.89977"
           id="path4600"
           style="opacity:1;fill:#0c0c0c;fill-opacity:1;stroke:none;stroke-width:0.26499999;stroke-miterlimit:4;stroke-dasharray:none;stroke-opacity:1" />
        <circle
           r="0.60135639"
           cy="82.505974"
           cx="131.49661"
           id="path4596"
           style="opacity:1;fill:#ffffff;fill-opacity:1;stroke:none;stroke-width:0.26499999;stroke-miterlimit:4;stroke-dasharray:none;stroke-opacity:1" />
        <circle
           style="opacity:1;fill:#0c0c0c;fill-opacity:1;stroke:none;stroke-width:0.26499999;stroke-miterlimit:4;stroke-dasharray:none;stroke-opacity:1"
           id="circle4602"
           cx="99.357437"
           cy="87.316818"
           r="1.2027128" />
        <circle
           style="opacity:1;fill:#ffffff;fill-opacity:1;stroke:none;stroke-width:0.26499999;stroke-miterlimit:4;stroke-dasharray:none;stroke-opacity:1"
           id="circle4598"
           cx="97.954285"
           cy="86.849106"
           r="0.60135639" />
        <path
           inkscape:connector-curvature="0"
           id="path4609"
           d="m 132.09796,120.12415 c -1.80407,0.13364 -5.0113,0.66818 -6.61492,1.20272 -1.60361,0.53453 -5.27857,1.53679 -7.28309,1.73725 -2.00452,0.20045 -6.41447,0 -7.684,-0.13364 -1.26953,-0.13363 4.07586,1.5368 7.14946,1.00226 3.0736,-0.53454 9.08716,-2.40542 10.28987,-2.53906 1.20272,-0.13363 4.74404,0 4.14268,-1.26953 z"
           style="fill:#6d3e39;fill-opacity:1;stroke:none;stroke-width:0.26458332px;stroke-linecap:butt;stroke-linejoin:miter;stroke-opacity:1" />
        <path
           inkscape:connector-curvature="0"
           id="path4619"
           d="m 125.29911,83.816218 c -0.18899,-1.133927 0.85044,-4.063243 5.14992,-4.677455 4.29948,-0.614212 6.52009,1.086681 6.23661,1.559153 -0.28348,0.472469 -1.55915,0.283482 -3.49628,0.236236 -1.93713,-0.04725 -6.00037,-0.18899 -7.89025,2.882066 z"
           style="fill:#e2bfa6;fill-opacity:1;stroke:none;stroke-width:0.26458332px;stroke-linecap:butt;stroke-linejoin:miter;stroke-opacity:1" />
        <path
           inkscape:connector-curvature="0"
           id="path4621"
           d="m 129.97656,77.532364 c -0.7087,-0.472469 -0.66146,-2.220608 1.79539,-2.409597 2.45684,-0.18899 4.34673,-0.09449 4.25223,0.755951 -0.0945,0.850448 0.75595,1.842635 0.28348,1.984375 -0.47247,0.141743 -3.30729,-1.133927 -6.3311,-0.330729 z"
           style="fill:#e2bfa6;fill-opacity:1;stroke:none;stroke-width:0.26458332px;stroke-linecap:butt;stroke-linejoin:miter;stroke-opacity:1" />
        <path
           inkscape:connector-curvature="0"
           id="path4623"
           d="m 135.37201,25.911645 c -0.8018,-0.668174 -4.94448,-2.271791 -10.28987,-1.469983 -5.34539,0.801809 -15.7689,3.875409 -21.64883,8.819894 -5.879933,4.944486 -9.888977,7.617182 -11.225324,10.022607 -1.336347,2.405425 -7.216277,17.639789 -7.082641,21.916102 0.133633,4.276312 1.336347,8.285355 1.46998,10.557147 0.133635,2.271789 -0.133633,5.078119 0.801809,4.677217 0.935445,-0.400905 14.298916,1.46998 16.837976,2.00452 2.53906,0.53454 2.40543,-0.801809 2.2718,-3.207234 -0.13364,-2.405425 0.29499,-5.337572 0.4131,-5.195829 0.11812,0.14174 -0.21261,4.535712 0.0236,6.590958 0.23624,2.055247 0.49871,3.014819 1.30052,5.754331 0.80181,2.739511 1.32169,11.703444 0.89647,13.876805 -0.42523,2.17337 -1.74814,6.23661 -1.13393,7.55953 0.61421,1.32291 2.22061,3.40178 2.92931,3.07105 0.70871,-0.33073 -0.0945,-2.03162 2.07887,-2.83482 2.17336,-0.8032 3.26005,0.0473 2.92932,-1.32291 -0.33073,-1.37017 -2.69308,-4.86645 -2.88207,-8.079246 -0.18899,-3.212799 -0.42522,-5.811383 0.33073,-7.417782 0.75595,-1.606399 1.03943,-3.118305 0.8032,-4.913691 -0.23624,-1.795388 0.56279,-3.212988 -0.20561,-4.649562 -0.7684,-1.436574 -2.7061,-4.57699 -3.14041,-6.614919 -0.43432,-2.037932 -0.56795,-2.639288 -0.40091,-2.472246 0.16705,0.167045 0.93545,4.176088 2.57247,6.247426 1.63703,2.071339 4.10927,1.637025 5.7463,0.634765 1.63702,-1.00226 8.58603,-5.646068 10.65737,-6.046973 2.07134,-0.400904 6.88219,0.668174 6.34765,-0.334086 -0.53454,-1.002261 3.60814,-9.220798 0.80181,-11.759859 -2.80633,-2.539061 -10.28988,-8.819896 -11.49259,-14.566188 -1.20271,-5.746295 8.41899,-10.958052 10.82442,-14.432555 2.40542,-3.474506 -0.53454,-6.414469 -0.53454,-6.414469 z"
           style="fill:#e2bfa6;fill-opacity:1;stroke:none;stroke-width:0.26458332px;stroke-linecap:butt;stroke-linejoin:miter;stroke-opacity:1" />
        <path
           inkscape:connector-curvature="0"
           id="path4590"
           d="m 106.87277,84.28869 c 0,-0.283483 0.47247,-1.228424 0.23623,-1.842635 -0.23623,-0.614212 -0.47247,-0.614212 -0.47247,-0.614212 0,0 0.37798,0.661458 -0.33073,0.661458 -0.7087,0 -5.85863,-1.606399 -8.362721,-1.842632 -2.504091,-0.236236 -7.087053,-0.992187 -8.220983,-0.661458 -1.133927,0.330729 -1.55915,0.803198 -1.55915,0.803198 0,0 0.992188,-0.472469 2.69308,-0.188987 1.700893,0.28348 5.055431,1.748139 6.85082,1.795386 1.795385,0.04725 3.874254,0.09449 5.102674,0.283483 1.22843,0.188986 3.63802,1.133927 4.06325,1.606399 z"
           style="fill:#885f40;fill-opacity:1;stroke:none;stroke-width:0.26458332px;stroke-linecap:butt;stroke-linejoin:miter;stroke-opacity:1" />
        <path
           inkscape:connector-curvature="0"
           id="path4588"
           d="m 143.91443,75.21726 c 0,0 -3.26004,0.236236 -4.86644,0 -1.6064,-0.236233 -7.1343,-1.086681 -9.4494,0.188989 -2.31511,1.27567 -9.6384,6.094865 -11.33929,6.189361 -1.70089,0.09449 -2.12612,-0.661458 -2.12612,-0.661458 0,0 0.99219,0.04725 1.32292,-0.141743 0.33073,-0.188987 -0.47247,-0.188987 -0.47247,-0.188987 0,0 2.26786,-0.614211 4.15774,-1.937128 1.88988,-1.322917 6.89806,-5.575149 8.50446,-5.953125 1.6064,-0.377976 3.49628,-0.472472 3.49628,-0.472472 0,0 -0.89769,0.377976 -0.47247,0.377976 0.42523,0 2.12612,-0.708705 3.73252,-0.472469 1.60639,0.236236 6.47284,2.834823 7.51227,3.071056 z"
           style="fill:#885f40;fill-opacity:1;stroke:none;stroke-width:0.26458332px;stroke-linecap:butt;stroke-linejoin:miter;stroke-opacity:1" />
        <path
           inkscape:connector-curvature="0"
           id="path4650"
           d="m 168.95536,81.359374 c 0.66145,-1.984375 5.29166,-8.220982 8.22098,-5.291667 2.92931,2.929316 1.32291,8.315476 0.85044,10.205358 -0.47247,1.889879 -0.18898,5.764135 -0.66146,7.087052 -0.47246,1.322917 -2.64583,3.96875 -3.0238,3.118305 -0.37798,-0.850447 2.74032,-1.795388 2.45684,-6.142114 -0.28348,-4.346726 1.6064,-10.866816 -0.56696,-11.811757 -2.17337,-0.94494 -5.19718,0.472472 -6.04762,1.417413 -0.85045,0.944938 -0.28348,1.606397 -1.22842,1.41741 z"
           style="fill:#a47a58;fill-opacity:1;stroke:none;stroke-width:0.26458332px;stroke-linecap:butt;stroke-linejoin:miter;stroke-opacity:1" />
        <path
           inkscape:connector-curvature="0"
           id="path4652"
           d="m 168.24665,85.989582 c -0.28348,-0.708705 -0.28348,-1.559152 1.5119,-1.181176 1.79539,0.377975 4.86645,7.512277 4.53572,8.126489 -0.33073,0.614211 -1.08668,0.755951 -2.36235,1.748139 -1.27567,0.992187 -4.06325,3.260045 -3.73252,1.889881 0.33073,-1.370163 0.56697,-2.55134 2.07887,-2.929315 1.51191,-0.377976 2.83482,-0.425223 2.55134,-2.267858 -0.28348,-1.842632 -2.97656,-5.858631 -4.58296,-5.38616 z"
           style="fill:#a47a58;fill-opacity:1;stroke:none;stroke-width:0.26458332px;stroke-linecap:butt;stroke-linejoin:miter;stroke-opacity:1" />
        <path
           id="path4664"
           transform="scale(0.26458333)"
           d="m 370.9043,565.02734 c -3.26899,14.64848 0.57123,36.42526 3.38086,37.83008 2.85715,1.42859 5.71402,-11.42803 9.64257,-11.78515 1.38538,-0.12596 4.69648,2.61846 8.64844,6.6582 -3.36198,-5.85389 -12.13212,-20.62954 -21.67187,-32.70313 z"
           style="fill:#7d89a9;fill-opacity:1;stroke:none;stroke-width:0.99999994px;stroke-linecap:butt;stroke-linejoin:miter;stroke-opacity:1"
           inkscape:connector-curvature="0" />
        <path
           inkscape:connector-curvature="0"
           id="path4681"
           d="m 51.40476,264.58333 c 0,0 -2.267855,-10.96131 -3.023809,-24.19048 -0.755952,-13.22916 -0.09449,-15.30803 -1.795386,-19.46577 -1.700892,-4.15774 -9.543899,-35.24628 -11.43378,-40.34896 -1.88988,-5.10267 -3.613981,-10.67502 -4.115113,-10.50797 -0.501128,0.16704 3.307461,8.21853 4.075862,11.1585 0.7684,2.93996 5.211757,20.3793 6.013563,22.48405 0.801809,2.10474 3.808593,13.89801 4.643808,16.03617 0.835218,2.13815 1.80407,4.17608 1.80407,6.84878 0,2.67269 0.7684,19.17659 0.935444,20.81361 0.167042,1.63703 2.338608,17.17207 2.338608,17.17207 z"
           style="fill:#6a5d46;fill-opacity:1;stroke:none;stroke-width:0.26458332px;stroke-linecap:butt;stroke-linejoin:miter;stroke-opacity:1" />
      </g>
      <g
         style="display:inline"
         inkscape:label="Clothing"
         id="layer3-3">
        <path
           inkscape:connector-curvature="0"
           id="path4688"
           d="m 173.49107,118.68452 c 4.91369,1.13393 17.95387,9.44941 23.24554,12.09524 5.29166,2.64583 19.48649,4.37958 29.30351,7.67044 9.81702,3.29087 35.80288,12.3623 39.11019,14.25218 3.30729,1.88988 10.48882,25.13542 12.94566,34.20684 2.45684,9.07143 7.46503,59.15328 7.37055,66.52381 -0.0945,7.37054 0.18899,11.1503 0.18899,11.1503 H 154.68675 c 0,0 4.15774,-19.93824 8.59896,-35.34077 4.44122,-15.40253 10.20536,-110.55804 10.20536,-110.55804 z"
           style="fill:#7e6e53;fill-opacity:1;stroke:none;stroke-width:0.26458332px;stroke-linecap:butt;stroke-linejoin:miter;stroke-opacity:1" />
        <path
           inkscape:connector-curvature="0"
           id="path4690"
           d="m 176.13062,264.58333 c 0,0 26.45968,-47.03944 31.5378,-62.2738 5.07812,-15.23436 14.43256,-40.42452 14.36574,-41.49359 -0.0668,-1.06908 -15.83572,-8.35217 -15.50163,-9.2208 0.33408,-0.86863 5.26101,-5.55652 5.63728,-7.32184 0.37628,-1.76533 -14.79126,-12.99064 -17.53078,-14.92835 -2.73951,-1.9377 -22.38382,-12.09395 -22.38382,-12.09395 l -17.56846,147.33232 z"
           style="fill:#75674d;fill-opacity:1;stroke:none;stroke-width:0.26458332px;stroke-linecap:butt;stroke-linejoin:miter;stroke-opacity:1" />
        <path
           sodipodi:nodetypes="csssscssscc"
           inkscape:connector-curvature="0"
           id="path4657"
           d="m 118.13313,264.58333 c 0,0 8.28535,-43.56493 13.36348,-55.85933 5.07812,-12.2944 18.97613,-42.22858 21.9161,-43.03039 2.93996,-0.80181 6.41446,-2.13816 8.55262,-8.28536 2.13816,-6.1472 9.35443,-28.86511 9.35443,-35.01231 0,-6.1472 0.26727,-8.28535 0.26727,-8.28535 0,0 6.94901,8.28535 7.75082,12.02713 0.80181,3.74177 2.2595,17.00519 1.19043,32.50682 -0.52687,7.63972 -5.21286,34.23604 -10.98068,58.48174 -5.93558,24.9509 -12.94991,47.45705 -12.94991,47.45705 z"
           style="fill:#97a1ba;fill-opacity:1;stroke:none;stroke-width:0.26458332px;stroke-linecap:butt;stroke-linejoin:miter;stroke-opacity:1" />
        <path
           sodipodi:nodetypes="ccccccsccscsscsccc"
           inkscape:connector-curvature="0"
           id="path4686"
           d="m 180.22111,158.2451 c -0.18899,-2.55134 -0.68242,-5.9207 -4.08421,-8.47204 -3.40178,-2.55134 -3.87425,-2.17336 -4.15774,-1.5119 -0.28348,0.66146 -2.45684,11.90625 -3.96875,14.17411 -1.5119,2.26785 -6.42559,4.6302 -9.73288,4.91369 -3.30729,0.28348 -4.53572,-0.75596 -5.57515,0.28348 -1.03943,1.03943 -15.875,29.57663 -17.95387,34.20684 -2.07887,4.63021 -6.80357,19.74926 -7.37054,24.47396 -0.56696,4.7247 -5.19717,16.44197 -2.36235,15.40253 2.83483,-1.03943 12.37873,-8.78795 15.59152,-11.71726 3.2128,-2.92932 2.92932,-19.27679 4.53572,-24.09598 1.60639,-4.8192 2.74032,-8.88244 3.87425,-7.65402 1.13393,1.22842 -2.26786,7.74851 0.18899,6.14211 2.45685,-1.6064 4.63021,-5.76413 8.50446,-13.79613 3.87426,-8.03199 5.95313,-18.61533 7.74851,-17.19792 1.79539,1.41742 -3.96875,22.2061 -2.92931,22.01712 1.03944,-0.18899 12.02367,-9.51623 13.63007,-13.48498 1.60639,-3.96875 4.06128,-23.68361 4.06128,-23.68361 z"
           style="fill:#7d89a9;fill-opacity:1;stroke:none;stroke-width:0.26458332px;stroke-linecap:butt;stroke-linejoin:miter;stroke-opacity:1" />
        <path
           inkscape:connector-curvature="0"
           id="path4692"
           d="m 236.26626,264.58333 c 0,0 3.20723,-31.27053 6.1472,-43.56493 2.93996,-12.2944 16.83096,-48.8975 18.01213,-53.24422 1.18118,-4.34673 4.58295,-14.64658 5.00819,-14.2686 0.42521,0.37797 -4.48847,15.16629 -5.48066,17.85937 -0.99219,2.69308 -6.14211,16.15849 -6.85082,18.42634 -0.7087,2.26786 -7.1343,25.37165 -7.55952,27.45052 -0.42522,2.07887 -3.73252,16.48921 -4.06324,20.45796 -0.33073,3.96875 -1.84264,18.42634 -1.88988,20.83594 -0.0473,2.4096 0,6.04762 0,6.04762 z"
           style="fill:#6a5d46;fill-opacity:1;stroke:none;stroke-width:0.26458332px;stroke-linecap:butt;stroke-linejoin:miter;stroke-opacity:1" />
        <path
           inkscape:connector-curvature="0"
           id="path4694"
           d="m 191.63393,238.36123 c 0,0 16.20573,0.0472 20.69419,-0.47247 4.48847,-0.51971 10.06362,-1.98437 12.85119,-3.54352 2.78758,-1.55916 7.84301,-5.24442 7.18155,-5.05544 -0.66146,0.18899 -5.71689,2.45685 -7.60677,3.68527 -1.88988,1.22842 -8.97693,3.73252 -13.5599,4.25223 -4.58296,0.51972 -21.21391,0.56697 -19.56026,1.13393 z"
           style="fill:#6a5d46;fill-opacity:1;stroke:none;stroke-width:0.26458332px;stroke-linecap:butt;stroke-linejoin:miter;stroke-opacity:1" />
      </g>
    </g>
  </g>
  <g
     inkscape:groupmode="layer"
     id="layer2"
     inkscape:label="Orange Banner">
    <rect
       style="opacity:1;fill:#de3d2d;fill-opacity:1;stroke:none;stroke-width:11.03082752;stroke-miterlimit:4;stroke-dasharray:none;stroke-opacity:1"
       id="rect4144"
       width="338.66669"
       height="43.65625"
       x="0"
       y="146.84375" />
  </g>
  <g
     inkscape:label="Blue Banner"
     id="g4203"
     inkscape:groupmode="layer"
     style="display:none">
    <rect
       y="146.84375"
       x="0"
       height="43.65625"
       width="338.66669"
       id="rect4205"
       style="opacity:1;fill:#407d93;fill-opacity:1;stroke:none;stroke-width:11.03082752;stroke-miterlimit:4;stroke-dasharray:none;stroke-opacity:1" />
  </g>
  <g
     inkscape:groupmode="layer"
     id="layer3"
     inkscape:label="Discover"
     style="display:inline">
    <text
       xml:space="preserve"
       style="font-style:normal;font-variant:normal;font-weight:normal;font-stretch:normal;font-size:13.37952137px;line-height:0%;font-family:Museo;-inkscape-font-specification:'Museo, Normal';text-align:start;letter-spacing:0px;word-spacing:0px;writing-mode:lr-tb;text-anchor:start;fill:#ffffff;fill-opacity:1;stroke:none;stroke-width:0.63420856px;stroke-linecap:butt;stroke-linejoin:miter;stroke-opacity:1"
       x="175.71814"
       y="31.985586"
       id="text4147"><tspan
         sodipodi:role="line"
         id="tspan4164"
         x="175.71814"
         y="31.985586"
         style="font-size:25.36822891px;line-height:1.25;stroke-width:0.63420856px">DISCOVER:</tspan></text>
  </g>
  <g
     inkscape:label="Interview"
     id="g4209"
     inkscape:groupmode="layer"
     style="display:none">
    <text
       id="text4211"
       y="40.767208"
       x="173.85484"
       style="font-style:normal;font-variant:normal;font-weight:normal;font-stretch:normal;line-height:0%;font-family:Museo;-inkscape-font-specification:'Museo, Normal';text-align:start;letter-spacing:0px;word-spacing:0px;writing-mode:lr-tb;text-anchor:start;fill:#ffffff;fill-opacity:1;stroke:none;stroke-width:0.50668812px;stroke-linecap:butt;stroke-linejoin:miter;stroke-opacity:1"
       xml:space="preserve"><tspan
         id="tspan4213"
         sodipodi:role="line"
         x="173.85484"
         y="40.767208"
         style="font-size:20.26743698px;line-height:1.25">INTERVIEW:</tspan></text>
  </g>
  <g
     inkscape:groupmode="layer"
     id="layer4"
     inkscape:label="Artist Name">
    <text
       xml:space="preserve"
       style="font-style:normal;font-variant:normal;font-weight:600;font-stretch:normal;font-size:17.7959919px;line-height:0%;font-family:Museo;-inkscape-font-specification:'Museo, Semi-Bold';text-align:start;letter-spacing:0px;word-spacing:0px;writing-mode:lr-tb;text-anchor:start;fill:#ffffff;fill-opacity:1;stroke:none;stroke-width:1.35336757px;stroke-linecap:butt;stroke-linejoin:miter;stroke-opacity:1"
       x="175.72079"
       y="76.539658"
       id="text4158"><tspan
         sodipodi:role="line"
         x="175.72079"
         y="76.539658"
         style="font-style:normal;font-variant:normal;font-weight:600;font-stretch:normal;font-size:54.1351738px;line-height:100%;font-family:Museo;-inkscape-font-specification:'Museo, Semi-Bold';text-align:start;writing-mode:lr-tb;text-anchor:start;fill:#ffffff;fill-opacity:1;stroke-width:1.35336757px"
         id="tspan4569">Frank</tspan><tspan
         sodipodi:role="line"
         x="175.72079"
         y="130.67484"
         style="font-style:normal;font-variant:normal;font-weight:600;font-stretch:normal;font-size:54.1351738px;line-height:100%;font-family:Museo;-inkscape-font-specification:'Museo, Semi-Bold';text-align:start;writing-mode:lr-tb;text-anchor:start;fill:#ffffff;fill-opacity:1;stroke-width:1.35336757px"
         id="tspan4652">Pesci</tspan></text>
  </g>
  <g
     inkscape:groupmode="layer"
     id="layer6"
     inkscape:label="WEIRD">
    <path
       style="opacity:1;fill:#ffffff;fill-opacity:1;stroke:none;stroke-width:17.2258606;stroke-miterlimit:4;stroke-dasharray:none;stroke-opacity:1"
       d="M 245.3457 602.625 L 245.3457 672.625 L 495.3457 672.625 L 495.3457 602.625 L 245.3457 602.625 z M 254.20703 613.5 L 258.08398 613.5 C 261.48345 613.5 263.18217 614.17987 263.99805 617.44336 L 271.4082 648.31055 C 272.02011 650.89414 272.36133 653.41016 272.36133 653.41016 L 272.49609 653.41016 C 272.49609 653.41016 272.90446 650.96213 273.65234 648.31055 L 283.30664 613.63477 L 289.42578 613.63477 L 298.40039 648.31055 C 299.08028 650.96213 299.41992 653.41016 299.41992 653.41016 L 299.55664 653.41016 C 299.55664 653.41016 299.8295 650.89414 300.44141 648.31055 L 307.98828 617.44336 C 308.80415 614.17987 310.43452 613.5 313.83398 613.5 L 317.70898 613.5 L 317.70898 619.3457 L 316.68945 619.3457 C 315.46565 619.3457 314.71885 619.61799 314.37891 620.8418 L 303.83984 661.5 L 295.95312 661.5 L 287.79492 631.17773 C 286.97905 628.05022 286.43555 624.58203 286.43555 624.58203 L 286.29883 624.58203 C 286.29883 624.58203 285.61824 628.04985 284.73438 631.10938 L 276.0332 661.5 L 268.07812 661.5 L 257.53906 620.8418 C 257.19912 619.61799 256.45232 619.3457 255.22852 619.3457 L 254.20703 619.3457 L 254.20703 613.5 z M 326.5 613.5 L 354.7168 613.5 C 357.77632 613.5 359.06641 614.79204 359.06641 617.85156 L 359.06641 623.90234 L 352.88086 623.90234 L 352.88086 620.8418 C 352.88086 619.82196 352.33662 619.3457 351.38477 619.3457 L 337.71875 619.3457 L 337.71875 634.37305 L 354.51172 634.37305 L 354.51172 640.21875 L 337.71875 640.21875 L 337.71875 654.15625 C 337.71875 655.1081 338.26299 655.65234 339.21484 655.65234 L 353.2207 655.65234 C 354.17255 655.65234 354.7168 655.1081 354.7168 654.15625 L 354.7168 651.09766 L 360.9707 651.09766 L 360.9707 657.14844 C 360.9707 660.20796 359.67866 661.5 356.61914 661.5 L 335.27148 661.5 C 332.21196 661.5 330.91992 660.20796 330.91992 657.14844 L 330.91992 619.3457 L 326.5 619.3457 L 326.5 613.5 z M 370.41406 613.5 L 386.25586 613.5 L 386.25586 619.3457 L 381.56445 619.3457 L 381.56445 655.65234 L 386.25586 655.65234 L 386.25586 661.5 L 370.41406 661.5 L 370.41406 655.65234 L 375.10547 655.65234 L 375.10547 619.3457 L 370.41406 619.3457 L 370.41406 613.5 z M 396.6543 613.5 L 417.5957 613.5 C 426.02638 613.5 431.94141 618.80359 431.94141 627.57422 C 431.94141 635.59696 426.70611 639.53923 423.30664 640.28711 L 423.30664 640.42383 C 423.30664 640.42383 424.52983 641.03585 425.3457 642.59961 L 431.125 654.08984 C 431.80489 655.51762 432.89365 655.65234 434.52539 655.65234 L 435.4082 655.65234 L 435.4082 661.5 L 432.07812 661.5 C 428.33871 661.5 426.97782 661.02399 425.41406 657.89648 L 418.88672 644.97852 C 417.66291 642.73487 416.78049 642.39453 414.12891 642.39453 L 407.87305 642.39453 L 407.87305 661.5 L 401.07422 661.5 L 401.07422 619.3457 L 396.6543 619.3457 L 396.6543 613.5 z M 443.75 613.5 L 463.19531 613.5 C 477.81302 613.5 487.4668 622.27002 487.4668 637.43164 C 487.4668 652.66125 477.81302 661.5 463.19531 661.5 L 452.51953 661.5 C 449.46001 661.5 448.16992 660.20796 448.16992 657.14844 L 448.16992 619.3457 L 443.75 619.3457 L 443.75 613.5 z M 407.87305 619.3457 L 407.87305 636.54883 L 416.71094 636.54883 C 421.87813 636.54883 424.9375 633.21686 424.9375 627.8457 C 424.9375 622.47455 421.87887 619.3457 416.84766 619.3457 L 407.87305 619.3457 z M 454.96875 619.3457 L 454.96875 654.15625 C 454.96875 655.1081 455.51299 655.65234 456.46484 655.65234 L 462.71875 655.65234 C 473.39308 655.65234 480.39648 649.26179 480.39648 637.43164 C 480.39648 625.66949 473.32509 619.3457 462.71875 619.3457 L 454.96875 619.3457 z "
       transform="scale(0.26458334)"
       id="rect4172" />
  </g>
  <g
     inkscape:groupmode="layer"
     id="layer7"
     inkscape:label="MAKE">
    <text
       xml:space="preserve"
       style="font-style:normal;font-variant:normal;font-weight:normal;font-stretch:normal;line-height:0%;font-family:Museo;-inkscape-font-specification:'Museo, Normal';text-align:start;letter-spacing:0px;word-spacing:0px;writing-mode:lr-tb;text-anchor:start;fill:#ffffff;fill-opacity:1;stroke:none;stroke-width:0.26458335px;stroke-linecap:butt;stroke-linejoin:miter;stroke-opacity:1"
       x="10.690782"
       y="175.02188"
       id="text4175"><tspan
         sodipodi:role="line"
         id="tspan4177"
         x="10.690782"
         y="175.02188"
         style="font-style:normal;font-variant:normal;font-weight:normal;font-stretch:normal;font-size:17.99166679px;line-height:100%;font-family:Museo;-inkscape-font-specification:'Museo, Normal';text-align:start;letter-spacing:1.32291675px;writing-mode:lr-tb;text-anchor:start;fill:#ffffff;fill-opacity:1;stroke-width:0.26458335px">MAKE</tspan></text>
  </g>
  <g
     inkscape:groupmode="layer"
     id="layer8"
     inkscape:label="MUSIC">
    <text
       xml:space="preserve"
       style="font-style:normal;font-variant:normal;font-weight:normal;font-stretch:normal;line-height:0%;font-family:Museo;-inkscape-font-specification:'Museo, Normal';text-align:start;letter-spacing:0px;word-spacing:0px;writing-mode:lr-tb;text-anchor:start;fill:#ffffff;fill-opacity:1;stroke:none;stroke-width:0.26458335px;stroke-linecap:butt;stroke-linejoin:miter;stroke-opacity:1"
       x="134.21758"
       y="174.80598"
       id="text4180"><tspan
         sodipodi:role="line"
         id="tspan4182"
         x="134.21758"
         y="174.80598"
         style="font-style:normal;font-variant:normal;font-weight:normal;font-stretch:normal;font-size:17.99166679px;line-height:100%;font-family:Museo;-inkscape-font-specification:'Museo, Normal';text-align:start;writing-mode:lr-tb;text-anchor:start;fill:#ffffff;fill-opacity:1;stroke-width:0.26458335px">MUSIC</tspan></text>
  </g>
</svg>
