<?xml version="1.0" encoding="UTF-8" standalone="no"?>
<!-- Created with Inkscape (http://www.inkscape.org/) -->

<svg
   xmlns:dc="http://purl.org/dc/elements/1.1/"
   xmlns:cc="http://creativecommons.org/ns#"
   xmlns:rdf="http://www.w3.org/1999/02/22-rdf-syntax-ns#"
   xmlns:svg="http://www.w3.org/2000/svg"
   xmlns="http://www.w3.org/2000/svg"
   xmlns:sodipodi="http://sodipodi.sourceforge.net/DTD/sodipodi-0.dtd"
   xmlns:inkscape="http://www.inkscape.org/namespaces/inkscape"
   width="1280"
   height="720"
   viewBox="0 0 338.66666 190.50001"
   id="svg2"
   version="1.1"
   inkscape:version="0.91+devel r13925"
   sodipodi:docname="steve-ball-discover-thumbnail.svg"
   inkscape:export-filename="/Users/agarone/Documents/git/art/ostrich-von-nipple/discover/ostrich-von-nipple-video-thumbnail.png"
   inkscape:export-xdpi="96"
   inkscape:export-ydpi="96">
  <defs
     id="defs4">
    <linearGradient
       id="linearGradient5627">
      <stop
         style="stop-color:#f80000;stop-opacity:1"
         id="stop5629"
         offset="0" />
      <stop
         style="stop-color:#e69595;stop-opacity:1"
         id="stop5631"
         offset="1" />
    </linearGradient>
    <linearGradient
       id="linearGradient5619">
      <stop
         style="stop-color:#000000;stop-opacity:1"
         id="stop5621"
         offset="0" />
      <stop
         style="stop-color:#000000;stop-opacity:0"
         id="stop5623"
         offset="1" />
    </linearGradient>
    <linearGradient
       id="linearGradient4838">
      <stop
         style="stop-color:#606060;stop-opacity:1"
         id="stop4840"
         offset="0" />
      <stop
         style="stop-color:#ffffff;stop-opacity:1"
         id="stop4842"
         offset="1" />
    </linearGradient>
    <linearGradient
       id="linearGradient4776">
      <stop
         style="stop-color:#c9c9c9;stop-opacity:1"
         offset="0"
         id="stop4778" />
      <stop
         style="stop-color:#555555;stop-opacity:1"
         offset="1"
         id="stop4780" />
    </linearGradient>
    <linearGradient
       id="linearGradient4760">
      <stop
         style="stop-color:#000000;stop-opacity:1"
         offset="0"
         id="stop4762" />
      <stop
         style="stop-color:#555555;stop-opacity:1"
         id="stop4764"
         offset="0.52" />
      <stop
         style="stop-color:#000000;stop-opacity:1"
         offset="1"
         id="stop4766" />
    </linearGradient>
    <linearGradient
       id="linearGradient4744">
      <stop
         style="stop-color:#000000;stop-opacity:1"
         id="stop4746"
         offset="0" />
      <stop
         style="stop-color:#555555;stop-opacity:1"
         offset="0.65"
         id="stop4748" />
      <stop
         style="stop-color:#000000;stop-opacity:1"
         id="stop4750"
         offset="1" />
    </linearGradient>
    <linearGradient
       id="linearGradient4728">
      <stop
         style="stop-color:#000000;stop-opacity:1"
         offset="0"
         id="stop4730" />
      <stop
         style="stop-color:#555555;stop-opacity:1"
         id="stop4732"
         offset="0.72" />
      <stop
         style="stop-color:#000000;stop-opacity:1"
         offset="1"
         id="stop4734" />
    </linearGradient>
    <linearGradient
       id="linearGradient4708">
      <stop
         style="stop-color:#000000;stop-opacity:1"
         id="stop4710"
         offset="0" />
      <stop
         style="stop-color:#555555;stop-opacity:1"
         offset="0.5"
         id="stop4718" />
      <stop
         style="stop-color:#000000;stop-opacity:1"
         id="stop4712"
         offset="1" />
    </linearGradient>
    <linearGradient
       id="linearGradient4679">
      <stop
         style="stop-color:#000000;stop-opacity:1"
         id="stop4681"
         offset="0" />
      <stop
         style="stop-color:#555555;stop-opacity:1"
         id="stop4683"
         offset="1" />
    </linearGradient>
  </defs>
  <sodipodi:namedview
     id="base"
     pagecolor="#ffffff"
     bordercolor="#666666"
     borderopacity="1.0"
     inkscape:pageopacity="0.0"
     inkscape:pageshadow="2"
     inkscape:zoom="0.98994949"
     inkscape:cx="570.88499"
     inkscape:cy="317.56339"
     inkscape:document-units="px"
     inkscape:current-layer="layer4"
     showgrid="false"
     units="px"
     inkscape:window-width="1920"
     inkscape:window-height="1151"
     inkscape:window-x="0"
     inkscape:window-y="1"
     inkscape:window-maximized="1" />
  <metadata
     id="metadata7">
    <rdf:RDF>
      <cc:Work
         rdf:about="">
        <dc:format>image/svg+xml</dc:format>
        <dc:type
           rdf:resource="http://purl.org/dc/dcmitype/StillImage" />
        <dc:title />
      </cc:Work>
    </rdf:RDF>
  </metadata>
  <g
     inkscape:label="Gray BG"
     inkscape:groupmode="layer"
     id="layer1"
     transform="translate(0,-106.49999)">
    <rect
       style="opacity:1;fill:#596268;fill-opacity:1;stroke:none;stroke-width:16.0535984;stroke-miterlimit:4;stroke-dasharray:none;stroke-opacity:1"
       id="rect4141"
       width="338.66669"
       height="190.5"
       x="1.4210855e-14"
       y="106.49999" />
  </g>
  <g
     inkscape:groupmode="layer"
     id="layer5"
     inkscape:label="Residents">
    <g
       id="g4489"
       transform="matrix(0.56867539,0,0,0.56867539,4.3854035,-3.6182781)">
      <g
         style="display:none"
         transform="translate(0,-32.41665)"
         id="layer1-1"
         inkscape:label="BG">
        <rect
           y="32.416653"
           x="0"
           height="264.58334"
           width="264.58334"
           id="rect5606"
           style="opacity:1;fill:#ffffff;fill-opacity:1;stroke:none;stroke-width:11.60810661;stroke-miterlimit:4;stroke-dasharray:none;stroke-opacity:1" />
        <g
           transform="matrix(0.26458333,0,0,0.26458333,100.54104,137.6112)"
           id="g6506" />
      </g>
      <g
         style="display:inline;opacity:1"
         inkscape:label="Head"
         id="layer5-2">
        <path
           inkscape:connector-curvature="0"
           id="path6199"
           d="m 171.4122,101.48661 c 0,0 -0.75595,10.77232 -0.47247,12.5677 0.28348,1.79539 2.45684,8.69346 2.45684,8.69346 l -4.34672,14.83556 -35.81324,-9.07143 -7.84301,-16.15848 -0.37798,-7.65402 3.87426,-7.370533 z"
           style="fill:#715442;fill-opacity:1;fill-rule:evenodd;stroke:none;stroke-width:0.26458332px;stroke-linecap:butt;stroke-linejoin:miter;stroke-opacity:1" />
        <path
           inkscape:connector-curvature="0"
           id="path6201"
           d="m 152.4189,131.44122 c 0,0 1.5119,-4.7247 3.1183,-4.8192 1.6064,-0.0945 9.16592,-3.59077 9.07143,-4.06324 -0.0945,-0.47247 -7.55952,3.96875 -7.55952,2.55134 0,-1.41741 5.10267,-10.48884 5.10267,-10.48884 0,0 8.40997,-11.05581 8.40997,-9.82738 0,1.22842 -0.18898,8.88244 -0.18898,10.58333 0,1.70089 0.94494,5.85863 0.94494,7.46503 0,1.6064 -1.51191,5.66964 -4.06325,6.52009 -2.55134,0.85045 -14.83556,2.07887 -14.83556,2.07887 z"
           style="fill:#b08d77;fill-opacity:1;fill-rule:evenodd;stroke:none;stroke-width:0.26458332px;stroke-linecap:butt;stroke-linejoin:miter;stroke-opacity:1" />
        <path
           inkscape:connector-curvature="0"
           id="path6129"
           d="m 169.8058,16.630952 c 3.77976,0.755952 10.96131,1.039434 17.10342,14.552083 6.14212,13.512649 3.68527,26.458333 2.26786,33.072916 -1.41741,6.614583 -3.1183,11.339285 -2.36235,11.433781 0.75595,0.09449 1.51006,-3.306599 2.87982,-2.538199 1.36975,0.768401 2.20497,3.274052 1.46998,5.512433 -0.73499,2.238383 -6.61492,13.163026 -7.85104,14.332328 -1.23613,1.169305 -4.04246,4.443357 -4.94449,4.443357 -0.90204,0 -1.00226,-0.334087 -1.33635,-0.167042 -0.33409,0.167042 -1.57021,3.340871 -2.73951,5.078121 -1.16931,1.73725 -11.69304,16.00276 -14.69982,18.00728 -3.00679,2.00453 -8.71967,3.87541 -11.1251,3.60814 -2.40542,-0.26727 -11.49259,-2.67269 -12.86234,-4.67722 -1.36976,-2.00452 -7.91786,-11.49259 -8.58604,-19.911574 -0.66817,-8.418991 -1.97111,-13.096208 -1.30294,-18.241145 0.66818,-5.144939 0.40091,-3.942225 0.13364,-3.975634 -0.26727,-0.03341 -1.06908,0.367495 -1.43658,0.03341 -0.36749,-0.33409 -3.20723,-5.211757 -3.34087,-8.586036 -0.13363,-3.374276 0.30068,-11.325545 0.83522,-14.399144 0.53454,-3.073601 1.00226,-5.779703 2.97338,-5.245166 1.97111,0.534541 2.37201,2.104747 3.107,2.104747 0.73499,0 4.37654,-17.205475 7.21628,-20.078623 2.83974,-2.873147 12.90802,-21.4345312 34.60083,-14.358812 z"
           style="fill:#81604b;fill-opacity:1;fill-rule:evenodd;stroke:none;stroke-width:0.26458332px;stroke-linecap:butt;stroke-linejoin:miter;stroke-opacity:1" />
        <path
           inkscape:connector-curvature="0"
           id="path6131"
           d="m 144.4814,106.4003 c 0.0945,-0.94494 0.7087,-1.41742 2.92931,-1.13393 2.22061,0.28348 6.61459,1.32291 7.55953,2.22061 0.94494,0.89769 1.88988,2.97656 1.41741,3.44903 -0.47247,0.47247 -3.68527,-0.14174 -4.34673,-0.70871 -0.66146,-0.56696 -2.3151,-1.08668 -3.44903,-1.37016 -1.13393,-0.28348 -3.63802,-0.18899 -3.87426,-0.8032 -0.23623,-0.61421 -0.61421,-0.8032 -0.23623,-1.65364 z"
           style="fill:#c4aa9a;fill-opacity:1;fill-rule:evenodd;stroke:none;stroke-width:0.26458332px;stroke-linecap:butt;stroke-linejoin:miter;stroke-opacity:1" />
        <path
           inkscape:connector-curvature="0"
           id="path6133"
           d="m 140.79613,114.43229 c 0.14174,-0.56696 3.96875,-2.17336 5.71689,-1.51191 1.74814,0.66146 2.78757,2.97657 3.77976,2.97657 0.99219,0 1.98438,-0.75595 3.07106,-0.42523 1.08668,0.33073 2.07887,2.5041 1.84263,3.73252 -0.23623,1.22842 -3.63802,2.50409 -4.81919,2.12612 -1.18118,-0.37798 -1.6064,-2.88207 -2.78758,-3.26005 -1.18117,-0.37797 -1.18117,-2.64583 -1.93713,-2.88207 -0.75595,-0.23623 -4.7247,0.8032 -4.86644,-0.75595 z"
           style="fill:#c4aa9a;fill-opacity:1;fill-rule:evenodd;stroke:none;stroke-width:0.26458332px;stroke-linecap:butt;stroke-linejoin:miter;stroke-opacity:1" />
        <path
           inkscape:connector-curvature="0"
           id="path6135"
           d="m 148.11942,102.85677 c 0.28348,-0.42522 5.48065,-6.189361 6.14211,-6.52009 0.66146,-0.33073 1.79539,-1.133928 2.69308,-0.897695 0.89769,0.236236 1.65365,3.165552 2.4096,3.165552 0.75595,0 0.23624,-4.677455 1.22842,-4.677455 0.99219,0 4.63021,6.283858 4.53572,7.606768 -0.0945,1.32292 5.14992,-3.590771 8.22098,-7.559521 3.07106,-3.96875 5.66964,-7.134302 6.04762,-6.614583 0.37797,0.519718 -1.84264,8.031993 -4.25223,12.236979 -2.4096,4.204985 -8.78795,12.000745 -9.07143,11.670015 -0.28349,-0.33073 -0.0945,-8.07924 -0.61422,-8.07924 -0.51971,0 -0.33072,8.59896 -2.26785,8.83519 -1.93713,0.23624 -0.33073,-6.28385 -2.59859,-7.46503 -2.26785,-1.18117 -5.66964,-0.28348 -7.32329,-0.61421 -1.65364,-0.33073 -2.22061,-1.84263 -5.14992,-1.08668 z"
           style="fill:#c4aa9a;fill-opacity:1;fill-rule:evenodd;stroke:none;stroke-width:0.26458332px;stroke-linecap:butt;stroke-linejoin:miter;stroke-opacity:1" />
        <path
           inkscape:connector-curvature="0"
           id="path6137"
           d="m 135.7407,83.816218 c -0.18899,-1.086681 0.14174,-2.267857 1.84263,-2.267857 1.70089,0 3.9215,0.283482 3.9215,0.8032 0,0.519716 -5.24442,1.937129 -5.76413,1.464657 z"
           style="fill:#c4aa9a;fill-opacity:1;fill-rule:evenodd;stroke:none;stroke-width:0.26458332px;stroke-linecap:butt;stroke-linejoin:miter;stroke-opacity:1" />
        <path
           inkscape:connector-curvature="0"
           id="path6139"
           d="m 146.18229,92.22619 c 0,-1.13393 4.06324,-16.063989 4.96094,-16.063989 0.89769,0 3.1183,-0.472469 3.9215,0.472471 0.8032,0.944939 2.03162,6.66183 2.03162,7.654018 0,0.992187 0.61421,3.779761 0.33073,4.346726 -0.28348,0.566965 -0.99219,0.472469 -0.99219,1.322916 0,0.850445 0.66146,2.69308 0.23624,3.496278 -0.42522,0.803201 -0.56697,1.181177 -1.88988,1.181177 -1.32292,0 -1.88988,0.897694 -3.2128,0.755952 -1.32292,-0.14174 -2.92931,-2.315104 -3.77976,-2.409598 -0.85045,-0.09449 -1.6064,-0.188989 -1.6064,-0.755951 z"
           style="fill:#c4aa9a;fill-opacity:1;fill-rule:evenodd;stroke:none;stroke-width:0.26458332px;stroke-linecap:butt;stroke-linejoin:miter;stroke-opacity:1" />
        <path
           inkscape:connector-curvature="0"
           id="path6141"
           d="m 152.56064,77.012648 c 0.8032,-0.141742 2.22061,-0.0945 2.3151,0.425223 0.0945,0.519718 -3.35454,11.859003 -3.35454,12.945684 0,1.08668 -1.03943,0.803201 -1.03943,0 0,-0.803199 0.7087,-10.441591 2.07887,-13.370907 z"
           style="fill:#dccdc4;fill-opacity:1;fill-rule:evenodd;stroke:none;stroke-width:0.26458332px;stroke-linecap:butt;stroke-linejoin:miter;stroke-opacity:1" />
        <path
           sodipodi:nodetypes="csssssssscssssssssssscsscc"
           inkscape:connector-curvature="0"
           id="path6143"
           d="m 158.51376,85.56436 c 0,-0.944941 3.63802,-1.370166 7.65402,-1.700895 4.016,-0.330729 10.01637,-1.937126 10.77232,-3.071056 0.75595,-1.133927 1.22843,-3.543528 -0.42522,-5.291667 -1.65365,-1.748139 -6.18936,-1.322916 -8.7407,-1.937128 -2.55134,-0.614212 -4.96094,-5.102677 -5.95313,-5.338913 -0.99218,-0.236236 -3.1183,1.889881 -3.63802,1.559152 -0.51971,-0.330729 0.33073,-3.96875 0.0472,-3.96875 -0.28348,0 -1.37016,6.614584 -3.2128,5.669643 -1.84263,-0.944941 -0.28348,-9.024181 -0.51971,-9.118677 -0.23624,-0.09449 -2.55134,5.197173 -2.92932,5.055434 -0.37798,-0.141743 0.37798,-3.212799 -0.85045,-3.827011 -1.22842,-0.614211 -9.59114,-1.606399 -9.92187,-2.598586 -0.33073,-0.992188 -3.44903,-15.308035 -1.98438,-15.875 1.46466,-0.566962 6.09487,5.575149 6.52009,5.149927 0.42523,-0.425223 0.51972,-6.52009 0.33073,-7.039806 -0.18899,-0.519718 -2.17336,-2.740329 -1.6064,-4.393975 0.56697,-1.653646 3.92151,-11.953493 12.61496,-11.764507 3.58215,0.07787 7.27567,1.430529 11.02005,1.779044 5.34278,0.497287 10.39755,0.320675 12.0365,3.181893 2.78758,4.866439 7.27604,10.205358 6.37835,17.245163 -0.8977,7.039806 -4.63021,15.497024 -4.58297,17.386903 0.0473,1.889882 2.83483,4.960938 2.69308,7.228795 -0.14174,2.267858 -13.98511,20.599704 -15.02455,20.221726 -1.03943,-0.377976 -10.48884,-6.425594 -10.67783,-8.551709 z"
           style="fill:#c4aa9a;fill-opacity:1;fill-rule:evenodd;stroke:none;stroke-width:0.26458332px;stroke-linecap:butt;stroke-linejoin:miter;stroke-opacity:1" />
        <path
           inkscape:connector-curvature="0"
           id="path6197"
           d="m 138.17835,98.508729 c -0.16705,-0.100227 -1.87089,-0.601356 -2.10475,0.167044 -0.23386,0.768401 -0.16705,2.204967 0.0334,2.204967 0.20046,0 0.60136,-1.603611 0.83522,-1.63702 0.23386,-0.03341 1.30294,-0.501131 1.23613,-0.734991 z"
           style="fill:#6c503f;fill-opacity:1;fill-rule:evenodd;stroke:none;stroke-width:0.26458332px;stroke-linecap:butt;stroke-linejoin:miter;stroke-opacity:1" />
        <path
           sodipodi:nodetypes="cssssssscc"
           inkscape:connector-curvature="0"
           id="path6145"
           d="m 137.54358,99.143495 c 1.30294,0.03341 5.17835,3.407685 6.74856,4.042455 1.5702,0.63476 3.64154,1.16929 4.84425,1.30293 0.54296,0.0603 2.75133,0.82351 4.91928,0.98313 2.63432,0.19396 5.25671,-0.20078 5.36667,0.0191 0.20044,0.4009 -5.34146,0.63476 -7.0453,0.53453 -1.70385,-0.10022 -3.34087,-0.90203 -4.77745,-1.33634 -1.43657,-0.43432 -4.54358,-0.86863 -5.71288,-1.80407 -1.1693,-0.93544 -3.54132,-3.006785 -4.00904,-3.073603 -0.87867,-0.317758 -2.26309,-0.60989 -0.33409,-0.668172 z"
           style="fill:#362820;fill-opacity:1;fill-rule:evenodd;stroke:none;stroke-width:0.26458332px;stroke-linecap:butt;stroke-linejoin:miter;stroke-opacity:1" />
        <path
           inkscape:connector-curvature="0"
           id="path6147"
           d="m 137.63058,92.084447 c -0.0945,-1.039434 7.74851,-6.094865 8.12649,-5.480653 0.37797,0.614212 -5.43341,3.165549 -8.12649,5.480653 z"
           style="fill:#362820;fill-opacity:1;fill-rule:evenodd;stroke:none;stroke-width:0.26458332px;stroke-linecap:butt;stroke-linejoin:miter;stroke-opacity:1" />
        <path
           inkscape:connector-curvature="0"
           id="path6151"
           d="m 187.66518,81.73735 c 1.5119,0 3.1183,-5.008184 1.32291,-5.197174 -1.79538,-0.188986 -3.30729,1.417413 -3.02381,2.267858 0.28349,0.850448 2.83483,-1.511903 1.7009,2.929316 z"
           style="fill:none;fill-rule:evenodd;stroke:none;stroke-width:0.26458332px;stroke-linecap:butt;stroke-linejoin:miter;stroke-opacity:1" />
        <path
           inkscape:connector-curvature="0"
           id="path6193"
           d="m 172.52248,80.768716 c 0,0 -0.10023,-2.171566 -2.20498,-3.040193 -2.10474,-0.868627 -5.98015,-1.904296 -6.68173,-1.102487 -0.70159,0.80181 3.50791,3.875408 4.34313,4.176086 0.83521,0.30068 4.54358,-0.03341 4.54358,-0.03341 z"
           style="fill:#91715c;fill-opacity:1;fill-rule:evenodd;stroke:none;stroke-width:0.26458332px;stroke-linecap:butt;stroke-linejoin:miter;stroke-opacity:1" />
        <path
           inkscape:connector-curvature="0"
           id="path6185"
           d="m 185.20833,76.256694 c 0,0 0.56697,-7.181546 0.18899,-8.882438 -0.37798,-1.700895 -1.70089,-2.078871 -1.70089,-3.68527 0,-1.606397 4.63021,-13.796129 3.21279,-19.749254 -1.41741,-5.953125 -3.77976,-12.378722 -5.95312,-13.512649 -2.17336,-1.13393 -6.52009,-1.606399 -11.33929,-2.173364 -4.81919,-0.566963 -9.82738,-2.456845 -10.86681,-3.685267 -1.03944,-1.228423 -5.38616,-2.834822 -8.31548,-2.078869 -2.92931,0.755952 -7.65402,3.96875 -10.96131,10.016368 -3.30729,6.047618 -5.29166,22.489583 -5.57515,24.568452 -0.28348,2.07887 -2.64583,0.850447 -3.77976,1.984375 -1.13393,1.13393 -2.45684,3.023811 -2.45684,1.511905 0,-1.511905 0.85044,-8.031993 0.85044,-9.921874 0,-1.889882 0.51246,-3.18856 -0.0889,-3.556056 -0.60136,-0.367493 -1.70385,-0.768398 -1.5368,-0.801807 0.16704,-0.03341 1.40316,0.167042 2.40542,-3.942225 1.00226,-4.10927 2.24408,-8.236371 2.24408,-9.370298 0,-1.13393 0.47247,-0.283483 1.79539,-1.795388 1.32292,-1.511904 5.19717,-8.315476 4.8192,-9.354911 -0.37798,-1.039434 -1.22843,0 -1.22843,-0.566964 0,-0.566964 3.49628,-3.307292 3.49628,-4.157738 0,-0.850446 1.6064,-2.362351 3.3073,-2.834821 1.70089,-0.472471 2.92931,-2.929316 4.91369,-3.590774 1.98437,-0.661459 10.01636,-2.0788693 12.09523,-1.9843752 2.07887,0.094494 4.15774,1.5119052 6.14212,1.5119052 1.98437,0 3.87425,-0.09449 4.81919,-0.09449 0.94494,0 7.84301,2.456845 9.07143,3.590773 1.22842,1.133929 6.61459,5.291667 6.61459,6.142113 0,0.850447 -3.2128,-1.606398 -2.92932,-1.039434 0.28348,0.566964 2.64583,1.228422 4.25223,3.590774 1.6064,2.362351 3.49628,6.898064 3.63802,7.606771 0.14174,0.708705 -1.5119,-1.700895 -1.5119,-1.086683 0,0.614212 5.33891,7.039808 5.33891,9.354913 0,2.315104 -0.51972,3.071055 -0.51972,4.063243 0,0.992187 0.70871,1.559152 0.47247,1.653646 -0.23623,0.09449 -0.75595,-1.653646 -0.99218,-1.181177 -0.23624,0.472472 -0.0945,5.149927 0.0945,6.094867 0.18899,0.944941 -0.75595,-1.039434 -0.89769,-0.661458 -0.14174,0.377976 0.23623,3.118302 0.18898,5.102677 -0.0472,1.984375 -0.44884,3.42541 -0.54334,3.449035 -0.0945,0.02363 0.0473,-1.299295 -0.3071,-1.252048 -0.35435,0.04725 -0.21261,1.039434 -0.33073,2.385975 -0.11812,1.346541 -2.83847,5.471345 -2.83847,7.008146 0,1.536798 0,4.877668 0,4.877668 0,0 -1.13589,-0.601356 -1.80407,0 -0.66817,0.601358 -1.60361,5.078121 -2.00452,5.545843 -0.4009,0.46772 -0.88752,1.599925 -1.47943,0.900187 z"
           style="fill:#cfcfcf;fill-opacity:1;fill-rule:evenodd;stroke:none;stroke-width:0.26458332px;stroke-linecap:butt;stroke-linejoin:miter;stroke-opacity:1" />
        <path
           sodipodi:nodetypes="cssssssssssc"
           inkscape:connector-curvature="0"
           id="path6187"
           d="m 177.93469,96.604433 c 0.80181,0.06682 4.81085,-3.340868 5.61266,-4.543581 0.8018,-1.202714 5.67947,-9.621703 6.1472,-10.690781 0.46772,-1.069078 2.27179,-4.944486 0.26726,-7.015824 -2.00452,-2.071341 -2.13815,1.536798 -1.73725,1.603616 0.40091,0.06682 1.60362,-0.200451 1.60362,1.269529 0,1.469983 -1.00226,3.608139 -1.5368,3.608139 -0.53454,0 -0.66817,-1.670434 -1.33635,-1.670434 -0.66817,0 0,3.34087 0,4.142679 0,0.801809 -1.43935,2.225321 -1.97545,3.599457 -0.86415,2.21502 -3.35651,1.887913 -4.15832,2.155182 -0.80181,0.267268 -3.15384,5.604315 -2.88657,7.542018 z"
           style="fill:#c4aa9a;fill-opacity:1;fill-rule:evenodd;stroke:none;stroke-width:0.26458332px;stroke-linecap:butt;stroke-linejoin:miter;stroke-opacity:1" />
        <path
           inkscape:connector-curvature="0"
           id="path6189"
           d="m 123.22024,61.799107 c 0,0 -0.66146,-9.543899 1.03943,-9.543899 1.70089,0 2.07887,0.755951 2.07887,1.322916 0,0.566965 -3.02381,-2.456846 -3.1183,8.220983 z"
           style="fill:#362820;fill-opacity:1;fill-rule:evenodd;stroke:none;stroke-width:0.26458332px;stroke-linecap:butt;stroke-linejoin:miter;stroke-opacity:1" />
        <path
           inkscape:connector-curvature="0"
           id="path6195"
           d="m 145.22758,71.280646 c 0,0 -0.63477,-2.338607 -3.24065,-3.507912 -2.60587,-1.169305 -4.34313,-0.801809 -4.77744,0 -0.43431,0.801809 1.97112,2.839739 2.80633,3.307461 0.83522,0.46772 4.84426,1.102487 5.21176,0.200451 z"
           style="fill:#91715c;fill-opacity:1;fill-rule:evenodd;stroke:none;stroke-width:0.26458332px;stroke-linecap:butt;stroke-linejoin:miter;stroke-opacity:1" />
        <path
           inkscape:connector-curvature="0"
           id="path6160"
           d="m 145.99598,70.946559 c -0.86863,0 -4.47677,0.334087 -6.01357,-0.534537 -1.5368,-0.868627 -4.00904,-3.674957 -4.27631,-3.541324 -0.26727,0.133636 2.27179,4.075861 3.87541,4.877671 1.60362,0.801809 6.1472,1.469982 6.41447,-0.80181 z"
           style="fill:#3d2e24;fill-opacity:1;fill-rule:evenodd;stroke:none;stroke-width:0.26458332px;stroke-linecap:butt;stroke-linejoin:miter;stroke-opacity:1" />
        <path
           inkscape:connector-curvature="0"
           id="path6162"
           d="m 173.52474,80.568262 c -0.20045,-0.534538 -3.34087,0.601358 -5.47903,-0.467723 -2.13815,-1.069078 -5.34539,-4.276312 -5.87993,-4.142676 -0.53454,0.133636 2.6727,4.409948 5.54585,5.412208 2.87314,1.00226 5.61266,-0.267269 5.81311,-0.801809 z"
           style="fill:#3d2e24;fill-opacity:1;fill-rule:evenodd;stroke:none;stroke-width:0.26458332px;stroke-linecap:butt;stroke-linejoin:miter;stroke-opacity:1" />
      </g>
      <g
         inkscape:label="Glasses"
         id="layer6-0">
        <path
           id="path6154"
           transform="scale(0.26458333)"
           d="m 480.58008,191.87891 c -3.03046,0 -9.34358,51.76915 -8.58594,55.30468 0.75761,3.53554 5.0498,1.51642 6.3125,4.54688 1.2627,3.03046 1.76837,13.63693 4.79883,19.44531 3.03046,5.80837 20.96041,16.6672 36.36523,21.21289 15.40483,4.54569 35.10235,8.08164 38.13282,6.56641 3.03046,-1.51523 13.38577,-22.22498 22.2246,-18.68946 8.83885,3.53553 8.08025,5.80959 8.8379,9.59766 0.7576,3.78807 1.5162,19.19162 3.78906,22.47461 2.27282,3.283 14.6473,15.15294 32.83008,19.95117 18.18274,4.79822 37.87969,8.08222 40.91015,6.31446 3.03047,-1.76778 7.32445,-14.14396 10.60742,-14.39649 3.28302,-0.25255 3.53517,-2.77794 8.58594,-7.57617 5.05077,-4.79822 10.85843,-6.81727 19.69727,-27.52539 -2.52537,1.01015 -14.64748,12.12109 -18.43555,12.12109 -3.78807,0 -24.74715,-13.63596 -51.26367,-20.70703 -26.51649,-7.07107 -44.95334,-6.31367 -50.76172,-8.33398 -5.80838,-2.0203 -18.93913,-18.43517 -35.10156,-24.4961 -16.16243,-6.0609 -61.11564,-16.9213 -65.15625,-19.69922 -4.04062,-2.77792 -0.75669,-36.11132 -3.78711,-36.11132 z m 16.35156,47.44531 c 5.36644,0.15784 13.57338,1.79787 25.31641,5.58594 23.48602,7.57615 44.70002,17.17405 45.20507,25.50781 0.5051,8.33376 -11.86834,22.97988 -16.41406,23.23242 -4.54567,0.25255 -20.70884,3.6e-4 -35.10351,-6.06055 -14.39467,-6.06092 -27.77947,-12.88029 -28.53711,-18.18359 -0.75761,-5.3033 9.7e-4,-21.21174 1.26367,-26.76758 0.3788,-2.14657 2.90309,-3.47229 8.26953,-3.31445 z m 108.8457,41.6543 c 6.11826,-0.086 15.104,0.96077 26.32618,4.08593 19.9505,5.55583 41.92012,14.64807 42.67773,18.1836 0.75764,3.53554 -5.55568,27.01993 -9.34375,28.53515 -3.78807,1.51523 -20.45554,4.54724 -39.64844,-4.03906 -19.19289,-8.5863 -28.53651,-12.3758 -28.78906,-17.93164 -0.25247,-5.55584 -6.31347,-16.66742 0,-27.02148 0.99437,-0.99437 4.0187,-1.74561 8.77734,-1.8125 z"
           style="fill:#2b211a;fill-opacity:1;fill-rule:evenodd;stroke:none;stroke-width:0.99999994px;stroke-linecap:butt;stroke-linejoin:miter;stroke-opacity:1"
           inkscape:connector-curvature="0" />
      </g>
      <g
         style="display:inline;opacity:1"
         inkscape:label="Shirt"
         id="layer7-9">
        <path
           sodipodi:nodetypes="csssscccc"
           inkscape:connector-curvature="0"
           id="path6204"
           d="m 170.91886,111.57153 c 0,0 2.53906,6.5481 1.87089,9.88897 -0.66818,3.34087 -3.0736,9.75534 -11.49259,8.95353 -8.41899,-0.80181 -20.84703,-4.54358 -25.79151,-8.01809 -4.94449,-3.4745 -8.55263,-11.1585 -8.8199,-15.70208 -0.26727,-4.54358 -2.67269,38.95453 -2.67269,38.95453 l 28.99874,27.79603 30.20146,-22.04973 c 0,0 -6.28083,-34.47777 -12.2944,-39.82316 z"
           style="fill:#f3f4f5;fill-opacity:1;fill-rule:evenodd;stroke:none;stroke-width:0.26458332px;stroke-linecap:butt;stroke-linejoin:miter;stroke-opacity:1" />
        <path
           sodipodi:nodetypes="csscssssssssssssssccccssssssscsssssssssssccccccccccc"
           inkscape:connector-curvature="0"
           id="path6220"
           d="m 19.176588,185.93927 c 0,0 -3.942225,-1.13589 -8.018085,1.26953 -4.0758607,2.40543 -4.2763128,5.14494 -4.5435821,7.08264 -0.2672697,1.93771 -1.8040694,4.07587 -1.8040694,4.07587 0,0 -3.3408691,14.49937 -3.140417,18.44159 0.2004522,3.94223 1.4699823,9.68852 3.6081387,13.22984 2.1381561,3.54132 10.4836128,4.90732 10.4836128,4.03869 0,-0.86862 -8.4122741,-5.6423 -7.9445524,-7.11229 0.4677217,-1.46998 17.3725194,-9.42125 23.1856324,-11.42577 5.81311,-2.00452 14.098466,-0.53454 14.098466,-1.40316 0,-0.86863 -3.340868,-5.41221 -3.073599,-6.74856 0.267269,-1.33635 6.681737,-4.81085 8.819894,-7.75081 2.138156,-2.93997 2.806329,-7.684 5.211757,-9.82216 2.405425,-2.13816 13.029387,-4.94449 16.904797,-4.87767 3.875408,0.0668 24.388345,4.74404 29.266009,7.08264 4.87767,2.33861 14.29892,7.684 18.37478,7.21628 4.07586,-0.46772 15.83572,-11.89349 20.3793,-13.43029 4.54359,-1.5368 34.34414,0.4009 38.48681,4.87767 4.14268,4.47676 14.69983,45.03491 14.69983,45.03491 l -17.10525,16.77116 0.53454,12.09395 49.77895,0 c 0,0 11.29213,-45.90354 11.62622,-47.44034 0.33409,-1.5368 -0.33409,-14.96709 -1.00226,-18.50841 -0.66817,-3.54133 -1.67043,-7.14946 -1.46998,-8.55263 0.20045,-1.40316 1.80407,-6.34765 1.80407,-8.55262 0,-2.20498 -1.00226,-7.34992 -1.00226,-9.82216 0,-2.47224 -2.00452,-15.368 -2.80633,-19.71113 -0.80181,-4.34313 -1.46998,-16.57071 -2.80633,-17.97387 -1.33635,-1.40317 -4.34313,-6.21402 -4.54359,-6.74856 -0.20045,-0.53454 -7.41672,-5.34539 -8.88671,-5.47902 -1.46998,-0.13364 -13.36347,-4.2095 -14.69982,-4.94449 -1.33635,-0.73499 -3.40769,-0.93544 -5.21175,-0.93544 -1.80407,0 -6.41447,-2.40543 -9.82216,-2.6727 -3.40769,-0.26727 -9.08717,-2.73951 -11.22532,-3.80859 -2.13816,-1.06908 -4.34313,-4.94449 -4.87767,-4.54358 -0.53454,0.4009 -1.40316,5.81311 -1.40316,6.68174 0,0.86862 5.14494,8.21854 4.61039,16.37026 -0.53453,8.15172 -2.00452,19.6443 -2.40542,20.91384 -0.4009,1.26953 -11.02487,1.20271 -12.42803,2.07133 -1.40317,0.86863 -6.61492,7.88446 -7.08265,7.88446 -0.46772,0 -17.90705,-8.21854 -17.90705,-8.21854 l -41.159511,-0.60136 -1.403165,-12.42803 -18.174326,-9.95579 -10.289879,6.81537 -16.30344,15.96935 -6.414468,3.34087 -5.479026,4.40995 -3.875407,8.88671 -1.603619,10.55715 z"
           style="fill:#cbdbe1;fill-opacity:1;fill-rule:evenodd;stroke:none;stroke-width:0.26458332px;stroke-linecap:butt;stroke-linejoin:miter;stroke-opacity:1" />
        <path
           inkscape:connector-curvature="0"
           id="path6206"
           d="m 153.31659,129.55134 c -0.0945,-0.23624 -1.84263,0.7087 -1.03943,0.99219 0.8032,0.28348 7.79575,1.88987 10.77232,1.32291 2.97656,-0.56696 -3.63802,2.88207 -6.37835,2.88207 -2.74033,0 -4.91369,-2.07887 -6.09487,-1.32292 -1.18117,0.75596 -2.17336,1.84264 -1.18117,2.45685 0.99219,0.61421 2.55134,0.51971 2.26786,0.75595 -0.28349,0.23624 -5.95313,-0.51972 -5.95313,-0.14174 0,0.37798 5.66964,6.04762 9.11867,7.89025 3.44904,1.84264 5.66965,2.4096 5.43341,2.74033 -0.23623,0.33073 -8.50446,-2.59859 -11.0558,-4.58296 -2.55134,-1.98438 -4.48847,-4.67746 -5.00819,-3.96875 -0.51971,0.7087 5.14993,7.60677 5.6224,8.22098 0.47247,0.61421 -4.63021,-6.14211 -7.1343,-5.90588 -2.50409,0.23624 -7.03981,2.74033 -8.40997,2.55134 -1.37016,-0.18899 -7.41778,-14.97731 -7.41778,-19.22954 0,-4.25223 0.0473,-11.90625 0.51971,-12.00074 0.47248,-0.0945 2.78758,7.18155 8.8352,10.63058 6.04762,3.44903 17.29241,6.3311 17.10342,6.70908 z"
           style="fill:#bfc6c9;fill-opacity:1;fill-rule:evenodd;stroke:none;stroke-width:0.26458332px;stroke-linecap:butt;stroke-linejoin:miter;stroke-opacity:1" />
        <path
           inkscape:connector-curvature="0"
           id="path6212"
           d="m 173.30208,141.78832 c 0.51972,-0.18899 1.18118,-2.4096 2.03162,-2.45685 0.85045,-0.0472 3.82701,1.88988 3.82701,1.55915 0,-0.33073 -2.83482,-8.55171 -2.40959,-8.55171 0.42522,0 5.10267,5.57515 5.10267,4.34673 0,-1.22843 -4.81919,-17.67039 -6.09486,-21.78088 -1.27567,-4.11049 -3.92151,-10.11086 -4.20499,-9.49665 -0.28348,0.61421 0.0945,7.51227 0.42522,8.6462 0.33073,1.13393 2.07887,4.53572 2.07887,6.56734 0,2.03162 -1.37016,9.49665 -1.32291,10.25261 0.0472,0.75595 0.47247,1.74813 0.47247,2.88206 0,1.13393 -1.37017,2.88207 -1.37017,3.9215 0,1.03944 1.55915,-0.56696 1.65365,-0.14174 0.0945,0.42523 -0.66146,3.49628 -0.18899,4.25224 z"
           style="fill:#486f7f;fill-opacity:1;fill-rule:evenodd;stroke:none;stroke-width:0.26458332px;stroke-linecap:butt;stroke-linejoin:miter;stroke-opacity:1" />
        <path
           inkscape:connector-curvature="0"
           id="path6214"
           d="m 157.1436,155.39546 c 0.51972,-1.13393 3.68527,-3.44903 5.62239,-3.54353 1.93713,-0.0945 6.33111,0.0472 9.96913,-1.5119 3.63802,-1.55915 9.35491,-6.28386 9.5439,-7.27605 0.18898,-0.99218 -0.70871,-2.3151 -0.18899,-2.3151 0.51971,0 3.40178,0.14174 4.29948,1.7009 0.89769,1.55915 0.75595,3.87425 1.55915,5.38616 0.8032,1.5119 3.30729,4.48846 3.07106,4.6302 -0.23624,0.14174 -1.13393,-0.51971 -1.27567,-0.14174 -0.14175,0.37798 -0.0945,7.41779 0.51971,8.88244 0.61421,1.46466 4.72471,10.01637 5.33892,10.01637 0.61421,0 8.40997,-2.69308 10.34709,-4.20498 1.93713,-1.51191 4.016,-3.44904 4.11049,-3.2128 0.0945,0.23623 -3.0238,5.62239 -7.51227,8.50446 -4.48847,2.88207 -8.83519,3.59078 -9.5439,4.63021 -0.7087,1.03944 -1.74814,3.1183 -1.74814,4.11049 0,0.99219 -0.47247,3.30729 -1.6064,3.63802 -1.13393,0.33073 -1.79539,0.18899 -1.79539,1.41742 0,1.22842 -0.94494,11.95349 -1.46465,12.33147 -0.51972,0.37797 -14.55209,-10.63058 -14.55209,-11.48103 0,-0.85044 1.79539,-4.20498 1.37017,-5.76414 -0.42522,-1.55915 -3.16555,-7.55952 -4.77195,-8.31547 -1.6064,-0.75596 -4.44122,-0.61421 -3.9215,-1.74814 0.51971,-1.13393 5.10267,-5.81139 5.57514,-5.81139 0.47247,0 6.52009,7.2288 7.46503,7.03981 0.94494,-0.18899 2.4096,-5.29167 1.88989,-6.89807 -0.51972,-1.60639 -2.97657,-2.83482 -3.02381,-6.04761 -0.0472,-3.2128 0.0472,-6.75633 -1.6064,-6.4256 -1.65365,0.33073 -4.20499,5.38616 -4.48847,5.38616 -0.28348,0 -1.37016,-0.75595 -3.49628,-0.75595 -2.12612,0 -4.96094,1.41741 -5.6224,1.18117 -0.66145,-0.23623 -3.49628,-3.26004 -4.06324,-3.40178 z"
           style="fill:#8bafbd;fill-opacity:1;fill-rule:evenodd;stroke:none;stroke-width:0.26458332px;stroke-linecap:butt;stroke-linejoin:miter;stroke-opacity:1" />
        <path
           sodipodi:nodetypes="csssssssssssssssssssssssssssscsscssssssssssssssssssssssssssssssssscscssscsssssscssssscsssssssssscc"
           inkscape:connector-curvature="0"
           id="path6216"
           d="m 169.47507,185.86979 c 0.0473,-1.22842 1.13393,-5.81139 -0.94494,-7.79576 -2.07887,-1.98438 -4.39397,-5.19717 -5.43341,-5.6224 -1.03943,-0.42522 -9.16592,0.23624 -9.16592,-1.27567 0,-1.5119 0.75595,-10.2526 0.42523,-10.81956 -0.33073,-0.56697 -7.27605,-9.02419 -9.6384,-10.01637 -2.36235,-0.99219 -9.11867,-5.6224 -10.06361,-7.18155 -0.94494,-1.55915 -6.61458,-14.31585 -6.70908,-20.31622 -0.0945,-6.00037 -1.46466,-14.2686 -1.13393,-17.19791 0.33073,-2.92932 0.37798,-4.63022 0,-4.86645 -0.37798,-0.23623 -4.29948,1.6064 -6.52009,1.6064 -2.22061,0 -9.4494,1.08668 -11.10305,1.37016 -1.65365,0.28348 -9.49665,3.9215 -11.008555,4.34673 -1.511906,0.42522 -1.937129,1.93713 -3.165552,2.07887 -1.228421,0.14174 -12.04799,0.94494 -14.363094,2.07887 -2.315104,1.13393 -6.992559,2.83482 -10.252604,4.81919 -3.260045,1.98438 -3.401785,4.34673 -3.401785,5.00819 0,0.66146 0.992188,6.66183 0.566962,7.41778 -0.425222,0.75595 -6.898065,4.67746 -9.969121,8.69345 -3.071056,4.016 -9.874628,11.76451 -12.095237,12.80394 -2.22061,1.03944 -7.370537,5.24442 -8.787947,6.75633 -1.41741,1.5119 -2.834822,6.80357 -3.638021,7.46503 -0.803198,0.66146 -1.228423,0.8032 -1.748139,2.4096 -0.519718,1.6064 -0.425225,6.14211 -0.992187,7.18154 -0.566965,1.03944 -5.338915,5.66965 -7.134301,7.3233 -1.795388,1.65364 -4.252233,3.49627 -4.724703,4.20498 -0.47247,0.70871 -1.133929,2.22061 1.984375,2.88207 3.118304,0.66146 13.607143,2.4096 15.166295,3.68527 1.55915,1.27567 3.449032,5.10268 3.354539,5.95312 -0.09449,0.85045 0.566965,2.45685 -0.236236,1.98437 -0.803199,-0.47246 -7.795758,-6.56733 -11.339285,-8.07923 -3.543527,-1.51191 -14.12686,-6.04762 -14.977307,-5.29167 -0.850446,0.75595 -2.078869,4.016 -0.425223,4.06324 1.653646,0.0472 5.527902,0.37798 5.622396,1.22843 0.09449,0.85044 -1.653646,1.74813 -0.897694,1.93712 0.755953,0.18899 7.748512,1.55915 9.638393,2.12612 1.88988,0.56696 13.607143,6.56733 10.914063,7.18155 -2.69308,0.61421 -8.268229,-1.32292 -10.299851,-1.51191 -2.031623,-0.18899 -10.158111,0.47247 -10.725075,2.07887 -0.566964,1.6064 4.346726,-1.13393 5.71689,-1.13393 1.370164,0 11.481026,2.17337 13.748884,2.69308 2.267857,0.51972 5.622395,3.07106 6.898065,1.84264 1.27567,-1.22843 3.212799,0.0472 3.212799,-1.37017 0,-1.41741 -1.13393,-0.99218 -0.0945,-3.96875 1.039434,-2.97656 2.787576,-3.82701 1.417412,-6.99256 -1.370166,-3.16555 -10.394346,-13.13467 -10.630582,-17.10342 -0.236233,-3.96875 -1.228421,-5.33891 -0.377976,-6.89806 0.850448,-1.55916 0.377976,-0.33073 -1.133927,-1.22843 -1.511906,-0.89769 -1.700893,-3.68527 -1.181177,-4.86644 0.519718,-1.18118 2.504093,-7.84301 3.496281,-6.89807 0.992187,0.94494 1.228423,7.41779 2.976562,7.32329 1.748139,-0.0945 3.685268,-2.4096 3.212799,-6.94531 -0.472472,-4.53571 -2.315105,-4.39397 -1.086684,-4.91369 1.228423,-0.51972 3.023809,-0.14174 3.260045,0.47247 0.236236,0.61421 -0.14174,7.37054 3.354538,9.07143 3.496281,1.70089 9.354913,5.10268 9.21317,3.63802 -0.14174,-1.46466 -6.898066,-7.27604 -6.898066,-11.81176 0,-4.53571 -0.992187,-5.85863 -0.09449,-5.85863 0.897694,0 6.142114,7.51228 6.52009,9.40216 0.377976,1.88988 2.220608,4.63021 2.456844,4.63021 0.236236,0 -7.559524,-17.90662 -4.488465,-17.81213 3.071055,0.0945 5.669642,11.859 6.520087,14.03237 0.850447,2.17336 6.992559,16.06398 8.031996,16.06398 1.039434,0 -3.543528,-41.38839 -1.417413,-43.65625 2.126118,-2.26785 15.544271,6.18937 15.591517,8.17374 0.04725,1.98438 -5.008184,22.25335 -5.008184,25.93862 0,3.68526 -1.55915,10.91406 -2.267857,10.63058 -0.708705,-0.28349 0.04725,-12.56771 -1.086681,-12.66221 -1.133927,-0.0945 -1.653646,16.63096 -3.165549,16.6782 -1.511906,0.0472 -10.110864,-7.65402 -14.788319,-8.55171 -4.677455,-0.89769 -19.418527,-2.64583 -19.418527,-1.5119 0,1.13392 14.12686,8.12649 16.630951,10.39434 2.504093,2.26786 4.960938,6.37835 7.181548,6.3311 2.220611,-0.0472 71.673733,10.44159 71.768233,9.44941 0.0945,-0.99219 -10.53609,-12.04799 -14.50484,-11.71726 -3.96875,0.33073 6.80357,5.95312 5.57515,6.3311 -1.22842,0.37797 -14.36309,-6.04762 -16.15848,-3.49628 -1.79539,2.55134 -10.347101,3.9215 -16.016744,0.28348 -5.669642,-3.63802 -12.803944,-13.60714 -10.48884,-16.25298 2.315104,-2.64583 2.504094,4.39398 3.071056,4.25224 0.566965,-0.14175 -0.09449,-20.07999 1.511906,-25.22992 1.606399,-5.14992 1.700892,-11.57552 2.834822,-11.57552 1.133928,0 -0.566965,16.53646 0.944941,16.63096 1.511904,0.0945 2.882067,0.18898 6.756323,0.18898 3.874256,0 5.575146,2.31511 8.126486,2.31511 2.55134,0 3.07106,-3.30729 5.90588,-3.35454 2.83482,-0.0473 8.26823,1.08668 9.78014,0.33073 1.5119,-0.75595 2.26785,-3.16555 4.01599,-3.16555 1.74814,0 6.14212,1.65365 9.02418,5.76414 2.88207,4.11049 4.8192,14.83556 6.04762,14.69382 1.22842,-0.14174 -2.3151,-15.54427 -3.16555,-16.63095 -0.85044,-1.08668 -2.88207,-3.26005 -1.98437,-3.40179 0.89769,-0.14174 5.57515,4.11049 8.55171,6.4256 2.97656,2.3151 6.94531,4.29948 6.66183,4.91369 -0.28348,0.61421 -6.14211,5.95312 -7.41778,9.21317 -1.27567,3.26004 -2.59859,5.05543 -0.28349,8.26823 2.31511,3.21279 12.70945,6.37834 12.70945,6.37834 z"
           style="fill:#8bafbd;fill-opacity:1;fill-rule:evenodd;stroke:none;stroke-width:0.26458332px;stroke-linecap:butt;stroke-linejoin:miter;stroke-opacity:1" />
        <path
           inkscape:connector-curvature="0"
           id="path6208"
           d="m 112.21168,138.52827 c 0.66146,0 7.22879,-2.74033 8.92969,-4.96093 1.70089,-2.22062 2.17336,-5.76414 2.88207,-5.76414 0.7087,0 2.26785,5.76414 2.97656,6.80357 0.7087,1.03943 -1.03944,-0.47247 -4.11049,0.28348 -3.07106,0.75595 -5.6224,5.90588 -10.67783,3.63802 z"
           style="fill:#486f7f;fill-opacity:1;fill-rule:evenodd;stroke:none;stroke-width:0.26458332px;stroke-linecap:butt;stroke-linejoin:miter;stroke-opacity:1" />
        <path
           inkscape:connector-curvature="0"
           id="path6218"
           d="m 122.67671,106.02568 c -1.26953,-0.13363 -5.54584,5.81312 -6.08038,11.8935 -0.53454,6.08038 -2.13816,14.36574 -2.60588,16.10299 -0.46772,1.73725 4.07586,-16.9048 4.87767,-20.04522 0.80181,-3.14041 3.74177,-7.48354 3.80859,-7.95127 z"
           style="fill:#486f7f;fill-opacity:1;fill-rule:evenodd;stroke:none;stroke-width:0.26458332px;stroke-linecap:butt;stroke-linejoin:miter;stroke-opacity:1" />
        <path
           sodipodi:nodetypes="csssssssscsssssc"
           inkscape:connector-curvature="0"
           id="path6222"
           d="m 15.32689,233.81017 c 0,-0.60136 -8.2442477,-5.30822 -7.776526,-6.57776 0.4677216,-1.26953 14.232102,-7.48354 14.165285,-8.21853 -0.06682,-0.735 -7.951269,1.80407 -9.220799,-0.13364 -1.26953,-1.9377 -2.338608,-4.6104 -2.004521,-6.94901 0.334087,-2.33861 5.813112,-8.68626 5.078121,-8.81989 -0.734991,-0.13363 -7.8176337,7.81763 -8.1517207,6.21402 -0.334087,-1.60362 -0.2004521,-10.15625 1.403165,-11.29214 1.6036167,-1.1359 6.3476517,-2.33861 6.3476517,-2.93997 0,-0.60135 -5.144939,-2.40542 -6.0135647,-2.47224 -0.868626,-0.0668 -1.4699824,-1.20271 -1.737252,-0.26727 -0.2672694,0.93544 -0.1336347,3.80859 -1.0022607,4.94449 -0.8686261,1.13589 -1.0690781,0.46772 -1.4699824,2.00452 -0.4009044,1.5368 -3.1404169,11.89349 -3.340869,17.3057 -0.2004522,5.41221 2.6726953,12.09395 3.8085907,13.76438 1.1358953,1.67044 8.5783351,4.37278 9.9146821,3.43734 z"
           style="fill:#8bafbd;fill-opacity:1;fill-rule:evenodd;stroke:none;stroke-width:0.26458332px;stroke-linecap:butt;stroke-linejoin:miter;stroke-opacity:1" />
        <path
           inkscape:connector-curvature="0"
           id="path6224"
           d="m 213.14745,153.39921 c 1.60361,0 2.27179,6.28083 3.34086,6.28083 1.06908,0 2.93997,-6.94901 7.48355,-6.94901 4.54358,0 7.48355,2.6727 6.81537,3.20724 -0.66817,0.53454 -13.22984,3.0736 -14.69982,6.94901 -1.46998,3.8754 -1.60362,8.15172 -1.60362,10.95805 0,2.80633 -1.73725,7.34991 -2.13815,8.95353 -0.40091,1.60361 -2.53906,4.94448 -4.40995,8.01808 -1.87089,3.0736 -3.34087,8.8199 -3.34087,11.35896 0,2.53906 3.20723,4.81085 3.20723,6.01356 0,1.20271 -1.06907,4.14268 0,4.14268 1.06908,0 13.49712,-7.75082 16.70435,-7.61718 3.20724,0.13363 13.76438,7.08264 12.56167,7.48354 -1.20272,0.40091 -10.15624,-2.93996 -12.82894,-2.93996 -2.67269,0 -17.10525,3.74177 -17.37252,4.94449 -0.26727,1.20271 0.80181,2.80633 0.80181,2.80633 0,0 4.27631,-3.47451 6.81537,-3.47451 2.53906,0 12.6953,0.93544 14.03165,1.60362 1.33635,0.66817 -14.83346,-0.40091 -15.50163,0.66817 -0.66817,1.06908 16.97162,1.06908 16.03617,1.73725 -0.93544,0.66818 -14.03165,0.26727 -17.63979,1.06908 -3.60814,0.80181 -4.94448,5.07812 -6.41447,5.07812 -1.46998,0 -1.60361,-0.4009 -1.60361,-1.73725 0,-1.33635 2.53906,-10.28987 2.53906,-11.49259 0,-1.20271 -3.0736,-2.80633 -3.0736,-6.41447 0,-3.60814 2.80633,-11.75986 4.14268,-14.43255 1.33634,-2.6727 2.93996,-1.46998 5.07812,-9.08717 2.13815,-7.61718 2.00452,-23.65335 1.06908,-27.12785 z"
           style="fill:#8bafbd;fill-opacity:1;fill-rule:evenodd;stroke:none;stroke-width:0.26458332px;stroke-linecap:butt;stroke-linejoin:miter;stroke-opacity:1" />
      </g>
      <g
         style="display:inline"
         inkscape:label="Guitar"
         id="layer8-9">
        <path
           sodipodi:nodetypes="csscsssssssscscc"
           inkscape:connector-curvature="0"
           id="path6227"
           d="m 37.797618,264.58333 c 0,0 -3.05258,-29.80055 -3.05258,-35.01231 0,-3.2646 6.617993,-9.66995 9.280196,-15.78073 1.587851,-3.64472 -2.856165,0.46266 -2.331187,-7.004 0.868624,-0.13363 6.013562,-3.94222 7.149458,-5.81311 1.135896,-1.87088 4.142678,-10.49033 9.354432,-12.56166 5.211757,-2.07134 10.156243,-3.27405 16.837983,-2.60588 6.681737,0.66817 25.12334,5.67948 29.86737,7.55036 4.74403,1.87089 13.76438,5.94675 19.10977,3.80859 5.34539,-2.13815 15.63527,-15.43481 29.53328,-14.49937 13.89802,0.93545 19.04296,1.00226 23.92062,4.34313 4.87767,3.34087 12.02713,13.69756 14.16529,19.44386 2.13816,5.74629 7.55036,32.80733 7.55036,32.80733 0,0 -12.56166,8.21854 -16.1698,14.09847 -3.60814,5.87993 -2.60588,11.22532 -2.60588,11.22532 z"
           style="fill:#a2592a;fill-opacity:1;fill-rule:evenodd;stroke:none;stroke-width:0.26458332px;stroke-linecap:butt;stroke-linejoin:miter;stroke-opacity:1" />
        <path
           sodipodi:nodetypes="csssscc"
           inkscape:connector-curvature="0"
           id="path6229"
           d="m 181.81009,229.37056 c 0,0 -3.60813,-21.91609 -9.15398,-30.53553 -5.54584,-8.61945 -15.30118,-15.56845 -17.3057,-15.76891 -2.00452,-0.20045 13.8312,0.13364 18.30796,1.60362 4.47677,1.46999 14.23211,11.49259 17.37252,19.24341 3.14042,7.75082 5.47903,22.58427 5.47903,22.58427 z"
           style="fill:#462612;fill-opacity:1;fill-rule:evenodd;stroke:none;stroke-width:0.26458332px;stroke-linecap:butt;stroke-linejoin:miter;stroke-opacity:1" />
        <path
           sodipodi:nodetypes="csccscc"
           inkscape:connector-curvature="0"
           id="path6231"
           d="m 158.95855,264.58333 c 0,0 -0.4009,-4.34313 2.07134,-6.88219 2.47224,-2.53906 9.02035,-5.7463 9.02035,-5.7463 l 14.16528,-0.8018 c 0,0 -2.80633,4.20949 -3.27405,7.01582 -0.46772,2.80633 -0.0668,6.41447 -0.0668,6.41447 z"
           style="fill:#462612;fill-opacity:1;fill-rule:evenodd;stroke:none;stroke-width:0.26458332px;stroke-linecap:butt;stroke-linejoin:miter;stroke-opacity:1" />
        <path
           inkscape:connector-curvature="0"
           id="path6233"
           d="m 149.20321,256.96615 -4.27631,-22.58428 195.30721,-33.87641 -5.21177,22.18337 z"
           style="fill:#291f19;fill-opacity:1;fill-rule:evenodd;stroke:none;stroke-width:0.26458332px;stroke-linecap:butt;stroke-linejoin:miter;stroke-opacity:1" />
        <path
           inkscape:connector-curvature="0"
           id="path6235"
           d="m 338.43005,200.77273 c 0,0 5.01128,-0.93544 8.68624,-3.87541 3.67496,-2.93996 4.61042,-5.74629 5.07812,-5.87993 0.46773,-0.13363 47.30671,-3.0736 57.32931,-4.14267 10.02263,-1.06908 42.09497,-4.87767 42.36222,-4.54359 0.26729,0.33409 -1.9377,16.03618 -2.80633,16.57071 -0.86862,0.53454 -55.52524,13.76439 -68.55462,18.30797 -13.02938,4.54358 -30.60237,10.82441 -30.93646,10.75759 -0.33409,-0.0668 -0.60135,-1.87088 -3.60812,-3.54132 -3.00678,-1.67043 -10.95807,-1.60361 -10.95807,-1.80407 0,-0.20045 3.40771,-21.84928 3.40771,-21.84928 z"
           style="fill:#4d392c;fill-opacity:1;fill-rule:evenodd;stroke:none;stroke-width:0.26458332px;stroke-linecap:butt;stroke-linejoin:miter;stroke-opacity:1" />
        <circle
           r="4.3431296"
           cy="198.10004"
           cx="364.62244"
           id="path6311"
           style="fill:#9c7459;fill-opacity:1;fill-rule:evenodd;stroke:none;stroke-width:0.26458332px;stroke-linecap:butt;stroke-linejoin:miter;stroke-opacity:1" />
        <path
           id="path6334"
           transform="scale(0.26458333)"
           d="m 507.94531,858.37891 a 83.590126,62.881993 82.969032 0 0 -6.2832,0.35351 83.590126,62.881993 82.969032 0 0 -52.17578,90.6582 A 83.590126,62.881993 82.969032 0 0 469.97266,1000 l 89.98632,0 a 83.590126,62.881993 82.969032 0 0 14.34571,-66.00391 83.590126,62.881993 82.969032 0 0 -66.35938,-75.61718 z"
           style="fill:#270000;fill-opacity:1;fill-rule:evenodd;stroke:none;stroke-width:0.99999994px;stroke-linecap:butt;stroke-linejoin:miter;stroke-opacity:1"
           inkscape:connector-curvature="0" />
        <path
           inkscape:connector-curvature="0"
           id="path6255"
           d="m 148.60186,233.7137 4.94448,22.04974"
           style="fill:none;fill-rule:evenodd;stroke:#9d9d9d;stroke-width:0.37041667;stroke-linecap:round;stroke-linejoin:miter;stroke-miterlimit:4;stroke-dasharray:none;stroke-opacity:1" />
        <path
           inkscape:connector-curvature="0"
           id="path6257"
           d="m 157.28811,255.2289 -4.81085,-21.98292 0,0"
           style="fill:none;fill-rule:evenodd;stroke:#9d9d9d;stroke-width:0.37041667;stroke-linecap:round;stroke-linejoin:miter;stroke-miterlimit:4;stroke-dasharray:none;stroke-opacity:1" />
        <path
           inkscape:connector-curvature="0"
           id="path6259"
           d="m 156.55312,232.37735 4.54359,22.18337"
           style="fill:none;fill-rule:evenodd;stroke:#9d9d9d;stroke-width:0.37041667;stroke-linecap:round;stroke-linejoin:miter;stroke-miterlimit:4;stroke-dasharray:none;stroke-opacity:1" />
        <path
           inkscape:connector-curvature="0"
           id="path6261"
           d="m 165.17257,253.75891 -4.40995,-21.9161"
           style="fill:none;fill-rule:evenodd;stroke:#9d9d9d;stroke-width:0.37041667;stroke-linecap:round;stroke-linejoin:miter;stroke-miterlimit:4;stroke-dasharray:none;stroke-opacity:1" />
        <path
           inkscape:connector-curvature="0"
           id="path6263"
           d="m 165.17257,230.84055 4.40994,22.04974"
           style="fill:none;fill-rule:evenodd;stroke:#9d9d9d;stroke-width:0.37041667;stroke-linecap:round;stroke-linejoin:miter;stroke-miterlimit:4;stroke-dasharray:none;stroke-opacity:1" />
        <path
           inkscape:connector-curvature="0"
           id="path6265"
           d="M 174.25973,252.22211 170.3175,230.10556"
           style="fill:none;fill-rule:evenodd;stroke:#9d9d9d;stroke-width:0.37041667;stroke-linecap:round;stroke-linejoin:miter;stroke-miterlimit:4;stroke-dasharray:none;stroke-opacity:1" />
        <path
           inkscape:connector-curvature="0"
           id="path6267"
           d="m 175.59608,229.17012 3.60814,21.98292"
           style="fill:none;fill-rule:evenodd;stroke:#9d9d9d;stroke-width:0.37041667;stroke-linecap:round;stroke-linejoin:miter;stroke-miterlimit:4;stroke-dasharray:none;stroke-opacity:1" />
        <path
           inkscape:connector-curvature="0"
           id="path6269"
           d="m 184.75006,250.48486 -3.60814,-21.98291"
           style="fill:none;fill-rule:evenodd;stroke:#9d9d9d;stroke-width:0.37041667;stroke-linecap:round;stroke-linejoin:miter;stroke-miterlimit:4;stroke-dasharray:none;stroke-opacity:1" />
        <path
           inkscape:connector-curvature="0"
           id="path6271"
           d="m 187.15548,227.1656 3.20724,21.98291"
           style="fill:none;fill-rule:evenodd;stroke:#9d9d9d;stroke-width:0.37041667;stroke-linecap:round;stroke-linejoin:miter;stroke-miterlimit:4;stroke-dasharray:none;stroke-opacity:1" />
        <path
           inkscape:connector-curvature="0"
           id="path6273"
           d="m 196.50992,247.9458 -2.80633,-21.9161"
           style="fill:none;fill-rule:evenodd;stroke:#9d9d9d;stroke-width:0.37041667;stroke-linecap:round;stroke-linejoin:miter;stroke-miterlimit:4;stroke-dasharray:none;stroke-opacity:1" />
        <path
           inkscape:connector-curvature="0"
           id="path6275"
           d="m 200.98668,224.76017 1.87089,21.9161"
           style="fill:none;fill-rule:evenodd;stroke:#9d9d9d;stroke-width:0.37041667;stroke-linecap:round;stroke-linejoin:miter;stroke-miterlimit:4;stroke-dasharray:none;stroke-opacity:1" />
        <path
           inkscape:connector-curvature="0"
           id="path6277"
           d="m 209.80658,245.87446 -1.26953,-22.45064"
           style="fill:none;fill-rule:evenodd;stroke:#9d9d9d;stroke-width:0.37041667;stroke-linecap:round;stroke-linejoin:miter;stroke-miterlimit:4;stroke-dasharray:none;stroke-opacity:1" />
        <path
           inkscape:connector-curvature="0"
           id="path6279"
           d="m 216.62195,221.88702 1.26953,22.31701"
           style="fill:none;fill-rule:evenodd;stroke:#9d9d9d;stroke-width:0.37041667;stroke-linecap:round;stroke-linejoin:miter;stroke-miterlimit:4;stroke-dasharray:none;stroke-opacity:1" />
        <path
           inkscape:connector-curvature="0"
           id="path6281"
           d="m 226.64456,242.46678 -0.80181,-22.25019"
           style="fill:none;fill-rule:evenodd;stroke:#9d9d9d;stroke-width:0.37041667;stroke-linecap:round;stroke-linejoin:miter;stroke-miterlimit:4;stroke-dasharray:none;stroke-opacity:1" />
        <path
           inkscape:connector-curvature="0"
           id="path6283"
           d="m 235.73172,218.67979 0.53454,22.11655"
           style="fill:none;fill-rule:evenodd;stroke:#9d9d9d;stroke-width:0.37041667;stroke-linecap:round;stroke-linejoin:miter;stroke-miterlimit:4;stroke-dasharray:none;stroke-opacity:1" />
        <path
           inkscape:connector-curvature="0"
           id="path6285"
           d="m 246.4225,238.92546 -0.13363,-21.98292"
           style="fill:none;fill-rule:evenodd;stroke:#9d9d9d;stroke-width:0.37041667;stroke-linecap:round;stroke-linejoin:miter;stroke-miterlimit:4;stroke-dasharray:none;stroke-opacity:1" />
        <path
           inkscape:connector-curvature="0"
           id="path6287"
           d="m 258.24918,214.80438 -0.73499,22.04974"
           style="fill:none;fill-rule:evenodd;stroke:#9d9d9d;stroke-width:0.37041667;stroke-linecap:round;stroke-linejoin:miter;stroke-miterlimit:4;stroke-dasharray:none;stroke-opacity:1" />
        <path
           inkscape:connector-curvature="0"
           id="path6237"
           d="M 363.82065,200.17138 338.09596,201.4409 90.470735,245.67401"
           style="fill:none;fill-rule:evenodd;stroke:#aa8756;stroke-width:0.26458332px;stroke-linecap:butt;stroke-linejoin:miter;stroke-opacity:1" />
        <circle
           style="fill:#9c7459;fill-opacity:1;fill-rule:evenodd;stroke:none;stroke-width:0.26458332px;stroke-linecap:butt;stroke-linejoin:miter;stroke-opacity:1"
           id="circle6313"
           cx="389.07761"
           cy="196.56323"
           r="4.3431296" />
        <path
           inkscape:connector-curvature="0"
           id="path6289"
           d="m 269.67495,234.51551 1.20271,-21.98292"
           style="fill:none;fill-rule:evenodd;stroke:#9d9d9d;stroke-width:0.37041667;stroke-linecap:round;stroke-linejoin:miter;stroke-miterlimit:4;stroke-dasharray:none;stroke-opacity:1" />
        <path
           inkscape:connector-curvature="0"
           id="path6239"
           d="m 389.21123,198.36731 -52.71889,7.55036 -243.61618,43.4313"
           style="fill:none;fill-rule:evenodd;stroke:#aa8756;stroke-width:0.26458332px;stroke-linecap:butt;stroke-linejoin:miter;stroke-opacity:1" />
        <circle
           r="4.3431296"
           cy="194.4919"
           cx="412.79779"
           id="circle6317"
           style="fill:#9c7459;fill-opacity:1;fill-rule:evenodd;stroke:none;stroke-width:0.26458332px;stroke-linecap:butt;stroke-linejoin:miter;stroke-opacity:1" />
        <path
           inkscape:connector-curvature="0"
           id="path6291"
           d="m 285.10976,210.06035 -2.07135,21.98292"
           style="fill:none;fill-rule:evenodd;stroke:#9d9d9d;stroke-width:0.37041667;stroke-linecap:round;stroke-linejoin:miter;stroke-miterlimit:4;stroke-dasharray:none;stroke-opacity:1" />
        <path
           inkscape:connector-curvature="0"
           id="path6241"
           d="M 412.46369,196.09551 336.02461,209.99353 95.348403,253.02392"
           style="fill:none;fill-rule:evenodd;stroke:#aa8756;stroke-width:0.26458332px;stroke-linecap:butt;stroke-linejoin:miter;stroke-opacity:1" />
        <circle
           style="fill:#9c7459;fill-opacity:1;fill-rule:evenodd;stroke:none;stroke-width:0.26458332px;stroke-linecap:butt;stroke-linejoin:miter;stroke-opacity:1"
           id="circle6321"
           cx="405.64832"
           cy="204.71495"
           r="4.3431296" />
        <path
           inkscape:connector-curvature="0"
           id="path6293"
           d="m 298.00552,229.37057 2.73952,-21.98292"
           style="fill:none;fill-rule:evenodd;stroke:#9d9d9d;stroke-width:0.37041667;stroke-linecap:round;stroke-linejoin:miter;stroke-miterlimit:4;stroke-dasharray:none;stroke-opacity:1" />
        <path
           inkscape:connector-curvature="0"
           id="path6243"
           d="m 406.04924,203.04452 -71.0937,11.35896 -235.664912,41.96131"
           style="fill:none;fill-rule:evenodd;stroke:#aa8756;stroke-width:0.26458332px;stroke-linecap:butt;stroke-linejoin:miter;stroke-opacity:1" />
        <circle
           r="4.3431296"
           cy="210.99579"
           cx="381.52725"
           id="circle6325"
           style="fill:#9c7459;fill-opacity:1;fill-rule:evenodd;stroke:none;stroke-width:0.26458332px;stroke-linecap:butt;stroke-linejoin:miter;stroke-opacity:1" />
        <path
           inkscape:connector-curvature="0"
           id="path6295"
           d="m 318.18437,204.18042 -3.40768,22.11655"
           style="fill:none;fill-rule:evenodd;stroke:#9d9d9d;stroke-width:0.37041667;stroke-linecap:round;stroke-linejoin:miter;stroke-miterlimit:4;stroke-dasharray:none;stroke-opacity:1" />
        <path
           inkscape:connector-curvature="0"
           id="path6245"
           d="m 381.59406,210.06035 -48.10852,8.4858 -226.24364,40.42452"
           style="fill:none;fill-rule:evenodd;stroke:#8b8275;stroke-width:0.26458332px;stroke-linecap:butt;stroke-linejoin:miter;stroke-opacity:1" />
        <circle
           style="fill:#9c7459;fill-opacity:1;fill-rule:evenodd;stroke:none;stroke-width:0.26458332px;stroke-linecap:butt;stroke-linejoin:miter;stroke-opacity:1"
           id="circle6329"
           cx="358.14117"
           cy="218.81342"
           r="4.3431296" />
        <path
           inkscape:connector-curvature="0"
           id="path6297"
           d="m 367.56242,187.74334 c 1.73725,-0.0668 6.34764,-1.26953 6.34764,-1.87088 0,-0.60136 -0.26725,-4.07586 -0.26725,-4.07586 0,0 -3.94224,-1.80407 -6.61493,-1.80407 -2.67269,0 -5.61266,2.60587 -5.61266,3.00678 0,0.4009 0,3.0736 0.20045,3.4745 0.20045,0.40091 5.21176,1.33635 5.94675,1.26953 z"
           style="fill:#211913;fill-opacity:1;fill-rule:evenodd;stroke:none;stroke-width:0.26458332px;stroke-linecap:butt;stroke-linejoin:miter;stroke-opacity:1" />
        <path
           inkscape:connector-curvature="0"
           id="path6299"
           d="m 390.54759,186.40699 c 0.86863,0 2.00454,0.0668 2.40543,-0.26726 0.4009,-0.33409 1.00227,-1.20272 1.00227,-1.60362 0,-0.40091 0.13362,-4.94449 0,-5.34539 -0.13364,-0.40091 -1.26955,-1.67044 -1.73725,-1.80407 -0.46773,-0.13364 -2.87317,0.26727 -3.20726,0.4009 -0.33408,0.13364 -1.80406,1.60362 -1.80406,2.07134 0,0.46772 0,4.54358 0.0668,5.0113 0.0668,0.46773 2.47227,1.33635 3.27406,1.5368 z"
           style="fill:#211913;fill-opacity:1;fill-rule:evenodd;stroke:none;stroke-width:0.26458332px;stroke-linecap:butt;stroke-linejoin:miter;stroke-opacity:1" />
        <path
           inkscape:connector-curvature="0"
           id="path6301"
           d="m 413.86685,184.06839 c 1.26953,0 2.33863,0 2.73953,-0.33409 0.40089,-0.33409 0.73498,-0.93544 0.66817,-3.60814 -0.0668,-2.67269 -0.26728,-4.81085 -0.80181,-4.81085 -0.53454,0 -3.60815,-0.26727 -3.87541,0.13363 -0.26728,0.40091 -0.73499,1.46998 -0.73499,2.47225 0,1.00226 0.73499,5.74629 2.00451,6.1472 z"
           style="fill:#211913;fill-opacity:1;fill-rule:evenodd;stroke:none;stroke-width:0.26458332px;stroke-linecap:butt;stroke-linejoin:miter;stroke-opacity:1" />
        <path
           inkscape:connector-curvature="0"
           id="path6303"
           d="m 407.58602,211.32988 c 1.20271,0 5.61266,-1.06908 5.94674,-0.40091 0.33409,0.66818 1.26955,7.2831 1.00227,7.55037 -0.26728,0.26727 -1.5368,1.46998 -2.20498,1.60361 -0.66815,0.13364 -3.07359,0.80181 -3.80857,0.53454 -0.73502,-0.26727 -2.80633,-1.80407 -2.80633,-2.47224 0,-0.66817 -0.86863,-5.87993 -0.26728,-6.21402 0.60137,-0.33408 1.80406,-0.73499 2.13815,-0.60135 z"
           style="fill:#211913;fill-opacity:1;fill-rule:evenodd;stroke:none;stroke-width:0.26458332px;stroke-linecap:butt;stroke-linejoin:miter;stroke-opacity:1" />
        <path
           inkscape:connector-curvature="0"
           id="path6247"
           d="m 358.00752,217.34344 -24.38834,5.01131 -223.17005,39.95679"
           style="fill:none;fill-rule:evenodd;stroke:#8b8275;stroke-width:0.26458332px;stroke-linecap:butt;stroke-linejoin:miter;stroke-opacity:1" />
        <path
           inkscape:connector-curvature="0"
           id="path6305"
           d="m 385.60311,217.9448 c 0.53454,-0.20045 2.40543,-1.33635 2.60588,-1.00226 0.20045,0.33408 2.40541,7.41673 2.40541,7.95127 0,0.53453 -3.00678,1.80407 -3.14039,1.26953 -0.13365,-0.53454 -2.00454,-7.81764 -1.8709,-8.21854 z"
           style="fill:#211913;fill-opacity:1;fill-rule:evenodd;stroke:none;stroke-width:0.26458332px;stroke-linecap:butt;stroke-linejoin:miter;stroke-opacity:1" />
        <path
           inkscape:connector-curvature="0"
           id="path6307"
           d="m 364.422,225.36153 c 1.00227,-0.26727 1.60361,-1.00226 2.3386,-1.00226 0.73501,0 4.40994,0.20045 4.40994,1.00226 0,0.80181 0.80182,3.80859 0.80182,4.34313 0,0.53454 -1.46997,2.93996 -2.73952,3.0736 -1.26953,0.13363 -4.07586,0.33408 -5.01129,0.33408 -0.93546,0 -1.80406,-0.66817 -2.07134,-1.00226 -0.26729,-0.33409 -2.00451,-4.00904 -1.73726,-4.40994 0.26728,-0.40091 3.20723,-2.2718 4.00905,-2.33861 z"
           style="fill:#211913;fill-opacity:1;fill-rule:evenodd;stroke:none;stroke-width:0.26458332px;stroke-linecap:butt;stroke-linejoin:miter;stroke-opacity:1" />
        <circle
           r="1.6036172"
           cy="198.03322"
           cx="364.68927"
           id="path6309"
           style="fill:#84624b;fill-opacity:1;fill-rule:evenodd;stroke:none;stroke-width:0.26458332px;stroke-linecap:butt;stroke-linejoin:miter;stroke-opacity:1" />
        <circle
           style="fill:#84624b;fill-opacity:1;fill-rule:evenodd;stroke:none;stroke-width:0.26458332px;stroke-linecap:butt;stroke-linejoin:miter;stroke-opacity:1"
           id="circle6315"
           cx="389.14444"
           cy="196.49641"
           r="1.6036172" />
        <circle
           r="1.6036172"
           cy="194.42508"
           cx="412.86462"
           id="circle6319"
           style="fill:#84624b;fill-opacity:1;fill-rule:evenodd;stroke:none;stroke-width:0.26458332px;stroke-linecap:butt;stroke-linejoin:miter;stroke-opacity:1" />
        <circle
           style="fill:#84624b;fill-opacity:1;fill-rule:evenodd;stroke:none;stroke-width:0.26458332px;stroke-linecap:butt;stroke-linejoin:miter;stroke-opacity:1"
           id="circle6323"
           cx="405.71515"
           cy="204.64813"
           r="1.6036172" />
        <circle
           r="1.6036172"
           cy="210.92897"
           cx="381.59409"
           id="circle6327"
           style="fill:#84624b;fill-opacity:1;fill-rule:evenodd;stroke:none;stroke-width:0.26458332px;stroke-linecap:butt;stroke-linejoin:miter;stroke-opacity:1" />
        <circle
           style="fill:#84624b;fill-opacity:1;fill-rule:evenodd;stroke:none;stroke-width:0.26458332px;stroke-linecap:butt;stroke-linejoin:miter;stroke-opacity:1"
           id="circle6331"
           cx="358.20801"
           cy="218.7466"
           r="1.6036172" />
      </g>
      <g
         inkscape:label="Hands"
         id="layer9">
        <path
           sodipodi:nodetypes="csssssssssccssszc"
           inkscape:connector-curvature="0"
           id="path6336"
           d="m 44.233107,213.80212 c 0,0 11.225318,13.63075 21.916102,18.97614 10.69078,5.34539 20.178847,7.08264 21.782465,7.08264 1.603616,0 7.750815,-2.80633 9.354434,-2.80633 1.603616,0 6.414472,-1.20271 7.750812,-1.20271 1.33635,0 9.35444,8.55262 11.62623,9.48807 2.27179,0.93544 7.48354,2.27178 7.48354,3.20723 0,0.93544 -0.13363,3.74177 -2.13815,4.54358 -2.00452,0.80181 1.73725,0.4009 1.73725,2.93997 0,2.53906 -1.87089,1.87088 -1.87089,5.21175 l 0,3.34087 -39.95679,0 c 0,0 -4.276314,-2.93997 -6.681739,-3.34087 -2.405425,-0.4009 -3.608139,-3.34087 -5.746295,-4.27631 C 67.35192,256.03071 42.763125,253.09074 31.805073,246.67627 20.847023,240.2618 6.9799875,229.46093 7.2324897,226.9956 7.4849919,224.53027 31.537804,211.53033 44.233107,213.80212 Z"
           style="fill:#81604b;fill-opacity:1;fill-rule:evenodd;stroke:none;stroke-width:0.26458332px;stroke-linecap:butt;stroke-linejoin:miter;stroke-opacity:1" />
        <path
           inkscape:connector-curvature="0"
           id="path6338"
           d="m 18.708867,221.95384 c 0.534539,3.0736 16.30344,17.37252 26.459683,18.70887 10.156242,1.33635 22.985179,3.4745 24.856066,3.4745 1.870885,0 6.681737,10.42351 10.289876,10.42351 3.608139,0 5.34539,-11.75986 7.349913,-11.75986 2.004521,0 6.815371,1.33635 6.681737,2.6727 -0.133635,1.33635 -2.405424,8.95353 -0.935444,9.08716 1.469982,0.13364 10.289882,1.33635 11.759862,2.40543 1.46998,1.06908 6.14343,4.40438 8.64752,4.40438 2.50409,0 7.79576,-2.26786 8.31547,-2.74032 0.51972,-0.47247 1.37017,-1.79539 1.27567,-2.64584 -0.0945,-0.85045 -1.84263,-2.36235 -2.3151,-2.36235 -0.47247,0 -7.74851,-0.56696 -9.5439,-0.94494 -1.79538,-0.37798 -5.76413,-2.26786 -6.14211,-2.74033 -0.37798,-0.47247 -3.9215,-4.96093 -3.30729,-5.14992 0.61421,-0.18899 5.14992,5.14992 7.79576,5.66964 2.64583,0.51972 10.48884,2.4096 11.52827,2.22061 1.03943,-0.18899 2.83482,-3.40178 2.36235,-4.11049 -0.47247,-0.70871 -6.52009,-2.50409 -7.60677,-2.97656 -1.08668,-0.47247 -10.15811,-9.26042 -10.91406,-9.26042 -0.75595,0 -6.898066,1.55915 -8.835194,1.65365 -1.937129,0.0945 -7.79576,2.64583 -8.929688,2.59858 -1.13393,-0.0472 -13.370909,-3.54352 -16.961683,-5.00818 -3.590774,-1.46466 -14.835566,-8.69345 -18.190104,-11.76451 -3.354538,-3.07106 -7.890253,-9.5439 -8.646205,-9.63839 -0.755952,-0.0945 -7.370535,0.56696 -15.308035,2.74032 -7.9375,2.17337 -9.782043,4.0379 -9.686594,5.04276 z"
           style="fill:#c4aa9a;fill-opacity:1;fill-rule:evenodd;stroke:none;stroke-width:0.26458332px;stroke-linecap:butt;stroke-linejoin:miter;stroke-opacity:1" />
        <path
           inkscape:connector-curvature="0"
           id="path6340"
           d="m 207.1782,264.58333 c 0,0 -3.49628,-2.12611 -3.59078,-3.44903 -0.0945,-1.32292 -1.22842,-8.22098 -0.94494,-9.07143 0.28349,-0.85045 1.65365,-3.35454 2.26786,-3.54353 0.61421,-0.18899 -1.46466,-6.00037 -1.41741,-7.65402 0.0472,-1.65364 2.3151,-8.12648 2.59858,-8.50446 0.28349,-0.37798 1.51191,-1.79539 2.92932,-1.22842 1.41741,0.56696 2.22061,1.79538 2.22061,2.4096 0,0.61421 -0.23623,2.83482 0.0472,2.83482 0.28348,0 2.55134,-3.02381 3.40178,-3.02381 0.85045,0 3.2128,0.66146 3.2128,1.18117 0,0.51972 -0.33073,2.31511 -0.0945,2.97657 0.23623,0.66145 4.20498,5.71688 4.7247,5.71688 0.51972,0 2.3151,-0.23623 1.98437,-0.51971 -0.33072,-0.28348 -1.22842,-1.03944 -1.22842,-1.93713 0,-0.89769 0.47247,-5.43341 1.03944,-6.28385 0.56696,-0.85045 1.93712,-1.65365 2.97656,-1.65365 1.03943,0 3.02381,0.37798 3.02381,1.13393 0,0.75595 -0.33073,1.22842 0.28348,1.88988 0.61421,0.66146 4.34673,4.39397 6.18936,4.67745 1.84264,0.28349 11.24479,-2.3151 11.57552,-1.93712 0.33073,0.37797 3.02381,4.6302 2.55134,6.18936 -0.47247,1.55915 -3.16555,4.91369 -3.77976,7.41778 -0.61421,2.50409 -1.79539,7.55952 -2.07887,8.36272 -0.28348,0.8032 -4.58296,4.016 -4.58296,4.016 z"
           style="fill:#81604b;fill-opacity:1;fill-rule:evenodd;stroke:none;stroke-width:0.26458332px;stroke-linecap:butt;stroke-linejoin:miter;stroke-opacity:1" />
        <path
           inkscape:connector-curvature="0"
           id="path6342"
           d="m 248.18861,239.54241 c 0.18899,0.37797 2.4096,3.16555 2.36236,4.34672 -0.0473,1.18118 -1.93713,3.68527 -2.69308,3.68527 -0.75596,0 -9.35492,1.22842 -11.67002,1.22842 -2.31511,0 -5.5279,0.51972 -6.4256,-0.66145 -0.89769,-1.18118 -5.4334,-6.04762 -5.48065,-7.1343 -0.0472,-1.08669 0.23623,-5.6224 0.56696,-6.14212 0.33073,-0.51971 1.18118,-1.6064 2.36235,-1.5119 1.18118,0.0945 2.17337,-0.0472 2.22062,0.8032 0.0472,0.85044 -0.14175,0.47247 0.85044,1.70089 0.99219,1.22842 4.7247,4.91369 5.81139,5.05543 1.08668,0.14174 10.72507,-1.98437 12.09523,-1.37016 z"
           style="fill:#c4aa9a;fill-opacity:1;fill-rule:evenodd;stroke:none;stroke-width:0.26458332px;stroke-linecap:butt;stroke-linejoin:miter;stroke-opacity:1" />
        <path
           inkscape:connector-curvature="0"
           id="path6344"
           d="m 214.87946,233.92001 c -0.7087,0.0945 -3.30729,2.36235 -3.30729,2.88207 0,0.51972 -0.0945,4.53572 2.36235,7.89025 2.45685,3.35454 6.3311,5.71689 7.1343,5.71689 0.8032,0 4.20499,-0.0472 4.20499,-1.08668 0,-1.03943 -8.22099,-11.24479 -8.22099,-11.95349 0,-0.70871 0.42523,-2.31511 0.23624,-2.59859 -0.18899,-0.28348 -1.6064,-0.8032 -2.4096,-0.85045 z"
           style="fill:#c4aa9a;fill-opacity:1;fill-rule:evenodd;stroke:none;stroke-width:0.26458332px;stroke-linecap:butt;stroke-linejoin:miter;stroke-opacity:1" />
        <path
           inkscape:connector-curvature="0"
           id="path6346"
           d="m 210.34375,233.35305 c -0.42523,-0.47247 -0.8032,-1.98438 -1.93713,-1.93713 -1.13393,0.0472 -2.03162,0.70871 -2.17336,1.32292 -0.14175,0.61421 -2.31511,6.61458 -2.31511,7.60677 0,0.99219 1.22842,2.59858 2.22061,2.59858 0.99219,0 3.11831,-0.14174 3.2128,-1.32291 0.0945,-1.18118 -0.0473,-1.46466 0.0472,-2.78758 0.0945,-1.32291 1.27567,-3.96875 0.94494,-5.48065 z"
           style="fill:#c4aa9a;fill-opacity:1;fill-rule:evenodd;stroke:none;stroke-width:0.26458332px;stroke-linecap:butt;stroke-linejoin:miter;stroke-opacity:1" />
        <path
           inkscape:connector-curvature="0"
           id="path6348"
           d="m 209.63504,261.18155 c 0,-0.8977 -2.78757,-3.54353 -2.78757,-5.81139 0,-2.26786 -0.0472,-3.07106 -0.18899,-3.73251 -0.14174,-0.66146 -0.94494,-2.4096 -1.41741,-2.4096 -0.47247,0 -2.22061,1.93712 -2.22061,2.74033 0,0.80319 0.51972,8.26822 0.75595,8.74069 0.23624,0.47248 2.26786,2.78758 2.74033,2.78758 0.47247,0 3.1183,0.51971 3.1183,-2.3151 z"
           style="fill:#c4aa9a;fill-opacity:1;fill-rule:evenodd;stroke:none;stroke-width:0.26458332px;stroke-linecap:butt;stroke-linejoin:miter;stroke-opacity:1" />
        <g
           transform="matrix(0.26458333,0,0,0.26458333,161.77318,78.358245)"
           id="g6680" />
      </g>
    </g>
  </g>
  <g
     inkscape:groupmode="layer"
     id="layer2"
     inkscape:label="Orange Banner">
    <rect
       style="opacity:1;fill:#de3d2d;fill-opacity:1;stroke:none;stroke-width:11.03082752;stroke-miterlimit:4;stroke-dasharray:none;stroke-opacity:1"
       id="rect4144"
       width="338.66669"
       height="43.65625"
       x="0"
       y="146.84375" />
  </g>
  <g
     inkscape:label="Blue Banner"
     id="g4203"
     inkscape:groupmode="layer"
     style="display:none">
    <rect
       y="146.84375"
       x="0"
       height="43.65625"
       width="338.66669"
       id="rect4205"
       style="opacity:1;fill:#407d93;fill-opacity:1;stroke:none;stroke-width:11.03082752;stroke-miterlimit:4;stroke-dasharray:none;stroke-opacity:1" />
  </g>
  <g
     inkscape:groupmode="layer"
     id="layer3"
     inkscape:label="Discover"
     style="display:inline">
    <text
       xml:space="preserve"
       style="font-style:normal;font-variant:normal;font-weight:normal;font-stretch:normal;font-size:24.31099701px;line-height:125%;font-family:Museo;-inkscape-font-specification:'Museo, Normal';text-align:start;letter-spacing:0px;word-spacing:0px;writing-mode:lr-tb;text-anchor:start;fill:#ffffff;fill-opacity:1;stroke:none;stroke-width:0.6077776px;stroke-linecap:butt;stroke-linejoin:miter;stroke-opacity:1"
       x="146.70697"
       y="45.417717"
       id="text4147"
       sodipodi:linespacing="125%"><tspan
         sodipodi:role="line"
         id="tspan4164"
         x="146.70697"
         y="45.417717"
         style="stroke-width:0.6077776px">DISCOVER:</tspan></text>
  </g>
  <g
     inkscape:label="Interview"
     id="g4209"
     inkscape:groupmode="layer"
     style="display:none">
    <text
       sodipodi:linespacing="125%"
       id="text4211"
       y="40.767208"
       x="173.85484"
       style="font-style:normal;font-variant:normal;font-weight:normal;font-stretch:normal;font-size:20.26743698px;line-height:125%;font-family:Museo;-inkscape-font-specification:'Museo, Normal';text-align:start;letter-spacing:0px;word-spacing:0px;writing-mode:lr-tb;text-anchor:start;fill:#ffffff;fill-opacity:1;stroke:none;stroke-width:0.50668812px;stroke-linecap:butt;stroke-linejoin:miter;stroke-opacity:1"
       xml:space="preserve"><tspan
         id="tspan4213"
         sodipodi:role="line"
         x="173.85484"
         y="40.767208">INTERVIEW:</tspan></text>
  </g>
  <g
     inkscape:groupmode="layer"
     id="layer4"
     inkscape:label="Artist Name">
    <text
       xml:space="preserve"
       style="font-style:normal;font-variant:normal;font-weight:600;font-stretch:normal;font-size:40.8548851px;line-height:100%;font-family:Museo;-inkscape-font-specification:'Museo, Semi-Bold';text-align:start;letter-spacing:0px;word-spacing:0px;writing-mode:lr-tb;text-anchor:start;fill:#ffffff;fill-opacity:1;stroke:none;stroke-width:1.02136326px;stroke-linecap:butt;stroke-linejoin:miter;stroke-opacity:1"
       x="147.21431"
       y="81.243225"
       id="text4158"
       sodipodi:linespacing="100%"><tspan
         sodipodi:role="line"
         x="147.21431"
         y="81.243225"
         style="font-style:normal;font-variant:normal;font-weight:600;font-stretch:normal;font-size:40.8548851px;line-height:100%;font-family:Museo;-inkscape-font-specification:'Museo, Semi-Bold';text-align:start;writing-mode:lr-tb;text-anchor:start;fill:#ffffff;fill-opacity:1;stroke-width:1.02136326px"
         id="tspan4233">Steve Ball</tspan></text>
  </g>
  <g
     inkscape:groupmode="layer"
     id="layer6"
     inkscape:label="WEIRD">
    <path
       style="opacity:1;fill:#ffffff;fill-opacity:1;stroke:none;stroke-width:17.2258606;stroke-miterlimit:4;stroke-dasharray:none;stroke-opacity:1"
       d="M 245.3457 602.625 L 245.3457 672.625 L 495.3457 672.625 L 495.3457 602.625 L 245.3457 602.625 z M 254.20703 613.5 L 258.08398 613.5 C 261.48345 613.5 263.18217 614.17987 263.99805 617.44336 L 271.4082 648.31055 C 272.02011 650.89414 272.36133 653.41016 272.36133 653.41016 L 272.49609 653.41016 C 272.49609 653.41016 272.90446 650.96213 273.65234 648.31055 L 283.30664 613.63477 L 289.42578 613.63477 L 298.40039 648.31055 C 299.08028 650.96213 299.41992 653.41016 299.41992 653.41016 L 299.55664 653.41016 C 299.55664 653.41016 299.8295 650.89414 300.44141 648.31055 L 307.98828 617.44336 C 308.80415 614.17987 310.43452 613.5 313.83398 613.5 L 317.70898 613.5 L 317.70898 619.3457 L 316.68945 619.3457 C 315.46565 619.3457 314.71885 619.61799 314.37891 620.8418 L 303.83984 661.5 L 295.95312 661.5 L 287.79492 631.17773 C 286.97905 628.05022 286.43555 624.58203 286.43555 624.58203 L 286.29883 624.58203 C 286.29883 624.58203 285.61824 628.04985 284.73438 631.10938 L 276.0332 661.5 L 268.07812 661.5 L 257.53906 620.8418 C 257.19912 619.61799 256.45232 619.3457 255.22852 619.3457 L 254.20703 619.3457 L 254.20703 613.5 z M 326.5 613.5 L 354.7168 613.5 C 357.77632 613.5 359.06641 614.79204 359.06641 617.85156 L 359.06641 623.90234 L 352.88086 623.90234 L 352.88086 620.8418 C 352.88086 619.82196 352.33662 619.3457 351.38477 619.3457 L 337.71875 619.3457 L 337.71875 634.37305 L 354.51172 634.37305 L 354.51172 640.21875 L 337.71875 640.21875 L 337.71875 654.15625 C 337.71875 655.1081 338.26299 655.65234 339.21484 655.65234 L 353.2207 655.65234 C 354.17255 655.65234 354.7168 655.1081 354.7168 654.15625 L 354.7168 651.09766 L 360.9707 651.09766 L 360.9707 657.14844 C 360.9707 660.20796 359.67866 661.5 356.61914 661.5 L 335.27148 661.5 C 332.21196 661.5 330.91992 660.20796 330.91992 657.14844 L 330.91992 619.3457 L 326.5 619.3457 L 326.5 613.5 z M 370.41406 613.5 L 386.25586 613.5 L 386.25586 619.3457 L 381.56445 619.3457 L 381.56445 655.65234 L 386.25586 655.65234 L 386.25586 661.5 L 370.41406 661.5 L 370.41406 655.65234 L 375.10547 655.65234 L 375.10547 619.3457 L 370.41406 619.3457 L 370.41406 613.5 z M 396.6543 613.5 L 417.5957 613.5 C 426.02638 613.5 431.94141 618.80359 431.94141 627.57422 C 431.94141 635.59696 426.70611 639.53923 423.30664 640.28711 L 423.30664 640.42383 C 423.30664 640.42383 424.52983 641.03585 425.3457 642.59961 L 431.125 654.08984 C 431.80489 655.51762 432.89365 655.65234 434.52539 655.65234 L 435.4082 655.65234 L 435.4082 661.5 L 432.07812 661.5 C 428.33871 661.5 426.97782 661.02399 425.41406 657.89648 L 418.88672 644.97852 C 417.66291 642.73487 416.78049 642.39453 414.12891 642.39453 L 407.87305 642.39453 L 407.87305 661.5 L 401.07422 661.5 L 401.07422 619.3457 L 396.6543 619.3457 L 396.6543 613.5 z M 443.75 613.5 L 463.19531 613.5 C 477.81302 613.5 487.4668 622.27002 487.4668 637.43164 C 487.4668 652.66125 477.81302 661.5 463.19531 661.5 L 452.51953 661.5 C 449.46001 661.5 448.16992 660.20796 448.16992 657.14844 L 448.16992 619.3457 L 443.75 619.3457 L 443.75 613.5 z M 407.87305 619.3457 L 407.87305 636.54883 L 416.71094 636.54883 C 421.87813 636.54883 424.9375 633.21686 424.9375 627.8457 C 424.9375 622.47455 421.87887 619.3457 416.84766 619.3457 L 407.87305 619.3457 z M 454.96875 619.3457 L 454.96875 654.15625 C 454.96875 655.1081 455.51299 655.65234 456.46484 655.65234 L 462.71875 655.65234 C 473.39308 655.65234 480.39648 649.26179 480.39648 637.43164 C 480.39648 625.66949 473.32509 619.3457 462.71875 619.3457 L 454.96875 619.3457 z "
       transform="scale(0.26458334)"
       id="rect4172" />
  </g>
  <g
     inkscape:groupmode="layer"
     id="layer7"
     inkscape:label="MAKE">
    <text
       xml:space="preserve"
       style="font-style:normal;font-variant:normal;font-weight:normal;font-stretch:normal;font-size:17.99166679px;line-height:100%;font-family:Museo;-inkscape-font-specification:'Museo, Normal';text-align:start;letter-spacing:0px;word-spacing:0px;writing-mode:lr-tb;text-anchor:start;fill:#ffffff;fill-opacity:1;stroke:none;stroke-width:0.26458335px;stroke-linecap:butt;stroke-linejoin:miter;stroke-opacity:1"
       x="10.690782"
       y="175.02188"
       id="text4175"
       sodipodi:linespacing="100%"><tspan
         sodipodi:role="line"
         id="tspan4177"
         x="10.690782"
         y="175.02188"
         style="font-style:normal;font-variant:normal;font-weight:normal;font-stretch:normal;font-size:17.99166679px;line-height:100%;font-family:Museo;-inkscape-font-specification:'Museo, Normal';text-align:start;writing-mode:lr-tb;text-anchor:start;fill:#ffffff;fill-opacity:1;stroke-width:0.26458335px;letter-spacing:1.32291669px">MAKE</tspan></text>
  </g>
  <g
     inkscape:groupmode="layer"
     id="layer8"
     inkscape:label="MUSIC">
    <text
       xml:space="preserve"
       style="font-style:normal;font-variant:normal;font-weight:normal;font-stretch:normal;font-size:17.99166679px;line-height:100%;font-family:Museo;-inkscape-font-specification:'Museo, Normal';text-align:start;letter-spacing:0px;word-spacing:0px;writing-mode:lr-tb;text-anchor:start;fill:#ffffff;fill-opacity:1;stroke:none;stroke-width:0.26458335px;stroke-linecap:butt;stroke-linejoin:miter;stroke-opacity:1"
       x="134.21758"
       y="174.80598"
       id="text4180"
       sodipodi:linespacing="100%"><tspan
         sodipodi:role="line"
         id="tspan4182"
         x="134.21758"
         y="174.80598"
         style="font-style:normal;font-variant:normal;font-weight:normal;font-stretch:normal;font-size:17.99166679px;line-height:100%;font-family:Museo;-inkscape-font-specification:'Museo, Normal';text-align:start;writing-mode:lr-tb;text-anchor:start;fill:#ffffff;fill-opacity:1;stroke-width:0.26458335px">MUSIC</tspan></text>
  </g>
</svg>
