<?xml version="1.0" encoding="UTF-8" standalone="no"?>
<!-- Created with Inkscape (http://www.inkscape.org/) -->

<svg
   xmlns:dc="http://purl.org/dc/elements/1.1/"
   xmlns:cc="http://creativecommons.org/ns#"
   xmlns:rdf="http://www.w3.org/1999/02/22-rdf-syntax-ns#"
   xmlns:svg="http://www.w3.org/2000/svg"
   xmlns="http://www.w3.org/2000/svg"
   xmlns:xlink="http://www.w3.org/1999/xlink"
   xmlns:sodipodi="http://sodipodi.sourceforge.net/DTD/sodipodi-0.dtd"
   xmlns:inkscape="http://www.inkscape.org/namespaces/inkscape"
   width="1000"
   height="1000"
   viewBox="0 0 264.58333 264.58334"
   id="svg4332"
   version="1.1"
   inkscape:version="0.91+devel r13925"
   sodipodi:docname="morgan-agren.svg"
   inkscape:export-filename="/Users/agarone/Documents/git/art/morgan-agren/morgan-agren.png"
   inkscape:export-xdpi="96"
   inkscape:export-ydpi="96">
  <defs
     id="defs4334">
    <linearGradient
       inkscape:collect="always"
       id="linearGradient7913">
      <stop
         style="stop-color:#7f7f7f;stop-opacity:1"
         offset="0"
         id="stop7915" />
      <stop
         style="stop-color:#515151;stop-opacity:1"
         offset="1"
         id="stop7917" />
    </linearGradient>
    <radialGradient
       inkscape:collect="always"
       xlink:href="#linearGradient7913"
       id="radialGradient8976"
       gradientUnits="userSpaceOnUse"
       gradientTransform="matrix(13.253546,-4.9705005,2.7978043,7.3369288,-115.72759,314.36085)"
       cx="96.242447"
       cy="80.507111"
       fx="96.242447"
       fy="80.507111"
       r="58.152756" />
  </defs>
  <sodipodi:namedview
     id="base"
     pagecolor="#ffffff"
     bordercolor="#666666"
     borderopacity="1.0"
     inkscape:pageopacity="0.0"
     inkscape:pageshadow="2"
     inkscape:zoom="0.7"
     inkscape:cx="820.1494"
     inkscape:cy="440.89107"
     inkscape:document-units="px"
     inkscape:current-layer="layer15"
     showgrid="false"
     units="px"
     showguides="true"
     inkscape:guide-bbox="true"
     inkscape:window-width="1920"
     inkscape:window-height="1151"
     inkscape:window-x="0"
     inkscape:window-y="1"
     inkscape:window-maximized="1">
    <sodipodi:guide
       position="264.58333,0"
       orientation="1,0"
       id="guide4340"
       inkscape:label=""
       inkscape:color="rgb(0,0,255)" />
    <sodipodi:guide
       position="0,0"
       orientation="1,0"
       id="guide4342"
       inkscape:label=""
       inkscape:color="rgb(0,0,255)" />
    <sodipodi:guide
       position="0,0"
       orientation="0,1"
       id="guide4344"
       inkscape:label=""
       inkscape:color="rgb(0,0,255)" />
    <sodipodi:guide
       position="0,264.58333"
       orientation="0,1"
       id="guide4346"
       inkscape:label=""
       inkscape:color="rgb(0,0,255)" />
  </sodipodi:namedview>
  <metadata
     id="metadata4337">
    <rdf:RDF>
      <cc:Work
         rdf:about="">
        <dc:format>image/svg+xml</dc:format>
        <dc:type
           rdf:resource="http://purl.org/dc/dcmitype/StillImage" />
        <dc:title></dc:title>
      </cc:Work>
    </rdf:RDF>
  </metadata>
  <g
     inkscape:label="BG"
     inkscape:groupmode="layer"
     id="layer1"
     transform="translate(0,-32.41665)"
     style="display:none">
    <rect
       style="display:inline;opacity:1;fill:#ffffff;fill-opacity:1;stroke:none;stroke-width:11.60810661;stroke-miterlimit:4;stroke-dasharray:none;stroke-opacity:1"
       id="rect5606"
       width="264.58334"
       height="264.58334"
       x="0"
       y="32.416653" />
  </g>
  <g
     inkscape:groupmode="layer"
     id="layer19"
     inkscape:label="Body">
    <path
       style="fill:#222222;fill-opacity:1;fill-rule:evenodd;stroke:#000000;stroke-width:0.26458332px;stroke-linecap:butt;stroke-linejoin:miter;stroke-opacity:1"
       d="m 71.027435,128.34943 c 0,0 -12.441127,3.94223 -15.464936,5.83212 -3.023809,1.88988 -8.523062,11.86775 -12.532106,12.13502 -4.009043,0.26726 -10.156242,2.13815 -14.432555,5.47902 -4.276311,3.34087 -18.040692,15.90254 -20.9806564,18.17433 C 4.6772168,172.24171 0,175.31531 0,175.31531 l 0,89.26802 264.58332,0 0,-39.02135 z"
       id="path8238"
       inkscape:connector-curvature="0"
       sodipodi:nodetypes="cssssccccc" />
    <path
       style="fill:#363636;fill-rule:evenodd;stroke:none;stroke-width:0.26458332px;stroke-linecap:butt;stroke-linejoin:miter;stroke-opacity:1;fill-opacity:1"
       d="m 20.410714,179.3497 c 0,0 15.308036,17.76488 17.386904,31.56101 2.078871,13.79613 1.13393,20.97768 -1.133928,31.75 -2.267857,10.77232 -4.346725,21.92262 -4.346725,21.92262 L 0,264.58333 0,176.70387 c 0,0 13.418155,-3.2128 20.410714,2.64583 z"
       id="path8260"
       inkscape:connector-curvature="0" />
    <path
       style="fill:#363636;fill-rule:evenodd;stroke:none;stroke-width:0.26458332px;stroke-linecap:butt;stroke-linejoin:miter;stroke-opacity:1;fill-opacity:1"
       d="m 61.471992,135.62579 c 0,0 -1.603619,9.48806 -1.202714,15.63526 0.400905,6.1472 3.34087,13.76438 3.34087,15.10073 0,1.33635 -1.737254,4.67722 -1.603619,8.55262 0.133636,3.87541 4.677217,15.90254 15.902538,28.86511 11.225318,12.96257 33.943233,42.89676 35.012303,47.17307 1.06908,4.27632 2.40543,13.63075 2.40543,13.63075 l 19.24341,0 c 0,0 -19.51068,-20.57975 -20.57976,-32.47325 -1.06908,-11.89349 3.20724,-19.91158 -8.01808,-31.9387 -11.225323,-12.02713 -17.639791,-17.63979 -18.842505,-22.45065 -1.202714,-4.81085 -10.289876,-24.32152 -10.156243,-33.00778 0.133636,-8.68626 -15.50163,-9.08716 -15.50163,-9.08716 z"
       id="path8240"
       inkscape:connector-curvature="0" />
    <path
       style="fill:#424242;fill-rule:evenodd;stroke:none;stroke-width:0.26458332px;stroke-linecap:butt;stroke-linejoin:miter;stroke-opacity:1;fill-opacity:1"
       d="m 60.937451,151.26105 c 0,0 -2.806329,-1.33635 -4.677216,-1.33635 -1.870888,0 -4.944486,7.88446 -8.552625,8.28536 -3.608138,0.4009 -6.815373,-0.53454 -10.557147,0.80181 -3.741772,1.33635 -9.888971,5.87993 -11.091684,9.2208 -1.202713,3.34086 -4.944487,11.22532 -4.944487,11.22532 0,0 -7.617181,-3.34087 -11.492589,-3.47451 C 5.7462948,175.84985 0,176.65166 0,176.65166 c 0,0 14.03165,-8.55263 19.777945,-14.29892 5.746295,-5.7463 9.755338,-11.75986 16.30344,-13.22984 6.548104,-1.46999 8.285355,0.13363 11.626225,-2.2718 3.34087,-2.40542 7.349911,-14.83345 8.418989,-10.82441 1.069078,4.00904 4.276315,3.74177 4.810852,15.23436 z"
       id="path8242"
       inkscape:connector-curvature="0" />
    <path
       style="fill:#373737;fill-opacity:1;fill-rule:evenodd;stroke:none;stroke-width:0.26458332px;stroke-linecap:butt;stroke-linejoin:miter;stroke-opacity:1"
       d="m 73.993366,238.71747 c 0,0 -12.65501,6.62246 -14.124993,10.89877 -1.469982,4.27631 -4.677216,5.34539 -8.68626,7.21627 -4.009043,1.87089 -10.423511,7.75082 -10.423511,7.75082 l 46.905803,0 z"
       id="path8244"
       inkscape:connector-curvature="0"
       sodipodi:nodetypes="cssccc" />
    <path
       style="fill:#757575;fill-rule:evenodd;stroke:none;stroke-width:0.26458332px;stroke-linecap:butt;stroke-linejoin:miter;stroke-opacity:1;fill-opacity:1"
       d="m 20.221726,179.53869 c 0,0 -6.803571,6.42559 -7.9375,13.79613 -1.133929,7.37053 -2.8348213,21.16667 -5.2916667,26.83631 C 4.5357142,225.84077 0,250.7872 0,250.7872 l 0,-23.62351 c 0,0 4.5357142,-10.58334 4.7247024,-15.49703 0.1889881,-4.91369 2.2678569,-19.84375 4.346726,-23.05654 2.0788686,-3.2128 6.6145836,-11.1503 6.6145836,-11.1503 0,0 1.700893,-0.37798 4.535714,2.07887 z"
       id="path8246"
       inkscape:connector-curvature="0" />
    <path
       style="fill:#757575;fill-rule:evenodd;stroke:none;stroke-width:0.26458332px;stroke-linecap:butt;stroke-linejoin:miter;stroke-opacity:1;fill-opacity:1"
       d="m 13.040178,176.70387 c -0.283482,-0.18899 -3.16555,-0.99219 -4.3939729,-0.8977 -1.2284225,0.0945 -1.7008927,0.28348 -1.7008927,0.28348 0,0 -0.8976934,3.73252 -1.7481399,6.18937 C 4.346726,184.73586 2.4095982,187.3817 2.078869,190.54724 1.7481399,193.7128 0,198.81547 0,198.81547 l 0,13.74889 c 0,0 1.5119047,-3.82701 2.1733631,-8.22098 0.6614584,-4.39398 2.126116,-13.46541 2.7403274,-14.93006 0.6142112,-1.46466 3.6852677,-6.18936 4.488467,-6.99256 0.8031995,-0.8032 3.5907735,-5.19718 3.6380205,-5.71689 z"
       id="path8250"
       inkscape:connector-curvature="0" />
    <path
       style="fill:#757575;fill-rule:evenodd;stroke:none;stroke-width:0.26458332px;stroke-linecap:butt;stroke-linejoin:miter;stroke-opacity:1;fill-opacity:1"
       d="m 3.6380208,176.2314 c 0,0 -0.6142114,4.96093 -1.3229167,6.75632 C 1.6063988,184.78311 0,188.56287 0,188.56287 l 0,-8.12649 0.94494047,-3.63802 c 0,0 1.65364583,-0.47247 2.69308033,-0.56696 z"
       id="path8252"
       inkscape:connector-curvature="0" />
    <path
       style="fill:#757575;fill-opacity:1;fill-rule:evenodd;stroke:none;stroke-width:0.31103873px;stroke-linecap:butt;stroke-linejoin:miter;stroke-opacity:1"
       d="m 73.793839,241.69939 c 0,0 -4.982576,2.61531 -7.473865,5.6665 -2.49129,3.05118 -6.114984,9.15358 -8.606271,9.80741 -2.491287,0.65382 -10.644599,7.41003 -10.644599,7.41003 l 8.266452,0 c 0,0 5.284823,-4.23798 6.726135,-4.77736 1.441317,-0.53939 3.523218,-4.70031 4.243873,-5.62497 0.720659,-0.92465 5.044605,-5.54789 6.165626,-6.3955 1.121023,-0.84759 3.363069,-1.92635 3.363069,-1.92635 0,0 -1.118134,-4.46682 -2.04042,-4.15976 z"
       id="path8254"
       inkscape:connector-curvature="0" />
    <path
       style="fill:#757575;fill-opacity:1;fill-rule:evenodd;stroke:none;stroke-width:0.31103873px;stroke-linecap:butt;stroke-linejoin:miter;stroke-opacity:1"
       d="m 76.955283,249.55775 c 0,0 -4.083728,2.6969 -5.364896,4.5462 -1.281169,1.8493 -4.323946,6.2414 -5.284823,6.93488 -0.960874,0.6935 -3.763433,3.5445 -3.763433,3.5445 l 8.087379,0 c 0,0 1.040951,-1.69519 1.84168,-2.54278 0.800731,-0.84761 1.921756,-4.31505 2.642411,-5.16264 0.720658,-0.8476 3.282995,-2.61985 3.282995,-3.00513 0,-0.38525 -1.441313,-4.31503 -1.441313,-4.31503 z"
       id="path8256"
       inkscape:connector-curvature="0" />
    <path
       style="fill:#757575;fill-opacity:1;fill-rule:evenodd;stroke:none;stroke-width:0.31103873px;stroke-linecap:butt;stroke-linejoin:miter;stroke-opacity:1"
       d="m 74.333745,238.64363 c 0,0 -8.668765,4.36451 -9.949933,6.05971 -1.281169,1.69519 -2.962702,6.08728 -4.404019,7.47425 -1.441315,1.38699 -7.687013,4.00682 -9.688839,5.16264 -2.001827,1.15582 -8.968183,7.2431 -8.968183,7.2431 l -2.882631,0 c 0,0 7.286648,-5.93317 9.528695,-7.47427 2.242045,-1.54108 9.848985,-4.16091 10.72979,-5.16262 0.880803,-1.00172 3.843506,-7.47427 4.564162,-8.09071 0.72066,-0.61642 10.169281,-7.01192 10.169281,-7.01192 z"
       id="path8258"
       inkscape:connector-curvature="0"
       sodipodi:nodetypes="csssccssccc" />
    <path
       style="fill:#363636;fill-rule:evenodd;stroke:none;stroke-width:0.26458332px;stroke-linecap:butt;stroke-linejoin:miter;stroke-opacity:1;fill-opacity:1"
       d="m 157.28811,264.58333 c 0,0 -2.67269,-15.63527 -4.27631,-25.65787 -1.60361,-10.02261 -3.20723,-28.0633 0.93545,-37.95228 4.14267,-9.88897 13.49711,-21.64883 13.49711,-21.64883 l 2.27179,8.8199 c 0,0 -14.43256,27.66239 -15.10073,38.88771 -0.66817,11.22532 5.21175,37.55137 5.21175,37.55137 z"
       id="path8262"
       inkscape:connector-curvature="0" />
    <path
       style="fill:#363636;fill-rule:evenodd;stroke:none;stroke-width:0.26458332px;stroke-linecap:butt;stroke-linejoin:miter;stroke-opacity:1;fill-opacity:1"
       d="m 232.25722,264.58333 c 0,0 -6.28084,-4.27631 -8.28536,-10.95805 -2.00452,-6.68174 -2.40542,-9.88897 -5.47902,-13.49711 -3.0736,-3.60814 -4.67722,-2.13816 -4.67722,-8.68626 0,-6.5481 -0.4009,-12.82894 -0.4009,-12.82894 l 51.1686,-2.93996 0,48.91032 z"
       id="path8264"
       inkscape:connector-curvature="0" />
  </g>
  <g
     inkscape:groupmode="layer"
     id="layer13"
     inkscape:label="Face"
     style="display:inline">
    <path
       style="fill:#969696;fill-opacity:1;fill-rule:evenodd;stroke:none;stroke-width:0.26458332px;stroke-linecap:butt;stroke-linejoin:miter;stroke-opacity:1"
       d="m 144.00893,67.657738 c -3.59078,-1.13393 -7.18155,-2.834823 -7.74852,-6.236608 -0.56696,-3.401788 -2.64583,-3.590773 -10.01636,-3.779762 -7.37054,-0.188987 -21.54465,4.91369 -24.19048,11.528274 -2.645832,6.614583 -0.56696,11.71726 -1.88988,17.197916 -1.322917,5.480656 -3.96875,3.023809 -9.07143,17.953872 -5.102678,14.93006 -9.638393,36.28571 -8.882438,41.01041 0.755951,4.72471 3.77976,14.93006 16.252975,32.50596 12.473213,17.57589 19.654763,20.97767 28.159223,22.67857 8.50447,1.70089 21.12312,-3.09653 22.63502,-6.30932 1.51191,-3.2128 7.87985,-12.00909 7.87985,-12.00909 L 180.67262,81.831843 c 0,0 -5.66965,-0.188987 -12.47322,-1.700892 -6.80357,-1.511904 -21.54464,-9.82738 -24.19047,-12.473213 z"
       id="path7704"
       inkscape:connector-curvature="0"
       sodipodi:nodetypes="csssssssssccsc" />
    <path
       style="fill:#373737;fill-opacity:1;fill-rule:evenodd;stroke:none;stroke-width:0.26458332px;stroke-linecap:butt;stroke-linejoin:miter;stroke-opacity:1"
       d="m 143.63095,126.43303 c -0.18899,-1.32291 -3.19243,-6.34121 -5.05879,-7.92603 -2.32064,-1.97057 -11.1137,-9.40461 -12.71755,-9.38259 -1.60227,0.022 -4.7473,1.02139 -6.16389,1.80014 -1.23429,0.67853 -1.75822,3.2128 -1.75822,3.2128 0,0 3.90193,-1.90135 6.54777,-0.76742 2.64583,1.13393 9.74516,4.04703 12.30322,6.49241 2.35031,2.2468 6.2805,6.75968 6.84746,6.57069 z"
       id="path7706"
       inkscape:connector-curvature="0"
       sodipodi:nodetypes="cssscssc" />
    <path
       style="fill:#272727;fill-opacity:1;fill-rule:evenodd;stroke:none;stroke-width:0.26458332px;stroke-linecap:butt;stroke-linejoin:miter;stroke-opacity:1"
       d="m 115.52725,118.85462 c 0,0 2.20498,-1.06908 3.60814,-1.00226 1.40317,0.0668 3.94223,1.33635 6.48129,1.93771 2.53906,0.60135 6.61492,1.80406 7.61718,2.07133 1.00226,0.26727 2.53906,2.40543 3.67495,3.14042 1.1359,0.73499 1.87089,2.20497 1.46999,2.20497 -0.40091,0 -2.47225,-2.47224 -3.67496,-2.87314 -1.20271,-0.40091 -3.34087,-0.73499 -5.41221,-1.46999 -2.07134,-0.73499 -7.81763,-3.20723 -9.35443,-3.27405 -1.5368,-0.0668 -3.74177,-0.4009 -4.40995,-0.73499 z"
       id="path7708"
       inkscape:connector-curvature="0" />
    <path
       style="fill:#848484;fill-opacity:1;fill-rule:evenodd;stroke:none;stroke-width:0.99999994px;stroke-linecap:butt;stroke-linejoin:miter;stroke-opacity:1"
       d="M 471.73047 218.87695 C 462.3103 218.88343 451.6951 219.8788 442.19336 223.19336 C 420.47506 230.76951 391.68632 257.28577 389.66602 267.13477 C 387.64571 276.98376 386.8875 313.34905 384.86719 321.17773 C 382.84688 329.00642 383.60602 336.3297 375.77734 342.39062 C 367.94866 348.45155 357.84668 362.84693 356.58398 369.91797 C 355.3213 376.98905 339.91581 418.91042 339.1582 429.76953 C 338.40058 440.62868 319.20742 506.28829 318.19727 513.35938 C 317.18712 520.43042 317.94474 550.98701 323.24805 568.41211 C 328.55136 585.83728 348.75568 620.6875 350.52344 620.6875 C 351.53534 620.6875 349.71877 611.68968 347.51953 603.4082 C 354.99258 616.34292 364.87391 634.83008 367.44336 634.83008 C 371.23143 634.83008 370.47345 612.85878 373.50391 605.53516 C 376.53437 598.21157 386.13086 589.37227 386.13086 591.39258 C 386.13086 593.41289 376.78711 600.23188 376.78711 610.58594 C 376.78711 620.93999 380.57559 634.07227 385.87891 634.07227 C 391.18219 634.07227 389.91899 612.10212 396.23242 604.27344 C 402.5459 596.44479 405.07133 587.85797 411.38477 582.55469 C 417.69824 577.25137 442.95255 563.36134 445.73047 560.83594 C 448.50838 558.31057 479.82266 542.90528 483.86328 541.64258 C 487.9039 540.37991 507.60212 535.3289 507.34961 533.30859 C 507.09714 531.28829 507.09713 528.25819 502.29883 529.77344 C 497.5006 531.28865 474.7715 539.37109 472.24609 539.37109 C 469.72073 539.37109 461.6398 546.44141 458.60938 546.44141 C 455.57891 546.44141 430.32518 553.51229 426.53711 550.73438 C 422.74904 547.95646 417.19373 533.56231 418.70898 530.2793 C 420.2242 526.99632 414.41602 527.2494 414.41602 522.45117 C 414.41602 517.65295 419.4668 510.83398 419.4668 510.83398 C 418.45664 507.04592 399.01111 512.09607 394.21289 508.56055 C 389.41467 505.02499 403.05018 502.75153 398.25195 496.18555 C 393.45373 489.61952 391.43435 481.79199 386.88867 483.05469 C 382.343 484.31739 392.44474 466.8926 395.22266 469.41797 C 398.00057 471.94337 407.09201 488.10547 412.90039 488.10547 C 418.70877 488.10547 431.84003 487.5992 430.07227 486.08398 C 428.30451 484.56873 412.64688 480.27734 416.6875 480.27734 C 420.72812 480.27734 437.14258 483.30606 437.14258 481.0332 C 437.14258 478.76038 413.65705 474.21503 414.16211 472.44727 C 414.66721 470.67951 431.58752 474.21601 430.07227 471.18555 C 428.55705 468.15508 406.33398 467.14395 406.33398 464.87109 C 406.33398 462.59824 410.37399 462.09432 409.11133 459.31641 C 407.84863 456.53849 389.91974 445.42674 391.6875 441.63867 C 393.45526 437.8506 414.41466 458.30665 414.16211 455.78125 C 413.90964 453.25588 392.95016 436.58729 391.6875 431.78906 C 391.25396 430.14163 387.66399 426.54586 383.16797 422.54688 C 386.98515 425.14109 389.91797 427.02229 389.91797 426.48633 C 389.91797 424.97108 368.45315 408.05118 373.50391 404.51562 C 378.55469 400.9801 402.29258 420.42423 403.30273 424.46484 C 404.31289 428.50546 406.08026 418.65762 404.3125 416.38477 C 402.54474 414.11191 391.43388 387.08984 392.57031 387.08984 C 393.70674 387.08984 406.20703 414.11179 406.20703 416.00586 C 406.20703 417.89989 405.82821 419.91917 406.20703 424.46484 C 406.58582 429.01052 407.09221 432.54661 408.60742 433.93555 C 410.12267 435.32452 418.70898 443.53211 418.70898 441.89062 C 418.70898 441.89062 410.71484 434.46515 410.71484 431.07227 C 410.71484 427.67942 411.07086 425.17799 411.78516 425.53516 C 412.49941 425.89232 415.17773 429.46429 415.17773 428.75 C 415.17773 428.03571 411.07227 423.21345 411.07227 421.42773 C 411.07227 419.64206 408.39342 413.75 410.71484 413.75 C 413.03631 413.75 413.21429 419.286 415 420.35742 C 416.78571 421.42884 421.96459 421.60798 420.35742 421.07227 C 418.75029 420.53656 415.35742 418.92944 415.35742 416.07227 C 415.35742 413.21513 411.786 409.64369 412.85742 408.57227 C 413.92884 407.50085 413.92939 404.28489 414.82227 406.42773 C 415.7151 408.57061 420.44727 416.96429 420.44727 418.75 C 420.44727 420.53571 420.62427 421.96342 421.78516 422.05273 C 422.94585 422.14193 424.37445 420.80329 424.91016 421.51758 C 425.44587 422.23187 425.53545 427.67856 425.89258 428.125 C 426.24974 428.57144 428.03547 425.625 427.76758 424.375 C 427.49961 423.125 425.9827 422.05303 426.96484 421.16016 C 427.94699 420.26732 439.10797 420.98314 439.82227 422.32227 C 440.53656 423.66154 440.53658 427.41098 439.19727 427.85742 C 437.85799 428.30382 437.23272 429.375 437.58984 429.375 C 437.94701 429.375 441.42941 428.39258 442.94727 428.39258 C 444.46512 428.39258 445.35689 428.0354 445.26758 426.51758 C 445.17838 424.99972 443.92799 424.19585 443.03516 423.03516 C 442.14228 421.87443 441.42903 420.35715 442.85742 419.375 C 444.28601 418.39289 447.58897 418.30441 448.39258 418.57227 C 449.19614 418.84023 450.17915 415.44727 451.33984 415.44727 C 452.50057 415.44727 455.44697 417.49971 456.33984 417.14258 C 457.23268 416.78541 452.3203 413.03654 450.44531 412.94727 C 448.57029 412.85807 439.90988 410.71382 440.17773 412.76758 C 440.4457 414.82118 443.12416 418.83955 440.80273 418.48242 C 438.48127 418.12526 438.48158 415.09008 437.41016 414.82227 C 436.33874 414.5543 437.32207 417.85796 435.08984 417.94727 C 432.85769 418.03646 428.48242 414.82227 428.48242 412.32227 C 428.48242 409.82226 425.08957 417.32227 424.10742 417.32227 C 423.12527 417.32227 416.33984 407.50084 416.33984 404.19727 C 416.33984 400.89369 419.64203 390.80469 417.67773 390.80469 C 415.71344 390.80469 412.41099 389.82088 411.60742 392.41016 C 410.80386 394.99947 412.05414 404.46431 410.08984 405.625 C 408.12555 406.78573 409.91106 409.91043 408.21484 409.64258 C 406.5184 409.37461 404.37386 407.23273 404.19531 401.33984 C 404.01654 395.44699 410.17911 376.78516 413.83984 376.78516 C 417.50054 376.78516 420.35657 378.21456 420.53516 380.98242 C 420.71393 383.75028 420.17828 388.1261 422.14258 390.80469 C 424.10687 393.48324 435.44531 403.214 435.44531 402.14258 C 435.44531 401.07112 445.47674 401.48418 443.70898 398.20117 C 441.94122 394.91816 433.86015 389.36226 431.83984 383.04883 C 429.81954 376.73535 419.46524 371.68478 423.50586 371.17969 C 427.54648 370.67463 440.93068 373.2002 444.71875 371.9375 C 448.50682 370.67484 449.01189 366.38281 449.76953 366.38281 C 450.52714 366.38281 454.0625 370.42291 454.0625 366.63477 C 454.0625 362.8467 456.84199 359.05859 460.125 359.05859 C 463.40797 359.05859 459.11486 356.0283 457.59961 352.24023 C 456.0844 348.45217 454.0629 345.92578 458.10352 345.92578 C 462.14413 345.92578 475.27636 349.46117 476.53906 352.74414 C 477.80173 356.02715 473.50912 357.7961 476.28711 359.81641 C 479.06502 361.83671 494.47051 369.66583 498.76367 371.43359 C 503.0568 373.20135 512.90448 375.72615 511.13672 374.21094 C 509.36896 372.69572 486.89433 364.86757 486.13672 358.80664 C 485.37911 352.74571 484.36759 344.41075 480.83203 344.1582 C 477.29651 343.90573 456.84141 341.88632 457.85156 337.8457 C 458.86172 333.80509 472.75138 321.17755 475.5293 322.94531 C 478.30721 324.71307 488.66035 344.41016 491.94336 344.41016 C 495.22637 344.41016 500.27871 330.7746 505.58203 327.74414 C 510.88531 324.71368 513.66209 322.94588 511.13672 320.16797 C 508.61135 317.39005 499.26736 291.37891 493.45898 291.37891 C 487.65061 291.37891 481.58929 290.87345 481.8418 294.91406 C 482.09427 298.95468 466.68964 314.10586 464.92188 313.0957 C 463.15411 312.08555 468.20509 305.01446 465.67969 300.46875 C 463.15432 295.92307 462.65016 288.34747 459.36719 290.11523 C 456.08418 291.88299 453.05312 298.95331 452.04297 297.18555 C 451.03281 295.41779 449.26524 288.34723 450.27539 281.78125 C 451.28554 275.21527 457.85154 274.96406 455.32617 271.93359 C 452.80077 268.90313 446.74046 262.58885 450.02344 258.80078 C 453.30645 255.0127 459.87108 254.50664 462.39648 255.01172 C 464.92185 255.51679 457.85178 241.62773 463.66016 239.60742 C 469.46853 237.58712 501.54042 239.35545 501.79297 236.83008 C 502.04544 234.3047 503.05642 221.67753 497.24805 220.91992 C 493.98083 220.49376 483.84212 218.86863 471.73047 218.87695 z "
       transform="scale(0.26458333)"
       id="path7744" />
    <path
       transform="translate(0,-32.41665)"
       style="display:inline;fill:#828282;fill-opacity:1;fill-rule:evenodd;stroke:none;stroke-width:0.26458332px;stroke-linecap:butt;stroke-linejoin:miter;stroke-opacity:1"
       d="m 153.54634,150.66992 c 0,0 -3.94222,4.94448 -5.41221,5.54584 -1.46998,0.60135 -5.07812,0.4009 -5.07812,0.4009 0,0 0,1.5368 0.73499,2.40543 0.735,0.86862 1.40317,0.46772 1.40317,1.06908 0,0.60135 -0.60136,3.74177 -1.33635,4.54358 -0.73499,0.80181 -2.53906,1.67043 -2.60588,3.20723 -0.0668,1.5368 0.33409,3.27405 0.33409,3.27405 0,0 -0.46772,-1.13589 0.4009,-2.73951 0.86863,-1.60362 3.60814,-2.80633 3.60814,-4.00904 0,-1.20272 0.53454,-1.80407 2.00452,-1.40317 1.46999,0.40091 5.67948,1.80407 5.67948,1.80407 l 0.33409,-1.13589 c 0,0 -6.68174,-1.40317 -6.68174,-2.13816 0,-0.73499 0.13364,-1.26953 0.66817,-1.26953 0.53454,0 3.67496,0.46772 3.67496,0.46772 0,0 -0.26727,-0.46772 0,-1.40316 0.26727,-0.93544 -0.0668,-1.80407 -0.93544,-1.33635 -0.86863,0.46772 -3.60814,1.87089 -4.34313,1.60362 -0.73499,-0.26727 -1.5368,-0.40091 -1.33635,-1.20271 0.20045,-0.80181 2.40543,-0.40091 3.40769,-1.06908 1.00226,-0.66818 5.47902,-6.61492 5.47902,-6.61492 z"
       id="path7718"
       inkscape:connector-curvature="0" />
    <path
       transform="translate(0,-32.41665)"
       style="display:inline;fill:#636363;fill-opacity:1;fill-rule:evenodd;stroke:none;stroke-width:0.26458332px;stroke-linecap:butt;stroke-linejoin:miter;stroke-opacity:1"
       d="m 153.67998,139.31096 c 0,0 -8.21854,-2.53906 -10.3567,-3.74177 -2.13815,-1.20271 -4.87767,-2.93997 -6.48128,-3.0736 -1.60362,-0.13364 -4.40995,-0.40091 -7.21628,-1.46998 -2.80633,-1.06908 -6.5481,-2.00453 -6.61492,-1.46999 -0.0668,0.53454 3.34087,2.80633 5.21175,3.34087 1.87089,0.53454 6.54811,4.47677 8.55263,5.14494 2.00452,0.66817 6.74856,3.94222 6.74856,3.94222 0,0 -3.87541,-2.40542 -6.21402,-3.14041 -2.33861,-0.73499 -8.21854,-4.14268 -9.68852,-4.94449 -1.46998,-0.80181 -5.21176,-2.13815 -5.67948,-0.93544 -0.46772,1.20271 2.33861,2.87315 2.33861,2.87315 0,0 -3.40769,-0.13364 -4.6104,2.27179 -1.20271,2.40542 1.26953,3.94222 1.26953,3.94222 0,0 -3.80859,-1.00226 -3.80859,-2.47224 0,-1.46998 3.00678,-4.40995 3.40769,-6.08038 0.4009,-1.67044 -0.86863,-4.94449 0.46772,-5.67948 1.33635,-0.73499 3.80859,-0.13363 6.48128,0.80181 2.6727,0.93544 4.54359,2.53906 6.1472,2.80633 1.60362,0.26727 3.60814,0.66817 4.94449,1.06908 1.33635,0.4009 4.81085,2.93996 6.01356,3.4745 1.20271,0.53454 9.08717,3.34087 9.08717,3.34087 z"
       id="path7716"
       inkscape:connector-curvature="0" />
    <path
       transform="translate(0,-32.41665)"
       style="display:inline;fill:#606060;fill-opacity:1;fill-rule:evenodd;stroke:none;stroke-width:0.26458332px;stroke-linecap:butt;stroke-linejoin:miter;stroke-opacity:1"
       d="m 120.00402,230.98441 c -0.0668,-0.46773 -5.17835,-4.87767 -5.98016,-5.34539 -0.80181,-0.46773 -3.17382,-3.0736 -3.17382,-3.87541 0,-0.80181 1.10248,-1.9043 0.7684,-2.00452 -0.33409,-0.10023 -1.43658,1.63702 -1.70385,1.10248 -0.26727,-0.53453 -0.30068,-2.7061 -0.66817,-3.37427 -0.3675,-0.66818 -0.93545,-0.93545 -0.50113,-1.9043 0.43431,-0.96885 1.36975,-2.17156 1.5368,-2.07134 0.16704,0.10023 1.20271,0.90204 1.20271,0.63477 0,-0.26727 -1.23612,-1.03567 -1.80407,-1.03567 -0.56795,0 -0.23386,1.83748 -1.36976,1.5368 -1.13589,-0.30068 -1.70384,-0.63477 -1.73725,-1.5368 -0.0334,-0.90204 -0.66817,-1.9043 0,-2.27179 0.66818,-0.3675 2.80633,-0.86863 2.60588,-1.03567 -0.20045,-0.16704 -1.80407,-0.10023 -2.73951,-0.10023 -0.93544,0 -1.83748,0.90204 -2.27179,0.90204 -0.43432,0 0.50113,-3.40769 0.30068,-3.67496 -0.20046,-0.26727 -0.90204,-0.33409 -0.7684,-1.33635 0.13363,-1.00226 0.60135,-1.80407 1.20271,-2.20497 0.60136,-0.40091 -1.20271,-0.7684 -1.36976,-1.16931 -0.16704,-0.4009 0.0334,-1.40316 0.70158,-1.60361 0.66818,-0.20046 0.40091,-0.63477 0.40091,-0.63477 0,0 -1.33635,1.03567 -2.17157,2.03793 -0.83521,1.00226 -1.80407,0.60136 -1.50339,0.30068 0.30068,-0.30068 0.33409,-0.93544 0.33409,-0.93544 0,0 -1.670435,2.90655 -2.171564,2.87315 -0.501131,-0.0334 1.403164,-2.37202 1.403164,-2.70611 0,-0.33409 -0.10023,-1.77066 -0.30068,-2.13816 -0.20045,-0.36749 -1.069078,-4.00904 -1.00226,-4.74403 0.06682,-0.73499 0.701583,-2.00452 0.400905,-2.00452 -0.300678,0 -1.302938,3.40768 -1.302938,5.0113 0,1.60362 1.135896,3.20724 0.534538,3.842 -0.601356,0.63477 -0.367496,1.50339 -1.236121,1.26953 -0.868627,-0.23386 -2.104747,-1.13589 -2.104747,-2.00452 0,-0.86862 -1.002263,-1.57021 -1.102487,-2.27179 -0.100226,-0.70158 -0.233862,-2.73951 -0.53454,-3.04019 -0.300678,-0.30068 -0.133633,2.77292 -0.868624,2.03793 -0.734992,-0.73499 -3.741775,-6.01357 -4.409948,-6.81537 -0.668174,-0.80181 -3.57473,-7.48355 -3.741775,-7.88446 -0.167042,-0.4009 -1.169302,-2.73951 -1.169302,-3.40768 0,-0.66817 0.167042,-8.48581 0.167042,-9.15398 0,-0.66818 0.835218,-2.60588 0.467722,-2.80633 -0.367495,-0.20045 -2.271791,-0.73499 -2.939965,-0.26727 -0.668173,0.46772 -2.00452,1.40316 -1.703842,1.63702 0.300677,0.23387 1.202711,-1.40316 2.171565,-1.30293 0.968851,0.10022 -0.100227,2.23838 -0.100227,2.77292 0,0.53454 0.567946,1.43657 0.434313,1.5368 -0.133635,0.10022 -0.902036,1.60361 -0.902036,2.10474 0,0.50113 -1.23612,0.80181 -1.536798,1.5368 -0.30068,0.735 -0.567949,2.63929 -0.400904,2.90656 0.167042,0.26727 0.46772,0.46772 0.46772,0.46772 0,0 -0.501129,-0.66817 -0.100225,-1.9377 0.400905,-1.26953 1.069079,-1.77066 1.202712,-1.43658 0.133635,0.33409 -1.069078,3.97564 -1.035669,5.44562 0.03341,1.46998 0.701582,2.50565 0.935444,2.57247 0.23386,0.0668 -0.868627,-1.10249 -0.668173,-2.60588 0.200451,-1.50339 1.536798,-2.17156 1.637025,-1.87089 0.100227,0.30068 -0.267269,2.03793 -0.267269,2.53907 0,0.50113 -0.701583,2.50565 -0.701583,3.27405 0,0.7684 2.472243,1.70384 2.338608,2.10474 -0.133636,0.40091 0.367495,-1.00226 0.233859,-1.26952 -0.133633,-0.26728 -1.269529,-0.56795 -1.269529,-1.26954 0,-0.70158 0.601356,-3.00678 0.634765,-2.73951 0.03341,0.26727 1.5368,3.74177 1.503392,5.14494 -0.03341,1.40316 1.202713,6.24743 0.935442,7.34991 -0.267269,1.10249 -0.868625,2.03793 -0.868625,2.03793 0,0 1.570207,-2.33861 1.436574,-2.57247 -0.133636,-0.23386 -0.23386,2.63929 0.601356,4.24291 0.835218,1.60361 1.436573,1.60361 1.77066,2.00452 0.334087,0.4009 -0.868624,1.77066 -0.868624,1.77066 0,0 2.23838,-0.60136 2.338607,-0.0334 0.100227,0.56795 -1.503392,2.50565 -1.503392,2.50565 0,0 0.701583,-1.57021 1.436574,-1.23612 0.734991,0.33409 2.33861,3.27405 2.505652,4.6104 0.167044,1.33635 0.03341,-2.63929 0.634767,-1.40316 0.601355,1.23612 -0.467723,2.67269 -0.03341,3.20723 0.434311,0.53454 1.904293,1.40316 2.071338,2.17156 0.167042,0.7684 0.167042,2.37202 -0.23386,3.14042 -0.400904,0.7684 -0.06682,1.9377 -0.06682,1.9377 0,0 0.534538,-3.842 0.801807,-3.94222 0.267271,-0.10023 0.501131,-1.10249 1.30294,-1.10249 0.80181,0 -0.100226,1.26953 -0.100226,2.10475 0,0.83522 2.672696,2.87315 2.672696,3.37428 0,0.50113 0.03341,2.60588 0.167042,2.67269 0.133636,0.0668 -0.300678,-2.3052 0.133636,-2.3052 0.434313,0 2.539068,2.80633 2.973378,3.37428 0.43431,0.56795 1.9377,0.70158 2.57247,0.90203 0.63476,0.20046 2.80633,3.14042 3.10701,3.97564 0.30067,0.83522 1.83747,1.70384 2.47224,2.57247 0.63476,0.86863 5.51243,3.17382 5.64607,4.20949 0.13363,1.03567 -0.3675,1.83748 -0.3675,1.83748 0,0 0.60136,-1.26953 1.03567,-1.1693 0.43431,0.10022 1.73725,0.46772 1.73725,1.10248 0,0.63477 -0.30068,1.80407 -0.0334,1.9043 0.26727,0.10023 -0.50113,-3.34087 2.13816,-1.87089 2.63929,1.46999 3.00678,2.83974 4.74403,3.34087 1.73726,0.50113 3.34087,0.80181 4.77745,0.80181 1.43657,0 5.41221,-4.44336 5.87993,-3.90882 0.46772,0.53454 -0.66818,4.00905 -0.66818,4.00905 0,0 2.03793,-3.57473 2.23838,-3.30746 0.20046,0.26727 -1.13589,3.34086 -1.13589,3.34086 0,0 1.60362,-2.93996 1.73725,-2.60587 0.13364,0.33409 0.3675,2.47224 0.3675,2.47224 0,0 0.73499,-4.47676 0.93544,-4.07586 0.20045,0.4009 0.13363,2.73951 0.40091,2.57247 0.26726,-0.16704 1.33634,-3.04019 1.9377,-3.10701 0.60136,-0.0668 1.83748,-1.33635 2.77292,-1.33635 0.93544,0 1.5368,-2.03793 1.5368,-1.53679 0,0.50112 -0.43431,2.03792 -0.43431,2.03792 0,0 0.63476,-2.23838 1.36975,-2.83973 0.735,-0.60136 2.13816,-3.10701 2.43884,-2.80633 0.30068,0.30067 0.83522,2.13815 0.83522,2.13815 0,0 -0.3675,-2.93996 0,-3.97563 0.36749,-1.03567 2.00452,-1.93771 2.43883,-2.37202 0.43431,-0.43431 1.83748,-3.94223 1.83748,-3.94223 0,0 0.0334,-2.50565 -0.40091,-2.23838 -0.43431,0.26727 -3.10701,2.10475 -3.50791,2.73952 -0.4009,0.63476 -0.56795,2.3386 -0.80181,3.17382 -0.23386,0.83522 -2.77292,2.70611 -2.77292,2.70611 0,0 2.80633,-1.87089 3.00678,-2.2718 0.20046,-0.4009 0.30068,-2.43883 0.7684,-2.60587 0.46773,-0.16705 0.0334,2.67269 -0.83522,3.4745 -0.86862,0.80181 -2.30519,1.9377 -3.00678,2.40543 -0.70158,0.46772 -2.23838,-0.735 -2.77292,-0.26727 -0.53454,0.46772 -2.23838,2.17156 -3.4745,3.30746 -1.23612,1.13589 -0.66818,1.46998 -3.20724,1.67043 -2.53906,0.20045 -3.74177,-1.67043 -3.74177,-2.17156 0,-0.50113 -1.03567,-2.20498 -1.9377,-1.60362 -0.90204,0.60135 -0.0334,4.14268 -0.66818,4.14268 -0.63476,0 -2.80633,0.23386 -3.54132,-0.33409 -0.73499,-0.56795 0.0334,-2.53906 0.0334,-2.53906 0,0 -0.70158,1.9377 -1.77066,1.60362 -1.06908,-0.33409 0.30068,-3.4411 0.30068,-3.4411 0,0 -1.1359,2.93997 -2.63929,2.90656 -1.50339,-0.0334 -2.97337,-1.80407 -2.53906,-2.37202 0.43431,-0.56795 1.93771,-2.40543 1.63703,-2.57247 -0.30068,-0.16704 -2.33861,2.33861 -3.37428,2.43884 -1.03567,0.10022 -2.13816,-1.26954 -2.97338,-1.43658 -0.83521,-0.16704 -2.3386,-0.56795 -2.37201,-1.33635 -0.0334,-0.7684 -0.86863,-2.87314 -1.10249,-2.63928 -0.23386,0.23386 0.26727,1.67043 0.53454,2.50565 0.26727,0.83522 5.87993,4.87767 6.48129,6.68174 z"
       id="path7750"
       inkscape:connector-curvature="0" />
    <path
       transform="translate(0,-32.41665)"
       style="display:inline;fill:#dfdfdf;fill-opacity:1;fill-rule:evenodd;stroke:none;stroke-width:0.26458332px;stroke-linecap:butt;stroke-linejoin:miter;stroke-opacity:1"
       d="m 128.32292,209.54574 c 0.33072,0.37798 0.66145,1.27567 1.32291,1.27567 0.66146,0 1.93713,-0.42522 1.93713,-0.42522 l 0.75595,0.89769 c 0,0 0.8977,-1.74814 0.51972,-1.74814 -0.37798,0 -1.03943,0.47247 -1.03943,0.47247 0,0 0.23623,-1.18118 -0.0945,-1.22842 -0.33073,-0.0473 -1.13393,0.47247 -1.41741,0.37797 -0.28348,-0.0945 -0.51972,-1.03943 -0.89769,-0.7087 -0.37798,0.33073 -1.18118,0.37797 -1.08668,1.08668 z"
       id="path7754"
       inkscape:connector-curvature="0" />
    <path
       style="display:inline;fill:#afafaf;fill-opacity:1;fill-rule:evenodd;stroke:none;stroke-width:0.26458332px;stroke-linecap:butt;stroke-linejoin:miter;stroke-opacity:1"
       d="m 116.66315,152.5408 c 0.53454,0 0.66817,2.27179 2.47224,2.60588 1.80407,0.33409 3.60814,2.40543 4.14268,2.40543 0.53454,0 -0.93544,-1.5368 0.13363,-2.20498 1.06908,-0.66817 1.93771,-0.4009 3.34087,0.0668 1.40317,0.46772 4.07586,2.20497 3.27405,2.40542 -0.8018,0.20046 -3.67495,-0.26726 -3.27405,0.60136 0.40091,0.86863 4.94449,1.20271 3.80859,1.67044 -1.13589,0.46772 -4.47676,1.13589 -5.67947,0.46772 -1.20272,-0.66818 -3.14042,-3.34087 -4.2095,-3.74178 -1.06908,-0.4009 -2.87315,-1.26953 -3.20724,-1.67043 -0.33408,-0.4009 -1.26952,-2.40543 -0.8018,-2.60588 z"
       id="path7710"
       inkscape:connector-curvature="0"
       transform="translate(0,-32.41665)" />
    <path
       style="display:inline;fill:#afafaf;fill-opacity:1;fill-rule:evenodd;stroke:none;stroke-width:0.99999994px;stroke-linecap:butt;stroke-linejoin:miter;stroke-opacity:1"
       d="M 432.38867 456.51172 C 431.25117 456.71239 428.81055 461.70011 428.81055 463.35742 C 428.81055 465.12518 437.14417 474.7211 440.67969 478.76172 C 444.21521 482.8023 455.57956 486.08401 455.83203 488.60938 C 456.08458 491.13478 441.68864 486.8418 436.13281 486.8418 C 430.57694 486.8418 411.13125 491.89299 410.12109 493.4082 C 410.12109 493.4082 427.79904 489.62109 433.60742 489.62109 C 435.68562 489.62109 438.91679 489.89048 442.5293 490.37305 C 439.99962 490.93011 441.73875 503.99465 443.96289 510.46875 C 446.23575 517.08451 439.66817 524.25134 440.42578 528.9375 C 441.18339 533.6237 453.55841 526.73272 455.32617 528.38672 C 457.09393 530.04064 455.57951 544.92578 458.35742 544.92578 C 461.13534 544.92578 467.1959 537.483 474.51953 536.93164 C 481.84312 536.38036 502.29883 528.11036 502.29883 525.07812 C 502.29883 522.04589 483.86384 527.83594 476.03516 527.83594 C 468.20643 527.83594 467.95312 520.11741 467.95312 511.84766 C 467.95312 503.57794 487.90336 503.02618 494.2168 502.19922 C 500.53027 501.37222 511.39028 505.78274 517.45117 502.19922 C 523.5121 498.61566 517.45078 496.68546 518.46094 494.75586 C 519.47109 492.82622 521.23868 497.51288 525.2793 498.33984 C 529.31991 499.1668 531.08827 489.51956 532.60352 483.45508 C 534.11873 477.3906 528.31032 466.63867 525.02734 466.63867 C 525.02734 466.63867 526.03711 474.90834 526.03711 478.76758 C 526.03711 480.72487 524.47643 484.3113 522.47852 487.48047 C 522.57954 487.17376 522.6931 486.85336 522.75391 486.58984 C 523.51151 483.30687 513.6625 474.72089 512.65234 472.95312 C 511.64219 471.18533 501.03612 469.4174 497.24805 472.19531 C 493.45998 474.97323 503.30896 484.0637 499.77344 488.60938 C 496.23788 493.15513 473.76074 488.35742 467.44727 488.35742 C 461.13383 488.35742 449.01206 479.77131 442.95117 473.96289 C 436.89025 468.15451 433.60781 457.04217 432.59766 456.53711 C 432.53452 456.50554 432.46451 456.49834 432.38867 456.51172 z M 443.08203 490.44141 C 449.44682 491.32301 456.91732 492.87705 461.64062 494.92383 C 464.33275 496.09041 468.94581 497.09449 473.96875 497.9082 C 465.61877 499.93437 455.36677 503.30273 451.53906 503.30273 C 446.24936 503.30273 445.53557 491.56655 443.08203 490.44141 z "
       transform="scale(0.26458333)"
       id="path7712" />
    <path
       transform="translate(0,-32.41665)"
       style="display:inline;fill:#636363;fill-opacity:1;fill-rule:evenodd;stroke:none;stroke-width:0.26458332px;stroke-linecap:butt;stroke-linejoin:miter;stroke-opacity:1"
       d="m 103.90103,146.19315 c 0.33408,-0.53454 3.14041,1.80407 4.54358,3.27405 1.40317,1.46998 3.4745,2.60588 4.40995,2.60588 0.93544,0 2.40542,-0.20045 2.40542,-0.20045 0,0 -2.80633,-0.46772 -3.14042,-1.1359 -0.33408,-0.66817 -0.16704,-2.37202 -0.16704,-2.37202 0,0 0.40091,1.1359 0.73499,1.63703 0.33409,0.50113 1.00226,0.46772 1.00226,0.0334 0,-0.43431 -0.46772,-2.33861 -1.00226,-2.57247 -0.53454,-0.23386 -2.67269,-1.33635 -2.63928,-2.27179 0.0334,-0.93544 1.03567,-1.40317 1.03567,-1.40317 0,0 -0.70159,0.735 -0.30068,1.43658 0.4009,0.70158 5.81311,1.13589 5.81311,1.13589 0,0 -2.07134,3.34087 -1.97111,3.90882 0.10022,0.56795 2.53906,1.33635 2.53906,1.67044 0,0.33408 -1.57021,0.96885 -2.83974,0.90203 -1.26953,-0.0668 -3.54132,-0.43431 -5.44562,-1.97111 -1.90429,-1.5368 -2.7061,-2.97338 -3.60814,-3.60814 -0.90203,-0.63477 -1.36975,-1.06908 -1.36975,-1.06908 z"
       id="path7714"
       inkscape:connector-curvature="0" />
    <path
       style="display:inline;fill:#888888;fill-opacity:1;fill-rule:evenodd;stroke:none;stroke-width:0.26458332px;stroke-linecap:butt;stroke-linejoin:miter;stroke-opacity:1"
       d="m 139.71514,156.54985 c 0.0668,-0.53454 -2.3386,-3.34087 -4.27631,-4.47677 -1.9377,-1.1359 -5.0113,-3.20723 -8.41899,-4.34313 -3.40769,-1.1359 -7.41673,-1.33635 -8.88671,-1.06908 -1.46998,0.26727 -3.87541,3.27405 -3.27405,3.60814 0.60135,0.33409 3.34087,-1.06908 4.40994,-0.66817 1.06908,0.4009 6.08039,2.20497 9.08717,3.0736 3.00678,0.86862 5.87993,1.73725 6.88219,2.00452 1.00226,0.26727 4.20949,1.87089 4.47676,1.87089 z"
       id="path7728"
       inkscape:connector-curvature="0"
       transform="translate(0,-32.41665)" />
    <path
       style="display:inline;fill:#afafaf;fill-opacity:1;fill-rule:evenodd;stroke:none;stroke-width:0.26458332px;stroke-linecap:butt;stroke-linejoin:miter;stroke-opacity:1"
       d="m 123.34489,149.40039 c 0.26726,-0.20046 1.80406,-0.13364 4.27631,0.66817 2.47224,0.80181 5.87993,3.0736 5.0113,3.0736 -0.86862,0 -3.94222,-1.46998 -4.94448,-1.87089 -1.00226,-0.4009 -4.14268,-1.26953 -4.34313,-1.87088 z"
       id="path7722"
       inkscape:connector-curvature="0"
       transform="translate(0,-32.41665)" />
    <path
       transform="translate(0,-32.41665)"
       style="display:inline;fill:#656565;fill-opacity:1;fill-rule:evenodd;stroke:none;stroke-width:0.26458332px;stroke-linecap:butt;stroke-linejoin:miter;stroke-opacity:1"
       d="m 140.78422,158.2871 c 0,-0.60136 -0.0668,-2.13816 -0.4009,-2.13816 -0.33409,0 0.20045,0.66817 -0.53454,0.66817 -0.73499,0 -4.67722,-2.13815 -5.14494,-2.13815 -0.46772,0 0.20045,0.93544 0.86863,1.40316 0.66817,0.46773 3.14041,1.33635 3.74177,1.33635 0.60136,0 0.73499,-0.13363 1.46998,0.86863 z"
       id="path7724"
       inkscape:connector-curvature="0" />
    <path
       transform="translate(0,-32.41665)"
       style="display:inline;fill:#323232;fill-opacity:1;fill-rule:evenodd;stroke:none;stroke-width:0.26458332px;stroke-linecap:butt;stroke-linejoin:miter;stroke-opacity:1"
       d="m 130.56116,175.92689 c -1.00226,0 -4.20949,0.73499 -6.5481,1.9377 -2.33861,1.20271 -4.40995,3.14042 -5.7463,3.4745 -1.33634,0.33409 -7.14946,4.07586 -6.88219,4.07586 0.26727,0 5.54585,-3.14041 6.28084,-3.14041 0.73499,0 2.40542,-1.26953 4.40995,-2.13816 2.00452,-0.86863 4.94448,-2.53906 5.94674,-3.14042 1.00226,-0.60135 1.80407,-0.60135 2.53906,-1.06907 z"
       id="path7732"
       inkscape:connector-curvature="0" />
    <path
       transform="translate(0,-32.41665)"
       style="display:inline;fill:#161616;fill-opacity:1;fill-rule:evenodd;stroke:none;stroke-width:0.26458332px;stroke-linecap:butt;stroke-linejoin:miter;stroke-opacity:1"
       d="m 130.79502,182.57521 c 0.23387,0 0.43432,-1.90429 0.93545,-2.57247 0.50113,-0.66817 0.90203,-0.33408 0.90203,-1.10248 0,-0.7684 0.93545,-2.07134 0.40091,-2.07134 -0.53454,0 -2.6727,5.17835 -2.23839,5.74629 z"
       id="path7734"
       inkscape:connector-curvature="0" />
    <path
       transform="translate(0,-32.41665)"
       style="display:inline;fill:#ababab;fill-opacity:1;fill-rule:evenodd;stroke:none;stroke-width:0.26458332px;stroke-linecap:butt;stroke-linejoin:miter;stroke-opacity:1"
       d="m 143.69078,188.98968 c 0.63476,0.60136 0.93544,2.10475 1.80407,1.67044 0.86862,-0.43431 2.3052,-2.87315 1.97111,-4.07586 -0.33409,-1.20272 0.3675,-4.51018 0.50113,-6.34765 0.13364,-1.83748 1.80407,-5.01131 0.80181,-4.51018 -1.00226,0.50113 -3.50791,10.39011 -3.94223,11.1251 -0.43431,0.73499 -1.1693,1.60362 -1.13589,2.13815 z"
       id="path7736"
       inkscape:connector-curvature="0" />
    <path
       transform="translate(0,-32.41665)"
       style="display:inline;fill:#656565;fill-opacity:1;fill-rule:evenodd;stroke:none;stroke-width:0.26458332px;stroke-linecap:butt;stroke-linejoin:miter;stroke-opacity:1"
       d="m 132.93318,176.69528 c 0.16704,-0.70158 0.33409,-1.36975 1.20271,-2.07133 0.86863,-0.70159 4.17609,-2.03793 4.24291,-1.36976 0.0668,0.66817 0.23386,4.57699 -0.86863,5.0113 -1.10249,0.43432 -3.87541,0.0668 -4.07586,0.83522 -0.20045,0.7684 -0.63476,2.7061 0.53454,3.67496 1.1693,0.96885 0.20045,2.10475 0.96885,2.50565 0.7684,0.4009 2.17157,-2.10475 2.47224,-3.37428 0.30068,-1.26953 1.26953,-4.10927 1.9043,-5.07812 0.63477,-0.96885 2.33861,-4.00904 2.7061,-3.87541 0.3675,0.13364 -2.33861,4.6104 -2.57247,6.74856 -0.23386,2.13815 -0.0668,4.54358 0.30068,5.81311 0.3675,1.26953 4.27631,5.21175 4.87767,5.3788 0.60136,0.16704 1.23612,0.33409 1.83748,-0.0668 0.60136,-0.4009 2.40543,-6.11379 2.50565,-5.27857 0.10023,0.83521 -0.80181,8.51921 -1.73725,8.58603 -0.93544,0.0668 -4.57699,-0.26727 -4.71062,-1.30294 -0.13364,-1.03567 -2.13816,-4.17608 -2.70611,-4.64381 -0.56795,-0.46772 -1.40316,0.26728 -1.70384,-0.13363 -0.30068,-0.4009 -0.26727,-3.34087 -0.73499,-3.34087 -0.46773,0 0.10022,2.27179 -0.50114,2.17157 -0.60135,-0.10023 -2.73951,-1.30294 -3.34086,-2.00452 -0.60136,-0.70159 -1.97112,-1.83748 -1.60362,-3.20724 0.36749,-1.36976 0.96885,-2.6727 0.96885,-3.10701 0,-0.43431 0.93545,-2.17156 0.0334,-1.87089 z"
       id="path7738"
       inkscape:connector-curvature="0" />
    <path
       transform="translate(0,-32.41665)"
       style="display:inline;fill:#323232;fill-opacity:1;fill-rule:evenodd;stroke:none;stroke-width:0.26458332px;stroke-linecap:butt;stroke-linejoin:miter;stroke-opacity:1"
       d="m 132.53227,179.60184 c -0.26726,0 -0.96885,0.33409 -1.20271,1.36976 -0.23386,1.03567 -0.66817,1.46998 -0.56795,1.87088 0.10023,0.40091 0,0.80181 0.63477,1.63703 0.63477,0.83522 1.97111,1.5368 2.37202,2.43883 0.4009,0.90204 3.20723,3.77519 3.00678,3.4411 -0.20045,-0.33409 -3.10701,-3.64155 -2.60588,-3.64155 0.50113,0 2.47224,1.30294 2.7061,1.63703 0.23387,0.33409 2.30521,2.00452 3.17383,3.17382 0.86863,1.16931 1.60362,2.83974 2.57247,3.34087 0.96885,0.50113 2.83974,1.63703 3.4745,1.40317 0.63477,-0.23386 2.77293,-1.06809 2.77293,-1.469 0,-0.4009 0.13363,-1.17029 -0.16705,-0.90302 -0.30068,0.26727 -1.20271,1.40317 -2.27179,1.23612 -1.06908,-0.16704 -3.80859,-1.00226 -4.2095,-1.77066 -0.4009,-0.7684 -1.70384,-3.27405 -2.00452,-3.94222 -0.30067,-0.66818 -1.20271,-1.10249 -1.63702,-1.10249 -0.43431,0 -0.7684,-0.63477 -1.43657,-1.10249 -0.66818,-0.46772 -3.34087,-1.26953 -3.97564,-2.00452 -0.63477,-0.73499 -1.5368,-1.67043 -1.5368,-2.13815 0,-0.46773 0.66817,-3.07361 0.90203,-3.47451 z"
       id="path7740"
       inkscape:connector-curvature="0"
       sodipodi:nodetypes="cscscsscssssssscssssc" />
    <path
       transform="translate(0,-32.41665)"
       style="display:inline;fill:#8a8a8a;fill-opacity:1;fill-rule:evenodd;stroke:none;stroke-width:0.26458332px;stroke-linecap:butt;stroke-linejoin:miter;stroke-opacity:1"
       d="m 110.58277,195.9721 c 1.46998,0.0668 2.27179,-0.60136 2.60587,0.4009 0.33409,1.00227 3.54132,8.01809 4.94449,9.55489 1.40317,1.5368 4.34313,4.07586 6.68174,5.54584 2.33861,1.46998 8.21854,3.80859 10.02261,4.2095 1.80406,0.4009 6.5481,1.26953 7.48354,0.86862 0.93544,-0.4009 6.48129,-4.07586 6.68174,-3.60814 0.20045,0.46773 -0.0668,2.93997 -1.26953,4.47677 -1.20271,1.5368 -3.54132,4.40995 -5.07812,4.40995 -1.5368,0 -6.84878,-1.60362 -8.41899,-1.80407 -1.57021,-0.20046 -4.67722,-3.10701 -5.44562,-2.87315 -0.7684,0.23386 -3.97563,3.0736 -3.40769,3.0736 0.56795,0 3.47451,-0.60136 3.84201,-0.53454 0.36749,0.0668 3.97563,0.96885 4.2429,1.1693 0.26727,0.20046 -0.86863,0.7684 -0.86863,1.70385 0,0.93544 -1.26953,2.83974 -1.13589,2.90655 0.13363,0.0668 2.33861,-1.67043 2.73951,-1.36975 0.40091,0.30067 0.7684,2.60587 -0.16704,2.93996 -0.93545,0.33409 -2.6727,-1.13589 -3.17383,-0.50113 -0.50113,0.63477 -0.83522,2.03793 -0.46772,2.3052 0.36749,0.26727 0.0334,1.46998 -0.53454,1.20271 -0.56795,-0.26727 -1.5368,-1.30294 -1.5368,-1.9377 0,-0.63476 0.66817,-1.20271 0.53454,-1.77066 -0.13364,-0.56795 0.60136,-1.9043 0.33409,-1.97111 -0.26727,-0.0668 -1.63703,2.3386 -2.23839,1.36975 -0.60135,-0.96885 0.46773,-2.67269 0.23386,-2.83973 -0.23386,-0.16705 -2.87314,2.43883 -3.107,2.43883 -0.23386,0 -0.46773,-2.37202 -0.26727,-2.63929 0.20045,-0.26727 -3.67496,3.40769 -4.04245,3.20724 -0.3675,-0.20046 1.10248,-2.57247 0.96885,-3.0736 -0.13364,-0.50113 0.26727,-1.06908 -0.33409,-1.06908 -0.60136,0 -2.93997,3.44109 -3.30746,3.44109 -0.3675,0 0.73499,-1.97111 0.56795,-2.7061 -0.16705,-0.73499 -0.90204,-2.6727 -1.10249,-2.6727 -0.20045,0 -0.63476,3.50792 -1.13589,3.37428 -0.50113,-0.13363 -2.90656,-4.04245 -2.87315,-5.31198 0.0334,-1.26953 -0.50113,-5.14494 -1.5368,-5.41221 -1.03567,-0.26727 -4.00904,-0.46772 -3.90882,-0.90203 0.10023,-0.43432 1.36976,-1.36976 2.3052,-1.33635 0.93544,0.0334 2.00452,1.06908 2.00452,0.30068 0,-0.7684 -1.87088,-1.23612 -2.93996,-1.23612 -1.06908,0 -3.10701,-0.50113 -3.27405,0 -0.16705,0.50113 -0.86863,1.5368 -0.93545,1.40316 -0.0668,-0.13363 0.23387,-2.73951 0.56795,-3.60814 0.33409,-0.86862 -0.80181,-2.53906 -0.4009,-2.73951 0.4009,-0.20045 2.57247,-1.13589 2.57247,-1.60362 0,-0.46772 0.13363,-1.97111 0.33408,-2.80633 0.20045,-0.83521 2.40543,-1.5368 2.53906,-1.80406 0.13364,-0.26728 -1.87088,-2.10475 -1.60361,-2.60588 0.26726,-0.50113 -0.10023,-1.06908 0.26726,-1.03567 0.3675,0.0334 1.46999,1.23612 2.03794,1.46998 z"
       id="path7746"
       inkscape:connector-curvature="0" />
    <path
       transform="translate(0,-32.41665)"
       style="display:inline;fill:#6a6a6a;fill-opacity:1;fill-rule:evenodd;stroke:none;stroke-width:0.26458332px;stroke-linecap:butt;stroke-linejoin:miter;stroke-opacity:1"
       d="m 151.87591,214.31347 c 0.16704,0.4009 0.13363,2.73951 0.10022,3.0736 -0.0334,0.33409 -1.5368,-1.1359 -1.83748,-0.83522 -0.30067,0.30068 -0.20045,2.07134 -0.30067,2.23839 -0.10023,0.16704 -0.80181,0.20045 -1.10249,0.36749 -0.30068,0.16705 0.16704,2.37202 -0.3675,2.60588 -0.53453,0.23386 -2.30519,0.93544 -2.63928,1.50339 -0.33409,0.56795 -1.60362,0.56795 -1.93771,0.20045 -0.33408,-0.36749 -1.13589,-0.4009 -1.50339,0.93544 -0.36749,1.33635 -2.40542,3.0402 -2.40542,3.0402 0,0 2.37201,-2.6727 2.07134,-2.90656 -0.30068,-0.23386 -0.40091,-1.1359 -1.20272,-0.96885 -0.8018,0.16704 -1.67043,2.07134 -2.37201,2.80633 -0.70159,0.73499 -2.07134,1.90429 -2.13816,1.77066 -0.0668,-0.13364 2.83974,-2.73951 2.57247,-3.17383 -0.26727,-0.43431 -4.71063,2.93997 -4.6104,2.70611 0.10022,-0.23386 1.03567,-2.23838 0.73499,-2.77292 -0.30068,-0.53454 -0.26727,-1.16931 -0.73499,-1.1359 -0.46772,0.0334 -2.60588,1.57021 -2.60588,1.40316 0,-0.16704 1.20272,-1.77066 1.20272,-2.30519 0,-0.53454 0.96885,-1.97112 0.83521,-2.00453 -0.13363,-0.0334 -3.97563,-1.20271 -4.37653,-1.20271 -0.40091,0 -4.07587,0.90204 -3.97564,0.56795 0.10022,-0.33409 3.24064,-3.20724 3.64155,-3.10701 0.4009,0.10023 4.27631,2.73951 4.51017,2.73951 0.23386,0 5.84652,1.50339 6.44788,1.50339 0.60135,0 1.9377,0.80181 2.7061,0.63477 0.7684,-0.16704 4.64381,-2.13816 5.51244,-3.17383 0.86862,-1.03567 3.34087,-4.67721 3.77518,-4.51017 z"
       id="path7748"
       inkscape:connector-curvature="0" />
    <path
       transform="translate(0,-32.41665)"
       style="display:inline;fill:#6a6a6a;fill-opacity:1;fill-rule:evenodd;stroke:none;stroke-width:0.26458332px;stroke-linecap:butt;stroke-linejoin:miter;stroke-opacity:1"
       d="m 113.62909,192.44232 c 0,0 1.22842,4.81919 2.03162,7.37053 0.8032,2.55134 3.68527,6.85082 6.3311,8.97694 2.64584,2.12611 6.33111,4.53571 9.21317,5.38616 2.88207,0.85044 7.70127,1.79539 9.96913,1.08668 2.26785,-0.7087 5.4636,-3.89433 6.94531,-6.23661 1.48171,-2.34227 1.98437,-8.17374 1.98437,-8.17374 0,0 -1.35884,4.23518 -2.5185,5.42145 -1.40698,1.43925 -2.4826,1.74959 -3.90709,2.13808 -2.59859,0.7087 -6.14212,1.70089 -8.22098,1.27567 -2.07887,-0.42522 -6.00037,-3.16555 -6.99256,-3.54353 -0.99219,-0.37797 -3.82701,-2.12611 -5.14993,-2.92931 -1.32292,-0.8032 -5.66964,-5.14993 -6.18936,-6.18936 -0.51972,-1.03944 -2.97656,-4.77195 -3.49628,-4.58296 z"
       id="path7752"
       inkscape:connector-curvature="0"
       sodipodi:nodetypes="csssszcssssssc" />
    <path
       transform="translate(0,-32.41665)"
       style="display:inline;fill:#6a6a6a;fill-opacity:1;fill-rule:evenodd;stroke:none;stroke-width:0.26458332px;stroke-linecap:butt;stroke-linejoin:miter;stroke-opacity:1"
       d="m 116.70015,193.38726 c 0,0 -0.0945,-0.8977 -0.51972,-0.99219 -0.42522,-0.0945 -1.79539,0.23623 -1.79539,0.23623 0,0 0.47247,-0.89769 1.6064,-0.89769 1.13393,0 2.31511,0.14174 4.7247,0.66146 2.4096,0.51972 8.50447,2.50409 9.40216,3.35454 0.89769,0.85044 5.90588,3.2128 7.46503,3.68527 1.55915,0.47247 4.53572,0.8032 5.66964,0.8032 1.13393,0 6.80358,-1.18118 6.80358,-0.8977 0,0.28348 -2.88207,1.6064 -4.25224,1.65365 -1.37016,0.0473 -3.63802,0.37798 -5.14992,0.37798 -1.51191,0 -3.77976,-1.03944 -5.10268,-1.65365 -1.32292,-0.61421 -4.63021,-2.55134 -5.66964,-3.11831 -1.03944,-0.56696 -3.87426,-2.3151 -5.33892,-2.74032 -1.46465,-0.42522 -4.39397,-1.41741 -5.85863,-1.51191 -1.46465,-0.0945 -1.5119,-0.28348 -1.98437,1.03944 z"
       id="path7756"
       inkscape:connector-curvature="0"
       sodipodi:nodetypes="cccsssssscsscssc" />
    <path
       transform="translate(0,-32.41665)"
       style="display:inline;fill:#d2d2d2;fill-opacity:1;fill-rule:evenodd;stroke:none;stroke-width:0.26458332px;stroke-linecap:butt;stroke-linejoin:miter;stroke-opacity:1"
       d="m 120.19643,195.22989 c -0.0473,-0.66146 -0.66146,-1.22842 -0.94494,-1.55915 -0.28348,-0.33073 -0.94494,-0.61421 -1.41741,-0.56696 -0.47247,0.0472 -0.66146,0.85044 -0.56697,1.46465 0.0945,0.61421 0.18899,1.93713 0.37798,1.93713 0.18899,0 3.16555,1.18118 2.55134,-1.27567 z"
       id="path7758"
       inkscape:connector-curvature="0" />
    <path
       transform="translate(0,-32.41665)"
       style="display:inline;fill:#d2d2d2;fill-opacity:1;fill-rule:evenodd;stroke:none;stroke-width:0.26458332px;stroke-linecap:butt;stroke-linejoin:miter;stroke-opacity:1"
       d="m 119.72396,198.53718 c 0.56696,0.47247 0.89769,1.27567 1.32291,1.27567 0.42523,0 1.46466,-0.56696 1.46466,-0.89769 0,-0.33073 0.47247,-1.37016 -0.14174,-1.37016 -0.61421,0 -1.32292,-0.33073 -1.5119,-0.42523 -0.18899,-0.0945 -0.66146,-0.94494 -0.66146,-0.33073 0,0.61422 -0.51972,1.37017 -0.47247,1.74814 z"
       id="path7760"
       inkscape:connector-curvature="0" />
    <path
       transform="translate(0,-32.41665)"
       style="display:inline;fill:#d2d2d2;fill-opacity:1;fill-rule:evenodd;stroke:none;stroke-width:0.26458332px;stroke-linecap:butt;stroke-linejoin:miter;stroke-opacity:1"
       d="m 120.5744,194.2377 c 0,-0.80319 0.18899,-1.41741 0.66146,-1.27567 0.47247,0.14175 2.07887,0.18899 1.93713,1.32292 -0.14174,1.13393 -0.18899,3.02381 -0.56696,2.97656 -0.37798,-0.0472 -1.93713,-0.37797 -1.98438,-0.7087 -0.0473,-0.33073 -0.14174,-1.93713 -0.0473,-2.31511 z"
       id="path7762"
       inkscape:connector-curvature="0" />
    <path
       transform="translate(0,-32.41665)"
       style="display:inline;fill:#d2d2d2;fill-opacity:1;fill-rule:evenodd;stroke:none;stroke-width:0.26458332px;stroke-linecap:butt;stroke-linejoin:miter;stroke-opacity:1"
       d="m 123.50372,194.66293 c 0.18899,-0.37798 1.37016,-1.08668 2.12612,-0.0945 0.75595,0.99219 1.13392,3.07106 1.08668,3.35454 -0.0473,0.28348 -0.8977,0.94494 -0.8977,1.27567 0,0.33073 0,1.37016 -0.37797,1.37016 -0.37798,0 -2.22061,-0.23623 -2.22061,-0.51971 0,-0.28348 -0.42523,-2.03162 -0.33073,-2.83482 0.0945,-0.8032 0.61421,-2.55134 0.61421,-2.55134 z"
       id="path7764"
       inkscape:connector-curvature="0" />
    <path
       transform="translate(0,-32.41665)"
       style="display:inline;fill:#d2d2d2;fill-opacity:1;fill-rule:evenodd;stroke:none;stroke-width:0.26458332px;stroke-linecap:butt;stroke-linejoin:miter;stroke-opacity:1"
       d="m 128.37016,196.12759 c -0.47247,0.18898 -1.70089,1.55915 -1.88988,1.98437 -0.18899,0.42522 -0.99218,1.84263 -0.8032,2.36235 0.18899,0.51972 0.51972,1.6064 1.18118,1.98438 0.66146,0.37797 1.70089,0.94494 1.88988,0.85044 0.18899,-0.0945 1.46466,-2.45684 1.37016,-2.97656 -0.0945,-0.51972 -0.14174,-2.83482 -0.66145,-3.26004 -0.51972,-0.42523 -0.42523,-1.27567 -1.08669,-0.94494 z"
       id="path7766"
       inkscape:connector-curvature="0" />
    <path
       transform="translate(0,-32.41665)"
       style="display:inline;fill:#d2d2d2;fill-opacity:1;fill-rule:evenodd;stroke:none;stroke-width:0.26458332px;stroke-linecap:butt;stroke-linejoin:miter;stroke-opacity:1"
       d="m 130.54353,200.52156 c 0.56696,-0.66146 0.89769,-2.03162 1.6064,-1.93713 0.7087,0.0945 3.0238,0.56696 3.73251,2.36235 0.7087,1.79539 -0.70871,4.96094 -1.27567,5.14993 -0.56697,0.18899 -1.88988,-0.14174 -2.83482,-0.47247 -0.94494,-0.33073 -2.64583,-1.08669 -2.45685,-2.03163 0.18899,-0.94493 0.94494,-2.64583 1.22843,-3.07105 z"
       id="path7768"
       inkscape:connector-curvature="0" />
    <path
       transform="translate(0,-32.41665)"
       style="display:inline;fill:#d2d2d2;fill-opacity:1;fill-rule:evenodd;stroke:none;stroke-width:0.26458332px;stroke-linecap:butt;stroke-linejoin:miter;stroke-opacity:1"
       d="m 136.5439,202.78942 c 0.66146,-0.85045 1.08668,-2.07887 1.65364,-1.79539 0.56697,0.28348 1.18118,0.42522 1.79539,0.42522 0.61421,0 1.65364,-0.37797 1.88988,0.28348 0.23624,0.66146 0,3.35454 -0.14174,4.20499 -0.14174,0.85045 -0.61421,1.41741 -1.41741,1.41741 -0.8032,0 -4.67746,-0.47247 -4.67746,-1.03943 0,-0.56697 0.23624,-2.5041 0.8977,-3.49628 z"
       id="path7770"
       inkscape:connector-curvature="0" />
    <path
       transform="translate(0,-32.41665)"
       style="display:inline;fill:#d2d2d2;fill-opacity:1;fill-rule:evenodd;stroke:none;stroke-width:0.26458332px;stroke-linecap:butt;stroke-linejoin:miter;stroke-opacity:1"
       d="m 142.16629,203.35638 c 0.28349,-0.61421 0.61421,-1.41741 1.18118,-1.65365 0.56696,-0.23623 1.74814,-1.08668 2.17336,-0.51971 0.42522,0.56696 -0.47247,3.73251 -0.75595,4.15774 -0.28348,0.42522 -1.03943,0.99218 -1.74814,1.03943 -0.70871,0.0472 -1.37017,0.99219 -1.37017,0.0472 0,-0.94494 0.70871,-2.4096 0.51972,-3.07106 z"
       id="path7772"
       inkscape:connector-curvature="0" />
    <path
       transform="translate(0,-32.41665)"
       style="display:inline;fill:#d2d2d2;fill-opacity:1;fill-rule:evenodd;stroke:none;stroke-width:0.26458332px;stroke-linecap:butt;stroke-linejoin:miter;stroke-opacity:1"
       d="m 145.80431,202.74217 c 0.56697,-0.61421 1.84264,-2.12612 2.45685,-1.79539 0.61421,0.33073 0.8032,1.74814 -0.28348,3.11831 -1.08669,1.37016 -0.8032,1.5119 -1.27567,1.5119 -0.47247,0 -1.51191,0.28348 -1.51191,-0.28348 0,-0.56697 0.56697,-2.12612 0.61421,-2.55134 z"
       id="path7774"
       inkscape:connector-curvature="0" />
    <path
       transform="translate(0,-32.41665)"
       style="display:inline;fill:#d2d2d2;fill-opacity:1;fill-rule:evenodd;stroke:none;stroke-width:0.26458332px;stroke-linecap:butt;stroke-linejoin:miter;stroke-opacity:1"
       d="m 121.94457,201.32476 c 0.47247,0.47247 1.37016,1.37016 1.55915,1.37016 0.18899,0 0.99219,-0.0945 0.99219,-0.75595 0,-0.66146 0.66146,-1.37017 -0.0472,-1.37017 -0.70871,0 -1.55915,0 -1.55915,-0.51971 0,-0.51972 0.42522,-0.99219 0,-0.99219 -0.42523,0 -0.99219,1.6064 -0.94494,2.26786 z"
       id="path7776"
       inkscape:connector-curvature="0" />
    <path
       transform="translate(0,-32.41665)"
       style="display:inline;fill:#d2d2d2;fill-opacity:1;fill-rule:evenodd;stroke:none;stroke-width:0.26458332px;stroke-linecap:butt;stroke-linejoin:miter;stroke-opacity:1"
       d="m 125.15737,203.54537 c -0.0945,-0.23624 0.51971,-2.50409 0.51971,-2.4096 0,0.0945 0.42522,0.85045 0.8977,1.22842 0.47247,0.37798 2.3151,0.47247 2.26785,0.99219 -0.0472,0.51972 -0.42522,1.79539 -1.13393,1.79539 -0.7087,0 -2.55133,-0.61422 -2.55133,-1.6064 z"
       id="path7778"
       inkscape:connector-curvature="0" />
    <path
       transform="translate(0,-32.41665)"
       style="display:inline;fill:#d2d2d2;fill-opacity:1;fill-rule:evenodd;stroke:none;stroke-width:0.26458332px;stroke-linecap:butt;stroke-linejoin:miter;stroke-opacity:1"
       d="m 128.6064,205.57699 c 0,-0.37798 0.61421,-1.37016 0.61421,-1.37016 0,0 2.12611,1.08668 2.12611,1.41741 0,0.33073 0.0945,1.46465 -0.47246,1.46465 -0.56697,0 -2.26786,-1.18117 -2.26786,-1.5119 z"
       id="path7780"
       inkscape:connector-curvature="0" />
    <path
       transform="translate(0,-32.41665)"
       style="display:inline;fill:#d2d2d2;fill-opacity:1;fill-rule:evenodd;stroke:none;stroke-width:0.26458332px;stroke-linecap:butt;stroke-linejoin:miter;stroke-opacity:1"
       d="m 131.29948,207.51412 c 0,-0.47247 0.33073,-1.79539 0.75595,-1.79539 0.42522,0 2.03162,0.56697 2.36235,0.51972 0.33073,-0.0472 0.85045,-0.42523 1.03944,-0.0472 0.18898,0.37798 0.47247,0.66146 0.0472,1.08668 -0.42522,0.42523 -1.08668,1.65365 -1.65364,1.65365 -0.56697,0 -2.55134,-1.41741 -2.55134,-1.41741 z"
       id="path7782"
       inkscape:connector-curvature="0" />
    <path
       transform="translate(0,-32.41665)"
       style="display:inline;fill:#d2d2d2;fill-opacity:1;fill-rule:evenodd;stroke:none;stroke-width:0.26458332px;stroke-linecap:butt;stroke-linejoin:miter;stroke-opacity:1"
       d="m 134.74851,209.30951 c 0.14174,-0.56697 0.89769,-2.26786 1.41741,-2.31511 0.51972,-0.0473 2.26786,0.0945 2.26786,0.37798 0,0.28348 -0.99219,1.98437 -1.41741,1.98437 -0.42523,0 -2.26786,0.28348 -2.26786,-0.0472 z"
       id="path7784"
       inkscape:connector-curvature="0" />
    <path
       transform="translate(0,-32.41665)"
       style="display:inline;fill:#d2d2d2;fill-opacity:1;fill-rule:evenodd;stroke:none;stroke-width:0.26458332px;stroke-linecap:butt;stroke-linejoin:miter;stroke-opacity:1"
       d="m 138.48103,209.45125 c 0,-0.42523 -0.23624,-1.7009 0.28348,-1.88988 0.51971,-0.18899 1.6064,-0.51972 1.6064,0 0,0.51971 -0.56697,2.12611 -1.88988,1.88988 z"
       id="path7786"
       inkscape:connector-curvature="0" />
    <path
       transform="translate(0,-32.41665)"
       style="display:inline;fill:#d2d2d2;fill-opacity:1;fill-rule:evenodd;stroke:none;stroke-width:0.26458332px;stroke-linecap:butt;stroke-linejoin:miter;stroke-opacity:1"
       d="m 140.93787,209.02602 c 0,-0.66146 -0.37798,-1.65364 0,-1.84263 0.37798,-0.18899 2.92932,-1.65365 2.92932,-1.13393 0,0.51972 -0.47247,2.12612 -1.08669,2.45684 -0.61421,0.33073 -1.60639,0.66146 -1.84263,0.51972 z"
       id="path7788"
       inkscape:connector-curvature="0" />
    <path
       transform="translate(0,-32.41665)"
       style="display:inline;fill:#d2d2d2;fill-opacity:1;fill-rule:evenodd;stroke:none;stroke-width:0.26458332px;stroke-linecap:butt;stroke-linejoin:miter;stroke-opacity:1"
       d="m 144.81213,207.65586 c -0.14174,-0.42523 -0.75596,-1.18118 -0.51972,-1.51191 0.23623,-0.33073 0.51972,-0.80319 0.8032,-0.7087 0.28348,0.0945 1.22842,0 1.22842,0.51972 0,0.51971 0.51972,2.07887 -1.5119,1.70089 z"
       id="path7790"
       inkscape:connector-curvature="0" />
    <path
       transform="translate(0,-32.41665)"
       style="display:inline;fill:#4d4d4d;fill-opacity:1;fill-rule:evenodd;stroke:none;stroke-width:0.26458332px;stroke-linecap:butt;stroke-linejoin:miter;stroke-opacity:1"
       d="m 106.3058,194.3322 c -0.0473,-0.8032 2.59859,-4.20499 3.73252,-4.15774 1.13393,0.0472 2.55134,1.03943 2.55134,1.03943 0,0 0.51971,-1.70089 1.65364,-1.70089 1.13393,0 3.59078,1.27567 4.67746,1.27567 1.08668,0 3.26004,-0.0472 3.40178,0.18899 0.14174,0.23623 -0.89769,0.61421 -0.75595,0.99219 0.14174,0.37797 2.31511,1.98437 2.31511,1.98437 0,0 -0.37798,-0.99219 -0.18899,-1.22842 0.18899,-0.23624 3.40178,-1.65365 4.44122,-2.03162 1.03943,-0.37798 4.06324,-4.11049 4.06324,-4.11049 0,0 -3.26004,3.68526 -4.44122,3.77976 -1.18117,0.0945 -2.50409,-0.47247 -2.97656,-0.0945 -0.47247,0.37798 -1.6064,1.88989 -1.88988,1.88989 -0.28348,0 0.23623,-1.55916 1.03943,-1.98438 0.8032,-0.42522 2.78758,-1.93713 2.50409,-1.93713 -0.28348,0 -1.98437,1.27567 -2.64583,1.18118 -0.66146,-0.0945 0.66146,-1.74814 0.37798,-1.74814 -0.28348,0 -1.51191,1.79539 -2.31511,1.79539 -0.8032,0 -1.65364,0.33072 -1.60639,-0.47248 0.0472,-0.80319 0.85044,-1.65364 0.85044,-1.65364 0,0 -1.13393,1.70089 -1.5119,1.32291 -0.37798,-0.37797 0.7087,-1.65364 0.7087,-1.65364 0,0 -1.03943,1.32292 -1.6064,1.22842 -0.56696,-0.0945 0.56697,-4.25223 0.56697,-4.25223 0,0 -1.88988,3.30729 -2.5041,3.30729 -0.61421,0 -0.28348,-2.4096 -0.28348,-2.4096 0,0 -0.42522,2.26786 -1.41741,2.26786 -0.99219,0 -1.74814,-0.85045 -1.46465,-1.08668 0.28348,-0.23624 3.26004,-2.17336 3.26004,-2.17336 0,0 -1.22842,-0.66146 -1.6064,-0.18899 -0.37798,0.47247 -0.56696,1.37016 -0.99219,1.37016 -0.42522,0 -1.46466,0.33073 -2.07887,0.33073 -0.61421,0 -0.37797,-0.33073 -1.65364,0.61421 -1.27567,0.94494 -2.36235,1.03944 -2.36235,2.31511 0,1.27567 -0.70871,2.45684 -0.70871,2.45684 0,0 1.08668,-2.69308 1.79539,-2.69308 0.7087,0 3.68527,-1.13393 3.68527,-0.37798 0,0.75596 -2.92932,1.6064 -3.26005,1.79539 -0.33073,0.18899 -1.18117,1.51191 -1.55915,1.51191 -0.37798,0 -0.99219,-0.0945 -1.03943,0.23623 -0.0473,0.33073 -0.99219,1.84264 -0.75596,3.07106 z"
       id="path7792"
       inkscape:connector-curvature="0" />
    <path
       transform="translate(0,-32.41665)"
       style="display:inline;fill:#585858;fill-opacity:1;fill-rule:evenodd;stroke:none;stroke-width:0.26458332px;stroke-linecap:butt;stroke-linejoin:miter;stroke-opacity:1"
       d="m 136.30766,195.51337 c -0.7087,0.37798 -2.88206,-0.0945 -2.78757,0.61422 0.0945,0.7087 0.14174,1.18117 -0.47247,0.94494 -0.61421,-0.23624 -2.50409,-0.66146 -2.4096,-1.13393 0.0945,-0.47247 0.0472,-1.79539 0.47247,-1.79539 0.42522,0 0.66146,-0.75595 1.41741,-0.23624 0.75595,0.51972 3.16555,1.55916 3.77976,1.6064 z"
       id="path7794"
       inkscape:connector-curvature="0" />
    <path
       transform="translate(0,-32.41665)"
       style="display:inline;fill:#a1a1a1;fill-opacity:1;fill-rule:evenodd;stroke:none;stroke-width:0.26458332px;stroke-linecap:butt;stroke-linejoin:miter;stroke-opacity:1"
       d="m 122.36979,182.99291 c 0.33073,-1.27567 2.45685,-4.34672 3.49628,-3.9215 1.03944,0.42522 1.5119,1.93713 1.5119,1.70089 0,-0.23623 -0.61421,-1.88988 -0.61421,-2.03162 0,-0.14174 2.31511,-1.84263 2.31511,-1.65365 0,0.18899 -0.75595,5.6224 -0.51972,5.76414 0.23624,0.14174 0.61421,-3.1183 0.94494,-3.1183 0.33073,0 1.18118,0.51972 1.18118,0.51972 0,0 -1.51191,-1.03944 -0.94495,-2.31511 0.56697,-1.27567 2.07888,-1.79539 2.07888,-1.37016 0,0.42522 -1.46466,5.10268 -1.46466,6.00037 0,0.89769 1.79539,3.2128 2.22061,3.49628 0.42522,0.28348 4.53571,4.67746 4.01599,4.67746 -0.51971,0 -3.26004,-1.03944 -3.68526,-1.88989 -0.42523,-0.85044 -1.08668,-2.45684 -1.88989,-2.45684 -0.80319,0 -1.70089,-0.56697 -1.98437,-0.99219 -0.28348,-0.42522 -0.7087,-1.13393 -0.7087,-1.13393 0,0 -0.42523,2.36235 -0.75596,2.03162 -0.33073,-0.33073 0.18899,-2.40959 -0.37797,-2.40959 -0.56697,0 -0.75596,0.0945 -2.5041,0.0472 -1.74813,-0.0472 -3.63802,0.85045 -3.63802,0.85045 0,0 1.84264,-1.22842 1.32292,-1.79539 z"
       id="path7796"
       inkscape:connector-curvature="0" />
    <path
       style="fill:#555555;fill-opacity:1;fill-rule:evenodd;stroke:none;stroke-width:0.26458332px;stroke-linecap:butt;stroke-linejoin:miter;stroke-opacity:1"
       d="m 130.02662,157.74234 c 0.33409,-0.60136 1.93771,-1.60362 1.93771,-1.60362 0,0 -0.93544,1.40317 -0.40091,1.87089 0.53454,0.46772 0.93545,-0.80181 0.93545,-0.80181 0,0 -0.53454,1.5368 0.46772,1.80407 1.00226,0.26727 2.60588,-0.80181 3.27405,-0.40091 0.66817,0.40091 0.4009,3.54133 0.80181,3.94223 0.4009,0.4009 -3.00678,-0.20045 -3.20723,-0.73499 -0.20046,-0.53454 -2.13816,-2.07134 -2.13816,-1.33635 0,0.73499 -0.93545,1.06908 -0.93545,0.53454 0,-0.53454 0.80181,-2.73951 -0.73499,-3.27405 z"
       id="path7846"
       inkscape:connector-curvature="0" />
    <path
       style="fill:#555555;fill-opacity:1;fill-rule:evenodd;stroke:none;stroke-width:0.26458332px;stroke-linecap:butt;stroke-linejoin:miter;stroke-opacity:1"
       d="m 140.91786,163.62227 c 0.66817,0 1.36975,-0.60136 1.23612,-0.7684 -0.13364,-0.16705 -0.83522,0.10022 -1.06908,-0.30068 -0.23386,-0.4009 -1.13589,-0.70158 -0.86863,-1.1359 0.26727,-0.43431 0.7684,-0.63476 0.60136,-0.83521 -0.16704,-0.20045 -0.50113,-1.03567 -1.00226,-1.63703 -0.50113,-0.60136 -2.33861,-2.93996 -2.33861,-2.23838 0,0.70158 0.50113,1.67043 0.50113,2.57247 0,0.90203 0.53454,0.70158 0.46772,1.30294 -0.0668,0.60135 -1.1693,0.90203 -1.1693,0.90203 0,0 0.93544,-0.13363 1.5368,0.20045 0.60136,0.33409 1.70384,1.50339 2.10475,1.93771 z"
       id="path7848"
       inkscape:connector-curvature="0" />
    <path
       style="fill:#6a6a6a;fill-opacity:1;fill-rule:evenodd;stroke:none;stroke-width:0.26458332px;stroke-linecap:butt;stroke-linejoin:miter;stroke-opacity:1"
       d="m 133.7684,164.82498 c 0,0 -0.46773,-1.20271 0.0668,-1.20271 0.53453,0 0.96885,-0.0334 2.30519,0.56794 1.33635,0.60136 2.17157,1.16931 2.77293,1.33635 0.60135,0.16705 2.87314,0.3675 3.27405,0.63477 0.4009,0.26727 1.26953,0.86862 1.80407,0.86862 0.53454,0 1.70384,-0.13363 1.33634,0.10023 -0.36749,0.23386 -0.73499,0.83522 -3.0736,0.53454 -2.3386,-0.30068 -3.84199,-0.50113 -5.17834,-0.96885 -1.33635,-0.46773 -3.30746,-1.87089 -3.30746,-1.87089 z"
       id="path7850"
       inkscape:connector-curvature="0" />
    <path
       style="fill:#6a6a6a;fill-opacity:1;fill-rule:evenodd;stroke:none;stroke-width:0.26458332px;stroke-linecap:butt;stroke-linejoin:miter;stroke-opacity:1"
       d="m 145.6953,166.56223 c 0,0 1.57021,-1.26953 1.50339,-1.63702 -0.0668,-0.3675 -0.23386,-1.46999 -0.0668,-1.46999 0.16705,0 2.10475,-0.36749 2.10475,-0.36749 0,0 0.16704,2.43883 -0.0668,2.40542 -0.23386,-0.0334 -0.86862,-0.56794 -1.23612,-0.56794 -0.3675,0 -0.80181,1.5368 -2.23838,1.63702 z"
       id="path7852"
       inkscape:connector-curvature="0" />
    <path
       style="fill:#757575;fill-opacity:1;fill-rule:evenodd;stroke:none;stroke-width:0.26458332px;stroke-linecap:butt;stroke-linejoin:miter;stroke-opacity:1"
       d="m 142.75534,163.25477 c 0.43431,0.0668 0.73499,1.60362 1.1693,1.67044 0.43431,0.0668 0.66817,-1.26954 0.83522,-1.1359 0.16704,0.13364 1.23612,0.43431 1.23612,0.66817 0,0.23387 -0.53454,1.93771 -0.66818,1.97112 -0.13363,0.0334 0.3675,-1.60362 0.13364,-1.60362 -0.23386,0 -0.33409,1.43657 -0.73499,1.60362 -0.40091,0.16704 -1.03567,0.26727 -1.03567,-0.0668 0,-0.33409 -0.3675,-1.43657 -0.50113,-1.57021 -0.13364,-0.13363 -0.43431,-0.80181 -0.80181,-0.73499 -0.3675,0.0668 -0.96885,1.30294 -1.63703,1.33635 -0.66817,0.0334 -2.50565,-0.30068 -2.7061,-0.60136 -0.20045,-0.30068 -1.73725,-0.56795 -1.46998,-0.66817 0.26727,-0.10023 1.13589,-1.33635 1.13589,-1.33635 0,0 -0.73499,1.23612 -0.50113,1.23612 0.23386,0 0.56795,-1.10249 1.00226,-0.96885 0.43431,0.13363 -0.30068,1.60362 -0.30068,1.60362 0,0 0.53454,-0.86863 1.10249,-0.86863 0.56795,0 1.33635,0.0334 1.9043,0 0.56794,-0.0334 1.67043,-1.26953 1.83748,-0.53454 z"
       id="path7854"
       inkscape:connector-curvature="0" />
  </g>
  <g
     inkscape:groupmode="layer"
     id="layer16"
     inkscape:label="Stick"
     style="display:inline">
    <path
       style="fill:#757575;fill-opacity:1;fill-rule:evenodd;stroke:none;stroke-width:0.9968946px;stroke-linecap:butt;stroke-linejoin:miter;stroke-opacity:1"
       d="M 306.85156 866.89062 C 300.2728 867.00673 295.88743 869.97885 291.41016 872.43164 C 285.89961 875.4505 275.61616 886.54689 275.16797 896.28125 C 274.71968 906.01565 292.19742 966.314 298.67773 978.29102 C 300.9877 982.56035 305.50887 990.90799 310.50586 1000 L 335.54102 1000 C 327.07505 982.18605 319.03982 965.07684 318.5 963.32812 C 317.36117 959.63893 312.87117 911.56823 311.75195 908.44336 C 310.63273 905.31848 310.08232 892.31795 310.00391 890.06055 C 309.92559 887.80315 316.24987 869.75085 311.78516 867.30859 C 310.00525 866.98975 308.36974 866.86383 306.85156 866.89062 z "
       transform="scale(0.26458333)"
       id="path7950" />
    <path
       style="fill:#6d6d6d;fill-opacity:1;fill-rule:evenodd;stroke:none;stroke-width:0.26458332px;stroke-linecap:butt;stroke-linejoin:miter;stroke-opacity:1"
       d="m 82.185378,229.77148 c -0.46772,-0.13364 -1.469982,-0.60136 -2.071338,-0.0668 -0.601355,0.53453 1.469981,15.7689 1.469981,18.64205 0,2.87314 1.33635,9.28761 2.271792,10.55714 0.935445,1.26953 3.541321,5.67948 3.541321,5.67948 z"
       id="path9009"
       inkscape:connector-curvature="0"
       sodipodi:nodetypes="cssscc" />
    <path
       style="fill:#787878;fill-opacity:1;fill-rule:evenodd;stroke:none;stroke-width:0.92042929px;stroke-linecap:butt;stroke-linejoin:miter;stroke-opacity:1"
       d="M 348.62695 830.00977 C 347.62552 830.03163 346.61351 830.0985 345.59961 830.21094 C 337.48846 831.11035 318.90437 840.46542 315.60352 848.625 C 312.30262 856.78466 302.29728 881.04117 306.98438 893.84375 C 311.67145 906.64641 309.49058 949.4535 315.11719 961.65234 C 317.64241 967.12716 324.33783 983.38865 331.15625 1000 L 377.28125 1000 C 372.07563 985.96344 366.36823 969.46065 366.11328 964.75781 C 365.69158 956.97769 366.54122 913.3435 365.53906 905.36133 C 364.53695 897.37908 368.60793 841.01563 364.90625 835.63086 C 362.11485 831.88955 355.63699 829.85668 348.62695 830.00977 z "
       transform="scale(0.26458333)"
       id="path7948" />
    <path
       style="fill:#6d6d6d;fill-opacity:1;fill-rule:evenodd;stroke:none;stroke-width:0.26497945px;stroke-linecap:butt;stroke-linejoin:miter;stroke-opacity:1"
       d="m 95.877569,220.21767 c -0.668174,-0.067 -1.403165,-0.46912 -2.204974,-0.33508 -0.80181,0.13403 -0.668174,30.29195 0.06682,33.24073 0.734991,2.94877 6.080381,11.46001 6.080381,11.46001 z"
       id="path9007"
       inkscape:connector-curvature="0" />
    <path
       style="fill:#7c7c7c;fill-opacity:1;fill-rule:evenodd;stroke:none;stroke-width:0.99999994px;stroke-linecap:butt;stroke-linejoin:miter;stroke-opacity:1"
       d="M 403.64844 806.13086 C 403.40028 806.14929 403.16248 806.19967 402.93945 806.28516 C 399.37097 807.65289 375.85213 807.23229 371.29297 812.58984 C 366.7338 817.9474 361.83117 823.20298 360.04688 836.82617 C 358.26258 850.44937 359.21328 885.19713 359.02344 895.93945 C 358.83363 906.68182 360.38447 950.27017 361.36523 958.9375 C 362.34601 967.60479 374.54993 990.48063 378.41406 997.57812 C 378.80441 998.29509 379.40233 999.1225 380.09961 1000 L 449.16211 1000 C 443.91529 986.35117 417.97816 927.86468 416.21094 924.14062 C 414.25911 920.02755 415.08284 820.66482 415.67188 814.88086 C 413.68947 812.72532 407.37084 805.85434 403.64844 806.13086 z "
       transform="scale(0.26458333)"
       id="path7946" />
    <path
       style="fill:#6d6d6d;fill-opacity:1;fill-rule:evenodd;stroke:none;stroke-width:0.26457512px;stroke-linecap:butt;stroke-linejoin:miter;stroke-opacity:1"
       d="m 110.64152,215.94329 c 0,0 -1.46999,-1.8071 -2.33862,-1.8739 -1.67043,1.32536 -0.86862,26.86205 1e-5,30.26953 0.86862,3.40748 11.35895,20.24441 11.35895,20.24441 z"
       id="path9005"
       inkscape:connector-curvature="0"
       sodipodi:nodetypes="ccscc" />
    <path
       style="fill:#848484;fill-opacity:1;fill-rule:evenodd;stroke:none;stroke-width:0.99999994px;stroke-linecap:butt;stroke-linejoin:miter;stroke-opacity:1"
       d="M 452.40234 796.70312 C 450.20504 796.74589 448.03017 797.01272 445.91602 797.55273 C 429.00286 801.8727 431.88731 800.30158 425.03125 804.60938 C 418.17526 808.91709 411.87787 819.53452 413.10742 845.03125 C 414.33709 870.5279 413.33229 919.38126 416.95508 926.03516 C 420.1069 931.82428 439.44996 982.54024 449.26758 1000 L 491.75586 1000 C 495.27374 994.41841 498.09015 987.36702 498.51758 980.25586 C 499.20516 968.81645 494.7747 935.44492 493.21875 919.25781 L 489.97461 917.46484 L 493.09766 854.41602 C 493.22278 846.05059 493.43242 839.82887 493.83203 839.61133 L 493.09766 854.41602 C 492.80604 873.9123 493.02096 906.36152 492.70703 910.95898 C 492.61809 912.26179 492.8339 915.25407 493.21875 919.25781 L 515.80859 931.73633 C 515.80859 931.73633 521.11724 921.94506 520.74023 914.38672 C 520.36304 906.82838 524.27148 882.84805 514.11328 857.32422 C 503.95516 831.80035 496.77129 817.0207 490.14453 811.71484 C 484.34615 807.07216 467.78344 796.40377 452.40234 796.70312 z "
       transform="scale(0.26458333)"
       id="path7940" />
    <path
       style="fill:#636363;fill-opacity:1;fill-rule:evenodd;stroke:none;stroke-width:0.9156847px;stroke-linecap:butt;stroke-linejoin:miter;stroke-opacity:1"
       d="M 490.85938 912.3125 C 490.85938 912.3125 491.79551 947.60832 496.9707 974.96484 C 499.2215 986.86277 494.80078 994.83566 490.70117 1000 L 509.04688 1000 C 511.17886 997.65504 513.35489 995.29978 515.50195 993.06641 C 524.32938 983.88416 525.98103 962.68278 525.61328 956.5957 C 525.2455 950.50862 519.24347 929.9642 515.51172 925.48633 C 511.77993 921.0085 490.85938 912.3125 490.85938 912.3125 z "
       transform="scale(0.26458333)"
       id="path7942" />
    <path
       style="fill:#6d6d6d;fill-opacity:1;fill-rule:evenodd;stroke:none;stroke-width:0.26458332px;stroke-linecap:butt;stroke-linejoin:miter;stroke-opacity:1"
       d="m 131.58295,258.67744 c 0,0 -0.54689,-4.6993 -0.69589,-9.39063 -0.11774,-3.70723 -0.93708,-6.1714 -0.95775,-6.6261 -0.0945,-2.07887 0.56696,-17.5759 0.56696,-17.5759 l 3.2128,-3.30729 c 0,0 -1.88988,-4.81919 -3.30729,-5.76414 -1.41741,-0.94493 -7.65402,-5.66964 -8.97693,-4.44121 -1.32292,1.22842 0.66146,27.87574 1.41741,30.61607 0.75595,2.74032 7.22879,16.30022 8.74069,16.4892 z"
       id="path9011"
       inkscape:connector-curvature="0"
       sodipodi:nodetypes="cssccsssc" />
    <path
       style="fill:#bebebe;fill-opacity:1;fill-rule:evenodd;stroke:none;stroke-width:0.99999994px;stroke-linecap:butt;stroke-linejoin:miter;stroke-opacity:1"
       d="M 465.51172 958.92578 C 461.4097 958.92671 456.76785 961.0043 452.05469 963.57031 C 445.54128 967.97909 447.3939 969.27079 447.04883 972.33398 C 446.71873 975.26465 451.9642 995.67574 455.57617 1000 L 475.34766 1000 C 476.81877 999.2481 478.24512 998.33272 479.56055 997.19141 C 487.56736 990.24429 490.53675 981.43861 488.22266 976.66016 C 485.90856 971.8817 477.46743 966.41346 472.21094 961.51172 C 470.23972 959.67358 467.97293 958.92523 465.51172 958.92578 z "
       transform="scale(0.26458333)"
       id="path7944" />
    <path
       style="fill:#494949;fill-opacity:1;fill-rule:evenodd;stroke:none;stroke-width:0.28298685px;stroke-linecap:butt;stroke-linejoin:miter;stroke-opacity:1"
       d="m 129.93428,242.78533 6.7725,4.12762 c 0,0 1.64805,-1.19001 1.44205,-8.82585 -0.20602,-7.63584 -1.33904,-9.22252 -1.33904,-9.22252 l -6.4892,9.32168 z"
       id="path9013"
       inkscape:connector-curvature="0"
       sodipodi:nodetypes="ccsccc" />
    <path
       style="fill:#989898;fill-opacity:1;fill-rule:evenodd;stroke:none;stroke-width:0.26458332px;stroke-linecap:butt;stroke-linejoin:miter;stroke-opacity:1"
       d="m 129.93756,240.80254 111.97105,-107.06792 -9.76229,-8.98777 -102.12301,99.72501 z"
       id="path7962"
       inkscape:connector-curvature="0"
       sodipodi:nodetypes="ccccc" />
    <path
       style="fill:#515151;fill-rule:evenodd;stroke:none;stroke-width:0.26458332px;stroke-linecap:butt;stroke-linejoin:miter;stroke-opacity:1;fill-opacity:1"
       d="m 130.42753,222.75565 c 0,0 0,-2.00452 -0.33409,-2.53906 -0.33409,-0.53454 -1.46998,-1.06908 -1.46998,-1.06908 0,0 1.5368,1.40317 1.80407,3.60814 z"
       id="path9001"
       inkscape:connector-curvature="0" />
    <path
       style="fill:#4f4f4f;fill-rule:evenodd;stroke:none;stroke-width:0.26458332px;stroke-linecap:butt;stroke-linejoin:miter;stroke-opacity:1;fill-opacity:1"
       d="m 130.16026,242.66723 c 0,0 -0.40091,-1.06908 -1.20272,-1.1359 -0.8018,-0.0668 -1.33634,0.20046 -1.33634,0.20046 0,0 1.46998,-0.13364 2.53906,0.93544 z"
       id="path9003"
       inkscape:connector-curvature="0" />
    <path
       style="fill:#6a6a6a;fill-rule:evenodd;stroke:none;stroke-width:0.26458332px;stroke-linecap:butt;stroke-linejoin:miter;stroke-opacity:1;fill-opacity:1"
       d="m 72.630492,236.92093 c 0,0 0.267272,-1.20271 0.601358,-1.5368 0.334087,-0.33408 2.672694,14.9671 3.942226,18.37478 1.269529,3.40769 5.278572,10.82442 5.278572,10.82442 l -0.601355,0 c 0,0 -4.209497,-7.81763 -4.944486,-9.88897 -0.734991,-2.07134 -4.209497,-16.37026 -4.276315,-17.77343 z"
       id="path9015"
       inkscape:connector-curvature="0" />
    <path
       style="fill:#6a6a6a;fill-rule:evenodd;stroke:none;stroke-width:0.26458332px;stroke-linecap:butt;stroke-linejoin:miter;stroke-opacity:1;fill-opacity:1"
       d="m 72.902156,236.99107 c 0,0 1.653645,-3.16555 2.882069,-4.20499 1.228423,-1.03943 4.252232,-2.59858 4.819197,-2.59858 0.566963,0 1.748139,-1.18118 0.614212,-1.03944 -1.13393,0.14174 -3.543527,0.70871 -5.527902,2.83482 -1.984375,2.12612 -2.929316,3.73252 -2.787576,5.00819 z"
       id="path9017"
       inkscape:connector-curvature="0" />
    <path
       style="fill:#bebebe;fill-opacity:1;fill-rule:evenodd;stroke:none;stroke-width:0.27415463px;stroke-linecap:butt;stroke-linejoin:miter;stroke-opacity:1"
       d="m 109.02332,257.94239 c -1.08001,0.004 -2.31297,0.40754 -3.57254,0.91416 -1.95634,1.00523 -1.46512,1.39017 -1.64174,2.18901 -0.0837,0.37883 0.11374,1.92728 0.44054,3.53777 l 11.14206,0 c 0.12607,-0.52647 0.11431,-1.01115 -0.0466,-1.40922 -0.53142,-1.31466 -2.77837,-2.95813 -4.13902,-4.37596 -0.59529,-0.62028 -1.34269,-0.85891 -2.18269,-0.85576 z"
       id="path9053"
       inkscape:connector-curvature="0" />
  </g>
  <g
     inkscape:groupmode="layer"
     id="layer17"
     inkscape:label="Hair"
     style="display:inline">
    <path
       style="display:inline;fill:#6e6e6e;fill-opacity:1;fill-rule:evenodd;stroke:none;stroke-width:0.26458332px;stroke-linecap:butt;stroke-linejoin:miter;stroke-opacity:1"
       d="m 88.198942,114.9124 c 0,0 4.543584,-16.303445 7.750816,-20.312488 1.755086,-2.193859 5.211762,-3.875407 5.612662,-6.013563 0.4009,-2.138157 -1.76018,-11.326531 -0.0229,-15.201938 1.73725,-3.875408 8.70918,-12.284901 16.72726,-13.754883 8.01809,-1.469983 10.02261,-2.046445 17.10525,5.704372 7.08265,7.750816 9.62171,11.078253 14.9671,12.414602 5.34539,1.336347 33.27505,6.280833 33.27505,6.280833 L 202.9912,55.712198 c 0,0 -2.27179,-14.298922 -7.21627,-20.312486 C 190.83044,29.386149 182.41145,18.160829 175.99698,17.225385 169.58251,16.289942 149.5373,6.6682389 130.42753,15.354499 111.31776,24.040758 98.889724,43.818704 95.415221,52.772233 91.940718,61.725762 78.176335,102.21709 88.198942,114.9124 Z"
       id="path8107"
       inkscape:connector-curvature="0"
       sodipodi:nodetypes="cssssssccssssc" />
    <path
       style="display:inline;fill:#545454;fill-opacity:1;fill-rule:evenodd;stroke:none;stroke-width:0.26458332px;stroke-linecap:butt;stroke-linejoin:miter;stroke-opacity:1"
       d="m 161.30134,78.241069 c 0,0 -0.75595,-13.418155 -1.41741,-19.465773 -0.65786,-6.0147 -4.76833,-19.773435 -6.24333,-23.955632 -1.24853,-3.540085 -4.62079,-9.798856 5.67636,-9.684248 11.85528,0.131951 10.79247,17.197917 11.33651,26.474546 0.56148,9.574114 0.0973,29.749412 0.0973,29.749412 0,0 -0.56696,-9.024181 -0.8032,-9.024181 -0.23623,0 -0.23623,8.409969 -0.23623,8.409969 0,0 -0.23624,-6.992559 -0.37798,-6.992559 -0.14174,0 -1.37016,7.228795 -1.37016,7.228795 0,0 0,-5.669642 -0.47247,-5.716892 -0.47247,-0.04725 -1.27567,6.047621 -1.27567,6.047621 0,0 0.99219,-10.536086 0.75595,-10.961309 -0.23624,-0.425225 -1.84263,8.693452 -1.98437,9.165921 -0.14174,0.472472 0.18898,-6.283854 -0.14174,-6.756323 -0.33073,-0.472472 -0.33073,6.52009 -0.18899,6.945312 0.14174,0.425223 -0.33073,-6.567336 -0.99219,-6.567336 -0.66146,0 -0.33073,6.094864 -0.33073,6.094864 0,0 -0.28348,-4.157736 -0.75595,-4.299479 -0.47247,-0.14174 -1.27567,3.307292 -1.27567,3.307292 z"
       id="path8114"
       inkscape:connector-curvature="0"
       sodipodi:nodetypes="csssscscscscssssscscc" />
    <path
       style="display:inline;fill:#505050;fill-opacity:1;fill-rule:evenodd;stroke:none;stroke-width:0.26458332px;stroke-linecap:butt;stroke-linejoin:miter;stroke-opacity:1"
       d="m 178.99061,70.445312 c 0,0 0.51972,-6.283854 1.46466,-6.945313 0.94494,-0.661458 11.29204,-8.929687 15.54427,-9.449406 4.25223,-0.519715 7.9375,1.181177 7.9375,1.181177 0,0 -17.4814,11.90625 -18.42634,13.843378 -0.94494,1.937129 -1.88988,13.370907 -1.88988,13.370907 0,0 0.56696,-5.811383 0.23623,-5.764136 -0.33073,0.04725 -4.53571,5.5279 -4.53571,5.5279 0,0 3.2128,-5.244417 2.88207,-5.433407 -0.33073,-0.188989 -2.12612,3.307292 -2.12612,3.307292 0,0 1.74814,-3.496281 1.27567,-3.638021 -0.47247,-0.14174 -1.98437,4.346726 -1.98437,4.346726 0,0 0.37797,-2.882069 -0.0472,-2.882069 -0.42522,0 -0.8977,3.401787 -0.8977,3.401787 0,0 0.28349,-3.165551 0,-3.165551 -0.28348,0 -0.89769,3.82701 -0.89769,3.82701 0,0 0.56697,-8.646205 1.37017,-10.016371 0.80319,-1.370163 5.4334,-4.677455 5.24442,-4.819195 -0.18899,-0.141743 -4.77195,3.638021 -4.77195,3.638021 0,0 6.18936,-5.008184 6.00037,-5.38616 -0.18899,-0.377979 -5.90588,4.015996 -6.37835,5.055431 z"
       id="path8118"
       inkscape:connector-curvature="0" />
    <path
       style="display:inline;fill:#5b5b5b;fill-opacity:1;fill-rule:evenodd;stroke:none;stroke-width:0.2852295px;stroke-linecap:butt;stroke-linejoin:miter;stroke-opacity:1"
       d="m 158.60826,56.082215 c 0,0 -6.29597,-7.930152 -10.43579,-11.157957 -3.70443,-2.888333 -9.87929,-3.623515 -14.02556,-3.213665 -3.50627,0.346588 -10.79699,1.360474 -10.79699,1.360474 L 118.153,41.87224 c 0,0 19.79384,-7.013314 25.13232,-6.32283 5.85484,0.757274 10.0644,3.632456 12.60601,9.342075 1.2515,2.81144 2.71693,11.19073 2.71693,11.19073 z"
       id="path8122"
       inkscape:connector-curvature="0"
       sodipodi:nodetypes="cssccssc" />
    <path
       style="display:inline;fill:#585858;fill-opacity:1;fill-rule:evenodd;stroke:none;stroke-width:0.26458332px;stroke-linecap:butt;stroke-linejoin:miter;stroke-opacity:1"
       d="m 171.37503,69.83724 c 0,0 0.94959,-7.249736 1.55104,-10.302633 0.60146,-3.052898 1.38157,-9.838067 2.45488,-13.893983 1.07331,-4.055916 3.61994,-12.932014 3.61994,-12.932014 l -6.57937,-1.347235 c 0,0 -1.3199,12.917191 -0.94193,17.500153 0.37798,4.582961 -0.43529,18.755101 -0.10456,20.975712 z"
       id="path8124"
       inkscape:connector-curvature="0"
       sodipodi:nodetypes="czzccsc" />
    <path
       style="display:inline;fill:#5e5e5e;fill-opacity:1;fill-rule:evenodd;stroke:none;stroke-width:0.26458332px;stroke-linecap:butt;stroke-linejoin:miter;stroke-opacity:1"
       d="m 170.89248,78.855281 c 0,0 1.662,-17.18611 3.28019,-22.006225 2.22062,-6.614583 7.39558,-19.059067 7.39558,-19.059067 l 13.57169,9.709719 c 0,0 -9.74147,7.409439 -12.74629,12.653859 -2.66744,4.655587 -6.39849,21.772772 -6.39849,21.772772 0,0 0.66146,-5.291667 0.18899,-5.386163 -0.47247,-0.09449 -1.22842,4.771951 -1.22842,4.771951 0,0 0.37797,-3.874256 -0.0945,-3.874256 -0.47247,0 -1.46466,4.630208 -1.46466,4.630208 0,0 0.66146,-6.756323 0.23624,-6.709077 -0.42522,0.04725 -1.41741,5.953125 -1.41741,5.953125 0,0 0.8032,-5.811385 0.56697,-5.953125 -0.23624,-0.141742 -0.99219,3.496279 -1.18118,4.063244 -0.18899,0.566965 1.08668,-4.346726 0.66146,-4.535715 -0.42523,-0.188987 -1.37017,3.96875 -1.37017,3.96875 z"
       id="path8116"
       inkscape:connector-curvature="0"
       sodipodi:nodetypes="csccscccscsccscc" />
    <path
       style="display:inline;fill:#515151;fill-opacity:1;fill-rule:evenodd;stroke:none;stroke-width:0.26458332px;stroke-linecap:butt;stroke-linejoin:miter;stroke-opacity:1"
       d="m 143.96168,73.705357 c 0,0 -5.95313,-7.9375 -7.03981,-10.914063 -1.08668,-2.976562 -4.63021,-6.52009 -8.31547,-7.701266 -3.68527,-1.181175 -9.78014,-0.519716 -13.18192,1.795388 -3.40179,2.315104 -9.07143,5.24442 -11.0558,10.394344 -1.98438,5.149927 -6.614588,9.118677 -6.614588,9.118677 L 100.0692,66.051339 c 0,0 9.30766,-8.457218 12.99293,-10.063617 3.68526,-1.606399 6.56733,-1.511903 6.14211,-1.748139 -0.42522,-0.236236 -4.96094,-0.141743 -8.78795,1.653645 -3.82701,1.795386 -10.58333,8.740699 -10.58333,8.740699 0,0 1.88988,-4.866442 3.07106,-6.283854 1.18117,-1.41741 12.42596,-5.905879 14.50483,-5.905879 2.07887,0 -10.91406,0.425225 -10.20535,0.0945 0.7087,-0.330729 10.91406,-4.252232 18.8988,-2.69308 7.98475,1.55915 13.08743,8.126487 15.21355,13.559896 2.12611,5.433406 7.1343,11.90625 7.1343,11.90625 0,0 -3.30729,-4.015999 -3.59078,-4.015999 -0.28348,0 2.31511,3.401787 2.31511,3.401787 0,0 -3.35454,-4.441222 -3.73252,-4.441222 -0.37797,0 1.51191,3.023809 1.51191,3.023809 0,0 -1.6064,-2.36235 -1.84264,-2.36235 -0.23623,0 0.85045,2.787576 0.85045,2.787576 z"
       id="path8126"
       inkscape:connector-curvature="0" />
    <path
       style="fill:#3b3b3b;fill-rule:evenodd;stroke:none;stroke-width:0.26458332px;stroke-linecap:butt;stroke-linejoin:miter;stroke-opacity:1;fill-opacity:1"
       d="m 89.580356,91.470238 6.80357,-24.379465 6.992564,-19.465774 36.28571,-25.891369 35.15179,-0.755952 6.99256,1.511905 c 0,0 -15.11905,-11.90625 -31.37203,-11.90625 -16.25297,0 -31.18303,5.669643 -38.55357,14.363095 -7.37053,8.693453 -19.276784,28.915179 -22.678569,41.955356 -3.401788,13.04018 0.377975,24.568454 0.377975,24.568454 z"
       id="path8266"
       inkscape:connector-curvature="0" />
    <path
       style="display:inline;fill:#626262;fill-opacity:1;fill-rule:evenodd;stroke:none;stroke-width:0.26458332px;stroke-linecap:butt;stroke-linejoin:miter;stroke-opacity:1"
       d="m 160.22808,77.093759 c 0,0 -2.17894,-14.23265 -5.21176,-19.243406 -3.0736,-5.078122 -8.99331,-11.326048 -15.56845,-13.964832 -5.71199,-2.292378 -13.56439,-2.692295 -16.77116,-2.605877 -3.41482,0.09202 -20.57976,4.944485 -22.717906,10.958049 -2.138158,6.013564 11.492586,-5.412209 20.713386,-4.744035 9.22079,0.668176 16.57071,4.343132 20.57976,9.554886 4.00904,5.211755 7.88444,18.842502 7.88444,18.842502 0,0 -0.4009,-6.949006 0.66817,-6.949006 1.06908,0 0.80181,7.483546 0.80181,7.483546 0,0 0.0668,-6.882191 0.33409,-6.748558 0.26727,0.133636 0.80181,7.14946 0.80181,7.14946 0,0 -0.40091,-6.882188 0,-6.882188 0.4009,0 1.46998,7.149459 1.46998,7.149459 0,0 -1.06908,-6.88219 -0.53454,-6.815372 0.53454,0.06682 1.06908,7.216277 1.06908,7.216277 0,0 0.33409,-4.543584 0.73499,-4.543584 0.40091,0 1.60362,5.14494 1.60362,5.14494 0,0 -1.46998,-6.347651 -1.00226,-6.347651 0.46772,0 2.20497,6.748555 2.20497,6.748555 0,0 -0.46772,-4.142679 0.33409,-3.942225 0.80181,0.200451 1.13589,4.476763 1.13589,4.476763 0,0 -0.93544,-5.81311 -0.66817,-5.81311 0.26727,0 1.06908,2.605876 2.13816,3.875407 z"
       id="path8112"
       inkscape:connector-curvature="0"
       sodipodi:nodetypes="csssssscscccscscscscscsc" />
  </g>
  <g
     inkscape:groupmode="layer"
     id="layer18"
     inkscape:label="Headphones">
    <path
       style="fill:#1c1c1c;fill-rule:evenodd;stroke:none;stroke-width:0.26458332px;stroke-linecap:butt;stroke-linejoin:miter;stroke-opacity:1;fill-opacity:1"
       d="m 80.697916,140.65439 c 0,0 -14.45759,1.41741 -15.686011,0.18899 -1.228423,-1.22843 -9.732888,-20.22173 -8.882441,-26.97805 0.850445,-6.75633 4.346726,-24.899185 7.465028,-31.183039 3.118306,-6.283854 6.70908,-15.780507 8.031996,-16.347472 1.322917,-0.566962 5.622396,-0.425222 5.953125,-0.472469 0.330729,-0.04725 2.220608,-0.897694 2.882067,-0.566965 0.661458,0.330729 0.803201,2.4096 1.181176,2.598587 0.377976,0.188989 4.157737,1.27567 5.008185,1.464659 0.850447,0.188986 3.732514,12.04799 2.834822,18.331844 -0.897694,6.283854 -1.370166,30.616075 -2.456847,36.427455 -1.08668,5.81138 -5.291666,16.44196 -6.3311,16.53646 z"
       id="path8143"
       inkscape:connector-curvature="0" />
    <path
       style="fill:#2f2f2f;fill-rule:evenodd;stroke:none;stroke-width:0.26458332px;stroke-linecap:butt;stroke-linejoin:miter;stroke-opacity:1;fill-opacity:1"
       d="m 70.445312,122.41704 c 0.330729,0.42522 2.55134,1.41741 4.441219,1.41741 1.889881,0 4.91369,0.28348 4.960937,-0.0473 0.04725,-0.33073 1.181177,-36.285715 1.039437,-38.033854 -0.141743,-1.748139 -2.362354,-19.796503 -3.212798,-19.749256 -0.850448,0.04725 -3.449035,-0.330729 -3.874257,0.0945 -0.425223,0.425222 2.69308,17.764879 2.645833,19.749254 -0.04725,1.984375 -6.189361,34.962796 -6.000371,36.569196 z"
       id="path8145"
       inkscape:connector-curvature="0" />
    <path
       style="fill:#4f4f4f;fill-rule:evenodd;stroke:none;stroke-width:0.26458332px;stroke-linecap:butt;stroke-linejoin:miter;stroke-opacity:1;fill-opacity:0.47567567"
       d="m 76.35119,89.202381 c 0.330729,-0.519719 0.425222,-0.992188 1.700892,-0.992188 1.27567,0 2.173365,-0.236236 2.55134,0.188987 0.377976,0.425222 0.944941,-0.330729 1.653646,-0.330729 0.708705,0 2.126115,0.850447 2.173362,0.377975 0.04725,-0.472469 0.519718,-2.36235 -0.09449,-2.36235 -0.614211,0 -2.315104,0 -2.834822,0.283482 -0.519716,0.283483 -0.472469,-0.14174 -1.322917,-0.188989 -0.850445,-0.04725 -2.362351,-0.04725 -2.69308,-0.14174 -0.330729,-0.09449 -1.039434,-0.897694 -1.133927,-0.09449 -0.09449,0.803198 0.09449,2.409597 0,3.260045 z"
       id="path8147"
       inkscape:connector-curvature="0" />
    <path
       style="fill:#3d3d3d;fill-rule:evenodd;stroke:none;stroke-width:0.26458332px;stroke-linecap:butt;stroke-linejoin:miter;stroke-opacity:1;fill-opacity:0.4756757"
       d="m 82.162572,68.130207 c 0,0 3.874257,0.33073 4.441222,1.322917 0.566965,0.992188 2.69308,17.575892 2.362351,19.560267 -0.330729,1.984375 -4.346726,11.481029 -4.346726,10.48884 0,-0.992187 0.472469,-12.756697 0.425222,-14.2686 -0.04725,-1.511906 -1.559152,-14.788319 -2.882069,-17.103424 z"
       id="path8149"
       inkscape:connector-curvature="0" />
    <path
       style="fill:#252525;fill-rule:evenodd;stroke:none;stroke-width:0.26458332px;stroke-linecap:butt;stroke-linejoin:miter;stroke-opacity:1;fill-opacity:1"
       d="m 65.767857,96.147693 c 0.614211,1.322917 -2.69308,9.449407 -2.220611,10.016367 0.472472,0.56697 3.921503,-7.890252 3.921503,-6.614582 0,1.275672 -4.252232,23.340032 -4.063243,23.954242 0.188986,0.61421 1.133927,-3.59078 1.937128,-2.69308 0.803198,0.89769 -0.04725,8.26823 -0.708707,7.60677 -0.661459,-0.66146 -0.425223,-2.88207 -0.944939,-3.44903 -0.519718,-0.56697 -1.27567,1.55915 -1.606399,0.89769 -0.330729,-0.66146 2.787573,-18.14286 2.362351,-18.75707 -0.425222,-0.61421 -2.126118,5.29167 -2.834822,4.86644 -0.708705,-0.42522 1.039434,-14.977302 4.157739,-15.827747 z"
       id="path8151"
       inkscape:connector-curvature="0" />
    <path
       style="fill:#131313;fill-opacity:1;fill-rule:evenodd;stroke:none;stroke-width:0.26458332px;stroke-linecap:butt;stroke-linejoin:miter;stroke-opacity:1"
       d="m 74.650297,120.95238 c 0.47247,0.47247 1.322917,0.51972 1.795386,0.18899 0.472472,-0.33073 10.725076,-17.67039 13.276413,-23.151045 2.55134,-5.480653 7.890254,-19.182291 8.929688,-23.48177 1.039436,-4.299479 0.566965,-10.819569 0.992187,-12.803944 0.425229,-1.984375 13.040179,-15.875 17.670389,-20.316219 4.63021,-4.441219 29.48214,-11.055802 38.50632,-10.677827 9.02419,0.377976 23.19829,1.88988 33.30915,13.890625 10.11087,12.000743 12.23698,17.528646 12.23698,17.528646 l 1.88989,-6.756326 c 0,0 -2.03163,-15.260788 -10.67783,-25.22991 -8.64621,-9.969122 -17.33966,-16.583705 -30.47433,-16.489211 -13.13467,0.09449 -39.59301,3.071057 -46.25484,10.961309 -6.66183,7.890253 -18.426337,27.828496 -19.087795,27.828496 -0.661459,0 -3.449035,-1.322916 -4.441222,-0.897691 -0.992188,0.425222 -5.764136,6.3311 -7.701264,9.449403 -1.937128,3.118305 -3.035681,7.037841 -3.035681,7.037841 l 1.798745,0.491463 c 0,0 3.126818,-3.796787 4.402485,-4.410999 1.27567,-0.614212 2.787576,-1.559153 3.354541,-0.755954 0.566962,0.803201 2.69308,6.425596 2.456844,9.496652 -0.236236,3.071056 -6.378347,21.780878 -8.220982,25.702381 -1.842633,3.9215 -10.725074,19.60751 -10.866816,20.22173 -0.14174,0.61421 -0.614212,1.5119 0.141742,2.17336 z"
       id="path8137"
       inkscape:connector-curvature="0"
       sodipodi:nodetypes="csssssssccssssssccsssssc" />
    <path
       style="fill:#414141;fill-rule:evenodd;stroke:none;stroke-width:0.26458332px;stroke-linecap:butt;stroke-linejoin:miter;stroke-opacity:1;fill-opacity:1"
       d="m 74.744791,120.62165 c 0,0 13.276413,-21.402901 14.646576,-25.277158 1.370166,-3.874257 6.661833,-16.489211 7.276042,-21.072173 0.614211,-4.582959 -0.425223,-7.181546 0.377978,-9.874626 0.803198,-2.693082 1.842633,-4.77195 2.504091,-5.24442 0.661462,-0.472471 1.700892,-0.0945 1.700892,-0.0945 0,0 -2.50409,2.598586 -2.456844,5.10268 0.04725,2.50409 0.850445,7.181548 -0.09449,10.536086 -0.944941,3.354538 -7.228795,20.221726 -9.260419,23.95424 -2.031622,3.732521 -12.756695,22.631331 -13.181917,22.631331 -0.425225,0 -1.181177,-0.0945 -1.511906,-0.66146 z"
       id="path8139"
       inkscape:connector-curvature="0" />
    <path
       style="fill:#202020;fill-rule:evenodd;stroke:none;stroke-width:0.26458332px;stroke-linecap:butt;stroke-linejoin:miter;stroke-opacity:1;fill-opacity:1"
       d="m 96.809151,52.585937 c 0,0 0.330729,2.315104 1.27567,3.685267 0.944941,1.370164 2.645829,2.173364 2.645829,2.173364 0,0 15.68602,-18.048364 16.15849,-18.190103 0.47247,-0.141743 25.13541,-15.780508 43.37276,-11.433781 18.23735,4.346726 24.00149,7.323288 32.50596,18.379093 8.50446,11.055802 8.50446,13.512646 8.50446,13.512646 l 1.74814,-3.449031 c 0,0 -0.8977,-14.552083 -8.45722,-23.529017 -7.55952,-8.976935 -13.93787,-18.520834 -28.86793,-19.418527 -14.93006,-0.897694 -41.90811,3.968749 -47.625,9.165922 -5.71689,5.197174 -21.261159,29.104167 -21.261159,29.104167 z"
       id="path8141"
       inkscape:connector-curvature="0" />
  </g>
  <g
     inkscape:groupmode="layer"
     id="layer15"
     inkscape:label="Cymbal"
     style="display:inline">
    <path
       style="fill:#5b5b5b;fill-opacity:1;fill-rule:evenodd;stroke:none;stroke-width:0.26458332px;stroke-linecap:butt;stroke-linejoin:miter;stroke-opacity:1"
       d="m 264.58332,4.9999997e-6 c 0,0 -61.99302,38.7405770000003 -100.7471,108.7651950000003 -38.75408,70.02461 6.41447,99.15699 22.71791,107.17508 16.30344,8.01808 78.02919,13.63074 78.02919,13.63074 z"
       id="path7911"
       inkscape:connector-curvature="0" />
    <path
       style="fill:url(#radialGradient8976);fill-opacity:1;fill-rule:evenodd;stroke:none;stroke-width:0.99260014px;stroke-linecap:butt;stroke-linejoin:miter;stroke-opacity:1"
       d="M 1000 12.355469 C 942.04081 52.33332 760.36765 188.927 639.03516 406.34375 C 493.04013 667.95346 663.20057 776.79077 724.61914 806.74609 C 775.59738 831.60939 944.06374 850.23559 1000 855.86523 L 1000 12.355469 z "
       transform="scale(0.26458333)"
       id="path8974" />
    <path
       inkscape:connector-curvature="0"
       id="path8978"
       d="m 264.58332,104.56927 c 0,0 -10.71402,6.69539 -17.41174,18.79747 -6.69772,12.10209 1.10859,17.13693 3.92625,18.52267 2.81767,1.38573 13.48549,2.35574 13.48549,2.35574 z"
       style="fill:#464646;fill-opacity:1;fill-rule:evenodd;stroke:none;stroke-width:0.04572692px;stroke-linecap:butt;stroke-linejoin:miter;stroke-opacity:1" />
  </g>
  <rect
     style="opacity:1;fill:none;fill-opacity:1;stroke:none;stroke-width:3.96875;stroke-linecap:round;stroke-miterlimit:4;stroke-dasharray:none;stroke-opacity:1"
     id="rect8299"
     width="148.46822"
     height="62.140167"
     x="402.10699"
     y="264.58334" />
</svg>
