<?xml version="1.0" encoding="UTF-8" standalone="no"?>
<!-- Created with Inkscape (http://www.inkscape.org/) -->

<svg
   xmlns:dc="http://purl.org/dc/elements/1.1/"
   xmlns:cc="http://creativecommons.org/ns#"
   xmlns:rdf="http://www.w3.org/1999/02/22-rdf-syntax-ns#"
   xmlns:svg="http://www.w3.org/2000/svg"
   xmlns="http://www.w3.org/2000/svg"
   xmlns:sodipodi="http://sodipodi.sourceforge.net/DTD/sodipodi-0.dtd"
   xmlns:inkscape="http://www.inkscape.org/namespaces/inkscape"
   width="1280"
   height="720"
   viewBox="0 0 338.66666 190.50001"
   id="svg2"
   version="1.1"
   inkscape:version="0.91+devel r13925"
   sodipodi:docname="patrick-grant-discover-video-thumbnail.svg"
   inkscape:export-filename="/Users/agarone/Documents/git/art/patrick-grant/discover/patrick-grant-discover-video-thumbnail.png"
   inkscape:export-xdpi="96"
   inkscape:export-ydpi="96">
  <defs
     id="defs4">
    <linearGradient
       id="linearGradient5627">
      <stop
         style="stop-color:#f80000;stop-opacity:1"
         id="stop5629"
         offset="0" />
      <stop
         style="stop-color:#e69595;stop-opacity:1"
         id="stop5631"
         offset="1" />
    </linearGradient>
    <linearGradient
       id="linearGradient5619">
      <stop
         style="stop-color:#000000;stop-opacity:1"
         id="stop5621"
         offset="0" />
      <stop
         style="stop-color:#000000;stop-opacity:0"
         id="stop5623"
         offset="1" />
    </linearGradient>
    <linearGradient
       id="linearGradient4838">
      <stop
         style="stop-color:#606060;stop-opacity:1"
         id="stop4840"
         offset="0" />
      <stop
         style="stop-color:#ffffff;stop-opacity:1"
         id="stop4842"
         offset="1" />
    </linearGradient>
    <linearGradient
       id="linearGradient4776">
      <stop
         style="stop-color:#c9c9c9;stop-opacity:1"
         offset="0"
         id="stop4778" />
      <stop
         style="stop-color:#555555;stop-opacity:1"
         offset="1"
         id="stop4780" />
    </linearGradient>
    <linearGradient
       id="linearGradient4760">
      <stop
         style="stop-color:#000000;stop-opacity:1"
         offset="0"
         id="stop4762" />
      <stop
         style="stop-color:#555555;stop-opacity:1"
         id="stop4764"
         offset="0.52" />
      <stop
         style="stop-color:#000000;stop-opacity:1"
         offset="1"
         id="stop4766" />
    </linearGradient>
    <linearGradient
       id="linearGradient4744">
      <stop
         style="stop-color:#000000;stop-opacity:1"
         id="stop4746"
         offset="0" />
      <stop
         style="stop-color:#555555;stop-opacity:1"
         offset="0.65"
         id="stop4748" />
      <stop
         style="stop-color:#000000;stop-opacity:1"
         id="stop4750"
         offset="1" />
    </linearGradient>
    <linearGradient
       id="linearGradient4728">
      <stop
         style="stop-color:#000000;stop-opacity:1"
         offset="0"
         id="stop4730" />
      <stop
         style="stop-color:#555555;stop-opacity:1"
         id="stop4732"
         offset="0.72" />
      <stop
         style="stop-color:#000000;stop-opacity:1"
         offset="1"
         id="stop4734" />
    </linearGradient>
    <linearGradient
       id="linearGradient4708">
      <stop
         style="stop-color:#000000;stop-opacity:1"
         id="stop4710"
         offset="0" />
      <stop
         style="stop-color:#555555;stop-opacity:1"
         offset="0.5"
         id="stop4718" />
      <stop
         style="stop-color:#000000;stop-opacity:1"
         id="stop4712"
         offset="1" />
    </linearGradient>
    <linearGradient
       id="linearGradient4679">
      <stop
         style="stop-color:#000000;stop-opacity:1"
         id="stop4681"
         offset="0" />
      <stop
         style="stop-color:#555555;stop-opacity:1"
         id="stop4683"
         offset="1" />
    </linearGradient>
  </defs>
  <sodipodi:namedview
     id="base"
     pagecolor="#ffffff"
     bordercolor="#666666"
     borderopacity="1.0"
     inkscape:pageopacity="0.0"
     inkscape:pageshadow="2"
     inkscape:zoom="0.98994949"
     inkscape:cx="649.67689"
     inkscape:cy="317.56339"
     inkscape:document-units="px"
     inkscape:current-layer="layer4"
     showgrid="false"
     units="px"
     inkscape:window-width="1920"
     inkscape:window-height="1151"
     inkscape:window-x="0"
     inkscape:window-y="1"
     inkscape:window-maximized="1" />
  <metadata
     id="metadata7">
    <rdf:RDF>
      <cc:Work
         rdf:about="">
        <dc:format>image/svg+xml</dc:format>
        <dc:type
           rdf:resource="http://purl.org/dc/dcmitype/StillImage" />
        <dc:title />
      </cc:Work>
    </rdf:RDF>
  </metadata>
  <g
     inkscape:label="Gray BG"
     inkscape:groupmode="layer"
     id="layer1"
     transform="translate(0,-106.49999)">
    <rect
       style="opacity:1;fill:#596268;fill-opacity:1;stroke:none;stroke-width:16.0535984;stroke-miterlimit:4;stroke-dasharray:none;stroke-opacity:1"
       id="rect4141"
       width="338.66669"
       height="190.5"
       x="1.4210855e-14"
       y="106.49999" />
  </g>
  <g
     inkscape:groupmode="layer"
     id="layer5"
     inkscape:label="Residents">
    <g
       id="g4401"
       transform="matrix(-0.58937508,0,0,0.58937508,164.92919,-9.1730383)">
      <g
         style="display:none"
         transform="translate(0,-32.41665)"
         id="layer1-2"
         inkscape:label="BG">
        <rect
           y="32.416653"
           x="-73.712914"
           height="264.58334"
           width="362.85727"
           id="rect5606"
           style="opacity:1;fill:#ffffff;fill-opacity:1;stroke:none;stroke-width:13.59402466;stroke-miterlimit:4;stroke-dasharray:none;stroke-opacity:1" />
      </g>
      <g
         style="display:inline"
         inkscape:label="Head 1"
         id="layer3-8">
        <path
           sodipodi:nodetypes="csssssssssccsssssssssssssssssc"
           inkscape:connector-curvature="0"
           id="path5127"
           d="m 218.62647,162.75364 c 3.60814,0.40091 3.20723,1.73725 3.20723,5.07812 0,3.34087 1.87089,5.7463 2.80633,5.7463 0.93545,0 2.93997,-0.66818 6.81538,0.13363 3.87541,0.80181 6.41447,2.40543 8.55262,3.34087 2.13816,0.93545 7.61718,5.21176 11.75986,9.75534 4.14268,4.54358 12.81543,7.61718 12.81543,11.22532 0,3.60814 4.82437,18.97614 7.36342,22.71791 2.53907,3.74177 4.00904,18.04069 4.00904,24.32152 0,6.28084 1.60362,8.28536 2.53908,11.49259 0.93543,3.20724 1.20269,8.01809 1.20269,8.01809 l -333.285091,0 c 0,0 1.202714,-4.40995 4.810853,-6.81537 3.608138,-2.40543 0.801809,0.66817 5.746295,-5.21176 4.944485,-5.87993 7.617182,-6.5481 12.160763,-6.5481 4.543582,0 2.138156,1.60361 6.548103,1.60361 4.409947,0 7.349912,-3.4745 10.022607,-4.94448 2.672696,-1.46998 0,-1.06908 1.870887,-6.28083 1.870887,-5.21176 -5.211756,0 3.6081387,-7.08265 C 0,222.22111 -10.022607,219.54842 0,217.9448 c 10.022607,-1.60362 4.0090428,3.60814 10.95805,-0.53454 6.949008,-4.14268 27.127858,-19.64431 33.007786,-24.72243 5.87993,-5.07812 4.944488,-5.34539 10.958052,-5.7463 6.013563,-0.4009 4.009043,1.46998 10.557144,-4.14267 6.548105,-5.61266 6.548105,-3.74178 12.294399,-6.28084 5.746295,-2.53906 7.349914,1.51747 7.750816,-2.62521 0.400904,-4.14268 -1.962598,-1.34977 4.050965,-4.02247 6.013567,-2.6727 10.417945,4.35785 14.560628,1.01698 4.14268,-3.34087 16.78032,-7.28899 19.58665,-7.82353 2.80633,-0.53454 94.90198,-0.31015 94.90198,-0.31015 z"
           style="fill:#000000;fill-opacity:1;fill-rule:evenodd;stroke:#000000;stroke-width:0.26458332px;stroke-linecap:butt;stroke-linejoin:miter;stroke-opacity:1" />
        <path
           inkscape:connector-curvature="0"
           id="path5136"
           d="m 127.48756,203.37861 88.73349,-17.90706 -17.63979,79.11178 -78.0427,0 z"
           style="fill:#4a4a4a;fill-opacity:1;fill-rule:evenodd;stroke:none;stroke-width:0.26458332px;stroke-linecap:butt;stroke-linejoin:miter;stroke-opacity:1" />
        <path
           sodipodi:nodetypes="ccccccc"
           inkscape:connector-curvature="0"
           id="path5130"
           d="m 215.55287,166.76268 c -1.20271,4.81085 -5.86507,26.62111 -8.28535,30.46873 -6.2774,13.66437 -19.37123,26.6831 -29.53329,31.80507 -6.26763,1.81274 -13.5637,2.56459 -17.90706,1.20272 -7.07054,-2.1364 -11.77675,-8.59866 -14.43255,-14.16529 -2.00452,-4.14267 -1.87088,-3.4745 -1.87088,-3.4745 z"
           style="fill:#c18d69;fill-opacity:1;fill-rule:evenodd;stroke:none;stroke-width:0.26458332px;stroke-linecap:butt;stroke-linejoin:miter;stroke-opacity:1" />
        <path
           sodipodi:nodetypes="csssccsssssc"
           inkscape:connector-curvature="0"
           id="path5134"
           d="m 211.72332,184.63732 c 0,0 -12.07299,22.48306 -13.6766,32.90657 -1.60362,10.42351 2.13815,2.13816 -2.13816,10.95806 -4.27631,8.81989 -1.60362,3.74177 -6.68174,14.69982 -5.07812,10.95805 -12.82893,21.38156 -12.82893,21.38156 l 48.10851,0 c 0,0 -5.34539,-1.87089 -5.07812,-12.02713 0.26726,-10.15624 -4.27631,-4.00904 -2.13816,-14.96709 2.13816,-10.95805 4.81086,-4.27631 4.81086,-15.50163 0,-11.22532 -2.6727,-13.36348 -1.06909,-19.51068 1.60362,-6.1472 -0.26726,-32.33962 -1.60361,-36.8832 -1.33635,-4.54358 -7.70496,18.94372 -7.70496,18.94372 z"
           style="fill:#292929;fill-opacity:1;fill-rule:evenodd;stroke:none;stroke-width:0.26458332px;stroke-linecap:butt;stroke-linejoin:miter;stroke-opacity:1" />
        <path
           sodipodi:nodetypes="csssssccssssc"
           inkscape:connector-curvature="0"
           id="path5132"
           d="m 122.24501,167.06008 c -2.93996,6.68174 -11.59543,15.73878 -14.80266,24.2914 -3.20724,8.55262 -3.74177,7.48355 -7.483548,14.16529 -3.741772,6.68173 -4.009044,9.08716 -4.009044,13.36347 0,4.27631 -1.069078,12.02713 -2.939962,19.51068 -1.870888,7.48354 1.069078,7.48354 2.138156,13.89801 1.069078,6.41447 1.336347,12.2944 1.336347,12.2944 l 48.910321,0 c 0,0 -7.21627,-8.28536 -7.48355,-20.31248 -0.26727,-12.02713 1.06908,-10.15625 1.87089,-14.69983 0.80181,-4.54358 2.13816,-0.26727 0.80181,-5.61266 -1.33635,-5.34539 -1.87089,-7.21628 -1.87089,-10.69078 0,-3.4745 -9.25159,-44.87116 -16.46787,-46.2075 z"
           style="fill:#292929;fill-opacity:1;fill-rule:evenodd;stroke:none;stroke-width:0.26458332px;stroke-linecap:butt;stroke-linejoin:miter;stroke-opacity:1" />
        <path
           inkscape:connector-curvature="0"
           id="path4822"
           d="m 150.60638,249.82691 c 0,0 -9.88897,-2.13816 -13.89802,-8.28536 -4.00904,-6.14719 -0.93544,-4.54358 -6.41447,-13.22984 -5.47902,-8.68626 -14.16528,-41.56041 -14.16528,-51.44938 0,-9.88897 1.60362,-17.10525 1.20271,-22.31701 -0.4009,-5.21175 0.80181,-14.56619 2.27179,-19.37704 1.46998,-4.81085 5.87993,-29.53328 12.6953,-37.150461 6.81538,-7.617182 15.10073,-23.920621 38.75409,-22.985179 23.65335,0.935442 45.70308,8.68626 51.04848,21.515197 5.34539,12.828933 8.95352,43.297663 7.61718,50.380303 -1.33635,7.08264 -5.61266,19.51068 -4.40995,19.37704 1.20271,-0.13363 8.81989,-20.98066 12.56167,-20.71339 3.74177,0.26728 4.81085,1.46999 4.14267,7.08265 -0.66817,5.61266 -3.07359,8.01808 -3.74177,12.29439 -0.66817,4.27632 -2.00452,14.69983 -3.60814,17.90706 -1.60361,3.20724 -2.00452,5.47903 -4.27631,9.48807 -2.27179,4.00904 -6.5481,3.34087 -8.28535,2.80633 -1.73726,-0.53454 -2.13816,-1.46998 -2.13816,-1.46998 0,0 -2.13816,12.2944 -8.41899,22.45064 -6.28083,10.15624 -16.03617,19.37704 -20.57976,22.58427 -4.54358,3.20724 -11.09168,5.21176 -12.96257,6.81538 -1.87088,1.60361 -7.21627,7.21627 -15.90253,6.949 -8.68626,-0.26726 -11.49259,-2.67269 -11.49259,-2.67269 z"
           style="fill:#d8a689;fill-opacity:1;fill-rule:evenodd;stroke:none;stroke-width:0.26458332px;stroke-linecap:butt;stroke-linejoin:miter;stroke-opacity:1"
           transform="translate(0,-32.41665)" />
        <path
           inkscape:connector-curvature="0"
           id="path5078"
           d="m 174.527,193.48964 c 1.00226,-0.735 1.00226,-1.33635 2.27179,-1.40317 1.26953,-0.0668 3.60814,0.60136 4.54358,1.20271 0.93545,0.60136 2.80633,1.40317 3.00678,0.60136 0.20046,-0.80181 0.26727,-2.60588 0.26727,-3.60814 0,-1.00226 0.80181,-2.33861 1.5368,-2.13815 0.735,0.20045 2.6727,0.53454 2.6727,2.67269 0,2.13816 -1.33635,4.07586 -1.5368,5.67948 -0.20045,1.60361 0.33409,2.73951 -0.20045,3.87541 -0.53454,1.13589 -1.40317,2.27179 -2.47225,1.00226 -1.06907,-1.26953 -1.67043,-2.73951 -3.54132,-3.20724 -1.87088,-0.46772 -3.54132,-0.93544 -4.87766,-1.73725 -1.33635,-0.80181 -1.73726,-2.27179 -1.67044,-2.93996 z"
           style="fill:#ddb299;fill-opacity:1;fill-rule:evenodd;stroke:none;stroke-width:0.26458332px;stroke-linecap:butt;stroke-linejoin:miter;stroke-opacity:1" />
        <path
           inkscape:connector-curvature="0"
           id="path5080"
           d="m 182.468,152.70238 c -0.0945,-0.75595 -2.26785,-0.99219 -1.08668,-1.13393 1.18118,-0.14174 2.55134,-0.89769 2.22061,-1.08668 -0.33073,-0.18899 -3.16555,-0.66146 -4.20498,-0.94494 -1.03944,-0.28348 -1.84264,-0.33073 -1.88988,-2.4096 -0.0472,-2.07887 -1.51191,-2.97656 -0.51972,-3.35454 0.99219,-0.37798 -0.28348,1.55915 1.41741,1.88988 1.70089,0.33073 2.07887,0.33073 3.16555,1.13393 1.08668,0.8032 0.89769,1.13393 2.26786,1.37016 1.37016,0.23624 1.37016,0.70871 3.16555,0.85045 1.79539,0.14174 -1.46466,-0.75595 -1.88988,-0.94494 -0.42522,-0.18899 -0.66146,-0.23623 -1.88988,-0.89769 -1.22843,-0.66146 -1.98438,-1.46466 -2.59859,-2.03162 -0.61421,-0.56697 -0.18899,-0.75596 1.22842,-0.0945 1.41741,0.66146 1.41741,0.94494 2.4096,0.99219 0.99219,0.0472 -1.18117,-0.99219 0.0473,-0.89769 1.22842,0.0945 0.85044,0.85044 2.12611,0.85044 1.27567,0 0.61422,-1.74814 -0.8032,-1.74814 -1.41741,0 -0.37797,-0.51972 2.59859,0.28348 2.97656,0.8032 2.26786,-0.42522 3.44903,-0.42522 1.18118,0 2.64584,0.61421 2.64584,0 0,-0.61421 -2.64584,-0.51972 -3.63802,-0.37798 -0.99219,0.14175 -1.22843,0.23624 -2.07887,0.18899 -0.85045,-0.0472 -5.90588,-0.47247 -7.03981,-1.08668 -1.13393,-0.61421 -0.75595,-0.37797 -1.79539,-1.18118 -1.03943,-0.80319 -1.74814,-1.74813 -2.26785,-2.50409 -0.51972,-0.75595 -1.32292,-1.08668 -1.03944,-2.12611 0.28349,-1.03944 0.28349,-0.56697 0.28349,-1.74814 0,-1.18118 0.23623,-1.65365 -1.18118,-1.08668 -1.41741,0.56696 -3.82701,0.80319 -4.8192,0.80319 -0.99219,0 -2.12611,0.14174 -2.55134,1.98438 -0.42522,1.84263 -1.93712,1.98437 -1.41741,3.44903 0.51972,1.46466 1.79539,3.40179 2.92932,4.15774 1.13393,0.75595 3.49628,2.88207 4.67745,4.96094 1.18118,2.07887 5.14993,3.73251 6.09487,4.34672 0.94494,0.61422 -0.99219,-2.69308 1.98437,-1.18117 z"
           style="fill:#b98663;fill-opacity:1;fill-rule:evenodd;stroke:none;stroke-width:0.26458332px;stroke-linecap:butt;stroke-linejoin:miter;stroke-opacity:1" />
        <path
           inkscape:connector-curvature="0"
           id="path5026"
           d="m 129.03162,130.89788 c 0.66146,0.47247 1.91351,2.43322 4.79557,2.33873 2.88207,-0.0945 5.36254,-0.30711 6.63821,-1.44104 1.27567,-1.13393 1.98438,-1.98437 1.15755,-2.64583 -0.82682,-0.66146 -2.33873,-2.66946 -4.11049,-2.8112 -1.77176,-0.14174 -7.51227,-1.39379 -8.19736,-0.8032 -0.68508,0.59059 -2.14974,3.49628 -0.28348,5.36254 z"
           style="fill:#d3d3d3;fill-opacity:1;fill-rule:evenodd;stroke:none;stroke-width:0.26458332px;stroke-linecap:butt;stroke-linejoin:miter;stroke-opacity:1" />
        <path
           inkscape:connector-curvature="0"
           id="path5072"
           d="m 166.30846,129.57881 c -0.26727,-0.66817 -0.23386,-1.10248 0.0334,-1.57021 0.26727,-0.46772 0.73499,-1.33634 1.33635,-1.30294 0.60136,0.0334 0.30068,0.50113 0.7684,0.53454 0.46772,0.0334 1.00226,0.0334 1.43657,0.0334 0.43431,0 1.10249,-0.46772 1.80407,-0.53454 0.70158,-0.0668 1.87089,-0.0668 2.17157,0 0.30067,0.0668 1.70384,-0.30068 2.50565,-0.30068 0.80181,0 1.23612,0.0668 1.73725,0.30068 0.50113,0.23386 0.0334,0.26727 1.30294,0.26727 1.26953,0 3.20723,-0.33408 3.30746,0.16705 0.10022,0.50113 0.43431,1.1693 -0.0668,1.9377 -0.50113,0.7684 -0.56795,1.03567 -1.90429,1.1359 -1.33635,0.10022 -3.87541,0.33408 -4.77745,0.30067 -0.90203,-0.0334 -0.8018,-0.4009 -2.00452,-0.46772 -1.20271,-0.0668 -1.87089,-0.46772 -3.00678,-0.50113 -1.1359,-0.0334 -1.83748,0.0334 -2.63929,0.0334 -0.80181,0 -1.30294,-0.26727 -2.00452,-0.0334 z"
           style="fill:#898180;fill-opacity:1;fill-rule:evenodd;stroke:none;stroke-width:0.26458332px;stroke-linecap:butt;stroke-linejoin:miter;stroke-opacity:1" />
        <path
           sodipodi:nodetypes="ccsscssssssssccsssssssscsssssscscscssssssssssssccsssssssssssssssc"
           inkscape:connector-curvature="0"
           id="path5068"
           d="m 116.52951,143.64387 c 1.26953,-0.73499 2.13816,1.06908 3.00679,1.73725 0.86862,0.66818 2.3386,1.60362 4.74403,2.40543 2.40543,0.80181 1.06908,1.73725 3.27405,0.93544 2.20497,-0.80181 1.00226,-1.40316 2.73951,-1.46998 1.73726,-0.0668 2.33861,-0.60136 4.74404,-1.20271 2.40542,-0.60136 3.4745,-0.20046 5.0113,-2.00453 1.5368,-1.80407 7.75082,-11.22532 7.75082,-10.49033 0,0.735 -0.80181,7.08265 -0.20046,8.55263 0.60136,1.46998 -1.00225,2.07134 0.0668,2.80633 1.06908,0.73499 1.26953,3.40769 1.00226,5.21176 -0.26727,1.80407 -1.80407,2.67269 -1.87088,4.20949 -0.0668,1.5368 -3.87541,4.34313 -3.60814,5.94674 0.26727,1.60362 -2.07135,8.15173 -0.0668,9.15399 1.48634,4.00647 6.31972,3.85503 12.02713,1.9377 0.86863,0.93545 3.74177,0.86863 3.54132,2.40543 -0.20045,1.5368 -0.73499,1.80407 -1.60362,1.80407 -0.86862,0 -3.20723,0.66817 -3.34087,2.33861 -0.13363,1.67043 0,2.00452 0,4.07586 0,2.07134 1.5368,4.6104 2.07134,5.14494 0.53454,0.53453 2.07134,0.8018 3.20724,1.20271 1.13589,0.4009 1.73725,0.20045 2.40542,0.60135 0.66818,0.40091 4.14268,1.73726 4.81085,2.20498 0.66818,0.46772 4.07586,2.53906 3.27406,2.60588 -0.80181,0.0668 -1.80407,0.46772 -3.94223,0.86862 -2.13816,0.40091 -1.1359,0.20046 -2.93997,0.80181 -1.80406,0.60136 -3.40768,0.86863 -4.94448,0.66817 -1.5368,-0.20045 -1.60362,-0.26726 -2.87315,-0.46772 -1.26953,-0.20045 -0.73499,-0.13363 -1.87089,-0.46772 -1.13589,-0.33408 -1.73725,-1.13589 -3.00678,-1.13589 -1.26953,0 -1.20271,0.0668 -2.73951,0.13363 -1.5368,0.0668 -2.00452,-0.20045 -2.60588,-0.73499 -0.60135,-0.53454 -0.4009,-1.00226 -1.40316,-1.06908 -1.00226,-0.0668 -2.47224,3.14042 -1.00226,3.14042 1.46998,0 1.67043,-0.33409 3.20723,-0.26727 1.5368,0.0668 1.00226,0.26727 2.53906,0.46772 1.5368,0.20045 2.47225,0.20045 3.94223,0.66817 1.46998,0.46773 0.73499,-0.13363 1.60361,0.73499 0.86863,0.86863 5.7463,2.33861 7.21628,2.33861 1.46998,0 2.00452,1.40317 2.53906,2.20498 0.53454,0.8018 0,1.60361 1.93771,3.20723 1.9377,1.60362 3.67495,3.74177 2.53906,3.27405 -1.1359,-0.46772 -2.07134,-2.27179 -3.94223,-2.27179 -1.87089,0 -2.33861,-0.60136 -4.20949,-0.66817 -1.87089,-0.0668 -1.87089,-1.20271 -3.47451,-1.60362 -1.60362,-0.4009 -1.80407,-1.20271 -4.6104,-1.06908 -2.80633,0.13364 -3.20723,-0.60135 -4.87767,-0.53454 -1.67043,0.0668 -1.87088,-0.13363 -1.9377,1.00227 -0.0668,1.13589 0.0668,2.3386 0.53454,4.07585 0.46772,1.73726 1.13589,2.87315 2.60588,3.87541 1.46998,1.00226 2.00452,1.87089 2.27179,2.53906 0.26727,0.66818 1.33635,3.27405 2.20497,2.73952 0.86863,-0.53454 2.27179,-2.47225 3.00678,-2.47225 0.735,0 -0.13363,1.73725 1.06908,2.60588 1.20272,0.86863 4.67722,1.67044 6.1472,2.00452 1.46998,0.33409 3.87541,-0.60135 5.14494,-0.60135 1.26953,0 2.73951,1.06907 1.73725,1.33634 -1.00226,0.26727 -8.35217,0.80181 -10.0226,0.735 -1.67044,-0.0668 -4.94449,-1.46999 -6.1472,-1.67044 -1.20272,-0.20045 -2.73952,-1.67043 -4.81086,-1.80407 -2.07134,-0.13363 -7.68399,-4.54358 -9.6217,-6.34765 -1.9377,-1.80407 -1.33635,-0.26727 -3.00678,-4.47676 -1.67044,-4.2095 -2.27179,-6.68174 -3.60814,-9.42126 -1.33635,-2.73951 -10.42351,-25.65787 -11.55941,-30.80281 -1.13589,-5.14494 -4.40994,-20.71339 -4.07586,-21.64883 z"
           style="fill:#c89370;fill-opacity:1;fill-rule:evenodd;stroke:none;stroke-width:0.26458332px;stroke-linecap:butt;stroke-linejoin:miter;stroke-opacity:1" />
        <path
           sodipodi:nodetypes="csscscccsssscccssssssscsssssccssccscccssscscscsccccscssssscsccsssssscsccccssscsccsssssscssssssssssssscssssscsscssscssscssssssssc"
           inkscape:connector-curvature="0"
           id="path5058"
           transform="scale(0.26458333)"
           d="m 446.06055,481.35547 c -0.89943,-0.009 -1.64119,0.6572 -1.97266,3.08789 -0.75761,5.55583 -0.63158,2.27306 -0.75781,8.33398 -0.12628,6.06093 -0.3784,5.30275 -1.00977,10.35352 -0.63125,5.05077 -0.50514,6.44104 -0.3789,9.97656 0.12627,3.53552 -0.37899,7.82679 -0.75782,10.09961 -0.37878,2.27286 4.92527,-2.27108 5.55664,-5.80664 0.6313,-3.53552 -1.13698,-3.53701 0.25196,-5.68359 1.38897,-2.14655 -0.75781,-4.67172 -0.75781,-8.96485 0,-4.29316 -0.12667,-4.04053 1.00976,-7.19726 1.13643,-3.1567 4.54749,-4.67102 6.82031,-6.3125 2.27286,-1.64153 3.66082,9.84765 6.3125,9.84765 2.65164,0 3.40938,3.91565 5.42969,4.92578 2.02031,1.01016 1.00946,5.17598 2.39844,8.45899 1.38886,3.28297 1.01048,6.94513 1.13672,8.71289 0.12631,1.7678 -0.25196,4.54524 -0.25196,8.20703 0,3.6618 1.64222,2.52618 5.17774,5.55664 3.53552,3.03046 0.5044,0.5058 2.39844,2.65235 1.89403,2.14658 0.37938,3.40773 4.79882,4.03906 4.41941,0.63137 0.25262,3.03125 5.05078,3.03125 4.79827,0 0.1246,0.12519 3.66016,3.4082 3.53552,3.28297 8.71273,1.51563 13.00586,1.51563 4.29317,0 8.58595,-1.26316 13.63672,-1.51563 5.05077,-0.25255 5.55657,-3.66106 10.22852,-7.07031 4.67196,-3.40929 5.43039,-7.57511 8.08203,-8.45899 2.65164,-0.88388 0.63086,0.63019 0.63086,5.55469 0,4.9245 -1.51475,7.57621 -5.68165,15.15235 -4.16683,7.57613 -3.78867,11.36378 -4.79882,18.30859 -1.01016,6.94481 -0.88468,8.20745 -0.50586,14.77344 -0.0243,1.602 0.3532,2.78919 1.00195,3.65429 -0.20892,2.32352 -0.1627,4.46669 0.29688,5.89649 1.60713,4.99997 -8.39287,11.25084 -12.5,14.82226 -4.10714,3.57143 -6.60714,10.714 -2.5,12.14258 0,0 1.959,0.60853 4.48437,-0.27539 2.52541,-0.88388 6.18711,-9.97642 7.19727,-9.4082 1.01015,0.56821 -1.57768,7.4516 -2.39844,8.96679 -0.82073,1.51526 0.31583,7.44839 0.75781,11.61524 0.44194,4.16689 0.37718,2.65214 1.32422,4.23047 0.947,1.57837 0.19054,4.48242 1.83203,4.48242 1.64153,0 1.70529,2.14704 2.46289,4.23047 0.75761,2.08346 1.38839,9.40705 5.30274,17.48828 3.91434,8.0812 15.46752,10.92126 18.30859,10.98438 2.84103,0.0632 3.47342,-5.11222 6.31445,-5.9961 1.74037,-0.54147 5.92194,-0.71201 8.91016,-0.98047 2.00265,1.11419 5.77148,2.89316 5.77148,5.01953 0,3.03572 -0.26888,6.07007 -0.17968,10.08789 0.0893,4.01787 2.41098,4.64454 4.10742,4.64454 1.6964,0 -2.05403,-4.82225 -2.23242,-6.69727 -0.17859,-1.87499 1.16155,-4.82088 1.69726,-7.41016 0.53575,-2.58927 2.94669,-3.661 5.35742,-4.73242 2.4107,-1.07146 2.32118,-3.48269 5.26758,-4.46484 2.94645,-0.98204 3.4827,1.16045 4.46485,0.26758 0.83346,-0.75768 4.86973,-0.81027 6.07617,-1.46289 5.09117,1.27614 21.72305,1.76974 26.73437,0.61328 5.74526,-1.32582 10.54367,-15.21577 13.19531,-23.67578 2.65165,-8.46002 0.56876,-8.08085 4.60938,-10.92188 4.04062,-2.84107 14.51925,8.52452 18.43359,12.69141 3.91435,4.16689 14.64838,21.0853 16.79493,23.67382 2.14658,2.58853 13.13209,25.8865 15.34179,29.99024 0,0 3.59742,9.34361 5.17578,13.82617 1.57837,4.48252 1.20002,12.69017 1.70508,12.81641 0.5051,0.12627 0.44235,-7.26025 -0.82031,-11.67969 -1.2627,-4.4194 -5.36694,-16.6041 -6.94531,-21.21289 -1.57837,-4.60883 -9.09094,-18.18436 -10.73243,-21.02539 -1.64148,-2.84107 -0.94601,-3.91348 -3.59765,-9.2168 -2.65164,-5.30328 -16.28958,-22.60187 -20.70899,-26.26367 -4.41943,-3.66183 -20.10321,-15.17048 -21.49218,-15.17048 -0.73332,0 2.12747,6.3134 -0.36586,9.28957 -2.22917,2.66086 -9.88474,1.86582 -9.76556,4.19034 0.25255,4.9245 5.86368,24.29146 -2.09124,29.21596 -6.91449,4.2804 -21.05835,2.25381 -25.55859,2.14649 -2.07475,-0.59145 -11.04069,0.0332 -12.77539,0.0332 -5.64819,-0.44059 -8.21614,0.34622 -11.57942,0.37827 -5.95909,0.0962 -11.64294,-1.08585 -20.86004,-2.17905 -9.40705,-0.88388 -16.85644,-11.36368 -18.11914,-15.4043 -1.2627,-4.04062 1.69751,-8.12371 -0.0703,-10.58594 -0.86959,-1.2112 -4.64906,2.76499 -5.60547,-0.96094 -0.98786,-3.84847 0.86954,-15.41239 1.38281,-17.36914 1.01012,-3.85122 -0.63089,-7.45015 1.70508,-11.04882 2.33598,-3.59868 5.61837,-9.46866 7.63867,-11.61524 0.75521,-0.80244 0.94525,-2.13484 0.9043,-3.60351 0.431,-0.16756 0.88362,-0.33608 1.24219,-0.5 4.41944,-2.02031 6.18662,-3.91498 10.35351,-7.32422 4.16686,-3.40925 2.02034,-9.84894 2.52539,-14.77344 0.50506,-4.9245 1.76787,-16.92034 2.9043,-23.48633 1.13643,-6.56602 -0.37767,-4.67162 -0.50391,-11.11133 -0.12625,-6.43971 -0.63124,-15.65851 0.37891,-19.32031 1.01016,-3.66179 -2.77938,-5.55566 -3.1582,-6.81836 -0.37879,-1.26266 -3.9137,7.7e-4 -7.44922,0.50586 -3.53552,0.50506 -2.90453,0.25224 -6.1875,1.38867 -3.28301,1.13643 -7.57622,3.15625 -12.62695,3.15625 -5.05078,0 -4.04045,-0.12539 -6.81836,0.88477 -2.77792,1.01015 -10.10157,1.38772 -10.10157,2.65039 0,1.2627 5.30367,-2.14577 8.71289,-2.01953 3.40929,0.12627 2.90502,1.89416 3.03126,2.90429 0.12625,1.01016 -0.38041,3.53516 1.51367,3.53516 1.89399,0 6.31427,-2.9043 8.08203,-2.9043 1.76776,0 1.89384,0.50634 4.29297,-0.125 2.39909,-0.63133 8.58723,-5.80859 10.98633,-5.80859 2.39911,0 -0.12649,3.2834 -0.75782,6.56641 -0.63133,3.28301 -1.76777,2.52471 -5.05078,4.92382 -3.28297,2.3991 -10.60754,3.9135 -10.98633,6.69141 -0.37882,2.77792 -3.28271,2.90459 -6.43945,4.04102 -3.1567,1.13643 -4.92414,-0.88282 -8.58594,-0.88282 -3.66179,0 -4.16638,2.27149 -0.63086,2.27149 3.53552,0 4.67081,-0.75643 5.55469,2.02148 0.88388,2.77799 -2.27338,1.00899 -4.41992,3.0293 -2.14658,2.02031 -5.30157,0.88485 -8.33203,1.26367 -3.03047,0.37879 -5.93459,1.13672 -9.72266,1.13672 -3.78807,0 0.88281,-3.15662 0.88281,-4.67187 0,-1.51522 -4.41955,0.75637 -7.95507,0.5039 -3.53556,-0.25255 -2.27199,-1.26174 -4.16602,-3.78711 -1.89403,-2.5254 -2.52665,-1.76758 -4.92578,-1.76758 -2.39909,0 -1.51406,-0.75892 -0.50391,-4.92578 1.01016,-4.16689 4.67227,-5.30325 3.66211,-5.05078 -1.01015,0.25255 -5.05224,1.01063 -3.1582,-0.63086 1.89403,-1.64152 1.89386,-4.79764 6.81836,-5.30273 4.9245,-0.50506 5.80872,1.26172 11.23828,1.26172 5.42959,0 7.07227,0.12725 7.07226,-1.26172 1e-5,-1.38894 -1.51561,-1.51602 -4.04101,-0.50586 -2.52537,1.01015 -7.07118,-3.15625 -10.48047,-3.15625 -3.40925,0 -6.69162,-2.14698 -12.5,-4.04102 -5.80838,-1.89403 -4.1669,-7.19805 -5.05078,-10.22851 -0.88388,-3.03047 -2.02112,-0.25247 -5.55664,0.3789 -3.53552,0.63134 -7.19696,-4.16698 -8.58594,-5.42968 -1.38898,-1.26267 -3.15625,-5.30229 -3.15625,-8.45899 0,-3.15674 -4.04219,-2.90358 -6.0625,-2.77734 -1.13642,0.071 -2.55258,-1.05698 -3.70899,-1.06836 z"
           style="fill:#a1755a;fill-opacity:1;fill-rule:evenodd;stroke:none;stroke-width:0.99999994px;stroke-linecap:butt;stroke-linejoin:miter;stroke-opacity:1" />
        <path
           sodipodi:nodetypes="cssscsssccccscccccccsssscsccccsssccscsscscccccscccccscccsscscc"
           inkscape:connector-curvature="0"
           id="path5020"
           d="m 147.43255,131.38288 c 0.50113,1.36976 0.66818,2.80633 0.26727,4.51017 -0.4009,1.70385 -0.53454,2.03793 -0.70158,3.74178 -0.16704,1.70384 0.20045,3.04019 0.0668,4.57699 -0.13364,1.5368 -0.60136,2.63928 -0.60136,2.63928 0,0 0.23386,-1.63702 0.0668,-2.83973 -0.16705,-1.20272 -0.735,-3.37428 -0.63477,-4.94449 0.10023,-1.57021 1.00226,-3.57473 0.70158,-5.3788 -0.30067,-1.80407 -0.86862,-2.33861 -1.03567,-2.07134 -0.16704,0.26727 0.26727,1.87089 -0.0334,2.13816 -0.30068,0.26727 -0.3675,-0.30068 -0.46773,0.0668 -0.10022,0.36749 -0.46772,0.76839 -0.60135,0.46772 -0.13364,-0.30068 0.0668,-0.70159 -0.46772,-0.70159 -0.53454,0 -1.24639,-0.009 -1.01015,0.12122 0.23623,0.12993 0.31891,0.25986 0.0118,0.23624 -0.30711,-0.0236 -0.94495,-0.87407 -1.28749,-0.89769 -0.34254,-0.0236 -1.7127,0.27167 -1.68908,0.0709 0.0236,-0.2008 1.0985,-0.8032 1.57097,-0.81501 0.47247,-0.0118 1.74814,-0.0473 1.68908,-0.22443 -0.0591,-0.17717 -0.96857,-0.99218 -0.99219,-1.38197 -0.0236,-0.38979 0.15355,-1.09849 -0.22442,-1.21661 -0.37798,-0.11812 -0.76777,0.16536 -0.99219,0.49609 -0.22442,0.33073 -3.1183,2.78757 -5.16174,2.25604 -2.04343,-0.53152 -3.73251,-2.4214 -3.82701,-4.03961 -0.0945,-1.61821 0.24805,-2.05525 0.0354,-2.17337 -0.21261,-0.11812 -2.84663,-0.63783 -3.50809,0.90951 -0.66146,1.54734 -0.16537,2.06705 0.0118,1.9135 0.17718,-0.15355 0.5079,-0.41341 0.43703,-0.0236 -0.0709,0.38979 -0.37797,0.73233 -0.2008,1.33473 0.17718,0.6024 0.68509,0.96857 0.57878,1.01581 -0.10631,0.0472 -0.72052,-0.64964 -1.13393,-1.06306 -0.41341,-0.41341 -0.92132,-1.28748 -1.38198,-0.68508 -0.46065,0.6024 -0.57877,1.26386 -0.2008,1.96075 0.37798,0.6969 1.57097,1.88989 2.23243,2.06706 0.66145,0.17718 1.93712,0.42522 1.64183,0.72052 -0.29529,0.29529 -3.40178,0.11812 -4.22861,-0.59059 -0.82682,-0.7087 -1.4056,-2.62221 -1.78357,-2.58677 -0.37798,0.0354 -1.72452,1.09849 -2.57497,0.17717 -0.85044,-0.92132 -0.31891,-1.65364 -0.51971,-2.05524 -0.2008,-0.4016 -0.94494,-1.72452 -1.14574,-1.64184 -0.2008,0.0827 -0.22442,0.75596 -0.46066,0.57878 -0.23624,-0.17718 -0.44885,-1.21661 -0.76777,-1.28748 -0.31891,-0.0709 -0.38978,0.0236 -0.24804,-0.44885 0.14174,-0.47247 0.23623,-2.27967 -0.0945,-2.38597 -0.33073,-0.10631 -0.79138,0.83863 -0.75595,1.53553 0.0354,0.69689 0.4961,1.50009 0.27167,1.74813 -0.22442,0.24805 -0.25986,-0.83863 -0.5079,-1.26385 -0.24805,-0.42523 -0.0236,-1.83083 -0.16537,-2.75214 -0.14174,-0.92132 -0.31892,-3.70889 -0.0236,-3.85063 0.2953,-0.14175 1.74815,0.3071 1.91351,1.19298 0.16537,0.88588 -0.43704,2.24424 -0.28348,2.75214 0.15355,0.50791 0.14174,-0.29529 0.5079,-0.22442 0.36617,0.0709 0.93313,1.13393 1.51191,0.93313 0.57877,-0.2008 0.75595,-1.03944 0.93313,-0.50791 0.17717,0.53153 0.73233,1.07487 1.47647,0.8977 0.74414,-0.17718 0.68508,-0.0827 0.67327,0.37797 -0.0118,0.46066 0.79138,0.57878 1.004,0.42522 0.21261,-0.15355 2.40959,0.0827 2.64583,-0.22442 0.23623,-0.30711 0.18899,-0.62602 0.35435,-0.48428 0.16537,0.14174 0.0354,0.49609 1.34654,0.4016 1.31111,-0.0945 4.34673,-0.10631 4.94913,0.0236 1.43928,0.2463 10.70473,4.20273 12.81404,6.47355 z"
           style="fill:#3d2e29;fill-opacity:1;fill-rule:evenodd;stroke:none;stroke-width:0.26458332px;stroke-linecap:butt;stroke-linejoin:miter;stroke-opacity:1" />
        <path
           inkscape:connector-curvature="0"
           id="path5106"
           d="m 132.26501,126.17112 c 0.43431,0 0.56794,-0.0668 1.33634,0 0.7684,0.0668 0.73499,0.23386 0.96886,0.33409 0.23386,0.10023 0.10022,0.0668 0.7684,0.0668 0.66817,0 1.00226,-0.16705 1.50339,-0.16705 0.50113,0 0.83521,-0.0334 1.30294,0.20046 0.46772,0.23386 0.30067,0 1.10248,0.43431 0.80181,0.43431 1.67044,0.60136 1.73725,0.86863 0.0668,0.26727 0.46773,0.66817 0.30068,0.93544 -0.16704,0.26727 -0.16704,0.23386 -0.53454,0.60136 -0.36749,0.36749 -0.20045,0.43431 -0.56794,0.73499 -0.3675,0.30068 -0.50114,0.13363 -0.7684,0.63476 -0.26727,0.50113 0.0668,0.50113 -0.43432,0.63477 -0.50113,0.13363 -0.53454,0.63476 -1.13589,0.66817 -0.60136,0.0334 -1.60362,0.0334 -1.80407,0.0668 -0.20045,0.0334 -0.23386,0.0668 -0.7684,-0.0668 -0.53454,-0.13363 -0.43431,-0.10022 -0.83522,-0.50113 -0.4009,-0.4009 -0.23386,-0.26727 -0.80181,-0.66817 -0.56795,-0.40091 -0.50113,-0.26727 -0.7684,-0.70158 -0.26727,-0.43432 -0.20045,-0.53454 -0.23386,-1.00227 -0.0334,-0.46772 -0.26727,-0.36749 -0.26727,-1.00226 0,-0.63476 -0.0668,-0.73499 0,-1.10248 0.0668,-0.3675 0.0334,-0.3675 -0.10022,-0.96886 z"
           style="fill:#294590;fill-opacity:1;fill-rule:evenodd;stroke:none;stroke-width:0.26458332px;stroke-linecap:butt;stroke-linejoin:miter;stroke-opacity:1" />
        <path
           inkscape:connector-curvature="0"
           id="path5123"
           d="m 135.7407,126.90551 c -0.70871,0.33073 -0.70871,-0.75595 -0.70871,0.33073 0,1.08668 0.42522,1.65364 0.42522,1.65364 0,0 0.99219,0.47247 1.46466,0.42523 0.47247,-0.0472 1.46466,-0.14175 1.55915,-0.70871 0.0945,-0.56696 -0.23623,-0.75595 -0.33073,-1.13393 -0.0945,-0.37797 -0.56696,-1.18117 -1.32291,-1.03943 -0.75595,0.14174 -1.08668,0.47247 -1.08668,0.47247 z"
           style="fill:#2c1f16;fill-opacity:1;fill-rule:evenodd;stroke:none;stroke-width:0.26458332px;stroke-linecap:butt;stroke-linejoin:miter;stroke-opacity:1" />
        <path
           inkscape:connector-curvature="0"
           id="path5022"
           d="m 137.46521,127.99219 c 0.51972,-0.0472 0.70871,-0.25986 0.37798,-0.77958 -0.33073,-0.51972 -1.96075,-0.77958 -1.88988,-0.54334 0.0709,0.23624 0.85045,0.25986 1.08668,0.54334 0.23624,0.28348 0.25986,0.73233 0.42522,0.77958 z"
           style="fill:#eae4e0;fill-opacity:1;fill-rule:evenodd;stroke:none;stroke-width:0.26458332px;stroke-linecap:butt;stroke-linejoin:miter;stroke-opacity:1" />
        <path
           inkscape:connector-curvature="0"
           id="path5024"
           d="m 133.09487,127.82682 c 0,-0.4016 0.47247,-1.15755 0.63783,-1.06306 0.16536,0.0945 0.35435,0.87407 0.66146,0.85045 0.3071,-0.0236 0.14174,-0.44885 0.44885,-0.44885 0.3071,0 0.47246,0.56697 0.35435,0.73233 -0.11812,0.16537 -0.4016,-0.18899 -0.59059,-0.0472 -0.18899,0.14175 -1.2048,0.30711 -1.5119,-0.0236 z"
           style="fill:#eae4e0;fill-opacity:1;fill-rule:evenodd;stroke:none;stroke-width:0.26458332px;stroke-linecap:butt;stroke-linejoin:miter;stroke-opacity:1" />
        <path
           inkscape:connector-curvature="0"
           id="path5076"
           d="m 177.46696,67.60569 c 2.93997,2.939965 5.07813,6.280835 5.21176,9.888973 0.13363,3.608139 -0.66817,0.534538 0.13363,5.879928 0.80181,5.345391 0.66818,6.815373 3.20724,9.087165 2.53906,2.271792 10.02261,-2.138156 11.62622,-2.138156 1.60362,0 4.14268,-1.603618 5.61266,-1.737251 1.46999,-0.133636 1.46999,0.133633 1.73725,2.271791 0.26728,2.138157 1.46999,2.672694 0.26728,5.078119 -1.20272,2.405428 -0.66818,1.469983 -2.00453,4.142681 -1.33634,2.67269 -1.73725,2.13815 -2.00452,4.67722 -0.26727,2.53906 -0.53454,0.26726 -1.06908,2.80632 -0.53454,2.53907 -0.8018,-0.26726 -0.8018,4.00905 0,4.27631 1.06907,1.46998 0,5.61266 -1.06908,4.14268 -4.54359,4.54358 -4.67722,5.47902 -0.13364,0.93545 13.0962,2.93997 14.56619,5.7463 1.46998,2.80633 4.81085,3.20723 6.01356,3.74177 1.20271,0.53454 3.0736,1.73725 2.6727,5.07812 -0.40091,3.34087 -9.88897,12.42804 -14.43256,14.29892 -4.54358,1.87089 -8.81989,0 -9.08716,2.80633 -0.26727,2.80633 5.21175,5.34539 7.34991,5.21176 2.13816,-0.13364 6.01356,-2.80633 8.15172,-4.54358 2.13816,-1.73726 5.61266,-1.20272 7.21628,-1.87089 1.60362,-0.66817 2.13815,-3.0736 3.4745,-5.61266 1.33635,-2.53906 3.0736,-5.47903 3.20724,-10.15624 0.13363,-4.67722 1.06908,-7.21628 1.06908,-12.82894 0,-5.61266 2.80633,-6.81537 -0.93545,-9.35443 -3.74177,-2.53906 -5.61266,-1.33635 -5.61266,-7.61719 0,-6.28083 2.13816,-7.750811 3.4745,-12.828932 1.33635,-5.078121 -0.53453,-17.639789 -2.27178,-20.980659 -1.73726,-3.340867 -1.87089,-7.216278 -5.87994,-8.285356 -4.00904,-1.069078 -4.54358,-4.677216 -8.68626,-4.677216 -4.14267,0 -6.28083,0.801809 -10.15624,0.935445 -3.87541,0.133633 -12.02713,-1.202714 -14.16528,1.870887 -2.13816,3.073598 -3.20724,4.009041 -3.20724,4.009041 z"
           style="fill:#ddb299;fill-opacity:1;fill-rule:evenodd;stroke:none;stroke-width:0.26458332px;stroke-linecap:butt;stroke-linejoin:miter;stroke-opacity:1" />
        <path
           inkscape:connector-curvature="0"
           id="path5028"
           d="m 116.84189,144.24516 c 0.35435,0.0472 1.06306,8.62258 3.09468,10.58333 2.03162,1.96076 3.85063,1.84264 4.48847,3.80339 0.63783,1.96075 2.76395,5.78776 3.23642,6.07124 0.47247,0.28349 -0.8977,1.18118 -0.4016,3.89788 0.49609,2.71671 0.85044,3.77976 0.33073,6.4256 -0.51972,2.64583 -0.21262,7.77213 0.61421,9.37853 0.82682,1.6064 2.59858,1.96075 2.10249,1.18118 -0.49609,-0.77958 -2.14974,-3.68527 -1.88988,-5.52791 0.25986,-1.84263 0.82682,-3.68526 0.70871,-4.2286 -0.11812,-0.54334 0.0472,-1.58278 0.82682,-3.07106 0.77957,-1.48828 4.63021,-7.25242 4.63021,-6.54371 0,0.7087 -4.25224,5.55152 -4.39398,7.67764 -0.14174,2.12612 -0.0472,3.2128 -0.25986,4.20498 -0.21261,0.99219 0.18899,3.28367 1.25205,3.7089 1.06306,0.42522 3.47266,1.27566 4.11049,1.81901 0.63784,0.54334 1.22842,1.1103 2.1025,0.92131 0.87406,-0.18899 1.53552,-0.8032 1.79538,-0.44884 0.25986,0.35435 0.0945,0.92131 1.46466,0.82682 1.37016,-0.0945 3.44903,-0.0472 4.20498,0.44885 0.75595,0.49609 4.15774,3.04743 5.19718,2.90569 1.03943,-0.14174 5.74051,-0.63784 5.69326,-0.25986 -0.0472,0.37797 -1.03943,0.99219 -0.16536,1.03943 0.87407,0.0472 4.41759,0.16537 5.22079,0.4961 0.8032,0.33073 3.11831,1.79538 4.15774,1.88988 1.03944,0.0945 1.72452,0.99219 2.8112,1.27567 1.08668,0.28348 2.62221,0.56696 4.016,0.59059 1.39378,0.0236 3.16555,0.0709 4.15773,0.33072 0.99219,0.25986 3.09468,1.06306 3.07106,1.27567 -0.0236,0.21262 -1.44103,-0.4016 -1.98437,-0.37797 -0.54335,0.0236 -0.85045,0.3071 -1.08669,0.21261 -0.23623,-0.0945 -0.37797,-0.49609 -0.89769,-0.49609 -0.51972,0 -0.47247,-0.47248 -1.22842,-0.4961 -0.75595,-0.0236 -3.70889,-0.16536 -4.55934,0.0236 -0.85044,0.18899 -2.38597,-0.68508 -2.55134,-0.54334 -0.16536,0.14174 -0.49609,0.87407 -1.08668,0.51972 -0.59059,-0.35436 -1.6064,-1.27568 -2.03162,-1.27568 -0.42522,0 -0.61421,0.16537 -0.87407,-0.14174 -0.25986,-0.3071 -0.85045,-0.49609 -0.85045,0.0236 0,0.51972 -0.33073,0.44884 -0.66146,-0.0709 -0.33072,-0.51972 -0.68508,-0.51972 -0.99218,-0.30711 -0.30711,0.21261 -1.11031,-0.4016 -1.44104,-0.21261 -0.33073,0.18899 -1.34654,0.44885 -1.67727,1.18117 -0.33073,0.73233 -0.33073,-0.54334 -0.49609,-0.68508 -0.16537,-0.14174 -0.4961,-0.99218 -0.85045,-0.59059 -0.35435,0.4016 -1.03943,0.68509 -1.03943,1.34655 0,0.66145 -0.21261,0.33072 -0.0945,-0.44885 0.11812,-0.77958 -0.16536,-1.32292 -0.28348,-1.25205 -0.11812,0.0709 -0.68508,2.19699 -1.01581,2.4096 -0.33073,0.21261 -0.54334,0.33073 -0.37797,-0.56696 0.16536,-0.8977 0.35435,-2.12612 -0.0709,-2.17337 -0.42522,-0.0472 -0.68508,0.0709 -1.32291,0.35436 -0.63784,0.28348 -2.48047,0.28348 -2.45685,0.0709 0.0236,-0.21261 0.28348,-1.32292 0,-1.32292 -0.28348,0 -0.63783,1.06306 -0.89769,1.25205 -0.25986,0.18898 -0.42523,-0.0709 -0.61421,0.42522 -0.18899,0.49609 -0.28348,1.84263 -0.51972,1.84263 -0.23623,0 0.0709,-2.43322 0.25986,-2.90569 0.18899,-0.47247 0.54334,-1.15755 0.14174,-1.15755 -0.4016,0 -1.08668,0.0236 -1.22842,-0.14174 -0.14174,-0.16537 -0.59059,0.49609 -0.30711,0.54334 0.28348,0.0472 0.73233,-0.25986 0.30711,0.35435 -0.42523,0.61421 -0.0236,2.76395 -0.23624,2.52772 -0.21261,-0.23624 -0.21261,-1.01581 -0.61421,-0.99219 -0.4016,0.0236 -0.7087,0.8032 -0.92132,0.70871 -0.21261,-0.0945 0.37798,-1.34654 0.16537,-1.37017 -0.21261,-0.0236 -0.63784,0.56697 -1.11031,0.56697 -0.47247,0 -1.08668,-0.59059 -1.2048,-0.25986 -0.11811,0.33073 -0.18898,1.48828 -0.49609,1.2048 -0.30711,-0.28349 -0.96856,-1.08668 -1.13393,-0.61422 -0.16536,0.47248 0.99219,0.61422 0.8977,1.15756 -0.0945,0.54334 -0.66146,0.3071 -0.61422,0.99218 0.0472,0.68509 1.39379,2.88207 1.88989,2.88207 0.49609,0 0.82682,-1.48828 1.60639,-1.5119 0.77958,-0.0236 1.86626,1.9135 3.00019,1.96075 1.13393,0.0472 2.14974,-0.96856 2.48047,-0.68508 0.33073,0.28348 0.0945,1.06306 0.68508,1.06306 0.59059,0 1.32292,-1.01582 1.32292,-0.51972 0,0.49609 1.2048,0.28348 1.46465,0.63783 0.25986,0.35436 0.66146,-0.0236 1.15756,0.18899 0.49609,0.21261 2.85844,1.32292 3.1183,1.86626 0.25986,0.54334 2.24423,0.87407 2.22061,1.08668 -0.0236,0.21261 -1.93713,-0.0709 -2.74033,-0.21261 -0.8032,-0.14174 -2.52771,-1.74814 -2.78757,-1.72452 -0.25986,0.0236 -0.11812,1.48828 -0.30711,1.46466 -0.18899,-0.0236 -0.54334,-1.63002 -1.06306,-1.6064 -0.51971,0.0236 -1.65364,0.66146 -1.65364,0.44885 0,-0.21261 -0.16537,-0.77958 -0.63784,-0.77958 -0.47247,0 -0.73232,-0.63783 -1.29929,-0.61421 -0.56696,0.0236 -4.06324,0.4961 -4.67745,0.70871 -0.61422,0.21261 -0.82683,0.89769 -1.06306,0.89769 -0.23624,0 -0.8032,-0.70871 -0.94494,-0.14174 -0.14174,0.56696 -0.66146,1.1103 -0.66146,1.67727 0,0.56696 0.63783,1.81901 0.14174,1.81901 -0.49609,0 -1.13393,-1.08668 -1.63002,-1.74814 -0.4961,-0.66146 -0.59059,-1.41741 -1.18118,-1.18118 -0.59059,0.23624 -1.2048,0.44885 -1.2048,0.99219 0,0.54334 0.35436,1.6064 0,1.6064 -0.35435,0 -0.42522,-1.08668 -0.85044,-1.15755 -0.42523,-0.0709 -1.2993,0.35435 -1.2993,-0.30711 0,-0.66146 -0.63783,-1.79538 -0.85044,-1.93713 -0.21262,-0.14174 -0.73233,-1.77176 -1.2993,-1.86625 -0.56696,-0.0945 -6.52009,-9.49666 -7.1343,-11.38654 -0.61421,-1.88988 -3.80338,-12.63857 -3.21279,-12.63857 0.59058,0 0.99218,0.0945 0.96856,0.77957 -0.0236,0.68508 0.11812,2.29148 0.49609,2.31511 0.37798,0.0236 -0.18898,-2.66946 0.11812,-2.74033 0.30711,-0.0709 0.54334,0.99219 0.85045,0.96856 0.3071,-0.0236 -0.16537,-1.77176 -0.28348,-2.38597 -0.11812,-0.61422 -0.25986,0.28348 -0.37798,0.0236 -0.11812,-0.25985 -0.16536,-1.41741 -0.25986,-1.5119 -0.0945,-0.0945 -0.37798,-1.48828 -0.8032,-1.79539 -0.42522,-0.30711 -1.74814,-3.9215 -1.53553,-4.39397 0.21262,-0.47247 -0.16536,-1.03944 -0.4016,-1.01581 -0.23623,0.0236 -0.68508,-2.1025 -1.1103,-2.1025 -0.42522,0 -0.0236,1.91351 -0.4961,1.7009 -0.47246,-0.21261 -1.74813,-3.2128 -1.93712,-5.12631 -0.18899,-1.9135 -2.50409,-12.61495 -1.93713,-13.98511 z"
           style="fill:#a1755a;fill-opacity:1;fill-rule:evenodd;stroke:none;stroke-width:0.26458332px;stroke-linecap:butt;stroke-linejoin:miter;stroke-opacity:1" />
        <path
           inkscape:connector-curvature="0"
           id="path5030"
           d="m 129.84287,183.7343 c -0.0334,-0.16704 0.60136,-0.20045 0.60136,-0.48443 0,-0.28397 0.0501,-0.93544 0.28398,-0.86862 0.23386,0.0668 0.21715,1.21941 0.56794,1.21941 0.35079,0 0.81852,-0.60135 1.10249,-0.45101 0.28398,0.15034 0.71829,0.7684 0.93544,0.7684 0.21716,0 0.0334,-0.33409 0.48443,-0.30068 0.45102,0.0334 1.30294,0.61806 2.25509,1.18601 0.95214,0.56794 2.07134,0.36749 2.10475,0.48442 0.0334,0.11693 0.53453,0.3842 0.98555,0.31738 0.45102,-0.0668 0.86863,0.38421 1.11919,0.31739 0.25057,-0.0668 1.18601,-0.33409 1.08578,0.0835 -0.10022,0.41761 0.28398,0.41761 0.46773,0.18375 0.18374,-0.23386 0.73499,0.15034 0.95214,-0.0167 0.21716,-0.16704 1.01897,-0.28397 1.03567,0 0.0167,0.28397 -0.33408,0.71829 -0.23386,0.80181 0.10023,0.0835 0.71829,-0.26727 0.86863,-0.3842 0.15034,-0.11693 0.68488,-0.0167 1.1693,0.3842 0.48443,0.4009 0.96885,0.0334 1.18601,0.53454 0.21716,0.50113 0.56795,0.90203 1.18601,0.90203 0.61806,0 1.26953,0.40091 1.20271,0.51784 -0.0668,0.11693 -0.18375,0.35079 -1.30294,0.16704 -1.11919,-0.18375 -1.9377,-1.00226 -2.08804,-1.38646 -0.15034,-0.3842 -0.63476,-0.7851 -0.7684,-0.50113 -0.13364,0.28397 -0.31738,1.23612 -0.80181,1.1359 -0.48442,-0.10023 -0.26727,-0.48443 -0.73499,-0.51784 -0.46772,-0.0334 -0.81851,-0.16704 -1.05237,-0.28397 -0.23387,-0.11693 -0.23387,0.35079 -0.45102,0.18375 -0.21716,-0.16705 -0.56795,-0.85193 -0.66818,-0.50114 -0.10022,0.3508 0.50114,0.93545 -0.10022,0.93545 -0.60136,0 -1.63703,-0.23386 -1.67044,-0.43431 -0.0334,-0.20046 -0.30067,-0.83522 -0.66817,-0.50114 -0.3675,0.33409 -0.0167,0.78511 -0.31738,0.78511 -0.30068,0 -0.81852,-1.45328 -1.05238,-1.45328 -0.23386,0 -0.7851,0.65147 -1.1693,0.65147 -0.3842,0 0.58465,-0.46772 0.30068,-0.58465 -0.28397,-0.11693 -0.33409,-0.55124 -0.60136,-0.50113 -0.26727,0.0501 -0.4009,0.41761 -0.83522,0.30068 -0.43431,-0.11693 -0.28397,-0.40091 -0.71828,-0.3675 -0.43432,0.0334 -0.85192,0.11693 -0.73499,-0.26727 0.11693,-0.3842 0.88533,-1.08578 0.33408,-0.98556 -0.55124,0.10023 -0.75169,0.85193 -1.00226,0.65147 -0.25056,-0.20045 0.13364,-0.45101 -0.23386,-0.56794 -0.36749,-0.11693 -0.85192,-0.28398 -1.21942,-0.10023 -0.36749,0.18375 -0.13363,-0.11693 -0.30067,-0.3675 -0.16705,-0.25056 -0.61806,-0.65147 -0.60136,-0.10022 0.0167,0.55124 -0.56795,0.33408 -0.50113,-0.0334 0.0668,-0.3675 0.16704,-0.61806 -0.40091,-0.55124 z"
           style="fill:#75523b;fill-opacity:1;fill-rule:evenodd;stroke:none;stroke-width:0.26458332px;stroke-linecap:butt;stroke-linejoin:miter;stroke-opacity:1" />
        <path
           inkscape:connector-curvature="0"
           id="path5032"
           d="m 150.07184,190.58308 c -0.0835,-0.30068 -0.81852,-1.30294 -0.48443,-1.26953 0.33409,0.0334 0.43431,0.7684 0.96886,0.70158 0.53453,-0.0668 0.50112,-0.58465 1.05237,-0.31738 0.55124,0.26727 2.25508,0.43431 2.90655,0.43431 0.65147,0 1.10249,-0.23386 1.57021,0.41761 0.46772,0.65147 0.50113,0.10023 0.95215,0.0835 0.45102,-0.0167 2.40543,-0.16704 2.97337,0.16705 0.56795,0.33408 1.5201,-0.0501 1.62032,0.31738 0.10023,0.3675 0.26728,0.51783 0.63477,0.46772 0.3675,-0.0501 0.86863,-0.41761 1.21942,0.0835 0.35079,0.50113 0.63476,-0.16704 1.08578,0.16705 0.45102,0.33408 0.41761,0.46772 0.7684,0.31738 0.35079,-0.15034 0.56795,0.18375 1.00226,0.35079 0.43431,0.16704 0.95215,0.48443 1.60362,0.56795 0.65147,0.0835 1.67043,0.16704 1.67043,0.36749 0,0.20045 -0.55124,0.51784 -1.38646,0.21716 -0.83522,-0.30068 -1.10249,-0.71829 -1.46998,-0.70158 -0.3675,0.0167 -0.48443,0.36749 -0.71829,0.18375 -0.23386,-0.18375 -0.25056,-0.46773 -0.4009,-0.45102 -0.15034,0.0167 -0.0501,0.60135 -0.46772,0.33409 -0.41761,-0.26728 -0.33409,-0.63477 -0.56795,-0.63477 -0.23386,0 -0.61806,-0.11693 -0.7517,-0.30068 -0.13363,-0.18375 -0.98555,-0.0167 -1.20271,-0.30068 -0.21716,-0.28397 -0.91874,-0.13363 -0.98556,-0.0668 -0.0668,0.0668 -0.43431,-0.13364 -0.75169,-0.21716 -0.31738,-0.0835 -0.7517,0.0835 -1.1526,0.0668 -0.4009,-0.0167 -0.51784,-0.40091 -1.03567,-0.40091 -0.51784,0 -0.81851,0.41761 -0.90204,0.16705 -0.0835,-0.25057 -0.0167,-0.10023 -0.45101,-0.10023 -0.43432,0 -0.20046,-0.31738 -0.56795,-0.31738 -0.3675,0 -0.46772,0.0668 -0.73499,-0.10023 -0.26727,-0.16704 -0.56795,-0.21715 -0.91874,-0.0835 -0.35079,0.13363 -1.26953,0.23386 -1.40317,0 -0.13363,-0.23386 -0.86862,0.0501 -1.186,-0.16704 -0.31739,-0.21716 -1.01897,0.46772 -1.25283,0.13363 -0.23386,-0.33409 -0.33409,-0.20045 -0.71829,-0.36749 -0.3842,-0.16705 -0.51783,0.25056 -0.51783,0.25056 z"
           style="fill:#75523b;fill-opacity:1;fill-rule:evenodd;stroke:none;stroke-width:0.26458332px;stroke-linecap:butt;stroke-linejoin:miter;stroke-opacity:1" />
        <path
           inkscape:connector-curvature="0"
           id="path5034"
           d="m 173.82542,193.7235 c -0.0167,-0.25057 1.46998,-0.11693 2.03793,0.0835 0.56794,0.20045 0.43431,0.25057 1.1693,0.33409 0.73499,0.0835 1.75396,0.43431 1.75396,0.61806 0,0.18375 -1.36976,-0.3842 -1.77066,-0.40091 -0.40091,-0.0167 -0.73499,0.3842 -0.93544,0.20045 -0.20046,-0.18374 -0.38421,-0.61806 -0.90204,-0.61806 -0.51784,0 -1.57021,-0.0668 -1.35305,-0.21715 z"
           style="fill:none;fill-rule:evenodd;stroke:none;stroke-width:0.26458332px;stroke-linecap:butt;stroke-linejoin:miter;stroke-opacity:1" />
        <path
           inkscape:connector-curvature="0"
           id="path5038"
           d="m 136.40768,161.98524 c 0.41761,0.33409 1.21942,0.23386 1.43658,-0.0668 0.21716,-0.30067 0.11693,-0.56794 0.3842,-0.56794 0.26727,0 0.53454,-0.21716 0.53454,-0.45102 0,-0.23386 0.25056,-0.88533 0.41761,-1.08578 0.16704,-0.20046 1.05237,-1.77066 1.48668,-2.07134 0.43431,-0.30068 0.7684,-0.46772 0.7684,-0.83522 0,-0.3675 -0.20045,-1.45328 -0.43431,-1.30294 -0.23386,0.15034 0.10022,1.06908 -0.28397,1.35305 -0.38421,0.28398 -0.85193,0.23386 -0.86863,0.66818 -0.0167,0.43431 0.15034,0.95215 -0.0668,1.00226 -0.21716,0.0501 -0.41761,-0.10023 -0.51783,0.23386 -0.10023,0.33408 0.10022,0.70158 -0.13364,0.80181 -0.23386,0.10022 -0.50113,-0.0668 -0.50113,0.21715 0,0.28398 0.28398,0.81852 0.10023,0.81852 -0.18375,0 -0.61806,-0.0167 -0.71829,0.26726 -0.10023,0.28398 0.20045,0.3508 -0.11693,0.45102 -0.31738,0.10023 -0.61806,-0.15033 -0.70158,0.13364 -0.0835,0.28397 -0.43432,0.25056 -0.78511,0.43431 z"
           style="fill:#75523b;fill-opacity:1;fill-rule:evenodd;stroke:none;stroke-width:0.26458332px;stroke-linecap:butt;stroke-linejoin:miter;stroke-opacity:1" />
        <path
           inkscape:connector-curvature="0"
           id="path5042"
           d="m 151.3204,176.97554 c 0,-0.2008 0.68509,-0.44885 0.99219,-0.55516 0.30711,-0.1063 0.81501,-0.55515 1.01581,-0.44884 0.2008,0.1063 0.54334,-0.2953 0.76777,-0.28348 0.22442,0.0118 0.73232,-0.0354 0.55515,0.0354 -0.17718,0.0709 -0.46066,0.15355 -0.73233,0.2008 -0.27167,0.0472 -0.1063,0.35435 -0.36617,0.4016 -0.25985,0.0473 -0.36616,0.27167 -0.72051,0.35435 -0.35436,0.0827 -0.33073,0.16537 -0.59059,0.4016 -0.25986,0.23624 -0.69689,-0.0591 -0.92132,-0.1063 z"
           style="fill:#451e13;fill-opacity:1;fill-rule:evenodd;stroke:none;stroke-width:0.26458332px;stroke-linecap:butt;stroke-linejoin:miter;stroke-opacity:1" />
        <path
           inkscape:connector-curvature="0"
           id="path5046"
           d="m 171.43669,166.62905 c 0.0501,-0.33409 1.01897,0.66817 1.40317,0.95215 0.3842,0.28397 0.86863,0.83522 0.91874,0.93544 0.0501,0.10023 0.86863,0.85192 1.1526,1.1359 0.28397,0.28397 0.66817,0.66817 0.86862,1.01896 0.20046,0.35079 0.93545,1.33635 1.21942,1.73725 0.28398,0.40091 0.96886,0.7684 1.11919,1.23613 0.15034,0.46772 -0.0668,0.90203 0.26727,1.08578 0.33409,0.18374 0.60136,0.28397 0.60136,0.66817 0,0.3842 -0.25056,0.18375 -0.55124,-0.26727 -0.30068,-0.45102 -0.40091,-0.91874 -0.60136,-1.1526 -0.20045,-0.23386 -0.20045,-0.50113 -0.43431,-0.80181 -0.23386,-0.30067 -0.50113,-0.60135 -0.81852,-1.03567 -0.31738,-0.43431 -0.66817,-0.60135 -0.88533,-1.08578 -0.21715,-0.48443 -0.50113,-0.53454 -0.81851,-0.95215 -0.31738,-0.41761 -0.48442,-0.55124 -0.7684,-0.90203 -0.28397,-0.35079 -0.66817,-0.60136 -0.95215,-0.86863 -0.28397,-0.26727 -0.11693,-0.51783 -0.61806,-0.7851 -0.50113,-0.26727 -1.1693,-0.68488 -1.10249,-0.91874 z"
           style="fill:#95684b;fill-opacity:1;fill-rule:evenodd;stroke:none;stroke-width:0.26458332px;stroke-linecap:butt;stroke-linejoin:miter;stroke-opacity:1" />
        <path
           inkscape:connector-curvature="0"
           id="path5048"
           d="m 164.80507,132.65241 c 0.26727,-0.43431 1.87089,-1.10249 3.40769,-1.23612 1.5368,-0.13363 2.03793,-0.33409 2.57247,-0.73499 0.53453,-0.4009 3.14041,-1.11919 3.70836,-0.95215 0.56795,0.16704 3.64155,0.13363 4.67722,-0.0668 1.03567,-0.20045 4.84426,-0.11693 4.52687,0.10023 -0.31738,0.21715 -0.8018,0.45102 -1.50339,0.58465 -0.70158,0.13364 -1.58691,0.10023 -2.3052,0.0334 -0.71828,-0.0668 -0.45101,0.36749 -1.40316,0.4009 -0.95215,0.0334 -2.22168,0.0167 -2.73951,0.0668 -0.51784,0.0501 -1.1359,0.73499 -1.83748,0.61806 -0.70158,-0.11693 -0.61806,-0.33408 -1.06908,-0.35079 -0.45102,-0.0167 -0.80181,-0.23386 -1.36976,0.10023 -0.56794,0.33408 -0.15034,0.81851 -0.88533,0.81851 -0.73499,0 -1.28623,-0.0501 -1.35305,0.3675 -0.0668,0.4176 -0.0167,0.91873 0.33409,0.75169 0.35079,-0.16704 1.1526,-0.4009 1.46998,-0.25056 0.31738,0.15034 0.63477,0.18374 0.96885,0.0334 0.33409,-0.15034 0.16705,0 0.65147,-0.0835 0.48443,-0.0835 0.43432,-0.15034 1.03567,-0.3842 0.60136,-0.23386 0.18375,-0.16704 0.80181,-0.16704 0.61806,0 1.01897,-0.0501 1.23612,-0.28397 0.21716,-0.23387 2.32191,0.7851 2.00452,1.05237 -0.31738,0.26727 -0.68487,0.51783 -0.91874,0.7517 -0.23386,0.23386 -0.33408,0.15033 -0.60135,0.4176 -0.26727,0.26727 -0.23386,0.61807 -0.61806,0.61807 -0.3842,0 0.0334,-0.20046 -0.86863,0.0334 -0.90203,0.23386 -0.80181,0.26727 -0.41761,0.55125 0.3842,0.28397 0.58465,0.71828 0.58465,1.13589 0,0.41761 0.20046,1.21942 -0.13363,1.23612 -0.33409,0.0167 -0.26727,-0.58465 -0.33409,-0.86862 -0.0668,-0.28398 0,-0.68488 -0.28397,-0.90204 -0.28397,-0.21715 -0.75169,-0.51783 -0.95215,-0.48442 -0.20045,0.0334 -0.20045,0.48442 -0.48442,0.58465 -0.28398,0.10022 -0.50114,-0.30068 -0.7517,-0.0668 -0.25056,0.23386 -0.56795,0.30068 -0.3842,0.63477 0.18375,0.33408 1.16931,0.0501 1.46998,0.30067 0.30068,0.25057 0.13364,0.95215 0.68488,0.95215 0.55125,0 0.7517,-0.0668 1.1359,0.0835 0.3842,0.15034 0.43431,0.26727 0.86862,0.16705 0.43432,-0.10023 0.3508,-0.7684 0.63477,-0.7684 0.28397,0 -0.0835,0.53454 0.31738,0.80181 0.40091,0.26727 0.31738,0.60135 0.0334,0.73499 -0.28398,0.13363 -0.30068,-0.3675 -0.61806,-0.3675 -0.31739,0 -0.66818,0.18375 -1.18601,0.16704 -0.51783,-0.0167 -0.85192,-0.15033 -1.45328,-0.13363 -0.60135,0.0167 -0.36749,0.10023 -0.75169,-0.0334 -0.38421,-0.13363 -0.65147,-0.10022 -1.06908,-0.15034 -0.41761,-0.0501 -0.40091,-0.65147 -0.66818,-0.48442 -0.26726,0.16704 -0.28397,0.43431 -0.75169,0.13363 -0.46772,-0.30068 -0.83522,-0.31738 -0.83522,-0.56795 0,-0.25056 2.25509,-1.80406 2.25509,-2.15486 0,-0.35079 -0.3842,-0.63476 -0.93544,-0.51783 -0.55125,0.11693 -1.31965,0.35079 -1.20272,0.46772 0.11693,0.11693 1.10249,0 0.58465,0.21716 -0.51783,0.21715 -0.66817,0.15034 -1.186,0.18375 -0.51784,0.0334 -0.71829,0.0167 -1.18601,-0.0668 -0.46772,-0.0835 -0.13364,-0.25057 -0.26727,-0.55125 -0.13364,-0.30067 0.0167,-0.36749 -0.46773,-0.36749 -0.48442,0 -0.98555,0.0167 -1.28623,-0.35079 -0.30068,-0.3675 0.30068,-0.0334 0.23386,-0.41761 -0.0668,-0.3842 0.0501,-0.31738 -0.30068,-0.63477 -0.35079,-0.31738 -1.10248,-0.36749 -0.81851,-0.70158 z"
           style="fill:#21120e;fill-opacity:1;fill-rule:evenodd;stroke:none;stroke-width:0.26458332px;stroke-linecap:butt;stroke-linejoin:miter;stroke-opacity:1" />
        <path
           inkscape:connector-curvature="0"
           id="path5052"
           d="m 170.83534,129.25308 c -0.0752,-0.23386 -0.0418,-0.63477 0.20045,-0.735 0.24222,-0.10022 0.30068,-0.23385 0.44267,-0.47607 0.14198,-0.24221 0.14198,-0.43431 0.4176,-0.50948 0.27563,-0.0752 0.25892,-0.32574 0.56795,-0.32574 0.30903,0 0.56795,-0.0167 0.45937,0.0752 -0.10858,0.0919 -0.39255,0.25057 -0.53454,0.46772 -0.14198,0.21716 -0.11693,0.14199 -0.25056,0.42597 -0.13364,0.28397 -0.20881,0.39255 -0.43431,0.51783 -0.22551,0.12528 -0.60971,0.58465 -0.86863,0.5596 z"
           style="fill:#474342;fill-opacity:1;fill-rule:evenodd;stroke:none;stroke-width:0.26458332px;stroke-linecap:butt;stroke-linejoin:miter;stroke-opacity:1" />
        <path
           inkscape:connector-curvature="0"
           id="path5056"
           d="m 183.17985,127.74133 c 1.1359,-0.70158 3.34087,-0.7684 3.64155,-1.70384 0.30068,-0.93544 0,-1.30294 0.73499,-1.50339 0.73499,-0.20045 1.9043,0.86862 2.7061,0.26727 0.80181,-0.60136 1.60362,-0.90204 2.43884,-0.23386 0.83521,0.66817 2.10475,1.36976 3.30746,1.36976 1.20271,0 4.91108,0.13363 4.00904,0.4009 -0.90203,0.26727 -1.03567,0.86862 -3.90882,0.96885 -2.87314,0.10023 -4.10926,-0.0334 -5.67947,-0.13363 -1.57021,-0.10023 -2.00452,0.20045 -2.57247,1.10248 -0.56795,0.90204 -0.23386,0.83522 -1.26953,0.86863 -1.03567,0.0334 -1.23612,0.56795 -1.57021,1.43657 -0.33409,0.86863 -0.73499,0.70159 -1.20272,0.10023 -0.46772,-0.60136 0.46773,-2.77292 -0.63476,-2.93997 z"
           style="fill:#898180;fill-opacity:1;fill-rule:evenodd;stroke:none;stroke-width:0.26458332px;stroke-linecap:butt;stroke-linejoin:miter;stroke-opacity:1" />
        <path
           inkscape:connector-curvature="0"
           id="path5054"
           d="m 174.65228,129.65398 c -0.16704,-0.17539 -0.51783,0.0835 -0.33409,-0.41761 0.18375,-0.50113 0.10023,-0.64311 0.0752,-0.91039 -0.0251,-0.26726 0.4009,-0.67652 0.60135,-0.54289 0.20045,0.13364 0.10023,0.33409 0.46772,0.24222 0.3675,-0.0919 0.0919,-0.29233 0.53454,-0.29233 0.44267,0 0.26727,0.1754 0.62642,0.0668 0.35914,-0.10858 0.0668,-0.0919 0.63476,-0.11693 0.56795,-0.0251 0.35914,-0.0919 0.67653,-0.20045 0.31738,-0.10858 0.13363,-0.008 0.58465,0.0418 0.45102,0.0501 0.60135,0.0167 0.98556,0.0501 0.38419,0.0334 0.10857,0.10023 0.54289,0.18375 0.43431,0.0835 0.55959,-0.10858 0.87697,-0.15869 0.31739,-0.0501 0.62642,-0.008 0.62642,0.11693 0,0.12528 -0.5429,0.33408 -0.22551,0.3842 0.31738,0.0501 1.04402,0.008 1.18601,-0.0752 0.14198,-0.0835 -0.21716,-0.20045 -0.10858,-0.35079 0.10858,-0.15034 0.60971,-0.0418 0.70993,0.15034 0.10023,0.1921 -0.0251,0.32573 0.39256,0.32573 0.4176,0 0.76839,0.0334 0.76839,0.0919 0,0.0585 -0.4176,0.0418 -0.47607,0.35915 -0.0585,0.31738 -0.48442,0.47607 -0.33409,0.58465 0.15034,0.10858 0.86028,-0.14199 0.86863,0.025 0.008,0.16705 -0.30068,0.90204 -0.51784,0.90204 -0.21715,0 -0.76839,-0.53454 -1.13589,-0.55124 -0.36749,-0.0167 -0.50948,0.10022 -0.86027,0.30903 -0.3508,0.2088 -0.62642,0.56794 -0.9438,0.593 -0.31738,0.0251 -1.04402,-0.17539 -1.24447,-0.29232 -0.20045,-0.11693 -0.54289,0.0585 -0.7684,0.26726 -0.22551,0.20881 -0.5596,0.35915 -1.09414,0.34244 -0.53454,-0.0167 -1.31964,-0.1921 -1.50339,-0.30067 -0.18374,-0.10858 0.42596,-0.0835 0.18375,-0.33409 -0.24221,-0.25057 -0.36749,-0.0334 -0.65982,0 -0.29233,0.0334 -1.41987,-0.0919 -1.1359,-0.49278 z"
           style="fill:#474342;fill-opacity:1;fill-rule:evenodd;stroke:none;stroke-width:0.26458332px;stroke-linecap:butt;stroke-linejoin:miter;stroke-opacity:1" />
        <path
           inkscape:connector-curvature="0"
           id="path5060"
           d="m 176.98254,137.81405 c -0.0668,-0.4009 0.4009,-0.63476 0.26727,-0.7851 -0.13364,-0.15034 -0.55125,-0.11693 -0.56795,-0.51783 -0.0167,-0.40091 0.25057,-0.70159 0.25057,-1.1359 0,-0.43431 0.28397,-0.43431 0.28397,-0.93545 0,-0.50112 -0.16704,-0.55124 0.18375,-0.88533 0.35079,-0.33408 0.88533,-0.4176 1.43657,-0.4176 0.55124,0 0.85192,-0.0668 1.06908,0.20045 0.21715,0.26727 4.72733,0.43431 5.74629,0.43431 1.01897,0 4.49347,0.83522 4.92779,1.03567 0.43431,0.20045 2.7228,0.90204 2.80632,1.26953 0.0835,0.3675 0.3675,0.50113 0.3675,1.01897 0,0.51783 0.25057,0.63476 -0.3675,1.01896 -0.61806,0.3842 -0.66817,0.7517 -1.23612,1.06908 -0.56794,0.31738 -2.93996,2.35531 -5.98015,1.88759 -3.04019,-0.46772 -4.89437,-0.65147 -5.57925,-0.93544 -0.68488,-0.28398 -3.64155,-1.68714 -3.60814,-2.32191 z"
           style="fill:#d3d3d3;fill-opacity:1;fill-rule:evenodd;stroke:none;stroke-width:0.26458332px;stroke-linecap:butt;stroke-linejoin:miter;stroke-opacity:1" />
        <path
           inkscape:connector-curvature="0"
           id="path5064"
           d="m 180.70805,133.89806 c -0.0118,0.48428 -0.0472,0.21262 -0.0472,0.67327 0,0.46066 0.17717,0.8977 0.17717,1.2048 0,0.30711 -0.2008,0 0.0118,0.38979 0.21261,0.38979 0.59059,1.05125 0.94494,1.42922 0.35436,0.37798 0.22443,0.43704 0.77958,0.79139 0.55515,0.35435 1.07487,1.004 1.65365,1.03943 0.57877,0.0354 1.1103,0.31892 1.66545,0.24805 0.55515,-0.0709 0.47247,0.0709 0.95676,-0.14174 0.48428,-0.21261 0.75595,-0.22442 1.2166,-0.46066 0.46067,-0.23623 0.72052,-0.42522 0.99219,-0.67327 0.27167,-0.24804 0.77958,-0.75595 1.02763,-0.88588 0.24804,-0.12993 0.49609,-0.79139 0.64964,-1.18117 0.15356,-0.38979 0.28349,-0.8032 0.28349,-1.34655 0,-0.54334 -10.06362,-2.32691 -10.31167,-1.08668 z"
           style="fill:#294590;fill-opacity:1;fill-rule:evenodd;stroke:none;stroke-width:0.26458332px;stroke-linecap:butt;stroke-linejoin:miter;stroke-opacity:1" />
        <path
           inkscape:connector-curvature="0"
           id="path5050"
           d="m 172.02641,133.81538 c 0,-0.37797 0.54334,-0.34254 0.93313,-0.55515 0.38979,-0.21261 0.6024,-0.35435 1.11031,-0.44885 0.5079,-0.0945 0.37797,-0.18899 0.87407,-0.3071 0.49609,-0.11812 0.29529,-0.11812 1.13392,-0.11812 0.83864,0 0.86226,-0.0945 1.55916,-0.17718 0.69689,-0.0827 0.43703,-0.11812 1.21661,-0.1063 0.77957,0.0118 3.86244,0.67327 4.55934,0.77957 0.69689,0.10631 4.1223,0.95675 4.73651,1.15755 0.61421,0.2008 1.50009,0.21262 2.16155,0.25986 0.66146,0.0473 2.35054,0.70871 2.32692,0.59059 -0.0236,-0.11812 -0.25986,-0.6024 -0.0118,-0.59059 0.24804,0.0118 -0.0945,0.6024 0.46065,0.72052 0.55516,0.11812 3.57896,0.81501 3.92151,1.01581 0.34254,0.2008 0.38978,0.53153 0.82682,0.53153 0.43703,0 0.76776,-0.0827 0.87407,0.15355 0.1063,0.23624 0.29529,0.90951 0.43703,0.64965 0.14175,-0.25986 0.54335,-0.46066 1.004,0.0354 0.46066,0.49609 0.64965,1.46465 0.93313,1.21661 0.28348,-0.24805 0.31892,-0.66146 0.79139,-0.24805 0.47247,0.41341 0.36616,0.51972 0.81501,0.51972 0.44885,0 1.37016,0.69689 1.16936,0.69689 -0.20079,0 -0.81501,-0.24805 -1.29929,-0.41341 -0.48428,-0.16537 -0.62602,-0.0591 -1.02762,-0.0709 -0.4016,-0.0118 -0.6024,0.25986 -0.93313,0.25986 -0.33073,0 -0.67327,-0.12993 -0.92132,-0.2953 -0.24804,-0.16536 -0.34254,-0.0709 -0.74414,-0.11812 -0.4016,-0.0472 -0.5079,-0.33072 -0.7087,-0.31891 -0.2008,0.0118 0.0472,0.55515 -0.2953,0.6024 -0.34254,0.0472 0.30711,-0.0236 -0.0118,-0.62603 -0.31892,-0.6024 -0.33073,-0.77957 -0.6024,-0.69689 -0.27167,0.0827 -0.4016,0.53153 -0.7087,0.49609 -0.30711,-0.0354 -0.46066,-0.37797 -0.75595,-0.37797 -0.2953,0 -0.55516,-0.0473 -0.60241,0.17717 -0.0472,0.22443 -0.25985,0.68509 -0.43703,0.68509 -0.17718,0 0.17718,-0.27167 -0.0945,-0.37798 -0.27167,-0.10631 -0.76777,0.0354 -0.76777,-0.23623 0,-0.27168 0.38979,-0.72052 0.37798,-0.90951 -0.0118,-0.18899 -0.0354,-0.18899 -0.27167,-0.41341 -0.23624,-0.22443 -0.42523,-0.46066 -0.72052,-0.4016 -0.29529,0.0591 -0.51972,-0.0236 -0.41341,-0.15356 0.1063,-0.12992 0.79139,-0.15355 0.69689,-0.31891 -0.0945,-0.16537 0.0709,-0.38979 -0.25986,-0.38979 -0.33073,0 -0.55515,0.33073 -0.72051,0.10631 -0.16537,-0.22443 -0.25986,-0.36617 -0.4961,-0.36617 -0.23623,0 -0.11811,0.28348 -0.41341,0.28348 -0.29529,0 -0.47247,-0.28348 -0.64965,-0.21261 -0.17717,0.0709 -0.40159,0.81501 -0.57877,1.15756 -0.17718,0.34254 -0.24805,0.64964 -0.44885,0.7087 -0.2008,0.0591 -0.11811,0.0118 -0.42522,0.37798 -0.30711,0.36616 -0.49609,0.66145 -0.68508,0.69689 -0.18899,0.0354 -0.16537,-0.23624 0.0236,-0.53153 0.18899,-0.29529 0.0472,-0.56696 0.36616,-0.62602 0.31892,-0.0591 0.70871,-0.47247 0.68508,-0.75596 -0.0236,-0.28348 0.0118,-0.48428 -0.16536,-0.55515 -0.17718,-0.0709 -0.43704,-0.18899 -0.62603,0.11812 -0.18898,0.3071 -0.46065,0.49609 -0.57877,0.22442 -0.11812,-0.27167 -0.17718,-0.44884 -0.56696,-0.46066 -0.38979,-0.0118 -0.36617,0.11812 -0.2008,0.4016 0.16536,0.28349 0.72051,0.64965 0.85044,0.67327 0.12993,0.0236 0.2953,0.36617 -0.2008,0.24805 -0.49609,-0.11812 -0.62602,-0.24805 -0.81501,-0.61421 -0.18899,-0.36617 -0.33073,-0.63783 -0.66146,-0.62602 -0.33073,0.0118 -0.27167,0.34254 -0.75595,0.28348 -0.48428,-0.0591 -0.34254,-0.30711 -0.82682,-0.36617 -0.48428,-0.0591 -0.50791,-0.0591 -0.77958,0.16537 -0.27167,0.22442 -0.41341,-0.4016 -0.67327,-0.61421 -0.25986,-0.21261 -0.63783,0.0354 -0.61421,-0.34254 0.0236,-0.37798 0.57878,-1.05125 0.21261,-1.004 -0.36616,0.0472 -0.24804,0.54334 -0.62602,0.51971 -0.37798,-0.0236 -0.55515,-0.29529 -0.74414,-0.38978 -0.18899,-0.0945 -0.41341,-0.25986 -0.72052,0.0472 -0.3071,0.30711 -0.36616,0.53153 -0.2008,0.75596 0.16536,0.22442 0.28348,0.21261 0.24805,0.54334 -0.0354,0.33073 -0.33073,0.42522 0,0.7087 0.33073,0.28348 1.1103,0.90951 0.96856,1.11031 -0.14174,0.2008 -0.12993,0.22442 0.0827,0.35435 0.21262,0.12993 0.54334,0.38979 0.75596,0.54334 0.21261,0.15355 0.66145,0.10631 0.80319,0.35435 0.14175,0.24805 0.54335,0.8977 0.24805,0.81501 -0.29529,-0.0827 -0.57877,-0.37797 -0.9095,-0.55515 -0.33073,-0.17717 -0.43704,-0.22442 -0.64965,-0.37797 -0.21261,-0.15356 -0.55515,-0.70871 -0.83864,-0.8032 -0.28348,-0.0945 -0.23623,-0.34254 -0.49609,-0.74414 -0.25986,-0.4016 -0.6024,-0.56697 -0.61421,-0.93313 -0.0118,-0.36617 0.0118,-1.004 -0.17718,-1.33473 -0.18898,-0.33073 0.33073,-0.27167 0.15356,-0.55515 -0.17718,-0.28349 -0.38979,-0.79139 -0.57878,-0.79139 -0.18899,0 -0.36616,-0.0118 -0.4016,-0.23624 -0.0354,-0.22442 -0.3071,-0.0118 -0.7087,-0.0354 -0.4016,-0.0236 -1.73633,-0.17718 -2.13793,0.0236 -0.4016,0.20081 -0.0354,0.38979 -0.38979,0.54335 -0.35435,0.15355 -0.53153,-0.16537 -0.86226,-0.12993 -0.33073,0.0354 -0.11812,0.61421 -0.38978,0.76776 -0.27168,0.15355 -1.74815,0.72052 -1.51191,0.38979 0.23624,-0.33073 1.45284,-0.72052 1.01581,-0.86226 -0.43703,-0.14174 -0.79139,-0.43703 -1.16936,-0.33073 -0.37798,0.10631 -0.4016,0.43704 -0.82683,0.47247 -0.42522,0.0354 -0.9095,-0.11812 -0.9095,-0.11812 z"
           style="fill:#3d2e29;fill-opacity:1;fill-rule:evenodd;stroke:none;stroke-width:0.26458332px;stroke-linecap:butt;stroke-linejoin:miter;stroke-opacity:1" />
        <path
           inkscape:connector-curvature="0"
           id="path5088"
           d="m 225.70911,148.52154 c 1.06908,0 1.5368,-4.07586 2.6727,-4.07586 1.13589,0 3.0736,0.80181 4.07586,-0.80181 1.00226,-1.60362 2.53906,-3.87541 2.80633,-6.61492 0.26727,-2.73951 0.80181,-4.87767 -0.26727,-5.61266 -1.06908,-0.73499 -3.67496,-2.13816 -3.67496,-2.13816 0,0 -4.47676,6.41447 -4.34313,7.75082 0.13364,1.33635 1.60362,2.87315 1.60362,4.67722 0,1.80407 -2.93996,6.21401 -2.87315,6.81537 z"
           style="fill:#d39061;fill-opacity:1;fill-rule:evenodd;stroke:none;stroke-width:0.26458332px;stroke-linecap:butt;stroke-linejoin:miter;stroke-opacity:1" />
        <path
           sodipodi:nodetypes="cssssssssssssssssssssccssssssssssscssssssssssssssscsssssssssssscsssssssssssssssssssssssssssssssssssscssssssssscssssscsssscsssscsscsssscscsssscscsssssssccc"
           inkscape:connector-curvature="0"
           id="path5082"
           d="m 223.43732,136.02669 c -0.80181,-1.06908 -0.33688,-6.00288 0.0411,-8.27074 0.37798,-2.26786 0.47247,-4.81919 0.18899,-5.85863 -0.28348,-1.03944 1.88988,-5.76414 0.37798,-6.52009 -1.51191,-0.75595 -3.2128,-5.29167 -3.2128,-7.55952 0,-2.26786 -0.85045,-2.26786 0.18898,-4.8192 1.03944,-2.55134 1.41742,-5.291667 2.36236,-7.843004 0.94494,-2.551341 1.03943,1.322916 0.94494,-2.834823 -0.0945,-4.157739 -1.13393,-6.614583 -1.13393,-9.638392 0,-3.023809 -4.31512,-12.937004 -5.95591,-14.781028 -1.88965,-2.123696 -4.91288,-4.553893 -5.95231,-5.782317 -1.03944,-1.228421 -3.58881,-3.060168 -6.70711,-3.060168 -3.1183,0 -3.49628,1.039436 -7.843,0.94494 -4.34673,-0.09449 -2.36236,2.362357 -6.61459,2.456847 -4.25223,0.09449 -7.55952,1.322915 -7.55952,1.322915 -2.92192,3.339326 -3.2128,2.267859 -5.57515,3.685269 -2.36235,1.41741 -3.54017,3.710162 -6.28049,3.710162 -2.74033,0 -5.66965,3.850514 -8.59896,3.189055 -2.92932,-0.661458 -2.98861,-2.172548 -7.14635,-4.062429 -4.15773,-1.889882 -3.72244,-2.613408 -5.04536,-4.503289 -1.32291,-1.889882 -2.44538,-3.595522 -2.44538,-3.595522 -2.10859,-2.750184 -2.4082,-2.191543 -3.63663,-3.230977 -2.01342,-1.522771 -5.09676,1.228681 -6.01125,2.180078 -1.70089,1.889882 -2.78144,3.244408 -3.46861,4.39733 -1.82563,3.063029 -3.68329,5.100712 -4.72273,7.274076 -1.03943,2.173361 -0.97933,1.744781 -2.01877,4.76859 -1.03943,3.023809 -1.17979,1.4012 -2.12472,4.519503 -0.94495,3.118305 -1.22843,3.779763 -1.98438,5.764138 -0.75595,1.984375 -1.32292,3.307292 -1.79539,6.898063 -0.47247,3.590774 -0.75595,3.590774 -1.41741,6.236603 -0.66146,2.64584 -1.32291,6.33111 -1.6064,5.10268 -0.28348,-1.22842 -1.79539,-2.26785 -2.45684,-3.77976 -0.66146,-1.5119 0,-3.118301 0.56696,-4.91369 0.56697,-1.795385 0.56697,-1.511903 0.94494,-4.441219 0.37798,-2.929316 0.75595,-3.307291 1.22843,-4.157739 0.47246,-0.850445 0.47246,-0.377976 0.47246,-2.645833 0,-2.267855 -0.75595,-4.441219 0.0945,-5.953125 0.85045,-1.511903 1.98438,0 2.74033,-3.212796 0.75595,-3.212798 0.85044,-3.307291 0.56696,-5.575149 -0.28348,-2.267857 -0.37798,-1.795388 -0.28348,-3.96875 0.0945,-2.173364 -0.37798,-1.795388 -0.18899,-3.118305 0.18899,-1.322917 0.75595,-0.09449 3.02381,-2.83482 2.26786,-2.740326 1.6064,-1.41741 2.74033,-2.929316 1.13393,-1.511905 2.17336,-1.700892 2.26785,-3.590774 0.0945,-1.889881 -2.07886,-5.102677 -2.83482,-6.236607 -0.75595,-1.133928 0.56697,-1.511903 2.26786,-2.456844 1.70089,-0.944941 3.2128,-0.944941 3.2128,-1.889882 0,-0.944941 -0.85045,-3.496278 -0.18899,-4.157736 0.66146,-0.661459 0.56697,2.456844 1.32292,2.456844 0.75595,0 1.5119,0.09449 1.70089,-1.039435 0.18899,-1.13393 -1.37016,-4.630208 -0.99219,-5.008184 0.37798,-0.377975 -0.23623,0.14174 0.8977,1.322917 1.13392,1.181174 0.85044,2.315104 1.5119,1.511903 0.66146,-0.803198 -0.0945,-2.69308 0.85045,-2.83482 0.94494,-0.141742 1.18117,0.09449 1.46465,0.14174 0.28349,0.04725 0.42523,0.897695 0.51972,-1.464656 0.0945,-2.362351 -0.94494,-2.976563 0.0945,-3.118305 1.03944,-0.14174 -0.0945,0.519718 1.13393,0.661458 1.22843,0.141743 0.99219,0.472472 1.41741,-0.614212 0.42523,-1.08668 0,-2.456844 0.61422,-2.645833 0.61421,-0.188987 0.37797,1.322917 0.99218,1.322917 0.61422,0 -0.33073,-0.330729 0.66146,-1.464657 0.99219,-1.133927 1.41741,-0.661458 1.74814,-0.661458 0.33073,0 0.85045,0.614211 1.08668,0.425222 0.23624,-0.188986 0.56697,-1.27567 0.94494,-2.409597 0.37798,-1.133929 0.18899,0.519718 0.66146,0.566965 0.47247,0.04725 0.14174,-3.260046 0.85045,-3.260046 0.7087,0 0.0945,3.02381 1.08668,2.88207 0.99219,-0.141743 0.75595,-0.236236 1.32292,-1.417412 0.56696,-1.181175 1.65364,-2.173363 2.07886,-2.126116 0.42523,0.04725 -0.14174,1.27567 0.51972,1.653646 0.66146,0.377976 1.98438,0.708705 2.26786,0.47247 0.28348,-0.236235 0.61421,-2.598586 1.18117,-2.787574 0.56697,-0.188988 0.70871,2.409598 1.37017,2.409598 0.66146,0 0.14174,-0.283482 0.85045,-0.708705 0.7087,-0.425224 -0.75596,-2.126117 0.23623,-2.220611 0.99219,-0.09449 0.61421,2.267858 1.32292,2.267858 0.7087,0 1.55915,-1.653646 1.79538,-1.653646 0.23624,0 0.99219,0.47247 1.74814,0.47247 0.75596,0 0.56697,-0.661458 1.03944,-0.803199 0.47247,-0.141741 1.03943,0.330729 1.55915,0.330729 0.51972,0 1.32292,-0.519718 1.98437,-0.519718 0.66146,0 1.74815,0.8032 2.69308,0.8032 0.94495,0 0.94495,0.09449 2.4096,0.141741 1.46466,0.04725 2.69308,0.755952 3.49628,1.275669 0.8032,0.519718 3.96875,0.472471 4.72471,0.236236 0.75595,-0.236236 1.03943,-0.04725 2.50409,0 1.46466,0.04725 1.55915,0.141741 2.50409,0.330729 0.94494,0.188988 2.17336,1.275669 3.73252,1.275669 1.55915,0 2.12611,-0.425223 3.16555,-0.425223 1.03943,0 1.22842,0.897693 2.45684,1.606398 1.22842,0.708708 2.17337,-0.519716 3.02381,-0.519716 0.85045,0 1.27567,0.944941 2.17336,1.464657 0.8977,0.519718 2.59859,1.937128 3.3073,1.13393 0.7087,-0.803201 2.26785,-1.937128 2.55133,-1.937128 0.28349,0 -2.03162,3.827007 -1.27566,4.252232 0.75595,0.425223 1.65364,-0.566965 2.26785,-0.566965 0.61421,0 0.42523,3.023809 0.99219,3.023809 0.56696,0 1.88988,-1.842632 2.3151,-2.031621 0.42523,-0.18899 3.82701,-0.236236 3.82701,0.850447 0,1.086681 -0.0472,3.449032 0.0945,3.874254 0.14174,0.425225 0.0472,0.755954 1.32291,0.566965 1.27567,-0.188989 4.25223,-2.598586 5.00819,-2.882069 0.75595,-0.283483 2.36235,-1.700892 2.69308,-1.700892 0.33073,0 -2.64583,6.472843 -1.98438,6.898065 0.66146,0.425223 2.17337,-1.27567 3.16555,-2.220611 0.99219,-0.94494 2.4096,-2.456844 2.5041,-1.795385 0.0945,0.661458 -1.74815,1.889881 -1.41742,4.11049 0.33073,2.22061 0.42523,2.456846 1.27567,2.504093 0.85045,0.04725 0.8977,0.897694 1.18118,1.700892 0.28348,0.803199 3.30729,1.322917 3.54353,1.700893 0.23623,0.377976 -1.13393,0.566965 -0.66146,1.228423 0.47247,0.661459 1.22842,0.614212 2.3151,0.614212 1.08668,0 2.45685,0 2.45685,0.614212 0,0.614209 -3.30729,1.039434 -3.1183,2.456844 0.18898,1.41741 0.33072,2.126115 1.22842,2.173364 0.89769,0.04725 3.1183,-0.0945 3.21279,0.330729 0.0945,0.425222 -2.59858,1.133927 -1.88988,1.748139 0.70871,0.614212 0.66146,1.748139 1.27567,2.929316 0.61421,1.181174 0.37798,1.086681 0.85045,2.645833 0.47247,1.55915 0.99219,2.787573 1.46466,3.307292 0.47247,0.519716 -1.79539,-0.850448 -1.7009,-0.141743 0.0945,0.708705 2.12612,1.700893 2.22062,2.126118 0.0945,0.425222 -3.11831,-0.755954 -2.4096,0.330729 0.7087,1.086681 -0.18899,1.889879 0.66145,2.740327 0.85045,0.850447 0.61422,1.606399 1.41742,2.315104 0.80319,0.708705 0.80319,2.929316 1.22842,2.976562 0.42522,0.04725 -3.2128,0.04725 -2.17336,1.41741 1.03943,1.370163 0.61421,3.307292 1.27567,3.921503 0.66145,0.614212 1.46465,2.078869 1.46465,2.078869 0,0 -2.17336,-0.992188 -2.17336,-0.04725 0,0.944941 0.66146,1.889882 0.99219,2.598587 0.33073,0.708705 -2.83482,-0.850445 -2.03163,0.09449 0.8032,0.944941 1.51191,2.882069 1.51191,3.118305 0,0.236236 -1.08668,-0.141743 -1.13393,1.133927 -0.0472,1.27567 -1.37016,4.677455 -0.51972,6.094868 0.85045,1.41741 0.66146,3.96875 0.61422,5.008184 -0.0472,1.039429 -2.69308,9.260409 -2.69308,10.630579 0,1.37016 -0.28349,1.88988 -0.75596,2.36235 -0.47247,0.47247 -1.46466,1.03943 -1.46466,2.4096 0,1.37016 -1.70089,1.22842 -1.27567,1.55915 0.42523,0.33073 -1.41741,1.22842 -0.94494,1.46466 0.47248,0.23623 -1.27567,1.65364 -0.99218,2.74032 0.28348,1.08668 -1.27567,0.66146 -0.75596,1.55916 0.51972,0.89769 -1.46465,1.84263 -0.99218,2.36235 0.47247,0.51971 -1.55916,1.27567 -0.8977,2.2206 0.66146,0.94495 -1.41741,1.22843 -0.85044,1.98438 0.56696,0.75595 -0.85045,1.18118 -0.66146,1.93713 0.18899,0.75595 -0.85045,-0.0945 -0.56697,1.18118 0.28349,1.27567 -2.50409,0.37797 -1.41741,1.65364 1.08669,1.27567 -1.32291,-1.13393 -0.99218,1.32292 0.33073,2.45684 -1.13393,-1.93713 -1.08669,1.32291 0.0472,3.26005 0,3.40179 0,3.40179 z"
           style="fill:#a6a3a2;fill-opacity:1;fill-rule:evenodd;stroke:none;stroke-width:0.26458332px;stroke-linecap:butt;stroke-linejoin:miter;stroke-opacity:1" />
        <path
           inkscape:connector-curvature="0"
           id="path5090"
           d="m 237.46897,121.26005 c 0,-0.26727 0.86863,-2.47224 1.60362,-2.33861 0.73499,0.13363 1.80407,1.73725 1.73725,3.54132 -0.0668,1.80407 -2.67269,5.94675 -2.67269,5.94675 0,0 -0.0668,-5.7463 -0.66818,-7.14946 z"
           style="fill:#d39061;fill-opacity:1;fill-rule:evenodd;stroke:none;stroke-width:0.26458332px;stroke-linecap:butt;stroke-linejoin:miter;stroke-opacity:1" />
        <path
           inkscape:connector-curvature="0"
           id="path5092"
           d="m 233.25948,146.78429 c 0,0 -2.6727,2.33861 -2.6727,3.60813 0,1.26954 0.46772,2.47225 0.46772,2.47225 0,0 -0.0668,-3.14042 2.20498,-6.08038 z"
           style="fill:#d39061;fill-opacity:1;fill-rule:evenodd;stroke:none;stroke-width:0.26458332px;stroke-linecap:butt;stroke-linejoin:miter;stroke-opacity:1" />
        <path
           sodipodi:nodetypes="cssssssscscscscscscscscscscscssscccscscscscscscsscscscscsssssssssc"
           inkscape:connector-curvature="0"
           id="path5086"
           d="m 215.03064,62.989729 c 1.98438,-1.889882 4.72471,-7.181548 6.33111,-7.46503 1.6064,-0.283483 6.52009,-2.078869 5.00818,-2.078869 -1.5119,0 -7.08705,2.740327 -7.84301,1.889882 -0.75595,-0.850448 2.92932,-3.401788 1.98438,-3.401788 -0.94494,0 -3.77976,3.212799 -3.77976,1.039435 0,-2.173362 1.6064,-2.740327 1.22842,-3.401785 -0.37798,-0.661459 -3.30729,2.456846 -3.68527,1.511906 -0.37797,-0.944941 4.25223,-6.70908 4.25223,-6.70908 0,0 -5.48065,6.236608 -7.37053,6.236608 -1.88988,0 3.2128,-6.236608 3.2128,-6.236608 0,0 -3.96875,5.008187 -6.23661,6.52009 -2.26786,1.511906 1.98438,-4.91369 1.98438,-4.91369 0,0 -3.59078,5.10268 -4.63021,4.91369 -1.03944,-0.188986 3.30729,-8.031993 3.30729,-8.031993 0,0 -2.92932,5.764136 -5.95313,6.425594 -3.0238,0.661458 1.98438,-5.953125 1.98438,-5.953125 0,0 -6.61458,9.732889 -8.22098,9.827382 -1.6064,0.09449 3.59077,-7.087053 3.59077,-7.087053 0,0 -6.04762,6.236605 -8.22098,6.047619 -2.17337,-0.18899 3.87426,-9.921875 3.87426,-9.921875 0,0 -5.29167,10.016368 -6.52009,10.016368 -1.22843,0 1.98437,-13.607142 1.98437,-13.607142 0,0 -3.30729,12.189732 -4.44122,12.473215 -1.13393,0.283482 1.13393,-6.992559 1.13393,-6.992559 0,0 -2.74033,8.220979 -3.68527,8.315475 -0.94494,0.09449 2.45685,-12.189732 2.45685,-12.189732 0,0 -3.11831,12.945684 -4.63021,13.418153 -1.51191,0.472472 1.03943,-11.055802 1.03943,-11.055802 0,0 -2.07887,11.43378 -3.59077,12.189732 -1.51191,0.755952 1.32292,-9.35491 0.56696,-9.35491 -0.75595,0 -1.41741,10.583333 -2.92931,12.095237 -1.51191,1.511905 -3.02381,-13.134674 -3.02381,-13.134674 0,0 0.85044,12.189733 0.18899,12.284229 -0.66146,0.09449 -2.64584,-10.961312 -2.64584,-10.961312 0,0 1.51191,10.772322 0.37798,11.055805 -1.13393,0.283482 -2.26786,-15.402531 -2.26786,-15.402531 0,0 -0.47247,15.119048 -2.17336,15.497024 -1.7009,0.377976 -1.6064,-17.386903 -1.6064,-17.386903 0,0 -0.47247,16.252976 -1.88988,16.252976 -1.41741,0 0.37797,-14.079614 0.37797,-14.079614 0,0 -1.98437,13.04018 -2.74032,13.04018 -0.75595,0 -4.7247,-14.646579 -4.7247,-14.646579 0,0 3.49627,13.418155 2.45684,13.418155 -1.03943,0 -4.15774,-10.205357 -4.15774,-10.205357 0,0 1.98438,9.449406 0.85045,9.449406 -1.13393,0 -5.19717,-8.598958 -5.19717,-8.598958 0,0 4.06324,9.16592 2.17336,9.16592 -1.88988,0 -3.59077,-5.669642 -3.59077,-8.315476 0,-2.645833 0.37797,-3.496278 0.37797,-3.496278 0,0 -0.47247,10.488837 -1.22842,9.260417 -0.75595,-1.228424 -0.47247,-9.354913 -0.47247,-9.354913 0,0 -1.22842,8.882441 -1.51191,7.9375 -0.28348,-0.944941 -1.79538,-11.339285 -1.79538,-11.339285 0,0 0.47247,9.732886 -0.0945,10.48884 -0.56696,0.755952 -0.66145,0.755952 -0.66145,0.755952 0,0 4.34672,13.796131 5.48065,15.780506 1.13393,1.984375 10.85453,8.342339 12.64992,8.342339 1.79539,0 4.84769,-2.665981 6.54858,-2.665981 1.7009,0 5.65343,-3.219514 6.2204,-2.747042 0.56696,0.472469 3.30729,-3.023812 5.76414,-3.874257 2.45684,-0.850447 2.83482,-2.456845 5.57515,-2.456845 2.74032,0 3.40178,-0.472469 6.2366,-0.944941 2.83482,-0.472469 6.89807,-1.984373 10.20536,-1.984373 3.30729,0 5.38616,0.283481 7.55952,1.228422 2.17337,0.944941 4.53571,3.118303 4.53571,3.118303 z"
           style="fill:#b3b0ae;fill-opacity:1;fill-rule:evenodd;stroke:none;stroke-width:0.26458332px;stroke-linecap:butt;stroke-linejoin:miter;stroke-opacity:1" />
        <path
           inkscape:connector-curvature="0"
           id="path5084"
           d="m 134.88906,63.343624 c -0.4009,0 -2.73951,-0.835219 -2.53906,-1.002261 0.20045,-0.167044 3.30746,0.03341 3.54132,-0.200453 0.23386,-0.23386 -0.96885,-2.80633 -0.60136,-3.107008 0.3675,-0.300677 2.73952,-0.03341 2.90656,-0.300677 0.16704,-0.267269 -2.20497,-0.80181 -1.70384,-1.102487 0.50113,-0.300678 2.37201,0.133635 2.67269,-0.467723 0.30068,-0.601355 -1.13589,-1.971111 -0.60135,-2.539061 0.53454,-0.567946 0.46772,-1.269529 0.53454,-1.603615 0.0668,-0.334087 -3.20724,-2.505652 -2.43884,-2.505652 0.7684,0 3.54132,2.973374 4.37654,2.939965 0.83522,-0.03341 0.0334,-0.968854 0.33408,-1.469982 0.30069,-0.501132 -0.93544,-1.169305 -0.50112,-1.269532 0.43431,-0.100224 0.7684,-0.734991 1.1693,-0.701582 0.4009,0.03341 0.7684,2.004523 1.10249,2.004523 0.33408,0 -0.80181,-3.006784 0.10022,-2.906557 0.90204,0.100227 1.26953,2.539061 1.60362,3.04019 0.33409,0.501131 0.56795,-0.935443 0.90203,-0.935443 0.33409,0 -0.53453,2.438834 -0.30067,3.641548 0.23386,1.202711 0.16704,2.171565 0.73499,2.204974 0.56794,0.03341 -0.46773,-2.57247 0.0668,-2.238383 0.53453,0.334087 0.30067,2.57247 1.00226,3.140416 0.70158,0.56795 0.56794,0.868627 1.03566,1.202714 0.46773,0.334087 0.0668,-2.806329 0.30068,-2.505652 0.23386,0.300678 0.83522,2.57247 1.16931,2.57247 0.33408,0 -1.70385,-5.078121 -1.1359,-5.078121 0.56795,0 3.97564,4.944485 4.10927,5.211754 0.13363,0.267269 -1.00226,-0.06682 -0.73499,0.267269 0.26727,0.334089 1.40316,1.403167 1.70384,1.603618 0.30068,0.200451 -0.0334,-0.902033 0.33409,-0.434313 0.36749,0.467722 0.23386,-1.904294 0.60135,-1.503392 0.3675,0.400905 -1.67043,-1.637024 -0.90203,-1.503389 0.7684,0.133633 1.77066,1.002261 1.77066,1.904294 0,0.902036 0.60136,3.741774 1.26953,4.710626 0.66818,0.968851 -0.46772,1.77066 0.0668,2.672696 0.53454,0.902033 -0.33409,1.904294 0.60136,2.57247 0.93544,0.668173 1.20271,1.837475 0.8018,1.503389 -0.4009,-0.334087 -2.60587,-2.004521 -2.77292,-2.639285 -0.16704,-0.634767 1.1359,1.169302 1.1359,0.434311 0,-0.734989 -0.16705,-1.035669 -0.20045,-2.171563 -0.0334,-1.135896 -0.43432,-2.873147 -0.83522,-2.873147 -0.4009,0 -0.7684,0.902033 -0.80181,0.300678 -0.0334,-0.601359 -0.20045,-1.770661 -0.63476,-2.004523 -0.43432,-0.23386 -1.93771,-1.670434 -1.97112,-1.102487 -0.0334,0.567949 0.26727,1.5368 0.66818,2.672696 0.4009,1.135896 2.37201,3.240643 2.03793,3.240643 -0.33409,0 -1.80407,-1.77066 -2.07134,-2.238383 -0.26727,-0.467722 -1.06908,-2.305198 -1.23612,-2.739511 -0.16705,-0.434314 0.23386,-1.670437 -0.23386,-2.104748 -0.46773,-0.434313 -0.46773,-0.167044 -0.86863,-0.100226 -0.40091,0.06682 0.90204,1.503391 0.33409,1.503391 -0.56795,0 -1.83748,-3.240643 -2.03793,-2.739514 -0.20046,0.501131 -0.30068,2.839738 -0.30068,3.507914 0,0.668174 1.50339,2.873148 1.03567,2.906554 -0.46772,0.03341 -1.43658,-2.739511 -1.67044,-3.708363 -0.23386,-0.968851 -0.20045,-2.405425 -0.46772,-2.605878 -0.26727,-0.200451 -1.03567,-1.269529 -1.33635,-1.269529 -0.30068,0 0.70158,2.204971 0.40091,2.23838 -0.30068,0.03341 -1.9043,-1.469983 -1.97111,-2.23838 -0.0668,-0.768401 -0.43432,-1.937705 -0.735,-1.536801 -0.30067,0.400905 -0.83521,0.668174 -1.26953,1.069078 -0.43431,0.400905 0.0334,1.436574 -0.46772,1.436574 -0.50113,0 -1.30294,-0.734991 -1.57021,-0.400905 -0.26727,0.334087 -0.20045,1.002261 -0.66817,1.169305 -0.46772,0.167042 -0.60136,0.100224 -1.03567,0.634765 -0.43431,0.53454 -0.73499,0.701582 -1.1693,0.835218 -0.43432,0.133633 -0.63477,0.567946 -1.03567,1.135896 -0.40091,0.567946 -1.60362,1.570207 -1.60362,1.570207 z"
           style="fill:#807b78;fill-opacity:1;fill-rule:evenodd;stroke:none;stroke-width:0.26458332px;stroke-linecap:butt;stroke-linejoin:miter;stroke-opacity:1" />
        <path
           inkscape:connector-curvature="0"
           id="path5070"
           d="m 135.62258,203.09133 c 0.47247,0.21261 0.85045,-0.23624 0.87407,0.28348 0.0236,0.51972 0.0236,0.73233 0.33073,1.41741 0.3071,0.68508 0.85044,0.42523 0.89769,1.25205 0.0473,0.82682 -0.23623,0.63783 0.21262,1.1103 0.44884,0.47247 0.33072,1.51191 0.82682,1.51191 0.49609,0 0.75595,-0.21261 0.35435,-1.03944 -0.4016,-0.82682 -0.8032,-0.7087 -0.8032,-1.55915 0,-0.85044 0.0236,-0.99218 0.0236,-1.58277 0,-0.59059 0.66146,-1.37017 0.87407,-1.08669 0.21261,0.28349 1.18117,0.82683 0.92132,1.37017 -0.25986,0.54334 -0.56697,0.0472 -0.47247,0.89769 0.0945,0.85045 -0.33073,1.32292 0.14174,1.79539 0.47247,0.47247 0.99219,1.01581 1.41741,1.13393 0.42522,0.11812 0.68508,0.94494 1.06306,1.34654 0.37797,0.4016 0.25985,-0.0709 0.25985,-0.82683 0,-0.75595 -0.61421,-1.67726 -0.0236,-2.03162 0.59058,-0.35435 1.25204,-0.18898 1.25204,-0.68508 0,-0.49609 -0.11812,-1.15755 0.16537,-0.96856 0.28348,0.18899 0.44884,0.61421 0.44884,1.53552 0,0.92132 -0.14174,1.44104 -0.16536,2.36236 -0.0236,0.92131 0.0709,0.82682 0.42522,1.96075 0.35436,1.13393 0.59059,1.27567 1.32292,1.93713 0.73233,0.66145 1.44103,2.05524 2.45684,2.3151 1.01581,0.25986 0.59059,0.11812 1.2993,0.11812 0.7087,0 0.61421,-0.14174 1.29929,0.23623 0.68508,0.37798 0.30711,0.54334 0.99219,0.54334 0.68508,0 1.1103,-0.61421 1.53552,-0.61421 0.42523,0 0.61422,0.51972 1.32292,1.32292 0.70871,0.8032 1.2993,0.25986 1.77177,0.89769 0.47247,0.63784 0.51971,0.70871 1.01581,0.85045 0.49609,0.14174 1.48828,0.73233 0.99218,0.77958 -0.49609,0.0472 -7.53589,-2.1025 -8.62258,-2.55134 -1.08668,-0.44885 -2.74032,-0.59059 -4.29948,-1.41741 -1.55915,-0.82683 -7.20517,-5.12631 -8.12648,-6.35473 -0.92132,-1.22842 -3.54353,-5.38616 -1.98438,-6.26023 z"
           style="fill:#a1755a;fill-opacity:1;fill-rule:evenodd;stroke:none;stroke-width:0.26458332px;stroke-linecap:butt;stroke-linejoin:miter;stroke-opacity:1" />
        <path
           style="fill:#2c1f16;fill-opacity:1;fill-rule:evenodd;stroke:none;stroke-width:0.26458332px;stroke-linecap:butt;stroke-linejoin:miter;stroke-opacity:1"
           d="m 184.31064,134.74852 c -0.70871,0.33073 -0.70871,-0.75595 -0.70871,0.33073 0,1.08668 0.42522,1.65364 0.42522,1.65364 0,0 0.99219,0.47247 1.46466,0.42523 0.47247,-0.0472 1.46466,-0.14175 1.55915,-0.70871 0.0945,-0.56696 -0.23623,-0.75595 -0.33073,-1.13393 -0.0945,-0.37797 -0.56696,-1.18117 -1.32291,-1.03943 -0.75595,0.14174 -1.08668,0.47247 -1.08668,0.47247 z"
           id="path5125"
           inkscape:connector-curvature="0" />
        <path
           inkscape:connector-curvature="0"
           id="path5062"
           d="m 186.28686,135.07454 c 0.4009,0.0334 0.88533,0.21716 0.50113,-0.48443 -0.3842,-0.70158 -0.93544,-0.16704 -0.93544,-0.0167 0,0.15034 0.46772,0.26727 0.43431,0.50113 z"
           style="fill:#eae4e0;fill-opacity:1;fill-rule:evenodd;stroke:none;stroke-width:0.26458332px;stroke-linecap:butt;stroke-linejoin:miter;stroke-opacity:1" />
        <path
           inkscape:connector-curvature="0"
           id="path5066"
           d="m 179.32608,141.93006 c 0,-0.21261 0.54334,-0.42523 1.32291,-0.18899 0.77958,0.23623 1.88989,0.0945 2.85845,0.33073 0.96856,0.23623 0.75595,0.3071 1.77176,0.37798 1.01581,0.0709 1.58278,-0.0236 2.4096,-0.0236 0.82682,0 1.15755,0.18899 1.88988,0.0945 0.73233,-0.0945 1.53553,-0.21261 1.96075,-0.33073 0.42523,-0.11812 1.18118,-0.25986 1.37017,-0.28348 0.18898,-0.0236 0.3071,0.44885 -0.75596,0.73233 -1.06306,0.28348 -1.37016,0.23624 -2.00799,0.25986 -0.63784,0.0236 -0.37798,-0.28348 -1.63003,0.37798 -1.25204,0.66145 -1.39379,0.80319 -1.96075,0.61421 -0.56696,-0.18899 -0.35435,-0.25986 -1.48828,-0.25986 -1.13393,0 -0.35435,0.23623 -1.74814,-0.0945 -1.39379,-0.33073 -1.5119,-0.42522 -2.29148,-0.7087 -0.77958,-0.28348 -0.82682,-0.87407 -1.70089,-0.8977 z"
           style="fill:#21120e;fill-opacity:1;fill-rule:evenodd;stroke:none;stroke-width:0.26458332px;stroke-linecap:butt;stroke-linejoin:miter;stroke-opacity:1" />
        <path
           inkscape:connector-curvature="0"
           transform="scale(0.26458333)"
           id="path5110"
           d="m 453.38281,434.39453 c -0.25002,0.0401 -0.57058,0.43773 -1.24023,1.49805 -0.73503,1.16381 -1.54431,2.40492 -2.2168,3.55664 0.0304,1.64626 0.35663,3.02254 1.10742,3.70508 2.05988,0.43007 4.72571,0.86458 6.1543,0.77539 1.4287,-0.0893 1.33913,0.71262 1.5625,1.29297 0.22322,0.58019 4.41881,0.31348 6.74023,0.17968 2.32147,-0.1339 1.87539,0.22321 1.60743,0.9375 -0.26786,0.71426 1.42882,1.69557 3.79492,4.55274 2.36606,2.85713 3.92857,2.27707 5.9375,1.29492 2.00893,-0.98215 1.25084,0.84906 0.75976,1.69727 -0.49107,0.84823 2.58871,1.69563 3.97266,1.74023 1.38391,0.0446 1.51677,1.96387 3.25781,1.83008 1.74108,-0.13395 2.99284,0.0887 3.08203,1.47265 0.0893,1.38392 2.85742,1.33985 4.10743,1.33985 1.25,0 4.06084,4.91015 5.98046,4.91015 1.91951,0 -0.26725,1.51955 -0.22265,2.14454 0.0447,0.62494 2.99105,0.44642 4.375,0.9375 1.37536,0.48804 1.91353,2.20764 3.01562,2.71093 0.2455,0.0437 0.48182,0.0848 0.72852,0.12891 0.39627,-0.103 0.48442,-0.58461 0.98828,-0.74219 0.71429,-0.22322 5.62434,1.07115 5.80273,1.83008 0.014,0.0593 -0.004,0.10034 -0.0137,0.14648 0.12423,0.0231 0.90821,0.16602 0.90821,0.16602 6.07143,0.35717 5.71432,1.25026 8.75,1.60742 3.03571,0.35717 7.14143,1.60658 8.21289,1.78516 1.07142,0.17839 1.2514,-4.10661 0.53711,-5.53516 -0.7143,-1.42858 -5.5e-4,-1.07196 -3.21485,-4.46484 -3.2143,-3.39285 -1.07225,-3.03519 -6.07226,-6.78516 -4.99998,-3.75001 -4.9997,-4.64316 -9.64258,-5.35742 -4.64285,-0.71429 -6.96344,-1.96429 -8.92774,-3.75 -1.96429,-1.78571 -0.53599,-2.32227 -5.35742,-2.32227 -3.43899,0 -4.16671,-0.10068 -5.71875,-0.80078 -1.8464,-0.2749 -4.5009,-1.94987 -7.41601,-4.1582 -0.58211,-0.37048 -1.24953,-0.73288 -2.22266,-1.11133 -3.2143,-1.25 -4.64316,-2.67887 -7.85742,-4.10742 -3.2143,-1.42859 -0.5357,-2.50085 -6.25,-2.32227 -5.71427,0.1784 -7.3206,1.07312 -11.42774,0.89454 -2.82365,-0.12265 -3.03197,-1.766 -3.58203,-1.67774 z"
           style="fill:#898180;fill-opacity:1;fill-rule:evenodd;stroke:none;stroke-width:0.99999994px;stroke-linecap:butt;stroke-linejoin:miter;stroke-opacity:1" />
        <path
           style="fill:#474342;fill-opacity:1;fill-rule:evenodd;stroke:none;stroke-width:0.26458332px;stroke-linecap:butt;stroke-linejoin:miter;stroke-opacity:1"
           d="m 138.72943,124.71685 c 0.17273,-0.17468 0.32402,-0.54744 0.15313,-0.74629 -0.17084,-0.19882 -0.16263,-0.34445 -0.17991,-0.62468 -0.0173,-0.28023 0.0695,-0.45162 -0.14245,-0.64317 -0.21195,-0.1916 -0.0839,-0.40758 -0.35959,-0.54716 -0.2757,-0.13959 -0.49916,-0.27144 -0.4438,-0.14038 0.0553,0.13104 0.23704,0.40086 0.26565,0.65873 0.0286,0.25788 0.0402,0.1795 0.0311,0.49322 -0.009,0.31372 0.009,0.44454 0.15359,0.65817 0.1446,0.21363 0.27989,0.797 0.52221,0.89161 z"
           id="path5116"
           inkscape:connector-curvature="0" />
        <path
           style="fill:#474342;fill-opacity:1;fill-rule:evenodd;stroke:none;stroke-width:0.26458332px;stroke-linecap:butt;stroke-linejoin:miter;stroke-opacity:1"
           d="m 135.14296,123.35048 c 0.22826,-0.081 0.42428,0.3084 0.4867,-0.22168 0.0624,-0.53009 0.20106,-0.61904 0.34412,-0.8462 0.14311,-0.2271 -0.0521,-0.78465 -0.2913,-0.75597 -0.2392,0.0287 -0.24032,0.2528 -0.52669,0.005 -0.28638,-0.24799 0.05,-0.30233 -0.34487,-0.50225 -0.39494,-0.19995 -0.31768,0.0358 -0.58905,-0.22335 -0.27138,-0.25909 -0.0181,-0.11216 -0.51351,-0.39103 -0.49537,-0.27892 -0.2789,-0.24421 -0.51305,-0.48441 -0.23411,-0.24023 -0.11561,-0.0675 -0.54048,-0.22679 -0.42502,-0.15902 -0.54406,-0.25672 -0.90193,-0.40046 -0.35786,-0.14373 -0.14213,0.0404 -0.56735,-0.0813 -0.42519,-0.12168 -0.45021,-0.34962 -0.71074,-0.53769 -0.26053,-0.18806 -0.55526,-0.29008 -0.61169,-0.17862 -0.0566,0.11177 0.33347,0.54328 0.0276,0.44463 -0.30578,-0.0987 -0.93507,-0.46443 -1.02417,-0.60279 -0.089,-0.13863 0.28429,-0.0807 0.25533,-0.26393 -0.0289,-0.18316 -0.52509,-0.31268 -0.7013,-0.18652 -0.17619,0.12611 -0.12472,0.30194 -0.49736,0.11329 -0.37257,-0.18863 -0.70062,-0.31727 -0.72705,-0.26508 -0.0264,0.0522 0.3537,0.22591 0.26252,0.53546 -0.0912,0.30957 0.21715,0.64354 0.034,0.67252 -0.18317,0.0289 -0.70338,-0.51526 -0.78626,-0.37004 -0.0826,0.14542 -0.13923,0.94058 0.0546,1.03868 0.19374,0.0981 0.92699,-0.12983 1.26241,0.0213 0.33541,0.15109 0.40928,0.31954 0.62793,0.66428 0.21867,0.34475 0.30234,0.78965 0.57419,0.95536 0.27182,0.16575 1.01067,0.31509 1.24233,0.30131 0.23164,-0.0138 0.45792,0.29741 0.56483,0.58552 0.10687,0.28815 0.33703,0.57319 0.82149,0.79972 0.48444,0.22654 1.26412,0.42467 1.4771,0.4108 0.21297,-0.0139 -0.34231,-0.26689 -0.0131,-0.38107 0.32928,-0.11414 0.34296,0.1362 0.58868,0.29804 0.24573,0.16183 1.30829,0.55933 1.23601,0.0734 z"
           id="path5118"
           inkscape:connector-curvature="0" />
      </g>
    </g>
  </g>
  <g
     inkscape:groupmode="layer"
     id="layer2"
     inkscape:label="Orange Banner">
    <rect
       style="opacity:1;fill:#de3d2d;fill-opacity:1;stroke:none;stroke-width:11.03082752;stroke-miterlimit:4;stroke-dasharray:none;stroke-opacity:1"
       id="rect4144"
       width="338.66669"
       height="43.65625"
       x="0"
       y="146.84375" />
  </g>
  <g
     inkscape:label="Blue Banner"
     id="g4203"
     inkscape:groupmode="layer"
     style="display:none">
    <rect
       y="146.84375"
       x="0"
       height="43.65625"
       width="338.66669"
       id="rect4205"
       style="opacity:1;fill:#407d93;fill-opacity:1;stroke:none;stroke-width:11.03082752;stroke-miterlimit:4;stroke-dasharray:none;stroke-opacity:1" />
  </g>
  <g
     inkscape:groupmode="layer"
     id="layer3"
     inkscape:label="Discover"
     style="display:inline">
    <text
       xml:space="preserve"
       style="font-style:normal;font-variant:normal;font-weight:normal;font-stretch:normal;font-size:24.31099701px;line-height:125%;font-family:Museo;-inkscape-font-specification:'Museo, Normal';text-align:start;letter-spacing:0px;word-spacing:0px;writing-mode:lr-tb;text-anchor:start;fill:#ffffff;fill-opacity:1;stroke:none;stroke-width:0.6077776px;stroke-linecap:butt;stroke-linejoin:miter;stroke-opacity:1"
       x="146.70697"
       y="45.417717"
       id="text4147"
       sodipodi:linespacing="125%"><tspan
         sodipodi:role="line"
         id="tspan4164"
         x="146.70697"
         y="45.417717"
         style="stroke-width:0.6077776px">DISCOVER:</tspan></text>
  </g>
  <g
     inkscape:label="Interview"
     id="g4209"
     inkscape:groupmode="layer"
     style="display:none">
    <text
       sodipodi:linespacing="125%"
       id="text4211"
       y="40.767208"
       x="173.85484"
       style="font-style:normal;font-variant:normal;font-weight:normal;font-stretch:normal;font-size:20.26743698px;line-height:125%;font-family:Museo;-inkscape-font-specification:'Museo, Normal';text-align:start;letter-spacing:0px;word-spacing:0px;writing-mode:lr-tb;text-anchor:start;fill:#ffffff;fill-opacity:1;stroke:none;stroke-width:0.50668812px;stroke-linecap:butt;stroke-linejoin:miter;stroke-opacity:1"
       xml:space="preserve"><tspan
         id="tspan4213"
         sodipodi:role="line"
         x="173.85484"
         y="40.767208">INTERVIEW:</tspan></text>
  </g>
  <g
     inkscape:groupmode="layer"
     id="layer4"
     inkscape:label="Artist Name">
    <text
       xml:space="preserve"
       style="font-style:normal;font-variant:normal;font-weight:600;font-stretch:normal;font-size:49.18989944px;line-height:100%;font-family:Museo;-inkscape-font-specification:'Museo, Semi-Bold';text-align:start;letter-spacing:0px;word-spacing:0px;writing-mode:lr-tb;text-anchor:start;fill:#ffffff;fill-opacity:1;stroke:none;stroke-width:1.2297368px;stroke-linecap:butt;stroke-linejoin:miter;stroke-opacity:1"
       x="146.95592"
       y="87.161087"
       id="text4158"
       sodipodi:linespacing="100%"><tspan
         sodipodi:role="line"
         x="146.95592"
         y="87.161087"
         style="font-style:normal;font-variant:normal;font-weight:600;font-stretch:normal;font-size:49.18989944px;line-height:100%;font-family:Museo;-inkscape-font-specification:'Museo, Semi-Bold';text-align:start;writing-mode:lr-tb;text-anchor:start;fill:#ffffff;fill-opacity:1;stroke-width:1.2297368px"
         id="tspan4519">Patrick</tspan><tspan
         sodipodi:role="line"
         x="146.95592"
         y="136.35098"
         style="font-style:normal;font-variant:normal;font-weight:600;font-stretch:normal;font-size:49.18989944px;line-height:100%;font-family:Museo;-inkscape-font-specification:'Museo, Semi-Bold';text-align:start;writing-mode:lr-tb;text-anchor:start;fill:#ffffff;fill-opacity:1;stroke-width:1.2297368px"
         id="tspan4453">Grant</tspan></text>
  </g>
  <g
     inkscape:groupmode="layer"
     id="layer6"
     inkscape:label="WEIRD">
    <path
       style="opacity:1;fill:#ffffff;fill-opacity:1;stroke:none;stroke-width:17.2258606;stroke-miterlimit:4;stroke-dasharray:none;stroke-opacity:1"
       d="M 245.3457 602.625 L 245.3457 672.625 L 495.3457 672.625 L 495.3457 602.625 L 245.3457 602.625 z M 254.20703 613.5 L 258.08398 613.5 C 261.48345 613.5 263.18217 614.17987 263.99805 617.44336 L 271.4082 648.31055 C 272.02011 650.89414 272.36133 653.41016 272.36133 653.41016 L 272.49609 653.41016 C 272.49609 653.41016 272.90446 650.96213 273.65234 648.31055 L 283.30664 613.63477 L 289.42578 613.63477 L 298.40039 648.31055 C 299.08028 650.96213 299.41992 653.41016 299.41992 653.41016 L 299.55664 653.41016 C 299.55664 653.41016 299.8295 650.89414 300.44141 648.31055 L 307.98828 617.44336 C 308.80415 614.17987 310.43452 613.5 313.83398 613.5 L 317.70898 613.5 L 317.70898 619.3457 L 316.68945 619.3457 C 315.46565 619.3457 314.71885 619.61799 314.37891 620.8418 L 303.83984 661.5 L 295.95312 661.5 L 287.79492 631.17773 C 286.97905 628.05022 286.43555 624.58203 286.43555 624.58203 L 286.29883 624.58203 C 286.29883 624.58203 285.61824 628.04985 284.73438 631.10938 L 276.0332 661.5 L 268.07812 661.5 L 257.53906 620.8418 C 257.19912 619.61799 256.45232 619.3457 255.22852 619.3457 L 254.20703 619.3457 L 254.20703 613.5 z M 326.5 613.5 L 354.7168 613.5 C 357.77632 613.5 359.06641 614.79204 359.06641 617.85156 L 359.06641 623.90234 L 352.88086 623.90234 L 352.88086 620.8418 C 352.88086 619.82196 352.33662 619.3457 351.38477 619.3457 L 337.71875 619.3457 L 337.71875 634.37305 L 354.51172 634.37305 L 354.51172 640.21875 L 337.71875 640.21875 L 337.71875 654.15625 C 337.71875 655.1081 338.26299 655.65234 339.21484 655.65234 L 353.2207 655.65234 C 354.17255 655.65234 354.7168 655.1081 354.7168 654.15625 L 354.7168 651.09766 L 360.9707 651.09766 L 360.9707 657.14844 C 360.9707 660.20796 359.67866 661.5 356.61914 661.5 L 335.27148 661.5 C 332.21196 661.5 330.91992 660.20796 330.91992 657.14844 L 330.91992 619.3457 L 326.5 619.3457 L 326.5 613.5 z M 370.41406 613.5 L 386.25586 613.5 L 386.25586 619.3457 L 381.56445 619.3457 L 381.56445 655.65234 L 386.25586 655.65234 L 386.25586 661.5 L 370.41406 661.5 L 370.41406 655.65234 L 375.10547 655.65234 L 375.10547 619.3457 L 370.41406 619.3457 L 370.41406 613.5 z M 396.6543 613.5 L 417.5957 613.5 C 426.02638 613.5 431.94141 618.80359 431.94141 627.57422 C 431.94141 635.59696 426.70611 639.53923 423.30664 640.28711 L 423.30664 640.42383 C 423.30664 640.42383 424.52983 641.03585 425.3457 642.59961 L 431.125 654.08984 C 431.80489 655.51762 432.89365 655.65234 434.52539 655.65234 L 435.4082 655.65234 L 435.4082 661.5 L 432.07812 661.5 C 428.33871 661.5 426.97782 661.02399 425.41406 657.89648 L 418.88672 644.97852 C 417.66291 642.73487 416.78049 642.39453 414.12891 642.39453 L 407.87305 642.39453 L 407.87305 661.5 L 401.07422 661.5 L 401.07422 619.3457 L 396.6543 619.3457 L 396.6543 613.5 z M 443.75 613.5 L 463.19531 613.5 C 477.81302 613.5 487.4668 622.27002 487.4668 637.43164 C 487.4668 652.66125 477.81302 661.5 463.19531 661.5 L 452.51953 661.5 C 449.46001 661.5 448.16992 660.20796 448.16992 657.14844 L 448.16992 619.3457 L 443.75 619.3457 L 443.75 613.5 z M 407.87305 619.3457 L 407.87305 636.54883 L 416.71094 636.54883 C 421.87813 636.54883 424.9375 633.21686 424.9375 627.8457 C 424.9375 622.47455 421.87887 619.3457 416.84766 619.3457 L 407.87305 619.3457 z M 454.96875 619.3457 L 454.96875 654.15625 C 454.96875 655.1081 455.51299 655.65234 456.46484 655.65234 L 462.71875 655.65234 C 473.39308 655.65234 480.39648 649.26179 480.39648 637.43164 C 480.39648 625.66949 473.32509 619.3457 462.71875 619.3457 L 454.96875 619.3457 z "
       transform="scale(0.26458334)"
       id="rect4172" />
  </g>
  <g
     inkscape:groupmode="layer"
     id="layer7"
     inkscape:label="MAKE">
    <text
       xml:space="preserve"
       style="font-style:normal;font-variant:normal;font-weight:normal;font-stretch:normal;font-size:17.99166679px;line-height:100%;font-family:Museo;-inkscape-font-specification:'Museo, Normal';text-align:start;letter-spacing:0px;word-spacing:0px;writing-mode:lr-tb;text-anchor:start;fill:#ffffff;fill-opacity:1;stroke:none;stroke-width:0.26458335px;stroke-linecap:butt;stroke-linejoin:miter;stroke-opacity:1"
       x="10.690782"
       y="175.02188"
       id="text4175"
       sodipodi:linespacing="100%"><tspan
         sodipodi:role="line"
         id="tspan4177"
         x="10.690782"
         y="175.02188"
         style="font-style:normal;font-variant:normal;font-weight:normal;font-stretch:normal;font-size:17.99166679px;line-height:100%;font-family:Museo;-inkscape-font-specification:'Museo, Normal';text-align:start;writing-mode:lr-tb;text-anchor:start;fill:#ffffff;fill-opacity:1;stroke-width:0.26458335px;letter-spacing:1.32291669px">MAKE</tspan></text>
  </g>
  <g
     inkscape:groupmode="layer"
     id="layer8"
     inkscape:label="MUSIC">
    <text
       xml:space="preserve"
       style="font-style:normal;font-variant:normal;font-weight:normal;font-stretch:normal;font-size:17.99166679px;line-height:100%;font-family:Museo;-inkscape-font-specification:'Museo, Normal';text-align:start;letter-spacing:0px;word-spacing:0px;writing-mode:lr-tb;text-anchor:start;fill:#ffffff;fill-opacity:1;stroke:none;stroke-width:0.26458335px;stroke-linecap:butt;stroke-linejoin:miter;stroke-opacity:1"
       x="134.21758"
       y="174.80598"
       id="text4180"
       sodipodi:linespacing="100%"><tspan
         sodipodi:role="line"
         id="tspan4182"
         x="134.21758"
         y="174.80598"
         style="font-style:normal;font-variant:normal;font-weight:normal;font-stretch:normal;font-size:17.99166679px;line-height:100%;font-family:Museo;-inkscape-font-specification:'Museo, Normal';text-align:start;writing-mode:lr-tb;text-anchor:start;fill:#ffffff;fill-opacity:1;stroke-width:0.26458335px">MUSIC</tspan></text>
  </g>
</svg>
