<?xml version="1.0" encoding="UTF-8" standalone="no"?>
<!-- Created with Inkscape (http://www.inkscape.org/) -->

<svg
   xmlns:dc="http://purl.org/dc/elements/1.1/"
   xmlns:cc="http://creativecommons.org/ns#"
   xmlns:rdf="http://www.w3.org/1999/02/22-rdf-syntax-ns#"
   xmlns:svg="http://www.w3.org/2000/svg"
   xmlns="http://www.w3.org/2000/svg"
   xmlns:sodipodi="http://sodipodi.sourceforge.net/DTD/sodipodi-0.dtd"
   xmlns:inkscape="http://www.inkscape.org/namespaces/inkscape"
   width="1280"
   height="720"
   viewBox="0 0 338.66666 190.50001"
   id="svg2"
   version="1.1"
   inkscape:version="0.92.2 5c3e80d, 2017-08-06"
   sodipodi:docname="nora-germain-video-thumbnail.svg"
   inkscape:export-filename="/Users/agarone/Documents/GitHub/art/nora-germain/discover/nora-germain-video-thumbnail.png"
   inkscape:export-xdpi="96"
   inkscape:export-ydpi="96">
  <defs
     id="defs4">
    <linearGradient
       id="linearGradient5627">
      <stop
         style="stop-color:#f80000;stop-opacity:1"
         id="stop5629"
         offset="0" />
      <stop
         style="stop-color:#e69595;stop-opacity:1"
         id="stop5631"
         offset="1" />
    </linearGradient>
    <linearGradient
       id="linearGradient5619">
      <stop
         style="stop-color:#000000;stop-opacity:1"
         id="stop5621"
         offset="0" />
      <stop
         style="stop-color:#000000;stop-opacity:0"
         id="stop5623"
         offset="1" />
    </linearGradient>
    <linearGradient
       id="linearGradient4838">
      <stop
         style="stop-color:#606060;stop-opacity:1"
         id="stop4840"
         offset="0" />
      <stop
         style="stop-color:#ffffff;stop-opacity:1"
         id="stop4842"
         offset="1" />
    </linearGradient>
    <linearGradient
       id="linearGradient4776">
      <stop
         style="stop-color:#c9c9c9;stop-opacity:1"
         offset="0"
         id="stop4778" />
      <stop
         style="stop-color:#555555;stop-opacity:1"
         offset="1"
         id="stop4780" />
    </linearGradient>
    <linearGradient
       id="linearGradient4760">
      <stop
         style="stop-color:#000000;stop-opacity:1"
         offset="0"
         id="stop4762" />
      <stop
         style="stop-color:#555555;stop-opacity:1"
         id="stop4764"
         offset="0.52" />
      <stop
         style="stop-color:#000000;stop-opacity:1"
         offset="1"
         id="stop4766" />
    </linearGradient>
    <linearGradient
       id="linearGradient4744">
      <stop
         style="stop-color:#000000;stop-opacity:1"
         id="stop4746"
         offset="0" />
      <stop
         style="stop-color:#555555;stop-opacity:1"
         offset="0.65"
         id="stop4748" />
      <stop
         style="stop-color:#000000;stop-opacity:1"
         id="stop4750"
         offset="1" />
    </linearGradient>
    <linearGradient
       id="linearGradient4728">
      <stop
         style="stop-color:#000000;stop-opacity:1"
         offset="0"
         id="stop4730" />
      <stop
         style="stop-color:#555555;stop-opacity:1"
         id="stop4732"
         offset="0.72" />
      <stop
         style="stop-color:#000000;stop-opacity:1"
         offset="1"
         id="stop4734" />
    </linearGradient>
    <linearGradient
       id="linearGradient4708">
      <stop
         style="stop-color:#000000;stop-opacity:1"
         id="stop4710"
         offset="0" />
      <stop
         style="stop-color:#555555;stop-opacity:1"
         offset="0.5"
         id="stop4718" />
      <stop
         style="stop-color:#000000;stop-opacity:1"
         id="stop4712"
         offset="1" />
    </linearGradient>
    <linearGradient
       id="linearGradient4679">
      <stop
         style="stop-color:#000000;stop-opacity:1"
         id="stop4681"
         offset="0" />
      <stop
         style="stop-color:#555555;stop-opacity:1"
         id="stop4683"
         offset="1" />
    </linearGradient>
  </defs>
  <sodipodi:namedview
     id="base"
     pagecolor="#ffffff"
     bordercolor="#666666"
     borderopacity="1.0"
     inkscape:pageopacity="0.0"
     inkscape:pageshadow="2"
     inkscape:zoom="0.98994949"
     inkscape:cx="548.0831"
     inkscape:cy="331.70553"
     inkscape:document-units="px"
     inkscape:current-layer="layer4"
     showgrid="false"
     units="px"
     inkscape:window-width="2560"
     inkscape:window-height="1315"
     inkscape:window-x="0"
     inkscape:window-y="1"
     inkscape:window-maximized="1" />
  <metadata
     id="metadata7">
    <rdf:RDF>
      <cc:Work
         rdf:about="">
        <dc:format>image/svg+xml</dc:format>
        <dc:type
           rdf:resource="http://purl.org/dc/dcmitype/StillImage" />
        <dc:title />
      </cc:Work>
    </rdf:RDF>
  </metadata>
  <g
     inkscape:label="Gray BG"
     inkscape:groupmode="layer"
     id="layer1"
     transform="translate(0,-106.49999)">
    <rect
       style="opacity:1;fill:#596268;fill-opacity:1;stroke:none;stroke-width:16.0535984;stroke-miterlimit:4;stroke-dasharray:none;stroke-opacity:1"
       id="rect4141"
       width="338.66669"
       height="190.5"
       x="1.4210855e-14"
       y="106.49999" />
  </g>
  <g
     inkscape:groupmode="layer"
     id="layer5"
     inkscape:label="Residents">
    <g
       id="g1092"
       transform="matrix(0.57971526,0,0,0.57971526,6.0450812,-6.5392436)">
      <g
         style="display:none"
         transform="translate(0,-32.41665)"
         id="layer1-9"
         inkscape:label="BG">
        <rect
           style="fill:#ffffff;fill-opacity:1;stroke-width:0.26458332"
           y="32.416641"
           x="0"
           height="264.58334"
           width="264.58334"
           id="rect4493" />
      </g>
      <g
         style="display:inline"
         inkscape:label="Clothing"
         id="layer3-3">
        <path
           inkscape:connector-curvature="0"
           id="path1067"
           d="m 42.711309,210.72172 c -1.889882,8.50447 -1.700893,19.46578 0.94494,28.34822 2.645834,8.88244 10.772323,25.51339 10.772323,25.51339 h 29.293153 z"
           style="fill:#2e353d;fill-opacity:1;stroke:none;stroke-width:0.26458332px;stroke-linecap:butt;stroke-linejoin:miter;stroke-opacity:1" />
        <path
           inkscape:connector-curvature="0"
           id="path1071"
           d="m 138.71288,152.46377 c 0,0 15.7689,5.21174 34.07687,33.00778 18.30796,27.79603 35.94775,79.11178 35.94775,79.11178 h -34.61141 z"
           style="fill:#414b55;fill-opacity:1;stroke:none;stroke-width:0.26458332px;stroke-linecap:butt;stroke-linejoin:miter;stroke-opacity:1" />
        <path
           inkscape:connector-curvature="0"
           id="path1069"
           d="m 134.46998,141.70617 c 0.66817,-0.23387 1.67043,0.16704 1.73725,0.66817 0.0668,0.50113 5.98016,19.31022 10.3901,27.99648 4.40995,8.68626 38.21955,34.34414 45.30219,43.29767 7.08264,8.95352 7.48355,19.77794 3.34087,29.13237 -4.14268,9.35444 -6.81538,11.35896 -8.41899,16.57072 -1.60362,5.21175 -0.80181,5.21175 -0.80181,5.21175 H 134.43657 L 117.05915,141.96832 Z"
           style="fill:#501616;stroke:none;stroke-width:0.26458332px;stroke-linecap:butt;stroke-linejoin:miter;stroke-opacity:1" />
        <path
           inkscape:connector-curvature="0"
           id="path1065"
           d="m 92.22619,130.2128 c 0,0 -18.709823,7.55952 -25.135417,16.44196 -6.425596,8.88244 -12.473215,15.30804 -22.867559,17.95387 -10.394346,2.64583 -20.78869,5.48065 -20.410714,8.31548 0.377976,2.83482 5.291666,24.94642 20.78869,46.86904 15.497024,21.92262 32.694941,44.79018 32.694941,44.79018 h 80.697919 c 0,0 -3.59078,-13.41816 -5.10268,-17.00893 -1.51191,-3.59077 -0.37798,-6.2366 -1.13393,-10.39434 -0.75595,-4.15774 -1.88988,-3.2128 -2.64583,-7.55953 -0.75596,-4.34672 -0.56697,-7.55952 -2.64584,-13.04018 -2.07887,-5.48065 -4.15774,-6.2366 -4.34672,-11.33928 -0.18899,-5.10268 -0.56697,-7.18155 -2.26786,-13.60714 -1.70089,-6.4256 -6.09246,-8.4377 -3.96875,-16.25298 2.1237,-7.81528 -11.62529,-35.3941 -11.62529,-35.3941 z"
           style="fill:#414b55;fill-opacity:1;stroke:none;stroke-width:0.26458332px;stroke-linecap:butt;stroke-linejoin:miter;stroke-opacity:1" />
      </g>
      <g
         style="display:inline"
         inkscape:label="Head"
         id="layer2-8">
        <path
           sodipodi:nodetypes="ccsccccsccsc"
           inkscape:connector-curvature="0"
           id="path1062"
           d="m 162.49987,105.55796 -23.78699,-3.34087 c 0,0 -3.60814,8.95353 -4.54358,19.37704 -0.93544,10.42352 4.00905,20.98066 4.00905,20.98066 0,0 -2.53907,-8.01808 -0.53455,-7.08264 2.00453,0.93544 0.40091,7.61718 1.06908,9.6217 0.66818,2.00453 1.60362,2.27179 1.60362,2.27179 0,0 -1.33635,-0.93544 -1.06908,-4.14268 0.26727,-3.20723 2.53906,-10.55714 4.40995,-9.6217 1.87089,0.93545 -1.06908,5.34539 -1.06908,5.34539 0,0 5.32467,-6.24569 6.1472,-9.08716 1.46998,-5.07812 15.50163,-15.50163 13.76438,-24.32153 z"
           style="fill:#241c1c;stroke:none;stroke-width:0.26458332px;stroke-linecap:butt;stroke-linejoin:miter;stroke-opacity:1" />
        <path
           sodipodi:nodetypes="cccsccssc"
           inkscape:connector-curvature="0"
           id="path937"
           d="m 135.47462,142.35477 c -0.13364,-4.40995 -0.90441,-9.26805 0.56557,-9.40168 1.46998,-0.13364 7.48355,-0.40091 11.35895,-3.34087 3.87541,-2.93996 14.03165,-24.5888 12.82894,-37.818637 -1.20271,-13.229841 -3.0736,-12.160763 -1.73725,-17.639789 1.33634,-5.479026 0.53454,-7.483547 -2.13816,-13.096206 -2.67269,-5.612662 -11.62622,-33.943231 -39.55589,-33.007786 -27.929664,0.935442 -35.680479,63.476512 -28.196932,79.111778 7.483546,15.63527 25.493212,41.7413 46.874772,35.19319 z"
           style="fill:#cf9c78;fill-opacity:1;stroke:none;stroke-width:0.26458332px;stroke-linecap:butt;stroke-linejoin:miter;stroke-opacity:1" />
        <path
           sodipodi:nodetypes="cccccccsscsscscccc"
           inkscape:connector-curvature="0"
           id="path939"
           transform="scale(0.26458333)"
           d="m 446.33203,105.92969 c -1.61455,0.002 -3.24514,0.0307 -4.89453,0.0859 -35.70449,1.19585 -62.67308,29.04501 -81.65039,67.64649 21.46908,23.29777 47.72549,37.72262 43.76953,45.99414 -6.06089,9.59645 -10.10193,15.15277 -6.56641,24.24414 3.53556,9.09137 8.08007,15.65785 3.0293,26.76953 -5.05073,11.11168 -19.69761,33.33404 -13.63672,45.96094 6.06093,12.62691 37.8821,15.6579 38.89225,38.38633 1.01015,22.72843 -22.72847,59.09464 -7.57619,84.85352 15.15227,25.75888 57.07222,50.0023 53.0316,41.416 -4.04062,-8.58633 -11.11169,-19.19256 5.05078,-11.11132 16.16243,8.08123 54.04346,20.70702 75.76172,16.66641 4.33391,-0.80631 8.21946,-2.1022 11.72461,-3.8418 17.05523,-23.3851 46.32022,-92.04387 42.31836,-136.06445 -4.54568,-50.00255 -11.61718,-45.9618 -6.56641,-66.66993 5.05074,-20.70812 2.02147,-28.28289 -8.08008,-49.49609 -9.94367,-20.88175 -42.89058,-124.96475 -144.60742,-124.83984 z"
           style="fill:#f6ccae;fill-opacity:1;stroke:none;stroke-width:0.99999994px;stroke-linecap:butt;stroke-linejoin:miter;stroke-opacity:1" />
        <path
           sodipodi:nodetypes="ccccc"
           inkscape:connector-curvature="0"
           id="path1028"
           d="m 148.40141,120.60209 c 0,0 1.80406,1.1359 2.00451,3.00679 -0.4009,2.93996 -1.9377,4.00904 -1.9377,4.00904 0,0 2.07134,-1.80407 1.40317,-4.27632 -0.60136,-1.53679 -1.46998,-2.73951 -1.46998,-2.73951 z"
           style="display:inline;fill:#cf9c78;fill-opacity:1;stroke:none;stroke-width:0.26458332px;stroke-linecap:butt;stroke-linejoin:miter;stroke-opacity:1"
           transform="translate(0,-32.41665)" />
        <path
           sodipodi:nodetypes="cccccccsscc"
           inkscape:connector-curvature="0"
           id="path944"
           d="m 130.40178,141.46278 c 0.0945,-1.03944 3.59078,-1.03944 5.76414,-1.98437 2.17336,-0.94495 4.8192,-4.06325 6.23661,-3.49629 1.41741,0.56697 2.64583,1.6064 3.30729,0.75596 0.66146,-0.85045 1.98438,-1.22842 3.2128,-0.37798 1.22842,0.85045 1.6064,3.02381 2.74033,3.2128 1.13392,0.18899 1.60639,1.03943 0.56696,1.32292 -1.03944,0.28348 -1.32292,0.56696 -1.6064,1.79538 -0.28348,1.22842 -0.65952,2.96254 -5.66964,2.83482 -7.41362,-0.18899 -9.32724,-1.61311 -11.5006,-2.74703 -2.17337,-1.13393 -3.61845,-0.46576 -3.05149,-1.31621 z"
           style="display:inline;fill:#501616;stroke:none;stroke-width:0.26458332px;stroke-linecap:butt;stroke-linejoin:miter;stroke-opacity:1"
           transform="translate(0,-32.41665)" />
        <path
           transform="scale(0.26458333)"
           inkscape:connector-curvature="0"
           id="path946"
           d="m 557.73047,405.99805 c -2.14657,0.0316 -4.54561,0.28398 -7.19727,0.78906 -5.30328,1.01008 -9.5967,0.50638 -18.43554,0.25391 -8.83884,-0.25255 -10.10077,2.01914 -14.64649,3.02929 -4.54567,1.01016 -14.90039,1.51485 -14.90039,3.53516 v 0.002 c -0.50509,1.01016 14.39532,2.77636 17.42578,4.03906 3.03047,1.26271 -11.36524,-1.2612 -16.41601,-1.51367 -0.38106,-0.019 -0.74052,0.0176 -1.08008,0.0937 0.61968,0.26219 1.25272,0.54762 1.91015,0.89063 8.21428,4.28568 15.44682,9.66852 43.4668,10.38281 15.60181,0.39773 19.30776,-3.98145 20.73047,-8.13281 -0.005,-3.03337 -0.24644,-6.02791 0.12891,-7.5293 0.7576,-3.03046 -2.02172,-4.54509 -5.30469,-5.30273 -1.64151,-0.37884 -3.53507,-0.56867 -5.68164,-0.53711 z"
           style="display:inline;fill:#782121;stroke:none;stroke-width:0.99999994px;stroke-linecap:butt;stroke-linejoin:miter;stroke-opacity:1" />
        <path
           transform="scale(0.26458333)"
           inkscape:connector-curvature="0"
           id="path948"
           d="m 557.63477,391.04883 c -2.81809,-0.0837 -5.35742,1.22739 -6.91993,3.23633 -2.5,3.21426 -7.14286,-0.71455 -12.5,-2.85743 -5.35714,-2.14284 -15.35799,9.64338 -23.57226,13.21485 -2.24963,0.97809 -4.87105,1.67898 -7.50391,2.27539 -0.79829,0.58517 -1.45751,1.08216 -1.81055,1.38476 -2.0203,1.76776 6.31348,0.50605 12.62696,-1.26171 6.31343,-1.76776 13.38477,-2.77787 18.43554,-2.5254 5.05074,0.25248 5.5555,1.0102 11.11133,0 5.55583,-1.01011 13.88987,0.50432 18.43555,2.01954 4.54568,1.51525 6.81818,0.25247 8.58594,0 0.26261,-0.0375 0.29524,-0.47978 0.1914,-1.15235 -0.45629,-0.16138 -0.95686,-0.29229 -1.5,-0.38281 -4.28572,-0.71429 -5.71457,-8.92828 -10.35742,-12.14258 -1.74107,-1.20535 -3.53181,-1.75837 -5.22265,-1.80859 z"
           style="display:inline;fill:#782121;stroke:none;stroke-width:0.99999994px;stroke-linecap:butt;stroke-linejoin:miter;stroke-opacity:1" />
        <path
           inkscape:connector-curvature="0"
           id="path960"
           d="m 139.9156,127.75155 c -1.06908,0.0668 -2.07134,-0.80181 -0.26727,-1.73725 1.80407,-0.93544 3.87541,0.53454 2.80633,1.1359 -1.06908,0.60135 -2.53906,0.60135 -2.53906,0.60135 z"
           style="display:inline;fill:#573218;fill-opacity:1;stroke:none;stroke-width:0.26458332px;stroke-linecap:butt;stroke-linejoin:miter;stroke-opacity:1"
           transform="translate(0,-32.41665)" />
        <path
           inkscape:connector-curvature="0"
           id="path962"
           d="m 147.06506,127.08338 c 0.53453,-0.60136 1.87088,-2.20497 2.00452,-0.93544 0.13363,1.26953 -0.53454,1.00226 -2.00452,0.93544 z"
           style="display:inline;fill:#573218;fill-opacity:1;stroke:none;stroke-width:0.26458332px;stroke-linecap:butt;stroke-linejoin:miter;stroke-opacity:1"
           transform="translate(0,-32.41665)" />
        <path
           inkscape:connector-curvature="0"
           id="path964"
           d="m 135.57247,121.20345 c -0.93545,1.26953 -2.80633,4.74403 -1.73725,6.08038 1.06907,1.33635 5.21175,1.60362 4.94448,1.73725 -0.26727,0.13364 -5.81311,0.93545 -5.87993,-2.47224 -0.0668,-3.40769 2.27179,-4.67722 2.6727,-5.34539 z"
           style="display:inline;fill:#cf9c78;fill-opacity:1;stroke:none;stroke-width:0.26458332px;stroke-linecap:butt;stroke-linejoin:miter;stroke-opacity:1"
           transform="translate(0,-32.41665)" />
        <path
           sodipodi:nodetypes="cccsszzc"
           inkscape:connector-curvature="0"
           id="path966"
           d="m 106.87277,107.63391 c 1.5119,0.0945 4.3143,-3.39507 7.74851,-5.10268 3.03331,-1.03943 4.34673,-1.41741 8.69345,-0.66146 4.34673,0.75596 7.62112,1.65517 8.78795,0.85045 0.68508,-0.47247 0.75595,-1.6064 0.28348,-1.5119 -0.47247,0.0945 -0.51095,0.57997 -1.98438,0.47246 -1.47343,-0.10751 -8.02677,-3.921953 -13.67871,-2.662041 -5.65193,1.259911 -7.96042,7.953711 -9.8503,8.615171 z"
           style="display:inline;fill:#28170b;stroke:none;stroke-width:0.26458332px;stroke-linecap:butt;stroke-linejoin:miter;stroke-opacity:1"
           transform="translate(0,-32.41665)" />
        <path
           sodipodi:nodetypes="cccsszc"
           inkscape:connector-curvature="0"
           id="path968"
           d="m 144.4814,103.38168 c 0.94494,-1.13393 1.79538,-3.02381 5.57515,-4.252232 3.77976,-1.228424 6.2366,-1.417413 7.18154,-0.661459 0.94494,0.755952 2.17337,1.889881 1.7009,4.157741 -0.47247,2.26785 -0.44885,-2.008 -3.28367,-2.1025 -2.83482,-0.0945 -6.99256,1.06306 -8.85882,1.81902 -1.86626,0.75595 -1.37016,1.22842 -2.3151,1.03943 z"
           style="display:inline;fill:#28170b;stroke:none;stroke-width:0.26458332px;stroke-linecap:butt;stroke-linejoin:miter;stroke-opacity:1"
           transform="translate(0,-32.41665)" />
        <path
           sodipodi:nodetypes="csssssscsscccsccscssscsccsccsccsssc"
           inkscape:connector-curvature="0"
           id="path1010"
           d="m 122.14217,44.085972 c 0.53454,-2.939965 0.93545,-1.469982 -0.66817,-4.009043 -1.60362,-2.539061 -5.61266,-11.626223 -7.08264,-12.695301 -1.46998,-1.069078 -9.08717,-4.810852 -20.980662,3.340868 -11.893492,8.151722 -24.187891,28.865109 -22.45064,45.302185 1.737252,16.437075 7.483547,44.634009 6.013564,50.113039 -1.469982,5.47902 -10.289876,24.18789 -22.18337,26.99422 -11.893494,2.80633 -11.358954,-6.54811 -11.358954,-6.54811 0,0 -1.202714,9.08717 10.022607,7.61719 11.225321,-1.46999 6.1472,2.13815 0.935442,3.20723 -5.211754,1.06908 -10.557144,-2.93996 -14.432552,0.66817 -3.87541,3.60814 -0.801809,6.68174 -0.801809,6.68174 0,0 -1.870887,-3.4745 1.469983,-6.1472 3.340867,-2.67269 10.824416,2.53906 17.105248,0.80181 6.280833,-1.73725 12.695304,-15.90253 18.174327,-17.63979 5.479026,-1.73725 6.68174,3.47451 6.68174,3.47451 0,0 -0.801809,-4.00905 3.741772,-5.21176 4.543583,-1.20271 8.285355,1.33635 8.285355,1.33635 0,0 -0.668173,-6.81537 -5.078121,-8.41899 -4.409945,-1.60362 9.621702,-1.06908 15.10073,5.07812 5.47902,6.1472 -8.819895,7.48355 -11.225322,14.43256 -2.405425,6.949 3.741774,8.81989 3.741774,8.81989 0,0 -4.009043,-1.87089 -3.073598,-7.75082 0.935442,-5.87993 18.708866,-5.47902 21.782466,-3.0736 3.0736,2.40543 15.7689,11.75986 18.17433,17.63979 2.40542,5.87993 13.76438,14.03165 20.71338,10.55715 6.94901,-3.47451 8.68626,-10.82442 8.68626,-10.82442 0,0 -3.8754,5.87993 -6.5481,5.47903 -2.67269,-0.40091 2.27179,-2.6727 4.54358,-5.7463 2.27179,-3.0736 1.73725,-5.61266 1.73725,-5.61266 0,0 -1.20271,7.08264 -9.08716,7.34992 -7.88445,0.26726 -10.42351,-16.30345 -17.37252,-23.11882 -6.94901,-6.81537 -35.01231,-24.05426 -37.417732,-41.42677 -2.405425,-17.372525 -0.400904,-26.326054 2.539062,-35.546852 2.93996,-9.220798 8.68626,-25.256971 20.31248,-25.123336 z"
           style="fill:#28170b;stroke:none;stroke-width:0.26458332px;stroke-linecap:butt;stroke-linejoin:miter;stroke-opacity:1" />
        <path
           sodipodi:nodetypes="cssssscccsscscccscccsssccsccccsssssc"
           inkscape:connector-curvature="0"
           id="path1012"
           d="m 122.54308,41.81418 c -1.87088,-4.409946 -5.87994,-11.492589 -7.61718,-13.764379 -1.16227,-1.519893 7.61718,-5.078121 17.50615,-1.603617 9.88897,3.474502 25.12334,17.639788 30.73599,37.551367 5.61266,19.911581 0.13364,45.302189 5.3454,62.273799 5.21175,16.97161 16.03617,29.13238 15.23436,40.3577 -0.80181,11.22532 -10.95805,18.8425 -10.95805,18.8425 0,0 9.48807,-8.95353 10.0226,-16.83798 0.53454,-7.88445 -9.08716,-16.03617 -9.08716,-16.03617 0,0 7.21628,9.2208 4.54358,19.37704 -2.67269,10.15624 -7.61718,10.42351 -8.81989,14.29892 -1.20271,3.87541 0.13363,8.28535 0.13363,8.28535 0,0 -3.4745,-3.34086 -1.20271,-9.48806 2.27179,-6.1472 5.47903,-11.49259 5.07812,-16.30345 -0.4009,-4.81085 -5.21175,14.5662 -8.68626,17.23889 -3.4745,2.6727 -4.94449,2.27179 -4.94449,2.27179 0,0 5.47903,-3.0736 6.01357,-9.08716 0.53454,-6.01357 -12.02713,-2.93997 -12.02713,-2.93997 0,0 9.35443,-4.81085 7.21628,-9.88897 -2.13816,-5.07812 -6.68174,1.06908 -6.68174,1.06908 0,0 5.47902,-6.68174 5.07812,-9.88897 -0.4009,-3.20724 -5.21175,-10.95806 -5.21175,-15.50164 0,-4.54358 -1.87089,-3.8754 -1.33635,4.54358 0.53454,8.419 3.4745,10.95806 2.40542,14.9671 -1.06907,4.00904 -2.27179,6.1472 -2.27179,6.1472 0,0 -0.13363,-5.87993 -3.74177,-7.88445 -3.60814,-2.00452 -0.80181,-15.10073 -0.80181,-15.10073 0,0 -2.53906,1.87088 -3.4745,5.87993 -0.93545,4.00904 -0.53454,5.47902 -0.53454,5.47902 0,0 -2.19351,-2.75654 -2.05988,-7.03285 0.13364,-4.27631 3.27957,-13.73254 4.40717,-15.87405 2.06266,-3.91732 9.41257,-14.24356 11.01618,-23.86526 1.60362,-9.621706 3.20724,-17.238888 1.33635,-25.256972 -1.87089,-8.018087 -0.4009,-8.151723 -0.4009,-13.229844 0,-5.078119 -8.8199,-21.782466 -15.90254,-24.321527 -7.08264,-2.53906 -20.04521,-2.138156 -20.31248,-4.677217 z"
           style="fill:#28170b;stroke:none;stroke-width:0.26458332px;stroke-linecap:butt;stroke-linejoin:miter;stroke-opacity:1" />
        <path
           sodipodi:nodetypes="csscsscsscsscssc"
           inkscape:connector-curvature="0"
           id="path1016"
           d="m 98.889724,71.4811 c 0,0 -6.949006,11.091685 -6.681738,20.312483 0.267269,9.220797 2.107491,19.120557 6.733223,25.128727 4.625731,6.00817 5.160271,6.40908 5.160271,6.40908 0,0 -9.888973,-11.35896 -9.888973,-10.69078 0,0.66817 0.668173,8.15172 4.810852,11.89349 4.142681,3.74177 4.009041,3.74177 4.009041,3.74177 0,0 -8.285353,-4.81085 -10.15624,-9.88897 -1.870887,-5.07812 -3.474503,-1.20271 -2.80633,0.93544 0.668174,2.13816 2.539061,3.0736 2.539061,3.0736 0,0 -4.520655,-2.222 -3.852482,-10.50735 0.668176,-8.28536 -0.678823,-8.42015 -2.441784,-14.228509 -1.830783,-6.031818 6.695171,-18.829071 6.695171,-18.829071 0,0 -7.216278,14.165287 -5.078122,16.303443 2.138156,2.138156 2.939965,-7.884451 5.211755,-13.229844 2.271792,-5.34539 5.746295,-10.423509 5.746295,-10.423509 z"
           style="fill:#502d16;stroke:none;stroke-width:0.26458332px;stroke-linecap:butt;stroke-linejoin:miter;stroke-opacity:1" />
        <path
           inkscape:connector-curvature="0"
           id="path1018"
           d="m 102.76513,29.386149 c -5.879927,2.806329 -15.768901,8.552624 -18.708863,18.441598 -2.939966,9.888971 -3.875411,26.326047 -3.875411,26.326047 0,0 -1.069078,-19.911579 3.34087,-28.464206 4.409948,-8.552624 16.704344,-15.50163 19.243404,-16.303439 z"
           style="fill:#502d16;stroke:none;stroke-width:0.26458332px;stroke-linecap:butt;stroke-linejoin:miter;stroke-opacity:1" />
        <path
           inkscape:connector-curvature="0"
           id="path1020"
           d="m 108.24416,31.524305 c 0,0 -12.02713,3.741774 -16.036174,17.506153 -4.009043,13.764382 -4.009043,24.054258 -4.009043,24.054258 0,0 0.801809,-32.339613 20.045217,-41.560411 z"
           style="fill:#502d16;stroke:none;stroke-width:0.26458332px;stroke-linecap:butt;stroke-linejoin:miter;stroke-opacity:1" />
        <path
           inkscape:connector-curvature="0"
           id="path1022"
           d="m 111.05049,33.127923 c 0,0 -9.35444,7.082642 -12.027131,12.96257 -2.672696,5.87993 -3.474503,10.156243 -3.474503,10.156243 0,0 1.737252,-6.815373 5.746294,-12.027128 4.00904,-5.211757 9.75534,-11.091685 9.75534,-11.091685 z"
           style="fill:#502d16;stroke:none;stroke-width:0.26458332px;stroke-linecap:butt;stroke-linejoin:miter;stroke-opacity:1" />
        <path
           inkscape:connector-curvature="0"
           id="path1024"
           d="m 110.24868,40.344198 c -1.87089,1.069078 -8.28536,9.621705 -9.88897,13.229844 -1.60362,3.608136 -2.539065,5.746292 -2.539065,5.746292 0,0 4.409945,-8.15172 4.543585,-7.617179 0.13363,0.534537 -4.677218,8.819893 -5.612663,11.759858 -0.935442,2.939965 -1.603615,7.216278 -1.603615,7.216278 0,0 2.00452,-10.156243 7.349908,-16.570711 5.34539,-6.414469 13.76438,-13.229842 12.96257,-13.096206 -0.8018,0.133633 -5.34539,4.276312 -7.34991,5.612659 -2.00452,1.336347 2.13816,-6.280835 2.13816,-6.280835 z"
           style="fill:#502d16;stroke:none;stroke-width:0.26458332px;stroke-linecap:butt;stroke-linejoin:miter;stroke-opacity:1" />
        <path
           inkscape:connector-curvature="0"
           id="path1026"
           d="m 120.93946,28.985244 c 0.53454,-1.336347 5.34539,-3.741773 10.42351,-2.138156 5.07812,1.603618 14.29892,7.483546 18.17433,13.096208 3.87541,5.612659 9.35443,16.437075 9.35443,16.437075 0,0 -10.15624,-16.570711 -10.95805,-16.036173 -0.80181,0.53454 5.61266,9.488069 5.61266,9.488069 0,0 -3.34087,-3.608138 -6.5481,-4.276312 -3.20724,-0.668173 -6.68174,-0.668173 -7.08264,-2.004523 -0.40091,-1.336347 -0.13364,-3.207234 -3.60814,-4.009041 -3.47451,-0.801809 -7.61718,0.133634 -7.61718,0.133634 0,0 2.00452,-3.207235 3.34087,-3.207235 1.33634,0 2.53906,-0.400904 1.73725,-0.668173 -0.80181,-0.267269 -5.07812,-0.668174 -5.87993,0.53454 -0.80181,1.202711 -1.46999,0.267269 -1.46999,0.267269 0,0 1.20272,-3.474503 5.3454,-3.207234 4.14267,0.267269 7.21627,1.870887 7.21627,1.870887 0,0 -4.40994,-2.806332 -7.61718,-2.806332 -3.20723,0 -6.01356,1.469983 -6.1472,0.935445 -0.13363,-0.53454 3.0736,-3.741775 7.61718,-2.80633 4.54359,0.935443 8.95353,4.944486 8.95353,4.276313 0,-0.668174 -12.42803,-10.557147 -20.84702,-5.879931 z"
           style="fill:#502d16;stroke:none;stroke-width:0.26458332px;stroke-linecap:butt;stroke-linejoin:miter;stroke-opacity:1" />
        <path
           inkscape:connector-curvature="0"
           id="path1004"
           d="m 129.78757,78.760787 c 0.23624,-0.850447 1.08669,-2.36235 -1.5119,-3.401785 -2.59859,-1.039434 -9.26042,-0.992187 -10.11087,-0.0945 -0.85044,0.897695 -1.37016,2.976563 -1.32291,3.543528 0.0472,0.566965 2.64583,2.267857 6.3311,1.937128 3.68527,-0.330729 6.61458,-1.984375 6.61458,-1.984375 z"
           style="display:inline;fill:#ececec;stroke:none;stroke-width:0.26458332px;stroke-linecap:butt;stroke-linejoin:miter;stroke-opacity:1" />
        <path
           inkscape:connector-curvature="0"
           id="circle998"
           transform="scale(0.26458333)"
           d="m 467.05469,280.7793 c -2.16588,-0.0314 -4.77734,0.0689 -7.58985,0.4707 -4.32695,0.61814 -8.13473,2.11643 -10.61914,3.2832 a 11.964286,11.964286 0 0 0 -0.98828,4.75196 11.964286,11.964286 0 0 0 11.96485,11.96484 11.964286,11.964286 0 0 0 11.96289,-11.96484 11.964286,11.964286 0 0 0 -3.51954,-8.46485 c -0.3974,-0.0156 -0.77551,-0.0347 -1.21093,-0.041 z"
           style="display:inline;fill:#08210d;fill-opacity:1;stroke:none;stroke-width:4.96296263;stroke-linecap:round;stroke-miterlimit:4;stroke-dasharray:none;stroke-opacity:1" />
        <path
           inkscape:connector-curvature="0"
           id="path1006"
           d="m 146.22954,76.49293 c 0.14174,-0.755952 0.75595,-2.220611 3.77976,-2.456844 3.02381,-0.236236 5.66964,1.370163 5.76414,2.220608 0.0945,0.850448 0.42522,2.315104 -0.51972,2.740329 -0.94494,0.425223 -5.5279,1.133928 -6.56734,0.755952 -1.03943,-0.377976 -3.16555,-2.031622 -2.45684,-3.260045 z"
           style="display:inline;fill:#ececec;stroke:none;stroke-width:0.26458332px;stroke-linecap:butt;stroke-linejoin:miter;stroke-opacity:1" />
        <path
           inkscape:connector-curvature="0"
           id="circle1000"
           transform="scale(0.26458333)"
           d="m 571.65234,279.07812 c -0.9082,0.01 -1.87556,0.0731 -2.90234,0.20704 -6.10603,0.79644 -11.40944,3.66008 -13.73633,5.08007 a 11.964286,11.964286 0 0 0 -0.1914,2.0625 11.964286,11.964286 0 0 0 11.96289,11.96485 11.964286,11.964286 0 0 0 11.96484,-11.96485 11.964286,11.964286 0 0 0 -2.1543,-6.82226 c -1.37235,-0.32181 -3.01921,-0.54803 -4.94336,-0.52735 z"
           style="display:inline;fill:#08210d;fill-opacity:1;stroke:none;stroke-width:4.96296263;stroke-linecap:round;stroke-miterlimit:4;stroke-dasharray:none;stroke-opacity:1" />
        <path
           sodipodi:nodetypes="cccscccscccccccccsccccccccc"
           inkscape:connector-curvature="0"
           id="path980"
           d="m 117.07812,77.579611 c -0.56696,0.566965 0.0473,1.322917 1.46467,1.984375 1.41741,0.661458 4.77194,1.181176 6.94531,0.425225 2.17336,-0.755954 3.68526,-1.086684 4.53571,-1.086684 0.85045,0 0.66146,1.039437 0.66146,1.039437 0,0 -0.14174,-0.944941 -1.18118,-0.519718 -1.03943,0.425222 -0.56696,1.322916 -0.56696,1.322916 0,0 -0.28349,-0.803198 -0.99219,-0.614211 -0.70871,0.188989 -0.8032,1.13393 -0.8032,1.13393 0,0 -0.23623,-0.708708 -0.85045,-0.519719 -0.61421,0.18899 -0.75595,1.41741 -0.75595,1.41741 0,0 -0.14174,-1.133927 -0.89769,-1.039434 -0.75595,0.09449 -0.94494,1.559153 -0.94494,1.559153 0,0 0.33073,-1.46466 -0.47247,-1.511906 -0.8032,-0.04725 -1.22843,0.850447 -1.22843,0.850447 0,0 0.56697,-0.755951 -0.0945,-0.944941 -0.66146,-0.188989 -0.85045,0.661459 -0.85045,0.661459 0,0 0.18899,-0.850448 -0.37797,-0.850448 -0.56697,0 -1.13393,0.614212 -1.13393,0.614212 0,0 0.28348,-0.614212 -0.28348,-0.708705 -0.56697,-0.09449 -1.08669,0.09449 -1.08669,0.09449 0,0 0.18899,-0.425222 -0.14174,-0.661458 -0.33072,-0.236233 -1.18117,-0.09449 -1.18117,-0.09449 0,0 0.42522,-0.14174 -0.0473,-0.472469 -0.47247,-0.33073 -1.41741,-0.33073 -1.41741,-0.33073 0,0 1.37016,-0.803201 1.70089,-1.748141 z"
           style="display:inline;fill:#241c1c;stroke:none;stroke-width:0.26458332px;stroke-linecap:butt;stroke-linejoin:miter;stroke-opacity:1" />
        <path
           sodipodi:nodetypes="cssccscscccsscccccccccccccccccccsccc"
           inkscape:connector-curvature="0"
           id="path982"
           d="m 144.10342,76.776412 c 0.56697,0 1.46466,-0.803198 2.4096,-1.653645 0.94494,-0.850448 3.16555,-2.315105 5.95312,-1.889882 2.78758,0.425225 3.11831,1.937128 4.06325,2.126117 0.94494,0.188987 1.27567,0 1.27567,0 0,0 -1.32292,0.188987 -1.13393,0.519716 0.18899,0.330729 1.22842,0.236236 1.22842,0.236236 0,0 -1.37016,0.283483 -1.08668,0.708705 0.28348,0.425222 1.46466,0.755952 1.46466,0.755952 0,0 -1.6064,0.141742 -1.84264,0.566965 -0.23623,0.425222 0.70871,1.08668 0.70871,1.08668 0,0 -0.46673,-0.254579 -0.81734,-0.280394 -0.17261,-0.01271 -0.31708,0.03003 -0.36384,0.185904 -0.14174,0.472472 0.37798,1.181177 0.37798,1.181177 0,0 -0.7087,-0.519719 -0.99219,-0.330729 -0.28348,0.188986 -0.18899,1.322916 -0.18899,1.322916 0,0 -0.47247,-1.748141 -0.99218,-1.559152 -0.51972,0.188989 -0.37798,1.322916 -0.37798,1.322916 0,0 -0.47247,-1.322916 -0.99219,-1.133927 -0.51971,0.188987 -0.23623,1.086681 -0.23623,1.086681 0,0 -0.51972,-1.039434 -0.94494,-0.992188 -0.42523,0.04725 -0.61421,1.086681 -0.61421,1.086681 0,0 0.14174,-1.228423 -0.47247,-1.133927 -0.61422,0.09449 -0.61422,1.039434 -0.61422,1.039434 0,0 0.0945,-0.944941 -0.37797,-0.992188 -0.47247,-0.04725 -0.8032,0.519716 -0.8032,0.519716 0,0 0.33073,-0.566962 -0.0472,-0.661458 -0.37797,-0.09449 -0.56696,0.377978 -0.56696,0.377978 0,0 0.14174,-0.661458 -0.14174,-0.755954 -0.28348,-0.09449 -0.94495,-0.850445 -0.94495,-0.850445 0,0 1.46467,0.803198 3.49629,0.661459 2.03162,-0.141743 4.7247,-0.519719 4.67745,-1.748142 -0.0472,-1.228421 -0.47247,-2.551338 -2.69308,-2.83482 -2.22061,-0.283483 -3.82701,-0.330729 -5.33891,0.614211 -1.51191,0.944941 -2.07887,1.41741 -3.07106,1.41741 z"
           style="display:inline;fill:#241c1c;stroke:none;stroke-width:0.26458332px;stroke-linecap:butt;stroke-linejoin:miter;stroke-opacity:1" />
        <path
           inkscape:connector-curvature="0"
           id="path984"
           d="m 112.30618,77.7686 c 0,0 1.98437,0.283482 2.92931,-0.236236 0.94494,-0.519716 2.22061,-2.740327 4.29948,-3.260045 2.07887,-0.519716 6.47284,-0.850445 8.17373,-0.14174 1.7009,0.708705 3.92151,4.299479 4.53572,4.582962 0.61421,0.283482 0.28348,0.850445 -1.03944,-0.04725 -1.32291,-0.897694 -1.84263,-2.645833 -4.29947,-3.071058 -2.45685,-0.425223 -5.33892,-1.086681 -7.2288,0.0945 -1.88988,1.181174 -2.45684,1.039434 -3.44903,1.795385 -0.99219,0.755952 -1.84264,2.220611 -1.84264,2.220611 0,0 0.70871,-1.228423 0.18899,-1.370163 -0.51972,-0.141743 -1.79539,-0.04725 -2.26785,-0.566966 z"
           style="display:inline;fill:#241c1c;stroke:none;stroke-width:0.26458332px;stroke-linecap:butt;stroke-linejoin:miter;stroke-opacity:1" />
        <path
           inkscape:connector-curvature="0"
           id="path986"
           d="m 131.11049,72.760416 c 1.98438,1.228423 3.49628,3.732514 3.07106,4.771948 -0.42523,1.039434 -0.94494,1.559152 -0.75595,1.606399 0.18898,0.04725 2.97656,-1.370163 1.74813,-2.976562 -1.22842,-1.6064 -3.68526,-3.921504 -4.06324,-3.401785 z"
           style="display:inline;fill:#cf9c78;fill-opacity:1;stroke:none;stroke-width:0.26458332px;stroke-linecap:butt;stroke-linejoin:miter;stroke-opacity:1" />
        <circle
           r="1.2756697"
           cy="76.540176"
           cx="121.66109"
           id="path988"
           style="display:inline;fill:#000000;fill-opacity:1;stroke:none;stroke-width:0.52916664;stroke-linecap:round;stroke-miterlimit:4;stroke-dasharray:none;stroke-opacity:1" />
        <circle
           style="display:inline;fill:#000000;fill-opacity:1;stroke:none;stroke-width:0.52916664;stroke-linecap:round;stroke-miterlimit:4;stroke-dasharray:none;stroke-opacity:1"
           id="circle990"
           cx="149.86755"
           cy="75.642487"
           r="1.2756697" />
        <circle
           r="0.61421132"
           cy="76.067711"
           cx="123.6927"
           id="path992"
           style="display:inline;fill:#f7f7f7;fill-opacity:1;stroke:none;stroke-width:0.52916664;stroke-linecap:round;stroke-miterlimit:4;stroke-dasharray:none;stroke-opacity:1" />
        <circle
           style="display:inline;fill:#f7f7f7;fill-opacity:1;stroke:none;stroke-width:0.52916664;stroke-linecap:round;stroke-miterlimit:4;stroke-dasharray:none;stroke-opacity:1"
           id="circle994"
           cx="151.33221"
           cy="75.500748"
           r="0.61421132" />
      </g>
    </g>
  </g>
  <g
     inkscape:groupmode="layer"
     id="layer2"
     inkscape:label="Orange Banner">
    <rect
       style="opacity:1;fill:#de3d2d;fill-opacity:1;stroke:none;stroke-width:11.03082752;stroke-miterlimit:4;stroke-dasharray:none;stroke-opacity:1"
       id="rect4144"
       width="338.66669"
       height="43.65625"
       x="0"
       y="146.84375" />
  </g>
  <g
     inkscape:label="Blue Banner"
     id="g4203"
     inkscape:groupmode="layer"
     style="display:none">
    <rect
       y="146.84375"
       x="0"
       height="43.65625"
       width="338.66669"
       id="rect4205"
       style="opacity:1;fill:#407d93;fill-opacity:1;stroke:none;stroke-width:11.03082752;stroke-miterlimit:4;stroke-dasharray:none;stroke-opacity:1" />
  </g>
  <g
     inkscape:groupmode="layer"
     id="layer3"
     inkscape:label="Discover"
     style="display:inline">
    <text
       xml:space="preserve"
       style="font-style:normal;font-variant:normal;font-weight:normal;font-stretch:normal;font-size:11.09478283px;line-height:0%;font-family:Museo;-inkscape-font-specification:'Museo, Normal';text-align:start;letter-spacing:0px;word-spacing:0px;writing-mode:lr-tb;text-anchor:start;fill:#ffffff;fill-opacity:1;stroke:none;stroke-width:0.52590871px;stroke-linecap:butt;stroke-linejoin:miter;stroke-opacity:1"
       x="143.81041"
       y="40.100548"
       id="text4147"><tspan
         sodipodi:role="line"
         id="tspan4164"
         x="143.81041"
         y="40.100548"
         style="font-size:21.03625298px;line-height:1.25;stroke-width:0.52590871px">DISCOVER:</tspan></text>
  </g>
  <g
     inkscape:label="Interview"
     id="g4209"
     inkscape:groupmode="layer"
     style="display:none">
    <text
       id="text4211"
       y="40.767208"
       x="173.85484"
       style="font-style:normal;font-variant:normal;font-weight:normal;font-stretch:normal;line-height:0%;font-family:Museo;-inkscape-font-specification:'Museo, Normal';text-align:start;letter-spacing:0px;word-spacing:0px;writing-mode:lr-tb;text-anchor:start;fill:#ffffff;fill-opacity:1;stroke:none;stroke-width:0.50668812px;stroke-linecap:butt;stroke-linejoin:miter;stroke-opacity:1"
       xml:space="preserve"><tspan
         id="tspan4213"
         sodipodi:role="line"
         x="173.85484"
         y="40.767208"
         style="font-size:20.26743698px;line-height:1.25">INTERVIEW:</tspan></text>
  </g>
  <g
     inkscape:groupmode="layer"
     id="layer4"
     inkscape:label="Artist Name">
    <text
       xml:space="preserve"
       style="font-style:normal;font-variant:normal;font-weight:600;font-stretch:normal;font-size:14.75708008px;line-height:0%;font-family:Museo;-inkscape-font-specification:'Museo, Semi-Bold';text-align:start;letter-spacing:0px;word-spacing:0px;writing-mode:lr-tb;text-anchor:start;fill:#ffffff;fill-opacity:1;stroke:none;stroke-width:1.12226129px;stroke-linecap:butt;stroke-linejoin:miter;stroke-opacity:1"
       x="143.81262"
       y="77.046394"
       id="text4158"><tspan
         sodipodi:role="line"
         x="143.81262"
         y="77.046394"
         style="font-style:normal;font-variant:normal;font-weight:600;font-stretch:normal;font-size:44.89084625px;line-height:100%;font-family:Museo;-inkscape-font-specification:'Museo, Semi-Bold';text-align:start;writing-mode:lr-tb;text-anchor:start;fill:#ffffff;fill-opacity:1;stroke-width:1.12226129px"
         id="tspan4652">Nora</tspan><tspan
         sodipodi:role="line"
         x="143.81262"
         y="121.93724"
         style="font-style:normal;font-variant:normal;font-weight:600;font-stretch:normal;font-size:44.89084625px;line-height:100%;font-family:Museo;-inkscape-font-specification:'Museo, Semi-Bold';text-align:start;writing-mode:lr-tb;text-anchor:start;fill:#ffffff;fill-opacity:1;stroke-width:1.12226129px"
         id="tspan1096">Germain</tspan></text>
  </g>
  <g
     inkscape:groupmode="layer"
     id="layer6"
     inkscape:label="WEIRD">
    <path
       style="opacity:1;fill:#ffffff;fill-opacity:1;stroke:none;stroke-width:17.2258606;stroke-miterlimit:4;stroke-dasharray:none;stroke-opacity:1"
       d="M 245.3457 602.625 L 245.3457 672.625 L 495.3457 672.625 L 495.3457 602.625 L 245.3457 602.625 z M 254.20703 613.5 L 258.08398 613.5 C 261.48345 613.5 263.18217 614.17987 263.99805 617.44336 L 271.4082 648.31055 C 272.02011 650.89414 272.36133 653.41016 272.36133 653.41016 L 272.49609 653.41016 C 272.49609 653.41016 272.90446 650.96213 273.65234 648.31055 L 283.30664 613.63477 L 289.42578 613.63477 L 298.40039 648.31055 C 299.08028 650.96213 299.41992 653.41016 299.41992 653.41016 L 299.55664 653.41016 C 299.55664 653.41016 299.8295 650.89414 300.44141 648.31055 L 307.98828 617.44336 C 308.80415 614.17987 310.43452 613.5 313.83398 613.5 L 317.70898 613.5 L 317.70898 619.3457 L 316.68945 619.3457 C 315.46565 619.3457 314.71885 619.61799 314.37891 620.8418 L 303.83984 661.5 L 295.95312 661.5 L 287.79492 631.17773 C 286.97905 628.05022 286.43555 624.58203 286.43555 624.58203 L 286.29883 624.58203 C 286.29883 624.58203 285.61824 628.04985 284.73438 631.10938 L 276.0332 661.5 L 268.07812 661.5 L 257.53906 620.8418 C 257.19912 619.61799 256.45232 619.3457 255.22852 619.3457 L 254.20703 619.3457 L 254.20703 613.5 z M 326.5 613.5 L 354.7168 613.5 C 357.77632 613.5 359.06641 614.79204 359.06641 617.85156 L 359.06641 623.90234 L 352.88086 623.90234 L 352.88086 620.8418 C 352.88086 619.82196 352.33662 619.3457 351.38477 619.3457 L 337.71875 619.3457 L 337.71875 634.37305 L 354.51172 634.37305 L 354.51172 640.21875 L 337.71875 640.21875 L 337.71875 654.15625 C 337.71875 655.1081 338.26299 655.65234 339.21484 655.65234 L 353.2207 655.65234 C 354.17255 655.65234 354.7168 655.1081 354.7168 654.15625 L 354.7168 651.09766 L 360.9707 651.09766 L 360.9707 657.14844 C 360.9707 660.20796 359.67866 661.5 356.61914 661.5 L 335.27148 661.5 C 332.21196 661.5 330.91992 660.20796 330.91992 657.14844 L 330.91992 619.3457 L 326.5 619.3457 L 326.5 613.5 z M 370.41406 613.5 L 386.25586 613.5 L 386.25586 619.3457 L 381.56445 619.3457 L 381.56445 655.65234 L 386.25586 655.65234 L 386.25586 661.5 L 370.41406 661.5 L 370.41406 655.65234 L 375.10547 655.65234 L 375.10547 619.3457 L 370.41406 619.3457 L 370.41406 613.5 z M 396.6543 613.5 L 417.5957 613.5 C 426.02638 613.5 431.94141 618.80359 431.94141 627.57422 C 431.94141 635.59696 426.70611 639.53923 423.30664 640.28711 L 423.30664 640.42383 C 423.30664 640.42383 424.52983 641.03585 425.3457 642.59961 L 431.125 654.08984 C 431.80489 655.51762 432.89365 655.65234 434.52539 655.65234 L 435.4082 655.65234 L 435.4082 661.5 L 432.07812 661.5 C 428.33871 661.5 426.97782 661.02399 425.41406 657.89648 L 418.88672 644.97852 C 417.66291 642.73487 416.78049 642.39453 414.12891 642.39453 L 407.87305 642.39453 L 407.87305 661.5 L 401.07422 661.5 L 401.07422 619.3457 L 396.6543 619.3457 L 396.6543 613.5 z M 443.75 613.5 L 463.19531 613.5 C 477.81302 613.5 487.4668 622.27002 487.4668 637.43164 C 487.4668 652.66125 477.81302 661.5 463.19531 661.5 L 452.51953 661.5 C 449.46001 661.5 448.16992 660.20796 448.16992 657.14844 L 448.16992 619.3457 L 443.75 619.3457 L 443.75 613.5 z M 407.87305 619.3457 L 407.87305 636.54883 L 416.71094 636.54883 C 421.87813 636.54883 424.9375 633.21686 424.9375 627.8457 C 424.9375 622.47455 421.87887 619.3457 416.84766 619.3457 L 407.87305 619.3457 z M 454.96875 619.3457 L 454.96875 654.15625 C 454.96875 655.1081 455.51299 655.65234 456.46484 655.65234 L 462.71875 655.65234 C 473.39308 655.65234 480.39648 649.26179 480.39648 637.43164 C 480.39648 625.66949 473.32509 619.3457 462.71875 619.3457 L 454.96875 619.3457 z "
       transform="scale(0.26458334)"
       id="rect4172" />
  </g>
  <g
     inkscape:groupmode="layer"
     id="layer7"
     inkscape:label="MAKE">
    <text
       xml:space="preserve"
       style="font-style:normal;font-variant:normal;font-weight:normal;font-stretch:normal;line-height:0%;font-family:Museo;-inkscape-font-specification:'Museo, Normal';text-align:start;letter-spacing:0px;word-spacing:0px;writing-mode:lr-tb;text-anchor:start;fill:#ffffff;fill-opacity:1;stroke:none;stroke-width:0.26458335px;stroke-linecap:butt;stroke-linejoin:miter;stroke-opacity:1"
       x="10.690782"
       y="175.02188"
       id="text4175"><tspan
         sodipodi:role="line"
         id="tspan4177"
         x="10.690782"
         y="175.02188"
         style="font-style:normal;font-variant:normal;font-weight:normal;font-stretch:normal;font-size:17.99166679px;line-height:100%;font-family:Museo;-inkscape-font-specification:'Museo, Normal';text-align:start;letter-spacing:1.32291675px;writing-mode:lr-tb;text-anchor:start;fill:#ffffff;fill-opacity:1;stroke-width:0.26458335px">MAKE</tspan></text>
  </g>
  <g
     inkscape:groupmode="layer"
     id="layer8"
     inkscape:label="MUSIC">
    <text
       xml:space="preserve"
       style="font-style:normal;font-variant:normal;font-weight:normal;font-stretch:normal;line-height:0%;font-family:Museo;-inkscape-font-specification:'Museo, Normal';text-align:start;letter-spacing:0px;word-spacing:0px;writing-mode:lr-tb;text-anchor:start;fill:#ffffff;fill-opacity:1;stroke:none;stroke-width:0.26458335px;stroke-linecap:butt;stroke-linejoin:miter;stroke-opacity:1"
       x="134.21758"
       y="174.80598"
       id="text4180"><tspan
         sodipodi:role="line"
         id="tspan4182"
         x="134.21758"
         y="174.80598"
         style="font-style:normal;font-variant:normal;font-weight:normal;font-stretch:normal;font-size:17.99166679px;line-height:100%;font-family:Museo;-inkscape-font-specification:'Museo, Normal';text-align:start;writing-mode:lr-tb;text-anchor:start;fill:#ffffff;fill-opacity:1;stroke-width:0.26458335px">MUSIC</tspan></text>
  </g>
</svg>
