<?xml version="1.0" encoding="UTF-8" standalone="no"?>
<!-- Created with Inkscape (http://www.inkscape.org/) -->

<svg
   xmlns:dc="http://purl.org/dc/elements/1.1/"
   xmlns:cc="http://creativecommons.org/ns#"
   xmlns:rdf="http://www.w3.org/1999/02/22-rdf-syntax-ns#"
   xmlns:svg="http://www.w3.org/2000/svg"
   xmlns="http://www.w3.org/2000/svg"
   xmlns:sodipodi="http://sodipodi.sourceforge.net/DTD/sodipodi-0.dtd"
   xmlns:inkscape="http://www.inkscape.org/namespaces/inkscape"
   width="1000"
   height="1000"
   viewBox="0 0 264.58333 264.58334"
   id="svg4332"
   version="1.1"
   inkscape:version="0.91+devel r13925"
   sodipodi:docname="allan-holdsworth.svg"
   inkscape:export-filename="/Users/agarone/Documents/git/art/allan-holdsworth/allan-holdsworth.png"
   inkscape:export-xdpi="96"
   inkscape:export-ydpi="96">
  <defs
     id="defs4334" />
  <sodipodi:namedview
     id="base"
     pagecolor="#ffffff"
     bordercolor="#666666"
     borderopacity="1.0"
     inkscape:pageopacity="0.0"
     inkscape:pageshadow="2"
     inkscape:zoom="1.4"
     inkscape:cx="433.95098"
     inkscape:cy="531.99143"
     inkscape:document-units="px"
     inkscape:current-layer="layer2"
     showgrid="false"
     units="px"
     showguides="true"
     inkscape:guide-bbox="true"
     inkscape:window-width="1920"
     inkscape:window-height="1151"
     inkscape:window-x="0"
     inkscape:window-y="1"
     inkscape:window-maximized="1">
    <sodipodi:guide
       position="264.58333,0"
       orientation="1,0"
       id="guide4340"
       inkscape:label=""
       inkscape:color="rgb(0,0,255)" />
    <sodipodi:guide
       position="0,0"
       orientation="1,0"
       id="guide4342"
       inkscape:label=""
       inkscape:color="rgb(0,0,255)" />
    <sodipodi:guide
       position="0,0"
       orientation="0,1"
       id="guide4344"
       inkscape:label=""
       inkscape:color="rgb(0,0,255)" />
    <sodipodi:guide
       position="0,264.58333"
       orientation="0,1"
       id="guide4346"
       inkscape:label=""
       inkscape:color="rgb(0,0,255)" />
  </sodipodi:namedview>
  <metadata
     id="metadata4337">
    <rdf:RDF>
      <cc:Work
         rdf:about="">
        <dc:format>image/svg+xml</dc:format>
        <dc:type
           rdf:resource="http://purl.org/dc/dcmitype/StillImage" />
        <dc:title></dc:title>
      </cc:Work>
    </rdf:RDF>
  </metadata>
  <g
     inkscape:label="BG"
     inkscape:groupmode="layer"
     id="layer1"
     transform="translate(0,-32.41665)"
     style="display:none">
    <rect
       style="opacity:1;fill:#ffffff;fill-opacity:1;stroke:none;stroke-width:11.60810661;stroke-miterlimit:4;stroke-dasharray:none;stroke-opacity:1"
       id="rect5606"
       width="264.58334"
       height="264.58334"
       x="0"
       y="32.416653" />
  </g>
  <g
     inkscape:groupmode="layer"
     id="layer2"
     inkscape:label="Head"
     style="display:inline;opacity:1">
    <path
       style="fill:#3f3f3f;fill-opacity:1;fill-rule:evenodd;stroke:none;stroke-width:0.26458332px;stroke-linecap:butt;stroke-linejoin:miter;stroke-opacity:1"
       d="m 140.11605,113.10833 c 0,0 3.27405,12.16076 3.27405,13.56393 0,1.40316 -2.93997,21.71564 -6.01356,27.3283 -3.07361,5.61266 -16.97162,15.96936 -16.97162,15.96936 0,0 -14.2321,-31.33735 -13.69756,-32.13916 0.53454,-0.80181 33.40869,-24.72243 33.40869,-24.72243 z"
       id="path4992"
       inkscape:connector-curvature="0" />
    <path
       style="fill:#999999;fill-opacity:1;fill-rule:evenodd;stroke:none;stroke-width:0.26458332px;stroke-linecap:butt;stroke-linejoin:miter;stroke-opacity:1"
       d="m 117.9995,143.57705 c 0.53453,1.5368 2.67269,4.07586 4.40994,3.94223 1.73725,-0.13364 14.49937,-14.29892 15.90254,-17.37252 1.40316,-3.0736 2.93996,-8.95353 1.9377,-11.62623 -1.00226,-2.67269 -22.25018,25.05652 -22.25018,25.05652 z"
       id="path4994"
       inkscape:connector-curvature="0" />
    <path
       style="fill:#515151;fill-opacity:1;fill-rule:evenodd;stroke:none;stroke-width:0.26458332px;stroke-linecap:butt;stroke-linejoin:miter;stroke-opacity:1"
       d="m 93.343882,124.60092 c 1.536798,1.67043 11.024868,12.49485 14.766638,15.16754 3.74178,2.6727 6.74856,4.54358 10.7576,4.00905 4.00904,-0.53455 6.08038,-0.93545 8.01809,-2.2718 1.9377,-1.33634 7.88445,-10.22305 10.0226,-15.36799 2.13816,-5.14494 3.67496,-9.15398 4.2095,-15.16755 0.53454,-6.01356 -0.46772,-17.907058 -2.00452,-22.450639 -1.5368,-4.543581 -6.68174,-10.95805 -10.08943,-10.95805 -3.40768,0 -12.6953,-13.163026 -22.18337,-11.626225 -9.488064,1.5368 -13.363475,12.628486 -20.379298,18.976136 -7.015827,6.34765 -3.674957,14.967093 -2.739512,18.107508 0.935442,3.14042 0.601355,6.41447 3.80859,10.15624 3.207234,3.74178 4.476763,9.15399 5.813112,11.42578 z"
       id="path4950"
       inkscape:connector-curvature="0" />
    <path
       style="fill:#999999;fill-opacity:1;fill-rule:evenodd;stroke:none;stroke-width:0.26458332px;stroke-linecap:butt;stroke-linejoin:miter;stroke-opacity:1"
       d="m 89.936195,96.871704 c 0.06682,-1.336349 1.135895,-4.209497 3.073601,-4.209497 1.937702,0 3.708362,0.634767 4.142676,1.102487 0.434314,0.467723 1.169305,2.939965 1.670434,2.873148 0.501131,-0.06682 -0.768398,-6.514696 -2.104748,-7.851042 -1.336346,-1.336347 -4.710625,-0.400905 -5.512432,-1.670434 -0.801809,-1.269532 -0.334087,-5.479026 3.474503,-10.891234 3.80859,-5.412208 7.617181,-8.418989 9.688521,-8.418989 2.07134,0 3.74177,-0.668173 4.07586,1.670434 0.33409,2.33861 0.33409,5.87993 4.47676,8.485806 4.14268,2.605879 8.48581,3.942226 12.16077,2.204974 3.67495,-1.737251 4.40994,-2.605876 7.81763,1.33635 3.40769,3.942225 6.1472,6.481283 6.5481,11.225318 0.40091,4.744035 0.46773,7.951265 1.00226,9.354435 0.53454,1.40316 1.26954,6.61492 -0.60135,13.8312 -1.87089,7.21627 -2.40543,8.01808 -4.07586,11.5594 -1.67044,3.54132 -7.01583,11.55941 -8.75308,13.02939 -1.73725,1.46999 -10.69078,3.00679 -11.42577,0.93545 -0.73499,-2.07134 0.66817,-5.7463 0.60136,-6.21402 -0.0668,-0.46772 -4.00905,-0.93544 -3.94223,-2.40543 0.0668,-1.46998 0.66817,-2.40542 0.60136,-2.67269 -0.0668,-0.26727 -0.7684,-1.20271 -0.40091,-1.87089 0.3675,-0.66817 3.27405,-0.63476 3.24064,-1.06908 -0.0334,-0.43431 -1.70384,-1.20271 -3.27404,-1.00226 -1.57021,0.20045 -4.27632,0.7684 -4.64382,2.13816 -0.36749,1.36976 -1.13589,3.67496 -2.17156,3.4745 -1.03567,-0.20045 -1.33635,-2.63928 -0.46772,-3.97563 0.86862,-1.33635 1.40316,-1.67044 2.33861,-1.67044 0.93544,0 4.40994,0.13364 4.67721,-0.46772 0.26728,-0.60135 -0.36749,-3.0736 0,-3.4745 0.3675,-0.40091 1.93771,-0.40091 2.50566,0.56795 0.56794,0.96885 0.46772,2.3052 1.06907,2.17156 0.60136,-0.13363 0.50113,-2.13815 0.0334,-2.53906 -0.46772,-0.4009 -1.43657,-1.5368 -2.00452,-1.40316 -0.56795,0.13363 -2.37202,0.46772 -2.83974,-0.90204 -0.46772,-1.36975 -0.5478,-3.09327 -0.5478,-4.79417 0,-1.70089 0.66146,-1.55915 -0.75595,-6.18936 -1.41742,-4.6302 -4.77196,-14.882809 -5.05544,-14.788315 -0.28348,0.09449 0.99219,3.874256 -0.0945,3.82701 -1.08668,-0.04725 -1.27567,-0.236236 -1.51191,-1.13393 -0.23623,-0.897692 -0.61421,-3.071056 -0.85044,-3.02381 -0.23624,0.04725 0.75595,3.165552 0.33073,3.590775 -0.42523,0.425222 -4.252235,-0.47247 -6.142117,-0.661459 -1.889879,-0.188989 -6.32813,0.361342 -6.353238,-0.07919 z"
       id="path4952"
       inkscape:connector-curvature="0" />
    <path
       style="fill:#828282;fill-opacity:1;fill-rule:evenodd;stroke:none;stroke-width:0.26458332px;stroke-linecap:butt;stroke-linejoin:miter;stroke-opacity:1"
       d="m 100.44717,104.41592 c -0.23623,-0.18899 -1.88988,2.03162 -4.015994,2.03162 -2.126118,0 -4.819198,-0.99218 -5.055434,-0.75595 -0.236233,0.23624 -1.039434,1.84263 -1.275667,1.6064 -0.236236,-0.23623 -0.04725,-2.78757 0.14174,-3.77976 0.188989,-0.99219 2.362351,-2.78758 2.315104,-2.97656 -0.04725,-0.18899 -1.984375,-0.37798 -3.118305,0.61421 -1.133928,0.99218 -1.795386,3.16555 -2.315104,3.02381 -0.519716,-0.14175 -1.086681,2.69308 0.236236,3.827 1.322916,1.13393 3.260045,2.45685 3.260045,3.87426 0,1.41741 2.504093,3.59077 3.49628,2.83482 0.992188,-0.75595 2.078869,-2.55134 2.787574,-2.55134 0.708705,0 1.559152,0.56697 1.937128,0.28349 0.377976,-0.28349 4.157737,-10.11087 1.606397,-8.032 z"
       id="path4954"
       inkscape:connector-curvature="0" />
    <path
       style="fill:#828282;fill-opacity:1;fill-rule:evenodd;stroke:none;stroke-width:0.26458332px;stroke-linecap:butt;stroke-linejoin:miter;stroke-opacity:1"
       d="m 101.20312,127.14174 c 0.75596,0 4.1105,-5.29167 3.07106,-5.71689 -1.03943,-0.42522 -4.535713,2.3151 -4.488466,3.44903 0.04725,1.13393 0.661456,2.4096 1.417406,2.26786 z"
       id="path4956"
       inkscape:connector-curvature="0" />
    <path
       style="fill:#828282;fill-opacity:1;fill-rule:evenodd;stroke:none;stroke-width:0.26458332px;stroke-linecap:butt;stroke-linejoin:miter;stroke-opacity:1"
       d="m 94.683034,100.82515 c -0.14174,0.37797 0,2.19698 1.157552,2.55134 1.157552,0.35435 2.929316,0.14174 3.212798,-1.18118 0.283483,-1.32292 -0.826823,-1.93713 -0.54334,-1.98437 0.283482,-0.0472 2.645836,0 2.504096,0.35435 -0.14175,0.35435 -0.87408,0.51972 -0.77958,0.68508 0.0945,0.16536 0.85045,-0.0709 0.85045,0.23624 0,0.3071 -0.23624,2.38597 -3.07106,3.18917 -2.834822,0.8032 -5.433406,-0.73233 -5.433406,-1.18118 0,-0.44884 0.401597,-1.86625 0.779573,-2.17336 0.377979,-0.30711 0.921319,-0.61421 1.322917,-0.49609 z"
       id="path4958"
       inkscape:connector-curvature="0" />
    <path
       style="fill:#282828;fill-opacity:1;fill-rule:evenodd;stroke:none;stroke-width:0.26458332px;stroke-linecap:butt;stroke-linejoin:miter;stroke-opacity:1"
       d="m 102.10082,128.03943 c 0.56696,0.0472 3.40178,-6.61458 4.44122,-6.3311 1.03943,0.28348 0.56696,3.44903 2.17336,3.44903 1.6064,0 2.78757,0.0473 2.78757,-1.13392 0,-1.18118 0.28349,-2.45685 -0.7087,-2.97657 -0.99219,-0.51971 -3.16555,-1.70089 -3.16555,-2.50409 0,-0.8032 0.70871,-3.82701 0.18899,-3.77976 -0.51972,0.0473 -1.13393,4.34673 -1.7009,5.81138 -0.56696,1.46466 -4.06324,6.99256 -4.01599,7.46503 z"
       id="path4962"
       inkscape:connector-curvature="0" />
    <path
       style="fill:#282828;fill-opacity:1;fill-rule:evenodd;stroke:none;stroke-width:0.26458332px;stroke-linecap:butt;stroke-linejoin:miter;stroke-opacity:1"
       d="m 102.19531,109.18787 c 0.70871,0 1.65365,-4.15774 2.64583,-4.15774 0.99219,0 2.26786,0.85045 2.26786,0.37798 0,-0.47247 -1.32291,-5.33892 -2.36235,-5.953125 -1.03943,-0.614212 -8.40997,-1.937129 -9.96912,-1.937129 -1.559153,0 -6.567337,-0.519718 -7.559524,0.614212 -0.992188,1.133927 -1.417413,5.008182 -0.803201,5.008182 0.614211,0 1.984375,-2.64583 3.590774,-3.1183 1.606399,-0.472472 3.260045,-0.141743 3.212798,0.28348 -0.04725,0.42522 -1.795386,1.74814 -1.984375,2.78758 -0.188989,1.03943 -0.614211,2.40959 -0.236236,2.3151 0.377976,-0.0945 1.748142,-0.8032 1.559153,-1.03944 -0.188989,-0.23623 -0.614212,-0.94494 -0.236236,-1.79538 0.377976,-0.85045 1.606399,-2.5041 2.267857,-2.12612 0.661459,0.37798 0.04725,1.18118 0.425223,1.84263 0.377978,0.66146 1.27567,1.46466 2.220611,1.08669 0.944941,-0.37798 1.41741,-0.8032 1.370163,-1.18118 -0.04725,-0.37797 -1.181174,-0.18899 -1.181174,-0.61421 0,-0.42522 1.086681,-0.51972 0.850445,-0.75595 -0.236233,-0.23624 -0.661458,-0.75596 -0.14174,-0.85045 0.519716,-0.09449 3.118302,-0.04725 3.212802,0.33073 0.0945,0.37798 0.16744,1.6611 -0.0664,2.22905 -0.23386,0.56794 -1.00226,1.36975 -0.93545,1.40316 0.0668,0.0334 0.98556,-0.45102 1.31965,-0.15034 0.33408,0.30068 -0.92249,5.73972 0.53266,5.40057 z"
       id="path4964"
       inkscape:connector-curvature="0" />
    <path
       style="fill:#6e6e6e;fill-opacity:0.47027031;fill-rule:evenodd;stroke:none;stroke-width:0.26458332px;stroke-linecap:butt;stroke-linejoin:miter;stroke-opacity:1"
       d="m 108.38467,128.44103 c 0,-0.37797 2.90569,-1.81901 3.80339,-1.81901 0.89769,0 3.04743,0.30711 3.59077,0.21261 0.54334,-0.0945 2.64583,-1.48828 3.56715,-1.77176 0.92132,-0.28348 4.77195,-0.92132 4.8192,-0.73233 0.0472,0.18899 -0.70871,0.54334 -1.13393,1.39379 -0.42522,0.85045 -3.02381,5.03181 -6.92169,5.10268 -3.89788,0.0709 -5.71689,-1.74814 -6.54371,-2.22061 -0.82683,-0.47247 -0.75596,-0.18899 -1.18118,-0.16537 z"
       id="path4966"
       inkscape:connector-curvature="0" />
    <path
       style="fill:#1c1c1c;fill-opacity:0.47027031;fill-rule:evenodd;stroke:none;stroke-width:0.26458332px;stroke-linecap:butt;stroke-linejoin:miter;stroke-opacity:1"
       d="m 108.57366,128.34654 c 0.14174,-0.21261 2.57496,-1.13393 3.26004,-1.13393 0.68509,0 3.3073,0.16536 4.016,0.0709 0.70871,-0.0945 2.78758,-1.6064 3.6144,-1.81901 0.82682,-0.21261 4.29948,-1.2048 4.29948,-1.01581 0,0.18899 -3.54353,0.87407 -4.29948,1.22842 -0.75595,0.35435 -3.11831,1.84263 -3.5199,1.88988 -0.4016,0.0473 -3.42541,-0.14174 -4.06325,-0.0945 -0.63783,0.0472 -2.88207,0.75595 -3.30729,0.87407 z"
       id="path4968"
       inkscape:connector-curvature="0" />
    <path
       style="fill:#282828;fill-opacity:1;fill-rule:evenodd;stroke:none;stroke-width:0.26458332px;stroke-linecap:butt;stroke-linejoin:miter;stroke-opacity:1"
       d="m 119.5363,113.91014 c 0,-1.20272 7.81763,3.4745 7.61718,3.80859 -0.20046,0.33408 -4.40995,-3.27405 -7.61718,-3.80859 z"
       id="path4970"
       inkscape:connector-curvature="0" />
    <path
       style="fill:#282828;fill-opacity:1;fill-rule:evenodd;stroke:none;stroke-width:0.26458332px;stroke-linecap:butt;stroke-linejoin:miter;stroke-opacity:1"
       d="m 125.54986,111.43789 c 0,-0.53454 0.56795,-1.03567 0.83522,-0.50113 0.26727,0.53454 -0.80181,0.80181 -0.83522,0.50113 z"
       id="path4972"
       inkscape:connector-curvature="0" />
    <path
       style="fill:#282828;fill-opacity:1;fill-rule:evenodd;stroke:none;stroke-width:0.26458332px;stroke-linecap:butt;stroke-linejoin:miter;stroke-opacity:1"
       d="m 106.23964,91.526314 c 0.50113,-0.434314 2.3386,4.844259 3.4745,4.075858 1.1359,-0.7684 1.9043,-2.839738 3.17382,-3.407685 1.26954,-0.567949 8.38559,-3.775183 9.28762,-3.775183 0.90204,0 6.84878,0.133636 6.81537,1.169305 -0.0334,1.035669 -4.14267,-0.133636 -5.81311,0.501131 -1.67043,0.634765 -4.20949,1.870885 -3.54132,2.23838 0.66818,0.367496 0.7684,0.534541 1.1693,0.501132 0.40091,-0.03341 1.67044,-0.634765 3.30747,-0.367496 1.63702,0.267269 3.17382,1.269529 3.00678,1.57021 -0.16705,0.300677 -0.90204,0.23386 -1.06908,0.167042 -0.16704,-0.06682 -0.80181,-1.102487 -2.3052,-1.269529 -1.50339,-0.167045 -2.77292,0.100224 -2.57247,0.300677 0.20045,0.200451 1.26953,-0.300677 2.03793,1.169305 0.7684,1.46998 -0.66817,2.605876 -1.1693,2.80633 -0.50113,0.200451 -2.47225,0.03341 -3.14042,-1.33635 -0.66817,-1.369756 0.66817,-1.603615 0.56795,-1.870884 -0.10023,-0.267272 -0.80181,-0.56795 -1.77066,0.167042 -0.96886,0.734991 -2.40543,1.670436 -2.6727,2.639287 -0.26727,0.968851 -0.43431,2.071338 -0.66817,2.071338 -0.23386,0 -0.0334,-1.870887 0.30068,-2.53906 0.33408,-0.668174 1.43657,-1.369756 1.36975,-1.570207 -0.0668,-0.200454 -5.71288,3.073598 -6.04697,2.739512 -0.33409,-0.334087 -3.34087,-4.34313 -3.74177,-5.980155 z"
       id="path4974"
       inkscape:connector-curvature="0" />
  </g>
  <g
     inkscape:groupmode="layer"
     id="layer4"
     inkscape:label="Shirt"
     style="display:inline">
    <path
       style="fill:#717171;fill-opacity:1;fill-rule:evenodd;stroke:none;stroke-width:0.26458332px;stroke-linecap:butt;stroke-linejoin:miter;stroke-opacity:1"
       d="m 121.74127,166.36178 c 2.53906,-1.73725 7.48355,-2.6727 10.69078,-7.21628 3.20723,-4.54358 6.94901,-12.42803 7.75082,-16.30344 0.8018,-3.87541 2.40543,-12.42803 2.40543,-16.30344 0,-3.87541 -1.60362,-8.15172 -0.26727,-7.75082 1.33634,0.4009 7.88444,6.81538 7.08264,14.9671 -0.80181,8.15172 -10.55715,18.44159 -10.95806,20.04521 -0.4009,1.60362 4.21194,-6.02354 4.47921,-4.95446 0.26727,1.06908 9.94155,-10.18032 9.94155,-7.10672 0,3.0736 -13.61895,24.62285 -13.88622,36.11544 -0.26727,11.49259 -3.0736,53.18664 -9.35443,53.98844 -6.28083,0.80181 -29.13238,1.20272 -29.13238,-6.68173 0,-7.88445 6.28083,-47.30671 6.28083,-54.52299 0,-7.21628 2.13816,-20.84702 1.20272,-22.18337 -0.93545,-1.33634 -3.4745,-1.33634 -6.41447,-3.34087 -2.939965,-2.00452 -9.70555,-3.74177 -9.70555,-5.74629 0,-2.00452 6.231044,-5.61266 7.567394,-4.94449 1.336346,0.66818 8.885446,11.00871 10.690776,13.36348 3.07361,4.00904 4.67722,6.1472 5.87993,8.55263 1.20271,2.40542 3.60814,9.88896 5.7463,10.0226 z"
       id="path5003"
       inkscape:connector-curvature="0"
       sodipodi:nodetypes="cssssssssssssssssssc" />
    <path
       style="fill:#000000;fill-opacity:1;fill-rule:evenodd;stroke:none;stroke-width:0.26458332px;stroke-linecap:butt;stroke-linejoin:miter;stroke-opacity:1"
       d="m 134.97111,159.01187 c 0,-1.60362 3.4745,-5.61266 4.94449,-9.08717 1.46998,-3.4745 6.41446,-18.57523 6.1472,-21.24792 -0.26728,-2.6727 -2.80634,-9.35444 -0.66818,-10.42351 2.13816,-1.06908 10.15624,3.0736 19.37704,6.14719 9.2208,3.0736 26.05878,9.2208 31.67144,11.22533 5.61266,2.00452 22.31701,9.35443 26.72695,15.7689 4.40995,6.41447 3.60814,15.7689 4.54359,19.51067 0.93544,3.74178 8.28535,12.82894 8.41898,17.77343 0.13364,4.94448 -6.14719,19.64431 -5.21175,20.71338 0.93544,1.06908 5.21175,2.53906 7.75081,5.34539 2.53907,2.80633 3.87541,5.34539 3.74178,6.94901 -0.13364,1.60362 -5.47903,4.27631 -4.14268,5.47903 1.33635,1.20271 3.34087,-2.80633 3.87541,-1.33635 0.53454,1.46998 2.67269,5.21176 2.67269,7.21628 0,2.00452 -1.87088,1.20271 -1.20271,2.67269 0.66818,1.46998 0.80181,0.80181 2.40543,2.27179 1.60361,1.46998 2.67269,5.87993 2.00452,6.94901 -0.66818,1.06908 -1.87089,-0.93544 -1.87089,0.26727 0,1.20271 2.6727,4.27631 2.6727,6.5481 0,2.27179 -3.87541,5.07812 -2.40543,5.87993 1.46998,0.80181 4.54358,6.94901 3.20724,6.94901 l -170.25069,0 c 0,0 0.400902,-20.31248 0.400902,-23.38608 0,-3.0736 0.935445,-7.08265 0.53454,-8.15172 -0.400905,-1.06908 -0.133636,-5.87993 -1.870887,-4.27632 -1.737252,1.60362 -1.069078,4.14268 -2.539061,5.61266 -1.469983,1.46999 0.400905,3.47451 -0.668173,4.14268 -1.069078,0.66818 -2.939966,0.53454 -3.741772,2.13816 -0.801809,1.60361 -3.608139,2.80633 -3.608139,5.87993 0,3.0736 0.133633,6.949 -2.672696,10.28987 -2.80633,3.34087 -6.548104,7.75082 -6.548104,7.75082 l -23.118813,0 c 0,0 -2.539061,-1.60362 -2.271792,-4.00904 0.267269,-2.40543 -1.870887,-5.47903 -1.737251,-9.35444 0.133636,-3.8754 2.672696,-8.81989 2.271792,-9.6217 -0.400905,-0.80181 -2.138156,-2.27179 -1.469983,-6.28083 0.668173,-4.00905 3.875408,-6.01357 3.875408,-8.15172 0,-2.13816 -1.737252,-5.07812 -1.737252,-6.54811 0,-1.46998 2.539061,0.53454 3.875408,-1.46998 1.336347,-2.00452 0.133635,-6.01356 1.603618,-8.55262 1.46998,-2.53906 6.013564,-2.93997 6.013564,-4.94449 0,-2.00452 -0.267269,-3.0736 0.935442,-4.00904 1.202714,-0.93545 4.810853,-5.34539 4.810853,-7.48355 0,-2.13816 -0.935445,-5.61266 -0.133636,-8.41899 0.801809,-2.80633 7.216277,-8.28535 6.949008,-10.69078 -0.267268,-2.40543 -2.53906,-1.20271 -2.138156,-6.41447 0.400905,-5.21176 3.207235,-7.88445 3.741772,-10.69078 0.534541,-2.80633 3.207234,-12.02713 3.875408,-14.16528 0.668176,-2.13816 8.018087,-8.95353 18.040694,-11.49259 10.022607,-2.53907 16.169806,-2.53907 17.506153,-1.46999 1.336353,1.06908 7.483543,6.54811 8.018083,8.8199 0.53454,2.27179 6.1472,12.16077 5.34539,12.16077 -0.8018,0 -8.55262,-12.69531 -10.0226,-13.36349 -1.46999,-0.66817 -6.414471,-2.53906 -6.949012,-1.33634 -0.534537,1.20271 -2.00452,2.00452 -1.336347,3.34087 0.668174,1.33634 13.764379,6.28083 13.898019,8.28535 0.13363,2.00452 -1.33635,8.95353 -0.93545,15.368 0.40091,6.41447 0.26727,8.15172 -0.80181,14.83346 -1.06907,6.68173 -2.80633,28.4642 -2.27178,34.2105 0.53453,5.74629 7.61717,17.90706 8.68625,18.70886 1.06908,0.80181 19.64431,-6.1472 20.44612,-6.1472 0.80181,0 3.0736,-20.98065 3.20724,-27.12785 0.13363,-6.1472 0.8018,-20.71339 1.60361,-25.25697 0.80181,-4.54359 7.48355,-25.65788 7.48355,-25.65788 0,0 -10.69078,12.16077 -10.95805,11.35896 z"
       id="path5005"
       inkscape:connector-curvature="0"
       sodipodi:nodetypes="cssssssssssssssssssssscssssssssccssssssssssssssssssssssssssssssscc" />
  </g>
  <g
     inkscape:groupmode="layer"
     id="layer5"
     inkscape:label="Guitar"
     style="display:inline">
    <path
       style="fill:#2b2b2b;fill-opacity:1;fill-rule:evenodd;stroke:none;stroke-width:0.26458332px;stroke-linecap:butt;stroke-linejoin:miter;stroke-opacity:1"
       d="m 65.347399,264.58333 c 0,0 7.082642,-21.11429 13.630746,-24.18789 6.548102,-3.0736 22.049735,-8.41899 25.123335,-10.42351 3.0736,-2.00453 11.09169,-21.64883 16.83798,-28.33057 5.7463,-6.68174 8.01808,-9.35444 11.75986,-9.35444 3.74177,0 13.49711,3.0736 13.89801,4.67722 0.40091,1.60362 1.87089,8.01809 1.06908,12.56167 -0.80181,4.54358 -5.21175,16.97161 -4.94448,24.58879 0.26727,7.61719 4.27631,14.03165 3.4745,15.50164 -0.80181,1.46998 -8.15172,7.48354 -8.81989,11.22532 -0.66818,3.74177 0.53453,3.74177 0.53453,3.74177 z"
       id="path5008"
       inkscape:connector-curvature="0" />
    <path
       style="fill:#3f3f3f;fill-opacity:1;fill-rule:evenodd;stroke:none;stroke-width:0.26458332px;stroke-linecap:butt;stroke-linejoin:miter;stroke-opacity:1"
       d="m 132.29841,221.4193 c 0.26727,-2.40542 3.20724,-11.75986 3.20724,-14.03165 0,-2.27179 -0.53454,-6.41447 1.20271,-6.41447 1.73725,0 10.28988,-0.66817 10.55715,0.40091 0.26727,1.06907 0.53454,4.94448 0.53454,4.94448 z"
       id="path5010"
       inkscape:connector-curvature="0" />
    <path
       style="fill:#000000;fill-opacity:1;fill-rule:evenodd;stroke:none;stroke-width:0.26458332px;stroke-linecap:butt;stroke-linejoin:miter;stroke-opacity:1"
       d="m 116.66315,237.72274 97.15247,-102.09695 2.53906,13.89801 -96.8852,105.57146 c 0,0 -2.53906,-3.74177 -2.80633,-17.37252 z"
       id="path5012"
       inkscape:connector-curvature="0" />
    <path
       style="fill:none;fill-rule:evenodd;stroke:#888888;stroke-width:0.26458332;stroke-linecap:round;stroke-linejoin:miter;stroke-miterlimit:4;stroke-dasharray:none;stroke-opacity:1"
       d="m 117.66541,237.45547 c 0,0 -0.13364,4.47677 0.46772,8.55263 0.60136,4.07586 1.87089,8.21854 1.87089,8.21854"
       id="path5026"
       inkscape:connector-curvature="0" />
    <path
       inkscape:connector-curvature="0"
       id="path5028"
       d="m 119.73675,235.51777 c 0,0 -0.13364,4.47677 0.46772,8.55263 0.60136,4.07586 1.87089,8.21854 1.87089,8.21854"
       style="fill:none;fill-rule:evenodd;stroke:#888888;stroke-width:0.26458332;stroke-linecap:round;stroke-linejoin:miter;stroke-miterlimit:4;stroke-dasharray:none;stroke-opacity:1" />
    <path
       style="fill:none;fill-rule:evenodd;stroke:#888888;stroke-width:0.26458332;stroke-linecap:round;stroke-linejoin:miter;stroke-miterlimit:4;stroke-dasharray:none;stroke-opacity:1"
       d="m 121.87491,233.11234 c 0,0 -0.13364,4.47677 0.46772,8.55263 0.60136,4.07586 1.87089,8.21854 1.87089,8.21854"
       id="path5030"
       inkscape:connector-curvature="0" />
    <path
       inkscape:connector-curvature="0"
       id="path5032"
       d="m 121.87491,233.11234 c 0,0 -0.13364,4.47677 0.46772,8.55263 0.60136,4.07586 1.87089,8.21854 1.87089,8.21854"
       style="fill:none;fill-rule:evenodd;stroke:#888888;stroke-width:0.26458332;stroke-linecap:round;stroke-linejoin:miter;stroke-miterlimit:4;stroke-dasharray:none;stroke-opacity:1" />
    <path
       style="fill:none;fill-rule:evenodd;stroke:#888888;stroke-width:0.26458332;stroke-linecap:round;stroke-linejoin:miter;stroke-miterlimit:4;stroke-dasharray:none;stroke-opacity:1"
       d="m 124.01307,230.50646 c 0,0 -0.13364,4.47677 0.46772,8.55263 0.60136,4.07586 1.87089,8.21854 1.87089,8.21854"
       id="path5034"
       inkscape:connector-curvature="0" />
    <path
       inkscape:connector-curvature="0"
       id="path5036"
       d="m 126.01759,228.03422 c 0,0 -0.13364,4.47677 0.46772,8.55263 0.60136,4.07586 1.87089,8.21854 1.87089,8.21854"
       style="fill:none;fill-rule:evenodd;stroke:#888888;stroke-width:0.26458332;stroke-linecap:round;stroke-linejoin:miter;stroke-miterlimit:4;stroke-dasharray:none;stroke-opacity:1" />
    <path
       style="fill:none;fill-rule:evenodd;stroke:#888888;stroke-width:0.26458332;stroke-linecap:round;stroke-linejoin:miter;stroke-miterlimit:4;stroke-dasharray:none;stroke-opacity:1"
       d="m 128.62347,225.49516 c 0,0 -0.13364,4.47677 0.46772,8.55263 0.60136,4.07586 1.87089,8.21854 1.87089,8.21854"
       id="path5038"
       inkscape:connector-curvature="0" />
    <path
       inkscape:connector-curvature="0"
       id="path5040"
       d="m 131.56343,222.82246 c 0,0 -0.13364,4.47677 0.46772,8.55263 0.60136,4.07586 1.87089,8.21854 1.87089,8.21854"
       style="fill:none;fill-rule:evenodd;stroke:#888888;stroke-width:0.26458332;stroke-linecap:round;stroke-linejoin:miter;stroke-miterlimit:4;stroke-dasharray:none;stroke-opacity:1" />
    <path
       style="fill:none;fill-rule:evenodd;stroke:#888888;stroke-width:0.26458332;stroke-linecap:round;stroke-linejoin:miter;stroke-miterlimit:4;stroke-dasharray:none;stroke-opacity:1"
       d="m 134.57021,219.81568 c 0,0 -0.13364,4.47677 0.46772,8.55263 0.60136,4.07586 1.87089,8.21854 1.87089,8.21854"
       id="path5042"
       inkscape:connector-curvature="0" />
    <path
       inkscape:connector-curvature="0"
       id="path5044"
       d="m 137.77744,216.20754 c 0,0 -0.13364,4.47677 0.46772,8.55263 0.60136,4.07586 1.87089,8.21854 1.87089,8.21854"
       style="fill:none;fill-rule:evenodd;stroke:#888888;stroke-width:0.26458332;stroke-linecap:round;stroke-linejoin:miter;stroke-miterlimit:4;stroke-dasharray:none;stroke-opacity:1" />
    <path
       style="fill:none;fill-rule:evenodd;stroke:#888888;stroke-width:0.26458332;stroke-linecap:round;stroke-linejoin:miter;stroke-miterlimit:4;stroke-dasharray:none;stroke-opacity:1"
       d="m 140.98467,212.86667 c 0,0 -0.13364,4.47677 0.46772,8.55263 0.60136,4.07586 1.87089,8.21854 1.87089,8.21854"
       id="path5046"
       inkscape:connector-curvature="0" />
    <path
       inkscape:connector-curvature="0"
       id="path5048"
       d="m 144.32554,209.05808 c 0,0 -0.13364,4.47677 0.46772,8.55263 0.60136,4.07586 1.87089,8.21854 1.87089,8.21854"
       style="fill:none;fill-rule:evenodd;stroke:#888888;stroke-width:0.26458332;stroke-linecap:round;stroke-linejoin:miter;stroke-miterlimit:4;stroke-dasharray:none;stroke-opacity:1" />
    <path
       style="fill:none;fill-rule:evenodd;stroke:#888888;stroke-width:0.26458332;stroke-linecap:round;stroke-linejoin:miter;stroke-miterlimit:4;stroke-dasharray:none;stroke-opacity:1"
       d="m 148.46822,205.04904 c 0,0 -0.13364,4.47677 0.46772,8.55263 0.60136,4.07586 1.87089,8.21854 1.87089,8.21854"
       id="path5050"
       inkscape:connector-curvature="0" />
    <path
       inkscape:connector-curvature="0"
       id="path5052"
       d="m 152.47727,200.6391 c 0,0 -0.13364,4.47677 0.46772,8.55263 0.60136,4.07586 1.87089,8.21854 1.87089,8.21854"
       style="fill:none;fill-rule:evenodd;stroke:#888888;stroke-width:0.26458332;stroke-linecap:round;stroke-linejoin:miter;stroke-miterlimit:4;stroke-dasharray:none;stroke-opacity:1" />
    <path
       style="fill:none;fill-rule:evenodd;stroke:#888888;stroke-width:0.26458332;stroke-linecap:round;stroke-linejoin:miter;stroke-miterlimit:4;stroke-dasharray:none;stroke-opacity:1"
       d="m 156.95403,195.82825 c 0,0 -0.13364,4.47677 0.46772,8.55263 0.60136,4.07586 1.87089,8.21854 1.87089,8.21854"
       id="path5054"
       inkscape:connector-curvature="0" />
    <path
       inkscape:connector-curvature="0"
       id="path5056"
       d="m 161.36398,191.28467 c 0,0 -0.13364,4.47677 0.46772,8.55263 0.60136,4.07586 1.87089,8.21854 1.87089,8.21854"
       style="fill:none;fill-rule:evenodd;stroke:#888888;stroke-width:0.26458332;stroke-linecap:round;stroke-linejoin:miter;stroke-miterlimit:4;stroke-dasharray:none;stroke-opacity:1" />
    <path
       style="fill:none;fill-rule:evenodd;stroke:#888888;stroke-width:0.26458332;stroke-linecap:round;stroke-linejoin:miter;stroke-miterlimit:4;stroke-dasharray:none;stroke-opacity:1"
       d="m 166.0412,186.07291 c 0,0 -0.13364,4.47677 0.46772,8.55263 0.60136,4.07586 1.87089,8.21854 1.87089,8.21854"
       id="path5058"
       inkscape:connector-curvature="0" />
    <path
       inkscape:connector-curvature="0"
       id="path5060"
       d="m 171.38659,180.19298 c 0,0 -0.13364,4.47677 0.46772,8.55263 0.60136,4.07586 1.87089,8.21854 1.87089,8.21854"
       style="fill:none;fill-rule:evenodd;stroke:#888888;stroke-width:0.26458332;stroke-linecap:round;stroke-linejoin:miter;stroke-miterlimit:4;stroke-dasharray:none;stroke-opacity:1" />
    <path
       style="fill:none;fill-rule:evenodd;stroke:#888888;stroke-width:0.26458332;stroke-linecap:round;stroke-linejoin:miter;stroke-miterlimit:4;stroke-dasharray:none;stroke-opacity:1"
       d="m 176.7988,174.31305 c 0,0 -0.13364,4.47677 0.46772,8.55263 0.60136,4.07586 1.87089,8.21854 1.87089,8.21854"
       id="path5062"
       inkscape:connector-curvature="0" />
    <path
       inkscape:connector-curvature="0"
       id="path5064"
       d="m 182.61191,168.03222 c 0,0 -0.13364,4.47677 0.46772,8.55263 0.60136,4.07586 1.87089,8.21854 1.87089,8.21854"
       style="fill:none;fill-rule:evenodd;stroke:#888888;stroke-width:0.26458332;stroke-linecap:round;stroke-linejoin:miter;stroke-miterlimit:4;stroke-dasharray:none;stroke-opacity:1" />
    <path
       style="fill:none;fill-rule:evenodd;stroke:#888888;stroke-width:0.26458332;stroke-linecap:round;stroke-linejoin:miter;stroke-miterlimit:4;stroke-dasharray:none;stroke-opacity:1"
       d="m 188.95956,161.4173 c 0,0 -0.13364,4.47677 0.46772,8.55263 0.60136,4.07586 1.87089,8.21854 1.87089,8.21854"
       id="path5066"
       inkscape:connector-curvature="0" />
    <path
       inkscape:connector-curvature="0"
       id="path5068"
       d="m 195.90857,153.59967 c 0,0 -0.13364,4.47677 0.46772,8.55263 0.60136,4.07586 1.87089,8.21854 1.87089,8.21854"
       style="fill:none;fill-rule:evenodd;stroke:#888888;stroke-width:0.26458332;stroke-linecap:round;stroke-linejoin:miter;stroke-miterlimit:4;stroke-dasharray:none;stroke-opacity:1" />
    <path
       style="fill:none;fill-rule:evenodd;stroke:#888888;stroke-width:0.26458332;stroke-linecap:round;stroke-linejoin:miter;stroke-miterlimit:4;stroke-dasharray:none;stroke-opacity:1"
       d="m 202.9244,146.58384 c 0,0 -0.13364,4.47677 0.46772,8.55263 0.60136,4.07586 1.87089,8.21854 1.87089,8.21854"
       id="path5070"
       inkscape:connector-curvature="0" />
    <path
       inkscape:connector-curvature="0"
       id="path5072"
       d="m 211.13419,138.22273 c 0,0 -0.13464,4.24967 0.47124,8.11877 0.60588,3.86911 1.88495,7.80164 1.88495,7.80164"
       style="fill:none;fill-rule:evenodd;stroke:#888888;stroke-width:0.77625626;stroke-linecap:round;stroke-linejoin:miter;stroke-miterlimit:4;stroke-dasharray:none;stroke-opacity:1" />
    <path
       style="fill:none;fill-rule:evenodd;stroke:#a4a4a4;stroke-width:0.26458332px;stroke-linecap:butt;stroke-linejoin:miter;stroke-opacity:1"
       d="M 213.41472,150.99378 108.51143,264.58333"
       id="path5014"
       inkscape:connector-curvature="0" />
    <path
       style="fill:none;fill-rule:evenodd;stroke:#a4a4a4;stroke-width:0.26458332px;stroke-linecap:butt;stroke-linejoin:miter;stroke-opacity:1"
       d="M 212.67972,149.72425 105.50465,264.58333"
       id="path5016"
       inkscape:connector-curvature="0" />
    <path
       style="fill:none;fill-rule:evenodd;stroke:#a4a4a4;stroke-width:0.26458332px;stroke-linecap:butt;stroke-linejoin:miter;stroke-opacity:1"
       d="M 211.94473,147.51928 102.56468,264.58333"
       id="path5018"
       inkscape:connector-curvature="0" />
    <path
       style="fill:none;fill-rule:evenodd;stroke:#a4a4a4;stroke-width:0.26458332px;stroke-linecap:butt;stroke-linejoin:miter;stroke-opacity:1"
       d="M 211.67746,145.18067 99.691533,264.58333"
       id="path5020"
       inkscape:connector-curvature="0" />
    <path
       style="fill:none;fill-rule:evenodd;stroke:#a4a4a4;stroke-width:0.26458332px;stroke-linecap:butt;stroke-linejoin:miter;stroke-opacity:1"
       d="M 211.00929,142.64161 96.016576,264.58333"
       id="path5022"
       inkscape:connector-curvature="0" />
    <path
       style="fill:none;fill-rule:evenodd;stroke:#a4a4a4;stroke-width:0.26458332px;stroke-linecap:butt;stroke-linejoin:miter;stroke-opacity:1"
       d="M 210.74202,140.57027 92.074351,264.58333"
       id="path5024"
       inkscape:connector-curvature="0" />
    <circle
       style="fill:#212121;fill-opacity:1;fill-rule:evenodd;stroke:none;stroke-width:0.26458332px;stroke-linecap:butt;stroke-linejoin:miter;stroke-opacity:1"
       id="path5074"
       cx="143.25298"
       cy="203.82365"
       r="2.4568453" />
    <path
       style="display:inline;fill:#626262;fill-opacity:1;fill-rule:evenodd;stroke:none;stroke-width:0.26458332px;stroke-linecap:butt;stroke-linejoin:miter;stroke-opacity:1"
       d="m 213.68198,136.09351 c 0,0 -0.46772,3.40768 0.40091,7.41673 0.86863,4.00904 2.07134,8.88671 1.87089,8.88671 -0.20046,0 -61.00427,65.61467 -61.00427,65.61467 l 1.87088,0.4009 60.87064,-65.81512 c 0,0 1.26953,-4.00904 0.13363,-9.15398 -1.13589,-5.14494 -1.87088,-7.48355 -4.14268,-7.34991 z"
       id="path5091"
       inkscape:connector-curvature="0" />
    <path
       style="fill:#626262;fill-opacity:1;fill-rule:evenodd;stroke:none;stroke-width:0.26458332px;stroke-linecap:butt;stroke-linejoin:miter;stroke-opacity:1"
       d="m 119.72396,254.94494 35.6715,-37.2779 1.51191,0.85044 c 0,0 -34.82106,36.94717 -35.19904,36.94717 -0.37797,0 -2.03162,-0.23623 -1.98437,-0.51971 z"
       id="path5094"
       inkscape:connector-curvature="0" />
  </g>
  <g
     inkscape:groupmode="layer"
     id="layer3"
     inkscape:label="Hair">
    <path
       style="fill:#171717;fill-opacity:1;fill-rule:evenodd;stroke:none;stroke-width:0.26458332px;stroke-linecap:butt;stroke-linejoin:miter;stroke-opacity:1"
       d="m 101.02788,70.14475 c -3.608139,1.069078 -4.677217,10.557148 -8.285356,16.036174 -3.608139,5.479023 -4.81085,5.746294 -4.81085,5.746294 0,0 2.405425,-2.939965 1.603616,-3.207236 -0.801807,-0.267269 -5.942173,4.802524 -6.681737,7.349913 -0.601356,2.071338 1.813113,8.157035 2.143842,10.802875 0.330729,2.64583 0.803198,4.15774 2.173364,5.81138 1.370163,1.65365 5.905878,7.79576 6.094865,9.49665 0.188989,1.70089 7.654016,10.91406 9.496656,12.42597 1.84263,1.5119 4.48846,4.20498 3.96875,4.39397 -0.51972,0.18899 -7.606775,-2.12611 -12.331476,-2.50409 -4.724704,-0.37798 -14.032368,-0.33073 -16.772694,-3.07106 -2.740329,-2.74032 -5.433409,-7.60677 -5.338913,-9.73288 0.09449,-2.12612 0.708705,-1.55916 -0.850448,-4.06325 -1.559152,-2.50409 -8.362722,-13.60714 -8.268229,-14.74107 0.09449,-1.13393 3.732514,-7.323287 3.732514,-8.929686 0,-1.606399 -0.236233,-5.811385 0.141743,-7.134302 0.377976,-1.322917 2.031621,-2.976562 2.031621,-5.575146 0,-2.598587 -0.330729,-6.567337 0,-8.882441 0.330729,-2.315104 1.795386,-10.158111 4.204986,-12.709451 2.409598,-2.551337 3.732514,-2.69308 5.811382,-6.567336 2.078869,-3.874254 9.591146,-10.158109 14.45759,-10.299851 4.866444,-0.14174 5.764136,1.842635 7.748514,1.842635 1.98437,0 2.97656,-0.04725 4.20498,-0.755952 1.22843,-0.708707 4.63021,-3.543527 8.59896,-3.354541 3.96875,0.18899 17.85938,10.299854 19.18229,12.000746 1.32292,1.700893 3.96875,9.732886 5.6224,11.717261 1.65364,1.984375 6.80357,7.512277 7.98474,9.591146 1.18118,2.078868 1.37017,6.945312 3.02381,6.992559 1.65365,0.04725 1.6064,-0.708705 1.6064,-0.708705 0,0 0.18899,1.13393 -0.61421,1.842635 -0.8032,0.708705 -1.27567,0.519715 -0.89769,0.94494 0.37798,0.425223 1.08668,0.566963 1.70089,0.28348 0.61421,-0.28348 0.85045,-1.08668 0.85045,-1.08668 0,0 0.42522,1.559152 -0.8032,1.748139 -1.22842,0.188989 -1.74814,-0.236234 -1.74814,0.236236 0,0.472471 3.49628,3.921503 4.63021,7.181548 1.13393,3.260045 1.13393,6.47284 1.70089,7.654016 0.56697,1.18118 1.08668,0.75595 2.45684,3.82701 1.37017,3.07106 4.29948,5.66964 3.92151,9.63839 -0.37798,3.96875 -1.84263,7.18155 -6.70908,8.50447 -4.86644,1.32291 -10.15811,-2.4096 -11.76451,-1.32292 -1.6064,1.08668 -2.64583,1.88988 -2.36235,3.16555 0.28348,1.27567 1.32292,2.45684 0.66146,2.45684 -0.66146,0 -2.45685,-0.6142 -2.45685,-3.44903 0,-2.83482 0.99219,-8.88244 1.08669,-12.5677 0.0945,-3.68527 -1.46466,-9.78014 -1.46466,-12.662206 0,-2.882069 -0.18899,-8.315476 -1.55915,-11.528274 -1.37017,-3.212799 -4.86645,-8.173736 -8.40998,-8.268229 -3.54352,-0.09449 -7.55952,6.18936 -13.93787,-1.748139 -6.37834,-7.9375 -3.09081,-11.704172 -14.77457,-6.820652 z"
       id="path4980"
       inkscape:connector-curvature="0"
       sodipodi:nodetypes="cscsssssssssssssssssssssssssscssscssssssssssssssssc" />
    <path
       style="fill:#494949;fill-rule:evenodd;stroke:none;stroke-width:0.26458332px;stroke-linecap:butt;stroke-linejoin:miter;stroke-opacity:1;fill-opacity:0.54054052"
       d="m 96.714658,48.853423 c -0.141743,-1.417413 -2.504093,-2.362354 -4.582962,-1.086684 -2.078871,1.27567 -3.68527,3.260045 -5.24442,4.063246 -1.559152,0.803198 -2.173364,1.370164 -1.748141,1.55915 0.425225,0.188989 7.228795,-4.346726 7.228795,-3.590774 0,0.755954 -1.41741,2.315104 -3.779761,4.063246 -2.362351,1.748139 -4.110493,2.787573 -4.346726,4.582961 -0.236236,1.795386 -1.039434,2.929314 -0.661458,3.401785 0.377976,0.472469 4.393972,-6.000371 4.724701,-5.575149 0.33073,0.425223 -2.740326,3.449032 -2.36235,3.96875 0.377975,0.519719 5.858631,-4.677455 6.472843,-3.779761 0.614209,0.897692 -3.874257,3.260043 -2.976565,3.874255 0.897694,0.614211 6.047621,-4.11049 6.661832,-3.354539 0.614212,0.755952 -5.149926,5.764139 -5.149926,6.52009 0,0.755952 5.622395,-3.496281 5.622395,-2.645833 0,0.850445 -6.000371,6.000371 -6.000371,6.992559 0,0.992187 6.283854,-4.582962 6.283854,-4.063243 0,0.519715 -6.803573,6.047618 -6.472843,6.80357 0.330729,0.755954 5.10268,-4.29948 5.905878,-3.685268 0.803201,0.614212 -4.913691,3.96875 -3.212796,5.291667 1.700893,1.322916 5.008184,-3.260045 4.582959,-3.779761 -0.425222,-0.519718 5.055434,-5.24442 4.866444,-5.480656 -0.18899,-0.236236 -5.38616,4.063243 -5.811382,3.449034 -0.425225,-0.614211 1.842632,-3.071058 1.464657,-3.49628 -0.377976,-0.425223 -3.071056,1.417409 -3.071056,1.039434 0,-0.377976 3.165549,-3.354539 3.071056,-4.204986 -0.09449,-0.850445 -4.252233,1.842635 -4.299479,1.559152 -0.04725,-0.283482 2.787573,-3.77976 2.55134,-4.393972 -0.236236,-0.614212 -3.543528,1.511903 -3.543528,0.992187 0,-0.519718 2.173364,-2.740326 2.173364,-3.165551 0,-0.425223 -1.322916,-0.661459 -3.071058,0.0945 -1.748139,0.755951 -2.645833,1.22842 -2.645833,0.944938 0,-0.28348 4.488468,-1.795386 4.346725,-2.220608 -0.14174,-0.425225 -2.740326,0.236233 -2.740326,-0.236236 0,-0.472469 5.433409,-1.370163 5.338913,-1.937129 -0.09449,-0.566965 -3.401785,0.18899 -3.401785,-0.141739 0,-0.33073 1.228423,-2.69308 3.82701,-2.362351 z"
       id="path4982"
       inkscape:connector-curvature="0" />
    <path
       style="fill:#494949;fill-rule:evenodd;stroke:none;stroke-width:0.26458332px;stroke-linecap:butt;stroke-linejoin:miter;stroke-opacity:1;fill-opacity:0.54054052"
       d="m 113.29836,71.059523 c 1.03944,0 3.44903,3.023809 3.92151,3.023809 0.47247,0 -3.26005,-5.10268 -2.88207,-5.10268 0.37797,0 5.14992,4.15774 5.14992,3.212799 0,-0.944941 -4.63021,-5.575149 -4.53571,-6.000372 0.0945,-0.425222 6.14211,5.38616 8.45721,5.527903 2.31511,0.14174 7.37054,-0.33073 7.2288,-0.755955 -0.14174,-0.425222 -7.55952,0.04725 -7.74851,-0.566962 -0.18899,-0.614212 3.54352,-0.425225 3.54352,-1.086683 0,-0.661459 -9.21316,-2.362351 -9.16592,-2.929314 0.0472,-0.566965 4.29948,-0.141742 4.29948,-0.614211 0,-0.472472 -5.24442,-1.039434 -5.19717,-1.559153 0.0472,-0.519718 4.34672,0.236236 4.34672,-0.09449 0,-0.330729 -0.94494,-2.173364 -0.56696,-2.267858 0.37798,-0.09449 2.97656,0.472469 2.83482,-0.09449 -0.14174,-0.566965 -7.41778,-2.267857 -7.32329,-3.165552 0.0945,-0.897694 3.63802,-0.09449 3.63802,-0.566965 0,-0.472469 -5.00818,-2.50409 -5.00818,-2.976562 0,-0.472469 6.70908,2.504093 6.70908,1.984375 0,-0.519716 -4.15774,-2.551337 -4.25224,-3.165549 -0.0945,-0.614212 6.00038,2.267857 6.33111,1.464656 0.33072,-0.803198 0.0472,-1.889881 0.0945,-2.173361 0.0473,-0.283483 2.88207,2.031621 2.88207,1.41741 0,-0.614212 -4.53571,-3.496281 -4.53571,-3.874257 0,-0.377976 4.06324,2.882069 4.34672,2.362351 0.28348,-0.519716 -0.47247,-1.086681 -0.14174,-1.370163 0.33073,-0.283483 9.11868,6.3311 8.83519,7.323288 -0.28348,0.992187 -7.46503,-5.858629 -7.60677,-5.149924 -0.14174,0.708705 4.34673,3.590774 4.34673,4.157736 0,0.566965 -1.13393,-0.377975 -1.13393,0.141743 0,0.519716 3.77976,1.133927 3.77976,2.031622 0,0.897694 -8.03199,-2.976563 -8.31547,-2.456847 -0.28349,0.519718 -2.4096,1.417412 -2.83483,0.566965 -0.42522,-0.850445 -1.32291,-0.04725 -1.27566,0.755952 0.0472,0.8032 5.62239,0.377978 8.22097,1.039436 2.59859,0.661459 5.95313,1.984375 5.66965,2.83482 -0.28348,0.850448 -10.53609,-1.653646 -10.58333,-0.897694 -0.0472,0.755954 3.16555,0.803201 3.16555,1.370166 0,0.566962 -5.19718,-0.0945 -5.24442,0.614209 -0.0473,0.708708 4.06324,0.992187 4.06324,1.559152 0,0.566965 -1.37016,0.425223 -1.18117,1.086681 0.18898,0.661459 2.36235,0.708708 2.69308,0.330729 0.33072,-0.377975 3.30729,-1.700892 3.49628,-0.472469 0.18898,1.228424 -1.98438,1.511906 -1.98438,2.409598 0,0.897694 7.03981,0.566965 7.03981,1.086683 0,0.519716 -2.83483,1.700893 -2.92932,2.504091 -0.0945,0.803201 3.30729,-0.850445 2.97656,0.425222 -0.33073,1.27567 -3.35453,1.181177 -3.35453,1.748142 0,0.566962 4.48846,-0.755954 4.34672,0.425223 -0.14174,1.181176 -5.29167,3.307291 -6.99256,3.307291 -1.70089,0 -5.57515,-0.236236 -7.18155,-1.228423 -1.6064,-0.992188 -4.48846,-4.393973 -4.67745,-3.874254 -0.18899,0.519716 1.5119,1.606396 1.13393,2.078868 -0.37798,0.472469 -2.4096,-1.748139 -2.4096,-1.464659 0,0.283482 1.98437,3.449034 1.79539,3.82701 -0.18899,0.377976 -3.11831,-3.496281 -3.2128,-2.882069 -0.0945,0.614211 1.08668,1.889881 0.61421,2.173364 -0.47247,0.283482 -4.20499,-5.433409 -3.68527,-6.000372 z"
       id="path4984"
       inkscape:connector-curvature="0" />
    <path
       style="fill:#494949;fill-rule:evenodd;stroke:none;stroke-width:0.26458332px;stroke-linecap:butt;stroke-linejoin:miter;stroke-opacity:1;fill-opacity:0.54054052"
       d="m 139.37872,81.501114 c 0,-1.086681 6.47284,-3.732514 6.56733,-3.071056 0.0945,0.661458 -0.75595,1.322917 -0.56696,1.606399 0.18899,0.283483 1.55915,-0.09449 1.6064,0.708705 0.0472,0.803199 -2.78758,-0.472469 -2.78758,0.330729 0,0.803199 1.37017,3.212799 1.32292,3.685268 -0.0472,0.472472 -2.07887,-1.606399 -2.07887,-0.944941 0,0.661458 4.11049,5.433409 3.82701,6.236607 -0.28348,0.803201 -2.74033,-2.078868 -2.74033,-1.653645 0,0.425222 1.37017,2.740326 0.99219,3.307291 -0.37797,0.566965 -1.74814,-3.023809 -2.03162,-2.031621 -0.28348,0.992187 0.85045,4.441219 0,5.102677 -0.85045,0.661458 -0.61421,-3.779761 -1.18118,-2.976562 -0.56696,0.803201 -1.13392,3.449034 -1.5119,3.260045 -0.37798,-0.188987 1.84263,-8.409969 1.32292,-10.205358 -0.51972,-1.795386 -2.74033,-2.83482 -2.74033,-3.354538 z"
       id="path4986"
       inkscape:connector-curvature="0" />
    <path
       style="fill:#494949;fill-rule:evenodd;stroke:none;stroke-width:0.26458332px;stroke-linecap:butt;stroke-linejoin:miter;stroke-opacity:1;fill-opacity:0.54054052"
       d="m 150.67076,96.33668 c 0,-0.944941 1.5119,0.04725 1.55915,1.41741 0.0473,1.370165 0.85045,-1.937126 1.03943,-1.370164 0.18899,0.566965 0.28348,2.456847 0.37798,3.165552 0.0945,0.708702 0.94494,-1.370163 1.18117,-0.897694 0.23624,0.472471 -1.27567,2.220606 -0.85044,2.834826 0.42522,0.61421 1.27567,-1.22843 1.46466,-0.47248 0.18899,0.75596 -0.33073,2.83483 -1.93713,5.00819 -1.6064,2.17336 -4.48847,5.33891 -4.34673,4.63021 0.14174,-0.70871 3.73252,-4.44122 3.49628,-4.8192 -0.23623,-0.37797 -3.1183,-2.45684 -2.50409,-3.2128 0.61421,-0.75595 2.88207,-0.23623 2.88207,-0.89769 0,-0.66146 -2.97656,-1.18117 -2.97656,-1.88988 0,-0.708705 1.5119,-0.141742 1.5119,-0.614211 0,-0.472472 0.56696,-0.850448 -0.89769,-2.882069 z"
       id="path4988"
       inkscape:connector-curvature="0" />
    <path
       style="fill:#494949;fill-rule:evenodd;stroke:none;stroke-width:0.26458332px;stroke-linecap:butt;stroke-linejoin:miter;stroke-opacity:1;fill-opacity:0.54054052"
       d="m 142.16629,115.09375 c 0.42523,0.28348 3.11831,-2.64583 3.30729,-1.79539 0.18899,0.85045 -1.37016,2.17336 -1.37016,3.73252 0,1.55915 0.0945,2.3151 0.42522,2.3151 0.33073,0 0,-1.5119 1.08668,-1.27567 1.08669,0.23624 1.41742,1.41741 2.07888,1.41741 0.66145,0 2.83482,-2.50409 3.49627,-2.4096 0.66146,0.0945 4.58297,0 4.72471,1.32292 0.14174,1.32292 -0.8032,2.83482 -0.28348,2.83482 0.51971,0 3.40178,-2.74033 2.97656,-4.11049 -0.42523,-1.37016 -2.83482,-0.56696 -2.74033,-1.46466 0.0945,-0.89769 1.27567,-1.88988 0.89769,-2.22061 -0.37797,-0.33073 -2.12611,2.59859 -2.74032,2.26786 -0.61422,-0.33073 0.14174,-2.17336 -0.61422,-2.17336 -0.75595,0 -2.59858,3.59077 -3.40178,3.54352 -0.8032,-0.0472 0,-1.18117 -0.89769,-1.18117 -0.8977,0 0,1.37016 -1.22843,0.99218 -1.22842,-0.37797 -1.88988,-1.32291 -1.84263,-2.59858 0.0472,-1.27567 2.59859,-4.25223 2.17336,-4.58296 -0.42522,-0.33073 -6.37835,4.06324 -6.04762,5.38616 z"
       id="path4990"
       inkscape:connector-curvature="0" />
  </g>
  <g
     inkscape:groupmode="layer"
     id="layer6"
     inkscape:label="Hands"
     style="display:inline">
    <path
       style="fill:#8a8a8a;fill-opacity:1;fill-rule:evenodd;stroke:none;stroke-width:0.26458332px;stroke-linecap:butt;stroke-linejoin:miter;stroke-opacity:1"
       d="m 235.06355,264.58333 c 0,0 -3.60814,-8.41899 -7.48355,-12.02713 -3.87541,-3.60814 -7.21628,-4.27631 -9.48807,-4.27631 -2.27179,0 -8.68626,1.06908 -10.42351,0.93544 -1.73725,-0.13363 -5.34539,-2.93996 -7.08264,-2.93996 -1.73725,0 -6.28084,-1.60362 -8.55263,-2.93997 -2.27179,-1.33634 -11.49259,-6.28083 -11.89349,-7.61718 -0.4009,-1.33635 -1.33635,-5.07812 -2.6727,-6.94901 -1.33634,-1.87088 -5.21175,-9.88897 -6.01356,-10.69078 -0.80181,-0.80181 -6.94901,-6.94901 -7.28309,-6.74855 -0.33409,0.20045 -5.07813,4.27631 -5.07813,4.74403 0,0.46772 2.07134,3.54132 1.46999,3.54132 -0.60136,0 -6.74856,-1.87088 -8.15172,-1.87088 -1.40317,0 -5.87993,-0.33409 -6.61493,-0.13364 -0.73499,0.20045 -3.14041,2.40543 -3.14041,3.27405 0,0.86863 2.27179,4.47677 2.93996,4.94449 0.66818,0.46772 11.02487,3.60814 10.82442,4.00904 -0.20045,0.40091 -13.49711,-3.0736 -14.2321,-3.40769 -0.73499,-0.33408 -3.34087,-2.3386 -3.94223,-2.3386 -0.60136,0 -2.27179,1.00226 -2.73951,1.5368 -0.46772,0.53454 -0.80181,2.07134 -0.80181,3.20723 0,1.1359 1.20271,3.74177 4.2095,5.14494 3.00678,1.40316 12.89575,4.07586 12.82893,4.6104 -0.0668,0.53454 -12.02713,-3.27405 -13.02939,-3.60814 -1.00226,-0.33409 -3.80859,-4.54358 -3.80859,-4.54358 0,0 -1.33634,-0.80181 -1.9377,1.5368 -0.60136,2.33861 2.53906,8.0849 3.27405,8.61944 0.73499,0.53454 12.6953,5.21175 12.6953,5.61266 0,0.4009 -12.6953,-2.73951 -13.49711,-3.14042 -0.80181,-0.4009 -0.93544,-3.74177 -1.73725,-3.27405 -0.80181,0.46772 -2.00452,2.73951 -2.00452,3.87541 0,1.13589 2.33861,6.1472 3.94222,7.01583 1.60362,0.86862 9.02035,1.67043 11.15851,2.3386 2.13815,0.66818 11.96031,6.61492 13.83119,6.61492 1.87089,0 4.07587,0.46772 6.21402,0.46772 2.13816,0 11.42577,4.47677 11.42577,4.47677 z"
       id="path5077"
       inkscape:connector-curvature="0" />
    <path
       style="fill:#5c5c5c;fill-opacity:1;fill-rule:evenodd;stroke:none;stroke-width:0.26458332px;stroke-linecap:butt;stroke-linejoin:miter;stroke-opacity:1"
       d="m 145.99598,224.76017 c 0.80181,-0.53454 2.67269,-5.87993 2.27179,-6.08038 -0.4009,-0.20045 -2.13816,-0.86863 -2.60588,-0.66817 -0.46772,0.20045 -2.60588,1.87088 -2.60588,2.53906 0,0.66817 2.00452,6.08038 2.93997,4.20949 z"
       id="path5079"
       inkscape:connector-curvature="0" />
    <path
       style="fill:#5c5c5c;fill-opacity:1;fill-rule:evenodd;stroke:none;stroke-width:0.26458332px;stroke-linecap:butt;stroke-linejoin:miter;stroke-opacity:1"
       d="m 140.51695,226.76469 c -0.13363,-0.4009 -1.87089,-2.33861 -2.3386,-2.27179 -0.46773,0.0668 -2.20498,0.93544 -2.60588,1.73725 -0.40091,0.80181 -0.80181,2.47225 -0.66818,3.27406 0.13364,0.8018 2.73951,4.34313 4.07586,4.14267 1.33635,-0.20045 0.53454,-6.34765 1.5368,-6.88219 z"
       id="path5081"
       inkscape:connector-curvature="0" />
    <path
       style="fill:#5c5c5c;fill-opacity:1;fill-rule:evenodd;stroke:none;stroke-width:0.26458332px;stroke-linecap:butt;stroke-linejoin:miter;stroke-opacity:1"
       d="m 137.84426,240.52907 c 0,-0.73499 -1.00226,-4.07586 -0.46772,-4.34313 0.53453,-0.26727 1.26952,-0.26727 0.93544,-0.66817 -0.33409,-0.40091 -3.20724,-4.87767 -3.60814,-4.87767 -0.40091,0 -1.46998,0.33409 -1.46998,1.67043 0,1.33635 1.40316,6.28084 2.40542,7.2831 1.00226,1.00226 1.87089,1.26953 2.20498,0.93544 z"
       id="path5083"
       inkscape:connector-curvature="0" />
    <path
       style="fill:#5c5c5c;fill-opacity:1;fill-rule:evenodd;stroke:none;stroke-width:0.26458332px;stroke-linecap:butt;stroke-linejoin:miter;stroke-opacity:1"
       d="m 135.97337,250.48486 c 0.60136,-0.33408 -1.26953,-5.34539 -0.73499,-5.67948 0.53454,-0.33408 2.60588,-1.13589 1.87089,-1.13589 -0.73499,0 -1.73726,0 -2.00453,-0.60136 -0.26726,-0.60135 -0.66817,-2.93996 -1.33634,-2.67269 -0.66818,0.26727 -1.93771,2.07134 -1.80407,3.0736 0.13363,1.00226 1.87089,5.67947 4.00904,7.01582 z"
       id="path5085"
       inkscape:connector-curvature="0" />
    <path
       style="fill:#5c5c5c;fill-opacity:1;fill-rule:evenodd;stroke:none;stroke-width:0.26458332px;stroke-linecap:butt;stroke-linejoin:miter;stroke-opacity:1"
       d="m 154.74905,218.47934 c 1.00227,0 7.08265,3.00678 8.41899,3.00678 1.33635,0 2.33861,0.26727 2.33861,-0.13363 0,-0.40091 -1.33634,-4.14268 -2.33861,-4.14268 -1.00226,0 -1.9377,1.26953 -2.00452,1.67043 -0.0668,0.4009 2.33861,2.33861 -6.41447,-0.4009 z"
       id="path5087"
       inkscape:connector-curvature="0" />
    <path
       style="display:inline;fill:#363636;fill-rule:evenodd;stroke:none;stroke-width:0.26458332px;stroke-linecap:butt;stroke-linejoin:miter;stroke-opacity:1;fill-opacity:1"
       d="m 191.16146,242.47172 c 0.28348,0.94494 1.79538,1.13393 1.5119,5.38616 -0.28348,4.25224 -1.6064,4.72471 -1.03943,5.00819 0.56696,0.28348 4.53571,2.74033 4.53571,2.36235 0,-0.37798 0.94494,-4.25223 0.37798,-6.04762 -0.56697,-1.79539 -2.26786,-4.8192 -2.64584,-5.10268 -0.37797,-0.28348 -2.74032,-1.6064 -2.74032,-1.6064 z"
       id="path5096"
       inkscape:connector-curvature="0" />
    <path
       style="display:inline;fill:#363636;fill-rule:evenodd;stroke:none;stroke-width:0.26458332px;stroke-linecap:butt;stroke-linejoin:miter;stroke-opacity:1;fill-opacity:1"
       d="m 185.11384,262.40997 c 0,0 1.22842,-0.85045 1.70089,-0.56697 0.47247,0.28349 4.06324,2.74033 4.06324,2.74033 l -9.63839,0 z"
       id="path5098"
       inkscape:connector-curvature="0" />
    <path
       style="display:inline;fill:#989898;fill-rule:evenodd;stroke:none;stroke-width:0.26458332px;stroke-linecap:butt;stroke-linejoin:miter;stroke-opacity:1;fill-opacity:1"
       d="m 186.43675,261.55952 5.29167,-8.88244 4.96094,2.97656 -5.29167,8.92969 z"
       id="path5100"
       inkscape:connector-curvature="0" />
    <path
       style="display:inline;fill:#6c6c6c;fill-rule:evenodd;stroke:none;stroke-width:0.26458332px;stroke-linecap:butt;stroke-linejoin:miter;stroke-opacity:1;fill-opacity:1"
       d="m 191.91741,252.91332 c 0,0 -0.56696,-1.08669 -1.08668,-1.08669 -0.51972,0 -5.81139,9.16593 -5.81139,9.40216 0,0.23624 1.22843,0.42522 1.46466,0.33073 0.23624,-0.0945 5.43341,-8.6462 5.43341,-8.6462 z"
       id="path5102"
       inkscape:connector-curvature="0" />
    <circle
       style="display:inline;fill:#808080;fill-rule:evenodd;stroke:none;stroke-width:0.26458332px;stroke-linecap:butt;stroke-linejoin:miter;stroke-opacity:1;fill-opacity:1"
       id="path5104"
       cx="187.99591"
       cy="257.35455"
       r="0.8504464" />
  </g>
  <path
     style="fill:#626262;fill-opacity:1;fill-rule:evenodd;stroke:none;stroke-width:0.26458332px;stroke-linecap:butt;stroke-linejoin:miter;stroke-opacity:1"
     d="m 43.46726,264.58333 c 0,0 -7.843004,-7.55952 -7.843004,-9.44941 0,-1.88987 -1.511906,-9.82737 4.252233,-12.28422 5.764135,-2.45685 9.827379,-3.77976 13.701635,-2.74033 3.874257,1.03944 7.465031,8.31548 12.000743,9.63839 4.535715,1.32292 7.559525,1.41741 8.976934,1.03944 1.417413,-0.37798 6.898066,-0.85045 8.031996,-0.28348 1.133928,0.56696 7.276042,8.12649 8.693452,9.35491 1.41741,1.22842 5.102677,4.7247 5.102677,4.7247 l -10.488837,0 c 0,0 -3.874257,-3.2128 -5.386163,-2.55134 -1.511903,0.66146 -1.984375,2.55134 -1.984375,2.55134 z"
     id="path5089"
     inkscape:connector-curvature="0"
     sodipodi:nodetypes="csssssssccscc" />
</svg>
