<?xml version="1.0" encoding="UTF-8" standalone="no"?>
<!-- Created with Inkscape (http://www.inkscape.org/) -->

<svg
   xmlns:dc="http://purl.org/dc/elements/1.1/"
   xmlns:cc="http://creativecommons.org/ns#"
   xmlns:rdf="http://www.w3.org/1999/02/22-rdf-syntax-ns#"
   xmlns:svg="http://www.w3.org/2000/svg"
   xmlns="http://www.w3.org/2000/svg"
   xmlns:sodipodi="http://sodipodi.sourceforge.net/DTD/sodipodi-0.dtd"
   xmlns:inkscape="http://www.inkscape.org/namespaces/inkscape"
   width="1280"
   height="720"
   viewBox="0 0 338.66666 190.50001"
   id="svg2"
   version="1.1"
   inkscape:version="0.91+devel r13925"
   sodipodi:docname="julie-slick-discover-thumbnail.svg"
   inkscape:export-filename="/Users/agarone/Documents/git/art/julie-slick/discover/julie-slick-discover-thumbnail.png"
   inkscape:export-xdpi="96"
   inkscape:export-ydpi="96">
  <defs
     id="defs4">
    <linearGradient
       id="linearGradient5627">
      <stop
         style="stop-color:#f80000;stop-opacity:1"
         id="stop5629"
         offset="0" />
      <stop
         style="stop-color:#e69595;stop-opacity:1"
         id="stop5631"
         offset="1" />
    </linearGradient>
    <linearGradient
       id="linearGradient5619">
      <stop
         style="stop-color:#000000;stop-opacity:1"
         id="stop5621"
         offset="0" />
      <stop
         style="stop-color:#000000;stop-opacity:0"
         id="stop5623"
         offset="1" />
    </linearGradient>
    <linearGradient
       id="linearGradient4838">
      <stop
         style="stop-color:#606060;stop-opacity:1"
         id="stop4840"
         offset="0" />
      <stop
         style="stop-color:#ffffff;stop-opacity:1"
         id="stop4842"
         offset="1" />
    </linearGradient>
    <linearGradient
       id="linearGradient4776">
      <stop
         style="stop-color:#c9c9c9;stop-opacity:1"
         offset="0"
         id="stop4778" />
      <stop
         style="stop-color:#555555;stop-opacity:1"
         offset="1"
         id="stop4780" />
    </linearGradient>
    <linearGradient
       id="linearGradient4760">
      <stop
         style="stop-color:#000000;stop-opacity:1"
         offset="0"
         id="stop4762" />
      <stop
         style="stop-color:#555555;stop-opacity:1"
         id="stop4764"
         offset="0.52" />
      <stop
         style="stop-color:#000000;stop-opacity:1"
         offset="1"
         id="stop4766" />
    </linearGradient>
    <linearGradient
       id="linearGradient4744">
      <stop
         style="stop-color:#000000;stop-opacity:1"
         id="stop4746"
         offset="0" />
      <stop
         style="stop-color:#555555;stop-opacity:1"
         offset="0.65"
         id="stop4748" />
      <stop
         style="stop-color:#000000;stop-opacity:1"
         id="stop4750"
         offset="1" />
    </linearGradient>
    <linearGradient
       id="linearGradient4728">
      <stop
         style="stop-color:#000000;stop-opacity:1"
         offset="0"
         id="stop4730" />
      <stop
         style="stop-color:#555555;stop-opacity:1"
         id="stop4732"
         offset="0.72" />
      <stop
         style="stop-color:#000000;stop-opacity:1"
         offset="1"
         id="stop4734" />
    </linearGradient>
    <linearGradient
       id="linearGradient4708">
      <stop
         style="stop-color:#000000;stop-opacity:1"
         id="stop4710"
         offset="0" />
      <stop
         style="stop-color:#555555;stop-opacity:1"
         offset="0.5"
         id="stop4718" />
      <stop
         style="stop-color:#000000;stop-opacity:1"
         id="stop4712"
         offset="1" />
    </linearGradient>
    <linearGradient
       id="linearGradient4679">
      <stop
         style="stop-color:#000000;stop-opacity:1"
         id="stop4681"
         offset="0" />
      <stop
         style="stop-color:#555555;stop-opacity:1"
         id="stop4683"
         offset="1" />
    </linearGradient>
  </defs>
  <sodipodi:namedview
     id="base"
     pagecolor="#ffffff"
     bordercolor="#666666"
     borderopacity="1.0"
     inkscape:pageopacity="0.0"
     inkscape:pageshadow="2"
     inkscape:zoom="0.98994949"
     inkscape:cx="337.33876"
     inkscape:cy="317.56339"
     inkscape:document-units="px"
     inkscape:current-layer="layer5"
     showgrid="false"
     units="px"
     inkscape:window-width="1920"
     inkscape:window-height="1151"
     inkscape:window-x="0"
     inkscape:window-y="1"
     inkscape:window-maximized="1" />
  <metadata
     id="metadata7">
    <rdf:RDF>
      <cc:Work
         rdf:about="">
        <dc:format>image/svg+xml</dc:format>
        <dc:type
           rdf:resource="http://purl.org/dc/dcmitype/StillImage" />
        <dc:title />
      </cc:Work>
    </rdf:RDF>
  </metadata>
  <g
     inkscape:label="Gray BG"
     inkscape:groupmode="layer"
     id="layer1"
     transform="translate(0,-106.49999)">
    <rect
       style="opacity:1;fill:#596268;fill-opacity:1;stroke:none;stroke-width:16.0535984;stroke-miterlimit:4;stroke-dasharray:none;stroke-opacity:1"
       id="rect4141"
       width="338.66669"
       height="190.5"
       x="1.4210855e-14"
       y="106.49999" />
  </g>
  <g
     inkscape:groupmode="layer"
     id="layer5"
     inkscape:label="Residents">
    <g
       id="g4427"
       transform="matrix(0.62604745,0,0,0.62604745,0.44382874,-18.797967)">
      <g
         style="display:none"
         transform="translate(0,-32.41665)"
         id="layer1-4"
         inkscape:label="BG">
        <rect
           y="32.416653"
           x="0"
           height="264.58334"
           width="264.58334"
           id="rect5606"
           style="opacity:1;fill:#ffffff;fill-opacity:1;stroke:none;stroke-width:11.60810661;stroke-miterlimit:4;stroke-dasharray:none;stroke-opacity:1" />
        <g
           transform="matrix(0.26458333,0,0,0.26458333,-83.155392,80.914776)"
           id="g4405" />
      </g>
      <g
         style="display:inline;opacity:1"
         inkscape:label="Head"
         id="layer2-7">
        <path
           sodipodi:nodetypes="cscccccc"
           inkscape:connector-curvature="0"
           id="path4213"
           d="m 102.05357,144.85937 c 0,0 -1.79539,17.67039 -3.118303,20.12724 -1.322918,2.45684 -0.566963,7.08705 -0.566963,7.08705 l 9.543896,22.67857 34.39584,6.80357 19.37127,-18.80432 -5.85863,-39.6875 z"
           style="fill:#a65b2e;fill-opacity:1;fill-rule:evenodd;stroke:none;stroke-width:0.26458332px;stroke-linecap:butt;stroke-linejoin:miter;stroke-opacity:1" />
        <path
           inkscape:connector-curvature="0"
           id="path4792"
           d="m 132.29166,163.38021 c 12.94569,0 23.43453,-8.032 28.44271,-16.81994 5.00819,-8.78795 6.4256,-23.8125 6.04762,-27.97024 -0.37797,-4.15774 -1.32292,-36.663691 -4.7247,-41.766371 C 158.6555,71.720982 152.3244,62.460565 136.07143,61.988093 119.81845,61.515624 100.35268,74.461308 97.801339,87.784968 95.249999,101.10863 93.6436,127.18898 96.572915,134.9375 c 2.929316,7.74851 6.709075,15.49702 14.457595,21.26116 7.74851,5.76414 11.15029,7.18155 21.26115,7.18155 z"
           style="fill:#bc713e;fill-opacity:1;fill-rule:evenodd;stroke:none;stroke-width:0.26458332px;stroke-linecap:butt;stroke-linejoin:miter;stroke-opacity:1" />
        <path
           inkscape:connector-curvature="0"
           id="path4794"
           d="m 111.71866,137.89757 c 1.00226,0 1.26953,-2.73951 2.47225,-2.13815 1.20271,0.60136 3.60813,2.07134 5.21175,1.80407 1.60362,-0.26727 6.1472,-1.40317 7.75082,-1.5368 1.60361,-0.13364 2.3386,0.60136 2.07134,-0.33409 -0.26728,-0.93544 0.13363,-3.34087 1.46998,-4.00904 1.33635,-0.66818 1.57021,-0.53454 0.23386,-1.33635 -1.33635,-0.80181 -1.30294,-1.97111 -2.47224,-1.97111 -1.16931,0 -1.63703,0.80181 -2.93997,-0.0334 -1.30294,-0.83522 -1.33635,-2.00452 -2.57247,-2.07134 -1.23612,-0.0668 -1.83748,2.60588 -4.44335,4.04245 -2.60588,1.43658 -5.3788,3.60814 -6.31425,5.0113 -0.93544,1.40317 -1.00226,1.87089 -0.46772,2.57247 z"
           style="fill:#deaa87;fill-rule:evenodd;stroke:none;stroke-width:0.26458332px;stroke-linecap:butt;stroke-linejoin:miter;stroke-opacity:1" />
        <path
           inkscape:connector-curvature="0"
           id="path4215"
           d="m 128.98437,163.75818 c 1.13393,1.98438 2.26786,8.69345 1.98438,10.77232 -0.28348,2.07887 -2.17336,3.02381 -1.13393,3.59078 1.03944,0.56696 6.70908,0.94494 7.65402,3.96875 0.94494,3.02381 2.83482,6.52009 2.64583,8.50446 -0.18899,1.98438 -2.74032,3.11831 -6.99256,2.92932 -4.25223,-0.18899 -19.0878,-1.22843 -22.86756,-6.52009 -3.77976,-5.29167 -10.20535,-15.30804 -9.82738,-17.5759 0.37798,-2.26785 1.22843,2.17337 6.99256,1.51191 5.76414,-0.66146 8.22098,-1.79539 9.16592,-0.18899 0.94495,1.6064 1.03944,5.10268 1.51191,3.87426 0.47247,-1.22843 0.56696,-6.89807 -2.26786,-7.84301 -2.83482,-0.94494 -8.97693,2.45685 -10.39434,0.66146 -1.41741,-1.79539 4.06324,-2.92932 5.10267,-5.57515 1.03944,-2.64583 -4.25223,0.28348 -3.30729,-2.74033 0.94494,-3.02381 6.89807,-3.77976 12.00075,-1.70089 5.10268,2.07887 9.73288,6.3311 9.73288,6.3311 z"
           style="fill:#cf9063;fill-opacity:1;fill-rule:evenodd;stroke:none;stroke-width:0.26458332px;stroke-linecap:butt;stroke-linejoin:miter;stroke-opacity:1" />
        <path
           sodipodi:nodetypes="csssscsssssssssscssssssscsscssccsssssssssssssssssssssc"
           inkscape:connector-curvature="0"
           id="path4796"
           d="m 111.51821,142.64161 c 1.06908,-0.13364 1.33635,-3.27405 3.67496,-3.77518 2.3386,-0.50113 2.43883,0.20045 4.10926,1.06908 1.67044,0.86862 7.14946,4.97789 11.1251,5.0113 3.97563,0.0334 4.07586,1.06908 4.07586,1.63702 0,0.56795 -2.07134,-0.26726 -1.97112,0.3675 0.10023,0.63476 2.47225,2.10475 1.83748,2.57247 -0.63476,0.46772 -2.7061,-0.16704 -2.53906,1.23612 0.16705,1.40316 3.34087,7.88445 2.80633,9.25421 -0.53454,1.36976 -1.1693,2.67269 -3.90881,2.83974 -2.73952,0.16704 -8.38558,-0.53454 -11.79327,-2.23838 -3.40769,-1.70385 -10.02261,-5.81312 -14.5996,-11.96032 -4.576989,-6.1472 -8.018086,-14.80005 -8.285355,-21.21452 -0.267269,-6.41446 -0.400905,-14.86686 0.300678,-18.87591 0.701582,-4.00904 2.004523,-10.223053 2.772923,-9.721924 0.768398,0.501131 -0.334087,5.879934 -1.202714,7.951264 -0.868627,2.07134 -1.269531,3.0736 -1.269531,3.0736 0,0 1.369758,-2.3386 2.672696,-5.34539 1.302943,-3.00678 1.971113,-2.87314 2.839743,-1.10248 0.86862,1.77066 -0.43432,2.93996 -1.73726,5.37879 -1.302934,2.43884 -2.639283,6.08039 -1.837474,8.55263 0.801809,2.47224 5.178344,5.98016 5.479024,5.11153 0.30068,-0.86863 -4.911078,-2.57247 -4.209493,-6.68174 0.701583,-4.10927 2.138153,-6.04697 3.708363,-6.01356 1.57021,0.0334 1.57021,-1.33635 2.13816,-1.40317 0.56795,-0.0668 1.30294,-1.5368 3.00678,-0.86862 1.70384,0.66817 3.90882,2.53906 6.9156,2.67269 3.00678,0.13364 5.51243,-0.60136 5.3788,0.23386 -0.13364,0.83522 -2.07134,1.97111 -3.87541,1.97111 -1.80407,0 -2.77292,-0.56794 -2.77292,-0.4009 0,0.16704 3.54132,1.5368 5.24516,0.90204 2.98247,-0.21055 -1.31113,4.02899 2.97338,1.50339 0,0 3.27405,-2.17157 4.77744,-4.57699 1.50339,-2.40543 -0.23386,-6.04697 -0.93544,-6.68174 -0.70158,-0.63476 -3.54132,0.26727 -5.01131,-0.30068 -1.46998,-0.56795 -8.68626,-1.20271 -11.12509,-0.33408 -2.43883,0.86862 -6.5147,-0.46773 -7.3165,-2.03793 -0.80181,-1.570213 -0.26727,-6.080387 -0.26727,-8.853308 0,-2.772921 1.63702,-8.986938 5.91334,-14.699824 4.27631,-5.712886 13.36347,-4.810852 17.47274,-4.276313 4.10927,0.534539 7.65059,6.548104 7.3165,10.623964 -0.33408,4.07586 -7.61718,0.701583 -9.78874,3.57473 -2.17157,2.873147 11.35895,5.378799 13.79779,4.042452 2.43883,-1.336348 4.2429,1.26953 5.64607,3.240643 1.40316,1.971113 -4.00905,2.071339 -5.01131,1.937704 -1.00226,-0.133635 -3.24064,4.409952 -3.4745,5.980152 -0.23386,1.57021 -0.80181,26.96082 -1.26953,28.33057 -0.46772,1.36976 -2.77292,-0.50113 -3.27405,-1.23612 -0.50113,-0.73499 -0.73499,-1.46998 -2.63929,-0.90203 -1.9043,0.56795 -2.77292,-1.03567 -3.20723,-2.10475 -0.43432,-1.06908 0.63476,-4.40995 -0.60136,-5.7797 -1.23612,-1.36976 -8.11831,6.9156 -8.0849,8.8533 0.0334,1.9377 -3.8086,4.71062 -5.3788,7.18287 -1.57021,2.47224 0.33408,6.24742 1.40316,6.28083 z"
           style="fill:#deaa87;fill-rule:evenodd;stroke:none;stroke-width:0.26458332px;stroke-linecap:butt;stroke-linejoin:miter;stroke-opacity:1" />
        <path
           inkscape:connector-curvature="0"
           id="path4798"
           d="m 133.83522,135.99328 c 0.63476,0 4.14267,-0.93544 3.90881,-1.5368 -0.23386,-0.60136 -2.87315,-3.14042 -3.74177,-2.93996 -0.86863,0.20045 -0.80181,3.97563 -0.16704,4.47676 z"
           style="fill:#d38d5f;fill-rule:evenodd;stroke:none;stroke-width:0.26458332px;stroke-linecap:butt;stroke-linejoin:miter;stroke-opacity:1" />
        <path
           inkscape:connector-curvature="0"
           id="path4802"
           d="m 116.56292,137.42985 c 0.43432,0 2.03793,0.40091 5.07812,-0.13363 3.04019,-0.53454 5.41221,-1.26953 7.2831,-0.90204 1.87088,0.3675 2.63928,0.83522 3.77518,0.83522 1.1359,0 4.91108,2.13816 4.91108,2.60588 0,0.46772 -0.83522,5.74629 -5.24517,5.44562 -4.40995,-0.30068 -9.9892,-4.47677 -12.72871,-5.91334 -2.73951,-1.43658 -4.10927,-2.03793 -3.0736,-1.93771 z"
           style="fill:#d35f5f;fill-rule:evenodd;stroke:none;stroke-width:0.26458332px;stroke-linecap:butt;stroke-linejoin:miter;stroke-opacity:1" />
        <path
           inkscape:connector-curvature="0"
           id="path4800"
           d="m 133.30067,137.32963 c 1.06908,0 3.67496,-1.36976 4.44336,-1.16931 0.7684,0.20046 6.18061,2.23839 7.684,2.3052 1.50339,0.0668 4.34313,-0.26727 4.34313,0.13364 0,0.4009 -2.97337,0.86862 -4.71063,2.10474 -1.73725,1.23613 -7.55036,4.91108 -10.08942,4.74404 -2.53906,-0.16704 -1.13589,-4.71063 -2.20497,-4.54358 -1.06908,0.16704 -0.93545,2.47224 -1.36976,2.3052 -0.43431,-0.16705 -0.4009,-2.97338 -1.9043,-3.24065 -1.50339,-0.26727 -4.6438,-0.53453 -4.40994,-0.83521 0.23386,-0.30068 4.91108,0.60135 6.74855,0.66817 1.83748,0.0668 5.3788,0.13364 5.24517,-0.16704 -0.13364,-0.30068 -4.37654,-1.73726 -3.77519,-2.3052 z"
           style="fill:#c83737;fill-rule:evenodd;stroke:none;stroke-width:0.26458332px;stroke-linecap:butt;stroke-linejoin:miter;stroke-opacity:1" />
        <path
           inkscape:connector-curvature="0"
           id="path4804"
           d="m 148.53504,139.00006 c -0.0334,-0.33409 -3.30746,0.33409 -5.87993,0.63477 -2.57247,0.30068 -9.18739,0.10022 -10.69078,0.10022 -1.50339,0 -9.35444,-0.83522 -10.28988,-0.93544 -0.93544,-0.10023 -6.1472,-1.9377 -7.08264,-1.97111 -0.93544,-0.0334 0.50113,1.00226 1.23612,0.86862 0.73499,-0.13363 4.51017,1.03567 5.71289,1.23612 1.20271,0.20046 9.38784,1.03567 11.12509,1.03567 1.73725,0 7.51696,0.13364 8.88671,0 1.36976,-0.13363 6.28084,-0.96885 6.98242,-0.96885 z"
           style="fill:#782121;fill-rule:evenodd;stroke:none;stroke-width:0.26458332px;stroke-linecap:butt;stroke-linejoin:miter;stroke-opacity:1" />
        <path
           inkscape:connector-curvature="0"
           id="path4806"
           d="m 141.2686,104.46317 c -0.61421,-0.70871 -4.29948,-2.26786 -4.58296,1.32292 -0.28348,3.59077 3.49628,13.70163 6.47284,15.40252 2.97656,1.7009 8.83519,4.06325 11.43378,5.81139 2.59859,1.74814 4.016,5.90588 5.5279,5.90588 1.51191,0 7.1343,-14.50484 2.12612,-16.6782 -5.00819,-2.17337 -7.98475,5.19717 -14.17411,1.37016 -6.18936,-3.82701 -12.23698,-8.36272 -6.80357,-13.13467 z"
           style="fill:#b38466;fill-opacity:0.36756759;fill-rule:evenodd;stroke:none;stroke-width:0.26458332px;stroke-linecap:butt;stroke-linejoin:miter;stroke-opacity:1" />
        <path
           inkscape:connector-curvature="0"
           id="path4808"
           d="m 136.5439,130.33091 c 0.73233,-0.35435 1.88988,-1.65364 2.48047,-1.65364 0.59058,0 1.77176,0.37797 2.10249,0.28348 0.33073,-0.0945 -1.22842,0.18899 -2.05525,0.44885 -0.82682,0.25985 -2.33872,1.06305 -2.52771,0.92131 z"
           style="fill:#803300;fill-rule:evenodd;stroke:none;stroke-width:0.26458332px;stroke-linecap:butt;stroke-linejoin:miter;stroke-opacity:1" />
        <path
           inkscape:connector-curvature="0"
           id="path4810"
           d="m 143.20573,122.86588 c 0.63783,-0.33073 8.85881,5.90588 8.85881,6.61459 0,0.7087 -1.46465,3.59077 -0.73232,4.89006 0.73232,1.2993 2.29148,2.62221 1.93712,3.89788 -0.35435,1.27567 -1.88988,4.06325 -2.29148,4.06325 -0.4016,0 1.53553,-2.74033 1.22843,-4.29948 -0.30711,-1.55915 -3.82701,-7.67764 -5.03181,-9.30766 -1.2048,-1.63003 -5.31529,-5.55153 -3.96875,-5.85864 z"
           style="fill:#803300;fill-rule:evenodd;stroke:none;stroke-width:0.26458332px;stroke-linecap:butt;stroke-linejoin:miter;stroke-opacity:1" />
        <path
           inkscape:connector-curvature="0"
           id="path4812"
           transform="scale(0.26458333)"
           d="m 441.17578,388.3457 c -13.30347,0.34907 -31.49132,13.29681 -33.32617,14.27539 5.05077,9.3439 28.78801,15.15226 39.77344,14.77344 10.98542,-0.37878 26.01184,-6.5669 26.39062,-8.46094 0.37882,-1.89403 -3.28224,-8.83841 -7.07031,-13.25781 -3.78807,-4.41944 -11.11158,-6.81717 -24.49609,-7.32226 -0.41827,-0.0158 -0.84234,-0.0191 -1.27149,-0.008 z m -0.37109,4.04688 c 10.85915,-0.12624 25.63337,8.96524 25.38086,13.00586 -0.25248,4.04058 -16.54122,6.81895 -24.875,6.5664 -8.33375,-0.25247 -26.39131,-7.19669 -26.51758,-9.97461 0.50506,-2.14658 15.15257,-9.47138 26.01172,-9.59765 z"
           style="fill:#241f1c;fill-rule:evenodd;stroke:none;stroke-width:0.99999994px;stroke-linecap:butt;stroke-linejoin:miter;stroke-opacity:1" />
        <path
           inkscape:connector-curvature="0"
           id="path4814"
           d="m 109.74755,106.35977 c 0.13363,-0.56795 4.00904,-2.50565 6.88219,-2.53906 2.87315,-0.0334 6.78196,2.37202 6.71515,3.4411 -0.0668,1.06907 -4.37654,1.80407 -6.58152,1.73725 -2.20497,-0.0668 -6.98241,-1.9043 -7.01582,-2.63929 z"
           style="fill:#c8b7b7;fill-rule:evenodd;stroke:none;stroke-width:0.26458332px;stroke-linecap:butt;stroke-linejoin:miter;stroke-opacity:1" />
        <path
           sodipodi:nodetypes="cssccssssscccssccc"
           inkscape:connector-curvature="0"
           id="path4816"
           transform="scale(0.26458333)"
           d="m 611.76562,386.29492 c -2.26323,0.076 -5.67363,6.87086 -7.4414,7.86524 -2.02027,1.13642 -32.57856,-4.0403 -44.19531,-3.91407 -11.61676,0.12628 -26.89453,16.54249 -26.89453,19.69922 -4.54568,4.9245 -2.65206,6.69069 -1.51563,6.56446 1.13639,-0.12628 4.64591,-4.19907 7.42383,-0.66351 2.77795,3.53552 17.34733,6.4436 37.42411,6.19113 20.07677,-0.25251 23.4028,-7.92255 25.54938,-10.82673 2.14654,-2.90419 15.7185,9.08726 17.99135,5.67801 2.27286,-3.40928 -5.30267,-27.7786 -7.44922,-30.17773 -0.26832,-0.29989 -0.56926,-0.42687 -0.89258,-0.41602 z m -45.30078,10.56055 c 0.95032,-0.021 1.91212,0.005 2.88282,0.084 15.53106,1.26271 24.1179,9.59501 24.24414,11.99414 0.12623,2.3991 -15.40495,10.35586 -25.25391,9.34571 -9.84899,-1.01016 -27.78069,-6.43975 -28.0332,-7.57618 0.23669,-2.60429 11.9054,-13.53227 26.16015,-13.84765 z"
           style="fill:#241f1c;fill-rule:evenodd;stroke:none;stroke-width:0.99999994px;stroke-linecap:butt;stroke-linejoin:miter;stroke-opacity:1" />
        <path
           inkscape:connector-curvature="0"
           id="path4818"
           d="m 142.95579,108.66497 c 0.0668,-0.73499 3.57473,-3.97563 7.684,-3.64155 4.10926,0.33409 6.38106,2.53906 6.41446,3.17383 0.0334,0.63476 -4.07586,2.73951 -6.68173,2.47224 -2.60588,-0.26727 -7.34992,-1.70384 -7.41673,-2.00452 z"
           style="fill:#917c6f;fill-rule:evenodd;stroke:none;stroke-width:0.26458332px;stroke-linecap:butt;stroke-linejoin:miter;stroke-opacity:1" />
        <path
           inkscape:connector-curvature="0"
           id="path4820"
           d="m 124.64782,100.98097 c 0.40091,-0.46772 0.66818,-1.570205 -0.30067,-1.670432 -0.96886,-0.100227 -12.92917,-2.973374 -14.16529,-2.973374 -1.23612,0 -5.67947,1.369756 -5.51243,1.870887 0.16704,0.501131 5.24516,-0.434314 6.64833,-0.03341 1.40316,0.400905 12.66189,3.107009 13.33006,2.806329 z"
           style="fill:#502d16;fill-rule:evenodd;stroke:none;stroke-width:0.26458332px;stroke-linecap:butt;stroke-linejoin:miter;stroke-opacity:1" />
        <path
           inkscape:connector-curvature="0"
           id="path4822"
           d="m 142.48807,102.18369 c 0.13363,-1.1359 6.31424,-3.340874 9.28761,-3.908821 2.97337,-0.567949 7.41673,-1.670436 7.41673,-1.035669 0,0.634764 -4.94449,3.30746 -8.21854,3.97563 -3.27405,0.66818 -7.55036,0.46772 -8.4858,0.96886 z"
           style="fill:#502d16;fill-rule:evenodd;stroke:none;stroke-width:0.26458332px;stroke-linecap:butt;stroke-linejoin:miter;stroke-opacity:1" />
        <path
           inkscape:connector-curvature="0"
           id="circle4826"
           transform="scale(0.26458333)"
           d="m 440.80469,392.39258 c -2.73066,0.0317 -5.70038,0.52042 -8.625,1.26562 a 10.57478,10.57478 0 0 0 -1.82227,5.93164 10.57478,10.57478 0 0 0 10.57422,10.57618 10.57478,10.57478 0 0 0 10.57422,-10.57618 10.57478,10.57478 0 0 0 -1.62109,-5.61523 c -3.06801,-0.99144 -6.20926,-1.6154 -9.08008,-1.58203 z"
           style="fill:#784421;fill-rule:evenodd;stroke:none;stroke-width:2.32633305px;stroke-linecap:butt;stroke-linejoin:miter;stroke-opacity:1" />
        <circle
           r="1.2027128"
           cy="105.72501"
           cx="116.66315"
           id="path4824"
           style="fill:#28170b;fill-rule:evenodd;stroke:none;stroke-width:0.26458332px;stroke-linecap:butt;stroke-linejoin:miter;stroke-opacity:1" />
        <path
           inkscape:connector-curvature="0"
           id="path4828"
           transform="scale(0.26458333)"
           d="m 566.46484,396.85547 c -3.58827,0.0794 -7.00956,0.83477 -10.1289,1.95703 a 12.626906,12.626906 0 0 0 -1.13086,5.19727 12.626906,12.626906 0 0 0 12.62695,12.62695 12.626906,12.626906 0 0 0 12.62695,-12.62695 12.626906,12.626906 0 0 0 -1.08789,-5.0918 c -2.92342,-0.94934 -6.26527,-1.67297 -10.02343,-1.97852 -0.9707,-0.0789 -1.9325,-0.10501 -2.88282,-0.084 z"
           style="fill:#784421;fill-rule:evenodd;stroke:none;stroke-width:0.99999994px;stroke-linecap:butt;stroke-linejoin:miter;stroke-opacity:1" />
        <circle
           style="fill:#28170b;fill-rule:evenodd;stroke:none;stroke-width:0.1042449px;stroke-linecap:butt;stroke-linejoin:miter;stroke-opacity:1"
           id="circle4830"
           cx="150.23888"
           cy="106.89431"
           r="1.3162906" />
        <path
           inkscape:connector-curvature="0"
           id="path4847"
           transform="scale(0.26458333)"
           d="m 475.30273,471.25195 a 9.6428573,9.6428573 0 0 0 -7.80273,9.46289 9.6428573,9.6428573 0 0 0 9.64258,9.64258 9.6428573,9.6428573 0 0 0 9.06445,-6.37695 12.311234,12.311234 0 0 1 -1.19726,-0.19531 8.4544767,8.4544767 0 0 1 -7.86719,5.38281 8.4544767,8.4544767 0 0 1 -8.45508,-8.45313 8.4544767,8.4544767 0 0 1 6.61328,-8.24218 12.311234,12.311234 0 0 1 -0.0234,-0.71875 12.311234,12.311234 0 0 1 0.0254,-0.50196 z"
           style="fill:#450000;fill-opacity:1;fill-rule:evenodd;stroke:none;stroke-width:0.99999994px;stroke-linecap:butt;stroke-linejoin:miter;stroke-opacity:1" />
        <path
           sodipodi:nodetypes="csssccsc"
           inkscape:connector-curvature="0"
           id="path4217"
           d="m 64.679226,171.57353 c 0,0 -8.819896,-2.80633 -22.584275,4.40995 -13.764381,7.21628 -15.902537,18.17433 -17.506155,25.25697 -1.603617,7.08265 -5.211755,22.45064 -3.875408,31.40417 1.336348,8.95353 3.0736,31.93871 3.0736,31.93871 l 30.577128,0 c 0,0 -0.248275,-22.18337 0.820803,-24.5888 1.069078,-2.40542 15.908775,-53.8548 9.494307,-68.421 z"
           style="fill:#cf9063;fill-opacity:1;fill-rule:evenodd;stroke:none;stroke-width:0.26458332px;stroke-linecap:butt;stroke-linejoin:miter;stroke-opacity:1" />
        <path
           inkscape:connector-curvature="0"
           id="path4219"
           d="m 195.10675,169.83628 c 6.28084,1.60362 29.26602,5.07812 33.00779,16.03617 3.74177,10.95806 9.48807,37.81864 8.01809,45.83673 -1.46999,8.01808 -3.74178,32.87415 -3.74178,32.87415 l -26.86059,0 c 0,0 1.06908,-26.32605 -1.46998,-39.42225 -2.53906,-13.09621 -10.42351,-52.2512 -8.95353,-55.3248 z"
           style="fill:#bc713e;fill-opacity:1;fill-rule:evenodd;stroke:none;stroke-width:0.26458332px;stroke-linecap:butt;stroke-linejoin:miter;stroke-opacity:1" />
      </g>
      <g
         style="display:inline"
         inkscape:label="Shirt"
         id="layer4-5">
        <path
           inkscape:connector-curvature="0"
           id="path4222"
           d="m 55.992966,209.79308 c -0.668174,5.07812 -7.617182,26.99422 -8.15172,32.87415 -0.53454,5.87993 0.133633,21.9161 0.133633,21.9161 l 158.357191,0 c 0,0 -0.13363,-44.23311 -2.40542,-49.5785 -2.27179,-5.34539 -4.14268,-11.09168 -4.14268,-16.83798 0,-5.74629 3.60814,-25.92514 1.46998,-26.86058 -2.13815,-0.93545 -32.87415,-4.94449 -39.15498,-5.21176 -6.28084,-0.26727 -2.13816,7.48355 -3.74178,10.95805 -1.60361,3.4745 -9.48806,15.90254 -19.37704,16.30344 -9.88897,0.4009 -25.79151,-1.33635 -31.1369,-9.48807 -5.34539,-8.15172 -7.21627,-14.83346 -10.690778,-18.17432 -3.474503,-3.34087 -35.145943,1.87088 -38.219541,3.20723 -3.073601,1.33635 -0.267271,2.40543 -0.133636,9.6217 0.133636,7.21628 -1.603615,28.19694 -2.806329,31.27054 z"
           style="fill:#392069;fill-opacity:1;fill-rule:evenodd;stroke:none;stroke-width:0.26458332px;stroke-linecap:butt;stroke-linejoin:miter;stroke-opacity:1" />
        <path
           inkscape:connector-curvature="0"
           id="path4224"
           d="m 55.992966,237.32184 c 0.801809,-3.0736 2.53906,12.6953 4.944485,11.49259 2.405425,-1.20272 3.474503,-35.94775 3.34087,-42.62949 -0.133635,-6.68174 -0.935445,-22.31701 1.469983,-23.11882 2.405425,-0.80181 7.216277,42.76313 6.548101,54.38935 -0.668173,11.62623 -7.34991,27.12786 -7.34991,27.12786 l -9.48807,0 c 0,0 -2.53906,-24.85607 0.534541,-27.26149 z"
           style="display:inline;fill:#4c298d;fill-opacity:1;fill-rule:evenodd;stroke:none;stroke-width:0.26458332px;stroke-linecap:butt;stroke-linejoin:miter;stroke-opacity:1" />
        <path
           inkscape:connector-curvature="0"
           id="path4226"
           d="m 76.57272,182.13068 c 0.935443,-0.80181 7.349911,-8.95353 7.349911,-6.94901 0,2.00453 0.133636,15.76891 3.875407,22.45064 3.741775,6.68174 1.870888,8.95353 1.870888,14.56619 0,5.61266 1.336347,12.42803 1.336347,16.43708 0,4.00904 -9.354434,-5.21176 -9.354434,-16.43708 0,-11.22532 1.33635,-20.17885 -1.469983,-23.78699 -2.806329,-3.60813 -4.677214,-4.40994 -3.608136,-6.28083 z"
           style="display:inline;fill:#4c298d;fill-opacity:1;fill-rule:evenodd;stroke:none;stroke-width:0.26458332px;stroke-linecap:butt;stroke-linejoin:miter;stroke-opacity:1" />
        <path
           inkscape:connector-curvature="0"
           id="path4228"
           d="m 98.462797,220.83259 c 2.551343,0.28348 8.693453,6.2366 9.260413,4.53571 0.56697,-1.70089 -6.80357,-20.6942 -6.70907,-24.85193 0.0945,-4.15774 6.61458,-0.56697 8.50446,0.56696 1.88988,1.13393 6.23661,18.52083 9.07143,21.07217 2.83482,2.55134 4.34673,3.77976 4.81919,3.3073 0.47248,-0.47248 -7.843,-19.84375 -7.74851,-22.11161 0.0945,-2.26786 -0.18899,-3.11831 -0.18899,-3.11831 0,0 -6.04761,-0.94494 -11.33928,-6.2366 -5.291667,-5.29167 -10.583334,-11.62277 -11.90625,-15.40253 -1.322917,-3.77977 -5.669643,-4.63021 -5.669643,-2.55134 0,2.07887 5.197174,19.46577 5.197174,23.43452 0,3.96875 6.992559,18.70982 6.709076,21.35566 z"
           style="display:inline;fill:#4c298d;fill-opacity:1;fill-rule:evenodd;stroke:none;stroke-width:0.26458332px;stroke-linecap:butt;stroke-linejoin:miter;stroke-opacity:1" />
        <path
           inkscape:connector-curvature="0"
           id="path4230"
           d="m 131.06324,222.25 c 3.49628,-0.66146 -1.5119,-11.33929 1.22842,-13.89063 2.74033,-2.55134 4.72471,-4.44122 4.72471,-4.44122 0,0 -2.55134,1.51191 -5.95313,1.22842 -3.40178,-0.28348 -5.29166,-1.13392 -5.29166,-1.13392 0,0 6.14211,14.93006 5.29166,18.23735 z"
           style="display:inline;fill:#4c298d;fill-opacity:1;fill-rule:evenodd;stroke:none;stroke-width:0.26458332px;stroke-linecap:butt;stroke-linejoin:miter;stroke-opacity:1" />
        <path
           inkscape:connector-curvature="0"
           id="path4232"
           d="m 149.01711,201.27232 c 1.13393,-1.03944 6.89807,-4.44122 8.69345,-6.4256 1.79539,-1.98437 3.2128,-3.1183 3.2128,-3.1183 0,0 -3.30729,10.01637 -3.30729,14.93006 0,4.91369 -1.41741,12.94568 -0.18899,15.02455 1.22842,2.07887 6.23661,3.40179 6.14212,7.37054 -0.0945,3.96875 -17.10343,15.02455 -18.42634,14.74107 -1.32292,-0.28348 -2.07887,-12.7567 1.60639,-16.72545 3.68527,-3.96875 3.96875,-7.46503 3.68527,-12.37872 -0.28348,-4.91369 -2.26786,-11.62276 -1.41741,-13.41815 z"
           style="display:inline;fill:#4c298d;fill-opacity:1;fill-rule:evenodd;stroke:none;stroke-width:0.26458332px;stroke-linecap:butt;stroke-linejoin:miter;stroke-opacity:1" />
      </g>
      <g
         style="display:inline"
         inkscape:label="Hair"
         id="layer3-7">
        <path
           sodipodi:nodetypes="csscsssscssscsssccsscsssssssscsscsc"
           inkscape:connector-curvature="0"
           id="path4211"
           d="m 95.415221,126.27135 c 0,0 2.991385,14.70654 5.664079,18.44831 2.6727,3.74178 3.15581,8.27864 2.88854,14.29221 -0.26726,6.01356 1.39302,9.23478 1.39302,9.23478 0,0 -2.45684,-5.38616 -2.45684,-8.78795 0,-3.40178 -2.64584,-1.27567 -2.36235,0.51972 0.28348,1.79539 2.22061,6.37835 2.40959,8.97694 0.18899,2.59858 -0.14174,11.71726 -1.74814,13.98511 -1.606395,2.26786 -3.779757,3.63802 -3.779757,3.63802 0,0 5.622397,-4.58296 5.008187,-11.859 -0.61421,-7.27604 -2.03162,-11.38653 -2.882072,-11.19754 -0.850445,0.18899 1.417412,5.05543 0.708702,7.08705 -0.708702,2.03162 -2.551334,4.29948 -2.551334,4.29948 0,0 1.842632,-7.03981 0.141739,-8.31548 -1.700892,-1.27567 -5.05543,0.42523 -5.24442,1.93713 -0.188986,1.51191 1.511906,4.29948 -0.330729,4.77195 -1.842632,0.47247 -19.465774,-1.41741 -19.465774,-1.41741 L 62.271576,148.68638 c 0,0 -3.732514,-5.29167 -7.795757,-4.06324 -4.063244,1.22842 -6.66183,6.18936 -9.591146,5.90588 -2.929316,-0.28349 -3.590774,-2.17337 -3.590774,-2.17337 0,0 4.960937,4.53572 8.173735,-2.26786 3.212796,-6.80357 0.803199,-11.10305 -0.236235,-11.7645 -1.039435,-0.66146 -3.449032,-8.59896 -2.126115,-9.82738 1.322916,-1.22843 9.02418,-3.68527 8.740698,-7.37054 -0.283483,-3.68527 -1.606399,-3.54353 0.850447,-6.00037 2.456844,-2.45685 10.441591,-21.686386 9.213168,-22.86756 -1.228421,-1.181177 -5.338914,1.181174 -6.094865,3.071055 -0.755952,1.889882 -1.937129,4.630209 -3.260045,5.197174 -1.322917,0.566962 -2.456844,0.992187 -2.456844,0.992187 0,0 2.787573,-0.897694 4.488465,-5.480656 1.700893,-4.582961 6.37835,-8.504464 7.9375,-9.449405 1.559153,-0.944939 31.891742,3.590774 31.891742,3.590774 0,0 0.09449,9.07143 -1.086683,11.150298 -1.181174,2.078868 -1.913646,28.942483 -1.913646,28.942483 z"
           style="fill:#121e20;fill-opacity:1;fill-rule:evenodd;stroke:none;stroke-width:0.26458332px;stroke-linecap:butt;stroke-linejoin:miter;stroke-opacity:1" />
        <path
           sodipodi:nodetypes="csssssssscscsscssscsssscssscsssscsssssssc"
           inkscape:connector-curvature="0"
           id="path4209"
           d="m 88.068451,50.837795 c 0,0 6.04762,-3.023809 8.031995,-6.898066 1.984375,-3.874254 12.756694,-5.669642 17.953864,-4.441219 5.19718,1.228424 12.37873,-3.212798 15.78051,-4.724701 3.40179,-1.511906 12.56771,1.606399 16.72545,2.740326 4.15773,1.133928 12.6622,5.764136 18.61532,5.764136 5.95313,0 33.63988,27.970239 35.34078,31.088544 1.70089,3.118302 13.79613,20.410712 12.09523,27.119795 -1.70089,6.70907 -3.96875,25.89136 -1.13392,28.72618 2.83482,2.83483 11.71726,4.63021 11.71726,4.63021 0,0 -12.09524,-1.98437 -9.5439,1.7009 2.55134,3.68526 7.9375,8.78794 7.9375,8.78794 0,0 -12.18973,-7.08705 -12.94569,-2.74032 -0.75595,4.34672 8.22099,4.81919 8.31548,9.73288 0.0945,4.91369 -3.1183,7.37054 -3.1183,7.37054 0,0 2.92931,-2.26786 -2.07887,-4.91369 -5.00819,-2.64584 -5.29167,2.74032 -0.18899,7.08705 5.10268,4.34673 1.70089,15.21354 4.06324,17.10342 2.36236,1.88989 6.14212,4.15774 6.14212,4.15774 0,0 -9.16593,-1.5119 -9.92188,-5.29166 -0.75595,-3.77977 -0.94494,-8.50447 -6.42559,-8.22099 -5.48066,0.28349 -9.07143,-0.18899 -9.07143,2.07887 0,2.26786 5.29167,9.07143 3.49628,13.41816 -1.79539,4.34672 -3.87426,5.57514 -3.87426,5.57514 0,0 3.02381,-2.92931 1.13393,-7.08705 -1.88988,-4.15774 -12.28422,-1.5119 -12.6622,1.32292 -0.37798,2.83482 5.19717,8.03199 3.40178,9.07143 -1.79538,1.03943 -7.843,3.40178 -7.843,3.40178 0,0 6.99256,-4.15774 5.29167,-5.76413 -1.7009,-1.6064 -6.89807,-3.87426 -11.1503,-3.2128 -4.25223,0.66146 -4.25223,-9.26042 -8.50447,-9.73289 -4.25223,-0.47247 -8.50446,5.66964 -10.48884,5.66964 -1.98437,0 -1.41741,-2.45684 -1.41741,-2.45684 0,0 1.03944,3.77976 4.53572,-2.36235 3.49628,-6.14212 -2.45685,-3.2128 -2.83482,-8.22098 -0.37798,-5.00819 -2.36235,-13.98512 0.75595,-19.0878 3.1183,-5.10268 10.39434,-21.07218 10.11086,-28.25372 -0.28348,-7.18155 -0.47247,-26.174854 -1.5119,-29.482145 -1.03944,-3.307292 -27.40605,-32.342673 -32.41424,-32.05919 -5.00818,0.283482 -10.39157,2.388061 -14.07683,3.427495 -3.68527,1.039434 -36.002235,-8.787947 -30.238099,-15.024555 z"
           style="fill:#121e20;fill-opacity:1;fill-rule:evenodd;stroke:none;stroke-width:0.26458332px;stroke-linecap:butt;stroke-linejoin:miter;stroke-opacity:1" />
        <path
           sodipodi:nodetypes="csscssssscssssscsssssscsscsscscscsscssscsssscssssscsssssscssscsssssssscsssc"
           inkscape:connector-curvature="0"
           id="path4865"
           d="m 124.16518,64.633927 c -3.96875,0.188989 -7.83612,1.902684 -9.10565,5.577641 -1.26953,3.674957 0.33409,9.755338 -1.26953,11.024867 -1.60362,1.269532 -2.80633,1.202714 -2.80633,1.202714 0,0 3.60814,-0.801809 3.34087,-3.274052 -0.26727,-2.472243 -0.0668,-7.416728 0.26727,-8.68626 0.33408,-1.269529 -3.94223,2.271792 -4.81085,3.808592 -0.86863,1.536798 -2.27179,4.409946 -0.60136,7.416729 1.67044,3.006783 2.00452,6.481286 -0.46772,7.015824 -2.47224,0.53454 -3.14042,-0.801807 -3.14042,-0.801807 0,0 2.00452,1.202711 3.47451,0.400905 1.46998,-0.801809 1.87088,-2.939966 0.13363,-5.879931 -1.73725,-2.939965 -2.80633,-3.140416 -4.07586,-1.336347 -1.26953,1.80407 -4.27631,4.677217 -3.74177,8.15172 0.53454,3.474503 0.46772,5.879931 -2.13816,7.349911 -2.605876,1.469982 -3.875407,0.200453 -3.875407,0.200453 0,0 1.737251,1.202714 4.34313,-0.868627 2.605877,-2.071338 1.737247,-6.815373 1.269527,-6.815373 -0.46772,0 -6.748552,6.347653 -7.483543,10.958054 -0.734991,4.6104 0.868626,13.56392 0.06682,18.84249 -0.80181,5.27858 1.937704,15.70209 3.340869,21.18112 1.403165,5.47902 4.610394,10.55715 2.672694,13.89801 -1.937703,3.34087 -2.672694,11.75986 -2.672694,11.75986 0,0 0.935442,-4.6104 -2.672696,-4.20949 -3.608139,0.4009 -5.879928,4.6104 -8.485807,4.87767 -2.605878,0.26727 -4.543581,0.8018 -4.543581,0.8018 0,0 5.34539,-1.20271 4.343128,-1.67043 -1.002261,-0.46772 -6.61492,2.93997 -7.951267,3.00678 -1.336349,0.0668 -2.939965,-0.53454 -2.939965,-0.53454 0,0 2.672694,1.60362 5.746295,1.00226 3.073598,-0.60135 11.091685,3.60814 11.091685,3.60814 0,0 -3.073601,-4.34312 -1.269532,-5.94674 1.80407,-1.60362 3.274052,-1.87089 3.274052,-1.87089 0,0 -4.276312,0.86863 -3.073598,3.94222 1.202714,3.07361 6.414468,5.87994 5.746295,9.28762 -0.668174,3.40769 -5.211757,5.87993 -5.211757,5.87993 0,0 4.476766,-3.14042 4.610401,-5.27857 0.133633,-2.13816 -3.006783,-4.27631 -3.942225,-3.0736 -0.935445,1.20271 0.534537,3.40769 -1.80407,4.47676 -2.338609,1.06908 -8.68626,-1.73725 -8.68626,-1.73725 0,0 5.412208,0.73499 3.875408,-2.40543 -1.536801,-3.14041 -9.287616,3.07361 -7.216278,6.74856 2.071339,3.67496 6.681738,6.21402 5.345391,10.02261 -1.336347,3.80859 -5.211755,3.60814 -6.080382,2.33861 -0.868624,-1.26953 2.739514,-3.00679 2.739514,-3.00679 0,0 -2.873147,1.67044 -2.605878,2.33861 0.267269,0.66818 3.073598,2.93997 5.612659,-1.87088 2.539061,-4.81086 -10.623963,-6.74856 -9.621703,-10.42352 1.002261,-3.67495 5.879931,-6.21401 2.405425,-6.41446 -3.474503,-0.20046 -8.084902,1.33634 -7.216277,3.34087 0.868627,2.00452 3.407688,1.60361 3.407688,1.60361 0,0 -5.078122,0.33409 -4.276313,-1.9377 0.80181,-2.27179 -0.734991,-7.75082 -2.472242,-10.08943 -1.737252,-2.33861 -5.545844,-5.67947 -3.808593,-10.42351 1.737252,-4.74403 -1.069078,-8.35217 -1.403164,-7.684 -0.334087,0.66818 -1.336347,5.41221 -5.011304,6.08038 -3.674957,0.66818 -2.605879,4.81086 0.467722,4.94449 3.073599,0.13364 3.674957,-1.46998 3.674957,-1.46998 0,0 -0.133636,2.60588 -4.075861,2.00452 -3.942226,-0.60136 -4.34313,-5.14494 -3.006783,-6.81537 1.336349,-1.67044 -4.877668,1.20271 -4.142677,4.54358 0.734992,3.34087 2.472243,2.73951 2.472243,2.73951 0,0 -5.479026,1.40317 -4.34313,-4.40995 1.135896,-5.81311 10.557147,-7.48354 10.022607,-11.5594 -0.534538,-4.07586 -3.340867,-2.33861 -5.011303,-8.68626 -1.670434,-6.34765 -4.075859,-14.03165 -0.400905,-16.83798 3.674957,-2.80633 11.225321,-3.94223 10.757598,-8.01809 -0.46772,-4.07586 -4.877667,-0.13363 -3.407685,-8.61944 1.469983,-8.485806 7.349911,-16.03617 7.884451,-19.577494 0.534538,-3.541321 -6.748555,-0.200451 -7.216277,4.744035 -0.467723,4.944486 -6.748555,8.68626 -6.748555,8.68626 0,0 4.877667,-3.34087 5.679477,-6.614922 0.801809,-3.274049 1.870887,-8.552624 7.149459,-9.020344 5.278573,-0.467723 4.543581,-13.964833 7.550364,-13.296659 3.006784,0.668173 52.488603,-8.415769 52.069223,-4.642199 z"
           style="fill:#478d8d;fill-opacity:1;fill-rule:evenodd;stroke:none;stroke-width:0.26458332px;stroke-linecap:butt;stroke-linejoin:miter;stroke-opacity:1" />
        <path
           inkscape:connector-curvature="0"
           id="path4178"
           d="m 70.445312,134.843 c -0.09449,-2.45684 -2.315105,-5.81138 1.41741,-6.37835 3.732516,-0.56696 10.630582,-0.99218 10.677829,1.93713 0.04725,2.92932 -0.850448,6.70908 0.472469,8.032 1.322916,1.32291 2.267857,1.5119 2.267857,1.5119 0,0 -2.787573,-1.5119 -2.504093,-5.00818 0.283482,-3.49628 2.126117,-5.85863 4.582962,-5.66964 2.456846,0.18898 3.307291,6.75632 4.488468,10.20535 1.181174,3.44903 3.638021,4.7247 3.638021,4.7247 0,0 -4.063244,-4.15773 -4.110493,-8.88244 -0.04725,-4.7247 6.047621,10.67783 4.819198,10.86682 -1.228424,0.18899 -6.850819,1.13393 -6.898066,-3.07106 -0.04725,-4.20498 -1.653646,-4.39397 -3.590774,-4.39397 -1.937129,0 1.086683,1.27567 0.992187,3.30729 -0.09449,2.03162 -6.142111,-4.25223 -7.181545,-1.93713 -1.039437,2.31511 0.472469,4.96094 -2.031625,3.26005 -2.50409,-1.7009 -8.693451,-4.77195 -7.039805,-8.50447 z"
           style="fill:#004d4d;fill-opacity:1;fill-rule:evenodd;stroke:none;stroke-width:0.26458332px;stroke-linecap:butt;stroke-linejoin:miter;stroke-opacity:1" />
        <path
           inkscape:connector-curvature="0"
           id="path4168"
           d="m 83.910714,85.422617 c -1.322917,3.96875 0.661458,3.118303 -3.023809,5.480656 -3.685268,2.362351 -8.787948,7.181546 -9.07143,11.811757 -0.283483,4.63021 1.228423,6.04762 -1.039434,8.88244 -2.267858,2.83482 -7.087053,4.44122 -6.709077,8.59896 0.377976,4.15774 15.024552,8.78794 15.497024,12.5677 0.472469,3.77977 -1.417412,10.39435 0.472469,12.28423 1.889882,1.88988 8.693452,4.06325 8.693452,4.06325 0,0 -8.882438,-3.02381 -7.748511,-9.44941 1.133928,-6.42559 1.511906,-6.52009 -1.700892,-9.21317 -3.212799,-2.69308 -8.504465,-8.40997 -6.992559,-9.11867 1.511903,-0.70871 5.291666,5.05543 9.02418,5.38616 3.732514,0.33073 6.236608,4.58296 6.189361,7.32328 -0.04725,2.74033 -2.126117,4.67746 -0.614212,7.89026 1.511904,3.2128 3.638021,4.34672 3.638021,4.34672 0,0 -3.449031,-3.49627 -2.645832,-6.80357 0.8032,-3.30729 1.370164,-7.60677 -1.228422,-10.34709 0,0 -14.882813,-9.82738 -12.756697,-12.56771 2.126116,-2.74033 10.299851,-6.00037 10.488839,-8.55171 0.188989,-2.55134 -5.953125,-4.53572 -3.023809,-8.362727 2.929315,-3.827009 6.236605,-12.567712 2.551338,-14.221356 z"
           style="fill:#00e5e5;fill-opacity:1;fill-rule:evenodd;stroke:none;stroke-width:0.26458332px;stroke-linecap:butt;stroke-linejoin:miter;stroke-opacity:1" />
        <path
           inkscape:connector-curvature="0"
           id="path4170"
           d="m 91.517485,100.39992 c 0,2.4096 -0.330729,3.2128 -6.756326,4.91369 -6.425594,1.7009 -13.276413,5.05543 -13.937872,8.88244 -0.661458,3.82701 4.866445,8.07924 8.835195,8.12649 3.968749,0.0472 7.74851,3.49628 8.646204,6.09487 0.897695,2.59858 0.803201,6.89806 0.803201,6.89806 0,0 1.606397,-6.56733 -1.559152,-10.2526 -3.165552,-3.68527 -16.300222,-9.59115 -9.07143,-13.93787 7.228795,-4.34673 17.717635,-7.51228 13.04018,-10.72508 z"
           style="fill:#00b0b0;fill-opacity:1;fill-rule:evenodd;stroke:none;stroke-width:0.26458332px;stroke-linecap:butt;stroke-linejoin:miter;stroke-opacity:1" />
        <path
           inkscape:connector-curvature="0"
           id="path4172"
           d="m 65.531621,120.90513 c -1.181174,2.17337 -4.771948,2.4096 -5.575149,6.09487 -0.803199,3.68527 1.559152,9.82738 2.834822,11.90625 1.27567,2.07887 5.338913,4.48846 4.866444,7.89025 -0.472471,3.40179 -1.27567,5.05543 -1.27567,5.05543 0,0 4.535715,-6.85082 1.41741,-9.35491 -3.118302,-2.50409 -7.984746,-7.37054 -5.905878,-12.70945 2.078871,-5.33891 8.409972,-4.25223 3.638021,-8.88244 z"
           style="fill:#2bffff;fill-opacity:1;fill-rule:evenodd;stroke:none;stroke-width:0.26458332px;stroke-linecap:butt;stroke-linejoin:miter;stroke-opacity:1" />
        <path
           inkscape:connector-curvature="0"
           id="path4174"
           d="m 69.358631,124.16518 c 0,0 -5.10268,2.92931 -4.960938,7.1343 0.14174,4.20498 6.66183,7.46503 7.984747,10.06361 1.322917,2.59859 0.708705,8.31548 2.929316,10.58334 2.220611,2.26785 9.02418,1.65364 10.016368,4.39397 0.992187,2.74033 -0.519716,5.14992 -0.519716,5.14992 0,0 3.260043,-2.92931 0.803198,-6.42559 -2.456844,-3.49628 -10.630579,-0.0472 -9.685639,-5.81138 0.944941,-5.76414 0.755952,-8.55172 -2.22061,-11.85901 -2.976563,-3.30729 -10.205358,-9.78013 -4.346726,-13.22916 z"
           style="fill:#00e5e5;fill-opacity:1;fill-rule:evenodd;stroke:none;stroke-width:0.26458332px;stroke-linecap:butt;stroke-linejoin:miter;stroke-opacity:1" />
        <path
           inkscape:connector-curvature="0"
           id="path4176"
           d="m 61.988096,120.71614 c -1.984375,1.65365 -6.142114,2.17337 -6.331103,4.39398 -0.188987,2.22061 2.929315,2.12611 1.653645,5.76413 -1.275667,3.63802 -4.204983,2.78758 -3.071055,6.4256 1.13393,3.63802 6.803572,4.86644 6.567336,7.55952 -0.236236,2.69308 -3.118302,4.8192 -3.118302,4.8192 0,0 6.80357,-3.54353 2.976562,-7.55953 -3.82701,-4.01599 -5.480656,-5.24441 -3.118305,-8.50446 2.362351,-3.26004 0.283483,-6.09487 3.590774,-9.16592 3.307292,-3.07106 1.889882,-2.4096 0.850448,-3.73252 z"
           style="fill:#008282;fill-opacity:1;fill-rule:evenodd;stroke:none;stroke-width:0.26458332px;stroke-linecap:butt;stroke-linejoin:miter;stroke-opacity:1" />
        <path
           inkscape:connector-curvature="0"
           id="path4180"
           d="m 76.965402,87.973957 c -0.519719,1.748139 -2.55134,5.622396 -8.457219,7.843004 -5.905878,2.220611 -2.787573,11.150299 -0.661458,11.953499 2.126118,0.8032 2.267857,3.02381 2.267857,3.02381 0,0 -1.27567,-1.22842 -4.724701,-4.91369 -3.449034,-3.68527 -0.850448,-9.118678 2.126115,-10.677828 2.976562,-1.559152 7.9375,-4.771951 9.449406,-7.228795 z"
           style="fill:#489d9d;fill-opacity:1;fill-rule:evenodd;stroke:none;stroke-width:0.26458332px;stroke-linecap:butt;stroke-linejoin:miter;stroke-opacity:1" />
        <path
           inkscape:connector-curvature="0"
           id="path4182"
           d="m 75.595238,63.027527 c -3.071058,2.834823 -3.449034,2.976563 -7.60677,5.149927 -4.15774,2.173362 -1.559153,9.685639 -1.559153,9.685639 0,0 -1.700892,-7.276041 1.606399,-9.165923 3.307292,-1.889879 7.843007,-2.031622 7.039806,0.803201 -0.803198,2.83482 -5.433407,7.181548 -4.582962,10.914062 0.850448,3.732514 2.740329,3.827008 2.787576,6.898066 0.04725,3.071056 -1.464659,4.204983 -1.464659,4.204983 0,0 6.000371,-5.008184 4.488468,-6.567334 -1.511906,-1.559152 3.307292,-4.677457 4.960938,-7.512277 1.653645,-2.834823 19.938239,-8.598959 20.835939,-12.189733 0.89769,-3.590774 -0.0473,-19.37128 -5.197175,-19.70201 -5.149924,-0.330729 -8.173736,0.850448 -11.197545,4.582962 -3.023809,3.732514 -5.764136,13.796132 -10.110862,12.898437 z"
           style="fill:#489d9d;fill-opacity:1;fill-rule:evenodd;stroke:none;stroke-width:0.26458332px;stroke-linecap:butt;stroke-linejoin:miter;stroke-opacity:1" />
        <path
           inkscape:connector-curvature="0"
           id="path4184"
           d="m 82.257068,65.011902 c 0,0 2.267858,-2.078868 5.905878,-6.047618 3.638021,-3.96875 3.827008,-10.583333 10.394344,-10.914062 6.56734,-0.330729 19.13505,2.787573 19.18229,6.142111 0.0472,3.354541 -1.74814,15.355284 -9.21317,16.394719 -7.46503,1.039434 -16.772689,1.511905 -20.079981,3.874256 -3.307292,2.362351 -1.511906,-0.519718 -1.086683,-5.575149 0.425225,-5.055431 -4.724702,-3.779763 -5.102678,-3.874257 z"
           style="fill:#1d4040;fill-opacity:1;fill-rule:evenodd;stroke:none;stroke-width:0.26458332px;stroke-linecap:butt;stroke-linejoin:miter;stroke-opacity:1" />
        <path
           inkscape:connector-curvature="0"
           id="path4200"
           d="m 173.30208,70.303569 c 3.77976,6.614583 3.56353,13.271476 3.96443,17.614603 0.40091,4.343131 -0.13363,11.960313 3.54132,15.902538 3.67496,3.94223 6.28084,5.47903 6.28084,5.47903 0,0 -7.75082,-6.41447 -3.80859,-6.54811 3.94222,-0.13363 6.28083,5.41221 5.61266,8.61944 -0.66818,3.20724 -3.20724,4.67722 -0.66818,7.48355 2.53906,2.80633 5.7463,2.6727 4.67722,6.08038 -1.06908,3.40769 -4.14268,4.07586 -4.07586,6.94901 0.0668,2.87315 3.54132,10.49033 3.54132,10.49033 0,0 -4.54358,-12.22758 0.66817,-11.55941 5.21176,0.66818 4.40995,12.49485 2.13816,15.7689 -2.27179,3.27406 -3.94222,4.2095 -3.94222,6.8822 0,2.67269 2.13815,7.21627 2.13815,7.21627 0,0 -3.40769,-8.95353 0.33409,-8.68626 3.74177,0.26727 0.33409,9.15398 2.87315,12.89576 2.53906,3.74177 6.28083,6.48128 6.28083,6.48128 0,0 -6.48129,-6.08038 -6.34765,-9.68852 0.13363,-3.60814 0.66817,-9.02034 -0.73499,-10.82441 -1.40317,-1.80407 1.5368,-8.95353 3.4745,-8.35218 1.9377,0.60136 2.00452,3.94223 2.00452,3.94223 0,0 0.40091,-4.07586 -1.26953,-6.94901 -1.67043,-2.87314 3.0736,-5.34539 0.66818,-9.55488 -2.40543,-4.2095 -3.94223,-2.40543 -4.00905,-5.94675 -0.0668,-3.54132 0.86863,-6.41447 -0.66817,-8.41899 -1.5368,-2.00452 -3.0736,-2.33861 -3.0736,-2.33861 0,0 5.0113,2.53906 5.61266,5.94675 0.60136,3.40769 0.80181,8.55262 4.47676,9.75534 3.67496,1.20271 7.75082,2.80633 7.2831,6.48128 -0.46772,3.67496 -1.87089,5.47903 -1.87089,5.47903 0,0 3.20724,-3.74178 3.14042,-6.74856 -0.0668,-3.00678 -4.81085,-3.67495 -6.21402,-7.55036 -1.40316,-3.87541 -1.00226,-9.48807 -1.00226,-9.48807 0,0 3.14042,7.48355 7.21628,9.88897 4.07586,2.40543 6.61492,2.20497 6.61492,2.20497 0,0 -8.48581,-2.00452 -5.87993,-5.14493 2.60588,-3.14042 7.48355,6.68173 11.35896,9.02034 3.8754,2.33861 9.28761,1.40317 9.28761,1.40317 0,0 -13.22984,-0.60136 -12.02713,-7.21628 1.20272,-6.61492 -4.00904,-10.42351 -4.00904,-10.42351 0,0 6.94901,2.20497 7.41673,4.27631 0.46772,2.07134 0.93544,5.61266 0.93544,5.61266 0,0 0.20046,-6.28083 -1.87089,-8.61944 -2.07133,-2.33861 -5.07812,-1.26953 -5.47902,-4.40995 -0.4009,-3.14041 -0.73499,-6.34765 -3.60814,-6.88219 -2.87314,-0.53454 -4.87767,1.40317 -4.87767,-3.0736 0,-4.476761 -3.34086,-7.08264 -3.34086,-7.08264 0,0 8.95352,0.267269 10.28987,3.4745 1.33635,3.20724 0.93544,8.35218 3.67496,10.49033 2.73951,2.13816 6.88219,1.26953 7.61718,4.14268 0.73499,2.87315 0.20045,7.48355 0.20045,7.48355 0,0 3.14042,-6.1472 -2.27179,-10.49033 -5.41221,-4.34313 -7.34991,-7.88445 -5.14494,-12.093946 2.20497,-4.209497 -1.33635,-10.557148 -4.67721,-12.895755 -3.34087,-2.33861 -7.21628,-0.267271 -8.08491,-5.34539 -0.86862,-5.078121 -0.53454,-7.349913 -3.0736,-9.554887 -2.53906,-2.204974 -7.28309,-2.138156 -9.6217,-6.61492 -2.33861,-4.476765 -3.67496,-8.151722 -7.684,-9.755338 -4.00904,-1.603618 -16.43708,-4.610399 -16.43708,-4.610399 0,0 12.62849,7.082642 12.96258,12.561668 0.33408,5.479023 -2.6727,8.084902 -0.26727,12.093945 2.40542,4.009044 7.95126,6.280833 8.35217,10.690781 0.4009,4.409948 -1.1359,8.485806 1.26953,10.156243 2.40543,1.670433 5.41221,5.813108 5.41221,5.813108 0,0 -4.2095,-3.006779 -8.08491,-6.949004 -3.8754,-3.942226 -6.949,-11.358954 -4.81085,-11.358954 2.13816,0 3.67496,6.614919 3.67496,6.614919 0,0 0.93544,-7.216277 -1.26953,-7.750815 -2.20497,-0.53454 -6.94901,0.200451 -7.95127,-3.942226 -1.00226,-4.142679 -3.58573,-7.566813 -6.83758,-8.527441 z"
           style="fill:#3f8793;fill-opacity:1;fill-rule:evenodd;stroke:none;stroke-width:0.26458332px;stroke-linecap:butt;stroke-linejoin:miter;stroke-opacity:1" />
        <path
           inkscape:connector-curvature="0"
           id="path4188"
           d="m 124.73214,63.972468 c 5.10268,-1.889881 10.77232,3.023809 10.77232,6.425597 0,3.401785 0.85045,5.669642 4.53572,7.087052 3.68527,1.41741 7.65402,-0.850447 7.27604,3.212799 -0.37798,4.063243 -3.2128,8.031993 0.47247,9.16592 3.68527,1.13393 7.65402,0.283483 7.65402,0.283483 0,0 -9.16592,0.472472 -8.12649,-2.740327 1.03943,-3.212798 7.9375,-4.630208 8.59896,-2.078868 0.66146,2.551337 0.18898,9.071427 2.07887,12.378719 1.88988,3.307287 8.12649,4.819197 9.07142,6.803577 0.94494,1.98437 -0.66145,2.92931 0.56697,5.29166 1.22842,2.36235 8.03199,-5.19717 8.03199,-5.19717 0,0 -6.3311,5.29167 -5.29166,2.17336 1.03943,-3.1183 3.96875,-8.976934 2.26785,-14.174104 -1.70089,-5.197174 -4.7247,-4.441222 -3.59077,-11.811757 1.13393,-7.370535 0.85045,-16.536458 -1.98438,-23.718006 -2.83482,-7.181549 -9.4494,-13.32366 -12.75669,-12.756695 -3.30729,0.566962 -3.40179,1.511903 -3.40179,1.511903 0,0 5.38616,-2.456844 7.37054,3.401785 1.98437,5.858632 1.13393,8.220982 1.13393,8.220982 0,0 -3.02381,-9.35491 -10.20536,-11.528274 -7.18155,-2.173361 -11.0558,-0.661458 -13.60714,1.606399 -2.55134,2.267858 -0.56697,5.669643 -4.25224,9.449406 -3.68526,3.779761 -10.67782,4.724702 -6.61458,6.992559 z"
           style="fill:#334949;fill-opacity:1;fill-rule:evenodd;stroke:none;stroke-width:0.26458332px;stroke-linecap:butt;stroke-linejoin:miter;stroke-opacity:1" />
        <path
           inkscape:connector-curvature="0"
           id="path4190"
           d="m 136.63839,37.136159 c 0,0 1.41741,-1.795388 9.35491,-2.267857 7.9375,-0.472469 17.10342,5.953125 22.77307,6.709077 5.66964,0.755954 12.09524,8.504464 15.21354,13.607144 3.1183,5.102678 1.13393,8.126487 4.06324,13.796129 2.92932,5.669643 7.55953,4.252233 7.74851,9.732889 0.18899,5.480653 -3.77976,5.764135 -1.32291,10.110861 2.45684,4.346726 6.52009,6.898066 6.52009,6.898066 0,0 -10.58334,-5.38616 -10.67783,-14.552083 -0.0945,-9.165924 -1.79539,-14.45759 -7.08705,-20.127233 -5.29167,-5.669642 -8.40997,-1.511903 -12.66221,-3.968749 -4.25223,-2.456845 -5.95312,-8.598959 -10.48884,-13.040178 -4.53571,-4.441221 -15.96949,-7.559524 -23.43452,-6.898066 z"
           style="fill:#577b7b;fill-opacity:1;fill-rule:evenodd;stroke:none;stroke-width:0.26458332px;stroke-linecap:butt;stroke-linejoin:miter;stroke-opacity:1" />
        <path
           inkscape:connector-curvature="0"
           id="path4192"
           d="m 121.61384,59.153273 c 0,0 2.07887,-5.575149 -1.88988,-9.354912 -3.96875,-3.779761 -8.40997,-2.740327 -9.6384,-5.764136 -1.22842,-3.023809 -0.66145,-5.575149 -6.80357,-5.575149 -6.14211,0 -8.315474,3.96875 -13.890623,3.874257 -5.575146,-0.0945 -9.071427,-1.13393 -9.071427,-1.13393 0,0 3.212798,4.346725 8.882441,3.401785 5.669642,-0.944939 11.433779,-1.606397 12.662199,1.700895 1.22843,3.307291 3.59078,7.654017 8.22098,8.976934 4.63021,1.322916 12.47322,0.377976 11.52828,3.874256 z"
           style="fill:#2a3333;fill-opacity:1;fill-rule:evenodd;stroke:none;stroke-width:0.26458332px;stroke-linecap:butt;stroke-linejoin:miter;stroke-opacity:1" />
        <path
           inkscape:connector-curvature="0"
           id="path4194"
           d="m 123.22024,50.365326 c 3.40178,-2.078868 5.57515,-3.685267 5.00818,-9.35491 -0.56696,-5.669645 -3.77976,-2.456847 -3.30729,-6.992562 0.47247,-4.535712 8.97693,-3.96875 8.97693,-3.96875 0,0 -8.50446,0.283483 -8.03199,4.535715 0.47247,4.252233 8.78795,2.362351 7.84301,7.559525 -0.94494,5.197173 -7.27604,9.071427 -6.33111,11.71726 0.94495,2.645836 -1.03943,6.047621 -1.70089,6.047621 -0.66146,0 3.2128,-6.803572 -2.45684,-9.543899 z"
           style="fill:#384444;fill-opacity:1;fill-rule:evenodd;stroke:none;stroke-width:0.26458332px;stroke-linecap:butt;stroke-linejoin:miter;stroke-opacity:1" />
        <path
           inkscape:connector-curvature="0"
           id="path4203"
           d="m 174.81399,102.14806 c 0,0 7.65401,5.38616 7.55952,10.77232 -0.0945,5.38616 -3.68527,10.01637 -3.02381,12.8512 0.66146,2.83482 6.61459,8.31547 5.00819,12.09523 -1.6064,3.77976 -9.92188,6.89807 -10.11087,9.82738 -0.18898,2.92932 5.57515,4.44122 6.70908,8.22099 1.13393,3.77976 -0.37798,7.27604 -0.37798,7.27604 0,0 1.98438,-6.4256 -1.70089,-8.032 -3.68527,-1.6064 -8.88244,-5.85863 -6.23661,-8.31547 2.64584,-2.45685 9.16593,-6.23661 7.18155,-9.82738 -1.98437,-3.59078 -7.18155,-5.95313 -5.48065,-8.97694 1.70089,-3.02381 7.65402,-8.78794 5.76413,-12.00074 -1.88988,-3.2128 -5.00818,-6.23661 -4.25223,-8.59896 0.75595,-2.36235 0.66146,-1.32292 -1.03943,-5.29167 z"
           style="fill:#1e4045;fill-opacity:1;fill-rule:evenodd;stroke:none;stroke-width:0.26458332px;stroke-linecap:butt;stroke-linejoin:miter;stroke-opacity:1" />
        <path
           inkscape:connector-curvature="0"
           id="path4205"
           d="m 171.31771,160.45089 c 0,0 -2.36235,3.77976 -1.32292,6.23661 1.03943,2.45684 2.36235,4.63021 1.51191,4.81919 -0.85045,0.18899 -8.31548,-0.28348 -7.74852,-3.1183 0.56697,-2.83482 1.03944,-4.06324 1.03944,-4.06324 0,0 -3.30729,5.66964 -1.88988,7.27604 1.41741,1.6064 6.89806,0.75595 6.2366,3.77976 -0.66145,3.02381 -3.0238,-1.5119 -5.76413,-1.32292 -2.74033,0.18899 -2.07887,7.08706 -3.68527,8.78795 -1.6064,1.70089 -4.15774,4.63021 -4.15774,4.63021 0,0 6.14211,-7.18155 8.88244,-5.57515 2.74033,1.6064 3.59077,4.53571 1.51191,6.99256 -2.07887,2.45684 0,3.87426 2.36235,5.66964 2.36235,1.79539 4.44122,1.03943 2.74032,4.44122 -1.70089,3.40179 -6.80357,3.49628 -6.70907,6.4256 0.0945,2.92931 6.2366,6.89806 6.2366,6.89806 0,0 -5.38616,-5.66964 -4.25223,-7.65402 1.13393,-1.98437 9.63839,-5.66964 6.52009,-8.50446 -3.1183,-2.83482 0.75595,-6.42559 0.75595,-6.42559 0,0 -1.6064,4.91368 1.41741,6.42559 3.02382,1.51191 5.76414,1.03943 5.76414,1.03943 0,0 -3.30729,-0.66145 -2.07887,-4.6302 1.22842,-3.96875 0.85045,-4.63021 -0.0945,-6.70908 -0.94494,-2.07887 -5.57515,3.77976 -5.76414,-1.41741 -0.18899,-5.19717 1.22843,-7.18155 3.40179,-6.3311 2.17336,0.85044 1.98437,6.80357 3.96875,8.59895 1.98437,1.79539 4.63021,1.79539 4.63021,1.79539 0,0 -8.22099,-1.70089 -3.02381,-9.35491 5.19717,-7.65402 2.83482,5.19717 5.48065,6.61459 2.64584,1.41741 6.80357,5.19717 4.91369,7.46502 -1.88988,2.26786 -8.31548,2.45685 -6.2366,4.91369 2.07886,2.45685 13.22916,2.07887 13.04017,6.04762 -0.18899,3.96875 -4.81919,8.69346 -4.81919,8.69346 0,0 8.31547,-5.48066 6.61458,-9.07143 -1.70089,-3.59078 -13.41815,-5.95313 -9.73289,-8.22099 3.68527,-2.26785 3.87426,-3.77976 1.7009,-7.55952 -2.17337,-3.77976 -5.48066,-0.0945 -5.38616,-5.76413 0.0945,-5.66965 -3.3073,-10.96131 -3.3073,-10.96131 0,0 6.04762,7.74851 10.01637,8.40997 3.96875,0.66145 11.62277,1.03943 11.71727,6.42559 0.0945,5.38616 -3.87426,9.63839 -2.17337,13.60714 1.70089,3.96875 6.70908,6.52009 9.5439,6.70908 2.83482,0.18899 6.89807,0.18899 6.89807,0.18899 0,0 -16.91444,-1.22842 -14.2686,-7.46503 2.64583,-6.23661 8.22098,-13.89063 1.70089,-18.14286 -6.52009,-4.25223 -15.40253,-2.55134 -16.34747,-7.46503 -0.94494,-4.91369 -0.47247,-5.85863 -6.52009,-6.04762 -6.04762,-0.18898 -12.85119,0.66146 -13.32366,-7.08705 z"
           style="fill:#1e4045;fill-opacity:1;fill-rule:evenodd;stroke:none;stroke-width:0.26458332px;stroke-linecap:butt;stroke-linejoin:miter;stroke-opacity:1" />
        <path
           inkscape:connector-curvature="0"
           id="path4207"
           d="m 200.70535,154.0253 c 0,0 0.18899,7.18154 3.49629,10.20535 3.30729,3.02381 6.70907,6.61458 5.57514,10.11087 -1.13393,3.49628 -1.88988,5.19717 -1.88988,5.19717 0,0 2.07887,-5.48066 4.44122,-5.19717 2.36236,0.28348 -3.77976,6.42559 0,8.88244 3.77977,2.45684 11.62277,3.87425 11.71727,7.843 0.0945,3.96875 -0.75596,7.18155 -0.75596,7.18155 0,0 5.38616,-8.88244 -0.47247,-12.28423 -5.85863,-3.40178 -11.52827,-1.22842 -10.39434,-5.76413 1.13393,-4.53572 6.89806,-10.48884 4.91369,-14.3631 -1.98438,-3.87425 -8.31548,3.02381 -8.31548,-0.18899 0,-3.21279 -4.63021,-0.66145 -4.91369,-5.38616 -0.28348,-4.7247 -3.40179,-6.2366 -3.40179,-6.2366 z"
           style="fill:#2a5960;fill-opacity:1;fill-rule:evenodd;stroke:none;stroke-width:0.26458332px;stroke-linecap:butt;stroke-linejoin:miter;stroke-opacity:1" />
        <path
           inkscape:connector-curvature="0"
           id="path4241"
           d="m 126.10231,205.43006 c 0.66146,-0.94494 21.35565,-19.51302 23.48177,-22.11161 2.12611,-2.59859 7.98474,-9.26042 7.55952,-9.82738 -0.42522,-0.56696 -1.88988,1.22842 -4.25223,4.06324 -2.36235,2.83482 -26.26935,26.55283 -27.07255,26.55283 -0.8032,0 -17.43415,-20.45796 -20.17447,-23.71801 -2.74033,-3.26004 -6.425601,-14.31584 -6.89807,-14.12685 -0.472472,0.18898 4.39397,13.51264 7.37053,16.81993 2.97657,3.3073 17.95387,22.53684 19.9855,22.34785 z"
           style="display:inline;fill:#110920;fill-opacity:1;fill-rule:evenodd;stroke:none;stroke-width:0.26458332px;stroke-linecap:butt;stroke-linejoin:miter;stroke-opacity:1" />
      </g>
      <path
         id="path4234"
         transform="scale(0.26458333)"
         d="m 479.64258,778.92773 a 66.785715,66.785715 0 0 0 -66.78516,66.78711 66.785715,66.785715 0 0 0 66.78516,66.78516 66.785715,66.785715 0 0 0 66.78515,-66.78516 66.785715,66.785715 0 0 0 -66.78515,-66.78711 z m 0,5.31836 a 61.468383,61.468383 0 0 1 61.46875,61.46875 61.468383,61.468383 0 0 1 -61.46875,61.46875 61.468383,61.468383 0 0 1 -61.46875,-61.46875 61.468383,61.468383 0 0 1 61.46875,-61.46875 z"
         style="fill:#886226;fill-opacity:1;fill-rule:evenodd;stroke:none;stroke-width:0.99999994px;stroke-linecap:butt;stroke-linejoin:miter;stroke-opacity:1"
         inkscape:connector-curvature="0" />
      <path
         inkscape:connector-curvature="0"
         id="path4239"
         d="m 125.11012,207.41443 c 0.37798,0.28348 1.18117,0.47247 1.55915,0.14174 0.37798,-0.33073 0.51972,-2.4096 -0.0472,-2.4096 -0.56696,0 -1.65364,-0.0945 -1.70089,0.51972 -0.0473,0.61421 0.0472,1.65365 0.18899,1.74814 z"
         style="fill:#110920;fill-opacity:1;fill-rule:evenodd;stroke:none;stroke-width:0.26458332px;stroke-linecap:butt;stroke-linejoin:miter;stroke-opacity:1" />
    </g>
  </g>
  <g
     inkscape:groupmode="layer"
     id="layer2"
     inkscape:label="Orange Banner">
    <rect
       style="opacity:1;fill:#de3d2d;fill-opacity:1;stroke:none;stroke-width:11.03082752;stroke-miterlimit:4;stroke-dasharray:none;stroke-opacity:1"
       id="rect4144"
       width="338.66669"
       height="43.65625"
       x="0"
       y="146.84375" />
  </g>
  <g
     inkscape:label="Blue Banner"
     id="g4203"
     inkscape:groupmode="layer"
     style="display:none">
    <rect
       y="146.84375"
       x="0"
       height="43.65625"
       width="338.66669"
       id="rect4205"
       style="opacity:1;fill:#407d93;fill-opacity:1;stroke:none;stroke-width:11.03082752;stroke-miterlimit:4;stroke-dasharray:none;stroke-opacity:1" />
  </g>
  <g
     inkscape:groupmode="layer"
     id="layer3"
     inkscape:label="Discover"
     style="display:inline">
    <text
       xml:space="preserve"
       style="font-style:normal;font-variant:normal;font-weight:normal;font-stretch:normal;font-size:24.31099701px;line-height:125%;font-family:Museo;-inkscape-font-specification:'Museo, Normal';text-align:start;letter-spacing:0px;word-spacing:0px;writing-mode:lr-tb;text-anchor:start;fill:#ffffff;fill-opacity:1;stroke:none;stroke-width:0.6077776px;stroke-linecap:butt;stroke-linejoin:miter;stroke-opacity:1"
       x="139.03394"
       y="45.417717"
       id="text4147"
       sodipodi:linespacing="125%"><tspan
         sodipodi:role="line"
         id="tspan4164"
         x="139.03394"
         y="45.417717"
         style="stroke-width:0.6077776px">DISCOVER:</tspan></text>
  </g>
  <g
     inkscape:label="Interview"
     id="g4209"
     inkscape:groupmode="layer"
     style="display:none">
    <text
       sodipodi:linespacing="125%"
       id="text4211"
       y="40.767208"
       x="173.85484"
       style="font-style:normal;font-variant:normal;font-weight:normal;font-stretch:normal;font-size:20.26743698px;line-height:125%;font-family:Museo;-inkscape-font-specification:'Museo, Normal';text-align:start;letter-spacing:0px;word-spacing:0px;writing-mode:lr-tb;text-anchor:start;fill:#ffffff;fill-opacity:1;stroke:none;stroke-width:0.50668812px;stroke-linecap:butt;stroke-linejoin:miter;stroke-opacity:1"
       xml:space="preserve"><tspan
         id="tspan4213"
         sodipodi:role="line"
         x="173.85484"
         y="40.767208">INTERVIEW:</tspan></text>
  </g>
  <g
     inkscape:groupmode="layer"
     id="layer4"
     inkscape:label="Artist Name">
    <text
       xml:space="preserve"
       style="font-style:normal;font-variant:normal;font-weight:600;font-stretch:normal;font-size:40.8548851px;line-height:100%;font-family:Museo;-inkscape-font-specification:'Museo, Semi-Bold';text-align:start;letter-spacing:0px;word-spacing:0px;writing-mode:lr-tb;text-anchor:start;fill:#ffffff;fill-opacity:1;stroke:none;stroke-width:1.02136326px;stroke-linecap:butt;stroke-linejoin:miter;stroke-opacity:1"
       x="139.54128"
       y="81.243225"
       id="text4158"
       sodipodi:linespacing="100%"><tspan
         sodipodi:role="line"
         x="139.54128"
         y="81.243225"
         style="font-style:normal;font-variant:normal;font-weight:600;font-stretch:normal;font-size:40.8548851px;line-height:100%;font-family:Museo;-inkscape-font-specification:'Museo, Semi-Bold';text-align:start;writing-mode:lr-tb;text-anchor:start;fill:#ffffff;fill-opacity:1;stroke-width:1.02136326px"
         id="tspan4233">Julie Slick</tspan></text>
  </g>
  <g
     inkscape:groupmode="layer"
     id="layer6"
     inkscape:label="WEIRD">
    <path
       style="opacity:1;fill:#ffffff;fill-opacity:1;stroke:none;stroke-width:17.2258606;stroke-miterlimit:4;stroke-dasharray:none;stroke-opacity:1"
       d="M 245.3457 602.625 L 245.3457 672.625 L 495.3457 672.625 L 495.3457 602.625 L 245.3457 602.625 z M 254.20703 613.5 L 258.08398 613.5 C 261.48345 613.5 263.18217 614.17987 263.99805 617.44336 L 271.4082 648.31055 C 272.02011 650.89414 272.36133 653.41016 272.36133 653.41016 L 272.49609 653.41016 C 272.49609 653.41016 272.90446 650.96213 273.65234 648.31055 L 283.30664 613.63477 L 289.42578 613.63477 L 298.40039 648.31055 C 299.08028 650.96213 299.41992 653.41016 299.41992 653.41016 L 299.55664 653.41016 C 299.55664 653.41016 299.8295 650.89414 300.44141 648.31055 L 307.98828 617.44336 C 308.80415 614.17987 310.43452 613.5 313.83398 613.5 L 317.70898 613.5 L 317.70898 619.3457 L 316.68945 619.3457 C 315.46565 619.3457 314.71885 619.61799 314.37891 620.8418 L 303.83984 661.5 L 295.95312 661.5 L 287.79492 631.17773 C 286.97905 628.05022 286.43555 624.58203 286.43555 624.58203 L 286.29883 624.58203 C 286.29883 624.58203 285.61824 628.04985 284.73438 631.10938 L 276.0332 661.5 L 268.07812 661.5 L 257.53906 620.8418 C 257.19912 619.61799 256.45232 619.3457 255.22852 619.3457 L 254.20703 619.3457 L 254.20703 613.5 z M 326.5 613.5 L 354.7168 613.5 C 357.77632 613.5 359.06641 614.79204 359.06641 617.85156 L 359.06641 623.90234 L 352.88086 623.90234 L 352.88086 620.8418 C 352.88086 619.82196 352.33662 619.3457 351.38477 619.3457 L 337.71875 619.3457 L 337.71875 634.37305 L 354.51172 634.37305 L 354.51172 640.21875 L 337.71875 640.21875 L 337.71875 654.15625 C 337.71875 655.1081 338.26299 655.65234 339.21484 655.65234 L 353.2207 655.65234 C 354.17255 655.65234 354.7168 655.1081 354.7168 654.15625 L 354.7168 651.09766 L 360.9707 651.09766 L 360.9707 657.14844 C 360.9707 660.20796 359.67866 661.5 356.61914 661.5 L 335.27148 661.5 C 332.21196 661.5 330.91992 660.20796 330.91992 657.14844 L 330.91992 619.3457 L 326.5 619.3457 L 326.5 613.5 z M 370.41406 613.5 L 386.25586 613.5 L 386.25586 619.3457 L 381.56445 619.3457 L 381.56445 655.65234 L 386.25586 655.65234 L 386.25586 661.5 L 370.41406 661.5 L 370.41406 655.65234 L 375.10547 655.65234 L 375.10547 619.3457 L 370.41406 619.3457 L 370.41406 613.5 z M 396.6543 613.5 L 417.5957 613.5 C 426.02638 613.5 431.94141 618.80359 431.94141 627.57422 C 431.94141 635.59696 426.70611 639.53923 423.30664 640.28711 L 423.30664 640.42383 C 423.30664 640.42383 424.52983 641.03585 425.3457 642.59961 L 431.125 654.08984 C 431.80489 655.51762 432.89365 655.65234 434.52539 655.65234 L 435.4082 655.65234 L 435.4082 661.5 L 432.07812 661.5 C 428.33871 661.5 426.97782 661.02399 425.41406 657.89648 L 418.88672 644.97852 C 417.66291 642.73487 416.78049 642.39453 414.12891 642.39453 L 407.87305 642.39453 L 407.87305 661.5 L 401.07422 661.5 L 401.07422 619.3457 L 396.6543 619.3457 L 396.6543 613.5 z M 443.75 613.5 L 463.19531 613.5 C 477.81302 613.5 487.4668 622.27002 487.4668 637.43164 C 487.4668 652.66125 477.81302 661.5 463.19531 661.5 L 452.51953 661.5 C 449.46001 661.5 448.16992 660.20796 448.16992 657.14844 L 448.16992 619.3457 L 443.75 619.3457 L 443.75 613.5 z M 407.87305 619.3457 L 407.87305 636.54883 L 416.71094 636.54883 C 421.87813 636.54883 424.9375 633.21686 424.9375 627.8457 C 424.9375 622.47455 421.87887 619.3457 416.84766 619.3457 L 407.87305 619.3457 z M 454.96875 619.3457 L 454.96875 654.15625 C 454.96875 655.1081 455.51299 655.65234 456.46484 655.65234 L 462.71875 655.65234 C 473.39308 655.65234 480.39648 649.26179 480.39648 637.43164 C 480.39648 625.66949 473.32509 619.3457 462.71875 619.3457 L 454.96875 619.3457 z "
       transform="scale(0.26458334)"
       id="rect4172" />
  </g>
  <g
     inkscape:groupmode="layer"
     id="layer7"
     inkscape:label="MAKE">
    <text
       xml:space="preserve"
       style="font-style:normal;font-variant:normal;font-weight:normal;font-stretch:normal;font-size:17.99166679px;line-height:100%;font-family:Museo;-inkscape-font-specification:'Museo, Normal';text-align:start;letter-spacing:0px;word-spacing:0px;writing-mode:lr-tb;text-anchor:start;fill:#ffffff;fill-opacity:1;stroke:none;stroke-width:0.26458335px;stroke-linecap:butt;stroke-linejoin:miter;stroke-opacity:1"
       x="10.690782"
       y="175.02188"
       id="text4175"
       sodipodi:linespacing="100%"><tspan
         sodipodi:role="line"
         id="tspan4177"
         x="10.690782"
         y="175.02188"
         style="font-style:normal;font-variant:normal;font-weight:normal;font-stretch:normal;font-size:17.99166679px;line-height:100%;font-family:Museo;-inkscape-font-specification:'Museo, Normal';text-align:start;writing-mode:lr-tb;text-anchor:start;fill:#ffffff;fill-opacity:1;stroke-width:0.26458335px;letter-spacing:1.32291669px">MAKE</tspan></text>
  </g>
  <g
     inkscape:groupmode="layer"
     id="layer8"
     inkscape:label="MUSIC">
    <text
       xml:space="preserve"
       style="font-style:normal;font-variant:normal;font-weight:normal;font-stretch:normal;font-size:17.99166679px;line-height:100%;font-family:Museo;-inkscape-font-specification:'Museo, Normal';text-align:start;letter-spacing:0px;word-spacing:0px;writing-mode:lr-tb;text-anchor:start;fill:#ffffff;fill-opacity:1;stroke:none;stroke-width:0.26458335px;stroke-linecap:butt;stroke-linejoin:miter;stroke-opacity:1"
       x="134.21758"
       y="174.80598"
       id="text4180"
       sodipodi:linespacing="100%"><tspan
         sodipodi:role="line"
         id="tspan4182"
         x="134.21758"
         y="174.80598"
         style="font-style:normal;font-variant:normal;font-weight:normal;font-stretch:normal;font-size:17.99166679px;line-height:100%;font-family:Museo;-inkscape-font-specification:'Museo, Normal';text-align:start;writing-mode:lr-tb;text-anchor:start;fill:#ffffff;fill-opacity:1;stroke-width:0.26458335px">MUSIC</tspan></text>
  </g>
</svg>
