<?xml version="1.0" encoding="UTF-8" standalone="no"?>
<!-- Created with Inkscape (http://www.inkscape.org/) -->

<svg
   xmlns:dc="http://purl.org/dc/elements/1.1/"
   xmlns:cc="http://creativecommons.org/ns#"
   xmlns:rdf="http://www.w3.org/1999/02/22-rdf-syntax-ns#"
   xmlns:svg="http://www.w3.org/2000/svg"
   xmlns="http://www.w3.org/2000/svg"
   xmlns:sodipodi="http://sodipodi.sourceforge.net/DTD/sodipodi-0.dtd"
   xmlns:inkscape="http://www.inkscape.org/namespaces/inkscape"
   width="1280"
   height="720"
   viewBox="0 0 338.66666 190.50001"
   id="svg2"
   version="1.1"
   inkscape:version="0.92.1 r15371"
   sodipodi:docname="weasel-shake-video-thumbnail.svg"
   inkscape:export-filename="C:\Users\Anthony Garone\Documents\GitHub\art\robbie-seahag\cupcake\cupcake-video-thumbnail.png"
   inkscape:export-xdpi="144"
   inkscape:export-ydpi="144">
  <defs
     id="defs4">
    <linearGradient
       id="linearGradient5609">
      <stop
         id="stop5611"
         offset="0"
         style="stop-color:#e8cb8e;stop-opacity:1;" />
      <stop
         id="stop5613"
         offset="1"
         style="stop-color:#d0b16e;stop-opacity:1;" />
    </linearGradient>
  </defs>
  <sodipodi:namedview
     id="base"
     pagecolor="#ffffff"
     bordercolor="#666666"
     borderopacity="1.0"
     inkscape:pageopacity="0.0"
     inkscape:pageshadow="2"
     inkscape:zoom="0.7"
     inkscape:cx="351.72484"
     inkscape:cy="317.56339"
     inkscape:document-units="px"
     inkscape:current-layer="layer4"
     showgrid="false"
     units="px"
     inkscape:window-width="1920"
     inkscape:window-height="1017"
     inkscape:window-x="-8"
     inkscape:window-y="-8"
     inkscape:window-maximized="1" />
  <metadata
     id="metadata7">
    <rdf:RDF>
      <cc:Work
         rdf:about="">
        <dc:format>image/svg+xml</dc:format>
        <dc:type
           rdf:resource="http://purl.org/dc/dcmitype/StillImage" />
        <dc:title />
      </cc:Work>
    </rdf:RDF>
  </metadata>
  <g
     inkscape:label="Gray BG"
     inkscape:groupmode="layer"
     id="layer1"
     transform="translate(0,-106.49999)">
    <rect
       style="opacity:1;fill:#6c757b;fill-opacity:1;stroke:none;stroke-width:16.0535984;stroke-miterlimit:4;stroke-dasharray:none;stroke-opacity:1"
       id="rect4141"
       width="338.66669"
       height="190.5"
       x="1.4210855e-14"
       y="106.49999" />
  </g>
  <g
     inkscape:groupmode="layer"
     id="layer2"
     inkscape:label="Orange Banner">
    <rect
       style="opacity:1;fill:#de3d2d;fill-opacity:1;stroke:none;stroke-width:11.03082752;stroke-miterlimit:4;stroke-dasharray:none;stroke-opacity:1"
       id="rect4144"
       width="338.66669"
       height="43.65625"
       x="0"
       y="146.84375" />
  </g>
  <g
     inkscape:label="Blue Banner"
     id="g4203"
     inkscape:groupmode="layer">
    <rect
       y="146.84375"
       x="0"
       height="43.65625"
       width="338.66669"
       id="rect4205"
       style="opacity:1;fill:#f9a134;fill-opacity:1;stroke:none;stroke-width:11.03082752;stroke-miterlimit:4;stroke-dasharray:none;stroke-opacity:1" />
  </g>
  <g
     inkscape:groupmode="layer"
     id="layer3"
     inkscape:label="Discover"
     style="display:none">
    <text
       xml:space="preserve"
       style="font-style:normal;font-variant:normal;font-weight:normal;font-stretch:normal;line-height:0%;font-family:Museo;-inkscape-font-specification:'Museo, Normal';text-align:start;letter-spacing:0px;word-spacing:0px;writing-mode:lr-tb;text-anchor:start;fill:#ffffff;fill-opacity:1;stroke:none;stroke-width:0.50668812px;stroke-linecap:butt;stroke-linejoin:miter;stroke-opacity:1"
       x="173.85484"
       y="40.767208"
       id="text4147"><tspan
         sodipodi:role="line"
         id="tspan4164"
         x="173.85484"
         y="40.767208"
         style="font-size:20.26743698px;line-height:1.25">DISCOVER:</tspan></text>
  </g>
  <g
     inkscape:label="Interview"
     id="g4209"
     inkscape:groupmode="layer">
    <text
       id="text4211"
       y="39.388783"
       x="125.02122"
       style="font-style:normal;font-variant:normal;font-weight:normal;font-stretch:normal;line-height:0%;font-family:Museo;-inkscape-font-specification:'Museo, Normal';text-align:start;letter-spacing:0px;word-spacing:0px;writing-mode:lr-tb;text-anchor:start;fill:#ffffff;fill-opacity:1;stroke:none;stroke-width:0.51923227px;stroke-linecap:butt;stroke-linejoin:miter;stroke-opacity:1"
       xml:space="preserve"><tspan
         id="tspan4213"
         sodipodi:role="line"
         x="125.02122"
         y="39.388783"
         style="font-size:20.76920128px;line-height:1.25;stroke-width:0.51923227px">SHARE:</tspan></text>
  </g>
  <g
     inkscape:groupmode="layer"
     id="layer4"
     inkscape:label="Artist Name">
    <text
       xml:space="preserve"
       style="font-style:normal;font-variant:normal;font-weight:600;font-stretch:normal;line-height:0%;font-family:Museo;-inkscape-font-specification:'Museo, Semi-Bold';text-align:start;letter-spacing:0px;word-spacing:0px;writing-mode:lr-tb;text-anchor:start;fill:#ffffff;fill-opacity:1;stroke:none;stroke-width:0.62688506px;stroke-linecap:butt;stroke-linejoin:miter;stroke-opacity:1"
       x="125.51048"
       y="62.931458"
       id="text4158"><tspan
         sodipodi:role="line"
         x="125.51048"
         y="62.931458"
         style="font-style:normal;font-variant:normal;font-weight:600;font-stretch:normal;font-size:25.07562065px;line-height:100%;font-family:Museo;-inkscape-font-specification:'Museo, Semi-Bold';text-align:start;writing-mode:lr-tb;text-anchor:start;fill:#ffffff;fill-opacity:1;stroke-width:0.62688506px"
         id="tspan4370">&quot;Cupcake&quot;</tspan><tspan
         sodipodi:role="line"
         x="125.51048"
         y="88.00708"
         style="font-style:normal;font-variant:normal;font-weight:600;font-stretch:normal;font-size:25.07562065px;line-height:100%;font-family:Museo;-inkscape-font-specification:'Museo, Semi-Bold';text-align:start;writing-mode:lr-tb;text-anchor:start;fill:#ffffff;fill-opacity:1;stroke-width:0.62688506px"
         id="tspan4367">with Robbie</tspan><tspan
         sodipodi:role="line"
         x="125.51048"
         y="113.0827"
         style="font-style:normal;font-variant:normal;font-weight:600;font-stretch:normal;font-size:25.07562065px;line-height:100%;font-family:Museo;-inkscape-font-specification:'Museo, Semi-Bold';text-align:start;writing-mode:lr-tb;text-anchor:start;fill:#ffffff;fill-opacity:1;stroke-width:0.62688506px"
         id="tspan4371">Seahag Mangano</tspan></text>
  </g>
  <g
     inkscape:groupmode="layer"
     id="layer6"
     inkscape:label="WEIRD">
    <path
       style="opacity:1;fill:#ffffff;fill-opacity:1;stroke:none;stroke-width:17.2258606;stroke-miterlimit:4;stroke-dasharray:none;stroke-opacity:1"
       d="M 245.3457 602.625 L 245.3457 672.625 L 495.3457 672.625 L 495.3457 602.625 L 245.3457 602.625 z M 254.20703 613.5 L 258.08398 613.5 C 261.48345 613.5 263.18217 614.17987 263.99805 617.44336 L 271.4082 648.31055 C 272.02011 650.89414 272.36133 653.41016 272.36133 653.41016 L 272.49609 653.41016 C 272.49609 653.41016 272.90446 650.96213 273.65234 648.31055 L 283.30664 613.63477 L 289.42578 613.63477 L 298.40039 648.31055 C 299.08028 650.96213 299.41992 653.41016 299.41992 653.41016 L 299.55664 653.41016 C 299.55664 653.41016 299.8295 650.89414 300.44141 648.31055 L 307.98828 617.44336 C 308.80415 614.17987 310.43452 613.5 313.83398 613.5 L 317.70898 613.5 L 317.70898 619.3457 L 316.68945 619.3457 C 315.46565 619.3457 314.71885 619.61799 314.37891 620.8418 L 303.83984 661.5 L 295.95312 661.5 L 287.79492 631.17773 C 286.97905 628.05022 286.43555 624.58203 286.43555 624.58203 L 286.29883 624.58203 C 286.29883 624.58203 285.61824 628.04985 284.73438 631.10938 L 276.0332 661.5 L 268.07812 661.5 L 257.53906 620.8418 C 257.19912 619.61799 256.45232 619.3457 255.22852 619.3457 L 254.20703 619.3457 L 254.20703 613.5 z M 326.5 613.5 L 354.7168 613.5 C 357.77632 613.5 359.06641 614.79204 359.06641 617.85156 L 359.06641 623.90234 L 352.88086 623.90234 L 352.88086 620.8418 C 352.88086 619.82196 352.33662 619.3457 351.38477 619.3457 L 337.71875 619.3457 L 337.71875 634.37305 L 354.51172 634.37305 L 354.51172 640.21875 L 337.71875 640.21875 L 337.71875 654.15625 C 337.71875 655.1081 338.26299 655.65234 339.21484 655.65234 L 353.2207 655.65234 C 354.17255 655.65234 354.7168 655.1081 354.7168 654.15625 L 354.7168 651.09766 L 360.9707 651.09766 L 360.9707 657.14844 C 360.9707 660.20796 359.67866 661.5 356.61914 661.5 L 335.27148 661.5 C 332.21196 661.5 330.91992 660.20796 330.91992 657.14844 L 330.91992 619.3457 L 326.5 619.3457 L 326.5 613.5 z M 370.41406 613.5 L 386.25586 613.5 L 386.25586 619.3457 L 381.56445 619.3457 L 381.56445 655.65234 L 386.25586 655.65234 L 386.25586 661.5 L 370.41406 661.5 L 370.41406 655.65234 L 375.10547 655.65234 L 375.10547 619.3457 L 370.41406 619.3457 L 370.41406 613.5 z M 396.6543 613.5 L 417.5957 613.5 C 426.02638 613.5 431.94141 618.80359 431.94141 627.57422 C 431.94141 635.59696 426.70611 639.53923 423.30664 640.28711 L 423.30664 640.42383 C 423.30664 640.42383 424.52983 641.03585 425.3457 642.59961 L 431.125 654.08984 C 431.80489 655.51762 432.89365 655.65234 434.52539 655.65234 L 435.4082 655.65234 L 435.4082 661.5 L 432.07812 661.5 C 428.33871 661.5 426.97782 661.02399 425.41406 657.89648 L 418.88672 644.97852 C 417.66291 642.73487 416.78049 642.39453 414.12891 642.39453 L 407.87305 642.39453 L 407.87305 661.5 L 401.07422 661.5 L 401.07422 619.3457 L 396.6543 619.3457 L 396.6543 613.5 z M 443.75 613.5 L 463.19531 613.5 C 477.81302 613.5 487.4668 622.27002 487.4668 637.43164 C 487.4668 652.66125 477.81302 661.5 463.19531 661.5 L 452.51953 661.5 C 449.46001 661.5 448.16992 660.20796 448.16992 657.14844 L 448.16992 619.3457 L 443.75 619.3457 L 443.75 613.5 z M 407.87305 619.3457 L 407.87305 636.54883 L 416.71094 636.54883 C 421.87813 636.54883 424.9375 633.21686 424.9375 627.8457 C 424.9375 622.47455 421.87887 619.3457 416.84766 619.3457 L 407.87305 619.3457 z M 454.96875 619.3457 L 454.96875 654.15625 C 454.96875 655.1081 455.51299 655.65234 456.46484 655.65234 L 462.71875 655.65234 C 473.39308 655.65234 480.39648 649.26179 480.39648 637.43164 C 480.39648 625.66949 473.32509 619.3457 462.71875 619.3457 L 454.96875 619.3457 z "
       transform="scale(0.26458334)"
       id="rect4172" />
  </g>
  <g
     inkscape:groupmode="layer"
     id="layer7"
     inkscape:label="MAKE">
    <text
       xml:space="preserve"
       style="font-style:normal;font-variant:normal;font-weight:normal;font-stretch:normal;line-height:0%;font-family:Museo;-inkscape-font-specification:'Museo, Normal';text-align:start;letter-spacing:0px;word-spacing:0px;writing-mode:lr-tb;text-anchor:start;fill:#ffffff;fill-opacity:1;stroke:none;stroke-width:0.26458335px;stroke-linecap:butt;stroke-linejoin:miter;stroke-opacity:1"
       x="10.690782"
       y="175.02188"
       id="text4175"><tspan
         sodipodi:role="line"
         id="tspan4177"
         x="10.690782"
         y="175.02188"
         style="font-style:normal;font-variant:normal;font-weight:normal;font-stretch:normal;font-size:17.99166679px;line-height:100%;font-family:Museo;-inkscape-font-specification:'Museo, Normal';text-align:start;letter-spacing:1.32291675px;writing-mode:lr-tb;text-anchor:start;fill:#ffffff;fill-opacity:1;stroke-width:0.26458335px">MAKE</tspan></text>
  </g>
  <g
     inkscape:groupmode="layer"
     id="layer8"
     inkscape:label="MUSIC">
    <text
       xml:space="preserve"
       style="font-style:normal;font-variant:normal;font-weight:normal;font-stretch:normal;line-height:0%;font-family:Museo;-inkscape-font-specification:'Museo, Normal';text-align:start;letter-spacing:0px;word-spacing:0px;writing-mode:lr-tb;text-anchor:start;fill:#ffffff;fill-opacity:1;stroke:none;stroke-width:0.26458335px;stroke-linecap:butt;stroke-linejoin:miter;stroke-opacity:1"
       x="134.21758"
       y="174.80598"
       id="text4180"><tspan
         sodipodi:role="line"
         id="tspan4182"
         x="134.21758"
         y="174.80598"
         style="font-style:normal;font-variant:normal;font-weight:normal;font-stretch:normal;font-size:17.99166679px;line-height:100%;font-family:Museo;-inkscape-font-specification:'Museo, Normal';text-align:start;writing-mode:lr-tb;text-anchor:start;fill:#ffffff;fill-opacity:1;stroke-width:0.26458335px">MUSIC</tspan></text>
  </g>
  <g
     inkscape:groupmode="layer"
     id="layer5"
     inkscape:label="ATG">
    <g
       id="g4322"
       transform="matrix(0.56831903,0,0,0.56831903,0,-3.5239921)">
      <g
         style="display:none"
         transform="translate(0,-32.41665)"
         id="layer1-3"
         inkscape:label="BG">
        <rect
           y="32.416653"
           x="0"
           height="264.58334"
           width="264.58334"
           id="rect5606"
           style="opacity:1;fill:#ffffff;fill-opacity:1;stroke:none;stroke-width:11.60810661;stroke-miterlimit:4;stroke-dasharray:none;stroke-opacity:1" />
      </g>
      <g
         style="display:inline"
         inkscape:label="Neck"
         id="layer2-8">
        <path
           inkscape:connector-curvature="0"
           id="path4824"
           d="m 183.18271,131.02242 -3.98239,66.95374 -36.04073,13.74312 -57.943969,-12.50978 -0.796488,-83.86835 z"
           style="fill:#1c1c1c;fill-opacity:1;fill-rule:evenodd;stroke:none;stroke-width:0.52445853px;stroke-linecap:butt;stroke-linejoin:miter;stroke-opacity:1" />
        <path
           inkscape:connector-curvature="0"
           id="path4887"
           d="m 133.1785,179.15157 c 0,0 8.84605,-2.16422 12.34233,-0.74681 3.49628,1.41741 5.85863,1.32291 3.1183,7.46503 -2.74032,6.14211 -5.00818,17.3869 -9.82738,17.19791 -4.81919,-0.18899 -14.07961,-13.70164 -13.89062,-17.29241 0.18899,-3.59077 4.70299,-6.53836 8.25737,-6.62372 z"
           style="display:inline;fill:#2b2b2b;fill-opacity:1;fill-rule:evenodd;stroke:none;stroke-width:0.26458332px;stroke-linecap:butt;stroke-linejoin:miter;stroke-opacity:1" />
      </g>
      <g
         inkscape:label="Jacket"
         id="layer7-5">
        <path
           sodipodi:nodetypes="ccczcc"
           inkscape:connector-curvature="0"
           id="path4187"
           d="m 155.34821,264.58333 29.48215,0 -31.37203,-64.63393 c 0,0 -7.51894,7.39383 -15.04002,7.53957 -7.52107,0.14575 -25.78141,-11.69731 -25.78141,-11.69731 z"
           style="fill:#8b8b8b;fill-opacity:1;fill-rule:evenodd;stroke:none;stroke-width:0.26458332px;stroke-linecap:butt;stroke-linejoin:miter;stroke-opacity:1" />
        <path
           inkscape:connector-curvature="0"
           id="path4173"
           d="m 157.04911,264.58333 c 0,0 -13.60715,-19.46577 -17.00893,-26.45833 -3.40179,-6.99256 -19.84375,-35.15179 -19.84375,-35.15179 L 51.40476,171.03422 c 0,0 -32.505951,26.64733 -38.55357,36.4747 C 6.8035714,217.33631 0,239.25892 0,239.25892 l 0,25.32441 z"
           style="fill:#252525;fill-opacity:1;fill-rule:evenodd;stroke:none;stroke-width:0.26458332px;stroke-linecap:butt;stroke-linejoin:miter;stroke-opacity:1" />
        <path
           inkscape:connector-curvature="0"
           id="path4175"
           d="m 130.77976,264.58333 c 0,0 -9.4494,-14.17411 -12.85119,-16.25298 -3.40179,-2.07886 -17.19792,-18.70982 -17.19792,-18.70982 0,0 11.1503,19.27679 14.3631,22.86756 3.2128,3.59078 11.1503,12.09524 11.1503,12.09524 z"
           style="fill:#0f0d0c;fill-opacity:1;fill-rule:evenodd;stroke:none;stroke-width:0.26458332px;stroke-linecap:butt;stroke-linejoin:miter;stroke-opacity:1" />
        <path
           inkscape:connector-curvature="0"
           id="path4177"
           d="m 106.96726,264.58333 c 0,0 0,-6.04762 -0.56696,-12.47321 -0.56697,-6.4256 -2.26786,-15.30804 -2.26786,-15.30804 0,0 4.34673,12.6622 4.34673,16.44197 0,3.77976 -0.37798,11.33928 -0.37798,11.33928 z"
           style="fill:#0f0d0c;fill-opacity:1;fill-rule:evenodd;stroke:none;stroke-width:0.26458332px;stroke-linecap:butt;stroke-linejoin:miter;stroke-opacity:1" />
        <path
           inkscape:connector-curvature="0"
           id="path4179"
           d="m 34.017857,220.17113 c 0,0 14.363094,3.40178 18.142857,4.34672 3.779761,0.94495 18.520833,4.15774 17.008928,6.99256 -1.511904,2.83483 -11.90625,-0.75595 -10.394344,0.94494 1.511903,1.7009 19.465774,16.06399 20.78869,17.76489 1.322917,1.70089 2.267855,7.74851 3.590772,7.74851 1.322916,0 -1.511904,-12.09524 -3.212796,-16.06399 -1.700892,-3.96875 -5.669642,-7.55952 -3.590774,-7.55952 2.078868,0 13.040177,14.1741 13.229166,16.63095 0.188987,2.45684 1.700893,9.26041 3.212799,9.26041 1.511903,0 3.96875,-9.4494 1.700892,-11.33928 -2.267857,-1.88988 -4.157739,-3.96875 -3.023809,-7.18155 1.133928,-3.2128 8.315476,-10.01637 9.071432,-6.4256 0.75595,3.59078 0.18898,13.79614 1.13392,18.33185 0.94494,4.53572 3.02381,10.96131 3.02381,10.96131 l -24.946425,0 c 0,0 -4.157737,-9.63839 -6.992559,-13.60714 C 69.925593,247.00744 56.50744,233.4003 51.215774,230.56547 45.924107,227.73065 28.348215,223.95089 34.017857,220.17113 Z"
           style="fill:#0f0d0c;fill-opacity:1;fill-rule:evenodd;stroke:none;stroke-width:0.26458332px;stroke-linecap:butt;stroke-linejoin:miter;stroke-opacity:1" />
        <path
           inkscape:connector-curvature="0"
           id="path4181"
           d="m 74.083332,264.58333 c 0,0 -7.559524,-9.07143 -12.095239,-12.47321 -4.535712,-3.40179 -15.119045,-11.1503 -17.764879,-8.50447 -2.645833,2.64584 11.150296,5.29167 14.174108,10.39435 3.023809,5.10267 3.779761,10.58333 3.779761,10.58333 z"
           style="fill:#0f0d0c;fill-opacity:1;fill-rule:evenodd;stroke:none;stroke-width:0.26458332px;stroke-linecap:butt;stroke-linejoin:miter;stroke-opacity:1" />
        <path
           inkscape:connector-curvature="0"
           id="path4183"
           d="m 25.513392,264.58333 c 0,0 -16.2529754,-13.60714 -13.79613,-15.875 2.456845,-2.26786 22.678571,-2.26786 21.922619,-5.85863 C 32.883927,239.25892 11.90625,222.06101 8.8824405,225.65178 5.8586308,229.24256 0,241.14881 0,241.14881 l 0,23.43452 z"
           style="fill:#0f0d0c;fill-opacity:1;fill-rule:evenodd;stroke:none;stroke-width:0.26458332px;stroke-linecap:butt;stroke-linejoin:miter;stroke-opacity:1" />
        <path
           inkscape:connector-curvature="0"
           id="path4185"
           d="m 178.78274,264.58333 c 0,0 -9.44941,-21.92262 -13.98512,-28.72619 -4.53572,-6.80357 -19.27679,-34.39583 -19.27679,-34.39583 l 13.60714,-7.18155 43.46727,70.30357 z"
           style="fill:#252525;fill-opacity:1;fill-rule:evenodd;stroke:none;stroke-width:0.26458332px;stroke-linecap:butt;stroke-linejoin:miter;stroke-opacity:1" />
      </g>
      <g
         style="display:inline"
         inkscape:label="Head"
         id="layer3-5">
        <path
           inkscape:connector-curvature="0"
           id="path4827"
           d="m 141.68856,176.60572 c 7.70012,-0.7875 18.65798,-4.62654 24.28499,-13.5843 5.62701,-8.95776 11.05658,-26.38111 14.41305,-43.4107 3.35645,-17.0296 8.48986,-40.851345 -0.78977,-51.580975 -9.27962,-10.729629 -12.24121,-32.976384 -41.16602,-32.877948 -28.92479,0.09844 -46.595579,21.754569 -49.853321,42.820082 -3.257744,21.065506 3.35646,56.798121 10.464263,69.398061 7.107798,12.59993 15.597678,24.60924 22.113168,26.67642 6.51547,2.06717 15.00535,2.95311 20.53364,2.55936 z"
           style="fill:#303030;fill-opacity:1;fill-rule:evenodd;stroke:none;stroke-width:0.27601874px;stroke-linecap:butt;stroke-linejoin:miter;stroke-opacity:1" />
      </g>
      <g
         style="display:inline"
         inkscape:label="Face"
         id="layer4-9">
        <g
           id="g4188">
          <path
             style="fill:#2aafaf;fill-opacity:1;fill-rule:evenodd;stroke:none;stroke-width:0.26458332px;stroke-linecap:butt;stroke-linejoin:miter;stroke-opacity:1"
             d="m 124.01306,43.016894 c 2.13816,-0.53454 11.69304,2.004521 11.49259,12.428032 -0.20045,10.423512 -0.80181,31.003266 0.4009,33.074605 1.20272,2.071338 3.60814,9.822156 3.94223,20.646569 0.33409,10.82442 -1.26953,19.17659 -3.00678,18.90932 -1.73726,-0.26727 -4.47677,-3.34087 -6.54811,-2.60588 -2.07134,0.73499 -1.40316,2.87315 -1.9377,2.53906 -0.53454,-0.33408 1.06908,-2.27179 0.33409,-2.40542 -0.735,-0.13364 -2.13816,0.13363 -1.93771,2.07134 0.20045,1.9377 1.93771,4.20949 3.40769,4.6104 1.46998,0.4009 1.20271,3.54132 -1.20272,4.00904 -2.40542,0.46772 -10.89123,3.0736 -12.36121,6.68174 -1.46998,3.60813 0.46772,3.94222 -0.0668,6.28083 -0.53454,2.33861 -2.67269,2.60588 -3.14041,4.27631 -0.46773,1.67044 0.53453,4.47677 -0.66818,4.34313 -1.20271,-0.13363 -7.01582,-12.2944 -7.48354,-17.3057 -0.46773,-5.0113 -2.20498,-8.0849 -1.93771,-15.03391 0.26727,-6.94901 -4.209493,-22.18337 -3.27405,-22.31701 0.93544,-0.13363 3.54132,6.74856 5.47903,7.01583 1.9377,0.26727 5.14493,-3.00678 2.53906,-3.87541 -2.60588,-0.86862 -7.61719,-2.07134 -5.7463,-2.40542 1.87089,-0.33409 10.55715,2.07133 13.43029,0.86862 2.87315,-1.20271 3.54132,-3.4745 4.87767,-4.27631 1.33635,-0.801808 3.40769,-1.603618 3.74178,0.20045 0.33408,1.80407 -2.73952,7.61718 -7.2831,9.68852 -4.54358,2.07134 5.61266,-0.73499 7.41673,-4.94448 1.80407,-4.2095 2.47224,-6.748561 3.4745,-6.080385 1.00226,0.668175 5.61267,-6.013567 3.67496,-7.750818 -1.9377,-1.737252 -5.61266,-3.006781 -11.82668,-3.207234 -6.21401,-0.200451 -7.41672,-2.539061 -11.62622,-1.937703 -4.2095,0.601356 -6.88219,0.534538 -4.47676,-5.545844 2.40542,-6.080381 -3.808596,-16.837979 -1.26954,-21.114292 2.53907,-4.276312 10.3567,-15.969355 21.58202,-16.83798 z"
             id="path4834"
             inkscape:connector-curvature="0" />
          <path
             style="fill:#2aafaf;fill-opacity:1;fill-rule:evenodd;stroke:none;stroke-width:0.26458332px;stroke-linecap:butt;stroke-linejoin:miter;stroke-opacity:1"
             d="m 138.64606,148.92244 c 0,1.5368 -2.13815,5.01131 -4.00904,5.01131 -1.87088,0 -1.60361,-2.13816 -3.34087,-1.67044 -1.73725,0.46772 -1.26953,5.47903 1.06908,6.54811 2.33861,1.06907 9.88897,-2.00452 9.88897,-0.86863 0,1.13589 -1.80407,1.40316 -2.20497,3.4745 -0.4009,2.07134 1.40317,10.28988 5.34539,10.69078 3.94223,0.40091 -10.49033,5.67948 -19.31022,1.73726 -8.8199,-3.94223 -11.89349,-8.68626 -10.89123,-12.56167 1.00226,-3.87541 -0.53454,-6.21402 2.80633,-8.75308 3.34087,-2.53906 4.61039,-4.47676 7.28309,-4.67721 2.67269,-0.20046 7.01582,-1.33635 9.08716,-1.33635 2.07134,0 6.41447,-0.93545 4.27631,2.40542 z"
             id="path4838"
             inkscape:connector-curvature="0" />
          <path
             style="fill:#2aafaf;fill-opacity:1;fill-rule:evenodd;stroke:none;stroke-width:0.26458332px;stroke-linecap:butt;stroke-linejoin:miter;stroke-opacity:1"
             d="m 117.73958,94.683034 c 0.37798,1.322916 -0.74234,3.992739 -0.14099,4.660913 0.60136,0.668173 -3.60814,2.605883 -5.47903,2.539063 -1.87088,-0.0668 -7.21627,-1.06908 -7.21627,-2.004525 0,-0.935443 -0.26727,-3.474503 0.80181,-2.939963 1.06907,0.534538 2.27179,3.541318 5.21175,3.340868 2.93997,-0.20045 5.96146,-5.713686 6.82273,-5.596356 z"
             id="path4842"
             inkscape:connector-curvature="0" />
        </g>
        <g
           style="fill:#cc7b45;fill-opacity:1"
           id="g4182">
          <path
             style="fill:#cc7b45;fill-opacity:1;fill-rule:evenodd;stroke:none;stroke-width:0.26458332px;stroke-linecap:butt;stroke-linejoin:miter;stroke-opacity:1"
             d="m 142.68601,158.75 c 1.13393,-2.26786 6.45038,-1.40857 6.65084,-2.81173 0.20045,-1.40317 -2.33861,-5.01131 -5.21176,-4.94449 -2.87315,0.0668 -4.20949,0.53454 -4.40995,-1.67043 -0.20045,-2.20497 -0.20045,-2.93997 1.26953,-2.73952 1.46999,0.20046 3.94223,-1.20271 6.1472,-1.06907 2.20498,0.13363 4.87767,-0.20045 6.88219,1.13589 2.00453,1.33635 3.87541,0.40091 4.40995,2.53906 0.53454,2.13816 1.1359,4.6104 -0.0668,5.07812 -1.20271,0.46772 -4.14267,1.06908 -4.14267,3.40769 0,2.33861 2.40542,1.67043 3.14041,3.67496 0.73499,2.00452 2.07134,5.67947 -2.20497,8.68626 -4.27631,3.00678 -11.35896,2.60587 -13.43029,-3.14042 -2.07134,-5.7463 -0.13865,-6.40367 0.96634,-8.14632 z"
             id="path4830"
             inkscape:connector-curvature="0" />
          <path
             style="fill:#cc7b45;fill-opacity:1;fill-rule:evenodd;stroke:none;stroke-width:0.26458332px;stroke-linecap:butt;stroke-linejoin:miter;stroke-opacity:1"
             d="m 162.76714,154.40147 c 1.06908,-0.60136 5.54584,-5.47903 5.7463,-8.35217 0.20045,-2.87315 2.53906,-6.54811 2.53906,-7.61719 0,-1.06907 -1.60362,-3.94222 -0.33409,-6.949 1.26953,-3.00678 4.34313,-3.47451 4.40995,-7.75082 0.0668,-4.27631 -0.86863,-8.48581 0,-10.95805 0.86862,-2.47224 3.0736,-8.95353 2.67269,-11.55941 -0.4009,-2.605874 -1.5368,-6.815369 -3.60814,-5.011299 -2.07134,1.804069 -5.81311,-1.603619 -8.01808,-0.267272 -2.20498,1.33635 1.00226,15.835721 -6.34766,15.501631 -7.34991,-0.33408 -17.30569,-14.031648 -18.17432,-12.361212 -0.86863,1.670432 -1.1359,25.591052 0.46772,26.860592 1.60362,1.26952 2.80633,4.94448 3.60814,4.87766 0.80181,-0.0668 0.33409,-2.47224 2.13816,-1.40316 1.80406,1.06908 2.3386,5.74629 5.27857,7.14946 2.93996,1.40316 6.08038,-1.33635 8.55262,2.67269 2.47225,4.00904 0,4.54359 0.0668,6.41447 0.0668,1.87089 3.40769,5.14494 1.00226,8.75308 z"
             id="path4832"
             inkscape:connector-curvature="0" />
          <path
             style="fill:#cc7b45;fill-opacity:1;fill-rule:evenodd;stroke:none;stroke-width:0.26458332px;stroke-linecap:butt;stroke-linejoin:miter;stroke-opacity:1"
             d="m 137.77744,80.167357 c 0,1.937705 -0.13364,6.013567 3.27405,4.610399 3.40769,-1.403165 14.56619,-1.135893 18.50842,-1.536798 3.94222,-0.400904 8.68626,2.739512 9.95579,1.670434 1.26953,-1.069078 2.27179,-8.018087 0.53454,-10.49033 -1.73726,-2.472242 -12.56167,-16.904797 -18.0407,-15.03391 -5.47902,1.870887 -14.36574,13.764381 -14.2321,20.780205 z"
             id="path4836"
             inkscape:connector-curvature="0" />
          <path
             inkscape:connector-curvature="0"
             id="path4189"
             d="m 148.78562,94.683034 c -0.37798,1.322916 0.74234,3.992739 0.14099,4.660913 -0.60136,0.668173 3.60814,2.605883 5.47903,2.539063 1.87088,-0.0668 7.21627,-1.06908 7.21627,-2.004525 0,-0.935443 0.26727,-3.474503 -0.80181,-2.939963 -1.06907,0.534538 -2.27179,3.541318 -5.21175,3.340868 -2.93997,-0.20045 -5.96146,-5.713686 -6.82273,-5.596356 z"
             style="fill:#cc7b45;fill-opacity:1;fill-rule:evenodd;stroke:none;stroke-width:0.26458332px;stroke-linecap:butt;stroke-linejoin:miter;stroke-opacity:1" />
        </g>
      </g>
      <g
         style="display:inline"
         inkscape:label="Hair"
         id="layer5-0">
        <path
           sodipodi:nodetypes="ssssssccssscssssscssscscscsscsssssscssscsscsssssssssssscsssssssssssssscscccccssssccssssscsccsscscsscscscscsscsccssccc"
           inkscape:connector-curvature="0"
           id="path4845"
           transform="scale(0.26458333)"
           d="m 433.86914,23.4375 c -81.18521,-0.19076 -114.50289,15.687114 -164.1582,82.57812 -61.11423,82.32743 -145.96679,211.12051 -128.28906,263.64844 5.48831,16.30808 -0.83112,83.05203 -7.11548,135.29548 -4.84036,40.23911 -7.62612,69.69683 -17.51525,74.31176 -6.76533,3.15716 2.92885,15.15904 -2.19044,26.98443 -12.07917,27.90248 -14.39395,38.43195 -54.479058,66.10131 13.637054,-2.0203 50.834978,16.75161 54.537668,66.31652 31.20268,-24.0065 57.57081,-71.51854 89.39062,-73.53882 31.8198,-2.0203 65.15525,70.70948 95.45983,89.90237 30.30458,19.19289 138.8972,84.34779 126.77539,114.65234 -9.05254,22.63133 -20.35297,20.19167 -25.49805,17.50586 11.39282,7.18439 54.71988,30.1945 60.85351,-31.14258 7.07109,-70.7106 45.45541,-85.35835 29.29297,-118.69335 -16.16243,-33.33502 -139.40075,-141.42052 -133.33984,-198.49415 6.06092,-57.07357 -21.21284,-163.64374 -8.58594,-160.61328 12.62691,3.03047 45.96252,108.5907 44.44727,134.34961 -1.51521,25.75888 -19.69922,55.05274 -19.69922,55.05274 0,0 30.30427,-28.28297 28.78906,-69.69922 -1.51525,-41.41625 -45.45583,-122.229 -38.38476,-148.99805 7.07107,-26.76904 21.21291,67.67937 31.31445,83.8418 10.1015,16.16247 26.26367,29.29492 26.26367,29.29492 0,0 -31.31526,-30.30529 -36.87109,-84.85352 -5.55583,-54.54818 10.10156,-82.83203 10.10156,-82.83203 0,0 14.6488,73.23562 11.11328,90.40821 -3.53552,17.17258 14.64649,53.0332 14.64649,53.0332 0,0 -13.13166,-30.80981 -13.63672,-45.45703 -0.5051,-14.64721 7.07105,-159.09925 5.05078,-167.68555 -2.02031,-8.5863 19.69816,-32.82938 40.40627,-55.05275 31.31475,21.21321 52.5281,3.03026 50.50779,46.46681 -2.02031,43.43656 -25.2539,177.788 -20.20312,211.12305 5.05077,33.33502 47.47654,105.05578 37.375,81.82227 -10.10151,-23.23352 -35.35546,-46.46703 -30.30469,-107.07618 5.05077,-60.60909 8.08204,-125.25963 13.13281,-89.90429 5.05077,35.35533 -6.06088,93.94343 5.05078,114.14648 7.82673,14.23038 12.63071,26.45781 14.44336,38.79688 -0.42698,-14.39114 -1.476,-34.20075 -4.3418,-50.91797 -6.06092,-35.35533 33.33477,75.76204 31.31446,59.59961 -2.02031,-16.16247 -29.29452,-73.74062 -20.20313,-67.67969 9.09139,6.06093 30.16,15.16084 43.43555,56.56836 -10.65301,-42.16388 -19.21247,-46.68158 -24.24219,-63.64063 -4.95828,-16.71813 40.40581,-6.06112 31.31445,41.41602 -9.09133,47.47718 25.75782,65.66016 25.75782,65.66016 0,0 -27.77771,-24.24308 -24.24219,-50.00196 3.53552,-25.75888 2.52462,-42.93276 9.5957,-34.85156 7.07108,8.08124 17.67659,47.47811 18.18164,38.38672 0.5051,-9.09135 -10.10037,-17.17192 -3.02929,-29.79883 7.07104,-12.62691 23.23401,-74.24684 39.39648,-67.17578 16.16243,7.07107 38.12925,13.9579 32.06836,39.7168 -6.06093,25.75888 -26.51247,29.47893 -21.9668,43.62109 4.54568,14.14212 3.53553,95.45827 -7.57617,120.20703 -11.11166,24.74873 -62.63016,84.34778 -84.85351,117.17774 -22.22336,32.82996 -32.32462,53.03335 -23.73828,75.76171 8.58624,22.72842 59.09413,45.45671 58.08398,61.61915 -1.01015,16.16243 -35.86128,27.27468 -30.81055,44.44726 5.05077,17.17259 47.47656,60.10352 47.47657,60.10352 0,0 -36.86913,-55.052 -26.76758,-69.69922 10.1015,-14.64722 55.55848,-33.84126 54.54832,-14.64836 -1.01015,19.19289 2.52386,45.45711 28.78784,64.65 26.26393,19.1929 91.92392,66.16588 75.76149,57.07453 -16.16243,-9.09139 15.65898,-44.95203 13.63867,-63.13477 -2.02025,-18.18274 39.9004,-21.71802 39.9004,-41.41601 0,-19.69795 20.20244,-65.66099 34.8496,-73.74219 14.64722,-8.08123 24.24486,-24.7477 7.07227,-38.38476 -17.17259,-13.63703 -66.67028,-33.8404 -58.08398,-70.71094 8.58629,-36.87058 62.12341,-81.82212 51.01171,-148.49219 -11.1116,-66.67007 -55.05197,-120.20879 -51.51645,-169.20117 3.53556,-48.9924 16.66676,-71.21551 -13.13277,-130.81445 C 740.4419,167.12952 629.82955,32.778099 498.50977,25.707031 473.8873,24.381206 452.60419,23.481521 433.86914,23.4375 Z m 88.68164,441.5918 c 0.47604,16.04477 0.17649,25.33729 0.70899,15.75195 0.29863,-5.3754 0.0518,-10.5731 -0.70899,-15.75195 z M 400.78711,887.19531 C 399.04604,886.09739 398,885.34766 398,885.34766 c 0,0 1.04264,0.93702 2.78711,1.84765 z M 563.21484,263.57227 C 567.85769,263.92939 585,292.14314 585,302.85742 c 0,10.71429 -8.21399,-13.57115 -12.14258,-12.14258 -3.92855,1.42859 7.85658,9.28516 4.28516,11.78516 -3.57143,2.5 -12.14287,2.14342 -12.5,-11.78516 -0.35717,-13.92856 -1.42774,-27.14257 -1.42774,-27.14257 z M 577.5,270.35742 c 15,19.64286 23.57225,17.85714 28.57227,25 4.99997,7.14286 2.5,18.92745 0,21.07031 -2.50001,2.14286 -7.50055,-18.92828 -10.71485,-22.14257 -3.21426,-3.21428 6.78516,27.14286 4.28516,25 -2.49997,-2.14285 -5,-20.35714 -7.5,-22.5 -2.50001,-2.14285 -6.78516,17.5 -6.78516,17.5 0,0 1.42748,-9.28432 1.07031,-18.21289 C 586.07061,287.14369 577.5,270.35742 577.5,270.35742 Z m -23.57227,5 c 3.92856,0 10.00141,23.21373 9.28711,26.78516 -0.71429,3.57142 -10.35742,10 -10.35742,17.5 0,7.5 -4.28683,-28.57087 1.07031,-44.28516 z m 75.72461,2.4668 c 0.14126,0.0184 0.25837,0.14509 0.34766,0.39062 1.42855,3.92858 17.14258,11.07115 17.14258,19.64258 0,8.57143 -4.64316,22.14314 -10.35742,20.35742 C 631.07085,316.42913 620,306.07227 620,306.07227 c 0,-4.6875 7.53354,-28.52402 9.65234,-28.24805 z m -48.9375,50.0332 c 4.64285,9.28574 6.78547,4.64202 14.64258,8.92774 7.85719,4.28572 13.92774,25.71484 13.92774,25.71484 0,0 -9.2857,-4.64202 -12.5,-11.42773 C 593.57089,344.28655 595,340.35742 595,340.35742 c 0,0 -1.42829,4.99917 -2.14258,8.92774 -0.71429,3.92857 12.14257,16.42996 14.64258,19.28711 2.50001,2.85714 -9.28516,20.71289 -9.28516,20.71289 0,0 -5.35825,-25.35742 -11.42968,-37.85743 -6.07144,-12.49999 -6.07032,-23.57031 -6.07032,-23.57031 z m -51.68164,19.57227 c 0,0 2.30257,12.26525 6.2168,31.82422 3.91419,19.55898 10.58984,22.21175 10.58984,25.19531 0,2.9836 -7.59812,-2.65227 -10.13086,-6.29883 -2.53269,-3.6466 -3.91383,-17.57063 -5.75586,-25.19531 -1.84194,-7.6247 -0.91992,-25.52539 -0.91992,-25.52539 z"
           style="fill:#151515;fill-opacity:1;fill-rule:evenodd;stroke:none;stroke-width:0.99999994px;stroke-linecap:butt;stroke-linejoin:miter;stroke-opacity:1" />
      </g>
      <g
         style="display:inline"
         inkscape:label="Holes"
         id="layer6-3">
        <path
           inkscape:connector-curvature="0"
           id="path4160"
           d="m 112.25893,14.741071 c 0,0 -1.79539,-5.4806547 -4.34673,-5.8586308 -2.55134,-0.3779763 -7.843,-1.5119048 -9.449403,0.3779761 -1.606399,1.8898807 -7.559524,6.4255947 -7.559524,6.4255947 0,0 3.874257,-3.023809 6.236607,-3.023809 2.362351,0 7.18155,-0.661458 7.18155,-0.661458 0,0 -5.669646,1.984375 -8.031997,2.834821 -2.362351,0.850446 -3.118302,3.779762 -3.118302,3.779762 0,0 4.724701,-5.480655 6.992559,-3.118304 2.26786,2.362352 -5.008184,6.047619 -5.764139,9.071429 -0.755951,3.023808 -1.795385,6.047618 -1.795385,6.047618 0,0 3.590774,-6.3311 5.764135,-7.654017 2.173369,-1.322917 3.779759,-2.267857 3.779759,-1.700893 0,0.566964 -3.968745,3.212798 -4.346721,6.52009 -0.377976,3.307291 -0.377976,6.142111 -0.377976,6.142111 0,0 0.188987,-3.874254 2.078868,-5.480653 1.889879,-1.606399 3.874259,-3.874256 3.874259,-2.929316 0,0.944941 -4.252235,3.212798 -4.252235,4.819198 0,1.606396 0.188987,4.724701 0.188987,4.724701 0,0 1.417408,-7.9375 3.779768,-5.858631 2.36235,2.078868 -2.17337,10.583333 -2.17337,10.583333 0,0 7.46503,-6.236608 7.27604,-8.126487 -0.18898,-1.889881 -2.17336,-1.889881 -0.28348,-3.118305 1.88988,-1.228423 4.7247,-5.480654 8.50447,-4.724702 3.77976,0.755953 4.91369,-1.606398 3.21279,-1.88988 -1.70089,-0.283483 -4.25223,0.377976 -4.44122,-0.188989 -0.18898,-0.566964 1.22843,-2.645833 -0.85044,-2.645833 -2.07887,0 -0.47247,-1.228422 -0.56697,-2.551339 -0.0945,-1.322917 0.94494,-1.889881 -1.5119,-1.795387 z"
           style="fill:#404040;fill-opacity:1;fill-rule:evenodd;stroke:none;stroke-width:0.26458332px;stroke-linecap:butt;stroke-linejoin:miter;stroke-opacity:1" />
        <path
           inkscape:connector-curvature="0"
           id="path4162"
           d="m 123.69271,8.5044639 c 0,0 16.32924,1.7008931 21.68161,3.8742561 5.35237,2.173363 19.14152,16.063988 17.96218,16.063988 -1.17934,0 -6.5317,-6.520089 -8.70893,-7.181548 -2.17724,-0.661458 -4.62663,-5.38616 -5.71524,-5.008184 -1.08862,0.377976 4.71733,9.071428 2.90297,9.260416 -1.81436,0.188988 -3.71943,-3.118303 -5.17092,-3.118303 -1.45149,0 -2.81227,5.197171 0.0907,7.843005 2.90297,2.645833 14.33344,27.875745 16.87356,30.427083 2.5401,2.55134 11.0676,9.165923 11.79334,13.607142 0.72575,4.441222 0.18144,9.354912 0.18144,9.354912 0,0 1.81436,-10.205357 0,-14.174107 -1.81436,-3.96875 -6.44099,-7.276041 -5.08022,-7.181548 1.36078,0.09449 8.70894,1.984375 8.70894,7.370535 0,5.386162 1.17934,15.59152 5.17093,20.032739 3.99159,4.441221 9.07181,-1.039434 10.34186,0.566965 1.27005,1.606399 3.90088,12.473215 1.27005,16.252975 -2.63082,3.77976 -9.34396,11.52827 -6.25955,15.875 3.08442,4.34673 14.15202,9.35491 17.14572,8.40997 2.99369,-0.94494 7.62032,2.83482 7.62032,2.83482 0,0 -5.35237,-4.44122 -5.35237,-7.843 0,-3.40179 2.81226,-2.74033 1.45149,-6.70908 -1.36077,-3.96875 -8.07391,-9.92188 -7.98319,-15.02455 0.0907,-5.102684 0.45359,-13.134677 -0.45359,-19.276791 -0.90718,-6.142112 -5.26165,-17.386903 -4.35447,-17.386903 0.90718,0 4.35447,2.551337 4.26375,6.709076 -0.0907,4.157737 1.9958,11.717261 1.9958,11.717261 0,0 -1.27006,-8.504462 -1.17934,-13.512649 0.0907,-5.008184 -9.16252,-15.308035 -8.16462,-15.308035 0.9979,0 4.80806,1.228424 6.80385,4.252233 1.9958,3.023809 6.25955,10.677826 6.25955,10.677826 0,0 -8.43678,-15.024552 -7.62032,-15.024552 0.81647,0 3.9916,3.496278 3.9916,3.496278 0,0 -9.70684,-12.662201 -10.06971,-12.000743 -0.36287,0.661458 4.89877,6.236607 4.17303,6.236607 -0.72574,0 -13.0634,-10.110864 -14.78704,-13.418155 -1.72364,-3.307292 -6.98529,-7.181546 -5.89668,-7.181546 1.08862,0 5.35237,4.063243 5.35237,4.063243 0,0 -1.45149,-4.630208 -3.53801,-5.38616 -2.08651,-0.755954 -4.35446,-0.566965 -5.26164,-1.700892 -0.90718,-1.13393 -9.34396,-7.465031 -8.25534,-7.465031 1.08861,0 8.70893,4.535715 8.70893,4.535715 0,0 -7.34816,-6.142113 -8.79965,-6.142113 -1.45149,0 -1.81437,0.09449 -3.35658,-1.133929 -1.54219,-1.228423 -15.05919,-9.827381 -14.15201,-9.732887 0.90718,0.09449 10.88617,5.480655 10.88617,5.480655 0,0 -5.80596,-4.630208 -10.16042,-6.331101 -4.35447,-1.7008931 -19.77654,-5.2916667 -25.31034,-1.7008931 z"
           style="fill:#404040;fill-opacity:1;fill-rule:evenodd;stroke:none;stroke-width:0.25924304px;stroke-linecap:butt;stroke-linejoin:miter;stroke-opacity:1" />
        <path
           inkscape:connector-curvature="0"
           id="path4166"
           d="m 95.415221,45.422319 c 0,0 -10.423512,6.949009 -10.690781,13.764382 -0.267271,6.815373 -0.267271,14.165283 -3.34087,19.109772 -3.073598,4.944485 -8.285355,9.220798 -7.483546,14.833457 0.801809,5.612661 18.708867,26.32605 18.708867,26.32605 0,0 -13.096208,-15.90254 -12.962572,-22.317007 0.133633,-6.414468 11.893494,-28.196934 9.488066,-30.33509 -2.405425,-2.138156 -1.336347,-13.630746 6.280836,-21.381564 z"
           style="fill:#404040;fill-opacity:1;fill-rule:evenodd;stroke:none;stroke-width:0.26458332px;stroke-linecap:butt;stroke-linejoin:miter;stroke-opacity:1" />
        <path
           inkscape:connector-curvature="0"
           id="path4168"
           d="m 101.56242,53.707675 c 0,0 -5.34539,5.87993 -5.078121,17.506153 0.267268,11.626226 1.202713,16.83798 -2.672697,23.118815 -3.875407,6.280837 2.405428,19.243407 2.405428,22.450637 0,3.20724 7.75081,12.56167 7.75081,12.56167 0,0 -5.078116,-7.21628 -5.479021,-12.6953 -0.400905,-5.47903 2.405431,-8.68626 2.271791,-12.16076 -0.13363,-3.47451 -3.207233,-4.27632 -2.405424,-8.8199 0.801806,-4.543581 -1.202714,-23.252448 -0.534541,-28.597838 0.668174,-5.34539 3.741775,-13.363477 3.741775,-13.363477 z"
           style="fill:#404040;fill-opacity:1;fill-rule:evenodd;stroke:none;stroke-width:0.26458332px;stroke-linecap:butt;stroke-linejoin:miter;stroke-opacity:1" />
        <path
           inkscape:connector-curvature="0"
           id="path4170"
           d="m 190.16227,127.6077 c 0,0 14.83345,8.81989 17.37252,14.16528 2.53906,5.3454 -5.47903,14.69983 -5.21176,18.97614 0.26727,4.27631 5.87993,8.81989 5.87993,8.81989 0,0 -10.15624,-11.75985 -13.89802,-11.35895 -3.74177,0.4009 -0.26726,10.55714 -1.20271,15.63527 -0.93544,5.07812 -10.02261,13.22984 -10.02261,13.22984 0,0 2.2718,-6.68174 0.26727,-8.01809 -2.00452,-1.33635 -6.14719,-1.06907 -6.14719,-1.06907 0,0 8.95352,-4.81086 8.95352,-11.09169 0,-6.28083 -3.8754,-12.96257 -2.67269,-16.30344 1.20271,-3.34087 11.35895,-16.16981 6.68174,-22.98518 z"
           style="fill:#404040;fill-opacity:1;fill-rule:evenodd;stroke:none;stroke-width:0.26458332px;stroke-linecap:butt;stroke-linejoin:miter;stroke-opacity:1" />
      </g>
    </g>
  </g>
</svg>
