<?xml version="1.0" encoding="UTF-8" standalone="no"?>
<!-- Created with Inkscape (http://www.inkscape.org/) -->

<svg
   xmlns:dc="http://purl.org/dc/elements/1.1/"
   xmlns:cc="http://creativecommons.org/ns#"
   xmlns:rdf="http://www.w3.org/1999/02/22-rdf-syntax-ns#"
   xmlns:svg="http://www.w3.org/2000/svg"
   xmlns="http://www.w3.org/2000/svg"
   xmlns:xlink="http://www.w3.org/1999/xlink"
   xmlns:sodipodi="http://sodipodi.sourceforge.net/DTD/sodipodi-0.dtd"
   xmlns:inkscape="http://www.inkscape.org/namespaces/inkscape"
   width="1000"
   height="1000"
   viewBox="0 0 1000 1000"
   id="svg2"
   version="1.1"
   inkscape:version="0.91 r13725"
   sodipodi:docname="ostrich-von-nipple.svg"
   inkscape:export-filename="/Users/agarone/Documents/git/art/ostrich-von-nipple/ostrich-von-nipple.png"
   inkscape:export-xdpi="90"
   inkscape:export-ydpi="90">
  <defs
     id="defs4">
    <linearGradient
       inkscape:collect="always"
       id="linearGradient4291">
      <stop
         style="stop-color:#d2d2d2;stop-opacity:1"
         offset="0"
         id="stop4293" />
      <stop
         style="stop-color:#a7a7a7;stop-opacity:1"
         offset="1"
         id="stop4295" />
    </linearGradient>
    <linearGradient
       inkscape:collect="always"
       id="linearGradient4267">
      <stop
         style="stop-color:#8b8b8b;stop-opacity:1;"
         offset="0"
         id="stop4269" />
      <stop
         style="stop-color:#3e3e3e;stop-opacity:1"
         offset="1"
         id="stop4271" />
    </linearGradient>
    <linearGradient
       inkscape:collect="always"
       id="linearGradient4259">
      <stop
         style="stop-color:#ea110a;stop-opacity:1;"
         offset="0"
         id="stop4261" />
      <stop
         style="stop-color:#9e0c07;stop-opacity:1"
         offset="1"
         id="stop4263" />
    </linearGradient>
    <linearGradient
       inkscape:collect="always"
       xlink:href="#linearGradient4259"
       id="linearGradient4265"
       x1="262.18832"
       y1="532.52903"
       x2="729.8191"
       y2="532.52903"
       gradientUnits="userSpaceOnUse" />
    <radialGradient
       inkscape:collect="always"
       xlink:href="#linearGradient4267"
       id="radialGradient4273"
       cx="-702.81836"
       cy="52.972088"
       fx="-702.81836"
       fy="52.972088"
       r="59.456776"
       gradientTransform="matrix(1,0,0,0.74271044,0,13.629165)"
       gradientUnits="userSpaceOnUse" />
    <radialGradient
       inkscape:collect="always"
       xlink:href="#linearGradient4267"
       id="radialGradient4281"
       cx="189.49887"
       cy="482.271"
       fx="189.49887"
       fy="482.271"
       r="54.324627"
       gradientTransform="matrix(1,0,0,0.74271047,0,124.08328)"
       gradientUnits="userSpaceOnUse" />
    <radialGradient
       inkscape:collect="always"
       xlink:href="#linearGradient4267"
       id="radialGradient4289"
       cx="491.42856"
       cy="514.85712"
       fx="491.42856"
       fy="514.85712"
       r="74.032043"
       gradientTransform="matrix(1.1640216,0,0,0.83508676,-80.604918,84.90676)"
       gradientUnits="userSpaceOnUse" />
    <linearGradient
       inkscape:collect="always"
       xlink:href="#linearGradient4291"
       id="linearGradient4297"
       x1="268.44312"
       y1="276.60165"
       x2="375.07147"
       y2="264.4588"
       gradientUnits="userSpaceOnUse" />
    <linearGradient
       inkscape:collect="always"
       xlink:href="#linearGradient4291"
       id="linearGradient4305"
       x1="433.57144"
       y1="176.47067"
       x2="555.72406"
       y2="176.47067"
       gradientUnits="userSpaceOnUse" />
    <linearGradient
       inkscape:collect="always"
       xlink:href="#linearGradient4291"
       id="linearGradient4313"
       x1="612.14288"
       y1="282.28583"
       x2="718.35645"
       y2="282.28583"
       gradientUnits="userSpaceOnUse" />
  </defs>
  <sodipodi:namedview
     id="base"
     pagecolor="#ffffff"
     bordercolor="#666666"
     borderopacity="1.0"
     inkscape:pageopacity="0.0"
     inkscape:pageshadow="2"
     inkscape:zoom="0.7"
     inkscape:cx="572.95429"
     inkscape:cy="275.02972"
     inkscape:document-units="px"
     inkscape:current-layer="layer2"
     showgrid="false"
     units="px"
     showguides="true"
     inkscape:guide-bbox="true"
     inkscape:window-width="2560"
     inkscape:window-height="1475"
     inkscape:window-x="0"
     inkscape:window-y="1"
     inkscape:window-maximized="1">
    <sodipodi:guide
       position="0,1000"
       orientation="1,0"
       id="guide4136"
       inkscape:label=""
       inkscape:color="rgb(0,0,255)" />
    <sodipodi:guide
       position="1000,1000"
       orientation="1,0"
       id="guide4138"
       inkscape:label=""
       inkscape:color="rgb(0,0,255)" />
    <sodipodi:guide
       position="0,1000"
       orientation="0,1"
       id="guide4140"
       inkscape:label=""
       inkscape:color="rgb(0,0,255)" />
    <sodipodi:guide
       position="1000,0"
       orientation="0,1"
       id="guide4142"
       inkscape:label=""
       inkscape:color="rgb(0,0,255)" />
  </sodipodi:namedview>
  <metadata
     id="metadata7">
    <rdf:RDF>
      <cc:Work
         rdf:about="">
        <dc:format>image/svg+xml</dc:format>
        <dc:type
           rdf:resource="http://purl.org/dc/dcmitype/StillImage" />
        <dc:title></dc:title>
      </cc:Work>
    </rdf:RDF>
  </metadata>
  <g
     inkscape:label="BG"
     inkscape:groupmode="layer"
     id="layer1"
     transform="translate(0,-52.362143)"
     style="display:none">
    <rect
       style="fill:#ffffff;fill-opacity:1"
       id="rect4211"
       width="1000"
       height="1000"
       x="0"
       y="52.362144" />
  </g>
  <g
     inkscape:groupmode="layer"
     id="layer2"
     inkscape:label="OVN"
     style="display:inline" />
  <g
     inkscape:groupmode="layer"
     id="layer4"
     inkscape:label="Head">
    <path
       style="fill:url(#linearGradient4265);fill-opacity:1;fill-rule:evenodd;stroke:none;stroke-width:1px;stroke-linecap:butt;stroke-linejoin:miter;stroke-opacity:1"
       d="m 291.42857,795 c 0,0 -12.14286,-22.14286 -16.42857,-56.42857 -4.28571,-34.28572 0.71429,-39.28572 -6.42857,-59.28572 -7.14286,-20 -8.06635,-114.40826 -2.35206,-145.12254 5.71428,-30.71429 10.92349,-120.59174 22.35206,-149.87745 C 300,355 334.28571,272.14286 402.85714,235 471.42857,197.85714 541.42857,211.42857 585,237.85714 c 43.57143,26.42857 90,49.28572 103.57143,85.71429 C 702.14286,360 720,402.14286 726.42857,464.28571 c 6.42857,62.14286 2.85715,126.42858 -3.57143,178.57143 C 716.42857,695 710,779.28571 710,779.28571 L 460,852.85714 297.14286,813.57143 Z"
       id="path4227"
       inkscape:connector-curvature="0"
       sodipodi:nodetypes="cssssssssscccc" />
    <path
       style="fill:#991b16;fill-rule:evenodd;stroke:none;stroke-width:1px;stroke-linecap:butt;stroke-linejoin:miter;stroke-opacity:1;fill-opacity:1;opacity:0.783"
       d="m 312.85714,700 c -7.85714,-3.57143 -35.71428,65 -25.71428,65 10,0 20.71428,-42.14286 31.42857,-37.85714 10.71428,4.28571 -27.14286,52.14285 -20,59.28571 C 305.71429,793.57143 340,762.14286 345,755 c 5,-7.14286 7.14286,-22.85714 12.85714,-19.28571 5.71429,3.57142 -13.57143,50 -29.28571,57.14285 -15.71429,7.14286 -17.14286,11.42857 -7.14286,10.71429 10,-0.71429 39.28572,-7.85714 48.57143,-55 9.28571,-47.14286 10.71429,-80.71429 43.57143,-103.57143 32.85714,-22.85714 64.28571,-22.14286 63.57143,-32.14286 -0.71429,-10 -61.42857,-27.14285 -78.57143,-55 C 381.42857,530 379.28571,479.28571 420,457.85714 c 40.71429,-21.42857 57.14286,-34.28571 58.57143,-45.71428 1.42857,-11.42857 -18.57143,-5 -11.42857,-17.85715 7.14285,-12.85714 31.42857,-5 32.14285,-20.71428 0.71429,-15.71429 -7.85714,-35.71429 0,-36.42857 7.85715,-0.71429 17.14286,8.57143 22.14286,0.71428 5,-7.85714 1.42857,-22.85714 24.28572,-35 22.85714,-12.14286 37.14285,-7.85714 34.28571,-15 -2.85714,-7.14286 -40.71429,-9.28571 -40,-16.42857 0.71429,-7.14286 60,2.85714 61.42857,-6.42857 1.42857,-9.28572 -87.14286,-33.57143 -86.42857,-39.28572 0.71429,-5.71428 29.28571,-12.85714 95.71429,33.57143 66.42857,46.42857 72.85714,32.85715 92.85714,120 20,87.14286 27.14286,105 20.71429,206.42858 -6.42858,101.42857 -17.14286,195 -17.14286,195 l -245,67.85714 -165,-37.85714 c 0,0 -17.14286,-40.71429 -19.28572,-61.42858 -2.14285,-20.71428 25,-57.85714 35,-49.28571 z"
       id="path4229"
       inkscape:connector-curvature="0" />
    <ellipse
       style="fill:#838383;fill-opacity:1;stroke:none"
       id="path4231"
       cx="491.42856"
       cy="514.85712"
       rx="102.14286"
       ry="76.428574" />
    <ellipse
       ry="61.823177"
       rx="86.174904"
       cy="514.85712"
       cx="491.42856"
       id="ellipse4237"
       style="fill:url(#radialGradient4289);fill-opacity:1;stroke:none" />
    <path
       style="fill:url(#linearGradient4297);fill-opacity:1;fill-rule:evenodd;stroke:none;stroke-width:1px;stroke-linecap:butt;stroke-linejoin:miter;stroke-opacity:1"
       d="m 288.57143,382.14286 c 0,0 -6.42857,-2.50001 -5.71428,-15.35715 0.71428,-12.85714 -0.71429,-28.21428 -3.57144,-35.35714 -2.85714,-7.14286 -9.28571,-5 -9.28571,-10.71429 0,-5.71428 2.85714,-9.28571 1.42857,-17.85714 -1.42857,-8.57143 -10.71428,-22.14286 -22.14286,-24.28571 -11.42857,-2.14286 -20,-13.57143 -10,-25 10,-11.42857 22.85715,-10 31.42858,-0.71429 8.57142,9.28572 22.14285,14.28572 26.42857,12.85714 4.28571,-1.42857 15,-10 19.28571,-7.85714 4.28572,2.14286 2.85714,3.57143 10,2.85714 C 333.57143,260 362.85715,241.42857 369.28572,245 c 6.42857,3.57143 12.85714,2.14286 7.85714,9.28571 -5,7.14286 -31.42858,29.28571 -48.57143,53.57142 -17.14286,24.28572 -35,65.00001 -40,74.28573 z"
       id="path4243"
       inkscape:connector-curvature="0"
       sodipodi:nodetypes="csssssssssssssc" />
    <path
       style="fill:url(#linearGradient4305);fill-opacity:1;fill-rule:evenodd;stroke:none;stroke-width:1px;stroke-linecap:butt;stroke-linejoin:miter;stroke-opacity:1"
       d="m 491.42858,212.85715 c -42.5,1.78571 -46.07144,6.78571 -56.42858,8.57142 0,-7.85715 37.14286,-29.28571 37.14286,-36.42857 0,-7.14286 -1.42857,-20.71429 -1.42857,-27.85714 0,-7.14286 4.28571,-22.85715 20,-24.28572 15.71428,-1.42857 22.85714,15 22.85714,26.42857 0,11.42857 -2.85714,21.42857 0.71428,26.42857 3.57143,5 37.85715,29.64286 37.14287,35.35715 -0.71429,5.71428 -17.5,-9.99999 -60,-8.21428 z"
       id="path4245"
       inkscape:connector-curvature="0"
       sodipodi:nodetypes="zcssssssz" />
    <path
       style="fill:url(#linearGradient4313);fill-opacity:1;fill-rule:evenodd;stroke:none;stroke-width:1px;stroke-linecap:butt;stroke-linejoin:miter;stroke-opacity:1"
       d="m 613.21429,255.71428 c 11.42857,10 31.78571,21.42857 44.64285,30.71429 12.85714,9.28571 33.21429,42.85714 33.21429,42.85714 5.78128,-3.15342 -6.78571,-35 -2.5,-40 4.28571,-5 22.85714,-20 25,-23.57143 2.14286,-3.57142 10.71429,-14.28571 -2.14286,-25 -12.85714,-10.71428 -25.71428,-6.42857 -29.28571,0 -3.57143,6.42858 -12.85715,21.42858 -17.85715,21.42858 -5,0 -41.07142,-20.00001 -51.07142,-6.42858 z"
       id="path4247"
       inkscape:connector-curvature="0"
       sodipodi:nodetypes="csssssssc" />
    <path
       style="fill:#fae5d7;fill-rule:evenodd;stroke:none;stroke-width:1px;stroke-linecap:butt;stroke-linejoin:miter;stroke-opacity:1;fill-opacity:0.484375"
       d="m 303.57143,782.14286 c 10,3.57143 23.57143,-14.28572 18.57143,-18.57143 -5,-4.28572 11.42857,-29.28572 7.14285,-27.14286 -4.28571,2.14286 -30.71428,39.28572 -25.71428,45.71429 z"
       id="path4249"
       inkscape:connector-curvature="0" />
    <path
       style="fill:#fae5d7;fill-rule:evenodd;stroke:none;stroke-width:1px;stroke-linecap:butt;stroke-linejoin:miter;stroke-opacity:1;fill-opacity:0.484375"
       d="m 287.14286,761.42857 c 4.28571,0 4.28571,-7.85714 9.28571,-19.28571 5,-11.42857 16.42857,-12.14286 15.71429,-17.85715 -0.71429,-5.71428 -10,-2.85714 -16.42857,8.57143 -6.42858,11.42857 -10,25.71429 -8.57143,28.57143 z"
       id="path4251"
       inkscape:connector-curvature="0" />
    <path
       style="fill:#fae5d7;fill-opacity:0.484375;fill-rule:evenodd;stroke:none;stroke-width:1px;stroke-linecap:butt;stroke-linejoin:miter;stroke-opacity:1"
       d="m 276.42857,729.28571 c 5,-2.14285 22.14286,-72.85714 27.85714,-83.57142 C 310,635 292.85714,601.42857 292.14286,556.42857 291.42857,511.42857 301.42857,450 311.42857,440 c 10,-10 42.14286,-10 67.85714,-22.85714 25.71429,-12.85715 46.42858,-39.28572 40,-39.28572 -6.42857,0 -70,32.85715 -82.14285,24.28572 C 325,393.57143 311.42857,354.28571 325.71429,335 340,315.71428 322.14286,320.71429 317.85714,327.14286 313.57143,333.57143 290,373.57143 285,395 c -5,21.42857 -13.57143,115 -18.57143,147.14286 -5,32.14285 -1.44934,91.17762 0.71429,118.57143 1.2239,15.4959 4.07929,22.63801 5.66558,32.92764 2.34572,15.21579 3.62013,27.97358 3.62013,35.64378 z"
       id="path4253"
       inkscape:connector-curvature="0"
       sodipodi:nodetypes="cssssssssssssc" />
    <ellipse
       style="fill:#838383;fill-opacity:1;stroke:none"
       id="path4233"
       cx="189.49887"
       cy="482.271"
       rx="67.613724"
       ry="50.217419"
       transform="matrix(0.89660316,-0.44283493,0.42082533,0.90714169,0,0)" />
    <ellipse
       transform="matrix(-0.89660316,-0.44283493,-0.42082533,0.90714169,0,0)"
       ry="54.687115"
       rx="73.631813"
       cy="52.972088"
       cx="-702.81836"
       id="ellipse4235"
       style="fill:#838383;fill-opacity:1;stroke:none" />
    <ellipse
       style="fill:url(#radialGradient4273);fill-opacity:1;stroke:none"
       id="ellipse4239"
       cx="-702.81836"
       cy="52.972088"
       rx="59.456776"
       ry="44.159168"
       transform="matrix(-0.89660316,-0.44283493,-0.42082533,0.90714169,0,0)" />
    <ellipse
       transform="matrix(0.89660316,-0.44283493,0.42082533,0.90714169,0,0)"
       ry="40.347469"
       rx="54.324627"
       cy="482.271"
       cx="189.49887"
       id="ellipse4241"
       style="fill:url(#radialGradient4281);fill-opacity:1.0;stroke:none" />
    <path
       style="fill:#3a3a3a;fill-rule:evenodd;stroke:none;stroke-width:1px;stroke-linecap:butt;stroke-linejoin:miter;stroke-opacity:1;fill-opacity:1;opacity:0.166"
       d="m 483.57143,720 c 18.57143,0 76.42857,-14.28571 74.28571,-10 -2.14285,4.28571 -63.57143,17.14286 -73.57143,17.85714 -10,0.71429 -57.14285,-10.71428 -55.71428,-14.28571 C 430,710 477.14286,720 483.57143,720 Z"
       id="path4315"
       inkscape:connector-curvature="0" />
  </g>
  <g
     inkscape:groupmode="layer"
     id="layer3"
     inkscape:label="Jacket">
    <path
       style="fill:#292293;fill-opacity:1;fill-rule:evenodd;stroke:none;stroke-width:1px;stroke-linecap:butt;stroke-linejoin:miter;stroke-opacity:1"
       d="m 0,1000 0,-10.6066 c 0,0 29.041886,1.01015 39.648487,-1.76777 10.606602,-2.77792 15.909903,-5.80838 26.769043,-7.3236 10.85914,-1.51523 69.95306,0.50507 82.32743,-5.05077 12.37437,-5.55584 45.96194,-43.6891 57.07362,-50.00255 11.11168,-6.31345 53.03301,-7.57614 52.2754,-9.59645 -0.75762,-2.0203 -2.27285,-13.63706 -0.50508,-16.16244 1.76777,-2.52538 13.63706,-10.35406 13.38452,-13.38452 -0.25254,-3.03046 -14.64721,-5.55584 -12.12183,-19.1929 2.52538,-13.63706 25.00128,-36.87057 26.01143,-42.67894 1.01015,-5.80838 -5.05076,-21.71828 -1.51523,-26.26397 3.53553,-4.54569 6.73187,-9.84155 9.25725,-8.07378 2.52538,1.76777 11.36422,14.64721 21.2132,16.66752 9.84899,2.0203 101.35446,-0.25998 107.66791,4.03317 6.31345,4.29315 22.47589,17.17259 35.1028,17.93021 12.62691,0.75761 25.25381,-5.30331 35.1028,-7.07107 9.84899,-1.76777 95.66863,-8.32632 112.58869,-13.12455 16.92005,-4.79822 54.33902,-17.97354 71.00654,-21.25654 16.66751,-3.28299 33.08249,-13.09608 36.36549,-10.5707 3.28299,2.52538 19.44544,21.46574 19.69797,30.30458 0.25254,8.83883 -2.52538,13.88959 -1.51523,21.71828 1.01016,7.82868 14.39468,32.32488 22.4759,35.35533 8.08122,3.03046 63.13453,16.66752 79.04444,23.23351 15.9099,6.56599 24.24366,17.93021 32.07234,19.1929 7.82868,1.26269 107.8848,33.0825 122.22846,41.16372 C 1000,955.55329 1000,961.6142 1000,961.6142 l 0,38.3858 z"
       id="path4214"
       inkscape:connector-curvature="0"
       sodipodi:nodetypes="ccssssssssssssssssssssssssccc" />
    <path
       style="fill:#22213f;fill-rule:evenodd;stroke:none;stroke-width:1px;stroke-linecap:butt;stroke-linejoin:miter;stroke-opacity:1;fill-opacity:1"
       d="M 405,1000 445.71429,901.42857 720,817.85714 c 0,0 21.42857,40.71429 27.14286,45 5.71428,4.28572 75.71428,22.14286 87.14286,28.57143 11.42857,6.42857 6.42857,9.28572 19.28571,14.28572 C 866.42857,910.71429 1000,945 1000,953.57143 c 0,8.57143 0,46.42857 0,46.42857 z"
       id="path4257"
       inkscape:connector-curvature="0" />
    <path
       style="fill:#322f5e;fill-rule:evenodd;stroke:none;stroke-width:1px;stroke-linecap:butt;stroke-linejoin:miter;stroke-opacity:1;fill-opacity:1"
       d="m 500.53059,956.81598 c 5.05076,1.76777 46.46701,-7.57615 58.84138,-3.03046 12.37437,4.54569 25.75889,26.26397 39.90103,30.30458 14.14213,4.04061 110.35916,15.9099 111.11678,15.9099 0.75761,0 -106.5711,-19.95051 -97.47972,-31.81981 9.09137,-11.86929 96.97464,-42.17386 96.21703,-47.47716 -0.75762,-5.30331 -87.3782,-1.01016 -82.83251,-4.54569 4.54569,-3.53554 42.67894,-5.05076 44.95179,-7.57615 2.27284,-2.52538 -52.78047,-2.27284 -47.98225,-9.34391 4.79823,-7.07106 126.77415,-28.53681 122.98607,-36.11295 -3.78807,-7.57614 -10.85914,-38.3858 -20.20305,-37.88072 -9.34391,0.50508 -201.52543,37.88072 -205.81858,43.18402 -4.29315,5.3033 -26.5165,85.35789 -19.69797,88.38835 z"
       id="path4220"
       inkscape:connector-curvature="0" />
    <path
       style="fill:#403c78;fill-opacity:1;fill-rule:evenodd;stroke:none;stroke-width:1px;stroke-linecap:butt;stroke-linejoin:miter;stroke-opacity:1"
       d="m 472.75139,957.82613 c 1.51523,-4.54569 9.09137,-9.34391 9.84899,-17.67767 0.75761,-8.33376 -5.55584,-56.06346 -4.04061,-67.68022 1.51523,-11.61675 26.26397,-34.59772 27.27412,-40.4061 1.01015,-5.80838 -7.82868,-7.82868 -4.29315,-9.59645 3.53553,-1.76777 73.99367,-4.49492 95.45941,-10.80838 21.46575,-6.31345 86.92389,-23.40682 95.00511,-28.71012 8.08122,-5.30331 13.58629,-3.16045 18.63706,-2.15029 5.05076,1.01015 14.39467,17.42513 14.14213,26.26396 -0.25254,8.83884 7.82868,17.67767 2.52538,21.46575 -5.3033,3.78807 -53.53808,23.48604 -88.13581,29.29442 -34.59772,5.80838 -110.6117,9.34391 -108.08632,14.89975 2.52538,5.55584 146.9772,-10.10153 145.46197,-5.3033 -1.51523,4.79822 -165.15994,26.76904 -162.12949,35.60788 3.03046,8.83883 99.50003,-4.29315 99.75257,2.27284 0.25254,6.56599 -89.14596,18.68782 -99.50003,22.22335 -10.35406,3.53554 -8.83883,29.29443 -14.39467,30.05204 -5.55584,0.75762 -27.52666,0.25254 -27.52666,0.25254 z"
       id="path4218"
       inkscape:connector-curvature="0"
       sodipodi:nodetypes="cssssssssssssssssc" />
    <path
       style="fill:#b9b5ee;fill-opacity:1;fill-rule:evenodd;stroke:none;stroke-width:1px;stroke-linecap:butt;stroke-linejoin:miter;stroke-opacity:1"
       d="m 282.9727,801.73218 c 3.28299,-4.79822 6.89776,-13.09916 8.91806,-10.82632 2.02031,2.27284 10.39739,13.27991 16.71084,15.04768 6.31346,1.76776 47.74765,2.3954 47.74765,2.3954 l 38.1766,1.81853 53.96701,148.71958 L 375.52421,1000 13.889598,1000 c 0,0 12.12183,-6.31345 30.052038,-9.84899 17.930207,-3.53553 38.638335,-7.3236 53.538085,-7.82868 14.899749,-0.50508 32.324879,2.02031 47.729709,-3.03046 15.40482,-5.05076 48.9924,-46.71955 63.89215,-53.28554 14.89975,-6.566 49.49747,-5.55584 50.76016,-9.59645 1.26269,-4.04061 -4.79822,-13.38452 -0.50507,-16.16244 4.29314,-2.77792 12.91225,-6.82596 13.97625,-14.48134 0.88635,-6.37718 -14.43801,-9.23187 -12.67024,-18.32324 1.76777,-9.09137 22.60589,-33.34247 25.96811,-42.45179 2.54192,-6.88686 -3.65809,-23.25889 -3.65809,-23.25889 z"
       id="path4224"
       inkscape:connector-curvature="0"
       sodipodi:nodetypes="csscccccsssssssssc" />
    <path
       style="fill:#e4e3f1;fill-rule:evenodd;stroke:none;stroke-width:1px;stroke-linecap:butt;stroke-linejoin:miter;stroke-opacity:1;fill-opacity:1"
       d="m 372.49375,810.09132 c 0,0 43.43656,-2.0203 46.97209,0 3.53554,2.02031 17.93021,17.93021 34.59773,18.18275 16.66752,0.25254 42.93148,-11.36422 45.7094,-7.57615 2.77792,3.78808 9.34391,3.53554 7.32361,11.8693 -2.02031,8.33375 -26.76904,39.90102 -26.76904,39.90102 l 5.3033,72.98352 -11.11168,13.13199 c 0,0 -13.38452,2.27284 -27.52666,7.3236 -14.14213,5.05076 -19.1929,3.03046 -23.48604,11.11168 -4.29315,8.08122 -6.566,22.98097 -6.566,22.98097 l -45.20432,0 c 0,0 12.37437,-30.55711 23.48604,-35.60788 11.11168,-5.05076 43.18403,1.51523 47.22464,-5.05076 4.04061,-6.56599 4.54568,-55.30585 4.54568,-55.30585 l -30.05204,-65.15484 c 0,0 -30.80965,-26.01143 -44.44671,-28.78935 z"
       id="path4222"
       inkscape:connector-curvature="0" />
    <path
       style="fill:#7d75df;fill-opacity:1;fill-rule:evenodd;stroke:none;stroke-width:1px;stroke-linecap:butt;stroke-linejoin:miter;stroke-opacity:1"
       d="m 442.8219,959.00216 c 1.51523,-6.06091 3.91806,-17.08593 4.42314,-29.71284 0.50508,-12.62691 2.02031,-40.15356 -0.75761,-47.98224 -2.77792,-7.82869 -19.44544,-42.42641 -27.27412,-49.75002 -7.82869,-7.3236 -18.68783,-15.65736 -23.48605,-18.18274 -4.79822,-2.52538 -46.71956,-4.79823 -46.46702,-2.27285 0.25254,2.52539 41.41626,5.55584 41.16372,10.85914 -0.25254,5.3033 -72.47845,-3.78807 -77.02413,-2.77792 -4.54569,1.01016 57.32615,21.97082 52.78047,22.98097 -4.54569,1.01016 -60.10408,-8.08122 -61.61931,-6.06091 -1.51523,2.0203 78.28683,33.33503 71.4683,41.41625 -6.81853,8.08122 -100.51018,-28.03173 -83.84267,-6.56599 16.66752,21.46574 39.64849,34.59773 30.30458,41.16372 -9.34391,6.56599 -51.26524,-4.54569 -49.24494,6.31345 2.02031,10.85914 26.76905,26.01143 60.10408,27.7792 33.33503,1.76776 109.47156,12.79278 109.47156,12.79278 z"
       id="path4216"
       inkscape:connector-curvature="0"
       sodipodi:nodetypes="cssssssssssssssc" />
  </g>
</svg>
