<?xml version="1.0" encoding="UTF-8" standalone="no"?>
<!-- Created with Inkscape (http://www.inkscape.org/) -->

<svg
   xmlns:dc="http://purl.org/dc/elements/1.1/"
   xmlns:cc="http://creativecommons.org/ns#"
   xmlns:rdf="http://www.w3.org/1999/02/22-rdf-syntax-ns#"
   xmlns:svg="http://www.w3.org/2000/svg"
   xmlns="http://www.w3.org/2000/svg"
   xmlns:sodipodi="http://sodipodi.sourceforge.net/DTD/sodipodi-0.dtd"
   xmlns:inkscape="http://www.inkscape.org/namespaces/inkscape"
   width="1365.3334"
   height="768"
   viewBox="0 0 338.66666 190.50001"
   id="svg2"
   version="1.1"
   inkscape:version="0.92.2 5c3e80d, 2017-08-06"
   sodipodi:docname="san-lorenzo-thumbnail.svg"
   inkscape:export-filename="/Users/agarone/Documents/GitHub/art/pat-metheny/san-lorenzo/san-lorenzo-thumbnail.png"
   inkscape:export-xdpi="135"
   inkscape:export-ydpi="135">
  <defs
     id="defs4">
    <linearGradient
       id="linearGradient3995">
      <stop
         style="stop-color:#f46200;stop-opacity:1"
         id="stop3997"
         offset="0" />
      <stop
         style="stop-color:#7a3100;stop-opacity:1"
         id="stop3999"
         offset="1" />
    </linearGradient>
    <linearGradient
       id="linearGradient3980">
      <stop
         style="stop-color:#a05a2c;stop-opacity:1"
         id="stop3982"
         offset="0" />
      <stop
         style="stop-color:#63381b;stop-opacity:1"
         id="stop3984"
         offset="1" />
    </linearGradient>
    <linearGradient
       id="linearGradient3970">
      <stop
         style="stop-color:#d45500;stop-opacity:1"
         id="stop3972"
         offset="0" />
      <stop
         style="stop-color:#8b3800;stop-opacity:1"
         id="stop3974"
         offset="1" />
    </linearGradient>
    <linearGradient
       id="linearGradient3942">
      <stop
         style="stop-color:#f9f9f9;stop-opacity:1"
         id="stop3944"
         offset="0" />
      <stop
         style="stop-color:#c1dfee;stop-opacity:1"
         id="stop3946"
         offset="1" />
    </linearGradient>
    <clipPath
       id="clipPath4408"
       clipPathUnits="userSpaceOnUse">
      <path
         style="fill:#00aad4;stroke:#000000;stroke-width:0.98000002"
         d="m 696.25,529.15 c 0,0 26.26,-20.91 40.41,-24.56 14.14,-3.65 33.34,-6.81 46.97,0.49 13.64,7.29 6.31,65.9 -24.24,72.7 -30.56,6.81 -69.7,-4.86 -63.13,-48.63 z"
         id="path4410"
         inkscape:connector-curvature="0"
         sodipodi:nodetypes="csssc" />
    </clipPath>
    <clipPath
       id="clipPath4415"
       clipPathUnits="userSpaceOnUse">
      <path
         style="fill:#00aad4;stroke:#000000;stroke-width:0.94999999"
         d="m 787.83,524.52 c 0,0 10.35,15.5 2.02,29.86 -8.33,14.36 -24.75,32.82 -61.87,21.65 -37.12,-11.17 -41.16,-53.56 -26.01,-66.55 15.15,-12.99 28.28,-14.13 85.86,15.04 z"
         id="path4417"
         inkscape:connector-curvature="0" />
    </clipPath>
  </defs>
  <sodipodi:namedview
     id="base"
     pagecolor="#ffffff"
     bordercolor="#666666"
     borderopacity="1.0"
     inkscape:pageopacity="0.0"
     inkscape:pageshadow="2"
     inkscape:zoom="0.98994949"
     inkscape:cx="385.84024"
     inkscape:cy="357.96949"
     inkscape:document-units="px"
     inkscape:current-layer="layer4"
     showgrid="false"
     units="px"
     inkscape:window-width="3200"
     inkscape:window-height="1677"
     inkscape:window-x="0"
     inkscape:window-y="1"
     inkscape:window-maximized="1" />
  <metadata
     id="metadata7">
    <rdf:RDF>
      <cc:Work
         rdf:about="">
        <dc:format>image/svg+xml</dc:format>
        <dc:type
           rdf:resource="http://purl.org/dc/dcmitype/StillImage" />
        <dc:title />
      </cc:Work>
    </rdf:RDF>
  </metadata>
  <g
     inkscape:label="Gray BG"
     inkscape:groupmode="layer"
     id="layer1"
     transform="translate(0,-106.49999)">
    <rect
       style="opacity:1;fill:#646468;fill-opacity:1;stroke:none;stroke-width:16.0535984;stroke-miterlimit:4;stroke-dasharray:none;stroke-opacity:1"
       id="rect4141"
       width="338.66669"
       height="190.5"
       x="1.4210855e-014"
       y="106.49999" />
  </g>
  <g
     inkscape:groupmode="layer"
     id="layer2"
     inkscape:label="Orange Banner">
    <rect
       style="opacity:1;fill:#de3d2d;fill-opacity:1;stroke:none;stroke-width:11.03082752;stroke-miterlimit:4;stroke-dasharray:none;stroke-opacity:1"
       id="rect4144"
       width="338.66669"
       height="43.65625"
       x="0"
       y="146.84375" />
  </g>
  <g
     inkscape:label="Blue Banner"
     id="g4203"
     inkscape:groupmode="layer">
    <rect
       y="146.84375"
       x="0"
       height="43.65625"
       width="338.66669"
       id="rect4205"
       style="opacity:1;fill:#618242;fill-opacity:1;stroke:none;stroke-width:11.03082752;stroke-miterlimit:4;stroke-dasharray:none;stroke-opacity:1" />
  </g>
  <g
     inkscape:groupmode="layer"
     id="layer3"
     inkscape:label="Discover"
     style="display:none">
    <text
       xml:space="preserve"
       style="font-style:normal;font-variant:normal;font-weight:normal;font-stretch:normal;line-height:0%;font-family:Museo;-inkscape-font-specification:'Museo, Normal';text-align:start;letter-spacing:0px;word-spacing:0px;writing-mode:lr-tb;text-anchor:start;fill:#ffffff;fill-opacity:1;stroke:none;stroke-width:0.50668812px;stroke-linecap:butt;stroke-linejoin:miter;stroke-opacity:1"
       x="173.85484"
       y="40.767208"
       id="text4147"><tspan
         sodipodi:role="line"
         id="tspan4164"
         x="173.85484"
         y="40.767208"
         style="font-size:20.26743698px;line-height:1.25">DISCOVER:</tspan></text>
  </g>
  <g
     inkscape:label="Interview"
     id="g4209"
     inkscape:groupmode="layer">
    <text
       id="text4211"
       y="16.988796"
       x="135.4222"
       style="font-style:normal;font-variant:normal;font-weight:normal;font-stretch:normal;line-height:0%;font-family:Museo;-inkscape-font-specification:'Museo, Normal';text-align:start;letter-spacing:0px;word-spacing:0px;writing-mode:lr-tb;text-anchor:start;fill:#ffffff;fill-opacity:1;stroke:none;stroke-width:0.485937px;stroke-linecap:butt;stroke-linejoin:miter;stroke-opacity:1"
       xml:space="preserve"
       transform="scale(1.0095257,0.9905642)"><tspan
         id="tspan4213"
         sodipodi:role="line"
         x="135.4222"
         y="16.988796"
         style="font-size:19.43739319px;line-height:1.25;stroke-width:0.485937px">LEARN:</tspan></text>
  </g>
  <g
     inkscape:groupmode="layer"
     id="layer4"
     inkscape:label="Artist Name">
    <text
       xml:space="preserve"
       style="font-style:normal;font-variant:normal;font-weight:600;font-stretch:normal;font-size:12.70371628px;line-height:0%;font-family:Museo;-inkscape-font-specification:'Museo, Semi-Bold';text-align:start;letter-spacing:0px;word-spacing:0px;writing-mode:lr-tb;text-anchor:start;fill:#ffffff;fill-opacity:1;stroke:none;stroke-width:0.65530521px;stroke-linecap:butt;stroke-linejoin:miter;stroke-opacity:1"
       x="136.12224"
       y="40.925148"
       id="text4158"
       transform="scale(1.0095257,0.99056419)"><tspan
         sodipodi:role="line"
         x="136.12224"
         y="40.925148"
         style="font-style:normal;font-variant:normal;font-weight:600;font-stretch:normal;font-size:26.21243668px;line-height:100%;font-family:Museo;-inkscape-font-specification:'Museo, Semi-Bold';text-align:start;writing-mode:lr-tb;text-anchor:start;fill:#ffffff;fill-opacity:1;stroke-width:0.65530521px"
         id="tspan4261">&quot;San Lorenzo&quot;</tspan><tspan
         sodipodi:role="line"
         x="136.12224"
         y="67.137589"
         style="font-style:normal;font-variant:normal;font-weight:600;font-stretch:normal;font-size:26.21243668px;line-height:100%;font-family:Museo;-inkscape-font-specification:'Museo, Semi-Bold';text-align:start;writing-mode:lr-tb;text-anchor:start;fill:#ffffff;fill-opacity:1;stroke-width:0.65530521px"
         id="tspan914">by Pat Metheny</tspan><tspan
         sodipodi:role="line"
         x="136.12224"
         y="93.350021"
         style="font-style:normal;font-variant:normal;font-weight:600;font-stretch:normal;font-size:26.21243668px;line-height:100%;font-family:Museo;-inkscape-font-specification:'Museo, Semi-Bold';text-align:start;writing-mode:lr-tb;text-anchor:start;fill:#ffffff;fill-opacity:1;stroke-width:0.65530521px"
         id="tspan916">&amp; Lyle Mays</tspan></text>
    <g
       id="g1021"
       transform="matrix(0.51000303,0,0,0.51000303,2.9765627,1.4882881)">
      <g
         style="display:none"
         transform="translate(0,-32.41665)"
         id="layer1-9"
         inkscape:label="BG">
        <rect
           style="fill:#ffffff;fill-opacity:1;stroke-width:0.26458332"
           y="32.416641"
           x="0"
           height="264.58334"
           width="264.58334"
           id="rect4493" />
      </g>
      <g
         style="opacity:1"
         inkscape:label="Pat"
         id="layer2-3">
        <path
           inkscape:connector-curvature="0"
           id="path5159"
           d="m 110.36905,185.58631 c -13.985124,9.4494 -29.860124,17.00893 -38.175599,22.30059 -8.315476,5.29167 -29.104167,12.47322 -31.75,15.875 -2.645833,3.40179 0.377976,7.18155 -2.645833,13.60715 -3.023809,6.42559 -9.827379,21.54464 -13.229166,30.99404 -3.401786,9.44941 -4.91369,17.00892 -4.91369,17.00892 H 312.58631 c 0,0 -1.13392,-3.77976 0.75594,-7.9375 1.8899,-4.15774 -4.91368,-4.91368 -6.42559,-11.33927 -1.51191,-6.4256 -2.64583,-27.21429 -9.44941,-40.44346 -6.80357,-13.22916 -17.00892,-30.23809 -20.78868,-35.15178 -3.77976,-4.91369 -12.47322,-1.88988 -19.65476,-6.80357 -7.18155,-4.91369 -23.05655,-7.55953 -34.01786,-9.07143 -10.96131,-1.51191 -19.27679,-3.77976 -32.50595,-3.40179 -13.22917,0.37798 -80.13095,14.3631 -80.13095,14.3631 z"
           style="fill:#2ca02c;stroke:none;stroke-width:0.26458332px;stroke-linecap:butt;stroke-linejoin:miter;stroke-opacity:1" />
        <path
           inkscape:connector-curvature="0"
           id="path5125"
           d="m 119.87038,169.16811 c -9.88897,17.63979 -10.42351,20.57975 -9.75534,24.32153 0.66818,3.74177 25.12334,38.35317 72.29641,16.57071 47.17307,-21.78247 11.89349,-50.38031 7.48355,-58.26476 -4.40995,-7.88445 -5.61266,-30.46872 -10.15624,-31.93871 -4.54359,-1.46998 -6.81538,-0.93544 -6.81538,0.13364 0,1.06907 1.06908,11.22532 -3.4745,19.10977 -4.54358,7.88445 -11.75986,15.7689 -20.84702,21.24793 -9.08717,5.47902 -23.78699,10.55714 -28.73148,8.81989 z"
           style="fill:#2b1100;stroke:none;stroke-width:0.26458332px;stroke-linecap:butt;stroke-linejoin:miter;stroke-opacity:1" />
        <path
           inkscape:connector-curvature="0"
           id="path5123"
           d="m 174.25973,121.4605 c 3.87541,-1.20271 4.67722,0.53454 5.47903,4.40995 0.8018,3.8754 -2.80633,12.82893 -1.46999,17.90706 1.33635,5.07812 5.07812,7.88445 4.00905,11.09168 -1.06908,3.20723 -5.61267,17.23888 -2.13816,23.51972 3.4745,6.28083 7.48355,7.34991 10.95805,7.08264 3.4745,-0.26727 6.1472,4.40995 6.1472,4.40995 0,0 -14.03165,18.17433 -27.92967,20.84702 -13.89801,2.6727 -39.68952,1.46998 -46.77216,-4.14268 -7.08265,-5.61266 -10.82442,-14.69982 -10.82442,-14.69982 0,0 5.47903,-2.53906 8.41899,1.46998 2.93997,4.00904 6.28083,5.7463 5.21176,2.6727 -1.06908,-3.0736 -6.81538,-11.22532 -4.54359,-9.62171 2.2718,1.60362 3.47451,5.34539 8.01809,9.48807 4.54358,4.14268 12.96257,5.47903 10.95805,4.67722 -2.00452,-0.80181 -10.95805,-3.74177 -14.69982,-10.42351 -3.74177,-6.68174 -4.54358,-8.95353 -0.80181,-9.2208 3.74177,-0.26727 5.87993,-2.80633 9.35443,-2.40543 3.47451,0.40091 7.34991,1.33635 4.54359,-0.80181 -2.80634,-2.13815 -3.74178,-4.40994 1.06907,-4.81085 4.81085,-0.4009 9.35444,3.0736 8.55263,0.53454 -0.80181,-2.53906 4.67721,-3.0736 1.87088,-3.74177 -2.80633,-0.66818 -10.15624,-0.4009 -7.21627,-1.73725 2.93996,-1.33635 4.94448,-3.34087 7.61718,-3.87541 2.67269,-0.53454 4.40994,0.66817 3.87541,-1.87089 -0.53454,-2.53906 9.35443,-8.15172 13.0962,-14.03165 3.74178,-5.87993 8.95353,-18.8425 7.21628,-26.72695 z"
           style="fill:#deaa87;stroke:none;stroke-width:0.26458332px;stroke-linecap:butt;stroke-linejoin:miter;stroke-opacity:1" />
        <path
           sodipodi:nodetypes="csscscccscscssccscscccssscccccsscsscccccccccscscscsscccccccccssscscc"
           inkscape:connector-curvature="0"
           id="path5109"
           d="m 56.979909,117.64509 c -0.188986,4.81919 1.511906,4.25223 3.118305,6.3311 1.606399,2.07887 -4.819197,0.47247 -5.291666,5.66964 -0.472472,5.19718 3.77976,8.50447 3.77976,8.50447 0,0 -2.645833,-2.36236 -2.929315,-6.14212 -0.283483,-3.77976 2.36235,-5.66964 3.401787,-2.26786 1.039434,3.40179 0,6.4256 0,6.4256 0,0 1.228421,-1.13393 1.41741,-2.26786 0.188987,-1.13393 3.496278,-9.16592 3.118302,-2.64583 -0.377975,6.52009 -2.740326,10.11086 -6.614583,12.47321 -3.874254,2.36236 -6.047618,6.80358 -4.252232,11.71727 1.795388,4.91369 -0.28348,7.843 -0.28348,7.843 0,0 1.795386,-0.56696 1.41741,-5.19717 -0.377976,-4.63021 -1.228424,-9.82738 1.700892,-10.77232 2.929316,-0.94494 7.559524,-4.44122 7.559524,-4.44122 0,0 -2.456846,5.19717 -4.819197,6.42559 -2.362351,1.22843 -5.480653,5.29167 -3.401785,10.20536 2.078868,4.91369 5.858632,3.30729 5.858632,3.30729 0,0 -4.441222,0.94494 -5.386163,-3.96875 -0.944938,-4.91369 5.008187,-6.80357 5.291667,-4.34672 0.283482,2.45684 0.0945,7.18154 3.212798,8.22098 3.118305,1.03943 3.874257,0.66146 3.874257,0.66146 0,0 -5.764139,-0.47247 -5.291667,-6.89807 0.472469,-6.42559 3.496278,-12.6622 2.740327,-15.30803 -0.755952,-2.64584 2.740326,-1.79539 1.889881,2.17336 -0.850447,3.96875 -2.267857,6.3311 -1.41741,9.4494 0.850445,3.11831 3.307292,2.92932 3.212796,5.66965 -0.09449,2.74032 -1.228421,7.18154 -0.09449,8.31547 1.133927,1.13393 2.55134,0.56697 2.55134,0.56697 0,0 -3.023809,-1.7009 0,-1.13393 3.023809,0.56696 -0.377976,2.92931 -2.078871,6.04762 -1.700893,3.1183 0.377978,9.07142 -3.779761,13.22916 -4.157739,4.15774 -1.984375,11.52828 -1.984375,11.52828 0,0 -0.188989,-5.48066 0.755952,-7.65402 0.944941,-2.17336 4.252232,-3.49628 2.55134,0.56696 -1.700893,4.06325 -2.740327,5.66964 -0.944941,9.35492 1.795388,3.68526 8.787947,4.15773 8.787947,4.15773 0,0 -1.511905,3.11831 0.47247,4.44122 1.984375,1.32292 8.598958,1.22842 8.598958,1.22842 0,0 -3.118303,-0.75595 -1.322917,-2.74032 1.795389,-1.98438 8.031993,-4.91369 8.126489,-6.4256 0.09449,-1.5119 2.929316,0.85045 -1.417412,4.25223 -4.346726,3.40179 -0.755952,7.27604 -0.755952,7.27604 0,0 -1.700892,-2.55133 -0.755952,-4.44121 0.944941,-1.88989 6.614584,-3.87426 7.843007,-7.27605 1.228421,-3.40178 3.874254,-5.76413 7.181539,-8.78794 3.3073,-3.02381 5.00819,-9.82738 5.95313,-6.80357 0.94494,3.02381 3.96875,0.47247 2.74033,5.19717 -1.22843,4.7247 -4.15774,8.50446 -8.032,9.82738 -3.874249,1.32292 -6.520082,1.32292 -6.520082,1.32292 0,0 2.929313,1.22842 7.937492,-1.22842 5.00819,-2.45685 7.74852,-9.5439 8.78795,-9.5439 1.03943,0 3.96875,6.52008 0.85045,11.43377 -3.11831,4.91369 -8.40997,3.68527 -8.40997,3.68527 0,0 5.66964,1.7009 8.78794,-2.92931 3.11831,-4.63021 2.36235,-9.82738 4.25224,-9.07143 1.88988,0.75595 0.85044,3.30729 2.55134,5.95312 1.70089,2.64584 5.00818,1.98438 5.00818,1.98438 0,0 -3.68527,-1.5119 -2.64583,-5.19718 1.03943,-3.68526 -6.70908,-13.32365 -5.38617,-15.49702 1.32292,-2.17336 11.01667,-5.76251 10.92218,-8.50284 -0.0945,-2.74032 -6.95343,-1.51353 -12.90655,-4.82082 -5.95313,-3.30729 -17.103419,-11.90625 -22.206099,-23.34003 -5.102677,-11.43378 -5.858632,-20.22566 -6.992559,-25.8953 -1.133928,-5.66964 -5.790997,-15.4009 -7.775372,-18.235716 -1.984375,-2.83483 -8.477604,7.183846 -13.391295,10.680126 -4.91369,3.49628 -9.165923,7.65402 -9.165923,7.65402 z"
           style="fill:#28170b;stroke:none;stroke-width:0.26458332px;stroke-linecap:butt;stroke-linejoin:miter;stroke-opacity:1" />
        <path
           sodipodi:nodetypes="csssscssscssssc"
           inkscape:connector-curvature="0"
           id="path5077"
           d="m 82.051744,67.338421 c -4.276313,10.69078 -3.474503,18.575231 -3.207235,24.054257 0.267269,5.479026 0.534541,11.626222 2.004523,14.967092 1.46998,3.34087 5.078119,6.81537 5.746293,10.42351 0.668176,3.60814 -0.668174,11.35896 4.276314,20.71339 4.944486,9.35443 8.686258,17.77342 15.368001,22.58427 6.68173,4.81086 16.30344,12.56167 24.9897,10.55715 8.68626,-2.00452 27.52876,-14.43255 34.87867,-25.12333 7.34991,-10.69078 7.61718,-20.31249 7.61718,-23.38609 0,-3.0736 0,-2.80632 2.53906,-3.20723 2.53906,-0.4009 2.93997,-0.53454 5.21176,-3.60814 2.27179,-3.0736 5.47902,-11.09169 2.93996,-16.83798 -2.53906,-5.746295 -3.20723,-8.68626 -12.16076,-11.759859 C 163.30168,83.641863 138.84652,56.514004 123.61215,55.177658 108.37779,53.841311 90.06983,53.707675 82.051744,67.338421 Z"
           style="fill:#502d16;stroke:none;stroke-width:0.26458332px;stroke-linecap:butt;stroke-linejoin:miter;stroke-opacity:1" />
        <path
           inkscape:connector-curvature="0"
           id="path5121"
           d="m 172.35714,113.10937 c 0.75595,2.92932 0.56697,4.72471 0.94494,4.53572 0.37798,-0.18899 3.49628,1.03943 6.14212,-1.51191 2.64583,-2.55134 4.91369,-8.78794 4.91369,-11.43378 0,-2.64583 -0.75596,-7.370533 -3.59078,-10.205353 -2.83482,-2.834822 -12.37872,-5.764138 -13.70164,-2.362353 -1.32291,3.401787 5.29167,20.977676 5.29167,20.977676 z"
           style="fill:#deaa87;stroke:none;stroke-width:0.26458332px;stroke-linecap:butt;stroke-linejoin:miter;stroke-opacity:1" />
        <path
           id="path5079"
           transform="scale(0.26458333)"
           d="m 445.35742,215.71484 c -59.64287,0.35717 -118.08383,17.05352 -122.61328,54.95508 -19.69798,37.37565 -23.73905,24.24388 -19.19336,58.08399 4.54569,33.84011 10.10157,37.37503 7.57617,44.95117 -2.52538,7.57616 -6.06053,12.62774 -3.53515,15.6582 2.52538,3.03046 67.6793,-17.67886 73.74023,-9.59766 6.06089,8.08124 6.16853,40.59068 4.38281,46.66211 -1.78571,6.07144 -10.35852,16.78656 -6.78711,31.07227 3.57143,14.28571 17.50138,23.92939 26.78711,26.07227 9.2857,2.14284 27.50029,4.99975 17.85743,-0.35743 -9.64286,-5.35714 -5.00139,-9.64368 5.71289,-11.07226 10.71431,-1.42859 30.71513,-3.57114 33.57226,-12.14258 2.85717,-8.57144 2.50001,-16.78489 0,-21.42773 -2.49997,-4.64285 -2.50082,-6.78686 3.92774,-3.92969 6.42856,2.85713 22.14369,6.42831 33.57226,12.14258 11.42858,5.7143 38.21457,9.64259 45.35742,19.64257 7.14286,10.00003 9.64145,27.8577 5.71289,20.71485 -3.92859,-7.14286 -1.42744,-13.92886 -13.57031,-20.35742 -12.14283,-6.42856 -58.57199,-20.71292 -65.71484,-25.71289 -7.14286,-5.00002 -11.07147,-9.28573 -7.5,-2.5 3.57142,6.78572 3.92886,25.71402 -4.64258,29.64257 -8.57144,3.9286 -40.35766,8.21458 -33.21484,10.35743 7.14289,2.14284 18.92914,0.35575 15.71484,3.21289 -3.21426,2.85713 -13.57058,1.78629 -8.92773,5.71484 4.64288,3.92859 11.78543,16.42915 4.64257,10.71484 -7.14289,-5.71426 -11.07114,-11.42885 -17.14257,-5.35742 -6.07144,6.07143 -10.71458,12.85686 -15.35743,17.14258 -4.64288,4.28572 4.64175,6.07116 13.57032,4.64258 8.92856,-1.42859 18.21401,0.35773 24.64257,-4.28516 6.42856,-4.64285 7.85825,-5.71373 16.42969,-6.78515 8.5714,-1.07146 44.99972,-9.64423 54.64258,-14.28711 9.64286,-4.64285 27.85686,-16.42773 14.64258,-3.92774 -13.21429,12.5 -29.64229,29.99916 -44.28516,41.42774 -14.64287,11.42857 -31.42885,17.14257 -40.35742,19.64257 -8.92857,2.50001 -22.85714,0.71542 -17.5,8.92969 5.35714,8.21431 27.50028,15.00055 17.85742,15.71485 -9.64286,0.71429 -22.50001,-2.50083 -17.5,3.92773 4.99998,6.4286 15.71317,16.07198 6.07031,10.71484 -9.64286,-5.35717 -10.35658,-3.21512 -6.78515,6.42774 3.57142,9.64286 13.214,23.21427 27.14258,30 13.92858,6.78572 33.57172,11.78628 30.35742,3.21484 -3.2143,-8.5714 -12.50028,-33.21402 -2.85742,-22.14258 9.64286,11.07141 17.14339,18.21456 28.21484,15.35743 11.07141,-2.85714 29.64258,-25.00109 44.64258,-31.42969 15,-6.42856 41.07171,-19.2846 57.85742,-36.07031 16.78571,-16.78572 33.57197,-47.85771 35.71484,-65.71485 2.14284,-17.85713 5.35743,-35.35687 2.85743,-49.64258 C 648.57226,421.4291 636.78629,348.21345 610.71484,318.92773 584.6434,289.64202 505.00026,215.3577 445.35742,215.71484 Z m 52.77344,140.82032 c 13.67221,0.0569 30.24242,1.74945 26.13867,2.77539 -5.05073,1.26268 -22.72854,-1.00918 -25.25391,1.26367 -2.5254,2.27284 -14.64786,15.65664 -25.00195,17.17187 -10.35405,1.51524 -25.25291,-0.50584 -21.46484,2.01953 3.78807,2.52541 -6.06096,3.0319 -7.57617,0.25391 -1.26271,-2.27284 -2.52674,-7.0709 2.27148,-9.34375 4.79822,-2.27284 28.5368,-12.88047 42.17383,-13.89062 2.55695,-0.18941 5.55776,-0.26314 8.71289,-0.25 z"
           style="fill:#deaa87;stroke:none;stroke-width:0.99999994px;stroke-linecap:butt;stroke-linejoin:miter;stroke-opacity:1"
           inkscape:connector-curvature="0" />
        <path
           inkscape:connector-curvature="0"
           id="path5117"
           d="m 157.04911,80.036457 c 1.88988,9.260417 0.85044,7.748511 3.40178,14.268601 2.55134,6.520092 3.77976,13.229162 5.85863,16.725452 2.07887,3.49627 4.7247,3.96875 4.7247,3.96875 0,0 -1.5119,-1.03944 -0.66145,-0.94495 0.85044,0.0945 1.79538,0 1.79538,0 0,0 -1.6064,-0.47247 -0.75595,-0.75595 0.85045,-0.28348 2.45685,-0.66146 2.74033,-2.36235 0.28348,-1.70089 -0.18899,-2.74033 2.07887,-3.96875 2.26785,-1.22842 3.30729,-0.94494 3.30729,-0.94494 0,0 -1.98438,-2.26786 -1.41741,-3.02381 0.56696,-0.75595 3.77976,-2.92932 3.77976,-2.92932 0,0 -3.2128,0.94494 -2.74033,0 0.47247,-0.944935 3.68527,-0.566959 3.68527,-0.566959 0,0 -1.41741,-0.661458 -3.02381,-3.212798 -1.6064,-2.55134 -4.7247,-2.929316 -9.07143,-5.575149 -4.34672,-2.645833 -8.03199,-11.622768 -8.03199,-11.622768 0,0 -3.02381,-3.49628 -5.66964,0.944941 z"
           style="fill:#4b3b31;fill-opacity:1;stroke:none;stroke-width:0.26458332px;stroke-linecap:butt;stroke-linejoin:miter;stroke-opacity:1" />
        <path
           inkscape:connector-curvature="0"
           id="path5081"
           d="m 100.16369,105.73884 c -0.18899,-0.75596 0.37798,-1.79539 -1.322917,-1.79539 -1.700893,0 -4.157739,1.70089 -6.142114,1.51191 -1.984375,-0.18899 -3.307292,-1.03944 -5.102678,0.56696 -1.795388,1.6064 -1.700892,2.83482 -0.377975,3.02381 1.322916,0.18899 4.724701,-0.75595 6.520087,-1.6064 1.795388,-0.85045 4.535715,-1.79539 6.425597,-1.70089 z"
           style="fill:#deaa87;stroke:none;stroke-width:0.26458332px;stroke-linecap:butt;stroke-linejoin:miter;stroke-opacity:1" />
        <path
           inkscape:connector-curvature="0"
           id="path5083"
           d="m 87.973957,114.2433 c 0.09449,-0.94494 0.755952,-0.18899 3.118303,-1.03943 2.362353,-0.85045 2.740329,-2.55134 4.91369,-3.2128 2.173365,-0.66146 1.984375,-2.07887 3.307292,-2.07887 1.322918,0 1.795388,0.37798 1.795388,2.17336 0,1.79539 -1.700892,5.29167 -1.889881,7.37054 -0.188989,2.07887 0.661458,7.08705 0.283482,5.66964 -0.377976,-1.41741 -2.362351,-0.0945 -1.795388,2.92932 0.566965,3.02381 -2.740327,8.31547 0,8.50446 2.740327,0.18899 7.370537,-1.13393 7.465027,0 0.0945,1.13393 0.0945,4.8192 -1.22842,5.29167 -1.32292,0.47247 -6.614583,-1.98438 -6.80357,-0.56697 -0.188989,1.41741 0.377976,3.2128 2.551338,4.15774 2.173362,0.94494 9.921872,7.27604 8.976932,10.96131 -0.94494,3.68527 -4.15773,0.85045 -7.37053,-2.55134 -3.212799,-3.40178 -8.504465,-11.71726 -10.299854,-15.96949 -1.795385,-4.25223 -2.267857,-10.77232 -2.173361,-13.70164 0.09449,-2.92931 -1.795389,-2.92931 -1.039437,-4.63021 0.755954,-1.70089 3.590774,-1.22842 5.386163,-1.88988 1.795385,-0.66145 6.047618,-3.96875 3.968749,-3.02381 -2.07887,0.94494 -7.087055,4.06325 -9.165923,1.6064 z"
           style="fill:#deaa87;stroke:none;stroke-width:0.26458332px;stroke-linecap:butt;stroke-linejoin:miter;stroke-opacity:1" />
        <path
           inkscape:connector-curvature="0"
           id="path5085"
           d="m 107.15625,141.83556 c 3.96875,-0.18899 8.12649,0.0945 11.81176,-1.41741 3.68526,-1.5119 8.59895,-4.63021 11.52827,-5.76413 2.92932,-1.13393 7.08705,-4.25224 5.29167,-2.45685 -1.79539,1.79539 -5.57515,5.85863 -9.26042,8.22098 -3.68527,2.36235 -10.77232,5.00819 -13.41816,4.63021 -2.64583,-0.37798 -4.7247,-2.55134 -5.95312,-3.2128 z"
           style="fill:#8a4242;fill-opacity:1;stroke:none;stroke-width:0.26458332px;stroke-linecap:butt;stroke-linejoin:miter;stroke-opacity:1" />
        <path
           inkscape:connector-curvature="0"
           id="path5087"
           d="m 109.04613,138.24479 c 1.6064,-1.03943 3.2128,-2.07887 5.29167,-2.07887 2.07887,0 3.96875,-0.94494 5.00818,-1.79539 1.03944,-0.85044 5.29167,-0.94494 7.37054,-1.5119 2.07887,-0.56696 10.58333,-3.77976 10.11086,-3.2128 -0.47247,0.56697 -5.57515,2.64584 -8.12649,3.40179 -2.55134,0.75595 -6.89806,1.41741 -8.50446,2.07886 -1.6064,0.66146 -4.44122,1.88989 -5.95313,2.07888 -1.5119,0.18898 -4.91369,1.88987 -5.19717,1.03943 z"
           style="fill:#8a4242;fill-opacity:1;stroke:none;stroke-width:0.26458332px;stroke-linecap:butt;stroke-linejoin:miter;stroke-opacity:1" />
        <path
           inkscape:connector-curvature="0"
           id="path5089"
           d="m 111.78646,140.60714 c -0.0945,-1.27567 -0.28349,-2.12611 0.56696,-2.07887 0.85045,0.0473 0.85045,0.99219 0.75595,0.47247 -0.0945,-0.51971 0.33073,-1.32292 0.94494,-0.8032 0.61422,0.51972 0.8032,0.70871 0.8977,-0.0945 0.0945,-0.8032 1.46466,-1.88988 2.55134,-1.55915 1.08668,0.33073 1.74814,0.99218 1.84263,0.0945 0.0945,-0.89769 1.22842,-1.93713 2.74033,-2.03162 1.5119,-0.0945 2.88207,1.03943 3.02381,0.47247 0.14174,-0.56696 0.99218,-1.88988 2.12611,-1.6064 1.13393,0.28348 1.51191,1.03944 1.7009,0.33073 0.18899,-0.70871 1.5119,-1.55915 2.26785,-1.32292 0.75596,0.23624 1.37017,0.8032 1.51191,-0.0472 0.14174,-0.85044 1.18117,-1.55914 1.88988,-1.27567 0.7087,0.28349 0.75595,0.51972 0.7087,0.85045 -0.0472,0.33073 -12.80394,7.9375 -15.73325,8.7407 -2.92932,0.8032 -7.55953,1.51191 -7.70127,1.13393 -0.14174,-0.37798 0,-0.66146 -0.0945,-1.27567 z"
           style="fill:#e3dedb;stroke:none;stroke-width:0.26458332px;stroke-linecap:butt;stroke-linejoin:miter;stroke-opacity:1" />
        <path
           sodipodi:nodetypes="ccsscscccc"
           inkscape:connector-curvature="0"
           id="path5091"
           d="m 80.934152,104.46317 c -0.661459,-1.08668 0.09449,-0.51971 1.606397,-0.99219 1.511906,-0.47247 5.953127,-3.1183 7.937502,-3.44903 1.984375,-0.330732 6.047618,-0.661461 6.992559,-1.039437 0.94494,-0.377976 2.59859,-1.606399 3.1183,-0.283483 0.51972,1.32292 0.66146,2.50409 -0.661456,3.16555 -1.322917,0.66146 -4.677455,0.75595 -5.764136,1.13393 -1.086681,0.37797 -3.16555,1.6064 -4.724703,1.46466 -1.559152,-0.14175 -3.590773,1.32292 -4.677456,1.37016 -1.086681,0.0472 -3.638021,0.47247 -3.827007,-1.37016 z"
           style="fill:#784421;fill-opacity:1;stroke:none;stroke-width:0.26458332px;stroke-linecap:butt;stroke-linejoin:miter;stroke-opacity:1" />
        <path
           inkscape:connector-curvature="0"
           id="path5093"
           d="m 107.48698,96.856398 c 1.5119,0 7.9375,-7.465031 11.43378,-8.835194 3.49628,-1.370163 9.63839,-1.889882 12.28422,-1.606399 2.64584,0.283482 8.22099,2.031621 6.94532,2.456846 -1.27567,0.425223 -9.35491,1.181174 -11.19755,1.653646 -1.84263,0.472469 -5.29166,1.842633 -8.07924,3.685268 -2.78757,1.842632 -6.66183,3.685267 -8.17373,3.827007 -1.51191,0.141743 -4.1105,-0.661458 -3.2128,-1.181174 z"
           style="fill:#784421;stroke:none;stroke-width:0.26458332px;stroke-linecap:butt;stroke-linejoin:miter;stroke-opacity:1" />
        <path
           inkscape:connector-curvature="0"
           id="path5095"
           d="m 119.77016,98.775998 c 0.33408,-0.46772 4.94448,-2.906557 7.45013,-3.274052 2.50565,-0.367493 4.87767,-0.534538 3.97564,0.501131 -0.90204,1.035669 -3.74177,3.240643 -5.98016,3.674957 -2.23838,0.434316 -5.14494,0.601356 -5.44561,-0.902036 z"
           style="fill:#e3dedb;stroke:none;stroke-width:0.26458332px;stroke-linecap:butt;stroke-linejoin:miter;stroke-opacity:1" />
        <path
           inkscape:connector-curvature="0"
           id="path5097"
           d="m 98.121323,107.6293 c -0.400904,-0.66817 -3.240643,0.56795 -5.278572,1.40317 -2.037929,0.83521 -4.376539,1.50339 -3.507912,2.00452 0.868624,0.50113 7.683997,-1.33635 8.786484,-3.40769 z"
           style="fill:#e3dedb;stroke:none;stroke-width:0.26458332px;stroke-linecap:butt;stroke-linejoin:miter;stroke-opacity:1" />
        <path
           inkscape:connector-curvature="0"
           id="path5101"
           d="m 87.864856,112.44015 c -0.734991,-0.53454 -3.474503,-4.54358 -2.939965,-2.73951 0.53454,1.80407 1.937705,5.47903 2.939965,2.73951 z"
           style="fill:#a05a2c;stroke:none;stroke-width:0.26458332px;stroke-linecap:butt;stroke-linejoin:miter;stroke-opacity:1" />
        <path
           inkscape:connector-curvature="0"
           id="path5103"
           d="m 106.77417,122.19549 c -1.06907,-1.40316 -1.53679,-3.27405 0.0668,-2.80633 1.60362,0.46772 1.93771,3.87541 -0.0668,2.80633 z"
           style="opacity:0.37300002;fill:#f4e3d7;stroke:none;stroke-width:0.26458332px;stroke-linecap:butt;stroke-linejoin:miter;stroke-opacity:1" />
        <path
           inkscape:connector-curvature="0"
           id="path5105"
           d="m 128.08892,112.2397 c 3.0736,0 5.0113,1.26953 8.0849,-1.5368 3.0736,-2.80633 4.2095,-1.60361 2.60588,1.33635 -1.60362,2.93996 -1.26953,3.87541 0.13364,4.87767 1.40316,1.00226 2.93996,3.14041 -0.53454,1.26953 -3.47451,-1.87089 -5.81312,-4.6104 -7.75082,-5.07812 -1.9377,-0.46772 -3.34087,0 -2.53906,-0.86863 z"
           style="opacity:0.37300002;fill:#f4e3d7;stroke:none;stroke-width:0.26458332px;stroke-linecap:butt;stroke-linejoin:miter;stroke-opacity:1" />
        <path
           sodipodi:nodetypes="cscssssccscssccscscscsccsscssc"
           inkscape:connector-curvature="0"
           id="path5119"
           d="m 144.57589,69.8311 c 3.2128,6.425594 4.53572,11.811756 6.70908,13.229166 2.17336,1.41741 9.60319,4.592221 9.60319,4.592221 0,0 -5.35096,-5.442668 -2.13816,-6.009631 3.2128,-0.566965 4.04981,5.280539 4.99475,7.64289 0.94494,2.362354 4.2036,5.232381 10.62919,7.027766 6.42559,1.795389 7.62716,-3.504147 8.5721,-0.196856 0.94494,3.307292 2.05038,11.576914 0.25499,15.451164 -1.79538,3.87426 -2.31371,4.05654 -4.58157,5.19046 -2.26786,1.13393 -6.51338,0.85716 -4.90698,1.8021 1.6064,0.94494 4.50329,0.88009 5.54273,3.14795 1.03943,2.26786 2.36235,2.07887 1.88988,7.55953 -0.47247,5.48065 -2.92932,12.94568 -0.66146,17.95386 2.26786,5.00819 5.00818,4.44123 3.49628,10.11087 -1.51191,5.66964 -4.7247,17.95387 -1.79539,22.11161 2.92932,4.15773 6.23661,5.19717 13.13468,5.19717 6.89806,0 7.08705,-2.07887 7.08705,-2.07887 0,0 -10.20536,-2.07887 -7.37054,-2.55134 2.83482,-0.47247 13.04018,-0.18899 10.86682,-1.13393 -2.17337,-0.94494 -15.9695,-4.91369 -11.05581,-6.04762 4.91369,-1.13393 12.47322,0.56696 20.22173,3.40179 7.74851,2.83482 14.83556,2.74032 16.63095,-1.32292 1.79539,-4.06324 -0.18899,-6.52009 -0.18899,-6.52009 0,0 1.03944,1.98438 0.18899,2.83482 -0.85044,0.85045 -7.46503,-2.17336 -6.14211,-7.08705 1.32292,-4.91369 4.15774,-27.59226 -7.18155,-42.71131 -11.33928,-15.11905 -9.5439,-30.049108 -12.75669,-37.419643 -3.2128,-7.370535 -32.31697,-36.285714 -37.41965,-35.529763 -5.10268,0.755955 -32.88393,10.677829 -31.08854,14.552083 1.79539,3.874257 7.46503,6.803573 7.46503,6.803573 z"
           style="fill:#28170b;stroke:none;stroke-width:0.26458332px;stroke-linecap:butt;stroke-linejoin:miter;stroke-opacity:1" />
        <path
           inkscape:connector-curvature="0"
           id="path5111"
           d="m 75.122767,155.5372 c 0,0 2.36235,-3.87425 5.480655,-6.61458 3.118303,-2.74033 4.252233,-7.65402 4.252233,-7.65402 0,0 -1.13393,6.3311 -4.157739,8.59896 -3.023809,2.26785 -5.575149,5.66964 -5.575149,5.66964 z"
           style="fill:#502d16;stroke:none;stroke-width:0.26458332px;stroke-linecap:butt;stroke-linejoin:miter;stroke-opacity:1" />
        <path
           inkscape:connector-curvature="0"
           id="path5113"
           d="m 86.084076,148.26116 c -1.228421,5.29166 -7.276042,11.33929 -7.276042,11.33929 0,0 6.331101,-3.68527 7.276042,-11.33929 z"
           style="fill:#502d16;stroke:none;stroke-width:0.26458332px;stroke-linecap:butt;stroke-linejoin:miter;stroke-opacity:1" />
        <path
           inkscape:connector-curvature="0"
           id="path5115"
           d="m 87.312499,154.97024 c 0,0 -2.929316,5.57514 -6.047618,7.18154 -3.118305,1.6064 -6.52009,2.36235 -8.409972,7.08706 -1.889879,4.7247 -3.307292,5.38616 -3.590774,10.11086 -0.28348,4.7247 -2.551337,6.52009 -2.551337,6.52009 0,0 2.740326,-0.56697 3.874254,-4.34673 1.13393,-3.77976 1.984375,-5.85863 4.630208,-6.80357 2.645833,-0.94494 5.008187,-7.55952 5.008187,-5.66964 0,1.88988 -2.267858,5.76414 -3.96875,6.23661 -1.700896,0.47247 -3.212799,2.55134 -4.346729,6.89806 -1.133927,4.34673 -2.551337,7.9375 -2.551337,7.9375 0,0 2.078868,-1.88988 3.496278,-6.3311 1.417413,-4.44122 8.882441,-3.87426 10.583333,-6.89806 1.700893,-3.02381 0.850448,-14.45759 1.417413,-11.62277 0.566962,2.83482 0.566962,4.7247 0.566962,4.7247 0,0 1.700893,-6.70908 1.795389,-4.44122 0.09449,2.26786 1.322916,4.15774 1.322916,4.15774 0,0 -0.472471,-2.26786 -0.188989,-2.74033 0.283483,-0.47247 2.55134,1.6064 1.795388,4.15774 -0.755954,2.55134 -0.94494,5.85863 -1.984375,7.08705 -1.039436,1.22843 -4.346728,3.2128 -7.276041,5.29167 -2.929316,2.07887 -5.10268,3.40178 -5.291667,5.57515 -0.188989,2.17336 0.188987,2.26786 0.188987,2.26786 0,0 -0.188987,-2.07888 1.41741,-3.77977 1.606399,-1.70089 3.96875,0.66146 5.669645,-1.79538 1.700892,-2.45685 3.118302,1.13392 0.566962,2.74032 -2.551337,1.6064 -2.551337,-1.6064 -4.913691,1.88988 -2.36235,3.49628 -1.700892,7.27605 -1.700892,7.27605 0,0 0,-2.55134 0.944941,-4.44123 0.944941,-1.88987 8.031993,-4.25223 7.276041,-1.13392 -0.755951,3.1183 -6.614583,4.81919 -8.031993,7.37053 -1.41741,2.55134 -1.984375,4.44122 -1.039434,5.66964 0.944941,1.22843 3.96875,1.41742 3.96875,1.41742 0,0 -4.157739,-2.74033 -1.795388,-4.34673 2.36235,-1.6064 6.709079,0.0945 9.543899,-2.92931 2.834822,-3.02382 2.929316,-5.00819 2.929316,-5.00819 0,0 -2.173365,3.1183 -3.401785,2.45685 -1.228424,-0.66146 2.740326,-3.40179 5.858629,-4.44123 3.118305,-1.03943 -0.850445,9.6384 -0.850445,9.6384 0,0 2.740326,-3.96875 3.118302,-6.23661 0.377976,-2.26786 1.984375,-5.95312 5.575148,-9.07143 3.59078,-3.1183 3.30729,-13.51265 3.30729,-13.51265 0,0 -0.28348,5.95313 -1.6064,8.88244 -1.32291,2.92932 -3.59077,0.18899 -2.36235,-5.38616 1.22843,-5.57515 -1.5119,-8.78794 -1.5119,-8.78794 0,0 1.98437,2.64583 1.039434,6.42559 -0.944941,3.77976 -5.669643,4.7247 -6.142114,7.18155 -0.472469,2.45684 -5.858632,6.23661 -5.858632,6.23661 0,0 0.283483,-4.06325 3.496281,-7.84301 3.212798,-3.77976 1.984375,-14.2686 -0.661458,-16.06399 -2.645834,-1.79538 -3.307292,-8.78794 -3.307292,-8.78794 z"
           style="fill:#502d16;stroke:none;stroke-width:0.26458332px;stroke-linecap:butt;stroke-linejoin:miter;stroke-opacity:1" />
        <path
           inkscape:connector-curvature="0"
           id="path5107"
           d="m 90.470735,68.808403 c -3.87541,3.474503 -4.409948,7.349914 -6.414468,5.479026 -2.004523,-1.870887 -2.405428,5.211755 -3.741775,7.483547 -1.336347,2.271792 4.276312,10.557144 2.405425,12.294399 -1.870885,1.737251 -3.340867,4.944485 -3.608139,9.488065 -0.267269,4.54358 -4.944485,2.00452 -4.81085,5.07812 0.133633,3.0736 4.81085,4.14268 3.608139,4.40995 -1.202714,0.26727 -3.34087,1.33635 -5.612662,-0.53454 -2.271789,-1.87089 -4.543581,-2.00452 -5.612659,0.26727 -1.069078,2.27179 3.875408,4.54358 1.069078,4.54358 -2.806329,0 -2.138156,-1.06908 -6.548104,-1.73725 -4.409945,-0.66817 -5.479023,5.7463 -7.082641,4.40995 -1.603616,-1.33635 2.672696,-2.27179 2.138156,-5.34539 -0.534538,-3.0736 -3.741772,2.13815 -5.879931,-0.40091 -2.138156,-2.53906 0.53454,2.13816 -0.133633,1.73725 -0.668173,-0.4009 -3.073601,0.13364 -7.082642,-5.21175 -4.009043,-5.34539 -1.069078,-6.28083 0.801807,-8.01809 1.870887,-1.73725 -2.939963,0.26727 -5.211755,3.0736 -2.271792,2.80633 -4.810852,7.08264 0.668174,12.6953 5.479026,5.61267 -7.884451,9.88898 -7.349911,9.35444 0.534538,-0.53454 8.819893,-3.87541 7.483546,-6.81538 -1.336349,-2.93996 -11.091685,-4.54358 -8.285355,-10.82441 2.806329,-6.28083 7.483546,-6.41447 6.013564,-8.01809 -1.469983,-1.60361 -7.884451,0.40091 -7.483547,-4.009039 0.400905,-4.409948 4.81085,-6.815373 4.142677,-5.34539 -0.668174,1.469982 -3.875408,3.741772 0.935445,4.409948 4.81085,0.668173 -0.668174,-4.543584 0.267269,-9.087165 0.935442,-4.543581 4.677216,-2.80633 5.746294,-6.013564 1.069078,-3.207234 6.280833,-2.672696 6.949009,-6.548104 0.668173,-3.875407 -5.345393,0.935443 -7.216277,4.276312 -1.870888,3.34087 -3.073602,4.409948 -6.1472,5.078122 -3.073601,0.668173 -2.271792,4.944485 -2.271792,4.944485 0,0 -2.00452,-3.741771 0.668174,-5.211754 2.672696,-1.469983 4.810852,-1.069078 5.211757,-3.608139 0.400904,-2.53906 1.603616,-5.87993 3.608139,-5.746295 2.00452,0.133633 -2.672697,-5.746294 0.668173,-5.746294 3.34087,0 6.013564,3.875407 8.68626,0.267268 2.672694,-3.608138 3.207234,-7.483546 3.207234,-7.483546 0,0 -2.53906,2.80633 -5.87993,3.34087 -3.34087,0.534538 -8.285356,-3.207234 -9.755338,0.534538 -1.469983,3.741774 1.737251,5.87993 -0.801807,7.483546 -2.539061,1.603618 -5.345393,-2.405425 -5.345393,-2.405425 0,0 5.879931,4.543581 4.944488,-0.668173 -0.935445,-5.211758 0.267269,-9.087165 5.211755,-7.483547 4.944486,1.603616 11.358954,-2.806332 12.695303,-6.280835 1.336347,-3.474503 2.672694,-11.759858 9.621703,-14.165283 6.949006,-2.405428 10.156243,-1.33635 9.755338,-3.207235 -0.400905,-1.870887 -7.884451,-4.543583 -5.078121,-6.013566 2.806329,-1.46998 9.755338,-2.138156 8.418988,-1.46998 -1.336347,0.668174 -8.686257,1.202711 -4.00904,2.939963 4.677214,1.737251 7.617179,-1.737252 7.617179,-6.414469 0,-4.677216 -2.138156,-3.207233 -7.483546,-0.400904 -5.345391,2.806329 -14.031651,3.741774 -12.561668,-2.27179 1.469983,-6.013565 3.474503,-6.681738 3.474503,-6.681738 0,0 -5.078119,7.617181 -1.870885,9.220799 3.207234,1.603616 12.962573,-4.543583 19.109769,-5.87993 6.1472,-1.336348 8.018087,4.276312 12.695304,3.073599 4.677217,-1.202713 -0.133636,-15.367997 -0.133636,-15.367997 0,0 3.741775,6.280833 3.207234,11.091685 -0.534537,4.810851 2.138156,9.888973 6.147196,1.202713 4.00905,-8.68626 8.8199,-13.7643807 16.57071,-10.289877 7.75082,3.474504 3.47451,6.681738 3.47451,6.681738 0,0 2.13815,-4.276312 -1.87089,-5.211756 -4.00904,-0.935443 -8.15172,4.677217 -2.67269,6.681738 5.47902,2.004522 14.83346,-3.741773 22.18337,-4.543581 7.34991,-0.801809 7.88445,6.013564 7.88445,6.013564 0,0 -3.60814,-6.013564 -5.87993,-4.677217 -2.27179,1.336348 6.68174,11.893495 7.34991,6.414469 0.66817,-5.479025 -5.07812,-11.22532 -5.07812,-11.22532 0,0 4.81085,1.737252 5.61266,8.686259 0.80181,6.949009 7.34991,1.336348 14.43255,2.672695 7.08265,1.336348 5.34539,6.280834 8.95353,9.488068 3.60814,3.207234 3.34087,-7.750815 4.81085,-5.612659 1.46999,2.138156 1.73726,5.211755 4.14268,0.133633 2.40543,-5.07812 3.74178,-1.469981 3.74178,-1.469981 0,0 -1.60362,-1.870887 -3.34087,1.737253 -1.73726,3.608138 -4.00905,7.34991 -4.54359,4.81085 -0.53454,-2.539061 -2.00452,0.267271 -2.13815,3.474505 -0.13364,3.207234 11.49259,-1.069078 13.36348,4.009041 1.87088,5.078121 -1.60362,6.949009 2.80633,7.617182 4.40994,0.668174 6.28083,-4.543581 6.28083,-4.543581 0,0 0,2.539061 -1.87089,4.409948 -1.87088,1.870885 -1.73725,6.280833 3.20724,6.414468 4.94448,0.133633 12.02712,-7.082644 14.96709,-2.806332 2.93997,4.276315 -1.60362,8.151722 -1.60362,8.151722 0,0 3.47451,-4.810852 1.33635,-6.949008 -2.13816,-2.138156 -8.15172,1.069078 -6.81537,3.474503 1.33635,2.405427 3.20723,-1.336347 3.74177,1.870887 0.53454,3.207234 -1.60362,4.543584 -1.60362,4.543584 0,0 4.00904,2.00452 7.75082,-0.668176 3.74177,-2.672694 10.28988,1.603618 10.28988,1.603618 0,0 -4.40995,-1.737251 -6.68174,-1.603618 -2.27179,0.133635 -5.61266,2.53906 -1.87089,5.746295 3.74178,3.207234 2.40543,-4.009041 4.94449,-0.668174 2.53906,3.34087 1.73725,6.013564 1.73725,6.013564 0,0 -1.06908,-5.879928 -2.00452,-4.009041 -0.93544,1.870885 0.26727,6.681737 3.0736,7.750815 2.80633,1.069078 9.2208,-7.750815 12.16076,-1.202714 2.93996,6.548105 -1.73725,12.561668 -1.73725,12.561668 0,0 3.74177,-8.018084 1.06908,-11.492589 -2.6727,-3.474503 -10.02261,0.668176 -7.48355,5.078121 2.53906,4.409948 7.08264,6.548104 7.34991,11.893494 0.26727,5.34539 -1.87088,7.750816 -1.87088,7.750816 0,0 2.40542,-5.61266 0.13363,-9.220798 -2.27179,-3.608139 -0.13363,6.681739 -3.74177,9.220798 -3.60814,2.53906 -8.01809,-2.004521 -8.01809,-2.004521 0,0 4.81085,2.806331 5.21176,-2.672696 0.4009,-5.479024 3.8754,-4.409946 1.33634,-8.819894 -2.53906,-4.409948 -10.42351,-14.03165 -12.02712,-10.022607 -1.60362,4.009044 6.01356,7.216278 6.01356,7.216278 0,0 -1.60362,2.138156 -4.40995,0.400904 -2.80633,-1.737251 2.40543,3.741772 0.93545,7.082642 -1.46999,3.34087 -7.34992,2.138156 -5.21176,3.34087 2.13816,1.202711 5.61266,0.935442 8.68626,4.944484 3.0736,4.00905 6.81537,1.73725 7.48355,5.87993 0.66817,4.14268 -3.20724,5.7463 -3.20724,5.7463 0,0 2.93997,-2.40543 0.66818,-5.07812 -2.27179,-2.6727 -5.61266,-1.73726 -8.41899,-4.27632 -2.80633,-2.53906 -10.42351,-1.33635 -6.68174,1.73726 3.74177,3.07359 12.56167,3.74177 14.69982,10.82441 2.13816,7.08264 -1.06908,6.01356 -1.06908,6.01356 0,0 2.80634,-0.93544 0.13364,-3.74177 -2.6727,-2.80633 -2.6727,4.27631 0.93544,6.94901 3.60814,2.67269 8.95353,-1.87089 8.95353,-1.87089 0,0 -1.20271,2.93997 -4.27631,3.60814 -3.0736,0.66817 -4.14268,3.0736 -0.13363,3.87541 4.00904,0.80181 11.49258,2.80633 10.82441,9.88897 -0.66817,7.08264 -2.6727,9.08716 -2.6727,9.08716 0,0 2.53907,-6.01356 -1.06907,-11.09168 -3.60814,-5.07812 -8.41899,-2.27179 -10.82442,-4.54358 -2.40542,-2.27179 -7.08264,-3.20724 -2.53906,1.06908 4.54358,4.27631 10.15624,2.27179 11.75986,7.75081 1.60362,5.47903 -0.13363,10.28988 -0.13363,10.28988 0,0 1.20271,-4.67722 -0.26727,-7.61718 -1.46999,-2.93997 0,4.27631 -0.66818,9.88897 -0.66817,5.61266 -5.47902,9.35443 -5.47902,9.35443 0,0 1.46998,-1.20271 1.46998,-3.8754 0,-2.6727 -5.87993,0.4009 -6.94901,3.8754 -1.06908,3.47451 3.74178,-0.13363 3.74178,-0.13363 0,0 -2.40543,6.1472 -6.01357,2.80633 -3.60814,-3.34087 -0.40091,-9.08717 -3.60814,-13.63075 -3.20723,-4.54358 -10.15624,-5.07812 -8.95353,-8.81989 1.20272,-3.74177 -4.00904,-3.0736 -3.0736,1.06908 0.93545,4.14267 3.87541,4.54358 3.87541,4.54358 0,0 -3.0736,0.80181 -4.81085,-3.20723 -1.73725,-4.00905 0.80181,-7.88446 -0.66818,-9.35444 -1.46998,-1.46998 -5.07811,3.74177 -5.07811,3.74177 0,0 2.93996,-3.4745 2.53905,-6.68173 -0.4009,-3.20724 -9.6217,-12.16077 -9.08716,-15.368 0.53454,-3.20724 -3.34087,-2.6727 -5.34539,-9.48807 -2.00452,-6.81537 2.00452,-12.695301 1.06908,-16.83798 -0.93545,-4.142677 -5.07812,-4.81085 -5.07812,-4.81085 0,0 1.73725,-2.004523 3.87541,-1.737254 2.13815,0.267271 4.67721,-4.677217 7.08264,-0.400902 2.40543,4.276312 1.60362,6.815373 1.60362,6.815373 0,0 2.40542,-3.741775 0.4009,-7.082645 -2.00452,-3.340867 -2.13816,-3.741772 -4.67722,-2.539061 -2.53906,1.202714 -8.01808,5.078122 -11.89349,4.409948 -3.87541,-0.668173 -12.16076,3.741775 -15.368,-3.875407 -3.20723,-7.617182 -0.93544,-8.819896 -0.93544,-8.819896 0,0 -0.4009,1.603618 2.67269,0.133636 3.0736,-1.469983 5.34539,-7.884451 1.33635,-10.690781 -4.00904,-2.806329 -7.34991,-5.612659 -4.40994,-5.479026 2.93996,0.133636 1.87088,-6.280832 1.87088,-6.280832 0,0 0.13364,4.276312 -3.0736,4.944485 -3.20723,0.668174 -9.08716,-0.400904 -9.35443,0.400905 -0.26727,0.801809 0,2.939965 -0.26727,4.009043 -0.26727,1.069078 -0.80181,4.81085 2.67269,2.004521 3.47451,-2.80633 2.53906,-4.409948 2.53906,-4.409948 0,0 1.73726,1.870887 -2.53906,5.078121 -4.27631,3.207234 -7.75081,5.479026 -10.42351,2.539061 -2.67269,-2.939966 -2.00452,-7.483547 -4.27631,-6.013564 -2.27179,1.469983 -7.34991,1.737251 -7.34991,1.737251 0,0 3.60814,2.138157 6.41447,1.202714 2.80633,-0.935445 3.60814,8.285356 3.60814,8.285356 0,0 -1.73726,-2.271792 -6.81538,-3.207234 -5.07812,-0.935445 -8.28535,-6.68174 -10.42351,-7.617182 -2.13816,-0.935445 -8.15172,1.069078 -7.34991,-2.271792 0.80181,-3.34087 -3.74177,1.737251 -7.48355,-1.603616 -3.74177,-3.34087 -7.48354,1.336347 -4.94448,3.207234 2.53906,1.870885 6.01356,2.138156 6.01356,2.138156 0,0 -4.54358,1.202711 -7.61718,-1.603618 -3.0736,-2.80633 -5.34539,-7.750815 -8.55263,-5.746295 -3.207231,2.004523 1.20272,5.078121 -0.66817,7.750818 -1.870888,2.672694 -3.340868,4.276312 -5.345391,1.870884 -2.00452,-2.405425 -5.211754,3.34087 -5.211754,3.34087 z"
           style="fill:#502d16;stroke:none;stroke-width:0.26458332px;stroke-linecap:butt;stroke-linejoin:miter;stroke-opacity:1" />
        <path
           id="path5129"
           transform="scale(0.26458333)"
           d="m 476.56836,361.92773 c -6.28731,1.82015 -13.93999,5.41262 -18.89648,8.15039 -0.0538,0.21113 -0.0847,0.4147 -0.0723,0.59766 1.51525,6.06092 12.75809,9.50223 18.11523,2.35938 3.34822,-4.46428 2.44043,-8.36956 0.85352,-11.10743 z"
           style="fill:#006680;stroke:none;stroke-width:0.99999994px;stroke-linecap:butt;stroke-linejoin:miter;stroke-opacity:1"
           inkscape:connector-curvature="0" />
        <path
           id="path5131"
           transform="scale(0.26458333)"
           d="m 356.97461,409.60938 c -2.08549,0.8325 -4.17178,1.70353 -6.07227,2.48242 -2.54787,1.0442 -5.18722,2.01192 -7.5039,2.91797 0.71614,1.95743 2.04183,3.23257 3.91211,3.76171 3.09652,-0.74632 6.54455,-1.79924 9.87109,-3.08593 1.23,-1.71651 1.40838,-3.83269 0.14063,-5.68555 -0.10019,-0.14643 -0.22014,-0.27269 -0.34766,-0.39062 z"
           style="fill:#006680;stroke:none;stroke-width:0.99999994px;stroke-linecap:butt;stroke-linejoin:miter;stroke-opacity:1"
           inkscape:connector-curvature="0" />
        <path
           id="path5133"
           transform="scale(0.26458333)"
           d="m 351.41016,411.88477 c -0.16135,0.0663 -0.34894,0.14192 -0.50782,0.20703 -1.04929,0.43003 -2.11587,0.84535 -3.17382,1.25195 0.43391,2.25107 3.7231,3.78933 4.05664,1.12109 0.16334,-1.30682 0.0979,-2.19765 -0.375,-2.58007 z"
           style="fill:#00222b;stroke:none;stroke-width:0.99999994px;stroke-linecap:butt;stroke-linejoin:miter;stroke-opacity:1"
           inkscape:connector-curvature="0" />
        <path
           id="path5135"
           transform="scale(0.26458333)"
           d="m 469.87695,364.2793 c -2.28675,0.92055 -4.55096,1.93591 -6.68164,2.95703 0.16857,2.20341 2.21596,4.1914 4.12696,4.1914 2.14287,0 4.64258,-1.2486 3.39257,-5.71289 -0.19092,-0.68189 -0.48586,-1.13151 -0.83789,-1.43554 z"
           style="fill:#00222b;stroke:none;stroke-width:0.99999994px;stroke-linecap:butt;stroke-linejoin:miter;stroke-opacity:1"
           inkscape:connector-curvature="0" />
        <path
           inkscape:connector-curvature="0"
           id="path5161"
           d="m 193.18056,203.8746 c -6.99256,5.66965 -15.875,9.44941 -19.08779,13.41816 -3.2128,3.96875 -20.22173,20.03274 -22.67858,25.3244 -2.45684,5.29167 -19.46577,26.45834 -14.55208,22.67857 4.91369,-3.77976 19.0878,-24.19047 24.56845,-30.99405 5.48066,-6.80357 14.55209,-16.25297 18.89881,-19.27678 4.34673,-3.02381 10.96131,-8.69345 12.85119,-11.1503 z"
           style="fill:#165016;stroke:none;stroke-width:0.26458332px;stroke-linecap:butt;stroke-linejoin:miter;stroke-opacity:1" />
        <path
           inkscape:connector-curvature="0"
           id="path5163"
           d="m 38.742559,233.58928 c -0.755952,5.66964 3.401785,19.27679 3.212798,22.3006 -0.188989,3.02381 1.700892,1.88988 0.188987,-6.04762 -1.511904,-7.9375 -3.212796,-13.60714 -3.401785,-16.25298 z"
           style="fill:#165016;stroke:none;stroke-width:0.26458332px;stroke-linecap:butt;stroke-linejoin:miter;stroke-opacity:1" />
        <path
           inkscape:connector-curvature="0"
           id="path5165"
           d="m 46.113094,230.1875 c 5.291666,6.2366 13.040179,16.63095 15.874999,23.05655 2.834823,6.42559 9.07143,20.4107 9.638395,24.37945 0.566963,3.96875 1.700893,7.55952 1.700893,7.55952 h 3.212795 c 0,0 -1.889879,-6.80355 -3.77976,-12.28421 C 70.870534,267.41816 65.011905,254 62.744048,249.46428 c -2.267858,-4.53571 -3.401788,-5.85863 -0.755955,0.56697 2.645834,6.42559 -8.693451,-15.11905 -15.874999,-19.84375 z"
           style="fill:#165016;stroke:none;stroke-width:0.26458332px;stroke-linecap:butt;stroke-linejoin:miter;stroke-opacity:1" />
        <path
           inkscape:connector-curvature="0"
           id="path5167"
           d="m 82.965773,285.18302 c -0.566965,-7.74851 -8.504465,-34.7738 -6.425597,-33.63987 2.078871,1.13393 7.748514,23.05654 7.9375,27.78126 0.18899,4.72469 1.889882,7.7485 -1.511903,5.85861 z"
           style="fill:#165016;stroke:none;stroke-width:0.26458332px;stroke-linecap:butt;stroke-linejoin:miter;stroke-opacity:1" />
        <path
           inkscape:connector-curvature="0"
           id="path5169"
           d="m 274.41072,189.93303 c 5.10268,10.77232 5.48063,14.93006 3.77976,22.67857 -1.7009,7.74852 -0.18899,42.33334 0.18899,37.60864 0.37796,-4.72471 -0.37798,-26.45834 0.37796,-31.93899 0.75597,-5.48066 2.83482,-15.30804 1.13392,-20.97768 -1.70087,-5.66964 -5.48063,-7.37054 -5.48063,-7.37054 z"
           style="fill:#165016;stroke:none;stroke-width:0.26458332px;stroke-linecap:butt;stroke-linejoin:miter;stroke-opacity:1" />
        <path
           inkscape:connector-curvature="0"
           id="path5171"
           d="m 299.9241,265.90625 c 0.56697,-7.55953 1.13392,-12.6622 1.5119,-17.19792 0.37799,-4.53571 1.32292,-10.20536 -0.75594,-8.50446 -2.07888,1.70089 -5.48066,4.15773 -7.37055,7.74851 -1.88986,3.59077 -6.42559,16.63095 -6.61458,13.22917 -0.18899,-3.40179 4.53572,-14.3631 6.42559,-16.81995 1.88989,-2.45684 6.61458,-5.10268 7.55954,-6.80357 0.94494,-1.70089 0.56695,-0.75595 2.26785,6.23661 1.7009,6.99256 3.96875,20.97768 3.02382,17.76488 -0.94496,-3.2128 -2.64583,-15.68601 -2.83483,-10.96131 -0.18899,4.7247 -2.45684,14.3631 -3.2128,15.30804 z"
           style="fill:#165016;stroke:none;stroke-width:0.26458332px;stroke-linecap:butt;stroke-linejoin:miter;stroke-opacity:1" />
      </g>
    </g>
  </g>
  <g
     inkscape:groupmode="layer"
     id="layer6"
     inkscape:label="WEIRD">
    <path
       style="opacity:1;fill:#ffffff;fill-opacity:1;stroke:none;stroke-width:17.2258606;stroke-miterlimit:4;stroke-dasharray:none;stroke-opacity:1"
       d="m 245.3457,602.625 v 70 h 250 v -70 z m 8.86133,10.875 h 3.87695 c 3.39947,0 5.09819,0.67987 5.91407,3.94336 l 7.41015,30.86719 c 0.61191,2.58359 0.95313,5.09961 0.95313,5.09961 h 0.13476 c 0,0 0.40837,-2.44803 1.15625,-5.09961 l 9.6543,-34.67578 h 6.11914 l 8.97461,34.67578 c 0.67989,2.65158 1.01953,5.09961 1.01953,5.09961 h 0.13672 c 0,0 0.27286,-2.51602 0.88477,-5.09961 l 7.54687,-30.86719 c 0.81587,-3.26349 2.44624,-3.94336 5.8457,-3.94336 h 3.875 v 5.8457 h -1.01953 c -1.2238,0 -1.9706,0.27229 -2.31054,1.4961 L 303.83984,661.5 h -7.88672 l -8.1582,-30.32227 c -0.81587,-3.12751 -1.35937,-6.5957 -1.35937,-6.5957 h -0.13672 c 0,0 -0.68059,3.46782 -1.56445,6.52735 L 276.0332,661.5 h -7.95508 l -10.53906,-40.6582 c -0.33994,-1.22381 -1.08674,-1.4961 -2.31054,-1.4961 h -1.02149 z m 72.29297,0 h 28.2168 c 3.05952,0 4.34961,1.29204 4.34961,4.35156 v 6.05078 h -6.18555 v -3.06054 c 0,-1.01984 -0.54424,-1.4961 -1.49609,-1.4961 h -13.66602 v 15.02735 h 16.79297 v 5.8457 h -16.79297 v 13.9375 c 0,0.95185 0.54424,1.49609 1.49609,1.49609 h 14.00586 c 0.95185,0 1.4961,-0.54424 1.4961,-1.49609 v -3.05859 h 6.2539 v 6.05078 c 0,3.05952 -1.29204,4.35156 -4.35156,4.35156 h -21.34766 c -3.05952,0 -4.35156,-1.29204 -4.35156,-4.35156 V 619.3457 H 326.5 Z m 43.91406,0 h 15.8418 v 5.8457 h -4.69141 v 36.30664 h 4.69141 V 661.5 h -15.8418 v -5.84766 h 4.69141 V 619.3457 h -4.69141 z m 26.24024,0 h 20.9414 c 8.43068,0 14.34571,5.30359 14.34571,14.07422 0,8.02274 -5.2353,11.96501 -8.63477,12.71289 v 0.13672 c 0,0 1.22319,0.61202 2.03906,2.17578 l 5.7793,11.49023 c 0.67989,1.42778 1.76865,1.5625 3.40039,1.5625 h 0.88281 V 661.5 h -3.33008 c -3.73941,0 -5.1003,-0.47601 -6.66406,-3.60352 l -6.52734,-12.91796 c -1.22381,-2.24365 -2.10623,-2.58399 -4.75781,-2.58399 h -6.25586 V 661.5 h -6.79883 v -42.1543 h -4.41992 z m 47.0957,0 h 19.44531 c 14.61771,0 24.27149,8.77002 24.27149,23.93164 0,15.22961 -9.65378,24.06836 -24.27149,24.06836 h -10.67578 c -3.05952,0 -4.34961,-1.29204 -4.34961,-4.35156 V 619.3457 H 443.75 Z m -35.87695,5.8457 v 17.20313 h 8.83789 c 5.16719,0 8.22656,-3.33197 8.22656,-8.70313 0,-5.37115 -3.05863,-8.5 -8.08984,-8.5 z m 47.0957,0 v 34.81055 c 0,0.95185 0.54424,1.49609 1.49609,1.49609 h 6.25391 c 10.67433,0 17.67773,-6.39055 17.67773,-18.2207 0,-11.76215 -7.07139,-18.08594 -17.67773,-18.08594 z"
       transform="scale(0.26458334)"
       id="rect4172"
       inkscape:connector-curvature="0" />
  </g>
  <g
     inkscape:groupmode="layer"
     id="layer7"
     inkscape:label="MAKE">
    <text
       xml:space="preserve"
       style="font-style:normal;font-variant:normal;font-weight:normal;font-stretch:normal;line-height:0%;font-family:Museo;-inkscape-font-specification:'Museo, Normal';text-align:start;letter-spacing:0px;word-spacing:0px;writing-mode:lr-tb;text-anchor:start;fill:#ffffff;fill-opacity:1;stroke:none;stroke-width:0.26458335px;stroke-linecap:butt;stroke-linejoin:miter;stroke-opacity:1"
       x="10.690782"
       y="175.02188"
       id="text4175"><tspan
         sodipodi:role="line"
         id="tspan4177"
         x="10.690782"
         y="175.02188"
         style="font-style:normal;font-variant:normal;font-weight:normal;font-stretch:normal;font-size:17.99166679px;line-height:100%;font-family:Museo;-inkscape-font-specification:'Museo, Normal';text-align:start;letter-spacing:1.32291675px;writing-mode:lr-tb;text-anchor:start;fill:#ffffff;fill-opacity:1;stroke-width:0.26458335px">MAKE</tspan></text>
  </g>
  <g
     inkscape:groupmode="layer"
     id="layer8"
     inkscape:label="MUSIC">
    <text
       xml:space="preserve"
       style="font-style:normal;font-variant:normal;font-weight:normal;font-stretch:normal;line-height:0%;font-family:Museo;-inkscape-font-specification:'Museo, Normal';text-align:start;letter-spacing:0px;word-spacing:0px;writing-mode:lr-tb;text-anchor:start;fill:#ffffff;fill-opacity:1;stroke:none;stroke-width:0.26458335px;stroke-linecap:butt;stroke-linejoin:miter;stroke-opacity:1"
       x="134.21758"
       y="174.80598"
       id="text4180"><tspan
         sodipodi:role="line"
         id="tspan4182"
         x="134.21758"
         y="174.80598"
         style="font-style:normal;font-variant:normal;font-weight:normal;font-stretch:normal;font-size:17.99166679px;line-height:100%;font-family:Museo;-inkscape-font-specification:'Museo, Normal';text-align:start;writing-mode:lr-tb;text-anchor:start;fill:#ffffff;fill-opacity:1;stroke-width:0.26458335px">MUSIC</tspan></text>
  </g>
</svg>
