<?xml version="1.0" encoding="UTF-8" standalone="no"?>
<!-- Created with Inkscape (http://www.inkscape.org/) -->

<svg
   xmlns:dc="http://purl.org/dc/elements/1.1/"
   xmlns:cc="http://creativecommons.org/ns#"
   xmlns:rdf="http://www.w3.org/1999/02/22-rdf-syntax-ns#"
   xmlns:svg="http://www.w3.org/2000/svg"
   xmlns="http://www.w3.org/2000/svg"
   xmlns:xlink="http://www.w3.org/1999/xlink"
   xmlns:sodipodi="http://sodipodi.sourceforge.net/DTD/sodipodi-0.dtd"
   xmlns:inkscape="http://www.inkscape.org/namespaces/inkscape"
   width="1000"
   height="1000"
   viewBox="0 0 264.58333 264.58334"
   id="svg4332"
   version="1.1"
   inkscape:version="0.91+devel r13925"
   sodipodi:docname="carl-king.svg"
   inkscape:export-filename="/Users/agarone/Desktop/MWM Art/carl-king/carl-king.png"
   inkscape:export-xdpi="96"
   inkscape:export-ydpi="96">
  <defs
     id="defs4334">
    <linearGradient
       inkscape:collect="always"
       id="linearGradient5716">
      <stop
         style="stop-color:#ebb38e;stop-opacity:1"
         offset="0"
         id="stop5718" />
      <stop
         style="stop-color:#eac7b1;stop-opacity:1"
         offset="1"
         id="stop5720" />
    </linearGradient>
    <linearGradient
       inkscape:collect="always"
       id="linearGradient5698">
      <stop
         style="stop-color:#e9c6af;stop-opacity:1;"
         offset="0"
         id="stop5700" />
      <stop
         style="stop-color:#e9c6af;stop-opacity:0;"
         offset="1"
         id="stop5702" />
    </linearGradient>
    <linearGradient
       inkscape:collect="always"
       id="linearGradient5696">
      <stop
         style="stop-color:#ac9d93;stop-opacity:1;"
         offset="0"
         id="stop5666" />
      <stop
         style="stop-color:#6a6968;stop-opacity:1"
         offset="1"
         id="stop5668" />
    </linearGradient>
    <linearGradient
       inkscape:collect="always"
       xlink:href="#linearGradient5696"
       id="linearGradient5672"
       gradientUnits="userSpaceOnUse"
       x1="144.56119"
       y1="110.00108"
       x2="139.34219"
       y2="52.538136" />
    <linearGradient
       inkscape:collect="always"
       xlink:href="#linearGradient5698"
       id="linearGradient5704"
       x1="138.65192"
       y1="79.080002"
       x2="136.79225"
       y2="27.764252"
       gradientUnits="userSpaceOnUse" />
    <linearGradient
       inkscape:collect="always"
       xlink:href="#linearGradient5716"
       id="linearGradient5722"
       x1="138.44562"
       y1="220.90857"
       x2="138.69604"
       y2="264.58334"
       gradientUnits="userSpaceOnUse" />
  </defs>
  <sodipodi:namedview
     id="base"
     pagecolor="#ffffff"
     bordercolor="#666666"
     borderopacity="1.0"
     inkscape:pageopacity="0.0"
     inkscape:pageshadow="2"
     inkscape:zoom="0.7"
     inkscape:cx="-125.55579"
     inkscape:cy="398.62167"
     inkscape:document-units="mm"
     inkscape:current-layer="svg4332"
     showgrid="false"
     units="px"
     showguides="true"
     inkscape:guide-bbox="true"
     inkscape:window-width="1920"
     inkscape:window-height="1152"
     inkscape:window-x="0"
     inkscape:window-y="0"
     inkscape:window-maximized="1">
    <sodipodi:guide
       position="264.58333,0"
       orientation="1,0"
       id="guide4340"
       inkscape:label=""
       inkscape:color="rgb(0,0,255)" />
    <sodipodi:guide
       position="0,0"
       orientation="1,0"
       id="guide4342"
       inkscape:label=""
       inkscape:color="rgb(0,0,255)" />
    <sodipodi:guide
       position="0,0"
       orientation="0,1"
       id="guide4344"
       inkscape:label=""
       inkscape:color="rgb(0,0,255)" />
    <sodipodi:guide
       position="0,264.58333"
       orientation="0,1"
       id="guide4346"
       inkscape:label=""
       inkscape:color="rgb(0,0,255)" />
  </sodipodi:namedview>
  <metadata
     id="metadata4337">
    <rdf:RDF>
      <cc:Work
         rdf:about="">
        <dc:format>image/svg+xml</dc:format>
        <dc:type
           rdf:resource="http://purl.org/dc/dcmitype/StillImage" />
        <dc:title />
      </cc:Work>
    </rdf:RDF>
  </metadata>
  <g
     inkscape:groupmode="layer"
     id="layer22"
     inkscape:label="BG"
     style="display:none">
    <rect
       style="opacity:1;fill:#ffffff;fill-opacity:1;stroke:none;stroke-width:28.59856224;stroke-miterlimit:4;stroke-dasharray:none;stroke-opacity:1"
       id="rect5609"
       x="0"
       y="-1.2715657e-06"
       height="264.58334"
       width="264.58334" />
  </g>
  <g
     inkscape:groupmode="layer"
     id="layer32"
     inkscape:label="Hat"
     style="display:inline">
    <path
       style="fill:#4d4d4d;fill-opacity:1;fill-rule:evenodd;stroke:none;stroke-width:0.26458332px;stroke-linecap:butt;stroke-linejoin:miter;stroke-opacity:1"
       d="m 178.97172,186.15327 c 0,0 29.38765,-15.7805 37.51414,-19.46577 8.12649,-3.68527 14.3631,-8.22098 21.07217,-21.73363 6.70908,-13.51265 12.28423,-48.94792 8.50447,-65.76786 C 242.28274,62.366069 242.47172,40.63244 221.77753,33.261903 201.08333,25.891368 169.52232,17.953868 148.73363,19.087797 127.94494,20.221726 132.76414,15.686011 115.09375,16.34747 97.423363,17.008928 57.357885,25.891368 50.176339,29.104166 42.994791,32.316965 22.395089,41.955357 17.386905,59.153273 12.37872,76.35119 9.8273808,84.666666 12.189732,98.368301 c 2.362351,13.701639 5.669643,24.095979 5.858631,31.277529 0.188988,7.18155 -0.944941,9.07143 5.197172,20.03274 6.142114,10.96131 29.293155,33.73438 41.955357,38.55357 12.662201,4.8192 38.175598,10.96131 38.175598,10.96131 z"
       id="path5651"
       inkscape:connector-curvature="0" />
  </g>
  <g
     inkscape:groupmode="layer"
     id="layer23"
     inkscape:label="Neck"
     style="display:inline">
    <path
       style="fill:url(#linearGradient5722);fill-opacity:1;fill-rule:evenodd;stroke:none;stroke-width:0.26458332px;stroke-linecap:butt;stroke-linejoin:miter;stroke-opacity:1"
       d="M 104.76965,264.58333 79.913587,232.51099 c 0,0 3.241175,-7.00095 4.989314,-10.59172 1.748139,-3.59078 2.787574,-29.71838 2.787574,-29.71838 l 94.541295,1.27567 c 0,0 -0.47247,12.70945 0.89769,17.62314 1.37017,4.91369 3.2128,9.49665 9.26041,14.22135 6.04762,4.72471 6.70909,6.18936 6.70909,6.18936 l -0.0945,33.07292 z"
       id="path5612"
       inkscape:connector-curvature="0"
       sodipodi:nodetypes="ccsccssccc" />
  </g>
  <g
     inkscape:groupmode="layer"
     id="layer26"
     inkscape:label="Head"
     style="display:inline">
    <path
       style="fill:url(#linearGradient5704);fill-opacity:1;fill-rule:evenodd;stroke:none;stroke-width:0.26458332px;stroke-linecap:butt;stroke-linejoin:miter;stroke-opacity:1"
       d="m 89.202381,193.33482 91.659229,0.18899 c 0,0 7.24639,-51.70446 7.24639,-62.47678 0,-10.77232 -4.22259,-52.427983 -9.51425,-63.578281 -5.29167,-11.150298 -28.91518,-25.324405 -42.14435,-25.324405 -13.22916,0 -48.380949,14.174107 -51.593745,20.032739 -3.212799,5.858631 -7.118327,45.679757 -6.551365,58.908927 0.566965,13.22917 10.898091,72.24881 10.898091,72.24881 z"
       id="path5623"
       inkscape:connector-curvature="0"
       sodipodi:nodetypes="ccsssssc" />
  </g>
  <g
     inkscape:groupmode="layer"
     id="layer31"
     inkscape:label="Hair">
    <path
       style="fill:#000000;fill-rule:evenodd;stroke:none;stroke-width:0.26458332px;stroke-linecap:butt;stroke-linejoin:miter;stroke-opacity:1;fill-opacity:1"
       d="m 178.0015,67.60569 9.48807,58.39839 c 0,0 7.34991,-20.57975 5.47903,-31.537803 -1.87089,-10.95805 -5.7463,-19.911579 -14.9671,-26.860587 z"
       id="path5646"
       inkscape:connector-curvature="0" />
    <path
       style="fill:#000000;fill-rule:evenodd;stroke:none;stroke-width:0.26458332px;stroke-linecap:butt;stroke-linejoin:miter;stroke-opacity:1;fill-opacity:1"
       d="m 77.296131,134.74851 c 0,0 -7.134302,-15.82775 -7.087055,-22.58408 0.04725,-6.75632 -2.031622,-20.032736 7.228795,-34.112348 9.260416,-14.079614 7.748513,-13.134673 7.748513,-13.134673 l -8.031996,37.183411 z"
       id="path5648"
       inkscape:connector-curvature="0" />
  </g>
  <g
     inkscape:groupmode="layer"
     id="layer35"
     inkscape:label="Hat Detail">
    <path
       style="fill:url(#linearGradient5672);fill-rule:evenodd;stroke:none;stroke-width:0.26458332px;stroke-linecap:butt;stroke-linejoin:miter;stroke-opacity:1;fill-opacity:1;opacity:1"
       d="m 241.54483,112.90787 c 0,0 1.73726,-14.633001 1.46998,-17.305698 -0.26726,-2.672693 0.86863,-5.34539 -5.07812,-4.877667 -5.94674,0.467722 -9.95579,2.672693 -16.70434,0.668173 -6.74856,-2.00452 -9.55489,-4.744035 -15.03391,-3.875407 -5.47903,0.868624 -10.62396,3.608138 -11.42577,0 -0.80181,-3.608139 -7.34992,-13.163024 -4.94449,-12.962573 2.40543,0.200451 14.29892,4.276312 21.24793,0.868627 6.949,-3.407688 17.57297,-5.144939 12.29439,-6.614922 -5.27857,-1.469982 -6.01356,-7.349913 -10.89123,-7.283095 -4.87767,0.06682 -16.43707,1.469983 -21.44838,-1.670434 -5.0113,-3.140416 -12.02713,-7.750815 -8.61944,-11.358954 3.40769,-3.608138 14.29892,-3.340869 12.36122,-5.87993 -1.93771,-2.539061 -6.48129,-0.400905 -13.49712,-2.071338 -7.01582,-1.670437 -7.61718,0.334086 -11.96031,-0.734992 -4.34313,-1.069078 -2.87314,-3.34087 -7.75081,-4.276312 -4.87767,-0.935445 -15.63527,-0.668173 -23.052,-3.474506 -7.41673,-2.806329 -11.89349,-2.873147 -17.3057,-0.534537 -5.41221,2.338607 -7.34991,5.545841 -15.50163,6.280832 -8.151723,0.734992 -13.563932,-0.334086 -22.517461,3.407688 -8.953528,3.741772 -22.116552,10.891234 -23.786988,14.83346 -1.670434,3.942225 0.200454,5.746294 8.886714,3.608138 8.686257,-2.138158 14.298919,-7.349913 21.64883,-10.757598 7.349913,-3.407688 10.824415,-6.481286 14.699825,-4.276315 3.87541,2.204974 7.48354,-0.133633 7.48354,-0.133633 0,0 1.93771,3.407685 -1.73725,4.34313 -3.67495,0.935442 -9.6217,1.870885 -17.439332,6.614919 -7.817633,4.744035 -15.434815,11.559408 -19.577495,19.443859 -4.142676,7.884451 -8.886711,20.312483 -7.750815,25.791505 1.135896,5.47903 0.601356,-1.069074 -3.407685,-2.20497 -4.009043,-1.135896 -9.68852,-3.608139 -7.951269,-10.49033 1.737252,-6.882188 2.739512,-10.623962 0,-12.49485 -2.739514,-1.870884 4.34313,-3.942225 5.879928,-6.815372 1.536801,-2.873148 -8.418988,-7.884451 -7.015824,-11.826677 1.403165,-3.942225 5.679477,-3.541321 7.617182,-8.953529 1.937703,-5.412208 14.098466,-12.294396 21.047475,-12.428032 6.949008,-0.133636 20.847025,-8.619442 29.733735,-8.886711 8.88671,-0.26727 19.31022,-5.278574 35.94775,2.071338 16.63753,7.349911 16.77116,-1.202713 25.59106,0.467723 8.81989,1.670433 8.95353,4.543581 14.43255,4.944485 5.47903,0.400905 9.88898,-2.472242 13.36348,-0.06682 3.4745,2.405424 12.02713,-1.202714 13.02939,4.543581 1.00226,5.746294 -17.17207,7.617182 -10.08943,11.826676 7.08265,4.209497 10.89123,-0.267269 14.90028,4.075861 4.00904,4.34313 5.27857,10.757599 10.82441,9.554885 5.54585,-1.202711 11.75986,-1.536798 6.1472,-11.024867 C 230.05224,43.484617 227.58,37.738322 217.55739,33.862912 207.53479,29.987504 177.1997,27.715715 164.43757,25.51074 151.67546,23.305767 113.12183,17.292202 94.145689,23.706671 75.169553,30.12114 34.277315,36.602426 30.86963,49.765449 c -3.407687,13.163024 1.670434,8.552625 7.683998,16.503894 6.013566,7.951268 7.483549,14.633006 5.078121,22.517457 -2.405425,7.88445 -4.744032,7.082644 1.670436,11.091685 6.414469,4.009045 9.220798,11.292135 4.009041,16.704345 -5.211754,5.41221 -23.051995,12.42803 -21.715648,4.94449 1.336347,-7.48355 4.677217,-10.82442 -1.403164,-9.62171 -6.080382,1.20272 -8.018086,20.51294 -3.207235,27.99649 4.81085,7.48354 18.708868,27.19467 18.708868,27.19467 0,0 0.601355,-3.80859 7.683997,-7.88445 7.082644,-4.07586 19.711127,-5.41221 21.047477,-15.63527 1.336347,-10.22306 10.223058,0.60136 5.679477,-14.09846 -4.543584,-14.69983 -6.748555,-34.477773 -2.739515,-42.362224 4.009044,-7.884451 11.626226,-23.98744 26.392868,-30.401908 14.766639,-6.414468 25.591059,-9.955792 36.549109,-10.089425 10.95805,-0.133636 21.24793,5.479026 28.13011,10.156243 6.88219,4.677214 19.37704,16.30344 23.85381,25.724691 4.47676,9.421251 3.80859,21.916103 5.67948,22.851543 1.87088,0.93544 47.57397,7.55036 47.57397,7.55036 z"
       id="path5662"
       inkscape:connector-curvature="0" />
  </g>
  <g
     inkscape:groupmode="layer"
     id="layer34"
     inkscape:label="Bead">
    <circle
       style="fill:#502d16;fill-rule:evenodd;stroke:#000000;stroke-width:0.26458332px;stroke-linecap:butt;stroke-linejoin:miter;stroke-opacity:1"
       id="path5657"
       cx="131.62219"
       cy="256.47183"
       r="7.8844509" />
  </g>
  <g
     inkscape:groupmode="layer"
     id="layer33"
     inkscape:label="Straps">
    <path
       style="fill:#000000;fill-rule:evenodd;stroke:none;stroke-width:0.26458332px;stroke-linecap:butt;stroke-linejoin:miter;stroke-opacity:1;fill-opacity:1"
       d="m 191.76588,106.89431 c 0,0 5.15971,24.26342 2.98635,41.65033 -2.17336,17.38691 -7.84301,47.15253 -18.04836,60.2872 -10.20536,13.13467 -23.05655,21.54465 -29.00967,25.60789 -5.95313,4.06324 -9.92188,3.68527 -13.32367,8.69345 -3.40178,5.00819 -2.55133,7.37054 -2.55133,7.37054 0,0 -5.38617,-6.52009 -9.5439,-10.11087 -4.15774,-3.59077 -15.49703,-15.49702 -19.18229,-21.63913 -3.685272,-6.14212 -25.985868,-46.96354 -28.726195,-63.5945 -2.740327,-16.63095 -6.614583,-26.08035 -5.764138,-30.80505 0.850447,-4.72471 2.173364,-5.19718 1.700895,-6.99256 -0.472472,-1.79539 -3.496281,-0.56697 -4.063246,2.55133 -0.566963,3.11831 1.13393,25.04093 6.803572,41.57738 5.669643,16.53646 15.119048,42.9948 23.245535,54.71206 8.126487,11.71726 18.520837,22.39509 23.529017,27.49777 5.00819,5.10267 7.84301,10.58333 7.84301,10.58333 0,0 2.45684,0.94494 5.10268,0.85044 2.64583,-0.0945 3.1183,-1.79538 3.1183,-1.79538 0,0 -1.98438,-2.26786 1.32292,-6.14212 3.30729,-3.87425 5.66964,-5.85862 21.54464,-15.21354 15.875,-9.35491 27.68675,-32.12797 33.07291,-46.58556 5.38616,-14.45759 7.08706,-39.40402 6.80358,-47.43601 -0.28349,-8.032 1.03943,-33.26191 -1.13393,-34.49033 -2.17336,-1.22842 -5.72668,3.42333 -5.72668,3.42333 z"
       id="path5654"
       inkscape:connector-curvature="0" />
  </g>
  <g
     inkscape:groupmode="layer"
     id="layer30"
     inkscape:label="Lips">
    <path
       style="fill:#28170b;fill-rule:evenodd;stroke:none;stroke-width:0.26458332px;stroke-linecap:butt;stroke-linejoin:miter;stroke-opacity:1;fill-opacity:1"
       d="m 112.92137,150.6597 c 0,0 4.2095,-2.87315 7.01583,-5.21176 2.80633,-2.33861 7.41673,-5.81311 14.03165,-6.41447 6.61492,-0.60136 11.35895,-0.33409 15.10073,0.73499 3.74177,1.06908 7.41673,3.67496 9.75533,6.34765 2.33861,2.6727 5.99633,5.38147 5.50024,5.47596 -0.4961,0.0945 -3.59078,-3.33091 -6.68546,-5.69326 -3.09468,-2.36235 -6.85081,-5.66965 -12.11886,-5.74052 -5.26804,-0.0709 -12.00074,-1.58277 -16.9853,1.13393 -4.98456,2.71671 -3.26005,0.82683 -7.89026,4.63021 -4.63021,3.80339 -6.28187,4.86794 -7.7239,4.73727 z"
       id="path5643"
       inkscape:connector-curvature="0" />
  </g>
  <g
     inkscape:groupmode="layer"
     id="layer24"
     inkscape:label="Shirt">
    <path
       style="fill:#4d4d4d;fill-rule:evenodd;stroke:none;stroke-width:0.26458332px;stroke-linecap:butt;stroke-linejoin:miter;stroke-opacity:1;fill-opacity:1"
       d="m 110.64958,264.58333 c 0,0 -8.01808,-6.41447 -17.238882,-18.8425 -9.220798,-12.42803 -11.292137,-16.9048 -10.690781,-18.87591 0.601358,-1.97111 2.839739,-5.67948 2.839739,-5.67948 0,0 -0.567947,-0.33409 -1.80407,0.93544 -1.23612,1.26953 -6.548101,8.41899 -8.218538,10.08943 -1.670433,1.67043 -19.143178,7.78422 -26.960811,10.95805 C 40.758602,246.34219 0,261.94404 0,261.94404 l 0,2.63929 z"
       id="path5615"
       inkscape:connector-curvature="0" />
    <path
       style="fill:#4d4d4d;fill-rule:evenodd;stroke:none;stroke-width:0.26458332px;stroke-linecap:butt;stroke-linejoin:miter;stroke-opacity:1;fill-opacity:1"
       d="m 182.17759,264.58333 c 0,0 5.91334,-8.0515 8.28536,-14.09847 2.37201,-6.04697 6.34765,-17.13866 4.00904,-21.28133 -2.33861,-4.14268 -6.74856,-7.65059 -6.74856,-7.65059 0,0 0.66818,-0.16705 1.9043,0.43431 1.23612,0.60136 6.5481,4.77744 7.45013,5.0113 0.90204,0.23386 17.10526,3.10701 23.72018,5.17835 6.61492,2.07134 43.78528,12.62848 43.78528,12.62848 l 0,19.77795 z"
       id="path5617"
       inkscape:connector-curvature="0" />
  </g>
  <g
     inkscape:groupmode="layer"
     id="layer25"
     inkscape:label="Beard">
    <path
       style="fill:#28170b;fill-rule:evenodd;stroke:none;stroke-width:0.26458332px;stroke-linecap:butt;stroke-linejoin:miter;stroke-opacity:1;fill-opacity:1"
       d="m 187.47619,117.36161 c 0,0 6.42559,20.78869 4.53571,41.95535 -1.88988,21.16667 -14.55208,50.45982 -20.41071,55.75149 -5.85863,5.29167 -23.43453,9.26042 -32.88393,9.26042 -9.4494,0 -35.52976,-4.72471 -39.6875,-10.58334 -4.157737,-5.85863 -24.379463,-35.90773 -24.190476,-53.8616 0.188989,-17.95387 3.779763,-45.35715 3.779763,-45.35715 0,0 -0.755954,19.0878 1.511904,25.5134 2.267857,6.42559 19.654763,18.52083 20.599699,16.44196 0.94494,-2.07887 3.2128,-13.98512 10.39435,-19.0878 7.18155,-5.10268 15.49702,-13.79613 19.27678,-13.04017 3.77977,0.75595 10.58334,6.42559 7.74852,7.74851 -2.83483,1.32291 -8.69346,-1.88988 -15.68602,4.53571 -6.99256,6.4256 -13.41815,12.09524 -12.6622,19.27679 0.75595,7.18154 1.13393,17.57589 7.55953,14.1741 6.42559,-3.40178 11.71726,-21.92262 16.81994,-23.8125 5.10267,-1.88988 9.82738,-1.5119 11.90625,0.56697 2.07886,2.07887 4.7247,17.3869 10.58333,19.84375 5.85863,2.45684 13.41815,2.45684 12.47321,-2.45685 -0.94494,-4.91369 -2.64583,-17.57589 -8.50446,-23.05654 -5.85863,-5.48066 -18.70982,-6.04762 -19.65476,-9.6384 -0.94494,-3.59077 0,-6.61458 4.91369,-6.2366 4.91369,0.37797 22.86756,14.36309 25.3244,19.65476 2.45685,5.29166 -0.75595,19.08779 3.02381,17.3869 3.77976,-1.70089 3.77976,-14.74107 6.04762,-17.57589 2.26786,-2.83482 6.23661,-3.02381 6.61458,-6.23661 0.37798,-3.2128 -0.75595,-14.55208 0.56697,-21.16666 z"
       id="path5620"
       inkscape:connector-curvature="0" />
  </g>
  <g
     inkscape:groupmode="layer"
     id="layer27"
     inkscape:label="Shades"
     style="display:inline">
    <path
       style="fill:#24221c;fill-opacity:1;fill-rule:evenodd;stroke:none;stroke-width:0.26458332px;stroke-linecap:butt;stroke-linejoin:miter;stroke-opacity:1"
       d="m 74.93378,104.55766 c 0,0 1.748139,-11.811755 4.582959,-14.552081 2.834822,-2.740327 10.536086,-10.016368 24.521211,-10.866816 13.98511,-0.850445 20.88318,0.377976 22.96205,1.700893 2.07887,1.322916 3.1183,2.031621 8.78795,1.984375 5.66964,-0.04725 5.62239,-1.086681 9.30766,-2.740327 3.68527,-1.653646 15.59152,-2.409597 22.63132,-1.41741 7.03981,0.992188 19.04055,5.291667 19.84375,6.142112 0.8032,0.850447 3.49628,3.63802 4.29948,7.276041 0.8032,3.638021 1.65365,12.851193 1.27567,16.489213 -0.37797,3.63802 -1.84263,6.61458 -4.77195,6.47284 -2.92931,-0.14174 -16.72544,-0.7087 -22.58408,-1.65364 -5.85863,-0.94494 -14.74107,-2.26786 -16.5837,-4.06325 -1.84263,-1.79539 -6.3311,-12.614955 -7.2288,-16.300222 -0.89769,-3.685267 -3.30729,-5.197173 -5.48065,-5.24442 -2.17336,-0.04725 -4.44122,1.559153 -5.14993,3.732517 -0.7087,2.173361 -4.6302,14.079615 -5.57514,15.402525 -0.94494,1.32292 -3.16555,3.49628 -4.63021,4.25224 -1.46466,0.75595 -18.00112,3.68526 -26.36384,4.58296 -8.362725,0.89769 -16.441965,0.47247 -17.339659,-0.0473 -0.897695,-0.51972 -2.929316,-7.41778 -2.504091,-11.1503 z"
       id="path5626"
       inkscape:connector-curvature="0" />
  </g>
  <g
     inkscape:groupmode="layer"
     id="layer28"
     inkscape:label="Lenses">
    <path
       style="fill:#484537;fill-rule:evenodd;stroke:none;stroke-width:0.26458332px;stroke-linecap:butt;stroke-linejoin:miter;stroke-opacity:1;fill-opacity:1"
       d="m 79.280506,102.71503 c 0,0 -1.370164,-7.843007 1.181174,-10.914065 2.55134,-3.071056 12.331475,-8.031994 20.83594,-9.024181 8.50446,-0.992188 22.63132,-0.09449 24.71019,1.322917 2.07887,1.41741 2.07887,4.724701 1.46466,8.362722 -0.61421,3.638021 -4.67746,13.796127 -7.51228,15.969497 -2.83482,2.17336 -11.90625,3.59077 -17.71763,4.25223 -5.811384,0.66146 -15.355284,1.74814 -17.764884,0.85045 -2.409597,-0.8977 -4.204983,-2.92932 -5.19717,-10.81957 z"
       id="path5629"
       inkscape:connector-curvature="0" />
    <path
       style="fill:#484537;fill-rule:evenodd;stroke:none;stroke-width:0.26458332px;stroke-linecap:butt;stroke-linejoin:miter;stroke-opacity:1;fill-opacity:1"
       d="m 189.50781,99.407735 c 0,0 -0.0473,8.173735 -1.74814,10.536085 -1.70089,2.36235 -4.86644,2.4096 -11.29204,1.98438 -6.42559,-0.42523 -19.65476,-1.93713 -22.67857,-4.15774 -3.02381,-2.22061 -7.60677,-8.693454 -8.92969,-14.882812 -1.32291,-6.189361 -2.40959,-6.992559 0.37798,-8.929687 2.78757,-1.937129 12.33147,-2.929316 20.88318,-2.220611 8.55171,0.708705 17.76488,2.69308 20.12724,5.575149 2.36235,2.882069 3.07105,6.142111 3.26004,12.095236 z"
       id="path5631"
       inkscape:connector-curvature="0" />
  </g>
  <g
     inkscape:groupmode="layer"
     id="layer29"
     inkscape:label="Nose">
    <path
       style="fill:#28170b;fill-rule:evenodd;stroke:none;stroke-width:0.26458332px;stroke-linecap:butt;stroke-linejoin:miter;stroke-opacity:1;fill-opacity:1"
       d="m 134.46998,121.36027 c 0,0 -1.93771,-3.94222 -4.77744,-4.47676 -2.83974,-0.53454 -4.10927,3.37428 -3.90882,4.54358 0.20045,1.16931 1.70384,2.70611 3.50791,1.50339 1.80407,-1.20271 2.90656,-3.80859 2.90656,-3.80859 0,0 0.66817,0 2.27179,2.23838 z"
       id="path5634"
       inkscape:connector-curvature="0" />
    <path
       style="fill:#28170b;fill-rule:evenodd;stroke:none;stroke-width:0.26458332px;stroke-linecap:butt;stroke-linejoin:miter;stroke-opacity:1;fill-opacity:1"
       d="m 140.71741,121.32686 c 0,0 0.20045,-2.47224 2.77292,-2.77292 2.57247,-0.30067 4.51017,0.70159 5.51243,2.73952 1.00226,2.03793 -1.23612,2.80633 -2.77292,2.53906 -1.5368,-0.26727 -3.64155,-1.77067 -3.94223,-2.73952 -0.30068,-0.96885 -0.13363,-1.5702 -0.13363,-1.5702 0,0 -1.10249,0.33408 -1.43657,1.80406 z"
       id="path5636"
       inkscape:connector-curvature="0" />
    <path
       style="fill:#28170b;fill-rule:evenodd;stroke:none;stroke-width:0.26458332px;stroke-linecap:butt;stroke-linejoin:miter;stroke-opacity:1;fill-opacity:1"
       d="m 127.01984,105.09024 c 0,0 -2.57247,7.04923 -4.20949,9.75534 -1.63703,2.7061 -2.93997,4.84426 -2.60588,6.5481 0.33409,1.70385 0.46772,2.63929 0.46772,2.63929 0,0 -0.43431,-2.17157 -0.13363,-3.77518 0.30067,-1.60362 1.03567,-2.73952 2.3386,-4.81085 1.30294,-2.07134 3.47451,-7.58378 4.14268,-10.3567 z"
       id="path5638"
       inkscape:connector-curvature="0" />
    <path
       style="fill:#28170b;fill-rule:evenodd;stroke:none;stroke-width:0.26458332px;stroke-linecap:butt;stroke-linejoin:miter;stroke-opacity:1;fill-opacity:1"
       d="m 146.63074,105.55796 c 0,0 3.50791,6.01357 4.94449,8.78649 1.43657,2.77292 2.73951,4.97789 2.83974,6.98241 0.10022,2.00453 -0.66818,2.93997 -0.66818,2.93997 0,0 0.80181,-1.5368 0.40091,-3.20724 -0.40091,-1.67043 -2.03793,-4.34313 -3.47451,-6.78196 -1.43657,-2.43883 -3.24064,-6.31424 -4.04245,-8.71967 z"
       id="path5640"
       inkscape:connector-curvature="0" />
  </g>
</svg>
