<?xml version="1.0" encoding="UTF-8" standalone="no"?>
<!-- Created with Inkscape (http://www.inkscape.org/) -->

<svg
   xmlns:dc="http://purl.org/dc/elements/1.1/"
   xmlns:cc="http://creativecommons.org/ns#"
   xmlns:rdf="http://www.w3.org/1999/02/22-rdf-syntax-ns#"
   xmlns:svg="http://www.w3.org/2000/svg"
   xmlns="http://www.w3.org/2000/svg"
   xmlns:sodipodi="http://sodipodi.sourceforge.net/DTD/sodipodi-0.dtd"
   xmlns:inkscape="http://www.inkscape.org/namespaces/inkscape"
   width="1000"
   height="1000"
   viewBox="0 0 264.58333 264.58334"
   version="1.1"
   id="svg8"
   inkscape:version="0.92.1 r15371"
   sodipodi:docname="nik-baertsch.svg"
   inkscape:export-filename="C:\Users\Anthony Garone\Documents\GitHub\art\nik-baertsch\nik-baertsch.png"
   inkscape:export-xdpi="96"
   inkscape:export-ydpi="96">
  <defs
     id="defs2" />
  <sodipodi:namedview
     id="base"
     pagecolor="#ffffff"
     bordercolor="#666666"
     borderopacity="1.0"
     inkscape:pageopacity="0.0"
     inkscape:pageshadow="2"
     inkscape:zoom="0.49497475"
     inkscape:cx="612.55917"
     inkscape:cy="528.37851"
     inkscape:document-units="px"
     inkscape:current-layer="layer1"
     showgrid="false"
     units="px"
     showguides="true"
     inkscape:guide-bbox="true"
     inkscape:window-width="1920"
     inkscape:window-height="1057"
     inkscape:window-x="-8"
     inkscape:window-y="-8"
     inkscape:window-maximized="1"
     inkscape:snap-global="false">
    <sodipodi:guide
       position="264.58334,264.58334"
       orientation="1,0"
       id="guide10"
       inkscape:locked="false"
       inkscape:label=""
       inkscape:color="rgb(0,0,255)" />
    <sodipodi:guide
       position="0,0"
       orientation="1,0"
       id="guide12"
       inkscape:locked="false"
       inkscape:label=""
       inkscape:color="rgb(0,0,255)" />
    <sodipodi:guide
       position="264.58334,264.58334"
       orientation="0,1"
       id="guide14"
       inkscape:locked="false"
       inkscape:label=""
       inkscape:color="rgb(0,0,255)" />
    <sodipodi:guide
       position="0,0"
       orientation="0,1"
       id="guide16"
       inkscape:locked="false"
       inkscape:label=""
       inkscape:color="rgb(0,0,255)" />
  </sodipodi:namedview>
  <metadata
     id="metadata5">
    <rdf:RDF>
      <cc:Work
         rdf:about="">
        <dc:format>image/svg+xml</dc:format>
        <dc:type
           rdf:resource="http://purl.org/dc/dcmitype/StillImage" />
        <dc:title></dc:title>
      </cc:Work>
    </rdf:RDF>
  </metadata>
  <g
     inkscape:label="BG"
     inkscape:groupmode="layer"
     id="layer1"
     transform="translate(0,-32.41665)"
     style="display:none">
    <rect
       id="rect4493"
       width="264.58334"
       height="264.58334"
       x="0"
       y="32.416641"
       style="fill:#ffffff;fill-opacity:1;stroke-width:0.26458332" />
  </g>
  <g
     inkscape:groupmode="layer"
     id="layer2"
     inkscape:label="Nik"
     style="display:inline">
    <path
       style="fill:#000000;stroke:#000000;stroke-width:0.26458332px;stroke-linecap:butt;stroke-linejoin:miter;stroke-opacity:1"
       d="m 178.02678,194.27976 c 6.80358,2.64583 10.2646,3.88709 12.80366,10.96973 2.53906,7.08265 4.27631,16.97162 6.81537,18.4416 2.53906,1.46999 1.73726,3.34087 4.81085,3.74178 3.0736,0.4009 4.94449,1.20271 14.56619,4.67721 9.62171,3.47451 27.6624,10.82442 33.54233,12.2944 5.87993,1.46998 17.63979,6.94901 21.64884,8.68626 4.00905,1.73725 22.58428,9.08717 25.12332,11.22532 2.53908,2.13817 11.4926,33.40869 11.4926,35.81412 0,2.40543 -346.782212,3.60812 -346.782212,3.60812 0,0 0.935442,-14.03165 2.138156,-20.57974 1.202714,-6.54809 4.677217,-18.17433 8.819893,-20.44612 4.142679,-2.27179 25.9251449,-6.68173 32.7405178,-9.08716 6.8153732,-2.40543 22.0497342,-9.35443 26.1924132,-10.82442 4.142677,-1.46998 14.566188,-6.68174 16.83798,-8.28535 2.271792,-1.60362 8.418989,-8.28536 9.220798,-9.88898 0.801809,-1.60361 3.34087,-12.29439 4.543584,-15.7689 1.202711,-3.4745 6.414468,-11.62622 9.621702,-16.1698 3.207234,-4.54358 4.944486,-7.61718 7.216278,-8.55263 2.271789,-0.93544 98.64773,10.14456 98.64773,10.14456 z"
       id="path5171"
       inkscape:connector-curvature="0" />
    <path
       style="fill:#000000;stroke:none;stroke-width:0.26458332px;stroke-linecap:butt;stroke-linejoin:miter;stroke-opacity:1"
       d="m 80.982666,208.45673 c -1.603616,-7.48355 -2.174632,-18.4292 -2.363619,-23.81536 -0.188989,-5.38616 -0.755954,-20.22173 -1.700892,-22.86756 -0.944941,-2.64584 -1.417413,-4.44122 -2.929316,-5.19718 -1.511906,-0.75595 -7.276041,-2.64583 -8.315476,-4.6302 -1.039436,-1.98438 -0.755954,-2.64584 -3.023811,-5.10268 -2.267855,-2.45685 -4.630209,-6.4256 -5.858629,-9.44941 -1.228424,-3.02381 -5.10268,-11.15029 -5.953125,-13.51265 -0.850448,-2.36235 0.472469,-11.43377 1.322916,-13.70163 0.850445,-2.26786 3.023809,-4.15774 6.331101,-3.40179 3.307292,0.75595 7.181548,3.96875 6.898066,3.2128 -0.283483,-0.75595 -1.984375,-8.22098 -1.322917,-12.945685 0.661459,-4.724702 1.700893,-8.693452 2.551338,-12.945684 0.850447,-4.252233 1.511905,-9.732886 2.078871,-12.756695 0.566962,-3.023812 6.236607,-15.59152 8.031993,-18.520833 1.795385,-2.929316 12.284225,-14.646579 18.898809,-17.103423 6.614585,-2.456847 23.812495,-8.315476 31.655505,-8.315476 7.84301,0 23.8125,5.38616 28.82068,8.031993 5.00819,2.645833 14.55209,10.299851 18.33185,16.819941 3.77976,6.52009 7.08705,15.68601 8.40997,19.843749 1.32292,4.157737 6.04762,16.819941 6.3311,19.749257 0.28348,2.929313 1.32292,8.031993 0.75595,10.677826 -0.56696,2.64583 -1.98437,6.61458 -0.66146,4.63021 1.32292,-1.98438 3.40179,-4.91369 6.04763,-4.25223 2.64583,0.66145 4.81919,4.53571 4.6302,8.88244 -0.18899,4.34672 -0.0945,6.52009 -1.5119,9.73288 -1.41741,3.2128 -2.55134,8.78795 -3.49628,10.96131 -0.94494,2.17337 -1.03944,4.15774 -3.02381,8.22098 -1.98438,4.06325 -2.17336,6.80358 -2.92932,9.26042 -0.75595,2.45685 -1.88988,1.88988 -1.88988,3.59077 0,1.7009 0.56697,0.66146 0,6.61459 -0.56696,5.95312 -1.22842,11.62277 -2.45684,16.06399 -1.22842,4.44122 -3.02381,10.58333 -4.34673,13.22916 -1.32292,2.64584 -2.74033,5.00819 -3.87425,7.08706 -1.13393,2.07887 -1.7009,3.21279 -2.83483,4.06324 -1.13392,0.85045 -1.32291,2.64584 -2.64583,5.00819 -1.32292,2.36235 -6.14211,9.4494 -8.69345,14.2686 -2.55134,4.81919 -20.03274,41.86086 -22.77307,49.42037 -2.74032,7.55954 -12.85119,24.75746 -12.85119,24.75746 0,0 -2.17336,-5.19718 -6.3311,-14.07962 -4.15774,-8.88243 -10.11086,-23.43452 -15.11905,-31.46652 -5.00818,-8.03199 -13.229163,-25.13542 -16.630948,-30.42708 -3.401787,-5.29167 -6.706542,-7.17582 -7.558256,-9.63553 z"
       id="path5153"
       inkscape:connector-curvature="0" />
    <path
       style="fill:#808080;stroke:none;stroke-width:0.26458332px;stroke-linecap:butt;stroke-linejoin:miter;stroke-opacity:1"
       d="m 124.14669,220.08295 c -6.14719,-3.60813 -8.95352,-6.68173 -10.95805,-7.21627 -2.00452,-0.53454 -6.28083,0.66817 -4.81085,1.46998 1.46999,0.80181 6.41447,1.60362 7.34991,4.27631 0.93545,2.6727 4.94449,8.68626 2.40543,8.28536 -2.53906,-0.40091 -6.68174,0.13363 -7.75082,-2.80633 -1.06907,-2.93997 -2.00452,-5.7463 -3.60814,-8.8199 -1.60361,-3.0736 -4.81085,-8.95353 -6.815368,-9.35443 -2.004521,-0.4009 -12.027128,-0.80181 -11.626223,2.53906 0.400904,3.34087 18.842501,20.84702 24.455161,23.92062 5.61266,3.0736 12.96257,3.20724 13.76438,4.94449 0.80181,1.73725 -10.15624,31.40418 -12.6953,27.26149 -2.53906,-4.14268 -26.860591,-47.30671 -27.929669,-53.053 -1.069078,-5.7463 0.133636,-18.70887 -1.603616,-24.45516 -1.737251,-5.7463 -4.810852,-17.23889 -4.810852,-17.23889 0,0 7.750818,18.30797 11.626225,23.65336 3.875408,5.34539 5.345391,5.74629 4.81085,2.13815 -0.534537,-3.60814 -4.276312,-11.35895 -2.806329,-10.28987 1.469982,1.06907 9.488071,16.43707 10.557151,13.89801 1.06907,-2.53906 1.06907,-5.07812 -0.66818,-6.94901 -1.73725,-1.87088 -5.612659,-2.80633 -6.414466,-6.68174 -0.801809,-3.8754 -0.801809,-17.23888 0,-16.57071 0.801807,0.66818 -0.400904,10.15625 1.336347,13.09621 1.737252,2.93997 3.073599,6.41447 4.142679,6.41447 1.06908,0 -3.073601,-3.87541 -3.073601,-9.2208 0,-5.34539 -0.400904,-8.28535 0.267269,-7.21628 0.668174,1.06908 0.133636,8.01809 1.737252,11.35896 1.60362,3.34087 2.13816,6.41447 4.14268,7.88445 2.00452,1.46998 4.94448,3.0736 3.87541,3.0736 -1.06908,0 -2.6727,-0.4009 -2.2718,0.53454 0.40091,0.93544 3.34087,3.34087 3.87541,2.27179 0.53454,-1.06908 -1.06908,-2.40542 0.13364,-1.60362 1.20271,0.80181 -0.40091,-2.40542 -0.66818,-4.27631 -0.26726,-1.87089 -2.67269,-5.61266 -1.46998,-6.01356 1.20272,-0.40091 4.94449,-4.00905 6.54811,-3.47451 1.60361,0.53454 5.21175,4.94449 9.48806,5.7463 4.27631,0.8018 9.88898,1.20271 8.01809,2.27179 -1.87089,1.06908 -15.50163,2.27179 -16.97162,5.34539 -1.46998,3.0736 3.60814,5.87993 7.75082,5.74629 4.14268,-0.13363 13.76438,-5.74629 14.16528,-1.06908 0.40091,4.67722 -4.14267,6.68174 -7.48354,6.54811 -3.34087,-0.13364 -9.2208,-0.80181 -9.48807,3.0736 -0.26727,3.87541 4.40995,8.95353 3.4745,10.55714 z"
       id="path5077"
       inkscape:connector-curvature="0" />
    <path
       transform="translate(0,-32.41665)"
       style="display:inline;fill:#666666;stroke:none;stroke-width:0.26458332px;stroke-linecap:butt;stroke-linejoin:miter;stroke-opacity:1"
       d="m 94.77753,69.174834 c 6.89806,-2.740327 21.16667,-8.220983 30.52158,-8.409969 9.35491,-0.18899 19.93824,2.929313 24.85193,4.913688 4.91369,1.984375 11.24479,6.047621 12.7567,7.65402 1.5119,1.606396 -0.37798,3.874254 -3.49628,1.606396 -3.11831,-2.267854 -29.19866,-4.346725 -27.78125,-3.496278 1.41741,0.850445 13.51265,3.496278 17.95386,5.575149 4.44123,2.078869 12.66221,7.465028 12.66221,8.882441 0,1.41741 -1.98438,5.291667 -1.22842,6.614583 0.75595,1.322917 4.6302,1.606397 5.19717,4.346726 0.56696,2.740327 5.95312,14.17411 3.49628,13.70164 -2.45685,-0.47247 -4.63021,-1.88989 -8.50447,-2.26786 -3.87425,-0.37798 -5.66964,-0.75595 -9.92187,-0.37798 -4.25223,0.37798 -10.58333,0.28348 -13.98512,-0.18898 -3.40179,-0.47248 -10.67783,-1.98438 -14.55208,-2.17337 -3.87426,-0.18899 -6.61459,0.47247 -1.7009,0.75595 4.91369,0.28349 7.37054,0.47247 11.43378,1.13393 4.06325,0.66146 13.22917,1.13393 17.76488,1.13393 4.53572,0 10.86682,0.47247 14.55209,1.13393 3.68527,0.66146 8.03199,6.14211 6.3311,6.23661 -1.7009,0.0945 -3.77976,-0.37798 -6.99256,-0.37798 -3.2128,0 -5.48066,-0.37798 -8.88244,-0.28348 -3.40179,0.0945 -5.19717,0.75595 -10.11086,1.13393 -4.9137,0.37797 -11.43379,0.37797 -13.98512,0.37797 -2.55134,0 -2.55134,0.37798 -7.27604,1.32292 -4.72471,0.94494 -14.93007,2.07887 -14.55209,2.55134 0.37798,0.47247 12.37872,-1.32292 15.40253,-1.6064 3.02381,-0.28348 1.79539,-1.03943 7.08706,-1.13393 5.29166,-0.0945 21.35565,-2.17336 23.34002,-2.17336 1.98438,0 14.3631,0.75595 15.59152,0.75595 1.22842,0 9.6384,6.23661 9.5439,7.37054 -0.0945,1.13393 0.47247,1.79538 -1.13393,1.41741 -1.6064,-0.37798 -7.55952,-2.07887 -10.86681,-2.64584 -3.30729,-0.56696 -5.00819,-0.28348 -7.55953,0.0945 -2.55134,0.37797 -7.08705,0.94494 -9.07142,0.94494 -1.98438,0 -6.23661,1.98437 -10.58334,2.55134 -4.34672,0.56696 -9.07143,1.41741 -12.47321,1.13393 -3.40179,-0.28349 -12.7567,-1.22843 -12.00075,-0.85045 0.75596,0.37798 9.92188,1.22842 13.32366,1.22842 3.40179,0 11.71726,-1.13393 15.21355,-1.98437 3.49628,-0.85045 1.98437,-0.75595 7.08705,-1.32292 5.10268,-0.56696 10.01637,-1.6064 12.94568,-1.6064 2.92932,0 6.14212,4.91369 6.23661,6.23661 0.0945,1.32292 -0.47247,3.30729 -1.41741,3.96875 -0.94494,0.66146 -2.83482,0.85045 -3.2128,1.03943 -0.37797,0.18899 -4.06324,2.36235 -6.52009,1.79539 -2.45684,-0.56696 -4.6302,-3.87426 -5.48065,-4.44122 -0.85045,-0.56696 -5.10268,1.32292 -5.29167,2.45685 -0.18899,1.13392 -1.22842,6.04761 -5.10268,6.80357 -3.87425,0.75595 -7.9375,1.13393 -7.9375,-0.94494 0,-2.07887 1.22842,-4.06325 0.75596,-4.06325 -0.47247,0 -0.94495,3.68527 -1.41741,4.8192 -0.47248,1.13393 -5.38617,3.2128 -8.22099,2.64583 -2.83482,-0.56696 -7.27604,-2.55134 -9.73288,-3.40178 -2.45685,-0.85045 -4.15774,-1.98438 -6.4256,-2.17337 -2.26786,-0.18899 -6.99256,0.47247 -6.04762,0 0.94494,-0.47247 4.06325,-0.47247 2.92932,-0.75595 -1.13393,-0.28348 -5.85863,-0.0945 -4.8192,-0.18899 1.03944,-0.0945 3.2128,-0.66146 1.88988,-0.66146 -1.32291,0 -3.68527,0.47247 -2.92931,-0.28348 0.75595,-0.75595 -12.378725,2.83482 -12.7567,0.75595 -0.377976,-2.07886 -1.511904,-9.63839 -1.133928,-11.71726 0.377976,-2.07887 12.189728,-24.56845 11.150296,-31.561007 C 98.651784,86.183761 92.509672,70.68674 94.77753,69.174834 Z"
       id="path5143"
       inkscape:connector-curvature="0" />
    <path
       style="fill:#666666;stroke:none;stroke-width:0.26458332px;stroke-linecap:butt;stroke-linejoin:miter;stroke-opacity:1"
       d="m 86.662142,143.64387 c 1.403165,-0.73499 2.305201,-2.73951 3.808593,-4.40995 1.503391,-1.67043 2.104747,-3.64154 3.641548,-4.34313 1.536797,-0.70158 4.476763,-3.0736 4.409945,-3.27405 -0.06682,-0.20045 0.835218,-2.93996 0.53454,-3.10701 -0.300678,-0.16704 -2.539061,-0.4009 -3.608139,0.10023 -1.069078,0.50113 -1.937705,1.36975 -3.307461,1.40316 -1.369755,0.0334 -3.77518,0.13364 -3.608138,-0.63476 0.167044,-0.7684 -0.23386,-1.30294 0.902036,-1.23612 1.135893,0.0668 3.173825,0.63476 4.209494,-0.0334 1.035669,-0.66818 1.503392,-1.26953 1.135896,-1.43657 -0.367496,-0.16705 -1.069078,-0.0334 -1.837478,0.0668 -0.768401,0.10023 -2.472243,0.30068 -3.441097,-0.0334 -0.968851,-0.33408 -1.804069,-1.00226 -1.035669,-1.03567 0.7684,-0.0334 2.505652,0.3675 3.541321,0.43432 1.035671,0.0668 2.438836,-0.16704 2.372018,-0.66818 -0.06682,-0.50113 -0.200453,-2.13815 0.634765,-3.00678 0.835218,-0.86862 4.276312,-4.40994 3.908816,-4.81085 -0.367495,-0.4009 -12.561667,-0.33409 -13.396883,0.60136 -0.835218,0.93544 -2.706105,6.1472 -2.839741,8.61944 -0.133633,2.47224 -0.300678,6.5481 0.634767,9.82215 0.935443,3.27406 2.338607,7.04924 3.340867,6.98242 z"
       id="path5166"
       inkscape:connector-curvature="0" />
    <path
       style="fill:#666666;stroke:none;stroke-width:0.26458332px;stroke-linecap:butt;stroke-linejoin:miter;stroke-opacity:1"
       d="m 120.53856,135.49215 c -4.27632,0.80181 -6.54811,2.00452 -10.69078,1.73725 -4.14268,-0.26727 -8.15173,-2.40542 -9.62171,-2.27179 -1.46998,0.13364 -2.405425,0.70158 -2.438833,0.36749 -0.03341,-0.33408 0.835218,-1.03566 2.204973,-1.00226 1.36976,0.0334 2.70611,-3.74177 2.70611,-3.74177 0,0 -2.2718,-0.43431 -3.107014,0.0668 -0.835216,0.50113 -0.567947,1.00226 -1.102487,1.83748 -0.534538,0.83521 -1.069078,1.23612 -1.904294,1.80407 -0.835218,0.56795 -2.3052,1.26953 -2.772923,1.73725 -0.46772,0.46772 -1.536798,5.87993 -1.069078,7.45014 0.467723,1.5702 3.240643,-0.16705 4.543584,1.10248 1.302938,1.26953 2.204974,2.87315 3.674952,2.60588 1.46998,-0.26727 9.88898,-2.73951 12.32781,-4.74403 2.43883,-2.00452 7.61718,-6.24743 7.24969,-6.94901 z"
       id="path5164"
       inkscape:connector-curvature="0" />
    <path
       style="fill:#cccccc;stroke:none;stroke-width:0.99999994px;stroke-linecap:butt;stroke-linejoin:miter;stroke-opacity:1"
       d="M 292.69531 200.91797 C 289.90365 201.20057 266.79094 251.69086 262.13477 266.125 C 257.08399 281.78236 257.08318 295.92275 254.05273 319.15625 C 251.02227 342.38976 242.9422 356.02861 243.44727 380.77734 C 243.95235 405.52611 247.9922 410.07113 250.51758 420.67773 C 253.04296 431.28434 272.74102 463.60822 273.24609 471.68945 C 273.75117 479.77069 257.58826 444.92031 251.52734 443.91016 C 245.46643 442.9 272.23673 474.72154 273.75195 482.80273 C 275.26718 490.88397 259.60938 507.54966 259.60938 515.63086 C 259.60938 523.71209 266.6797 529.77464 269.20508 534.32031 C 271.73046 538.86599 266.1746 542.90586 261.62891 543.91602 C 257.08322 544.92617 267.69102 550.482 271.22656 543.91602 C 274.76209 537.35003 266.17461 525.22768 264.1543 517.14648 C 262.134 509.06525 271.73008 498.96522 275.26562 492.9043 C 278.80115 486.84337 280.31721 532.30008 285.87305 554.52344 C 291.42889 576.74679 294.4586 618.16219 295.46875 638.36523 C 296.4789 658.56828 300.01447 730.28993 303.04492 753.52344 C 306.07538 776.75695 315.67347 792.9184 324.25977 804.53516 C 332.84605 816.15191 325.77384 792.9187 329.81445 778.27148 C 333.85506 763.62427 361.1305 754.5332 367.19141 754.5332 C 373.25232 754.5332 352.54256 699.47966 348.50195 686.34766 C 344.46134 673.21569 343.95665 624.22341 347.49219 612.10156 C 351.02772 599.97975 357.59337 595.93988 358.60352 602.50586 C 359.61368 609.07184 358.09845 662.10315 358.60352 673.21484 C 359.1086 684.3265 362.13948 697.45903 370.2207 710.08594 C 367.69532 704.02501 364.16093 660.58939 364.66602 646.44727 C 365.17109 632.30511 369.21055 602.00035 370.2207 588.36328 C 371.23085 574.72622 375.27073 562.60428 379.81641 555.5332 C 384.36208 548.46212 368.20116 545.43083 365.67578 539.875 C 363.1504 534.31917 358.60467 544.42029 355.57422 540.88477 C 352.54376 537.34924 361.63496 512.98094 359.86719 512.34961 C 358.09943 511.71824 353.80546 516.51524 351.78516 517.52539 C 349.76486 518.53554 341.17879 525.35507 337.76953 528.89062 C 334.36026 532.42615 329.05761 541.51758 327.79492 541.51758 C 326.53223 541.51758 332.84511 531.28904 333.09766 528.76367 C 333.3502 526.23827 331.20448 522.32323 331.45703 518.53516 C 331.70957 514.74709 334.48671 512.47453 333.47656 512.0957 C 332.46641 511.71688 324.51064 518.78906 322.86914 518.78906 C 321.22764 518.78906 329.68839 513.61092 330.57227 512.0957 C 331.45615 510.58049 342.31573 505.15193 347.24023 503.63672 C 352.16472 502.12147 354.43751 499.84745 359.48828 499.08984 C 364.53904 498.3322 362.39317 497.57627 364.66602 495.42969 C 366.93885 493.28314 371.10518 486.96947 372.49414 487.0957 C 373.8831 487.22198 372.36679 490.37733 370.85156 491.89258 C 369.33633 493.40779 362.51915 498.58495 363.5293 499.84766 C 364.53945 501.11032 367.06446 497.9545 369.58984 495.68164 C 372.11522 493.40878 377.41904 487.72615 376.53516 486.21094 C 375.65128 484.69569 372.99795 474.84712 372.61914 472.95312 C 372.24033 471.05905 370.85312 482.17001 369.33789 482.54883 C 367.82267 482.92761 370.09464 476.99284 370.97852 474.59375 C 371.86241 472.19462 367.19022 474.72132 365.16992 476.99414 C 363.14961 479.267 364.16005 481.16133 363.78125 483.18164 C 363.40244 485.20195 359.48711 485.70685 357.4668 487.47461 C 355.4465 489.24237 357.46709 487.2212 358.60352 489.11523 C 359.73995 491.00927 364.28603 487.22041 365.16992 486.08398 C 366.0538 484.94756 363.78163 490.37881 360.24609 492.52539 C 356.71056 494.67197 333.72976 503.38292 328.55273 506.28711 C 323.3757 509.1913 321.85909 513.48476 320.72266 512.47461 C 319.58624 511.46442 324.13341 508.05526 326.40625 505.27734 C 328.67909 502.49943 330.06825 494.79774 329.68945 493.15625 C 329.31064 491.51473 319.20917 492.9035 317.44141 492.39844 C 315.67363 491.89334 320.8505 491.13477 324.25977 491.13477 C 327.66902 491.13477 330.06718 491.51533 328.04688 490.37891 C 326.02656 489.24252 327.28985 484.69597 327.79492 482.29688 C 328.3 479.89778 333.09856 481.66483 341.55859 482.16992 C 350.01862 482.67502 355.70061 481.28602 355.95312 479.64453 C 356.20567 478.00297 352.29051 479.77148 347.87109 479.77148 C 343.45168 479.77148 335.11757 476.86766 331.58203 476.23633 C 328.0465 475.605 319.08105 470.553 317.81836 469.16406 C 316.55566 467.77509 328.17325 474.08984 330.95117 474.08984 C 333.72909 474.08984 338.1495 468.02824 334.74023 466.38672 C 331.33097 464.74523 329.43544 461.58844 326.53125 456.28516 C 323.62706 450.98184 324.63731 448.83459 326.91016 453.63281 C 329.183 458.43104 332.46574 461.0838 335.875 462.85156 C 339.28427 464.61932 336.88558 454.01327 344.9668 449.97266 C 353.04802 445.93208 354.56365 456.03206 349.00781 461.58789 C 343.45198 467.14376 350.52267 470.17462 355.06836 473.20508 C 359.61405 476.23554 355.57384 468.66054 356.58398 462.59961 C 357.59413 456.53872 371.23008 452.49689 372.24023 447.95117 C 373.25039 443.4055 359.10975 450.47693 353.04883 446.94141 C 346.98792 443.40585 347.4934 434.81869 354.56445 423.70703 C 356.48863 420.68332 358.10966 418.35968 359.67969 416.32617 C 352.54965 416.14362 341.7257 415.80108 339.28516 416.07227 C 336.07089 416.42943 337.49916 413.92859 338.92773 412.5 C 340.3563 411.07145 332.49944 413.21484 329.28516 413.21484 C 326.07088 413.21484 337.49916 406.78626 341.42773 405.71484 C 345.3563 404.64342 334.99917 406.42825 336.42773 404.64258 C 337.85631 402.85683 351.07059 399.99945 353.92773 399.28516 C 356.78487 398.5709 350 399.28652 347.5 398.57227 C 345 397.85797 366.07199 396.42829 370.71484 394.64258 C 375.35769 392.85686 363.92885 395.71484 360.35742 395.71484 C 356.78599 395.71484 368.57114 393.2137 384.64258 391.78516 C 384.64258 391.78516 383.91588 392.93604 383.59766 393.44922 C 393.30737 386.17845 403.603 380.6827 405.57617 376.73633 C 408.10158 371.68557 399.01091 375.22031 393.45508 373.70508 C 387.89925 372.18985 394.96955 358.55232 395.47461 351.98633 C 395.97967 345.42034 405.57655 345.92655 407.0918 341.38086 C 408.60701 336.83517 392.44452 343.9051 384.36328 349.46094 C 376.28207 355.01678 375.27187 362.59339 374.26172 371.17969 C 373.25157 379.76598 354.05934 387.84805 344.46289 391.88867 C 334.86644 395.92929 356.58398 362.08788 356.58398 357.03711 C 356.58398 351.98635 344.46132 360.57421 340.92578 358.04883 C 337.39025 355.52345 340.92697 347.94608 345.47266 345.92578 C 350.01835 343.90547 357.08986 354.00666 362.14062 357.03711 C 367.19139 360.06757 379.31177 343.40155 386.38281 340.37109 C 393.45389 337.34063 395.97969 318.65116 398 314.10547 C 400.02031 309.55978 375.77579 327.23905 374.76562 325.21875 C 373.75548 323.19844 388.90901 313.60194 394.46484 310.06641 C 400.02067 306.53087 400.0211 290.36835 401.03125 287.33789 C 402.0414 284.30743 378.30273 296.4289 375.77734 295.92383 C 373.25196 295.41875 388.40433 287.33788 395.98047 284.8125 C 403.55661 282.28712 404.06094 274.20507 403.05078 269.1543 C 402.04063 264.10354 385.87891 278.75116 385.87891 275.7207 C 385.87891 272.69025 393.45509 270.16445 398.50586 266.62891 C 403.55659 263.09338 404.56521 259.05229 400.01953 244.91016 C 395.47386 230.76803 386.38275 248.44645 371.23047 240.36523 C 356.07818 232.28401 359.61366 222.18277 353.55273 211.57617 C 347.49183 200.96957 346.48277 217.63752 337.89648 223.19336 C 329.31018 228.7492 329.81402 220.16248 315.67188 216.62695 C 301.52974 213.09142 288.39919 244.40587 278.80273 245.41602 C 269.20628 246.42617 291.93321 211.57497 292.94336 201.97852 C 293.02228 201.22879 292.93189 200.89402 292.69531 200.91797 z "
       transform="scale(0.26458333)"
       id="path5079" />
    <path
       style="fill:#999999;stroke:none;stroke-width:0.26458332px;stroke-linecap:butt;stroke-linejoin:miter;stroke-opacity:1"
       d="m 65.956843,118.02306 c -2.220608,-1.93712 -3.685267,-3.35453 -4.913688,-5.33891 -1.228423,-1.98437 -3.638021,-4.96094 -4.960937,-5.00819 -1.322917,-0.0472 -2.362354,0.8977 -3.118305,2.31511 -0.755952,1.41741 -2.598587,9.5439 -2.126115,12.56771 0.472469,3.02381 3.590774,9.4494 4.771948,10.81957 1.181177,1.37016 2.362351,5.10268 3.732514,7.65401 1.370166,2.55134 3.449034,4.77195 4.488468,6.37835 1.039434,1.6064 1.370164,3.87426 2.929316,4.63021 1.559153,0.75595 2.882069,2.07887 2.315104,1.22842 -0.566965,-0.85044 0.661459,-2.36235 1.41741,-3.07105 0.755952,-0.70871 1.700893,-1.18118 1.41741,-0.85045 -0.28348,0.33073 -1.842632,1.41741 -2.267855,2.83482 -0.425225,1.41741 -0.283482,1.79539 0.425223,1.84264 0.708705,0.0472 1.653646,0.66145 2.267857,1.13392 0.614212,0.47247 1.842633,0.61422 2.362351,1.18118 0.519716,0.56696 1.889882,2.83482 2.173362,4.15774 0.283482,1.32291 0.04725,-2.69308 -0.236234,-3.49628 -0.283482,-0.8032 -3.590774,-1.84264 -3.685267,-2.74033 -0.0945,-0.89769 2.078868,-3.2128 2.078868,-3.9215 0,-0.70871 -1.27567,-4.58296 -1.322916,-4.39398 -0.04725,0.18899 0.377975,2.69308 -1.27567,2.69308 -1.653646,0 -3.307292,1.22843 -4.866445,-0.99218 -1.559149,-2.22061 -2.173361,-5.43341 -1.842632,-6.37835 0.330729,-0.94494 2.409597,-2.17337 1.748139,-2.31511 -0.661458,-0.14174 -3.307291,-1.32291 -3.732514,0.42523 -0.425225,1.74814 0.850445,3.63802 0.944941,4.63021 0.09449,0.99218 -1.700895,1.60639 -2.834823,-0.47247 -1.133927,-2.07887 -1.559152,-3.49628 -1.08668,-2.78758 0.472469,0.70871 2.598586,2.74033 2.551337,2.22061 -0.04725,-0.51971 -1.937126,-1.5119 -3.260042,-4.11049 -1.322917,-2.59859 -1.511906,-2.78757 -1.417413,-6.09487 0.0945,-3.30729 -0.04725,-7.46502 1.322917,-7.70126 1.370163,-0.23624 2.55134,0.75595 2.834822,0 0.283483,-0.75595 0.283483,-1.18118 1.181174,-1.88988 0.897694,-0.70871 3.638021,-1.18118 3.449035,-1.79539 -0.18899,-0.61421 -2.456847,1.37017 -3.496281,1.08668 -1.039434,-0.28348 -1.27567,-1.88988 -1.842633,-1.08668 -0.566965,0.8032 -1.370163,2.31511 -1.700892,1.51191 -0.330729,-0.8032 0.377976,-6.75633 -0.04725,-6.47284 -0.425223,0.28348 -1.795386,4.44121 -2.504091,8.03199 -0.708705,3.59077 0.188986,11.90625 -0.09449,11.33928 -0.283483,-0.56696 -3.779764,-7.18154 -4.724705,-9.21316 -0.944941,-2.03163 -1.41741,-2.88207 -1.370163,-5.6224 0.04725,-2.74033 0.755952,-7.18155 2.126118,-7.9375 1.370163,-0.75595 3.496278,-1.41741 5.102677,-0.14174 1.606399,1.27567 6.283854,5.38616 7.087052,5.14992 z"
       id="path5081"
       inkscape:connector-curvature="0" />
    <path
       style="fill:#b3b3b3;stroke:none;stroke-width:0.26458332px;stroke-linecap:butt;stroke-linejoin:miter;stroke-opacity:1"
       d="m 52.633183,111.31399 c 0.897695,-2.88207 0.755952,-4.44122 4.866445,-4.34673 4.11049,0.0945 4.91369,2.3151 6.709076,3.1183 1.795389,0.8032 2.504094,1.18118 2.976563,2.17337 0.472471,0.99218 1.322916,3.54352 2.078868,4.96093 0.755954,1.41742 2.976562,6.23661 2.173364,6.3311 -0.803198,0.0945 -4.582962,-4.86644 -5.291666,-5.38616 -0.708705,-0.51971 -4.11049,-3.77976 -5.858632,-6.09486 -1.748139,-2.3151 -2.787573,-3.87426 -4.015997,-4.06325 -1.228423,-0.18898 -3.307291,2.45685 -3.638021,3.3073 z"
       id="path5083"
       inkscape:connector-curvature="0" />
    <path
       style="fill:#808080;stroke:none;stroke-width:0.26458332px;stroke-linecap:butt;stroke-linejoin:miter;stroke-opacity:1"
       d="m 109.18787,131.01599 c 1.37016,0.42523 3.26005,0.8977 2.45685,1.08669 -0.8032,0.18898 -2.45685,0.85044 -1.18118,0.89769 1.27567,0.0472 6.28385,-1.13393 9.07143,-2.03162 2.78757,-0.8977 7.51228,-2.97656 7.22879,-2.12612 -0.28348,0.85045 -1.98437,4.58296 -4.77195,5.76414 -2.78757,1.18117 -6.75632,6.14211 -10.72507,7.98475 -3.96875,1.84263 -8.7407,2.83482 -10.48884,3.82701 -1.748138,0.99218 -3.63802,10.91406 -3.921502,13.98511 -0.283483,3.07106 -0.708705,9.78014 -0.14174,11.10305 0.566962,1.32292 3.968752,-3.02381 3.590772,-5.90587 -0.377976,-2.88207 -2.078869,-6.75633 -0.377976,-10.15811 1.700896,-3.40179 11.717266,-6.66183 12.614956,-5.57515 0.89769,1.08668 1.22842,3.96875 2.92931,2.50409 1.7009,-1.46466 2.97657,-5.57515 4.58297,-6.14211 1.6064,-0.56697 7.51227,-3.63802 7.0398,-2.36235 -0.47247,1.27567 -2.59858,2.17336 -4.20498,4.29947 -1.6064,2.12612 -1.65365,3.40179 -0.47247,3.82701 1.18117,0.42523 0.99218,-0.61421 1.55915,-0.33073 0.56696,0.28349 1.13393,2.4096 1.93713,2.88207 0.8032,0.47247 0.47247,-0.33073 2.17336,-0.8032 1.70089,-0.47247 4.15774,-0.33073 5.14993,0.42523 0.99218,0.75595 4.6302,3.30729 4.6302,3.30729 0,0 -1.74813,-1.70089 -0.56696,-3.26005 1.18118,-1.55915 3.77976,-3.63802 5.76414,-3.63802 1.98437,0 6.42559,-0.0945 6.99256,1.84264 0.56696,1.93713 0.85044,3.9215 -0.18899,5.00818 -1.03944,1.08668 -1.46466,1.79539 -2.59859,2.12612 -1.13393,0.33073 -2.4096,0.85044 -1.79539,0.75595 0.61422,-0.0945 3.16556,-0.70871 4.77195,-2.03162 1.6064,-1.32292 2.4096,-2.36235 2.22061,-5.14993 -0.18898,-2.78757 -3.16555,-8.59896 -3.96875,-13.74888 -0.80319,-5.14993 -2.36235,-9.59115 -2.22061,-12.14249 0.14175,-2.55134 -0.37797,-6.42559 1.46466,-8.17373 1.84263,-1.74814 7.41778,-4.91369 7.37054,-5.90588 -0.0472,-0.99219 -2.78758,0.56697 -5.52791,2.3151 -2.74032,1.74814 -3.73251,2.64584 -7.32328,2.36236 -3.59078,-0.28349 -6.28386,-1.18118 -7.41778,0.18898 -1.13394,1.37017 -1.88989,2.78758 -1.41741,4.11049 0.47246,1.32292 2.45684,3.3073 1.84263,5.24442 -0.61421,1.93713 -1.88988,4.58297 -1.88988,3.77976 0,-0.80319 1.46466,-4.29947 0.37797,-5.85862 -1.08668,-1.55916 -1.84263,-1.51191 -2.97656,-0.61422 -1.13393,0.8977 -2.92931,1.6064 -4.34673,1.84264 -1.41741,0.23623 -7.32328,1.6064 -7.55952,0.66145 -0.23623,-0.94493 1.22842,-2.12611 0.99219,-2.3151 -0.23624,-0.18899 -3.30729,0.8977 -6.18936,1.03944 -2.88207,0.14174 -7.37054,0.18898 -9.35491,-0.47247 -1.98438,-0.66146 -2.88207,-1.88989 -3.73252,-1.51191 -0.850443,0.37798 -1.984373,1.37017 -1.511901,1.79539 0.472469,0.42522 2.315101,0.89769 4.346721,1.08668 2.03163,0.18899 6.56734,0.28348 7.9375,0.0473 1.37017,-0.23624 3.54353,-0.51972 3.63803,-0.14174 0.0945,0.37797 -5.52791,0.80319 -7.70127,0.7087 -2.17336,-0.0945 -4.96094,-0.18899 -6.18936,-0.51971 -1.228423,-0.33073 -1.842635,-1.08669 -1.748139,-0.33073 0.09449,0.75595 -0.04725,2.2206 1.086679,2.40959 1.13393,0.18899 6.14211,0.28349 8.31548,0.0945 2.17336,-0.18899 8.55171,-1.37017 8.7407,-1.13393 0.18899,0.23623 -6.47284,1.18117 -8.45722,1.37016 -1.98437,0.18899 -7.03981,0.33073 -8.03199,0.33073 -0.99219,0 -1.748145,0.14174 -2.409603,0.94494 -0.661458,0.8032 -2.882066,2.26786 -2.645833,2.55134 0.236236,0.28348 2.315104,-2.22061 2.598586,-1.46466 0.283483,0.75595 0.755952,1.18118 -0.04725,1.41741 -0.803198,0.23624 1.88989,-0.51971 2.26786,-1.41741 0.37798,-0.89769 2.12612,-1.03943 1.5119,-0.7087 -0.6142,0.33073 -0.42522,1.27567 -0.99218,1.46465 -0.56697,0.18899 -1.417417,0.80321 -1.13393,1.08669 0.28348,0.28348 1.18118,-1.03944 1.22842,-0.56697 0.0472,0.47247 1.32292,1.46466 1.79539,0.8032 0.47247,-0.66146 1.22842,-1.65364 0.56696,-1.74814 -0.66145,-0.0945 -1.6064,-0.89769 -0.66145,-1.03943 0.94494,-0.14174 9.78013,-0.70871 11.0558,-0.99219 1.27567,-0.28348 5.95312,-1.51191 5.05543,-1.08668 -0.89769,0.42522 -4.06324,1.13393 -5.33891,1.41741 -1.27567,0.28348 -4.86645,0.37798 -4.67746,0.7087 z"
       id="path5085"
       inkscape:connector-curvature="0" />
    <path
       style="fill:#cccccc;stroke:none;stroke-width:0.26458332px;stroke-linecap:butt;stroke-linejoin:miter;stroke-opacity:1"
       d="m 126.00781,152.18266 c 0,-1.41741 1.74814,-3.30729 2.92932,-3.1183 1.18117,0.18899 1.79538,1.70089 2.92931,0.14174 1.13393,-1.55915 2.12612,-6.66183 3.16555,-6.37835 1.03944,0.28348 2.97656,0.89769 2.88207,2.07887 -0.0945,1.18118 -1.32292,6.42559 -2.55134,6.70908 -1.22842,0.28348 -3.35454,-0.99219 -4.96094,-0.85045 -1.60639,0.14174 -2.92931,-0.0473 -4.39397,1.41741 z"
       id="path5087"
       inkscape:connector-curvature="0" />
    <path
       style="fill:#808080;stroke:none;stroke-width:0.26458332px;stroke-linecap:butt;stroke-linejoin:miter;stroke-opacity:1"
       d="m 172.12157,168.90084 c 0,-2.13816 1.46399,-1.07941 1.74748,-0.5597 0.28348,0.51972 0.42522,2.74033 0.37797,6.09487 -0.0472,3.35454 -0.94494,8.92969 -1.6064,10.44159 -0.66146,1.51191 -2.03162,5.19718 -1.70089,4.86645 0.33073,-0.33073 2.92932,-4.016 3.26005,-5.76414 0.33072,-1.74814 1.55915,-6.70908 1.65364,-8.64621 0.0945,-1.93713 0.28348,-9.07142 0.0945,-10.96131 -0.18898,-1.88988 -1.88988,-6.37834 -1.98437,-8.31547 -0.0945,-1.93713 0.7087,-3.35454 -0.0945,-3.54353 -0.8032,-0.18899 -3.59078,-0.37798 -5.6224,-1.70089 -2.03162,-1.32292 -5.5279,-3.02381 -7.55952,-4.48847 -2.03163,-1.46466 -5.00819,-3.63802 -5.24442,-2.97656 -0.23624,0.66146 -0.75596,1.5119 -0.23624,2.26785 0.51972,0.75596 2.50409,2.97657 3.2128,5.57515 0.7087,2.59859 -0.28348,4.11049 -0.94494,5.14993 -0.66146,1.03943 -3.2128,3.2128 -2.92932,2.64583 0.28348,-0.56696 2.36236,-2.36235 2.07887,-3.21279 -0.28348,-0.85045 -2.07887,-1.03944 -2.74033,-0.56697 -0.66145,0.47247 -2.59858,2.26786 -2.97656,2.4096 -0.37797,0.14174 -1.79538,-25.65513 -1.13393,-25.27716 0.66146,0.37798 4.8192,-0.0472 6.37835,0.85045 1.55915,0.89769 2.64583,3.59077 2.88207,5.43341 0.23624,1.84263 6.47284,8.50446 7.2288,8.55171 0.75595,0.0472 -0.37798,-3.44904 1.03943,-2.59859 1.41741,0.85045 4.53571,3.63802 6.47284,4.53572 1.93713,0.89769 3.9215,-0.70871 3.44903,0.66145 -0.47246,1.37017 1.79539,1.98438 1.65365,4.29948 -0.14174,2.31511 -1.41741,8.59896 -1.55915,11.00856 -0.14174,2.4096 -0.14174,4.63021 -0.0945,8.69345 0.0472,4.06325 0.0945,6.14211 -1.03943,9.44941 -1.13393,3.30729 -3.16555,7.46503 -2.78758,8.22098 0.37798,0.75595 3.96875,-4.91369 4.34673,-6.47284 0.37798,-1.55915 1.55915,-10.58334 1.65365,-12.37872 0.0945,-1.79539 0.28348,-6.37835 0.61421,-7.41779 0.33073,-1.03943 0.8032,-2.78757 0.99219,-1.79538 0.18898,0.99218 0.75595,7.51227 0.66145,9.40215 -0.0945,1.88988 -1.22842,7.32329 -1.98437,9.6384 -0.75595,2.3151 -3.9215,9.73288 -4.8192,11.90625 -0.89769,2.17336 -2.92931,6.09486 -3.59077,6.66183 -0.66146,0.56696 -2.78757,2.97656 -2.74033,2.40959 0.0472,-0.56696 5.29167,-10.01636 5.24442,-10.48883 -0.0472,-0.47247 -0.0472,-2.22061 -1.46466,-1.13393 -1.41741,1.08668 -4.77194,7.37053 -6.14211,8.36272 -1.37016,0.99219 -2.55134,1.84263 -3.68527,0.8032 -1.13393,-1.03944 -2.36235,-2.36235 -3.26004,-2.07887 -0.89769,0.28348 -3.77976,2.74033 -4.29948,2.4096 -0.51972,-0.33073 4.58296,-3.07106 4.7247,-4.06325 0.14174,-0.99218 1.03944,-2.83482 0.18899,-3.26004 -0.85045,-0.42522 -4.44122,-2.36235 -5.38616,-3.26004 -0.94494,-0.8977 -1.93713,-1.46466 -0.8977,-2.31511 1.03944,-0.85044 3.02382,-1.46466 4.29948,-2.12611 1.27567,-0.66146 4.53572,-4.016 5.19718,-3.68527 0.66146,0.33073 1.41741,3.16555 2.12611,3.96875 0.70871,0.8032 3.49628,-1.13393 3.49628,-0.33073 0,0.8032 -0.89769,2.45684 -0.18898,2.74033 0.7087,0.28348 3.40178,-6.61459 3.63802,-9.6384 0.23623,-3.02381 0.0486,-9.74742 7.9e-4,-10.40161 z"
       id="path5107"
       inkscape:connector-curvature="0" />
    <path
       style="fill:#cccccc;stroke:none;stroke-width:0.26458332px;stroke-linecap:butt;stroke-linejoin:miter;stroke-opacity:1"
       d="m 155.44271,113.06213 c -3.68527,2.45684 -6.85082,3.96875 -8.12649,6.75632 -1.27567,2.78758 -0.89769,7.70126 -0.66146,10.3471 0.23623,2.64583 1.46466,8.07924 1.74814,9.96912 0.28348,1.88988 1.22842,6.80357 1.70089,8.17373 0.47247,1.37017 1.32292,3.54353 2.26786,4.1105 0.94494,0.56696 1.55915,0.42522 1.88988,-0.75596 0.33073,-1.18117 -0.89769,-5.5279 -0.42522,-4.91369 0.47247,0.61421 0.47247,3.82701 0.94494,4.25223 0.47247,0.42523 2.88207,2.45685 3.16555,1.18118 0.28348,-1.27567 -0.0945,-1.93713 -1.41741,-3.02381 -1.32292,-1.08668 -3.02381,-3.73251 -3.2128,-4.39397 -0.18899,-0.66146 -0.56696,-2.92932 -0.89769,-4.25223 -0.33073,-1.32292 -2.45685,-6.14212 -2.74033,-7.41779 -0.28348,-1.27567 -0.47247,-4.48846 -0.85045,-5.5279 -0.37797,-1.03943 -0.75595,-4.15774 -0.7087,-5.24442 0.0472,-1.08668 0.75595,-2.3151 1.65364,-3.73251 0.8977,-1.41741 5.81139,-5.00819 5.66965,-5.5279 z"
       id="path5089"
       inkscape:connector-curvature="0" />
    <path
       style="fill:#4d4d4d;stroke:none;stroke-width:0.26458332px;stroke-linecap:butt;stroke-linejoin:miter;stroke-opacity:1"
       d="m 149.48958,132.14992 c 1.51191,1.55915 2.78758,5.5279 4.48847,6.47285 1.70089,0.94494 4.77195,0.28348 4.44122,-0.23624 -0.33073,-0.51972 -4.15774,-0.37798 -4.53572,-1.46466 -0.37797,-1.08668 -1.84263,-3.9215 -0.94493,-4.11049 0.89769,-0.18899 7.18154,4.63021 10.20535,5.43341 3.02381,0.8032 8.31548,0.94494 9.87463,0.23624 1.55915,-0.70871 4.016,-5.7169 2.88207,-5.52791 -1.13393,0.18899 -1.41741,1.65365 -1.51191,0.94494 -0.0945,-0.7087 -1.32291,-2.17336 -1.08668,-1.5119 0.23624,0.66146 -0.0472,2.92931 -1.74814,3.44903 -1.70089,0.51972 -1.84263,-1.55915 -3.02381,-1.88988 -1.18117,-0.33073 -2.26785,-1.65364 0.94494,-1.98437 3.2128,-0.33073 4.06325,-0.18899 3.87426,-0.75596 -0.18899,-0.56696 -1.03944,-1.03943 -2.83482,-1.46466 -1.79539,-0.42522 -1.22843,-0.61421 1.08668,-0.80319 2.3151,-0.18899 3.59077,-1.08669 2.26786,-0.8032 -1.32292,0.28348 -2.92932,0.47247 -4.15774,0.42522 -1.22842,-0.0472 -1.79539,-0.42522 -0.70871,-0.8032 1.08668,-0.37798 4.58296,-2.45684 4.48847,-2.26786 -0.0945,0.18899 -1.18118,0.33073 -1.08668,-0.23623 0.0945,-0.56697 0.0472,-0.33073 1.13393,-1.08668 1.08668,-0.75596 1.74814,-2.03163 1.74814,-2.36235 0,-0.33073 -0.51972,-0.8977 -1.03944,-0.47247 -0.51972,0.42522 -0.51972,1.88988 -3.63802,3.07105 -3.1183,1.18118 -6.14211,1.51191 -7.70126,1.51191 -1.55916,0 -3.77977,-1.22843 -3.68527,-0.70871 0.0945,0.51972 2.83482,0.8032 2.26785,1.08668 -0.56696,0.28349 -3.87425,-0.14174 -3.87425,0.37798 0,0.51971 3.63802,1.46466 3.02381,1.46466 -0.61421,0 -2.07887,-0.37798 -3.02381,-0.8977 -0.94494,-0.51971 -2.97656,-0.8032 -3.2128,0.33073 -0.23623,1.13393 1.22843,3.40179 2.4096,3.77976 1.18118,0.37798 2.3151,0.99219 0.66146,0.99219 -1.65365,0 -3.92151,-0.28348 -5.00819,-1.13393 -1.08668,-0.85044 -3.30729,-3.49628 -3.30729,-2.4096 0,1.08669 -0.0945,2.45685 0.33073,3.35454 z"
       id="path5091"
       inkscape:connector-curvature="0" />
    <path
       style="fill:#808080;stroke:none;stroke-width:0.26458332px;stroke-linecap:butt;stroke-linejoin:miter;stroke-opacity:1"
       d="m 165.74256,125.34635 c 1.6064,-1.74814 2.22061,-2.59858 1.79539,-4.34672 -0.42523,-1.74814 -2.26786,-2.78758 -1.46466,-2.88207 0.8032,-0.0945 5.5279,0.23623 5.5279,0.75595 0,0.51972 -0.66146,0.23624 -0.51972,1.32292 0.14174,1.08668 1.65365,2.59858 1.27567,2.83482 -0.37798,0.23623 -2.12611,2.03162 -6.61458,2.3151 z"
       id="path5093"
       inkscape:connector-curvature="0" />
    <path
       style="fill:#e6e6e6;stroke:none;stroke-width:0.26458332px;stroke-linecap:butt;stroke-linejoin:miter;stroke-opacity:1"
       d="m 170.23103,118.73177 c 0.18898,0.85044 0.80319,3.1183 1.46465,3.16555 0.66146,0.0473 1.70089,0.42522 1.22843,0.56696 -0.47247,0.14175 -1.79539,0.85045 -0.94495,0.8032 0.85045,-0.0472 1.98438,-1.37016 1.93713,-1.84263 -0.0472,-0.47247 -2.22061,-2.45684 -3.68526,-2.69308 z"
       id="path5095"
       inkscape:connector-curvature="0" />
    <path
       style="fill:#e6e6e6;stroke:none;stroke-width:0.26458332px;stroke-linecap:butt;stroke-linejoin:miter;stroke-opacity:1"
       d="m 160.92336,120.10193 c 0,-0.37797 1.70089,-1.46465 1.70089,-0.94494 0,0.51972 -1.08668,1.41741 -1.70089,0.94494 z"
       id="path5097"
       inkscape:connector-curvature="0" />
    <path
       style="fill:#e6e6e6;stroke:none;stroke-width:0.26458332px;stroke-linecap:butt;stroke-linejoin:miter;stroke-opacity:1"
       d="m 166.54576,115.61346 c -0.0945,-0.47246 0.94494,-1.37016 2.78757,-1.60639 1.84264,-0.23624 4.67746,0.33073 5.81139,1.55915 1.13392,1.22842 2.17336,2.97656 1.98437,3.87425 -0.18899,0.8977 -1.13393,1.79539 -0.42522,1.93713 0.7087,0.14174 1.79538,0.18899 2.4096,0.61421 0.61421,0.42523 -0.23624,0.70871 0.18898,1.7009 0.42523,0.99218 0.99219,0.94494 0.75596,1.98437 -0.23624,1.03944 -0.75596,1.6064 -0.37798,2.36235 0.37798,0.75595 0.85045,1.84264 0.85045,2.55134 0,0.70871 0.42522,1.08668 -0.28349,1.98438 -0.7087,0.89769 -1.70089,-0.61421 -1.70089,0.28348 0,0.89769 0.61421,0.51972 0.33073,1.08668 -0.28348,0.56697 -1.79539,1.88988 -2.45684,2.12612 -0.66146,0.23623 -0.0472,-1.41741 0.0472,-2.36236 0.0945,-0.94494 0.18899,-1.08668 -0.18899,-1.46465 -0.37797,-0.37798 -1.27567,-1.6064 -0.75595,-1.65365 0.51972,-0.0472 0.51972,-0.89769 0.70871,-0.47247 0.18899,0.42523 0.89769,2.3151 1.27567,2.22061 0.37797,-0.0945 0.56696,-0.89769 0.14174,-1.46465 -0.42523,-0.56697 -0.37798,-1.46466 -1.41741,-1.6064 -1.03944,-0.14175 -2.5041,-0.14175 -2.22061,-0.47248 0.28348,-0.33073 2.45684,-1.03943 2.07887,-1.18117 -0.37798,-0.14174 -1.41742,0 -2.45685,0.14174 -1.03943,0.14174 -2.17336,0 -1.5119,-0.61421 0.66146,-0.61421 1.98437,-1.18118 1.98437,-1.55915 0,-0.37798 -1.37016,-0.47247 -0.75595,-0.70871 0.61421,-0.23623 2.26786,-1.98437 2.36235,-2.92931 0.0945,-0.94494 -0.33073,-2.78758 -1.08668,-3.59078 -0.75595,-0.8032 -1.98438,-1.74814 -3.26005,-2.03162 -1.27567,-0.28348 -3.96875,-0.47247 -4.81919,-0.70871 z"
       id="path5099"
       inkscape:connector-curvature="0" />
    <path
       style="fill:#808080;stroke:none;stroke-width:0.26458332px;stroke-linecap:butt;stroke-linejoin:miter;stroke-opacity:1"
       d="m 158.08854,121.04687 c -1.37016,0.99219 -3.77976,2.31511 -3.30729,2.88207 0.47247,0.56697 3.68527,1.03944 4.15774,1.03944 0.47247,0 0.66146,0.33073 0.14174,-0.23624 -0.51972,-0.56696 -1.51191,-2.45684 -0.99219,-3.68527 z"
       id="path5101"
       inkscape:connector-curvature="0" />
    <path
       style="fill:#666666;stroke:none;stroke-width:0.26458332px;stroke-linecap:butt;stroke-linejoin:miter;stroke-opacity:1"
       d="m 165.27009,114.3378 c 0,-0.8977 4.77195,-4.8192 5.76413,-6.47285 0.99219,-1.65364 0.8032,-2.83482 1.46466,-3.07105 0.66146,-0.23624 3.92151,-1.74814 4.48847,-1.27567 0.56696,0.47247 -0.75595,2.07887 -0.8032,2.64583 -0.0472,0.56697 1.41741,0.8977 1.41741,1.5119 0,0.61422 -1.41741,1.65365 -1.03943,1.7009 0.37797,0.0473 1.41741,-1.6064 1.6064,-1.18118 0.18898,0.42523 0.42522,0.94494 0.94494,2.31511 0.51971,1.37016 1.37016,1.13392 1.03943,2.17336 -0.33073,1.03944 -0.37798,1.93713 -0.33073,2.50409 0.0472,0.56697 -1.08668,3.40179 -0.8032,3.44904 0.28348,0.0472 1.22842,-3.07106 1.27567,-2.36236 0.0473,0.70871 -1.5119,4.96094 -0.85044,4.91369 0.66145,-0.0472 2.17336,-0.99218 1.88987,-0.47247 -0.28348,0.51972 -0.85044,1.03944 -0.33072,1.03944 0.51971,0 1.13393,-0.23624 0.85044,0.23623 -0.28348,0.47247 -0.18899,0.8032 -0.89769,0.94495 -0.70871,0.14174 -1.37016,0.6142 -1.65365,-0.0945 -0.28348,-0.70871 -0.75595,-1.03943 -1.74814,-1.18117 -0.99218,-0.14175 -1.5119,-0.42523 -0.89769,-1.65365 0.61421,-1.22842 0.61421,-1.32292 -0.0945,-2.55134 -0.70871,-1.22842 -1.88989,-2.97656 -3.44904,-3.26005 -1.55915,-0.28348 -3.40178,-0.99218 -4.91369,-0.33072 -1.5119,0.66145 -2.69308,1.18117 -1.98437,0.61421 0.7087,-0.56697 2.97656,-3.07106 2.36235,-2.69308 -0.61421,0.37797 -2.64583,3.26004 -3.30729,2.55134 z"
       id="path5103"
       inkscape:connector-curvature="0" />
    <path
       style="fill:#cccccc;stroke:none;stroke-width:0.26458332px;stroke-linecap:butt;stroke-linejoin:miter;stroke-opacity:1"
       d="m 156.38765,137.2526 c -0.0945,-0.56696 1.22842,-1.22842 2.36235,-0.47247 1.13393,0.75595 0,0.85045 1.74814,1.46466 1.74814,0.61421 3.68527,0.8032 5.76414,0.99219 2.07886,0.18898 6.18936,0.47247 7.37053,0.0472 1.18118,-0.42522 1.32292,-2.78757 2.07887,-2.40959 0.75595,0.37797 2.12612,0.80319 3.68527,2.17336 1.55915,1.37016 3.68527,4.86644 3.63802,4.20498 -0.0472,-0.66145 -0.99219,-1.93712 -2.12612,-3.35453 -1.13393,-1.41741 -3.49628,-2.17337 -3.49628,-2.69308 0,-0.51972 0.56697,-0.99219 1.32292,-1.41742 0.75595,-0.42522 0.0945,-1.27566 0.99219,-1.18117 0.89769,0.0945 1.37016,0.56696 2.83482,1.79538 1.46466,1.22843 2.74032,2.59859 3.02381,3.2128 0.28348,0.61421 0.33073,1.55916 0.37797,1.18118 0.0472,-0.37798 0.47247,-1.27567 -0.47247,-2.17336 -0.94494,-0.8977 -3.21279,-3.96875 -4.06324,-4.39398 -0.85045,-0.42522 -1.93713,-1.22842 -1.27567,-1.13393 0.66146,0.0945 3.59077,0.94494 3.30729,0.70871 -0.28348,-0.23623 -2.3151,-0.33073 -2.3151,-1.03944 0,-0.7087 -0.0945,-1.6064 0.14174,-2.26785 0.23623,-0.66146 -0.8032,-1.55915 -0.85045,-2.55134 -0.0472,-0.99219 0.61421,-1.22842 0.51972,-2.4096 -0.0945,-1.18117 -1.27567,-1.55915 -0.61421,-1.79539 0.66146,-0.23623 3.63802,-0.89769 4.20498,-1.37016 0.56697,-0.47247 0.99219,-1.08668 0.61421,-0.85045 -0.37797,0.23624 -2.03162,0.94494 -2.59858,1.18118 -0.56697,0.23624 -0.70871,-0.37798 -0.61421,-0.89769 0.0945,-0.51972 -1.51191,-0.0945 -1.65365,-0.47247 -0.14174,-0.37798 -1.32292,0.42522 -1.32292,-0.33073 0,-0.75596 -0.23623,-1.27567 -0.0472,-2.92932 0.18899,-1.65364 -3.44903,-8.07924 -3.54353,-9.35491 -0.0945,-1.27567 -0.0473,-4.58296 0.75595,-5.00819 0.8032,-0.42522 2.83482,-0.85044 4.44122,-0.66145 1.6064,0.18899 4.48847,1.03943 4.29948,0.8032 -0.18898,-0.23624 -1.46465,-0.23624 -1.84263,-1.22843 -0.37798,-0.99218 -0.0472,-1.46465 -1.18118,-2.12611 -1.13392,-0.66146 -4.20498,-1.889883 -5.5279,-1.842636 -1.32292,0.04725 -5.10268,1.039434 -6.14211,1.464656 -1.03944,0.42523 0.85044,-0.992185 0.23623,-0.661455 -0.61421,0.330729 -2.07887,1.275665 -2.64583,1.370165 -0.56696,0.0945 1.84263,-2.929318 2.69308,-3.921505 0.85045,-0.992188 -0.33073,-1.228424 -1.70089,-2.078869 -1.37017,-0.850447 -0.66146,-2.362353 -1.7009,-2.315104 -1.03943,0.04725 -2.45684,-0.803201 -1.65364,-1.228423 0.8032,-0.425223 0.85045,-1.039434 2.69308,-1.039434 1.84263,0 4.016,-0.236236 6.00037,0.425222 1.98438,0.661458 4.44122,1.842635 5.14993,2.362351 0.7087,0.519718 3.07105,2.69308 2.17336,1.889882 -0.89769,-0.803201 -2.59859,-1.6064 -1.93713,-2.031622 0.66146,-0.425225 1.13393,-1.417413 0.37798,-1.795388 -0.75595,-0.377976 -2.78758,-1.889879 -4.63021,-2.126115 -1.84264,-0.236236 -3.26005,-0.519719 -2.88207,-1.322917 0.37798,-0.803201 -0.61421,-2.929316 0.33073,-2.929316 0.94494,0 3.1183,1.039434 4.25223,1.795386 1.13393,0.755954 3.02381,2.55134 3.16555,2.456847 0.14174,-0.09449 -1.03943,-1.086681 -1.98437,-1.795389 -0.94494,-0.708705 -1.32292,-1.795385 -2.69308,-2.126115 -1.37017,-0.330729 -2.78758,-1.08668 -3.59078,-1.464656 -0.8032,-0.377979 -1.41741,-1.464659 -1.74814,-2.031624 -0.33073,-0.566963 -2.74032,-1.842633 -1.32291,-1.700893 1.41741,0.141743 2.74033,0.283483 1.98437,-0.14174 -0.75595,-0.425222 -3.68527,-1.27567 -2.88207,-1.181177 0.8032,0.0945 4.77195,1.559153 5.5279,1.984375 0.75596,0.425226 0.51972,-0.14174 -1.27566,-0.850444 -1.79539,-0.708705 -4.72471,-1.6064 -5.14993,-2.126118 -0.42522,-0.519716 -1.03943,-1.228421 -0.99219,-2.078868 0.0472,-0.850448 -1.03943,-1.748139 -0.42522,-1.748139 0.61421,0 3.07106,1.27567 4.8192,1.889879 1.74814,0.614211 2.78757,0.992187 4.48846,2.362353 1.7009,1.370163 2.97657,2.976563 3.11831,2.83482 0.14174,-0.14174 -0.8977,-1.700893 -1.7009,-2.220611 -0.80319,-0.519716 -1.88988,-1.086681 -3.49627,-2.315104 -1.6064,-1.228421 -3.44904,-1.55915 -4.15774,-2.031622 -0.70871,-0.472469 -1.93713,-2.598586 -2.69308,-4.771948 -0.75596,-2.173364 -0.23624,-2.882069 -0.14175,-4.535715 0.0945,-1.653646 -6.18935,-4.819195 -5.38616,-5.953125 0.8032,-1.133927 4.44123,-2.078868 8.26823,-0.897694 3.82701,1.181177 5.24442,3.779763 4.8192,2.504093 -0.42522,-1.27567 -4.06325,-6.850819 -3.16555,-6.756323 0.89769,0.09449 3.02381,4.441219 5.10268,6.425594 2.07887,1.984375 0.47247,-0.944941 1.37016,-0.803198 0.89769,0.14174 1.6064,0.236233 2.55134,2.83482 0.94494,2.598586 4.39397,12.99293 5.57515,15.686013 1.18118,2.69308 1.37016,6.189358 2.50409,9.307663 1.13393,3.118303 1.6064,7.559524 1.84263,10.77232 0.23624,3.212798 -0.80319,8.220978 -0.85044,10.205358 -0.0472,1.98437 -0.42522,4.34673 -0.42522,4.34673 0,0 0.66146,-2.59859 0.85044,-1.98438 0.18899,0.61421 -0.0472,2.50409 0.23624,2.92932 0.28348,0.42522 2.59858,-2.50409 2.69308,-1.55916 0.0945,0.94494 -0.0472,1.7009 -0.8977,2.36236 -0.85044,0.66146 -1.65364,1.03943 -2.2206,2.12611 -0.56697,1.08668 -0.80321,1.46466 -0.70871,3.35454 0.0945,1.88988 0.28348,9.16592 0.23623,12.04799 -0.0472,2.88207 -0.47247,7.18155 -0.56696,9.87463 -0.0945,2.69308 -0.70871,4.8192 -0.33073,4.39397 0.37798,-0.42522 0.28348,-2.03162 0.70871,-2.69308 0.42522,-0.66146 1.27566,-1.37016 0.89769,-2.50409 -0.37798,-1.13393 0.23623,-2.26786 -0.28348,-2.88207 -0.51972,-0.61421 -0.37798,-2.07887 0.8032,-1.6064 1.18117,0.47247 1.27567,2.36235 1.13392,3.54353 -0.14174,1.18118 -0.42522,3.1183 -0.18898,2.4096 0.23623,-0.70871 1.5119,-5.6224 2.07887,-6.56734 0.56696,-0.94494 1.18117,-2.45684 0.66145,-5.95312 -0.51971,-3.49628 -1.79538,-7.51228 -2.17336,-7.98475 -0.37798,-0.47247 -0.61421,2.03162 -0.66146,1.27567 -0.0472,-0.75595 0.33073,-1.70089 0,-2.36235 -0.33073,-0.66146 -1.84263,-0.42522 -1.84263,-1.13393 0,-0.7087 3.1183,-1.41741 3.40178,-2.17336 0.28349,-0.75596 -0.75595,-2.97657 -0.33072,-3.3073 0.42522,-0.33072 0.66145,-1.65364 0.56696,-2.64583 -0.0945,-0.99219 -0.23624,-1.93713 0.47247,-3.30729 0.7087,-1.37016 2.69308,-4.34673 4.06325,-3.77976 1.37016,0.56696 2.88206,6.23661 3.07105,8.07924 0.18899,1.84263 -0.23624,4.11049 -0.42522,5.38616 -0.18899,1.27567 -1.88988,4.91369 -2.31511,6.3311 -0.42522,1.41741 -2.45684,7.60677 -2.55134,7.08705 -0.0945,-0.51971 -0.61421,-1.70089 -0.0472,-2.59858 0.56696,-0.8977 2.4096,-6.09487 3.30729,-8.7407 0.89769,-2.64583 1.41741,-5.76414 1.18117,-7.79576 -0.23623,-2.03162 -0.51971,-3.9215 -1.27567,-4.016 -0.75595,-0.0945 -3.54352,0.8032 -4.25223,1.93713 -0.7087,1.13393 -0.56696,2.31511 -0.42522,4.58296 0.14174,2.26786 1.22842,8.64621 1.22842,10.29985 0,1.65365 -0.18899,4.25224 -0.0945,5.43341 0.0945,1.18118 0.42522,3.02381 -0.0945,4.44122 -0.51971,1.41741 -2.59858,6.18936 -3.16555,7.55953 -0.56696,1.37016 -0.75595,1.93712 -1.22842,3.96875 -0.47247,2.03162 -0.7087,3.40178 -1.27567,4.11049 -0.56696,0.7087 -0.89769,1.88988 -1.27567,1.88988 -0.37798,0 0,5.5279 -0.33073,9.07142 -0.33073,3.54353 -1.22842,8.64621 -2.12611,12.33148 -0.8977,3.68527 -2.31511,10.2526 -3.07106,12.23698 -0.75595,1.98437 -4.53571,8.45721 -5.5279,10.15811 -0.99219,1.70089 -4.25223,5.38616 -4.25223,4.39397 0,-0.99219 2.03162,-4.016 3.68526,-7.1343 1.65365,-3.1183 4.016,-8.97693 4.39398,-11.00856 0.37797,-2.03162 2.03162,-5.76413 2.03162,-9.59114 0,-3.82701 0.8032,-13.22917 -0.0472,-11.90625 -0.85044,1.32292 -2.12611,3.35454 -2.22061,5.71689 -0.0945,2.36235 -0.28348,6.18936 -0.61421,9.5439 -0.33073,3.35454 -0.66146,6.09486 -1.41741,8.59896 -0.75595,2.50409 -3.77976,7.18154 -4.016,6.75632 -0.23623,-0.42522 2.55134,-5.76414 3.35454,-9.59115 0.8032,-3.827 0.85045,-11.00855 0.56696,-14.03236 -0.28348,-3.02381 1.46466,-8.36273 1.65365,-10.29985 0.18899,-1.93713 0.47247,-6.52009 -0.23623,-8.17374 -0.70871,-1.65364 -2.97657,-0.85045 -5.48066,-1.65364 -2.50409,-0.80321 -6.28385,-4.9137 -6.70908,-3.63803 -0.42522,1.27567 -0.75595,3.26005 -1.32291,2.92932 -0.56697,-0.33073 -5.10268,-4.7247 -5.48066,-6.52009 -0.37797,-1.79539 -1.08668,-3.49628 -3.40178,-3.35454 z"
       id="path5105"
       inkscape:connector-curvature="0" />
    <path
       style="fill:#333333;stroke:none;stroke-width:0.26458332px;stroke-linecap:butt;stroke-linejoin:miter;stroke-opacity:1"
       d="m 142.7805,221.87202 c -1.60639,3.77976 -2.74032,3.68527 -2.36235,4.53572 0.37798,0.85044 1.6064,1.60639 0.28349,4.34672 -1.32292,2.74033 -1.79539,5.95313 -0.47248,4.91369 1.32292,-1.03943 7.65402,-3.96875 9.16593,-6.52009 1.5119,-2.55134 3.68527,-7.46503 4.91369,-9.16592 1.22842,-1.70089 2.74033,-3.49628 1.6064,-2.83482 -1.13393,0.66146 -7.08706,4.15774 -8.59896,4.15774 -1.51191,0 -4.53572,0.56696 -4.53572,0.56696 z"
       id="path5156"
       inkscape:connector-curvature="0" />
    <path
       style="fill:#666666;stroke:none;stroke-width:0.26458332px;stroke-linecap:butt;stroke-linejoin:miter;stroke-opacity:1"
       d="m 148.78088,205.52455 c -0.47247,-1.37016 -0.70871,-4.29948 0.42522,-5.24442 1.13393,-0.94494 3.16555,-0.75595 4.7247,0.14174 1.55915,0.8977 2.22061,0.85045 3.9215,-0.23623 1.7009,-1.08668 0.75596,-1.88988 2.12612,-0.94494 1.37016,0.94494 3.9215,2.88206 4.96094,2.12611 1.03943,-0.75595 4.15774,-5.5279 5.14992,-6.75632 0.99219,-1.22842 2.64584,-3.73252 3.02381,-2.92932 0.37798,0.8032 0.37798,2.17337 -0.89769,4.34673 -1.27567,2.17336 -4.34673,8.40997 -6.09487,10.86682 -1.74814,2.45684 -6.3311,8.17373 -7.843,9.11867 -1.51191,0.94494 -5.05543,2.59859 -4.63021,1.98437 0.42522,-0.61421 4.77195,-4.91369 4.91369,-5.71688 0.14174,-0.80321 -0.33073,-3.11831 -1.32292,-4.25224 -0.99218,-1.13392 -3.35454,-1.18117 -4.34672,-1.79538 -0.99219,-0.61421 -3.59078,0 -4.11049,-0.70871 z"
       id="path5109"
       inkscape:connector-curvature="0" />
    <path
       style="fill:#ececec;stroke:none;stroke-width:0.26458332px;stroke-linecap:butt;stroke-linejoin:miter;stroke-opacity:1"
       d="m 145.14286,190.4055 c 0.33072,1.51191 1.13392,3.49628 1.37016,3.92151 0.23623,0.42522 0.47247,0.7087 0.47247,0.7087 0,0 -0.94494,-0.89769 -1.32292,-1.98437 -0.37797,-1.08669 -0.51971,-2.64584 -0.51971,-2.64584 z"
       id="path5111"
       inkscape:connector-curvature="0" />
    <path
       style="fill:#4d4d4d;stroke:none;stroke-width:0.26458332px;stroke-linecap:butt;stroke-linejoin:miter;stroke-opacity:1"
       d="m 107.72321,179.53869 c -1.22842,-0.8977 -2.03162,-1.93713 -1.32291,-5.10268 0.7087,-3.16555 2.22061,-7.74851 2.74032,-6.75632 0.51972,0.99218 -0.14174,3.16554 0.85045,1.84263 0.99219,-1.32292 1.55915,-6.04762 3.49628,-8.45722 1.93713,-2.4096 8.97693,-8.12649 10.06362,-6.37835 1.08668,1.74814 1.55915,5.5279 3.68526,5.43341 2.12612,-0.0945 7.84301,-1.93713 8.36273,-1.08668 0.51972,0.85045 -1.98438,8.36272 -1.84264,9.73289 0.14174,1.37016 0.8032,1.65364 1.7009,1.27567 0.89769,-0.37798 2.69308,-2.59859 3.77976,-2.22061 1.08668,0.37797 4.53571,2.69308 4.15774,4.25223 -0.37798,1.55915 -1.7009,3.68527 -2.45685,3.40179 -0.75595,-0.28349 -1.18117,-0.75596 -3.40179,-1.51191 -2.22061,-0.75595 -8.03199,-0.61421 -12.18973,0.37798 -4.15773,0.99218 -12.18973,3.40178 -13.84338,4.34672 -1.65364,0.94494 -3.07105,1.37016 -3.77976,0.85045 z"
       id="path5121"
       inkscape:connector-curvature="0" />
    <path
       style="fill:#4d4d4d;stroke:none;stroke-width:0.26458332px;stroke-linecap:butt;stroke-linejoin:miter;stroke-opacity:1"
       d="m 148.30841,160.3564 c -1.18118,3.02381 -1.55916,4.15773 -1.46466,5.29166 0.0945,1.13393 1.18117,1.03944 1.98437,1.93713 0.8032,0.89769 3.16555,0.51972 3.44904,2.17336 0.28348,1.65365 -0.42523,4.15774 -1.41742,3.2128 -0.99218,-0.94494 -2.12611,-1.5119 -3.59077,-1.13393 -1.46466,0.37798 -2.97656,0.51972 -1.84263,1.32292 1.13393,0.8032 2.64583,1.37016 4.15773,1.32292 1.51191,-0.0472 3.2128,0.56696 5.95313,1.41741 2.74033,0.85044 6.89807,1.98437 7.9375,2.97656 1.03944,0.99219 1.93713,2.3151 2.64583,2.4096 0.70871,0.0945 1.08669,-0.85045 1.08669,-1.6064 0,-0.75595 0.28348,-0.51972 -0.56697,-1.32292 -0.85045,-0.8032 -0.61421,-3.16555 0.37798,-3.02381 0.99218,0.14175 2.55134,1.22843 2.45684,0.37798 -0.0945,-0.85045 0.0473,-2.97656 -1.18117,-4.34673 -1.22843,-1.37016 -4.11049,-1.55915 -5.71689,-4.48847 -1.6064,-2.92931 -3.96875,-4.48846 -4.96094,-5.66964 -0.99219,-1.18117 -1.51191,-2.92931 -2.26786,-2.36235 -0.75595,0.56697 -1.84263,0.85045 -1.84263,0.42522 0,-0.42522 -1.79539,1.03944 -2.88207,0.99219 -1.08668,-0.0472 -1.93713,-0.56696 -2.3151,0.0945 z"
       id="path5123"
       inkscape:connector-curvature="0" />
    <path
       style="fill:#b3b3b3;stroke:none;stroke-width:0.26458332px;stroke-linecap:butt;stroke-linejoin:miter;stroke-opacity:1"
       d="m 149.39509,181.19233 c -0.28348,0.61422 2.92931,0.28349 2.64583,0.66146 -0.28348,0.37798 -2.64583,0.70871 -2.69308,1.6064 -0.0472,0.89769 2.88207,4.29948 2.88207,3.87426 0,-0.42523 -0.37798,-4.96094 -0.14174,-4.67746 0.23623,0.28348 0.42522,4.29948 0.99219,4.34673 0.56696,0.0473 0.80319,0.18899 1.08668,-0.28348 0.28348,-0.47247 -0.37798,-4.77195 -0.28349,-4.63021 0.0945,0.14174 0.56697,3.73251 0.94494,4.016 0.37798,0.28348 0.61422,0.56696 0.94495,0.0472 0.33072,-0.51972 -0.23624,-2.22061 -0.47247,-2.69308 -0.23624,-0.47247 -1.03944,-1.41741 -0.66146,-1.13393 0.37797,0.28348 1.08668,0.8032 1.27567,1.51191 0.18898,0.7087 0.23623,2.26786 0.7087,2.26786 0.47247,0 0.66146,0.0472 0.51972,-0.51972 -0.14174,-0.56697 -1.46466,-3.92151 -1.22842,-3.77976 0.23623,0.14174 1.27567,2.40959 1.32291,3.02381 0.0472,0.61421 0.0945,1.03943 0.47247,0.85044 0.37798,-0.18899 0.66146,0.0945 0.66146,-0.8032 0,-0.89769 -0.56696,-2.36235 -0.89769,-3.1183 -0.33073,-0.75595 -0.75595,-1.41741 -0.28348,-0.99219 0.47247,0.42522 1.60639,4.39397 1.84263,4.06325 0.23624,-0.33073 0.56697,0 0.70871,-0.75596 0.14174,-0.75595 0.33072,-0.7087 -0.28349,-1.6064 -0.61421,-0.89769 -1.27567,-1.84263 -0.85044,-1.60639 0.42522,0.23623 1.6064,1.84263 1.6064,2.3151 0,0.47247 -0.0945,0.51972 0.47247,0.23624 0.56696,-0.28349 2.12611,-0.85045 1.55915,-1.13393 -0.56697,-0.28349 -1.41741,-1.03944 -2.22061,-1.22843 -0.8032,-0.18898 -1.27567,-0.47247 -2.55134,-0.66146 -1.27567,-0.18898 -2.92932,-0.23623 -3.35454,-0.14174 -0.42522,0.0945 -0.47247,0.8032 -0.94494,0.75596 -0.47247,-0.0473 -0.56696,-0.37798 -1.41741,-0.51972 -0.85045,-0.14174 -2.31511,0.18899 -2.36235,0.7087 z"
       id="path5125"
       inkscape:connector-curvature="0" />
    <path
       style="fill:#333333;stroke:none;stroke-width:0.26458332px;stroke-linecap:butt;stroke-linejoin:miter;stroke-opacity:1"
       d="m 115.3268,180.79433 c 2.93996,0.40091 11.43696,-0.68868 13.89381,-0.59418 2.45684,0.0945 5.14992,0.99218 6.66183,1.18117 1.51191,0.18899 3.59077,0.66146 4.8192,0.47247 1.22842,-0.18899 6.04761,-0.42522 7.1343,-0.56696 1.08668,-0.14174 1.27567,-0.33073 1.32291,0.28348 0.0472,0.61421 0.0472,1.70089 0.47247,2.83482 0.42523,1.13393 2.55134,3.07106 2.22061,3.30729 -0.33073,0.23624 -2.36235,0.37798 -3.44903,0.18899 -1.08668,-0.18899 -3.63802,-0.8032 -4.25223,-0.7087 -0.61421,0.0945 -1.32292,1.32291 -2.12612,1.32291 -0.8032,0 -2.55134,0.14174 -4.7247,-0.23623 -2.17336,-0.37798 -7.60677,-2.31511 -6.85082,-1.74814 0.75595,0.56696 5.24442,1.55915 4.63021,1.84263 -0.61421,0.28348 -4.63021,-0.51972 -5.62239,-0.75595 -0.99219,-0.23623 -3.16556,-0.94494 -5.43341,-1.37016 -2.26786,-0.42523 -7.70764,-3.2056 -8.69664,-5.45344 z"
       id="path5127"
       inkscape:connector-curvature="0" />
    <path
       transform="translate(0,-32.41665)"
       style="display:inline;fill:#b3b3b3;stroke:none;stroke-width:0.26458332px;stroke-linecap:butt;stroke-linejoin:miter;stroke-opacity:1"
       d="m 127.47247,71.348198 c -0.18899,-1.511906 -2.83482,-2.078871 -6.23661,-1.417413 -3.40178,0.661459 -5.29166,2.267858 -6.70908,0.566965 -1.41741,-1.700892 -1.22842,-4.346725 -4.7247,-2.456844 -3.49628,1.889879 -4.53571,4.157737 -7.9375,3.401785 -3.401783,-0.755951 -5.386158,-3.023809 -7.27604,-2.078868 -1.889881,0.944938 -10.583333,7.465028 -12.567708,9.827379 -1.984375,2.362351 -4.91369,6.803572 -5.858631,9.260416 -0.944941,2.456847 -4.157737,8.504465 -3.118303,9.165924 1.039434,0.661458 8.787945,-6.992559 11.528274,-6.236608 2.740327,0.755952 4.724702,2.173364 6.331101,1.228424 1.606399,-0.944941 3.401785,-0.944941 4.535715,1.039434 1.133927,1.984375 5.480652,3.77976 5.480652,2.55134 0,-1.228424 -0.37797,-5.386163 1.98438,-6.709079 2.36235,-1.322917 9.4494,-2.267855 10.77232,-4.724702 1.32292,-2.456844 -0.85045,-6.52009 1.70089,-8.126487 2.55134,-1.606399 11.90625,-3.49628 12.09524,-5.291666 z"
       id="path5139"
       inkscape:connector-curvature="0" />
    <path
       transform="translate(0,-32.41665)"
       style="display:inline;fill:#b3b3b3;stroke:none;stroke-width:0.26458332px;stroke-linecap:butt;stroke-linejoin:miter;stroke-opacity:1"
       d="m 130.02381,71.631678 c 0,-1.41741 6.04762,-0.566963 8.22098,-1.606397 2.17336,-1.039437 -4.25223,-6.52009 -1.70089,-6.236607 2.55134,0.283482 14.55208,3.590774 17.57589,5.858629 3.02381,2.267857 5.66964,5.291666 7.37053,4.913691 1.7009,-0.377976 -1.03943,-3.590775 1.7009,-1.795386 2.74033,1.795386 8.59896,8.504465 10.29985,11.055802 1.70089,2.55134 4.63021,7.843007 4.7247,8.693454 0.0945,0.850445 -0.94494,0.850445 -3.1183,1.511904 -2.17336,0.661458 -15.21354,-1.039435 -14.55208,-2.740327 0.66145,-1.700893 1.32291,-4.913691 0.18898,-6.142114 -1.13392,-1.228421 -7.74851,-5.764136 -10.77232,-7.276042 -3.02381,-1.511903 -10.67783,-3.118302 -12.75669,-4.252232 -2.07887,-1.133928 -7.27605,-1.133928 -7.18155,-1.984375 z"
       id="path5141"
       inkscape:connector-curvature="0" />
    <path
       style="display:inline;fill:#333333;stroke:none;stroke-width:0.26458332px;stroke-linecap:butt;stroke-linejoin:miter;stroke-opacity:1"
       d="m 137.07586,222.83269 c 0.0334,1.33634 0.20045,3.17382 0.13363,3.97563 -0.0668,0.80181 -0.20045,3.4745 -0.0668,2.6727 0.13363,-0.80181 0.56794,-2.83974 0.46772,-1.46999 -0.10023,1.36976 -0.26727,2.17157 -0.20046,2.83974 0.0668,0.66818 -0.63476,2.20498 -0.63476,2.20498 0,0 0.90203,-1.46999 0.90203,-2.03793 0,-0.56795 0.7684,-0.26727 0.86863,0.96885 0.10022,1.23612 0.10022,3.50791 0.10022,3.50791 0,0 0.16705,-2.90655 0.20046,-1.87089 0.0334,1.03567 0.10023,2.10475 0,2.6727 -0.10023,0.56795 -0.3675,1.1693 -0.3675,1.1693 0,0 0.7684,-1.33634 0.56795,-0.90203 -0.20045,0.43431 -0.26727,0.56795 -0.10022,2.67269 0.16704,2.10475 0.4009,4.67722 0.4009,3.94223 0,-0.73499 0.0334,-2.20497 0.13363,-1.20271 0.10023,1.00226 0,1.97111 0,3.00678 0,1.03567 0,2.23838 0,2.23838 0,0 0.26727,-2.77292 0.26727,-1.67043 0,1.10248 -0.26727,3.60813 -0.0668,4.44335 0.20046,0.83522 0.43432,2.03793 0.43432,2.03793 0,0 -0.13364,-1.73725 0,-0.96885 0.13363,0.7684 0.26727,1.70384 0.4009,2.37202 0.13364,0.66817 0.80181,1.36975 0.80181,1.36975 0,0 0.16704,-1.73725 0.30068,-0.56794 0.13363,1.1693 0.23386,1.33634 0.23386,1.33634 0,0 0.0334,-1.63702 0.23386,-1.26953 0.20045,0.3675 0.20045,0.66818 0.20045,0.66818 0,0 0.20046,-1.46999 0.33409,-1.16931 0.13364,0.30068 0.60136,1.10249 0.60136,1.10249 0,0 -0.0334,-1.1693 0.10022,-1.57021 0.13364,-0.4009 0.63477,0.96885 0.63477,0.96885 0,0 0,-0.80181 0,-1.67043 0,-0.86863 0.56795,-0.16705 0.56795,-0.16705 0,0 -0.16705,-0.10022 0.0334,-1.03566 0.20046,-0.93545 0.56795,-2.53906 0.70159,-2.10475 0.13363,0.43431 0.13363,1.20271 0.13363,1.20271 0,0 0.16704,-0.80181 0.4009,-1.97111 0.23387,-1.16931 0.20046,-2.20498 0.20046,-2.20498 0,0 0.20045,1.9043 0.23386,1.40317 0.0334,-0.50113 0.23386,-1.43657 0.23386,-2.23838 0,-0.80181 0.10022,-2.23838 0.16704,-1.9043 0.0668,0.33409 0.26727,1.46999 0.26727,1.46999 0,0 0.3675,-0.0668 0.20046,-1.46999 -0.16705,-1.40316 -0.26727,-1.83748 -0.66818,-3.04019 -0.4009,-1.20271 -0.63477,-2.83974 -0.50113,-3.87541 0.13364,-1.03567 0.26727,1.77066 0.26727,1.77066 0,0 0.10023,-0.50113 0.10023,-1.46998 0,-0.96885 -0.53454,-1.06908 -0.33409,-2.43883 0.20045,-1.36976 0.20045,-3.94223 0.33409,-2.73951 0.13363,1.20271 0.50113,2.37201 0.50113,2.37201 0,0 -0.30068,-1.67043 -0.30068,-2.47224 0,-0.80181 -0.0668,-2.50565 -0.13364,-3.14042 -0.0668,-0.63476 0.3675,0.0668 0.40091,0.80181 0.0334,0.73499 0,1.46998 0,1.46998 0,0 0.30068,-0.83521 0.30068,-1.46998 0,-0.63477 -1.06908,-3.90882 -0.7684,-3.70836 0.30067,0.20045 0.43431,1.46998 0.43431,1.46998 0,0 0.3675,-0.93545 -0.13364,-1.83748 -0.50113,-0.90204 -0.66817,-1.80407 -0.56794,-2.23838 0.10022,-0.43432 0.30067,-0.90204 0.30067,-0.90204 0,0 -0.83521,1.23612 -0.7684,0.7684 0.0668,-0.46772 -0.20045,-0.70158 -0.20045,-0.70158 0,0 -0.16704,0.7684 -0.53454,0.66818 -0.36749,-0.10023 -0.66817,-0.56795 -0.66817,-0.56795 0,0 -0.0668,1.33634 -0.13364,0.7684 -0.0668,-0.56795 -0.50112,-1.06908 -0.50112,-1.06908 0,0 -0.20046,0.53454 -0.40091,0.73499 -0.20045,0.20045 -0.30068,-0.53454 -0.30068,-0.53454 0,0 -0.16704,0.4009 -0.56795,0.50113 -0.4009,0.10023 -0.43431,-0.53454 -0.43431,-0.53454 0,0 -0.20045,1.60362 -0.33409,1.03567 -0.13363,-0.56795 -0.50113,-1.10249 -0.50113,-1.10249 0,0 0,0.53454 -0.46772,0.53454 -0.46772,0 -0.7684,-0.50113 -0.7684,-0.50113 0,0 0.0334,0.30068 -0.33408,0.66818 -0.3675,0.36749 0,-0.60136 0,-0.60136 0,0 -0.43432,0.53454 -0.735,0.66818 -0.30067,0.13363 -0.83521,-1.00227 -0.7684,-0.60136 0.0668,0.4009 0.0334,1.33635 -0.10022,1.13589 -0.13364,-0.20045 -0.56795,-1.63702 -0.60136,-1.23612 -0.0334,0.4009 -0.13363,0.63477 -0.13363,0.63477 z"
       id="path5148"
       inkscape:connector-curvature="0"
       transform="translate(0,-32.41665)" />
    <path
       style="fill:#cccccc;stroke:none;stroke-width:0.26458332px;stroke-linecap:butt;stroke-linejoin:miter;stroke-opacity:1"
       d="m 142.96949,193.33482 c 0.51972,1.70089 1.7009,3.49628 1.7009,3.49628 0,0 -1.55916,-1.41741 -1.7009,-3.49628 z"
       id="path5113"
       inkscape:connector-curvature="0" />
    <path
       style="fill:#cccccc;stroke:none;stroke-width:0.26458332px;stroke-linecap:butt;stroke-linejoin:miter;stroke-opacity:1"
       d="m 145.33184,197.44531 c 0.42523,1.74814 0.85045,3.40178 0.66146,4.20499 -0.18899,0.80319 -0.37798,1.22842 -0.37798,1.22842 0,0 0.56697,-2.36235 -0.28348,-5.43341 z"
       id="path5115"
       inkscape:connector-curvature="0" />
    <path
       style="fill:#cccccc;stroke:none;stroke-width:0.26458332px;stroke-linecap:butt;stroke-linejoin:miter;stroke-opacity:1"
       d="m 140.84338,196.97284 c 0.14174,2.83482 -0.0472,8.45722 0.28348,9.63839 0.33073,1.18118 1.37016,2.92932 1.37016,2.92932 0,0 -1.65364,-2.07887 -1.70089,-3.82701 -0.0472,-1.74814 0.0472,-8.7407 0.0472,-8.7407 z"
       id="path5117"
       inkscape:connector-curvature="0" />
    <path
       style="fill:#cccccc;stroke:none;stroke-width:0.26458332px;stroke-linecap:butt;stroke-linejoin:miter;stroke-opacity:1"
       d="m 144.62314,208.35937 c 0.42522,2.07887 0.89769,4.15774 0.89769,4.15774 0,0 -0.14174,-2.83482 -0.89769,-4.15774 z"
       id="path5119"
       inkscape:connector-curvature="0" />
    <path
       style="fill:#4d4d4d;stroke:none;stroke-width:0.26458332px;stroke-linecap:butt;stroke-linejoin:miter;stroke-opacity:1"
       d="m 119.20221,107.76294 c 1.46998,1.80406 4.00904,3.40768 4.00904,3.40768 0,0 -2.20497,-2.47224 -0.46772,-1.06907 1.73725,1.40316 3.00678,3.20723 4.00904,4.14267 1.00226,0.93545 2.93997,1.40317 3.20724,3.00678 0.26727,1.60362 4.6104,-7.21627 5.0113,-6.81537 0.4009,0.40091 -2.60588,5.94675 -3.40769,7.55037 -0.80181,1.60361 0,5.54584 0.33409,6.34765 0.33409,0.80181 0.26727,8.55262 1.33635,7.48354 1.06907,-1.06908 3.54132,-4.00904 2.80633,-5.94674 -0.73499,-1.93771 -2.40543,-3.8086 -2.07134,-5.21176 0.33408,-1.40316 3.00678,-2.93996 4.6104,-2.53906 1.60362,0.4009 6.88219,3.14042 8.01808,1.80407 1.1359,-1.33635 5.41221,-5.67948 7.01583,-6.88219 1.60362,-1.20271 1.33635,0.53454 3.40769,-0.53454 2.07133,-1.06908 11.02486,-5.07812 10.82441,-3.4745 -0.20045,1.60361 -4.07586,5.61266 -2.93996,4.94448 1.13589,-0.66817 6.61492,-6.28083 6.68173,-7.34991 0.0668,-1.06908 0.80181,-2.53906 0.20046,-2.07134 -0.60136,0.46772 -4.40995,2.6727 -5.41221,2.73952 -1.00226,0.0668 -1.06908,-0.20046 -1.40317,0.33408 -0.33408,0.53454 -2.47224,1.9377 -4.27631,2.53906 -1.80407,0.60136 -5.81311,1.87089 -5.27857,1.26953 0.53454,-0.60135 1.46998,-3.20723 2.87315,-4.07586 1.40316,-0.86862 3.80859,-2.73951 2.87314,-2.67269 -0.93544,0.0668 -0.20045,-0.20046 1.20272,-0.53454 1.40316,-0.33409 3.27405,-1.00226 3.27405,-1.26953 0,-0.26727 0.46772,-1.06908 -0.80181,-0.80181 -1.26953,0.26727 -3.0736,1.26953 -4.74403,0.73499 -1.67044,-0.53454 -3.74178,-4.209494 -5.27858,-4.209494 -1.5368,0 -4.6104,0.734991 -5.14494,1.670434 -0.53454,0.93544 -1.67043,5.27857 -2.73951,6.01356 -1.06908,0.73499 -9.35443,2.40543 -9.6217,1.60362 -0.26727,-0.80181 1.06908,-5.07812 0.46772,-5.07812 -0.60136,0 -2.87315,3.87541 -3.67496,4.67722 -0.80181,0.80181 -9.28761,2.00452 -14.90027,0.26727 z"
       id="path5151"
       inkscape:connector-curvature="0" />
    <path
       style="fill:#b3b3b3;stroke:none;stroke-width:0.26458332px;stroke-linecap:butt;stroke-linejoin:miter;stroke-opacity:1"
       d="m 162.43527,212.32812 c -1.98438,4.91369 -3.2128,7.9375 -1.7009,6.04762 1.51191,-1.88988 6.70908,-7.74851 8.59896,-11.24479 1.88988,-3.49628 3.30729,-6.70908 2.64583,-6.4256 -0.66145,0.28349 -3.1183,1.13393 -3.77976,2.45685 -0.66145,1.32292 -4.81919,5.76414 -5.76413,9.16592 z"
       id="path5158"
       inkscape:connector-curvature="0" />
    <path
       style="fill:#808080;stroke:none;stroke-width:0.26458332px;stroke-linecap:butt;stroke-linejoin:miter;stroke-opacity:1"
       d="m 116.84189,121.56659 c 0,1.15755 -0.33073,2.24423 -0.8032,2.69308 -0.47247,0.44885 -1.51191,0.89769 -0.61421,0.77958 0.89769,-0.11812 5.03181,-0.70871 4.96094,-1.03944 -0.0709,-0.33073 -2.29148,-2.008 -3.54353,-2.43322 z"
       id="path5129"
       inkscape:connector-curvature="0" />
    <path
       style="fill:#808080;stroke:none;stroke-width:0.26458332px;stroke-linecap:butt;stroke-linejoin:miter;stroke-opacity:1"
       d="m 107.13263,120.55078 c -0.28349,1.67727 -0.21262,2.83482 0.28348,3.44903 0.49609,0.61421 1.37016,1.08668 1.1103,1.08668 -0.25986,0 -1.67727,-0.18898 -2.74032,-0.89769 -1.06306,-0.7087 -2.43323,-1.37016 -2.17337,-1.63002 0.25986,-0.25986 2.4096,-1.93713 3.51991,-2.008 z"
       id="path5131"
       inkscape:connector-curvature="0" />
    <path
       style="fill:#e6e6e6;stroke:none;stroke-width:0.26458332px;stroke-linecap:butt;stroke-linejoin:miter;stroke-opacity:1"
       d="m 107.88858,120.73977 c -0.23624,0.25986 -0.18899,0.85044 0.49609,0.87407 0.68508,0.0236 1.37017,-1.22842 0.92132,-1.2048 -0.44885,0.0236 -1.25205,0.23623 -1.41741,0.33073 z"
       id="path5133"
       inkscape:connector-curvature="0" />
    <path
       style="fill:#4d4d4d;stroke:none;stroke-width:0.26458332px;stroke-linecap:butt;stroke-linejoin:miter;stroke-opacity:1"
       d="m 124.58101,120.09074 c 0.0334,-0.86862 -2.13816,-2.67269 -3.14042,-3.20723 -1.00226,-0.53454 -11.19191,-4.51018 -15.86913,-4.9779 -4.67721,-0.46772 -8.786484,-1.40316 -9.855562,-1.40316 -1.069078,0 -4.510172,6.9156 -4.109267,7.38332 0.400902,0.46772 6.481283,-0.56795 6.681737,0.23386 0.200451,0.80181 -2.80633,2.87315 -3.006783,3.60814 -0.200451,0.73499 5.144935,-3.27405 9.020345,-4.17609 3.87541,-0.90203 8.28536,-1.30294 11.35896,-0.7684 3.0736,0.53454 7.78422,3.57473 8.92012,3.30746 z"
       id="path5135"
       inkscape:connector-curvature="0" />
    <path
       style="fill:#4d4d4d;stroke:#000000;stroke-width:0.26458332px;stroke-linecap:butt;stroke-linejoin:miter;stroke-opacity:1"
       d="m 77.508163,186.94153 c -3.608139,4.67722 -5.879931,7.34991 -6.280836,10.28988 -0.400904,2.93997 -0.267269,9.2208 1.202714,19.91158 1.469983,10.69078 14.83346,29.53328 16.169807,31.27053 1.336347,1.73726 -0.133636,-2.40542 2.271791,0 2.405425,2.40543 4.009041,8.28536 4.276313,5.07812 0.267269,-3.20723 -2.939966,-3.74177 -7.750818,-14.16528 -4.81085,-10.42351 -12.561668,-22.04974 -12.561668,-32.74052 0,-10.69078 2.672697,-19.64431 2.672697,-19.64431 z"
       id="path5173"
       inkscape:connector-curvature="0" />
    <path
       style="fill:#4d4d4d;stroke:#000000;stroke-width:0.26458332px;stroke-linecap:butt;stroke-linejoin:miter;stroke-opacity:1"
       d="m 67.485555,202.84407 c -2.939965,7.75082 -4.409947,14.83346 -2.806329,22.31701 1.603616,7.48354 11.893492,20.84702 10.824414,22.04973 -1.069079,1.20271 -13.764379,-18.30796 -13.497111,-24.9897 0.267269,-6.68174 2.004521,-15.90254 5.479026,-19.37704 z"
       id="path5175"
       inkscape:connector-curvature="0" />
    <path
       style="fill:#4d4d4d;stroke:#000000;stroke-width:0.26458332px;stroke-linecap:butt;stroke-linejoin:miter;stroke-opacity:1"
       d="m 59.333836,221.15203 c -1.069078,5.34539 -1.202714,10.69078 0.801806,18.70887 2.004523,8.01809 11.626226,34.74503 12.962573,40.09044 1.336346,5.34537 -2.138157,15.63526 -2.138157,10.95803 0,-4.6772 -2.939965,-23.65335 -3.875407,-19.51066 -0.935442,4.14268 -0.133636,26.1924 -2.138156,22.04974 -2.004523,-4.14269 -8.018087,-28.59784 -11.49259,-35.27959 -3.474503,-6.68174 -6.147199,-4.94448 -6.414468,6.28083 -0.267269,11.22532 8.285355,33.14142 6.681737,33.14142 -1.603616,0 -3.474503,-12.96258 -4.81085,-8.15171 -1.336349,4.81084 -2.138156,6.41445 -3.474506,-6.28084 -1.336346,-12.69529 0,-30.06782 1.33635,-37.81863 1.336347,-7.75082 5.34539,-11.22533 3.741772,-10.42352 -1.603616,0.80181 -6.013564,3.87541 -8.68626,8.28536 -2.672694,4.40994 -6.1472,12.6953 -5.746295,9.75533 0.400904,-2.93996 8.285355,-14.69982 5.479026,-11.75985 -2.80633,2.93996 -6.1472,4.27631 -9.621703,12.42803 -3.474503,8.15172 -3.741774,21.38155 -5.746295,19.10978 -2.004521,-2.27179 -0.534539,-15.10074 2.539061,-20.04522 3.073599,-4.94449 12.962573,-12.69531 10.289876,-10.82442 -2.672694,1.87089 -21.381561,12.2944 -36.8831938,17.63979 -15.5016322,5.3454 -22.0497362,6.28084 -24.1878922,10.42352 -2.138156,4.14266 -1.469982,33.67596 -4.677215,33.80957 -3.207237,0.13364 -10.958052,-0.53454 -10.958052,-0.53454 0,0 1.870887,-19.37702 4.142679,-26.32604 2.271789,-6.94899 3.875407,-11.49257 6.681737,-13.22983 2.80633,-1.73726 20.3124838,-5.34539 25.3906046,-7.34992 5.0781209,-2.00452 14.2989194,-5.21175 20.1788494,-7.34991 5.879929,-2.13815 20.446119,-8.41899 24.856064,-10.28987 4.409948,-1.87089 6.1472,-3.20724 9.621705,-7.21628 3.474503,-4.00904 6.1472,-10.28988 6.1472,-10.28988 z"
       id="path5177"
       inkscape:connector-curvature="0" />
    <path
       style="fill:#4d4d4d;stroke:#000000;stroke-width:0.26458332px;stroke-linecap:butt;stroke-linejoin:miter;stroke-opacity:1"
       d="m 178.26877,195.62779 c 3.60814,10.02261 4.94449,16.16981 3.74178,24.9897 -1.20272,8.8199 -5.47903,22.98518 -7.34992,35.14595 -1.87088,12.16076 -7.34991,52.91937 -5.34539,48.24214 2.00452,-4.67722 11.35896,-44.09947 11.49259,-38.08589 0.13364,6.01355 -4.81085,28.73147 -3.20723,26.45968 1.60362,-2.27179 9.08716,-41.82769 8.95353,-47.30672 -0.13364,-5.47902 -2.13816,-17.90705 -0.40091,-17.50615 1.73726,0.4009 0,21.38156 1.33635,14.56619 1.33635,-6.81537 2.53906,-21.64883 1.60362,-28.0633 -0.93545,-6.41447 -6.68174,-16.70435 -5.61266,-13.49711 1.06908,3.20723 3.60814,13.36347 3.34087,17.63979 -0.26727,4.27631 -0.93544,5.74629 -2.13816,-2.93997 -1.20271,-8.68626 -3.74177,-16.43707 -6.41447,-19.64431 z"
       id="path5179"
       inkscape:connector-curvature="0" />
    <path
       style="fill:#4d4d4d;stroke:#000000;stroke-width:0.26458332px;stroke-linecap:butt;stroke-linejoin:miter;stroke-opacity:1"
       d="m 191.76588,210.32762 c 1.20272,6.68174 2.53906,14.56619 1.60362,22.98518 -0.93544,8.41899 -8.95353,33.00778 -10.15624,39.68952 -1.20271,6.68173 -3.20724,26.19243 -2.27179,26.99422 0.93544,0.80182 12.02713,-6.1472 15.50163,-21.78246 3.4745,-15.63527 3.60814,-26.86059 3.87541,-24.1879 0.26727,2.6727 -1.06908,24.1879 -3.34087,32.07235 -2.27179,7.88445 -3.87541,16.03616 -0.93544,13.63075 2.93996,-2.40543 9.6217,-27.79604 10.55714,-35.94776 0.93545,-8.15172 -3.20723,-22.98518 -5.61266,-30.60236 -2.40542,-7.61718 -8.28535,-22.98518 -9.2208,-22.85154 z"
       id="path5181"
       inkscape:connector-curvature="0" />
    <path
       style="fill:#4d4d4d;stroke:#000000;stroke-width:0.26458332px;stroke-linecap:butt;stroke-linejoin:miter;stroke-opacity:1"
       d="m 197.37855,222.88928 c 4.67721,7.08265 9.08716,6.81538 11.62622,14.43256 2.53906,7.61718 3.74177,25.79151 1.73725,34.74504 -2.00452,8.95353 -1.60362,15.50162 0.53454,13.76437 2.13816,-1.73725 4.94449,-27.12785 6.1472,-31.9387 1.20271,-4.81085 -4.27631,-16.43708 -0.40091,-13.36348 3.87541,3.0736 1.33635,5.87993 10.02261,6.94901 8.68626,1.06908 37.2841,5.34539 48.91032,10.15624 11.62622,4.81085 22.18338,9.35444 21.51521,7.61719 -0.66818,-1.73726 -18.84252,-9.62171 -31.00327,-14.43256 -12.16077,-4.81085 -26.86059,-7.61718 -32.74052,-10.82442 -5.87993,-3.20723 -18.4416,-7.08264 -24.05426,-9.75533 -5.61266,-2.6727 -10.55714,-4.54359 -12.29439,-7.34992 z"
       id="path5183"
       inkscape:connector-curvature="0" />
  </g>
</svg>
