<?xml version="1.0" encoding="UTF-8" standalone="no"?>
<!-- Created with Inkscape (http://www.inkscape.org/) -->

<svg
   xmlns:dc="http://purl.org/dc/elements/1.1/"
   xmlns:cc="http://creativecommons.org/ns#"
   xmlns:rdf="http://www.w3.org/1999/02/22-rdf-syntax-ns#"
   xmlns:svg="http://www.w3.org/2000/svg"
   xmlns="http://www.w3.org/2000/svg"
   xmlns:xlink="http://www.w3.org/1999/xlink"
   xmlns:sodipodi="http://sodipodi.sourceforge.net/DTD/sodipodi-0.dtd"
   xmlns:inkscape="http://www.inkscape.org/namespaces/inkscape"
   width="1280"
   height="720"
   viewBox="0 0 338.66666 190.50001"
   id="svg2"
   version="1.1"
   inkscape:version="0.91+devel r13925"
   sodipodi:docname="bwv1060r-mov1-video-thumbnail.svg"
   inkscape:export-filename="/Users/agarone/Documents/git/art/anthony-garone/bwv1060r-mov1/anthony-garone-bwv1060r-mov1.png"
   inkscape:export-xdpi="144"
   inkscape:export-ydpi="144">
  <defs
     id="defs4">
    <linearGradient
       id="linearGradient5609">
      <stop
         id="stop5611"
         offset="0"
         style="stop-color:#e8cb8e;stop-opacity:1;" />
      <stop
         id="stop5613"
         offset="1"
         style="stop-color:#d0b16e;stop-opacity:1;" />
    </linearGradient>
    <linearGradient
       y2="677.35883"
       x2="512.77142"
       y1="873.32843"
       x1="516.16608"
       gradientUnits="userSpaceOnUse"
       id="linearGradient5619"
       xlink:href="#linearGradient5609"
       inkscape:collect="always" />
  </defs>
  <sodipodi:namedview
     id="base"
     pagecolor="#ffffff"
     bordercolor="#666666"
     borderopacity="1.0"
     inkscape:pageopacity="0.0"
     inkscape:pageshadow="2"
     inkscape:zoom="0.98994949"
     inkscape:cx="651.14088"
     inkscape:cy="317.56339"
     inkscape:document-units="px"
     inkscape:current-layer="layer5"
     showgrid="false"
     units="px"
     inkscape:window-width="1920"
     inkscape:window-height="1151"
     inkscape:window-x="0"
     inkscape:window-y="1"
     inkscape:window-maximized="1" />
  <metadata
     id="metadata7">
    <rdf:RDF>
      <cc:Work
         rdf:about="">
        <dc:format>image/svg+xml</dc:format>
        <dc:type
           rdf:resource="http://purl.org/dc/dcmitype/StillImage" />
        <dc:title />
      </cc:Work>
    </rdf:RDF>
  </metadata>
  <g
     inkscape:label="Gray BG"
     inkscape:groupmode="layer"
     id="layer1"
     transform="translate(0,-106.49999)">
    <rect
       style="opacity:1;fill:#6c757b;fill-opacity:1;stroke:none;stroke-width:16.0535984;stroke-miterlimit:4;stroke-dasharray:none;stroke-opacity:1"
       id="rect4141"
       width="338.66669"
       height="190.5"
       x="1.4210855e-14"
       y="106.49999" />
  </g>
  <g
     inkscape:groupmode="layer"
     id="layer2"
     inkscape:label="Orange Banner">
    <rect
       style="opacity:1;fill:#de3d2d;fill-opacity:1;stroke:none;stroke-width:11.03082752;stroke-miterlimit:4;stroke-dasharray:none;stroke-opacity:1"
       id="rect4144"
       width="338.66669"
       height="43.65625"
       x="0"
       y="146.84375" />
  </g>
  <g
     inkscape:label="Blue Banner"
     id="g4203"
     inkscape:groupmode="layer">
    <rect
       y="146.84375"
       x="0"
       height="43.65625"
       width="338.66669"
       id="rect4205"
       style="opacity:1;fill:#f9a134;fill-opacity:1;stroke:none;stroke-width:11.03082752;stroke-miterlimit:4;stroke-dasharray:none;stroke-opacity:1" />
  </g>
  <g
     inkscape:groupmode="layer"
     id="layer3"
     inkscape:label="Discover"
     style="display:none">
    <text
       xml:space="preserve"
       style="font-style:normal;font-variant:normal;font-weight:normal;font-stretch:normal;font-size:20.26743698px;line-height:125%;font-family:Museo;-inkscape-font-specification:'Museo, Normal';text-align:start;letter-spacing:0px;word-spacing:0px;writing-mode:lr-tb;text-anchor:start;fill:#ffffff;fill-opacity:1;stroke:none;stroke-width:0.50668812px;stroke-linecap:butt;stroke-linejoin:miter;stroke-opacity:1"
       x="173.85484"
       y="40.767208"
       id="text4147"
       sodipodi:linespacing="125%"><tspan
         sodipodi:role="line"
         id="tspan4164"
         x="173.85484"
         y="40.767208">DISCOVER:</tspan></text>
  </g>
  <g
     inkscape:label="Interview"
     id="g4209"
     inkscape:groupmode="layer">
    <text
       sodipodi:linespacing="125%"
       id="text4211"
       y="40.767208"
       x="173.85484"
       style="font-style:normal;font-variant:normal;font-weight:normal;font-stretch:normal;font-size:20.26743698px;line-height:125%;font-family:Museo;-inkscape-font-specification:'Museo, Normal';text-align:start;letter-spacing:0px;word-spacing:0px;writing-mode:lr-tb;text-anchor:start;fill:#ffffff;fill-opacity:1;stroke:none;stroke-width:0.50668812px;stroke-linecap:butt;stroke-linejoin:miter;stroke-opacity:1"
       xml:space="preserve"><tspan
         id="tspan4213"
         sodipodi:role="line"
         x="173.85484"
         y="40.767208">SHARE:</tspan></text>
  </g>
  <g
     inkscape:groupmode="layer"
     id="layer4"
     inkscape:label="Artist Name">
    <text
       xml:space="preserve"
       style="font-style:normal;font-variant:normal;font-weight:600;font-stretch:normal;font-size:27.43383217px;line-height:100%;font-family:Museo;-inkscape-font-specification:'Museo, Semi-Bold';text-align:start;letter-spacing:0px;word-spacing:0px;writing-mode:lr-tb;text-anchor:start;fill:#ffffff;fill-opacity:1;stroke:none;stroke-width:0.68583983px;stroke-linecap:butt;stroke-linejoin:miter;stroke-opacity:1"
       x="174.30264"
       y="65.884079"
       id="text4158"
       sodipodi:linespacing="100%"><tspan
         sodipodi:role="line"
         x="174.30264"
         y="65.884079"
         style="font-style:normal;font-variant:normal;font-weight:600;font-stretch:normal;font-size:27.43383217px;line-height:100%;font-family:Museo;-inkscape-font-specification:'Museo, Semi-Bold';text-align:start;writing-mode:lr-tb;text-anchor:start;fill:#ffffff;fill-opacity:1;stroke-width:0.68583983px"
         id="tspan5021">J. S. Bach's</tspan><tspan
         sodipodi:role="line"
         x="174.30264"
         y="93.317909"
         style="font-style:normal;font-variant:normal;font-weight:600;font-stretch:normal;font-size:27.43383217px;line-height:100%;font-family:Museo;-inkscape-font-specification:'Museo, Semi-Bold';text-align:start;writing-mode:lr-tb;text-anchor:start;fill:#ffffff;fill-opacity:1;stroke-width:0.68583983px"
         id="tspan5023">BWV 1060R</tspan><tspan
         sodipodi:role="line"
         x="174.30264"
         y="120.75174"
         style="font-style:normal;font-variant:normal;font-weight:600;font-stretch:normal;font-size:27.43383217px;line-height:100%;font-family:Museo;-inkscape-font-specification:'Museo, Semi-Bold';text-align:start;writing-mode:lr-tb;text-anchor:start;fill:#ffffff;fill-opacity:1;stroke-width:0.68583983px"
         id="tspan4202">Mov. 1</tspan></text>
  </g>
  <g
     inkscape:groupmode="layer"
     id="layer6"
     inkscape:label="WEIRD">
    <path
       style="opacity:1;fill:#ffffff;fill-opacity:1;stroke:none;stroke-width:17.2258606;stroke-miterlimit:4;stroke-dasharray:none;stroke-opacity:1"
       d="M 245.3457 602.625 L 245.3457 672.625 L 495.3457 672.625 L 495.3457 602.625 L 245.3457 602.625 z M 254.20703 613.5 L 258.08398 613.5 C 261.48345 613.5 263.18217 614.17987 263.99805 617.44336 L 271.4082 648.31055 C 272.02011 650.89414 272.36133 653.41016 272.36133 653.41016 L 272.49609 653.41016 C 272.49609 653.41016 272.90446 650.96213 273.65234 648.31055 L 283.30664 613.63477 L 289.42578 613.63477 L 298.40039 648.31055 C 299.08028 650.96213 299.41992 653.41016 299.41992 653.41016 L 299.55664 653.41016 C 299.55664 653.41016 299.8295 650.89414 300.44141 648.31055 L 307.98828 617.44336 C 308.80415 614.17987 310.43452 613.5 313.83398 613.5 L 317.70898 613.5 L 317.70898 619.3457 L 316.68945 619.3457 C 315.46565 619.3457 314.71885 619.61799 314.37891 620.8418 L 303.83984 661.5 L 295.95312 661.5 L 287.79492 631.17773 C 286.97905 628.05022 286.43555 624.58203 286.43555 624.58203 L 286.29883 624.58203 C 286.29883 624.58203 285.61824 628.04985 284.73438 631.10938 L 276.0332 661.5 L 268.07812 661.5 L 257.53906 620.8418 C 257.19912 619.61799 256.45232 619.3457 255.22852 619.3457 L 254.20703 619.3457 L 254.20703 613.5 z M 326.5 613.5 L 354.7168 613.5 C 357.77632 613.5 359.06641 614.79204 359.06641 617.85156 L 359.06641 623.90234 L 352.88086 623.90234 L 352.88086 620.8418 C 352.88086 619.82196 352.33662 619.3457 351.38477 619.3457 L 337.71875 619.3457 L 337.71875 634.37305 L 354.51172 634.37305 L 354.51172 640.21875 L 337.71875 640.21875 L 337.71875 654.15625 C 337.71875 655.1081 338.26299 655.65234 339.21484 655.65234 L 353.2207 655.65234 C 354.17255 655.65234 354.7168 655.1081 354.7168 654.15625 L 354.7168 651.09766 L 360.9707 651.09766 L 360.9707 657.14844 C 360.9707 660.20796 359.67866 661.5 356.61914 661.5 L 335.27148 661.5 C 332.21196 661.5 330.91992 660.20796 330.91992 657.14844 L 330.91992 619.3457 L 326.5 619.3457 L 326.5 613.5 z M 370.41406 613.5 L 386.25586 613.5 L 386.25586 619.3457 L 381.56445 619.3457 L 381.56445 655.65234 L 386.25586 655.65234 L 386.25586 661.5 L 370.41406 661.5 L 370.41406 655.65234 L 375.10547 655.65234 L 375.10547 619.3457 L 370.41406 619.3457 L 370.41406 613.5 z M 396.6543 613.5 L 417.5957 613.5 C 426.02638 613.5 431.94141 618.80359 431.94141 627.57422 C 431.94141 635.59696 426.70611 639.53923 423.30664 640.28711 L 423.30664 640.42383 C 423.30664 640.42383 424.52983 641.03585 425.3457 642.59961 L 431.125 654.08984 C 431.80489 655.51762 432.89365 655.65234 434.52539 655.65234 L 435.4082 655.65234 L 435.4082 661.5 L 432.07812 661.5 C 428.33871 661.5 426.97782 661.02399 425.41406 657.89648 L 418.88672 644.97852 C 417.66291 642.73487 416.78049 642.39453 414.12891 642.39453 L 407.87305 642.39453 L 407.87305 661.5 L 401.07422 661.5 L 401.07422 619.3457 L 396.6543 619.3457 L 396.6543 613.5 z M 443.75 613.5 L 463.19531 613.5 C 477.81302 613.5 487.4668 622.27002 487.4668 637.43164 C 487.4668 652.66125 477.81302 661.5 463.19531 661.5 L 452.51953 661.5 C 449.46001 661.5 448.16992 660.20796 448.16992 657.14844 L 448.16992 619.3457 L 443.75 619.3457 L 443.75 613.5 z M 407.87305 619.3457 L 407.87305 636.54883 L 416.71094 636.54883 C 421.87813 636.54883 424.9375 633.21686 424.9375 627.8457 C 424.9375 622.47455 421.87887 619.3457 416.84766 619.3457 L 407.87305 619.3457 z M 454.96875 619.3457 L 454.96875 654.15625 C 454.96875 655.1081 455.51299 655.65234 456.46484 655.65234 L 462.71875 655.65234 C 473.39308 655.65234 480.39648 649.26179 480.39648 637.43164 C 480.39648 625.66949 473.32509 619.3457 462.71875 619.3457 L 454.96875 619.3457 z "
       transform="scale(0.26458334)"
       id="rect4172" />
  </g>
  <g
     inkscape:groupmode="layer"
     id="layer7"
     inkscape:label="MAKE">
    <text
       xml:space="preserve"
       style="font-style:normal;font-variant:normal;font-weight:normal;font-stretch:normal;font-size:17.99166679px;line-height:100%;font-family:Museo;-inkscape-font-specification:'Museo, Normal';text-align:start;letter-spacing:0px;word-spacing:0px;writing-mode:lr-tb;text-anchor:start;fill:#ffffff;fill-opacity:1;stroke:none;stroke-width:0.26458335px;stroke-linecap:butt;stroke-linejoin:miter;stroke-opacity:1"
       x="10.690782"
       y="175.02188"
       id="text4175"
       sodipodi:linespacing="100%"><tspan
         sodipodi:role="line"
         id="tspan4177"
         x="10.690782"
         y="175.02188"
         style="font-style:normal;font-variant:normal;font-weight:normal;font-stretch:normal;font-size:17.99166679px;line-height:100%;font-family:Museo;-inkscape-font-specification:'Museo, Normal';text-align:start;writing-mode:lr-tb;text-anchor:start;fill:#ffffff;fill-opacity:1;stroke-width:0.26458335px;letter-spacing:1.32291669px">MAKE</tspan></text>
  </g>
  <g
     inkscape:groupmode="layer"
     id="layer8"
     inkscape:label="MUSIC">
    <text
       xml:space="preserve"
       style="font-style:normal;font-variant:normal;font-weight:normal;font-stretch:normal;font-size:17.99166679px;line-height:100%;font-family:Museo;-inkscape-font-specification:'Museo, Normal';text-align:start;letter-spacing:0px;word-spacing:0px;writing-mode:lr-tb;text-anchor:start;fill:#ffffff;fill-opacity:1;stroke:none;stroke-width:0.26458335px;stroke-linecap:butt;stroke-linejoin:miter;stroke-opacity:1"
       x="134.21758"
       y="174.80598"
       id="text4180"
       sodipodi:linespacing="100%"><tspan
         sodipodi:role="line"
         id="tspan4182"
         x="134.21758"
         y="174.80598"
         style="font-style:normal;font-variant:normal;font-weight:normal;font-stretch:normal;font-size:17.99166679px;line-height:100%;font-family:Museo;-inkscape-font-specification:'Museo, Normal';text-align:start;writing-mode:lr-tb;text-anchor:start;fill:#ffffff;fill-opacity:1;stroke-width:0.26458335px">MUSIC</tspan></text>
  </g>
  <g
     inkscape:groupmode="layer"
     id="layer5"
     inkscape:label="ATG">
    <g
       id="g4932"
       transform="matrix(0.15745825,0,0,0.15745825,0,-10.614493)">
      <g
         inkscape:label="Shirt"
         id="layer16">
        <path
           sodipodi:nodetypes="csssssscccssssc"
           inkscape:connector-curvature="0"
           id="path5630"
           d="m 367.14286,702.14286 c 0,0 -88.57143,17.14285 -104.28572,30 -15.71428,12.85714 -20.71428,32.14285 -29.28571,32.14285 -8.57143,0 -25,-2.85714 -35.71429,2.14286 -10.71428,5 -12.85714,10.71429 -21.42857,12.85714 -8.57143,2.14286 -58.57143,9.28572 -77.857141,23.57143 C 79.285714,817.14286 77.142857,830 60.714286,841.42857 44.285714,852.85714 0,877.14285 0,877.14285 L 0,1000 l 980.71428,0 c 0,0 -42.85714,-130.71429 -55.71428,-145.71429 -12.85714,-15 -40,-52.14285 -69.28571,-61.42857 C 826.42857,783.57143 780.71429,771.42857 755,760 729.28572,748.57143 633.57143,710.71429 614.28571,711.42857 595,712.14286 367.14286,702.14286 367.14286,702.14286 Z"
           style="fill:#4e8bff;fill-opacity:1;stroke:none" />
      </g>
      <g
         style="display:inline"
         inkscape:label="Neck"
         id="layer2-9">
        <path
           inkscape:connector-curvature="0"
           id="path5546"
           d="m 361.07143,655.35714 c 0,0 -2.85714,48.57143 -2.85714,51.42857 0,2.85715 -4.28572,41.78572 9.28571,65 C 381.07143,795 439.64286,876.78571 530.35714,885 621.07143,893.21429 665,881.07143 664.28572,812.5 c -0.71429,-68.57143 -21.07143,-41.42857 -20,-64.28571 1.07142,-22.85715 8.21428,-53.92858 7.85714,-65 -0.35714,-11.07143 -291.07143,-27.85715 -291.07143,-27.85715 z"
           style="fill:url(#linearGradient5619);fill-opacity:1;stroke:none;stroke-width:1px;stroke-linecap:butt;stroke-linejoin:miter;stroke-opacity:1" />
      </g>
      <g
         style="display:inline"
         inkscape:label="Head"
         id="layer3-2">
        <path
           sodipodi:nodetypes="csscssssssssscssscsc"
           inkscape:connector-curvature="0"
           id="path5549"
           d="m 514.87745,783.06635 c 35,2.14286 90.83684,-25.20921 123.69398,-70.92349 32.85714,-45.71429 65.00525,-99.37763 66.96954,-125.62763 1.96429,-26.25 2.41334,-27.58666 2.41334,-27.58666 0,0 7.93855,7.85714 12.58141,-20.53571 C 725.17857,510 737.14286,467.85714 735.71429,451.42857 734.28572,435 734.28572,392.85714 736.25,380.71428 c 1.96429,-12.14285 1.42857,-105.35714 -7.14286,-125.35714 -8.57142,-20 -47.5,-76.25 -75.53571,-95.53571 -28.03571,-19.28572 -75.17857,-45.35715 -121.96429,-46.78572 -46.78571,-1.42857 -121.25,28.39286 -143.21428,45.89286 -21.96429,17.5 -75.71429,84.46429 -85.53572,115.35714 -9.82143,30.89286 -11.07143,91.25 -8.39285,106.25 2.67857,15 8.39286,48.75 8.39286,48.75 0,0 -14.28572,-2.14285 -15.71429,12.32143 -1.42857,14.46429 8.21428,47.5 8.21428,57.32143 0,9.82143 5.53572,26.60714 5.17857,44.10714 -0.35714,17.5 19.13253,19.28572 19.13253,19.28572 0,0 7.99591,46.53556 15.74493,63.03571 9.82143,20.91298 98.03571,158.06635 179.46428,157.70921 z"
           style="fill:#e8cb8e;fill-opacity:1;stroke:none" />
      </g>
      <g
         style="opacity:0.35833333"
         inkscape:label="Nose"
         id="layer11">
        <path
           inkscape:connector-curvature="0"
           id="path5594"
           d="m 453.55849,519.925 c 0,0 -49.75001,43.94164 -55.30585,55.55839 -5.55584,11.61676 -6.56599,27.7792 -6.56599,27.7792 0,0 -3.78807,-21.71828 4.04061,-31.06219 7.82868,-9.34391 57.83123,-52.2754 57.83123,-52.2754 z"
           style="fill:#000000;fill-opacity:1;stroke:none;stroke-width:1px;stroke-linecap:butt;stroke-linejoin:miter;stroke-opacity:1" />
        <path
           inkscape:connector-curvature="0"
           id="path5592"
           d="m 474.51916,511.84378 c 0,0 -12.12183,6.06092 -13.38452,14.64721 -1.26269,8.5863 1.76776,22.22336 12.12183,23.73859 10.35406,1.51523 -2.02031,-4.29315 2.0203,-4.79823 4.04061,-0.50507 21.21321,-1.01015 25.75889,5.3033 4.54569,6.31346 12.12183,9.59645 16.92006,10.10153 4.79822,0.50508 16.66752,-1.51523 17.42513,-4.54569 0.75761,-3.03045 21.97082,-11.36421 25.25381,-7.3236 3.283,4.04061 0,5.80838 0,5.80838 0,0 14.14214,1.01015 16.16244,-2.02031 2.02031,-3.03046 -1.01015,-8.83883 -8.83883,-10.6066 -7.82868,-1.76777 -25.50635,0.75761 -28.03173,4.04061 -2.52539,3.28299 -3.78808,5.05076 -5.05077,7.3236 -1.26269,2.27285 -4.54568,5.05077 -10.6066,4.79823 -6.06091,-0.25254 -15.15229,0 -17.42513,-4.54569 -2.27284,-4.54568 -4.29315,-13.38452 -15.65736,-13.63706 -11.36422,-0.25253 -19.1929,0.75762 -19.69798,2.77792 -0.50508,2.02031 -19.1929,-5.55584 3.03046,-31.06219 z"
           style="display:inline;opacity:1;fill:#000000;fill-opacity:1;stroke:none;stroke-width:1px;stroke-linecap:butt;stroke-linejoin:miter;stroke-opacity:1" />
      </g>
      <g
         style="display:inline"
         inkscape:label="Eyes"
         id="layer4-6">
        <path
           sodipodi:nodetypes="ccsssc"
           inkscape:connector-curvature="0"
           id="path5552"
           d="m 397.14286,433.57143 c 4.04882,4.01218 -0.53153,5.10972 33.92857,9.64285 19.64286,0.71429 43.21429,-3.92857 42.85714,-5.35714 -0.35714,-1.42857 -6.78571,-1.78571 -9.64285,-4.28571 -2.85715,-2.5 -9.64286,-17.5 -32.85715,-19.64286 -23.21428,-2.14286 -34.28571,19.64286 -34.28571,19.64286 z"
           style="fill:#ffffff;fill-opacity:1;stroke:none" />
        <path
           inkscape:connector-curvature="0"
           id="path5554"
           d="m 650.35714,438.21428 c 0,0 -5,-26.78571 -34.28571,-26.42857 -29.28571,0.35715 -36.42857,20 -40,22.85715 -3.57143,2.85714 -7.5,2.85714 -5.35714,4.28571 2.14285,1.42857 30,6.78571 43.21428,6.42857 13.21429,-0.35714 30.71429,-3.92857 36.42857,-7.14286 z"
           style="fill:#ffffff;fill-opacity:1;stroke:none" />
      </g>
      <g
         inkscape:label="Irises"
         id="layer5-4">
        <path
           id="path5557"
           d="m 432.15625,419 c -8.84265,0 -16.03125,7.15735 -16.03125,16 0,2.23533 0.45384,4.34865 1.28125,6.28125 3.71364,0.57619 8.13307,1.21094 13.65625,1.9375 4.90052,0.1782 10.04301,0.0118 15,-0.34375 1.32145,-2.32879 2.09375,-5.00612 2.09375,-7.875 0,-8.84265 -7.15735,-16 -16,-16 z"
           style="fill:#1c6c25;fill-opacity:1;fill-rule:evenodd;stroke:none;stroke-width:1px;stroke-linecap:butt;stroke-linejoin:miter;stroke-opacity:1"
           inkscape:connector-curvature="0" />
        <path
           id="path5563"
           d="m 612.5,419.34375 c -8.84265,0 -16,7.15735 -16,16 0,3.3564 1.01616,6.48898 2.78125,9.0625 5.46521,0.65225 10.72193,1.04383 14.65625,0.9375 3.71591,-0.10043 7.77616,-0.43939 11.8125,-0.96875 1.74996,-2.56649 2.75,-5.6906 2.75,-9.03125 0,-8.84265 -7.15735,-16 -16,-16 z"
           style="fill:#1c6c25;fill-opacity:1;stroke:none;stroke-width:1px;stroke-linecap:butt;stroke-linejoin:miter;stroke-opacity:1"
           inkscape:connector-curvature="0" />
      </g>
      <g
         inkscape:label="Pupils"
         id="layer6-9">
        <circle
           transform="translate(-2,-1)"
           id="path5566"
           style="fill:#000000;fill-opacity:1;fill-rule:evenodd;stroke:none"
           cx="433.57144"
           cy="435.35715"
           r="6.4285712" />
        <circle
           style="fill:#000000;fill-opacity:1;fill-rule:evenodd;stroke:none"
           id="path5568"
           transform="translate(179)"
           cx="433.57144"
           cy="435.35715"
           r="6.4285712" />
      </g>
      <g
         inkscape:label="Brows"
         id="layer7-9">
        <path
           inkscape:connector-curvature="0"
           id="path5573"
           d="m 396.07143,366.78571 c 10.71428,-1.07143 62.85714,8.57143 72.14286,12.5 9.28571,3.92857 18.57143,20 15,23.57143 -3.57143,3.57143 -13.21429,6.07143 -20,3.21429 -6.78572,-2.85715 -25.35715,-16.78572 -49.28572,-16.78572 -23.92857,0 -24.28571,-0.71428 -31.78571,5.35715 -7.5,6.07142 -13.92857,15.35714 -21.42857,16.78571 -7.5,1.42857 -5,-16.07143 0.35714,-22.14286 5.35714,-6.07143 20.71428,-22.85714 35,-22.5 z"
           style="fill:#3c2b18;fill-opacity:1;stroke:none;stroke-width:1px;stroke-linecap:butt;stroke-linejoin:miter;stroke-opacity:1" />
        <path
           inkscape:connector-curvature="0"
           id="path5575"
           d="M 650.71429,366.07143 C 658.57143,366.78571 672.5,377.5 676.78572,382.14286 681.07143,386.78571 689.28572,405 687.85714,407.5 686.42857,410 676.78572,403.57143 665,397.14286 653.21429,390.71428 652.85714,387.5 633.92857,387.85714 615,388.21428 594.28572,404.28571 583.21429,406.07143 c -11.07143,1.78571 -17.14286,-3.57143 -17.14286,-5.35715 0,-1.78571 8.21429,-22.85714 21.42857,-27.14285 13.21429,-4.28572 47.14286,-10 63.21429,-7.5 z"
           style="fill:#3c2b18;fill-opacity:1;stroke:none;stroke-width:1px;stroke-linecap:butt;stroke-linejoin:miter;stroke-opacity:1" />
      </g>
      <g
         inkscape:label="Hair"
         id="layer8-9">
        <path
           inkscape:connector-curvature="0"
           id="path5578"
           d="m 314.28571,469.28571 c 3.57143,2.5 5,6.78572 5.71429,-0.71428 0.71429,-7.5 -5.71429,-67.85715 0.35714,-77.85715 6.07143,-10 13.57143,-20 15.71429,-30.71428 2.14286,-10.71429 -1.78572,-73.57143 4.28571,-83.92857 6.07143,-10.35715 20.35715,-53.92857 51.78572,-58.92857 31.42857,-5 89.64286,-8.57143 96.78571,-6.07143 7.14286,2.5 17.14286,7.14285 22.5,6.42857 5.35715,-0.71429 29.28572,-20 41.42857,-21.78572 12.14286,-1.78571 65.35715,-7.85714 85,3.21429 19.64286,11.07143 48.21429,43.21429 51.42858,62.85714 3.21428,19.64286 0.35714,70 4.28571,81.78572 3.92857,11.78571 18.57143,43.21428 19.28571,59.64285 0.71429,16.42858 -2.14285,68.57143 0,71.78572 2.14286,3.21428 8.21429,-6.07143 9.28572,-10.71429 1.07143,-4.64285 7.85714,-59.64285 10.71428,-68.57143 2.85715,-8.92857 11.07143,-84.28571 12.14286,-97.85714 1.07143,-13.57143 -28.21428,-81.42857 -38.57143,-90.71428 -10.35714,-9.28572 7.14286,-1.78572 7.14286,-1.78572 0,0 -31.42857,-38.21428 -52.5,-48.57143 -21.07143,-10.35714 2.85714,-3.92857 2.85714,-3.92857 0,0 -83.21428,-39.64286 -97.14285,-41.78571 -13.92858,-2.14286 -23.21429,0.35714 -29.64286,-0.35715 -6.42857,-0.71428 -25,-6.42857 -45,-2.5 -20,3.92858 -80.35715,18.57143 -86.07143,27.14286 -5.71429,8.57143 -11.78572,-2.85714 -11.78572,-2.85714 0,0 4.64286,10 -3.57142,13.21428 C 382.5,148.92857 364.28571,170 359.64286,170.35714 c -4.64286,0.35714 -15,-3.92857 -15,-3.92857 0,0 13.57143,5 12.85714,7.5 -0.71429,2.5 -16.78571,3.21429 -16.78571,3.21429 0,0 11.78571,0.71428 11.07142,3.57142 -0.71428,2.85715 -22.14285,28.57143 -27.85714,30.71429 -5.71428,2.14286 -17.14286,5.71429 -17.14286,5.71429 0,0 13.21429,-3.57143 12.85715,0.71428 -0.35715,4.28572 -23.21429,40 -25,53.92857 -1.78572,13.92857 -11.42857,76.42857 -6.07143,103.21429 5.35714,26.78571 17.14286,72.14286 25.71428,94.28571 z"
           style="fill:#3c2b18;fill-opacity:1;stroke:none;stroke-width:1px;stroke-linecap:butt;stroke-linejoin:miter;stroke-opacity:1" />
      </g>
      <g
         style="display:inline"
         inkscape:label="Glasses"
         id="layer9">
        <path
           inkscape:connector-curvature="0"
           id="path5581"
           d="M 296.0625,402.5 305,433.5625 c 0,0 33.92857,16.0759 40,25.71875 6.07143,9.64286 8.22322,27.51785 11.4375,32.875 3.21429,5.35714 31.78572,7.83929 60,9.625 28.21429,1.78572 68.57143,-5.71428 75,-10 6.42857,-4.28571 16.78125,-37.84821 21.78125,-48.5625 5,-10.71428 21.79464,-6.42411 26.4375,-1.78125 4.64286,4.64286 19.97322,48.5625 23.1875,51.0625 3.21429,2.5 52.52678,4.28125 66.8125,4.28125 14.28571,0 57.48214,-8.20982 64.625,-11.78125 7.14285,-3.57143 11.78571,-39.27233 15,-42.84375 C 712.49553,438.58482 726.0625,437.5 726.0625,437.5 l 5,-32.5 c 0,0 -30.70536,3.21428 -43.5625,0 -12.85714,-3.21429 -87.12947,-3.20982 -102.84375,0.71875 -4.95418,1.23855 -11.8178,2.65036 -19.03125,4.03125 -42.67332,6.27757 -56.39842,6.06278 -65.28125,4.53125 -10.35714,-1.78571 -62.13392,-7.50447 -81.0625,-8.21875 C 400.35268,405.34821 337.5,416.79018 332.5,415.71875 327.5,414.64733 296.0625,402.5 296.0625,402.5 Z m 329.28125,7.84375 c 0,0 57.5,-0.33482 65,3.59375 7.5,3.92857 11.09821,13.19197 9.3125,31.40625 -1.78572,18.21429 -4.64732,31.07589 -8.21875,33.21875 -3.57143,2.14285 -21.79018,12.14285 -63.21875,12.5 C 586.79018,491.41964 572.85714,489.64286 570,487.5 c -2.85714,-2.14286 -18.92411,-26.08036 -19.28125,-38.9375 -0.35715,-12.85715 -2.14286,-20.34822 0,-23.5625 2.14285,-3.21429 19.625,-14.65625 74.625,-14.65625 z M 560.25,410.75 c -14.10415,2.59827 -28.41718,4.87922 -32.75,5.3125 l 32.75,-5.3125 z m -142.4375,3.09375 c 3.50194,-0.0126 7.21875,0.0268 11.125,0.0937 0,0 58.56696,4.28125 66.78125,9.28125 8.21428,5 9.64732,13.56696 5.71875,26.78125 -3.92857,13.21428 -14.65625,36.07143 -17.15625,37.5 -2.5,1.42857 -43.55803,8.20089 -62.84375,7.84375 -19.28571,-0.35714 -52.875,-1.78571 -57.875,-7.5 -5,-5.71428 -11.07589,-12.83036 -10.71875,-30.6875 0.35715,-17.85715 -1.41964,-28.22321 1.4375,-31.4375 2.67858,-3.01339 11.00222,-11.68666 63.53125,-11.875 z"
           style="fill:#2a2a2a;fill-opacity:1;stroke:none" />
      </g>
      <g
         inkscape:label="Lenses"
         id="layer10" />
      <g
         style="display:inline;opacity:0.675"
         inkscape:label="Beard"
         id="layer12">
        <path
           id="path5603"
           d="m 315.6875,467.65625 c 0,0 3.53283,112.61453 9.59375,132.3125 6.06092,19.69798 31.30869,71.22081 56.5625,99 25.25382,27.7792 84.33961,82.31836 128.28125,84.84375 43.94163,2.52538 101.5287,-21.21397 151.53125,-102.53125 50.00255,-81.31728 41.90197,-78.77078 45.4375,-98.46875 3.53554,-19.69798 8.09375,-107.59375 8.09375,-107.59375 0,0 -5.56996,86.38404 -14.15625,101.03125 -8.5863,14.64721 -28.7887,58.08201 -37.375,53.03125 -8.58629,-5.05077 -3.00824,-42.94416 -14.625,-48.5 C 637.4145,575.22541 562.64721,560.56837 548,563.09375 c -14.64722,2.52539 -15.14926,9.09375 -28.28125,9.09375 -13.13198,0 -20.70161,-13.63007 -34.84375,-13.125 -14.14213,0.50508 -79.79806,12.61722 -84.34375,22.71875 -4.54568,10.10152 3.53395,53.03711 -6.0625,55.5625 -9.59645,2.52538 -38.90862,-17.17037 -48,-31.3125 -9.09137,-14.14214 -27.75079,-106.5552 -30.78125,-138.375 z m 197,124.65625 c 0.65194,0.003 1.33709,0.0306 2,0.0937 4.54569,0 19.67544,11.09962 33.3125,13.625 13.63706,2.52538 64.67227,1.01681 66.1875,5.5625 1.51523,4.54568 14.63785,29.30123 4.03125,45.96875 -10.6066,16.66751 -30.30901,52.03045 -36.875,49 -6.56599,-3.03046 7.07186,-40.9164 3.03125,-39.90625 -4.04061,1.01015 -24.75285,19.67655 -55.5625,17.65625 -30.80965,-2.02031 -73.2289,-27.25936 -72.21875,-23.21875 1.01015,4.04061 1.51364,33.34803 -6.0625,29.8125 -7.57615,-3.53553 -32.3125,-20.73287 -32.3125,-34.875 0,-14.14214 -6.09137,-46.97462 3,-49.5 9.09137,-2.52538 51.54457,-2.00079 62.65625,-5.03125 10.4172,-2.84106 19.03343,-9.23189 28.8125,-9.1875 z"
           style="fill:#593f20;fill-opacity:1;stroke:none"
           inkscape:connector-curvature="0" />
      </g>
      <g
         inkscape:label="Unbeard"
         id="layer13" />
      <g
         style="display:inline"
         inkscape:label="Mouth"
         id="layer14">
        <path
           sodipodi:nodetypes="cssscsssc"
           inkscape:connector-curvature="0"
           id="path5622"
           d="m 428.80976,612.35396 c 2.52538,-3.03046 11.11167,-5.55584 23.99112,-2.77792 12.87944,2.77792 61.11423,9.34391 67.93276,9.34391 6.81853,0 73.35861,-4.50236 76.38907,-4.50236 3.03046,0 8.41298,0.93619 8.41298,0.93619 0,0 -15.85914,8.86947 -22.17259,14.17277 -6.31346,5.3033 -25.50636,25.75889 -61.11423,25.50636 -35.60788,-0.25254 -53.79063,-11.36422 -65.65992,-20.45559 -11.86929,-9.09138 -19.44544,-21.97082 -27.77919,-22.22336 z"
           style="fill:#b79797;fill-opacity:1;stroke:none" />
      </g>
      <g
         inkscape:label="Teeth"
         id="layer15">
        <path
           sodipodi:nodetypes="cscscscscscscscscscscsscsscscsc"
           inkscape:connector-curvature="0"
           id="path5625"
           d="m 457.14286,625.89286 c 0,0 -3.03572,-7.32143 -1.78572,-9.28572 1.25,-1.96428 11.07143,2.85714 11.07143,2.85714 0,0 -0.89285,-7.85714 4.28572,-6.07142 5.17857,1.78571 10.35714,6.96428 10.35714,6.96428 0,0 -0.35714,-5.89286 3.92857,-5.71429 4.28572,0.17857 12.14286,6.07143 12.14286,6.07143 0,0 3.03571,-4.64285 9.82143,-3.21428 6.78571,1.42857 14.46428,5.53571 14.46428,5.53571 0,0 10.71429,-6.07143 16.07143,-4.46428 5.35714,1.60714 8.03572,3.03571 8.03572,3.03571 0,0 7.67857,-5.71428 11.78571,-5.35714 4.10714,0.35714 4.82143,4.46428 4.82143,4.46428 0,0 6.07143,-5.17857 9.10714,-4.64285 3.03572,0.53571 4.46429,4.82143 4.46429,4.82143 0,0 2.67857,-3.57143 4.82143,-3.03572 2.14285,0.53572 -0.17858,13.21429 -0.17858,13.21429 0,0 -9.82142,9.10714 -12.67857,9.10714 -2.85714,0 -6.1327,-1.18129 -6.1327,-1.18129 0,0 -3.68873,2.78843 -8.8673,1.717 -5.17857,-1.07142 -5.5843,-1.29858 -5.5843,-1.29858 0,0 -0.84427,2.01287 -5.48713,2.90573 -4.64285,0.89285 -16.07142,0.35714 -17.32142,-1.07143 -1.25,-1.42857 -3.92858,-1.65573 -3.92858,-1.65573 0,0 -2.14285,1.47716 -3.03571,2.01287 -0.89286,0.53572 -13.21429,0.71429 -15.35714,-0.89286 -2.14286,-1.60714 -4.64286,-2.1608 -4.64286,-2.1608 0,0 0.35714,1.26795 -4.46429,0.55366 -4.82142,-0.71428 -9.3343,-2.32668 -9.3343,-2.32668 0,0 -2.62998,1.43382 -5.48712,1.43382 -2.85715,0 -12.5,1.07143 -20.89286,-12.32142 z"
           style="fill:#e9e1e1;fill-opacity:1;stroke:none" />
        <path
           sodipodi:nodetypes="cscsc"
           inkscape:connector-curvature="0"
           id="path5627"
           d="m 470.98363,639.37554 c 0,0 34.97653,6.43972 50.25508,5.68211 15.27856,-0.75762 46.59329,-4.29315 46.59329,-4.29315 0,0 -22.09709,13.63706 -44.69925,13.25825 -22.60216,-0.37881 -41.03745,-2.27284 -52.14912,-14.64721 z"
           style="fill:#e9e1e1;fill-opacity:1;stroke:none" />
      </g>
    </g>
  </g>
</svg>
