<?xml version="1.0" encoding="UTF-8" standalone="no"?>
<!-- Created with Inkscape (http://www.inkscape.org/) -->

<svg
   xmlns:dc="http://purl.org/dc/elements/1.1/"
   xmlns:cc="http://creativecommons.org/ns#"
   xmlns:rdf="http://www.w3.org/1999/02/22-rdf-syntax-ns#"
   xmlns:svg="http://www.w3.org/2000/svg"
   xmlns="http://www.w3.org/2000/svg"
   xmlns:xlink="http://www.w3.org/1999/xlink"
   xmlns:sodipodi="http://sodipodi.sourceforge.net/DTD/sodipodi-0.dtd"
   xmlns:inkscape="http://www.inkscape.org/namespaces/inkscape"
   width="1920"
   height="1080"
   viewBox="0 0 507.99999 285.75001"
   id="svg4332"
   version="1.1"
   inkscape:version="0.91+devel r13925"
   sodipodi:docname="failure-to-fracture-video-thumbnail.svg"
   inkscape:export-filename="/Users/agarone/Documents/git/art/king-crimson/fracture/failure-to-fracture-ep3-1920x1080.png"
   inkscape:export-xdpi="96"
   inkscape:export-ydpi="96">
  <defs
     id="defs4334">
    <linearGradient
       inkscape:collect="always"
       id="linearGradient4392">
      <stop
         style="stop-color:#007d98;stop-opacity:1"
         offset="0"
         id="stop4394" />
      <stop
         style="stop-color:#359800;stop-opacity:0;"
         offset="1"
         id="stop4396" />
    </linearGradient>
    <linearGradient
       id="linearGradient4296"
       inkscape:collect="always">
      <stop
         id="stop4298"
         offset="0"
         style="stop-color:#b7a855;stop-opacity:0.65405405" />
      <stop
         id="stop4300"
         offset="1"
         style="stop-color:#fff2ac;stop-opacity:0.45882353" />
    </linearGradient>
    <linearGradient
       inkscape:collect="always"
       id="linearGradient4284">
      <stop
         style="stop-color:#75b755;stop-opacity:0.5945946"
         offset="0"
         id="stop4286" />
      <stop
         style="stop-color:#a77b1d;stop-opacity:0.16756757"
         offset="1"
         id="stop4288" />
    </linearGradient>
    <linearGradient
       inkscape:collect="always"
       xlink:href="#linearGradient4284"
       id="linearGradient4290"
       x1="12.095238"
       y1="135.40025"
       x2="499.30657"
       y2="135.40025"
       gradientUnits="userSpaceOnUse"
       gradientTransform="rotate(1.1017399,255.7009,135.40025)" />
    <linearGradient
       inkscape:collect="always"
       xlink:href="#linearGradient4296"
       id="linearGradient4294"
       gradientUnits="userSpaceOnUse"
       gradientTransform="matrix(0.94471715,-0.02530424,0.02530424,0.94471715,13.086093,18.109619)"
       x1="12.095238"
       y1="135.40025"
       x2="499.30657"
       y2="135.40025" />
    <linearGradient
       inkscape:collect="always"
       xlink:href="#linearGradient4392"
       id="linearGradient4398"
       x1="12.178114"
       y1="135.48646"
       x2="499.34441"
       y2="135.48646"
       gradientUnits="userSpaceOnUse" />
  </defs>
  <sodipodi:namedview
     id="base"
     pagecolor="#ffffff"
     bordercolor="#666666"
     borderopacity="1.0"
     inkscape:pageopacity="0.0"
     inkscape:pageshadow="2"
     inkscape:zoom="0.7"
     inkscape:cx="547.1971"
     inkscape:cy="454.56494"
     inkscape:document-units="px"
     inkscape:current-layer="g4216"
     showgrid="false"
     units="px"
     showguides="true"
     inkscape:guide-bbox="true"
     inkscape:window-width="1920"
     inkscape:window-height="1151"
     inkscape:window-x="0"
     inkscape:window-y="1"
     inkscape:window-maximized="1">
    <sodipodi:guide
       position="508,0"
       orientation="1,0"
       id="guide4340"
       inkscape:label=""
       inkscape:color="rgb(0,0,255)" />
    <sodipodi:guide
       position="0,0"
       orientation="1,0"
       id="guide4342"
       inkscape:label=""
       inkscape:color="rgb(0,0,255)" />
    <sodipodi:guide
       position="0,0"
       orientation="0,1"
       id="guide4344"
       inkscape:label=""
       inkscape:color="rgb(0,0,255)" />
    <sodipodi:guide
       position="0,285.75"
       orientation="0,1"
       id="guide4346"
       inkscape:label=""
       inkscape:color="rgb(0,0,255)" />
    <sodipodi:guide
       position="254,142.875"
       orientation="1,0"
       id="guide4198"
       inkscape:label=""
       inkscape:color="rgb(0,0,255)" />
    <sodipodi:guide
       position="254,142.875"
       orientation="0,1"
       id="guide4200"
       inkscape:label=""
       inkscape:color="rgb(0,0,255)" />
  </sodipodi:namedview>
  <metadata
     id="metadata4337">
    <rdf:RDF>
      <cc:Work
         rdf:about="">
        <dc:format>image/svg+xml</dc:format>
        <dc:type
           rdf:resource="http://purl.org/dc/dcmitype/StillImage" />
        <dc:title />
      </cc:Work>
    </rdf:RDF>
  </metadata>
  <g
     inkscape:label="BG"
     inkscape:groupmode="layer"
     id="layer1"
     transform="translate(0,-11.249983)"
     style="display:inline">
    <rect
       style="opacity:1;fill:#f7f2e2;fill-opacity:1;stroke:none;stroke-width:0.53537709;stroke-linecap:round;stroke-miterlimit:4;stroke-dasharray:none;stroke-opacity:1"
       id="rect4302"
       width="508"
       height="285.75"
       x="0"
       y="11.249994" />
  </g>
  <g
     inkscape:groupmode="layer"
     id="layer4"
     inkscape:label="Watercolor">
    <path
       style="display:inline;opacity:0.731;fill:url(#linearGradient4398);fill-opacity:0.29729734;fill-rule:evenodd;stroke:none;stroke-width:0.26458335px;stroke-linecap:butt;stroke-linejoin:miter;stroke-opacity:1"
       d="m 12.178114,123.94286 c 0,0 5.32284,-3.92685 6.48061,-6.94162 1.157769,-3.01476 2.500044,-5.46108 4.782752,-7.33299 2.282709,-1.87192 3.819937,-5.07268 3.264927,-6.58901 -0.555008,-1.51634 2.297633,-3.761743 2.119094,-5.086106 -0.178534,-1.324368 1.327353,-0.556502 1.748593,-6.034003 0.421241,-5.477498 4.233714,-9.605262 1.791869,-11.514481 -2.441847,-1.909223 -9.032348,-4.985166 -6.386598,-4.964275 2.645752,0.02089 1.907731,-2.252865 1.918176,-3.57574 0.01045,-1.322875 8.889626,-0.874776 9.428217,2.720364 0.538595,3.595139 -0.994153,6.228951 1.653091,6.06086 2.647243,-0.168089 10.432819,-4.831464 12.330103,-5.761453 1.897281,-0.929986 6.59647,2.320017 7.739316,1.195077 1.142848,-1.124941 -0.129291,-7.56078 1.760529,-7.545858 1.889823,0.01492 5.074168,3.630954 7.163418,2.324494 2.089249,-1.306461 2.492582,-4.516175 4.760368,-4.498268 2.267787,0.01791 10.005614,1.401965 12.651365,1.422856 2.64575,0.02089 6.780974,2.888456 11.508513,2.547799 4.727533,-0.34066 13.077083,-4.621591 13.077083,-4.621591 0,0 5.2915,0.04178 8.66632,3.470325 3.37482,3.428539 2.22152,5.876354 7.12462,7.238027 4.90309,1.361675 7.90293,4.409266 7.90293,4.409266 0,0 2.49258,-4.516171 6.28566,-6.187166 3.79307,-1.670997 12.1247,-3.684141 12.34054,-7.084328 0.21584,-3.400186 6.65617,-5.239273 6.65617,-5.239273 0,0 1.49543,2.090742 2.21854,6.25432 0.7231,4.163576 -2.89592,7.725886 -1.96444,9.434187 0.93148,1.7083 6.58304,4.020855 8.8374,5.739602 2.25435,1.718749 9.09054,-2.38514 9.10546,-4.274962 0.0149,-1.88982 -2.40006,-7.200721 -2.40006,-7.200721 0,0 3.18435,3.616027 8.28985,3.278355 5.1055,-0.337673 8.97767,-12.024724 8.97767,-12.024724 0,0 6.6487,-4.294361 11.74376,-3.309162 5.09506,0.985203 11.84768,7.464321 16.95169,7.315628 5.10401,-0.14869 10.23638,-3.888045 12.1247,-3.684138 1.88834,0.203902 -2.30658,4.89563 -0.22777,4.912045 2.0788,0.01642 3.83635,-7.15148 9.13382,-7.865625 5.29746,-0.714147 20.92778,6.402051 20.92778,6.402051 0,0 8.34507,-3.713982 8.55343,-6.169259 0.20838,-2.455277 19.08423,0.528683 20.96212,2.055462 1.87788,1.526781 -1.36466,5.281055 3.73786,5.321346 5.10251,0.04029 5.31537,-2.981931 5.31537,-2.981931 0,0 10.7332,4.998596 13.19444,4.451048 2.46124,-0.547545 4.19343,-4.502741 4.19343,-4.502741 0,0 8.62601,8.572841 12.96665,9.363094 4.3406,0.79025 8.0949,4.032794 11.50254,3.303723 3.40763,-0.729067 -0.52667,-5.106995 2.87502,-5.080134 3.40168,0.02686 8.33462,-2.391111 14.36115,0.302392 6.02653,2.693503 8.26599,6.302073 9.40137,6.122045 1.13538,-0.180029 2.13699,-7.353892 2.13699,-7.353892 0,0 7.31212,7.428505 14.10355,8.994083 6.79139,1.56558 7.34194,3.64886 6.00563,5.339253 -1.3363,1.690395 -4.57139,4.499761 -4.57139,4.499761 0,0 7.79753,-6.175231 12.14112,-5.762945 4.34361,0.412286 9.8047,2.912331 9.8047,2.912331 0,0 -2.81832,-2.101187 -2.79146,-5.502869 0.0269,-3.401679 -2.79146,-5.502866 -2.79146,-5.502866 0,0 5.12192,-2.416479 7.94322,-0.693256 2.82131,1.723226 9.53513,13.115879 13.32522,11.822848 3.79009,-1.293029 0.4302,-6.611392 0.4302,-6.611392 0,0 9.2661,-0.682808 9.29147,-3.895505 0.0254,-3.212699 3.26789,-6.966974 4.76483,-5.065215 1.49694,1.90176 -2.30359,4.517667 1.45068,7.76021 3.75427,3.242544 15.10964,1.253273 15.65269,4.281464 0.54309,3.028195 3.58469,0.784284 6.80336,0.05372 3.21868,-0.73056 10.89084,8.968715 14.4815,8.997068 3.59066,0.02835 -6.11756,8.834413 -6.11756,8.834413 0,0 16.41906,2.96456 18.08857,6.94662 1.6695,3.98205 1.22886,11.91632 4.43259,13.07559 3.20375,1.15926 5.0324,8.92245 5.0324,8.92245 0,0 -9.10101,3.70801 -6.84514,5.23777 2.25584,1.52977 6.17373,7.9865 6.17373,7.9865 0,0 -3.85425,9.41927 -7.25744,9.58139 -3.40317,0.16213 -2.70545,7.5384 -7.45834,11.09175 -4.7529,3.55336 -16.75577,15.7432 -19.02358,15.72529 -2.26778,-0.0179 -0.53559,-3.9731 -4.70515,-2.49408 -4.16954,1.47902 -15.44187,16.88752 -15.44187,16.88752 0,0 -2.80039,-4.36897 -5.6396,-3.8244 -2.83922,0.54455 -10.33041,15.79392 -19.21256,15.72378 -8.88216,-0.0701 -6.59349,-2.69798 -10.74962,-2.91979 -4.15611,-0.22181 -14.7794,4.79714 -14.7794,4.79714 0,0 0.38095,-0.37498 -0.72458,-3.97459 -1.10555,-3.59962 -6.38511,-5.15326 -6.38511,-5.15326 0,0 -4.98963,9.59929 -9.5267,9.75246 -4.53709,0.15317 -2.5995,-5.87934 -7.13508,-5.91515 -4.53556,-0.0358 -17.05018,5.15719 -17.05018,5.15719 0,0 -14.94002,1.20499 -16.79106,-3.72347 -1.85103,-4.92846 -9.73307,-11.98348 -9.73307,-11.98348 0,0 -5.32881,4.68277 -4.40626,7.52497 0.92251,2.8422 -5.479,-0.23225 -10.96546,0.4804 -5.48646,0.71265 -14.41338,6.31198 -18.568,5.90119 -4.15463,-0.4108 -10.12744,-9.90766 -10.12744,-9.90766 0,0 0.49381,9.2646 -3.66978,9.98771 -4.16354,0.72309 -5.50731,3.3584 -5.50731,3.3584 0,0 1.94204,-6.59946 -3.69909,-10.23489 -5.6411,-3.63543 -16.59461,-4.66689 -16.5782,-6.74569 0.0164,-2.07881 -3.92385,-5.7008 -6.3836,-5.34225 -2.45975,0.35857 -6.45076,3.16197 -9.09652,3.14108 -2.64575,-0.0209 -6.58602,-3.64289 -6.58602,-3.64289 0,0 -0.0671,8.50419 -1.7665,8.30178 -1.69935,-0.20241 -10.90874,-6.70093 -10.90874,-6.70093 0,0 -2.91234,9.80469 -7.46283,11.6587 -4.55049,1.85401 -5.26016,-4.01041 -7.71096,-4.78573 -2.4508,-0.77533 -4.77976,6.95503 -7.23206,6.36869 -2.4523,-0.58635 -9.40882,-5.17713 -10.37314,-2.72783 -0.96431,2.44931 4.67532,6.27372 4.67532,6.27372 0,0 -11.54433,1.98778 -13.22279,-0.86038 -1.67845,-2.84817 -1.08166,-6.62334 -3.34945,-6.64125 -2.26778,-0.0179 -0.78279,3.39572 -6.44927,2.97298 -5.66649,-0.42273 -8.64692,-5.92709 -11.29118,-6.13697 -2.64426,-0.20986 -3.81844,4.88369 -3.81844,4.88369 0,0 -3.54738,-5.50883 -9.79126,-4.61316 -6.24388,0.89566 -8.55345,6.16926 -6.86603,7.88353 1.6874,1.71427 -12.59168,-8.98214 -17.31773,-8.83047 -4.72604,0.15168 1.25125,9.0816 -1.58348,9.05921 -2.83473,-0.0224 -7.3136,-7.23952 -11.28223,-7.27086 -3.96863,-0.0313 -7.801989,6.74218 -8.928422,5.78831 -1.126432,-0.95386 3.810982,-3.93878 2.694995,-6.21552 -1.115985,-2.27673 -16.792556,-3.53449 -18.317842,-1.84559 -1.525289,1.6889 -2.425433,-3.98802 -2.425433,-3.98802 0,0 -4.595262,7.52347 -6.485085,7.50854 -1.889822,-0.0149 1.556626,-5.65752 -3.33602,-8.34207 -4.892646,-2.68455 -18.482949,-4.8708 -19.213512,-8.08946 -0.730559,-3.21867 -3.728907,-6.45525 -5.437207,-5.52377 -1.708301,0.93149 -2.869056,4.32422 -2.869056,4.32422 0,0 -0.132275,-7.18282 -5.036859,-8.35552 -4.904584,-1.17269 -9.42822,-2.72036 -9.42822,-2.72036 0,0 6.650191,-4.48335 6.660637,-5.80621 0.01045,-1.32288 -6.597962,-2.13104 -6.580055,-4.39883 0.01791,-2.26779 3.096836,-9.23625 1.788882,-11.13652 -1.307953,-1.90027 -1.115984,-2.27673 -7.882038,-7.05502 -6.766052,-4.77827 5.712743,-5.43571 2.139987,-7.73185 -3.572755,-2.29613 -10.887848,-9.34667 -10.887848,-9.34667 z"
       id="path4274"
       inkscape:connector-curvature="0" />
    <path
       inkscape:connector-curvature="0"
       id="path4282"
       d="m 12.323595,121.18384 c 0,0 5.366999,-3.86627 6.55886,-6.86773 1.191859,-3.00144 2.561771,-5.43239 4.865547,-7.27832 2.303776,-1.84592 3.877178,-5.02906 3.339388,-6.55158 -0.537788,-1.522532 2.340116,-3.735466 2.176597,-5.061767 -0.163514,-1.326306 1.333574,-0.541424 1.816861,-6.0138 0.483289,-5.472372 4.342296,-9.556666 1.922244,-11.493435 -2.420054,-1.936772 -8.975273,-5.087206 -6.329929,-5.036333 2.645345,0.05087 1.933138,-2.2311 1.958575,-3.553773 0.02544,-1.322671 8.898968,-0.773976 9.396782,2.827037 0.497818,3.601011 -1.064679,6.217285 1.5843,6.079204 2.648977,-0.138077 10.486901,-4.712922 12.394603,-5.62135 1.907699,-0.908425 6.569754,2.394623 7.725276,1.282707 1.155523,-1.111917 -0.0436,-7.56176 1.84593,-7.525422 1.889533,0.03634 5.032694,3.688224 7.136616,2.405524 2.10392,-1.2827 2.543601,-4.487637 4.811039,-4.444031 2.267439,0.04361 9.989084,1.515265 12.634428,1.566138 2.645343,0.05087 6.747804,2.965117 11.478901,2.678056 4.731097,-0.287062 13.128617,-4.473096 13.128617,-4.473096 0,0 5.29069,0.101747 8.62643,3.568314 3.33575,3.466565 2.15479,5.901153 7.04214,7.318304 4.88734,1.417152 7.85245,4.498543 7.85245,4.498543 0,0 2.54361,-4.487634 6.35538,-6.115536 3.81176,-1.627904 12.16568,-3.546499 12.42003,-6.944022 0.25436,-3.397522 6.71511,-5.163504 6.71511,-5.163504 0,0 1.47165,2.107554 2.14753,6.27906 0.67587,4.171503 -2.98329,7.692571 -2.07123,9.411318 0.91206,1.718747 6.53705,4.095201 8.77179,5.839385 2.23473,1.744186 9.11698,-2.281967 9.15332,-4.171499 0.0363,-1.889529 -2.3183,-7.227458 -2.3183,-7.227458 0,0 3.14316,3.651882 8.25216,3.37209 5.109,-0.279792 9.11337,-11.92221 9.11337,-11.92221 0,0 6.69694,-4.218739 11.7805,-3.175862 5.08357,1.042879 11.76233,7.598106 16.8677,7.507265 5.10536,-0.09084 10.27979,-3.77179 12.16567,-3.546497 1.88591,0.225289 -2.36191,4.869177 -0.28342,4.909149 2.07849,0.03997 3.91715,-7.107545 9.22237,-7.76161 5.30522,-0.654067 20.85389,6.638807 20.85389,6.638807 0,0 8.38662,-3.619173 8.62279,-6.071931 0.2362,-2.452757 19.07702,0.744923 20.93749,2.292886 1.86045,1.547964 -1.42443,5.265251 3.67731,5.363364 5.10173,0.09811 5.34882,-2.921503 5.34882,-2.921503 0,0 10.67586,5.119911 13.14315,4.600291 2.46729,-0.519618 4.24418,-4.45493 4.24418,-4.45493 0,0 8.52831,8.670046 12.85972,9.509439 4.33137,0.839389 8.04867,4.124271 11.46436,3.433865 3.41568,-0.690403 -0.46876,-5.112636 2.93241,-5.047226 3.40115,0.06541 8.36118,-2.296505 14.3568,0.465121 5.99562,2.761627 8.19404,6.395344 9.33138,6.228195 1.13735,-0.167151 2.22019,-7.329203 2.22019,-7.329203 0,0 7.22747,7.510894 14.00072,9.153337 6.77322,1.642443 7.30012,3.731829 5.94474,5.406969 -1.35537,1.675142 -4.62209,4.447666 -4.62209,4.447666 0,0 7.86701,-6.086468 12.20565,-5.624984 4.33866,0.461484 9.77106,3.023257 9.77106,3.023257 0,0 -2.79432,-2.132991 -2.72891,-5.53415 0.0654,-3.401156 -2.72893,-5.534148 -2.72893,-5.534148 0,0 5.14898,-2.358279 7.95057,-0.603193 2.8016,1.755088 9.38589,13.223094 13.19038,11.973098 3.8045,-1.249995 0.5051,-6.606092 0.5051,-6.606092 0,0 9.27324,-0.577755 9.33502,-3.789959 0.0618,-3.212205 3.34663,-6.929492 4.82193,-5.010891 1.47529,1.918602 -2.35465,4.491271 1.36264,7.776151 3.71729,3.284882 15.09446,1.424425 15.60317,4.458576 0.50873,3.034155 3.57557,0.824857 6.80231,0.130818 3.22675,-0.694037 10.7885,9.091561 14.37861,9.160603 3.5901,0.06904 -6.21728,8.764518 -6.21728,8.764518 0,0 16.3844,3.15044 18.00867,7.15116 1.62428,4.00072 1.09375,11.92949 4.28413,13.12498 3.19042,1.1955 4.93097,8.97892 4.93097,8.97892 0,0 -9.14245,3.60463 -6.90406,5.15986 2.23836,1.55524 6.08283,8.05595 6.08283,8.05595 0,0 -3.96076,9.37499 -7.36556,9.49853 -3.40479,0.12355 -2.79071,7.50725 -7.58356,11.00651 -4.79286,3.49927 -16.93311,15.5523 -19.20057,15.50869 -2.26743,-0.0436 -0.49053,-3.97891 -4.67658,-2.54724 -4.18604,1.43168 -15.63226,16.71145 -15.63226,16.71145 0,0 -2.7507,-4.40044 -5.5959,-3.88808 -2.84521,0.51235 -10.50873,15.67584 -19.38952,15.50505 -8.88079,-0.17079 -6.56248,-2.77253 -10.71583,-3.04142 -4.15334,-0.2689 -14.83283,4.62934 -14.83283,4.62934 0,0 0.38518,-0.37064 -0.67949,-3.98255 -1.06467,-3.61192 -6.3263,-5.22529 -6.3263,-5.22529 0,0 -5.09809,9.54213 -9.63661,9.64387 -4.53852,0.10175 -2.5327,-5.90842 -7.06758,-5.99563 -4.53486,-0.0872 -17.10753,4.96364 -17.10753,4.96364 0,0 -14.95272,1.0356 -16.74778,-3.91352 -1.79506,-4.94912 -9.59664,-12.09301 -9.59664,-12.09301 0,0 -5.38154,4.62208 -4.49126,7.47455 0.89024,2.85247 -5.47602,-0.29433 -10.9702,0.3561 -5.49418,0.65043 -14.48398,6.14823 -18.63369,5.69039 -4.1497,-0.45786 -10.0145,-10.02179 -10.0145,-10.02179 0,0 0.38879,9.2696 -3.78273,9.94547 -4.17148,0.67587 -5.54503,3.29577 -5.54503,3.29577 0,0 2.01671,-6.57702 -3.58285,-10.27615 -5.59954,-3.69912 -16.54066,-4.85464 -16.50069,-6.93313 0.04,-2.07849 -3.85899,-5.7449 -6.32266,-5.41424 -2.46365,0.33067 -6.48617,3.08865 -9.13152,3.03778 -2.64535,-0.0509 -6.54432,-3.71729 -6.54432,-3.71729 0,0 -0.16352,8.50289 -1.86046,8.28123 -1.69695,-0.22165 -10.8321,-6.82412 -10.8321,-6.82412 0,0 -3.02327,9.77106 -7.59448,11.57337 -4.57121,1.80232 -5.21438,-4.06976 -7.65623,-4.87281 -2.44186,-0.80305 -4.85828,6.90042 -7.30377,6.28633 -2.4455,-0.61411 -9.34954,-5.28343 -10.34156,-2.84521 -0.992,2.43822 4.60392,6.3263 4.60392,6.3263 0,0 -11.56612,1.85682 -13.21219,-1.01018 -1.64606,-2.867 -1.00653,-6.63517 -3.27397,-6.67878 -2.26743,-0.0436 -0.82122,3.38663 -6.48255,2.89971 -5.66133,-0.48692 -8.57919,-6.02471 -11.22091,-6.26454 -2.6417,-0.23981 -3.87354,4.84011 -3.87354,4.84011 0,0 -3.48472,-5.54868 -9.73835,-4.72383 -6.25363,0.82485 -8.62281,6.07193 -6.95493,7.80521 1.66787,1.73328 -12.48908,-9.12426 -17.21654,-9.02615 -4.72746,0.0981 1.14825,9.09519 -1.68605,9.04068 -2.83429,-0.0545 -7.23109,-7.32194 -11.1991,-7.39825 -3.96802,-0.0763 -7.877898,6.65332 -8.99345,5.68676 -1.115549,-0.96657 3.855371,-3.89534 2.765261,-6.18459 -1.090112,-2.28923 -16.751423,-3.72456 -18.295751,-2.05305 -1.544331,1.6715 -2.380082,-4.01526 -2.380082,-4.01526 0,0 -4.680228,7.47091 -6.56976,7.43457 -1.889532,-0.0363 1.620641,-5.63952 -3.241268,-8.37934 -4.861909,-2.73983 -18.426564,-5.07995 -19.120604,-8.30668 -0.694036,-3.22674 -3.655512,-6.49709 -5.374259,-5.58503 -1.718747,0.91206 -2.917877,4.29142 -2.917877,4.29142 0,0 -0.05087,-7.18386 -4.941845,-8.41206 -4.890979,-1.2282 -9.396785,-2.82703 -9.396785,-2.82703 0,0 6.700572,-4.4077 6.726008,-5.73036 0.02544,-1.32268 -6.573388,-2.20567 -6.529782,-4.47311 0.04361,-2.26744 3.201308,-9.20057 1.914974,-11.11554 -1.286335,-1.91496 -1.090112,-2.28923 -7.80158,-7.14388 -6.711468,-4.85465 5.773976,-5.37063 2.227471,-7.70711 -3.546504,-2.33647 -10.781226,-9.46946 -10.781226,-9.46946 z"
       style="display:inline;fill:url(#linearGradient4290);fill-opacity:1;fill-rule:evenodd;stroke:none;stroke-width:0.26458335px;stroke-linecap:butt;stroke-linejoin:miter;stroke-opacity:1;opacity:0.671" />
    <path
       style="display:inline;fill:url(#linearGradient4294);fill-opacity:1;fill-rule:evenodd;stroke:none;stroke-width:0.25004607px;stroke-linecap:butt;stroke-linejoin:miter;stroke-opacity:1;opacity:0.77"
       d="m 27.697618,136.7114 c 0,0 4.898702,-3.88324 5.89343,-6.7686 0.994725,-2.88533 2.182339,-5.23983 4.276999,-7.08261 2.094663,-1.84279 3.441688,-4.91624 2.86781,-6.33021 -0.573879,-1.41398 2.04684,-3.6282 1.834822,-4.8732 -0.212013,-1.24499 1.235436,-0.5691 1.453833,-5.75632 0.218398,-5.18724 3.683995,-9.210769 1.31515,-10.934001 -2.368847,-1.723235 -8.694272,-4.412502 -6.194708,-4.479454 2.499565,-0.06696 1.728017,-2.190305 1.694542,-3.440088 -0.03347,-1.249781 8.367483,-1.117466 8.993963,2.260455 0.626483,3.377918 -0.734886,5.91574 1.759897,5.670249 2.49478,-0.245489 9.695376,-4.90507 11.45687,-5.845594 1.76149,-0.940521 6.306296,1.975108 7.348845,0.875173 1.042548,-1.099936 -0.36983,-7.13683 1.415574,-7.184652 1.785403,-0.04783 4.91145,3.263147 6.841918,1.960761 1.930467,-1.302386 2.20625,-4.347137 4.348734,-4.404523 2.142485,-0.05738 9.496114,0.996325 11.995678,0.929374 2.499563,-0.06696 6.499185,2.505948 10.953125,2.029311 4.45395,-0.476637 12.19973,-4.79348 12.19973,-4.79348 0,0 4.99913,-0.133897 8.29892,2.993745 3.29981,3.127645 2.29074,5.477363 6.96626,6.602805 4.67552,1.125446 7.60869,3.905575 7.60869,3.905575 0,0 2.20624,-4.347134 5.73402,-6.049641 3.52776,-1.702509 11.33094,-3.876867 11.42338,-7.095374 0.0925,-3.218506 6.11502,-5.166506 6.11502,-5.166506 0,0 1.48092,1.925685 2.3003,5.834444 0.81937,3.908755 -2.48203,7.391884 -1.5463,8.974835 0.93575,1.582951 6.34934,3.58197 8.53487,5.131446 2.18551,1.549478 8.50775,-2.550569 8.45992,-4.335973 -0.0479,-1.785397 -2.50273,-6.722361 -2.50273,-6.722361 0,0 3.12605,3.310965 7.93707,2.824767 4.81102,-0.486199 8.08534,-11.651341 8.08534,-11.651341 0,0 6.13892,-4.273804 10.98341,-3.510223 4.84451,0.763581 11.43455,6.661794 16.25035,6.354133 4.8158,-0.307658 9.54076,-4.007586 11.33093,-3.876865 1.7902,0.130714 -2.01814,4.699434 -0.0542,4.64683 1.96395,-0.0526 3.38909,-6.880177 8.36908,-7.728238 4.98,-0.848066 19.97578,5.361002 19.97578,5.361002 0,0 7.76014,-3.781221 7.87649,-6.107027 0.11637,-2.325806 18.04215,-0.125923 19.86582,1.254576 1.82365,1.380503 -1.1159,5.032604 3.70471,4.903485 4.82058,-0.129118 4.9226,-2.990545 4.9226,-2.990545 0,0 10.30115,4.369463 12.60781,3.771672 2.30668,-0.597788 3.81312,-4.390173 3.81312,-4.390173 0,0 8.42803,7.81433 12.55362,8.418501 4.12553,0.604171 7.77765,3.543713 10.97225,2.743469 3.19458,-0.800239 -0.66477,-4.80624 2.54898,-4.892319 3.21372,-0.08608 7.7936,-2.531443 13.57384,-0.18491 5.78023,2.346536 8.01359,5.681415 9.08004,5.474184 1.06646,-0.207235 1.77743,-7.015678 1.77743,-7.015678 0,0 7.14959,6.776566 13.61531,8.032729 6.46569,1.256164 7.05393,3.20576 5.84717,4.846097 -1.20673,1.640338 -4.17019,4.399742 -4.17019,4.399742 0,0 7.16235,-6.087901 11.27833,-5.840811 4.116,0.247089 9.35583,2.42943 9.35583,2.42943 0,0 -2.7307,-1.892208 -2.81678,-5.105937 -0.086,-3.213725 -2.8168,-5.105934 -2.8168,-5.105934 0,0 4.75842,-2.450144 7.47957,-0.915015 2.72115,1.535132 9.43554,12.075389 12.97286,10.729963 3.53732,-1.345425 0.18971,-6.258475 0.18971,-6.258475 0,0 8.72934,-0.948489 8.64804,-3.983673 -0.0813,-3.035188 2.85823,-6.687289 4.3344,-4.940145 1.47613,1.747145 -2.02773,4.342355 1.62438,7.281895 3.65211,2.939543 14.31193,0.688666 14.92406,3.530964 0.61214,2.8423 3.41139,0.623301 6.42745,-0.172159 3.01606,-0.795459 10.5801,8.114026 13.97236,8.023167 3.39226,-0.09087 -5.4885,8.544426 -5.4885,8.544426 0,0 15.60471,2.26205 17.312,5.96836 1.70731,3.7063 1.55107,11.21456 4.61493,12.2045 3.0639,0.98995 5.04538,8.26228 5.04538,8.26228 0,0 -8.47431,3.80035 -6.29355,5.17128 2.18073,1.37095 6.09267,7.34089 6.09267,7.34089 0,0 -3.33169,9.02266 -6.54065,9.28728 -3.20893,0.26462 -2.30828,7.20855 -6.68091,10.72038 -4.37263,3.51182 -15.30983,15.41822 -17.45233,15.47561 -2.14248,0.0574 -0.63603,-3.735 -4.52567,-2.20147 -3.88963,1.53353 -14.03137,16.45599 -14.03137,16.45599 0,0 -2.78808,-4.03471 -5.45184,-3.42735 -2.66377,0.60736 -9.23949,15.25562 -17.63088,15.48039 -8.39138,0.22476 -6.31585,-2.33219 -10.24854,-2.4055 -3.93266,-0.0734 -13.80181,5.01504 -13.80181,5.01504 0,0 0.34753,-0.36665 -0.81457,-3.73021 -1.16209,-3.36358 -6.19949,-4.658 -6.19949,-4.658 0,0 -4.39815,9.22988 -8.67834,9.5232 -4.2802,0.29336 -2.64781,-5.4678 -6.93279,-5.35301 -4.28495,0.11475 -15.93472,5.42951 -15.93472,5.42951 0,0 -14.07119,1.62757 -15.98094,-2.96664 -1.90975,-4.59423 -9.58537,-10.99937 -9.58537,-10.99937 0,0 -4.87959,4.59741 -3.91514,7.2516 0.96442,2.6542 -5.18246,-0.0399 -10.34099,0.813 -5.15856,0.85283 -13.40647,6.43381 -17.34392,6.18194 -3.93746,-0.25188 -9.88985,-9.02585 -9.88985,-9.02585 0,0 0.76994,8.73412 -3.13883,9.55349 -3.90873,0.81936 -5.09157,3.3524 -5.09157,3.3524 0,0 1.61802,-6.29673 -3.82906,-9.54553 -5.44706,-3.2488 -15.82631,-3.86413 -15.87892,-5.82807 -0.0525,-1.96395 -3.8928,-5.25578 -6.20426,-4.83654 -2.31147,0.41926 -5.98908,3.19778 -8.48863,3.26474 -2.49958,0.0669 -6.33978,-3.22489 -6.33978,-3.22489 0,0 0.21519,8.03432 -1.39645,7.89881 -1.61164,-0.1355 -10.52271,-5.97155 -10.52271,-5.97155 0,0 -2.42944,9.35585 -6.66658,11.256 -4.23715,1.90018 -5.09956,-3.61544 -7.43971,-4.26742 -2.34016,-0.652 -4.28656,6.72554 -6.62194,6.2521 -2.33537,-0.47346 -9.05612,-4.58148 -9.88667,-2.23655 -0.83053,2.34492 4.62133,5.77226 4.62133,5.77226 0,0 -10.83837,2.25566 -12.51696,-0.3794 -1.67859,-2.63506 -1.23861,-6.22023 -3.3811,-6.16283 -2.14248,0.0573 -0.62807,3.23285 -5.99385,3.01924 -5.36578,-0.21361 -8.3611,-5.31477 -10.86545,-5.42636 -2.50434,-0.11158 -3.44647,4.73769 -3.44647,4.73769 0,0 -3.53094,-5.08681 -9.39886,-4.03628 -5.86793,1.05051 -7.8765,6.10702 -6.22661,7.67084 1.64991,1.56382 -12.18696,-8.07098 -16.64568,-7.77288 -4.45872,0.29806 1.47933,8.53646 -1.19878,8.60818 -2.6781,0.0718 -7.1448,-6.59802 -10.89414,-6.49759 -3.74934,0.10046 -7.14799,6.62351 -8.24315,5.75951 -1.09515,-0.864 3.47038,-3.84499 2.34176,-5.95878 -1.12863,-2.11378 -15.976173,-2.7881 -17.361454,-1.14299 -1.385284,1.64512 -2.421451,-3.68718 -2.421451,-3.68718 0,0 -4.093678,7.25638 -5.879081,7.3042 -1.785401,0.0479 1.284857,-5.39446 -3.424142,-7.76968 -4.709,-2.37524 -17.616504,-3.99486 -18.411965,-7.01091 -0.795458,-3.01606 -3.733401,-5.97473 -5.316351,-5.03899 -1.582951,0.93574 -2.568116,4.17817 -2.568116,4.17817 0,0 -0.360262,-6.77976 -5.031003,-7.72667 -4.670741,-0.94689 -8.993966,-2.26044 -8.993966,-2.26044 0,0 6.134137,-4.45236 6.100662,-5.70213 -0.03347,-1.24979 -6.301516,-1.79657 -6.358901,-3.93905 -0.05738,-2.14249 2.622316,-8.825 1.324712,-10.57693 -1.297605,-1.75192 -1.128627,-2.11378 -7.675633,-6.40513 -6.547005,-4.29135 5.217525,-5.32113 1.767873,-7.37276 -3.449652,-2.0516 -10.589666,-8.4711 -10.589666,-8.4711 z"
       id="path4292"
       inkscape:connector-curvature="0" />
  </g>
  <g
     inkscape:groupmode="layer"
     id="layer2"
     inkscape:label="MWM"
     transform="translate(0,21.166667)"
     style="display:inline">
    <g
       id="g5026"
       transform="matrix(0.18197193,0,0,0.18197193,194.62682,203.34992)">
      <g
         transform="translate(-88.323359,-258.4)"
         id="XMLID_81_">
        <g
           id="XMLID_365_">
          <path
             style="fill:#d28266"
             inkscape:connector-curvature="0"
             d="m 143,528.1 1.8,0 c 0.7,0 1,-0.3 1.1,-1.1 l 2.4,-30.2 3.5,0 9.1,19.9 c 0.8,1.8 1.7,4 1.7,4 l 0.1,0 c 0,0 0.9,-2.3 1.7,-4 l 9.1,-19.9 3.5,0 2.4,30.2 c 0,0.7 0.4,1.1 1.1,1.1 l 1.9,0 0,3 -3.3,0 c -2.1,0 -2.8,-0.9 -3,-3 l -1.6,-20.8 c -0.1,-1.9 -0.1,-4.8 -0.1,-4.8 l -0.1,0 c 0,0 -0.9,3 -1.8,4.8 l -8.1,17.4 -3.4,0 -8.1,-17.4 c -0.8,-1.7 -1.8,-4.9 -1.8,-4.9 l -0.1,0 c 0,0 0,3 -0.1,4.9 l -1.6,20.8 c -0.1,2.1 -0.9,3 -3,3 l -3.3,0 0,-3 z"
             id="XMLID_395_" />
          <path
             style="fill:#d28266"
             inkscape:connector-curvature="0"
             d="m 188.5,528.1 0.6,0 c 0.9,0 1.4,-0.1 1.8,-1.1 l 11.2,-30.2 3.7,0 11.2,30.2 c 0.3,0.9 0.8,1.1 1.8,1.1 l 0.6,0 0,3 -1.6,0 c -2.4,0 -3.2,-0.5 -4,-2.8 l -3,-8.1 -13.6,0 -3,8.1 c -0.9,2.3 -1.6,2.8 -4,2.8 l -1.6,0 0,-3 z m 21.3,-10.9 -4.5,-12.2 c -0.6,-1.6 -1.3,-4.4 -1.3,-4.4 l -0.1,0 c 0,0 -0.7,2.8 -1.3,4.4 l -4.5,12.2 11.7,0 z"
             id="XMLID_392_" />
          <path
             style="fill:#d28266"
             inkscape:connector-curvature="0"
             d="m 230.1,501 c 0,-0.7 -0.4,-1.1 -1.1,-1.1 l -2.1,0 0,-3 3.6,0 c 2.1,0 3,0.9 3,3 l 0,11.9 4.1,0 c 1.3,0 2.3,-0.2 2.9,-1.2 l 8.3,-13.6 3.9,0 -8.8,14.4 c -0.9,1.4 -1.8,1.9 -1.8,1.9 l 0,0.1 c 0,0 0.8,0.3 1.7,1.9 l 5.9,11.8 c 0.5,1 1.2,1.1 2.5,1.1 l 1,0 0,3 -1.8,0 c -2.8,0 -3.6,-0.3 -4.7,-2.6 l -6.2,-12.5 c -0.5,-1.1 -1.7,-1.3 -3.1,-1.3 l -3.8,0 0,16.4 -3.4,0 0,-30.2 z"
             id="XMLID_390_" />
          <path
             style="fill:#d28266"
             inkscape:connector-curvature="0"
             d="m 263.7,499.9 -3.2,0 0,-3 19.6,0 c 2.1,0 3,0.9 3,3 l 0,3.4 -3.2,0 0,-2.3 c 0,-0.7 -0.4,-1.1 -1.1,-1.1 l -11.7,0 0,12.5 12.9,0 0,3 -12.9,0 0,11.6 c 0,0.7 0.4,1.1 1.1,1.1 l 12,0 c 0.7,0 1.1,-0.3 1.1,-1.1 l 0,-2.3 3.2,0 0,3.4 c 0,2.1 -0.9,3 -3,3 l -14.8,0 c -2.1,0 -3,-0.9 -3,-3 l 0,-28.2 z"
             id="XMLID_388_" />
          <path
             style="fill:#d28266"
             inkscape:connector-curvature="0"
             d="m 310.7,501 c -0.2,-0.9 -0.9,-1.1 -1.8,-1.1 l -0.6,0 0,-3 1.5,0 c 2.4,0 3.6,0.4 4.1,2.8 l 5.9,23.6 c 0.4,1.8 0.7,3.7 0.7,3.7 l 0.1,0 c 0,0 0.4,-1.9 0.9,-3.7 l 7.6,-26.3 3.4,0 6.9,26.3 c 0.5,1.8 0.8,3.7 0.8,3.7 l 0.1,0 c 0,0 0.3,-1.9 0.8,-3.7 l 5.9,-23.6 c 0.6,-2.4 1.7,-2.8 4.1,-2.8 l 1.5,0 0,3 -0.5,0 c -1,0 -1.6,0.1 -1.8,1.1 l -7.9,30.2 -4,0 -6.4,-23.8 c -0.6,-2.2 -1.1,-5.1 -1.1,-5.1 l -0.1,0 c 0,0 -0.6,2.8 -1.2,5 l -7,23.9 -4,0 -7.9,-30.2 z"
             id="XMLID_386_" />
          <path
             style="fill:#d28266"
             inkscape:connector-curvature="0"
             d="m 363.6,499.9 -3.2,0 0,-3 19.6,0 c 2.1,0 3,0.9 3,3 l 0,3.4 -3.2,0 0,-2.3 c 0,-0.7 -0.4,-1.1 -1.1,-1.1 l -11.7,0 0,12.5 12.9,0 0,3 -12.9,0 0,11.6 c 0,0.7 0.4,1.1 1.1,1.1 l 12,0 c 0.7,0 1.1,-0.3 1.1,-1.1 l 0,-2.3 3.2,0 0,3.4 c 0,2.1 -0.9,3 -3,3 l -14.8,0 c -2.1,0 -3,-0.9 -3,-3 l 0,-28.2 z"
             id="XMLID_384_" />
          <path
             style="fill:#d28266"
             inkscape:connector-curvature="0"
             d="m 392.7,528.1 3.2,0 0,-28.2 -3.2,0 0,-3 9.8,0 0,3 -3.3,0 0,28.2 3.3,0 0,3 -9.8,0 0,-3 z"
             id="XMLID_382_" />
          <path
             style="fill:#d28266"
             inkscape:connector-curvature="0"
             d="m 414.8,499.9 -3.2,0 0,-3 14.5,0 c 5.7,0 9.8,3.8 9.8,9.7 0,5.3 -3.3,8.4 -6.6,9.2 l 0,0.1 c 0,0 0.7,0.4 1.2,1.4 l 4.9,9.7 c 0.5,1 1.2,1.1 2.4,1.1 l 0.7,0 0,3 -1.5,0 c -2.8,0 -3.6,-0.3 -4.7,-2.6 l -4.9,-9.8 c -0.9,-1.8 -1.6,-2 -3.5,-2 l -5.7,0 0,14.4 -3.4,0 0,-31.2 z m 11.1,13.8 c 4.1,0 6.6,-2.7 6.6,-7 0,-4.2 -2.5,-6.8 -6.6,-6.8 l -7.6,0 0,13.8 7.6,0 z"
             id="XMLID_379_" />
          <path
             style="fill:#d28266"
             inkscape:connector-curvature="0"
             d="m 449.2,499.9 -3.2,0 0,-3 13.7,0 c 10.3,0 17.2,6.3 17.2,17.1 0,10.9 -6.9,17.2 -17.2,17.2 l -7.6,0 c -2.1,0 -3,-0.9 -3,-3 l 0,-28.3 z m 4.5,28.2 5.7,0 c 8.4,0 14,-5 14,-14.1 0,-9.1 -5.6,-14.1 -14,-14.1 l -6.8,0 0,27.1 c 0,0.8 0.4,1.1 1.1,1.1 z"
             id="XMLID_376_" />
          <path
             style="fill:#d28266"
             inkscape:connector-curvature="0"
             d="m 502.9,528.1 1.8,0 c 0.7,0 1,-0.3 1.1,-1.1 l 2.4,-30.2 3.5,0 9.1,19.9 c 0.8,1.8 1.7,4 1.7,4 l 0.1,0 c 0,0 0.9,-2.3 1.7,-4 l 9.1,-19.9 3.5,0 2.1,30.2 c 0,0.7 0.4,1.1 1.1,1.1 l 1.9,0 0,3 -3.3,0 c -2.1,0 -2.8,-0.9 -3,-3 l -1.6,-20.8 c -0.1,-1.9 -0.1,-4.8 -0.1,-4.8 l -0.1,0 c 0,0 -0.9,3 -1.8,4.8 l -8.1,17.4 -3.1,0 -8.1,-17.4 c -0.8,-1.7 -1.8,-4.9 -1.8,-4.9 l -0.1,0 c 0,0 0,3 -0.1,4.9 l -1.6,20.8 c -0.1,2.1 -0.9,3 -3,3 l -3.3,0 0,-3 z"
             id="XMLID_374_" />
          <path
             style="fill:#d28266"
             inkscape:connector-curvature="0"
             d="m 552.7,501 c 0,-0.7 -0.4,-1.1 -1.1,-1.1 l -2.1,0 0,-3 3.6,0 c 2.1,0 3,0.9 3,3 l 0,19.4 c 0,5.7 3.6,9.3 9.2,9.3 5.6,0 9.3,-3.6 9.3,-9.4 l 0,-19.3 c 0,-2.1 0.9,-3 3,-3 l 3.6,0 0,3 -2.2,0 c -0.7,0 -1.1,0.3 -1.1,1.1 l 0,18.4 c 0,7.4 -5.1,12.3 -12.6,12.3 -7.6,0 -12.7,-4.9 -12.7,-12.3 l 0,-18.4 z"
             id="XMLID_372_" />
          <path
             style="fill:#d28266"
             inkscape:connector-curvature="0"
             d="m 591.6,524.4 c 0,0 3.5,4.2 8.9,4.2 3.8,0 6.8,-2.4 6.8,-6.1 0,-8.5 -16.9,-6.8 -16.9,-17.4 0,-4.8 4.1,-8.8 10.5,-8.8 3.3,0 9.3,1.4 9.3,5.9 l 0,2.4 -3.2,0 0,-1.6 c 0,-2 -2.8,-3.6 -6,-3.6 -4.4,0 -7,2.6 -7,5.5 0,7.9 16.9,6 16.9,17.3 0,5.1 -3.9,9.5 -10.4,9.5 -7,0 -10.9,-4.9 -10.9,-4.9 l 2,-2.4 z"
             id="XMLID_370_" />
          <path
             style="fill:#d28266"
             inkscape:connector-curvature="0"
             d="m 620,528.1 3.2,0 0,-28.2 -3.2,0 0,-3 9.8,0 0,3 -3.3,0 0,28.2 3.3,0 0,3 -9.8,0 0,-3 z"
             id="XMLID_368_" />
          <path
             style="fill:#d28266"
             inkscape:connector-curvature="0"
             d="m 655.7,496.3 c 4.9,0 12.8,2.1 12.8,7.3 l 0,2.8 -3.2,0 0,-1.9 c 0,-3.2 -5.6,-5 -9.5,-5 -7.6,0 -13.4,5.9 -13.4,14.2 0,8.2 5.8,14.8 13.6,14.8 7.1,0 11.2,-4.8 11.2,-4.8 l 1.9,2.5 c 0,0 -4.7,5.6 -13.2,5.6 -10,0 -17.1,-8 -17.1,-18 0,-10 7.2,-17.5 16.9,-17.5 z"
             id="XMLID_366_" />
        </g>
      </g>
      <g
         transform="translate(-88.323359,-258.4)"
         id="XMLID_2_">
        <polygon
           style="fill:#424143"
           points="631.9,358.4 632.1,368.2 633.6,361.2 634.9,362.2 635.6,356.4 637.1,357.5 636.9,347.7 635.4,354.7 634.1,353.7 633.4,359.5 "
           id="XMLID_80_" />
        <polygon
           style="fill:#424143"
           points="619.3,338.7 622.3,349.8 619.7,349.3 623,358.1 620.1,357.5 627.4,371.4 624.5,360.3 627,360.8 623.8,352 626.7,352.5 "
           id="XMLID_79_" />
        <polygon
           style="fill:#424143"
           points="606.9,350.9 612,358.7 609.9,358.9 614.7,364.9 612.3,365.2 621.5,374 616.4,366.2 618.5,365.9 613.7,360 616.1,359.7 "
           id="XMLID_78_" />
        <polygon
           style="fill:#424143"
           points="134.7,304.1 131.8,300.5 129.7,304.6 134.3,321.7 "
           id="XMLID_77_" />
        <polygon
           style="fill:#424143"
           points="141.2,309.5 139.6,306.2 137.2,309 137.4,323.2 "
           id="XMLID_76_" />
        <polygon
           style="fill:#424143"
           points="133,322.8 126.7,310.1 123.3,308.7 123.4,312.4 "
           id="XMLID_75_" />
        <polygon
           style="fill:#424143"
           points="302.1,433.6 295.4,425.9 297.6,425.3 291.5,419.5 294.1,418.8 282.7,410.6 289.5,418.3 287.2,418.9 293.3,424.7 290.8,425.4 "
           id="XMLID_74_" />
        <polygon
           style="fill:#424143"
           points="316.2,423.6 305.6,418.4 307.7,416.7 298.7,413.3 301.1,411.4 285.3,407.8 295.9,413 293.8,414.6 302.9,418 300.5,420 "
           id="XMLID_73_" />
        <polygon
           style="fill:#424143"
           points="490.5,263.5 493.2,273.4 490.9,273 493.8,280.9 491.1,280.4 497.7,292.9 495.1,282.9 497.4,283.3 494.5,275.5 497.1,275.9 "
           id="XMLID_72_" />
        <polygon
           style="fill:#424143"
           points="500.9,296 505.8,283.2 508,285.4 511,274.6 513.5,277.2 516.1,258.4 511.2,271.3 509,269 506,279.9 503.5,277.3 "
           id="XMLID_71_" />
        <polygon
           style="fill:#424143"
           points="528.2,277.7 519.9,285.1 519.2,282.6 513.1,289.2 512.3,286.5 503.5,298.8 511.8,291.5 512.5,293.9 518.6,287.3 519.4,290 "
           id="XMLID_70_" />
        <path
           style="fill:#424143"
           inkscape:connector-curvature="0"
           d="m 540.4,425.1 c 0.1,0.1 0.3,0.2 0.5,0.3 l 0.3,0 c 0,0 0,0 0.1,0 0.1,0 0.3,-0.1 0.4,-0.1 l 2.9,0.3 c 0,0.5 0.1,0.9 0.3,1.3 0.3,0.5 0.8,0.8 1.3,0.8 0,0 0.1,0 0.1,0 0.5,0 0.9,-0.2 1.3,-0.6 0.3,-0.4 0.6,-0.9 0.6,-1.4 0,-0.4 2.9,-44.1 4.3,-58.5 l 0,0 c 1.3,-14.2 6.7,-56.7 6.7,-57.2 0,-0.1 0,-0.3 0,-0.4 l 0.3,-1.9 c 0.1,-0.9 -0.7,-1.7 -1.4,-2.1 l -5.3,-2.6 c -0.2,-0.1 -0.5,-0.1 -0.7,0 -0.2,0.1 -0.3,0.3 -0.4,0.6 l -0.3,4 -11.1,116.8 0,0 0,0 0,0.2 c -0.1,0.2 0,0.3 0.1,0.5 z m 8.4,-58.3 c -1,10.5 -2.8,36.6 -3.7,50.1 -0.8,-0.4 -1.5,-0.9 -2.2,-1.6 l 9.8,-103.3 2.4,1.2 c -1.4,10.5 -5.2,41.8 -6.3,53.6 z"
           id="XMLID_67_" />
        <path
           style="fill:#424143"
           inkscape:connector-curvature="0"
           d="m 742.4,336.8 -6,-5.6 0.1,-0.7 c 0,-0.3 -0.1,-0.6 -0.4,-0.7 l -6.2,-3.2 c 0,0 -0.1,0 -0.1,-0.1 l -8.3,-2.1 c -0.2,0 -0.3,0 -0.5,0 l -3,-1.4 c -0.1,-0.1 -0.3,-0.1 -0.4,-0.1 -1.6,-1 -4.1,-3.6 -5.7,-5.9 l -0.1,-0.1 c 0,-0.1 -0.1,-0.1 -0.1,-0.2 0.2,0 0.5,-0.1 0.7,-0.2 0.5,-0.4 0.6,-1.2 0.2,-1.7 l -0.9,-1.3 c -0.1,-0.2 -0.3,-0.3 -0.4,-0.3 -0.4,-0.4 -0.8,-0.9 -1.1,-1.3 0.1,-0.1 0.1,-0.2 0.1,-0.2 0.1,-0.3 0.1,-0.8 -0.6,-1.3 -0.7,-0.5 -1.2,-0.4 -1.5,-0.2 -1.5,-1.3 -3.2,-2.3 -5.1,-3.2 -2,-1 -6.6,-1.6 -10.5,0 -1.9,0.8 -3.5,2.3 -4.7,4 l -3.5,0 c -0.2,0 -0.4,0.1 -0.5,0.2 -0.1,0.1 -0.2,0.3 -0.2,0.5 l 0.2,6.5 c -0.2,0 -0.3,0.1 -0.5,0.1 L 683,318 c -0.5,-0.2 -1.1,0 -1.4,0.7 l -0.6,1.4 c -0.2,0.3 -0.2,0.7 -0.1,1 0.1,0.2 0.2,0.4 0.4,0.5 l 1.2,0.6 c -0.4,0.8 -0.7,1.6 -1.1,2.3 -1,0.1 -1.9,0.8 -2.5,2 -0.6,1.2 -0.5,2.4 0.1,3.2 l -0.4,0.8 c -0.3,0 -0.5,0.1 -0.7,0.4 l -6.5,14.7 -1.4,3 c -0.2,-0.2 -0.3,-0.4 -0.6,-0.5 0,0 -0.1,0 -0.1,-0.1 0,0 -0.1,0 -0.1,-0.1 -0.4,-0.2 -0.9,-0.2 -1.3,0 -0.7,0.2 -1.3,0.9 -1.7,1.7 -0.4,0.8 -0.5,1.7 -0.2,2.4 0,0.1 0.1,0.1 0.1,0.2 -0.9,0 -1.9,0.6 -2.4,1.8 -0.1,0.3 -0.2,0.6 -0.3,0.9 -0.4,0.4 -0.7,0.9 -0.9,1.4 -0.3,0.7 -0.5,1.4 -0.5,2.1 0,0 0,0.1 -0.1,0.1 -0.5,1 -0.5,2.1 0,2.8 -0.8,0.2 -1.5,0.8 -2,1.7 -0.1,0.2 -0.2,0.4 -0.2,0.7 0,0 0,0 0,0 0,0 -0.1,0 -0.1,0 -0.8,-0.4 -1.9,0.2 -2.4,1.3 -0.2,0.5 -0.3,1 -0.2,1.5 -0.2,0 -0.5,0.1 -0.7,0.3 -0.4,0.2 -0.7,0.6 -1,1.1 -0.5,1.1 -0.3,2.3 0.6,2.7 0,0 0.1,0 0.1,0 0,0 0.1,0 0.1,0 0.4,0.2 0.9,0.2 1.4,-0.1 0.1,0.7 0.5,1.2 1,1.4 0,0 0.1,0 0.1,0 0,0 0.1,0 0.1,0.1 0.1,0 0.1,0.1 0.2,0.1 l -0.2,0.3 c 0,0 -0.1,0 -0.1,0 -0.1,0 -0.2,-0.1 -0.2,-0.1 -0.1,0 -0.1,-0.1 -0.2,-0.1 -1,-0.5 -2.2,-0.2 -3.2,0.8 l -0.1,-0.1 c 0.1,-0.4 -0.1,-0.8 -0.5,-1 0,0 -0.1,0 -0.1,0 -0.2,-0.1 -0.4,-0.1 -0.7,0 -0.2,0.1 -0.4,0.3 -0.5,0.5 l -17.5,35.6 -0.7,0.1 c 1.5,-3.9 3.8,-10.3 4.9,-15.6 0.9,-4.7 0.8,-11.5 -0.3,-19.1 0,-0.2 0,-0.3 0,-0.3 0,-0.2 0.4,-1.2 0.8,-2.1 l 2.4,-1 c 0.3,-0.1 0.5,-0.5 0.4,-0.9 l -0.2,-0.6 c -0.1,-0.2 -0.2,-0.3 -0.4,-0.4 -0.2,-0.1 -0.4,-0.1 -0.6,0 l -28.1,10.5 c 1.5,-0.9 2.2,-2.1 1.7,-3 -0.5,-1 -2.1,-1 -3.8,-0.2 -0.1,-0.2 -0.1,-0.3 -0.2,-0.5 -0.3,-0.6 -0.8,-0.9 -1.5,-0.9 0,0 0,0 0,0 l -1.5,-2.9 c 0,-0.2 0,-0.5 -0.1,-0.7 -0.1,-0.2 -0.3,-0.4 -0.5,-0.5 l -4.8,-9.2 c 0.3,-0.2 0.5,-0.5 0.6,-0.8 0.1,-0.4 0.1,-0.8 -0.1,-1.2 l -2.6,-5.1 c -0.4,-0.7 -1.2,-1 -1.9,-0.8 l -15.3,-29.5 c -0.9,-1.8 -3,-5.2 -5,-8.4 -0.5,-0.8 -0.9,-1.5 -1.4,-2.2 l 2,-15.3 c 0,-0.2 0,-0.4 -0.1,-0.5 -0.1,-0.1 -0.3,-0.2 -0.5,-0.3 l -16.3,-1.9 c -0.2,0 -0.4,0 -0.5,0.2 -0.1,0.1 -0.2,0.3 -0.3,0.5 l -12.6,138.1 c -2.9,1.3 -4.9,0.5 -5,0.4 -0.2,-0.1 -0.5,-0.1 -0.7,0.1 -0.2,0.1 -0.3,0.4 -0.3,0.6 0,0.1 0.4,3.6 0.5,7.8 l -3.2,-0.4 c -0.5,-1.6 -1.8,-2.8 -3.6,-3 -1.1,-0.1 -2.3,0.2 -3.1,0.9 -0.9,0.7 -1.5,1.7 -1.6,2.9 0,0 0,0 0,0 -0.3,2.3 1.4,4.5 3.7,4.7 0.2,0 0.3,0 0.5,0 1.4,0 2.7,-0.7 3.5,-1.8 l 3.7,0.4 c 0,1 -0.1,1.9 -0.2,2.9 -0.1,1 -0.3,2.1 -0.6,3.2 l -3.6,-0.4 c -0.2,-0.5 -0.4,-1 -0.8,-1.5 -0.7,-0.9 -1.7,-1.5 -2.8,-1.6 -1.1,-0.1 -2.3,0.2 -3.1,0.9 -0.9,0.7 -1.5,1.7 -1.6,2.9 -0.3,2.3 1.4,4.5 3.7,4.7 0.2,0 0.3,0 0.5,0 1,0 1.9,-0.3 2.6,-0.9 0.3,-0.2 0.6,-0.5 0.8,-0.8 l 3.4,0.4 c -1,3.6 -2,6.8 -2,6.9 -0.1,0.3 0,0.5 0.2,0.7 0.2,0.2 0.5,0.2 0.7,0.1 0,0 1.8,-0.7 3.3,-0.5 0.7,0.1 1.3,0.6 2,1.2 1.2,0.9 2.6,2.1 5.2,2.5 0.5,0.1 0.9,0.1 1.3,0.1 2.1,0 3.6,-0.7 4.7,-1.3 0.9,-0.4 1.5,-0.8 2.2,-0.6 1.8,0.3 3.1,1.2 3.1,1.2 0.2,0.2 0.5,0.2 0.8,0 0.2,-0.1 0.4,-0.4 0.3,-0.7 0,0 -0.3,-3.2 -0.4,-7.2 l 3,0.4 c 0.6,1.4 1.9,2.4 3.4,2.6 0.2,0 0.3,0 0.5,0 1,0 1.9,-0.3 2.6,-0.9 0.9,-0.7 1.5,-1.7 1.6,-2.9 0.1,-1.1 -0.2,-2.3 -0.9,-3.1 -0.7,-0.9 -1.7,-1.5 -2.9,-1.6 -1.1,-0.1 -2.2,0.2 -3.1,0.9 -0.4,0.4 -0.8,0.8 -1.1,1.3 l -3.1,-0.4 c 0.1,-0.9 0.1,-1.9 0.2,-2.8 0.1,-1 0.3,-2.1 0.5,-3.2 l 3.1,0.4 c 0.6,1.4 1.9,2.5 3.5,2.7 0.2,0 0.3,0 0.5,0 1,0 1.9,-0.3 2.6,-0.9 0.9,-0.7 1.5,-1.7 1.6,-2.9 0.3,-2.3 -1.4,-4.5 -3.7,-4.7 -1.7,-0.2 -3.3,0.7 -4.2,2.1 l -2.6,-0.3 c 0.9,-4 2,-7.5 2,-7.5 0.1,-0.2 0,-0.4 -0.1,-0.6 -0.1,-0.2 -0.3,-0.3 -0.6,-0.3 -0.1,0 -2.1,0 -4.7,-1.9 l 14.3,-106.7 15.8,30.5 c 0,0 0,0 0,0.1 l 1.5,2.9 -0.4,0.2 c -0.2,0.1 -0.3,0.2 -0.3,0.4 -0.1,0.2 0,0.4 0,0.5 l 3.1,5.9 c 0,0 0,0 0,0 0,0 0,0 0,0 l 2.9,5.6 0.2,5.9 c -0.1,0 -0.1,0.1 -0.2,0.1 -0.4,0.2 -0.6,0.5 -0.7,0.9 -0.1,0.4 -0.1,0.8 0.1,1.1 0.2,0.3 0.5,0.6 0.8,0.7 -0.1,0.4 -0.1,0.7 0.1,1.1 0.4,0.7 1.3,1 2,0.6 0,0 0,0 0,0 l 0.1,0.2 c 0,0.3 0,0.5 0.2,0.8 0.1,0.3 0.3,0.5 0.6,0.6 l 0.2,0.4 c 0,0.3 0,0.6 0.1,0.8 0.2,0.3 0.5,0.6 0.8,0.7 0.4,0.1 0.8,0.1 1.2,-0.1 0.4,-0.2 0.6,-0.5 0.7,-0.9 0.1,-0.2 0.1,-0.4 0.1,-0.6 l 0.5,0.9 c 0,0 0,0.1 0,0.1 0,0 0,0 0,0 l 2,3.8 c 0,0 0,0 0,0 l 6,11.5 c 0,0 0,0 0,0 0,0 0,0.1 0,0.1 l 0.8,1.5 c 0.1,0.2 0.2,0.3 0.4,0.3 0,0 0.1,0 0.1,0 l -1.2,0.6 c -0.5,0.3 -0.9,0.7 -1.1,1.3 -0.2,0.5 -0.1,1.1 0.1,1.6 0.3,0.5 0.7,0.9 1.2,1.1 0.1,0 0.2,0 0.2,0.1 -0.3,0.6 -0.3,1.3 0,1.9 0.2,0.5 0.7,0.8 1.1,1 -1.5,3.6 -3.1,7.3 -3.8,9.1 -0.2,0.5 -0.3,1.2 -0.3,2 -0.2,0.6 -0.4,1 -0.5,1.2 -0.4,0.9 -1.6,3.8 -2.4,5.6 0,0 -0.1,0.1 -0.1,0.1 -0.2,0.2 -0.2,0.4 -0.2,0.6 -1,2.5 -2.1,5.1 -2.5,6.3 -1.1,3.1 -2.6,13.1 4.9,19.1 0.5,0.7 1.2,1.3 2,1.6 0.4,0.2 0.8,0.3 1.2,0.4 0.1,0 0.1,0.1 0.2,0.1 2.8,1.3 5.5,1.9 8,1.9 7.1,0 12.4,-4.6 14.1,-8.2 0.4,-0.8 0.9,-2.1 1.6,-3.5 1.9,6.2 2.1,11.3 2.1,13 -0.2,0.2 -0.5,0.5 -0.6,0.9 -0.1,0.4 -0.1,0.9 0.1,1.3 0.1,0.3 0.5,0.7 1.3,0.9 0.3,0.1 0.8,0.2 1.5,0.2 1.7,0 4.5,-0.6 8.9,-2.9 9.6,-5 8.4,-8.2 8.2,-8.5 -0.5,-0.9 -1.4,-1 -2.1,-0.8 -2,-1.4 -8.9,-6.8 -14.1,-16.2 1.2,-2.9 2.3,-5.3 2.8,-6.4 0.1,-0.1 0.1,-0.3 0.2,-0.5 0.5,-0.2 1.2,-0.9 3.2,-5.3 0.7,-0.4 1.4,-0.4 1.9,-0.2 1.3,0.5 1.8,2.5 1.8,2.5 0.1,0.3 0.4,0.6 0.7,0.5 0.3,0 0.6,-0.3 0.6,-0.7 0.1,-1.8 -0.4,-3.1 -1.4,-4 -0.2,-0.2 -0.5,-0.4 -0.8,-0.5 0.4,-0.2 0.7,-0.5 0.9,-0.9 l 2.6,-5.6 c 0.2,-0.4 0.2,-0.9 0.1,-1.3 -0.2,-0.4 -0.5,-0.8 -0.9,-1 l -1.6,-0.7 c 1.5,-3.6 2.8,-6.7 3.6,-8.4 1.2,-2.7 3.1,-7.4 4.9,-11.5 0.2,0.2 0.5,0.4 0.8,0.6 0.6,0.3 1.2,0.3 1.8,0.1 0.6,-0.2 1,-0.6 1.3,-1.2 0.5,-1.1 0,-2.5 -1.1,-3.1 -0.3,-0.1 -0.5,-0.2 -0.8,-0.2 0.1,-0.3 0.2,-0.5 0.3,-0.7 l 1.1,0.4 c 0.3,0.1 0.7,0 0.9,-0.4 l 0.3,-0.7 c 0.1,-0.2 0.1,-0.4 0,-0.5 -0.1,-0.2 -0.2,-0.3 -0.4,-0.4 l -0.8,-0.4 c 0.3,-0.5 0.7,-1.1 1.1,-1.9 0.9,-0.3 1.8,-1.2 2.3,-2.4 0.5,-1.1 0.6,-2.2 0.3,-3 0.1,0 0.1,0 0.2,-0.1 0.2,-0.1 0.3,-0.2 0.4,-0.4 l 1.8,-5.2 0.6,0.2 c 0.3,0.1 0.7,0 0.9,-0.4 L 672,372 c 0.1,-0.2 0.1,-0.4 0,-0.5 -0.1,-0.2 -0.2,-0.3 -0.4,-0.4 l -0.7,-0.3 1,-3 c 1.1,-0.2 2.2,-1.3 2.9,-2.8 0.5,-1.2 0.6,-2.3 0.4,-3.3 0.4,-0.2 0.8,-0.7 1.2,-1.2 0.2,0 0.5,0 0.6,-0.2 1.2,-1.1 1.9,-2.7 2,-4.3 0,-0.9 -0.2,-1.8 -0.6,-2.4 0.6,-1 0.6,-1.8 0.5,-2.3 0,-0.1 -0.1,-0.3 -0.1,-0.4 0.4,-1.1 1.6,-4.1 2.9,-7.4 l 0.7,0.3 c 0.1,0 0.1,0 0.2,0 0.1,0 0.1,0.1 0.2,0.1 l 0.4,0.2 c 0.4,0.1 0.8,0 0.9,-0.4 l 0.2,-0.5 1.7,65.1 c -0.4,1.8 -1,4.1 -2,5.5 -2.6,3.6 -5.6,4.7 -5.7,4.7 -0.2,0.1 -0.3,0.2 -0.4,0.4 -0.1,0.2 -0.1,0.4 0,0.5 0,0.1 2.9,8.6 3.6,25.2 0.2,4.5 -0.5,10.6 -1.1,16.1 -1.1,10 -1.5,15.2 0.8,15.8 0.1,0 0.2,0 0.3,0 0.9,0 1.6,-0.9 2.6,-2 1.2,-1.4 2.6,-3.1 4.4,-3.5 0.8,-0.2 3.1,0.2 4.3,0.4 0.4,0.1 0.7,-0.1 0.8,-0.5 l 1.3,-4.4 1.2,0 c 0.2,0.4 0.4,0.7 0.7,1 0.6,0.6 1.5,1 2.4,1 0,0 0,0 0,0 1.9,0 3.4,-1.5 3.3,-3.4 0,-1.8 -1.5,-3.3 -3.4,-3.3 0,0 0,0 0,0 -0.9,0 -1.7,0.4 -2.4,1 -0.3,0.3 -0.5,0.6 -0.6,0.9 l -0.3,0 1.4,-4.6 1.3,0 c 0.2,0.4 0.4,0.7 0.7,1 0.6,0.6 1.5,1 2.4,1 0,0 0,0 0,0 0.9,0 1.7,-0.4 2.4,-1 0.6,-0.6 1,-1.5 1,-2.4 0,-0.9 -0.4,-1.7 -1,-2.4 -0.6,-0.6 -1.5,-1 -2.4,-1 0,0 0,0 0,0 -0.9,0 -1.7,0.4 -2.4,1 -0.3,0.3 -0.5,0.6 -0.6,0.9 l -0.4,0 1.6,-5.2 1.4,0 c 0.2,0.4 0.4,0.7 0.7,1 0.6,0.6 1.5,1 2.4,1 0,0 0,0 0,0 0.9,0 1.7,-0.4 2.4,-1 0.6,-0.6 1,-1.5 1,-2.4 0,-0.9 -0.4,-1.7 -1,-2.4 -0.6,-0.6 -1.5,-1 -2.4,-1 0,0 0,0 0,0 -0.9,0 -1.7,0.4 -2.4,1 -0.3,0.3 -0.5,0.6 -0.6,0.9 l -0.5,0 1.6,-5.2 1.3,0 c 0.5,1.2 1.7,1.9 3.1,1.9 0,0 0,0 0,0 1.9,0 3.4,-1.5 3.3,-3.4 0,-1.8 -1.5,-3.3 -3.4,-3.3 0,0 0,0 0,0 -1.3,0 -2.4,0.8 -3,1.9 l -0.4,0 1.7,-5.6 1.1,0 c 0.2,0.4 0.4,0.7 0.7,1 0.6,0.6 1.5,1 2.4,1 0,0 0,0 0,0 1.9,0 3.4,-1.5 3.3,-3.4 0,-1.8 -1.5,-3.3 -3.4,-3.3 0,0 0,0 0,0 -0.9,0 -1.7,0.4 -2.4,1 -0.3,0.3 -0.5,0.6 -0.6,0.9 l -0.2,0 1.8,-6 1.1,0 c 0.5,1.2 1.7,2 3.1,2 0,0 0,0 0,0 1.9,0 3.4,-1.5 3.3,-3.4 0,-1.8 -1.5,-3.3 -3.4,-3.3 0,0 0,0 0,0 -1.3,0 -2.4,0.8 -3,1.9 l -0.2,0 2,-6.6 c 0.1,-0.2 0,-0.4 -0.1,-0.5 -0.1,-0.2 -0.2,-0.3 -0.4,-0.3 0,0 -2.6,-0.7 -4.1,-2.2 -1.1,-1 -1.5,-2.5 -1.8,-3.8 l 1,-90.7 c 1.1,1.1 2.2,2.5 3.1,3.6 0.7,0.9 1.3,1.7 1.8,2.1 2,1.8 3.7,3.1 4.9,3.8 0,0.2 0.2,0.4 0.4,0.6 l 3,1.4 c 0,0.2 0.1,0.4 0.3,0.5 l 5.5,3.1 0.1,0.4 c 0,0.2 0.2,0.3 0.3,0.4 l 1.7,1 c 0,0 0.1,0 0.1,0.1 l 13.8,4.4 c 0.2,0.1 0.5,0 0.7,-0.1 l 1.1,-1 c 0.1,-0.1 0.1,-0.1 0.2,-0.2 l 0.1,-0.2 c 0.4,-1.3 0.4,-1.6 0.1,-1.8 z m -43.1,-28.2 c -0.8,0 -1.6,0.1 -2.4,0.2 l 0,0 c 0.1,-0.2 0.1,-0.4 0.1,-0.6 2.1,-0.2 4.2,0.2 5.3,0.7 -1,-0.2 -2,-0.3 -3,-0.3 z m -5.6,0.3 c 0,0 0,0.1 0,0.1 -0.5,0.3 -1.2,0.8 -1.7,1 -0.5,0.2 -0.9,0.5 -1.2,0.7 0.7,-0.7 1.6,-1.3 2.5,-1.8 0.3,0.1 0.3,0 0.4,0 z M 663.2,391 c -0.1,0.2 -0.3,0.3 -0.5,0.2 -0.2,-0.1 -0.3,-0.3 -0.2,-0.5 l 0,0 c 0.1,-0.2 0.3,-0.3 0.5,-0.2 0.1,0.1 0.2,0.2 0.2,0.2 0,0.1 0,0.2 0,0.3 z m -27.4,24.3 -1.3,-0.6 1.3,-2.6 c -0.4,1.1 -0.3,2.3 0,3.2 z m 4.1,-8 c -0.8,0.1 -1.6,0.7 -2.4,1.5 -0.1,0 -0.1,-0.1 -0.2,-0.1 l 2.1,-4.3 c -0.1,1.2 0,2.2 0.5,2.9 z m 13.3,-29.1 c 0.2,0.7 0.7,1.2 1.3,1.4 0.1,0 0.2,0.1 0.2,0.1 0.1,0 0.1,0.1 0.2,0.1 0,0 0,0 0,0 l -0.1,0.2 c -0.2,-0.2 -0.4,-0.4 -0.7,-0.5 -0.1,0 -0.2,-0.1 -0.2,-0.1 -0.1,0 -0.1,-0.1 -0.2,-0.1 -0.7,-0.3 -1.5,-0.3 -2.2,0.1 l 1.5,-3.1 c -0.1,0.7 0,1.4 0.2,1.9 z M 627.4,431 c -0.2,-0.1 -0.3,-0.1 -0.5,-0.1 -0.1,0 -0.2,0 -0.3,0.1 l 1.1,-2.3 0.7,1.4 c -0.3,0.2 -0.6,0.5 -1,0.9 z m -2.7,3.9 1.3,-2.7 c 0.1,0.2 0.2,0.3 0.3,0.4 0,0.1 -0.1,0.2 -0.1,0.3 -0.4,0.8 -0.6,1.6 -0.7,2.4 l -0.8,-0.4 z m -4.8,7.3 c 0.3,-0.6 1.1,-2.5 2.3,-5.1 0.1,0.1 0.2,0.2 0.3,0.2 0,0 0.1,0 0.1,0 0.5,0.2 1,0 1.3,-0.5 l 0.1,-0.2 1.9,0.9 c 0.2,0.5 0.5,0.9 0.9,1.1 l -3,6.2 c -0.1,0.3 -0.4,0.5 -0.7,0.6 -0.2,0.1 -0.6,0.2 -1.1,-0.1 -0.5,-0.2 -1.2,-0.7 -1.7,-1.4 -0.8,-0.9 -0.5,-1.5 -0.4,-1.7 z m 16.7,-24.1 c -0.1,-0.1 -0.2,-0.1 -0.3,-0.2 -0.4,-0.2 -0.9,-0.2 -1.4,-0.1 -0.4,-0.4 -0.8,-0.7 -1.3,-0.8 0,0 -0.1,0 -0.1,0 l 0.3,-0.5 3,1.5 -0.2,0.1 z m 13.5,-31 c 0.1,0 0.2,0.1 0.2,0.1 0.1,0 0.1,0.1 0.2,0.1 0.2,0.1 0.5,0.2 0.7,0.2 l -0.2,0.5 -2.9,-1.4 0.7,-1.3 c 0.1,0.8 0.6,1.5 1.3,1.8 z m -1,2.1 c -0.3,0 -0.5,0.1 -0.8,0.2 -1,0.4 -2,1.3 -2.6,2.6 -1,2.2 -0.6,4.4 0.9,5.1 0,0 0.1,0 0.1,0 l -1.1,2.3 c -0.1,-0.1 -0.3,-0.3 -0.5,-0.3 -1.1,-0.5 -2.5,0 -3.6,1.3 l 5.8,-12.1 1.8,0.9 z m -17.4,26.7 -0.1,-0.1 c 0.7,-1.6 1.6,-3.5 2.4,-5.6 l 0.5,-0.1 -2.8,5.8 z m -16.8,-35.5 c 0.9,0.2 2.9,0.9 3.7,1.9 1,1.3 1.6,3.1 1.9,5.3 0.1,0.7 0.3,3.3 0.1,6.5 l -6.9,-13.3 1.2,-0.4 z m -12.4,3 -1.8,-3.5 0.1,-0.8 2.3,4.5 c -0.1,0 -0.4,-0.1 -0.6,-0.2 z m 1.1,1.8 c 0.1,-0.2 0.1,-0.3 0.1,-0.5 l 0.4,0.8 c -0.2,-0.1 -0.4,-0.2 -0.5,-0.3 z"
           id="XMLID_49_" />
        <path
           style="fill:#424143"
           inkscape:connector-curvature="0"
           d="m 572.7,420.9 c -1.1,-0.5 -2.5,-0.6 -4.3,-0.3 -0.9,0.1 -2.5,0.5 -3.7,1.4 -1.3,0.9 -1.8,2.2 -1.6,3.7 0.2,1.4 1.4,3.5 2.9,5.4 1,1.2 2.8,3.1 4.3,3.1 0.1,0 0.2,0 0.3,0 2.6,-0.4 4.8,-7.7 4.4,-10.3 -0.3,-1.4 -1,-2.4 -2.3,-3 z"
           id="XMLID_48_" />
        <path
           style="fill:#424143"
           inkscape:connector-curvature="0"
           d="m 221.4,406.7 c 0.3,-1.2 0,-2.4 -0.8,-3.3 -0.5,-0.6 -1,-1 -1.7,-1.2 -1.9,-0.7 -3.9,0.1 -4.8,1.9 -1.1,-0.1 -2.2,0.6 -2.7,1.6 0,0 0,0.1 -0.1,0.1 l 0,0.1 c 0,0 0,0.1 0,0.1 -0.3,0.9 -0.1,1.8 0.5,2.5 0,0.1 0.1,0.1 0.1,0.1 -1,0.1 -1.8,0.7 -2.2,1.6 0,0 -0.1,0.1 -0.1,0.1 l 0,0.1 c 0,0 0,0.1 0,0.1 -0.3,0.9 -0.1,1.8 0.5,2.5 0.1,0.1 0.1,0.1 0.2,0.2 -0.9,0.1 -1.8,0.7 -2.2,1.6 0,0 -0.1,0.1 -0.1,0.1 l 0,0.1 c 0,0 0,0.1 0,0.1 -0.3,0.9 -0.1,1.8 0.5,2.5 0,0 0.1,0.1 0.1,0.1 -1,0.1 -1.9,0.7 -2.3,1.6 0,0 -0.1,0.1 -0.1,0.1 l 0,0.1 c 0,0 0,0.1 0,0.1 -0.3,0.9 -0.1,1.8 0.5,2.5 0.1,0.2 0.3,0.3 0.4,0.4 -0.1,0.2 -0.2,0.4 -0.1,0.6 l 0,0.1 c 0,0.2 0,0.3 0.1,0.5 0,0.4 0,1.3 -0.4,2.5 -0.3,0.9 -1,2 -1.8,3.2 -0.8,1.3 -1.7,2.7 -2.2,4 -0.5,1.2 -0.7,3.5 -0.4,4.9 0.1,0.6 0.4,1.2 0.8,1.7 l 0,0.1 c 0.6,0.8 1.8,1.3 2.9,1.3 0.2,0 0.4,0 0.6,0 0.6,-0.1 1.1,-0.4 1.6,-0.8 1.1,-0.8 2.5,-2.8 2.9,-4 0.5,-1.2 0.7,-2.9 0.9,-4.6 0.2,-1.4 0.4,-2.7 0.7,-3.5 0.3,-1 0.9,-1.8 1.3,-2.2 0.2,-0.1 0.4,-0.2 0.4,-0.4 l 0.2,-0.6 c 1.1,0 2.2,-0.6 2.6,-1.7 0,0 0,-0.1 0.1,-0.1 l 0,-0.1 c 0,0 0,-0.1 0,-0.1 0.2,-0.9 0,-1.8 -0.5,-2.5 -0.1,-0.1 -0.1,-0.2 -0.2,-0.2 0.9,-0.1 1.7,-0.7 2.1,-1.6 0,0 0.1,-0.1 0.1,-0.1 l 0,-0.1 c 0,0 0,-0.1 0,-0.1 0.2,-0.9 0,-1.8 -0.5,-2.5 0,0 -0.1,-0.1 -0.1,-0.1 1,-0.1 1.8,-0.7 2.3,-1.7 0,0 0.1,-0.1 0.1,-0.1 l 0,-0.1 c 0,0 0,-0.1 0,-0.1 0.2,-0.9 0,-1.8 -0.5,-2.5 0,-0.1 -0.1,-0.1 -0.2,-0.2 0.9,-0.1 1.8,-0.7 2.2,-1.7 0,0 0,-0.1 0.1,-0.1 l 0,-0.1 c 0,0 0,-0.1 0,-0.1 0.2,-0.9 0,-1.8 -0.5,-2.5 0,0 -0.1,-0.1 -0.3,-0.2 z"
           id="XMLID_47_" />
        <path
           style="fill:#424143"
           inkscape:connector-curvature="0"
           d="m 106,437 c 0,-0.1 0,-0.1 0,-0.2 l -0.3,-4.3 c 0.2,-0.1 0.5,-0.2 0.6,-0.4 0.2,-0.3 0.4,-0.6 0.3,-1 0,-0.6 -0.5,-1.2 -1.1,-1.2 l 0,-0.7 c 0.6,-0.2 1,-0.7 1,-1.4 0,-0.6 -0.5,-1.2 -1.1,-1.2 l 0,-0.5 c 0.1,-0.1 0.1,-0.2 0.1,-0.4 0.1,-0.2 0,-0.4 -0.1,-0.6 0,-0.1 -0.1,-0.2 -0.2,-0.2 l -0.9,-14 c 0.1,-0.1 0.1,-0.3 0.2,-0.5 0.1,-0.3 0,-0.7 -0.3,-0.9 l -0.3,-4.7 c 0.1,-0.1 0.2,-0.1 0.3,-0.2 0.2,-0.2 0.2,-0.4 0.2,-0.6 l 0,0 0.5,-3 c 0,0 0,-0.1 0,-0.1 0,0 0,0 0,-0.1 l -1,-16.3 c 0.5,0 0.9,-0.5 0.8,-1 l 0,-0.1 c 0,-0.2 -0.1,-0.5 -0.3,-0.6 -0.2,-0.2 -0.4,-0.2 -0.6,-0.2 l -0.1,-0.9 c 0.3,-0.2 0.7,-0.4 1,-0.8 0.8,-0.8 1.4,-1.9 0.8,-2.5 -0.1,-0.1 -0.2,-0.2 -0.4,-0.2 0.1,-0.2 0.2,-0.4 0.3,-0.5 0.4,-0.8 0.1,-1.2 -0.1,-1.4 -0.2,-0.2 -0.4,-0.3 -0.7,-0.3 0,0 0,0 0,0 -0.7,0 -1.6,0.7 -1.9,1 0,0 -0.1,0.1 -0.1,0.1 l 0,-0.3 c 0,-0.1 0.1,-0.2 0.1,-0.3 l 0,-0.1 c 0,-0.1 0,-0.2 -0.1,-0.3 l -0.2,-2.9 c 0,-0.1 0.1,-0.2 0.1,-0.4 l 0,-0.1 c 0,-0.1 0,-0.2 -0.1,-0.3 l -0.2,-2.8 c 0.1,-0.1 0.1,-0.2 0.1,-0.4 l 0,-0.1 c 0,-0.1 0,-0.2 -0.1,-0.4 l -0.1,-1.5 c 0.1,-0.1 0.1,-0.2 0.1,-0.4 l 0,-0.1 c 0,-0.1 0,-0.3 -0.1,-0.4 l -0.2,-2.4 c 0.1,-0.1 0.1,-0.3 0.1,-0.4 l 0,-0.1 c 0,-0.4 -0.3,-0.7 -0.7,-0.8 l -0.8,-11.7 c 1,-0.1 1.7,-1.3 1.6,-2.6 -0.1,-1.4 -0.9,-2.4 -1.9,-2.4 L 99.3,332 c 0.5,-0.1 1,-0.4 1.3,-0.9 0.3,-0.5 0.4,-1.1 0.3,-1.7 -0.1,-0.8 -0.4,-1.6 -0.9,-2 -0.3,-0.3 -0.7,-0.4 -1.1,-0.4 l -0.2,-3.3 c 0.2,-0.3 0.3,-0.6 0.4,-0.9 0.1,-0.3 0,-0.5 -0.1,-0.7 0.3,-1.3 0.6,-2.7 0.8,-4.1 0.4,-2.3 0.9,-4.9 1.5,-5.5 0.4,-0.4 0.6,-1 0.3,-1.5 -0.7,-1.5 -4.1,-2.9 -6.8,-2.7 -2.7,0.2 -5.9,1.9 -6.4,3.5 -0.2,0.6 0,1.2 0.5,1.5 0.5,0.4 1.2,2.7 1.8,4.6 0.5,1.5 1,3.2 1.6,4.7 -0.1,0.2 -0.1,0.5 0,0.7 0.1,0.3 0.3,0.6 0.5,0.9 l 2.8,42.9 c 0,0 0,0 -0.1,0 l -0.1,0 c 0,0 -0.1,0 -0.1,0 l -0.7,0 c -0.5,0 -0.9,0.5 -0.9,1 l 0,0.1 c 0,0.2 0.1,0.3 0.2,0.5 L 94,370 c -0.3,0.2 -0.6,0.4 -0.9,0.7 -0.8,0.8 -1.4,1.9 -0.8,2.5 0.1,0.1 0.4,0.3 0.8,0.3 -0.3,0.6 -0.4,1.1 0,1.5 0.2,0.2 0.4,0.3 0.7,0.3 0,0 0,0 0,0 0.7,0 1.6,-0.7 1.9,-1 0.1,-0.1 0.2,-0.2 0.3,-0.4 l 2.3,35.9 c -0.2,0.2 -0.2,0.6 -0.1,0.9 0.1,0.1 0.1,0.3 0.2,0.4 l 0.9,14 c -0.2,0.2 -0.3,0.6 -0.2,0.9 0.1,0.2 0.1,0.3 0.2,0.4 l 0.1,1.6 c -0.1,0.1 -0.1,0.2 -0.2,0.3 -0.1,0.2 -0.1,0.4 0,0.6 0.1,0.2 0.1,0.3 0.2,0.5 l 0.1,2.2 c 0,0.1 -0.1,0.1 -0.1,0.2 -0.1,0.2 -0.1,0.4 0,0.6 0,0.1 0.1,0.2 0.2,0.3 l 0.3,4.4 c 0,0.1 0,0.1 0,0.2 0.3,1.4 1.5,2.8 3,2.8 0,0 0.1,0 0.1,0 1.8,0 2.9,-1.9 3,-3.1 z"
           id="XMLID_46_" />
        <path
           style="fill:#424143"
           inkscape:connector-curvature="0"
           d="m 294,446.5 c -0.8,0.1 -1.3,0.9 -1.4,1.8 l -0.2,0 c -0.4,-0.7 -0.9,-1.4 -1.5,-2.1 0.3,0.2 0.6,0.3 0.9,0.3 0.1,0 0.2,0 0.3,0 1.1,-0.2 1.7,-1.5 1.4,-3 -0.3,-1.5 -1.3,-2.4 -2.4,-2.2 -0.8,0.1 -1.3,0.9 -1.4,1.8 l -1,0.2 c -0.8,-1.1 -1.4,-2.2 -1.6,-3 0,-0.1 0,-0.1 0,-0.2 l 1.2,-0.2 c 0.4,0.8 1.1,1.3 1.8,1.3 0.1,0 0.2,0 0.3,0 0.6,-0.1 1,-0.5 1.3,-1.2 0.2,-0.5 0.2,-1.2 0.1,-1.8 -0.1,-0.6 -0.4,-1.2 -0.8,-1.6 -0.5,-0.5 -1,-0.7 -1.6,-0.6 -0.3,0.1 -0.6,0.2 -0.9,0.5 0.4,-0.7 0.6,-1.5 0.4,-2.2 -0.4,-1.8 -1.4,-3 -2.9,-3.7 -0.3,-0.1 -0.6,-0.3 -1,-0.4 l -4.1,-18.8 c -0.1,-0.4 -0.4,-0.6 -0.8,-0.5 l -9.9,1.9 c -0.2,0 -0.4,0.2 -0.5,0.3 -0.1,0.2 -0.1,0.4 -0.1,0.6 l 5.3,19.5 c -1.6,1.7 -2.6,4.2 -1.8,8 0.5,2.4 4.8,6.8 6.6,8.5 -1.5,0.9 -4.4,3.1 -3.5,6.2 1.2,4.1 4.7,5.2 7.6,5.2 1,0 2,-0.1 2.7,-0.3 0,0 0,0 0,0 3.1,-0.8 6.7,-3 6.8,-9.1 0,-0.1 0,-0.2 0,-0.2 0.4,0.4 0.8,0.6 1.3,0.6 0.1,0 0.2,0 0.3,0 1.1,-0.2 1.7,-1.5 1.4,-3 -0.2,-1.8 -1.3,-2.8 -2.3,-2.6 z m -6.2,-8.9 c 0.1,-0.1 0.2,-0.3 0.2,-0.4 0,0.1 -0.1,0.3 -0.1,0.4 l -0.1,0 z"
           id="XMLID_43_" />
        <path
           style="fill:#424143"
           inkscape:connector-curvature="0"
           d="m 264.7,411.1 c 2.9,-0.3 6,-0.8 8.6,-1.4 0.2,0 16.5,-4 15.8,-7.1 -0.2,-1 -1.3,-1.3 -2.5,-1.7 -1.4,-0.4 -3.3,-0.9 -5.2,-2.6 -3.4,-3.1 -5.7,-6.6 -9.1,-17.1 -3.3,-10.4 -16.8,-63.6 -17.6,-67.3 l -0.2,-0.9 c 0,0 0,0 0,-0.1 L 252,301.8 c 0,-0.2 -0.2,-0.3 -0.3,-0.4 -0.1,-0.1 -0.3,-0.1 -0.5,-0.1 l -0.5,-2.2 c -0.2,-0.9 -1.7,-2.9 -3.7,-4.4 -1.8,-1.4 -4.7,-3 -7.9,-2.2 l -7,1.6 c -5.6,1.3 -6.7,9.4 -6.4,10.9 l 0.5,2.2 c 0,0 0,0 0,0 -0.1,0.2 -0.1,0.3 -0.1,0.5 l 1.6,7.2 c 0,0.1 0,0.2 0,0.3 0,0.1 0,0.1 0,0.2 -0.2,0.4 -0.2,0.8 -0.3,1.3 0,0.2 -0.1,0.3 -0.1,0.5 0,0.2 -0.1,0.3 -0.1,0.5 0,0.1 -0.1,0.4 -0.1,0.5 0,0 0,0 0,0 0,0 -0.1,0 -0.1,0 -0.2,0.1 -0.7,0.3 -0.8,0.9 -0.1,0.3 -0.1,0.5 -0.1,0.8 0,0.1 0,0.2 0,0.3 0,0.2 -0.1,0.3 -0.2,0.6 -0.1,0.1 -0.1,0.3 -0.1,0.4 l -0.1,0.3 c -0.5,1.2 -1,2.4 -0.8,3.8 0,0 0,0 0,0.1 -0.2,0.7 -0.3,1.2 -0.5,1.5 0,0.1 -0.1,0.1 -0.2,0.2 -0.2,0.2 -0.5,0.5 -0.6,0.9 -0.1,0.3 -0.1,0.7 0,0.9 0,0.1 0,0.3 0,0.3 0,0.3 -0.2,0.5 -0.4,0.9 -0.2,0.3 -0.4,0.7 -0.5,1.1 -0.2,0.8 -0.4,1.8 0.2,2.7 0.2,0.4 0.5,0.7 0.8,0.9 -0.1,0 -0.2,0 -0.3,0 0,0 0,0 -0.1,0 -2,0.3 -2.7,2.4 -2.5,4.2 l 0,0.2 c 0,0.5 0.1,1.1 0.4,1.6 -0.4,0 -0.7,0.2 -0.8,0.3 -0.4,0.4 -0.3,1.1 -0.2,1.5 0,0.1 0,0.2 0,0.2 0,0 0,0.1 -0.1,0.1 0,0 0,0.1 -0.1,0.1 -1.8,0.7 -1.8,2.5 -1.9,3.8 l 0,0.1 0,0.1 c 0,0.6 0,1.4 0.5,2 0,0 0,0 0,0 -0.4,0.2 -0.5,0.6 -0.6,1 -0.4,-0.1 -0.8,0 -1,0.1 -1,0.5 -1.4,1.9 -1.6,3 0,0 0,0 0,0.1 0,1 0,2 0.3,2.7 0.4,0.9 1.3,1.1 2,1.1 -0.1,0.2 -0.1,0.5 -0.2,0.6 -0.1,0 -0.2,-0.1 -0.3,-0.1 -0.2,-0.1 -0.4,-0.2 -0.7,-0.3 -1.4,-0.5 -2.2,0.6 -2.4,1 -0.7,1.1 -1,2.6 -0.7,3.9 -0.3,0.3 -0.6,0.8 -0.6,1.3 0,0.2 0.1,0.5 0.3,0.8 -0.2,0.4 -0.2,0.7 -0.2,1 0,0.2 0,0.3 0,0.5 0,0.1 -0.1,0.4 -0.3,0.6 -0.1,0.2 -0.3,0.5 -0.4,0.8 -0.1,0.4 -0.2,1 -0.2,1.5 0,0.2 0,0.5 0,0.7 -1.1,0.5 -1.6,1.4 -1.9,2.5 -0.3,0.9 -0.5,2.4 0.3,3.2 0,0.1 -0.1,0.3 -0.1,0.4 0,0.1 0,0.3 -0.1,0.4 -0.4,-0.1 -0.9,0 -1.3,0.2 -0.9,0.6 -1,1.5 -1.1,2.2 -0.2,0.9 -0.2,1.7 0,2.3 -0.1,0 -0.3,0 -0.4,0.1 0,0 0,0 -0.1,0 -1.1,0.5 -1.4,1.4 -1.6,2.2 0,0 0,0 0,0.1 -0.1,0.5 -0.2,1.6 0.1,2.6 0.1,0.2 0.2,0.5 0.4,0.8 -0.1,0 -0.2,0 -0.3,0.1 -0.7,0.3 -1.2,1 -1.4,2.1 l 0,0.2 c -0.1,0.6 -0.3,1.4 0.3,2.2 0.3,0.3 0.7,0.4 1.1,0.5 0,0 0,0 0.1,0 -0.2,0.5 -0.4,1 -0.5,1.5 -0.1,0.4 -0.3,0.9 -0.4,1.2 -0.5,-0.2 -1,-0.2 -1.4,-0.1 -1.4,0.3 -1.5,1.5 -1.6,2.2 l 0,0.2 c -0.1,0.7 -0.3,1.8 0.7,2.5 l 0,0 c 0.1,0.1 0.4,0.2 0.8,0.3 -0.1,0.4 -0.3,0.8 -0.5,1.2 -0.2,0.4 -0.3,0.8 -0.4,1.1 -0.6,2.2 -1.3,4.2 -2.1,6.3 -0.1,0.3 -0.3,0.7 -0.4,1 -0.3,0.7 -0.6,1.5 -0.7,2.2 l 0,0.2 c -0.1,0.3 -0.2,0.9 -0.3,1.1 0,0 0,0 -0.1,0.1 l -0.1,0.1 c -0.4,0.4 -1.1,0.9 -1.2,1.8 0,0.1 0.1,0.6 0.3,1.1 0,0.1 0,0.2 0,0.3 0,0.1 -0.1,0.5 -0.4,1.4 0,0 0,0 0,0.1 -0.1,0.5 -0.3,1 -0.5,1.5 -0.1,0.3 -0.2,0.5 -0.3,0.8 -0.4,1.1 -0.8,2.2 -1.2,3.3 -0.2,0.1 -0.5,0.3 -0.7,0.8 -0.2,0.6 0,1 0.2,1.3 0.1,0.1 0.1,0.2 0.1,0.2 0,0 0,0 0,0 -0.5,1.4 -1,2.9 -1.5,4.4 l -3.9,-5.9 c 4,-13.6 -5.4,-26 -15.2,-39.1 -4.1,-5.5 -8.3,-11.1 -11.7,-16.9 l 0.8,-0.5 c 0.7,-0.4 0.9,-1.2 0.5,-1.9 l -0.7,-1.2 c -0.2,-0.3 -0.5,-0.5 -0.9,-0.6 -0.2,0 -0.4,-0.1 -0.5,0 l -11,-18.4 c -0.4,-0.7 -1.2,-0.9 -1.9,-0.5 L 140,328.8 c -0.3,-0.4 -0.6,-0.8 -1.1,-1 -0.1,0 -0.2,-0.1 -0.2,-0.1 l 0.1,-0.3 c 0.1,-0.4 -0.1,-0.8 -0.5,-0.9 l -2.8,-0.7 c -0.2,0 -0.4,0 -0.5,0.1 -0.2,0.1 -0.3,0.2 -0.3,0.4 l -0.7,2.8 c -0.1,0.4 0.1,0.8 0.5,0.9 l 0.3,0.1 c 0,0.1 0,0.2 0,0.3 0,0.5 0.1,1 0.3,1.4 l 9.3,15.7 c -0.3,0.2 -0.5,0.5 -0.6,0.9 -0.1,0.4 0,0.7 0.2,1.1 l 11,18.4 c -0.1,0.1 -0.2,0.3 -0.2,0.5 -0.1,0.4 0,0.7 0.2,1 l 0.7,1.2 c 0.4,0.7 1.2,0.9 1.9,0.5 l 0.4,-0.3 c 3,5.3 7,10.6 10.8,15.8 7.1,9.6 14.4,19.4 16,29 l -11.2,-17 c 0,0 0,0 0,0 L 162,381.9 c 0,0 0,0 0,0 l -0.6,-0.9 c 0,0 0,0 0,0 l -0.5,-0.8 c 0,0 0,0 0,0 l -0.1,-0.2 c 0,0 0,0 0,0 l 0,0 c 0,0 0,0 0,0 0,0 0,0 0,0 0,0 0,0 0,0 0,0 0,0 0,0 l 0,0 c 0,0 0,0 0,0 0,0 0,0 0,0 l -37.6,-57 -0.2,-6.8 c 0,-0.2 -0.1,-0.4 -0.2,-0.5 -0.1,-0.1 -0.3,-0.2 -0.5,-0.2 l -4.1,0.1 c -0.1,-0.2 -0.2,-0.4 -0.2,-0.6 -0.1,-5.8 -3.5,-8.7 -6.6,-8.9 -0.1,0 -0.2,0 -0.3,0 -2.1,0.2 -3.6,1.3 -4.3,3 -0.7,2.1 0,4.8 1.7,6.7 l -2.2,0.1 c -0.2,0 -0.4,0.1 -0.5,0.2 -0.1,0.1 -0.2,0.3 -0.2,0.5 l 7,113 c 0,0.6 -0.5,6.8 -2,10.2 -0.7,1.5 -2,2.6 -3.4,3.7 -1.4,1.1 -2.7,2.2 -3.1,3.7 -0.2,1 0.6,2.2 1.7,4 1.4,2.2 3.1,4.9 3.2,7.5 0.1,1.6 -1.1,4.1 -2.2,6.5 -1.3,2.8 -2.6,5.7 -2.3,7.8 0.7,5.5 3.1,8.2 4.9,9.6 2,1.5 3.9,1.7 4,1.7 0,0 0,0 0.1,0 0.3,0 0.5,-0.2 0.6,-0.4 l 2.7,-5.8 1.7,0.8 c 0,0.2 0,0.5 0.1,0.7 0.1,1.2 0.2,2.9 1.8,3.8 0.3,0.1 0.6,0.2 0.8,0.2 0.9,0 1.7,-0.6 2.2,-1.1 0.8,0.1 2,-0.1 2.7,-1.6 0.7,-1.4 0.1,-2.5 -0.5,-3.1 0.1,-0.9 0,-2.2 -1.1,-2.7 -1.9,-1 -3.3,0.2 -4.2,0.9 -0.1,0.1 -0.3,0.2 -0.4,0.3 l -1.8,-0.9 2.8,-6.1 1.6,0.8 c 0,0.2 0,0.5 0.1,0.7 0.1,1.2 0.2,2.9 1.8,3.7 0.3,0.1 0.6,0.2 0.8,0.2 0.9,0 1.7,-0.6 2.2,-1.1 0.8,0.1 2,-0.1 2.7,-1.6 0.7,-1.4 0.1,-2.5 -0.5,-3.1 0.1,-0.9 0,-2.2 -1.1,-2.7 -1.9,-1 -3.3,0.2 -4.2,0.9 -0.1,0.1 -0.3,0.2 -0.4,0.3 l -1.7,-0.8 2.8,-6.1 2,1 c 0,0.2 0,0.5 0.1,0.7 0.1,1.2 0.2,2.9 1.8,3.8 0.3,0.1 0.6,0.2 0.8,0.2 0.9,0 1.7,-0.6 2.2,-1.1 0.8,0.1 2,-0.1 2.7,-1.6 0.7,-1.4 0.1,-2.5 -0.5,-3.1 0.1,-0.9 0,-2.2 -1.1,-2.7 -1.9,-1 -3.3,0.2 -4.2,0.9 -0.1,0.1 -0.3,0.2 -0.4,0.3 l -2.1,-1 2.8,-6.1 2.4,1.2 c 0,0.2 0,0.5 0.1,0.7 0.1,1.2 0.2,2.9 1.8,3.8 0.3,0.1 0.6,0.2 0.8,0.2 0.9,0 1.7,-0.6 2.2,-1.1 0.8,0.1 2,-0.1 2.7,-1.6 0.7,-1.4 0.1,-2.5 -0.5,-3.1 0.1,-0.9 0,-2.2 -1.1,-2.7 -1.9,-1 -3.3,0.2 -4.2,0.9 -0.1,0.1 -0.3,0.2 -0.4,0.3 l -2.5,-1.2 2.7,-5.9 c 0.1,-0.2 0.1,-0.4 0,-0.6 -0.1,-0.2 -0.3,-0.3 -0.5,-0.4 0,0 -2.6,-0.3 -4.9,-2.8 -1.5,-1.6 -1.9,-6.7 -1.9,-8.5 l -2.3,-93.6 65.2,105 c -0.3,0.9 -0.6,1.5 -0.7,1.7 0,0 -0.1,0.1 -0.2,0.1 -0.2,0.1 -0.5,0.3 -0.7,0.5 -0.3,0.4 -0.6,1 -0.7,1.4 -0.2,0.5 -0.4,1.1 -0.6,1.7 -0.4,1 -0.8,1.9 -1,2.9 -0.1,0.5 -0.2,1 -0.2,1.5 0,0.3 -0.1,0.7 -0.1,1 0,0 0,0 0,0.1 -0.1,0.8 0.1,1.4 0.3,1.9 0,0.1 0,0.1 0.1,0.2 0,0.1 0,0.2 0,0.2 0.1,0.2 -0.2,1 -0.4,1.3 -0.1,0.1 -0.1,0.3 -0.1,0.4 -0.2,0.7 -0.5,1.4 -0.8,2 -0.3,0.8 -0.6,1.5 -0.8,2.2 0,0.1 -0.1,0.2 -0.1,0.4 0,0.1 -0.1,0.4 -0.1,0.5 0,0 -0.1,0.1 -0.1,0.1 -0.7,0.4 -0.7,1.4 -0.6,2.1 0.3,1.2 1.4,1.8 2,2.2 0.5,0.2 1.1,0.4 1.8,0.4 0.6,0 1.1,-0.1 1.6,-0.4 0.6,-0.4 0.9,-1 1,-1.7 l 0,-0.1 c 0,0 0,-0.1 0,-0.1 0.1,-0.3 1.8,-5.1 5.2,-15.1 l 5.6,9.1 c 1.4,2.2 3.3,3.8 5.2,4.2 0.4,0.1 0.7,0.1 1.1,0.1 1.1,0 2.1,-0.3 3.1,-1 1.3,-0.9 2.3,-2.8 2.2,-4.5 0,-2.3 -1.4,-4.2 -2.7,-6 -0.3,-0.5 -0.6,-0.9 -0.9,-1.3 l 0,0 -9.1,-13.8 c 1.5,-4.3 2.7,-7.9 3.2,-9.1 0.4,-0.2 0.7,-0.5 0.9,-1 0.2,-0.4 0.2,-0.8 0.2,-1.1 0,0 0,0 0,0 0.2,-0.5 0.3,-1 0.5,-1.5 0.2,-0.7 0.4,-1.4 0.7,-2.1 0.1,-0.3 0.2,-0.5 0.3,-0.8 0.2,-0.4 0.4,-0.8 0.5,-1.4 0.1,-0.6 0.3,-1.2 0.5,-1.8 0.9,-0.8 0.8,-2 0.7,-2.6 0.3,-0.9 0.6,-1.8 0.9,-2.7 0.3,-0.8 0.5,-1.7 0.8,-2.5 0.1,0 0.2,0 0.2,-0.1 0.6,-0.1 1.3,-0.3 1.8,-1.1 0,0 0,0 0,0 0.4,-0.7 0.4,-1.4 0.2,-2 0.5,-0.3 1,-0.8 1.2,-1.3 0.5,-1.3 0.2,-2.4 -0.9,-3.1 0,-0.1 0.1,-0.3 0.2,-0.4 0.1,-0.2 0.2,-0.4 0.2,-0.6 0.1,-0.3 0.2,-0.6 0.3,-0.9 0.2,-0.6 0.4,-1.1 0.6,-1.6 0.5,-1.3 0.9,-2.5 1.4,-3.8 0.1,0 0.2,0 0.3,0 0.2,-0.1 0.5,-0.2 0.7,-0.4 0.8,0.2 1.7,-0.1 2.4,-0.8 0.5,-0.5 1,-1.3 0.9,-2.2 0,-0.2 -0.1,-0.4 -0.1,-0.6 0.5,-0.6 0.8,-1.5 1,-2.2 0,-0.2 0.1,-0.3 0.1,-0.4 0.2,-0.7 0.2,-1.6 0.1,-2.4 0,-0.3 -0.1,-0.7 -0.2,-1 -0.1,-0.2 -0.1,-0.4 -0.2,-0.6 0.3,0.1 0.5,0.1 0.8,-0.1 0.6,-0.3 0.9,-1.2 0.7,-1.9 -0.1,-0.5 -0.5,-0.8 -1,-0.9 0.1,-0.3 0.1,-0.5 0.2,-0.7 0.1,-0.5 0.2,-0.9 0.3,-1.4 0.1,-0.4 0.1,-0.8 0.2,-1.2 0,-0.3 0.1,-0.7 0.1,-1 0,-0.1 0.1,-0.3 0.1,-0.4 0.1,-0.4 0.2,-0.8 0.1,-1.3 0.1,-0.4 0.2,-0.9 0.2,-1.4 0.1,-0.5 0.1,-1 0.3,-1.4 1.2,0.1 2.5,-0.9 3,-1.8 0.4,-0.8 0.5,-1.5 0.5,-2.3 0,-0.9 -0.4,-1.3 -0.7,-1.7 -0.1,-0.1 -0.2,-0.3 -0.3,-0.5 0,0 0,-0.1 -0.1,-0.1 -0.1,-0.1 -0.1,-0.1 0.1,-0.5 0.1,-0.2 0.1,-0.3 0.2,-0.5 0.4,-1.1 8.4,-24.4 9.1,-26.5 0.6,-0.5 0.7,-1.3 0.8,-1.9 0,-0.2 0.1,-0.5 0.1,-0.6 0,-0.1 0.1,-0.5 0.3,-1.1 l 5.8,25.8 c -0.1,0.1 -0.3,0.2 -0.3,0.4 -0.2,0.3 -0.3,0.7 -0.2,1.1 0.1,0.5 0.5,1 1,1.2 l 1.7,8.9 c -0.4,0.3 -0.6,0.9 -0.5,1.4 0.1,0.6 0.5,1 1.1,1.2 l 18,96.3 c 0.9,4.7 4.6,8 8.6,8 0.4,0 0.9,0 1.3,-0.1 4.5,-0.8 7.4,-5.7 6.4,-10.9 l -10.6,-57.5 z m -20,-36.6 c 0,0 0,0 0,0 0.8,-0.2 1.4,-1 1.2,-1.8 -0.1,-0.5 -0.5,-0.9 -0.9,-1.1 l -0.9,-4.7 7.9,-1.5 0.9,4.6 c -0.4,0.3 -0.6,0.9 -0.5,1.4 0.1,0.4 0.3,0.8 0.6,1 0.3,0.2 0.6,0.3 0.9,0.3 l 0.3,1.8 -9.2,1.7 -0.3,-1.7 0,0 z m -1,-13.3 c -0.1,-0.7 -0.7,-1.2 -1.4,-1.3 l -1.4,-6 c 0.2,0.2 0.4,0.4 0.6,0.6 0.7,0.5 1.6,0.6 2.6,0.4 l 4.3,-1 c 0.7,1.7 1.6,2.6 2.6,2.8 0.1,0.7 0.3,1.5 0.4,2.1 l -0.5,0.1 c -0.1,0 -0.1,0 -0.2,0.1 -0.3,-0.1 -0.6,-0.1 -0.9,0 -1.2,0.2 -2,1.4 -1.8,2.6 0.1,0.6 0.4,1.1 0.9,1.4 0.1,0.1 0.3,0.2 0.4,0.2 l -5.8,1.1 -0.3,-1.7 c 0.1,-0.1 0.2,-0.2 0.2,-0.3 0.3,-0.3 0.4,-0.7 0.3,-1.1 z m 3.2,-10.3 0.1,0.7 -3.4,0.8 c -0.4,0.1 -0.6,0 -0.6,0 -0.2,-0.1 -0.3,-0.6 -0.4,-1.1 l 4.3,-0.9 c 0,0.2 -0.1,0.3 0,0.5 z m 15.4,47.6 -4.9,-26.4 c 0.7,-0.3 1.1,-1 1,-1.7 -0.1,-0.5 -0.5,-0.9 -0.9,-1.1 l -1.6,-8.8 c 0.2,-0.1 0.4,-0.4 0.3,-0.7 l -0.2,-1 c 0,-0.2 -0.1,-0.3 -0.3,-0.5 -0.2,-0.1 -0.3,-0.1 -0.5,-0.1 l -0.5,0.1 -0.4,-2.1 c 1.4,-0.8 1.5,-3 1.4,-4.2 l 0.2,0 c 0.1,0 0.3,-0.1 0.4,-0.2 2.1,10.9 5,26.3 5.7,31.7 0.9,7.5 0.9,11.8 0.3,15 z m -12.1,-37.7 c 0,0 0.1,0 0,0 0.2,0 0.4,0.1 0.4,0.3 0,0.1 0,0.2 -0.1,0.3 0,0.1 -0.1,0.1 -0.2,0.1 -0.2,0 -0.4,-0.1 -0.4,-0.3 0,-0.2 0.1,-0.4 0.3,-0.4 z m 4.5,16.4 5.2,27.8 c -0.8,1.1 -1.7,1.9 -2.4,2.5 -1,0.8 -1.8,1.6 -1.6,2.6 0.2,0.7 0.9,1.4 5.1,1.3 l 10.8,57.6 c 0.3,1.5 0,3 -0.7,4.2 -0.7,1.2 -1.7,1.9 -2.9,2.2 -2.5,0.5 -5.1,-1.6 -5.6,-4.6 l -17.1,-91.7 9.2,-1.9 z m -17.2,-40.8 0.9,3.9 c -0.1,0 -0.1,0 -0.2,0 -0.1,0 -0.1,0 -0.2,0 l -0.9,-3.9 0.4,0 z m 5.8,-34.3 c 0.4,-0.2 0.8,-0.5 0.9,-0.9 0.2,-0.4 0.1,-0.9 -0.1,-1.3 -0.8,-1.3 -2.6,-1.9 -3.9,-2.4 l -0.2,-0.1 c -0.7,-0.2 -2.7,-0.3 -3.4,0.7 -0.2,0.2 -0.5,0.7 -0.1,1.5 -0.2,0.6 -0.4,1.1 -0.7,1.7 -0.3,0.6 -0.5,1.3 -0.8,2 -0.1,0.4 -0.2,0.8 -0.3,1.1 -0.1,0.4 -0.2,0.7 -0.3,1 0,0.1 -0.1,0.2 -0.2,0.3 -0.1,0 -0.3,0 -0.4,0 -0.1,0 -0.3,0 -0.3,0 -0.1,-0.1 -0.2,-0.2 -0.4,-0.4 -0.3,-0.3 -0.9,-1 -1.7,-0.6 -0.6,0.3 -0.8,0.9 -0.9,1.5 0,0 -0.1,-0.1 -0.1,-0.1 -0.1,0 -0.2,-0.1 -0.2,-0.1 -0.1,-0.4 -0.2,-0.9 -0.3,-1.4 -0.1,-0.7 0.7,-6.2 3.2,-6.7 l 6.9,-1.6 c 0.6,-0.1 1.9,0.2 3.4,1.1 1.4,0.9 2.4,2 2.6,3 l 0.4,1.9 c -0.2,0.2 -0.3,0.4 -0.2,0.7 l 2.7,12.1 c 0,0 0,0 0,0 0.3,1.3 1.5,7.3 3,15 l -1.5,0.3 -0.7,-3 c -0.4,-1.9 -1.7,-3.3 -3.7,-4 -1.5,-0.6 -3.5,-0.7 -5.1,-0.3 -2.5,0.6 -3.8,1.9 -4.4,2.9 -0.7,1.1 -0.9,2.5 -0.7,3.7 l 0.9,3.9 -0.4,0.1 -1.5,-6.6 c 2.7,-7.3 6.2,-18 8.5,-25 z m -1.4,24.6 c 0.9,-0.2 2,-0.2 2.8,0.1 0.9,0.3 1.5,0.8 1.6,1.5 l 2.3,10.2 c 0.4,1.7 -2,4.2 -3.2,4.5 l -2.1,0.5 c -0.2,-0.6 -0.4,-1.1 -0.9,-1.6 l -2.9,-12.8 c 0,-0.2 -0.1,-1.8 2.4,-2.4 z m 0.5,20.7 3.8,-0.9 c 3,-0.7 6.8,-4.9 5.9,-8.8 l -1.1,-4.7 1.4,-0.3 c 0.7,3.8 1.6,8 2.4,12.2 l -13.7,3.5 c 0.5,-0.2 1,-0.6 1.3,-1 z"
           id="XMLID_31_" />
        <path
           style="fill:#424143"
           inkscape:connector-curvature="0"
           d="m 498.6,298 c -6.1,-2.5 -13,-3.4 -16.2,-2 l 0,0 c -1.2,0.5 -1.8,1.3 -1.9,2.3 0,0.6 0.3,1 0.5,1.1 0.2,0.2 0.8,0.8 1.7,3.4 0,0 0,0.1 0,0.1 5.6,11.1 -2.9,33.6 -12,57.4 -1.5,3.8 -3.1,8.2 -4.7,12.4 -0.3,0.5 -0.8,1 -1.3,1.3 -1,0.7 -2.5,1 -3.5,0.3 -0.4,-0.3 -0.6,-1.2 -0.7,-1.8 -0.1,-0.8 -0.3,-2 -1.5,-2.1 l -0.3,0 c -0.3,0 -0.6,0.2 -0.7,0.4 l -0.1,0.3 c -0.6,1.4 -0.5,2.8 0.1,4 0.5,1 1.5,1.9 2.7,2.4 1.1,0.4 2.4,0.5 3.5,0.2 -0.2,0.7 -0.5,1.3 -0.7,2 0,0 -0.1,0 -0.1,0 0,-0.1 -0.1,-0.3 -0.1,-0.4 -0.2,-0.5 -0.7,-0.8 -1.1,-0.9 l -0.1,0 c 0,0 0,0 0,0 0,0 0,-0.1 -0.1,-0.1 l -0.1,-0.1 c -0.1,-0.1 -0.2,-0.2 -0.3,-0.2 l -0.7,-0.2 c 0,0 -0.1,0 -0.1,0 l -0.1,0 c 0,0 -0.1,0 -0.1,0 -1,-0.1 -1.5,0.7 -1.9,1.4 l -0.5,-0.2 c 0.2,-1.2 -0.3,-1.6 -0.8,-1.8 -0.7,-0.3 -1.7,-0.1 -2.7,2.3 l -0.1,0.1 c -0.8,2 -0.5,2.8 0,3.2 -0.6,0.2 -1.2,0.8 -1.9,2.4 l -0.1,0.1 c -0.5,1.3 -0.6,2.1 -0.4,2.6 -0.1,0 -0.1,-0.1 -0.2,-0.1 -0.6,-0.3 -1.6,-0.1 -2.6,2.1 -0.1,-0.2 -0.1,-0.3 -0.2,-0.5 -4,-8.7 -7.8,-17.2 -8.2,-17.9 l -4.4,-9.6 c 0,-0.1 0,-0.3 -0.1,-0.4 l -0.1,-0.2 c 0,0 0,-0.1 -0.1,-0.1 0,0 0,0 0,-0.1 l -0.1,-0.2 c 0,0 0,-0.1 -0.1,-0.1 0,0 0,0 0,-0.1 l -0.1,-0.2 c 0,0 0,-0.1 -0.1,-0.1 0,0 0,-0.1 0,-0.1 l -0.2,-0.5 c 0.1,-0.1 0.1,-0.2 0.2,-0.4 0.1,-0.4 0.1,-0.8 0,-1.1 l -1.3,-2.8 c -0.2,-0.4 -0.4,-0.6 -0.8,-0.8 -0.4,-0.1 -0.8,-0.1 -1.1,0 l -1.4,0.7 c -0.4,0.2 -0.7,0.6 -0.8,1 -0.1,0 -0.1,0 -0.2,0 l -4.2,-9.4 0.6,0.8 c 0.7,1 1.9,1.3 2.6,0.8 0.3,-0.2 0.5,-0.5 0.5,-0.9 0.1,-0.6 -0.1,-1.2 -0.6,-1.8 l -11.1,-14.3 0.3,-0.7 c 0.5,-1.3 -0.2,-2.7 -1.4,-3.2 l -0.1,0 c -0.6,-0.2 -1.2,-0.2 -1.8,0 l -3,-3.8 0.1,-0.2 c 0.1,-0.1 0.1,-0.3 0.1,-0.4 0,0 0,0 0,0 12.2,2.2 23.3,1.7 27.5,-1.4 1.1,-0.8 1.7,-1.7 1.9,-2.8 0.9,-5.8 -12.8,-11.8 -26.5,-14.3 -12.2,-2.2 -23.3,-1.7 -27.5,1.4 -1.1,0.8 -1.7,1.7 -1.9,2.8 -0.8,5.2 10.3,10.6 21.9,13.3 l -0.3,0.7 c -0.2,0.5 -0.1,1.1 0.2,1.5 0.3,0.4 0.7,0.8 1.3,1 l 0.1,0.1 c 0.2,0.1 0.4,0.1 0.5,0.1 l 3.6,4.6 c -0.2,0.6 -0.1,1.3 0.2,1.9 L 393,387.3 c -0.8,0.3 -1.4,0.9 -1.7,1.7 -0.3,0.7 -0.2,1.5 0.1,2.2 l -9.1,24.1 c -0.5,-0.3 -1.1,-0.5 -1.9,-0.3 -0.1,-0.1 -0.3,-0.1 -0.4,-0.1 l -28.4,-77.1 c 0,0 0,0 0,0 -1.1,-3.7 -0.8,-7.6 0.9,-11.1 0.1,-0.2 0.1,-0.3 0.1,-0.5 l -0.7,-2.8 3.2,-1 0.7,2.3 c 0.1,0.2 0.2,0.4 0.4,0.4 0.4,0.1 0.8,0.2 1.2,0.2 0.4,0 0.7,-0.1 1.1,-0.2 2.2,-0.7 3.2,-3.6 2.3,-6.3 -0.9,-2.8 -3.4,-4.4 -5.6,-3.7 -0.7,0.2 -1.3,0.7 -1.8,1.3 -0.1,0.2 -0.2,0.4 -0.1,0.6 l 0.7,2.2 -2.9,1 -1.9,-7.3 2.5,-0.8 0.7,2.3 c 0.1,0.2 0.2,0.4 0.4,0.4 0.4,0.1 0.8,0.2 1.2,0.2 0.4,0 0.7,-0.1 1.1,-0.2 1.1,-0.4 1.9,-1.2 2.3,-2.5 0.4,-1.2 0.4,-2.5 -0.1,-3.8 -0.9,-2.8 -3.4,-4.4 -5.6,-3.7 -0.7,0.2 -1.3,0.7 -1.8,1.3 -0.1,0.2 -0.2,0.4 -0.1,0.6 l 0.7,2.2 -2.3,0.8 -1.9,-7.3 1.8,-0.6 0.7,2.3 c 0.1,0.2 0.2,0.4 0.4,0.4 0.4,0.1 0.8,0.2 1.2,0.2 0.4,0 0.7,-0.1 1.1,-0.2 2.2,-0.7 3.2,-3.6 2.3,-6.3 -0.4,-1.3 -1.2,-2.4 -2.3,-3.1 -1.1,-0.7 -2.3,-1 -3.4,-0.6 -0.7,0.2 -1.3,0.7 -1.8,1.3 -0.1,0.2 -0.2,0.4 -0.1,0.6 l 0.7,2.2 -1.6,0.5 -1.3,-4.8 c -0.1,-0.2 -0.3,-0.4 -0.5,-0.5 -0.3,-0.1 -6.8,-1.8 -13.9,0.6 -7.1,2.4 -10.9,7.4 -11.1,7.7 -0.1,0.2 -0.2,0.4 -0.1,0.7 l 1.8,4.7 -1.2,0.4 -0.7,-2.2 c -0.1,-0.2 -0.2,-0.4 -0.4,-0.4 -0.7,-0.2 -1.5,-0.3 -2.2,0 -2.2,0.7 -3.2,3.6 -2.3,6.3 0.8,2.3 2.7,3.9 4.6,3.9 0.4,0 0.7,-0.1 1.1,-0.2 0.7,-0.2 1.3,-0.7 1.8,-1.3 0.1,-0.2 0.2,-0.4 0.1,-0.6 l -0.7,-2.3 1.4,-0.5 2.7,7 -1.7,0.6 -0.7,-2.2 c -0.1,-0.2 -0.2,-0.4 -0.4,-0.4 -0.8,-0.2 -1.5,-0.3 -2.2,0 -2.2,0.7 -3.2,3.6 -2.3,6.3 0.8,2.3 2.7,3.9 4.6,3.9 0.4,0 0.7,-0.1 1.1,-0.2 0.7,-0.2 1.3,-0.7 1.8,-1.3 0.1,-0.2 0.2,-0.4 0.1,-0.6 l -0.7,-2.3 1.9,-0.6 2.7,7 -2.2,0.7 -0.7,-2.2 c -0.1,-0.2 -0.2,-0.4 -0.4,-0.4 -0.8,-0.2 -1.5,-0.3 -2.2,0 -1.1,0.4 -1.9,1.2 -2.3,2.5 -0.4,1.2 -0.4,2.5 0.1,3.8 0.4,1.3 1.2,2.4 2.3,3.1 0.7,0.5 1.5,0.8 2.3,0.8 0.4,0 0.7,-0.1 1.1,-0.2 0.7,-0.2 1.3,-0.7 1.8,-1.3 0.1,-0.2 0.2,-0.4 0.1,-0.6 l -0.7,-2.3 2.3,-0.8 0.9,2.4 c 0.1,0.2 0.2,0.3 0.4,0.4 2.6,1.2 4.7,3.1 6.2,5.4 l 26.6,85.8 c 0,0.1 -0.1,0.2 -0.1,0.3 l -0.4,0.3 c -1.8,-5.6 -5.8,-15.6 -9.6,-25.3 -3.2,-7.9 -6.1,-15.4 -7.6,-19.8 l 0.4,-0.2 c 0.3,-0.1 0.5,-0.3 0.7,-0.6 0.1,-0.3 0.2,-0.6 0,-0.9 l -0.3,-0.9 c -0.1,-0.3 -0.3,-0.5 -0.6,-0.7 -0.1,0 -0.2,-0.1 -0.3,-0.1 l -5,-14.1 c -0.1,-0.3 -0.3,-0.5 -0.6,-0.7 -0.2,-0.1 -0.5,-0.1 -0.7,-0.1 l -4.3,-12 c -0.1,-0.4 -0.4,-0.7 -0.7,-0.9 l 0,0 c 0.2,-0.3 0,-0.8 -0.3,-0.9 l -1.8,-0.9 c -0.2,-0.1 -0.4,-0.1 -0.5,0 -0.2,0.1 -0.3,0.2 -0.4,0.4 l -0.9,1.9 c -0.2,0.3 0,0.8 0.3,0.9 l 0,0 c 0,0 0,0 0,0 -0.1,0.4 -0.1,0.8 0,1.1 l 4.3,12 c -0.5,0.3 -0.7,0.9 -0.5,1.4 l 5,14.1 c -0.3,0.3 -0.4,0.8 -0.2,1.2 l 0.3,0.9 c 0.2,0.6 0.9,0.9 1.5,0.7 l 0.1,-0.1 c 1.4,4.1 4.5,11.3 7.7,18.9 4.2,9.8 8.8,20.8 10.6,26.8 l -10,6.2 c -0.6,-0.1 -1.2,0 -1.8,0.4 l -1.7,1.1 c -0.5,0.4 -0.9,0.9 -1,1.5 -0.1,0.6 0,1.3 0.4,1.9 l 0,0.1 c 0.8,1.1 2.3,1.4 3.5,0.7 l 1.7,-1.1 c 0.7,-0.5 1.1,-1.2 1.1,-2 l 12.8,-7.9 7.7,24.7 c 0.1,0.2 0.2,0.3 0.3,0.4 0.1,0.1 0.2,0.1 0.3,0.1 0.1,0 0.1,0 0.2,0 l 0.8,-0.3 c 0,0.1 -0.1,0.2 -0.1,0.4 l -0.2,2 c -0.1,1.3 0.8,2.5 2.2,2.7 l 0.1,0 c 0.7,0.1 1.4,-0.1 1.9,-0.5 0.5,-0.4 0.8,-1 0.9,-1.6 l 0.2,-2 c 0.1,-0.6 -0.1,-1.3 -0.5,-1.8 0.3,-0.3 0.5,-0.6 0.7,-0.9 l 12,-4 c 0.2,-0.1 0.3,-0.2 0.4,-0.4 0.1,-0.2 0.1,-0.4 0,-0.5 l -3,-8.1 3.8,0.1 6.3,15.9 c -0.2,0.6 -0.2,1.2 0,1.8 l 0.8,1.9 c 0.4,1 1.4,1.6 2.4,1.6 0.3,0 0.6,0 0.8,-0.1 l 0.1,0 c 0.6,-0.2 1.1,-0.7 1.4,-1.3 0.3,-0.6 0.3,-1.3 0,-1.9 l -0.8,-1.9 c -0.3,-0.8 -1,-1.3 -1.8,-1.5 l -6.4,-16.2 c -0.1,-0.3 -0.3,-0.5 -0.6,-0.6 0.1,-0.3 0.1,-0.6 0,-0.9 l -6.6,-16.7 c -0.1,-0.1 -0.1,-0.3 -0.2,-0.4 0,-0.1 -0.1,-0.2 -0.1,-0.3 -0.5,-0.5 -1.2,-1 -1.9,-1.1 l 0.6,-1.6 c 0.2,0.5 0.6,0.8 1.1,1.1 0.3,0.1 0.6,0.2 0.9,0.2 0.8,0 1.7,-0.5 2,-1.3 l 0.8,-1.8 c 0.1,-0.3 0,-0.7 -0.2,-0.9 0,0 0,0 0,-0.1 L 411.4,370 c 0.1,0 0.2,0 0.2,0 0.3,0 0.5,-0.2 0.6,-0.4 l 0.5,-1.1 0.3,0.7 c 0.2,0.3 0.5,0.5 0.9,0.4 l 6,13.5 c 0.2,0.4 0.5,0.8 1,0.9 0.2,0.1 0.4,0.1 0.6,0.1 0.2,0 0.5,-0.1 0.7,-0.2 l 15.6,-7 c 0.9,-0.4 1.3,-1.4 0.9,-2.3 l -6,-13.4 c 0.1,0 0.1,-0.1 0.2,-0.2 0.2,0.1 0.3,0.1 0.5,0.2 l 0.2,0.5 c 0,0 0,0.1 0.1,0.1 0,0 0,0.1 0,0.1 l 0.1,0.2 c 0,0 0,0.1 0.1,0.1 0,0 0,0.1 0,0.1 l 0.1,0.2 c 0,0 0,0.1 0.1,0.1 0,0 0,0.1 0,0.1 l 0.1,0.2 c 0.1,0.1 0.2,0.3 0.3,0.3 l 4.3,9.6 c 0.3,0.7 4,8.7 7.8,17.1 2.6,5.6 5.2,11.4 7,15.4 -1,2.5 -2,5 -2.9,7.3 l -5.8,-14.9 c -0.1,-0.2 -0.2,-0.3 -0.4,-0.4 -0.2,-0.1 -0.4,-0.1 -0.6,0 -3.4,1.8 -7,3.3 -10.6,4.7 -0.2,0.1 -0.3,0.2 -0.4,0.4 -0.1,0.2 -0.1,0.4 0,0.6 l 12,24.1 c -0.4,1.1 -0.8,2 -1.1,2.8 -0.3,0.8 -0.6,1.4 -0.7,1.9 -0.4,0.3 -0.6,0.7 -0.7,1.1 -0.1,0.1 -0.1,0.3 -0.2,0.5 0,0.1 -0.1,0.3 -0.1,0.4 l -3.3,8 c -0.1,0.3 -0.3,0.6 -0.5,1.1 -0.3,0.5 -0.6,1 -0.7,1.5 -0.2,0.5 -0.3,0.9 -0.2,1.3 l -3.4,8.2 c -0.2,0.4 -0.5,1 -0.9,1.6 l -0.1,0.2 c -0.2,0.1 -0.5,0.2 -0.7,0.4 -0.7,0.5 -1.2,1.2 -1.6,2 l -0.1,0.2 c 0,0.1 -0.1,0.2 -0.1,0.4 -0.1,0.1 -0.2,0.2 -0.3,0.2 l -0.1,0.1 c -0.1,0.1 -0.1,0.1 -0.1,0.2 l -0.4,1 c 0,0 0,0.1 0,0.1 -0.4,1.6 1.2,2.6 1.9,3 0.5,0.3 2,0.7 2.4,0.8 0.3,0.1 0.6,0.1 0.9,0.1 1.1,0 1.8,-0.5 2.1,-1.5 l 0.3,-0.7 c 0,0 0,-0.1 0,-0.1 0.1,-0.2 0.1,-0.5 0.1,-0.7 0,-0.1 0.1,-0.2 0.1,-0.3 l 0.1,-0.2 c 0.3,-0.6 0.4,-1.3 0.3,-1.9 0.1,-0.4 0.2,-0.8 0.3,-1.3 0.2,-0.7 0.3,-1.3 0.5,-1.7 l 3.4,-8.3 c 0.4,-0.3 0.7,-0.8 0.9,-1.4 0.2,-0.4 0.3,-0.8 0.4,-1.3 l -0.7,-0.2 0.7,0.2 c 0.1,-0.3 0.2,-0.5 0.2,-0.7 1.3,1.2 3.2,2.4 6.1,3.7 9,4 11.7,0.6 14.5,-4.8 2.3,-4.4 8.1,-17.8 9.9,-22.1 0.1,-0.1 0.2,-0.1 0.2,-0.2 0.4,-0.3 1,-0.7 1.4,-1.4 0.4,-0.8 1.4,-3.1 2.6,-5.7 0.9,-2.1 1.9,-4.2 2.6,-5.8 0.3,-0.3 0.4,-0.7 0.4,-1.1 l 3,1.2 c 0.2,0.5 0.6,0.8 1.1,1 0,0 0.1,0 0.1,0 0.1,0.1 0.2,0.2 0.4,0.3 0,0 0,0 0.1,0 l 0.5,0.2 c 1.4,0.6 2.2,-0.9 2.5,-1.6 0.1,-0.3 0.3,-0.8 0.6,-1.3 0.1,-0.2 0.2,-0.6 0.3,-0.9 0,-0.1 0.1,-0.3 0.1,-0.4 0.1,-0.4 0.3,-0.9 0.3,-1.4 0.4,-0.4 0.7,-0.9 0.9,-1.4 0.1,-0.3 0.3,-0.8 0.6,-1.3 0.1,-0.2 0.2,-0.6 0.3,-0.9 0,-0.2 0.1,-0.3 0.1,-0.4 0.2,-0.5 0.3,-1.1 0.2,-1.6 0.4,-0.4 0.7,-0.9 0.9,-1.3 0.1,-0.3 0.3,-0.8 0.6,-1.3 0.1,-0.2 0.2,-0.6 0.3,-0.9 0,-0.2 0.1,-0.3 0.1,-0.4 0.2,-0.8 0.6,-1.9 -0.3,-2.6 0,0 -0.1,-0.1 -0.1,-0.1 l -0.7,-0.3 c -0.1,-0.1 -0.3,-0.1 -0.4,-0.1 l -0.1,0 c 0,0 -0.1,0 -0.1,0 0,0 0,0 0,0 l -0.1,0 c -0.3,-0.1 -0.9,-0.3 -1.4,-0.1 -0.2,0.1 -0.3,0.2 -0.4,0.3 l -3.5,-1.5 1.7,-4.2 c 1.5,-3.7 3.2,-7.8 4.7,-11.6 0.1,0 0.1,0 0.2,0 0.1,0.1 0.1,0.1 0.2,0.2 0.2,0.2 0.3,0.3 0.5,0.4 l 0.1,0 c 0.7,0.3 1.5,0 1.9,-0.7 0.2,-0.2 0.3,-0.4 0.5,-0.7 0.1,-0.2 0.1,-0.4 0.1,-0.6 l 0.9,-2.3 c 0.1,-0.1 0.2,-0.3 0.3,-0.4 0.1,-0.1 0.2,-0.2 0.3,-0.4 0,-0.1 0.1,-0.3 0.1,-0.5 l 1.4,-3.3 c 0.4,-0.4 0.6,-0.6 0.8,-0.9 0,0 0.1,0 0.1,-0.1 0.2,-0.1 0.3,-0.2 0.4,-0.4 0.1,-0.3 0.1,-0.7 -0.2,-1 0,0 0,-0.1 -0.1,-0.1 l 0.9,-2.4 c 0,0 0,0 0,0 0.7,-0.6 0.9,-0.9 1.2,-1.3 0,0 0,0 0,-0.1 0,0 0.1,-0.1 0.1,-0.1 l 0,-0.1 c 0.1,-0.1 0.1,-0.2 0.1,-0.3 0,-0.2 0,-0.6 -0.1,-0.9 -0.2,-0.4 -0.9,-0.7 -1.6,-1 l 0.2,-1.9 c 0,0 0,0 0,-0.1 l 0,-0.1 c 0,0 0,0 0,-0.1 0,-0.2 0,-0.4 -0.1,-0.6 0.1,-0.1 0.2,-0.3 0.3,-0.5 0.1,-0.1 0.2,-0.2 0.2,-0.3 0.5,-1.3 -0.1,-2.7 -1.4,-3.2 -0.2,-0.4 -0.4,-0.8 -0.6,-1.1 l 0.1,-2 c 0.3,-0.2 0.5,-0.6 0.7,-1 0.5,-1.1 0,-2.4 -1.1,-3 -0.5,-2.2 -1.3,-3.7 -2.4,-4.5 -0.8,-0.6 -1.7,-0.7 -2.8,-0.5 l -0.5,0.1 c -0.2,0.1 -0.4,0.2 -0.5,0.4 -0.4,-0.2 -0.8,-0.3 -1.2,-0.5 -1.5,-0.6 -2.9,-0.9 -4.2,-1 6.6,-13.8 12.3,-21.6 18,-24.3 3.5,-1.1 4.5,-1.3 4.5,-1.3 0.1,0 0.2,0 0.2,-0.1 l 0.1,-0.1 c 0.2,-0.1 0.3,-0.4 0.3,-0.6 l 0,-0.1 c 0.9,-3.3 -4.4,-9.2 -12.8,-12.7 z m -5.4,51.2 c -2.8,0 -3.9,2.6 -5.3,5.7 -0.3,0.6 -1.1,2.6 -2.5,6.2 -0.9,2.2 -1.9,4.8 -3,7.5 l -0.1,0.3 c -0.2,0.4 -0.6,1.4 -1,2.4 l -1,1.8 c -0.4,-0.4 -0.8,-0.7 -1.3,-0.9 -0.9,-0.4 -1.9,-0.4 -2.7,0 -0.8,0.4 -1.5,1 -1.8,1.9 -0.7,1.7 0.2,3.7 1.9,4.5 0.6,0.2 1.2,0.3 1.8,0.2 l -0.6,2.3 c -0.4,1 -0.7,1.9 -1.1,2.8 0,0.1 -0.1,0.2 -0.1,0.3 l -0.3,0.7 -6.6,-2.7 c 0.5,-1.3 1.1,-2.7 1.7,-4 l 0,-0.1 c 1.8,-4.4 3.6,-8.8 5.3,-13.1 2.9,-7.2 5.8,-14.6 8.8,-21.2 1.7,-1.6 3.2,-1.1 5.2,-0.4 1.3,0.4 2.1,1.1 2.5,2 0.5,0.8 0.5,2.1 0.2,3.8 z m -34.9,86 c -0.1,-0.2 -0.2,-0.3 -0.4,-0.4 -0.2,-0.1 -0.4,-0.1 -0.6,0 l -5,2.2 c -0.2,0.1 -0.3,0.2 -0.4,0.4 -0.1,0.2 0,0.4 0.1,0.6 l 3,5.5 c -1,0 -2,-0.2 -3.2,-0.7 0,0 0,0 0,0 l -0.5,-0.2 c -5.1,-2.4 -5.3,-2.5 -3.2,-7.6 0.1,-0.3 0.3,-0.6 0.4,-1 l 1.4,2.8 c 0.1,0.2 0.4,0.4 0.6,0.4 0.1,0 0.2,0 0.3,-0.1 l 7.5,-3.3 c 0.3,-0.2 0.5,-0.5 0.4,-0.9 l -4.8,-12.3 c 2.3,-5.8 5.4,-13.5 8.8,-21.9 l 0.6,0.2 c 0.3,1.8 2.4,2.3 3.8,2.6 0.4,0.1 1.1,0.3 1.4,0.4 0,0.1 -0.1,0.2 -0.3,0.4 -0.2,0.1 -1,0.3 -1.4,0.4 -1.4,0.3 -3,0.6 -3.5,1.9 -0.2,0.4 -0.2,0.8 -0.1,1.2 l 0.1,0.4 c 0,0.2 0.2,0.4 0.4,0.5 0.2,0.1 0.4,0.1 0.6,0 l 0.7,-0.3 c 0.1,0 0.2,-0.1 0.3,-0.2 l 0.1,-0.1 c 0.3,-0.4 0.8,-0.6 1.5,-0.7 0,0.8 -0.2,1.7 -0.5,2.5 -0.1,0.3 -0.2,0.5 -0.2,0.8 l -0.1,0.4 c 0,0.2 0,0.3 0,0.5 -0.6,1.4 -1.3,3 -1.6,3.9 -0.1,0.3 -0.2,0.5 -0.2,0.6 -1.3,4 1.7,5.7 4,6.6 0.1,0 0.1,0 0.2,0.1 -2.9,7 -5.9,14.4 -7.3,17.3 -0.4,0.8 -0.7,1.4 -1.1,2 l -1.8,-4.9 z m 11.1,-21.8 c 0.1,-0.4 0.3,-0.8 0.5,-1.2 l 0.3,-0.8 c 0.1,-0.3 0.5,-1.1 1,-2.2 l 0,-0.1 c 0.9,-1.9 2,-4.4 2.6,-6.1 l 1.5,0.6 c -0.9,2 -2.3,5.5 -4.6,11.3 l -0.6,1.5 c -0.1,0 -0.3,-0.1 -0.4,-0.2 -0.9,-0.3 -1.2,-0.6 -0.3,-2.8 z M 457,382 c 0.1,-0.1 0.1,-0.2 0.2,-0.3 l 0.5,0.2 c 0,0 0,0 0,0 -0.1,0.4 -0.3,0.9 -0.3,1.4 -0.4,0.3 -0.7,0.7 -1,1.2 0.1,-0.9 -0.1,-1.4 -0.5,-1.7 0.4,-0.1 0.7,-0.3 1.1,-0.8 z m -5.1,10.5 1.1,0.4 c -0.2,0.9 -0.5,2.2 0.8,2.6 l 0.5,0.2 c 0,0 0.1,0 0.1,0 0.2,0.1 0.4,0.1 0.7,0 l 0,0 c 0.2,0.1 0.8,0.3 1.4,0 0.1,0.1 0.3,0.2 0.4,0.2 l 0.4,0.2 c -0.7,1.8 -1.4,3.5 -2.1,5.2 -1.1,-2.4 -2.4,-5.3 -3.8,-8.3 0.2,0 0.4,-0.2 0.5,-0.5 z m 1.4,-4 c 0.3,0.1 0.6,0.1 1,0 0.3,-0.1 0.6,-0.4 0.9,-0.8 -0.1,0.3 -0.2,0.7 -0.2,1.1 -0.4,0.3 -0.7,0.9 -0.9,1.3 l 0,0 -1,-0.4 c 0.1,-0.6 0.1,-1 0,-1.3 0,0 0.1,0 0.2,0.1 z m -67.8,31.4 c 0,-0.1 0.1,-0.1 0.1,-0.2 l 6.1,15.4 -3.7,-0.1 -3.2,-8.8 c 0.1,-0.3 0.1,-0.6 0.2,-0.9 0.3,-1.5 0.6,-2.8 0.7,-3.3 0.1,-0.7 0,-1.4 -0.2,-2.1 z M 325.4,304.1 c -0.2,-0.5 0.2,-1.1 0.8,-1.3 0.2,-0.1 0.3,-0.1 0.5,-0.1 0.2,0 0.3,0 0.5,0.1 0.2,0.1 0.4,0.2 0.5,0.5 l 0.5,1.4 -2.3,0.8 -0.5,-1.4 z m 13,-4.4 c -0.1,-0.3 0,-0.5 0.1,-0.7 0.2,-0.3 0.4,-0.5 0.8,-0.6 0.1,0 0.3,-0.1 0.4,-0.1 0.2,0 0.4,0 0.5,0.1 0.2,0.1 0.4,0.3 0.5,0.6 l 0.4,1.4 -2.3,0.8 -0.4,-1.5 z m 9.5,25.4 c -0.2,0.3 -0.4,0.5 -0.8,0.5 -0.5,0.1 -1,0 -1.3,-0.3 l 2.2,-0.7 c 0,0.2 0,0.3 -0.1,0.5 z m -3.1,-3 -2.1,-7.2 2.3,-0.8 2.1,7.2 -2.3,0.8 z m -3,-10.5 -2.1,-7.2 2.3,-0.8 2.1,7.2 -2.3,0.8 z m -12.4,-3.7 2.7,7 -2.3,0.8 -2.7,-7 2.3,-0.8 z m 3.8,10.2 2.7,7 -2.3,0.8 -2.7,-7 2.3,-0.8 z m 3.8,10.2 c 0,0.4 -0.3,0.8 -0.8,1 -0.5,0.2 -1.1,0.1 -1.3,-0.3 l 2.1,-0.7 z m 76.8,29.7 c -0.1,0 -0.4,0.1 -0.4,0.1 -0.1,0 -0.2,-0.2 -0.3,-0.3 -0.1,-0.2 -0.2,-0.4 -0.4,-0.5 -0.2,-0.2 -0.4,-0.3 -0.6,-0.4 -0.1,-0.1 -0.3,-0.2 -0.3,-0.3 0,-0.1 0,-0.3 0,-0.4 0,-0.2 0.1,-0.4 0.1,-0.7 0,-0.2 -0.1,-0.5 -0.1,-0.7 0,-0.1 -0.1,-0.4 -0.1,-0.4 0,-0.1 0.2,-0.2 0.3,-0.3 0.2,-0.1 0.4,-0.2 0.5,-0.4 0.2,-0.2 0.3,-0.4 0.4,-0.6 0.1,-0.1 0.2,-0.3 0.3,-0.3 0,0 0,0 0.1,0 0.1,0 0.3,0 0.4,0.1 0.2,0 0.4,0.1 0.7,0.1 0,0 0.1,0 0.1,0 l -0.5,1.4 c -0.1,0.2 -0.1,0.4 0,0.5 0.1,0.2 0.2,0.3 0.4,0.4 l 0.3,0.1 c 0.1,0 0.2,0 0.3,0 0.3,0 0.5,-0.2 0.7,-0.4 l 0.5,-1.4 c 0,0 0,0.1 0.1,0.1 0.2,0.2 0.4,0.3 0.6,0.4 0.1,0.1 0.3,0.2 0.3,0.3 0,0.1 0,0.3 0,0.4 0,0.2 -0.1,0.4 -0.1,0.7 0,0.2 0.1,0.5 0.1,0.7 0,0.1 0.1,0.4 0.1,0.4 0,0.1 -0.2,0.2 -0.3,0.3 -0.2,0.1 -0.4,0.2 -0.5,0.4 -0.2,0.2 -0.3,0.4 -0.4,0.6 -0.1,0.1 -0.2,0.3 -0.3,0.3 -0.1,0 -0.3,0 -0.4,0 -0.2,0 -0.4,-0.1 -0.7,-0.1 -0.4,-0.2 -0.7,-0.2 -0.9,-0.1 z m 5.6,-6.3 c 0.1,-0.2 0.2,-0.4 0.3,-0.6 0.1,-0.2 0.1,-0.5 0.1,-0.7 0,-0.1 0,-0.4 0.1,-0.4 0.1,0 0.3,-0.1 0.4,-0.1 0.2,0 0.4,-0.1 0.6,-0.2 0.2,-0.1 0.4,-0.2 0.6,-0.4 0.1,-0.1 0.3,-0.2 0.4,-0.2 0,0 0,0 0,0 0.1,0 0.3,0.1 0.4,0.2 0.2,0.1 0.4,0.2 0.6,0.3 0.2,0.1 0.5,0.1 0.7,0.1 0.1,0 0.4,0 0.4,0.1 0,0.1 0.1,0.3 0.1,0.4 0.1,0.2 0.1,0.4 0.2,0.6 0,0 0,0.1 0.1,0.1 l -1.5,0.1 c -0.2,0 -0.4,0.1 -0.5,0.2 -0.1,0.1 -0.2,0.3 -0.2,0.5 l 0,0.3 c 0,0.4 0.3,0.7 0.7,0.7 0,0 0,0 0,0 l 1.5,-0.1 c 0,0 0,0.1 0,0.1 -0.1,0.2 -0.1,0.5 -0.1,0.7 0,0.1 0,0.4 -0.1,0.4 -0.1,0 -0.3,0.1 -0.4,0.1 -0.2,0 -0.4,0.1 -0.6,0.2 -0.2,0.1 -0.4,0.2 -0.5,0.4 -0.1,0.1 -0.3,0.2 -0.4,0.2 -0.1,0 -0.3,-0.1 -0.4,-0.2 -0.2,-0.1 -0.4,-0.2 -0.6,-0.3 -0.2,-0.1 -0.5,-0.1 -0.7,-0.1 -0.1,0 -0.4,0 -0.4,-0.1 0,-0.1 -0.1,-0.3 -0.1,-0.4 -0.1,-0.2 -0.1,-0.4 -0.2,-0.6 -0.1,-0.2 -0.2,-0.4 -0.4,-0.6 -0.1,-0.1 -0.2,-0.3 -0.2,-0.4 -0.1,0 0,-0.2 0.1,-0.3 z m 4.1,-7.4 -12.3,5.5 5.6,-15.4 7.6,9.8 c -0.3,-0.1 -0.6,-0.1 -0.9,0.1 z m -27.9,47.8 c 0.5,-0.3 1,-0.8 1.2,-1.4 0.2,-0.6 0.2,-1.3 0.1,-1.9 l 11.7,-31.8 1.4,3.2 -2.9,6.6 c -0.1,0.2 -0.1,0.4 0,0.5 0,0.1 0.1,0.2 0.1,0.2 0,0 0,0 0,0 l -18.6,43.2 c 0,0 0,0 0,0.1 0,0 0,0 0,0 l 7,-18.7 z m 91.4,16.4 c 0,0 0,0 0,0 l 0,0 0,0 z"
           id="XMLID_9_" />
        <path
           style="fill:#424143"
           inkscape:connector-curvature="0"
           d="m 378.1,396.9 c 0.5,0.6 1.2,1 1.9,1 0.2,0 0.4,0 0.6,-0.1 1.1,-0.3 2.1,-1.4 2.3,-2.7 0,-0.3 0,-0.6 0,-0.8 0,-0.1 0,-0.4 0,-0.4 0.2,-0.5 0.4,-0.9 0.6,-1.4 0.1,-0.2 0.2,-0.4 0.2,-0.5 l 4.1,-9.2 -1.9,8.8 c 0,0.1 0,0.2 0,0.3 0,0.1 0,0.3 -0.1,0.3 -1.2,1.3 -1.9,3.3 -0.7,4.8 0,0.1 0.1,0.1 0.1,0.2 0.5,0.4 1,0.6 1.6,0.6 0.3,0 0.6,-0.1 0.9,-0.2 1,-0.5 1.7,-1.7 1.7,-3 0,-0.3 -0.1,-0.5 -0.2,-0.8 0,-0.1 -0.1,-0.3 -0.1,-0.3 0.1,-0.5 0.2,-0.9 0.3,-1.4 0,-0.2 0.1,-0.4 0.1,-0.5 l 5.8,-23.6 c 0.1,0.1 0.2,0.1 0.3,0.1 0,0 0,0 0.1,0 0.2,0 0.3,-0.1 0.4,-0.2 l 0.2,0 0,-0.1 c 0,-0.1 0,-0.1 0,-0.2 0,-0.1 0,-0.1 0.1,-0.2 l 0,-0.4 0,0 c 0,-0.4 -0.3,-0.7 -0.6,-0.8 0,0 -0.1,0 -0.1,0 l 0.6,-2.6 14.6,-32.6 c 0.5,-1.1 0.6,-2.2 0.2,-3.1 -0.3,-0.7 -0.8,-1.2 -1.5,-1.4 -0.8,-0.3 -1.8,-0.2 -2.5,0.3 -0.9,0.6 -1.3,1.6 -1.6,2.5 -0.1,0.2 -0.2,0.4 -0.2,0.6 l -2,4.7 0.9,-3.8 c 0.3,-1.1 0.2,-2.2 -0.3,-2.9 -0.4,-0.6 -0.9,-1 -1.7,-1.1 -0.8,-0.2 -1.7,0.1 -2.3,0.7 -0.7,0.7 -0.9,1.7 -1.1,2.6 0,0.2 -0.1,0.4 -0.1,0.6 l -6.5,30.4 -0.1,0.3 c 0,0 0,0 0,0 l -0.2,0.4 -12.3,29.7 c 0,0.1 -0.1,0.2 -0.1,0.3 0,0.1 -0.1,0.3 -0.1,0.4 -1.5,1.1 -2.7,3.1 -1.6,4.8 0.2,-0.3 0.2,-0.2 0.3,-0.1 z"
           id="XMLID_8_" />
        <path
           style="fill:#424143"
           inkscape:connector-curvature="0"
           d="m 467.6,344.1 c 0.7,0.4 1.5,0.5 2.5,0.5 0.2,0 0.4,0 0.6,0 0.6,0 1.8,-0.2 2.8,-0.8 1,-0.6 1.5,-1.5 1.5,-2.6 -0.1,-2 -2.7,-6.6 -4.8,-6.6 0,0 -0.1,0 -0.1,0 -2.1,0.1 -4,5.4 -3.9,7.1 0,1 0.5,1.9 1.4,2.4 z"
           id="XMLID_7_" />
        <path
           style="fill:#424143"
           inkscape:connector-curvature="0"
           d="m 465,353.8 c 0.9,0.7 2.2,1.3 3.2,1.3 0.3,0 0.5,0 0.7,-0.1 1.1,-0.5 1.4,-2.3 1.5,-3.8 0.1,-1.4 0,-3.3 -0.4,-4.2 -0.4,-1 -1.2,-1.5 -2.2,-1.7 -0.9,-0.1 -1.9,0.1 -3.1,0.6 -2.5,1.2 -3.5,3 -2.7,4.7 0.5,1.2 1.9,2.5 3,3.2 z"
           id="XMLID_6_" />
        <path
           style="fill:#424143"
           inkscape:connector-curvature="0"
           d="m 461.2,365.8 c 0,0 0,0 0,0 2,0 6.9,-2.4 6.9,-4.5 0,-2.1 -5.1,-4.3 -6.9,-4.3 0,0 0,0 0,0 -0.9,0 -3.1,0.4 -3.1,4.4 0,2.7 1.2,4.4 3.1,4.4 z"
           id="XMLID_5_" />
        <path
           style="fill:#424143"
           inkscape:connector-curvature="0"
           d="m 444.3,387 c -0.1,-0.4 -0.3,-0.8 -0.5,-1.2 -1.1,-2.6 -3.2,-4.5 -5.7,-5.6 -2.6,-1 -5.4,-1 -7.9,0.1 -5.1,2.3 -7.4,8.4 -5.1,13.7 0.2,0.4 0.4,0.8 0.6,1.2 0.1,0.2 0.4,0.3 0.6,0.3 0.1,0 0.1,0 0.2,0 6.1,-1.8 12,-4.4 17.4,-7.7 0.4,-0.2 0.5,-0.5 0.4,-0.8 z"
           id="XMLID_4_" />
        <path
           style="fill:#424143"
           inkscape:connector-curvature="0"
           d="m 432,400.8 c 0.1,0.2 0.3,0.3 0.5,0.3 0.1,0 0.2,0 0.2,0 3.9,-1.3 7.7,-3 11.3,-5 0.3,-0.1 0.4,-0.4 0.4,-0.7 -0.1,-0.9 -0.1,-1.9 0.1,-2.8 0.2,-1 0.3,-2 0.3,-3 0,-0.2 -0.2,-0.5 -0.4,-0.6 -0.2,-0.1 -0.5,-0.1 -0.7,0 -5,3 -10.5,5.4 -16.1,7.1 -0.2,0.1 -0.4,0.3 -0.5,0.5 -0.1,0.2 0,0.5 0.2,0.7 0.7,0.7 1.5,1.3 2.4,1.8 0.9,0.4 1.7,1 2.3,1.7 z"
           id="XMLID_3_" />
      </g>
    </g>
  </g>
  <g
     transform="translate(0,21.166667)"
     inkscape:label="MWM copy"
     id="g4304"
     inkscape:groupmode="layer">
    <g
       transform="matrix(1.1322698,0,0,1.1322698,-93.810255,-37.764301)"
       id="g4306" />
  </g>
  <g
     inkscape:groupmode="layer"
     id="layer3"
     inkscape:label="Stencil"
     transform="translate(0,21.166667)"
     style="display:inline">
    <text
       xml:space="preserve"
       style="font-style:normal;font-variant:normal;font-weight:normal;font-stretch:normal;font-size:43.991436px;line-height:100%;font-family:Museo;-inkscape-font-specification:'Museo, Normal';text-align:start;letter-spacing:0px;word-spacing:0px;writing-mode:lr-tb;text-anchor:start;fill:#000000;fill-opacity:0.60540538;stroke:#242424;stroke-width:1;stroke-linecap:butt;stroke-linejoin:miter;stroke-miterlimit:4;stroke-dasharray:none;stroke-opacity:1"
       x="29.418909"
       y="127.99204"
       id="text5115"
       sodipodi:linespacing="100%"
       transform="scale(1.0765309,0.92890971)"><tspan
         sodipodi:role="line"
         id="tspan5117"
         x="29.418909"
         y="127.99204"
         style="font-style:normal;font-variant:normal;font-weight:900;font-stretch:condensed;font-size:43.991436px;line-height:100%;font-family:'X.Template';-inkscape-font-specification:'X.Template, Heavy Condensed';text-align:start;writing-mode:lr-tb;text-anchor:start;fill:#000000;fill-opacity:0.60540538;stroke:#242424;stroke-width:1;stroke-miterlimit:4;stroke-dasharray:none;stroke-opacity:1">FAILURE/FRACTURE</tspan></text>
  </g>
  <g
     inkscape:groupmode="layer"
     id="layer5"
     inkscape:label="ep0"
     style="display:none">
    <text
       transform="matrix(1.0765309,0,0,0.9289097,0,21.166667)"
       sodipodi:linespacing="100%"
       id="text4202"
       y="160.81339"
       x="235.98441"
       style="font-style:normal;font-variant:normal;font-weight:900;font-stretch:condensed;font-size:32.67956924px;line-height:100%;font-family:'X.Template';-inkscape-font-specification:'X.Template, Heavy Condensed';text-align:center;letter-spacing:0px;word-spacing:0px;writing-mode:lr-tb;text-anchor:middle;display:inline;fill:#000000;fill-opacity:0.60392157;stroke:#242424;stroke-width:0.81695879px;stroke-linecap:butt;stroke-linejoin:miter;stroke-opacity:1"
       xml:space="preserve"><tspan
         style="font-style:normal;font-variant:normal;font-weight:900;font-stretch:condensed;font-size:32.67956924px;line-height:100%;font-family:'X.Template';-inkscape-font-specification:'X.Template, Heavy Condensed';text-align:center;writing-mode:lr-tb;text-anchor:middle;fill:#000000;fill-opacity:0.60392157;stroke:#242424;stroke-width:0.81695879px;stroke-opacity:1"
         y="160.81339"
         x="235.98441"
         id="tspan4204"
         sodipodi:role="line">EPISODE 0: INTRODUCTION</tspan></text>
  </g>
  <g
     inkscape:groupmode="layer"
     id="layer6"
     inkscape:label="ep1"
     style="display:none">
    <text
       xml:space="preserve"
       style="font-style:normal;font-variant:normal;font-weight:900;font-stretch:condensed;font-size:30.88639259px;line-height:100%;font-family:'X.Template';-inkscape-font-specification:'X.Template, Heavy Condensed';text-align:center;letter-spacing:0px;word-spacing:0px;writing-mode:lr-tb;text-anchor:middle;display:inline;fill:#000000;fill-opacity:0.60392157;stroke:#242424;stroke-width:0.77213109px;stroke-linecap:butt;stroke-linejoin:miter;stroke-opacity:1"
       x="235.4725"
       y="182.83359"
       id="text4216"
       sodipodi:linespacing="100%"
       transform="scale(1.0765309,0.9289097)"><tspan
         sodipodi:role="line"
         id="tspan4218"
         x="235.4725"
         y="182.83359"
         style="font-style:normal;font-variant:normal;font-weight:900;font-stretch:condensed;font-size:30.88639259px;line-height:100%;font-family:'X.Template';-inkscape-font-specification:'X.Template, Heavy Condensed';text-align:center;writing-mode:lr-tb;text-anchor:middle;fill:#000000;fill-opacity:0.60392157;stroke:#242424;stroke-width:0.77213109px;stroke-opacity:1">EPISODE 1: STRESS/TENSION</tspan></text>
  </g>
  <g
     inkscape:label="ep2"
     id="g4216"
     inkscape:groupmode="layer">
    <text
       transform="scale(1.0765309,0.9289097)"
       sodipodi:linespacing="100%"
       id="text4218"
       y="181.01828"
       x="235.29181"
       style="font-style:normal;font-variant:normal;font-weight:900;font-stretch:condensed;font-size:26.32533455px;line-height:100%;font-family:'X.Template';-inkscape-font-specification:'X.Template, Heavy Condensed';text-align:center;letter-spacing:0px;word-spacing:0px;writing-mode:lr-tb;text-anchor:middle;display:inline;fill:#000000;fill-opacity:0.60392157;stroke:#242424;stroke-width:0.65810889px;stroke-linecap:butt;stroke-linejoin:miter;stroke-opacity:1"
       xml:space="preserve"><tspan
         style="font-style:normal;font-variant:normal;font-weight:900;font-stretch:condensed;font-size:26.32533455px;line-height:100%;font-family:'X.Template';-inkscape-font-specification:'X.Template, Heavy Condensed';text-align:center;writing-mode:lr-tb;text-anchor:middle;fill:#000000;fill-opacity:0.60392157;stroke:#242424;stroke-width:0.65810889px;stroke-opacity:1"
         y="181.01828"
         x="235.29181"
         id="tspan4220"
         sodipodi:role="line">EPISODE 3: INEFFICIENT PICKING</tspan></text>
  </g>
</svg>
