<?xml version="1.0" encoding="UTF-8" standalone="no"?>
<!-- Created with Inkscape (http://www.inkscape.org/) -->

<svg
   xmlns:dc="http://purl.org/dc/elements/1.1/"
   xmlns:cc="http://creativecommons.org/ns#"
   xmlns:rdf="http://www.w3.org/1999/02/22-rdf-syntax-ns#"
   xmlns:svg="http://www.w3.org/2000/svg"
   xmlns="http://www.w3.org/2000/svg"
   xmlns:xlink="http://www.w3.org/1999/xlink"
   xmlns:sodipodi="http://sodipodi.sourceforge.net/DTD/sodipodi-0.dtd"
   xmlns:inkscape="http://www.inkscape.org/namespaces/inkscape"
   width="1000"
   height="1000"
   viewBox="0 0 264.58333 264.58334"
   id="svg4332"
   version="1.1"
   inkscape:version="0.91+devel r13925"
   sodipodi:docname="failure-to-fracture.svg"
   inkscape:export-filename="/Users/agarone/Documents/git/art/king-crimson/fracture/failure-to-fracture.png"
   inkscape:export-xdpi="96"
   inkscape:export-ydpi="96">
  <defs
     id="defs4334">
    <linearGradient
       inkscape:collect="always"
       id="linearGradient4392">
      <stop
         style="stop-color:#007d98;stop-opacity:1"
         offset="0"
         id="stop4394" />
      <stop
         style="stop-color:#359800;stop-opacity:0;"
         offset="1"
         id="stop4396" />
    </linearGradient>
    <linearGradient
       id="linearGradient4296"
       inkscape:collect="always">
      <stop
         id="stop4298"
         offset="0"
         style="stop-color:#b7a855;stop-opacity:0.65405405" />
      <stop
         id="stop4300"
         offset="1"
         style="stop-color:#fff2ac;stop-opacity:0.45882353" />
    </linearGradient>
    <linearGradient
       inkscape:collect="always"
       id="linearGradient4284">
      <stop
         style="stop-color:#75b755;stop-opacity:0.5945946"
         offset="0"
         id="stop4286" />
      <stop
         style="stop-color:#a77b1d;stop-opacity:0.16756757"
         offset="1"
         id="stop4288" />
    </linearGradient>
    <linearGradient
       inkscape:collect="always"
       xlink:href="#linearGradient4284"
       id="linearGradient4290"
       x1="12.095238"
       y1="135.40025"
       x2="499.30658"
       y2="135.40025"
       gradientUnits="userSpaceOnUse"
       gradientTransform="matrix(0.48476412,0.01616499,-0.00932267,0.84055404,7.5587218,5.3659102)" />
    <linearGradient
       inkscape:collect="always"
       xlink:href="#linearGradient4296"
       id="linearGradient4294"
       gradientUnits="userSpaceOnUse"
       gradientTransform="matrix(0.45804966,-0.02127351,0.01226886,0.79423265,12.618351,24.703199)"
       x1="12.095238"
       y1="135.40025"
       x2="499.30658"
       y2="135.40025" />
    <linearGradient
       inkscape:collect="always"
       xlink:href="#linearGradient4392"
       id="linearGradient4398"
       x1="12.178114"
       y1="135.48647"
       x2="499.34442"
       y2="135.48647"
       gradientUnits="userSpaceOnUse"
       gradientTransform="matrix(0.48485376,0,0,0.84070947,6.2735097,9.4782701)" />
  </defs>
  <sodipodi:namedview
     id="base"
     pagecolor="#ffffff"
     bordercolor="#666666"
     borderopacity="1.0"
     inkscape:pageopacity="0.0"
     inkscape:pageshadow="2"
     inkscape:zoom="0.7"
     inkscape:cx="972.3481"
     inkscape:cy="568.85065"
     inkscape:document-units="px"
     inkscape:current-layer="layer4"
     showgrid="false"
     units="px"
     showguides="true"
     inkscape:guide-bbox="true"
     inkscape:window-width="1920"
     inkscape:window-height="1151"
     inkscape:window-x="0"
     inkscape:window-y="1"
     inkscape:window-maximized="1">
    <sodipodi:guide
       position="508,0"
       orientation="1,0"
       id="guide4340"
       inkscape:label=""
       inkscape:color="rgb(0,0,255)" />
    <sodipodi:guide
       position="0,0"
       orientation="1,0"
       id="guide4342"
       inkscape:label=""
       inkscape:color="rgb(0,0,255)" />
    <sodipodi:guide
       position="0,0"
       orientation="0,1"
       id="guide4344"
       inkscape:label=""
       inkscape:color="rgb(0,0,255)" />
    <sodipodi:guide
       position="0,285.75"
       orientation="0,1"
       id="guide4346"
       inkscape:label=""
       inkscape:color="rgb(0,0,255)" />
    <sodipodi:guide
       position="254,142.875"
       orientation="1,0"
       id="guide4198"
       inkscape:label=""
       inkscape:color="rgb(0,0,255)" />
    <sodipodi:guide
       position="254,142.875"
       orientation="0,1"
       id="guide4200"
       inkscape:label=""
       inkscape:color="rgb(0,0,255)" />
  </sodipodi:namedview>
  <metadata
     id="metadata4337">
    <rdf:RDF>
      <cc:Work
         rdf:about="">
        <dc:format>image/svg+xml</dc:format>
        <dc:type
           rdf:resource="http://purl.org/dc/dcmitype/StillImage" />
        <dc:title></dc:title>
      </cc:Work>
    </rdf:RDF>
  </metadata>
  <g
     inkscape:label="BG"
     inkscape:groupmode="layer"
     id="layer1"
     transform="translate(0,-32.41665)"
     style="display:inline">
    <rect
       style="opacity:0.731;fill:#d9ba74;fill-opacity:0.16756759;stroke:none;stroke-width:0.37178963;stroke-linecap:round;stroke-miterlimit:4;stroke-dasharray:none;stroke-opacity:1"
       id="rect4302"
       width="264.58334"
       height="264.58334"
       x="0"
       y="32.41666" />
  </g>
  <g
     inkscape:groupmode="layer"
     id="layer4"
     inkscape:label="Watercolor"
     transform="translate(0,-21.166667)">
    <g
       id="g4212"
       transform="matrix(1.0080736,0,0,0.90149582,0.95273153,29.776943)">
      <path
         inkscape:connector-curvature="0"
         id="path4274"
         d="m 12.178114,113.6782 c 0,0 2.580799,-3.30134 3.142148,-5.83588 0.561349,-2.53454 1.212156,-4.59119 2.318935,-6.16492 1.10678,-1.57373 1.852111,-4.264644 1.583013,-5.539439 -0.269098,-1.274802 1.114016,-3.162534 1.02745,-4.275939 -0.08656,-1.113408 0.643572,-0.467857 0.847812,-5.072843 0.20424,-4.604984 2.052732,-8.075235 0.868795,-9.680333 -1.183939,-1.605102 -4.379368,-4.191076 -3.096567,-4.173513 1.282803,0.01756 0.924971,-1.894005 0.930035,-3.006158 0.0051,-1.112153 4.310169,-0.735433 4.571307,2.287035 0.26114,3.022468 -0.482019,5.236738 0.801507,5.095423 1.283526,-0.141314 5.058392,-4.061858 5.978297,-4.843708 0.919904,-0.781848 3.198323,1.95046 3.752436,1.004712 0.554115,-0.945748 -0.06269,-6.356419 0.853599,-6.343874 0.916288,0.01254 2.46023,3.052578 3.473211,1.954224 1.01298,-1.098354 1.208537,-3.796791 2.308082,-3.781736 1.099545,0.01506 4.851259,1.178645 6.134062,1.196209 1.282802,0.01756 3.287781,2.428352 5.579946,2.141958 2.292162,-0.286396 6.340472,-3.885415 6.340472,-3.885415 0,0 2.565604,0.03513 4.201898,2.917535 1.636294,2.882405 1.077113,4.940306 3.454399,6.085078 2.377282,1.144772 3.831765,3.706911 3.831765,3.706911 0,0 1.208537,-3.796788 3.047626,-5.201609 1.839084,-1.404823 5.878707,-3.097292 5.983357,-5.955861 0.104651,-2.858568 3.227269,-4.404706 3.227269,-4.404706 0,0 0.725065,1.757706 1.075668,5.258065 0.350598,3.500358 -1.404098,6.495225 -0.952466,7.93141 0.451631,1.436184 3.191811,3.380371 4.284846,4.825338 1.09303,1.444969 4.407583,-2.00521 4.414817,-3.594001 0.0072,-1.58879 -1.163678,-6.053714 -1.163678,-6.053714 0,0 1.543944,3.040028 4.019365,2.756144 2.475421,-0.283885 4.352857,-10.109299 4.352857,-10.109299 0,0 3.223643,-3.61031 5.694003,-2.782044 2.47036,0.82827 5.7444,6.275325 8.21909,6.150318 2.4747,-0.125005 4.96315,-3.268716 5.87871,-3.09729 0.91557,0.171423 -1.11835,4.115802 -0.11044,4.129603 1.00792,0.0138 1.86007,-6.012317 4.42857,-6.612705 2.5685,-0.600391 10.14691,5.382265 10.14691,5.382265 0,0 4.04614,-3.122381 4.14717,-5.186555 0.10103,-2.064174 9.25306,0.444469 10.16356,1.728046 0.9105,1.28358 -0.66166,4.439833 1.81232,4.473706 2.47397,0.03388 2.57717,-2.506937 2.57717,-2.506937 0,0 5.20403,4.202366 6.39738,3.742038 1.19334,-0.460327 2.0332,-3.785497 2.0332,-3.785497 0,0 4.18235,7.207268 6.28693,7.871642 2.10455,0.66437 3.92484,3.390407 5.57705,2.77747 1.6522,-0.612933 -0.25536,-4.293499 1.39396,-4.270916 1.64932,0.02258 4.04107,-2.01023 6.96306,0.254224 2.92198,2.264453 4.00779,5.298212 4.55829,5.146861 0.55049,-0.151352 1.03612,-6.182487 1.03612,-6.182487 0,0 3.54531,6.245215 6.83816,7.561411 3.29283,1.316198 3.55977,3.067631 2.91186,4.48876 -0.64791,1.421131 -2.21646,3.782992 -2.21646,3.782992 0,0 3.78066,-5.191576 5.88667,-4.844962 2.10601,0.346612 4.75384,2.448424 4.75384,2.448424 0,0 -1.36647,-1.766489 -1.35345,-4.626314 0.0131,-2.859824 -1.35345,-4.626312 -1.35345,-4.626312 0,0 2.48339,-2.031557 3.8513,-0.582827 1.36793,1.448733 4.62315,11.026644 6.46079,9.939581 1.83764,-1.087063 0.20858,-5.558261 0.20858,-5.558261 0,0 4.4927,-0.574042 4.50501,-3.274987 0.0123,-2.700947 1.58444,-5.857201 2.31024,-4.258374 0.7258,1.598828 -1.1169,3.798045 0.70337,6.524082 1.82027,2.726037 7.32596,1.053638 7.58926,3.599467 0.26332,2.545832 1.73805,0.659354 3.29864,0.04516 1.56059,-0.614188 5.28046,7.540083 7.02141,7.56392 1.74094,0.02384 -2.96612,7.427176 -2.96612,7.427176 0,0 7.96084,2.492338 8.77031,5.840098 0.80946,3.34774 0.59581,10.01815 2.14916,10.99276 1.55335,0.9746 2.43997,7.5012 2.43997,7.5012 0,0 -4.41266,3.11735 -3.31889,4.40343 1.09375,1.2861 2.99336,6.71434 2.99336,6.71434 0,0 -1.86875,7.91886 -3.5188,8.05516 -1.65004,0.1363 -1.31175,6.3376 -3.6162,9.32494 -2.30446,2.98734 -8.1241,13.23545 -9.22366,13.2204 -1.09954,-0.0151 -0.25968,-3.34023 -2.28131,-2.0968 -2.02161,1.24342 -7.48705,14.1975 -7.48705,14.1975 0,0 -1.35778,-3.67304 -2.73438,-3.21522 -1.3766,0.45781 -5.00874,13.27811 -9.31528,13.21914 -4.30655,-0.059 -3.19688,-2.26822 -5.21199,-2.4547 -2.01511,-0.18648 -7.16585,4.033 -7.16585,4.033 0,0 0.1847,-0.31524 -0.35132,-3.34147 -0.53603,-3.02623 -3.09584,-4.3324 -3.09584,-4.3324 0,0 -2.41924,8.07022 -4.61906,8.19899 -2.19982,0.12877 -1.26037,-4.94282 -3.45947,-4.97293 -2.19908,-0.0301 -8.26684,4.3357 -8.26684,4.3357 0,0 -7.24373,1.01305 -8.14121,-3.13035 -0.89748,-4.1434 -4.71911,-10.07462 -4.71911,-10.07462 0,0 -2.5837,3.93684 -2.1364,6.32631 0.44729,2.38946 -2.65651,-0.19526 -5.31664,0.40388 -2.66013,0.59913 -6.98838,5.30654 -9.00277,4.96118 -2.01438,-0.34537 -4.91032,-8.32946 -4.91032,-8.32946 0,0 0.23942,7.78884 -1.77931,8.39676 -2.01871,0.60791 -2.67024,2.82344 -2.67024,2.82344 0,0 0.94161,-5.54823 -1.79352,-8.60457 -2.73511,-3.05634 -8.04596,-3.9235 -8.038,-5.67116 0.008,-1.74768 -1.90249,-4.79272 -3.09511,-4.49128 -1.19262,0.30145 -3.12768,2.65829 -4.41048,2.64073 -1.28281,-0.0176 -3.19326,-3.06262 -3.19326,-3.06262 0,0 -0.0325,7.14956 -0.8565,6.97939 -0.82393,-0.17017 -5.28914,-5.63353 -5.28914,-5.63353 0,0 -1.41206,8.24289 -3.61838,9.80158 -2.20632,1.55868 -2.55041,-3.37159 -3.73869,-4.02341 -1.18828,-0.65183 -2.31748,5.84715 -3.50649,5.35421 -1.18901,-0.49295 -4.561901,-4.35246 -5.029455,-2.2933 -0.467549,2.05915 2.266846,5.27437 2.266846,5.27437 0,0 -5.597311,1.67114 -6.411119,-0.72333 -0.813803,-2.39449 -0.524447,-5.5683 -1.623994,-5.58336 -1.099541,-0.0151 -0.379538,2.85481 -3.126952,2.49941 -2.747419,-0.35539 -4.192492,-4.98296 -5.474571,-5.15941 -1.28208,-0.17643 -1.851385,4.10576 -1.851385,4.10576 0,0 -1.719961,-4.63132 -4.74733,-3.87833 -3.027368,0.753 -4.147172,5.18656 -3.32902,6.62777 0.818142,1.4412 -6.105123,-7.55137 -8.396566,-7.42386 -2.291439,0.12752 0.606673,7.63498 -0.767757,7.61616 -1.374429,-0.0189 -3.546026,-6.08633 -5.470231,-6.11268 -1.924206,-0.0263 -3.782824,5.66822 -4.328979,4.86629 -0.546155,-0.80192 1.847769,-3.31137 1.306678,-5.22545 -0.541089,-1.91407 -8.141934,-2.97148 -8.881474,-1.5516 -0.739542,1.41987 -1.175981,-3.35277 -1.175981,-3.35277 0,0 -2.22803,6.32505 -3.144318,6.3125 -0.916287,-0.0125 0.754736,-4.75633 -1.617481,-7.01326 -2.372218,-2.25693 -8.961528,-4.09493 -9.315744,-6.80089 -0.354214,-2.70596 -1.807974,-5.42699 -2.63625,-4.64387 -0.828276,0.78311 -1.391073,3.6354 -1.391073,3.6354 0,0 -0.06413,-6.03866 -2.44214,-7.02456 -2.378006,-0.98589 -4.571308,-2.28703 -4.571308,-2.28703 0,0 3.22437,-3.7692 3.229435,-4.88134 0.0051,-1.11216 -3.199046,-1.79159 -3.190364,-3.69814 0.0087,-1.90655 1.501512,-7.765 0.867346,-9.36257 -0.634166,-1.59758 -0.541089,-1.91407 -3.821636,-5.93122 -3.280545,-4.01714 2.769845,-4.56985 1.037581,-6.50025 -1.732264,-1.93037 -5.279014,-7.85783 -5.279014,-7.85783 z"
         style="display:inline;opacity:0.731;fill:url(#linearGradient4398);fill-opacity:0.29729734;fill-rule:evenodd;stroke:none;stroke-width:0.1689238px;stroke-linecap:butt;stroke-linejoin:miter;stroke-opacity:1" />
      <path
         style="display:inline;opacity:0.67099998;fill:url(#linearGradient4290);fill-opacity:1;fill-rule:evenodd;stroke:none;stroke-width:0.1689238px;stroke-linecap:butt;stroke-linejoin:miter;stroke-opacity:1"
         d="m 12.248651,111.35867 c 0,0 2.60221,-3.25042 3.180088,-5.77377 0.577877,-2.52334 1.242084,-4.56706 2.359079,-6.11895 1.116994,-1.55188 1.879864,-4.227981 1.619115,-5.507977 -0.260749,-1.280005 1.134614,-3.14044 1.055331,-4.255474 -0.07928,-1.115038 0.646588,-0.45518 0.880912,-5.055858 0.234324,-4.600675 2.105378,-8.034379 0.932007,-9.662639 -1.173372,-1.628263 -4.351695,-4.276863 -3.06909,-4.234093 1.282605,0.04277 0.937289,-1.875706 0.949622,-2.987691 0.01234,-1.111981 4.314699,-0.650688 4.556066,2.376717 0.241368,3.027404 -0.516214,5.226931 0.768153,5.110844 1.284367,-0.116082 5.084614,-3.962198 6.00957,-4.725922 0.924955,-0.763721 3.18537,2.013182 3.745629,1.078384 0.56026,-0.934799 -0.02114,-6.357242 0.895006,-6.326693 0.916148,0.03055 2.440121,3.100725 3.460215,2.022346 1.020094,-1.078378 1.233275,-3.772798 2.332651,-3.736138 1.099376,0.03666 4.843245,1.273898 6.12585,1.316667 1.282604,0.04277 3.271698,2.492802 5.565588,2.251467 2.29389,-0.241336 6.365459,-3.760574 6.365459,-3.760574 0,0 2.565211,0.08554 4.182557,2.999915 1.617351,2.914374 1.044758,4.961155 3.414408,6.152567 2.369645,1.191413 3.80729,3.781968 3.80729,3.781968 0,0 1.233279,-3.772796 3.08143,-5.141389 1.848146,-1.368594 5.898576,-2.981575 6.021898,-5.837905 0.123328,-2.856328 3.255847,-4.341007 3.255847,-4.341007 0,0 0.713535,1.771841 1.041238,5.278866 0.327698,3.507022 -1.44646,6.467217 -1.004244,7.912184 0.442216,1.444967 3.169513,3.442874 4.253035,4.909225 1.083518,1.466354 4.420402,-1.91847 4.438022,-3.507018 0.0176,-1.588545 -1.124037,-6.076192 -1.124037,-6.076192 0,0 1.523973,3.070171 4.001091,2.834948 2.477118,-0.235224 4.418652,-10.023114 4.418652,-10.023114 0,0 3.247041,-3.546735 5.711821,-2.669978 2.46479,0.876759 5.70301,6.3878 8.17837,6.311429 2.47535,-0.07637 4.98419,-3.17098 5.89857,-2.981574 0.91439,0.189403 -1.14518,4.093563 -0.13742,4.127168 1.00776,0.0336 1.89924,-5.97538 4.4715,-6.525259 2.57226,-0.54988 10.11109,5.581308 10.11109,5.581308 0,0 4.06628,-3.042673 4.18079,-5.104729 0.11452,-2.062056 9.24956,0.626263 10.15162,1.92765 0.90205,1.301388 -0.69064,4.426546 1.78296,4.509031 2.47359,0.08248 2.59339,-2.456135 2.59339,-2.456135 0,0 5.17623,4.304358 6.37251,3.867508 1.19627,-0.436848 2.05781,-3.745301 2.05781,-3.745301 0,0 4.13498,7.288989 6.23508,7.994674 2.10008,0.705683 3.90243,3.467314 5.55854,2.886883 1.6561,-0.580428 -0.22728,-4.298242 1.42179,-4.243251 1.64906,0.05499 4.05395,-1.930693 6.96095,0.391032 2.90699,2.321726 3.97291,5.376626 4.52435,5.236103 0.55145,-0.140526 1.07647,-6.16173 1.07647,-6.16173 0,0 3.50426,6.314479 6.7883,7.695296 3.28402,1.380817 3.53949,3.137384 2.88233,4.54569 -0.65716,1.408308 -2.24104,3.739194 -2.24104,3.739194 0,0 3.81435,-5.11695 5.91796,-4.728976 2.10361,0.387974 4.73753,2.54168 4.73753,2.54168 0,0 -1.35483,-1.793226 -1.32312,-4.652612 0.0317,-2.859384 -1.32313,-4.652611 -1.32313,-4.652611 0,0 2.4965,-1.982627 3.85486,-0.50711 1.35837,1.47552 4.55079,11.11678 6.39541,10.065897 1.84462,-1.050882 0.2449,-5.553804 0.2449,-5.553804 0,0 4.49616,-0.485724 4.52612,-3.186254 0.03,-2.700531 1.62262,-5.825689 2.33793,-4.212704 0.7153,1.612987 -1.14166,3.775855 0.66068,6.537484 1.80234,2.761632 7.3186,1.197528 7.56525,3.748367 0.24666,2.550842 1.73363,0.693465 3.29813,0.10998 1.5645,-0.583483 5.23084,7.643361 6.97152,7.701405 1.74068,0.05804 -3.01447,7.368415 -3.01447,7.368415 0,0 7.94404,2.6486 8.73157,6.01204 0.78754,3.36345 0.53031,10.02924 2.07718,11.0343 1.54689,1.00507 2.3908,7.54866 2.3908,7.54866 0,0 -4.43275,3.03045 -3.34746,4.33795 1.08528,1.3075 2.94928,6.77271 2.94928,6.77271 0,0 -1.92039,7.88164 -3.57122,7.9855 -1.65082,0.10387 -1.35308,6.31142 -3.67692,9.25328 -2.32383,2.94187 -8.21008,13.07497 -9.30946,13.0383 -1.09938,-0.0366 -0.23784,-3.3451 -2.26746,-2.14148 -2.02962,1.20362 -7.57936,14.04946 -7.57936,14.04946 0,0 -1.33369,-3.69949 -2.71319,-3.26874 -1.37952,0.43074 -5.0952,13.17883 -9.40109,13.03524 -4.30588,-0.14358 -3.18184,-2.33089 -5.19561,-2.55695 -2.01376,-0.22606 -7.19175,3.89193 -7.19175,3.89193 0,0 0.18676,-0.3116 -0.32945,-3.34817 -0.51621,-3.03657 -3.06733,-4.39295 -3.06733,-4.39295 0,0 -2.47183,8.02217 -4.67235,8.1077 -2.20052,0.0855 -1.22799,-4.96726 -3.42674,-5.04058 -2.19875,-0.0733 -8.29465,4.17298 -8.29465,4.17298 0,0 -7.24989,0.87063 -8.12023,-3.29014 -0.87034,-4.16078 -4.65296,-10.16671 -4.65296,-10.16671 0,0 -2.60926,3.88583 -2.17761,6.28392 0.43164,2.39811 -2.65507,-0.24744 -5.31894,0.29938 -2.66388,0.54682 -7.02261,5.16888 -9.03462,4.78397 -2.01199,-0.38493 -4.85556,-8.42542 -4.85556,-8.42542 0,0 0.1885,7.79304 -1.83407,8.36125 -2.02256,0.56822 -2.68853,2.77079 -2.68853,2.77079 0,0 0.97781,-5.52936 -1.73716,-8.63926 -2.71496,-3.10988 -8.0198,-4.08134 -8.00042,-5.82874 0.0194,-1.74741 -1.87105,-4.8298 -3.06557,-4.55181 -1.19451,0.278 -3.14484,2.59666 -4.42745,2.5539 -1.28261,-0.0428 -3.17304,-3.12517 -3.17304,-3.12517 0,0 -0.0793,7.14846 -0.90205,6.96212 -0.82277,-0.18635 -5.25198,-5.73711 -5.25198,-5.73711 0,0 -1.46585,8.21462 -3.68222,9.72984 -2.21636,1.51523 -2.52821,-3.42148 -3.71215,-4.09661 -1.18394,-0.67514 -2.35555,5.80124 -3.54126,5.28497 -1.185708,-0.51629 -4.533158,-4.44183 -5.014143,-2.39199 -0.480975,2.04983 2.232228,5.31857 2.232228,5.31857 0,0 -5.607876,1.56105 -6.40598,-0.84926 -0.798098,-2.41032 -0.48802,-5.57825 -1.587396,-5.61492 -1.099372,-0.0366 -0.398172,2.84717 -3.143089,2.43782 -2.744917,-0.40936 -4.159653,-5.06503 -5.4405,-5.26666 -1.280839,-0.20161 -1.878101,4.06912 -1.878101,4.06912 0,0 -1.689579,-4.66482 -4.721675,-3.97136 -3.032096,0.69346 -4.180802,5.10472 -3.372124,6.56191 0.808673,1.45719 -6.055378,-7.67085 -8.347505,-7.58837 -2.292126,0.0825 0.556734,7.64641 -0.817487,7.60058 -1.374216,-0.0458 -3.506021,-6.15562 -5.429926,-6.21977 -1.923909,-0.0641 -3.819628,5.59351 -4.360508,4.78091 -0.540878,-0.8126 1.869291,-3.27485 1.340747,-5.19944 -0.528545,-1.92458 -8.12199,-3.13127 -8.870763,-1.72602 -0.748775,1.40524 -1.153992,-3.37567 -1.153992,-3.37567 0,0 -2.269226,6.28087 -3.185373,6.25032 -0.916147,-0.0305 0.785774,-4.7412 -1.571541,-7.0446 -2.357315,-2.30339 -8.934189,-4.27076 -9.270697,-6.9835 -0.336506,-2.71275 -1.772388,-5.46217 -2.605729,-4.69539 -0.833341,0.76678 -1.414744,3.60784 -1.414744,3.60784 0,0 -0.02466,-6.03954 -2.396072,-7.0721 -2.37141,-1.03255 -4.556067,-2.37671 -4.556067,-2.37671 0,0 3.248798,-3.70559 3.261131,-4.81756 0.01233,-1.112 -3.187132,-1.85434 -3.16599,-3.76059 0.02115,-1.90626 1.552167,-7.73501 0.928483,-9.34494 -0.623685,-1.60993 -0.528545,-1.92458 -3.782626,-6.00593 -3.25408,-4.08135 2.799534,-4.51514 1.079998,-6.47944 -1.719536,-1.96429 -5.227318,-7.96106 -5.227318,-7.96106 z"
         id="path4282"
         inkscape:connector-curvature="0" />
      <path
         inkscape:connector-curvature="0"
         id="path4292"
         d="m 19.702804,124.41284 c 0,0 2.375154,-3.26468 2.857452,-5.69043 0.482296,-2.42573 1.058115,-4.40518 2.073719,-5.95442 1.015605,-1.54925 1.668715,-4.13313 1.390468,-5.32187 -0.278247,-1.18874 0.992418,-3.05026 0.88962,-4.09694 -0.102795,-1.04668 0.599006,-0.47845 0.704897,-4.839393 0.105891,-4.360961 1.786199,-7.743582 0.637655,-9.192319 -1.148544,-1.44874 -4.21545,-3.709633 -3.003527,-3.765919 1.211923,-0.05629 0.837835,-1.841411 0.821605,-2.892115 -0.01623,-1.050702 4.057005,-0.939464 4.360757,1.900386 0.303752,2.839847 -0.356313,4.973419 0.853292,4.767032 1.209604,-0.206385 4.70084,-4.123739 5.554907,-4.914446 0.854065,-0.790705 3.057631,1.660492 3.563115,0.735766 0.505483,-0.924727 -0.179314,-6 0.686346,-6.040205 0.86566,-0.04021 2.381335,2.743359 3.31733,1.64843 0.935994,-1.094928 1.069708,-3.654679 2.1085,-3.702924 1.038792,-0.04824 4.604226,0.83762 5.816149,0.781334 1.211923,-0.05629 3.151155,2.106774 5.310664,1.706061 2.159515,-0.400714 5.915085,-4.029924 5.915085,-4.029924 0,0 2.423847,-0.112568 4.023763,2.51687 1.599925,2.629441 1.110674,4.604871 3.377617,5.55104 2.266944,0.946173 3.689102,3.283454 3.689102,3.283454 0,0 1.069704,-3.654677 2.780161,-5.085991 1.710448,-1.431315 5.493849,-3.259318 5.538669,-5.965147 0.04485,-2.705829 2.96489,-4.343531 2.96489,-4.343531 0,0 0.71803,1.618942 1.115309,4.905072 0.397275,3.286128 -1.203421,6.214428 -0.749729,7.545229 0.453702,1.330802 3.078501,3.011396 4.138164,4.314055 1.059653,1.302661 4.125014,-2.144287 4.101824,-3.645294 -0.02323,-1.501 -1.213458,-5.651551 -1.213458,-5.651551 0,0 1.515677,2.783559 3.848318,2.374808 2.332641,-0.408753 3.920212,-9.795392 3.920212,-9.795392 0,0 2.97647,-3.593028 5.32534,-2.951078 2.34888,0.641949 5.54409,5.600633 7.87905,5.341979 2.33496,-0.25865 4.62587,-3.369215 5.49384,-3.259317 0.86799,0.109893 -0.9785,3.950859 -0.0263,3.906634 0.95223,-0.04422 1.64321,-5.78423 4.05778,-6.497202 2.41457,-0.712977 9.68533,4.507045 9.68533,4.507045 0,0 3.76254,-3.178908 3.81895,-5.134236 0.0564,-1.955326 8.7478,-0.105864 9.63202,1.054734 0.8842,1.160602 -0.54105,4.230958 1.79624,4.122406 2.33728,-0.108551 2.38674,-2.514179 2.38674,-2.514179 0,0 4.99455,3.673448 6.11294,3.17088 1.11841,-0.502566 1.84881,-3.69086 1.84881,-3.69086 0,0 4.08636,6.569581 6.08667,7.077514 2.00028,0.507932 3.77102,2.979233 5.31994,2.30646 1.5489,-0.672769 -0.32232,-4.040651 1.23588,-4.113019 1.55818,-0.07237 3.77876,-2.128208 6.58133,-0.155455 2.80256,1.972754 3.88542,4.776418 4.40249,4.602198 0.51707,-0.174225 0.86179,-5.898147 0.86179,-5.898147 0,0 3.46651,5.697123 6.60144,6.753191 3.13491,1.056069 3.42012,2.695113 2.83502,4.074159 -0.58509,1.379048 -2.02193,3.698905 -2.02193,3.698905 0,0 3.47269,-5.118156 5.46834,-4.910425 1.99565,0.20773 4.53621,2.042445 4.53621,2.042445 0,0 -1.32399,-1.590797 -1.36573,-4.29261 -0.0417,-2.701809 -1.36574,-4.292606 -1.36574,-4.292606 0,0 2.30714,-2.059859 3.6265,-0.769262 1.31936,1.2906 4.57486,10.151893 6.28994,9.020781 1.71508,-1.131111 0.092,-5.261559 0.092,-5.261559 0,0 4.23246,-0.797404 4.19304,-3.349112 -0.0394,-2.551711 1.38582,-5.622066 2.10155,-4.153226 0.7157,1.468842 -0.98316,3.650659 0.78758,6.121958 1.77074,2.471301 6.9392,0.578968 7.23599,2.968514 0.2968,2.389549 1.65403,0.524016 3.11637,-0.144735 1.46235,-0.66875 5.12981,6.821538 6.77456,6.745152 1.64475,-0.07639 -2.66112,7.183378 -2.66112,7.183378 0,0 7.566,1.901726 8.39378,5.017656 0.8278,3.115923 0.75205,9.428193 2.23757,10.260433 1.48554,0.83227 2.44627,6.94618 2.44627,6.94618 0,0 -4.1088,3.19499 -3.05145,4.34755 1.05733,1.15257 2.95405,6.17155 2.95405,6.17155 0,0 -1.61538,7.58544 -3.17126,7.8079 -1.55586,0.22248 -1.11917,6.06031 -3.23926,9.01273 -2.12009,2.95242 -7.42303,12.96225 -8.46183,13.0105 -1.03879,0.0482 -0.30838,-3.14006 -2.19429,-1.8508 -1.8859,1.28925 -6.80316,13.83471 -6.80316,13.83471 0,0 -1.35181,-3.39203 -2.64334,-2.88141 -1.29154,0.51061 -4.4798,12.82554 -8.5484,13.01451 -4.06859,0.18896 -3.06226,-1.9607 -4.96904,-2.02233 -1.90677,-0.0617 -6.69186,4.21619 -6.69186,4.21619 0,0 0.1685,-0.30824 -0.39495,-3.13602 -0.56344,-2.8278 -3.00585,-3.91602 -3.00585,-3.91602 0,0 -2.13246,7.75965 -4.20772,8.00624 -2.07527,0.24663 -1.2838,-4.59683 -3.36139,-4.50033 -2.07758,0.0965 -7.72601,4.56464 -7.72601,4.56464 0,0 -6.82247,1.36832 -7.74842,-2.49408 -0.92595,-3.86241 -4.6475,-9.24727 -4.6475,-9.24727 0,0 -2.36589,3.86508 -1.89827,6.09649 0.4676,2.23141 -2.51274,-0.0336 -5.01387,0.6835 -2.50115,0.71697 -6.50018,5.40896 -8.40927,5.1972 -1.90909,-0.21175 -4.79513,-7.58811 -4.79513,-7.58811 0,0 0.37331,7.34286 -1.52187,8.03171 -1.89516,0.68885 -2.46867,2.81839 -2.46867,2.81839 0,0 0.78451,-5.29372 -1.85653,-8.02501 -2.64103,-2.7313 -7.67345,-3.24861 -7.69896,-4.89972 -0.0255,-1.6511 -1.88743,-4.41858 -3.00815,-4.06612 -1.12073,0.35247 -2.90383,2.6884 -4.11575,2.7447 -1.21193,0.0562 -3.07386,-2.7112 -3.07386,-2.7112 0,0 0.10433,6.75453 -0.67708,6.64061 -0.78141,-0.11392 -5.10197,-5.02035 -5.10197,-5.02035 0,0 -1.17793,7.86555 -3.23232,9.46303 -2.0544,1.5975 -2.47254,-3.03953 -3.60717,-3.58766 -1.13464,-0.54814 -2.07836,5.65423 -3.21067,5.2562 -1.13232,-0.39804 -4.3909,-3.85169 -4.79359,-1.88029 -0.40269,1.9714 2.24067,4.8528 2.24067,4.8528 0,0 -5.255028,1.89635 -6.068899,-0.31897 -0.813871,-2.21532 -0.600545,-5.2294 -1.639339,-5.18115 -1.03879,0.0482 -0.304522,2.71789 -2.906141,2.5383 -2.601618,-0.17958 -4.053911,-4.46817 -5.268154,-4.56199 -1.214239,-0.0938 -1.671034,3.98303 -1.671034,3.98303 0,0 -1.711989,-4.27653 -4.557073,-3.39335 -2.845087,0.88318 -3.81895,5.13423 -3.018995,6.44895 0.799965,1.31472 -5.908893,-6.78535 -8.07072,-6.53473 -2.161827,0.25058 0.717258,7.17668 -0.581233,7.23697 -1.298487,0.0603 -3.464183,-5.54701 -5.282065,-5.46258 -1.817882,0.0845 -3.46573,5.56845 -3.996722,4.84207 -0.530988,-0.72636 1.682626,-3.23251 1.135411,-5.0096 -0.547221,-1.77707 -7.746108,-2.34398 -8.417766,-0.96092 -0.671661,1.38307 -1.17405,-3.09984 -1.17405,-3.09984 0,0 -1.984835,6.1005 -2.850495,6.14071 -0.865658,0.0402 0.622968,-4.53518 -1.660208,-6.53205 -2.283176,-1.99689 -8.541428,-3.35852 -8.92711,-5.89414 -0.385681,-2.53563 -1.810154,-5.02301 -2.577653,-4.23633 -0.7675,0.78669 -1.245161,3.51264 -1.245161,3.51264 0,0 -0.174674,-5.69982 -2.4393,-6.49589 -2.264627,-0.79606 -4.360758,-1.90037 -4.360758,-1.90037 0,0 2.974159,-3.74315 2.957928,-4.79384 -0.01623,-1.05071 -3.055313,-1.5104 -3.083137,-3.3116 -0.02782,-1.80121 1.27144,-7.41926 0.642292,-8.89212 -0.629149,-1.47286 -0.547219,-1.77707 -3.72156,-5.38485 -3.174339,-3.60778 2.529737,-4.47353 0.85716,-6.19835 -1.672576,-1.7248 -5.134439,-7.12173 -5.134439,-7.12173 z"
         style="display:inline;opacity:0.76999996;fill:url(#linearGradient4294);fill-opacity:1;fill-rule:evenodd;stroke:none;stroke-width:0.15964244px;stroke-linecap:butt;stroke-linejoin:miter;stroke-opacity:1" />
    </g>
  </g>
  <g
     inkscape:groupmode="layer"
     id="layer3"
     inkscape:label="Stencil"
     style="display:inline">
    <text
       xml:space="preserve"
       style="font-style:normal;font-variant:normal;font-weight:normal;font-stretch:normal;font-size:43.49425888px;line-height:100%;font-family:Museo;-inkscape-font-specification:'Museo, Normal';text-align:start;letter-spacing:0px;word-spacing:0px;writing-mode:lr-tb;text-anchor:start;fill:#000000;fill-opacity:0.60540538;stroke:#242424;stroke-width:0.9886983;stroke-linecap:butt;stroke-linejoin:miter;stroke-miterlimit:4;stroke-dasharray:none;stroke-opacity:1"
       x="122.92507"
       y="128.00409"
       id="text5115"
       sodipodi:linespacing="100%"
       transform="scale(1.0765309,0.92890971)"><tspan
         sodipodi:role="line"
         x="122.92507"
         y="128.00409"
         style="font-style:normal;font-variant:normal;font-weight:900;font-stretch:condensed;font-size:43.49425888px;line-height:100%;font-family:'X.Template';-inkscape-font-specification:'X.Template, Heavy Condensed';text-align:center;writing-mode:lr-tb;text-anchor:middle;fill:#000000;fill-opacity:0.60540538;stroke:#242424;stroke-width:0.9886983;stroke-miterlimit:4;stroke-dasharray:none;stroke-opacity:1"
         id="tspan4217">FAILURE</tspan></text>
    <text
       transform="scale(1.0765309,0.92890971)"
       sodipodi:linespacing="100%"
       id="text4223"
       y="128.82672"
       x="122.91716"
       style="font-style:normal;font-variant:normal;font-weight:normal;font-stretch:normal;font-size:34.44578171px;line-height:100%;font-family:Museo;-inkscape-font-specification:'Museo, Normal';text-align:start;letter-spacing:0px;word-spacing:0px;writing-mode:lr-tb;text-anchor:start;fill:#000000;fill-opacity:0.60540538;stroke:#242424;stroke-width:0.78301108;stroke-linecap:butt;stroke-linejoin:miter;stroke-miterlimit:4;stroke-dasharray:none;stroke-opacity:1"
       xml:space="preserve"><tspan
         id="tspan4225"
         style="font-style:normal;font-variant:normal;font-weight:900;font-stretch:condensed;font-size:34.44578171px;line-height:100%;font-family:'X.Template';-inkscape-font-specification:'X.Template, Heavy Condensed';text-align:center;writing-mode:lr-tb;text-anchor:middle;fill:#000000;fill-opacity:0.60540538;stroke:#242424;stroke-width:0.78301108;stroke-miterlimit:4;stroke-dasharray:none;stroke-opacity:1"
         y="128.82672"
         x="122.91716"
         sodipodi:role="line" /><tspan
         id="tspan4227"
         style="font-style:normal;font-variant:normal;font-weight:900;font-stretch:condensed;font-size:34.44578171px;line-height:100%;font-family:'X.Template';-inkscape-font-specification:'X.Template, Heavy Condensed';text-align:center;writing-mode:lr-tb;text-anchor:middle;fill:#000000;fill-opacity:0.60540538;stroke:#242424;stroke-width:0.78301108;stroke-miterlimit:4;stroke-dasharray:none;stroke-opacity:1"
         y="163.27251"
         x="122.91716"
         sodipodi:role="line">FRACTURE</tspan></text>
  </g>
</svg>
