<?xml version="1.0" encoding="UTF-8" standalone="no"?>
<!-- Created with Inkscape (http://www.inkscape.org/) -->

<svg
   xmlns:dc="http://purl.org/dc/elements/1.1/"
   xmlns:cc="http://creativecommons.org/ns#"
   xmlns:rdf="http://www.w3.org/1999/02/22-rdf-syntax-ns#"
   xmlns:svg="http://www.w3.org/2000/svg"
   xmlns="http://www.w3.org/2000/svg"
   xmlns:sodipodi="http://sodipodi.sourceforge.net/DTD/sodipodi-0.dtd"
   xmlns:inkscape="http://www.inkscape.org/namespaces/inkscape"
   width="1000"
   height="1000"
   viewBox="0 0 264.58333 264.58334"
   version="1.1"
   id="svg8"
   inkscape:version="0.92.1 r15371"
   sodipodi:docname="dweezil-zappa.svg"
   inkscape:export-filename="C:\Users\Anthony Garone\Documents\GitHub\art\dweezil-zappa\dweezil-zappa-transparent.png"
   inkscape:export-xdpi="144"
   inkscape:export-ydpi="144">
  <defs
     id="defs2" />
  <sodipodi:namedview
     id="base"
     pagecolor="#ffffff"
     bordercolor="#666666"
     borderopacity="1.0"
     inkscape:pageopacity="0.0"
     inkscape:pageshadow="2"
     inkscape:zoom="0.7"
     inkscape:cx="545.61306"
     inkscape:cy="436.148"
     inkscape:document-units="px"
     inkscape:current-layer="layer1"
     showgrid="false"
     units="px"
     showguides="true"
     inkscape:guide-bbox="true"
     inkscape:window-width="1920"
     inkscape:window-height="1057"
     inkscape:window-x="-8"
     inkscape:window-y="-8"
     inkscape:window-maximized="1"
     inkscape:snap-global="false">
    <sodipodi:guide
       position="264.58334,264.58334"
       orientation="1,0"
       id="guide10"
       inkscape:locked="false"
       inkscape:label=""
       inkscape:color="rgb(0,0,255)" />
    <sodipodi:guide
       position="0,0"
       orientation="1,0"
       id="guide12"
       inkscape:locked="false"
       inkscape:label=""
       inkscape:color="rgb(0,0,255)" />
    <sodipodi:guide
       position="264.58334,264.58334"
       orientation="0,1"
       id="guide14"
       inkscape:locked="false"
       inkscape:label=""
       inkscape:color="rgb(0,0,255)" />
    <sodipodi:guide
       position="0,0"
       orientation="0,1"
       id="guide16"
       inkscape:locked="false"
       inkscape:label=""
       inkscape:color="rgb(0,0,255)" />
  </sodipodi:namedview>
  <metadata
     id="metadata5">
    <rdf:RDF>
      <cc:Work
         rdf:about="">
        <dc:format>image/svg+xml</dc:format>
        <dc:type
           rdf:resource="http://purl.org/dc/dcmitype/StillImage" />
        <dc:title></dc:title>
      </cc:Work>
    </rdf:RDF>
  </metadata>
  <g
     inkscape:label="BG"
     inkscape:groupmode="layer"
     id="layer1"
     transform="translate(0,-32.41665)"
     style="display:none">
    <rect
       id="rect4493"
       width="264.58334"
       height="264.58334"
       x="0"
       y="32.416641"
       style="fill:#fffdfc;fill-opacity:1;stroke-width:0.26458332" />
  </g>
  <g
     inkscape:groupmode="layer"
     id="layer2"
     inkscape:label="DZ"
     style="display:inline">
    <path
       style="fill:#483737;stroke:none;stroke-width:0.26458332px;stroke-linecap:butt;stroke-linejoin:miter;stroke-opacity:1"
       d="m 81.91811,153.53284 c 3.340868,9.08717 5.879928,14.03165 11.225319,19.37704 5.34539,5.34539 11.225321,16.16981 14.432551,18.30797 3.20724,2.13815 12.16077,7.75081 21.38156,5.07812 9.22081,-2.6727 35.27958,-15.90254 40.49134,-22.98518 5.21175,-7.08265 8.41899,-24.72243 9.88897,-25.25697 1.46998,-0.53454 5.7463,0.26727 8.01809,-3.47451 2.27179,-3.74177 6.81537,-10.42351 7.88445,-13.49711 1.06907,-3.0736 1.20271,-10.15624 1.73725,-13.49711 0.53454,-3.34087 0.13363,-10.02261 -1.87089,-13.49711 -2.00452,-3.4745 -13.0962,-2.53906 -14.69982,-7.884449 -1.60362,-5.345391 1.73725,-31.270535 -2.6727,-41.025873 -4.40994,-9.755339 -26.86058,-20.713388 -36.48229,-19.777946 -9.6217,0.935445 -20.71338,12.160763 -31.67144,11.759859 -10.958045,-0.400902 -18.040687,-4.276312 -21.916095,-1.336347 -3.87541,2.939965 -10.022609,15.367997 -10.958052,20.312483 -0.935442,4.944488 -0.534537,23.118815 0,27.662396 0.534541,4.543584 1.069078,24.455167 1.202714,30.201457 0.133633,5.74629 2.939965,26.05878 4.009043,29.53328 z"
       id="path4534"
       inkscape:connector-curvature="0" />
    <path
       style="fill:#deaa87;stroke:none;stroke-width:0.26458332px;stroke-linecap:butt;stroke-linejoin:miter;stroke-opacity:1"
       d="m 83.38809,54.10858 c -3.340867,5.746294 -5.34539,10.022607 -5.746294,16.704344 -0.400902,6.681739 1.603618,27.261491 1.336349,30.201456 -0.267271,2.93997 -0.668174,4.27631 1.603615,2.27179 2.271792,-2.00452 3.453999,-1.88752 8.285359,-1.73725 4.831359,0.15027 13.497111,1.87089 16.437071,3.0736 2.7323,1.11776 2.53906,0.80181 3.34087,2.00452 1.63753,2.45628 2.40543,3.34087 3.0736,4.81085 0.66818,1.46998 0.93545,-5.47902 3.0736,-6.1472 2.13816,-0.66817 5.47903,4.40996 6.01356,2.40543 0.53454,-2.00452 0.53454,-1.73725 2.93997,-2.13816 2.40542,-0.4009 6.41447,-4.67721 9.88897,-4.81085 3.47451,-0.13363 9.75534,-2.138154 14.83346,-1.336345 5.07812,0.801805 14.16528,5.879925 13.76438,4.543585 -0.4009,-1.33635 -2.13816,-3.87541 -5.21175,-6.815377 -3.0736,-2.939965 -2.93997,-7.750815 -1.73726,-11.225321 1.20272,-3.474503 4.14268,-11.091685 3.0736,-15.367997 -1.06908,-4.276312 -3.4745,-10.022607 -2.67269,-13.764379 0.80181,-3.741775 0.80181,-11.626225 -9.75534,-10.156243 -10.55715,1.469983 -22.31701,9.488067 -29.13238,9.621703 -6.81537,0.133635 -25.123334,-6.280833 -28.196932,-5.746295 -3.073601,0.53454 -3.608139,1.069078 -5.211758,3.608139 z"
       id="path4536"
       inkscape:connector-curvature="0"
       sodipodi:nodetypes="cssszsscccccscccsssssc" />
    <path
       style="fill:#844b24;fill-opacity:1;stroke:none;stroke-width:0.26458332px;stroke-linecap:butt;stroke-linejoin:miter;stroke-opacity:1"
       d="m 155.28359,47.560475 c 1.87089,2.80633 2.2718,8.285356 1.60362,10.022608 -0.66817,1.737251 3.74177,11.492589 2.93996,16.303442 -0.8018,4.81085 -6.41446,16.303439 -4.40994,19.777945 2.00452,3.474503 6.5481,6.81537 8.01808,10.02261 1.46999,3.20723 3.47451,7.21627 1.46999,6.41447 -2.00452,-0.80181 -6.1472,-3.74178 -9.2208,-4.00905 -3.0736,-0.26727 -9.48807,-1.06908 -7.48355,-0.26727 2.00452,0.80181 4.07586,0.93545 5.54584,2.00452 1.46999,1.06908 4.81086,5.14494 4.27632,5.14494 -0.53454,0 -3.20724,-2.40542 -3.20724,-1.60362 0,0.80181 0.60136,1.67044 1.87089,2.33861 1.26953,0.66818 4.87767,0.60136 6.1472,0 1.26953,-0.60135 3.74177,-1.73725 2.40542,-0.60135 -1.33634,1.13589 -5.14493,2.00452 -4.07586,2.13815 1.06908,0.13364 3.00679,0.26727 4.81085,-0.46772 1.80407,-0.73499 3.74178,-1.9377 3.27406,-1.20271 -0.46773,0.73499 -3.00679,2.53906 -4.34313,2.60588 -1.33635,0.0668 -6.41447,0.60135 -5.54584,1.00226 0.86862,0.4009 6.949,0.53454 8.28535,2.33861 1.33635,1.80407 3.14042,13.96483 2.07134,17.3057 -1.06908,3.34087 -12.2944,10.28988 -15.7689,9.2208 -3.47451,-1.06908 -11.26124,-7.899 -10.3163,-5.34767 0.94494,2.55134 4.15774,6.70908 6.14211,8.032 1.98438,1.32292 1.88989,4.63021 2.74033,4.44122 0.85045,-0.18899 3.68527,-1.70089 4.8192,0.47247 1.13393,2.17336 -6.3311,10.58333 -7.27604,13.79613 -0.94494,3.2128 -3.3073,12.37872 -1.51191,11.71726 1.79539,-0.66146 4.44122,-8.97693 7.18155,-10.96131 2.74033,-1.98437 5.19717,-5.19717 6.3311,-8.12649 1.13393,-2.92931 2.83482,-7.08705 4.91369,-5.95312 2.07887,1.13393 -4.34673,15.59152 -0.75595,12.47321 3.59077,-3.1183 7.08705,-9.54389 7.27604,-13.60714 0.18899,-4.06324 1.41741,-21.63914 3.59077,-26.45833 2.17337,-4.8192 3.49628,-8.88244 1.6064,-13.51265 -1.88988,-4.63021 -0.94494,-16.252978 -4.15774,-21.450149 -3.21279,-5.197173 -7.55952,-6.236607 -6.89806,-7.748513 0.66146,-1.511903 4.53571,-4.535712 4.34672,-7.843004 -0.18898,-3.307292 1.51191,-14.268603 -3.49627,-19.654763 -5.00819,-5.38616 -11.09055,-9.105979 -13.1993,-8.757976 z"
       id="path4538"
       inkscape:connector-curvature="0" />
    <path
       style="fill:#502d16;stroke:none;stroke-width:0.26458332px;stroke-linecap:butt;stroke-linejoin:miter;stroke-opacity:1"
       d="m 123.12574,109.32961 c -1.03943,-1.13393 -3.40178,-5.00818 -2.92931,-5.00818 0.47247,0 3.1183,3.40178 2.26785,1.79538 -0.85044,-1.60639 -2.26785,-3.30729 -1.32291,-2.92931 0.94494,0.37797 1.98437,2.45684 2.17336,1.70089 0.18899,-0.75595 -1.88988,-3.77976 -1.22842,-3.59077 0.66146,0.18899 2.26786,3.49628 2.74033,3.49628 0.47247,0 -1.03944,-3.2128 -0.37798,-3.2128 0.66146,0 0.66146,1.98437 2.64583,1.51191 1.98438,-0.47248 8.78795,-3.307296 14.2686,-3.779768 5.48066,-0.472469 13.32366,1.795388 15.78051,3.212798 2.45685,1.41741 8.31547,4.53572 6.89806,4.91369 -1.41741,0.37798 -6.14211,-1.79539 -8.50446,-2.07887 -2.36235,-0.28348 -10.96131,-1.03943 -13.79613,-0.75595 -2.83482,0.28348 -10.48884,-0.56697 -12.6622,0.56696 -2.17336,1.13393 -4.44122,4.72471 -5.95313,4.15774 z"
       id="path4540"
       inkscape:connector-curvature="0" />
    <path
       style="fill:#deaa87;stroke:none;stroke-width:0.26458332px;stroke-linecap:butt;stroke-linejoin:miter;stroke-opacity:1"
       d="m 132.95312,121.14137 c 0.56697,-1.41741 2.07887,-2.83482 4.63021,-1.88988 2.55134,0.94494 10.29985,4.15773 12.37872,4.25223 2.07887,0.0945 -0.66146,-0.56696 -1.98437,-0.85045 -1.32292,-0.28348 -1.6064,-1.5119 0,-1.41741 1.60639,0.0945 2.17336,-1.32292 3.77976,-1.13393 1.6064,0.18899 4.91369,1.22843 4.06324,0.85045 -0.85044,-0.37798 -3.68527,-1.41741 -2.17336,-1.88988 1.5119,-0.47247 4.8192,-1.13393 6.99256,-1.13393 2.17336,0 5.85863,0.56696 6.70908,1.98437 0.85044,1.41742 2.74032,12.66221 2.26785,15.02456 -0.47247,2.36235 -3.40178,5.38616 -6.99256,7.27604 -3.59077,1.88988 -7.27604,4.34673 -9.63839,2.92932 -2.36235,-1.41742 -9.26041,-8.22099 -13.22916,-10.01638 -3.96875,-1.79538 -11.43378,-5.66964 -11.62277,-6.61458 -0.18899,-0.94494 1.88988,-1.98437 3.77976,-1.70089 1.88988,0.28348 -1.41741,-4.06324 0.18899,-3.77976 1.60639,0.28348 1.13393,0.47247 0.85044,-1.88988 z"
       id="path4544"
       inkscape:connector-curvature="0" />
    <path
       style="fill:#9b572b;fill-opacity:1;stroke:none;stroke-width:0.26458332px;stroke-linecap:butt;stroke-linejoin:miter;stroke-opacity:1"
       d="m 123.03125,110.27455 c -0.47247,4.25223 -1.41741,11.33929 -0.56697,15.68601 0.85045,4.34673 0.47248,10.86682 0,12.66221 -0.47247,1.79538 3.77977,-0.85045 4.53572,-2.36236 0.75595,-1.5119 2.74032,-3.1183 4.44122,-1.79538 1.70089,1.32291 1.5119,4.6302 0.56696,5.66964 -0.94494,1.03944 -3.1183,0.18899 -4.34672,0.37798 -1.22843,0.18898 -6.99256,5.19717 -10.67783,5.76413 -3.68527,0.56697 -5.76414,-1.79538 -5.76414,-0.85044 0,0.94494 -1.98437,-0.18899 -3.02381,-1.6064 -1.03943,-1.41741 -2.74032,-2.45685 -2.92931,-4.15774 -0.18899,-1.70089 0.0945,-3.59077 1.32291,-4.44122 1.22843,-0.85045 -0.0945,-2.26786 -3.30729,0.0945 -3.21279,2.36235 -5.291665,3.77976 -7.08705,7.27605 -1.795389,3.49628 -6.047619,5.48065 -5.38616,7.37053 0.661458,1.88988 2.362351,4.63021 2.456844,3.02381 0.09449,-1.6064 -0.566965,-1.79539 1.039434,-4.25223 1.606399,-2.45685 4.724702,-5.00819 5.38616,-6.80357 0.661462,-1.79539 2.456842,-4.15774 3.968752,-4.06325 1.5119,0.0945 0.37798,2.64584 1.88988,4.15774 1.51191,1.51191 4.91369,4.63021 6.23661,5.57515 1.32291,0.94494 5.57515,2.64583 7.843,1.13393 2.26786,-1.51191 6.52009,-5.48066 9.35491,-6.3311 2.83483,-0.85045 4.8192,-0.66146 4.8192,-2.45685 0,-1.79538 -1.32292,-5.95312 -0.66146,-5.38616 0.66146,0.56696 3.1183,0.56696 4.63021,2.17336 1.5119,1.6064 3.96875,6.70908 6.3311,9.26042 2.36235,2.55134 6.89807,6.23661 6.3311,4.8192 -0.56696,-1.41741 -4.25223,-4.06325 -5.66964,-6.3311 -1.41741,-2.26786 -3.40179,-7.27604 -5.76414,-8.97694 -2.36235,-1.70089 -7.27604,-2.64583 -8.78794,-3.68527 -1.51191,-1.03943 -3.68527,-0.47247 -3.30729,-3.02381 0.37797,-2.55133 1.88988,-2.07886 0.37797,-4.15773 -1.5119,-2.07887 -4.7247,-9.73289 -2.74033,-9.26042 1.98438,0.47247 4.25224,4.8192 5.00819,4.53571 0.75595,-0.28348 -3.40179,-5.57514 -2.64583,-6.14211 0.75595,-0.56696 1.03943,-1.32291 2.36235,-0.85045 1.32291,0.47248 0.85044,0.37798 2.83482,-1.22842 1.98437,-1.6064 5.29167,-4.81919 10.67782,-4.81919 5.38616,0 10.67783,4.25223 10.48884,3.40178 -0.18898,-0.85044 -4.44122,-3.68527 -7.9375,-4.06324 -3.49628,-0.37798 -7.37053,0 -9.73288,1.70089 -2.36235,1.70089 -6.23661,3.96875 -6.89807,3.59077 -0.66146,-0.37797 0.37798,-1.32291 2.83482,-3.21279 2.45685,-1.88988 5.95313,-3.87426 5.95313,-4.8192 0,-0.94494 -10.11087,0.85045 -12.47322,3.49628 -2.36235,2.64583 -1.98437,3.30729 -1.98437,3.30729 z"
       id="path4546"
       inkscape:connector-curvature="0" />
    <path
       transform="translate(0,-32.41665)"
       style="display:inline;fill:#d38d5f;stroke:none;stroke-width:0.26458332px;stroke-linecap:butt;stroke-linejoin:miter;stroke-opacity:1"
       d="m 151.66295,186.25296 c -3.40179,2.45684 -4.53572,1.79539 -5.66965,2.83482 -1.13393,1.03943 -5.00818,2.92932 -6.52009,3.96875 -1.5119,1.03943 -5.38616,3.96875 -6.04761,5.19717 -0.66146,1.22842 -4.34673,5.95313 -6.33111,6.99256 -1.98437,1.03944 -5.85863,2.17336 -7.18154,1.6064 -1.32292,-0.56696 -7.08706,-3.02381 -5.29167,-1.70089 1.79539,1.32291 5.10268,2.64583 8.40997,2.64583 3.30729,0 8.40997,-0.56696 10.01637,1.03943 1.6064,1.6064 2.64583,7.65402 2.07887,9.35492 -0.56697,1.70089 -3.77977,4.91369 -1.51191,4.34672 2.26786,-0.56696 11.71726,-2.92931 15.875,-5.85863 4.15774,-2.92932 6.80357,-9.5439 9.44941,-11.43378 2.64583,-1.88988 4.25223,-1.70089 5.10267,-4.34673 0.85045,-2.64583 4.15774,-15.30803 1.79539,-13.32366 -2.36235,1.98438 -4.63021,8.97694 -6.2366,10.58334 -1.6064,1.6064 -3.77977,2.64583 -5.10268,4.81919 -1.32292,2.17337 -5.38616,11.05581 -6.52009,9.5439 -1.13393,-1.5119 0.28348,-11.62277 1.60639,-13.60714 1.32292,-1.98438 9.92188,-11.90625 6.80358,-13.22917 -3.11831,-1.32291 -4.7247,0.56697 -4.7247,0.56697 z"
       id="path4562"
       inkscape:connector-curvature="0" />
    <path
       transform="translate(0,-32.41665)"
       style="display:inline;fill:#915b5b;fill-opacity:1;stroke:none;stroke-width:0.26458332px;stroke-linecap:butt;stroke-linejoin:miter;stroke-opacity:1"
       d="m 104.03795,191.16665 c 1.79538,1.5119 2.17336,4.7247 4.44122,5.95312 2.26785,1.22843 4.91369,2.83483 9.07142,2.64584 4.15774,-0.18899 9.26042,-0.0945 12.09524,-2.07887 2.83482,-1.98438 8.31548,-5.10268 9.73289,-5.76414 1.41741,-0.66146 -2.26786,0.56696 -4.7247,0.66146 -2.45685,0.0945 -6.4256,0.56696 -10.96131,0.85045 -4.53572,0.28348 -7.9375,0.37797 -10.96131,-0.47248 -3.02381,-0.85044 -9.26042,-2.45684 -8.69345,-1.79538 z"
       id="path4564"
       inkscape:connector-curvature="0" />
    <path
       transform="translate(0,-32.41665)"
       style="display:inline;fill:#915b5b;fill-opacity:1;stroke:none;stroke-width:0.26458332px;stroke-linecap:butt;stroke-linejoin:miter;stroke-opacity:1"
       d="m 105.83333,190.3162 c 1.6064,-0.0945 7.08705,-1.13393 10.20536,-0.37798 3.1183,0.75596 4.25223,1.6064 6.61458,0.47248 2.36235,-1.13393 5.19718,-2.17337 7.84301,-2.17337 2.64583,0 6.3311,0.28348 5.19717,0.85045 -1.13393,0.56696 -11.81175,3.02381 -14.83556,3.49628 -3.02381,0.47247 -7.18155,0.18899 -10.29986,-0.94494 -3.1183,-1.13393 -4.7247,-1.32292 -4.7247,-1.32292 z"
       id="path4566"
       inkscape:connector-curvature="0" />
    <path
       style="fill:#7a4421;fill-opacity:1;stroke:none;stroke-width:0.26458332px;stroke-linecap:butt;stroke-linejoin:miter;stroke-opacity:1"
       d="m 191.35045,108.10119 c 3.1183,0 3.68526,1.5119 3.77976,4.44122 0.0945,2.92931 -0.94494,16.53646 -1.51191,17.57589 -0.56696,1.03943 -3.40178,3.2128 -5.76414,3.49628 -2.36235,0.28348 -2.83482,-1.03943 -2.92931,-1.88988 -0.0945,-0.85044 -1.5119,-17.76488 0.47247,-19.37128 1.98438,-1.6064 5.95313,-4.25223 5.95313,-4.25223 z"
       id="path4629"
       inkscape:connector-curvature="0" />
    <path
       style="fill:#7a4421;fill-opacity:1;stroke:none;stroke-width:0.26458332px;stroke-linecap:butt;stroke-linejoin:miter;stroke-opacity:1"
       d="m 184.45238,133.99256 c 3.59077,0.18899 5.00818,0.28348 6.80357,-0.75595 1.79539,-1.03944 3.68527,-4.25224 3.1183,-2.26786 -0.56696,1.98437 -3.87425,7.74851 -5.19717,10.01637 -1.32292,2.26785 -2.74033,4.7247 -5.00818,5.48065 -2.26786,0.75595 -3.2128,0.66146 -2.74033,-0.66146 0.47247,-1.32291 0.47247,-12.47321 3.02381,-11.81175 z"
       id="path4631"
       inkscape:connector-curvature="0" />
    <path
       style="fill:#241f1c;stroke:none;stroke-width:0.26458332px;stroke-linecap:butt;stroke-linejoin:miter;stroke-opacity:1"
       d="m 174.39337,152.46377 c 0.13363,-8.28536 0.26726,-20.17885 2.93996,-25.92515 2.67269,-5.74629 2.40543,-12.2944 1.20271,-14.29892 -1.20271,-2.00452 -5.61266,-20.847022 -8.01808,-24.054256 -2.40543,-3.207234 -4.81085,-3.073598 -2.93997,-6.013564 1.87089,-2.939965 3.0736,-4.142679 2.53906,-10.824416 -0.53454,-6.681737 -2.80633,-14.298919 -9.48807,-18.842503 -6.68173,-4.543581 -16.1698,-3.207234 -21.78246,-0.400902 -5.61266,2.80633 -21.5152,9.087162 -26.45968,7.483546 -4.94449,-1.603618 -27.459669,-9.734555 -28.731478,-7.349913 -1.069079,2.004522 -5.479025,10.557148 -6.68174,14.967093 -1.443345,5.29225 1.33635,27.796032 1.33635,32.20598 0,4.409945 0.133633,17.372515 -0.534541,16.570705 -0.668173,-0.8018 -2.271791,-11.35895 -4.276312,-12.96257 -2.00452,-1.60361 -7.483546,-4.944485 -8.68626,-8.418988 -1.202711,-3.474503 -3.474503,-7.750815 -2.939965,-11.893494 0.53454,-4.142676 1.870887,-4.944486 1.870887,-4.944486 0,0 -2.80633,-0.935442 -3.073598,-3.608138 -0.267269,-2.672694 1.202711,-3.741772 1.202711,-3.741772 0,0 -3.875408,-0.534541 -3.340868,-4.009044 0.534538,-3.474505 1.870888,-7.483546 4.543582,-9.755338 2.672696,-2.271792 3.875407,-2.00452 3.875407,-2.00452 0,0 -4.009043,0 -7.216277,-5.612662 -3.207235,-5.612659 1.069078,-10.69078 1.069078,-10.69078 0,0 -1.737252,3.875407 -0.668174,5.211754 1.069078,1.33635 4.276312,-1.46998 3.207234,-4.409945 -1.069078,-2.939965 -3.340867,-4.009044 -4.543581,-8.285356 -1.202713,-4.276312 2.271792,-4.142679 2.271792,-4.142679 0,0 -0.801809,-0.935442 2.405425,-2.806329 3.207234,-1.870886 6.949009,1.870887 6.949009,-0.133635 0,-2.004521 0.668173,-4.276312 3.474503,-4.543581 2.806329,-0.26727 2.672694,1.336347 2.672694,1.336347 0,0 -1.870885,-0.267269 -0.801807,0.935444 1.069078,1.202712 2.271789,-0.935444 3.207234,-3.340869 0.935442,-2.405426 3.741772,-5.345391 6.280833,-3.875409 2.53906,1.469983 2.004523,3.741774 2.004523,3.741774 0,0 -1.202714,-3.741774 -2.138156,-1.202713 -0.935445,2.53906 2.939962,2.405426 5.078118,0.534539 2.138156,-1.870887 7.349914,-0.935443 7.349914,-0.935443 0,0 -3.741775,-1.336348 -1.469983,-4.409948 2.271792,-3.0735991 3.474503,-1.069078 9.488066,-1.603617 6.01357,-0.5345387 12.2944,-2.8063297 12.16077,-2.138156 -0.13364,0.6681739 -9.62171,2.939965 -8.41899,3.875408 1.20271,0.935443 9.75533,-0.668174 11.62622,-3.0735994 1.87089,-2.4054257 -0.13364,-2.4054257 2.93997,-3.2072341 3.07359,-0.8018087 6.01356,2.6726951 10.28987,2.4054255 4.27631,-0.2672694 5.21176,-1.7372518 5.21176,-1.7372518 0,0 0.13363,2.0045214 1.73725,2.8063301 1.60362,0.8018087 1.06908,-2.2717911 4.14268,-1.202713 3.0736,1.069078 2.53906,2.4054257 5.74629,4.2763127 3.20724,1.870886 10.69078,3.474504 12.96257,6.147199 2.27179,2.672695 2.80633,8.819895 3.60814,5.879929 0.80181,-2.939964 -1.20271,-4.543582 -1.20271,-4.543582 0,0 0.93544,-0.668173 2.6727,0.935444 3.34087,3.741774 3.4745,8.018086 6.41447,10.289877 2.93996,2.271791 3.0736,-1.737252 3.0736,-1.737252 0,0 4.00904,2.539061 4.14267,5.87993 0.13364,3.340869 0.26727,7.483547 2.80633,6.414468 2.53906,-1.069078 0.53454,-4.276312 0.53454,-4.276312 0,0 1.60362,-0.534539 2.13816,1.737252 0.53454,2.271791 -1.20271,4.677217 2.80633,7.617181 4.00904,2.939965 9.48807,7.216278 11.89349,12.561668 2.40543,5.345391 -0.66817,10.958051 -0.66817,10.958051 0,0 0.13363,1.069078 2.67269,1.469983 2.53906,0.400904 3.20724,7.483546 0.13364,9.087164 -3.0736,1.603617 -3.74177,5.211755 -2.53906,7.349912 1.20271,2.138156 1.46998,8.552625 -0.13364,10.690781 -1.60361,2.138153 -9.6217,7.750813 -10.55714,8.018083 -0.93545,0.26727 -0.80181,2.93997 1.20271,3.20724 2.00452,0.26727 2.13816,-1.06908 2.13816,-1.06908 0,0 0.80181,3.74177 -2.6727,4.40995 -3.4745,0.66817 -6.28083,-1.33635 -6.28083,0.8018 0,2.13816 1.87088,4.67722 1.87088,4.67722 0,0 -1.87088,-1.87089 -1.46998,0 0.40091,1.87089 2.13816,9.88897 0.26727,12.96257 -1.87089,3.0736 -2.27179,2.53906 -2.27179,2.53906 0,0 0.80181,-2.40542 -0.13363,-0.93544 -0.93545,1.46998 0.26726,9.08716 -0.93545,11.75986 -1.20271,2.6727 -7.48354,8.95353 -9.08716,7.21628 z"
       id="path4571"
       inkscape:connector-curvature="0"
       sodipodi:nodetypes="cscccsssssssccsscscsscsccsscssscscsccscssccscscsscsscccccscssccsssccsccsccsccsc" />
    <path
       style="fill:#6c5d53;stroke:none;stroke-width:0.26458332px;stroke-linecap:butt;stroke-linejoin:miter;stroke-opacity:1"
       d="m 180.27329,114.37786 c 1.73726,1.60361 2.2718,6.41447 2.6727,9.35443 0.4009,2.93997 2.00452,8.68626 2.00452,8.68626 0,0 -3.34087,-3.87541 -2.27179,-2.00452 1.06908,1.87089 1.60362,6.68174 0.80181,9.35443 -0.80181,2.6727 -2.6727,4.00905 -2.6727,4.00905 0,0 1.60362,-2.93997 1.87089,-5.07813 0.26727,-2.13815 -2.53906,3.34087 -2.6727,5.7463 -0.13363,2.40542 -2.93996,6.5481 -2.93996,6.5481 0,0 1.20271,-2.13815 0.93544,-3.60814 -0.26727,-1.46998 -1.60361,5.34539 -2.53906,5.61266 -0.93544,0.26727 -1.20271,0.53454 -1.20271,0.53454 0,0 1.46998,-2.27179 1.46998,-5.47902 0,-3.20724 -0.66817,-3.47451 -0.13363,-5.87993 0.53454,-2.40543 0.13363,-3.20724 0.66817,-7.88445 0.53454,-4.67722 2.80633,-8.68626 3.47451,-11.09169 0.66817,-2.40542 0.66817,-8.01808 0.53453,-8.81989 z"
       id="path4573"
       inkscape:connector-curvature="0" />
    <path
       style="fill:#6c5d53;stroke:none;stroke-width:0.26458332px;stroke-linecap:butt;stroke-linejoin:miter;stroke-opacity:1"
       d="m 181.99553,95.627975 c 3.02381,2.456846 6.99256,1.700892 10.01637,0.377975 3.02381,-1.322916 3.2128,-6.425594 3.2128,-6.425594 0,0 1.22842,3.685268 0.66146,4.630209 -0.56696,0.944941 1.70089,-1.417413 1.5119,-2.834823 -0.18899,-1.41741 -0.47247,-2.456844 -0.47247,-2.456844 0,0 1.88988,1.889879 1.13393,4.346726 -0.75595,2.456844 -2.92931,6.331101 -6.23661,6.52009 -3.30729,0.188986 -9.26041,-0.755954 -9.82738,-4.157739 z"
       id="path4575"
       inkscape:connector-curvature="0" />
    <path
       style="fill:#6c5d53;stroke:none;stroke-width:0.26458332px;stroke-linecap:butt;stroke-linejoin:miter;stroke-opacity:1"
       d="m 74.701833,101.68255 c 0,0 -5.746295,-2.004516 -7.617182,-5.21175 -1.870887,-3.207235 -2.539061,-4.944486 -2.539061,-4.944486 0,0 3.474503,4.543581 3.073599,2.806329 -0.400902,-1.737251 -2.004521,-2.138156 -3.207235,-3.875407 -1.202711,-1.737254 -2.53906,-5.612662 -1.737251,-7.082645 0.801809,-1.469982 1.069078,-1.469982 1.069078,-1.469982 0,0 -1.069078,3.474505 0.53454,5.211757 1.603616,1.737251 5.078122,2.405425 6.1472,1.603616 1.069078,-0.801807 2.00452,-1.46998 2.00452,-1.46998 0,0 0.133636,2.405425 -2.00452,3.340867 -2.138156,0.935445 -2.004523,2.138156 -0.935445,4.142679 1.069078,2.00452 1.870887,3.340867 3.34087,3.340867 1.469982,0 2.00452,-1.469982 2.00452,-1.469982 0,0 1.603618,2.138158 -0.133633,5.078117 z"
       id="path4577"
       inkscape:connector-curvature="0" />
    <path
       style="display:inline;fill:#9b572b;fill-opacity:1;stroke:none;stroke-width:0.26458332px;stroke-linecap:butt;stroke-linejoin:miter;stroke-opacity:1"
       d="m 79.941964,107.61922 c 0.472469,2.07887 -0.283482,5.86813 0.661458,6.90756 0.944941,1.03944 5.008184,0.75596 5.953125,2.55134 0.944941,1.79539 1.984375,3.02381 4.441219,3.40179 2.456847,0.37797 4.724702,0.0945 2.55134,0.94494 -2.173364,0.85045 -5.008184,1.79539 -3.212798,1.70089 1.795388,-0.0945 5.953125,-1.03943 8.787947,-1.70089 2.834825,-0.66146 8.126485,-2.17336 7.843005,-1.70089 -0.28348,0.47247 -6.23661,2.64583 -4.8192,2.64583 1.41741,0 8.12649,-3.02381 8.69346,-4.34673 0.56696,-1.32291 -0.66146,-1.79538 -2.36235,-1.5119 -1.7009,0.28348 -8.22099,2.07887 -11.717265,2.17336 -3.496281,0.0945 -8.031996,-0.85044 -8.598959,-2.55134 -0.566965,-1.70089 0.47247,-4.15774 -0.661458,-4.15774 -1.13393,0 -4.819197,1.79539 -3.68527,0.94494 1.13393,-0.85044 2.267858,-1.88987 2.267858,-3.59077 0,-1.70089 1.606399,-1.98437 4.252232,-2.92931 2.645833,-0.94494 6.872355,-0.0811 6.210897,-1.21499 -0.661458,-1.13393 -12.088521,0.35226 -16.605241,2.43391 z"
       id="path4548"
       inkscape:connector-curvature="0"
       sodipodi:nodetypes="cccccsssscsccscsscc" />
    <path
       style="fill:#502d16;stroke:none;stroke-width:0.26458332px;stroke-linecap:butt;stroke-linejoin:miter;stroke-opacity:1"
       d="m 109.14062,108.47917 c -3.40178,-2.17337 -10.016365,-3.77977 -13.985114,-4.06325 -3.96875,-0.28348 -10.016371,0 -12.851191,1.13393 -2.834823,1.13393 -4.063243,2.55134 -3.96875,1.79539 0.09449,-0.75596 1.41741,-2.07887 1.984375,-3.11831 0.566965,-1.03943 0.944941,-3.40178 2.83482,-3.59077 1.889881,-0.18899 4.535715,-0.944942 7.748513,-0.47247 3.212798,0.47247 10.110857,0.75595 12.378717,1.98437 2.26786,1.22843 4.15774,3.59078 3.96875,3.02381 -0.18898,-0.56696 -2.17336,-2.45684 -1.13393,-1.98437 1.03944,0.47247 2.26786,3.49628 2.36236,2.64583 0.0945,-0.85045 -0.94495,-3.2128 0.0945,-1.5119 1.03943,1.70089 2.26786,4.81919 0.56696,4.15774 z"
       id="path4542"
       inkscape:connector-curvature="0" />
    <path
       style="display:inline;fill:#e3dbdb;stroke:none;stroke-width:0.26458332px;stroke-linecap:butt;stroke-linejoin:miter;stroke-opacity:1"
       d="m 90.052825,111.125 c 1.700893,-1.6064 2.551341,-3.49628 7.181549,-3.2128 4.630206,0.28348 8.315476,2.83482 8.693456,3.68527 0.37797,0.85045 -2.55134,3.49628 -7.18155,3.2128 -4.630209,-0.28349 -8.220983,-1.03944 -8.693455,-3.68527 z"
       id="path4550"
       inkscape:connector-curvature="0" />
    <path
       style="display:inline;fill:#e3dbdb;stroke:none;stroke-width:0.26458332px;stroke-linecap:butt;stroke-linejoin:miter;stroke-opacity:1"
       d="m 135.78795,111.40848 c 0.75595,-0.85045 2.45684,-4.06324 7.9375,-3.30729 5.48065,0.75595 8.31547,2.92932 7.18154,3.59077 -1.13393,0.66146 -4.63021,2.26786 -8.22098,1.7009 -3.59077,-0.56697 -6.89806,-1.32292 -6.89806,-1.98438 z"
       id="path4552"
       inkscape:connector-curvature="0" />
    <path
       style="display:inline;fill:#d38d5f;fill-opacity:1;stroke:none;stroke-width:0.26458332px;stroke-linecap:butt;stroke-linejoin:miter;stroke-opacity:1"
       d="m 87.312499,110.65253 c 0,-1.32292 -0.09449,-2.26786 2.173364,-3.02381 2.267855,-0.75595 5.291667,-1.22842 2.740327,0 -2.55134,1.22842 -4.724702,2.17336 -4.913691,3.02381 z"
       id="path4554"
       inkscape:connector-curvature="0" />
    <path
       style="display:inline;fill:#b77448;fill-opacity:1;stroke:none;stroke-width:0.26458332px;stroke-linecap:butt;stroke-linejoin:miter;stroke-opacity:1"
       d="m 152.51339,112.92038 c -2.36235,1.13393 -8.31548,2.26786 -12.18973,1.22843 -3.87426,-1.03944 -5.48065,-1.6064 -7.18155,-0.85045 -1.70089,0.75595 -2.64583,0.56697 -3.1183,0.28348 -0.47247,-0.28348 -2.26786,-0.85044 -2.55134,0.47247 -0.28348,1.32292 2.45684,4.06325 2.64583,5.10268 0.18899,1.03944 -1.22842,1.98438 -1.70089,1.03944 -0.47247,-0.94494 -3.87426,-5.95313 -3.77976,-4.06325 0.0945,1.88988 3.49628,7.84301 3.77976,9.07143 0.28348,1.22842 3.77976,1.51191 3.68527,0.75595 -0.0945,-0.75595 -1.98438,-3.30729 -0.94494,-3.40178 1.03943,-0.0945 1.32291,0.75595 1.22842,-0.75595 -0.0945,-1.51191 1.88988,-3.3073 3.2128,-3.49628 1.32291,-0.18899 8.22098,2.92931 11.52827,2.07887 3.30729,-0.85045 10.11086,-5.57515 6.89807,-5.00819 -3.2128,0.56696 -8.40998,2.45685 -7.27605,1.6064 1.13393,-0.85045 7.37054,-2.83482 5.76414,-4.06325 z"
       id="path4556"
       inkscape:connector-curvature="0" />
    <path
       style="display:inline;fill:#deaa87;fill-opacity:1;stroke:none;stroke-width:0.26458332px;stroke-linecap:butt;stroke-linejoin:miter;stroke-opacity:1"
       d="m 78.335565,108.57366 c 0.850445,-0.94494 1.41741,-1.03944 1.41741,1.03943 0,2.07887 -1.039434,5.48066 1.039434,6.14212 2.078871,0.66146 4.252232,-0.0945 5.291667,1.6064 1.039434,1.70089 3.212798,3.96875 4.724704,3.96875 1.511903,0 -2.929316,1.32291 -1.984375,2.07886 0.944938,0.75596 12.378715,-2.45684 12.567705,-1.70089 0.18899,0.75595 -0.66146,1.88988 0.75595,1.51191 1.41741,-0.37798 8.31548,-3.02381 9.07143,-4.15774 0.75596,-1.13393 0.56697,-3.02381 -0.37797,-3.11831 -0.94494,-0.0945 -5.85864,0.94494 -5.10268,-0.0945 0.75595,-1.03943 3.87425,-1.03943 3.49628,-2.07887 -0.37798,-1.03943 -2.64584,-2.45684 -1.41741,-2.55134 1.22842,-0.0945 3.87425,0.28348 4.44122,1.13393 0.56696,0.85045 0.37797,11.1503 -0.37798,14.83556 -0.75595,3.68528 -2.07887,10.86682 -1.6064,12.37873 0.47247,1.5119 1.13393,2.45684 3.2128,1.98437 2.07887,-0.47247 3.77976,1.22842 4.91369,0.66146 1.13393,-0.56697 1.22842,-16.15848 1.22842,-19.93824 0,-3.77977 -1.03943,-12.56771 0,-12.94569 1.03944,-0.37798 2.92932,-0.56696 2.92932,0.56697 0,1.13393 -1.13393,11.52827 -0.94494,14.74107 0.18899,3.21279 1.03943,6.99256 0.94494,9.35491 -0.0945,2.36235 -1.6064,5.66964 -0.37798,5.66964 1.22842,0 3.59078,-0.94494 4.53572,-1.98438 0.94494,-1.03943 4.25223,-6.3311 5.19717,-1.22842 0.94494,5.10268 -2.74033,3.2128 -4.06324,3.40179 -1.32292,0.18899 -7.18155,5.38616 -10.77233,5.76413 -3.59077,0.37798 -7.2274,-2.10179 -7.2274,-1.44033 0,0.66146 -1.13808,-0.72801 -2.45824,-1.91421 -1.32015,-1.1862 -2.78757,-4.39397 -1.18117,-6.09486 1.6064,-1.70089 2.36235,-2.45685 0.75595,-2.55134 -1.6064,-0.0945 -4.91369,1.41741 -6.89806,3.2128 -1.984379,1.79539 -3.590778,5.66964 -5.386166,7.37053 -1.795386,1.7009 -4.630209,3.77977 -4.441219,5.48066 0.188986,1.70089 2.645833,4.8192 3.307291,4.34673 0.661459,-0.47248 -0.661458,-2.07887 0.377976,-3.77977 1.039434,-1.70089 5.953125,-6.3311 6.425598,-7.9375 0.47247,-1.6064 3.1183,-5.66964 3.68527,-3.49628 0.56696,2.17337 1.13392,3.87426 2.64583,4.91369 1.5119,1.03944 4.53571,4.63021 5.66964,5.00819 1.13393,0.37798 3.59078,0.56696 3.68527,1.5119 0.0945,0.94494 -0.75595,3.59078 1.6064,4.25224 2.36235,0.66145 7.84301,0.0945 7.37053,1.03943 -0.47247,0.94494 -4.15773,2.26786 -5.48065,2.07887 -1.32292,-0.18899 -4.25223,-1.88988 -6.99256,-1.32292 -2.74033,0.56697 -4.63021,1.41741 -6.80357,1.03944 -2.17337,-0.37798 -8.315477,-4.44122 -9.071431,-2.92932 -0.755952,1.51191 5.858631,3.77976 7.087051,4.8192 1.22842,1.03943 3.77976,6.2366 6.99256,7.74851 3.2128,1.5119 13.04018,1.32292 15.68601,0.85045 2.64584,-0.47247 6.80358,-3.11831 5.85864,-0.85045 -0.94495,2.26786 -7.18155,6.42559 -9.92188,6.80357 -2.74033,0.37798 -11.24479,-3.2128 -10.29985,-1.88988 0.94494,1.32292 7.18155,3.77976 10.29985,3.77976 3.11831,0 9.07143,-0.28348 10.29985,1.98438 1.22842,2.26785 1.32292,11.43378 -2.36235,13.22916 -3.68527,1.79539 -13.32366,4.7247 -19.37128,0.56697 -6.04762,-4.15774 -6.23661,-12.28423 -8.31548,-15.96949 -2.07886,-3.68527 -9.449399,-11.1503 -12.378715,-15.02456 -2.929316,-3.87426 -8.126489,-12.18973 -9.165924,-17.00893 -1.039434,-4.81919 -2.267857,-14.45759 -2.36235,-18.61533 -0.09449,-4.15773 -0.850448,-15.49702 -0.377976,-16.25297 z"
       id="path4558"
       inkscape:connector-curvature="0"
       sodipodi:nodetypes="csscscsccsccscccscscsscscsccszscccccccccscccscccccscsssccccssscc" />
    <path
       style="display:inline;fill:#d38d5f;stroke:none;stroke-width:0.26458332px;stroke-linecap:butt;stroke-linejoin:miter;stroke-opacity:1"
       d="m 116.60565,150.52902 c 0.0945,1.22842 -0.75595,2.83482 0.94494,3.21279 1.7009,0.37798 5.76414,0.37798 8.032,0.85045 2.26786,0.47247 5.48065,0.0945 8.50446,0.47247 3.02381,0.37798 4.91369,-1.70089 8.032,-1.51191 3.1183,0.18899 5.85863,1.7009 6.89806,1.22843 1.03944,-0.47247 3.1183,-2.07887 1.70089,-2.74033 -1.41741,-0.66146 -6.52009,-4.53571 -8.59895,-7.65402 -2.07887,-3.1183 -4.15774,-7.46503 -5.95313,-8.03199 -1.79539,-0.56697 -2.17336,-1.32292 -1.6064,1.70089 0.56697,3.02381 -0.0945,4.44122 -1.03943,6.89807 -0.94494,2.45684 -4.34673,5.76413 -6.70908,6.3311 -2.36235,0.56696 -8.97693,0.56696 -10.20536,-0.75595 z"
       id="path4560"
       inkscape:connector-curvature="0" />
    <path
       style="opacity:1;fill:#669f9d;fill-opacity:1;stroke:none;stroke-width:6.29291344;stroke-miterlimit:4;stroke-dasharray:none;stroke-opacity:1"
       d="m 364.38281,407.75 c -2.49626,-0.0128 -4.63358,0.18517 -6.53906,0.51758 a 17.857143,17.857143 0 0 0 -3.55859,10.66015 17.857143,17.857143 0 0 0 6.46875,13.7461 c 3.81458,0.59207 8.00826,0.98128 12.46093,1.2539 3.34189,0.20461 6.44661,0.004 9.27735,-0.47461 A 17.857143,17.857143 0 0 0 390,418.92773 a 17.857143,17.857143 0 0 0 -0.81641,-5.27734 c -5.76192,-2.79724 -13.30283,-5.27986 -21.68359,-5.79297 -1.09375,-0.067 -2.13077,-0.10236 -3.11719,-0.10742 z"
       transform="scale(0.26458333)"
       id="path4607"
       inkscape:connector-curvature="0" />
    <circle
       r="1.7008928"
       cy="110.84151"
       cx="98.462791"
       id="circle4609"
       style="opacity:1;fill:#000000;fill-opacity:1;stroke:none;stroke-width:0.59939998;stroke-miterlimit:4;stroke-dasharray:none;stroke-opacity:1" />
    <circle
       style="opacity:1;fill:#eeeeee;fill-opacity:1;stroke:none;stroke-width:0.33299997;stroke-miterlimit:4;stroke-dasharray:none;stroke-opacity:1"
       id="circle4611"
       cx="97.517853"
       cy="110.12756"
       r="0.94494045"
       inkscape:transform-center-y="-0.052494232" />
    <path
       style="opacity:1;fill:#669f9d;fill-opacity:1;stroke:none;stroke-width:6.29291344;stroke-miterlimit:4;stroke-dasharray:none;stroke-opacity:1"
       d="m 537.75586,408.14453 c -2.71488,-0.0382 -5.12603,0.21439 -7.28125,0.66797 a 17.857143,17.857143 0 0 0 -1.90234,7.97266 17.857143,17.857143 0 0 0 3.46484,10.53711 c 2.34569,0.43428 4.75991,0.85713 7.24805,1.25 8.24291,1.3015 16.34149,-0.43053 22.40039,-2.54883 a 17.857143,17.857143 0 0 0 2.59961,-9.23828 17.857143,17.857143 0 0 0 -0.17969,-2.37696 c -4.81397,-2.35111 -11.90743,-4.59688 -20.89063,-5.83593 -1.94196,-0.26786 -3.7593,-0.40384 -5.45898,-0.42774 z"
       transform="scale(0.26458333)"
       id="circle4613"
       inkscape:connector-curvature="0" />
    <circle
       style="opacity:1;fill:#000000;fill-opacity:1;stroke:none;stroke-width:0.59939998;stroke-miterlimit:4;stroke-dasharray:none;stroke-opacity:1"
       id="circle4615"
       cx="144.57588"
       cy="110.27454"
       r="1.7008928" />
    <circle
       inkscape:transform-center-y="-0.052494232"
       r="0.94494045"
       cy="109.5606"
       cx="143.63095"
       id="circle4617"
       style="opacity:1;fill:#eeeeee;fill-opacity:1;stroke:none;stroke-width:0.33299997;stroke-miterlimit:4;stroke-dasharray:none;stroke-opacity:1" />
    <path
       style="fill:#9b572b;fill-opacity:1;stroke:none;stroke-width:0.26458332px;stroke-linecap:butt;stroke-linejoin:miter;stroke-opacity:1"
       d="m 80.036457,139.94568 c 0.850448,4.7247 3.401785,10.86682 6.425594,15.78051 3.023812,4.91369 13.229167,16.53646 14.930059,19.18229 1.7009,2.64583 3.68527,10.29985 5.29167,12.85119 1.6064,2.55134 6.99256,6.4256 5.00818,5.57515 -1.98437,-0.85045 -4.6302,-2.07887 -6.04762,-4.15774 -1.41741,-2.07887 -8.598955,-12.7567 -10.488834,-14.74107 -1.889882,-1.98438 -7.370538,-7.55952 -9.638393,-12.85119 -2.267857,-5.29167 -3.779763,-8.97694 -4.252232,-12.18973 -0.472472,-3.2128 -1.228424,-9.44941 -1.228424,-9.44941 z"
       id="path4625"
       inkscape:connector-curvature="0" />
    <path
       style="fill:#e9c6af;stroke:none;stroke-width:0.26458332px;stroke-linecap:butt;stroke-linejoin:miter;stroke-opacity:1"
       d="m 114.99271,105.55796 c -0.73499,0.33409 -2.40542,4.47677 -2.47224,5.34539 -0.0668,0.86863 0.80181,4.2095 0.60136,7.61718 -0.20046,3.40769 -1.20272,10.42352 -1.67044,13.09621 -0.46772,2.6727 -1.06908,6.41447 -0.53454,8.21854 0.53454,1.80407 1.40317,1.33635 2.73952,1.20271 1.33634,-0.13363 3.67495,0.93545 4.20949,0.80181 0.53454,-0.13363 1.06908,-3.00678 1.1359,-7.08264 0.0668,-4.07586 0.20045,-9.48807 0.0668,-14.09847 -0.13363,-4.6104 -0.20045,-10.28988 0.0668,-11.35895 0.26727,-1.06908 -2.07134,-3.20724 -4.14268,-3.74178 z"
       id="path4627"
       inkscape:connector-curvature="0" />
    <path
       style="fill:#6c5d53;fill-opacity:1;stroke:none;stroke-width:0.26458332px;stroke-linecap:butt;stroke-linejoin:miter;stroke-opacity:1"
       d="m 82.682291,49.98735 c -4.535715,-0.566965 -8.693452,-2.929316 -9.638393,-6.898066 -0.944941,-3.96875 1.984375,-5.575149 1.984375,-5.575149 0,0 -1.13393,1.606399 -1.039434,2.929316 0.09449,1.322917 1.700893,1.13393 1.700893,1.13393 0,0 -0.755952,0 0,1.511903 0.755951,1.511906 3.212798,0.566965 2.36235,-0.377975 -0.850447,-0.944941 -1.606399,-3.212799 -1.606399,-3.212799 0,0 2.456847,4.063246 3.685268,4.630209 1.228423,0.566965 2.078871,-0.566963 4.063246,0 1.984374,0.566965 2.645833,2.645833 1.889879,3.401787 -0.755952,0.755952 -6.520088,0.377976 -3.401785,2.456844 z"
       id="path4633"
       inkscape:connector-curvature="0" />
    <path
       style="fill:#004455;stroke:none;stroke-width:0.26458332px;stroke-linecap:butt;stroke-linejoin:miter;stroke-opacity:1"
       d="m 202.59524,208.07589 c 19.46577,7.18155 38.37015,12.85676 50.08741,16.06955 11.71727,3.2128 29.16439,6.24217 37.81986,12.69463 8.65547,6.45245 20.4913,33.00249 20.4913,33.00249 l -159.42536,1.73334 c 0,0 16.81994,-38.55358 24.37946,-48.56995 7.55953,-10.01637 19.65477,-17.3869 26.64733,-14.93006 z"
       id="path4647"
       inkscape:connector-curvature="0"
       sodipodi:nodetypes="cszccsc" />
    <path
       style="fill:#483e37;stroke:none;stroke-width:0.26458332px;stroke-linecap:butt;stroke-linejoin:miter;stroke-opacity:1"
       d="m 98.355186,178.78981 c 0,0 1.241539,11.42671 1.241539,14.26153 0,2.83482 -0.283483,3.1183 -1.322917,3.49628 -1.039434,0.37797 -17.103423,8.88244 -19.276785,10.9613 -2.173364,2.07888 57.735867,77.6741 65.106397,78.90253 7.37054,1.22844 34.39583,-49.1369 38.83705,-56.69642 4.44123,-7.55953 7.46503,-21.35566 4.91369,-23.15104 -2.55134,-1.79539 -10.86681,-4.91369 -12.28422,-8.88244 -1.41741,-3.96875 0.37797,-30.2381 0.66146,-34.67932 0.28348,-4.44122 3.49628,-12.37872 2.07887,-11.62277 -1.41741,0.75595 -6.14212,18.42634 -8.88245,21.16667 -2.74032,2.74033 -34.67931,25.51339 -45.26264,24.00149 -10.58334,-1.51191 -16.91444,-5.38616 -20.88319,-11.05581 -3.968748,-5.66964 -4.926804,-6.702 -4.926804,-6.702 z"
       id="path4635"
       inkscape:connector-curvature="0" />
    <path
       style="fill:#004455;fill-opacity:1;stroke:none;stroke-width:0.26458332px;stroke-linecap:butt;stroke-linejoin:miter;stroke-opacity:1"
       d="m 59.909225,213.55655 c -22.489583,9.4494 -41.955356,14.36309 -50.4598203,17.95386 -8.50446423,3.59078 -16.0158273,4.8544 -20.9563797,11.49585 -4.940553,6.64144 -8.191339,23.08898 -8.191339,23.08898 l 147.265274,-0.18899 c 0,0 -44.034222,-47.625 -48.002972,-49.13691 -3.96875,-1.5119 -19.654763,-3.21279 -19.654763,-3.21279 z"
       id="path4643"
       inkscape:connector-curvature="0"
       sodipodi:nodetypes="cczcccc" />
    <path
       style="fill:#d38d5f;stroke:none;stroke-width:0.26458332px;stroke-linecap:butt;stroke-linejoin:miter;stroke-opacity:1"
       d="m 98.74628,180.20015 c 0.944938,5.85863 1.6064,14.2686 1.133927,15.7805 -0.472469,1.51191 -6.992559,3.2128 -9.260416,5.38616 -2.267858,2.17336 -0.850448,16.53646 3.77976,22.67857 4.630209,6.14212 32.505959,39.40402 36.380209,42.61681 3.87426,3.21281 19.74926,5.76416 23.52902,1.51191 3.77976,-4.25223 20.97768,-38.55357 23.43452,-41.67187 2.45685,-3.11831 4.53572,-19.65476 2.17336,-21.63914 -2.36235,-1.98437 -3.59077,-5.00818 -5.00818,-2.74033 -1.41741,2.26786 -2.64583,11.52828 -6.52009,16.44197 -3.87425,4.91369 -7.843,8.59896 -5.95312,1.41741 1.88988,-7.18155 5.85863,-24.19048 4.06324,-23.15104 -1.79539,1.03943 -6.80357,6.23661 -6.14211,4.91369 0.66146,-1.32292 4.44122,-5.85863 4.53571,-8.22098 0.0945,-2.36235 -2.07887,-3.68527 -5.85863,0.0945 -3.77976,3.77976 -15.59152,9.44941 -26.83631,9.35491 -11.24479,-0.0945 -20.22172,-8.40997 -22.77306,-10.67783 -2.55134,-2.26785 -10.67783,-12.09523 -10.67783,-12.09523 z"
       id="path4637"
       inkscape:connector-curvature="0" />
    <path
       style="fill:#005469;fill-opacity:1;stroke:none;stroke-width:0.26458332px;stroke-linecap:butt;stroke-linejoin:miter;stroke-opacity:1"
       d="m 98.746279,182.09003 c -7.748513,0.37797 -15.024554,0.28348 -18.993304,5.19717 -3.96875,4.91369 -18.898809,24.37946 -22.67857,32.50595 -3.779763,8.12649 -6.614583,27.21429 -4.724704,26.08036 1.889882,-1.13393 16.252976,-9.63839 19.465774,-15.30804 3.212798,-5.66964 4.913691,-11.33928 6.425597,-10.01637 1.511903,1.32292 20.410712,33.26191 27.403268,41.3884 6.99256,8.12649 37.79762,23.6235 37.79762,22.30059 0,-1.32292 -14.55208,-24.75744 -24.19047,-33.63988 -9.6384,-8.88244 -26.269349,-24.37946 -28.537206,-34.01786 -2.267858,-9.63839 -0.188987,-13.98511 1.700892,-16.25297 1.889882,-2.26786 6.425597,-3.59077 7.181549,-4.72471 0.755955,-1.13392 -0.850446,-13.51264 -0.850446,-13.51264 z"
       id="path4639"
       inkscape:connector-curvature="0"
       sodipodi:nodetypes="csssscssssscc" />
    <path
       style="fill:#007896;fill-opacity:1;stroke:none;stroke-width:0.26458332px;stroke-linecap:butt;stroke-linejoin:miter;stroke-opacity:1"
       d="m 97.706843,183.50744 c -0.755952,1.32292 -8.882438,3.2128 -12.095237,4.53571 -3.212798,1.32292 -7.181548,28.72619 -8.504464,30.42709 -1.322917,1.70089 -3.02381,7.55952 -5.858632,11.15029 -2.83482,3.59078 -18.331844,16.06399 -18.520833,14.74107 -0.188987,-1.32291 2.078871,-15.875 3.590774,-20.41071 1.511906,-4.53572 13.607142,-23.43452 16.441965,-26.64732 2.834822,-3.2128 7.559524,-11.90625 13.040177,-13.22917 5.480656,-1.32291 11.90625,-0.56696 11.90625,-0.56696 z"
       id="path4641"
       inkscape:connector-curvature="0" />
    <path
       style="fill:#005469;fill-opacity:1;stroke:none;stroke-width:0.26458332px;stroke-linecap:butt;stroke-linejoin:miter;stroke-opacity:1"
       d="m 174.92469,183.49598 c 7.37054,1.32291 23.13483,8.51592 25.59168,12.67366 2.45684,4.15774 17.19791,30.2381 15.49702,31.18303 -1.70089,0.94495 -3.2128,2.45685 -8.50446,-2.07886 -5.29167,-4.53572 -12.66221,-18.70982 -13.22917,-14.55209 -0.56696,4.15774 -8.12649,13.98512 -13.79613,22.48959 -5.66964,8.50446 -32.88393,52.72768 -34.9628,51.97171 -2.07887,-0.75594 15.30804,-47.436 22.3006,-55.94046 6.99256,-8.50447 14.93006,-18.52084 13.79613,-23.05655 -1.13393,-4.53571 -6.58217,-4.79152 -6.77115,-10.83914 -0.18899,-6.04762 0.0783,-11.85089 0.0783,-11.85089 z"
       id="path4645"
       inkscape:connector-curvature="0"
       sodipodi:nodetypes="cccssscsscc" />
    <path
       style="fill:#007896;fill-opacity:1;stroke:none;stroke-width:0.26458332px;stroke-linecap:butt;stroke-linejoin:miter;stroke-opacity:1"
       d="m 176.32589,184.26339 c 6.23661,2.45685 20.5997,8.88244 22.67857,10.77232 2.07887,1.88988 15.875,28.5372 16.06399,30.2381 0.18899,1.70089 -2.26786,3.40178 -4.34673,1.13393 -2.07887,-2.26786 -12.28422,-19.0878 -13.22916,-23.43453 -0.94494,-4.34672 -20.41072,-16.25297 -21.16667,-18.70982 z"
       id="path4649"
       inkscape:connector-curvature="0" />
  </g>
</svg>
