<?xml version="1.0" encoding="UTF-8" standalone="no"?>
<!-- Created with Inkscape (http://www.inkscape.org/) -->

<svg
   xmlns:dc="http://purl.org/dc/elements/1.1/"
   xmlns:cc="http://creativecommons.org/ns#"
   xmlns:rdf="http://www.w3.org/1999/02/22-rdf-syntax-ns#"
   xmlns:svg="http://www.w3.org/2000/svg"
   xmlns="http://www.w3.org/2000/svg"
   xmlns:sodipodi="http://sodipodi.sourceforge.net/DTD/sodipodi-0.dtd"
   xmlns:inkscape="http://www.inkscape.org/namespaces/inkscape"
   width="1000"
   height="1000"
   viewBox="0 0 264.58333 264.58334"
   id="svg4332"
   version="1.1"
   inkscape:version="0.91+devel r13925"
   sodipodi:docname="drum-talk-tv.svg">
  <defs
     id="defs4334" />
  <sodipodi:namedview
     id="base"
     pagecolor="#ffffff"
     bordercolor="#666666"
     borderopacity="1.0"
     inkscape:pageopacity="0.0"
     inkscape:pageshadow="2"
     inkscape:zoom="0.98994949"
     inkscape:cx="454.15023"
     inkscape:cy="473.85454"
     inkscape:document-units="px"
     inkscape:current-layer="layer1"
     showgrid="false"
     units="px"
     showguides="true"
     inkscape:guide-bbox="true"
     inkscape:window-width="1920"
     inkscape:window-height="1151"
     inkscape:window-x="0"
     inkscape:window-y="1"
     inkscape:window-maximized="1">
    <sodipodi:guide
       position="264.58333,0"
       orientation="1,0"
       id="guide4340"
       inkscape:label=""
       inkscape:color="rgb(0,0,255)" />
    <sodipodi:guide
       position="0,0"
       orientation="1,0"
       id="guide4342"
       inkscape:label=""
       inkscape:color="rgb(0,0,255)" />
    <sodipodi:guide
       position="0,0"
       orientation="0,1"
       id="guide4344"
       inkscape:label=""
       inkscape:color="rgb(0,0,255)" />
    <sodipodi:guide
       position="0,264.58333"
       orientation="0,1"
       id="guide4346"
       inkscape:label=""
       inkscape:color="rgb(0,0,255)" />
  </sodipodi:namedview>
  <metadata
     id="metadata4337">
    <rdf:RDF>
      <cc:Work
         rdf:about="">
        <dc:format>image/svg+xml</dc:format>
        <dc:type
           rdf:resource="http://purl.org/dc/dcmitype/StillImage" />
        <dc:title></dc:title>
      </cc:Work>
    </rdf:RDF>
  </metadata>
  <g
     inkscape:label="BG"
     inkscape:groupmode="layer"
     id="layer1"
     transform="translate(0,-32.41665)"
     style="display:inline">
    <rect
       style="opacity:1;fill:#ffffff;fill-opacity:1;stroke:none;stroke-width:11.60810661;stroke-miterlimit:4;stroke-dasharray:none;stroke-opacity:1"
       id="rect5606"
       width="264.58334"
       height="264.58334"
       x="0"
       y="32.416653" />
  </g>
  <g
     inkscape:groupmode="layer"
     id="layer2"
     inkscape:label="Head"
     style="display:inline">
    <path
       style="fill:#e9c6af;fill-opacity:1;fill-rule:evenodd;stroke:none;stroke-width:0.26458332px;stroke-linecap:butt;stroke-linejoin:miter;stroke-opacity:1"
       d="m 88.198943,153.13194 c 0,0 12.695307,-9.2208 12.828937,-11.35896 0.13364,-2.13815 1.73725,-11.35895 1.73725,-11.35895 0,0 -2.67269,-2.13816 -2.67269,-2.93997 0,-0.8018 -0.267272,-9.22079 -0.668176,-10.55714 -0.400905,-1.33635 -2.539061,-4.27631 -2.539061,-6.01357 0,-1.73725 -0.133636,-9.88897 1.202711,-10.15624 1.33635,-0.26727 4.810856,0.13364 4.810856,0.13364 0,0 2.67269,-20.178852 3.74177,-24.05426 1.06908,-3.87541 2.53906,-8.552624 4.27631,-10.289879 1.73726,-1.737251 16.83798,-14.699823 29.53328,-14.03165 12.69531,0.668176 25.25698,7.884451 29.53329,12.962572 4.27631,5.078122 5.07812,6.68174 6.1472,9.48807 1.06908,2.806329 2.80633,16.303439 2.27179,23.653353 -0.53454,7.349914 -0.53454,8.953524 -0.53454,8.953524 0,0 1.06908,-2.27179 2.53906,-0.93544 1.46998,1.33635 3.0736,2.80633 0.13363,12.96257 -2.93996,10.15624 -3.20723,14.29892 -4.40994,15.63527 -1.20272,1.33635 -2.00453,1.20271 -2.00453,1.20271 0,0 -0.4009,4.94449 -2.80633,8.68626 -2.40542,3.74178 -10.82441,12.42804 -13.0962,16.43708 -2.27179,4.00904 -2.53906,11.09168 -2.53906,13.63074 0,2.53906 -2.00452,19.24341 -2.00452,19.24341 l -10.55715,7.75082 -29.26601,-10.82442 z"
       id="path4776"
       inkscape:connector-curvature="0"
       sodipodi:nodetypes="cscsssscsssssscssscssscccc" />
    <path
       style="fill:#fbf6f2;fill-opacity:1;fill-rule:evenodd;stroke:none;stroke-width:0.26458332px;stroke-linecap:butt;stroke-linejoin:miter;stroke-opacity:1"
       d="m 126.05506,135.88244 0.18899,1.13393 c 0,0 10.01636,7.37053 14.74107,7.9375 4.7247,0.56696 17.67038,-5.00819 17.67038,-5.00819 l -16.44196,-3.49628 z"
       id="path4806"
       inkscape:connector-curvature="0" />
    <path
       style="fill:#e2bda0;fill-rule:evenodd;stroke:none;stroke-width:0.26458332px;stroke-linecap:butt;stroke-linejoin:miter;stroke-opacity:1;fill-opacity:1"
       d="m 195.10675,253.09074 8.28536,11.49259 40.62496,0 c 0,0 -4.81085,-16.57071 -7.75081,-20.31248 -2.93997,-3.74178 -13.63075,-13.09621 -13.63075,-13.09621 z"
       id="path4816"
       inkscape:connector-curvature="0" />
  </g>
  <g
     inkscape:groupmode="layer"
     id="layer3"
     inkscape:label="Face"
     style="display:inline">
    <path
       style="fill:#ac6c41;fill-opacity:1;fill-rule:evenodd;stroke:none;stroke-width:0.26458332px;stroke-linecap:butt;stroke-linejoin:miter;stroke-opacity:1"
       d="m 115.99497,103.95435 c 2.80633,-1.06908 6.01357,-2.93997 10.95805,-2.80633 4.94449,0.13363 9.62171,3.94222 11.49259,7.08264 1.87089,3.14041 1.5368,4.27631 1.20272,5.94674 -0.33409,1.67044 -2.53906,4.07587 -2.53906,4.87767 0,0.80181 0.4009,2.93997 -0.20046,2.73952 -0.60135,-0.20046 -2.27179,-2.20498 -5.14493,-1.00226 -2.87315,1.20271 -8.21854,6.08038 -9.68852,7.21627 -1.46999,1.1359 -4.61041,1.00226 -4.61041,2.33861 0,1.33635 0.80181,4.54358 1.40317,4.54358 0.60136,0 0.13364,-3.80859 1.06908,-3.80859 0.93544,0 3.27405,-1.9377 4.47676,-3.0736 1.20272,-1.13589 2.13816,-2.80633 3.14042,-3.27405 1.00226,-0.46772 5.0113,-4.07586 4.74403,-2.80633 -0.26726,1.26953 -1.80406,3.87541 -0.53453,5.01131 1.26953,1.13589 5.0113,1.60361 6.41447,2.80632 1.40316,1.20272 2.87314,2.6727 5.27857,3.00679 2.40542,0.33408 3.67495,-0.66818 5.74629,-1.26953 2.07134,-0.60136 5.14494,-0.20045 6.01357,-0.86863 0.86862,-0.66817 1.26953,-2.93996 0.80181,-3.94222 -0.46773,-1.00227 -0.80181,-3.27406 -1.73726,-3.60814 -0.93544,-0.33409 -2.93996,-1.20272 -3.27405,-2.60588 -0.33409,-1.40317 -1.81159,-3.30059 -1.73725,-6.48129 0.0642,-2.74697 1.40179,-5.44606 2.81779,-6.82012 1.54826,-1.5024 4.87767,-3.20248 7.40527,-3.13567 2.33875,0.0618 9.48807,2.93997 9.48807,2.07134 0,-0.86863 -2.72129,-3.16975 -5.87993,-3.74177 -3.8687,-0.7006 -9.96922,1.45377 -12.56167,3.60814 -1.73889,1.44505 -3.20723,5.0113 -2.93997,7.55036 0.26728,2.53906 2.13816,6.68174 2.00453,9.02035 -0.13364,2.33861 -0.80181,5.41221 0,5.41221 0.80181,0 0.20045,-4.07587 1.80407,-3.74178 1.60361,0.33409 2.87314,1.5368 2.87314,3.00678 0,1.46999 -1.87088,1.73726 -4.14268,2.47225 -2.27178,0.73499 -3.67495,1.80407 -6.08038,1.67043 -2.40542,-0.13363 -3.8754,-2.87314 -5.0113,-3.14042 -1.1359,-0.26726 -5.7463,-0.8018 -5.41221,-2.73951 0.33409,-1.9377 1.40317,-2.67269 2.53906,-2.53906 1.1359,0.13364 1.40317,2.60588 2.40543,2.60588 1.00226,0 -0.60136,-3.67496 0.0668,-5.61266 0.66818,-1.9377 2.53907,-5.0113 2.53907,-7.01583 0,-2.00452 0.26727,-6.08038 -1.73726,-7.95126 -2.00452,-1.87089 -5.54109,-5.619379 -8.41898,-6.347654 -2.33282,-0.590341 -5.63544,-0.950521 -7.684,-0.200454 -2.22119,0.813275 -8.88672,3.140418 -7.34992,5.545848 z"
       id="path4779"
       inkscape:connector-curvature="0"
       sodipodi:nodetypes="csssscsssssssssssssscsssssssssssssscsssssssscc" />
    <path
       style="fill:#4c2b15;fill-opacity:1;fill-rule:evenodd;stroke:none;stroke-width:0.26458332px;stroke-linecap:butt;stroke-linejoin:miter;stroke-opacity:1"
       d="m 133.56795,110.03473 c 1.60361,0.0668 1.67043,-1.1359 1.60361,-1.73725 -0.0668,-0.60136 -2.00452,-3.20724 -3.67495,-3.20724 -1.67044,0 -3.94223,-0.20045 -5.87993,-0.20045 -1.93771,0 -4.2095,-0.13363 -4.87767,0.86863 -0.66818,1.00226 -1.00226,2.27179 -0.13364,2.27179 0.86863,0 1.67044,-1.60362 2.47225,-1.67044 0.80181,-0.0668 2.27179,-1.00226 2.27179,-0.4009 0,0.60135 -0.40091,2.87314 1.67043,2.87314 2.07134,0 3.40769,-1.26953 3.40769,-1.87088 0,-0.60136 -0.66818,-1.40317 0,-1.40317 0.66817,0 2.20497,-0.20045 3.60814,1.87089 1.40316,2.07134 0.13363,1.5368 -0.46772,2.60588 z"
       id="path4781"
       inkscape:connector-curvature="0" />
    <path
       style="fill:#4c2b15;fill-opacity:1;fill-rule:evenodd;stroke:none;stroke-width:0.26458332px;stroke-linecap:butt;stroke-linejoin:miter;stroke-opacity:1"
       d="m 154.74905,112.64061 c 0.80181,0 0.20046,-1.26954 1.00227,-2.07134 0.8018,-0.80181 2.60587,-1.33635 2.87314,-0.93545 0.26727,0.40091 -0.0668,2.27179 2.07134,2.53906 2.13816,0.26727 2.60588,-1.46998 3.34087,-1.46998 0.73499,0 1.60362,-0.0668 1.9377,0.26727 0.33409,0.33409 1.1359,1.33635 1.93771,1.33635 0.80181,0 1.20271,-1.06908 -0.20045,-2.13816 -1.40317,-1.06907 -4.94449,-1.13589 -7.08265,-1.20271 -2.13815,-0.0668 -7.08264,-0.26727 -5.87993,3.67496 z"
       id="path4783"
       inkscape:connector-curvature="0" />
    <path
       style="fill:#e3b799;fill-opacity:1;fill-rule:evenodd;stroke:none;stroke-width:0.26458332px;stroke-linecap:butt;stroke-linejoin:miter;stroke-opacity:1"
       d="m 105.7051,103.35299 c 1.60361,0.4009 1.26953,9.6217 2.40542,9.88897 1.1359,0.26727 -0.13363,-2.67269 1.06908,-2.60588 1.20271,0.0668 -1.13589,21.5152 -0.26727,25.19016 0.86863,3.67495 1.80407,8.41899 4.6104,12.49485 2.80633,4.07586 8.01809,8.21853 8.0849,10.15624 0.0668,1.9377 -6.34765,-4.40995 -9.42125,-9.48807 -3.0736,-5.07812 -4.67721,-12.56167 -4.67721,-15.03391 0,-2.47224 1.26953,-18.17433 0.33408,-18.17433 -0.93544,0 -1.73725,9.68852 -2.60587,9.68852 -0.86863,0 -0.40091,-20.7802 0.46772,-22.11655 z"
       id="path4785"
       inkscape:connector-curvature="0" />
    <path
       style="fill:#d89a70;fill-opacity:1;fill-rule:evenodd;stroke:none;stroke-width:0.26458332px;stroke-linecap:butt;stroke-linejoin:miter;stroke-opacity:1"
       d="m 126.01758,136.83119 c 1.40317,0 9.2208,6.41447 15.56845,7.01582 6.34765,0.60136 16.23662,-4.87767 16.77116,-4.14267 0.53454,0.73498 -7.28309,6.68173 -15.16754,5.74629 -7.88445,-0.93544 -17.10525,-7.21628 -17.17207,-8.61944 z"
       id="path4791"
       inkscape:connector-curvature="0" />
    <path
       style="fill:#4c2b15;fill-opacity:1;fill-rule:evenodd;stroke:none;stroke-width:0.99999994px;stroke-linecap:butt;stroke-linejoin:miter;stroke-opacity:1"
       d="m 503.81445,489.11523 c -10.1015,-0.25254 -47.98224,12.12208 -49.75,18.43555 1.76776,4.04058 1.01017,86.3688 5.05078,100.00586 4.04062,13.63707 51.76887,36.61662 81.56836,39.39453 29.7995,2.77792 55.05411,-29.29456 60.35743,-37.88086 5.30328,-8.58629 17.67674,-84.09376 13.88867,-89.14453 -3.78807,-5.05077 -33.58774,-22.22481 -42.93164,-22.98242 -9.3439,-0.75761 -17.42408,7.32381 -30.8086,5.80859 -13.38451,-1.51525 -27.27345,-13.38424 -37.375,-13.63672 z m -33.91797,26.72461 c 13.27849,0.29814 60.33797,11.91407 66.7461,11.91407 7.07108,0 65.40822,1.01059 67.93359,4.04101 2.52537,3.03046 2.0201,24.49551 -0.75781,29.79883 -2.77792,5.30328 -23.4862,30.80937 -35.35547,28.78906 -11.8693,-2.02031 -15.90898,-2.52583 -13.88867,-11.61719 2.02031,-9.09138 10.35273,-13.13085 7.32226,-13.13085 -3.03042,0 -9.09142,1.51426 -20.20312,1.26171 -11.11166,-0.25247 -31.06037,-10.10172 -32.82813,-5.80859 -1.76776,4.29317 12.87832,29.04338 5.55469,30.55859 -7.32359,1.51525 -48.99219,-29.80024 -48.99219,-40.15429 0,-10.35406 -0.75723,-30.8098 1.51563,-35.35547 0.56821,-0.23676 1.57949,-0.32772 2.95312,-0.29688 z"
       transform="scale(0.26458333)"
       id="path4787"
       inkscape:connector-curvature="0" />
    <path
       style="fill:#e3b799;fill-opacity:1;fill-rule:evenodd;stroke:none;stroke-width:0.26458332px;stroke-linecap:butt;stroke-linejoin:miter;stroke-opacity:1"
       d="m 161.63124,154.20102 c 1.20272,0 9.68852,-12.02713 9.82216,-13.69757 0.13363,-1.67043 -0.53454,-2.00452 0.26727,-3.20723 0.80181,-1.20271 3.00678,-2.27179 3.00678,-3.4745 0,-1.20272 -0.73499,-11.96032 -0.0668,-14.36574 0.66818,-2.40543 4.34313,-9.2208 5.34539,-9.15398 1.00226,0.0668 1.20272,1.60361 1.20272,1.60361 0,0 0.46772,-4.07586 -1.40317,-4.07586 -1.87088,0 -2.47224,5.07812 -3.80859,5.07812 -1.33635,0 1.67044,-10.22305 -0.0668,-10.49032 -1.73725,-0.26727 -5.54584,0.26727 -6.21401,1.87088 -0.66817,1.60362 0.66817,7.88445 1.73725,7.88445 1.06908,0 -0.4009,-6.5481 1.06908,-7.28309 1.46998,-0.73499 1.67043,-2.6727 2.00452,-0.60136 0.33409,2.07134 -1.26953,24.78925 -2.53906,27.72922 -1.26953,2.93996 -3.4745,2.67269 -3.4745,4.74403 0,2.07134 1.06907,3.67496 0.26726,5.14494 -0.8018,1.46998 -7.75081,10.62396 -7.14946,12.2944 z"
       id="path4793"
       inkscape:connector-curvature="0" />
    <path
       style="fill:#e3b799;fill-opacity:1;fill-rule:evenodd;stroke:none;stroke-width:0.26458332px;stroke-linecap:butt;stroke-linejoin:miter;stroke-opacity:1"
       d="m 99.758351,113.50923 c 2.004519,0 0.601359,-5.94675 2.071339,-5.94675 1.46998,0 2.60588,4.34313 2.60588,3.00679 0,-1.33635 -2.60588,-9.35444 -4.476768,-8.28536 -1.870888,1.06908 -1.069078,9.55489 -0.200451,11.22532 z"
       id="path4795"
       inkscape:connector-curvature="0" />
    <path
       style="fill:#201b17;fill-opacity:1;fill-rule:evenodd;stroke:none;stroke-width:0.26458332px;stroke-linecap:butt;stroke-linejoin:miter;stroke-opacity:1"
       d="m 95.816123,147.51927 c 0,0 -51.716651,35.27959 -56.928406,41.56042 -5.211757,6.28083 -16.169808,22.98518 -16.036173,37.01683 0.133635,14.03165 0.668174,38.48681 0.668174,38.48681 l 162.098962,0 c 0,0 -0.26726,-9.88897 1.33635,-9.88897 1.60362,0 15.76891,3.87541 22.45064,2.40542 6.68174,-1.46998 17.90706,-8.95353 20.44612,-13.63074 2.53906,-4.67722 3.34087,-10.02261 2.27179,-13.63075 -1.06908,-3.60814 -25.12333,-43.03039 -36.61592,-53.58754 -11.49259,-10.55714 -32.87416,-21.11429 -34.2105,-19.37704 -1.33635,1.73725 -9.2208,12.56167 -8.28536,14.9671 0.93545,2.40542 0.66818,23.25244 -9.2208,23.25244 -9.88897,0 -33.4866,-7.23846 -46.237623,-32.74051 -6.280834,-12.56167 -1.737254,-14.83347 -1.737254,-14.83347 z"
       id="path4797"
       inkscape:connector-curvature="0"
       sodipodi:nodetypes="cssccsssssssssc" />
    <path
       style="fill:#000000;fill-opacity:1;fill-rule:evenodd;stroke:none;stroke-width:0.26458332px;stroke-linecap:butt;stroke-linejoin:miter;stroke-opacity:1"
       d="m 89.000752,264.58333 c 0,0 7.216278,-14.43255 7.216278,-16.57071 0,-2.13816 -3.207234,-24.85607 -12.82894,-33.40869 -9.621702,-8.55263 -29.399647,-11.22532 -26.192413,-13.63075 3.207237,-2.40542 29.132379,6.1472 35.012309,19.51068 5.879928,13.36348 6.1472,27.26149 8.819894,31.80507 2.6727,4.54358 11.22532,12.2944 11.22532,12.2944 z"
       id="path4799"
       inkscape:connector-curvature="0" />
    <path
       style="fill:#e2bda0;fill-opacity:1;fill-rule:evenodd;stroke:none;stroke-width:0.26458332px;stroke-linecap:butt;stroke-linejoin:miter;stroke-opacity:1"
       d="m 102.89877,136.56123 c 0,0 1.46998,12.36121 3.27405,16.70434 1.80407,4.34313 11.55941,14.36574 11.02487,14.63301 -0.53454,0.26727 -13.02939,-10.55715 -13.56393,-15.16755 -0.53454,-4.61039 -1.5368,-16.57071 -0.73499,-16.1698 z"
       id="path4808"
       inkscape:connector-curvature="0" />
    <path
       style="fill:#e3c0a4;fill-opacity:1;fill-rule:evenodd;stroke:none;stroke-width:0.26458332px;stroke-linecap:butt;stroke-linejoin:miter;stroke-opacity:1"
       d="m 155.41723,113.04151 c 0.86862,-0.20045 4.00904,3.00678 5.87993,3.80859 1.87088,0.80181 5.0113,0.0668 5.0113,0.93544 0,0.86863 -3.34087,0.33409 -5.21175,-0.20045 -1.87089,-0.53454 -6.1472,-4.20949 -5.67948,-4.54358 z"
       id="path4810"
       inkscape:connector-curvature="0" />
    <path
       style="fill:#e3c0a4;fill-opacity:1;fill-rule:evenodd;stroke:none;stroke-width:0.26458332px;stroke-linecap:butt;stroke-linejoin:miter;stroke-opacity:1"
       d="m 135.50565,107.89657 c 1.00226,0.0668 2.53906,1.5368 0.93544,3.14042 -1.60361,1.60362 -10.82441,4.00904 -10.22306,2.87315 0.60136,-1.1359 7.48355,-0.735 8.55263,-2.53907 1.06908,-1.80407 0.33408,-3.27405 0.73499,-3.4745 z"
       id="path4812"
       inkscape:connector-curvature="0" />
    <path
       style="fill:#e5c5ab;fill-opacity:1;fill-rule:evenodd;stroke:none;stroke-width:0.26458332px;stroke-linecap:butt;stroke-linejoin:miter;stroke-opacity:1"
       d="m 103.94345,100.35268 c 2.83482,0.94494 15.11905,-10.772324 16.25298,-19.276789 1.13393,-8.504464 13.60714,-15.497024 22.3006,-15.308035 8.69345,0.188987 21.73363,6.80357 25.51339,15.686011 3.77976,8.882441 6.04762,14.930062 4.91369,17.00893 -1.13393,2.078863 -4.7247,2.078863 -3.40179,2.645833 1.32292,0.56696 8.50446,0 8.50446,-2.456843 0,-2.456848 -0.37797,-22.300597 -4.34672,-28.348216 -3.96875,-6.04762 -17.19792,-16.819941 -32.12798,-17.764882 -14.93006,-0.944941 -26.45833,9.260418 -30.99404,14.363095 -4.53572,5.10268 -5.10269,23.8125 -5.66965,27.78125 -0.56697,3.96875 -0.75595,4.157739 -0.94494,5.669646 z"
       id="path4814"
       inkscape:connector-curvature="0"
       sodipodi:nodetypes="cssssssssssc" />
  </g>
  <path
     style="fill:#ecceba;fill-rule:evenodd;stroke:none;stroke-width:0.26458332px;stroke-linecap:butt;stroke-linejoin:miter;stroke-opacity:1;fill-opacity:1"
     d="m 134.74851,113.48735 c 0,0 -4.06324,1.6064 -6.61458,1.6064 -2.55134,0 -10.48884,1.88988 -9.92188,3.96875 0.56697,2.07887 3.87426,4.15774 5.19717,4.15774 1.32292,0 6.04763,-3.77977 7.84301,-3.77977 1.79539,0 4.63021,1.51191 4.63021,0.37798 0,-1.13393 -2.55134,-1.6064 -2.55134,-2.45684 0,-0.85045 2.26786,-2.36235 1.41741,-3.87426 z"
     id="path4802"
     inkscape:connector-curvature="0" />
  <path
     style="fill:#eecab2;fill-rule:evenodd;stroke:none;stroke-width:0.26458332px;stroke-linecap:butt;stroke-linejoin:miter;stroke-opacity:1;fill-opacity:1"
     d="m 142.40253,101.29762 c 3.40178,0 8.31547,-2.362354 8.03199,-7.465031 -0.28348,-5.10268 1.88988,-16.063989 -3.30729,-16.063989 -5.19717,0 -19.46577,7.9375 -4.7247,23.52902 z"
     id="path4804"
     inkscape:connector-curvature="0" />
</svg>
