<svg xmlns="http://www.w3.org/2000/svg" xmlns:xlink="http://www.w3.org/1999/xlink" xmlns:a="http://ns.adobe.com/AdobeSVGViewerExtensions/3.0/" version="1.1" x="0px" y="0px" width="385.6px" height="247.2px" viewBox="0 0 385.6 247.2" enable-background="new 0 0 385.6 247.2" xml:space="preserve">
    <style>
    .style0 {
        clip-path: url(#SVGID_2_);
        fill: #F20F2B;
    }
    .style1 {
        clip-path: url(#SVGID_2_);
    }
    </style>
    <g>
        <defs>
            <rect x="0" width="385.6" height="247.2" />
        </defs>
        <clipPath>
            <use xlink:href="#SVGID_1_" overflow="visible" />
        </clipPath>
        <path d="M72.7 118.3c0.1 0 0.2-0.1 0.3-0.1C73 118.2 72.9 118.3 72.7 118.3" class="style0" />
        <path d="M163.7 15.2l1.1 121.1c0 0.1 0 0.3 0.1 0.4c0 0 0 0.1 0 0.1 c0 0.1 0 0.2 0.1 0.3c0 0 0 0.1 0 0.1c0 0.1 0 0.1 0.1 0.2c0 0 0 0.1 0.1 0.1c0 0.1 0.1 0.1 0.1 0.2c0 0 0 0.1 0.1 0.1 c0 0.1 0.1 0.1 0.1 0.1c0 0 0 0.1 0.1 0.1c0 0 0.1 0.1 0.1 0.1c0 0 0 0 0.1 0.1c0.1 0 0.2 0.1 0.3 0.1c0 0 0 0 0 0 c0.1 0 0.2 0 0.3 0c0.1 0 0.2 0 0.3 0c0 0 0 0 0 0c0.1 0 0.2 0 0.3-0.1c0 0 0.1 0 0.1 0c0.1 0 0.2-0.1 0.3-0.1c0.1 0 0.1 0 0.2-0.1 c0.1 0 0.2-0.1 0.3-0.1c0.1 0 0.1-0.1 0.2-0.1c0.1-0.1 0.2-0.1 0.3-0.2c0.1 0 0.1-0.1 0.2-0.1c0.1-0.1 0.2-0.2 0.4-0.2 c0.1 0 0.1-0.1 0.2-0.1c0.2-0.1 0.4-0.3 0.6-0.5c7.7-5.7 12.2-8.6 25.5-14.3c2.3-1 5.2-0.9 3.6-2.8c-2.1-2.4-3-12.1-3-12.1 c0-2.4-0.2-78.6-0.2-85c0-0.4 0-0.8 0.1-1.2c0-0.1 0-0.2 0-0.3c0-0.3 0.1-0.6 0.1-0.9c0-0.1 0-0.2 0.1-0.3c0.1-0.3 0.1-0.6 0.2-0.9 c0-0.1 0.1-0.2 0.1-0.3c0.1-0.3 0.2-0.6 0.3-0.9c0-0.1 0.1-0.2 0.1-0.3c0.1-0.3 0.2-0.6 0.3-0.9c0-0.1 0.1-0.2 0.1-0.2 c0.1-0.3 0.2-0.6 0.4-1c0-0.1 0.1-0.1 0.1-0.2c0.1-0.3 0.3-0.7 0.4-1c0 0 0-0.1 0.1-0.1c0.2-0.3 0.3-0.7 0.5-1c0 0 0-0.1 0-0.1 c0.2-0.3 0.3-0.6 0.5-1c0 0 0 0 0 0c1.2-2.2 2.3-3.8 2.6-4.4c0 0 0-0.1 0-0.1c0.5-1-0.5-1.3-1.3-1.3c-0.8 0-39.1 0.1-39.1 0.1 s-1 0.4-0.2 1.9C161.2 9 163.7 11.5 163.7 15.2" class="style0" />
        <path d="M363.6 3c-9.3 0-18.9 4.3-23 16.6l0.1 0c-1.4 3.9-2.2 8.7-2.2 14.4 c0 23.5 0.1 42.5 0.1 43c0 0.2-4.2 0.3-8.4 0.3c-4.2 0-8.4-0.1-8.4-0.1s0-0.1 0-0.4c0-1.7-0.1-8.6-0.1-17.4c0-1.7 0-3.4 0-5.2 c-0.1-19.4-0.3-44.3-0.3-45.1c0-1.4-1-3-1.9-3c-0.9 0-24.5 20.3-36.8 24.7c-0.3 0.1-0.7 0.2-1 0.3c-2.5 0.8 1.5 3.5 1.9 3.8 s4.9 3.6 4.9 5.6c0 4.1 0 36.8-0.1 54.6c-2-3.2-10.5-20.2-32.5-30.2s-23.2-12-23.2-18s9.5-10 17.8-10s18.8 3.6 22.1 8 c0.1 0.1 0.1 0.1 0.2 0.2c0 0 0 0 0.1 0c0.1 0 0.1 0.1 0.2 0.1c0 0 0 0 0.1 0c0.1 0 0.2 0.1 0.3 0.1c0 0 0 0 0.1 0 c0.1 0 0.2 0 0.3 0c0 0 0.1 0 0.1 0c0.1 0 0.2 0 0.3 0c0 0 0 0 0 0c0.1 0 0.2 0 0.3-0.1c0 0 0.1 0 0.1 0c0.1 0 0.1-0.1 0.2-0.1 c0 0 0.1 0 0.1 0c0.1 0 0.1-0.1 0.2-0.1c0 0 0 0 0.1 0c0.1-0.1 0.2-0.1 0.2-0.2c0 0 0 0 0 0c0-0.1 0.1-0.1 0.1-0.2c0 0 0-0.1 0-0.1 c0-0.1 0.1-0.1 0.1-0.2c0 0 0-0.1 0-0.1c0-0.1 0-0.2 0-0.3c0 0 0.2-18.2 8.2-32.5c0.2-0.4 0.4-0.8 0.6-1.2l0 0 c1.2-2.8-0.2-3.1-0.8-3.1c-0.1 0-0.2 0-0.2 0c-6.5 0.5-16.3 0.7-25.8 0.7c-10.9 0-21.3-0.2-25.9-0.2c-7.8 0-21.8 7.4-28.2 21.3 c-0.3 0.6-0.5 1.1-0.7 1.7h0c-0.2 0.6-0.4 1.2-0.7 1.8c0 0 0 0 0 0.1c-0.2 0.6-0.4 1.2-0.6 1.8c0 0.1 0 0.1-0.1 0.2 c-0.2 0.6-0.3 1.1-0.4 1.7c0 0.1-0.1 0.3-0.1 0.4c-0.1 0.5-0.2 1-0.3 1.6c0 0.2-0.1 0.4-0.1 0.6c-0.1 0.5-0.1 0.9-0.2 1.4 c0 0.3-0.1 0.7-0.1 1c0 0.4-0.1 0.7-0.1 1.1c0 0.7-0.1 1.4-0.1 2.2c-0.3 24.5 20.8 35.8 42.8 47.7c22 11.8 23 32.3 23 34.8 c0 2.5-2.7 22.3-21.3 22.3s-17.7-12.8-17.7-13.7c0-0.8 0.8-10.3 8-10.3s7.3 6.2 7.2 7c-0.2 0.8-0.7 4.7 0.5 4.7 c1.2 0 11.2-6.2 10.5-14c-0.7-7.8-6.5-19.5-22.3-19.5s-28.6 12-29.6 30.3c-0.1 2.1 0 3.3 0.1 5.4c0 0-7.2 8.1-22.5 8.1 c-15.3 0-36.8-9.1-36.8-52c0-0.9 0-1.9 0-2.9c0-0.3 0-0.7 0-1c0-0.7 0-1.3 0.1-2c0-0.4 0-0.8 0-1.2c0-0.6 0-1.2 0.1-1.8 c0-0.4 0-0.9 0.1-1.3c0-0.6 0.1-1.2 0.1-1.8c0-0.5 0.1-0.9 0.1-1.4c0-0.6 0.1-1.2 0.1-1.8c0-0.5 0.1-1 0.1-1.4 c0-0.6 0.1-1.2 0.1-1.8c0-0.5 0.1-1 0.1-1.5c0.1-0.6 0.1-1.2 0.2-1.7c0-0.5 0.1-1 0.2-1.5c0.1-0.6 0.1-1.2 0.2-1.7 c0.1-0.5 0.1-1 0.2-1.5c0.1-0.6 0.1-1.2 0.2-1.8c0.1-0.5 0.1-1 0.2-1.5c0.1-0.6 0.1-1.2 0.2-1.8c0.1-0.5 0.1-1 0.2-1.5 c0.1-0.6 0.2-1.2 0.2-1.8c0.1-0.5 0.1-1 0.2-1.5c0.1-0.6 0.2-1.2 0.2-1.8c0.1-0.5 0.1-1 0.2-1.5c0.1-0.6 0.2-1.2 0.3-1.7 c0.1-0.5 0.1-1 0.2-1.5c0.1-0.6 0.2-1.1 0.3-1.7c0.1-0.5 0.1-1 0.2-1.5c0.1-0.6 0.2-1.1 0.3-1.7c0.1-0.5 0.2-0.9 0.2-1.4 c0.1-0.6 0.2-1.1 0.3-1.7c0.1-0.5 0.2-0.9 0.2-1.4c0.1-0.6 0.2-1.1 0.3-1.7c0.1-0.5 0.2-0.9 0.2-1.4c0.1-0.5 0.2-1.1 0.3-1.6 c0.1-0.4 0.2-0.9 0.2-1.3c0.1-0.5 0.2-1.1 0.3-1.6c0.1-0.4 0.2-0.8 0.2-1.3c0.1-0.5 0.2-1 0.3-1.6c0.1-0.4 0.2-0.8 0.2-1.2 c0.1-0.5 0.2-1 0.3-1.5c0.1-0.4 0.2-0.8 0.2-1.2c0.1-0.5 0.2-1 0.3-1.4c0.1-0.4 0.2-0.8 0.2-1.1c0.1-0.5 0.2-0.9 0.3-1.4 c0.1-0.4 0.2-0.7 0.2-1.1c0.1-0.4 0.2-0.8 0.3-1.3c0.1-0.3 0.2-0.7 0.2-1c0.1-0.4 0.2-0.8 0.3-1.2c0.1-0.3 0.1-0.6 0.2-0.9 c0.1-0.4 0.2-0.8 0.3-1.1c0.1-0.3 0.1-0.6 0.2-0.9c0.1-0.4 0.2-0.7 0.2-1c0.1-0.3 0.1-0.6 0.2-0.8c0.1-0.3 0.2-0.6 0.2-0.9 c0.1-0.3 0.1-0.5 0.2-0.8c0.1-0.3 0.2-0.6 0.2-0.9c0.1-0.2 0.1-0.4 0.2-0.7c0.1-0.3 0.2-0.5 0.2-0.8c0.1-0.3 0.2-0.7 0.3-1 c0.1-0.2 0.1-0.5 0.2-0.7c0.1-0.4 0.2-0.7 0.3-1c0.9-2.4-0.1-2.8-0.6-2.8c-0.2 0-0.4 0-0.4 0s-16.5-0.1-27.6-0.1 c-5.6 0-9.8 0-10 0.1c-0.6 0.1-0.9 1.2-0.3 1.8c0.6 0.6 5.7 6.8 5.6 9.9c-0.1 3.2-5.5 24-6 27.6c-0.1 0.9-0.5 3-0.9 6 c-0.1 0.6-0.2 1.2-0.3 1.8c0 0 0 0.1 0 0.1c-0.1 0.6-0.2 1.2-0.3 1.8c0 0.1 0 0.2 0 0.2c-0.1 0.7-0.2 1.3-0.3 2c0 0.1 0 0.2 0 0.3 c-0.1 0.6-0.2 1.2-0.3 1.9c0 0.1 0 0.3-0.1 0.4c-0.1 0.7-0.2 1.4-0.3 2.2c0 0.2 0 0.4-0.1 0.5c-0.1 0.6-0.2 1.3-0.2 1.9 c0 0.2 0 0.3-0.1 0.5c-0.1 0.8-0.2 1.5-0.3 2.3c0 0.2 0 0.4-0.1 0.6c-0.1 0.7-0.2 1.4-0.2 2c0 0.2 0 0.3-0.1 0.5 c-0.1 0.8-0.2 1.6-0.3 2.4c0 0.2 0 0.5-0.1 0.7c-0.1 0.7-0.1 1.4-0.2 2.2c0 0.1 0 0.3 0 0.4c-0.1 0.8-0.1 1.7-0.2 2.5 c0 0.2 0 0.5-0.1 0.7c-0.1 0.8-0.1 1.5-0.2 2.3c0 0.1 0 0.2 0 0.3c-0.1 0.8-0.1 1.7-0.1 2.5c0 0.2 0 0.4 0 0.6 c0 0.8-0.1 1.6-0.1 2.4c0 0.1 0 0.1 0 0.2c0 0.8 0 1.6-0.1 2.5c0 0.2 0 0.4 0 0.6c0 0.8 0 1.6 0 2.4c0.1 18.9 3.8 85.6 63 85.6 c21.8 0 32.2-9 38.7-15.8c8.5 7.7 16.8 15.2 34.7 15.2c18 0 34.6-11.6 42.9-24.9c0.7 19.5 2.5 38.1-7.8 54.6 c-0.1 0.1-0.1 0.2-0.2 0.3c0 0 0 0.1 0 0.1c0 0.1 0 0.1-0.1 0.2c0 0 0 0.1 0 0.1c0 0.1 0 0.1 0 0.2c0 0 0 0.1 0 0.1 c0 0 0 0.1 0 0.1c0 0 0 0.1 0 0.1c0 0 0 0.1 0.1 0.1c0 0 0 0.1 0.1 0.1c0 0 0 0.1 0.1 0.1c0 0 0 0.1 0.1 0.1c0 0 0.1 0.1 0.1 0.1 c0 0 0.1 0.1 0.1 0.1c0 0 0.1 0.1 0.1 0.1c0 0 0.1 0 0.1 0.1c0 0 0.1 0.1 0.1 0.1c0 0 0.1 0 0.1 0.1c0 0 0.1 0 0.1 0.1 c0 0 0.1 0 0.1 0.1c0 0 0.1 0 0.1 0.1c0 0 0.1 0 0.1 0c0 0 0.1 0 0.1 0c0 0 0.1 0 0.1 0c0 0 0.1 0 0.1 0c0 0 0.1 0 0.1 0 c0 0 0.1 0 0.1 0c0 0 0.1 0 0.1 0c0 0 0 0 0.1 0c0 0 0 0 0.1 0c0 0 0.1 0 0.1 0c1.4-0.2 3.2-2.8 3.6-3.1 c0.4-0.3 18.4-17.3 37.6-23.7c0.9-0.3 1.7-1.2 1.4-2s-3.3-1.7-3.6-8.6c-0.3-6.9-1-63.3-1-63.3s0.2-0.6 1-0.6s15.5-0.1 15.8-0.1 c0.3 0 0.3 1.2 0.3 1.8c0 0.6 0.1 41.4 0.1 42.7c-0.1 3.8 0 13.3-6.5 19.9c-1.1 1.1-0.9 2.6 0.2 2.6c0 0 43.5 0.2 44.1 0.2 c0.1 0 0.2 0 0.3-0.1c0.5-0.3 0.9-1.4 0.6-1.6c-0.2-0.3-6.7-6.9-7.1-13.1c-0.8-15-0.7-123-0.7-123.9s1.2-5.4 5.5-5.1h0 c0.9 0 1.6 0.1 2.2 0.3c0.7 0.2 1.6 0.4 2.1 0.9c0.1 0.1 0.2 0.2 0.3 0.3c0.1 0 0.1 0.1 0.2 0.1c0 0 0.1 0 0.1 0 c0.6 0 2.2-2.4 2.3-8.2C382.7 15.1 372.7 3 363.6 3" class="style0" />
        <path d="M109.3 156.6c-0.6-3.6-11.5-65.5-11.5-65.5c3.5-7.5 11-10.5 12-34.5 c-0.1-1.1-0.2-2.2-0.4-3.3c0-0.3-0.1-0.6-0.1-1c-0.1-0.8-0.3-1.6-0.4-2.4c-0.1-0.6-0.2-1.1-0.3-1.7C101.1 12.9 68.7 7.7 54.6 7.1 c-0.7 0-1.4 0-2.1 0C28.2 7.1 7.8 23.5 3.4 48c-3 16.8 10.8 25.7 16.3 25.7c0.5 0 0.9 0 1.4 0c0.4 0 0.8 0 1.2 0c0.1 0 0.1 0 0.2 0 c0.2 0 0.4 0 0.6 0c0.1 0 0.1 0 0.2 0c0.2 0 0.5 0 0.7-0.1c0 0 0.1 0 0.1 0c0.2 0 0.3-0.1 0.5-0.1c0 0 0.1 0 0.1 0 c0.2-0.1 0.4-0.1 0.5-0.2c0 0 0 0 0.1 0c0.1-0.1 0.3-0.2 0.4-0.3c0 0 0.1-0.1 0.1-0.1c0.1-0.1 0.2-0.3 0.4-0.5c0 0 0 0 0-0.1 c0.1-0.2 0.2-0.4 0.2-0.6c0-0.1 0-0.1 0.1-0.2c0.1-0.2 0.1-0.5 0.1-0.8c0 0-4.1-2.6-3.5-7.7c2.3-19.3 15.7-24.7 27.7-26.3 c0.4-0.1 0.8-0.1 1.3-0.1c0.1 0 0.3 0 0.4 0c0.3 0 0.6 0 0.9 0c0 0 0 0 0.1 0c0.3 0 0.5 0 0.8 0c0.1 0 0.2 0 0.3 0 c0.4 0 0.8 0.1 1.2 0.1c0.1 0 0.3 0 0.4 0.1c0.3 0 0.5 0.1 0.8 0.1c0.2 0 0.3 0.1 0.5 0.1c0.2 0 0.5 0.1 0.7 0.1 c0.2 0 0.3 0.1 0.5 0.1c0.2 0.1 0.4 0.1 0.7 0.2c0.2 0.1 0.4 0.1 0.5 0.2c0.2 0.1 0.4 0.1 0.6 0.2c0.2 0.1 0.4 0.1 0.5 0.2 c0.2 0.1 0.4 0.2 0.6 0.2c0.2 0.1 0.4 0.1 0.5 0.2c0.2 0.1 0.4 0.2 0.6 0.3c0.2 0.1 0.4 0.2 0.5 0.3c0.2 0.1 0.4 0.2 0.6 0.3 c0.2 0.1 0.4 0.2 0.5 0.3c0.2 0.1 0.4 0.2 0.6 0.3c0.2 0.1 0.3 0.2 0.5 0.3c0.2 0.1 0.4 0.2 0.6 0.4c0.2 0.1 0.3 0.2 0.5 0.3 c0.2 0.1 0.4 0.3 0.6 0.4c0.2 0.1 0.3 0.2 0.5 0.3c0.2 0.1 0.4 0.3 0.6 0.4c0.2 0.1 0.3 0.2 0.5 0.4c0.2 0.2 0.4 0.3 0.6 0.5 c0.1 0.1 0.3 0.2 0.4 0.4c0.2 0.2 0.4 0.4 0.6 0.6c0.1 0.1 0.2 0.2 0.3 0.3c0.3 0.3 0.6 0.6 0.9 0.9c0.1 0.1 0.2 0.2 0.2 0.2 c0.2 0.2 0.5 0.5 0.7 0.7c0.1 0.1 0.2 0.3 0.3 0.4c0.2 0.2 0.4 0.4 0.5 0.6c0.1 0.1 0.2 0.3 0.4 0.4c0.2 0.2 0.3 0.4 0.5 0.6 c0.1 0.2 0.2 0.3 0.4 0.5c0.1 0.2 0.3 0.4 0.4 0.6c0.1 0.2 0.2 0.3 0.3 0.5c0.1 0.2 0.3 0.4 0.4 0.6c0.1 0.2 0.2 0.3 0.3 0.5 c0.1 0.2 0.3 0.4 0.4 0.6c0.1 0.2 0.2 0.4 0.3 0.5c0.1 0.2 0.2 0.4 0.3 0.6c0.1 0.2 0.2 0.4 0.3 0.6c0.1 0.2 0.2 0.4 0.3 0.7 c0.1 0.2 0.2 0.4 0.3 0.6c0.1 0.2 0.2 0.5 0.3 0.7c0.1 0.2 0.2 0.4 0.2 0.6c0.1 0.2 0.2 0.5 0.3 0.7c0.1 0.2 0.1 0.4 0.2 0.6 c0.1 0.2 0.2 0.5 0.2 0.7c0.1 0.2 0.1 0.4 0.2 0.6c0.1 0.3 0.1 0.5 0.2 0.8c0 0.2 0.1 0.4 0.1 0.5c0.1 0.3 0.1 0.6 0.2 0.9 c0 0.1 0.1 0.3 0.1 0.4c0.1 0.4 0.1 0.9 0.2 1.3C81.9 77 70 87.4 68.1 88c0 0-0.1 0-0.1 0c0 0-0.1 0-0.2 0.1c0 0 0 0-0.1 0 c-0.1 0-0.1 0-0.2 0.1c0 0-0.1 0-0.1 0c-0.1 0-0.2 0.1-0.3 0.1c0 0 0 0-0.1 0c-0.1 0-0.2 0.1-0.4 0.1c0 0-0.1 0-0.1 0 c-0.1 0-0.2 0-0.3 0.1c0 0-0.1 0-0.1 0c-0.1 0-0.2 0-0.3 0c0 0-0.1 0-0.1 0c-0.1 0-0.2 0-0.3 0c0 0-0.1 0-0.1 0c0 0 0 0 0 0 c-0.1 0-0.3 0-0.4 0c0 0-0.1 0-0.1 0c-0.1 0-0.2-0.1-0.3-0.1c0 0 0 0 0 0c-0.1-0.1-0.2-0.2-0.2-0.3c0 0 0-0.1 0-0.1 c-0.1-0.1-0.1-0.3-0.1-0.4c-0.1-2.2 0.5-39.2 0-42c0-0.2-0.1-0.3-0.1-0.4c0 0 0-0.1 0-0.1c0-0.1-0.1-0.2-0.2-0.3c0 0 0 0 0 0 c-0.1-0.1-0.1-0.1-0.2-0.1c0 0 0 0 0 0c-0.1 0-0.2 0-0.2 0c0 0 0 0-0.1 0c0 0-0.1 0-0.1 0c0 0 0 0-0.1 0c-0.1 0-0.1 0-0.2 0.1 c0 0 0 0-0.1 0c-0.2 0.1-0.3 0.2-0.5 0.3c0 0 0 0-0.1 0.1c-0.1 0-0.1 0.1-0.2 0.1c0 0-0.1 0-0.1 0.1c-0.1 0-0.1 0.1-0.2 0.1 c0 0-0.1 0.1-0.1 0.1c-0.1 0.1-0.1 0.1-0.2 0.2c0 0-0.1 0-0.1 0.1c-0.1 0.1-0.2 0.2-0.3 0.3c-7.5 7.2-26.6 15.4-28.1 16.2 c-2 1-1.1 2.4-1.1 2.4s1.8 3.2 1.7 11c0 3 2.5 78.8 0.8 114.3c-0.6 12-4.5 15.7-6.7 18.8c-0.8 1.1 1.9 2.8 3 2.8 c0.1 0 0.3 0 0.3-0.1c11.2-11.2 27.3-21.3 36.7-25.8c2-1 5.1-2.8 4-4.5c-1.2-2-2.4-2.7-4-4c-2.2-1.8-3-7.5-3-7.5v-44 c0-2.5 2.2-3.6 4.1-4.9c0.3-0.2 0.5-0.4 0.8-0.6c0.2-0.1 0.4-0.3 0.5-0.4c0.1-0.1 0.1-0.1 0.2-0.2c0.2-0.1 0.3-0.2 0.4-0.3 c0.1-0.1 0.2-0.1 0.2-0.2c0.1-0.1 0.3-0.2 0.4-0.2c0.1 0 0.2-0.1 0.2-0.1c0.1-0.1 0.2-0.1 0.3-0.2c0.1 0 0.1-0.1 0.2-0.1 c0.1-0.1 0.2-0.1 0.3-0.1c0 0 0.1 0 0.1-0.1c0.1 0 0.2-0.1 0.3-0.1c0 0 0 0 0 0c0.1 0 0.2 0 0.2 0.1c1.1 1.3 1.3 3.9 1.3 3.9 s5.5 46.9 5.7 48.4c0.2 2.1-2.1 3.8-1.4 5.2c0.1 0.2 0.2 0.4 0.3 0.5c0 0 0 0.1 0.1 0.1c0.1 0.1 0.2 0.2 0.3 0.3c0 0 0 0 0.1 0 c0.1 0.1 0.2 0.1 0.3 0.2c0 0 0 0 0 0c0.1 0 0.2 0.1 0.3 0.1c0 0 0 0 0 0c0.1 0 0.1 0 0.2 0c0 0 0 0 0.1 0c0 0 0.1 0 0.1 0 c0 0 0 0 0.1 0c0 0 0.1 0 0.1 0c0 0 0 0 0 0c0 0 0 0 0 0s30.4 0 31.9 0c0.1 0 0.2 0 0.4 0c0 0 0.1 0 0.1 0c0.1 0 0.3 0 0.4 0 c0.1 0 0.3 0 0.4 0c0 0 0 0 0.1 0c0.1 0 0.3 0 0.4 0c0 0 0.1 0 0.1 0c0.1 0 0.1 0 0.2 0c0 0 0.1 0 0.1 0c0.1 0 0.2 0 0.2 0 c0 0 0.1 0 0.1 0c0.1 0 0.2-0.1 0.3-0.1c0 0 0 0 0.1 0c0.1 0 0.1-0.1 0.2-0.1c0 0 0 0 0.1-0.1c0 0 0.1-0.1 0.1-0.1 c0 0 0-0.1 0.1-0.1c0-0.1 0.1-0.1 0.1-0.2c0 0 0-0.1 0-0.1c0-0.1 0-0.2 0-0.2c0 0 0-0.1 0-0.1c0-0.1 0-0.3 0-0.5 C115.8 172.8 111.9 171.5 109.3 156.6" class="style0" />
        <path d="M363.6 0c-5.4 0-13.1 1.3-19.3 7.6c-4.1 4.2-6.8 9.9-8.1 16.9l-11.7 23.7 c-0.1-18.2-0.3-38.4-0.3-39.1c0-2.8-2.1-6-4.9-6c-1.3 0-1.4 0.1-6.7 4.2c-7.1 5.5-21.2 16.5-29.9 20.2l2.8-13.3 c0.2-0.4 0.5-0.9 0.7-1.3c1-1.8 2.2-4.5 0.9-6.7c-0.8-1.3-2.1-2-3.7-2c-0.2 0-0.4 0-0.5 0c-5.4 0.5-13.8 0.7-25.5 0.7 c-6.5 0-12.9-0.1-18-0.1c-3.4 0-6.1-0.1-7.9-0.1c-6.5 0-15 4-21.6 10.2c-2.6 2.4-4.8 5.1-6.6 8V10.2c0.1-0.1 0.1-0.2 0.2-0.2 c0.3-0.5 0.5-0.8 0.7-1.1c0.6-1.2 0.6-2.6-0.1-3.7c-0.8-1.2-2.2-2-3.9-2c-0.8 0-37.6 0.1-39.2 0.1l-0.6 0l-0.5 0.2 c-0.9 0.4-1.7 1.2-2.1 2.2c0 0.1-0.1 0.2-0.1 0.4c-0.1-0.4-0.3-0.8-0.6-1.2c-0.7-1-1.9-1.6-3.2-1.6c-0.2 0-0.4 0-0.6 0 c-2.2 0-17.1 0-27.3 0c-10 0-10.2 0-10.6 0.1c-1.3 0.3-2.4 1.3-2.8 2.7c-0.5 1.5-0.1 3.1 1 4.2c1.5 1.6 4.7 6.3 4.7 7.7 c-0.1 1.5-2 9.7-3.3 15.1c-1.3 5.6-2.5 10.4-2.7 12.2c-0.1 0.5-0.2 1.7-0.5 3.1c0 0.2-0.1 0.5-0.1 0.7c-3-15.8-10.9-27.7-23.7-35.5 C76.4 6.4 63.5 4.5 54.7 4.1c-0.8 0-1.5 0-2.3 0C26.4 4.1 5 21.9 0.5 47.4c-1.8 10.1 1.9 17.1 5.3 21.2c1.9 2.3 4 4 6.1 5.3 l19.4 25.4c0.6 25.7 1.3 67.2 0.2 90.4c-0.5 9.8-3.2 13.3-5.4 16.1c-0.3 0.4-0.5 0.7-0.8 1c-0.9 1.2-1 2.7-0.3 4 c0.9 1.9 3.6 3.6 5.7 3.6c0.1 0 0.1 0 0.1 0c12.5 8.2 42.6 25.9 44.3 26.4c2.1 0.6 3.4-0.6 3.4-0.6c8.8-10.8 28.6-19.3 30.3-20.6 s-0.2-4 1.5-4s28.4 0.4 29.2 0.3c0.8-0.1 2.2-1.1 1.9-2c-0.3-1-2.1-3.7-3.2-6.8c5 3.7 16.8 11.9 35.4 11.9 c18.6 0 26.3-6.3 35.9-13.6c8.3 8.9 16.1 13.4 27.5 13.4c11.4 0 16.3-3.5 24.8-9c1.5 12.9-2.4 23-3.9 26c-1.5 3-4.1 5.5-4.6 7.8 c-0.5 2.3 2.3 3.5 3.3 3.5c1 0 2.5-0.5 3.7-2.1c5.1-6.6 23.7-18.5 32.6-24.3c3.6-2.4 6.7-6.3 6.7-6.3h31.7l44.7-35.3 c0.3 0 0.6 0 0.6 0c1.4 0 2.7-0.9 3.4-2.3c0.8-1.5 0.7-3.1-0.1-4.2c0-0.1-0.2-0.2-0.4-0.4c-3.7-4.1-5.9-8.1-6.1-11 c-0.7-12.3-0.7-87.7-0.7-114.8l6.8-9.5c0.2 0.1 0.5 0.1 0.7 0.1c3.2 0 5.2-4.4 5.3-11.1c0-6.5-3.2-13.9-8.6-19.3 C372.9 2.3 368.1 0 363.6 0 M161 6.2c0 0 38.3-0.1 39.1-0.1c0.8 0 1.8 0.4 1.3 1.3c0 0 0 0.1 0 0.1c-0.3 0.5-1.4 2.2-2.6 4.4 c0 0 0 0 0 0c-0.2 0.3-0.3 0.6-0.5 1c0 0 0 0.1 0 0.1c-0.2 0.3-0.3 0.6-0.5 1c0 0 0 0.1-0.1 0.1c-0.1 0.3-0.3 0.6-0.4 1 c0 0.1-0.1 0.1-0.1 0.2c-0.1 0.3-0.3 0.6-0.4 1c0 0.1-0.1 0.1-0.1 0.2c-0.1 0.3-0.2 0.6-0.3 0.9c0 0.1-0.1 0.2-0.1 0.3 c-0.1 0.3-0.2 0.6-0.3 0.9c0 0.1-0.1 0.2-0.1 0.3c-0.1 0.3-0.1 0.6-0.2 0.9c0 0.1-0.1 0.2-0.1 0.3c-0.1 0.3-0.1 0.6-0.1 0.9 c0 0.1 0 0.2 0 0.3c0 0.4-0.1 0.8-0.1 1.2c0 6.4 0.2 82.6 0.2 85c0 0 0.9 9.7 3 12.1c1.6 1.9-1.3 1.8-3.6 2.8 c-13.3 5.7-17.9 8.6-25.5 14.3c-0.2 0.2-0.4 0.3-0.6 0.5c-0.1 0-0.1 0.1-0.2 0.1c-0.1 0.1-0.3 0.2-0.4 0.2c-0.1 0-0.1 0.1-0.2 0.1 c-0.1 0.1-0.2 0.1-0.3 0.2c-0.1 0-0.1 0.1-0.2 0.1c-0.1 0.1-0.2 0.1-0.3 0.1c-0.1 0-0.1 0.1-0.2 0.1c-0.1 0-0.2 0.1-0.3 0.1 c0 0-0.1 0-0.1 0c-0.1 0-0.2 0.1-0.3 0.1c0 0 0 0 0 0c-0.1 0-0.2 0-0.3 0c-0.1 0-0.2 0-0.3 0c0 0 0 0 0 0c-0.1 0-0.2-0.1-0.3-0.1 c0 0 0 0-0.1-0.1c0 0-0.1-0.1-0.1-0.1c0 0 0-0.1-0.1-0.1c0 0-0.1-0.1-0.1-0.1c0 0 0-0.1-0.1-0.1c0-0.1-0.1-0.1-0.1-0.2 c0 0 0-0.1-0.1-0.1c0-0.1 0-0.1-0.1-0.2c0 0 0-0.1 0-0.1c0-0.1 0-0.2-0.1-0.3c0 0 0-0.1 0-0.1c0-0.1-0.1-0.3-0.1-0.4l-1.1-121.1 c0-3.7-2.5-6.3-2.9-7.1C160 6.6 161 6.2 161 6.2 M157.3 9.9c0.1-0.3 0.3-0.8 0.4-1.4c0.1 0.3 0.2 0.6 0.4 0.9 c0.2 0.4 0.4 0.8 0.7 1.2c0.7 1 1.9 2.6 1.9 4.6l0.1 13.5L157.3 10C157.3 10 157.3 9.9 157.3 9.9 M116.1 176c0 0.1 0 0.2 0 0.2 c0 0 0 0.1 0 0.1c0 0.1 0 0.1-0.1 0.2c0 0 0 0.1-0.1 0.1c0 0.1-0.1 0.1-0.1 0.1c0 0 0 0-0.1 0.1c-0.1 0-0.1 0.1-0.2 0.1 c0 0 0 0-0.1 0c-0.1 0-0.2 0.1-0.3 0.1c0 0-0.1 0-0.1 0c-0.1 0-0.1 0-0.2 0c0 0-0.1 0-0.1 0c-0.1 0-0.1 0-0.2 0c0 0-0.1 0-0.1 0 c-0.1 0-0.3 0-0.4 0c0 0 0 0-0.1 0c-0.1 0-0.3 0-0.4 0c-0.1 0-0.3 0-0.4 0c0 0-0.1 0-0.1 0c-0.1 0-0.3 0-0.4 0 c-1.5 0-31.9 0-31.9 0s0 0 0 0c0 0 0 0 0 0c0 0-0.1 0-0.1 0c0 0 0 0-0.1 0c0 0-0.1 0-0.1 0c0 0 0 0-0.1 0c-0.1 0-0.1 0-0.2 0 c0 0 0 0 0 0c-0.1 0-0.2 0-0.3-0.1c0 0 0 0 0 0c-0.1 0-0.2-0.1-0.3-0.2c0 0 0 0-0.1 0c-0.1-0.1-0.2-0.2-0.3-0.3c0 0 0-0.1-0.1-0.1 c-0.1-0.1-0.2-0.3-0.3-0.5c-0.8-1.5 1.6-3.1 1.4-5.2c-0.2-1.5-5.7-48.4-5.7-48.4s-0.2-2.6-1.3-3.9c-0.1-0.1-0.1-0.1-0.2-0.1h0 c-0.1 0-0.2 0-0.3 0.1c0 0-0.1 0-0.1 0.1c-0.1 0-0.2 0.1-0.3 0.1c-0.1 0-0.1 0.1-0.2 0.1c-0.1 0.1-0.2 0.1-0.3 0.2 c-0.1 0-0.1 0.1-0.2 0.1c-0.1 0.1-0.2 0.2-0.4 0.2c-0.1 0.1-0.2 0.1-0.2 0.2c-0.1 0.1-0.3 0.2-0.4 0.3c-0.1 0.1-0.1 0.1-0.2 0.2 c-0.2 0.1-0.4 0.3-0.5 0.4c-0.3 0.2-0.5 0.4-0.8 0.6c-1.9 1.3-4.1 2.4-4.1 4.9v44c0 0 0.8 5.8 3 7.5c1.6 1.3 2.8 2 4 4 c1.1 1.7-2 3.5-4 4.5c-9.3 4.5-25.5 14.6-36.6 25.8c-0.1 0.1-0.2 0.1-0.3 0.1c-1.1 0-3.8-1.8-3-2.8c2.3-3.1 6.1-6.8 6.7-18.8 c1.8-35.5-0.8-111.3-0.8-114.3c0.1-7.8-1.7-11-1.7-11s-0.9-1.4 1.1-2.4c1.4-0.7 20.6-8.9 28.1-16.2c0.1-0.1 0.2-0.2 0.3-0.3 c0 0 0.1 0 0.1-0.1c0.1-0.1 0.1-0.1 0.2-0.2c0 0 0.1-0.1 0.1-0.1c0.1-0.1 0.1-0.1 0.2-0.1c0 0 0.1 0 0.1-0.1c0.1 0 0.1-0.1 0.2-0.1 c0 0 0.1 0 0.1-0.1c0.2-0.1 0.3-0.2 0.5-0.3c0 0 0 0 0.1 0c0.1 0 0.1 0 0.2-0.1c0 0 0.1 0 0.1 0c0 0 0.1 0 0.1 0c0 0 0 0 0.1 0 c0.1 0 0.2 0 0.2 0c0 0 0 0 0 0c0.1 0 0.1 0.1 0.2 0.1c0 0 0 0 0 0c0.1 0.1 0.1 0.2 0.2 0.3c0 0 0 0.1 0 0.1c0 0.1 0.1 0.2 0.1 0.4 c0.5 2.8-0.1 39.8 0 42c0 0.2 0 0.3 0.1 0.4c0 0 0 0.1 0 0.1c0.1 0.1 0.1 0.2 0.2 0.3c0 0 0 0 0 0c0.1 0.1 0.2 0.1 0.3 0.1 c0 0 0.1 0 0.1 0c0.1 0 0.3 0 0.4 0c0 0 0 0 0 0c0 0 0.1 0 0.1 0c0.1 0 0.2 0 0.3 0c0 0 0.1 0 0.1 0c0.1 0 0.2 0 0.3 0 c0 0 0.1 0 0.1 0c0.1 0 0.2 0 0.3-0.1c0 0 0.1 0 0.1 0c0.1 0 0.2-0.1 0.4-0.1c0 0 0 0 0.1 0c0.1 0 0.2-0.1 0.3-0.1c0 0 0.1 0 0.1 0 c0.1 0 0.1 0 0.2-0.1c0 0 0 0 0.1 0c0.1 0 0.1 0 0.2-0.1c0.1 0 0.1 0 0.1 0c1.9-0.5 13.8-11 12.2-25.8c0-0.4-0.1-0.9-0.2-1.3 c0-0.2-0.1-0.3-0.1-0.4c-0.1-0.3-0.1-0.6-0.2-0.9c0-0.2-0.1-0.4-0.1-0.5c-0.1-0.3-0.1-0.5-0.2-0.8c0-0.2-0.1-0.4-0.2-0.6 c-0.1-0.2-0.1-0.5-0.2-0.7c-0.1-0.2-0.1-0.4-0.2-0.6c-0.1-0.2-0.2-0.5-0.3-0.7c-0.1-0.2-0.1-0.4-0.2-0.6c-0.1-0.2-0.2-0.5-0.3-0.7 c-0.1-0.2-0.2-0.4-0.3-0.6c-0.1-0.2-0.2-0.4-0.3-0.7c-0.1-0.2-0.2-0.4-0.3-0.6c-0.1-0.2-0.2-0.4-0.3-0.6c-0.1-0.2-0.2-0.4-0.3-0.5 c-0.1-0.2-0.2-0.4-0.4-0.6c-0.1-0.2-0.2-0.3-0.3-0.5c-0.1-0.2-0.3-0.4-0.4-0.6c-0.1-0.2-0.2-0.3-0.3-0.5c-0.1-0.2-0.3-0.4-0.4-0.6 c-0.1-0.2-0.2-0.3-0.4-0.5c-0.2-0.2-0.3-0.4-0.5-0.6c-0.1-0.1-0.2-0.3-0.4-0.4c-0.2-0.2-0.4-0.4-0.5-0.6c-0.1-0.1-0.2-0.3-0.3-0.4 c-0.2-0.2-0.5-0.5-0.7-0.7c-0.1-0.1-0.2-0.2-0.2-0.2c-0.3-0.3-0.6-0.6-0.9-0.9c-0.1-0.1-0.2-0.2-0.3-0.3c-0.2-0.2-0.4-0.4-0.6-0.6 c-0.1-0.1-0.3-0.2-0.4-0.4c-0.2-0.2-0.4-0.3-0.6-0.5c-0.2-0.1-0.3-0.2-0.5-0.4c-0.2-0.1-0.4-0.3-0.6-0.4c-0.2-0.1-0.3-0.2-0.5-0.3 c-0.2-0.1-0.4-0.3-0.6-0.4c-0.2-0.1-0.3-0.2-0.5-0.3c-0.2-0.1-0.4-0.2-0.6-0.4c-0.2-0.1-0.3-0.2-0.5-0.3c-0.2-0.1-0.4-0.2-0.6-0.3 c-0.2-0.1-0.3-0.2-0.5-0.3c-0.2-0.1-0.4-0.2-0.6-0.3c-0.2-0.1-0.4-0.2-0.5-0.3c-0.2-0.1-0.4-0.2-0.6-0.3c-0.2-0.1-0.4-0.2-0.5-0.2 c-0.2-0.1-0.4-0.2-0.6-0.2c-0.2-0.1-0.4-0.1-0.5-0.2c-0.2-0.1-0.4-0.1-0.6-0.2c-0.2-0.1-0.4-0.1-0.5-0.2c-0.2-0.1-0.4-0.1-0.7-0.2 c-0.2 0-0.3-0.1-0.5-0.1c-0.2-0.1-0.5-0.1-0.7-0.1c-0.2 0-0.3-0.1-0.5-0.1c-0.3 0-0.5-0.1-0.8-0.1c-0.1 0-0.3 0-0.4-0.1 c-0.4 0-0.8-0.1-1.2-0.1c-0.1 0-0.2 0-0.3 0c-0.3 0-0.5 0-0.8 0c0 0 0 0-0.1 0c-0.3 0-0.6 0-0.9 0c-0.1 0-0.3 0-0.4 0 c-0.4 0-0.8 0.1-1.3 0.1c-12 1.7-25.4 7-27.7 26.3c-0.6 5 3.5 7.7 3.5 7.7c0 0.3-0.1 0.6-0.1 0.8c0 0.1 0 0.1-0.1 0.2 c-0.1 0.2-0.1 0.4-0.2 0.6c0 0 0 0 0 0.1c-0.1 0.2-0.2 0.3-0.4 0.5c0 0-0.1 0.1-0.1 0.1c-0.1 0.1-0.2 0.2-0.4 0.3c0 0 0 0-0.1 0 c-0.2 0.1-0.3 0.2-0.5 0.2c0 0-0.1 0-0.1 0c-0.2 0-0.3 0.1-0.5 0.1c0 0-0.1 0-0.1 0c-0.2 0-0.4 0.1-0.7 0.1c-0.1 0-0.1 0-0.2 0 c-0.2 0-0.4 0-0.6 0c-0.1 0-0.1 0-0.2 0c-0.4 0-0.8 0-1.2 0c-0.4 0-0.9 0-1.4 0c-5.5 0-19.3-8.8-16.3-25.7 c4.4-24.5 24.8-40.9 49-40.9c0.7 0 1.4 0 2.1 0c14.1 0.6 46.5 5.7 53.9 41.1c0.1 0.6 0.2 1.1 0.3 1.7c0.1 0.8 0.3 1.6 0.4 2.4 c0 0.3 0.1 0.6 0.1 1c0.1 1.1 0.3 2.2 0.4 3.3c-1 24-8.5 27-12 34.5c0 0 10.9 61.9 11.5 65.5c2.6 14.9 6.6 16.2 6.9 18.8 c0 0.2 0 0.3 0 0.5C116.2 175.9 116.1 175.9 116.1 176 M380.4 33.9C380.3 33.9 380.3 33.9 380.4 33.9c-0.1-0.1-0.2-0.1-0.2-0.1 c-0.1-0.1-0.2-0.2-0.3-0.3c-0.5-0.5-1.4-0.8-2.1-0.9c-0.6-0.2-1.3-0.3-2.2-0.3h0c-4.2-0.2-5.5 4.2-5.5 5.1s-0.1 108.9 0.7 123.9 c0.3 6.2 6.8 12.8 7.1 13.1c0.2 0.3-0.1 1.4-0.6 1.6c-0.1 0-0.2 0.1-0.3 0.1c-0.7 0-44.1-0.2-44.1-0.2c-1.1 0-1.3-1.5-0.2-2.6 c6.5-6.5 6.4-16.1 6.5-19.9c0-1.2-0.1-42.1-0.1-42.7c0-0.6 0-1.8-0.3-1.8c-0.3 0-15 0.1-15.8 0.1s-1 0.6-1 0.6s0.7 56.4 1 63.3 c0.3 6.9 3.3 7.8 3.6 8.6c0.3 0.9-0.5 1.7-1.4 2c-19.1 6.4-37.2 23.4-37.6 23.7c-0.4 0.3-2.2 3-3.6 3.1c0 0-0.1 0-0.1 0 c0 0 0 0-0.1 0c0 0 0 0-0.1 0c0 0-0.1 0-0.1 0c0 0-0.1 0-0.1 0c0 0-0.1 0-0.1 0c0 0-0.1 0-0.1 0c0 0-0.1 0-0.1 0c0 0-0.1 0-0.1 0 c0 0-0.1 0-0.1 0c0 0-0.1 0-0.1-0.1c0 0-0.1 0-0.1-0.1c0 0-0.1 0-0.1-0.1c0 0-0.1 0-0.1-0.1c0 0-0.1-0.1-0.1-0.1c0 0-0.1 0-0.1-0.1 c0 0-0.1-0.1-0.1-0.1c0 0-0.1-0.1-0.1-0.1c0 0-0.1-0.1-0.1-0.1c0 0 0-0.1-0.1-0.1c0 0 0-0.1-0.1-0.1c0 0 0-0.1-0.1-0.1 c0 0 0-0.1 0-0.1c0 0 0-0.1 0-0.1c0 0 0-0.1 0-0.1c0 0 0-0.1 0-0.1c0-0.1 0-0.1 0-0.2c0 0 0-0.1 0-0.1c0-0.1 0-0.1 0.1-0.2 c0 0 0-0.1 0-0.1c0-0.1 0.1-0.2 0.2-0.3c10.2-16.5 8.4-35.1 7.8-54.6c-8.3 13.3-24.9 24.9-42.9 24.9c-17.8 0-26.2-7.5-34.7-15.2 c-6.5 6.8-16.8 15.8-38.7 15.8c-59.2 0-62.9-66.7-63-85.6c0-0.8 0-1.6 0-2.4c0-0.2 0-0.4 0-0.6c0-0.8 0-1.6 0.1-2.5 c0-0.1 0-0.1 0-0.2c0-0.8 0.1-1.6 0.1-2.4c0-0.2 0-0.4 0-0.6c0-0.8 0.1-1.7 0.1-2.5c0-0.1 0-0.2 0-0.3c0.1-0.8 0.1-1.5 0.2-2.3 c0-0.2 0-0.5 0.1-0.7c0.1-0.8 0.1-1.7 0.2-2.5c0-0.1 0-0.3 0-0.4c0.1-0.7 0.1-1.4 0.2-2.2c0-0.2 0-0.5 0.1-0.7 c0.1-0.8 0.2-1.6 0.2-2.4c0-0.2 0-0.3 0.1-0.5c0.1-0.7 0.2-1.4 0.2-2c0-0.2 0-0.4 0.1-0.6c0.1-0.8 0.2-1.6 0.3-2.3 c0-0.2 0-0.3 0.1-0.5c0.1-0.7 0.2-1.3 0.2-1.9c0-0.2 0-0.4 0.1-0.5c0.1-0.7 0.2-1.5 0.3-2.2c0-0.1 0-0.3 0.1-0.4 c0.1-0.6 0.2-1.3 0.3-1.9c0-0.1 0-0.2 0-0.3c0.1-0.7 0.2-1.4 0.3-2c0-0.1 0-0.2 0-0.2c0.1-0.6 0.2-1.2 0.3-1.8c0 0 0-0.1 0-0.1 c0.1-0.6 0.2-1.3 0.3-1.8c0.5-3 0.8-5.1 0.9-6c0.5-3.6 5.9-24.4 6-27.6s-5.1-9.3-5.6-9.9c-0.6-0.6-0.2-1.7 0.3-1.8 c0.2 0 4.4-0.1 10-0.1c11.1 0 27.6 0.1 27.6 0.1s0.2 0 0.4 0c0.6 0 1.5 0.3 0.6 2.7c-0.1 0.3-0.2 0.6-0.3 1 c-0.1 0.2-0.1 0.4-0.2 0.7c-0.1 0.3-0.2 0.6-0.3 1c-0.1 0.3-0.1 0.5-0.2 0.8c-0.1 0.2-0.1 0.4-0.2 0.7c-0.1 0.3-0.1 0.6-0.2 0.9 c-0.1 0.2-0.1 0.5-0.2 0.8c-0.1 0.3-0.2 0.6-0.2 0.9c-0.1 0.3-0.1 0.6-0.2 0.8c-0.1 0.3-0.2 0.7-0.2 1c-0.1 0.3-0.1 0.6-0.2 0.9 c-0.1 0.4-0.2 0.7-0.3 1.1c-0.1 0.3-0.1 0.6-0.2 0.9c-0.1 0.4-0.2 0.8-0.3 1.2c-0.1 0.3-0.1 0.7-0.2 1c-0.1 0.4-0.2 0.8-0.3 1.3 c-0.1 0.4-0.2 0.7-0.2 1.1c-0.1 0.4-0.2 0.9-0.3 1.4c-0.1 0.4-0.2 0.7-0.2 1.1c-0.1 0.5-0.2 0.9-0.3 1.4c-0.1 0.4-0.2 0.8-0.2 1.2 c-0.1 0.5-0.2 1-0.3 1.5c-0.1 0.4-0.2 0.8-0.2 1.2c-0.1 0.5-0.2 1-0.3 1.6c-0.1 0.4-0.2 0.8-0.2 1.3c-0.1 0.5-0.2 1.1-0.3 1.6 c-0.1 0.4-0.2 0.9-0.2 1.3c-0.1 0.5-0.2 1.1-0.3 1.6c-0.1 0.5-0.2 0.9-0.2 1.4c-0.1 0.6-0.2 1.1-0.3 1.7c-0.1 0.5-0.2 0.9-0.2 1.4 c-0.1 0.6-0.2 1.1-0.3 1.7c-0.1 0.5-0.2 0.9-0.2 1.4c-0.1 0.6-0.2 1.1-0.3 1.7c-0.1 0.5-0.2 1-0.2 1.5c-0.1 0.6-0.2 1.1-0.3 1.7 c-0.1 0.5-0.1 1-0.2 1.5c-0.1 0.6-0.2 1.2-0.3 1.7c-0.1 0.5-0.1 1-0.2 1.5c-0.1 0.6-0.2 1.2-0.2 1.8c-0.1 0.5-0.1 1-0.2 1.5 c-0.1 0.6-0.2 1.2-0.2 1.8c-0.1 0.5-0.1 1-0.2 1.5c-0.1 0.6-0.1 1.2-0.2 1.8c-0.1 0.5-0.1 1-0.2 1.5c-0.1 0.6-0.1 1.2-0.2 1.8 c-0.1 0.5-0.1 1-0.2 1.5c-0.1 0.6-0.1 1.2-0.2 1.7c-0.1 0.5-0.1 1-0.2 1.5c-0.1 0.6-0.1 1.2-0.2 1.7c0 0.5-0.1 1-0.1 1.5 c-0.1 0.6-0.1 1.2-0.1 1.8c0 0.5-0.1 1-0.1 1.4c0 0.6-0.1 1.2-0.1 1.8c0 0.5-0.1 0.9-0.1 1.4c0 0.6-0.1 1.2-0.1 1.8 c0 0.4-0.1 0.9-0.1 1.3c0 0.6-0.1 1.2-0.1 1.8c0 0.4 0 0.8-0.1 1.2c0 0.7 0 1.3-0.1 2c0 0.3 0 0.7 0 1c0 1 0 1.9 0 2.9 c0 42.9 21.4 52 36.8 52c15.3 0 22.5-8.1 22.5-8.1c-0.1-2.1-0.2-3.3-0.1-5.4c1.1-18.3 13.8-30.3 29.6-30.3s21.7 11.7 22.3 19.5 s-9.3 14-10.5 14c-1.2 0-0.7-3.8-0.5-4.7c0.2-0.8 0-7-7.2-7s-8 9.5-8 10.3c0 0.8-1 13.7 17.7 13.7s21.3-19.8 21.3-22.3 s-1-23-23-34.8c-22-11.8-43.2-23.2-42.8-47.7c0-0.7 0-1.5 0.1-2.2c0-0.4 0.1-0.7 0.1-1.1c0-0.3 0.1-0.7 0.1-1 c0.1-0.5 0.1-0.9 0.2-1.4c0-0.2 0.1-0.4 0.1-0.6c0.1-0.5 0.2-1 0.3-1.6c0-0.1 0.1-0.3 0.1-0.4c0.1-0.6 0.3-1.1 0.4-1.7 c0-0.1 0-0.1 0.1-0.2c0.2-0.6 0.4-1.2 0.6-1.8c0 0 0 0 0-0.1c0.2-0.6 0.4-1.2 0.7-1.8l0 0c0.2-0.6 0.5-1.1 0.7-1.7 c6.4-13.9 20.4-21.3 28.2-21.3c4.6 0 15.1 0.2 25.9 0.2c9.5 0 19.3-0.1 25.8-0.7c0 0 0.1 0 0.2 0c0.6 0 2.1 0.3 0.8 3.1l0 0 c-0.2 0.4-0.3 0.7-0.6 1.2c-8 14.2-8.2 32.5-8.2 32.5c0 0.1 0 0.2 0 0.3c0 0 0 0.1 0 0.1c0 0.1 0 0.1-0.1 0.2c0 0 0 0.1 0 0.1 c0 0.1-0.1 0.1-0.1 0.2c0 0 0 0 0 0c-0.1 0.1-0.1 0.1-0.2 0.2c0 0 0 0-0.1 0c-0.1 0-0.1 0.1-0.2 0.1c0 0-0.1 0-0.1 0 c-0.1 0-0.1 0.1-0.2 0.1c0 0-0.1 0-0.1 0c-0.1 0-0.2 0.1-0.3 0.1c0 0 0 0 0 0c-0.1 0-0.2 0-0.3 0c0 0-0.1 0-0.1 0 c-0.1 0-0.2 0-0.3 0c0 0 0 0-0.1 0c-0.1 0-0.2 0-0.3-0.1c0 0 0 0-0.1 0c-0.1 0-0.1-0.1-0.2-0.1c0 0 0 0-0.1 0 c-0.1-0.1-0.1-0.1-0.2-0.2c-3.4-4.4-13.9-8-22.1-8c-8.2 0-17.8 4-17.8 10s1.2 8 23.2 18s30.5 27 32.5 30.2 c0.1-17.8 0.1-50.5 0.1-54.6c0-2-4.5-5.4-4.9-5.6s-4.4-3-1.9-3.8c0.3-0.1 0.6-0.2 1-0.3c12.3-4.4 35.9-24.7 36.8-24.7 c0.9 0 1.9 1.6 1.9 3c0 0.8 0.2 25.7 0.3 45.1c0 1.8 0 3.5 0 5.2c0.1 8.8 0.1 15.7 0.1 17.4c0 0.3 0 0.4 0 0.4s4.2 0.1 8.4 0.1 s8.4-0.1 8.4-0.3c0-0.5-0.1-19.5-0.1-43c0-5.7 0.8-10.5 2.2-14.4l-0.1 0C344.7 7.3 354.4 3 363.6 3c9.1 0 19.1 12.1 19 22.8 C382.6 31.5 380.9 33.9 380.4 33.9" class="style1" />
        <path d="M203.4 28.9c-0.3 0.6-0.5 1.1-0.7 1.7l0 0l0 0 C202.9 30.1 203.1 29.5 203.4 28.9" class="style0" />
        <path d="M73.1 118.2C73.1 118.2 73.1 118.2 73.1 118.2S73.1 118.2 73.1 118.2z" class="style0" />
    </g>
</svg>
