<?xml version="1.0" encoding="UTF-8" standalone="no"?>
<svg
   xmlns:dc="http://purl.org/dc/elements/1.1/"
   xmlns:cc="http://creativecommons.org/ns#"
   xmlns:rdf="http://www.w3.org/1999/02/22-rdf-syntax-ns#"
   xmlns:svg="http://www.w3.org/2000/svg"
   xmlns="http://www.w3.org/2000/svg"
   xmlns:xlink="http://www.w3.org/1999/xlink"
   xmlns:sodipodi="http://sodipodi.sourceforge.net/DTD/sodipodi-0.dtd"
   xmlns:inkscape="http://www.inkscape.org/namespaces/inkscape"
   version="1.1"
   x="0px"
   y="0px"
   width="500"
   height="500"
   viewBox="0 0 499.99999 500.00001"
   enable-background="new 0 0 385.6 247.2"
   xml:space="preserve"
   id="svg859"
   sodipodi:docname="rush.svg"
   inkscape:version="1.0.1 (c497b03c, 2020-09-10)"><metadata
   id="metadata865"><rdf:RDF><cc:Work
       rdf:about=""><dc:format>image/svg+xml</dc:format><dc:type
         rdf:resource="http://purl.org/dc/dcmitype/StillImage" /><dc:title></dc:title></cc:Work></rdf:RDF></metadata><defs
   id="defs863" /><sodipodi:namedview
   pagecolor="#ffffff"
   bordercolor="#666666"
   borderopacity="1"
   objecttolerance="10"
   gridtolerance="10"
   guidetolerance="10"
   inkscape:pageopacity="0"
   inkscape:pageshadow="2"
   inkscape:window-width="2159"
   inkscape:window-height="1615"
   id="namedview861"
   showgrid="false"
   inkscape:zoom="1.7323651"
   inkscape:cx="192.8"
   inkscape:cy="123.6"
   inkscape:window-x="0"
   inkscape:window-y="23"
   inkscape:window-maximized="0"
   inkscape:current-layer="svg859" />
    <style
   id="style833">
    .style0 {
        clip-path: url(#SVGID_2_);
        fill: #F20F2B;
    }
    .style1 {
        clip-path: url(#SVGID_2_);
    }
    </style>
    <g
   id="g857"
   transform="matrix(1.1437606,0,0,1.1437606,30.259316,108.23838)">
        <defs
   id="defs837">
            <rect
   x="0"
   width="385.60001"
   height="247.2"
   id="rect835"
   y="0" />
        </defs>
        <clipPath
   id="clipPath841">
            <use
   xlink:href="#SVGID_1_"
   overflow="visible"
   id="use839"
   x="0"
   y="0"
   width="100%"
   height="100%" />
        </clipPath>
        <path
   d="m 72.7,118.3 c 0.1,0 0.2,-0.1 0.3,-0.1 0,0 -0.1,0.1 -0.3,0.1"
   class="style0"
   clip-path="url(#SVGID_2_)"
   id="path843" />
        <path
   d="m 163.7,15.2 1.1,121.1 c 0,0.1 0,0.3 0.1,0.4 0,0 0,0.1 0,0.1 0,0.1 0,0.2 0.1,0.3 0,0 0,0.1 0,0.1 0,0.1 0,0.1 0.1,0.2 0,0 0,0.1 0.1,0.1 0,0.1 0.1,0.1 0.1,0.2 0,0 0,0.1 0.1,0.1 0,0.1 0.1,0.1 0.1,0.1 0,0 0,0.1 0.1,0.1 0,0 0.1,0.1 0.1,0.1 0,0 0,0 0.1,0.1 0.1,0 0.2,0.1 0.3,0.1 0,0 0,0 0,0 0.1,0 0.2,0 0.3,0 0.1,0 0.2,0 0.3,0 0,0 0,0 0,0 0.1,0 0.2,0 0.3,-0.1 0,0 0.1,0 0.1,0 0.1,0 0.2,-0.1 0.3,-0.1 0.1,0 0.1,0 0.2,-0.1 0.1,0 0.2,-0.1 0.3,-0.1 0.1,0 0.1,-0.1 0.2,-0.1 0.1,-0.1 0.2,-0.1 0.3,-0.2 0.1,0 0.1,-0.1 0.2,-0.1 0.1,-0.1 0.2,-0.2 0.4,-0.2 0.1,0 0.1,-0.1 0.2,-0.1 0.2,-0.1 0.4,-0.3 0.6,-0.5 7.7,-5.7 12.2,-8.6 25.5,-14.3 2.3,-1 5.2,-0.9 3.6,-2.8 -2.1,-2.4 -3,-12.1 -3,-12.1 0,-2.4 -0.2,-78.6 -0.2,-85 0,-0.4 0,-0.8 0.1,-1.2 0,-0.1 0,-0.2 0,-0.3 0,-0.3 0.1,-0.6 0.1,-0.9 0,-0.1 0,-0.2 0.1,-0.3 0.1,-0.3 0.1,-0.6 0.2,-0.9 0,-0.1 0.1,-0.2 0.1,-0.3 0.1,-0.3 0.2,-0.6 0.3,-0.9 0,-0.1 0.1,-0.2 0.1,-0.3 0.1,-0.3 0.2,-0.6 0.3,-0.9 0,-0.1 0.1,-0.2 0.1,-0.2 0.1,-0.3 0.2,-0.6 0.4,-1 0,-0.1 0.1,-0.1 0.1,-0.2 0.1,-0.3 0.3,-0.7 0.4,-1 0,0 0,-0.1 0.1,-0.1 0.2,-0.3 0.3,-0.7 0.5,-1 0,0 0,-0.1 0,-0.1 0.2,-0.3 0.3,-0.6 0.5,-1 0,0 0,0 0,0 1.2,-2.2 2.3,-3.8 2.6,-4.4 0,0 0,-0.1 0,-0.1 0.5,-1 -0.5,-1.3 -1.3,-1.3 -0.8,0 -39.1,0.1 -39.1,0.1 0,0 -1,0.4 -0.2,1.9 0.1,0.9 2.6,3.4 2.6,7.1"
   class="style0"
   clip-path="url(#SVGID_2_)"
   id="path845" />
        <path
   d="m 363.6,3 c -9.3,0 -18.9,4.3 -23,16.6 h 0.1 c -1.4,3.9 -2.2,8.7 -2.2,14.4 0,23.5 0.1,42.5 0.1,43 0,0.2 -4.2,0.3 -8.4,0.3 -4.2,0 -8.4,-0.1 -8.4,-0.1 0,0 0,-0.1 0,-0.4 0,-1.7 -0.1,-8.6 -0.1,-17.4 0,-1.7 0,-3.4 0,-5.2 -0.1,-19.4 -0.3,-44.3 -0.3,-45.1 0,-1.4 -1,-3 -1.9,-3 -0.9,0 -24.5,20.3 -36.8,24.7 -0.3,0.1 -0.7,0.2 -1,0.3 -2.5,0.8 1.5,3.5 1.9,3.8 0.4,0.3 4.9,3.6 4.9,5.6 0,4.1 0,36.8 -0.1,54.6 -2,-3.2 -10.5,-20.2 -32.5,-30.2 -22,-10 -23.2,-12 -23.2,-18 0,-6 9.5,-10 17.8,-10 8.3,0 18.8,3.6 22.1,8 0.1,0.1 0.1,0.1 0.2,0.2 0,0 0,0 0.1,0 0.1,0 0.1,0.1 0.2,0.1 0,0 0,0 0.1,0 0.1,0 0.2,0.1 0.3,0.1 0,0 0,0 0.1,0 0.1,0 0.2,0 0.3,0 0,0 0.1,0 0.1,0 0.1,0 0.2,0 0.3,0 0,0 0,0 0,0 0.1,0 0.2,0 0.3,-0.1 0,0 0.1,0 0.1,0 0.1,0 0.1,-0.1 0.2,-0.1 0,0 0.1,0 0.1,0 0.1,0 0.1,-0.1 0.2,-0.1 0,0 0,0 0.1,0 0.1,-0.1 0.2,-0.1 0.2,-0.2 0,0 0,0 0,0 0,-0.1 0.1,-0.1 0.1,-0.2 0,0 0,-0.1 0,-0.1 0,-0.1 0.1,-0.1 0.1,-0.2 0,0 0,-0.1 0,-0.1 0,-0.1 0,-0.2 0,-0.3 0,0 0.2,-18.2 8.2,-32.5 0.2,-0.4 0.4,-0.8 0.6,-1.2 v 0 c 1.2,-2.8 -0.2,-3.1 -0.8,-3.1 -0.1,0 -0.2,0 -0.2,0 -6.5,0.5 -16.3,0.7 -25.8,0.7 -10.9,0 -21.3,-0.2 -25.9,-0.2 -7.8,0 -21.8,7.4 -28.2,21.3 -0.3,0.6 -0.5,1.1 -0.7,1.7 v 0 c -0.2,0.6 -0.4,1.2 -0.7,1.8 0,0 0,0 0,0.1 -0.2,0.6 -0.4,1.2 -0.6,1.8 0,0.1 0,0.1 -0.1,0.2 -0.2,0.6 -0.3,1.1 -0.4,1.7 0,0.1 -0.1,0.3 -0.1,0.4 -0.1,0.5 -0.2,1 -0.3,1.6 0,0.2 -0.1,0.4 -0.1,0.6 -0.1,0.5 -0.1,0.9 -0.2,1.4 0,0.3 -0.1,0.7 -0.1,1 0,0.4 -0.1,0.7 -0.1,1.1 0,0.7 -0.1,1.4 -0.1,2.2 -0.3,24.5 20.8,35.8 42.8,47.7 22,11.8 23,32.3 23,34.8 0,2.5 -2.7,22.3 -21.3,22.3 -18.6,0 -17.7,-12.8 -17.7,-13.7 0,-0.8 0.8,-10.3 8,-10.3 7.2,0 7.3,6.2 7.2,7 -0.2,0.8 -0.7,4.7 0.5,4.7 1.2,0 11.2,-6.2 10.5,-14 -0.7,-7.8 -6.5,-19.5 -22.3,-19.5 -15.8,0 -28.6,12 -29.6,30.3 -0.1,2.1 0,3.3 0.1,5.4 0,0 -7.2,8.1 -22.5,8.1 -15.3,0 -36.8,-9.1 -36.8,-52 0,-0.9 0,-1.9 0,-2.9 0,-0.3 0,-0.7 0,-1 0,-0.7 0,-1.3 0.1,-2 0,-0.4 0,-0.8 0,-1.2 0,-0.6 0,-1.2 0.1,-1.8 0,-0.4 0,-0.9 0.1,-1.3 0,-0.6 0.1,-1.2 0.1,-1.8 0,-0.5 0.1,-0.9 0.1,-1.4 0,-0.6 0.1,-1.2 0.1,-1.8 0,-0.5 0.1,-1 0.1,-1.4 0,-0.6 0.1,-1.2 0.1,-1.8 0,-0.5 0.1,-1 0.1,-1.5 0.1,-0.6 0.1,-1.2 0.2,-1.7 0,-0.5 0.1,-1 0.2,-1.5 0.1,-0.6 0.1,-1.2 0.2,-1.7 0.1,-0.5 0.1,-1 0.2,-1.5 0.1,-0.6 0.1,-1.2 0.2,-1.8 0.1,-0.5 0.1,-1 0.2,-1.5 0.1,-0.6 0.1,-1.2 0.2,-1.8 0.1,-0.5 0.1,-1 0.2,-1.5 0.1,-0.6 0.2,-1.2 0.2,-1.8 0.1,-0.5 0.1,-1 0.2,-1.5 0.1,-0.6 0.2,-1.2 0.2,-1.8 0.1,-0.5 0.1,-1 0.2,-1.5 0.1,-0.6 0.2,-1.2 0.3,-1.7 0.1,-0.5 0.1,-1 0.2,-1.5 0.1,-0.6 0.2,-1.1 0.3,-1.7 0.1,-0.5 0.1,-1 0.2,-1.5 0.1,-0.6 0.2,-1.1 0.3,-1.7 0.1,-0.5 0.2,-0.9 0.2,-1.4 0.1,-0.6 0.2,-1.1 0.3,-1.7 0.1,-0.5 0.2,-0.9 0.2,-1.4 0.1,-0.6 0.2,-1.1 0.3,-1.7 0.1,-0.5 0.2,-0.9 0.2,-1.4 0.1,-0.5 0.2,-1.1 0.3,-1.6 0.1,-0.4 0.2,-0.9 0.2,-1.3 0.1,-0.5 0.2,-1.1 0.3,-1.6 0.1,-0.4 0.2,-0.8 0.2,-1.3 0.1,-0.5 0.2,-1 0.3,-1.6 0.1,-0.4 0.2,-0.8 0.2,-1.2 0.1,-0.5 0.2,-1 0.3,-1.5 0.1,-0.4 0.2,-0.8 0.2,-1.2 0.1,-0.5 0.2,-1 0.3,-1.4 0.1,-0.4 0.2,-0.8 0.2,-1.1 0.1,-0.5 0.2,-0.9 0.3,-1.4 0.1,-0.4 0.2,-0.7 0.2,-1.1 0.1,-0.4 0.2,-0.8 0.3,-1.3 0.1,-0.3 0.2,-0.7 0.2,-1 0.1,-0.4 0.2,-0.8 0.3,-1.2 0.1,-0.3 0.1,-0.6 0.2,-0.9 0.1,-0.4 0.2,-0.8 0.3,-1.1 0.1,-0.3 0.1,-0.6 0.2,-0.9 0.1,-0.4 0.2,-0.7 0.2,-1 0.1,-0.3 0.1,-0.6 0.2,-0.8 0.1,-0.3 0.2,-0.6 0.2,-0.9 0.1,-0.3 0.1,-0.5 0.2,-0.8 0.1,-0.3 0.2,-0.6 0.2,-0.9 0.1,-0.2 0.1,-0.4 0.2,-0.7 0.1,-0.3 0.2,-0.5 0.2,-0.8 0.1,-0.3 0.2,-0.7 0.3,-1 0.1,-0.2 0.1,-0.5 0.2,-0.7 0.1,-0.4 0.2,-0.7 0.3,-1 0.9,-2.4 -0.1,-2.8 -0.6,-2.8 -0.2,0 -0.4,0 -0.4,0 0,0 -16.5,-0.1 -27.6,-0.1 -5.6,0 -9.8,0 -10,0.1 -0.6,0.1 -0.9,1.2 -0.3,1.8 0.6,0.6 5.7,6.8 5.6,9.9 -0.1,3.2 -5.5,24 -6,27.6 -0.1,0.9 -0.5,3 -0.9,6 -0.1,0.6 -0.2,1.2 -0.3,1.8 0,0 0,0.1 0,0.1 -0.1,0.6 -0.2,1.2 -0.3,1.8 0,0.1 0,0.2 0,0.2 -0.1,0.7 -0.2,1.3 -0.3,2 0,0.1 0,0.2 0,0.3 -0.1,0.6 -0.2,1.2 -0.3,1.9 0,0.1 0,0.3 -0.1,0.4 -0.1,0.7 -0.2,1.4 -0.3,2.2 0,0.2 0,0.4 -0.1,0.5 -0.1,0.6 -0.2,1.3 -0.2,1.9 0,0.2 0,0.3 -0.1,0.5 -0.1,0.8 -0.2,1.5 -0.3,2.3 0,0.2 0,0.4 -0.1,0.6 -0.1,0.7 -0.2,1.4 -0.2,2 0,0.2 0,0.3 -0.1,0.5 -0.1,0.8 -0.2,1.6 -0.3,2.4 0,0.2 0,0.5 -0.1,0.7 -0.1,0.7 -0.1,1.4 -0.2,2.2 0,0.1 0,0.3 0,0.4 -0.1,0.8 -0.1,1.7 -0.2,2.5 0,0.2 0,0.5 -0.1,0.7 -0.1,0.8 -0.1,1.5 -0.2,2.3 0,0.1 0,0.2 0,0.3 -0.1,0.8 -0.1,1.7 -0.1,2.5 0,0.2 0,0.4 0,0.6 0,0.8 -0.1,1.6 -0.1,2.4 0,0.1 0,0.1 0,0.2 0,0.8 0,1.6 -0.1,2.5 0,0.2 0,0.4 0,0.6 0,0.8 0,1.6 0,2.4 0.1,18.9 3.8,85.6 63,85.6 21.8,0 32.2,-9 38.7,-15.8 8.5,7.7 16.8,15.2 34.7,15.2 18,0 34.6,-11.6 42.9,-24.9 0.7,19.5 2.5,38.1 -7.8,54.6 -0.1,0.1 -0.1,0.2 -0.2,0.3 0,0 0,0.1 0,0.1 0,0.1 0,0.1 -0.1,0.2 0,0 0,0.1 0,0.1 0,0.1 0,0.1 0,0.2 0,0 0,0.1 0,0.1 0,0 0,0.1 0,0.1 0,0 0,0.1 0,0.1 0,0 0,0.1 0.1,0.1 0,0 0,0.1 0.1,0.1 0,0 0,0.1 0.1,0.1 0,0 0,0.1 0.1,0.1 0,0 0.1,0.1 0.1,0.1 0,0 0.1,0.1 0.1,0.1 0,0 0.1,0.1 0.1,0.1 0,0 0.1,0 0.1,0.1 0,0 0.1,0.1 0.1,0.1 0,0 0.1,0 0.1,0.1 0,0 0.1,0 0.1,0.1 0,0 0.1,0 0.1,0.1 0,0 0.1,0 0.1,0.1 0,0 0.1,0 0.1,0 0,0 0.1,0 0.1,0 0,0 0.1,0 0.1,0 0,0 0.1,0 0.1,0 0,0 0.1,0 0.1,0 0,0 0.1,0 0.1,0 0,0 0.1,0 0.1,0 0,0 0,0 0.1,0 0,0 0,0 0.1,0 0,0 0.1,0 0.1,0 1.4,-0.2 3.2,-2.8 3.6,-3.1 0.4,-0.3 18.4,-17.3 37.6,-23.7 0.9,-0.3 1.7,-1.2 1.4,-2 -0.3,-0.8 -3.3,-1.7 -3.6,-8.6 -0.3,-6.9 -1,-63.3 -1,-63.3 0,0 0.2,-0.6 1,-0.6 0.8,0 15.5,-0.1 15.8,-0.1 0.3,0 0.3,1.2 0.3,1.8 0,0.6 0.1,41.4 0.1,42.7 -0.1,3.8 0,13.3 -6.5,19.9 -1.1,1.1 -0.9,2.6 0.2,2.6 0,0 43.5,0.2 44.1,0.2 0.1,0 0.2,0 0.3,-0.1 0.5,-0.3 0.9,-1.4 0.6,-1.6 -0.2,-0.3 -6.7,-6.9 -7.1,-13.1 -0.8,-15 -0.7,-123 -0.7,-123.9 0,-0.9 1.2,-5.4 5.5,-5.1 v 0 c 0.9,0 1.6,0.1 2.2,0.3 0.7,0.2 1.6,0.4 2.1,0.9 0.1,0.1 0.2,0.2 0.3,0.3 0.1,0 0.1,0.1 0.2,0.1 0,0 0.1,0 0.1,0 0.6,0 2.2,-2.4 2.3,-8.2 C 382.7,15.1 372.7,3 363.6,3"
   class="style0"
   clip-path="url(#SVGID_2_)"
   id="path847" />
        <path
   d="M 109.3,156.6 C 108.7,153 97.8,91.1 97.8,91.1 c 3.5,-7.5 11,-10.5 12,-34.5 -0.1,-1.1 -0.2,-2.2 -0.4,-3.3 0,-0.3 -0.1,-0.6 -0.1,-1 -0.1,-0.8 -0.3,-1.6 -0.4,-2.4 -0.1,-0.6 -0.2,-1.1 -0.3,-1.7 -7.5,-35.3 -39.9,-40.5 -54,-41.1 -0.7,0 -1.4,0 -2.1,0 C 28.2,7.1 7.8,23.5 3.4,48 c -3,16.8 10.8,25.7 16.3,25.7 0.5,0 0.9,0 1.4,0 0.4,0 0.8,0 1.2,0 0.1,0 0.1,0 0.2,0 0.2,0 0.4,0 0.6,0 0.1,0 0.1,0 0.2,0 0.2,0 0.5,0 0.7,-0.1 0,0 0.1,0 0.1,0 0.2,0 0.3,-0.1 0.5,-0.1 0,0 0.1,0 0.1,0 0.2,-0.1 0.4,-0.1 0.5,-0.2 0,0 0,0 0.1,0 0.1,-0.1 0.3,-0.2 0.4,-0.3 0,0 0.1,-0.1 0.1,-0.1 0.1,-0.1 0.2,-0.3 0.4,-0.5 0,0 0,0 0,-0.1 0.1,-0.2 0.2,-0.4 0.2,-0.6 0,-0.1 0,-0.1 0.1,-0.2 0.1,-0.2 0.1,-0.5 0.1,-0.8 0,0 -4.1,-2.6 -3.5,-7.7 2.3,-19.3 15.7,-24.7 27.7,-26.3 0.4,-0.1 0.8,-0.1 1.3,-0.1 0.1,0 0.3,0 0.4,0 0.3,0 0.6,0 0.9,0 0,0 0,0 0.1,0 0.3,0 0.5,0 0.8,0 0.1,0 0.2,0 0.3,0 0.4,0 0.8,0.1 1.2,0.1 0.1,0 0.3,0 0.4,0.1 0.3,0 0.5,0.1 0.8,0.1 0.2,0 0.3,0.1 0.5,0.1 0.2,0 0.5,0.1 0.7,0.1 0.2,0 0.3,0.1 0.5,0.1 0.2,0.1 0.4,0.1 0.7,0.2 0.2,0.1 0.4,0.1 0.5,0.2 0.2,0.1 0.4,0.1 0.6,0.2 0.2,0.1 0.4,0.1 0.5,0.2 0.2,0.1 0.4,0.2 0.6,0.2 0.2,0.1 0.4,0.1 0.5,0.2 0.2,0.1 0.4,0.2 0.6,0.3 0.2,0.1 0.4,0.2 0.5,0.3 0.2,0.1 0.4,0.2 0.6,0.3 0.2,0.1 0.4,0.2 0.5,0.3 0.2,0.1 0.4,0.2 0.6,0.3 0.2,0.1 0.3,0.2 0.5,0.3 0.2,0.1 0.4,0.2 0.6,0.4 0.2,0.1 0.3,0.2 0.5,0.3 0.2,0.1 0.4,0.3 0.6,0.4 0.2,0.1 0.3,0.2 0.5,0.3 0.2,0.1 0.4,0.3 0.6,0.4 0.2,0.1 0.3,0.2 0.5,0.4 0.2,0.2 0.4,0.3 0.6,0.5 0.1,0.1 0.3,0.2 0.4,0.4 0.2,0.2 0.4,0.4 0.6,0.6 0.1,0.1 0.2,0.2 0.3,0.3 0.3,0.3 0.6,0.6 0.9,0.9 0.1,0.1 0.2,0.2 0.2,0.2 0.2,0.2 0.5,0.5 0.7,0.7 0.1,0.1 0.2,0.3 0.3,0.4 0.2,0.2 0.4,0.4 0.5,0.6 0.1,0.1 0.2,0.3 0.4,0.4 0.2,0.2 0.3,0.4 0.5,0.6 0.1,0.2 0.2,0.3 0.4,0.5 0.1,0.2 0.3,0.4 0.4,0.6 0.1,0.2 0.2,0.3 0.3,0.5 0.1,0.2 0.3,0.4 0.4,0.6 0.1,0.2 0.2,0.3 0.3,0.5 0.1,0.2 0.3,0.4 0.4,0.6 0.1,0.2 0.2,0.4 0.3,0.5 0.1,0.2 0.2,0.4 0.3,0.6 0.1,0.2 0.2,0.4 0.3,0.6 0.1,0.2 0.2,0.4 0.3,0.7 0.1,0.2 0.2,0.4 0.3,0.6 0.1,0.2 0.2,0.5 0.3,0.7 0.1,0.2 0.2,0.4 0.2,0.6 0.1,0.2 0.2,0.5 0.3,0.7 0.1,0.2 0.1,0.4 0.2,0.6 0.1,0.2 0.2,0.5 0.2,0.7 0.1,0.2 0.1,0.4 0.2,0.6 0.1,0.3 0.1,0.5 0.2,0.8 0,0.2 0.1,0.4 0.1,0.5 0.1,0.3 0.1,0.6 0.2,0.9 0,0.1 0.1,0.3 0.1,0.4 0.1,0.4 0.1,0.9 0.2,1.3 C 81.9,77 70,87.4 68.1,88 c 0,0 -0.1,0 -0.1,0 0,0 -0.1,0 -0.2,0.1 0,0 0,0 -0.1,0 -0.1,0 -0.1,0 -0.2,0.1 0,0 -0.1,0 -0.1,0 -0.1,0 -0.2,0.1 -0.3,0.1 0,0 0,0 -0.1,0 -0.1,0 -0.2,0.1 -0.4,0.1 0,0 -0.1,0 -0.1,0 -0.1,0 -0.2,0 -0.3,0.1 0,0 -0.1,0 -0.1,0 -0.1,0 -0.2,0 -0.3,0 0,0 -0.1,0 -0.1,0 -0.1,0 -0.2,0 -0.3,0 0,0 -0.1,0 -0.1,0 0,0 0,0 0,0 -0.1,0 -0.3,0 -0.4,0 0,0 -0.1,0 -0.1,0 -0.1,0 -0.2,-0.1 -0.3,-0.1 0,0 0,0 0,0 -0.1,-0.1 -0.2,-0.2 -0.2,-0.3 0,0 0,-0.1 0,-0.1 -0.1,-0.1 -0.1,-0.3 -0.1,-0.4 -0.1,-2.2 0.5,-39.2 0,-42 0,-0.2 -0.1,-0.3 -0.1,-0.4 0,0 0,-0.1 0,-0.1 0,-0.1 -0.1,-0.2 -0.2,-0.3 0,0 0,0 0,0 -0.1,-0.1 -0.1,-0.1 -0.2,-0.1 0,0 0,0 0,0 -0.1,0 -0.2,0 -0.2,0 0,0 0,0 -0.1,0 0,0 -0.1,0 -0.1,0 0,0 0,0 -0.1,0 -0.1,0 -0.1,0 -0.2,0.1 0,0 0,0 -0.1,0 -0.2,0.1 -0.3,0.2 -0.5,0.3 0,0 0,0 -0.1,0.1 -0.1,0 -0.1,0.1 -0.2,0.1 0,0 -0.1,0 -0.1,0.1 -0.1,0 -0.1,0.1 -0.2,0.1 0,0 -0.1,0.1 -0.1,0.1 -0.1,0.1 -0.1,0.1 -0.2,0.2 0,0 -0.1,0 -0.1,0.1 -0.1,0.1 -0.2,0.2 -0.3,0.3 -7.5,7.2 -26.6,15.4 -28.1,16.2 -2,1 -1.1,2.4 -1.1,2.4 0,0 1.8,3.2 1.7,11 0,3 2.5,78.8 0.8,114.3 -0.6,12 -4.5,15.7 -6.7,18.8 -0.8,1.1 1.9,2.8 3,2.8 0.1,0 0.3,0 0.3,-0.1 11.2,-11.2 27.3,-21.3 36.7,-25.8 2,-1 5.1,-2.8 4,-4.5 -1.2,-2 -2.4,-2.7 -4,-4 -2.2,-1.8 -3,-7.5 -3,-7.5 v -44 c 0,-2.5 2.2,-3.6 4.1,-4.9 0.3,-0.2 0.5,-0.4 0.8,-0.6 0.2,-0.1 0.4,-0.3 0.5,-0.4 0.1,-0.1 0.1,-0.1 0.2,-0.2 0.2,-0.1 0.3,-0.2 0.4,-0.3 0.1,-0.1 0.2,-0.1 0.2,-0.2 0.1,-0.1 0.3,-0.2 0.4,-0.2 0.1,0 0.2,-0.1 0.2,-0.1 0.1,-0.1 0.2,-0.1 0.3,-0.2 0.1,0 0.1,-0.1 0.2,-0.1 0.1,-0.1 0.2,-0.1 0.3,-0.1 0,0 0.1,0 0.1,-0.1 0.1,0 0.2,-0.1 0.3,-0.1 0,0 0,0 0,0 0.1,0 0.2,0 0.2,0.1 1.1,1.3 1.3,3.9 1.3,3.9 0,0 5.5,46.9 5.7,48.4 0.2,2.1 -2.1,3.8 -1.4,5.2 0.1,0.2 0.2,0.4 0.3,0.5 0,0 0,0.1 0.1,0.1 0.1,0.1 0.2,0.2 0.3,0.3 0,0 0,0 0.1,0 0.1,0.1 0.2,0.1 0.3,0.2 0,0 0,0 0,0 0.1,0 0.2,0.1 0.3,0.1 0,0 0,0 0,0 0.1,0 0.1,0 0.2,0 0,0 0,0 0.1,0 0,0 0.1,0 0.1,0 0,0 0,0 0.1,0 0,0 0.1,0 0.1,0 0,0 0,0 0,0 0,0 0,0 0,0 0,0 30.4,0 31.9,0 0.1,0 0.2,0 0.4,0 0,0 0.1,0 0.1,0 0.1,0 0.3,0 0.4,0 0.1,0 0.3,0 0.4,0 0,0 0,0 0.1,0 0.1,0 0.3,0 0.4,0 0,0 0.1,0 0.1,0 0.1,0 0.1,0 0.2,0 0,0 0.1,0 0.1,0 0.1,0 0.2,0 0.2,0 0,0 0.1,0 0.1,0 0.1,0 0.2,-0.1 0.3,-0.1 0,0 0,0 0.1,0 0.1,0 0.1,-0.1 0.2,-0.1 0,0 0,0 0.1,-0.1 0,0 0.1,-0.1 0.1,-0.1 0,0 0,-0.1 0.1,-0.1 0,-0.1 0.1,-0.1 0.1,-0.2 0,0 0,-0.1 0,-0.1 0,-0.1 0,-0.2 0,-0.2 0,0 0,-0.1 0,-0.1 0,-0.1 0,-0.3 0,-0.5 -0.1,-2.7 -4,-4 -6.6,-18.9"
   class="style0"
   clip-path="url(#SVGID_2_)"
   id="path849" />
        <path
   d="m 363.6,0 c -5.4,0 -13.1,1.3 -19.3,7.6 -4.1,4.2 -6.8,9.9 -8.1,16.9 L 324.5,48.2 C 324.4,30 324.2,9.8 324.2,9.1 c 0,-2.8 -2.1,-6 -4.9,-6 -1.3,0 -1.4,0.1 -6.7,4.2 -7.1,5.5 -21.2,16.5 -29.9,20.2 l 2.8,-13.3 c 0.2,-0.4 0.5,-0.9 0.7,-1.3 1,-1.8 2.2,-4.5 0.9,-6.7 -0.8,-1.3 -2.1,-2 -3.7,-2 -0.2,0 -0.4,0 -0.5,0 -5.4,0.5 -13.8,0.7 -25.5,0.7 -6.5,0 -12.9,-0.1 -18,-0.1 -3.4,0 -6.1,-0.1 -7.9,-0.1 -6.5,0 -15,4 -21.6,10.2 -2.6,2.4 -4.8,5.1 -6.6,8 V 10.2 c 0.1,-0.1 0.1,-0.2 0.2,-0.2 0.3,-0.5 0.5,-0.8 0.7,-1.1 0.6,-1.2 0.6,-2.6 -0.1,-3.7 -0.8,-1.2 -2.2,-2 -3.9,-2 -0.8,0 -37.6,0.1 -39.2,0.1 h -0.6 l -0.5,0.2 c -0.9,0.4 -1.7,1.2 -2.1,2.2 0,0.1 -0.1,0.2 -0.1,0.4 -0.1,-0.4 -0.3,-0.8 -0.6,-1.2 -0.7,-1 -1.9,-1.6 -3.2,-1.6 -0.2,0 -0.4,0 -0.6,0 -2.2,0 -17.1,0 -27.3,0 -10,0 -10.2,0 -10.6,0.1 -1.3,0.3 -2.4,1.3 -2.8,2.7 -0.5,1.5 -0.1,3.1 1,4.2 1.5,1.6 4.7,6.3 4.7,7.7 -0.1,1.5 -2,9.7 -3.3,15.1 -1.3,5.6 -2.5,10.4 -2.7,12.2 -0.1,0.5 -0.2,1.7 -0.5,3.1 0,0.2 -0.1,0.5 -0.1,0.7 C 108.7,33.3 100.8,21.4 88,13.6 76.4,6.4 63.5,4.5 54.7,4.1 c -0.8,0 -1.5,0 -2.3,0 -26,0 -47.4,17.8 -51.9,43.3 -1.8,10.1 1.9,17.1 5.3,21.2 1.9,2.3 4,4 6.1,5.3 l 19.4,25.4 c 0.6,25.7 1.3,67.2 0.2,90.4 -0.5,9.8 -3.2,13.3 -5.4,16.1 -0.3,0.4 -0.5,0.7 -0.8,1 -0.9,1.2 -1,2.7 -0.3,4 0.9,1.9 3.6,3.6 5.7,3.6 0.1,0 0.1,0 0.1,0 12.5,8.2 42.6,25.9 44.3,26.4 2.1,0.6 3.4,-0.6 3.4,-0.6 8.8,-10.8 28.6,-19.3 30.3,-20.6 1.7,-1.3 -0.2,-4 1.5,-4 1.7,0 28.4,0.4 29.2,0.3 0.8,-0.1 2.2,-1.1 1.9,-2 -0.3,-1 -2.1,-3.7 -3.2,-6.8 5,3.7 16.8,11.9 35.4,11.9 18.6,0 26.3,-6.3 35.9,-13.6 8.3,8.9 16.1,13.4 27.5,13.4 11.4,0 16.3,-3.5 24.8,-9 1.5,12.9 -2.4,23 -3.9,26 -1.5,3 -4.1,5.5 -4.6,7.8 -0.5,2.3 2.3,3.5 3.3,3.5 1,0 2.5,-0.5 3.7,-2.1 5.1,-6.6 23.7,-18.5 32.6,-24.3 3.6,-2.4 6.7,-6.3 6.7,-6.3 h 31.7 L 376,179.1 c 0.3,0 0.6,0 0.6,0 1.4,0 2.7,-0.9 3.4,-2.3 0.8,-1.5 0.7,-3.1 -0.1,-4.2 0,-0.1 -0.2,-0.2 -0.4,-0.4 -3.7,-4.1 -5.9,-8.1 -6.1,-11 -0.7,-12.3 -0.7,-87.7 -0.7,-114.8 l 6.8,-9.5 c 0.2,0.1 0.5,0.1 0.7,0.1 3.2,0 5.2,-4.4 5.3,-11.1 0,-6.5 -3.2,-13.9 -8.6,-19.3 C 372.9,2.3 368.1,0 363.6,0 M 161,6.2 c 0,0 38.3,-0.1 39.1,-0.1 0.8,0 1.8,0.4 1.3,1.3 0,0 0,0.1 0,0.1 -0.3,0.5 -1.4,2.2 -2.6,4.4 0,0 0,0 0,0 -0.2,0.3 -0.3,0.6 -0.5,1 0,0 0,0.1 0,0.1 -0.2,0.3 -0.3,0.6 -0.5,1 0,0 0,0.1 -0.1,0.1 -0.1,0.3 -0.3,0.6 -0.4,1 0,0.1 -0.1,0.1 -0.1,0.2 -0.1,0.3 -0.3,0.6 -0.4,1 0,0.1 -0.1,0.1 -0.1,0.2 -0.1,0.3 -0.2,0.6 -0.3,0.9 0,0.1 -0.1,0.2 -0.1,0.3 -0.1,0.3 -0.2,0.6 -0.3,0.9 0,0.1 -0.1,0.2 -0.1,0.3 -0.1,0.3 -0.1,0.6 -0.2,0.9 0,0.1 -0.1,0.2 -0.1,0.3 -0.1,0.3 -0.1,0.6 -0.1,0.9 0,0.1 0,0.2 0,0.3 0,0.4 -0.1,0.8 -0.1,1.2 0,6.4 0.2,82.6 0.2,85 0,0 0.9,9.7 3,12.1 1.6,1.9 -1.3,1.8 -3.6,2.8 -13.3,5.7 -17.9,8.6 -25.5,14.3 -0.2,0.2 -0.4,0.3 -0.6,0.5 -0.1,0 -0.1,0.1 -0.2,0.1 -0.1,0.1 -0.3,0.2 -0.4,0.2 -0.1,0 -0.1,0.1 -0.2,0.1 -0.1,0.1 -0.2,0.1 -0.3,0.2 -0.1,0 -0.1,0.1 -0.2,0.1 -0.1,0.1 -0.2,0.1 -0.3,0.1 -0.1,0 -0.1,0.1 -0.2,0.1 -0.1,0 -0.2,0.1 -0.3,0.1 0,0 -0.1,0 -0.1,0 -0.1,0 -0.2,0.1 -0.3,0.1 0,0 0,0 0,0 -0.1,0 -0.2,0 -0.3,0 -0.1,0 -0.2,0 -0.3,0 0,0 0,0 0,0 -0.1,0 -0.2,-0.1 -0.3,-0.1 0,0 0,0 -0.1,-0.1 0,0 -0.1,-0.1 -0.1,-0.1 0,0 0,-0.1 -0.1,-0.1 0,0 -0.1,-0.1 -0.1,-0.1 0,0 0,-0.1 -0.1,-0.1 0,-0.1 -0.1,-0.1 -0.1,-0.2 0,0 0,-0.1 -0.1,-0.1 0,-0.1 0,-0.1 -0.1,-0.2 0,0 0,-0.1 0,-0.1 0,-0.1 0,-0.2 -0.1,-0.3 0,0 0,-0.1 0,-0.1 0,-0.1 -0.1,-0.3 -0.1,-0.4 L 163.4,15.2 c 0,-3.7 -2.5,-6.3 -2.9,-7.1 C 160,6.6 161,6.2 161,6.2 m -3.7,3.7 c 0.1,-0.3 0.3,-0.8 0.4,-1.4 0.1,0.3 0.2,0.6 0.4,0.9 0.2,0.4 0.4,0.8 0.7,1.2 0.7,1 1.9,2.6 1.9,4.6 l 0.1,13.5 -3.5,-18.7 c 0,0 0,-0.1 0,-0.1 M 116.1,176 c 0,0.1 0,0.2 0,0.2 0,0 0,0.1 0,0.1 0,0.1 0,0.1 -0.1,0.2 0,0 0,0.1 -0.1,0.1 0,0.1 -0.1,0.1 -0.1,0.1 0,0 0,0 -0.1,0.1 -0.1,0 -0.1,0.1 -0.2,0.1 0,0 0,0 -0.1,0 -0.1,0 -0.2,0.1 -0.3,0.1 0,0 -0.1,0 -0.1,0 -0.1,0 -0.1,0 -0.2,0 0,0 -0.1,0 -0.1,0 -0.1,0 -0.1,0 -0.2,0 0,0 -0.1,0 -0.1,0 -0.1,0 -0.3,0 -0.4,0 0,0 0,0 -0.1,0 -0.1,0 -0.3,0 -0.4,0 -0.1,0 -0.3,0 -0.4,0 0,0 -0.1,0 -0.1,0 -0.1,0 -0.3,0 -0.4,0 -1.5,0 -31.9,0 -31.9,0 0,0 0,0 0,0 0,0 0,0 0,0 0,0 -0.1,0 -0.1,0 0,0 0,0 -0.1,0 0,0 -0.1,0 -0.1,0 0,0 0,0 -0.1,0 -0.1,0 -0.1,0 -0.2,0 0,0 0,0 0,0 -0.1,0 -0.2,0 -0.3,-0.1 0,0 0,0 0,0 -0.1,0 -0.2,-0.1 -0.3,-0.2 0,0 0,0 -0.1,0 -0.1,-0.1 -0.2,-0.2 -0.3,-0.3 0,0 0,-0.1 -0.1,-0.1 -0.1,-0.1 -0.2,-0.3 -0.3,-0.5 -0.8,-1.5 1.6,-3.1 1.4,-5.2 -0.2,-1.5 -5.7,-48.4 -5.7,-48.4 0,0 -0.2,-2.6 -1.3,-3.9 -0.1,-0.1 -0.1,-0.1 -0.2,-0.1 v 0 c -0.1,0 -0.2,0 -0.3,0.1 0,0 -0.1,0 -0.1,0.1 -0.1,0 -0.2,0.1 -0.3,0.1 -0.1,0 -0.1,0.1 -0.2,0.1 -0.1,0.1 -0.2,0.1 -0.3,0.2 -0.1,0 -0.1,0.1 -0.2,0.1 -0.1,0.1 -0.2,0.2 -0.4,0.2 -0.1,0.1 -0.2,0.1 -0.2,0.2 -0.1,0.1 -0.3,0.2 -0.4,0.3 -0.1,0.1 -0.1,0.1 -0.2,0.2 -0.2,0.1 -0.4,0.3 -0.5,0.4 -0.3,0.2 -0.5,0.4 -0.8,0.6 -1.9,1.3 -4.1,2.4 -4.1,4.9 v 44 c 0,0 0.8,5.8 3,7.5 1.6,1.3 2.8,2 4,4 1.1,1.7 -2,3.5 -4,4.5 -9.3,4.5 -25.5,14.6 -36.6,25.8 -0.1,0.1 -0.2,0.1 -0.3,0.1 -1.1,0 -3.8,-1.8 -3,-2.8 2.3,-3.1 6.1,-6.8 6.7,-18.8 1.8,-35.5 -0.8,-111.3 -0.8,-114.3 0.1,-7.8 -1.7,-11 -1.7,-11 0,0 -0.9,-1.4 1.1,-2.4 1.4,-0.7 20.6,-8.9 28.1,-16.2 0.1,-0.1 0.2,-0.2 0.3,-0.3 0,0 0.1,0 0.1,-0.1 0.1,-0.1 0.1,-0.1 0.2,-0.2 0,0 0.1,-0.1 0.1,-0.1 0.1,-0.1 0.1,-0.1 0.2,-0.1 0,0 0.1,0 0.1,-0.1 0.1,0 0.1,-0.1 0.2,-0.1 0,0 0.1,0 0.1,-0.1 0.2,-0.1 0.3,-0.2 0.5,-0.3 0,0 0,0 0.1,0 0.1,0 0.1,0 0.2,-0.1 0,0 0.1,0 0.1,0 0,0 0.1,0 0.1,0 0,0 0,0 0.1,0 0.1,0 0.2,0 0.2,0 0,0 0,0 0,0 0.1,0 0.1,0.1 0.2,0.1 0,0 0,0 0,0 0.1,0.1 0.1,0.2 0.2,0.3 0,0 0,0.1 0,0.1 0,0.1 0.1,0.2 0.1,0.4 0.5,2.8 -0.1,39.8 0,42 0,0.2 0,0.3 0.1,0.4 0,0 0,0.1 0,0.1 0.1,0.1 0.1,0.2 0.2,0.3 0,0 0,0 0,0 0.1,0.1 0.2,0.1 0.3,0.1 0,0 0.1,0 0.1,0 0.1,0 0.3,0 0.4,0 0,0 0,0 0,0 0,0 0.1,0 0.1,0 0.1,0 0.2,0 0.3,0 0,0 0.1,0 0.1,0 0.1,0 0.2,0 0.3,0 0,0 0.1,0 0.1,0 0.1,0 0.2,0 0.3,-0.1 0,0 0.1,0 0.1,0 0.1,0 0.2,-0.1 0.4,-0.1 0,0 0,0 0.1,0 0.1,0 0.2,-0.1 0.3,-0.1 0,0 0.1,0 0.1,0 0.1,0 0.1,0 0.2,-0.1 0,0 0,0 0.1,0 0.1,0 0.1,0 0.2,-0.1 0.1,0 0.1,0 0.1,0 1.9,-0.5 13.8,-11 12.2,-25.8 0,-0.4 -0.1,-0.9 -0.2,-1.3 0,-0.2 -0.1,-0.3 -0.1,-0.4 C 80.2,60.1 80.2,59.8 80.1,59.5 80.1,59.3 80,59.1 80,59 79.9,58.7 79.9,58.5 79.8,58.2 79.8,58 79.7,57.8 79.6,57.6 79.5,57.4 79.5,57.1 79.4,56.9 79.3,56.7 79.3,56.5 79.2,56.3 79.1,56.1 79,55.8 78.9,55.6 78.8,55.4 78.8,55.2 78.7,55 78.6,54.8 78.5,54.5 78.4,54.3 78.3,54.1 78.2,53.9 78.1,53.7 78,53.5 77.9,53.3 77.8,53 77.7,52.8 77.6,52.6 77.5,52.4 77.4,52.2 77.3,52 77.2,51.8 77.1,51.6 77,51.4 76.9,51.3 76.8,51.1 76.7,50.9 76.5,50.7 76.4,50.5 76.3,50.4 76.2,50.2 76.1,50 75.9,49.8 75.8,49.6 75.7,49.4 75.6,49.3 75.5,49.1 75.4,48.9 75.2,48.7 75.1,48.5 75,48.3 74.9,48.2 74.7,48 74.5,47.8 74.4,47.6 74.2,47.4 74.1,47.3 74,47.1 73.8,47 73.6,46.8 73.4,46.6 73.3,46.4 73.2,46.3 73.1,46.1 73,46 72.8,45.8 72.5,45.5 72.3,45.3 72.2,45.2 72.1,45.1 72.1,45.1 71.8,44.8 71.5,44.5 71.2,44.2 71.1,44.1 71,44 70.9,43.9 70.7,43.7 70.5,43.5 70.3,43.3 70.2,43.2 70,43.1 69.9,42.9 69.7,42.7 69.5,42.6 69.3,42.4 69.1,42.3 69,42.2 68.8,42 68.6,41.9 68.4,41.7 68.2,41.6 68,41.5 67.9,41.4 67.7,41.3 67.5,41.2 67.3,41 67.1,40.9 66.9,40.8 66.8,40.7 66.6,40.6 66.4,40.5 66.2,40.4 66,40.2 65.8,40.1 65.7,40 65.5,39.9 65.3,39.8 65.1,39.7 64.9,39.6 64.7,39.5 64.6,39.4 64.4,39.3 64.2,39.2 64,39.1 63.8,39 63.6,38.9 63.4,38.8 63.3,38.7 63.1,38.6 62.9,38.5 62.7,38.4 62.5,38.3 62.3,38.2 62.2,38.2 62,38.1 61.8,38 61.6,38 61.4,37.9 61.2,37.9 61.1,37.8 60.9,37.7 60.7,37.7 60.5,37.6 60.3,37.5 60.1,37.5 60,37.4 59.8,37.3 59.6,37.3 59.3,37.2 59.1,37.2 59,37.1 58.8,37.1 58.6,37 58.3,37 58.1,37 c -0.2,0 -0.3,-0.1 -0.5,-0.1 -0.3,0 -0.5,-0.1 -0.8,-0.1 -0.1,0 -0.3,0 -0.4,-0.1 -0.4,0 -0.8,-0.1 -1.2,-0.1 -0.1,0 -0.2,0 -0.3,0 -0.3,0 -0.5,0 -0.8,0 0,0 0,0 -0.1,0 -0.3,0 -0.6,0 -0.9,0 -0.1,0 -0.3,0 -0.4,0 -0.4,0 -0.8,0.1 -1.3,0.1 -12,1.7 -25.4,7 -27.7,26.3 -0.6,5 3.5,7.7 3.5,7.7 0,0.3 -0.1,0.6 -0.1,0.8 0,0.1 0,0.1 -0.1,0.2 -0.1,0.2 -0.1,0.4 -0.2,0.6 0,0 0,0 0,0.1 -0.1,0.2 -0.2,0.3 -0.4,0.5 0,0 -0.1,0.1 -0.1,0.1 -0.1,0.1 -0.2,0.2 -0.4,0.3 0,0 0,0 -0.1,0 -0.2,0.1 -0.3,0.2 -0.5,0.2 0,0 -0.1,0 -0.1,0 -0.2,0 -0.3,0.1 -0.5,0.1 0,0 -0.1,0 -0.1,0 -0.2,0 -0.4,0.1 -0.7,0.1 -0.1,0 -0.1,0 -0.2,0 -0.2,0 -0.4,0 -0.6,0 -0.1,0 -0.1,0 -0.2,0 -0.4,0 -0.8,0 -1.2,0 -0.4,0 -0.9,0 -1.4,0 C 14.8,73.7 1,64.9 4,48 8.4,23.5 28.8,7.1 53,7.1 c 0.7,0 1.4,0 2.1,0 14.1,0.6 46.5,5.7 53.9,41.1 0.1,0.6 0.2,1.1 0.3,1.7 0.1,0.8 0.3,1.6 0.4,2.4 0,0.3 0.1,0.6 0.1,1 0.1,1.1 0.3,2.2 0.4,3.3 -1,24 -8.5,27 -12,34.5 0,0 10.9,61.9 11.5,65.5 2.6,14.9 6.6,16.2 6.9,18.8 0,0.2 0,0.3 0,0.5 -0.4,0 -0.5,0 -0.5,0.1 M 380.4,33.9 c -0.1,0 -0.1,0 0,0 -0.1,-0.1 -0.2,-0.1 -0.2,-0.1 -0.1,-0.1 -0.2,-0.2 -0.3,-0.3 -0.5,-0.5 -1.4,-0.8 -2.1,-0.9 -0.6,-0.2 -1.3,-0.3 -2.2,-0.3 v 0 c -4.2,-0.2 -5.5,4.2 -5.5,5.1 0,0.9 -0.1,108.9 0.7,123.9 0.3,6.2 6.8,12.8 7.1,13.1 0.2,0.3 -0.1,1.4 -0.6,1.6 -0.1,0 -0.2,0.1 -0.3,0.1 -0.7,0 -44.1,-0.2 -44.1,-0.2 -1.1,0 -1.3,-1.5 -0.2,-2.6 6.5,-6.5 6.4,-16.1 6.5,-19.9 0,-1.2 -0.1,-42.1 -0.1,-42.7 0,-0.6 0,-1.8 -0.3,-1.8 -0.3,0 -15,0.1 -15.8,0.1 -0.8,0 -1,0.6 -1,0.6 0,0 0.7,56.4 1,63.3 0.3,6.9 3.3,7.8 3.6,8.6 0.3,0.9 -0.5,1.7 -1.4,2 -19.1,6.4 -37.2,23.4 -37.6,23.7 -0.4,0.3 -2.2,3 -3.6,3.1 0,0 -0.1,0 -0.1,0 0,0 0,0 -0.1,0 0,0 0,0 -0.1,0 0,0 -0.1,0 -0.1,0 0,0 -0.1,0 -0.1,0 0,0 -0.1,0 -0.1,0 0,0 -0.1,0 -0.1,0 0,0 -0.1,0 -0.1,0 0,0 -0.1,0 -0.1,0 0,0 -0.1,0 -0.1,0 0,0 -0.1,0 -0.1,-0.1 0,0 -0.1,0 -0.1,-0.1 0,0 -0.1,0 -0.1,-0.1 0,0 -0.1,0 -0.1,-0.1 0,0 -0.1,-0.1 -0.1,-0.1 0,0 -0.1,0 -0.1,-0.1 0,0 -0.1,-0.1 -0.1,-0.1 0,0 -0.1,-0.1 -0.1,-0.1 0,0 -0.1,-0.1 -0.1,-0.1 0,0 0,-0.1 -0.1,-0.1 0,0 0,-0.1 -0.1,-0.1 0,0 0,-0.1 -0.1,-0.1 0,0 0,-0.1 0,-0.1 0,0 0,-0.1 0,-0.1 0,0 0,-0.1 0,-0.1 0,0 0,-0.1 0,-0.1 0,-0.1 0,-0.1 0,-0.2 0,0 0,-0.1 0,-0.1 0,-0.1 0,-0.1 0.1,-0.2 0,0 0,-0.1 0,-0.1 0,-0.1 0.1,-0.2 0.2,-0.3 10.2,-16.5 8.4,-35.1 7.8,-54.6 -8.3,13.3 -24.9,24.9 -42.9,24.9 -17.8,0 -26.2,-7.5 -34.7,-15.2 -6.5,6.8 -16.8,15.8 -38.7,15.8 -59.2,0 -62.9,-66.7 -63,-85.6 0,-0.8 0,-1.6 0,-2.4 0,-0.2 0,-0.4 0,-0.6 0,-0.8 0,-1.6 0.1,-2.5 0,-0.1 0,-0.1 0,-0.2 0,-0.8 0.1,-1.6 0.1,-2.4 0,-0.2 0,-0.4 0,-0.6 0,-0.8 0.1,-1.7 0.1,-2.5 0,-0.1 0,-0.2 0,-0.3 0.1,-0.8 0.1,-1.5 0.2,-2.3 0,-0.2 0,-0.5 0.1,-0.7 0.1,-0.8 0.1,-1.7 0.2,-2.5 0,-0.1 0,-0.3 0,-0.4 0.1,-0.7 0.1,-1.4 0.2,-2.2 0,-0.2 0,-0.5 0.1,-0.7 0.1,-0.8 0.2,-1.6 0.2,-2.4 0,-0.2 0,-0.3 0.1,-0.5 0.1,-0.7 0.2,-1.4 0.2,-2 0,-0.2 0,-0.4 0.1,-0.6 0.1,-0.8 0.2,-1.6 0.3,-2.3 0,-0.2 0,-0.3 0.1,-0.5 0.1,-0.7 0.2,-1.3 0.2,-1.9 0,-0.2 0,-0.4 0.1,-0.5 0.1,-0.7 0.2,-1.5 0.3,-2.2 0,-0.1 0,-0.3 0.1,-0.4 0.1,-0.6 0.2,-1.3 0.3,-1.9 0,-0.1 0,-0.2 0,-0.3 0.1,-0.7 0.2,-1.4 0.3,-2 0,-0.1 0,-0.2 0,-0.2 0.1,-0.6 0.2,-1.2 0.3,-1.8 0,0 0,-0.1 0,-0.1 0.1,-0.6 0.2,-1.3 0.3,-1.8 0.5,-3 0.8,-5.1 0.9,-6 0.5,-3.6 5.9,-24.4 6,-27.6 0.1,-3.2 -5.1,-9.3 -5.6,-9.9 -0.6,-0.6 -0.2,-1.7 0.3,-1.8 0.2,0 4.4,-0.1 10,-0.1 11.1,0 27.6,0.1 27.6,0.1 0,0 0.2,0 0.4,0 0.6,0 1.5,0.3 0.6,2.7 -0.1,0.3 -0.2,0.6 -0.3,1 -0.1,0.2 -0.1,0.4 -0.2,0.7 -0.1,0.3 -0.2,0.6 -0.3,1 -0.1,0.3 -0.1,0.5 -0.2,0.8 -0.1,0.2 -0.1,0.4 -0.2,0.7 -0.1,0.3 -0.1,0.6 -0.2,0.9 -0.1,0.2 -0.1,0.5 -0.2,0.8 -0.1,0.3 -0.2,0.6 -0.2,0.9 -0.1,0.3 -0.1,0.6 -0.2,0.8 -0.1,0.3 -0.2,0.7 -0.2,1 -0.1,0.3 -0.1,0.6 -0.2,0.9 -0.1,0.4 -0.2,0.7 -0.3,1.1 -0.1,0.3 -0.1,0.6 -0.2,0.9 -0.1,0.4 -0.2,0.8 -0.3,1.2 -0.1,0.3 -0.1,0.7 -0.2,1 -0.1,0.4 -0.2,0.8 -0.3,1.3 -0.1,0.4 -0.2,0.7 -0.2,1.1 -0.1,0.4 -0.2,0.9 -0.3,1.4 -0.1,0.4 -0.2,0.7 -0.2,1.1 -0.1,0.5 -0.2,0.9 -0.3,1.4 -0.1,0.4 -0.2,0.8 -0.2,1.2 -0.1,0.5 -0.2,1 -0.3,1.5 -0.1,0.4 -0.2,0.8 -0.2,1.2 -0.1,0.5 -0.2,1 -0.3,1.6 -0.1,0.4 -0.2,0.8 -0.2,1.3 -0.1,0.5 -0.2,1.1 -0.3,1.6 -0.1,0.4 -0.2,0.9 -0.2,1.3 -0.1,0.5 -0.2,1.1 -0.3,1.6 -0.1,0.5 -0.2,0.9 -0.2,1.4 -0.1,0.6 -0.2,1.1 -0.3,1.7 -0.1,0.5 -0.2,0.9 -0.2,1.4 -0.1,0.6 -0.2,1.1 -0.3,1.7 -0.1,0.5 -0.2,0.9 -0.2,1.4 -0.1,0.6 -0.2,1.1 -0.3,1.7 -0.1,0.5 -0.2,1 -0.2,1.5 -0.1,0.6 -0.2,1.1 -0.3,1.7 -0.1,0.5 -0.1,1 -0.2,1.5 -0.1,0.6 -0.2,1.2 -0.3,1.7 -0.1,0.5 -0.1,1 -0.2,1.5 -0.1,0.6 -0.2,1.2 -0.2,1.8 -0.1,0.5 -0.1,1 -0.2,1.5 -0.1,0.6 -0.2,1.2 -0.2,1.8 -0.1,0.5 -0.1,1 -0.2,1.5 -0.1,0.6 -0.1,1.2 -0.2,1.8 -0.1,0.5 -0.1,1 -0.2,1.5 -0.1,0.6 -0.1,1.2 -0.2,1.8 -0.1,0.5 -0.1,1 -0.2,1.5 -0.1,0.6 -0.1,1.2 -0.2,1.7 -0.1,0.5 -0.1,1 -0.2,1.5 -0.1,0.6 -0.1,1.2 -0.2,1.7 0,0.5 -0.1,1 -0.1,1.5 -0.1,0.6 -0.1,1.2 -0.1,1.8 0,0.5 -0.1,1 -0.1,1.4 0,0.6 -0.1,1.2 -0.1,1.8 0,0.5 -0.1,0.9 -0.1,1.4 0,0.6 -0.1,1.2 -0.1,1.8 0,0.4 -0.1,0.9 -0.1,1.3 0,0.6 -0.1,1.2 -0.1,1.8 0,0.4 0,0.8 -0.1,1.2 0,0.7 0,1.3 -0.1,2 0,0.3 0,0.7 0,1 0,1 0,1.9 0,2.9 0,42.9 21.4,52 36.8,52 15.3,0 22.5,-8.1 22.5,-8.1 -0.1,-2.1 -0.2,-3.3 -0.1,-5.4 1.1,-18.3 13.8,-30.3 29.6,-30.3 15.8,0 21.7,11.7 22.3,19.5 0.6,7.8 -9.3,14 -10.5,14 -1.2,0 -0.7,-3.8 -0.5,-4.7 0.2,-0.8 0,-7 -7.2,-7 -7.2,0 -8,9.5 -8,10.3 0,0.8 -1,13.7 17.7,13.7 18.7,0 21.3,-19.8 21.3,-22.3 0,-2.5 -1,-23 -23,-34.8 -22,-11.8 -43.2,-23.2 -42.8,-47.7 0,-0.7 0,-1.5 0.1,-2.2 0,-0.4 0.1,-0.7 0.1,-1.1 0,-0.3 0.1,-0.7 0.1,-1 0.1,-0.5 0.1,-0.9 0.2,-1.4 0,-0.2 0.1,-0.4 0.1,-0.6 0.1,-0.5 0.2,-1 0.3,-1.6 0,-0.1 0.1,-0.3 0.1,-0.4 0.1,-0.6 0.3,-1.1 0.4,-1.7 0,-0.1 0,-0.1 0.1,-0.2 0.2,-0.6 0.4,-1.2 0.6,-1.8 0,0 0,0 0,-0.1 0.2,-0.6 0.4,-1.2 0.7,-1.8 v 0 c 0.2,-0.6 0.5,-1.1 0.7,-1.7 C 210.2,15 224.2,7.6 232,7.6 c 4.6,0 15.1,0.2 25.9,0.2 9.5,0 19.3,-0.1 25.8,-0.7 0,0 0.1,0 0.2,0 0.6,0 2.1,0.3 0.8,3.1 v 0 c -0.2,0.4 -0.3,0.7 -0.6,1.2 -8,14.2 -8.2,32.5 -8.2,32.5 0,0.1 0,0.2 0,0.3 0,0 0,0.1 0,0.1 0,0.1 0,0.1 -0.1,0.2 0,0 0,0.1 0,0.1 0,0.1 -0.1,0.1 -0.1,0.2 0,0 0,0 0,0 -0.1,0.1 -0.1,0.1 -0.2,0.2 0,0 0,0 -0.1,0 -0.1,0 -0.1,0.1 -0.2,0.1 0,0 -0.1,0 -0.1,0 -0.1,0 -0.1,0.1 -0.2,0.1 0,0 -0.1,0 -0.1,0 -0.1,0 -0.2,0.1 -0.3,0.1 0,0 0,0 0,0 -0.1,0 -0.2,0 -0.3,0 0,0 -0.1,0 -0.1,0 -0.1,0 -0.2,0 -0.3,0 0,0 0,0 -0.1,0 -0.1,0 -0.2,0 -0.3,-0.1 0,0 0,0 -0.1,0 -0.1,0 -0.1,-0.1 -0.2,-0.1 0,0 0,0 -0.1,0 -0.1,-0.1 -0.1,-0.1 -0.2,-0.2 -3.4,-4.4 -13.9,-8 -22.1,-8 -8.2,0 -17.8,4 -17.8,10 0,6 1.2,8 23.2,18 22,10 30.5,27 32.5,30.2 0.1,-17.8 0.1,-50.5 0.1,-54.6 0,-2 -4.5,-5.4 -4.9,-5.6 -0.4,-0.2 -4.4,-3 -1.9,-3.8 0.3,-0.1 0.6,-0.2 1,-0.3 12.3,-4.4 35.9,-24.7 36.8,-24.7 0.9,0 1.9,1.6 1.9,3 0,0.8 0.2,25.7 0.3,45.1 0,1.8 0,3.5 0,5.2 0.1,8.8 0.1,15.7 0.1,17.4 0,0.3 0,0.4 0,0.4 0,0 4.2,0.1 8.4,0.1 4.2,0 8.4,-0.1 8.4,-0.3 0,-0.5 -0.1,-19.5 -0.1,-43 0,-5.7 0.8,-10.5 2.2,-14.4 h -0.1 C 344.7,7.3 354.4,3 363.6,3 c 9.1,0 19.1,12.1 19,22.8 0,5.7 -1.7,8.1 -2.2,8.1"
   class="style1"
   clip-path="url(#SVGID_2_)"
   id="path851" />
        <path
   d="m 203.4,28.9 c -0.3,0.6 -0.5,1.1 -0.7,1.7 v 0 0 c 0.2,-0.5 0.4,-1.1 0.7,-1.7"
   class="style0"
   clip-path="url(#SVGID_2_)"
   id="path853" />
        <path
   d="m 73.1,118.2 c 0,0 0,0 0,0 0,0 0,0 0,0 z"
   class="style0"
   clip-path="url(#SVGID_2_)"
   id="path855" />
    </g>
</svg>
