<?xml version="1.0" encoding="UTF-8" standalone="no"?>
<!-- Created with Inkscape (http://www.inkscape.org/) -->

<svg
   xmlns:dc="http://purl.org/dc/elements/1.1/"
   xmlns:cc="http://creativecommons.org/ns#"
   xmlns:rdf="http://www.w3.org/1999/02/22-rdf-syntax-ns#"
   xmlns:svg="http://www.w3.org/2000/svg"
   xmlns="http://www.w3.org/2000/svg"
   xmlns:sodipodi="http://sodipodi.sourceforge.net/DTD/sodipodi-0.dtd"
   xmlns:inkscape="http://www.inkscape.org/namespaces/inkscape"
   width="1000"
   height="1000"
   id="svg8046"
   version="1.1"
   inkscape:version="0.48.2 r9819"
   sodipodi:docname="panzerballett.svg">
  <defs
     id="defs8048" />
  <sodipodi:namedview
     id="base"
     pagecolor="#ffffff"
     bordercolor="#666666"
     borderopacity="1.0"
     inkscape:pageopacity="0.0"
     inkscape:pageshadow="2"
     inkscape:zoom="0.7"
     inkscape:cx="766.99748"
     inkscape:cy="460.72398"
     inkscape:document-units="px"
     inkscape:current-layer="layer2"
     showgrid="false"
     inkscape:window-width="1710"
     inkscape:window-height="983"
     inkscape:window-x="40"
     inkscape:window-y="40"
     inkscape:window-maximized="0" />
  <metadata
     id="metadata8051">
    <rdf:RDF>
      <cc:Work
         rdf:about="">
        <dc:format>image/svg+xml</dc:format>
        <dc:type
           rdf:resource="http://purl.org/dc/dcmitype/StillImage" />
        <dc:title></dc:title>
      </cc:Work>
    </rdf:RDF>
  </metadata>
  <g
     inkscape:groupmode="layer"
     id="layer2"
     inkscape:label="q"
     style="display:inline">
    <path
       style="fill:#ffffff;fill-opacity:1;stroke:#00beee;stroke-width:1.12335062px;stroke-linecap:butt;stroke-linejoin:miter;stroke-opacity:1"
       d="M 320.08824,56.093076 C 231.58371,56.267588 170.24168,122.49484 125.25712,278.27076 82.998229,424.60802 75.832263,554.96666 262.48142,609.65919 L 140.52767,1077.8507 273.71492,1113.1659 535.28009,105.73113 380.1875,64.763938 c -21.81024,-5.763934 -41.7304,-8.707079 -60.09926,-8.670862 z m 21.80002,149.686464 c 10.00258,-0.34222 19.21231,2.70807 27.31147,5.09018 l -69.01586,260.75777 c -19.4655,-4.61747 -21.07517,-5.81291 -30.5866,-8.55972 -5.93963,-1.71531 -44.43996,-31.69046 -8.73067,-144.67233 29.09455,-92.05321 57.33137,-111.80538 81.02166,-112.6159 z"
       id="path2985"
       inkscape:connector-curvature="0"
       sodipodi:nodetypes="sscccccssccsss" />
  </g>
  <g
     inkscape:groupmode="layer"
     id="layer3"
     inkscape:label="B"
     style="display:inline">
    <path
       style="fill:#ffffff;fill-opacity:1;stroke:#00beee;stroke-width:1.12335062px;stroke-linecap:butt;stroke-linejoin:miter;stroke-opacity:1"
       d="M 606.29691,-75.584676 367.19876,845.94897 516.85012,884.88009 c 15.44376,5.00492 176.09787,66.78265 259.5642,-213.85787 39.15818,-131.6623 3.19453,-213.01536 3.19453,-213.01536 0,0 51.8444,-16.12419 98.71444,-172.92579 C 908.24596,184.97617 934.58109,8.5525173 747.137,-41.498005 670.50843,-61.959036 606.29691,-75.584676 606.29691,-75.584676 z m 102.26002,170.995023 19.58842,4.528507 c 9.36174,2.553196 47.65189,37.445286 14.74398,150.353456 -32.90791,112.90817 -64.9569,107.79425 -70.63067,105.52475 L 643.61322,348.44507 708.55693,95.410347 z M 608.4032,483.21204 l 19.58842,4.52851 c 9.36174,2.55319 47.6519,37.44528 14.74398,150.35346 -32.9079,112.90817 -64.9569,107.79425 -70.63067,105.52474 l -28.64544,-7.37198 64.94371,-253.03473 z"
       id="path3764"
       inkscape:connector-curvature="0" />
  </g>
</svg>
