<?xml version="1.0" encoding="UTF-8" standalone="no"?>
<!-- Created with Inkscape (http://www.inkscape.org/) -->

<svg
   xmlns:dc="http://purl.org/dc/elements/1.1/"
   xmlns:cc="http://creativecommons.org/ns#"
   xmlns:rdf="http://www.w3.org/1999/02/22-rdf-syntax-ns#"
   xmlns:svg="http://www.w3.org/2000/svg"
   xmlns="http://www.w3.org/2000/svg"
   xmlns:sodipodi="http://sodipodi.sourceforge.net/DTD/sodipodi-0.dtd"
   xmlns:inkscape="http://www.inkscape.org/namespaces/inkscape"
   width="1000"
   height="1000"
   viewBox="0 0 264.58333 264.58334"
   id="svg4332"
   version="1.1"
   inkscape:version="0.91+devel r13925"
   sodipodi:docname="homer-flynn.svg"
   inkscape:export-filename="/Users/agarone/Documents/git/art/the-residents/homer-flynn.png"
   inkscape:export-xdpi="96"
   inkscape:export-ydpi="96">
  <defs
     id="defs4334" />
  <sodipodi:namedview
     id="base"
     pagecolor="#ffffff"
     bordercolor="#666666"
     borderopacity="1.0"
     inkscape:pageopacity="0.0"
     inkscape:pageshadow="2"
     inkscape:zoom="1.4"
     inkscape:cx="423.15474"
     inkscape:cy="544.1729"
     inkscape:document-units="px"
     inkscape:current-layer="layer4"
     showgrid="false"
     units="px"
     showguides="true"
     inkscape:guide-bbox="true"
     inkscape:window-width="1920"
     inkscape:window-height="1151"
     inkscape:window-x="0"
     inkscape:window-y="1"
     inkscape:window-maximized="1">
    <sodipodi:guide
       position="264.58333,0"
       orientation="1,0"
       id="guide4340"
       inkscape:label=""
       inkscape:color="rgb(0,0,255)" />
    <sodipodi:guide
       position="0,0"
       orientation="1,0"
       id="guide4342"
       inkscape:label=""
       inkscape:color="rgb(0,0,255)" />
    <sodipodi:guide
       position="0,0"
       orientation="0,1"
       id="guide4344"
       inkscape:label=""
       inkscape:color="rgb(0,0,255)" />
    <sodipodi:guide
       position="0,264.58333"
       orientation="0,1"
       id="guide4346"
       inkscape:label=""
       inkscape:color="rgb(0,0,255)" />
  </sodipodi:namedview>
  <metadata
     id="metadata4337">
    <rdf:RDF>
      <cc:Work
         rdf:about="">
        <dc:format>image/svg+xml</dc:format>
        <dc:type
           rdf:resource="http://purl.org/dc/dcmitype/StillImage" />
        <dc:title />
      </cc:Work>
    </rdf:RDF>
  </metadata>
  <g
     inkscape:label="BG"
     inkscape:groupmode="layer"
     id="layer1"
     transform="translate(0,-32.41665)"
     style="display:none">
    <rect
       style="opacity:1;fill:#ffffff;fill-opacity:1;stroke:none;stroke-width:11.60810661;stroke-miterlimit:4;stroke-dasharray:none;stroke-opacity:1"
       id="rect5606"
       width="264.58334"
       height="264.58334"
       x="0"
       y="32.416653" />
  </g>
  <g
     inkscape:groupmode="layer"
     id="layer2"
     inkscape:label="Head"
     style="display:inline">
    <path
       style="fill:#3e2c26;fill-opacity:1;fill-rule:evenodd;stroke:none;stroke-width:0.26458332px;stroke-linecap:butt;stroke-linejoin:miter;stroke-opacity:1"
       d="M 93.811602,189.74786 95.155506,174.625 c 0,0 -0.944941,-0.94494 -1.984375,-1.27567 -1.039435,-0.33073 -1.511906,-1.32292 -2.031622,-1.41741 -0.519718,-0.0945 -3.023812,0.33073 -6.142114,-2.22061 -3.118303,-2.55134 -5.575149,-7.27604 -5.38616,-8.7407 0.188986,-1.46466 -2.031622,-7.27604 -1.417413,-11.90625 0.614212,-4.63021 3.118305,-18.33185 2.834823,-19.7965 -0.283483,-1.46466 1.086681,-11.00856 2.126115,-13.32367 1.039437,-2.3151 5.716891,-14.74107 5.953125,-17.623135 0.236236,-2.88207 1.417412,-10.77232 2.267857,-12.284226 0.850448,-1.511906 3.449034,-5.38616 3.449034,-6.378347 0,-0.992188 -0.236236,-1.842636 0.377976,-3.354539 0.614212,-1.511906 4.535715,-14.268603 15.024548,-22.584079 10.48884,-8.315475 22.3006,-15.969493 36.00224,-16.205729 13.70163,-0.236233 36.42745,2.74033 43.08928,13.370909 6.66183,10.63058 -7.60677,70.917786 -7.60677,70.917786 0,0 9.78014,-3.68527 15.68601,-2.36236 5.90588,1.32292 10.15811,8.88245 4.77195,18.70983 -5.38616,9.82738 -18.61532,20.55245 -20.83594,22.06435 -2.2206,1.51191 -6.00037,2.59859 -6.00037,2.59859 0,0 -1.08668,4.91369 -1.74814,6.61458 -0.66145,1.7009 -4.86644,9.02419 -4.86644,9.02419 l -45.26265,39.21503 z"
       id="path4792"
       inkscape:connector-curvature="0" />
  </g>
  <g
     inkscape:groupmode="layer"
     id="layer3"
     inkscape:label="Neck"
     style="display:inline">
    <path
       style="fill:#8b7b75;fill-opacity:1;fill-rule:evenodd;stroke:none;stroke-width:0.26458332px;stroke-linecap:butt;stroke-linejoin:miter;stroke-opacity:1"
       d="m 95.627975,175.00297 c 0,0 4.157739,10.06362 4.252232,11.48103 0.09449,1.41741 2.882073,7.27604 3.827013,9.26042 0.94494,1.98437 4.86644,6.85082 5.10267,6.75632 0.23624,-0.0945 -3.21279,-9.87463 -3.21279,-11.67001 0,-1.79539 -1.18118,-6.47285 -2.36235,-8.22099 -1.18118,-1.74813 -3.590779,-5.62239 -4.535717,-6.14211 -0.944941,-0.51972 -2.504093,-2.3151 -3.071058,-1.46466 z"
       id="path4795"
       inkscape:connector-curvature="0" />
    <path
       style="fill:#9b7365;fill-opacity:1;fill-rule:evenodd;stroke:none;stroke-width:0.26458332px;stroke-linecap:butt;stroke-linejoin:miter;stroke-opacity:1"
       d="m 101.43936,178.21577 c 0,0 8.45722,8.07924 9.68564,9.68564 1.22842,1.6064 10.58333,14.3631 12.52046,15.26079 1.93713,0.89769 9.16592,-1.84263 11.29204,-3.07106 2.12612,-1.22842 15.82775,-9.26041 15.7805,-9.5439 -0.0472,-0.28348 -14.64657,1.98438 -16.01674,1.7009 -1.37016,-0.28349 5.29167,-2.12612 8.78795,-2.36235 3.49628,-0.23624 6.61458,-0.0472 8.69345,-0.66146 2.07887,-0.61421 9.07143,-4.86645 10.67783,-6.23661 1.6064,-1.37016 9.4494,-11.76451 9.4494,-13.65439 0,-1.88988 0.0472,-6.52009 -0.89769,-6.3311 -0.94494,0.18899 -3.73251,4.96094 -5.6224,4.77195 -1.88988,-0.18899 2.55134,-11.48103 1.55916,-11.1503 -0.99219,0.33073 -28.30097,15.44978 -26.88356,15.63877 1.41741,0.18898 3.82701,-2.07887 5.38616,-1.32292 1.55915,0.75595 6.28385,1.32292 4.86644,2.45684 -1.41741,1.13393 -7.32328,0.66146 -10.20535,1.18118 -2.88207,0.51972 -12.85119,2.64583 -12.6622,4.06324 0.18898,1.41741 4.6302,3.40179 4.34672,3.87426 -0.28348,0.47247 -6.85082,-1.22842 -7.37053,-0.7087 -0.51972,0.51971 3.21279,2.45684 2.3151,2.83482 -0.89769,0.37797 -8.59896,-4.34673 -8.7407,-2.50409 -0.14174,1.84263 12.70945,7.89025 11.67001,8.50446 -1.03943,0.61421 -14.69382,-7.74851 -17.33965,-8.64621 -2.64584,-0.89769 -11.33929,-4.58296 -11.29204,-3.77976 z"
       id="path4797"
       inkscape:connector-curvature="0" />
  </g>
  <g
     inkscape:groupmode="layer"
     id="layer4"
     inkscape:label="Face"
     style="display:inline">
    <path
       style="fill:#9b7365;fill-opacity:1;fill-rule:evenodd;stroke:none;stroke-width:0.26458332px;stroke-linecap:butt;stroke-linejoin:miter;stroke-opacity:1"
       d="m 130.56116,143.30978 c -0.13363,0.60136 -0.80181,4.14268 0.0668,5.07812 0.86863,0.93545 3.94223,3.60814 3.0736,3.60814 -0.86863,0 -2.80633,-3.27405 -3.27405,-2.80633 -0.46772,0.46773 -0.60136,4.00905 -2.13816,6.88219 -1.5368,2.87315 -4.00904,4.54359 -4.00904,4.07586 0,-0.46772 4.00904,-6.21401 4.07586,-8.95353 0.0668,-2.73951 -3.4745,-9.95579 -5.87993,-11.42577 -2.40543,-1.46998 -8.15172,-4.00904 -8.68626,-5.27857 -0.53454,-1.26953 0.33409,-2.00452 -0.73499,-2.00452 -1.06908,0 -4.2095,0.66817 -6.21402,0.46772 -2.00452,-0.20045 -4.6104,-2.73951 -4.67721,-1.5368 -0.0668,1.20271 -0.0668,3.40769 0.4009,4.94449 0.46772,1.53679 4.54358,5.21175 4.07586,5.27857 -0.46772,0.0668 -5.47902,-3.34087 -7.216276,-3.40769 -1.737252,-0.0668 -3.808593,0.20045 -3.741775,0.60136 0.06682,0.4009 21.114291,9.82215 21.648831,9.35443 0.53454,-0.46772 -2.20497,-2.00452 -1.33635,-2.47224 0.86863,-0.46772 8.08491,2.60588 9.15398,4.14268 1.06908,1.5368 0.93545,3.14041 0.33409,4.67721 -0.60135,1.5368 0.20045,3.60814 -0.80181,3.74178 -1.00226,0.13363 -3.4745,-0.86863 -3.4745,-2.13816 0,-1.26953 1.00226,-3.0736 -0.0668,-3.74177 -1.06908,-0.66818 -2.40542,-2.6727 -3.87541,-2.93997 -1.46998,-0.26727 -4.07586,0.40091 -6.28083,0.13364 -2.20497,-0.26727 -9.95579,-2.87315 -9.68852,-1.73725 0.26727,1.13589 6.21402,3.94222 6.94901,4.67721 0.73499,0.73499 2.40542,2.87315 0.93544,2.80633 -1.46998,-0.0668 -9.15398,1.26953 -11.158501,0.86863 -2.004523,-0.40091 -7.817636,-4.34313 -9.153983,-3.67496 -1.336346,0.66818 -4.075858,1.1359 -3.942225,3.54132 0.133636,2.40543 1.670436,7.48355 3.407688,7.81764 1.737251,0.33408 4.276312,-1.60362 4.81085,-1.1359 0.53454,0.46772 0.801809,4.81085 4.810852,7.21628 4.009039,2.40542 10.223059,4.00904 13.163019,3.87541 2.93997,-0.13364 5.21176,-1.33635 7.81764,-1.33635 2.60588,0 9.68852,4.07586 14.2321,2.80633 4.54358,-1.26953 32.13916,-14.03165 33.20824,-15.70209 1.06908,-1.67043 3.14042,-8.68626 4.81085,-12.22758 1.67044,-3.54132 5.21176,-4.94448 5.21176,-7.61718 0,-2.67269 -2.60588,-18.24114 -2.60588,-18.24114 0,0 -23.052,5.27857 -23.25245,6.08038 -0.20045,0.80181 2.47224,2.60588 2.47224,5.41221 0,2.80633 -0.33408,6.34765 -0.73499,6.21401 -0.4009,-0.13363 0.86863,-5.34539 0.33409,-6.41447 -0.53454,-1.06907 -2.20497,-4.74403 -3.20724,-4.74403 -1.00226,0 -3.40768,0.20045 -3.40768,0.66817 0,0.46773 1.9377,3.54133 1.9377,5.01131 0,1.46998 1.20271,3.54132 0.60136,3.54132 -0.60136,0 -1.26953,-3.27405 -1.67044,-4.47677 -0.4009,-1.20271 -1.13589,-3.67495 -1.9377,-3.67495 -0.80181,0 -8.01809,1.06908 -10.15624,2.47224 -2.13816,1.40317 -7.2831,3.40769 -6.68174,5.47903 0.60136,2.07134 2.13816,3.54132 2.47224,6.21401 z"
       id="path4800"
       inkscape:connector-curvature="0" />
    <path
       style="fill:#8b7b75;fill-opacity:1;fill-rule:evenodd;stroke:none;stroke-width:0.26458332px;stroke-linecap:butt;stroke-linejoin:miter;stroke-opacity:1"
       d="m 93.477515,145.58157 c -0.334086,-1.13589 -1.870884,-2.13815 -2.605876,-3.20723 -0.734991,-1.06908 -1.403167,-3.40769 -1.804069,-3.20723 -0.400905,0.20045 -0.400905,1.73725 -1.202714,2.67269 -0.801809,0.93544 -1.603618,0 -2.53906,0.80181 -0.935443,0.80181 -0.935443,3.0736 -2.071339,2.6727 -1.135896,-0.40091 -1.469982,-6.21402 -1.00226,-7.41674 0.46772,-1.20271 1.937703,-4.20949 2.539061,-3.54132 0.601355,0.66818 6.414468,5.34539 7.617179,5.14494 1.202714,-0.20045 1.536801,-4.14268 2.138156,-4.67721 0.601359,-0.53454 1.670437,-3.20724 2.472243,-2.6727 0.801809,0.53454 3.741774,4.87767 3.741774,4.07586 0,-0.80181 -0.46772,-4.6104 -1.135895,-4.67722 -0.668174,-0.0668 -1.737252,0.0668 -2.605879,-0.73499 -0.868624,-0.80181 -1.536798,-1.80407 -2.204971,-2.40542 -0.668176,-0.60136 -2.605879,-0.53454 -2.672697,-1.20272 -0.06682,-0.66817 1.069079,-1.67043 0,-1.67043 -1.069078,0 -3.741774,2.67269 -5.078121,3.80859 -1.336347,1.1359 -4.409948,6.34765 -4.476763,5.7463 -0.06682,-0.60136 2.071338,-9.42126 3.674954,-11.62623 1.603618,-2.20497 6.080381,-3.4745 6.614922,-4.40995 0.534538,-0.93544 2.338607,-5.21175 0.06682,-6.01356 -2.271792,-0.80181 -6.280836,-2.60588 -7.550365,-0.60136 -1.269531,2.00453 -3.407687,7.08265 -3.407687,10.82442 0,3.74177 -0.400905,8.48581 -1.202711,12.62848 -0.80181,4.14268 -2.539061,12.96258 -2.539061,14.90028 0,1.9377 1.069078,9.88897 2.071338,11.1585 1.00226,1.26953 5.011304,2.20498 4.944486,0.46772 -0.06682,-1.73725 -2.204974,-5.94674 -1.469983,-7.28309 0.734991,-1.33635 3.87541,-3.87541 5.879931,-3.87541 2.00452,0 4.276312,-2.13815 3.808589,-5.67948 z"
       id="path4802"
       inkscape:connector-curvature="0" />
    <path
       style="fill:#9b7365;fill-opacity:1;fill-rule:evenodd;stroke:none;stroke-width:0.26458332px;stroke-linecap:butt;stroke-linejoin:miter;stroke-opacity:1"
       d="m 125.68349,86.915912 c 0.66818,-2.071338 15.23437,0.868627 17.70661,-1.46998 2.47224,-2.338609 5.0113,-3.674956 3.27405,-5.813112 -1.73725,-2.138157 -9.6217,-4.610399 -8.35217,-7.14946 1.26953,-2.539061 25.19015,-3.741775 25.79151,-6.214017 0.60136,-2.472243 -11.62623,-19.777946 -8.61945,-20.913842 3.00679,-1.135893 12.16077,-5.946745 17.03844,-3.875407 4.87767,2.071338 11.22532,9.153983 11.22532,12.49485 0,3.34087 -14.76664,62.206986 -14.76664,62.206986 L 146.8646,115.3133 c 0,0 -2.13815,-5.7463 -3.00678,-7.28309 -0.86862,-1.5368 -5.47902,-5.81312 -3.4745,-5.54585 2.00452,0.26727 7.21627,6.1472 7.81763,5.47903 0.60136,-0.66817 -1.67043,-8.151721 -10.55715,-12.561669 -8.88671,-4.409947 -19.2434,-4.142679 -11.96031,-8.485809 z"
       id="path4804"
       inkscape:connector-curvature="0" />
    <path
       style="fill:#9b7365;fill-opacity:1;fill-rule:evenodd;stroke:none;stroke-width:0.26458332px;stroke-linecap:butt;stroke-linejoin:miter;stroke-opacity:1"
       d="m 119.9372,81.303253 c 0.66817,0.601356 -2.13816,7.617182 -1.1359,9.755338 1.00226,2.138156 6.88219,1.403165 6.74856,0 -0.13364,-1.403164 2.45487,-3.877374 5.32802,-4.077828 2.87315,-0.200451 24.53311,3.44371 25.73582,0.837832 1.20272,-2.605879 -8.6214,-11.459829 -8.02005,-14.934332 0.60136,-3.474503 17.91886,-2.294719 18.25295,-7.773745 0.33409,-5.479023 -9.30892,-11.681231 -8.34071,-19.999356 0.60178,-5.169996 -20.59482,-3.430614 -28.6129,-1.359276 -8.01809,2.071338 -15.10073,4.209494 -19.10977,13.563928 -4.00905,9.354433 -4.94449,13.02939 -3.47451,14.03165 1.46999,1.00226 -2.47224,-0.53454 -2.67269,0.935442 -0.20045,1.469983 2.80633,5.345391 2.13815,6.080382 -0.66817,0.734991 -3.14041,-1.937703 -3.67495,-0.668174 -0.53454,1.269532 -0.26727,4.209495 0.86862,5.679477 1.1359,1.469983 3.60814,4.209497 3.60814,3.140419 0,-1.069078 1.20272,-3.34087 1.46999,-2.873147 0.26727,0.46772 -0.80181,4.877668 0.0668,5.011303 0.86863,0.133634 3.20724,-7.216277 3.74178,-6.748557 0.53454,0.467722 -3.34087,7.015826 -2.33861,7.617182 1.00226,0.601358 4.87767,-5.946746 5.27857,-5.813113 0.40091,0.133636 -4.47676,5.813113 -3.40768,7.015827 1.06907,1.202713 3.67495,4.209494 1.40316,6.013563 -2.27179,1.80407 -6.1472,4.877672 -4.94449,5.078122 1.20272,0.20045 5.27858,-5.813113 7.08265,-5.813113 1.80407,0 -0.73499,-3.80859 0.4009,-7.283095 1.13589,-3.474503 2.27179,-6.949006 3.60814,-7.416729 z"
       id="path4806"
       inkscape:connector-curvature="0"
       sodipodi:nodetypes="cssssssssssssssssssssssssscc" />
    <path
       style="fill:#b4968c;fill-opacity:1;fill-rule:evenodd;stroke:none;stroke-width:0.26458332px;stroke-linecap:butt;stroke-linejoin:miter;stroke-opacity:1"
       d="m 117.19769,96.938522 c -1.1359,0 -11.82668,7.750818 -13.22985,9.822158 -1.40316,2.07133 -2.47224,3.54132 -3.34086,4.61039 -0.868629,1.06908 -5.278577,3.94223 -6.280838,5.61267 -1.00226,1.67043 1.870888,6.28083 2.605879,6.34765 0.734991,0.0668 0.46772,5.07812 2.605876,5.07812 2.138153,0 6.080383,-0.80181 8.285353,-0.46772 2.20498,0.33408 5.7463,5.07812 6.54811,3.40768 0.80181,-1.67043 0.66817,-4.67721 -0.26727,-5.67948 -0.93545,-1.00226 -4.00905,-1.87088 -3.54132,-2.80633 0.46772,-0.93544 0.86862,-2.00452 0.4009,-4.94448 -0.46772,-2.93997 -1.13589,-9.95579 -0.13363,-10.28988 1.00226,-0.33408 2.20497,10.02261 3.34087,11.15851 1.13589,1.13589 1.53679,3.07359 2.60587,2.53906 1.06908,-0.53454 1.5368,-4.61041 2.87315,-4.61041 1.33635,0 3.20723,4.34313 3.87541,3.47451 0.66817,-0.86863 -3.74178,-8.55262 -2.6727,-9.35443 1.06908,-0.80181 2.20498,0.33408 2.20498,-0.13364 0,-0.46772 -4.6104,-5.61266 -4.6104,-7.34991 0,-1.73725 1.13589,-2.27179 0.73499,-3.407687 -0.40091,-1.135896 -0.0668,-1.403165 -2.00452,-3.006781 z"
       id="path4808"
       inkscape:connector-curvature="0" />
    <path
       style="fill:#ddccc6;fill-opacity:1;fill-rule:evenodd;stroke:none;stroke-width:0.26458332px;stroke-linecap:butt;stroke-linejoin:miter;stroke-opacity:1"
       d="m 101.76287,121.59413 c 0,-1.00226 0.86863,-1.60361 1.67044,-0.66817 0.8018,0.93544 1.40316,4.00904 -1.67044,0.66817 z"
       id="path4810"
       inkscape:connector-curvature="0" />
    <path
       style="fill:#ddccc6;fill-opacity:1;fill-rule:evenodd;stroke:none;stroke-width:0.26458332px;stroke-linecap:butt;stroke-linejoin:miter;stroke-opacity:1"
       d="m 102.96558,115.44694 c 0.60136,0.13363 1.80407,-0.13364 4.27632,-3.40769 2.47224,-3.27405 4.94448,-6.28083 4.40994,-6.74856 -0.53454,-0.46772 -4.40994,5.87993 -5.47902,6.74856 -1.06908,0.86862 -3.40769,2.53906 -3.20724,3.40769 z"
       id="path4812"
       inkscape:connector-curvature="0" />
    <path
       style="fill:#8b7b75;fill-opacity:1;fill-rule:evenodd;stroke:none;stroke-width:0.26458332px;stroke-linecap:butt;stroke-linejoin:miter;stroke-opacity:1"
       d="m 89.668926,103.82071 c 0.200451,0.33409 -1.403165,5.34539 -0.267269,6.88219 1.135896,1.5368 7.149459,3.34087 7.884451,2.13816 0.734991,-1.20271 -0.133636,-1.5368 -0.400905,-1.5368 -0.267269,0 -2.939965,1.06907 -2.806329,0.4009 0.133633,-0.66817 5.34539,-3.60814 4.610399,-4.74403 -0.734992,-1.1359 -2.405428,-3.40769 -3.741775,-4.34313 -1.336347,-0.93545 -2.405425,-2.27179 -2.338607,-3.14042 0.06682,-0.868624 -0.868627,2.80633 -1.269532,2.40543 -0.400904,-0.40091 -1.00226,-6.681742 -0.334086,-9.421254 0.668173,-2.739512 3.407687,-8.753078 5.078121,-8.753078 1.670434,0 9.688516,3.942226 9.621706,3.140419 -0.0668,-0.801809 -3.54132,-2.873147 -3.54132,-5.34539 0,-2.472246 0.93544,-3.073601 0.13363,-3.474506 -0.80181,-0.400904 -5.746294,0.668174 -5.278574,0 0.467723,-0.668173 5.412204,0.200454 5.545844,-0.668173 0.13364,-0.868625 2.00452,-4.34313 1.20271,-4.677217 -0.80181,-0.334087 -5.345386,0.200454 -4.476762,-0.06682 0.868632,-0.267269 5.345392,-0.334087 6.080382,-1.202711 0.73499,-0.868627 2.40542,-8.68626 0.13364,-8.953529 -2.2718,-0.267272 -5.612666,3.80859 -7.550369,7.750815 -1.937705,3.942226 -2.939965,7.082642 -2.873147,8.084905 0.06682,1.00226 0.734991,1.670433 -0.133636,3.00678 -0.868624,1.336347 -3.00678,4.409948 -3.541321,6.280835 -0.534538,1.870885 -1.135896,9.488067 -2.071338,12.628484 -0.935445,3.14042 -3.34087,8.21854 -2.939965,8.21854 0.400904,0 2.138156,-5.61266 3.274052,-4.6104 z"
       id="path4814"
       inkscape:connector-curvature="0" />
    <path
       style="fill:#9b7365;fill-rule:evenodd;stroke:none;stroke-width:0.26458332px;stroke-linecap:butt;stroke-linejoin:miter;stroke-opacity:1;fill-opacity:1"
       d="m 141.36309,114.62128 c -1.60639,0 -5.38616,-0.66146 -6.99256,-0.85045 -1.60639,-0.18899 -3.96875,-1.98437 -3.96875,-1.41741 0,0.56696 1.51191,2.17336 3.96875,2.74033 2.45685,0.56696 9.16593,2.07887 7.84301,2.26786 -1.32292,0.18898 -6.70908,-1.88989 -5.76414,-1.03944 0.94495,0.85045 5.10268,3.1183 4.15774,3.1183 -0.94494,0 -3.59077,-1.98437 -3.49628,-1.5119 0.0945,0.47247 5.95313,4.25223 4.91369,4.06324 -1.03943,-0.18898 -7.18154,-3.30729 -7.18154,-3.30729 0,0 3.87425,2.74033 3.40178,2.74033 -0.47247,0 -3.77976,-2.26786 -5.38616,-2.64583 -1.6064,-0.37798 -6.70908,-3.59078 -7.08705,-3.3073 -0.37798,0.28349 1.41741,4.63021 3.96874,5.76414 2.55134,1.13393 9.6384,3.96875 9.16593,3.68527 -0.47247,-0.28348 -5.76414,-4.06325 -4.91369,-3.87426 0.85045,0.18899 6.89806,4.25224 6.61458,3.59078 -0.28348,-0.66146 -1.98437,-1.98438 -0.94494,-1.98438 1.03944,0 3.02381,1.7009 3.40179,1.03944 0.37797,-0.66146 3.21279,-4.34673 2.45684,-4.91369 -0.75595,-0.56697 -3.30729,-3.59078 -4.15774,-4.15774 z"
       id="path5027"
       inkscape:connector-curvature="0" />
    <path
       style="fill:#9b7365;fill-rule:evenodd;stroke:none;stroke-width:0.26458332px;stroke-linecap:butt;stroke-linejoin:miter;stroke-opacity:1;fill-opacity:1"
       d="m 132.19717,104.98288 2.17336,0.18899 c 0,0 1.7009,1.55916 2.05525,1.55916 0.35435,0 -1.98438,-2.57497 -1.6064,-2.5041 0.37798,0.0709 6.68545,5.78776 6.54371,5.45703 -0.14174,-0.33073 -1.72451,-2.83482 -2.29148,-3.14192 -0.56696,-0.30711 -3.9215,-3.14193 -3.35454,-3.14193 0.56697,0 3.54353,1.41741 4.84282,2.59859 1.2993,1.18117 3.56715,4.06324 3.68527,5.00818 0.11812,0.94494 -7.63039,-2.38597 -8.36272,-2.83482 -0.73233,-0.44885 -3.94513,-2.88207 -3.68527,-3.18918 z"
       id="path5029"
       inkscape:connector-curvature="0" />
  </g>
  <g
     inkscape:groupmode="layer"
     id="layer5"
     inkscape:label="Ear"
     style="display:inline">
    <path
       style="fill:#b4968c;fill-opacity:1;fill-rule:evenodd;stroke:none;stroke-width:0.26458332px;stroke-linecap:butt;stroke-linejoin:miter;stroke-opacity:1"
       d="m 176.93243,135.09125 c 0,0 0.73499,5.94674 -0.0668,6.48128 -0.80181,0.53454 -0.93545,0 -1.5368,0.46772 -0.60136,0.46772 -1.93771,1.73726 -3.14042,5.01131 -1.20271,3.27405 -4.20949,7.88445 -4.00904,9.6217 0.20045,1.73725 2.00452,5.47903 3.20723,5.47903 1.20272,0 5.34539,-0.0668 7.21628,-1.00227 1.87089,-0.93544 14.16528,-9.82215 17.3057,-14.43255 3.14042,-4.6104 7.14946,-9.6217 7.48355,-13.22984 0.33409,-3.60814 0.4009,-7.55036 -0.40091,-9.35443 -0.80181,-1.80407 -6.21401,-4.2095 -6.41446,-2.6727 -0.20046,1.5368 5.27857,3.74177 5.27857,5.81311 0,2.07134 -1.20272,10.69078 -1.93771,11.42577 -0.73499,0.735 0.80181,2.07134 -0.33408,2.20498 -1.1359,0.13363 -2.47225,-1.93771 -2.73952,-1.00226 -0.26726,0.93544 1.53681,3.80859 0.66818,3.74177 -0.86863,-0.0668 -1.1359,-2.07134 -1.9377,-1.9377 -0.80181,0.13363 -7.14946,9.75533 -7.41674,8.68625 -0.26726,-1.06907 5.27858,-6.74855 4.67722,-8.01808 -0.60135,-1.26953 -5.81311,2.67269 -5.74629,3.60814 0.0668,0.93544 1.20271,2.47224 0.66817,2.47224 -0.53454,0 -0.80181,-2.47224 -2.33861,-2.67269 -1.5368,-0.20046 -1.40316,-0.20046 -2.47224,0.26727 -1.06908,0.46772 -3.67496,2.60587 -3.67496,1.87088 0,-0.73499 6.21402,-2.13815 4.94449,-3.20723 -1.26953,-1.06908 -5.34539,-1.06908 -4.94449,-2.80633 0.40091,-1.73725 -0.66817,-3.60814 0,-5.14494 0.66818,-1.5368 -0.0668,-3.20724 -2.3386,-1.67043 z"
       id="path4825"
       inkscape:connector-curvature="0" />
  </g>
  <g
     inkscape:groupmode="layer"
     id="layer6"
     inkscape:label="Hair"
     style="display:inline">
    <path
       style="fill:#303030;fill-opacity:1;fill-rule:evenodd;stroke:none;stroke-width:0.26458332px;stroke-linecap:butt;stroke-linejoin:miter;stroke-opacity:1"
       d="m 174.625,43.46726 c 3.77976,2.267858 6.99256,8.315476 5.29166,12.473215 -1.70089,4.157739 1.32292,11.717261 -2.07886,15.308035 -3.40179,3.590774 -7.9375,30.42708 -12.28423,35.15179 -4.34673,4.7247 -6.72866,5.17123 -5.39231,4.70351 1.33635,-0.46773 6.21402,-4.67722 6.41447,-4.27632 0.20045,0.40091 -2.80633,5.47903 -2.53906,5.54584 0.26727,0.0668 3.94223,-6.949 4.14268,-4.40994 0.20045,2.53906 -1.80407,10.22306 0.0668,14.29892 1.87088,4.07586 -8.61945,17.63979 -7.88445,17.50615 0.73499,-0.13363 9.55488,-4.47676 12.36121,-4.6104 2.80633,-0.13363 7.55036,4.67722 10.22306,4.81086 2.67269,0.13363 3.4745,-1.60362 3.4745,-1.60362 0,0 -1.67043,2.3386 -4.20949,0.86862 -2.53906,-1.46998 -5.0113,-4.87767 -3.4745,-5.4122 1.53679,-0.53454 3.14041,2.40542 4.94448,2.40542 1.80407,0 5.81311,-1.20271 5.27857,-1.40316 -0.53453,-0.20046 -2.07133,1.5368 -4.27631,0.66817 -2.20497,-0.86863 -5.14494,-3.4745 -4.00904,-3.87541 1.13589,-0.4009 5.74629,-0.20045 7.28309,-1.13589 1.5368,-0.93545 2.47225,-3.0736 2.07134,-3.00679 -0.4009,0.0668 -0.60135,2.20498 -4.00904,2.47225 -3.40769,0.26727 -7.95127,-2.27179 -6.61492,-3.74178 1.33635,-1.46998 3.34087,-4.40994 6.48129,-3.94222 3.14041,0.46772 11.09168,4.54358 14.76663,4.54358 3.67496,0 6.28084,-0.40091 5.67948,-0.53454 -0.60135,-0.13363 -1.26953,0.86863 -4.67721,-0.53454 -3.40769,-1.40316 -7.81764,-4.81085 -6.21402,-5.34539 1.60362,-0.53454 6.658,-0.5555 8.46485,5.12202 1.37922,4.33382 -2.64502,14.72543 -4.78318,17.13086 -2.13816,2.40543 -14.13285,14.78885 -17.17878,16.81433 -2.82061,1.87565 -6.74184,3.14517 -6.74184,3.14517 0,0 -4.28303,8.4352 -2.94668,8.63565 1.33635,0.20045 12.56167,-1.46998 18.37478,-1.06908 5.81311,0.4009 6.28083,-2.47224 8.61944,-4.34313 2.33861,-1.87089 13.76438,-8.48581 13.16303,-10.08942 -0.60136,-1.60362 -8.01809,4.47676 -7.48355,2.67269 0.53454,-1.80407 7.21627,-3.34087 6.1472,-6.48129 -1.06908,-3.14041 -7.48355,-1.73725 -7.14946,-3.8754 0.33408,-2.13816 12.16076,-15.63527 11.82667,-18.77569 -0.33408,-3.14041 -3.8754,-4.34313 -3.54132,-7.28309 0.33409,-2.93997 2.40543,-17.90706 3.94223,-20.31249 1.5368,-2.405421 3.94222,-5.078117 3.67495,-10.35669 -0.26726,-5.278572 -3.67495,-10.891231 -3.80859,-16.570711 -0.13363,-5.679477 -0.46772,-14.365737 -2.40542,-16.637526 -1.93771,-2.271792 -3.67496,-1.202714 -3.67496,-3.608139 0,-2.405425 -0.80181,-8.619442 -10.62396,-14.833459 -9.82216,-6.214015 -17.77342,-3.942226 -19.9784,-4.610399 -2.20497,-0.668174 -0.33409,-9.95579 -19.57749,-12.093946 -19.24341,-2.138156 -32.40643,-7.015825 -44.36674,2.672695 -11.96031,9.688519 -16.570714,13.898016 -15.768905,18.241144 0.801805,4.34313 -4.543581,15.501633 -7.483547,18.642049 -2.939965,3.140419 -5.412208,13.497113 -7.283095,16.236625 -1.870884,2.739514 -7.015824,6.614921 -6.080381,6.147199 0.935444,-0.467723 5.211757,-4.209494 5.813112,-3.80859 0.601356,0.400905 -8.68626,15.30118 -8.018086,14.699824 0.668176,-0.601358 6.815372,-9.554887 7.550364,-9.554887 0.734991,0 -6.614919,14.031651 -5.946746,14.031651 0.668173,0 7.483546,-14.766642 9.354434,-14.098466 1.870887,0.668173 -1.737252,12.294396 -1.269532,11.425771 0.467722,-0.868627 5.154959,-11.111744 6.013566,-13.229841 0.62782,-1.548768 1.613262,-1.764898 2.090219,-3.31906 0.589033,-1.91936 0.650666,-5.135062 1.278327,-6.503096 1.185425,-2.583723 7.56658,-14.761894 13.44651,-19.505926 5.87993,-4.744035 15.45774,-11.029617 21.27085,-11.363704 5.81311,-0.334087 20.3793,3.608139 24.5888,3.474503 4.20949,-0.133633 9.42125,-4.009041 12.02712,-4.744032 2.60588,-0.734991 6.07593,-0.03471 7.64837,1.051721 z"
       id="path4828"
       inkscape:connector-curvature="0"
       sodipodi:nodetypes="cssssscsscsscssscssscsssssssssscssssssssssssssssssssssssssssssssssscc" />
    <path
       style="fill:#454545;fill-opacity:1;fill-rule:evenodd;stroke:none;stroke-width:0.26458332px;stroke-linecap:butt;stroke-linejoin:miter;stroke-opacity:1"
       d="m 105.83333,38.931548 c 3.96875,-1.322917 11.52828,-13.607144 18.89881,-11.150298 7.37054,2.456844 7.55952,12.095236 11.1503,12.85119 3.59077,0.755952 9.26042,5.480654 16.63095,4.157737 7.37054,-1.322917 17.95387,-4.913691 21.73363,-4.913691 3.77976,0 5.48066,-0.755952 3.96875,-3.023809 -1.5119,-2.267858 -20.22172,-5.291667 -26.26934,-6.992559 -6.04762,-1.700893 -12.09524,-8.126488 -19.65477,-8.315476 -7.55952,-0.188988 -22.1116,7.748511 -26.45833,17.386906 z"
       id="path4830"
       inkscape:connector-curvature="0" />
    <path
       style="fill:#454545;fill-opacity:1;fill-rule:evenodd;stroke:none;stroke-width:0.26458332px;stroke-linecap:butt;stroke-linejoin:miter;stroke-opacity:1"
       d="m 191.06696,51.40476 c -0.18899,3.023809 -10.20535,18.520833 -13.04018,26.458333 -2.83482,7.9375 -10.58333,33.072917 -9.82738,34.584827 0.75596,1.5119 5.66965,-11.1503 7.37054,-9.6384 1.70089,1.51191 -1.70089,10.77232 4.53571,15.875 6.23661,5.10268 21.92262,7.74851 20.03274,6.99256 -1.88988,-0.75595 -9.4494,-3.40178 -6.99256,-6.04762 2.45685,-2.64583 12.47322,0.56697 13.04018,3.59078 0.56696,3.02381 0,15.875 -5.48066,21.92262 -5.48065,6.04761 -16.81994,13.04017 -13.04017,13.04017 3.77976,0 15.875,-4.53571 15.875,-7.55952 0,-3.02381 10.39434,-15.875 9.63839,-20.03274 -0.75595,-4.15774 -11.1503,-13.60714 -10.20536,-26.64732 0.94494,-13.040177 9.63839,-31.372023 9.44941,-36.66369 -0.18899,-5.291667 -4.15774,-17.197917 -8.88244,-17.575892 -4.72471,-0.377976 -8.12649,-1.322917 -12.47322,1.700892 z"
       id="path4832"
       inkscape:connector-curvature="0" />
  </g>
  <g
     inkscape:groupmode="layer"
     id="layer7"
     inkscape:label="Glasses"
     style="display:inline">
    <path
       style="fill:#b3b100;fill-opacity:1;fill-rule:evenodd;stroke:none;stroke-width:0.26458332px;stroke-linecap:butt;stroke-linejoin:miter;stroke-opacity:1"
       d="m 182.18452,119.44047 -30.61607,3.77977 c 0,0 1.79539,-7.27605 1.32292,-7.65402 -0.47247,-0.37798 -1.79539,-1.6064 -1.79539,-1.6064 l 27.0253,1.79539 c 0,0 0,2.92931 4.06324,3.68526 z"
       id="path4835"
       inkscape:connector-curvature="0" />
    <path
       style="fill:#b3b100;fill-opacity:1;fill-rule:evenodd;stroke:none;stroke-width:0.26458332px;stroke-linecap:butt;stroke-linejoin:miter;stroke-opacity:1"
       d="m 90.903273,88.25744 c 0,0 -8.882441,-0.283483 -11.244791,0 -2.362351,0.283482 -6.898066,0.472469 -6.898066,0.472469 l 0.566965,7.370535 c 0,0 8.220982,-3.779761 10.866816,-3.779761 2.645833,0 6.3311,-0.472469 6.3311,-0.472469 0,0 -0.0945,-2.456847 0.377976,-3.590774 z"
       id="path4837"
       inkscape:connector-curvature="0" />
    <path
       style="fill:#171717;fill-opacity:1;fill-rule:evenodd;stroke:none;stroke-width:0.99999994px;stroke-linecap:butt;stroke-linejoin:miter;stroke-opacity:1"
       d="m 277.7168,336.16016 c -3.27733,-0.0505 -5.72964,0.24581 -7.00196,0.98242 -1.78571,2.14285 -5.71484,23.57142 -5.71484,27.5 0,3.92857 7.85686,7.85798 9.64258,11.07226 1.7857,3.21428 1.42969,16.42858 1.42969,20 0,3.57143 31.07114,23.92861 44.64257,30 13.57142,6.07144 49.6423,7.14284 54.28516,5 4.64285,-2.14284 17.49947,-30.00139 21.78516,-31.78711 4.28572,-1.78571 13.21487,2.85852 18.21484,6.78711 5.00001,3.92856 4.28655,31.07172 8.57227,42.85743 4.28572,11.78573 33.92687,21.4283 52.85546,29.64257 18.92856,8.21432 57.85826,7.85743 63.92969,7.85743 6.07143,0 12.14202,-18.57171 16.42774,-20.35743 4.28572,-1.78571 11.7857,1.07032 15,1.07032 3.21426,0 6.78686,-29.286 3.92968,-32.85743 -2.85713,-3.57142 -58.92881,-28.57003 -82.85742,-38.21289 -23.92856,-9.64286 -66.07256,-9.64341 -78.92969,-13.21484 -12.85715,-3.57143 -56.07031,-26.4294 -76.07031,-33.57227 -16.25,-5.80357 -45.93888,-12.54881 -60.14062,-12.76757 z m 25.46484,10.27734 c 8.72157,0.0816 19.51897,1.57506 28.96094,4.99023 16.78571,6.07143 54.28655,26.78654 56.07226,33.57227 1.78572,6.78573 -16.07254,42.5 -21.42968,42.5 -5.35714,0 -30.35604,1.07144 -46.07032,-7.5 -15.71429,-8.57144 -34.99971,-23.21432 -37.14257,-27.5 -0.35713,-4.64289 -1.42886,-40.71345 4.64257,-43.92773 2.65625,-1.40626 8.18335,-2.19825 14.9668,-2.13477 z m 146.99609,48.29492 c 10.44644,0.0893 22.67886,1.33846 31.60743,4.55274 17.85713,6.42859 60.71542,24.64286 63.92968,30 3.2143,5.35717 2.85743,21.07169 0.35743,27.85742 -2.50001,6.78572 -10.00003,23.92969 -15,23.92969 -5.00002,0 -34.28713,-10e-4 -56.78711,-8.92969 -22.50002,-8.92857 -42.85742,-19.28518 -45.35743,-26.78516 -2.5,-7.50002 -4.28546,-36.07198 0.35743,-48.21484 1.78571,-1.42857 10.44614,-2.49944 20.89257,-2.41016 z"
       transform="scale(0.26458333)"
       id="path4839"
       inkscape:connector-curvature="0" />
  </g>
  <g
     inkscape:groupmode="layer"
     id="layer8"
     inkscape:label="Shirt">
    <path
       style="fill:#191010;fill-opacity:1;fill-rule:evenodd;stroke:none;stroke-width:0.26458332px;stroke-linecap:butt;stroke-linejoin:miter;stroke-opacity:1"
       d="m 124.92113,205.99702 c 6.23661,-1.5119 27.89664,-16.27686 32.97171,-18.73274 7.42033,-3.59078 13.96219,-18.70982 16.92115,-18.87589 1.96999,-0.11056 8.88244,-0.37798 11.52827,1.51191 2.64583,1.88988 14.93006,12.6622 21.54464,15.30803 6.61459,2.64583 19.65476,7.55953 21.54465,9.44941 1.88988,1.88988 3.21279,5.85863 6.80357,7.37053 3.59077,1.5119 10.01637,6.23661 12.28422,12.47322 2.26786,6.2366 10.20536,19.27678 10.39435,23.62351 0.18899,4.34672 5.66963,20.5997 5.66963,20.5997 l 0,5.85863 -254.7559392,0 c 0,0 6.9925592,-36.09673 8.6934522,-38.74256 1.700893,-2.64583 10.016368,-13.98512 15.875,-17.3869 5.858632,-3.40179 18.331844,-8.31548 23.056548,-13.04018 4.724702,-4.7247 2.645833,-5.29167 6.614583,-6.61458 3.96875,-1.32292 18.898809,-6.80358 22.489583,-9.26042 3.590774,-2.45685 8.416685,-5.26874 8.605674,-4.13482 0.188987,1.13393 4.581569,17.04137 8.172339,21.57708 3.59078,4.53572 11.00324,10.90595 13.27109,10.90595 2.26786,0 8.31548,-1.88988 8.31548,-1.88988 z"
       id="path5034"
       inkscape:connector-curvature="0"
       sodipodi:nodetypes="csssssssscccssssssssc" />
  </g>
</svg>
