<?xml version="1.0" encoding="UTF-8" standalone="no"?>
<svg
   xmlns:dc="http://purl.org/dc/elements/1.1/"
   xmlns:cc="http://creativecommons.org/ns#"
   xmlns:rdf="http://www.w3.org/1999/02/22-rdf-syntax-ns#"
   xmlns:svg="http://www.w3.org/2000/svg"
   xmlns="http://www.w3.org/2000/svg"
   xmlns:xlink="http://www.w3.org/1999/xlink"
   xmlns:sodipodi="http://sodipodi.sourceforge.net/DTD/sodipodi-0.dtd"
   xmlns:inkscape="http://www.inkscape.org/namespaces/inkscape"
   width="1000"
   height="1000"
   id="svg4051"
   version="1.1"
   inkscape:version="0.48.2 r9819"
   sodipodi:docname="residents-optimized.svg">
  <defs
     id="defs4053">
    <linearGradient
       id="linearGradient5627">
      <stop
         offset="0"
         id="stop5629"
         style="stop-color:#f80000;stop-opacity:1" />
      <stop
         offset="1"
         id="stop5631"
         style="stop-color:#e69595;stop-opacity:1" />
    </linearGradient>
    <linearGradient
       id="linearGradient5619">
      <stop
         offset="0"
         id="stop5621"
         style="stop-color:#000000;stop-opacity:1" />
      <stop
         offset="1"
         id="stop5623"
         style="stop-color:#000000;stop-opacity:0" />
    </linearGradient>
    <linearGradient
       inkscape:collect="always"
       id="linearGradient4846">
      <stop
         offset="0"
         id="stop4848"
         style="stop-color:#d1d1d1;stop-opacity:1" />
      <stop
         offset="1"
         id="stop4850"
         style="stop-color:#d1d1d1;stop-opacity:0" />
    </linearGradient>
    <linearGradient
       id="linearGradient4838">
      <stop
         offset="0"
         id="stop4840"
         style="stop-color:#606060;stop-opacity:1" />
      <stop
         offset="1"
         id="stop4842"
         style="stop-color:#ffffff;stop-opacity:1" />
    </linearGradient>
    <linearGradient
       id="linearGradient4776">
      <stop
         id="stop4778"
         offset="0"
         style="stop-color:#c9c9c9;stop-opacity:1" />
      <stop
         id="stop4780"
         offset="1"
         style="stop-color:#555555;stop-opacity:1" />
    </linearGradient>
    <linearGradient
       id="linearGradient4760">
      <stop
         id="stop4762"
         offset="0"
         style="stop-color:#000000;stop-opacity:1" />
      <stop
         offset="0.52"
         id="stop4764"
         style="stop-color:#555555;stop-opacity:1" />
      <stop
         id="stop4766"
         offset="1"
         style="stop-color:#000000;stop-opacity:1" />
    </linearGradient>
    <linearGradient
       id="linearGradient4744">
      <stop
         offset="0"
         id="stop4746"
         style="stop-color:#000000;stop-opacity:1" />
      <stop
         id="stop4748"
         offset="0.65"
         style="stop-color:#555555;stop-opacity:1" />
      <stop
         offset="1"
         id="stop4750"
         style="stop-color:#000000;stop-opacity:1" />
    </linearGradient>
    <linearGradient
       id="linearGradient4728">
      <stop
         id="stop4730"
         offset="0"
         style="stop-color:#000000;stop-opacity:1" />
      <stop
         offset="0.72"
         id="stop4732"
         style="stop-color:#555555;stop-opacity:1" />
      <stop
         id="stop4734"
         offset="1"
         style="stop-color:#000000;stop-opacity:1" />
    </linearGradient>
    <linearGradient
       id="linearGradient4708">
      <stop
         offset="0"
         id="stop4710"
         style="stop-color:#000000;stop-opacity:1" />
      <stop
         id="stop4718"
         offset="0.5"
         style="stop-color:#555555;stop-opacity:1" />
      <stop
         offset="1"
         id="stop4712"
         style="stop-color:#000000;stop-opacity:1" />
    </linearGradient>
    <linearGradient
       id="linearGradient4679">
      <stop
         offset="0"
         id="stop4681"
         style="stop-color:#000000;stop-opacity:1" />
      <stop
         offset="1"
         id="stop4683"
         style="stop-color:#555555;stop-opacity:1" />
    </linearGradient>
    <linearGradient
       inkscape:collect="always"
       xlink:href="#linearGradient4679"
       id="linearGradient4685"
       x1="430.5"
       y1="849.75"
       x2="231"
       y2="828.25"
       gradientUnits="userSpaceOnUse" />
    <linearGradient
       inkscape:collect="always"
       xlink:href="#linearGradient4679"
       id="linearGradient4687"
       x1="569.5"
       y1="893.5"
       x2="751.5"
       y2="807"
       gradientUnits="userSpaceOnUse" />
    <linearGradient
       inkscape:collect="always"
       xlink:href="#linearGradient4708"
       id="linearGradient4716"
       x1="298.55"
       y1="260.38"
       x2="630.42"
       y2="195.33"
       gradientUnits="userSpaceOnUse" />
    <linearGradient
       inkscape:collect="always"
       xlink:href="#linearGradient4728"
       id="linearGradient4726"
       x1="347.7"
       y1="348.4"
       x2="632.87"
       y2="298.9"
       gradientUnits="userSpaceOnUse" />
    <linearGradient
       inkscape:collect="always"
       xlink:href="#linearGradient4744"
       id="linearGradient4742"
       x1="498.64"
       y1="119.9"
       x2="469.83"
       y2="18.08"
       gradientUnits="userSpaceOnUse"
       gradientTransform="translate(-1,52.362183)" />
    <linearGradient
       inkscape:collect="always"
       xlink:href="#linearGradient4760"
       id="linearGradient4758"
       x1="496.34"
       y1="383.21"
       x2="462.96"
       y2="224.82"
       gradientUnits="userSpaceOnUse" />
    <linearGradient
       inkscape:collect="always"
       xlink:href="#linearGradient4776"
       id="linearGradient4774"
       x1="510.85"
       y1="970.02"
       x2="525.11"
       y2="684.34"
       gradientUnits="userSpaceOnUse" />
    <radialGradient
       inkscape:collect="always"
       xlink:href="#linearGradient4846"
       id="radialGradient4852"
       cx="512.62"
       cy="543.67"
       fx="512.62"
       fy="543.67"
       r="136.32"
       gradientTransform="matrix(1.2593254,0.06018201,-0.05959167,1.2469723,-100.53836,-165.12178)"
       gradientUnits="userSpaceOnUse" />
    <linearGradient
       inkscape:collect="always"
       xlink:href="#linearGradient4838"
       id="linearGradient5615"
       x1="497.3"
       y1="307.04"
       x2="488.4"
       y2="514.92"
       gradientUnits="userSpaceOnUse" />
  </defs>
  <sodipodi:namedview
     id="base"
     pagecolor="#ffffff"
     bordercolor="#666666"
     borderopacity="1"
     inkscape:pageopacity="0"
     inkscape:pageshadow="2"
     inkscape:zoom="1.41"
     inkscape:cx="272.34"
     inkscape:cy="336.05"
     inkscape:document-units="px"
     inkscape:current-layer="layer15"
     showgrid="false"
     showguides="true"
     inkscape:guide-bbox="true"
     inkscape:window-width="1791"
     inkscape:window-height="1128"
     inkscape:window-x="10"
     inkscape:window-y="0"
     inkscape:window-maximized="0">
    <sodipodi:guide
       orientation="0"
       position="590"
       id="guide4667" />
  </sodipodi:namedview>
  <metadata
     id="metadata4056">
    <rdf:RDF>
      <cc:Work
         rdf:about="">
        <dc:format>image/svg+xml</dc:format>
        <dc:type
           rdf:resource="http://purl.org/dc/dcmitype/StillImage" />
      </cc:Work>
    </rdf:RDF>
  </metadata>
  <g
     inkscape:groupmode="layer"
     id="layer15"
     inkscape:label="BG"
     display="inline" />
  <g
     inkscape:groupmode="layer"
     id="layer27"
     inkscape:label="Shirt"
     display="inline">
    <path
       d="m426 717 24 284 100 0 63.5-283z"
       id="path4695"
       inkscape:connector-curvature="0"
       fill="url(#linearGradient4774)" />
  </g>
  <g
     inkscape:groupmode="layer"
     id="layer26"
     inkscape:label="Vest"
     display="inline">
    <path
       d="m423.5 720 48.5 281-68 0-14.5-254.5z"
       id="path4690"
       inkscape:connector-curvature="0"
       fill="#ececec" />
    <path
       d="m609 727.5-81.5 273.5 62.5 0 31-266z"
       id="path4692"
       inkscape:connector-curvature="0"
       fill="#ececec" />
  </g>
  <g
     inkscape:groupmode="layer"
     id="layer25"
     inkscape:label="Shoulders">
    <path
       d="m676 761c0 0 42 29 48 29 6 0 48 21.5 59.5 25 11.5 3.5 37 13 37 13l23.5 173-182.5 0z"
       id="path4675"
       inkscape:connector-curvature="0"
       style="fill:#000;stroke:#000" />
    <path
       d="m307.5 767.5c0 0-57.5 22-63.5 23.5-6 1.5-43.5 8-43.5 8 0 0-36 114-37 142.5-1 28.5-8.5 59.5-8.5 59.5l161.5 0z"
       id="path4677"
       inkscape:connector-curvature="0"
       style="fill:#000;stroke:#000" />
  </g>
  <g
     inkscape:groupmode="layer"
     id="layer24"
     inkscape:label="Lapels"
     display="inline">
    <path
       d="m421.5 722.5-15.5 10-46.5 8.5-55 26-43 61 16 8.5L227 827c0 0 24 85.5 34 107.5 10 22 34.5 66.5 34.5 66.5l135 0c0 0-16.5-94.5-19-131.5-2.5-37-4.5-113.5 0.5-127 5-13.5 9.5-20 9.5-20z"
       id="path4670"
       inkscape:connector-curvature="0"
       fill="url(#linearGradient4685)" />
    <path
       d="m624 720-2 13 75.5 39-7 24 11.5-11 26.5 29 26-3.5c0 0-28.5 102-39.5 121-11 19-37 69.5-37 69.5l-117.5 0c0 0 11-55.5 16.5-83 5.5-27.5 37-167 37-173.5 0-6.5-4-21-4-21z"
       id="path4672"
       inkscape:connector-curvature="0"
       fill="url(#linearGradient4687)" />
  </g>
  <g
     inkscape:groupmode="layer"
     id="layer28"
     inkscape:label="Bowtie">
    <path
       d="m503.5 769.5c0 0-18.5-12-24.5-12-6 0-50 3-50 3 0 0-2.5 47.5 2 61.5 4.5 14 16 35 19 44 3 9 3.5 21.5 3.5 21.5 0 0 14.5-16.5 23-21.5 8.5-5 18-22.5 22-31 4-8.5 11-27 11-27 0 0-6-11.5-6-16.5 0-5-2-19.5 0-22z"
       id="path4698"
       inkscape:connector-curvature="0"
       style="fill:#fff;stroke:#d1d1d1" />
    <path
       d="m503 769c0 0 13-3.5 18.5-2 5.5 1.5 18.5 4.5 18.5 4.5 0 0 3.5 11 1 18-2.5 7-10 22-10 22 0 0-6.5-1.5-10.5-2-4-0.5-11.5-0.5-11.5-0.5 0 0-7-14-7-23 0-9 1-17 1-17z"
       id="path4700"
       inkscape:connector-curvature="0"
       style="fill:#fff;stroke:#d1d1d1" />
    <path
       d="m539.88 772.31c0 0 9.19-4.6 15.2-4.95 6.01-0.35 26.52 5.3 32.53 6.36 6.01 1.06 28.99 6.36 28.99 6.36 0 0-4.95 29.34-9.9 37.83-4.95 8.49-25.46 36.06-27.58 41.72-2.12 5.66-14.85 27.58-14.85 27.58 0 0-18.03-10.25-20.51-21.21-2.47-10.96-1.41-25.81-4.95-32.53-3.54-6.72-8.84-23.69-8.84-23.69 0 0 9.9-16.26 10.96-22.27 1.06-6.01-1.06-15.2-1.06-15.2z"
       id="path4702"
       inkscape:connector-curvature="0"
       style="fill:#fff;stroke:#d1d1d1" />
    <path
       d="m541.29 787.16c0 0 10.96-2.12 12.73 0 1.77 2.12 6.01 9.9 7.78 10.96 1.77 1.06-8.49-4.95-10.96-4.95-2.47 0-9.55-6.01-9.55-6.01z"
       id="path4704"
       inkscape:connector-curvature="0"
       style="fill-opacity:0.6;fill:#a5a5a5" />
    <path
       d="m501.34 787.87c0 0-14.5-0.71-18.38 0.35-3.89 1.06-13.08 3.89-13.08 3.89 0 0 13.08 0.35 17.68-0.35 4.6-0.71 13.79-3.89 13.79-3.89z"
       id="path4706"
       inkscape:connector-curvature="0"
       style="fill-opacity:0.6;fill:#a5a5a5" />
  </g>
  <g
     inkscape:groupmode="layer"
     id="layer19"
     inkscape:label="Eyeball"
     display="inline">
    <path
       sodipodi:type="arc"
       id="path5097"
       sodipodi:cx="514.77"
       sodipodi:cy="536.14"
       sodipodi:rx="224.86"
       sodipodi:ry="229.1"
       d="m739.63 536.14a224.86 229.1 0 1 1-449.72 0 224.86 229.1 0 1 1 449.72 0z"
       transform="translate(4,-17)"
       style="fill-rule:evenodd;fill:url(#linearGradient5615);stroke:#000" />
    <path
       d="m732.92 446.34c0 0-2.47-6.36-7.78-1.41-5.3 4.95-18.03 30.41-23.33 30.76-5.3 0.35-21.92-20.15-27.22-21.21-5.3-1.06-9.55 3.54-11.67 0.71-2.12-2.83-4.24-25.81-7.42-29.34-3.18-3.54-16.26-11.67-19.45-9.9-3.18 1.77-1.06 16.26-1.06 16.26 0 0 0-9.19 2.83-9.9 2.83-0.71 12.37 4.6 14.14 8.84 1.77 4.24 4.6 25.1 9.19 28.64 4.6 3.54 8.49-2.47 12.37 0 3.89 2.47 17.28 17.62 22.98 19.8 5.78 2.21 7.76 0.39 7.85-0.08 0 0 10.33 18.68 8.56 25.4-1.77 6.72-6.14 19.83-18.7 20.73-7.77 0.56-16.8-6.11-20.34-9.99-3.54-3.89-5-6.89-5-6.89 0 0 3.94 20.68 24.1 21.39 20.15 0.71 24.04-23.69 24.04-28.99 0-5.3-9.55-24.04-9.55-24.04 0 0 18.74-27.93 21.92-27.58 3.18 0.35 3.54-3.18 3.54-3.18z"
       id="path5635"
       inkscape:connector-curvature="0"
       sodipodi:nodetypes="csssssscssssscssscsscsc"
       style="fill:#db3737;stroke:#b32929" />
    <path
       d="m732.93 590.96c1.01 0 5.28-14.46-4.15-16.35-9.43-1.89-10.31 18.74-13.71 16.85-3.4-1.89 8.93-14.84-0.88-18.24-9.81-3.4-18.99 15.22-19.5 12.96-0.5-2.26 11.19-19.87 7.8-23.02-3.4-3.14-10.57 0.5-17.36-0.38-6.79-0.88-17.86-10.69-17.86-10.69 0 0 6.79 14.46 15.47 15.6 8.68 1.13 14.21-4.91 15.09-2.01 0.88 2.89-14.21 20-5.41 24.9 8.8 4.91 15.47-18.36 19.75-12.45 4.28 5.91-10.19 11.57 0 17.61 10.19 6.04 13.21-17.36 14.97-16.23 1.76 1.13 5.91 1.51 5.79 11.45z"
       id="path5637"
       inkscape:connector-curvature="0"
       sodipodi:nodetypes="csssssscssssssc"
       style="fill:#db3737;stroke:#b32929" />
  </g>
  <g
     inkscape:groupmode="layer"
     id="layer21"
     inkscape:label="Iris">
    <path
       d="m514.29 397.14c61.43-5 136.43 47.86 144.29 114.29C666.43 577.86 630 672.14 535 681.43 440 690.71 377.14 607.14 377.14 540 377.14 472.86 430 397.14 514.29 397.14z"
       id="path4657"
       inkscape:connector-curvature="0"
       style="fill:#235814;stroke-miterlimit:4;stroke-width:4;stroke:#183b0d" />
  </g>
  <g
     inkscape:groupmode="layer"
     id="layer29"
     inkscape:label="Iris detail">
    <path
       sodipodi:type="star"
       id="path4828"
       sodipodi:sides="350"
       sodipodi:cx="512.65"
       sodipodi:cy="543.92"
       sodipodi:r1="6"
       sodipodi:r2="134.2"
       sodipodi:arg1="-0.79"
       sodipodi:arg2="-0.9"
       inkscape:flatsided="false"
       inkscape:rounded="0"
       inkscape:randomized="0.02"
       d="m518.77 541.03 78.97-100.71-79.01 98.52 78.76-99.19-79.24 102.13 82.31-99.94-82.79 99.3 85.56-98.69-84.26 97.07 83.68-96.03-85.25 95.15 85.97-92.24-87.75 94.31 89.48-92.83-87.46 90.36 90.89-87.87-89.31 89.39 90.39-86.97-93.26 86.01 96.8-85.57-95.87 86.78 95.8-85.54-95.31 87.61 97.04-86.31-96.98 85.46 99.35-82.4-99.73 82.4 100.1-81.46-100.69 79.95 100.83-77.62-100.27 77.27 102.14-73.2-103.39 75.06 106.91-73.49-104.78 73.9 103.83-72.7-106.16 70.63 109.78-70.3-108.53 72.22 108.49-70.12-109.67 69.13 110.99-65.33-110.61 65.18 110.84-64.29-110.9 64.01 112.27-60.59-110.73 61.86 113.17-62.26-114.1 63.94 115.3-59.96-112.2 57.51 114.1-55.96-114.09 57.3 115.11-54.11-117.13 54.99 118.43-54.02-119.07 54.6 116.83-50.85-115.91 51.39 120.62-49.1-122.14 49.51 122.81-49.7-120.95 46.22 121.97-41.27-122.14 45.04 121.84-43.96-120.64 42.16 119.35-40.09-118.8 42.01 122.63-37.78-124.11 34.87 121.95-34.27-122.27 36.91 124.41-33.14-125.16 31.62 126.86-29.12-128.05 28.7 128.04-27.23-127.46 27.73 127.3-24.58-125.34 24.43 125.01-23.17-127.51 23.68 129.24-19.88-128.15 20.8 129.5-18.77-129.06 17.69 126.23-14.97-126.01 16.06 128.97-14.99-129.47 13.34 128.3-10.83-128.96 12.99 127.41-10.11-124.69 10.27 124.77-9.46-126.51 9.83 128.01-6.92-126.16 7.69 127.91-3.07-128.71 2.3 127.86-3.19-126.89 4.14 127.59 0.78-127.26-1.03 127.65 2.04-131.57-4.5 131.8 6.65-130.32-7.07 128.14 10.93-129.12-10.7 130.8 11.24-127.98-9.19 125.04 12.27-125.08-14.07 124.13 17.27-126.2-15.14 129.17 18.89-130.09-20.07 128.44 18.65-127.58-18.12 127.98 23.83-125.75-21.35 125.98 20.71-125.78-22.17 125.64 24.93-128.3-26.66 126.4 30.36-127.29-29.57 126.76 32.3-126.05-32 126.05 34.58-125.99-31.89 123.82 33.49-121.99-37.05 122.1 38.23L518.67 544.94 641.53 584.45 517.43 547.21 640.54 589.4 519.98 547.28 639 590.13 516.27 545.82 638.11 594.33 517.95 545.61 635.31 596.37 519.42 547.47 637.02 596.82 516.2 546.99l119.01 53-118.63-54.16 115.49 57.05-115.33-55.96 116.93 58.59L516.47 548.23 631.74 606.37 515.75 549.06 629.07 609.66 518.85 547.03 631.2 608.87 517.48 545.76 628.21 613.14 515.68 547.14 626.37 615.06 517.47 549.18 625.66 617.76 519.04 548.02 624.52 618.13 516.15 546.81 623.52 619.68 517.28 549.09 621.07 624.33 517.54 547.52 620.54 624 515.59 547.23l103.85 78.84-104.03-77.76 102.71 81.6-103.31-80.76 102.41 82.66-98.99-81.82 95.87 81.02-99.12-83.51 98.01 84.21-95.47-84.09 95 88.29-96.48-85.93 92.62 85.46-92.94-86.95 92.15 92.33-90.26-92.32 87.22 91.71-90.01-90.21 88.11 93.33-84.85-92.72 83.81 92.24-87.04-95.8 85.08 100.3-82.69-96.39 80.03 96.45-79.44-99.28 78.09 102.05L513.95 548.82 596.28 651.39 515.91 550.36 591.93 651.32 515.62 549.6 590.78 652.96 516.92 548.25 590.54 653.96 516.2 550.03 586.23 653.97 516.85 549.73 584.45 657.34 513.69 550.48 583.13 656.47 516.34 548.04 579.96 660.28 516.77 551.34 580.25 659.63 514.96 548.21 576.91 661.49 514.96 549.6 573.62 662.66 514.74 548.57 570.55 664.17 512.7 549.06 569.36 664.74 516.07 550.24 569.44 665.96 513.82 551 565.37 669.03 512.95 548.98 563.22 666.25 515.88 548.58 560.96 669.25 513.2 550.56 559.61 670.04 512.1 548.03l46.32 123.65-43.6-120.98 40.52 121.32-43.43-123.79 39.44 123.06-36.94-120.01 35.8 121.5-37.33-123.37 33.36 125.69-30.87-123.98 29.9 123.58-33.46-123.56 33.14 123.64-30.64-124.61 25.1 125.75-26.63-126.72 25.15 126.82-24.68-125.56 22.83 125.28-24.58-125.87 21.2 128.17-19.14-128.38 15.84 126.07-17.58-124.87 14.97 126.55-14.5-128.86 15.85 129.64-17.6-130.22 13.02 129.9-10.96-129.65 7.1 130.64-8.85-129.43 6.55 129.75-5.87-129.75 4.95 128.02-2.67-128.6-0.28 130.02-0.42-130.73-0.12 130.5 0.8-129.6-3.97 127.78 2.22-127.02-3.36 129.06 2.05-129.49-6.78 130.02 7.69-129.15-9.33 126.71 8.02-125.35-9.23 125.76 12.16-127.46-14.28 128.6 12.97-128.68-15.21 125.51 12.73-127.01-18.29 129.28 21.22-128.85-21.45 125.74 19.19-123.59-21.48 124.72 20.83-126.82-25.39 126.99 24.74-125.86-27.34 126.23 29.56-127.17-31.36 127.01 30.92-125.81-32.16 123.01 32.38-125.28-33.2 123.54 31.6-120.38-33.83 121.18 34.26-123.28-37.83 124.15 36.67-123.53-38.64 122.7 39.29-124.38-41.8 121.11 41.07-118.12-42.73 119.6 44.04-121.97-47.02 120.13 46.51-121.44-47.98 118.33 49.72-117.88-53.73 117.69 53.88-114.87-55.33 114.71 53.27-114.62-56.21 114.05 56.79-116.45-57.58 117.21 56.39-115.06-58.22 111.07 59.24-111.99-63.52 113.01 62.54-114.37-64.44 111.26 66.11-111.97-65.2 111.65 62.85-109.23-68.39 107.13 68.5-109.48-70.37 110.45 72.91-109.99-75.32 108.43 74.06-106.55-72.46 103.06 71.64-106.51-74.2 107.5 75.4-103.69-77.32 101.07 76.93-101.61-78.75 98.54 78.79-100.72-83 101.71 83.26-102.48-84.52 98.09 81.41-97.41-81.75 96.83 84.47-95.66-88.14 96.34 85.25-95.49-84.15 90.73 85.94-92.46-89.05 92.52 87.24-92.22-87.68 89.32 90.12-90.74-94.41 90.9 93.26-89.59-92.77 85.13 91.84-86.34-95.8 85.09 95.31-83.58-97.26 84.46 97.2-83.6-95.55 80.19 95.71-81.51-99.88 79.29 100.7-80.05-100.83 77.17 101.86-76.42-103.95 74.51L507.67 545.38 404.79 622.44 505.55 548.64 401.72 617.22 507.89 547.03 398.88 618.65 506.64 545.11 397.93 616.61 508.03 547.97 396.82 615.12 507.44 546.7 396.38 612.37 507.27 547.91 395.01 609.74 505.95 545.27 392.78 607.08 506.67 545.76 391.58 603.11 507.81 545.59 393.49 603.72 507.8 544.26 392.68 598.47 505.57 545.2 391.17 600.01 506.65 545.1l-117.27 51.16 116.13-49.08-116.6 48.21 118.11-49.86-118.79 46.57 118.52-46-119.76 42.68 118.33-42.74-121.62 41.34 124.44-40.34-124.41 36.44 121.43-37.25-121.02 34.98 120.91-36.86-122.17 36.44 122.49-34.6-124.41 33.14 125.16-35.99-123.04 31.64 121.81-30.11-121.59 26.47 123.43-28.18-127.52 26.4 129.36-24.43-129.04 23.62 127.73-25.95-125.43 22.5 124.35-22.97-125.7 20.59 125.11-20.27-126.3 17.11 126.29-16.69-125 13.8 125.22-14.75-128.09 16.27 129.17-14.26-127.41 8.87 128.5-7.65-128.79 5.78 126.29-8.11-126.2 5.16 128.6-4.08-127.91 3.07 128.71-5.88-131.89 2.84 131.13-2.72-127.8 1.74 127.05-0.83-127.65-2.04 127.77 2.77-127.78-6.65 126.29 6.27-128.13-6.56 128.9 4.82-126.56-8.49 128.2 10.16-127.69-14.16 127.51 14.2-128.15-13.34 126.42 12.98-125.15-18.89 125.85 18.65-128.44-18.21 127.36 19.94-123.95-23.93 125.96 22.77-125.98-24.73 125.78 23.06-125.64-25.83 124.27 26.31-122.38-29.91 123.05 32.09-124.95-34.6 124.45 31.68-122.24-31.52 123.77 33.18-125.63-35.66 126.02 33.02-122.7-34.48 119.48 36.1-119.64-37.71 120.68 37.51-118.87-40.33 118.12 42.09-116.81-44.58 118.71 44.66-121.63-47.45 120.16 45.59-117.36-47.27 119.92 45.76-117.61-49.8 116.57 52.1-114.98-53.09 114.6 53.71-115.49-57.05 115.55 53.44-113.12-56.42 113.4 59.48-115.49-60 116.2 59.72-113.31-61.15 114.25 58.61-112.14-60.33 109.48 62.49-110.95-66.11 112.75 63.93-110.9-65.41 108.9 66.33-106.39-67.65 109.06 65.75-106.29-68.67 104.94 72.13-107.16-75.03 106.46 72.35-104.01-73.06 103.53 73.23-103-76.48 106.55 76.64-101.64-76.99 100 77.42-98.67-81.25 99.29 80.76-98.17-80.8 98.78 80.85-99.89-81.46 100.94 81.21-95.8-85.94 95.68 86.4-95.22-87.36 92.89 85.97-93.66-89.36 95.36 89.31-93.74-88.17 94.5 89.8-91.46-93.22 89.79 91.58-87.89-91.12 88.87 92.37-87.83-95.92 86.82 94.04-85.08-96.38 84.49 98.66-81.62-96.86 83.47 95.25-80.52-97.7 80.37 97.44-78.31-99 76.57 98.86-75.46-101.05 75.75 101.82-75.16-102.91 77.66 102.4-73.62-105.27 74.34 107.16-74.27-109.02 73.4 107.82-71.62-107.17 72.79 106.86-71.25-108.51 70.82 108.34-67.86-110.07 67.42 110.45-63.48-112.31 61.05 110.35-58.74-111.84 58.96 111.87-58.66-112.62 60.48 113.96-59.84-115.6 60.28 115.24-56.66-116.03 57.1 116.22-53.15-117.1 51.81 116.37-51.77-116.21 52.21 118.19-49.84-120.71 50.93 118.32-48.88-119.25 47.76 122.72-42.61-121.68 43.48 118.33-42.08-117.67 43.38 118.58-42.73-123.17 41.83 123.57-39.65-121.33 41.18 122.21-39.83-125.88 37.33 123.72-33.58-123.08 32.68 126.15-29.91-127.96 31.65 125.42-29.11-123.64 29.82 125.61-28.09-124.99 25.81 124.14-24.33-124.24 27.89 122.98-26.04-126.73 23.76 127.76-20.39-126.04 22.35 125.8-17.45-126.76 15.17 126-15.18-124.83 18.52 124.83-15.04-127.06 12.97 125.92-12.2-124.08 13.95 126.01-10.31-128.85 9.84 129.82-7.55-129.7 5.27 129.03-4.34-126.95 6.09 127.08-2.92-127.09 4.45 127.15 0.12-130.5-0.58 131.01-0.28-129.54-2.44 129.08 7.39-128.61-6.08 128.7 8.59-127.4-9.28 125.15 9.33-126.71-8.02 129.37 13.03-127.97-11.94 128.87 14.28-128.16-15.4 124.87 17.64-125.38-16.76 126.67 18.51-127.52-17.63 129.6 21.66-128.36-23.22 127.62 25.5-129.09-24.85 127.17 25.39-126.54-24.96 127.68 27.57-124.02-29.34 124.55 30.54-125.12-30.54 123.88 33.98-124.51-32.38 125.28 35.62-124.2-35.62 125.2 37.86-125.65-38.51 126 39.65-122.52-38.48 121.35 38.85-120.84-39.29 120.36 41.79-121.01-41.07 122.94 45.94-123.07-47.25 120.52 48.62-119.37-48.11 120.33 52.01-117.99-49.73 117.98 51.3-117.03-51.23 115.96 52.69-115.8-55.08 116.03 56.21-114.05-56.79 116.9 61.61-116.76-60.2 116.03 62.03-112.48-62.83 111.23 63.08-112.26-60.51 114.38 62.62-113.88-62.08 112.42 62.99-109.92-64.88 109.22 68.39-107.13-66.69 107.63 68.77-106.74-68.89 106.06 71.08-106.7-73.84 108.86 76.49-107.09-75.66 106.41 77.41-106.05-74.58 106.27 74.89-104.34z"
       inkscape:transform-center-x="0"
       inkscape:transform-center-y="-0.02"
       transform="translate(6,-6)"
       style="fill:none;opacity:0.47;stroke-miterlimit:4;stroke:url(#radialGradient4852)" />
  </g>
  <g
     inkscape:groupmode="layer"
     id="layer22"
     inkscape:label="Pupil">
    <path
       d="m514.29 468.57c51.43 0 77.86 40 77.86 70.71 0 30.71-19.29 75-68.57 77.86-49.29 2.86-75.71-30-77.86-69.29-2.14-39.29 31.43-77.14 68.57-79.29z"
       id="path4660"
       inkscape:connector-curvature="0"
       fill="#000" />
  </g>
  <g
     inkscape:groupmode="layer"
     id="layer23"
     inkscape:label="Reflections">
    <path
       d="m557.14 460.71c6.43-3.57 32.14 3.57 38.57 10.71 6.43 7.14 15 17.14 5.71 22.14-9.29 5-45-20-44.29-32.86z"
       id="path4663"
       inkscape:connector-curvature="0"
       style="fill-opacity:0.87;fill:#d3d3d3" />
    <path
       d="m420.71 562.14c-2.86-16.43 0.71-32.86 5.71-30 5 2.86 10 17.14 10 17.14 0 0 3.43-20.64 7.93-35.93 2.98-10.12 19.93-31.93 23.5-29.07 3.57 2.86-30.9 27.09-23.07 73.07 6.27 36.85 34.7 47.45 31.64 49.79C468.5 613.21 442.14 580.71 438.57 567.86 435 555 444.29 585.71 440 587.86 435.71 590 422.14 571.43 420.71 562.14z"
       id="path4665"
       inkscape:connector-curvature="0"
       sodipodi:nodetypes="cscssssssc"
       style="fill-opacity:0.89;fill:#e9e9e9" />
  </g>
  <g
     inkscape:groupmode="layer"
     id="layer20"
     inkscape:label="Veins">
    <path
       d="m359.36 501c0 0-6.84-24-14.95-24.25-8.11-0.25-13.43 31-21.53 33.75-8.11 2.75-5.83-9-12.16-8-6.33 1-16.72 34-16.72 34l1.27 5.25c0 0 3.55 3 7.35 2.75 3.8-0.25 8.11-7 13.43-4.25 5.32 2.75 16.47 63 27.86 69 11.4 6 13.93-7.25 17.48-4.5 3.55 2.75 8.87 25 13.43 30.5 4.56 5.5 14.69 5.53 14.69 5.53 0 0-11.91-12.78-13.17-19.53-1.27-6.75-5.32-23-10.64-24.25-5.32-1.25-12 6.48-17.57 5.23-5.57-1.25-20.93-64.48-25.49-67.48-4.56-3-21.03 3-21.03 3 0 0 5.32-26.5 8.61-26 3.29 0.5 8.65 8.44 15.24 5.94 6.59-2.5 14.14-32.94 18.7-31.69 4.56 1.25 10.13 18.5 15.2 15z"
       id="path5617"
       inkscape:connector-curvature="0"
       sodipodi:nodetypes="csssccssssscsssscsssc"
       style="fill:#db3737;stroke:#b32929" />
  </g>
  <g
     inkscape:groupmode="layer"
     id="layer17"
     inkscape:label="Hat rim">
    <path
       d="m349.29 282.86c-5 10-55 22.86-57.86 35.71-2.86 12.86 33.57 85 189.29 64.29 155.71-20.71 210-88.57 198.57-120.71C667.86 230 605 224.29 605 224.29z"
       id="path4639"
       inkscape:connector-curvature="0"
       sodipodi:nodetypes="cssscc"
       fill="url(#linearGradient4758)" />
  </g>
  <g
     inkscape:groupmode="layer"
     id="layer16"
     inkscape:label="Hat cylinder"
     display="inline">
    <path
       d="m590 34.29c0 0 8.67 220.1 38.57 250 17.16 17.16-90 60.71-127.14 67.14-37.14 6.43-133.96 9.61-153.57-10-4.29-4.29 12.86-110-50.71-242.86C296.04 96.27 590 34.29 590 34.29z"
       id="path4636"
       inkscape:connector-curvature="0"
       sodipodi:nodetypes="cssssc"
       fill="url(#linearGradient4716)" />
  </g>
  <g
     inkscape:groupmode="layer"
     id="layer18"
     inkscape:label="Hat Ribbon"
     display="inline">
    <path
       d="m346.43 287.86c0 0 75.71 23.57 147.14 5C565 274.29 612.86 240.71 612.86 240.71c0 0 4.29 32.86 18.57 44.29 14.29 11.43-81.43 59.29-127.14 67.86-45.71 8.57-136.43 3.57-157.14-10-1.33-0.87-0.71-55-0.71-55z"
       id="path4642"
       inkscape:connector-curvature="0"
       sodipodi:nodetypes="cscsssc"
       fill="url(#linearGradient4726)" />
  </g>
  <g
     inkscape:label="Hat lid"
     inkscape:groupmode="layer"
     id="layer1"
     transform="translate(0,-52.362183)">
    <path
       d="m296.86 150.93c-2.14-30.71 100-57.14 128.57-64.29 28.57-7.14 167.14-25.71 165 4.29-2.14 30-94.29 50.71-140 60.71-45.71 10-148.57 25.71-153.57-0.71z"
       id="path4633"
       inkscape:connector-curvature="0"
       fill="url(#linearGradient4742)" />
  </g>
</svg>
