<?xml version="1.0" encoding="UTF-8" standalone="no"?>
<!-- Created with Inkscape (http://www.inkscape.org/) -->

<svg
   xmlns:dc="http://purl.org/dc/elements/1.1/"
   xmlns:cc="http://creativecommons.org/ns#"
   xmlns:rdf="http://www.w3.org/1999/02/22-rdf-syntax-ns#"
   xmlns:svg="http://www.w3.org/2000/svg"
   xmlns="http://www.w3.org/2000/svg"
   xmlns:sodipodi="http://sodipodi.sourceforge.net/DTD/sodipodi-0.dtd"
   xmlns:inkscape="http://www.inkscape.org/namespaces/inkscape"
   width="1365.3334"
   height="768"
   viewBox="0 0 338.66666 190.50001"
   id="svg2"
   version="1.1"
   inkscape:version="0.92.2 5c3e80d, 2017-08-06"
   sodipodi:docname="frank-zappa-hologram-thumbnail.svg"
   inkscape:export-filename="/Users/agarone/Documents/GitHub/art/frank-zappa/hologram/frank-zappa-hologram-thumbnail.png"
   inkscape:export-xdpi="144"
   inkscape:export-ydpi="144">
  <defs
     id="defs4" />
  <sodipodi:namedview
     id="base"
     pagecolor="#ffffff"
     bordercolor="#666666"
     borderopacity="1.0"
     inkscape:pageopacity="0.0"
     inkscape:pageshadow="2"
     inkscape:zoom="0.5703125"
     inkscape:cx="-274.29619"
     inkscape:cy="307.39726"
     inkscape:document-units="px"
     inkscape:current-layer="g4203"
     showgrid="false"
     units="px"
     inkscape:window-width="3200"
     inkscape:window-height="1677"
     inkscape:window-x="0"
     inkscape:window-y="1"
     inkscape:window-maximized="1"
     showguides="true" />
  <metadata
     id="metadata7">
    <rdf:RDF>
      <cc:Work
         rdf:about="">
        <dc:format>image/svg+xml</dc:format>
        <dc:type
           rdf:resource="http://purl.org/dc/dcmitype/StillImage" />
        <dc:title />
      </cc:Work>
    </rdf:RDF>
  </metadata>
  <g
     inkscape:label="Gray BG"
     inkscape:groupmode="layer"
     id="layer1"
     transform="translate(0,-106.49999)"
     style="display:inline">
    <rect
       style="opacity:1;fill:#6d757b;fill-opacity:1;stroke:none;stroke-width:16.0535984;stroke-miterlimit:4;stroke-dasharray:none;stroke-opacity:1"
       id="rect4141"
       width="338.66669"
       height="190.5"
       x="1.4210855e-14"
       y="106.49999" />
  </g>
  <g
     inkscape:groupmode="layer"
     id="layer2"
     inkscape:label="Orange Banner"
     style="display:inline">
    <rect
       style="opacity:1;fill:#de3d2d;fill-opacity:1;stroke:none;stroke-width:11.03082752;stroke-miterlimit:4;stroke-dasharray:none;stroke-opacity:1"
       id="rect4144"
       width="338.66669"
       height="43.65625"
       x="0"
       y="146.84375" />
  </g>
  <g
     inkscape:groupmode="layer"
     id="layer5"
     inkscape:label="Artist Image">
    <g
       id="g979"
       transform="matrix(0.14957226,0,0,0.14957226,0,2.3706054e-6)">
      <g
         style="display:inline"
         inkscape:label="Neck"
         id="layer14" />
      <g
         style="display:inline"
         inkscape:label="Face"
         id="layer13" />
      <g
         style="display:inline"
         inkscape:label="Mustache"
         id="layer15" />
      <g
         inkscape:label="Eyes"
         id="layer19" />
      <g
         inkscape:label="Brows"
         id="layer16" />
      <g
         inkscape:label="Hair"
         id="layer17" />
      <g
         inkscape:label="Nose"
         id="layer18-9" />
      <g
         id="g4179">
        <path
           style="display:inline;fill:#dfdfdf;fill-opacity:1;stroke:none"
           d="m 620.71429,663.57143 c 0,0 3.38731,157.58791 1.42857,174.28571 C 613.52067,911.35933 567.85714,1000 555,1000 c -12.85714,0 -356.42857,0 -356.42857,0 0,0 -46.42857,-140 -67.14286,-207.14286 -20.71428,-67.14285 -23.57143,-108.57143 -23.57143,-108.57143 z"
           id="path4668"
           inkscape:connector-curvature="0"
           sodipodi:nodetypes="csscscc" />
        <path
           sodipodi:nodetypes="csscccssc"
           style="display:inline;fill:#ffffff;fill-opacity:1;stroke:none"
           d="m 332.85714,953.57143 c 0,0 41.42857,5 85,-18.57143 43.57143,-23.57143 122.85715,-80.71429 179.28572,-184.28571 56.42857,-103.57143 49.28571,-499.28572 49.28571,-499.28572 L 537.14286,0 H 97.857143 c 0,0 -40.108341,393.06967 -42.142857,450.71429 C 53.571429,511.42857 83.571429,690 142.85714,788.57143 c 59.28572,98.57143 91.42857,167.14286 190,165 z"
           id="path4665"
           inkscape:connector-curvature="0" />
        <path
           style="display:inline;fill:#000000;fill-opacity:1;stroke:none"
           d="m 180.71429,801.42857 c 0,0 27.85714,-56.42857 55.71428,-60.71428 27.85714,-4.28572 37.85714,1.42857 50,-1.42858 12.14286,-2.85714 20.71429,-16.42857 36.42857,-15.71428 15.71429,0.71428 30,13.57143 41.42857,12.85714 11.42858,-0.71428 46.42858,-12.85714 60,-10.71428 13.57143,2.14285 22.14286,37.85714 37.14286,47.85714 15,10 57.14286,5 57.14286,5 0,0 17.14285,-70.71429 -7.14286,-103.57143 -22.79328,-30.83797 -107.03162,-68.09817 -163.83452,-62.12573 -5.38071,0.56575 -21.27089,10.28391 -28.14245,10.20695 -5.30503,-0.0594 -16.55325,-6.51631 -23.01294,-6.48086 -56.56241,0.31045 -133.26832,28.45318 -143.58152,61.97107 -11.42857,37.14286 -9.28571,59.28571 27.85715,122.85714 z"
           id="path4671"
           inkscape:connector-curvature="0"
           sodipodi:nodetypes="csssssscsssssc" />
        <path
           style="display:inline;fill:#000000;fill-opacity:1;stroke:none"
           d="m 255.71429,761.42857 c 0,0 -12.14286,34.28572 -6.42858,55 5.71429,20.71429 6.42858,27.14286 16.42858,32.14286 10,5 50,5.71428 58.57142,5 8.57143,-0.71429 66.42858,-8.57143 70,-16.42857 3.57143,-7.85715 13.57143,-30 10,-50 -3.57142,-20 -9.28571,-37.85715 -9.28571,-37.85715 0,0 -35,10 -65.71429,13.57143 -30.71428,3.57143 -73.57142,-1.42857 -73.57142,-1.42857 z"
           id="path4673"
           inkscape:connector-curvature="0" />
        <circle
           style="fill:#321a00;fill-opacity:1;fill-rule:evenodd;stroke:none;stroke-width:1px;stroke-linecap:butt;stroke-linejoin:miter;stroke-opacity:1"
           id="path4691"
           cx="474.28571"
           cy="344.28571"
           r="32.142857" />
        <circle
           id="path4693"
           style="fill:#321a00;fill-opacity:1;fill-rule:evenodd;stroke:none"
           transform="translate(-293.57143,13.571429)"
           cx="474.28571"
           cy="344.28571"
           r="32.142857" />
        <circle
           id="path4695"
           style="fill:#000000;fill-opacity:1;fill-rule:evenodd;stroke:none"
           transform="matrix(0.42222221,0,0,0.42222221,274.03175,198.92063)"
           cx="474.28571"
           cy="344.28571"
           r="32.142857" />
        <circle
           transform="matrix(0.42222221,0,0,0.42222221,-19.96825,211.77777)"
           style="fill:#000000;fill-opacity:1;fill-rule:evenodd;stroke:none"
           id="path4699"
           cx="474.28571"
           cy="344.28571"
           r="32.142857" />
        <path
           style="fill:#000000;fill-opacity:1;stroke:none;stroke-width:1px;stroke-linecap:butt;stroke-linejoin:miter;stroke-opacity:1"
           d="m 241.07143,376.78571 c 0,0 5,-3.21428 3.21428,-5.35714 C 242.5,369.28571 205,337.5 178.21429,336.42857 c -26.78572,-1.07143 -42.14286,18.21429 -41.78572,23.92857 0.35714,5.71429 5.71429,20.71429 5.71429,20.71429 0,0 -8.92857,-5.35715 -14.64286,-12.14286 -5.71429,-6.78571 17.5,-43.57143 51.42857,-37.85714 33.92857,5.71428 65.71429,26.07143 69.64286,33.92857 3.92857,7.85714 3.21428,7.5 -7.5,11.78571 z"
           id="path4703"
           inkscape:connector-curvature="0" />
        <path
           style="fill:#000000;fill-opacity:1;stroke:none;stroke-width:1px;stroke-linecap:butt;stroke-linejoin:miter;stroke-opacity:1"
           d="m 359.28571,337.85714 c 0,0 -9.28571,-12.14285 -3.57142,-30.71428 5.71428,-18.57143 92.14285,-60 133.57142,-60 41.42858,0 116.42858,50 119.28572,57.14285 2.85714,7.14286 2.14286,30 -4.28572,29.28572 -6.42857,-0.71429 -47.14285,-28.57143 -60,-26.42857 -12.85714,2.14285 -56.42857,5 -76.42857,10 -20,5 -60.71428,14.28571 -75.71428,23.57143 -15,9.28571 -22.85715,33.57142 -22.85715,20 0,-13.57143 17.85715,-48.57143 -10,-22.85715 z"
           id="path4676"
           inkscape:connector-curvature="0" />
        <path
           style="fill:#000000;fill-opacity:1;stroke:none;stroke-width:1px;stroke-linecap:butt;stroke-linejoin:miter;stroke-opacity:1"
           d="m 270.71429,379.28571 c 0,0 10.71428,-42.85714 1.42857,-55 -9.28572,-12.14285 -92.85715,-41.42857 -130,-37.14285 C 105,291.42857 63.571429,335 63.571429,335 l 8.571428,60.71429 c 0,0 22.142857,-8.57143 30.714283,-4.28572 8.57143,4.28572 29.28572,30 37.85715,31.42857 8.57142,1.42857 27.14285,2.85715 18.57142,-2.85714 -8.57142,-5.71429 -37.85714,-27.14286 -37.85714,-38.57143 0,-11.42857 20,-36.42857 55,-37.85714 35,-1.42857 69.28572,3.57143 94.28572,35.71428 z"
           id="path4678"
           inkscape:connector-curvature="0" />
        <path
           sodipodi:nodetypes="csssscccc"
           style="fill:#000000;fill-opacity:1;stroke:none;stroke-width:1px;stroke-linecap:butt;stroke-linejoin:miter;stroke-opacity:1"
           d="m 285,0 c 0,0 -65.71429,141.42857 -95.71429,181.42857 -30,40 -65,53.57143 -95.714281,125 -30.714286,71.42857 -25.000001,235.71429 -7.142858,310.71429 17.857139,75 92.857139,278.57143 100.714289,330.71428 C 195,1000 198.57143,1000 198.57143,1000 H 0 V 0 Z"
           id="path4681"
           inkscape:connector-curvature="0" />
        <path
           style="fill:#000000;fill-opacity:1;stroke:none"
           d="m 292.14286,0 c 0,0 25,41.42857 28.57143,75.714285 3.57142,34.285715 -10,77.857145 12.14285,127.142855 22.14286,49.28572 88.57143,70.71429 88.57143,70.71429 0,0 -60,-30.71429 -64.28571,-63.57143 -4.28572,-32.85714 6.42857,36.42857 100.71428,32.85714 94.28572,-3.57143 130.71429,-29.28571 130.71429,-29.28571 0,0 25.71428,90.71428 -1.42857,132.85714 C 560,388.57143 550.71429,435 564.28571,492.85714 c 13.57143,57.85715 71.42858,90.71429 71.42858,90.71429 0,0 -71.42858,-44.28572 -70.71429,-116.42857 0.71429,-72.14286 57.14286,-137.85715 57.14286,-137.85715 0,0 -27.14286,54.28572 -20,102.14286 7.14285,47.85714 31.95468,119.9641 21.95468,182.10696 -10,62.14286 -3.38325,259.32161 -21.95468,301.46447 -18.57143,42.14286 -46.42857,85 -46.42857,85 h 411.42857 c 0,0 -67.85714,-61.42857 -62.85714,-147.14286 C 909.28572,767.14286 1000,525 1000,525 c 0,0 0,0 55.7143,-161.42857 C 1000,369.95279 965.71429,329.28571 944.28572,267.14286 922.85714,205 894.28572,102.85714 841.42857,51.42857 788.57143,0 762.14286,0 762.14286,0 Z"
           id="path4683"
           inkscape:connector-curvature="0"
           sodipodi:nodetypes="csscsscsscscsssccsccsscc" />
        <path
           style="fill:#000000;fill-opacity:1;stroke:none;stroke-width:1px;stroke-linecap:butt;stroke-linejoin:miter;stroke-opacity:1"
           d="m 267.85714,453.57143 c 0,0 -8.57143,64.28571 -15.71428,82.85714 -7.14286,18.57143 -5,43.57143 0,50 5,6.42857 27.14285,26.42857 39.28571,29.28572 12.14286,2.85714 -0.71428,-12.85715 -11.42857,-17.14286 -10.71429,-4.28572 -19.28571,-21.42857 -21.42857,-16.42857 -2.14286,5 9.28571,12.85714 9.28571,12.85714 0,0 -23.57143,-11.42857 -17.14285,-41.42857 6.42857,-30 17.14285,-71.42857 17.14285,-100 z"
           id="path4686"
           inkscape:connector-curvature="0" />
        <path
           style="fill:#000000;fill-opacity:1;stroke:none;stroke-width:1px;stroke-linecap:butt;stroke-linejoin:miter;stroke-opacity:1"
           d="m 383.57143,585.71429 c 0,0 -15,0 -22.85714,5.71428 -7.85715,5.71429 -17.14286,17.14286 -22.85715,22.14286 -5.71428,5 28.57143,-4.28572 45.71429,-27.85714 z"
           id="path4688"
           inkscape:connector-curvature="0" />
        <path
           style="fill:#000000;fill-opacity:1;stroke:none;stroke-width:1px;stroke-linecap:butt;stroke-linejoin:miter;stroke-opacity:1"
           d="m 392.85714,366.78571 c 0,0 56.78572,-41.42857 76.78572,-41.78571 20,-0.35714 49.28571,10.35714 52.85714,18.57143 3.57143,8.21428 -3.57143,18.57143 -3.57143,18.57143 0,0 21.42857,-2.5 15,-15.35715 -6.42857,-12.85714 -26.78571,-32.5 -63.21428,-32.14285 -36.42858,0.35714 -90.35715,55 -77.85715,52.14285 z"
           id="path4701"
           inkscape:connector-curvature="0" />
      </g>
    </g>
  </g>
  <g
     inkscape:label="Blue Banner"
     id="g4203"
     inkscape:groupmode="layer"
     style="display:inline">
    <rect
       y="146.84375"
       x="0"
       height="43.65625"
       width="338.66669"
       id="rect4205"
       style="opacity:1;fill:#0e2e71;fill-opacity:1;stroke:none;stroke-width:11.03082752;stroke-miterlimit:4;stroke-dasharray:none;stroke-opacity:1" />
  </g>
  <g
     inkscape:groupmode="layer"
     id="layer3"
     inkscape:label="Discover"
     style="display:none">
    <text
       xml:space="preserve"
       style="font-style:normal;font-variant:normal;font-weight:normal;font-stretch:normal;line-height:0%;font-family:Museo;-inkscape-font-specification:'Museo, Normal';text-align:start;letter-spacing:0px;word-spacing:0px;writing-mode:lr-tb;text-anchor:start;fill:#ffffff;fill-opacity:1;stroke:none;stroke-width:0.50668812px;stroke-linecap:butt;stroke-linejoin:miter;stroke-opacity:1"
       x="173.85484"
       y="40.767208"
       id="text4147"><tspan
         sodipodi:role="line"
         id="tspan4164"
         x="173.85484"
         y="40.767208"
         style="font-size:20.26743698px;line-height:1.25">DISCOVER:</tspan></text>
  </g>
  <g
     inkscape:label="Interview"
     id="g4209"
     inkscape:groupmode="layer">
    <text
       xml:space="preserve"
       style="font-style:normal;font-variant:normal;font-weight:normal;font-stretch:normal;line-height:0%;font-family:Museo;-inkscape-font-specification:'Museo, Normal';text-align:start;letter-spacing:0px;word-spacing:0px;writing-mode:lr-tb;text-anchor:start;fill:#ffffff;fill-opacity:1;stroke:none;stroke-width:0.50668812px;stroke-linecap:butt;stroke-linejoin:miter;stroke-opacity:1"
       x="173.85484"
       y="40.767208"
       id="text4167"><tspan
         y="40.767208"
         x="173.85484"
         sodipodi:role="line"
         id="tspan4169"
         style="font-size:20.26743698px;line-height:1.25"> </tspan></text>
  </g>
  <g
     inkscape:groupmode="layer"
     id="layer18"
     inkscape:label="Part"
     style="display:inline" />
  <g
     inkscape:groupmode="layer"
     id="layer4"
     inkscape:label="Artist Name">
    <text
       xml:space="preserve"
       style="font-style:normal;font-variant:normal;font-weight:600;font-stretch:normal;font-size:14.14686775px;line-height:0%;font-family:Museo;-inkscape-font-specification:'Museo, Semi-Bold';text-align:start;letter-spacing:0px;word-spacing:0px;writing-mode:lr-tb;text-anchor:start;fill:#ffffff;fill-opacity:1;stroke:none;stroke-width:1.00022864px;stroke-linecap:butt;stroke-linejoin:miter;stroke-opacity:1"
       x="146.93091"
       y="31.863413"
       id="text4158"><tspan
         sodipodi:role="line"
         x="146.93091"
         y="31.863413"
         style="font-style:normal;font-variant:normal;font-weight:600;font-stretch:normal;font-size:37.4863205px;line-height:100%;font-family:Museo;-inkscape-font-specification:'Museo, Semi-Bold';text-align:start;writing-mode:lr-tb;text-anchor:start;fill:#ffffff;fill-opacity:1;stroke-width:1.00022864px"
         id="tspan1043">Frank</tspan><tspan
         sodipodi:role="line"
         x="146.93091"
         y="69.349731"
         style="font-style:normal;font-variant:normal;font-weight:600;font-stretch:normal;font-size:37.4863205px;line-height:100%;font-family:Museo;-inkscape-font-specification:'Museo, Semi-Bold';text-align:start;writing-mode:lr-tb;text-anchor:start;fill:#ffffff;fill-opacity:1;stroke-width:1.00022864px"
         id="tspan983">Zappa</tspan><tspan
         sodipodi:role="line"
         x="146.93091"
         y="106.83605"
         style="font-style:normal;font-variant:normal;font-weight:600;font-stretch:normal;font-size:37.4863205px;line-height:100%;font-family:Museo;-inkscape-font-specification:'Museo, Semi-Bold';text-align:start;writing-mode:lr-tb;text-anchor:start;fill:#ffffff;fill-opacity:1;stroke-width:1.00022864px"
         id="tspan985">Hologram</tspan><tspan
         sodipodi:role="line"
         x="146.93091"
         y="144.32237"
         style="font-style:normal;font-variant:normal;font-weight:600;font-stretch:normal;font-size:37.4863205px;line-height:100%;font-family:Museo;-inkscape-font-specification:'Museo, Semi-Bold';text-align:start;writing-mode:lr-tb;text-anchor:start;fill:#ffffff;fill-opacity:1;stroke-width:1.00022864px"
         id="tspan987">Tour</tspan></text>
  </g>
  <g
     inkscape:groupmode="layer"
     id="layer6"
     inkscape:label="WEIRD">
    <path
       style="opacity:1;fill:#ffffff;fill-opacity:1;stroke:none;stroke-width:17.2258606;stroke-miterlimit:4;stroke-dasharray:none;stroke-opacity:1"
       d="m 245.3457,602.625 v 70 h 250 v -70 z m 8.86133,10.875 h 3.87695 c 3.39947,0 5.09819,0.67987 5.91407,3.94336 l 7.41015,30.86719 c 0.61191,2.58359 0.95313,5.09961 0.95313,5.09961 h 0.13476 c 0,0 0.40837,-2.44803 1.15625,-5.09961 l 9.6543,-34.67578 h 6.11914 l 8.97461,34.67578 c 0.67989,2.65158 1.01953,5.09961 1.01953,5.09961 h 0.13672 c 0,0 0.27286,-2.51602 0.88477,-5.09961 l 7.54687,-30.86719 c 0.81587,-3.26349 2.44624,-3.94336 5.8457,-3.94336 h 3.875 v 5.8457 h -1.01953 c -1.2238,0 -1.9706,0.27229 -2.31054,1.4961 L 303.83984,661.5 h -7.88672 l -8.1582,-30.32227 c -0.81587,-3.12751 -1.35937,-6.5957 -1.35937,-6.5957 h -0.13672 c 0,0 -0.68059,3.46782 -1.56445,6.52735 L 276.0332,661.5 h -7.95508 l -10.53906,-40.6582 c -0.33994,-1.22381 -1.08674,-1.4961 -2.31054,-1.4961 h -1.02149 z m 72.29297,0 h 28.2168 c 3.05952,0 4.34961,1.29204 4.34961,4.35156 v 6.05078 h -6.18555 v -3.06054 c 0,-1.01984 -0.54424,-1.4961 -1.49609,-1.4961 h -13.66602 v 15.02735 h 16.79297 v 5.8457 h -16.79297 v 13.9375 c 0,0.95185 0.54424,1.49609 1.49609,1.49609 h 14.00586 c 0.95185,0 1.4961,-0.54424 1.4961,-1.49609 v -3.05859 h 6.2539 v 6.05078 c 0,3.05952 -1.29204,4.35156 -4.35156,4.35156 h -21.34766 c -3.05952,0 -4.35156,-1.29204 -4.35156,-4.35156 V 619.3457 H 326.5 Z m 43.91406,0 h 15.8418 v 5.8457 h -4.69141 v 36.30664 h 4.69141 V 661.5 h -15.8418 v -5.84766 h 4.69141 V 619.3457 h -4.69141 z m 26.24024,0 h 20.9414 c 8.43068,0 14.34571,5.30359 14.34571,14.07422 0,8.02274 -5.2353,11.96501 -8.63477,12.71289 v 0.13672 c 0,0 1.22319,0.61202 2.03906,2.17578 l 5.7793,11.49023 c 0.67989,1.42778 1.76865,1.5625 3.40039,1.5625 h 0.88281 V 661.5 h -3.33008 c -3.73941,0 -5.1003,-0.47601 -6.66406,-3.60352 l -6.52734,-12.91796 c -1.22381,-2.24365 -2.10623,-2.58399 -4.75781,-2.58399 h -6.25586 V 661.5 h -6.79883 v -42.1543 h -4.41992 z m 47.0957,0 h 19.44531 c 14.61771,0 24.27149,8.77002 24.27149,23.93164 0,15.22961 -9.65378,24.06836 -24.27149,24.06836 h -10.67578 c -3.05952,0 -4.34961,-1.29204 -4.34961,-4.35156 V 619.3457 H 443.75 Z m -35.87695,5.8457 v 17.20313 h 8.83789 c 5.16719,0 8.22656,-3.33197 8.22656,-8.70313 0,-5.37115 -3.05863,-8.5 -8.08984,-8.5 z m 47.0957,0 v 34.81055 c 0,0.95185 0.54424,1.49609 1.49609,1.49609 h 6.25391 c 10.67433,0 17.67773,-6.39055 17.67773,-18.2207 0,-11.76215 -7.07139,-18.08594 -17.67773,-18.08594 z"
       transform="scale(0.26458334)"
       id="rect4172"
       inkscape:connector-curvature="0" />
  </g>
  <g
     inkscape:groupmode="layer"
     id="layer7"
     inkscape:label="MAKE">
    <text
       xml:space="preserve"
       style="font-style:normal;font-variant:normal;font-weight:normal;font-stretch:normal;line-height:0%;font-family:Museo;-inkscape-font-specification:'Museo, Normal';text-align:start;letter-spacing:0px;word-spacing:0px;writing-mode:lr-tb;text-anchor:start;fill:#ffffff;fill-opacity:1;stroke:none;stroke-width:0.26458335px;stroke-linecap:butt;stroke-linejoin:miter;stroke-opacity:1"
       x="10.690782"
       y="175.02188"
       id="text4175"><tspan
         sodipodi:role="line"
         id="tspan4177"
         x="10.690782"
         y="175.02188"
         style="font-style:normal;font-variant:normal;font-weight:normal;font-stretch:normal;font-size:17.99166679px;line-height:100%;font-family:Museo;-inkscape-font-specification:'Museo, Normal';text-align:start;letter-spacing:1.32291675px;writing-mode:lr-tb;text-anchor:start;fill:#ffffff;fill-opacity:1;stroke-width:0.26458335px">MAKE</tspan></text>
  </g>
  <g
     inkscape:groupmode="layer"
     id="layer8"
     inkscape:label="MUSIC">
    <text
       xml:space="preserve"
       style="font-style:normal;font-variant:normal;font-weight:normal;font-stretch:normal;line-height:0%;font-family:Museo;-inkscape-font-specification:'Museo, Normal';text-align:start;letter-spacing:0px;word-spacing:0px;writing-mode:lr-tb;text-anchor:start;fill:#ffffff;fill-opacity:1;stroke:none;stroke-width:0.26458335px;stroke-linecap:butt;stroke-linejoin:miter;stroke-opacity:1"
       x="134.21758"
       y="174.80598"
       id="text4180"><tspan
         sodipodi:role="line"
         id="tspan4182"
         x="134.21758"
         y="174.80598"
         style="font-style:normal;font-variant:normal;font-weight:normal;font-stretch:normal;font-size:17.99166679px;line-height:100%;font-family:Museo;-inkscape-font-specification:'Museo, Normal';text-align:start;writing-mode:lr-tb;text-anchor:start;fill:#ffffff;fill-opacity:1;stroke-width:0.26458335px">MUSIC</tspan></text>
  </g>
</svg>
