<?xml version="1.0" encoding="UTF-8" standalone="no"?>
<!-- Created with Inkscape (http://www.inkscape.org/) -->

<svg
   xmlns:dc="http://purl.org/dc/elements/1.1/"
   xmlns:cc="http://creativecommons.org/ns#"
   xmlns:rdf="http://www.w3.org/1999/02/22-rdf-syntax-ns#"
   xmlns:svg="http://www.w3.org/2000/svg"
   xmlns="http://www.w3.org/2000/svg"
   xmlns:sodipodi="http://sodipodi.sourceforge.net/DTD/sodipodi-0.dtd"
   xmlns:inkscape="http://www.inkscape.org/namespaces/inkscape"
   width="1280"
   height="720"
   viewBox="0 0 338.66666 190.50001"
   id="svg2"
   version="1.1"
   inkscape:version="0.92.2 5c3e80d, 2017-08-06"
   sodipodi:docname="devin-townsend-guitar-vai-thumbnail.svg"
   inkscape:export-filename="/Users/agarone/Documents/GitHub/art/devin-townsend/guitar-vai-xjamm/devin-townsend-guitar-vai-thumbnail.png"
   inkscape:export-xdpi="144"
   inkscape:export-ydpi="144">
  <defs
     id="defs4">
    <linearGradient
       id="linearGradient3995">
      <stop
         style="stop-color:#f46200;stop-opacity:1"
         id="stop3997"
         offset="0" />
      <stop
         style="stop-color:#7a3100;stop-opacity:1"
         id="stop3999"
         offset="1" />
    </linearGradient>
    <linearGradient
       id="linearGradient3980">
      <stop
         style="stop-color:#a05a2c;stop-opacity:1"
         id="stop3982"
         offset="0" />
      <stop
         style="stop-color:#63381b;stop-opacity:1"
         id="stop3984"
         offset="1" />
    </linearGradient>
    <linearGradient
       id="linearGradient3970">
      <stop
         style="stop-color:#d45500;stop-opacity:1"
         id="stop3972"
         offset="0" />
      <stop
         style="stop-color:#8b3800;stop-opacity:1"
         id="stop3974"
         offset="1" />
    </linearGradient>
    <linearGradient
       id="linearGradient3942">
      <stop
         style="stop-color:#f9f9f9;stop-opacity:1"
         id="stop3944"
         offset="0" />
      <stop
         style="stop-color:#c1dfee;stop-opacity:1"
         id="stop3946"
         offset="1" />
    </linearGradient>
    <clipPath
       id="clipPath4408"
       clipPathUnits="userSpaceOnUse">
      <path
         style="fill:#00aad4;stroke-width:0.98;stroke:#000"
         d="m696.25 529.15c0 0 26.26-20.91 40.41-24.56 14.14-3.65 33.34-6.81 46.97 0.49 13.64 7.29 6.31 65.9-24.24 72.7-30.56 6.81-69.7-4.86-63.13-48.63z"
         id="path4410"
         inkscape:connector-curvature="0"
         sodipodi:nodetypes="csssc" />
    </clipPath>
    <clipPath
       id="clipPath4415"
       clipPathUnits="userSpaceOnUse">
      <path
         style="fill:#00aad4;stroke-width:0.95;stroke:#000"
         d="m787.83 524.52c0 0 10.35 15.5 2.02 29.86-8.33 14.36-24.75 32.82-61.87 21.65-37.12-11.17-41.16-53.56-26.01-66.55 15.15-12.99 28.28-14.13 85.86 15.04z"
         id="path4417"
         inkscape:connector-curvature="0" />
    </clipPath>
  </defs>
  <sodipodi:namedview
     id="base"
     pagecolor="#ffffff"
     bordercolor="#666666"
     borderopacity="1.0"
     inkscape:pageopacity="0.0"
     inkscape:pageshadow="2"
     inkscape:zoom="0.80654368"
     inkscape:cx="-1.9982999"
     inkscape:cy="415.44117"
     inkscape:document-units="px"
     inkscape:current-layer="g4209"
     showgrid="false"
     units="px"
     inkscape:window-width="3200"
     inkscape:window-height="1677"
     inkscape:window-x="0"
     inkscape:window-y="1"
     inkscape:window-maximized="1"
     showguides="true" />
  <metadata
     id="metadata7">
    <rdf:RDF>
      <cc:Work
         rdf:about="">
        <dc:format>image/svg+xml</dc:format>
        <dc:type
           rdf:resource="http://purl.org/dc/dcmitype/StillImage" />
        <dc:title />
      </cc:Work>
    </rdf:RDF>
  </metadata>
  <g
     inkscape:label="Gray BG"
     inkscape:groupmode="layer"
     id="layer1"
     transform="translate(0,-106.49999)">
    <rect
       style="opacity:1;fill:#44586c;fill-opacity:1;stroke:none;stroke-width:16.0535984;stroke-miterlimit:4;stroke-dasharray:none;stroke-opacity:1"
       id="rect4141"
       width="338.66669"
       height="190.5"
       x="1.4210855e-14"
       y="106.49999" />
  </g>
  <g
     inkscape:groupmode="layer"
     id="layer2"
     inkscape:label="Orange Banner">
    <rect
       style="opacity:1;fill:#de3d2d;fill-opacity:1;stroke:none;stroke-width:11.03082752;stroke-miterlimit:4;stroke-dasharray:none;stroke-opacity:1"
       id="rect4144"
       width="338.66669"
       height="43.65625"
       x="0"
       y="146.84375" />
  </g>
  <g
     inkscape:groupmode="layer"
     id="layer5"
     inkscape:label="Artist Image">
    <g
       id="g1172"
       transform="matrix(0.67966065,0,0,0.67966065,-32.526661,-16.233928)">
      <g
         style="display:none"
         transform="translate(0,-32.41665)"
         id="layer1-9"
         inkscape:label="BG">
        <rect
           style="fill:#ffffff;fill-opacity:1;stroke-width:0.26458332"
           y="32.416641"
           x="0"
           height="264.58334"
           width="264.58334"
           id="rect4493" />
      </g>
      <g
         style="display:inline"
         inkscape:label="Devin"
         id="layer2-3">
        <path
           inkscape:connector-curvature="0"
           id="path4524"
           d="m 133.63476,32.860652 c 16.03617,0 34.74504,14.967092 39.15499,21.916101 4.40995,6.949009 8.01808,13.096205 8.41899,22.851544 0.4009,9.755338 0.93544,19.510676 0.26727,24.455163 -0.66818,4.94448 -0.93544,4.94448 0.66817,4.40995 1.60362,-0.53454 4.54358,-2.53906 5.34539,0.93544 0.80181,3.4745 0.26727,10.55715 -0.93544,15.63527 -1.20271,5.07812 -2.40543,15.50163 -5.21176,17.63978 -2.80633,2.13816 -3.74177,2.6727 -4.81085,2.2718 -1.06908,-0.40091 -1.87089,-2.40543 -2.27179,0.4009 -0.4009,2.80633 -3.87541,8.01809 -4.00904,13.49711 -0.13364,5.47903 2.13815,24.05426 2.27179,27.39513 0.13363,3.34087 3.20723,12.2944 4.54358,17.10525 1.33635,4.81085 -33.14142,62.6747 -41.96132,63.0756 -8.81989,0.40092 -40.22406,-58.39839 -41.293138,-66.95101 -1.069078,-8.55263 3.34087,-17.10525 3.474506,-24.18789 0.133633,-7.08265 1.469982,-21.9161 0.801809,-23.65336 -0.668176,-1.73725 -2.405428,-8.81989 -3.87541,-7.88445 -1.469983,0.93545 -5.879928,0.80181 -7.61718,-2.53906 -1.737254,-3.34087 -5.211757,-13.63074 -4.944488,-16.97161 0.267271,-3.34087 1.069078,-8.8199 0.935445,-13.09621 -0.133636,-4.27631 0,-6.28083 1.469983,-5.47902 1.469982,0.8018 2.53906,2.00452 2.405425,0.53453 C 86.328056,102.75163 84.858073,92.194487 85.526249,85.379114 86.194423,78.563742 86.328056,70.14475 89.802561,63.863918 93.277064,57.583083 107.44235,34.46427 133.63476,32.860652 Z"
           style="fill:#333333;fill-opacity:0.98969074;stroke:none;stroke-width:0.26458332px;stroke-linecap:butt;stroke-linejoin:miter;stroke-opacity:1" />
        <path
           inkscape:connector-curvature="0"
           id="path4530"
           d="m 147.31622,140.41815 c 2.45684,-0.56696 5.48065,-1.5119 6.89807,-1.03943 1.41741,0.47247 2.07886,3.30729 1.22842,3.77976 -0.85045,0.47247 -9.44941,1.13393 -8.40997,2.07887 1.03943,0.94494 2.26785,3.1183 1.41741,3.40178 -0.85045,0.28349 -13.13468,0.28349 -12.85119,-1.03943 0.28348,-1.32292 1.6064,-5.19717 3.49628,-5.48065 1.88988,-0.28349 6.52009,-1.51191 8.22098,-1.7009 z"
           style="fill:#999999;stroke:none;stroke-width:0.26458332px;stroke-linecap:butt;stroke-linejoin:miter;stroke-opacity:1" />
        <path
           inkscape:connector-curvature="0"
           id="path4582"
           d="m 121.18862,141.83556 c 1.5119,-2.50409 2.40959,-3.07105 3.77976,-3.30729 1.37016,-0.23623 5.33891,-0.37798 7.0398,0.14174 1.7009,0.51972 3.2128,0.94494 3.44904,1.98438 0.23623,1.03943 0.80319,1.74814 0.14174,1.88988 -0.66146,0.14174 -2.31511,5.19717 -3.26005,6.14211 -0.94494,0.94494 -1.37016,1.55915 0.33073,1.22842 1.7009,-0.33073 8.17374,-0.94494 9.44941,-0.28348 1.27567,0.66146 2.88207,6.99256 1.6064,7.03981 -1.27567,0.0472 -5.10268,-1.46466 -7.60677,-0.42523 -2.5041,1.03944 -14.22136,2.59859 -16.11124,0.47248 -1.88988,-2.12612 -3.68527,-6.99257 -2.97656,-7.18155 0.7087,-0.18899 4.15774,-7.70127 4.15774,-7.70127 z"
           style="fill:#b3b3b3;stroke:none;stroke-width:0.26458332px;stroke-linecap:butt;stroke-linejoin:miter;stroke-opacity:1" />
        <path
           inkscape:connector-curvature="0"
           id="path4576"
           d="m 89.668926,65.467533 c -1.737252,4.944486 -3.608139,13.764382 -3.875408,20.579755 -0.267269,6.815373 0.668174,20.847022 1.469983,18.708872 0.801806,-2.13816 2.806329,-3.60814 2.405425,-2.40543 -0.400905,1.20271 1.870887,1.06908 2.53906,4.54358 0.668174,3.4745 3.207235,10.82441 3.207235,15.10073 0,4.27631 -1.737252,10.42351 -1.069079,13.49711 0.668174,3.0736 0.668174,2.67269 1.870888,6.41447 1.202711,3.74177 1.603615,9.48807 5.34539,9.2208 3.74177,-0.26727 9.6217,-0.53454 12.56167,-4.81085 2.93996,-4.27632 1.46998,-11.8935 3.4745,-15.63527 2.00452,-3.74177 -0.13363,-2.80633 1.33635,-5.7463 1.46998,-2.93996 7.08264,-10.69078 5.47902,-12.56167 -1.60361,-1.87088 -13.76438,1.20272 -16.30344,-1.20271 -2.53906,-2.40542 -0.66817,-8.81989 -4.94448,-9.35443 -4.276316,-0.53454 -10.958054,-0.13364 -9.488071,-3.34087 1.469983,-3.207234 11.492591,-25.791509 11.225321,-27.662396 -0.26727,-1.870888 -3.87541,-10.95805 -15.234364,-5.345391 z"
           style="fill:#999999;fill-opacity:1;stroke:none;stroke-width:0.26458332px;stroke-linecap:butt;stroke-linejoin:miter;stroke-opacity:1" />
        <path
           inkscape:connector-curvature="0"
           id="path4536"
           d="m 150.718,111.97544 c -0.94494,-2.92931 -2.45684,-6.04761 -3.96875,-7.27604 -1.5119,-1.22842 0.66146,3.2128 -0.37797,1.79539 -1.03944,-1.41741 -4.53572,-4.25223 -4.53572,-6.803572 0,-2.55134 1.6064,-8.598958 1.7009,-10.205358 0.0945,-1.606399 0.37797,2.74033 1.79538,3.496281 1.41741,0.755952 1.51191,-0.944941 3.02381,-2.078868 1.51191,-1.13393 8.12649,-2.173364 11.05581,-1.795388 2.92931,0.377975 3.87425,2.456846 4.25223,3.212798 0.37797,0.755952 5.48065,7.370535 3.77976,5.858632 -1.70089,-1.511906 -3.96875,-6.142115 -7.65402,-7.087055 -3.68527,-0.944941 -9.4494,-0.566965 -10.77232,0.283482 -1.32291,0.850448 -1.79539,2.362351 -1.41741,2.740327 0.37798,0.377976 5.95313,0.850447 7.37054,1.13393 1.41741,0.283482 4.06324,1.41741 6.14211,1.41741 2.07887,0 2.26786,0.850447 -0.18899,0.944941 -2.45684,0.09449 -7.3102,-2.143813 -7.07634,-1.776318 0.23386,0.367496 2.97337,2.271792 5.14494,2.539061 2.17156,0.267272 4.64381,1.804067 6.11379,2.305197 1.46998,0.50113 5.87993,0.50113 7.28309,-0.43431 1.40317,-0.935442 1.80407,-1.703842 1.80407,-3.441094 0,-1.737251 -0.63476,-3.57473 0.20046,-3.307461 0.83521,0.267269 2.7061,5.445617 2.20497,7.082645 -0.50113,1.63702 -10.92464,6.04697 -12.59508,5.81311 -1.67043,-0.23386 -14.2321,-7.082642 -14.76664,-8.084905 -0.53454,-1.00226 3.34087,7.283095 3.30746,9.421255 -0.0334,2.13815 -1.11309,5.18437 -1.82608,4.24591 z"
           style="fill:#808080;stroke:none;stroke-width:0.26458332px;stroke-linecap:butt;stroke-linejoin:miter;stroke-opacity:1" />
        <path
           inkscape:connector-curvature="0"
           id="path4574"
           d="m 108.51143,42.61599 c 7.48354,-4.276312 15.368,-9.220798 24.72243,-9.220798 9.35443,0 22.18337,6.013564 28.0633,10.958049 5.87993,4.944486 6.81537,8.285356 7.08264,12.561668 0.26727,4.276312 -5.21176,0.400905 -4.14268,4.543581 1.06908,4.142679 4.94449,5.879931 1.33635,6.68174 -3.60814,0.801806 -4.81085,-2.004523 -11.75986,-3.608139 -6.949,-1.603618 -12.2944,-1.069078 -6.81537,-0.267271 5.47902,0.801809 8.28535,1.469982 12.02713,3.073601 3.74177,1.603615 6.01356,3.207234 2.13815,3.207234 -3.87541,0 -10.95805,-2.539061 -15.50163,-1.737252 -4.54358,0.80181 -11.89349,2.939966 -7.48354,2.138156 4.40994,-0.801809 8.15171,-1.336346 12.16076,-1.202713 4.00904,0.133635 12.56167,1.202713 10.69078,3.073601 -1.87089,1.870884 -6.28083,0.267269 -7.34991,2.271789 -1.06908,2.004523 4.81085,3.34087 4.54358,4.677217 -0.26727,1.336349 -11.35895,0.935445 -14.03165,1.870887 -2.6727,0.935442 -3.34087,2.806329 -2.00452,6.414468 1.33635,3.608139 -1.87089,8.953529 0.13363,12.294402 2.00452,3.34087 4.00904,6.81537 4.00904,8.81989 0,2.00452 -3.07359,4.14268 -5.21175,3.47451 -2.13816,-0.66818 -4.27631,-3.34087 -6.81537,-3.07361 -2.53906,0.26727 -3.87541,3.34087 -5.87993,3.74178 -2.00452,0.4009 -4.14268,2.53906 -2.40543,-0.93545 1.73725,-3.4745 4.81085,-8.55262 3.0736,-6.949 -1.73725,1.60361 -4.67722,6.01356 -7.08264,9.75534 -2.40543,3.74177 -4.40995,8.68625 -5.61266,6.5481 -1.20271,-2.13816 0.80181,-5.34539 0.80181,-7.48355 0,-2.13815 -1.33635,1.60362 -2.80633,0.40091 -1.46999,-1.20272 -14.432558,2.53906 -12.42804,-0.93545 2.00452,-3.4745 2.93997,-9.2208 0.40091,-9.6217 -2.539062,-0.4009 -9.888975,-0.53454 -9.621706,-5.07812 0.267272,-4.543583 10.824416,-24.321529 11.225316,-27.662396 0.40091,-3.34087 -5.879923,-8.285356 -10.022602,-7.082644 -4.142677,1.202713 -5.479026,2.53906 -3.34087,-0.935443 2.138156,-3.474503 10.423512,-16.971615 17.907062,-20.713387 z"
           style="fill:#b3b3b3;fill-opacity:1;stroke:none;stroke-width:0.26458332px;stroke-linecap:butt;stroke-linejoin:miter;stroke-opacity:1" />
        <path
           inkscape:connector-curvature="0"
           id="path4526"
           d="m 148.06732,95.535355 c -0.26727,3.207234 4.00904,11.091685 2.80633,10.156245 -1.20272,-0.93544 -3.20724,-4.10927 -3.77518,-5.779706 -0.56795,-1.670434 -2.17157,-3.608139 -1.73726,-1.135896 0.43432,2.472242 5.57925,10.390102 5.91334,12.060542 0.33409,1.67043 0.90204,4.6438 2.43884,7.7174 1.53679,3.0736 4.17608,6.94901 5.04471,8.78649 0.86862,1.83748 1.03567,4.10927 1.9377,1.60362 0.90204,-2.50566 0.33409,-6.1472 1.10249,-7.6506 0.7684,-1.50338 5.27857,-3.54132 5.91334,-7.68399 0.63476,-4.14268 4.37653,-4.94449 4.77744,-6.74856 0.4009,-1.80407 1.33635,-5.14494 -0.16704,-3.57473 -1.50339,1.57021 -10.02261,-0.56795 -11.25873,-1.00226 -1.23613,-0.43431 -8.68626,-5.646068 -7.11605,-3.80859 1.5702,1.83748 4.84426,3.50791 6.18061,4.00904 1.33634,0.50113 4.10926,2.40543 4.07585,3.17383 -0.0334,0.7684 -0.8018,-1.1359 -3.40768,-2.3052 -2.60588,-1.1693 -5.34539,-2.10475 -7.38332,-4.075861 -2.03793,-1.971114 -3.04019,-3.674957 -3.17383,-2.772921 -0.13363,0.902034 3.0736,3.27405 2.6727,3.474503 -0.40091,0.200449 -2.40543,-1.637027 -3.30746,-2.806329 -0.90204,-1.169305 -1.23613,-2.104747 -1.5368,-1.637027 z"
           style="fill:#b3b3b3;stroke:none;stroke-width:0.26458332px;stroke-linecap:butt;stroke-linejoin:miter;stroke-opacity:1" />
        <path
           inkscape:connector-curvature="0"
           id="path4528"
           d="m 161.30134,136.07143 c -0.85045,-3.87426 -1.70089,-6.61459 -1.79539,-8.22099 -0.0945,-1.6064 0.66146,-6.42559 1.79539,-7.9375 1.13393,-1.5119 2.92931,-1.88988 3.96875,-4.06324 1.03943,-2.17336 0.28348,-3.02381 2.45684,-4.53571 2.17337,-1.51191 0.28348,-5.66965 1.13393,-7.55953 0.85045,-1.88988 5.95313,-2.45684 6.14211,-3.68527 0.18899,-1.228417 0.94494,-3.59077 -0.47247,-6.047615 -1.41741,-2.456844 -1.5119,-9.165923 0.18899,-5.858631 1.7009,3.307291 4.15774,11.433781 3.40179,14.268596 -0.75595,2.83483 -3.2128,5.10268 -3.87426,7.37054 -0.66146,2.26786 -3.2128,5.76414 -3.1183,12.00075 0.0945,6.2366 1.6064,15.7805 -0.0945,18.52083 -1.70089,2.74032 -4.25223,17.29241 -6.04761,17.3869 -1.79539,0.0945 -2.55134,-0.56696 -1.51191,-3.68526 1.03944,-3.11831 4.7247,-13.41816 3.40179,-13.51265 -1.32292,-0.0945 -3.59078,0.85044 -4.63021,2.92931 -1.03944,2.07887 -3.68527,8.22098 -3.11831,9.82738 0.56697,1.6064 2.07887,2.74033 0.56697,3.77977 -1.5119,1.03943 -9.35491,5.95312 -9.35491,3.68526 0,-2.26785 -0.28348,-8.69345 -2.07887,-9.35491 -1.79539,-0.66146 -8.40997,-1.98437 -11.33929,-1.6064 -2.92931,0.37798 -8.59895,1.32292 -6.99256,0 1.6064,-1.32291 4.25224,-4.53571 4.8192,-6.42559 0.56696,-1.88988 -1.70089,-1.7009 -1.5119,-2.36235 0.18899,-0.66146 4.25223,-0.0945 6.89806,-0.0945 2.64583,0 10.67783,-1.13393 9.07143,-0.18899 -1.6064,0.94494 -7.18155,0.37798 -7.37054,1.32292 -0.18898,0.94494 -0.28348,4.63021 -1.03943,3.59077 -0.75595,-1.03943 -1.70089,-3.21279 -2.55134,-2.64583 -0.85044,0.56697 -2.36235,4.15774 -1.70089,4.53572 0.66146,0.37797 11.1503,1.5119 11.33928,0.28348 0.18899,-1.22842 -4.63021,-3.40179 -2.74032,-3.40179 1.88988,0 8.88244,-0.75595 9.73288,-1.88988 0.85045,-1.13393 -0.66145,-3.77976 0.28348,-3.87425 0.94494,-0.0945 2.17337,0 3.11831,1.98437 0.94494,1.98438 1.6064,4.25223 1.98437,2.45684 0.37798,-1.79538 1.03944,-5.85862 1.03944,-6.99255 z"
           style="fill:#4d4d4d;fill-opacity:1;stroke:none;stroke-width:0.26458332px;stroke-linecap:butt;stroke-linejoin:miter;stroke-opacity:1" />
        <path
           inkscape:connector-curvature="0"
           id="path4532"
           d="m 151.94643,152.51339 c -1.13393,-1.70089 -2.92932,-7.55952 -1.98438,-6.3311 0.94494,1.22842 1.7009,2.17336 2.45685,0.37798 0.75595,-1.79539 3.40178,-3.77977 2.45684,-0.85045 -0.94494,2.92931 -1.5119,7.65402 -2.92931,6.80357 z"
           style="fill:#333333;stroke:none;stroke-width:0.26458332px;stroke-linecap:butt;stroke-linejoin:miter;stroke-opacity:1" />
        <path
           inkscape:connector-curvature="0"
           id="path4534"
           d="m 140.60714,118.49553 c 1.03944,0.37798 3.2128,10.01637 2.92932,11.05581 -0.28349,1.03943 0.18899,0.47247 1.6064,1.22842 1.41741,0.75595 4.53571,1.70089 6.04761,2.55134 1.51191,0.85044 1.32292,-4.25223 1.79539,-2.17337 0.47247,2.07888 0.85045,5.29167 2.26786,5.19718 1.41741,-0.0945 3.30729,0.18899 3.1183,-1.32292 -0.18898,-1.5119 -1.6064,-1.79538 -0.37797,-2.36235 1.22842,-0.56696 1.98437,-0.18899 1.6064,-1.98437 -0.37798,-1.79539 -1.51191,-4.63021 -3.3073,-6.70908 -1.79538,-2.07887 -4.06324,-9.44941 -4.81919,-8.50447 -0.75596,0.94495 -1.22842,1.13393 -0.75596,2.74033 0.47247,1.6064 0.94495,1.70089 0,2.45685 -0.94494,0.75595 -6.2366,-0.18899 -7.46503,-1.13393 -1.22842,-0.94494 -3.02381,-2.26786 -2.64583,-1.03944 z"
           style="fill:#4d4d4d;stroke:none;stroke-width:0.26458332px;stroke-linecap:butt;stroke-linejoin:miter;stroke-opacity:1" />
        <path
           inkscape:connector-curvature="0"
           id="path4538"
           d="m 152.87817,86.013879 c 1.30294,-0.601358 9.05375,0.267269 10.99146,1.904293 1.9377,1.637028 5.47902,6.748558 4.47676,5.813113 -1.00226,-0.935442 -3.4745,-3.407685 -5.81311,-4.710626 -2.33861,-1.302938 -9.42125,-2.53906 -9.65511,-3.00678 z"
           style="fill:none;stroke:none;stroke-width:0.26458332px;stroke-linecap:butt;stroke-linejoin:miter;stroke-opacity:1" />
        <path
           inkscape:connector-curvature="0"
           id="path4554"
           d="m 142.58829,81.770976 c 0.80181,-4.677217 1.04266,-9.672019 0.23946,-9.199549 -0.8032,0.472469 -2.88207,6.992559 -3.02381,10.016368 -0.14174,3.023811 0.66146,4.91369 1.84264,5.575149 1.18117,0.661458 -0.70871,9.921875 -0.18899,11.670016 0.51972,1.74814 5.00818,-4.488468 4.34672,-6.756325 -0.66145,-2.267858 -1.88988,-3.118303 -1.84263,-4.582962 0.0472,-1.464657 7.70127,-6.567337 8.97694,-7.276042 1.27567,-0.708705 2.07886,-1.795385 0.61421,-1.370163 -1.46466,0.425223 -4.96094,0.897694 -6.47285,0.992188 -1.5119,0.09449 -4.35317,2.193366 -4.49169,0.93132 z"
           style="fill:#808080;fill-opacity:1;stroke:none;stroke-width:0.26458332px;stroke-linecap:butt;stroke-linejoin:miter;stroke-opacity:1" />
        <path
           inkscape:connector-curvature="0"
           id="path4540"
           d="m 152.67772,94.165599 c -1.46998,-0.334087 -2.33861,-0.334087 -2.17157,-0.968852 0.16704,-0.634764 0.16704,-0.868627 0.93545,-1.169304 0.7684,-0.300678 2.3386,-1.837479 5.84652,-1.202714 3.50791,0.634767 5.4122,3.073601 5.87992,3.741774 0.46773,0.668174 0.33409,1.202714 -0.86862,1.302938 -1.20271,0.100227 -2.73951,0.334087 -4.94449,-0.434313 -2.20497,-0.768398 -3.842,-1.135894 -4.67721,-1.269529 z"
           style="fill:#ffffff;stroke:none;stroke-width:0.26458332px;stroke-linecap:butt;stroke-linejoin:miter;stroke-opacity:1" />
        <path
           inkscape:connector-curvature="0"
           id="path4542"
           d="m 148.0005,88.853617 c -1.60362,-1.00226 -2.47224,-0.734991 -3.90882,-1.469982 -1.43657,-0.734992 -1.9377,-0.734992 -1.13589,-1.169305 0.80181,-0.434314 3.24064,-1.637025 3.40768,-2.706103 0.16705,-1.069078 2.97338,-2.271792 2.83974,-2.004523 -0.13363,0.267272 0.40091,1.102487 1.60362,0.734992 1.20271,-0.367496 2.47224,-2.80633 6.41447,-2.338608 3.94222,0.467723 5.27857,0.467723 8.88671,2.672694 3.60814,2.204974 3.40769,4.34313 4.54358,4.610402 1.1359,0.267269 1.67044,-1.536801 1.46998,-3.608139 -0.20045,-2.071341 -4.07585,-8.819896 -3.07359,-9.2208 1.00226,-0.400905 3.27405,-4.343131 3.00678,-6.882191 -0.26727,-2.539058 -0.735,-3.674954 0.33408,-3.407685 1.06908,0.267269 2.73952,1.403164 2.80633,-0.200451 0.0668,-1.603619 -1.5368,-6.815373 -3.67495,-9.48807 -2.13816,-2.672696 -3.80859,-4.810852 -2.53906,-3.875407 1.26953,0.935442 6.01356,8.15172 7.684,11.492589 1.67043,3.340868 3.87541,8.886712 4.07586,10.95805 0.20045,2.071338 0.53454,4.610399 -0.46773,1.469982 -1.00226,-3.140416 -3.27405,0.734992 -3.54132,-1.00226 -0.26727,-1.737251 -1.26953,-9.087164 -1.20271,-6.013563 0.0668,3.073598 0.60136,5.612659 0.0668,5.679477 -0.53454,0.06682 -2.60588,-0.80181 -2.87315,1.403164 -0.26727,2.204974 -1.33635,2.405425 -0.4009,5.412208 0.93544,3.006781 0.53454,6.080382 -0.13364,7.349911 -0.66817,1.269532 -1.46998,1.269532 -2.33861,0.400905 -0.86862,-0.868625 -5.81311,-4.075859 -8.41899,-4.075859 -2.60588,0 -8.35217,0.334087 -9.35443,0.133633 -1.00226,-0.200451 -2.67269,0.801809 -2.07134,1.269532 0.60136,0.46772 2.07134,0 4.14268,0.06681 2.07134,0.06682 9.55489,-0.868624 8.81989,-0.534538 -0.73499,0.334087 -2.00452,0.467723 -1.26953,0.668174 0.73499,0.200453 3.87541,0.734991 5.01131,2.204974 1.13589,1.469982 4.07586,8.15172 3.14041,8.352173 -0.93544,0.200451 -4.40994,-5.211757 -6.81537,-6.214017 -2.40543,-1.00226 -10.08942,-3.073599 -11.89349,-2.539061 -1.80407,0.534541 -2.60588,2.33861 -3.14042,1.870887 z"
           style="fill:#4d4d4d;fill-opacity:1;stroke:none;stroke-width:0.26458332px;stroke-linecap:butt;stroke-linejoin:miter;stroke-opacity:1" />
        <path
           inkscape:connector-curvature="0"
           id="path4550"
           d="m 138.48103,124.73214 c 0.37797,-0.94494 0.28348,-6.09487 1.46465,-6.75632 1.18118,-0.66146 2.88207,2.36235 5.29167,2.69308 2.4096,0.33073 6.23661,1.18117 6.04762,-0.66146 -0.18899,-1.84264 -0.85045,-2.97656 -0.23624,-4.20499 0.61422,-1.22842 1.03944,-2.69308 -0.56696,-3.07105 -1.6064,-0.37798 -2.36235,0.47247 -2.88207,-0.23624 -0.51972,-0.7087 0.33073,-2.45684 -0.47247,-3.44903 -0.8032,-0.99219 -3.16555,-4.06325 -2.59859,-2.92932 0.56697,1.13393 1.79539,2.03163 0.8977,2.69308 -0.8977,0.66146 -1.88988,0.14174 -2.17337,1.6064 -0.28348,1.46466 -0.0945,1.74814 -1.27566,1.55915 -1.18118,-0.18898 -3.07106,-0.89769 -3.82701,0.28349 -0.75595,1.18117 -1.08668,3.82701 -1.79539,2.92931 -0.70871,-0.89769 -1.74814,-2.64583 -4.25223,-2.45684 -2.50409,0.18898 -5.5279,1.74814 -5.48066,3.30729 0.0472,1.55915 1.98438,3.44903 2.92932,3.44903 0.94494,0 4.53571,-1.74814 3.35454,-1.74814 -1.18118,0 -3.2128,-0.56696 -1.27567,-0.7087 1.93713,-0.14175 2.97656,-0.37798 3.73251,-0.51972 0.75596,-0.14174 -0.33073,2.83482 0.28348,2.4096 0.61421,-0.42523 0.47248,-2.12612 1.22843,-1.37017 0.75595,0.75595 1.65364,6.09487 1.6064,7.18155 z"
           style="fill:#808080;stroke:none;stroke-width:0.26458332px;stroke-linecap:butt;stroke-linejoin:miter;stroke-opacity:1" />
        <path
           inkscape:connector-curvature="0"
           id="path4544"
           d="m 143.01674,116.84189 c -0.23624,1.22842 -0.14174,1.98437 1.03943,2.50409 1.18118,0.51972 4.15774,0.99219 5.10268,0.8032 0.94494,-0.18899 1.41741,-0.14174 0.8032,-1.08668 -0.61421,-0.94494 -0.42522,-1.18118 -1.18117,-0.70871 -0.75596,0.47247 -1.98438,0.94494 -2.31511,-0.14174 -0.33073,-1.08668 0.23624,-1.41741 -0.7087,-1.32292 -0.94494,0.0945 -2.92932,-1.32291 -2.74033,-0.0472 z"
           style="fill:#4d4d4d;stroke:none;stroke-width:0.26458332px;stroke-linecap:butt;stroke-linejoin:miter;stroke-opacity:1" />
        <path
           inkscape:connector-curvature="0"
           id="path4546"
           d="m 140.98512,115.61346 c 0.8032,-0.56696 2.64583,-2.12611 4.63021,-2.03162 1.98437,0.0945 3.07105,1.27567 2.22061,2.07887 -0.85045,0.8032 -3.40179,1.18118 -4.63021,0.56697 -1.22842,-0.61422 -1.27567,-0.70871 -2.22061,-0.61422 z"
           style="fill:#000000;stroke:none;stroke-width:0.26458332px;stroke-linecap:butt;stroke-linejoin:miter;stroke-opacity:1" />
        <path
           inkscape:connector-curvature="0"
           id="path4548"
           d="m 135.92969,115.80245 c -0.0945,-0.7087 0.14174,-2.12611 -2.45685,-2.36235 -2.59858,-0.23623 -4.20498,1.13393 -4.01599,2.17336 0.18898,1.03944 0.80319,1.7009 2.69308,0.99219 1.88988,-0.7087 2.97656,-1.6064 3.77976,-0.8032 z"
           style="fill:#000000;stroke:none;stroke-width:0.26458332px;stroke-linecap:butt;stroke-linejoin:miter;stroke-opacity:1" />
        <path
           inkscape:connector-curvature="0"
           id="path4552"
           d="m 136.78013,86.556545 c -1.70089,1.322916 -1.6064,3.82701 -1.46466,7.79576 0.14175,3.96875 0.99219,8.646205 0.0472,10.063615 -0.94494,1.41741 -3.07106,5.10268 -4.11049,5.00819 -1.03943,-0.0945 -2.07887,-0.99219 -3.59077,0.80319 -1.51191,1.79539 -1.93713,3.44904 -0.18899,2.59859 1.74814,-0.85045 3.96875,-1.03943 4.63021,-2.07887 0.66146,-1.03943 1.18117,-1.6064 2.83482,-1.22842 1.65364,0.37798 2.74033,1.65365 2.88207,0.28348 0.14174,-1.37016 -0.0472,-2.12612 0.75595,-2.69308 0.8032,-0.56696 1.18118,0.94494 0.89769,-1.98437 -0.28348,-2.92932 -0.42522,-5.669648 -0.14174,-7.087058 0.28348,-1.41741 -0.47247,-0.944941 -0.47247,-2.315104 0,-1.370163 0.85045,-2.645833 0.28348,-4.724702 -0.56696,-2.078868 -0.66145,-4.488468 -2.36235,-4.441221 z"
           style="fill:#e6e6e6;fill-opacity:1;stroke:none;stroke-width:0.26458332px;stroke-linecap:butt;stroke-linejoin:miter;stroke-opacity:1" />
        <path
           inkscape:connector-curvature="0"
           id="path4566"
           d="m 116.83019,88.118626 c 2.37202,-0.06682 1.03567,-1.469983 4.10927,-1.403165 3.0736,0.06682 7.01582,2.906557 7.3165,4.009044 0.30068,1.102487 -0.16704,2.037929 -1.23612,1.369756 -1.06908,-0.668174 -3.90881,-1.80407 -6.04697,-2.138157 -2.13816,-0.334086 -6.18061,0.400905 -6.1472,0.133634 0.0334,-0.267269 1.83748,-1.870885 2.00452,-1.971112 z"
           style="fill:#666666;stroke:none;stroke-width:0.26458332px;stroke-linecap:butt;stroke-linejoin:miter;stroke-opacity:1" />
        <path
           inkscape:connector-curvature="0"
           id="path4556"
           d="m 136.92187,76.870906 c -0.7087,4.677455 -2.17336,7.9375 -3.49627,9.827381 -1.32292,1.889882 -3.35454,2.598587 -3.3073,3.921504 0.0472,1.322916 -0.37797,2.834819 -0.37797,1.181174 0,-1.653646 0.47247,-3.118303 -0.66146,-4.015997 -1.13393,-0.897694 0.89769,2.409597 0.28348,3.212798 -0.61421,0.803199 -1.46466,0.472469 -2.07887,-0.472471 -0.61421,-0.944939 -2.36235,-2.220609 -3.63802,-2.929314 -1.27567,-0.708707 -4.7247,-1.181176 -5.81138,-0.897694 -1.08669,0.283483 -2.26786,0.803198 -2.45685,0.188987 -0.18899,-0.614209 0.37798,-2.362351 3.26005,-1.748139 2.88207,0.614211 4.81919,1.984375 5.66964,0.09449 0.85045,-1.889879 1.08668,-3.307292 2.45685,-3.449032 1.37016,-0.14174 2.45684,0.992188 2.74032,-0.283482 0.28348,-1.27567 0.85045,-2.267858 1.22843,-0.188987 0.37797,2.078869 0.0472,4.204984 0.89769,4.157737 0.85044,-0.04725 2.07887,-0.330729 2.07887,-2.126115 0,-1.795388 1.70089,-6.66183 3.21279,-6.472843 z"
           style="fill:#808080;stroke:none;stroke-width:0.26458332px;stroke-linecap:butt;stroke-linejoin:miter;stroke-opacity:1" />
        <path
           inkscape:connector-curvature="0"
           id="path4558"
           d="m 127.51972,81.595607 c -1.27567,-1.795386 -3.44904,-2.976562 -3.16555,-2.456844 0.28348,0.519719 1.18117,2.362351 0.18898,2.362351 -0.99218,0 -2.88206,-1.511903 -4.15773,-1.086681 -1.27567,0.425223 -4.53572,-0.236236 -5.76414,-0.04725 -1.22842,0.188987 -4.016,1.6064 -5.66964,2.551338 -1.65365,0.944941 -4.15774,0.897694 -4.96094,3.071058 -0.8032,2.173362 -0.37798,2.598587 -1.51191,5.102678 -1.13392,2.504093 -3.9215,5.197173 -2.976559,5.669642 0.944939,0.472472 3.732519,1.228423 4.488469,-0.519716 0.75595,-1.748141 1.70089,-4.063246 2.88207,-4.677455 1.18117,-0.614211 3.07105,-3.874256 5.00818,-4.866444 1.93713,-0.992187 5.85863,-1.559152 8.92969,-0.850447 3.07106,0.708705 3.73251,1.181176 4.53571,0.377975 0.8032,-0.803198 2.64584,-2.976562 2.17337,-4.630208 z"
           style="fill:#808080;stroke:none;stroke-width:0.26458332px;stroke-linecap:butt;stroke-linejoin:miter;stroke-opacity:1" />
        <path
           inkscape:connector-curvature="0"
           id="path4560"
           d="m 106.73103,95.722468 c 0.99218,-1.464657 2.64583,-4.677455 4.91369,-5.858632 2.26785,-1.181174 3.73251,-1.41741 5.24442,-1.41741 1.5119,0 3.1183,1.228424 2.17336,1.181177 -0.94494,-0.04725 -2.64583,-0.377976 -4.34673,0.377976 -1.70089,0.755951 -3.30729,1.133927 -4.63021,2.409597 -1.32291,1.27567 -3.40178,3.874257 -3.35453,3.307292 z"
           style="fill:none;stroke:none;stroke-width:0.26458332px;stroke-linecap:butt;stroke-linejoin:miter;stroke-opacity:1" />
        <path
           inkscape:connector-curvature="0"
           id="path4562"
           d="m 109.84778,93.564243 c -1.10249,2.071338 -2.73952,4.777441 -5.04472,5.712886 -2.3052,0.935441 -6.013561,1.536801 -5.278569,1.369751 0.734989,-0.16704 5.211759,-2.238378 6.614919,-3.507907 1.40316,-1.269532 0.63476,-1.135896 -0.56795,-0.300678 -1.20271,0.835216 -1.80407,1.336347 -0.10022,-1.169305 1.70384,-2.505651 3.37428,-5.479026 5.67947,-6.681739 2.3052,-1.202712 6.58152,-2.004521 8.85331,-1.904294 2.27179,0.100227 5.47902,1.971111 6.1472,2.873147 0.66817,0.902034 -0.33409,0.835216 -1.5368,0.267269 -1.20272,-0.567946 -4.14268,-2.271792 -5.98016,-2.271792 -1.83748,0 -4.51017,0.56795 -6.61492,1.737255 -2.10475,1.169302 -5.51243,6.447877 -4.51017,5.646068 1.00226,-0.80181 2.00452,-2.438834 2.33861,-1.770661 z"
           style="fill:#808080;stroke:none;stroke-width:0.26458332px;stroke-linecap:butt;stroke-linejoin:miter;stroke-opacity:1" />
        <path
           inkscape:connector-curvature="0"
           id="path4564"
           d="m 112.72092,90.891547 c -1.9377,0.968851 -3.37428,1.703842 -4.04245,3.240643 -0.66817,1.5368 -0.50113,2.33861 0.93544,2.438834 1.43658,0.100226 5.14494,0.400904 7.14947,-0.100224 2.00452,-0.501132 4.91107,-1.169305 4.00904,-1.236123 -0.90204,-0.06682 -1.03567,0.23386 -3.14042,0.601355 -2.10475,0.367496 -8.0849,0.601359 -7.684,-0.200451 0.4009,-0.801809 0.7684,-2.438834 2.37202,-3.741774 1.60361,-1.302938 1.1693,-1.202711 3.10701,-1.737252 1.9377,-0.534537 4.94448,-0.100226 4.67721,-0.367495 -0.26727,-0.267269 -2.03793,-1.770661 -3.04019,-1.670434 -1.00226,0.100227 -3.74177,2.57247 -4.34313,2.772921 z"
           style="fill:#cccccc;stroke:none;stroke-width:0.26458332px;stroke-linecap:butt;stroke-linejoin:miter;stroke-opacity:1" />
        <path
           inkscape:connector-curvature="0"
           id="path4568"
           d="m 110.91685,95.301495 c 0.86863,-1.236123 1.1359,-2.80633 3.10701,-3.875408 1.97111,-1.069078 3.4411,-1.169305 5.7797,-0.968854 2.33861,0.200454 3.60814,1.436574 3.64155,2.071341 0.0334,0.634765 0.46772,0.400902 -0.43431,0.868624 -0.90203,0.467723 -3.94223,1.637028 -6.21402,2.004523 -2.27179,0.367496 -5.74629,0.03341 -5.87993,-0.100226 z"
           style="fill:#ffffff;stroke:none;stroke-width:0.26458332px;stroke-linecap:butt;stroke-linejoin:miter;stroke-opacity:1" />
        <path
           inkscape:connector-curvature="0"
           id="path4570"
           d="m 123.94624,92.996294 c -0.13363,1.436574 0.26727,2.171565 -0.66817,2.706105 -0.93544,0.534538 -7.18287,2.873148 -8.01809,3.006781 -0.83521,0.133636 0.0334,0.701582 0.90204,0.634767 0.86862,-0.06682 0.96885,1.002263 2.10474,0.133633 1.1359,-0.868624 4.87767,-2.305198 5.31199,-2.973372 0.43431,-0.668176 0.53454,-2.07134 0.96885,-2.171565 0.43431,-0.100226 2.20497,0.23386 2.63928,-0.167044 0.43432,-0.400905 -1.83747,-0.200451 -1.73725,-0.534538 0.10023,-0.334089 2.10475,0.133633 1.93771,-0.53454 -0.16705,-0.668174 -1.23612,-0.968852 -2.50565,-1.536801 -1.26954,-0.567946 -3.77519,-1.169302 -3.0402,-0.668173 0.735,0.501131 2.33861,1.403164 2.10475,2.104747 z"
           style="fill:#808080;stroke:none;stroke-width:0.26458332px;stroke-linecap:butt;stroke-linejoin:miter;stroke-opacity:1" />
        <path
           inkscape:connector-curvature="0"
           id="path4572"
           d="m 98.488819,52.371328 c -3.875408,4.944486 -8.285353,11.358954 -7.082642,11.626223 1.202714,0.267269 7.216278,-2.405425 10.289873,0.935445 3.0736,3.340867 6.28084,5.211754 4.40995,9.087162 -1.87089,3.875407 -7.34991,12.02713 -3.74177,9.488069 3.60814,-2.539061 9.35443,-4.810852 12.6953,-4.276312 3.34087,0.534538 8.28536,0.935442 11.09169,-0.668173 2.80632,-1.603619 -12.2944,-0.668177 -10.55715,-1.603619 1.73725,-0.935442 10.02261,-2.00452 14.03165,-2.00452 4.00904,0 -10.95805,-9.087165 -8.68626,-11.358957 2.27179,-2.271789 16.43708,-4.81085 17.10525,-10.69078 0.66817,-5.879928 -5.87993,-17.506154 -12.2944,-17.105249 -6.41447,0.400905 -18.4416,4.81085 -27.261491,16.570711 z"
           style="fill:#ececec;stroke:none;stroke-width:0.26458332px;stroke-linecap:butt;stroke-linejoin:miter;stroke-opacity:1" />
        <path
           inkscape:connector-curvature="0"
           id="path4580"
           d="m 116.79464,137.48884 c 0.47247,-4.25223 0.42523,-5.24442 1.51191,-6.28386 1.08668,-1.03943 13.27641,-10.67782 13.13467,-12.18973 -0.14174,-1.5119 -1.65365,-1.98437 0.0945,-2.12612 1.74814,-0.14174 4.48847,-1.79538 4.96094,-0.85044 0.47247,0.94494 0.8977,10.44159 0.51972,11.48102 -0.37798,1.03944 0,0.85045 -1.51191,1.65365 -1.5119,0.8032 -10.01636,4.016 -11.19754,4.86644 -1.18118,0.85045 -7.41778,4.72471 -6.61458,4.53572 0.8032,-0.18899 3.49628,-1.32292 3.26004,-0.56697 -0.23624,0.75596 -1.51191,3.77976 -0.94494,3.73252 0.56696,-0.0473 3.2128,0.14174 4.86644,0.47247 1.65365,0.33073 3.35454,2.50409 1.55916,5.00818 -1.79539,2.50409 -8.92969,1.74814 -8.97694,2.64584 -0.0473,0.89769 0.66146,5.33891 3.1183,6.75632 2.45685,1.41741 11.33929,0.94494 13.84338,-0.14174 2.50409,-1.08668 8.45722,0.47247 8.92969,-0.33073 0.47247,-0.8032 -0.75595,-5.24442 0.14174,-5.5279 0.89769,-0.28348 5.66964,-0.14174 6.18936,1.65364 0.51972,1.79539 0.89769,5.00819 -0.94494,6.47285 -1.84264,1.46465 -8.45722,3.73251 -9.96912,2.64583 -1.51191,-1.08668 -2.74033,-3.59077 -3.35454,-2.17336 -0.61421,1.41741 -1.6064,3.2128 -4.39398,3.49628 -2.78757,0.28348 -11.62276,0.85044 -11.67001,-0.94494 -0.0472,-1.79539 -0.0472,-1.22843 -1.46466,-1.55916 -1.41741,-0.33072 -0.61421,-2.26785 -1.79538,-2.17336 -1.18118,0.0945 -4.06325,0.89769 -6.80357,-0.37797 -2.74033,-1.27567 -8.36273,-5.66965 -8.8352,-7.27605 -0.47247,-1.60639 9.59115,-0.7087 12.7567,-4.96093 3.16555,-4.25223 3.59077,-7.9375 3.59077,-7.9375 z"
           style="fill:#808080;stroke:none;stroke-width:0.26458332px;stroke-linecap:butt;stroke-linejoin:miter;stroke-opacity:1" />
        <path
           inkscape:connector-curvature="0"
           id="path4578"
           d="m 125.77158,116.60565 c -2.03163,2.5041 -2.22061,1.93713 -3.63802,4.58296 -1.41742,2.64584 -2.69309,3.73252 -2.69309,5.48066 0,1.74814 -2.92931,6.66183 -1.84263,6.04762 1.08668,-0.61421 5.00819,-4.86645 6.37835,-4.86645 1.37016,0 6.66183,-4.58296 8.26823,-6.52008 1.6064,-1.93713 3.1183,-4.48847 2.26786,-3.68527 -0.85045,0.8032 -3.73252,2.74033 -5.48066,2.36235 -1.74814,-0.37798 -2.17336,-2.83482 -3.26004,-3.40179 z"
           style="fill:#999999;stroke:none;stroke-width:0.26458332px;stroke-linecap:butt;stroke-linejoin:miter;stroke-opacity:1" />
        <path
           inkscape:connector-curvature="0"
           id="path4584"
           d="m 122.36979,138.90625 c 2.69308,-1.22843 3.73252,-1.32292 4.58296,-1.37017 0.85045,-0.0472 3.87426,-1.60639 5.43341,-1.41741 1.55915,0.18899 3.07106,0.51972 4.20498,0.51972 1.13393,0 2.31511,0.51972 3.82701,0.33073 1.51191,-0.18899 3.82701,-0.56697 4.63021,-0.37798 0.8032,0.18899 4.15774,0.42523 3.2128,0.85045 -0.94494,0.42522 -1.70089,0.61421 -0.37798,0.56696 1.32292,-0.0472 3.40179,0.66146 1.84264,0.8977 -1.55916,0.23623 -3.07106,1.27567 -6.14212,1.46465 -3.07105,0.18899 -7.70126,0.23624 -9.96912,-0.66145 -2.26786,-0.8977 -6.37835,-1.46466 -7.70126,-1.41741 -1.32292,0.0472 -3.30729,0.61421 -3.54353,0.61421 z"
           style="fill:#666666;fill-opacity:1;stroke:none;stroke-width:0.26458332px;stroke-linecap:butt;stroke-linejoin:miter;stroke-opacity:1" />
        <path
           inkscape:connector-curvature="0"
           id="path4588"
           d="m 132.62239,132.05543 c 2.22062,-1.22842 3.73252,-2.78757 4.72471,-2.07887 0.99219,0.70871 1.13393,2.17336 2.26785,1.41741 1.13393,-0.75595 0.0945,-1.27567 1.65365,-1.32292 1.55915,-0.0472 5.95312,2.5041 6.28385,2.69308 0.33073,0.18899 -3.54352,2.12612 -5.14992,2.5041 -1.6064,0.37797 -4.7247,0.33073 -6.56734,-0.0945 -1.84263,-0.42522 -5.5279,0.14174 -6.56733,0.18899 -1.03944,0.0472 -0.99219,-0.37798 -0.14174,-0.99219 0.85044,-0.61421 3.49627,-2.3151 3.49627,-2.3151 z"
           style="fill:#999999;fill-opacity:1;stroke:none;stroke-width:0.26458332px;stroke-linecap:butt;stroke-linejoin:miter;stroke-opacity:1" />
        <path
           inkscape:connector-curvature="0"
           id="path4586"
           d="m 123.55097,136.78013 c 2.07887,-1.22842 4.67745,-1.98437 6.37834,-3.21279 1.7009,-1.22843 3.3073,-1.74815 2.69308,-1.27568 -0.61421,0.47247 -4.6302,2.07887 -3.40178,2.59859 1.22842,0.51972 4.8192,-0.8032 5.6224,-0.66146 0.80319,0.14174 1.32291,1.13393 2.36235,1.08668 1.03943,-0.0472 2.69308,0.47247 3.26004,0.33073 0.56697,-0.14174 3.1183,-0.99218 3.54353,-1.84263 0.42522,-0.85045 -0.61421,-2.88207 0.18898,-2.64584 0.80321,0.23624 4.016,2.17337 5.10268,2.31511 1.08669,0.14174 4.15774,2.22061 4.29948,2.88207 0.14174,0.66146 0.37798,1.18117 -1.22842,0.51972 -1.6064,-0.66146 -4.48847,-1.93713 -6.09486,-1.88989 -1.6064,0.0473 -4.29948,0.85045 -5.43341,0.99219 -1.13393,0.14174 -4.86645,-0.75595 -5.81139,-0.85045 -0.94494,-0.0945 -2.55134,-0.23623 -3.9215,0.18899 -1.37016,0.42523 -4.016,1.27567 -5.33891,1.27567 -1.32292,0 -2.4096,0.61422 -2.22061,0.18899 z"
           style="fill:#4d4d4d;stroke:none;stroke-width:0.26458332px;stroke-linecap:butt;stroke-linejoin:miter;stroke-opacity:1" />
        <path
           inkscape:connector-curvature="0"
           id="path4626"
           d="m 98.935266,151.85193 c 5.386164,5.38616 11.055804,11.71726 17.764884,13.79613 6.70907,2.07887 12.56771,-0.18899 16.72545,5.19717 4.15773,5.38617 7.37053,21.92263 5.57514,26.36384 -1.79538,4.44123 3.2128,19.65477 1.88988,21.16667 -1.32291,1.51191 -11.71726,6.23661 -14.93006,5.38616 -3.21279,-0.85044 -12.6622,-22.30059 -15.59151,-40.72693 -2.92932,-18.42634 -11.906253,-25.4189 -11.433784,-31.18304 z"
           style="fill:#808080;stroke:none;stroke-width:0.26458332px;stroke-linecap:butt;stroke-linejoin:miter;stroke-opacity:1" />
        <path
           inkscape:connector-curvature="0"
           id="path4624"
           d="m 98.462797,150.718 c -0.472472,9.16593 -0.661458,17.19792 -0.755951,20.03274 -0.0945,2.83482 -0.755955,8.88244 -1.417413,10.67783 -0.661458,1.79539 -1.133927,9.63839 0.850447,16.06399 1.984375,6.42559 6.52009,19.56026 11.81176,22.01711 5.29166,2.45684 17.67038,6.80357 18.14285,3.77976 0.47247,-3.02381 -0.94494,-7.18155 0.47247,-8.22098 1.41741,-1.03944 4.91369,2.55134 6.14212,-0.18899 1.22842,-2.74033 -2.07887,-9.82738 -5.66965,-12.56771 -3.59077,-2.74033 -5.57515,-4.6302 -1.98437,-3.87425 3.59077,0.75595 6.80357,1.79538 4.44122,-2.64584 -2.36235,-4.44122 -8.59896,-10.20535 -5.00818,-7.55952 3.59077,2.64583 7.27604,7.9375 7.843,5.19717 0.56696,-2.74033 -1.03943,-12.37872 -2.83482,-14.64658 -1.79539,-2.26785 -8.12649,0.56697 -15.875,-5.19717 -7.74851,-5.76413 -3.11831,-4.91369 -7.46503,-11.62276 -4.34673,-6.70908 -8.693453,-11.2448 -8.693453,-11.2448 z"
           style="fill:#999999;stroke:none;stroke-width:0.26458332px;stroke-linecap:butt;stroke-linejoin:miter;stroke-opacity:1" />
        <path
           inkscape:connector-curvature="0"
           id="path4590"
           d="m 97.895832,148.54464 c 2.456848,4.34673 3.307288,7.84301 6.425598,11.1503 3.1183,3.30729 9.96912,7.0398 13.04018,7.79576 3.07105,0.75595 9.30766,1.37016 11.19754,3.44903 1.88988,2.07887 0.66146,4.8192 1.46466,4.7247 0.8032,-0.0945 2.26786,-0.8032 2.69308,0.28348 0.42522,1.08669 2.78757,5.76414 2.36235,9.5439 -0.42522,3.77976 -1.5119,3.07106 -0.75595,5.33892 0.75595,2.26785 -1.32292,6.47284 -0.18899,10.39434 1.13393,3.9215 4.67745,8.7407 4.86644,11.67002 0.18899,2.92931 -3.35454,7.843 -1.22842,7.46503 2.12612,-0.37798 8.50447,-2.17337 10.96131,-7.79576 2.45684,-5.6224 -2.12612,-9.87463 -1.13393,-18.61533 0.99219,-8.7407 2.31511,-14.69382 4.7247,-18.66257 2.4096,-3.96875 8.55172,-9.26042 8.40997,-10.48884 -0.14174,-1.22843 0.0945,-2.36235 -1.84263,-1.37017 -1.93713,0.99219 -8.26823,2.59859 -9.49665,2.55134 -1.22843,-0.0472 -2.45685,-0.94494 -0.8032,-1.88988 1.65365,-0.94494 6.00037,-2.36235 8.07924,-3.9215 2.07887,-1.55915 4.29948,-4.016 2.83482,-3.30729 -1.46466,0.7087 -8.97693,2.26785 -9.73289,2.07886 -0.75595,-0.18898 -2.69308,2.69309 -4.91369,3.68527 -2.22061,0.99219 -7.70126,1.08669 -8.50446,0.37798 -0.8032,-0.7087 0.0473,-0.61421 -1.6064,-0.14174 -1.65364,0.47247 -5.33891,2.07887 -8.50446,1.93713 -3.16555,-0.14174 -6.85082,-0.61422 -7.51228,-2.03163 -0.66146,-1.41741 -1.79539,-2.83482 -3.26005,-2.92931 -1.46465,-0.0945 -5.10267,0.37797 -7.89025,-2.03162 -2.78757,-2.4096 -7.654016,-5.76414 -9.685638,-9.26042 z"
           style="fill:#4d4d4d;stroke:none;stroke-width:0.26458332px;stroke-linecap:butt;stroke-linejoin:miter;stroke-opacity:1" />
        <path
           inkscape:connector-curvature="0"
           id="path4592"
           d="m 156.01859,175.04804 c -2.33861,4.81085 -1.80407,8.41899 -1.46999,10.62396 0.33409,2.20498 -1.33634,4.00905 -1.60361,7.41673 -0.26727,3.40769 -0.86863,10.89124 0.33408,10.69078 1.20271,-0.20045 12.56167,-7.08264 13.76438,-9.48807 1.20272,-2.40542 1.1359,-11.22532 -0.60135,-13.96483 -1.73725,-2.73951 -10.08943,-3.4745 -10.42351,-5.27857 z"
           style="fill:#4d4d4d;fill-opacity:1;stroke:none;stroke-width:0.26458332px;stroke-linecap:butt;stroke-linejoin:miter;stroke-opacity:1" />
        <path
           inkscape:connector-curvature="0"
           id="path4594"
           d="m 182.75149,116.41667 c -1.98438,2.55133 -3.30729,4.06324 -2.26786,5.38616 1.03943,1.32291 1.79539,2.17336 0.66146,3.0238 -1.13393,0.85045 0,6.4256 -1.32292,6.4256 -1.32292,0 -1.79538,-2.45685 -2.17336,-0.28348 -0.37798,2.17336 0.0945,3.02381 1.32291,2.92931 1.22843,-0.0945 0.66146,0.85045 -0.28348,1.7009 -0.94494,0.85044 -2.07887,2.55133 -0.94494,3.30729 1.13393,0.75595 1.98438,0.85044 3.30729,-0.94494 1.32292,-1.79539 3.11831,-6.89807 3.87426,-10.11087 0.75595,-3.21279 3.2128,-13.22916 2.07887,-10.20535 -1.13393,3.02381 -1.03943,4.7247 -1.88988,7.18154 -0.85045,2.45685 -1.98438,8.40998 -2.83482,8.69346 -0.85045,0.28348 -0.85045,-0.28348 -0.28348,-2.26786 0.56696,-1.98437 -0.0945,-3.2128 0.66145,-4.44122 0.75596,-1.22842 1.51191,-1.70089 1.51191,-4.34673 0,-2.64583 -1.03944,-6.89806 -1.41741,-6.04761 z"
           style="fill:#4d4d4d;fill-opacity:1;stroke:none;stroke-width:0.26458332px;stroke-linecap:butt;stroke-linejoin:miter;stroke-opacity:1" />
        <path
           inkscape:connector-curvature="0"
           id="path4596"
           d="m 180.57812,106.3058 c -0.56696,2.26786 -2.36235,5.38616 -0.66146,4.63021 1.7009,-0.75595 4.8192,-1.03943 6.04763,-2.17336 1.22842,-1.13393 1.70089,-2.26786 0.28348,-2.64584 -1.41741,-0.37797 -3.59078,1.03944 -4.72471,0.85045 -1.13392,-0.18899 -0.94494,-0.66146 -0.94494,-0.66146 z"
           style="fill:#999999;stroke:none;stroke-width:0.26458332px;stroke-linecap:butt;stroke-linejoin:miter;stroke-opacity:1" />
        <path
           inkscape:connector-curvature="0"
           id="path4598"
           d="m 92.141168,111.57153 c -2.739511,-0.73499 -4.34313,-0.53454 -6.214017,-2.20498 -1.870884,-1.67043 -2.806329,-2.33861 -2.806329,-1.5368 0,0.80181 1.737251,1.46999 1.336349,2.60588 -0.400904,1.1359 -1.336349,2.40543 -1.469982,4.00905 -0.133636,1.60361 0.668173,3.4745 0.334086,5.0113 -0.334086,1.5368 -0.668173,2.40542 -0.200453,4.47676 0.467722,2.07134 0.868627,6.21402 1.5368,6.88219 0.668174,0.66818 4.409948,3.27405 2.605879,1.20272 -1.80407,-2.07134 -3.140419,-4.6104 -3.34087,-7.08265 -0.200451,-2.47224 -0.601356,-5.27857 0.06682,-7.48354 0.668173,-2.20498 -0.200454,-3.47451 0.534537,-4.47677 0.734992,-1.00226 1.069078,-3.34087 1.670437,-1.9377 0.601355,1.40316 0.334086,3.40769 1.135896,3.40769 0.801806,0 3.140416,0.66817 3.140416,2.00452 0,1.33634 0.334087,2.20497 -1.00226,2.27179 -1.33635,0.0668 -1.937705,-1.67044 -2.605879,0.4009 -0.668173,2.07134 -0.400904,9.75534 0.801809,10.69078 1.202711,0.93544 2.939963,0.46772 2.672694,-1.67043 -0.267269,-2.13816 -0.601355,-5.87993 0.334087,-7.61718 0.935445,-1.73726 1.00226,-2.00453 1.269532,-3.34087 0.267268,-1.33635 0.534537,-4.40995 1.00226,-2.33861 0.467722,2.07134 0.935442,4.74403 0.935442,7.34991 0,2.60588 -0.267269,5.67948 -0.801807,4.6104 -0.53454,-1.06908 -1.804069,-3.40769 -1.135895,-0.86862 0.668173,2.53905 1.536797,5.34539 0.868624,6.21401 -0.668174,0.86863 -0.400905,-1.20271 -1.00226,0.26727 -0.601356,1.46998 0,2.47224 0.668173,1.9377 0.668174,-0.53453 0.935445,2.2718 -0.133633,3.60814 -1.069078,1.33635 -4.209497,2.40543 -5.144939,0.73499 -0.935442,-1.67043 -3.674957,-10.15624 -4.610399,-13.63074 -0.935445,-3.47451 -0.06682,-6.28084 0.133633,-9.15398 0.200454,-2.87315 -0.935442,-11.55941 0.400905,-11.62623 1.336349,-0.0668 3.073601,1.73725 4.34313,1.26953 1.269531,-0.46772 0.668173,-2.80633 1.403164,-1.87088 0.734992,0.93544 -0.334086,2.73951 0.80181,3.74177 1.135896,1.00226 3.608138,4.20949 2.472242,4.14268 z"
           style="fill:#b3b3b3;stroke:none;stroke-width:0.26458332px;stroke-linecap:butt;stroke-linejoin:miter;stroke-opacity:1" />
        <path
           inkscape:connector-curvature="0"
           id="circle4608"
           transform="scale(0.26458333)"
           d="m 587.76172,342.70508 c -1.28816,0.0273 -2.47658,0.14274 -3.58203,0.3164 a 14.821428,14.821428 0 0 0 -2.39453,8.05079 14.821428,14.821428 0 0 0 1.34961,6.13476 c 3.14086,0.78578 6.9992,1.89174 11.59179,3.49219 4.27466,1.48965 7.87794,1.97699 10.99414,2.05273 a 14.821428,14.821428 0 0 0 5.68164,-11.18359 c -3.7358,-3.30963 -9.33269,-6.91862 -16.92773,-8.29297 -2.48593,-0.44983 -4.71361,-0.61267 -6.71289,-0.57031 z"
           style="opacity:1;fill:#921c06;fill-opacity:1;stroke:none;stroke-width:6.29291344;stroke-miterlimit:4;stroke-dasharray:none;stroke-opacity:1" />
        <path
           inkscape:connector-curvature="0"
           id="path4606"
           transform="scale(0.26458333)"
           d="m 446.70703,341.57031 c -5.64067,-0.0237 -10.1626,0.94611 -15.75,3.97657 -1.8661,1.01212 -3.32851,2.14355 -4.52344,3.34374 a 14.821428,14.821428 0 0 0 6.76953,12.28907 c 2.84953,-0.0387 5.73196,-0.20067 8.23438,-0.60547 3.66223,-0.59242 7.83076,-1.74392 11.69727,-2.99805 a 14.821428,14.821428 0 0 0 2.9375,-8.82617 14.821428,14.821428 0 0 0 -1.58789,-6.66406 c -0.54463,-0.0816 -1.10406,-0.1515 -1.6836,-0.20117 -2.2097,-0.18941 -4.21353,-0.30657 -6.09375,-0.31446 z"
           style="opacity:1;fill:#921c06;fill-opacity:1;stroke:none;stroke-width:6.29291344;stroke-miterlimit:4;stroke-dasharray:none;stroke-opacity:1" />
        <circle
           r="1.7481397"
           cy="92.88765"
           cx="157.85229"
           id="circle4610"
           style="opacity:1;fill:#261402;fill-opacity:1;stroke:none;stroke-width:0.74222887;stroke-miterlimit:4;stroke-dasharray:none;stroke-opacity:1" />
        <circle
           style="opacity:1;fill:#261402;fill-opacity:1;stroke:none;stroke-width:0.74222887;stroke-miterlimit:4;stroke-dasharray:none;stroke-opacity:1"
           id="circle4612"
           cx="157.85229"
           cy="92.88765"
           r="1.7481397" />
        <circle
           r="0.61421132"
           cy="93.312866"
           cx="156.62389"
           id="path4604"
           style="opacity:1;fill:#fde5cd;fill-opacity:1;stroke:none;stroke-width:1.66499996;stroke-miterlimit:4;stroke-dasharray:none;stroke-opacity:1" />
        <circle
           style="opacity:1;fill:#351b02;fill-opacity:1;stroke:none;stroke-width:0.76228911;stroke-miterlimit:4;stroke-dasharray:none;stroke-opacity:1"
           id="circle4614"
           cx="116.74739"
           cy="92.273438"
           r="1.7953868" />
        <circle
           r="0.56696427"
           cy="93.029388"
           cx="116.22768"
           id="path4600"
           style="opacity:1;fill:#fcdcbb;fill-opacity:1;stroke:none;stroke-width:1.66499996;stroke-miterlimit:4;stroke-dasharray:none;stroke-opacity:1" />
      </g>
      <g
         inkscape:label="Shirt"
         id="layer3-8">
        <path
           inkscape:connector-curvature="0"
           id="path4633"
           d="m 114.12409,204.18042 c 1.46998,2.07134 3.40768,1.40316 4.74403,3.74177 1.33635,2.33861 3.0736,2.93997 1.80407,6.68174 -1.26953,3.74177 -3.0736,4.40995 -2.20497,6.01356 0.86862,1.60362 5.27857,1.93771 7.684,7.2831 2.40542,5.34539 5.14493,11.09168 7.21627,19.77794 2.07134,8.68626 4.07586,20.04522 4.07586,20.04522 L -8.8198943,267.991 c 0,0 0.2672694,-3.87539 3.6081385,-12.42802 3.3408691,-8.55262 8.7530769,-17.97387 14.4993718,-21.18111 5.746295,-3.20723 37.751821,-17.43933 42.89676,-22.11655 5.144937,-4.67722 9.020344,-6.34765 15.568448,-9.15398 6.548104,-2.80633 9.48807,-2.80633 13.363477,-5.54584 3.875408,-2.73952 1.536801,-2.07134 4.944486,-2.53906 3.407688,-0.46773 28.063303,9.15398 28.063303,9.15398 z"
           style="fill:#501616;stroke:none;stroke-width:0.26458332px;stroke-linecap:butt;stroke-linejoin:miter;stroke-opacity:1" />
        <path
           sodipodi:nodetypes="ccsccsssscsc"
           inkscape:connector-curvature="0"
           id="path4631"
           d="m 97.286108,229.03648 c 6.414472,-8.55262 5.545842,-11.62622 7.149462,-14.633 1.60361,-3.00679 3.94222,-5.61266 5.81311,-7.34992 1.87088,-1.73725 4.07586,-2.3386 3.87541,-3.07359 -0.20046,-0.735 -9.28762,-7.14946 -13.22984,-11.29214 -3.942229,-4.14268 -5.669985,-6.27805 -5.202263,-9.35165 0.467723,-3.0736 2.796832,-8.95632 1.126398,-8.35496 -1.670433,0.60136 -3.489901,8.13239 -4.425345,12.34188 -0.935443,4.2095 -4.394548,3.76111 -5.998166,5.76563 -1.603616,2.00452 -1.870888,3.0736 -1.603616,5.94675 0.267269,2.87315 1.135893,5.41221 4.677217,12.36121 3.541321,6.94901 7.149459,17.10526 7.817633,17.63979 z"
           style="fill:#800000;stroke:none;stroke-width:0.26458332px;stroke-linecap:butt;stroke-linejoin:miter;stroke-opacity:1" />
        <path
           inkscape:connector-curvature="0"
           id="path4635"
           d="m 97.553377,228.56876 c 0.267268,1.67044 5.879933,4.81085 5.679473,3.34087 -0.20045,-1.46998 -3.541317,-2.13816 -1.80407,-4.40995 1.73726,-2.27179 5.14494,-2.07134 6.41447,-6.5481 1.26953,-4.47676 -0.93544,-4.6104 2.07134,-8.21854 3.00678,-3.60814 7.684,-4.94448 6.94901,-5.74629 -0.73499,-0.80181 -1.06908,-2.60588 -3.87541,-2.27179 -2.80633,0.33408 -10.22306,7.61718 -11.75986,11.42577 -1.536797,3.80859 -3.674953,12.42803 -3.674953,12.42803 z"
           style="fill:#2b0000;stroke:none;stroke-width:0.26458332px;stroke-linecap:butt;stroke-linejoin:miter;stroke-opacity:1" />
        <path
           inkscape:connector-curvature="0"
           id="path4637"
           d="m 133.23661,267.41816 c 1.88988,-7.18156 3.40178,-19.46578 6.04761,-24.37947 2.64584,-4.91369 4.15774,-5.85863 3.59078,-11.33929 -0.56697,-5.48065 -3.40179,-5.10268 -0.56697,-10.01637 2.83483,-4.91369 3.77977,-4.53571 3.96876,-7.9375 0.18898,-3.40178 0,-3.2128 5.48065,-7.18155 5.48065,-3.96875 11.90625,2.26786 20.41071,-3.40178 8.50447,-5.66964 5.85864,-10.77232 9.07143,-9.26042 3.2128,1.51191 13.04018,10.96131 25.32441,15.11905 12.28422,4.15774 31.75,13.22917 40.44345,16.81994 8.69345,3.59078 10.58333,3.2128 16.25297,11.90625 5.66965,8.69345 10.20535,32.69495 10.20535,32.69495 z"
           style="fill:#501616;stroke:none;stroke-width:0.26458332px;stroke-linecap:butt;stroke-linejoin:miter;stroke-opacity:1" />
        <path
           inkscape:connector-curvature="0"
           id="path4639"
           d="m 152.3244,206.56398 c 6.61459,4.15774 16.81994,26.45834 18.52084,22.11161 1.70089,-4.34672 4.53571,-9.07143 8.50446,-16.06399 3.96875,-6.99255 2.07887,-17.95387 0.56696,-22.48958 -1.5119,-4.53571 -10.9613,-15.875 -9.4494,-14.55208 1.5119,1.32292 2.26786,7.74851 -1.32292,13.79613 -3.59077,6.04762 -16.81994,17.19791 -16.81994,17.19791 z"
           style="fill:#2b0000;fill-opacity:1;stroke:none;stroke-width:0.26458332px;stroke-linecap:butt;stroke-linejoin:miter;stroke-opacity:1" />
      </g>
    </g>
  </g>
  <g
     inkscape:label="Blue Banner"
     id="g4203"
     inkscape:groupmode="layer">
    <rect
       y="146.84375"
       x="0"
       height="43.65625"
       width="338.66669"
       id="rect4205"
       style="opacity:1;fill:#407d93;fill-opacity:1;stroke:none;stroke-width:11.03082752;stroke-miterlimit:4;stroke-dasharray:none;stroke-opacity:1" />
  </g>
  <g
     inkscape:groupmode="layer"
     id="layer3"
     inkscape:label="Discover"
     style="display:none">
    <text
       xml:space="preserve"
       style="font-style:normal;font-variant:normal;font-weight:normal;font-stretch:normal;line-height:0%;font-family:Museo;-inkscape-font-specification:'Museo, Normal';text-align:start;letter-spacing:0px;word-spacing:0px;writing-mode:lr-tb;text-anchor:start;fill:#ffffff;fill-opacity:1;stroke:none;stroke-width:0.50668812px;stroke-linecap:butt;stroke-linejoin:miter;stroke-opacity:1"
       x="173.85484"
       y="40.767208"
       id="text4147"><tspan
         sodipodi:role="line"
         id="tspan4164"
         x="173.85484"
         y="40.767208"
         style="font-size:20.26743698px;line-height:1.25">DISCOVER:</tspan></text>
  </g>
  <g
     inkscape:label="Interview"
     id="g4209"
     inkscape:groupmode="layer">
    <text
       xml:space="preserve"
       style="font-style:normal;font-variant:normal;font-weight:normal;font-stretch:normal;font-size:13.91653633px;line-height:0%;font-family:Museo;-inkscape-font-specification:'Museo, Normal';text-align:start;letter-spacing:0px;word-spacing:0px;writing-mode:lr-tb;text-anchor:start;fill:#ffffff;fill-opacity:1;stroke:none;stroke-width:0.58761197px;stroke-linecap:butt;stroke-linejoin:miter;stroke-opacity:1"
       x="132.17928"
       y="23.274406"
       id="text4167"><tspan
         y="23.274406"
         x="132.17928"
         sodipodi:role="line"
         id="tspan4169"
         style="font-size:23.50437927px;line-height:1.25;stroke-width:0.58761197px">INTERVIEW:</tspan></text>
  </g>
  <g
     inkscape:groupmode="layer"
     id="layer18"
     inkscape:label="Part"
     style="display:inline" />
  <g
     inkscape:groupmode="layer"
     id="layer4"
     inkscape:label="Artist Name">
    <text
       xml:space="preserve"
       style="font-style:normal;font-variant:normal;font-weight:600;font-stretch:normal;font-size:8.05386353px;line-height:0%;font-family:Museo;-inkscape-font-specification:'Museo, Semi-Bold';text-align:start;letter-spacing:0px;word-spacing:0px;writing-mode:lr-tb;text-anchor:start;fill:#ffffff;fill-opacity:1;stroke:none;stroke-width:0.56943381px;stroke-linecap:butt;stroke-linejoin:miter;stroke-opacity:1"
       x="132.3765"
       y="50.618416"
       id="text4158"><tspan
         sodipodi:role="line"
         x="132.3765"
         y="50.618416"
         style="font-style:normal;font-variant:normal;font-weight:600;font-stretch:normal;font-size:29.45525742px;line-height:100%;font-family:Museo;-inkscape-font-specification:'Museo, Semi-Bold';text-align:start;writing-mode:lr-tb;text-anchor:start;fill:#ffffff;fill-opacity:1;stroke-width:0.56943381px"
         id="tspan4906">Devin</tspan><tspan
         sodipodi:role="line"
         x="132.3765"
         y="80.073669"
         style="font-style:normal;font-variant:normal;font-weight:600;font-stretch:normal;font-size:29.45525742px;line-height:100%;font-family:Museo;-inkscape-font-specification:'Museo, Semi-Bold';text-align:start;writing-mode:lr-tb;text-anchor:start;fill:#ffffff;fill-opacity:1;stroke-width:0.56943381px"
         id="tspan1176">Townsend</tspan><tspan
         sodipodi:role="line"
         x="132.3765"
         y="109.52893"
         style="font-style:normal;font-variant:normal;font-weight:600;font-stretch:normal;font-size:29.45525742px;line-height:100%;font-family:Museo;-inkscape-font-specification:'Museo, Semi-Bold';text-align:start;writing-mode:lr-tb;text-anchor:start;fill:#ffffff;fill-opacity:1;stroke-width:0.56943381px"
         id="tspan911">acoustic, Vai,</tspan><tspan
         sodipodi:role="line"
         x="132.3765"
         y="138.98419"
         style="font-style:normal;font-variant:normal;font-weight:600;font-stretch:normal;font-size:29.45525742px;line-height:100%;font-family:Museo;-inkscape-font-specification:'Museo, Semi-Bold';text-align:start;writing-mode:lr-tb;text-anchor:start;fill:#ffffff;fill-opacity:1;stroke-width:0.56943381px"
         id="tspan915">&amp; More</tspan></text>
  </g>
  <g
     inkscape:groupmode="layer"
     id="layer6"
     inkscape:label="WEIRD">
    <path
       style="opacity:1;fill:#ffffff;fill-opacity:1;stroke:none;stroke-width:17.2258606;stroke-miterlimit:4;stroke-dasharray:none;stroke-opacity:1"
       d="M 245.3457 602.625 L 245.3457 672.625 L 495.3457 672.625 L 495.3457 602.625 L 245.3457 602.625 z M 254.20703 613.5 L 258.08398 613.5 C 261.48345 613.5 263.18217 614.17987 263.99805 617.44336 L 271.4082 648.31055 C 272.02011 650.89414 272.36133 653.41016 272.36133 653.41016 L 272.49609 653.41016 C 272.49609 653.41016 272.90446 650.96213 273.65234 648.31055 L 283.30664 613.63477 L 289.42578 613.63477 L 298.40039 648.31055 C 299.08028 650.96213 299.41992 653.41016 299.41992 653.41016 L 299.55664 653.41016 C 299.55664 653.41016 299.8295 650.89414 300.44141 648.31055 L 307.98828 617.44336 C 308.80415 614.17987 310.43452 613.5 313.83398 613.5 L 317.70898 613.5 L 317.70898 619.3457 L 316.68945 619.3457 C 315.46565 619.3457 314.71885 619.61799 314.37891 620.8418 L 303.83984 661.5 L 295.95312 661.5 L 287.79492 631.17773 C 286.97905 628.05022 286.43555 624.58203 286.43555 624.58203 L 286.29883 624.58203 C 286.29883 624.58203 285.61824 628.04985 284.73438 631.10938 L 276.0332 661.5 L 268.07812 661.5 L 257.53906 620.8418 C 257.19912 619.61799 256.45232 619.3457 255.22852 619.3457 L 254.20703 619.3457 L 254.20703 613.5 z M 326.5 613.5 L 354.7168 613.5 C 357.77632 613.5 359.06641 614.79204 359.06641 617.85156 L 359.06641 623.90234 L 352.88086 623.90234 L 352.88086 620.8418 C 352.88086 619.82196 352.33662 619.3457 351.38477 619.3457 L 337.71875 619.3457 L 337.71875 634.37305 L 354.51172 634.37305 L 354.51172 640.21875 L 337.71875 640.21875 L 337.71875 654.15625 C 337.71875 655.1081 338.26299 655.65234 339.21484 655.65234 L 353.2207 655.65234 C 354.17255 655.65234 354.7168 655.1081 354.7168 654.15625 L 354.7168 651.09766 L 360.9707 651.09766 L 360.9707 657.14844 C 360.9707 660.20796 359.67866 661.5 356.61914 661.5 L 335.27148 661.5 C 332.21196 661.5 330.91992 660.20796 330.91992 657.14844 L 330.91992 619.3457 L 326.5 619.3457 L 326.5 613.5 z M 370.41406 613.5 L 386.25586 613.5 L 386.25586 619.3457 L 381.56445 619.3457 L 381.56445 655.65234 L 386.25586 655.65234 L 386.25586 661.5 L 370.41406 661.5 L 370.41406 655.65234 L 375.10547 655.65234 L 375.10547 619.3457 L 370.41406 619.3457 L 370.41406 613.5 z M 396.6543 613.5 L 417.5957 613.5 C 426.02638 613.5 431.94141 618.80359 431.94141 627.57422 C 431.94141 635.59696 426.70611 639.53923 423.30664 640.28711 L 423.30664 640.42383 C 423.30664 640.42383 424.52983 641.03585 425.3457 642.59961 L 431.125 654.08984 C 431.80489 655.51762 432.89365 655.65234 434.52539 655.65234 L 435.4082 655.65234 L 435.4082 661.5 L 432.07812 661.5 C 428.33871 661.5 426.97782 661.02399 425.41406 657.89648 L 418.88672 644.97852 C 417.66291 642.73487 416.78049 642.39453 414.12891 642.39453 L 407.87305 642.39453 L 407.87305 661.5 L 401.07422 661.5 L 401.07422 619.3457 L 396.6543 619.3457 L 396.6543 613.5 z M 443.75 613.5 L 463.19531 613.5 C 477.81302 613.5 487.4668 622.27002 487.4668 637.43164 C 487.4668 652.66125 477.81302 661.5 463.19531 661.5 L 452.51953 661.5 C 449.46001 661.5 448.16992 660.20796 448.16992 657.14844 L 448.16992 619.3457 L 443.75 619.3457 L 443.75 613.5 z M 407.87305 619.3457 L 407.87305 636.54883 L 416.71094 636.54883 C 421.87813 636.54883 424.9375 633.21686 424.9375 627.8457 C 424.9375 622.47455 421.87887 619.3457 416.84766 619.3457 L 407.87305 619.3457 z M 454.96875 619.3457 L 454.96875 654.15625 C 454.96875 655.1081 455.51299 655.65234 456.46484 655.65234 L 462.71875 655.65234 C 473.39308 655.65234 480.39648 649.26179 480.39648 637.43164 C 480.39648 625.66949 473.32509 619.3457 462.71875 619.3457 L 454.96875 619.3457 z "
       transform="scale(0.26458334)"
       id="rect4172" />
  </g>
  <g
     inkscape:groupmode="layer"
     id="layer7"
     inkscape:label="MAKE">
    <text
       xml:space="preserve"
       style="font-style:normal;font-variant:normal;font-weight:normal;font-stretch:normal;line-height:0%;font-family:Museo;-inkscape-font-specification:'Museo, Normal';text-align:start;letter-spacing:0px;word-spacing:0px;writing-mode:lr-tb;text-anchor:start;fill:#ffffff;fill-opacity:1;stroke:none;stroke-width:0.26458335px;stroke-linecap:butt;stroke-linejoin:miter;stroke-opacity:1"
       x="10.690782"
       y="175.02188"
       id="text4175"><tspan
         sodipodi:role="line"
         id="tspan4177"
         x="10.690782"
         y="175.02188"
         style="font-style:normal;font-variant:normal;font-weight:normal;font-stretch:normal;font-size:17.99166679px;line-height:100%;font-family:Museo;-inkscape-font-specification:'Museo, Normal';text-align:start;letter-spacing:1.32291675px;writing-mode:lr-tb;text-anchor:start;fill:#ffffff;fill-opacity:1;stroke-width:0.26458335px">MAKE</tspan></text>
  </g>
  <g
     inkscape:groupmode="layer"
     id="layer8"
     inkscape:label="MUSIC">
    <text
       xml:space="preserve"
       style="font-style:normal;font-variant:normal;font-weight:normal;font-stretch:normal;line-height:0%;font-family:Museo;-inkscape-font-specification:'Museo, Normal';text-align:start;letter-spacing:0px;word-spacing:0px;writing-mode:lr-tb;text-anchor:start;fill:#ffffff;fill-opacity:1;stroke:none;stroke-width:0.26458335px;stroke-linecap:butt;stroke-linejoin:miter;stroke-opacity:1"
       x="134.21758"
       y="174.80598"
       id="text4180"><tspan
         sodipodi:role="line"
         id="tspan4182"
         x="134.21758"
         y="174.80598"
         style="font-style:normal;font-variant:normal;font-weight:normal;font-stretch:normal;font-size:17.99166679px;line-height:100%;font-family:Museo;-inkscape-font-specification:'Museo, Normal';text-align:start;writing-mode:lr-tb;text-anchor:start;fill:#ffffff;fill-opacity:1;stroke-width:0.26458335px">MUSIC</tspan></text>
  </g>
</svg>
