<?xml version="1.0" encoding="UTF-8" standalone="no"?>
<!-- Created with Inkscape (http://www.inkscape.org/) -->

<svg
   xmlns:dc="http://purl.org/dc/elements/1.1/"
   xmlns:cc="http://creativecommons.org/ns#"
   xmlns:rdf="http://www.w3.org/1999/02/22-rdf-syntax-ns#"
   xmlns:svg="http://www.w3.org/2000/svg"
   xmlns="http://www.w3.org/2000/svg"
   xmlns:sodipodi="http://sodipodi.sourceforge.net/DTD/sodipodi-0.dtd"
   xmlns:inkscape="http://www.inkscape.org/namespaces/inkscape"
   width="1280"
   height="720"
   viewBox="0 0 338.66666 190.50001"
   id="svg2"
   version="1.1"
   inkscape:version="0.91+devel r13925"
   sodipodi:docname="markus-reuter-interview-thumbnail.svg"
   inkscape:export-filename="/Users/agarone/Documents/git/art/markus-reuter/interview/markus-reuter-interview-thumbnail.png"
   inkscape:export-xdpi="144"
   inkscape:export-ydpi="144">
  <defs
     id="defs4" />
  <sodipodi:namedview
     id="base"
     pagecolor="#ffffff"
     bordercolor="#666666"
     borderopacity="1.0"
     inkscape:pageopacity="0.0"
     inkscape:pageshadow="2"
     inkscape:zoom="3.2261747"
     inkscape:cx="450.441"
     inkscape:cy="523.30886"
     inkscape:document-units="px"
     inkscape:current-layer="g4432"
     showgrid="false"
     units="px"
     inkscape:window-width="1920"
     inkscape:window-height="1151"
     inkscape:window-x="0"
     inkscape:window-y="1"
     inkscape:window-maximized="1"
     showguides="true" />
  <metadata
     id="metadata7">
    <rdf:RDF>
      <cc:Work
         rdf:about="">
        <dc:format>image/svg+xml</dc:format>
        <dc:type
           rdf:resource="http://purl.org/dc/dcmitype/StillImage" />
        <dc:title></dc:title>
      </cc:Work>
    </rdf:RDF>
  </metadata>
  <g
     inkscape:label="Gray BG"
     inkscape:groupmode="layer"
     id="layer1"
     transform="translate(0,-106.49999)">
    <rect
       style="opacity:1;fill:#6d757b;fill-opacity:1;stroke:none;stroke-width:16.0535984;stroke-miterlimit:4;stroke-dasharray:none;stroke-opacity:1"
       id="rect4141"
       width="338.66669"
       height="190.5"
       x="1.4210855e-14"
       y="106.49999" />
  </g>
  <g
     inkscape:groupmode="layer"
     id="layer2"
     inkscape:label="Orange Banner">
    <rect
       style="opacity:1;fill:#de3d2d;fill-opacity:1;stroke:none;stroke-width:11.03082752;stroke-miterlimit:4;stroke-dasharray:none;stroke-opacity:1"
       id="rect4144"
       width="338.66669"
       height="43.65625"
       x="0"
       y="146.84375" />
  </g>
  <g
     inkscape:groupmode="layer"
     id="layer5"
     inkscape:label="Artist Image" />
  <g
     inkscape:label="Blue Banner"
     id="g4203"
     inkscape:groupmode="layer">
    <rect
       y="146.84375"
       x="0"
       height="43.65625"
       width="338.66669"
       id="rect4205"
       style="opacity:1;fill:#407d93;fill-opacity:1;stroke:none;stroke-width:11.03082752;stroke-miterlimit:4;stroke-dasharray:none;stroke-opacity:1" />
  </g>
  <g
     inkscape:groupmode="layer"
     id="layer3"
     inkscape:label="Discover"
     style="display:none">
    <text
       xml:space="preserve"
       style="font-style:normal;font-variant:normal;font-weight:normal;font-stretch:normal;font-size:20.26743698px;line-height:125%;font-family:Museo;-inkscape-font-specification:'Museo, Normal';text-align:start;letter-spacing:0px;word-spacing:0px;writing-mode:lr-tb;text-anchor:start;fill:#ffffff;fill-opacity:1;stroke:none;stroke-width:0.50668812px;stroke-linecap:butt;stroke-linejoin:miter;stroke-opacity:1"
       x="173.85484"
       y="40.767208"
       id="text4147"
       sodipodi:linespacing="125%"><tspan
         sodipodi:role="line"
         id="tspan4164"
         x="173.85484"
         y="40.767208">DISCOVER:</tspan></text>
  </g>
  <g
     inkscape:label="Interview"
     id="g4209"
     inkscape:groupmode="layer">
    <text
       sodipodi:linespacing="125%"
       id="text4211"
       y="40.767208"
       x="173.85484"
       style="font-style:normal;font-variant:normal;font-weight:normal;font-stretch:normal;font-size:20.26743698px;line-height:125%;font-family:Museo;-inkscape-font-specification:'Museo, Normal';text-align:start;letter-spacing:0px;word-spacing:0px;writing-mode:lr-tb;text-anchor:start;fill:#ffffff;fill-opacity:1;stroke:none;stroke-width:0.50668812px;stroke-linecap:butt;stroke-linejoin:miter;stroke-opacity:1"
       xml:space="preserve"><tspan
         id="tspan4213"
         sodipodi:role="line"
         x="173.85484"
         y="40.767208">INTERVIEW:</tspan></text>
    <text
       xml:space="preserve"
       style="font-style:normal;font-variant:normal;font-weight:normal;font-stretch:normal;font-size:20.26743698px;line-height:125%;font-family:Museo;-inkscape-font-specification:'Museo, Normal';text-align:start;letter-spacing:0px;word-spacing:0px;writing-mode:lr-tb;text-anchor:start;fill:#ffffff;fill-opacity:1;stroke:none;stroke-width:0.50668812px;stroke-linecap:butt;stroke-linejoin:miter;stroke-opacity:1"
       x="173.85484"
       y="40.767208"
       id="text4167"
       sodipodi:linespacing="125%"><tspan
         y="40.767208"
         x="173.85484"
         sodipodi:role="line"
         id="tspan4169">INTERVIEW:</tspan></text>
    <g
       id="g4432"
       transform="matrix(0.55500004,0,0,0.55500004,0,-0.37154041)">
      <g
         style="display:none"
         transform="translate(0,-32.41665)"
         id="layer1-0"
         inkscape:label="BG">
        <rect
           inkscape:export-ydpi="144"
           inkscape:export-xdpi="144"
           y="32.416653"
           x="0"
           height="264.58334"
           width="264.58334"
           id="rect5606"
           style="opacity:1;fill:#ffffff;fill-opacity:1;stroke:none;stroke-width:11.60810661;stroke-miterlimit:4;stroke-dasharray:none;stroke-opacity:1" />
      </g>
      <g
         style="display:inline"
         inkscape:label="Head"
         id="layer2-3">
        <path
           sodipodi:nodetypes="csssssssssssscsscscssssscc"
           inkscape:connector-curvature="0"
           id="path4776"
           d="m 27.970239,211.47767 c 0,0 11.339285,-10.77232 12.473212,-19.08779 1.13393,-8.31548 4.111882,-31.02647 3.35593,-37.64106 C 43.04343,148.13424 27.78125,124.54315 26.269345,114.52678 24.75744,104.51042 22.867559,82.020832 34.962798,69.358631 47.058034,56.696427 70.492558,44.979166 87.879464,40.63244 c 17.386906,-4.346725 29.860116,-2.267857 38.175596,-0.188989 8.31547,2.078868 15.875,7.559524 19.84375,12.284226 3.96875,4.724704 7.60677,14.410342 8.36272,17.245165 0.75595,2.83482 0.47247,7.654016 1.41741,10.866815 0.94494,3.212798 3.63802,3.827009 3.82701,7.606769 0.18899,3.779764 1.32292,9.260417 2.07887,11.339288 0.75595,2.078866 0,4.346726 -0.75595,6.236606 -0.75596,1.88988 -4.91369,5.66964 -4.91369,5.66964 0,0 2.07887,1.88988 3.21279,4.91369 1.13393,3.02381 2.26786,4.91369 0.75596,7.74852 -1.51191,2.83482 -2.83482,3.40178 -2.83482,3.40178 0,0 0.56696,3.40179 0.37797,6.23661 -0.18899,2.83482 -11.1503,26.26934 -11.1503,26.26934 0,0 2.26786,5.29167 1.32292,9.26042 -0.94494,3.96875 -1.13393,6.04762 -6.61458,8.50446 -5.48066,2.45685 -10.20536,1.51191 -12.09524,2.26786 -1.88988,0.75595 -9.26042,3.40179 -13.79613,4.7247 -4.53572,1.32292 -11.33929,20.59971 -10.96131,29.48215 0.37798,8.88243 -48.191965,37.9866 -48.191965,37.9866 z"
           style="fill:#c87137;fill-rule:evenodd;stroke:none;stroke-width:0.26458332px;stroke-linecap:butt;stroke-linejoin:miter;stroke-opacity:1" />
      </g>
      <g
         style="display:inline"
         inkscape:label="Shadows"
         id="layer3-2">
        <path
           inkscape:connector-curvature="0"
           id="path4779"
           d="m 44.223214,159.50595 c 1.700893,0 1.700893,0.75595 3.779761,-0.37798 2.078868,-1.13392 6.425597,-9.82738 6.992559,-7.18154 0.566965,2.64583 -1.133927,23.05654 -0.755951,24.75744 0.377975,1.70089 3.212798,-3.40179 3.212798,-1.7009 0,1.7009 -2.456847,10.58334 -1.511906,20.78869 0.944941,10.20536 2.267858,20.03274 5.10268,20.59971 2.83482,0.56696 4.913688,-6.80357 9.638392,-10.20536 4.724702,-3.40179 17.386904,-9.82738 20.410713,-11.90625 3.023811,-2.07887 3.96875,-5.85863 7.181548,-7.18155 3.212802,-1.32291 17.119812,-2.36165 17.119812,-2.36165 0,0 -11.82668,5.94675 -15.23436,15.43482 -3.407693,9.48806 -38.553635,42.6963 -43.698572,42.22858 -5.144939,-0.46772 -24.52198,-34.6114 -24.52198,-34.6114 0,0 7.951269,-11.96031 9.087165,-18.10751 1.135893,-6.1472 3.197341,-30.1751 3.197341,-30.1751 z"
           style="fill:#9a4d19;fill-opacity:1;fill-rule:evenodd;stroke:none;stroke-width:0.26458332px;stroke-linecap:butt;stroke-linejoin:miter;stroke-opacity:1" />
        <path
           inkscape:connector-curvature="0"
           id="path4781"
           d="m 63.688988,108.47917 c 0,0 -1.081103,2.0901 -0.346112,3.69371 0.734992,1.60362 3.140419,2.47225 2.806333,4.2095 -0.33409,1.73725 -1.069078,2.67269 -2.405428,2.33861 -1.336347,-0.33409 -3.407685,-3.34087 -5.211755,-3.34087 -1.804069,0 -6.280835,-1.9377 -7.015826,-3.60814 -0.734991,-1.67043 -0.534538,-5.47903 0.668173,-6.01356 1.202714,-0.53455 4.14268,-0.86863 5.67948,-1.26954 1.536798,-0.4009 2.939963,-1.26953 2.939963,-1.26953 0,0 0,3.40769 -0.601356,4.87767 -0.601355,1.46998 -2.338607,4.40995 -1.469983,4.6104 0.868628,0.20045 4.033089,-5.04883 4.956511,-4.22825 z"
           style="fill:#784421;fill-rule:evenodd;stroke:none;stroke-width:0.26458332px;stroke-linecap:butt;stroke-linejoin:miter;stroke-opacity:1" />
        <path
           inkscape:connector-curvature="0"
           id="path4783"
           d="m 61.071087,101.88301 c 0,0 0.267269,-2.87315 -0.400904,-4.009046 -0.668174,-1.135896 -3.34087,1.80407 -4.810853,1.80407 -1.469983,0 -3.674957,-1.269532 -3.674957,-0.334087 0,0.935443 2.539061,3.541323 4.209497,3.541323 1.670434,0 4.476764,-0.80181 4.677217,-1.00226 z"
           style="fill:#784421;fill-rule:evenodd;stroke:none;stroke-width:0.26458332px;stroke-linecap:butt;stroke-linejoin:miter;stroke-opacity:1" />
        <path
           inkscape:connector-curvature="0"
           id="path4785"
           d="m 48.041697,114.64513 c 0,0 -0.334087,-4.87767 0.200451,-7.88445 0.53454,-3.00679 0.734991,-8.418993 2.873147,-9.28762 2.138156,-0.868627 6.68174,-1.603616 6.280836,-2.405425 -0.400905,-0.801809 -2.138157,-3.274052 -4.944486,-2.271792 -2.80633,1.00226 -5.612662,2.405425 -6.548104,7.216277 -0.935442,4.81085 -0.935442,9.28762 2.138156,14.63301 z"
           style="fill:#784421;fill-rule:evenodd;stroke:none;stroke-width:0.26458332px;stroke-linecap:butt;stroke-linejoin:miter;stroke-opacity:1" />
        <path
           sodipodi:nodetypes="cssscssssssc"
           inkscape:connector-curvature="0"
           id="path4787"
           d="m 142.38784,109.76746 c 0.86862,0 2.07134,4.34313 1.40316,5.74629 -0.66817,1.40317 -4.94448,1.60362 -4.61039,3.20724 0.33408,1.60361 0.86862,2.87314 4.14267,2.27179 3.27405,-0.60136 8.21854,-2.53906 9.68852,-2.60588 1.46998,-0.0668 4.81085,0.60136 5.01131,2.53906 0.20045,1.9377 -2.33861,7.08264 -4.34313,8.35217 -2.00452,1.26953 -1.87089,-0.4009 -3.54133,-0.4009 -1.67043,0 -6.14719,1.73725 -7.81763,1.26953 -1.67043,-0.46772 -5.09449,-2.54452 -6.28083,-5.54584 -0.95792,-2.42343 -2.40543,-6.48129 2.33861,-9.15398 4.74403,-2.6727 2.53906,-5.47903 4.00904,-5.67948 z"
           style="fill:#a05a2c;fill-rule:evenodd;stroke:none;stroke-width:0.26458332px;stroke-linecap:butt;stroke-linejoin:miter;stroke-opacity:1" />
        <path
           sodipodi:nodetypes="csscssscscc"
           inkscape:connector-curvature="0"
           id="path4789"
           d="m 146.99824,139.16711 c 1.33635,-0.13364 2.93996,-1.40317 2.93996,-2.20498 0,-0.80181 -0.4009,-4.20949 0.20045,-5.0113 0.60136,-0.80181 1.36559,-1.74561 2.08387,-2.22585 -0.86863,-0.43432 -1.48251,-1.0482 -2.81886,-1.0482 -1.33634,0 -4.00904,1.67043 -6.34765,1.00226 -2.3386,-0.66818 -4.11744,-1.75138 -4.77744,-2.50565 -0.70158,-0.80181 -1.64751,-2.03319 -2.3825,-3.00203 -0.93544,0.13363 -0.85814,10.11808 1.94819,12.1226 2.80633,2.00452 6.1472,0.73499 7.01582,0.80181 0.86863,0.0668 0.93544,1.73725 2.13816,2.07134 z"
           style="fill:#784421;fill-rule:evenodd;stroke:none;stroke-width:0.26458332px;stroke-linecap:butt;stroke-linejoin:miter;stroke-opacity:1" />
        <path
           inkscape:connector-curvature="0"
           id="path4794"
           d="m 135.10474,88.185444 c -0.26726,-1.870887 -4.00904,-4.543581 -1.06907,-4.677217 2.93996,-0.133636 2.00452,-4.543581 5.34539,-1.870887 3.34087,2.672696 6.1472,1.469983 6.68174,4.009043 0.53453,2.539061 4.54358,10.156243 6.5481,10.557148 2.00452,0.400902 -1.33635,6.681739 -2.27179,6.147199 -0.93545,-0.53454 -2.6727,-1.46998 -3.60814,-0.80181 -0.93545,0.66817 -1.87089,4.54358 -4.27631,4.54358 -2.40543,0 -5.87993,2.00452 -10.15625,1.20272 -4.27631,-0.80181 -19.37704,-2.80633 -21.38156,-6.01357 -2.00452,-3.207235 -6.41446,-7.349911 -6.41446,-8.686258 0,-1.33635 33.40868,1.336347 30.60235,-4.409948 z"
           style="fill:#a05a2c;fill-rule:evenodd;stroke:none;stroke-width:0.26458332px;stroke-linecap:butt;stroke-linejoin:miter;stroke-opacity:1" />
        <path
           inkscape:connector-curvature="0"
           id="path4813"
           d="m 66.550111,130.6813 c 0,0 -1.632702,0.94891 -3.806063,0.47643 -2.173365,-0.47246 -10.299851,-7.843 -11.433781,-9.07142 -1.133928,-1.22843 -5.669643,-9.16593 -5.669643,-9.16593 0,0 -2.456844,2.92932 -1.984375,5.19718 0.47247,2.26786 1.228424,7.55952 3.02381,8.40997 1.795388,0.85044 4.063243,-2.26786 5.575149,-1.32292 1.511906,0.94494 7.9375,8.59896 10.110864,8.40997 2.173361,-0.18899 4.210343,-0.95287 4.184039,-2.93328 z"
           style="fill:#784421;fill-opacity:1;fill-rule:evenodd;stroke:none;stroke-width:0.26458332px;stroke-linecap:butt;stroke-linejoin:miter;stroke-opacity:1" />
        <path
           sodipodi:nodetypes="cscsc"
           inkscape:connector-curvature="0"
           id="path4852"
           d="m 68.483146,139.68727 c 0,1.27553 -1.159578,4.29044 1.159578,6.72556 2.319154,2.4351 6.592312,6.0387 6.708269,6.73444 0.115953,0.69576 -8.331678,-3.8355 -8.911465,-5.227 -0.579791,-1.39149 -0.579791,-9.50853 1.043618,-8.233 z"
           style="fill:#a05a2c;fill-opacity:1;fill-rule:evenodd;stroke:none;stroke-width:0.32468158px;stroke-linecap:butt;stroke-linejoin:miter;stroke-opacity:1" />
        <path
           inkscape:connector-curvature="0"
           id="path4854"
           d="m 94.212507,162.62001 c 0.601358,0.20045 13.497113,6.21402 14.298913,6.21402 0.80181,0 -15.10072,-7.55037 -14.298913,-6.21402 z"
           style="fill:#a05a2c;fill-opacity:1;fill-rule:evenodd;stroke:none;stroke-width:0.26458332px;stroke-linecap:butt;stroke-linejoin:miter;stroke-opacity:1" />
        <path
           inkscape:connector-curvature="0"
           id="path4862"
           d="m 151.00728,126.13772 c 0,-0.53454 0,-2.80633 -2.53906,-2.80633 -2.53906,0 -4.93176,0.73929 -5.64047,1.58974 -0.7087,0.85045 0,2.64583 0.85045,2.50409 0.85044,-0.14174 2.83482,-0.75595 2.22061,-1.22842 -0.61421,-0.47247 -2.12612,-0.89769 -1.13393,-0.94494 0.99219,-0.0472 5.445,1.86621 6.2424,0.88586 z"
           style="display:inline;fill:#502d16;fill-opacity:1;fill-rule:evenodd;stroke:none;stroke-width:0.26458332px;stroke-linecap:butt;stroke-linejoin:miter;stroke-opacity:1" />
      </g>
      <g
         style="display:inline"
         inkscape:label="Light"
         id="layer4-0">
        <path
           inkscape:connector-curvature="0"
           id="path4792"
           d="m 137.77744,110.23518 c 0.66817,2.40543 0.13363,5.47902 -3.60814,5.47902 -3.74177,0 -6.41447,4.14268 -10.69078,3.60814 -4.27631,-0.53453 -6.81537,-8.15172 -11.09168,-11.49259 -4.27632,-3.34086 4.67721,-2.67269 9.88897,-0.53453 5.21175,2.13815 14.03165,-0.93545 15.23436,-0.13364 1.20271,0.80181 0.26727,3.0736 0.26727,3.0736 z"
           style="fill:#ff9955;fill-rule:evenodd;stroke:none;stroke-width:0.26458332px;stroke-linecap:butt;stroke-linejoin:miter;stroke-opacity:1" />
        <path
           inkscape:connector-curvature="0"
           id="path4796"
           d="m 147.93368,139.10029 c 0.40091,0.93544 2.53906,0.80181 2.53906,2.13815 0,1.33635 -0.4009,8.55263 0.40091,8.55263 0.80181,0 5.74629,-11.62622 5.74629,-13.36348 0,-1.73725 1.20271,-7.61718 0.13364,-8.28535 -1.06908,-0.66818 -2.93997,1.46998 -3.0736,6.5481 -0.13364,5.07812 0.13363,8.28536 -0.53454,8.15172 -0.66818,-0.13363 -0.53454,-10.82441 -1.20272,-10.82441 -0.66817,0 -0.93544,7.48354 -4.00904,7.08264 z"
           style="fill:#ffb380;fill-rule:evenodd;stroke:none;stroke-width:0.26458332px;stroke-linecap:butt;stroke-linejoin:miter;stroke-opacity:1" />
        <path
           sodipodi:nodetypes="csssssssssssssssc"
           inkscape:connector-curvature="0"
           id="path4798"
           d="m 109.42509,84.153472 c -0.53453,-1.336347 0.55632,-15.077799 4.83263,-13.340547 4.27632,1.737251 17.10525,8.953529 16.83798,7.082642 -0.26727,-1.870887 -6.41446,-3.741774 -3.0736,-6.41447 3.34087,-2.672694 2.40543,-10.42351 5.21176,-11.626224 2.80633,-1.202711 4.75387,-15.657519 7.42656,-15.523886 2.6727,0.133636 12.85489,21.074479 13.92397,25.484427 1.06908,4.409945 0.19709,8.567445 1.53343,11.240141 1.33635,2.672694 2.37301,3.52175 2.90755,5.125369 0.53454,1.603615 2.27179,11.091685 1.20271,11.225318 -1.06908,0.133636 -3.4745,-1.870887 -4.81085,-2.539061 -1.33635,-0.668173 -2.00452,0.668174 -2.93997,-0.668173 -0.93544,-1.336347 -0.26727,-5.345391 -3.0736,-6.414469 -2.80633,-1.069078 -3.23155,-3.591925 -5.3697,-4.126466 -2.13816,-0.534537 -3.99144,-2.984429 -6.0284,-3.230162 -1.72984,-0.208683 -1.70203,1.518623 -3.84019,2.85497 -2.13816,1.336347 -19.32332,0.0968 -24.74028,0.870591 z"
           style="fill:#ffb380;fill-rule:evenodd;stroke:none;stroke-width:0.26458332px;stroke-linecap:butt;stroke-linejoin:miter;stroke-opacity:1" />
        <path
           inkscape:connector-curvature="0"
           id="path4800"
           d="m 141.25194,119.45598 c 0.13364,-2.6727 1.73726,-3.20724 4.14268,-3.20724 2.40543,0 7.48355,2.6727 7.48355,1.20272 0,-1.46999 -1.33635,-2.27179 -2.80633,-4.54359 -1.46998,-2.27179 -4.67722,-7.61718 -3.74178,-9.22079 0.93545,-1.60362 1.06908,-2.6727 2.53907,-1.33635 1.46998,1.33635 4.14267,6.68174 5.61265,8.68626 1.46999,2.00452 4.40995,4.14268 5.21176,6.68174 0.80181,2.53906 1.06908,5.07812 -0.13363,4.94448 -1.20272,-0.13363 -0.80181,-2.93996 -2.53906,-3.34087 -1.73726,-0.4009 -3.87541,-0.93544 -5.7463,-0.4009 -1.87089,0.53454 -8.15172,3.20723 -10.02261,0.53454 z"
           style="fill:#ffb380;fill-rule:evenodd;stroke:none;stroke-width:0.26458332px;stroke-linecap:butt;stroke-linejoin:miter;stroke-opacity:1" />
        <path
           inkscape:connector-curvature="0"
           id="path4802"
           d="m 143.65737,154.73555 c 1.73725,0 2.67269,-0.4009 2.67269,1.73726 0,2.13815 -1.20271,2.40542 -1.06907,3.74177 0.13363,1.33635 2.40542,0.80181 2.13815,5.87993 -0.26727,5.07812 0.93545,6.68174 -2.53906,9.35443 -3.4745,2.6727 -8.68626,4.54359 -8.68626,3.0736 0,-1.46998 4.00905,-3.34087 2.93997,-6.28083 -1.06908,-2.93996 -4.00905,-2.80633 -2.27179,-5.47903 1.73725,-2.67269 7.48354,-7.61718 6.81537,-12.02713 z"
           style="fill:#ffb380;fill-rule:evenodd;stroke:none;stroke-width:0.26458332px;stroke-linecap:butt;stroke-linejoin:miter;stroke-opacity:1" />
        <path
           sodipodi:nodetypes="cssssssssssssc"
           inkscape:connector-curvature="0"
           id="path4804"
           d="m 92.341619,80.300993 c 2.539061,-1.069078 2.138157,-2.138156 4.409948,-0.267269 2.271792,1.870885 9.888973,4.677217 12.962573,4.142677 3.0736,-0.534538 4.27631,-8.953529 7.61718,-8.953529 3.34087,0 16.70435,5.479026 16.70435,4.142679 0,-1.33635 -3.87541,-2.806332 -3.74178,-4.142679 0.13364,-1.336347 6.54811,-6.548104 7.21628,-9.220798 0.66818,-2.672697 2.40542,-4.009042 2.93996,-5.07812 0.53454,-1.069081 3.74178,-3.875409 5.21176,-4.142678 1.46998,-0.267272 3.0736,0.133633 0.53454,-2.405428 -2.53906,-2.53906 -3.87541,-9.488068 -20.98066,-10.557146 -17.10525,-1.069078 -23.38608,-6.414467 -29.666914,1.603617 -6.280835,8.018087 5.746294,19.243408 3.608136,23.920625 -2.138156,4.677214 -9.755335,5.879928 -6.815373,10.958049 z"
           style="fill:#ff9955;fill-rule:evenodd;stroke:none;stroke-width:0.26458332px;stroke-linecap:butt;stroke-linejoin:miter;stroke-opacity:1" />
      </g>
      <g
         style="display:inline"
         inkscape:label="Hair"
         id="layer5-8">
        <path
           sodipodi:nodetypes="csssssssssscssssssscscsscsscsssscssscssscsscsscscsscssscscscscscscssc"
           inkscape:connector-curvature="0"
           id="path4807"
           d="m 44.112509,144.3823 c 0,0 3.194197,-4.61383 1.590581,-11.16194 -1.603618,-6.5481 -2.672697,-12.56167 -2.271792,-15.368 0.400905,-2.80633 -2.80633,-2.67269 -3.207234,-4.00904 -0.400905,-1.33635 -0.26727,-8.55263 0.133635,-10.69079 0.400904,-2.13815 0.534537,-9.087157 3.073598,-11.626218 2.539061,-2.539061 8.686261,-6.280833 11.626226,-5.211755 2.939963,1.069078 10.423509,4.810852 13.764379,9.888973 3.34087,5.07812 7.617182,12.82893 6.949009,19.2434 -0.668174,6.41447 -10e-7,10.02261 1.737251,10.82442 1.737251,0.80181 0.600543,-0.49703 3.139601,0.43842 2.539061,0.93544 5.006555,5.09711 5.006555,5.09711 0,0 -1.998956,-3.26374 -0.662609,-7.80732 1.336347,-4.54358 3.875407,-11.62622 3.073598,-14.69982 -0.801806,-3.0736 -5.078118,-6.01357 -4.543581,-10.690784 0.534541,-4.677217 17.639794,-21.648833 17.639794,-27.528761 0,-5.87993 -8.686265,-17.773425 -7.349918,-21.782468 1.33635,-4.009041 5.211757,-7.750815 13.229838,-6.548101 8.01809,1.202711 24.32153,2.53906 28.59784,4.009043 4.27632,1.46998 14.69843,13.298623 14.69843,13.298623 0,0 -0.53314,-1.6724 0.93684,-3.944192 1.46998,-2.271789 6.01356,6.414471 6.01356,6.414471 0,0 0.13364,-6.414471 2.80633,-12.02713 2.6727,-5.612659 6.54811,-9.621703 9.88898,-8.68626 3.34087,0.935445 10.55714,8.68626 10.55714,8.68626 0,0 -15.10072,-14.165284 -12.56166,-16.704344 2.53906,-2.539061 11.09168,-5.078122 11.89349,-6.815373 0.80181,-1.737253 0,-3.34087 0,-3.34087 0,0 1.60362,5.078121 -5.07812,2.271791 -6.68174,-2.80633 -11.09169,-6.013565 -13.63075,-6.013565 -2.53906,0 -6.28083,-0.267269 -5.61266,-0.935443 0.66818,-0.668174 8.55263,-2.80633 12.42804,-1.737252 3.8754,1.069078 8.41899,0 8.41899,0 0,0 -3.60814,0.534539 -7.08265,-0.133634 -3.4745,-0.668174 -14.16528,0.267269 -17.37252,-0.53454 C 148.73549,15.755403 134.70384,7.3364129 134.83748,5.3318912 134.97111,3.3273698 134.30293,4.9999997e-6 134.30293,4.9999997e-6 c 0,0 -0.8018,4.7973472000003 -10.0226,7.6036773000003 -9.2208,2.8063297 -15.63527,1.8708867 -20.31249,3.2072347 C 99.290628,12.147264 94.613411,6.5346042 97.820645,4.9309871 101.02788,3.3273698 104.63602,4.9999997e-6 104.63602,4.9999997e-6 c 0,0 -9.220799,5.7327905000003 -12.428034,6.8018686000003 -3.207234,1.0690783 4.142677,2.271791 0.267269,4.4099474 -3.875407,2.138156 -12.027127,-0.668174 -12.027127,-0.668174 0,0 -2.539061,4.142678 -6.280835,7.617182 -3.741772,3.474503 -15.234362,5.879929 -20.713388,7.884451 -5.479026,2.004522 -6.681737,5.746294 -6.681737,5.746294 0,0 2.939963,-3.608139 6.013564,-2.939966 3.073598,0.668176 6.280832,2.672697 6.280832,2.672697 0,0 -2.939965,1.603618 -6.147199,1.603618 -3.207234,0 -8.418989,-0.801809 -13.898015,0.133633 -5.479026,0.935445 -11.091685,4.409948 -11.091685,4.409948 0,0 13.096208,-4.543581 13.49711,-3.34087 0.400905,1.202714 -17.372518,16.971616 -20.446117,20.446119 -3.0736,3.474503 -5.746295,5.479026 -8.819895,5.479026 -3.0735991,0 -8.1517202,-2.004523 -8.1517202,-2.004523 0,0 9.3544332,5.612662 8.2853552,7.349913 -1.069078,1.737252 -8.4189899,1.603616 -8.4189899,1.603616 0,0 -0.8018086,6.414471 5.7462949,8.151722 6.548103,1.737252 -4.6772168,10.95805 -4.6772168,10.95805 0,0 9.2207988,-6.1472 9.2207988,-1.870888 0,4.276313 -4.009043,7.082645 -4.009043,7.082645 0,0 2.405426,-1.603619 3.474504,2.672694 1.069078,4.276312 -1.336348,8.418992 -1.336348,8.418992 0,0 4.142678,-11.225322 5.211756,-9.354435 1.069078,1.870888 -3.608139,13.764375 -3.608139,13.764375 0,0 8.285355,-3.60813 8.41899,3.07361 0.133635,6.68173 -0.300678,8.95352 3.574729,15.90253 3.875411,6.94901 18.233808,11.49946 18.220775,18.37822 z"
           style="fill:#c8beb7;fill-rule:evenodd;stroke:none;stroke-width:0.26458332px;stroke-linecap:butt;stroke-linejoin:miter;stroke-opacity:1" />
        <path
           sodipodi:nodetypes="cssscscsscssscssc"
           inkscape:connector-curvature="0"
           id="path4809"
           d="m 22.18337,95.000817 c 0,0 -1.737251,-10.557148 3.34087,-15.902538 5.078121,-5.34539 11.158504,-13.764379 14.365738,-9.755335 3.207234,4.00904 6.882189,5.813111 13.563926,5.011302 6.68174,-0.801809 10.223061,0.73499 10.223061,0.73499 0,0 -1.202714,3.407687 -1.603618,7.283095 -0.400905,3.875408 -11.158503,6.481286 -11.158503,6.481286 0,0 -4.677216,1.202714 -6.414468,4.14268 -1.737251,2.939962 -3.34087,7.349913 -2.806329,11.225313 0.534537,3.87541 3.942225,8.8199 3.942225,8.8199 0,0 -1.236123,1.5368 -1.102487,5.41221 0.133633,3.87541 3.841999,10.22306 3.708363,15.56845 -0.133633,5.34539 -2.405425,18.30796 -3.340867,22.04973 -0.935445,3.74178 -0.935445,8.28536 -0.935445,8.28536 0,0 0.133636,-9.75534 -3.340867,-15.90254 -3.474506,-6.1472 -15.100729,-19.51067 -16.036173,-26.05878 -0.935443,-6.5481 -0.267269,-25.524236 -2.405426,-27.395123 z"
           style="fill:#483e37;fill-rule:evenodd;stroke:none;stroke-width:0.26458332px;stroke-linecap:butt;stroke-linejoin:miter;stroke-opacity:1" />
        <path
           sodipodi:nodetypes="csscsssscssscsssscscsssscsscscsssscsscscscssscscsssc"
           inkscape:connector-curvature="0"
           id="path4811"
           d="m 35.68048,68.942039 c 0,0 6.548104,-5.34539 9.621705,-4.142679 3.073599,1.202714 -3.741774,2.672696 1.336347,4.409948 5.078122,1.737251 18.708867,-6.949009 18.708867,-6.949009 0,0 -12.695303,3.073601 -9.755338,-1.069078 2.939965,-4.142676 7.216278,-8.819893 5.879931,-10.824416 -1.33635,-2.00452 -4.543584,0 -1.069078,-3.608136 3.474503,-3.608139 6.280832,-2.672697 9.755335,-5.345393 3.474506,-2.672694 5.211757,-8.686257 5.211757,-8.686257 0,0 -5.479026,11.225318 -1.737251,14.566188 3.741772,3.34087 10.958049,0.935442 13.898015,-1.737252 2.939965,-2.672696 5.746294,-9.755338 1.603615,-10.557147 -4.142676,-0.801807 -5.078118,-3.207234 -5.078118,-3.207234 0,0 2.00452,1.603618 5.34539,-2.27179 3.340867,-3.875409 14.298923,-9.220799 20.847023,-8.68626 6.5481,0.534539 16.03617,3.608138 22.18337,4.276312 6.1472,0.668174 13.09621,5.879928 16.70434,5.879928 3.60814,0 16.83798,-2.939962 16.83798,-2.939962 0,0 -10.28987,2.405425 -12.82893,9.220798 -2.53906,6.815372 -4.81085,17.238884 -4.81085,17.238884 0,0 -8.68626,-10.824416 -16.16981,-11.893494 -7.48355,-1.069078 -28.86511,-4.944486 -33.40869,-1.737252 -4.543583,3.207234 -5.61266,10.42351 -11.49259,12.428033 -5.879931,2.00452 -11.22532,7.349913 -14.833459,11.759858 -3.608139,4.409948 -3.741774,6.949008 -3.741774,6.949008 0,0 1.202713,-6.013563 7.349913,-6.013563 6.147199,0 5.211754,1.603616 8.819893,1.469982 3.608139,-0.133635 3.87541,-0.267271 3.87541,-0.267271 0,0 -3.87541,0.801809 -7.082644,5.879931 -3.207234,5.078121 -8.018084,9.220797 -8.018084,9.220797 0,0 4.409945,-3.340867 7.884451,-3.073598 3.474503,0.267269 9.087162,-0.801809 8.285355,0 -0.801809,0.801809 -3.474505,-0.400905 -6.815372,6.548104 -3.34087,6.949006 -4.944489,11.893494 -6.280836,14.833461 -1.336347,2.93996 -3.073598,4.54358 -3.073598,4.54358 0,0 4.409945,-5.479026 5.211754,-4.81085 0.80181,0.66817 -2.271791,2.13815 -1.603615,5.21175 0.668173,3.0736 8.151719,7.08265 8.151719,7.08265 0,0 -1.202713,-2.00453 -2.271791,6.1472 -1.069078,8.15172 4.009043,14.69982 4.009043,14.69982 0,0 -5.078121,-4.00904 -8.953529,-4.00904 -3.875408,0 -8.285356,1.73725 -8.285356,1.73725 0,0 4.944486,-9.08717 4.810853,-12.2944 -0.133636,-3.20724 -0.801809,-13.09621 -3.87541,-17.77342 C 67.752824,96.4708 60.269278,88.853617 55.992966,88.987253 c -4.276312,0.133633 -6.013564,0.133633 -6.013564,0.133633 0,0 -1.603618,-4.409945 0.801807,-6.815373 2.405427,-2.405425 11.626225,-6.815373 11.626225,-6.815373 0,0 -4.543581,2.405429 -8.15172,2.405429 -3.608138,0 -10.022607,-1.603619 -11.358956,-3.60814 -1.336347,-2.004523 -2.672694,-5.078121 -4.409946,-5.078121 -1.737251,0 -2.806332,-0.267269 -2.806332,-0.267269 z"
           style="fill:#806e62;fill-opacity:1;fill-rule:evenodd;stroke:none;stroke-width:0.26458332px;stroke-linecap:butt;stroke-linejoin:miter;stroke-opacity:1" />
      </g>
      <g
         inkscape:label="Mouth"
         id="layer6-9">
        <path
           inkscape:connector-curvature="0"
           id="path4835"
           d="m 124.87415,143.51024 c 0,-0.80181 1.16489,-0.80181 5.38759,-1.60362 4.2227,-0.80181 8.95503,-3.34087 10.33833,-3.37428 1.3833,-0.0334 3.31263,0.80181 4.25911,0.93544 0.94646,0.13364 4.76872,1.36976 4.84153,2.17157 0.0728,0.80181 -0.47323,2.7061 -0.25481,3.44109 0.21841,0.73499 0.80085,1.33635 0.69164,2.40543 -0.1092,1.06908 -1.6381,2.23838 -1.96573,1.83748 -0.32763,-0.40091 -0.10921,-2.07134 -1.49251,-1.77066 -1.3833,0.30068 -2.9486,0.33408 -2.98501,1.1693 -0.0364,0.83522 1.67452,1.50339 1.67452,2.10475 0,0.60136 0.36402,1.83748 -0.43684,1.67043 -0.80085,-0.16704 -2.18415,-2.47224 -3.02141,-3.00678 -0.83726,-0.53454 -1.89293,-0.16704 -2.803,-0.63476 -0.91006,-0.46773 -4.2591,-1.93771 -5.7152,-2.6727 -1.4561,-0.73499 -3.38544,-1.67043 -4.87795,-1.87089 -1.4925,-0.20045 -3.27623,-1.00226 -3.64026,-0.8018 z"
           style="fill:#a05a2c;fill-rule:evenodd;stroke:none;stroke-width:0.2761842px;stroke-linecap:butt;stroke-linejoin:miter;stroke-opacity:1" />
        <path
           inkscape:connector-curvature="0"
           id="path4837"
           d="m 125.91932,143.44342 c 0,-0.23386 1.33966,-0.60136 2.29153,-0.60136 0.95186,0 3.20814,0.23386 4.72407,0.16704 1.51593,-0.0668 5.42915,-0.8018 6.34576,-0.46772 0.91661,0.33409 2.4678,1.36976 3.27865,1.36976 0.81084,0 1.90373,-0.4009 2.74983,0.0668 0.8461,0.46772 2.22102,1.80407 2.25626,2.37201 0.0353,0.56795 0.0353,1.1359 -0.35253,0.86863 -0.3878,-0.26727 -2.18577,-1.80407 -3.03187,-1.97111 -0.8461,-0.16705 -1.79796,0.16704 -2.36203,0 -0.56407,-0.16705 -2.53831,-1.70384 -3.63119,-1.70384 -1.09289,0 -4.97085,0.73498 -5.92272,0.63476 -0.95186,-0.10023 -5.81695,-1.00226 -6.34576,-0.73499 z"
           style="fill:#784421;fill-rule:evenodd;stroke:none;stroke-width:0.27179313px;stroke-linecap:butt;stroke-linejoin:miter;stroke-opacity:1" />
      </g>
      <g
         inkscape:label="Eyes"
         id="layer7-2">
        <path
           inkscape:connector-curvature="0"
           id="path4842"
           d="m 117.46495,97.339424 4.54359,-0.334087 7.55036,0.801809 -2.27179,3.073604 -9.75534,-2.806335 z"
           style="fill:#c8beb7;fill-opacity:1;fill-rule:evenodd;stroke:none;stroke-width:0.26458332px;stroke-linecap:butt;stroke-linejoin:miter;stroke-opacity:1" />
        <path
           inkscape:connector-curvature="0"
           id="path4840"
           d="m 112.58729,99.143493 c 0,-0.734991 2.80633,-2.338607 4.54358,-2.338607 1.73725,0 10.42351,0 11.69304,-0.06682 1.26953,-0.06682 5.41221,-0.601355 4.94449,0 -0.46773,0.601356 -1.87089,0.467723 -2.47225,1.336347 -0.60135,0.868627 0.13364,3.808597 -1.46998,3.541327 -1.60362,-0.26727 -2.67269,-0.93545 -2.67269,-1.60362 0,-0.668175 0.93544,-1.737253 0.73499,-2.004522 -0.20045,-0.267271 -9.2208,-1.269532 -8.88671,-0.400905 0.33408,0.868625 11.5594,3.741777 11.69304,4.209497 0.13363,0.46772 -0.33409,1.20271 -1.67044,1.06908 -1.33634,-0.13364 -3.74177,-2.07134 -5.94674,-2.33861 -2.20498,-0.26727 -8.21854,-1.937706 -10.49033,-1.403169 z"
           style="fill:#502d16;fill-opacity:1;fill-rule:evenodd;stroke:none;stroke-width:0.26458332px;stroke-linecap:butt;stroke-linejoin:miter;stroke-opacity:1" />
        <path
           inkscape:connector-curvature="0"
           id="path4844"
           d="m 152.3244,105.85695 c 0.35436,-0.23623 3.70889,1.44104 3.94513,2.03163 0.23624,0.59059 -1.70089,0.85044 -1.74814,1.29929 -0.0472,0.44885 0.61421,1.6064 0.16536,1.55915 -0.44884,-0.0472 -1.63002,-2.88207 -1.93712,-3.33091 -0.30711,-0.44885 -0.61422,-1.22843 -0.42523,-1.55916 z"
           style="fill:#784421;fill-opacity:1;fill-rule:evenodd;stroke:none;stroke-width:0.26458332px;stroke-linecap:butt;stroke-linejoin:miter;stroke-opacity:1" />
        <path
           inkscape:connector-curvature="0"
           id="path4856"
           d="m 107.43973,92.982141 c -0.0945,-1.700892 -0.66146,-3.77976 0.85045,-3.77976 1.5119,0 10.11086,-1.889882 12.6622,-1.889882 2.55134,0 16.63095,2.173361 17.85937,2.078868 1.22843,-0.09449 2.64584,-1.41741 3.40179,-0.755951 0.75595,0.661458 3.77976,5.480653 1.98437,6.047618 -1.79538,0.566965 -7.37053,-0.377976 -10.29985,-1.228424 -2.92931,-0.850444 -7.9375,-1.795385 -10.67782,-1.795385 -2.74033,0 -13.98512,1.511906 -15.78051,1.322916 z"
           style="fill:#784421;fill-opacity:1;fill-rule:evenodd;stroke:none;stroke-width:0.26458332px;stroke-linecap:butt;stroke-linejoin:miter;stroke-opacity:1" />
        <path
           inkscape:connector-curvature="0"
           id="path4858"
           d="m 152.51339,98.273808 c 0,-1.039434 2.26786,-2.267858 3.49628,-1.322917 1.22842,0.944941 5.10268,4.346729 5.00819,6.331099 -0.0945,1.98438 -1.13393,4.15774 -1.6064,3.59078 -0.47247,-0.56697 0,-3.11831 -0.47247,-3.77976 -0.47247,-0.66146 -6.3311,-3.968755 -6.4256,-4.819202 z"
           style="fill:#784421;fill-opacity:1;fill-rule:evenodd;stroke:none;stroke-width:0.26458332px;stroke-linecap:butt;stroke-linejoin:miter;stroke-opacity:1" />
      </g>
      <g
         style="display:inline"
         inkscape:label="Shirt"
         id="layer9">
        <path
           sodipodi:nodetypes="cssssssscscccsssccssssssc"
           inkscape:connector-curvature="0"
           id="path4869"
           d="m 53.453905,234.38187 c 0,0 -7.718787,-8.25762 -7.907774,-10.24199 -0.188989,-1.98438 -2.173364,-6.3311 -3.874257,-8.59896 -1.700892,-2.26786 -6.3311,-7.08705 -6.3311,-11.24479 0,-4.15774 0.661459,-9.35491 0.755952,-11.43378 0.09449,-2.07887 2.929314,-15.49702 3.118303,-18.89881 0.188987,-3.40179 5.480655,-6.70908 3.401787,-7.9375 -2.078869,-1.22842 -4.724702,-0.37798 -10.677827,4.25223 -5.953126,4.63021 -14.835567,17.67039 -14.835567,17.67039 0,0 -11.5282731,4.15774 -13.2291661,4.8192 C 2.1733631,193.42931 0,195.03571 0,195.03571 l 0,69.54762 225.65178,0 c 0,0 -8.22098,-19.0878 -10.96131,-21.07217 -2.74032,-1.98438 -10.96131,-13.79613 -19.93824,-18.80432 -8.97693,-5.00818 -44.60119,-20.69419 -53.76711,-23.52902 -9.16592,-2.83482 -20.03274,-8.78794 -20.03274,-8.78794 0,0 1.6064,-9.26042 0.94494,-9.44941 -0.66146,-0.18898 -4.91369,2.17337 -7.65402,2.26786 -2.74033,0.0945 -2.07887,-2.17336 -6.52009,2.36235 -4.44122,4.53572 -10.394343,13.41816 -12.851187,14.3631 -2.456847,0.94494 -21.355656,13.70163 -22.584076,15.30803 -1.228424,1.6064 0,3.87426 -1.322917,5.95313 -1.322917,2.07887 -3.118305,4.15773 -5.386163,5.10268 -2.267857,0.94494 -12.124962,6.08425 -12.124962,6.08425 z"
           style="fill:#56334b;fill-opacity:1;fill-rule:evenodd;stroke:none;stroke-width:0.26458332px;stroke-linecap:butt;stroke-linejoin:miter;stroke-opacity:1" />
        <path
           inkscape:connector-curvature="0"
           id="path4871"
           d="m 0,204.48512 c 0,0 3.0238094,-0.94495 5.1026784,-1.13393 2.0788691,-0.18899 6.6145836,-3.77977 6.0476186,-2.07887 -0.566964,1.70089 -3.7797613,4.53571 -4.5357138,5.29167 C 5.8586308,207.31994 0,210.91071 0,210.91071 Z"
           style="fill:#2c001e;fill-rule:evenodd;stroke:none;stroke-width:0.26458332px;stroke-linecap:butt;stroke-linejoin:miter;stroke-opacity:1" />
        <path
           sodipodi:nodetypes="cssssssssssssscssccc"
           inkscape:connector-curvature="0"
           id="path4873"
           d="m 0,216.58035 c 0,0 4.1577381,-5.00818 5.8586308,-6.42559 1.700893,-1.41741 7.8430062,-6.14211 7.8430062,-6.80357 0,-0.66146 0.283482,-6.61458 0.377976,-8.40997 0.09449,-1.79539 1.984375,-5.57515 2.645833,-6.4256 0.661459,-0.85044 10.772321,-14.83556 13.607144,-17.10342 2.83482,-2.26786 10.488837,-8.03199 11.433778,-7.27604 0.944941,0.75595 1.889882,1.25312 1.889881,3.59077 -1e-6,2.83483 -1.606397,14.93006 -1.606397,17.85938 0,2.92931 0.283481,4.15774 -0.66146,6.61458 -0.944941,2.45685 -2.55412,5.95312 -3.68805,8.78795 -1.133927,2.83482 -1.322916,5.66964 -0.188986,7.37053 1.133927,1.70089 5.483435,6.80357 5.766918,8.50447 0.283482,1.70089 1.700892,5.00818 2.929315,7.55952 1.228421,2.55134 7.465029,10.01637 7.465029,10.01637 0,0 -5.197171,1.79539 -6.236608,5.00818 -1.039434,3.2128 -6.142111,13.41816 -5.953125,17.29241 0.188989,3.87426 -1.133927,7.84301 -1.133927,7.84301 L 0,264.58333 Z"
           style="fill:#2c001e;fill-rule:evenodd;stroke:none;stroke-width:0.26458332px;stroke-linecap:butt;stroke-linejoin:miter;stroke-opacity:1" />
        <path
           sodipodi:nodetypes="csssssssssssscsscc"
           inkscape:connector-curvature="0"
           id="path4875"
           d="m 38.715697,264.98423 c 0,0 1.202713,-6.63751 2.053161,-10.70075 0.850444,-4.06324 2.93603,-7.18155 3.975464,-9.92188 1.039434,-2.74032 1.857456,-6.09347 4.030817,-7.69987 2.173365,-1.6064 8.299266,-3.63941 11.701051,-5.24581 3.401785,-1.6064 11.244792,-7.08705 11.244792,-8.50446 0,-1.41741 -0.566965,-3.68527 0.377975,-5.57515 0.944941,-1.88989 9.638393,-6.99256 11.90625,-8.78795 2.267858,-1.79539 10.48884,-6.80357 11.433781,-7.84301 0.944938,-1.03943 6.146042,-5.5008 8.508392,-5.02832 2.36236,0.47246 7.08984,3.67461 7.37332,5.65898 0.28348,1.98438 1.12722,15.62232 1.69418,18.07916 0.56696,2.45685 0.94494,6.52009 2.07887,6.99257 1.13393,0.47247 11.43378,-30.61608 11.43378,-30.61608 0,0 -1.98608,19.72747 -6.8322,34.52384 -3.0096,9.18906 -6.83032,16.56023 -7.40954,18.0445 -1.51191,3.87425 -9.28728,16.22333 -9.28728,16.22333 z"
           style="fill:#411a35;fill-rule:evenodd;stroke:none;stroke-width:0.26458332px;stroke-linecap:butt;stroke-linejoin:miter;stroke-opacity:1" />
        <path
           sodipodi:nodetypes="cscsscssc"
           inkscape:connector-curvature="0"
           id="path4877"
           d="m 120.95238,183.69643 c 0,0 -0.85045,11.0558 -2.36235,17.67038 -1.51191,6.61459 -6.4256,13.89063 -6.4256,13.89063 0,0 -0.66146,-6.99256 -2.07887,-9.44941 -1.41741,-2.45684 -4.6302,-6.99256 -6.70907,-6.99256 -2.07887,0 -4.63021,-0.85044 -4.63021,-0.85044 0,0 7.65402,-8.69346 9.5439,-10.96131 1.88988,-2.26786 2.83482,-2.36235 5.95312,-2.36235 3.11831,0 6.14212,-1.32292 6.70908,-0.94494 z"
           style="fill:#2c001e;fill-rule:evenodd;stroke:none;stroke-width:0.26458332px;stroke-linecap:butt;stroke-linejoin:miter;stroke-opacity:1" />
        <path
           inkscape:connector-curvature="0"
           id="path4879"
           d="m 102.36423,264.58333 c 0,0 9.6217,-24.32153 12.82894,-31.80507 3.20723,-7.48355 9.88897,-39.82316 11.49259,-39.28862 1.60361,0.53454 26.72695,10.69078 27.26149,12.56166 0.53453,1.87089 -5.34539,32.60689 -7.75082,39.28863 -2.40543,6.68173 -5.61266,19.2434 -5.61266,19.2434 z"
           style="fill:#160d06;fill-opacity:1;fill-rule:evenodd;stroke:none;stroke-width:0.26458332px;stroke-linecap:butt;stroke-linejoin:miter;stroke-opacity:1" />
      </g>
      <g
         style="display:inline"
         inkscape:label="Headstock"
         id="layer11">
        <path
           inkscape:connector-curvature="0"
           id="path4885"
           d="m 181.34237,142.57479 c 0,0 7.48355,-6.5481 9.6217,-10.69078 2.13816,-4.14268 4.54359,-10.02261 4.67722,-13.49711 0.13364,-3.4745 0,-7.48355 0.80181,-8.55262 0.80181,-1.06908 27.52876,-18.708871 34.34413,-24.187897 6.81538,-5.479026 19.91158,-22.317006 20.57976,-22.049734 0.66817,0.267269 2.53906,0.801806 4.94448,0.133633 2.40543,-0.668174 8.01144,-0.743826 8.27185,-0.534538 2.43818,1.959539 2.90924,3.761611 3.39867,8.527513 0.25535,2.486482 -1.64134,9.322589 1.39447,12.18972 -1.39168,3.83523 -4.79314,7.078797 -4.79314,7.078797 0,0 -2.79282,2.672696 -6.66823,10.156246 -3.87541,7.48354 -11.22532,19.77794 -13.09621,26.99422 -1.87088,7.21627 -7.48354,24.18789 -9.48806,24.58879 -2.00453,0.40091 -4.27632,0.66818 -6.68174,2.53906 -2.40543,1.87089 -5.34539,5.87993 -6.1472,6.41447 -0.80181,0.53454 -5.7463,1.60362 -8.41899,3.60814 -2.6727,2.00452 -5.07812,3.87541 -8.81989,9.6217 -3.74178,5.7463 -53.58754,89.66893 -53.58754,89.66893 l -2.93997,0 z"
           style="fill:#d2c1c1;fill-opacity:1;fill-rule:evenodd;stroke:none;stroke-width:0.26458332px;stroke-linecap:butt;stroke-linejoin:miter;stroke-opacity:1"
           sodipodi:nodetypes="cssssssssccsssssssccc" />
        <path
           sodipodi:nodetypes="csssscscsscssscc"
           inkscape:connector-curvature="0"
           id="path4887"
           d="m 209.40567,166.49542 c 0,0 5.07812,-9.35444 8.55263,-11.8935 3.4745,-2.53906 12.2944,-4.67722 12.42803,-5.61266 0.13363,-0.93544 3.87541,-18.8425 8.81989,-29.66692 4.94449,-10.82441 10.95805,-21.648827 15.10073,-26.593315 4.14268,-4.944486 10.27637,-8.552624 10.27637,-8.552624 0,0 -3.99553,-1.202712 -3.99553,-3.875408 0,-2.672696 3.99553,-10.824416 3.99553,-10.824416 0,0 -1.05557,-5.211755 -3.19373,-5.211755 -2.13815,0 -4.40994,0.267269 -6.81537,0.267269 -2.40542,0 -4.13731,-0.799123 -4.13731,-0.799123 0,0 -10.82441,14.298921 -20.04521,21.782467 -9.15518,7.430284 -32.74588,22.715225 -33.9486,24.051575 -1.20271,1.33635 -1.33635,13.49711 -3.0736,17.37252 -1.73725,3.8754 -12.02713,16.10298 -12.02713,16.10298 z"
           style="fill:#523c3c;fill-opacity:1;fill-rule:evenodd;stroke:none;stroke-width:0.26458332px;stroke-linecap:butt;stroke-linejoin:miter;stroke-opacity:1" />
        <circle
           r="4.8108511"
           cy="112.6406"
           cx="204.86209"
           id="path4889"
           style="fill:#aea79f;fill-opacity:1;fill-rule:evenodd;stroke:#3e3e3e;stroke-width:0.26458332px;stroke-linecap:butt;stroke-linejoin:miter;stroke-opacity:1" />
        <circle
           style="fill:#aea79f;fill-opacity:1;fill-rule:evenodd;stroke:#3e3e3e;stroke-width:0.26458332px;stroke-linecap:butt;stroke-linejoin:miter;stroke-opacity:1"
           id="circle4893"
           cx="219.82918"
           cy="101.94982"
           r="4.8108511" />
        <circle
           r="4.8108511"
           cy="90.724503"
           cx="233.72719"
           id="circle4895"
           style="fill:#aea79f;fill-opacity:1;fill-rule:evenodd;stroke:#3e3e3e;stroke-width:0.26458332px;stroke-linecap:butt;stroke-linejoin:miter;stroke-opacity:1" />
        <circle
           style="fill:#aea79f;fill-opacity:1;fill-rule:evenodd;stroke:#3e3e3e;stroke-width:0.26458332px;stroke-linecap:butt;stroke-linejoin:miter;stroke-opacity:1"
           id="circle4897"
           cx="247.75883"
           cy="80.56826"
           r="4.8108511" />
        <circle
           r="4.0305009"
           cy="93.397202"
           cx="246.82339"
           id="circle4899"
           style="fill:#aea79f;fill-opacity:1;fill-rule:evenodd;stroke:#3e3e3e;stroke-width:0.22166626px;stroke-linecap:butt;stroke-linejoin:miter;stroke-opacity:1" />
        <circle
           style="fill:#aea79f;fill-opacity:1;fill-rule:evenodd;stroke:#3e3e3e;stroke-width:0.22166626px;stroke-linecap:butt;stroke-linejoin:miter;stroke-opacity:1"
           id="circle4903"
           cx="238.93895"
           cy="109.56701"
           r="4.0305009" />
        <circle
           r="4.0305009"
           cy="126.27135"
           cx="231.0545"
           id="circle4905"
           style="fill:#aea79f;fill-opacity:1;fill-rule:evenodd;stroke:#3e3e3e;stroke-width:0.22166626px;stroke-linecap:butt;stroke-linejoin:miter;stroke-opacity:1" />
        <circle
           style="fill:#aea79f;fill-opacity:1;fill-rule:evenodd;stroke:#3e3e3e;stroke-width:0.22166626px;stroke-linecap:butt;stroke-linejoin:miter;stroke-opacity:1"
           id="circle4907"
           cx="223.83823"
           cy="142.97569"
           r="4.0305009" />
      </g>
      <g
         style="display:inline"
         inkscape:label="Fretboard"
         id="layer10">
        <path
           inkscape:connector-curvature="0"
           id="path4882"
           d="m 105.83873,264.58333 75.37001,-121.8749 28.33057,23.78699 -60.67018,98.08791 z"
           style="fill:#160d06;fill-opacity:1;fill-rule:evenodd;stroke:#000000;stroke-width:0.26458332px;stroke-linecap:butt;stroke-linejoin:miter;stroke-opacity:1" />
        <rect
           transform="rotate(39.799319)"
           y="-9.3397751"
           x="230.59929"
           height="3.9187829"
           width="36.836559"
           id="rect4930"
           style="display:inline;opacity:1;fill:#d6d6d6;fill-opacity:1;stroke:none;stroke-width:0.7758795;stroke-linecap:round;stroke-miterlimit:4;stroke-dasharray:none;stroke-opacity:1" />
      </g>
      <g
         style="display:inline"
         inkscape:label="Glasses"
         id="layer8-9">
        <path
           inkscape:connector-curvature="0"
           id="path4847"
           transform="scale(0.26458333)"
           d="m 474.68359,327.89844 c -2.57994,0.008 -4.25262,0.41235 -4.96289,1.35937 -2.27285,3.03046 -2.52603,12.12187 -7.32422,12.62696 -4.79826,0.50507 -16.66663,0.758 -26.51562,-1.00977 -9.849,-1.76776 -210.1123,3.28282 -208.84961,4.29297 1.2627,1.01015 10.35547,7.32422 10.35547,7.32422 0,0 185.36273,0.50447 190.66601,0.25195 5.30332,-0.25255 9.08986,-0.75781 14.14063,-0.75781 5.05073,0 15.15234,1.01035 15.15234,3.2832 0,2.27284 -8.08106,29.5469 -6.81836,32.07227 1.26271,2.5254 -0.50465,7.32521 9.0918,11.11328 9.59645,3.78807 42.17425,17.17229 48.74024,18.6875 6.56598,1.51525 26.5162,4.29179 28.78906,2.27148 2.27285,-2.02031 19.19355,-50.76035 22.47656,-50.50781 3.28297,0.25255 6.81723,7.07227 9.84766,7.07227 3.03046,0 11.11328,-1.76874 11.11328,1.26171 0,3.03046 -6.31505,25.75976 -6.0625,28.28516 0.25247,2.52537 6.5674,-29.04122 10.35547,-29.79883 3.7881,-0.75762 22.47481,0.25102 30.80859,4.03906 8.33374,3.78807 21.21289,12.12209 21.21289,15.91016 0,3.78807 -0.50353,20.20379 -6.56445,35.10352 -6.06089,14.89976 -6.56643,23.23378 -9.0918,23.48632 -2.5254,0.25248 -17.67736,-2.52613 -16.16211,-0.50585 1.51521,2.0203 13.38304,5.55686 16.66602,3.78906 3.28301,-1.76776 10.85977,-34.8504 14.90039,-37.88086 4.04061,-3.03046 4.79845,-3.78926 3.2832,-7.07227 -1.51521,-3.28297 -2.27204,-1.26176 -2.01953,-6.3125 0.25247,-5.05077 4.79804,-7.32482 1.76758,-12.12304 -3.03047,-4.79823 -12.8807,-15.40335 -24.75,-19.19141 -11.86927,-3.78807 -27.5252,-4.04102 -31.81836,-4.04102 -4.29313,0 -7.82849,-0.50566 -11.86914,-2.27343 -4.04058,-1.76778 -9.84946,-8.83928 -19.19336,-14.14258 -9.34394,-5.3033 -27.52742,-19.19162 -47.73047,-22.47461 -13.8896,-2.25706 -23.95889,-4.15699 -29.63477,-4.13867 z m 4.73829,4.91601 c 7.13716,-0.0913 18.83599,1.21084 33.98828,7.05078 24.24362,9.34391 40.91151,19.95099 41.16406,24.24415 0.25247,4.29315 -17.17382,48.73984 -19.69922,49.75 -2.52537,1.01015 -19.69771,-0.50569 -36.36523,-7.32422 -16.66753,-6.8185 -38.13282,-14.14183 -38.13282,-18.6875 0,-4.54568 -1.00916,-19.95026 3.78907,-33.83985 4.79822,-13.8896 4.5457,-18.94044 7.57617,-20.20312 0.75761,-0.37881 3.39739,-0.93549 7.67969,-0.99024 z"
           style="fill:#160d06;fill-opacity:1;fill-rule:evenodd;stroke:none;stroke-width:0.99999994px;stroke-linecap:butt;stroke-linejoin:miter;stroke-opacity:1" />
        <path
           inkscape:connector-curvature="0"
           id="path4933"
           d="M 205.61905,167.82143 179.72768,145.61532"
           style="fill:none;fill-rule:evenodd;stroke:#868686;stroke-width:1.32291663;stroke-linecap:round;stroke-linejoin:miter;stroke-miterlimit:4;stroke-dasharray:none;stroke-opacity:1" />
        <path
           style="fill:none;fill-rule:evenodd;stroke:#868686;stroke-width:1.32291663;stroke-linecap:round;stroke-linejoin:miter;stroke-miterlimit:4;stroke-dasharray:none;stroke-opacity:1"
           d="M 205.61905,167.82143 179.72768,145.61532"
           id="path4937"
           inkscape:connector-curvature="0" />
        <path
           inkscape:connector-curvature="0"
           id="path4939"
           d="M 189.64956,194.65774 163.75819,172.45163"
           style="fill:none;fill-rule:evenodd;stroke:#868686;stroke-width:1.32291663;stroke-linecap:round;stroke-linejoin:miter;stroke-miterlimit:4;stroke-dasharray:none;stroke-opacity:1" />
        <path
           style="fill:none;fill-rule:evenodd;stroke:#868686;stroke-width:1.32291663;stroke-linecap:round;stroke-linejoin:miter;stroke-miterlimit:4;stroke-dasharray:none;stroke-opacity:1"
           d="M 174.24703,218.75372 148.35566,196.54761"
           id="path4941"
           inkscape:connector-curvature="0" />
        <path
           inkscape:connector-curvature="0"
           id="path4943"
           d="M 159.97843,243.32217 134.08706,221.11606"
           style="fill:none;fill-rule:evenodd;stroke:#868686;stroke-width:1.32291663;stroke-linecap:round;stroke-linejoin:miter;stroke-miterlimit:4;stroke-dasharray:none;stroke-opacity:1" />
        <path
           sodipodi:nodetypes="cc"
           style="fill:none;fill-rule:evenodd;stroke:#868686;stroke-width:1.32291663;stroke-linecap:round;stroke-linejoin:miter;stroke-miterlimit:4;stroke-dasharray:none;stroke-opacity:1"
           d="M 144.95387,264.29985 120.38542,242.28273"
           id="path4945"
           inkscape:connector-curvature="0" />
        <path
           sodipodi:nodetypes="cccc"
           inkscape:connector-curvature="0"
           id="path4947"
           d="m 168.67286,109.01845 -9.13923,-1.04517 -1.17644,1.32646 9.5883,1.46998"
           style="fill:#000000;fill-opacity:1;fill-rule:evenodd;stroke:none;stroke-width:0.26458332px;stroke-linecap:butt;stroke-linejoin:miter;stroke-opacity:1" />
      </g>
      <g
         inkscape:label="Strings"
         id="layer12">
        <path
           inkscape:connector-curvature="0"
           id="path4910"
           d="M 106.4003,264.58333 183.31845,142.875 205.99702,113.20387"
           style="fill:none;fill-rule:evenodd;stroke:#454545;stroke-width:1.32291663;stroke-linecap:round;stroke-linejoin:miter;stroke-miterlimit:4;stroke-dasharray:none;stroke-opacity:1" />
        <path
           inkscape:connector-curvature="0"
           id="path4914"
           d="m 111.88095,264.58333 74.27232,-119.44047 34.58482,-42.71131"
           style="fill:none;fill-rule:evenodd;stroke:#454545;stroke-width:1.19062495;stroke-linecap:round;stroke-linejoin:miter;stroke-miterlimit:4;stroke-dasharray:none;stroke-opacity:1" />
        <path
           inkscape:connector-curvature="0"
           id="path4916"
           d="M 116.98363,264.58333 189.36607,147.78869 233.96726,90.525297"
           style="fill:none;fill-rule:evenodd;stroke:#454545;stroke-width:1.0583334;stroke-linecap:butt;stroke-linejoin:miter;stroke-miterlimit:4;stroke-dasharray:none;stroke-opacity:1" />
        <path
           inkscape:connector-curvature="0"
           id="path4918"
           d="M 121.70833,264.58333 192.95684,150.43452 247.95238,80.130951"
           style="fill:none;fill-rule:evenodd;stroke:#454545;stroke-width:0.92604166;stroke-linecap:round;stroke-linejoin:miter;stroke-miterlimit:4;stroke-dasharray:none;stroke-opacity:1" />
        <path
           inkscape:connector-curvature="0"
           id="path4920"
           d="M 127.75483,264.58333 196.0422,153.13194 245.88796,92.595392"
           style="fill:none;fill-rule:evenodd;stroke:#454545;stroke-width:0.79374999;stroke-linecap:round;stroke-linejoin:miter;stroke-miterlimit:4;stroke-dasharray:none;stroke-opacity:1" />
        <path
           inkscape:connector-curvature="0"
           id="path4922"
           d="m 132.03115,264.58333 66.55011,-108.64506 39.15498,-46.9058"
           style="fill:none;fill-rule:evenodd;stroke:#454545;stroke-width:0.66145831;stroke-linecap:butt;stroke-linejoin:miter;stroke-miterlimit:4;stroke-dasharray:none;stroke-opacity:1" />
        <path
           inkscape:connector-curvature="0"
           id="path4924"
           d="m 136.70836,264.58333 65.21377,-105.7051 27.79603,-33.14142"
           style="fill:none;fill-rule:evenodd;stroke:#454545;stroke-width:0.5291667;stroke-linecap:round;stroke-linejoin:miter;stroke-miterlimit:4;stroke-dasharray:none;stroke-opacity:1" />
        <path
           inkscape:connector-curvature="0"
           id="path4926"
           d="m 142.18739,264.58333 63.20924,-103.29967 17.37252,-20.04522"
           style="fill:none;fill-rule:evenodd;stroke:#454545;stroke-width:0.26458332px;stroke-linecap:round;stroke-linejoin:miter;stroke-opacity:1" />
      </g>
    </g>
  </g>
  <g
     inkscape:groupmode="layer"
     id="layer18"
     inkscape:label="Part"
     style="display:inline" />
  <g
     inkscape:groupmode="layer"
     id="layer4"
     inkscape:label="Artist Name">
    <text
       xml:space="preserve"
       style="font-style:normal;font-variant:normal;font-weight:600;font-stretch:normal;font-size:43.88739395px;line-height:100%;font-family:Museo;-inkscape-font-specification:'Museo, Semi-Bold';text-align:start;letter-spacing:0px;word-spacing:0px;writing-mode:lr-tb;text-anchor:start;fill:#ffffff;fill-opacity:1;stroke:none;stroke-width:0.84843826px;stroke-linecap:butt;stroke-linejoin:miter;stroke-opacity:1"
       x="173.96526"
       y="77.611694"
       id="text4158"
       sodipodi:linespacing="100%"><tspan
         sodipodi:role="line"
         x="173.96526"
         y="77.611694"
         style="font-style:normal;font-variant:normal;font-weight:600;font-stretch:normal;font-size:43.88739395px;line-height:100%;font-family:Museo;-inkscape-font-specification:'Museo, Semi-Bold';text-align:start;writing-mode:lr-tb;text-anchor:start;fill:#ffffff;fill-opacity:1;stroke-width:0.84843826px"
         id="tspan4378">Markus</tspan><tspan
         sodipodi:role="line"
         x="173.96526"
         y="121.49908"
         style="font-style:normal;font-variant:normal;font-weight:600;font-stretch:normal;font-size:43.88739395px;line-height:100%;font-family:Museo;-inkscape-font-specification:'Museo, Semi-Bold';text-align:start;writing-mode:lr-tb;text-anchor:start;fill:#ffffff;fill-opacity:1;stroke-width:0.84843826px"
         id="tspan4511">Reute</tspan></text>
  </g>
  <g
     inkscape:groupmode="layer"
     id="layer6"
     inkscape:label="WEIRD">
    <path
       style="opacity:1;fill:#ffffff;fill-opacity:1;stroke:none;stroke-width:17.2258606;stroke-miterlimit:4;stroke-dasharray:none;stroke-opacity:1"
       d="M 245.3457 602.625 L 245.3457 672.625 L 495.3457 672.625 L 495.3457 602.625 L 245.3457 602.625 z M 254.20703 613.5 L 258.08398 613.5 C 261.48345 613.5 263.18217 614.17987 263.99805 617.44336 L 271.4082 648.31055 C 272.02011 650.89414 272.36133 653.41016 272.36133 653.41016 L 272.49609 653.41016 C 272.49609 653.41016 272.90446 650.96213 273.65234 648.31055 L 283.30664 613.63477 L 289.42578 613.63477 L 298.40039 648.31055 C 299.08028 650.96213 299.41992 653.41016 299.41992 653.41016 L 299.55664 653.41016 C 299.55664 653.41016 299.8295 650.89414 300.44141 648.31055 L 307.98828 617.44336 C 308.80415 614.17987 310.43452 613.5 313.83398 613.5 L 317.70898 613.5 L 317.70898 619.3457 L 316.68945 619.3457 C 315.46565 619.3457 314.71885 619.61799 314.37891 620.8418 L 303.83984 661.5 L 295.95312 661.5 L 287.79492 631.17773 C 286.97905 628.05022 286.43555 624.58203 286.43555 624.58203 L 286.29883 624.58203 C 286.29883 624.58203 285.61824 628.04985 284.73438 631.10938 L 276.0332 661.5 L 268.07812 661.5 L 257.53906 620.8418 C 257.19912 619.61799 256.45232 619.3457 255.22852 619.3457 L 254.20703 619.3457 L 254.20703 613.5 z M 326.5 613.5 L 354.7168 613.5 C 357.77632 613.5 359.06641 614.79204 359.06641 617.85156 L 359.06641 623.90234 L 352.88086 623.90234 L 352.88086 620.8418 C 352.88086 619.82196 352.33662 619.3457 351.38477 619.3457 L 337.71875 619.3457 L 337.71875 634.37305 L 354.51172 634.37305 L 354.51172 640.21875 L 337.71875 640.21875 L 337.71875 654.15625 C 337.71875 655.1081 338.26299 655.65234 339.21484 655.65234 L 353.2207 655.65234 C 354.17255 655.65234 354.7168 655.1081 354.7168 654.15625 L 354.7168 651.09766 L 360.9707 651.09766 L 360.9707 657.14844 C 360.9707 660.20796 359.67866 661.5 356.61914 661.5 L 335.27148 661.5 C 332.21196 661.5 330.91992 660.20796 330.91992 657.14844 L 330.91992 619.3457 L 326.5 619.3457 L 326.5 613.5 z M 370.41406 613.5 L 386.25586 613.5 L 386.25586 619.3457 L 381.56445 619.3457 L 381.56445 655.65234 L 386.25586 655.65234 L 386.25586 661.5 L 370.41406 661.5 L 370.41406 655.65234 L 375.10547 655.65234 L 375.10547 619.3457 L 370.41406 619.3457 L 370.41406 613.5 z M 396.6543 613.5 L 417.5957 613.5 C 426.02638 613.5 431.94141 618.80359 431.94141 627.57422 C 431.94141 635.59696 426.70611 639.53923 423.30664 640.28711 L 423.30664 640.42383 C 423.30664 640.42383 424.52983 641.03585 425.3457 642.59961 L 431.125 654.08984 C 431.80489 655.51762 432.89365 655.65234 434.52539 655.65234 L 435.4082 655.65234 L 435.4082 661.5 L 432.07812 661.5 C 428.33871 661.5 426.97782 661.02399 425.41406 657.89648 L 418.88672 644.97852 C 417.66291 642.73487 416.78049 642.39453 414.12891 642.39453 L 407.87305 642.39453 L 407.87305 661.5 L 401.07422 661.5 L 401.07422 619.3457 L 396.6543 619.3457 L 396.6543 613.5 z M 443.75 613.5 L 463.19531 613.5 C 477.81302 613.5 487.4668 622.27002 487.4668 637.43164 C 487.4668 652.66125 477.81302 661.5 463.19531 661.5 L 452.51953 661.5 C 449.46001 661.5 448.16992 660.20796 448.16992 657.14844 L 448.16992 619.3457 L 443.75 619.3457 L 443.75 613.5 z M 407.87305 619.3457 L 407.87305 636.54883 L 416.71094 636.54883 C 421.87813 636.54883 424.9375 633.21686 424.9375 627.8457 C 424.9375 622.47455 421.87887 619.3457 416.84766 619.3457 L 407.87305 619.3457 z M 454.96875 619.3457 L 454.96875 654.15625 C 454.96875 655.1081 455.51299 655.65234 456.46484 655.65234 L 462.71875 655.65234 C 473.39308 655.65234 480.39648 649.26179 480.39648 637.43164 C 480.39648 625.66949 473.32509 619.3457 462.71875 619.3457 L 454.96875 619.3457 z "
       transform="scale(0.26458334)"
       id="rect4172" />
  </g>
  <g
     inkscape:groupmode="layer"
     id="layer7"
     inkscape:label="MAKE">
    <text
       xml:space="preserve"
       style="font-style:normal;font-variant:normal;font-weight:normal;font-stretch:normal;font-size:17.99166679px;line-height:100%;font-family:Museo;-inkscape-font-specification:'Museo, Normal';text-align:start;letter-spacing:0px;word-spacing:0px;writing-mode:lr-tb;text-anchor:start;fill:#ffffff;fill-opacity:1;stroke:none;stroke-width:0.26458335px;stroke-linecap:butt;stroke-linejoin:miter;stroke-opacity:1"
       x="10.690782"
       y="175.02188"
       id="text4175"
       sodipodi:linespacing="100%"><tspan
         sodipodi:role="line"
         id="tspan4177"
         x="10.690782"
         y="175.02188"
         style="font-style:normal;font-variant:normal;font-weight:normal;font-stretch:normal;font-size:17.99166679px;line-height:100%;font-family:Museo;-inkscape-font-specification:'Museo, Normal';text-align:start;writing-mode:lr-tb;text-anchor:start;fill:#ffffff;fill-opacity:1;stroke-width:0.26458335px;letter-spacing:1.32291669px">MAKE</tspan></text>
  </g>
  <g
     inkscape:groupmode="layer"
     id="layer8"
     inkscape:label="MUSIC">
    <text
       xml:space="preserve"
       style="font-style:normal;font-variant:normal;font-weight:normal;font-stretch:normal;font-size:17.99166679px;line-height:100%;font-family:Museo;-inkscape-font-specification:'Museo, Normal';text-align:start;letter-spacing:0px;word-spacing:0px;writing-mode:lr-tb;text-anchor:start;fill:#ffffff;fill-opacity:1;stroke:none;stroke-width:0.26458335px;stroke-linecap:butt;stroke-linejoin:miter;stroke-opacity:1"
       x="134.21758"
       y="174.80598"
       id="text4180"
       sodipodi:linespacing="100%"><tspan
         sodipodi:role="line"
         id="tspan4182"
         x="134.21758"
         y="174.80598"
         style="font-style:normal;font-variant:normal;font-weight:normal;font-stretch:normal;font-size:17.99166679px;line-height:100%;font-family:Museo;-inkscape-font-specification:'Museo, Normal';text-align:start;writing-mode:lr-tb;text-anchor:start;fill:#ffffff;fill-opacity:1;stroke-width:0.26458335px">MUSIC</tspan></text>
  </g>
</svg>
