<?xml version="1.0" encoding="UTF-8" standalone="no"?>
<!-- Created with Inkscape (http://www.inkscape.org/) -->

<svg
   xmlns:dc="http://purl.org/dc/elements/1.1/"
   xmlns:cc="http://creativecommons.org/ns#"
   xmlns:rdf="http://www.w3.org/1999/02/22-rdf-syntax-ns#"
   xmlns:svg="http://www.w3.org/2000/svg"
   xmlns="http://www.w3.org/2000/svg"
   xmlns:xlink="http://www.w3.org/1999/xlink"
   xmlns:sodipodi="http://sodipodi.sourceforge.net/DTD/sodipodi-0.dtd"
   xmlns:inkscape="http://www.inkscape.org/namespaces/inkscape"
   width="1280"
   height="720"
   viewBox="0 0 338.66666 190.50001"
   id="svg2"
   version="1.1"
   inkscape:version="0.91+devel r13925"
   sodipodi:docname="hells-bells-video-thumbnail.svg"
   inkscape:export-filename="/Users/agarone/Desktop/MWM Art/bill-bruford/hells-bells/hells-bells-video-thumbnail-1280x720.png"
   inkscape:export-xdpi="96"
   inkscape:export-ydpi="96">
  <defs
     id="defs4">
    <linearGradient
       id="linearGradient4906"
       inkscape:collect="always">
      <stop
         id="stop4908"
         offset="0"
         style="stop-color:#5f5f5f;stop-opacity:1" />
      <stop
         id="stop4910"
         offset="1"
         style="stop-color:#2f2f2f;stop-opacity:1" />
    </linearGradient>
    <linearGradient
       id="linearGradient4890"
       inkscape:collect="always">
      <stop
         id="stop4892"
         offset="0"
         style="stop-color:#e6cba4;stop-opacity:1;" />
      <stop
         id="stop4894"
         offset="1"
         style="stop-color:#af7b30;stop-opacity:1" />
    </linearGradient>
    <linearGradient
       gradientUnits="userSpaceOnUse"
       y2="225.46783"
       x2="152.07635"
       y1="224.39874"
       x1="161.16351"
       id="linearGradient4896"
       xlink:href="#linearGradient4890"
       inkscape:collect="always" />
    <linearGradient
       gradientUnits="userSpaceOnUse"
       y2="224.95691"
       x2="111.18412"
       y1="225.22417"
       x1="118.35863"
       id="linearGradient4904"
       xlink:href="#linearGradient4890"
       inkscape:collect="always" />
    <radialGradient
       gradientUnits="userSpaceOnUse"
       gradientTransform="matrix(0.7495165,-0.0479291,0.04661846,0.72902078,26.629084,40.456489)"
       r="108.87478"
       fy="126.33506"
       fx="129.82344"
       cy="126.33506"
       cx="129.82344"
       id="radialGradient4912"
       xlink:href="#linearGradient4906"
       inkscape:collect="always" />
  </defs>
  <sodipodi:namedview
     id="base"
     pagecolor="#ffffff"
     bordercolor="#666666"
     borderopacity="1.0"
     inkscape:pageopacity="0.0"
     inkscape:pageshadow="2"
     inkscape:zoom="0.7"
     inkscape:cx="647.13945"
     inkscape:cy="398.37559"
     inkscape:document-units="px"
     inkscape:current-layer="g4209"
     showgrid="false"
     units="px"
     inkscape:window-width="1920"
     inkscape:window-height="1152"
     inkscape:window-x="0"
     inkscape:window-y="0"
     inkscape:window-maximized="1" />
  <metadata
     id="metadata7">
    <rdf:RDF>
      <cc:Work
         rdf:about="">
        <dc:format>image/svg+xml</dc:format>
        <dc:type
           rdf:resource="http://purl.org/dc/dcmitype/StillImage" />
        <dc:title />
      </cc:Work>
    </rdf:RDF>
  </metadata>
  <g
     inkscape:label="Gray BG"
     inkscape:groupmode="layer"
     id="layer1"
     transform="translate(0,-106.49999)">
    <rect
       style="opacity:1;fill:#313133;fill-opacity:1;stroke:none;stroke-width:16.0535984;stroke-miterlimit:4;stroke-dasharray:none;stroke-opacity:1"
       id="rect4141"
       width="338.66669"
       height="190.5"
       x="1.4210855e-14"
       y="106.49999" />
  </g>
  <g
     inkscape:groupmode="layer"
     id="g5903"
     inkscape:label="Green Banner">
    <rect
       style="opacity:1;fill:#3d9659;fill-opacity:1;stroke:none;stroke-width:11.03082752;stroke-miterlimit:4;stroke-dasharray:none;stroke-opacity:1"
       id="rect5905"
       width="338.66669"
       height="43.65625"
       x="0"
       y="146.84375" />
  </g>
  <g
     inkscape:label="Interview"
     id="g4209"
     inkscape:groupmode="layer">
    <text
       sodipodi:linespacing="125%"
       id="text4211"
       y="40.767208"
       x="173.85484"
       style="font-style:normal;font-variant:normal;font-weight:normal;font-stretch:normal;font-size:20.26743698px;line-height:125%;font-family:Museo;-inkscape-font-specification:'Museo, Normal';text-align:start;letter-spacing:0px;word-spacing:0px;writing-mode:lr-tb;text-anchor:start;fill:#ffffff;fill-opacity:1;stroke:none;stroke-width:0.50668812px;stroke-linecap:butt;stroke-linejoin:miter;stroke-opacity:1"
       xml:space="preserve"><tspan
         id="tspan4213"
         sodipodi:role="line"
         x="173.85484"
         y="40.767208">LEARN:</tspan></text>
    <g
       style=""
       id="g5715"
       transform="matrix(0.56407271,0,0,0.56407271,-5.4572364,-2.2492196)">
      <g
         style="display:none"
         transform="translate(0,-32.41665)"
         id="layer1-5"
         inkscape:label="BG">
        <rect
           y="32.416653"
           x="0"
           height="264.58334"
           width="264.58334"
           id="rect5606"
           style="opacity:1;fill:#ffffff;fill-opacity:1;stroke:none;stroke-width:11.60810661;stroke-miterlimit:4;stroke-dasharray:none;stroke-opacity:1" />
      </g>
      <g
         inkscape:label="Drum"
         id="layer2-0">
        <path
           inkscape:transform-center-y="0.1161811"
           inkscape:transform-center-x="-0.59525373"
           transform="translate(2.6458333,7.9375)"
           d="M 130.74716,1.6395966 238.08446,60.812098 238.69822,187.16825 131.83767,251.03053 21.359471,190.6232 20.94866,62.239988 Z"
           inkscape:randomized="0.015"
           inkscape:rounded="0"
           inkscape:flatsided="true"
           sodipodi:arg2="-1.0532216"
           sodipodi:arg1="-1.5768204"
           sodipodi:r2="108.67785"
           sodipodi:r1="125.49037"
           sodipodi:cy="125.48809"
           sodipodi:cx="130.40179"
           sodipodi:sides="6"
           id="path4847"
           style="opacity:1;fill:url(#radialGradient4912);fill-opacity:1;stroke:#121212;stroke-width:5.21202707;stroke-miterlimit:4;stroke-dasharray:none;stroke-opacity:1"
           sodipodi:type="star" />
      </g>
      <g
         inkscape:label="L Stick Shadow"
         id="layer5">
        <path
           sodipodi:nodetypes="cccc"
           inkscape:connector-curvature="0"
           id="path4957"
           d="m 114.72033,136.24809 -16.89431,104.83704 13.63075,7.48355 z"
           style="fill:#000000;fill-opacity:0.47027031;fill-rule:evenodd;stroke:none;stroke-width:0.26458332px;stroke-linecap:butt;stroke-linejoin:miter;stroke-opacity:1" />
      </g>
      <g
         inkscape:label="L Stick"
         id="layer3-4">
        <g
           id="g4942"
           transform="translate(0,-32.41665)">
          <path
             style="fill:url(#linearGradient4904);fill-opacity:1;fill-rule:evenodd;stroke:none;stroke-width:0.26458332px;stroke-linecap:butt;stroke-linejoin:miter;stroke-opacity:1"
             d="m 117.82,296.99998 5.39125,-127.48756 c 0,0 -1.06723,-2.81678 -3.91252,-2.96147 -2.78757,-0.14175 -4.58296,2.12611 -4.58296,2.12611 l -7.18155,128.32292 z"
             id="path4853"
             inkscape:connector-curvature="0"
             sodipodi:nodetypes="ccsccc" />
          <path
             style="fill:#272727;fill-opacity:1;fill-rule:evenodd;stroke:none;stroke-width:0.26458332px;stroke-linecap:butt;stroke-linejoin:miter;stroke-opacity:1"
             d="m 113.10226,196.01054 c 0,0 1.79125,-1.31187 4.46124,-1.17434 2.67269,0.13767 4.50039,2.05177 4.50039,2.05177 l 0.17683,-3.67495 c 0,0 -1.69476,-1.85943 -4.59557,-2.01263 -2.80957,-0.14839 -4.24053,0.88413 -4.24053,0.88413"
             id="path4859"
             inkscape:connector-curvature="0"
             sodipodi:nodetypes="csccsc" />
          <path
             sodipodi:nodetypes="csccsc"
             inkscape:connector-curvature="0"
             id="path4869"
             d="m 112.11384,214.88645 c 0,0 1.92118,-1.34731 4.59117,-1.20978 2.67269,0.13767 4.55945,2.05177 4.55945,2.05177 l 0.16501,-3.59226 c 0,0 -1.67113,-1.89487 -4.57194,-2.04807 -2.80957,-0.14839 -4.5122,0.68165 -4.5122,0.68165"
             style="fill:#272727;fill-opacity:1;fill-rule:evenodd;stroke:none;stroke-width:0.26458332px;stroke-linecap:butt;stroke-linejoin:miter;stroke-opacity:1" />
        </g>
      </g>
      <g
         inkscape:label="R Stick"
         id="layer4-3">
        <g
           id="g4925"
           transform="translate(0,-32.41665)">
          <path
             style="fill:url(#linearGradient4896);fill-opacity:1;fill-rule:evenodd;stroke:none;stroke-width:0.26458332px;stroke-linecap:butt;stroke-linejoin:miter;stroke-opacity:1"
             d="m 161.96533,296.99998 -16.83798,-134.1693 c 0,0 0.40091,-3.87541 4.81085,-4.54358 4.40995,-0.66818 5.61266,3.34087 5.61266,3.34087 l 16.83798,135.37201 z"
             id="path4851"
             inkscape:connector-curvature="0" />
          <path
             sodipodi:nodetypes="csccsc"
             inkscape:connector-curvature="0"
             id="path4884"
             d="m 148.22923,187.7166 c 0,0 2.32223,-2.22731 4.98432,-2.47441 2.65598,-0.24653 5.56701,2.14102 5.56701,2.14102 l -0.53474,-4.06726 c 0,0 -2.63802,-1.80261 -5.40164,-1.65946 -2.79645,0.14485 -5.13536,2.51207 -5.13536,2.51207"
             style="fill:#272727;fill-opacity:1;fill-rule:evenodd;stroke:none;stroke-width:0.26458332px;stroke-linecap:butt;stroke-linejoin:miter;stroke-opacity:1" />
          <path
             style="fill:#272727;fill-opacity:1;fill-rule:evenodd;stroke:none;stroke-width:0.26458332px;stroke-linecap:butt;stroke-linejoin:miter;stroke-opacity:1"
             d="m 151.03556,210.16724 c 0,0 2.32223,-2.22731 4.98432,-2.47441 2.65598,-0.24653 5.56701,2.14102 5.56701,2.14102 l -0.53474,-4.06726 c 0,0 -2.63802,-1.80261 -5.40164,-1.65946 -2.79645,0.14485 -5.13536,2.51207 -5.13536,2.51207"
             id="path4888"
             inkscape:connector-curvature="0"
             sodipodi:nodetypes="csccsc" />
        </g>
      </g>
    </g>
  </g>
  <g
     inkscape:groupmode="layer"
     id="layer4"
     inkscape:label="Artist Name">
    <text
       xml:space="preserve"
       style="font-style:normal;font-variant:normal;font-weight:600;font-stretch:normal;font-size:33.95090485px;line-height:100%;font-family:Museo;-inkscape-font-specification:'Museo, Semi-Bold';text-align:start;letter-spacing:0px;word-spacing:0px;writing-mode:lr-tb;text-anchor:start;fill:#ffffff;fill-opacity:1;stroke:none;stroke-width:0.84876513px;stroke-linecap:butt;stroke-linejoin:miter;stroke-opacity:1"
       x="174.40492"
       y="70.466164"
       id="text4158"
       sodipodi:linespacing="100%"><tspan
         sodipodi:role="line"
         id="tspan4160"
         x="174.40492"
         y="70.466164"
         style="font-style:normal;font-variant:normal;font-weight:600;font-stretch:normal;font-size:33.95090485px;line-height:100%;font-family:Museo;-inkscape-font-specification:'Museo, Semi-Bold';text-align:start;writing-mode:lr-tb;text-anchor:start;fill:#ffffff;fill-opacity:1;stroke-width:0.84876513px">Bruford's</tspan><tspan
         sodipodi:role="line"
         x="174.40492"
         y="104.41707"
         style="font-style:normal;font-variant:normal;font-weight:600;font-stretch:normal;font-size:33.95090485px;line-height:100%;font-family:Museo;-inkscape-font-specification:'Museo, Semi-Bold';text-align:start;writing-mode:lr-tb;text-anchor:start;fill:#ffffff;fill-opacity:1;stroke-width:0.84876513px"
         id="tspan4162">&quot;Hell's </tspan><tspan
         sodipodi:role="line"
         x="174.40492"
         y="138.36798"
         style="font-style:normal;font-variant:normal;font-weight:600;font-stretch:normal;font-size:33.95090485px;line-height:100%;font-family:Museo;-inkscape-font-specification:'Museo, Semi-Bold';text-align:start;writing-mode:lr-tb;text-anchor:start;fill:#ffffff;fill-opacity:1;stroke-width:0.84876513px"
         id="tspan4193">Bells&quot;</tspan></text>
  </g>
  <g
     inkscape:groupmode="layer"
     id="layer6"
     inkscape:label="WEIRD">
    <path
       style="opacity:1;fill:#ffffff;fill-opacity:1;stroke:none;stroke-width:17.2258606;stroke-miterlimit:4;stroke-dasharray:none;stroke-opacity:1"
       d="M 245.3457 602.625 L 245.3457 672.625 L 495.3457 672.625 L 495.3457 602.625 L 245.3457 602.625 z M 254.20703 613.5 L 258.08398 613.5 C 261.48345 613.5 263.18217 614.17987 263.99805 617.44336 L 271.4082 648.31055 C 272.02011 650.89414 272.36133 653.41016 272.36133 653.41016 L 272.49609 653.41016 C 272.49609 653.41016 272.90446 650.96213 273.65234 648.31055 L 283.30664 613.63477 L 289.42578 613.63477 L 298.40039 648.31055 C 299.08028 650.96213 299.41992 653.41016 299.41992 653.41016 L 299.55664 653.41016 C 299.55664 653.41016 299.8295 650.89414 300.44141 648.31055 L 307.98828 617.44336 C 308.80415 614.17987 310.43452 613.5 313.83398 613.5 L 317.70898 613.5 L 317.70898 619.3457 L 316.68945 619.3457 C 315.46565 619.3457 314.71885 619.61799 314.37891 620.8418 L 303.83984 661.5 L 295.95312 661.5 L 287.79492 631.17773 C 286.97905 628.05022 286.43555 624.58203 286.43555 624.58203 L 286.29883 624.58203 C 286.29883 624.58203 285.61824 628.04985 284.73438 631.10938 L 276.0332 661.5 L 268.07812 661.5 L 257.53906 620.8418 C 257.19912 619.61799 256.45232 619.3457 255.22852 619.3457 L 254.20703 619.3457 L 254.20703 613.5 z M 326.5 613.5 L 354.7168 613.5 C 357.77632 613.5 359.06641 614.79204 359.06641 617.85156 L 359.06641 623.90234 L 352.88086 623.90234 L 352.88086 620.8418 C 352.88086 619.82196 352.33662 619.3457 351.38477 619.3457 L 337.71875 619.3457 L 337.71875 634.37305 L 354.51172 634.37305 L 354.51172 640.21875 L 337.71875 640.21875 L 337.71875 654.15625 C 337.71875 655.1081 338.26299 655.65234 339.21484 655.65234 L 353.2207 655.65234 C 354.17255 655.65234 354.7168 655.1081 354.7168 654.15625 L 354.7168 651.09766 L 360.9707 651.09766 L 360.9707 657.14844 C 360.9707 660.20796 359.67866 661.5 356.61914 661.5 L 335.27148 661.5 C 332.21196 661.5 330.91992 660.20796 330.91992 657.14844 L 330.91992 619.3457 L 326.5 619.3457 L 326.5 613.5 z M 370.41406 613.5 L 386.25586 613.5 L 386.25586 619.3457 L 381.56445 619.3457 L 381.56445 655.65234 L 386.25586 655.65234 L 386.25586 661.5 L 370.41406 661.5 L 370.41406 655.65234 L 375.10547 655.65234 L 375.10547 619.3457 L 370.41406 619.3457 L 370.41406 613.5 z M 396.6543 613.5 L 417.5957 613.5 C 426.02638 613.5 431.94141 618.80359 431.94141 627.57422 C 431.94141 635.59696 426.70611 639.53923 423.30664 640.28711 L 423.30664 640.42383 C 423.30664 640.42383 424.52983 641.03585 425.3457 642.59961 L 431.125 654.08984 C 431.80489 655.51762 432.89365 655.65234 434.52539 655.65234 L 435.4082 655.65234 L 435.4082 661.5 L 432.07812 661.5 C 428.33871 661.5 426.97782 661.02399 425.41406 657.89648 L 418.88672 644.97852 C 417.66291 642.73487 416.78049 642.39453 414.12891 642.39453 L 407.87305 642.39453 L 407.87305 661.5 L 401.07422 661.5 L 401.07422 619.3457 L 396.6543 619.3457 L 396.6543 613.5 z M 443.75 613.5 L 463.19531 613.5 C 477.81302 613.5 487.4668 622.27002 487.4668 637.43164 C 487.4668 652.66125 477.81302 661.5 463.19531 661.5 L 452.51953 661.5 C 449.46001 661.5 448.16992 660.20796 448.16992 657.14844 L 448.16992 619.3457 L 443.75 619.3457 L 443.75 613.5 z M 407.87305 619.3457 L 407.87305 636.54883 L 416.71094 636.54883 C 421.87813 636.54883 424.9375 633.21686 424.9375 627.8457 C 424.9375 622.47455 421.87887 619.3457 416.84766 619.3457 L 407.87305 619.3457 z M 454.96875 619.3457 L 454.96875 654.15625 C 454.96875 655.1081 455.51299 655.65234 456.46484 655.65234 L 462.71875 655.65234 C 473.39308 655.65234 480.39648 649.26179 480.39648 637.43164 C 480.39648 625.66949 473.32509 619.3457 462.71875 619.3457 L 454.96875 619.3457 z "
       transform="scale(0.26458334)"
       id="rect4172" />
  </g>
  <g
     inkscape:groupmode="layer"
     id="layer7"
     inkscape:label="MAKE">
    <text
       xml:space="preserve"
       style="font-style:normal;font-variant:normal;font-weight:normal;font-stretch:normal;font-size:17.99166679px;line-height:100%;font-family:Museo;-inkscape-font-specification:'Museo, Normal';text-align:start;letter-spacing:0px;word-spacing:0px;writing-mode:lr-tb;text-anchor:start;fill:#ffffff;fill-opacity:1;stroke:none;stroke-width:0.26458335px;stroke-linecap:butt;stroke-linejoin:miter;stroke-opacity:1"
       x="10.690782"
       y="175.02188"
       id="text4175"
       sodipodi:linespacing="100%"><tspan
         sodipodi:role="line"
         id="tspan4177"
         x="10.690782"
         y="175.02188"
         style="font-style:normal;font-variant:normal;font-weight:normal;font-stretch:normal;font-size:17.99166679px;line-height:100%;font-family:Museo;-inkscape-font-specification:'Museo, Normal';text-align:start;writing-mode:lr-tb;text-anchor:start;fill:#ffffff;fill-opacity:1;stroke-width:0.26458335px;letter-spacing:1.32291669px">MAKE</tspan></text>
  </g>
  <g
     inkscape:groupmode="layer"
     id="layer8"
     inkscape:label="MUSIC">
    <text
       xml:space="preserve"
       style="font-style:normal;font-variant:normal;font-weight:normal;font-stretch:normal;font-size:17.99166679px;line-height:100%;font-family:Museo;-inkscape-font-specification:'Museo, Normal';text-align:start;letter-spacing:0px;word-spacing:0px;writing-mode:lr-tb;text-anchor:start;fill:#ffffff;fill-opacity:1;stroke:none;stroke-width:0.26458335px;stroke-linecap:butt;stroke-linejoin:miter;stroke-opacity:1"
       x="134.21758"
       y="174.80598"
       id="text4180"
       sodipodi:linespacing="100%"><tspan
         sodipodi:role="line"
         id="tspan4182"
         x="134.21758"
         y="174.80598"
         style="font-style:normal;font-variant:normal;font-weight:normal;font-stretch:normal;font-size:17.99166679px;line-height:100%;font-family:Museo;-inkscape-font-specification:'Museo, Normal';text-align:start;writing-mode:lr-tb;text-anchor:start;fill:#ffffff;fill-opacity:1;stroke-width:0.26458335px">MUSIC</tspan></text>
  </g>
</svg>
