<?xml version="1.0" encoding="UTF-8" standalone="no"?>
<!-- Created with Inkscape (http://www.inkscape.org/) -->

<svg
   xmlns:dc="http://purl.org/dc/elements/1.1/"
   xmlns:cc="http://creativecommons.org/ns#"
   xmlns:rdf="http://www.w3.org/1999/02/22-rdf-syntax-ns#"
   xmlns:svg="http://www.w3.org/2000/svg"
   xmlns="http://www.w3.org/2000/svg"
   xmlns:sodipodi="http://sodipodi.sourceforge.net/DTD/sodipodi-0.dtd"
   xmlns:inkscape="http://www.inkscape.org/namespaces/inkscape"
   width="950"
   height="350"
   id="svg3840"
   version="1.1"
   inkscape:version="0.48.2 r9819"
   sodipodi:docname="logo-cropped.svg">
  <defs
     id="defs3842" />
  <sodipodi:namedview
     id="base"
     pagecolor="#ffffff"
     bordercolor="#666666"
     borderopacity="1.0"
     inkscape:pageopacity="0.0"
     inkscape:pageshadow="2"
     inkscape:zoom="0.98994949"
     inkscape:cx="421.55164"
     inkscape:cy="118.63626"
     inkscape:document-units="px"
     inkscape:current-layer="layer2"
     showgrid="false"
     showguides="false"
     inkscape:guide-bbox="true"
     inkscape:window-width="1905"
     inkscape:window-height="1143"
     inkscape:window-x="20"
     inkscape:window-y="20"
     inkscape:window-maximized="0"
     fit-margin-top="0"
     fit-margin-left="0"
     fit-margin-right="0"
     fit-margin-bottom="0">
    <sodipodi:guide
       orientation="1,0"
       position="-25,675"
       id="guide4440" />
    <sodipodi:guide
       orientation="1,0"
       position="-2.8740708e-09,675"
       id="guide4442" />
    <sodipodi:guide
       orientation="1,0"
       position="975,675"
       id="guide4444" />
    <sodipodi:guide
       orientation="1,0"
       position="950,675"
       id="guide4446" />
    <sodipodi:guide
       orientation="1,0"
       position="300,675"
       id="guide4448" />
    <sodipodi:guide
       orientation="1,0"
       position="325,675"
       id="guide4450" />
    <sodipodi:guide
       orientation="1,0"
       position="625,675"
       id="guide4452" />
    <sodipodi:guide
       orientation="1,0"
       position="650,675"
       id="guide4454" />
  </sodipodi:namedview>
  <metadata
     id="metadata3845">
    <rdf:RDF>
      <cc:Work
         rdf:about="">
        <dc:format>image/svg+xml</dc:format>
        <dc:type
           rdf:resource="http://purl.org/dc/dcmitype/StillImage" />
        <dc:title />
      </cc:Work>
    </rdf:RDF>
  </metadata>
  <g
     inkscape:groupmode="layer"
     id="layer2"
     inkscape:label="BG"
     style="display:inline"
     transform="translate(-25,-325)" />
  <g
     inkscape:groupmode="layer"
     id="layer3"
     inkscape:label="M"
     style="display:inline"
     transform="translate(-25,-325)" />
  <g
     style="display:inline"
     inkscape:label="W"
     id="g4602"
     inkscape:groupmode="layer"
     transform="translate(-25,-325)" />
  <g
     inkscape:groupmode="layer"
     id="layer6"
     inkscape:label="M2"
     transform="translate(-25,-325)">
    <g
       id="g4819"
       transform="matrix(1,0,0,0.99802398,0,1.3338103)"
       style="fill:#d1d1d1;fill-opacity:1">
      <g
         transform="matrix(1.0429998,0,0,1.0429998,-0.7606978,44.341895)"
         id="g4630"
         style="fill:#d1d1d1;fill-opacity:1;display:inline">
        <path
           transform="translate(0,-52.362183)"
           style="fill:#d1d1d1;fill-opacity:1;stroke:none"
           d="m 80.803568,602.36218 c -1.78571,-1.25 -12.14285,5.26786 -28.125,21.69643 C 36.696428,640.48718 25.535714,651.20147 25,653.16575 c -0.535715,1.96429 -0.357143,2.5 0.535714,3.21429 0.892857,0.71429 3.035714,0.98214 4.017857,0 0.982143,-0.98214 22.767857,-27.05357 25.089287,-29.10714 2.32143,-2.05357 22.05357,-23.83929 26.16071,-24.91072 z"
           id="path4456"
           inkscape:connector-curvature="0" />
        <path
           transform="translate(0,-52.362183)"
           style="fill:#d1d1d1;fill-opacity:1;stroke:none"
           d="m 101.89914,424.48924 c -1.8309,0.0631 -20.329319,145.27257 -20.834399,149.50258 -0.50508,4.23001 0.0631,23.67545 1.95717,23.86485 1.89404,0.18941 4.48255,-8.20748 4.86136,-10.9854 0.37881,-2.77792 13.700189,-158.02574 14.015869,-162.38203 z"
           id="path4458"
           inkscape:connector-curvature="0" />
        <path
           style="fill:#d1d1d1;fill-opacity:1;stroke:none"
           d="m 207.89739,338.3421 c -1.42857,0.71428 -3.03571,19.82142 -5.53571,32.85714 -2.5,13.03571 -24.82143,106.25 -25.89286,118.57143 -1.07143,12.32143 -2.85714,36.42857 -1.96429,41.42857 0.89286,5 4.10715,8.92857 6.25,8.57143 2.14286,-0.35715 3.39286,-2.85715 2.67858,-4.46429 -0.71429,-1.60714 -2.5,-2.67857 -2.14286,-7.85714 0.35714,-5.17857 12.85714,-101.25 16.96428,-115 4.10715,-13.75 10.71429,-64.82143 10.89286,-67.85714 0.17857,-3.03572 0.17857,-8.75 -1.25,-6.25 z"
           id="path4465"
           inkscape:connector-curvature="0" />
        <path
           style="fill:#d1d1d1;fill-opacity:1;stroke:none;display:inline"
           d="m 95.402031,376.003 c -0.188893,-1.75661 2.266696,-3.88966 4.061174,-4.76797 1.794475,-0.87831 138.174335,-52.82415 143.368865,-54.58078 5.19453,-1.75661 54.02305,-17.69169 58.46201,-18.31906 4.43895,-0.62736 21.34477,-2.88588 22.85591,-1.50568 1.51113,1.38021 2.17226,2.25853 0.85001,4.14062 -1.32224,1.8821 -24.83927,11.79446 -29.75046,13.67656 -4.91119,1.8821 -187.19176,55.33361 -190.40292,56.71382 -3.21116,1.3802 -6.894553,2.00756 -7.555672,2.88588 -0.661125,0.87831 -0.377786,1.50568 -1.888917,1.75661 z"
           id="path4463"
           inkscape:connector-curvature="0" />
        <path
           style="fill:#d1d1d1;fill-opacity:1;stroke:none"
           d="m 325,301.4592 c -2.5,1.25 -4.10714,21.07143 -8.03572,36.96429 -3.92857,15.89286 -27.5,108.03571 -29.46428,122.5 -1.96429,14.46429 -9.28572,59.10714 -5.53572,65.35714 3.75,6.25 6.07143,1.96429 6.07143,-1.60714 0,-3.57143 7.32143,-53.39286 9.10715,-61.07143 1.78571,-7.67857 20.35714,-100.71428 22.14285,-110.17857 1.78572,-9.46429 10,-56.60714 5.71429,-51.96429 z"
           id="path4469"
           inkscape:connector-curvature="0" />
        <path
           style="fill:#d1d1d1;fill-opacity:1;stroke:none"
           d="m 89.82143,406.37475 c 0.71428,-2.32143 12.14285,-8.03572 14.82142,-8.92857 2.67858,-0.89286 180.53572,-68.39286 204.28572,-69.28572 23.75,-0.89286 21.42857,1.96429 16.07143,5 -5.35715,3.03572 -220.89286,66.42857 -224.28572,67.85714 -3.39285,1.42858 -8.92857,6.25 -10.89285,5.35715 z"
           id="path4475"
           inkscape:connector-curvature="0" />
        <path
           style="fill:#d1d1d1;fill-opacity:1;stroke:none"
           d="m 182.96388,541.76955 c -1.64149,-0.75761 -1.64149,-1.26269 -3.78807,0.50508 -2.14657,1.76777 -48.36106,43.81537 -51.26524,50.88644 -2.90419,7.07106 3.6618,3.15672 5.05076,1.38896 1.38896,-1.76777 44.69925,-52.52794 50.00255,-52.78048 z"
           id="path4471"
           inkscape:connector-curvature="0" />
        <path
           style="fill:#d1d1d1;fill-opacity:1;stroke:none"
           d="m 282.31071,529.02906 c -0.75761,-1.6415 -5.52891,0.61866 -8.93818,3.01777 -3.40926,2.39911 -38.7646,35.35534 -46.21448,48.61359 -7.44987,13.25825 2.77792,6.31345 5.68211,2.65165 2.90419,-3.6618 24.49619,-32.45115 27.27411,-34.724 2.77792,-2.27284 13.40239,-15.40482 16.92006,-16.16243 3.51768,-0.75762 5.40265,-2.38642 5.27638,-3.39658 z"
           id="path4473"
           inkscape:connector-curvature="0"
           sodipodi:nodetypes="csssssc" />
      </g>
      <g
         id="g4809"
         style="fill:#d1d1d1;fill-opacity:1">
        <path
           inkscape:connector-curvature="0"
           id="path4604"
           d="m 631.67948,394.54229 c 1.86249,1.30375 12.66499,-5.49438 29.33437,-22.62937 16.66937,-17.135 28.30999,-28.31 28.86874,-30.35875 0.55876,-2.04875 0.3725,-2.6075 -0.55875,-3.3525 -0.93125,-0.745 -3.16625,-1.02437 -4.19062,0 -1.02437,1.02437 -23.74688,28.21687 -26.16813,30.35874 -2.42125,2.14187 -23.00187,24.86438 -27.28561,25.98188 z"
           style="fill:#d1d1d1;fill-opacity:1;stroke:none" />
        <path
           inkscape:connector-curvature="0"
           id="path4606"
           d="m 609.67681,580.06373 c 1.90963,-0.0658 21.20346,-151.51926 21.73026,-155.93116 0.5268,-4.4119 -0.0658,-24.69349 -2.04132,-24.89103 -1.97548,-0.19756 -4.67529,8.5604 -5.07039,11.45777 -0.3951,2.89737 -14.2893,164.82081 -14.61855,169.36442 z"
           style="fill:#d1d1d1;fill-opacity:1;stroke:none" />
        <path
           inkscape:connector-curvature="0"
           id="path4608"
           d="m 499.12065,615.30144 c 1.49,-0.74499 3.16625,-20.67374 5.77375,-34.26999 2.6075,-13.59624 25.88874,-110.81873 27.00625,-123.66998 1.1175,-12.85125 2.97999,-37.99499 2.04875,-43.20999 -0.93125,-5.215 -4.28376,-9.3125 -6.51875,-8.94 -2.235,0.37251 -3.53875,2.98001 -2.79376,4.65626 0.74501,1.67624 2.6075,2.79374 2.23501,8.19499 -0.3725,5.40125 -13.41,105.60373 -17.69375,119.94498 -4.28375,14.34125 -11.175,67.60874 -11.36125,70.77498 -0.18624,3.16626 -0.18624,9.12625 1.30375,6.51875 z"
           style="fill:#d1d1d1;fill-opacity:1;stroke:none" />
        <path
           inkscape:connector-curvature="0"
           id="path4610"
           d="m 376.25224,659.057 c -0.19701,-1.83214 2.36417,-4.05691 4.2358,-4.97299 1.87164,-0.91608 144.11581,-55.09558 149.5337,-56.92774 5.4179,-1.83215 56.34603,-18.45243 60.97587,-19.10678 4.62982,-0.65433 22.26259,-3.00997 23.83871,-1.57042 1.57611,1.43956 2.26567,2.35564 0.88656,4.31866 -1.3791,1.96303 -25.90736,12.30162 -31.02973,14.26465 -5.12237,1.96303 -195.24096,57.71295 -198.5902,59.15251 -3.34924,1.43954 -7.19102,2.09388 -7.88057,3.00997 -0.68955,0.91608 -0.39403,1.57042 -1.97014,1.83214 z"
           style="fill:#d1d1d1;fill-opacity:1;stroke:none;display:inline" />
        <path
           inkscape:connector-curvature="0"
           id="path4612"
           d="m 376.98265,653.7703 c 2.6075,-1.30375 4.28375,-21.9775 8.38126,-38.55375 4.0975,-16.57625 28.68249,-112.68122 30.73124,-127.76748 2.04875,-15.08625 9.685,-61.64873 5.77375,-68.16748 -3.91125,-6.51875 -6.3325,-2.04875 -6.3325,1.67625 0,3.725 -7.63625,55.68874 -9.49875,63.69749 -1.8625,8.00874 -21.2325,105.04497 -23.09499,114.91622 -1.86251,9.87126 -10.43,59.04124 -5.96001,54.19875 z"
           style="fill:#d1d1d1;fill-opacity:1;stroke:none" />
        <path
           inkscape:connector-curvature="0"
           id="path4614"
           d="m 373.29779,625.97993 c 0.74499,-2.42125 12.66499,-8.38125 15.45874,-9.31249 2.79375,-0.93126 188.29872,-71.33374 213.06996,-72.265 24.77125,-0.93125 22.35,2.04876 16.7625,5.215 -5.58751,3.16626 -230.39121,69.28499 -233.92996,70.77499 -3.53874,1.49001 -9.3125,6.51875 -11.36124,5.5875 z"
           style="fill:#d1d1d1;fill-opacity:1;stroke:none" />
        <path
           inkscape:connector-curvature="0"
           id="path4616"
           d="m 525.12629,403.12665 c 1.71207,0.79019 1.71207,1.31699 3.95095,-0.5268 2.23888,-1.84378 50.44058,-45.69942 53.46964,-53.07454 3.02907,-7.37512 -3.81926,-3.29246 -5.26794,-1.44869 -1.44869,1.84378 -46.62131,54.78663 -52.15265,55.05003 z"
           style="fill:#d1d1d1;fill-opacity:1;stroke:none" />
        <path
           sodipodi:nodetypes="csssssc"
           inkscape:connector-curvature="0"
           id="path4618"
           d="m 421.50758,416.41499 c 0.79019,1.71208 5.76665,-0.64526 9.32252,-3.14754 3.55586,-2.50227 40.43147,-36.87561 48.2017,-50.70396 7.77021,-13.82835 -2.89737,-6.58493 -5.92644,-2.76567 -3.02907,3.81926 -25.54953,33.84654 -28.4469,36.21712 -2.89737,2.37058 -13.97869,16.06723 -17.64761,16.85742 -3.66894,0.79019 -5.63497,2.48903 -5.50327,3.54263 z"
           style="fill:#d1d1d1;fill-opacity:1;stroke:none" />
      </g>
      <g
         transform="matrix(1.0429998,0,0,1.0429998,-41.43769,44.341895)"
         id="g4640"
         style="fill:#d1d1d1;fill-opacity:1">
        <path
           inkscape:connector-curvature="0"
           id="path4578"
           d="m 726.80357,516.14285 c -1.78571,-1.25 -12.14285,5.26786 -28.125,21.69643 -15.98214,16.42857 -27.14286,27.14286 -27.67857,29.10714 -0.53571,1.96429 -0.35714,2.5 0.53571,3.21429 0.89286,0.71429 3.03572,0.98214 4.01786,0 0.98214,-0.98214 22.76786,-27.05357 25.08929,-29.10714 2.32143,-2.05357 22.05357,-23.83929 26.16071,-24.91072 z"
           style="fill:#d1d1d1;fill-opacity:1;stroke:none;display:inline" />
        <path
           inkscape:connector-curvature="0"
           id="path4580"
           d="m 854.32772,303.2699 c -2.51353,0.0748 -27.90885,172.20607 -28.60225,177.22031 -0.6934,5.01426 0.0866,28.06488 2.68687,28.2894 2.60022,0.22452 6.15381,-9.72915 6.67387,-13.0221 0.52004,-3.29294 18.80812,-187.32366 19.24151,-192.48761 z"
           style="fill:#d1d1d1;fill-opacity:1;stroke:none;display:inline" />
        <path
           inkscape:connector-curvature="0"
           id="path4582"
           d="m 960.04025,280.22975 c -1.42857,0.74963 -3.03571,20.80235 -5.53571,34.48319 -2.5,13.68083 -24.82143,111.50815 -25.89286,124.43934 -1.07143,12.9312 -2.85714,38.23137 -1.96429,43.47881 0.89286,5.24744 4.10715,9.37043 6.25,8.99561 2.14286,-0.37482 3.39286,-2.99854 2.67858,-4.68522 -0.71429,-1.68667 -2.5,-2.81113 -2.14286,-8.24597 0.35714,-5.43485 12.85714,-106.26071 16.96428,-120.69117 4.10715,-14.43047 10.71429,-68.02934 10.89286,-71.21528 0.17857,-3.18596 0.17857,-9.18303 -1.25,-6.55931 z"
           style="fill:#d1d1d1;fill-opacity:1;stroke:none;display:inline" />
        <path
           inkscape:connector-curvature="0"
           id="path4584"
           d="m 741.40203,379.28872 c -0.18889,-1.75661 2.2667,-3.88966 4.06118,-4.76797 1.79447,-0.87831 138.17433,-52.82415 143.36886,-54.58078 5.19453,-1.75661 54.02305,-17.69169 58.46201,-18.31906 4.43895,-0.62736 21.34477,-2.88588 22.85591,-1.50568 1.51113,1.38021 2.17226,2.25853 0.85001,4.14062 -1.32224,1.8821 -24.83927,11.79446 -29.75046,13.67656 -4.91119,1.8821 -187.19176,55.33361 -190.40292,56.71382 -3.21116,1.3802 -6.89455,2.00756 -7.55567,2.88588 -0.66113,0.87831 -0.37779,1.50568 -1.88892,1.75661 z"
           style="fill:#d1d1d1;fill-opacity:1;stroke:none;display:inline" />
        <path
           inkscape:connector-curvature="0"
           id="path4586"
           d="m 750.63275,339.68069 c -1.79063,0.99973 -2.94175,16.85255 -5.75559,29.56338 -2.81385,12.71082 -19.6969,86.40501 -21.10382,97.97329 -1.40692,11.56828 -6.6509,47.27282 -3.96496,52.27146 2.68594,4.99864 4.34867,1.571 4.34867,-1.28536 0,-2.85637 5.24398,-42.70265 6.523,-48.84383 1.27902,-6.14118 14.58082,-80.54947 15.85983,-88.11883 1.27903,-7.56937 7.16251,-45.27337 4.09287,-41.56011 z"
           style="fill:#d1d1d1;fill-opacity:1;stroke:none;display:inline" />
        <path
           inkscape:connector-curvature="0"
           id="path4588"
           d="m 735.82143,346.80333 c 0.71428,-2.32143 12.14285,-8.03572 14.82142,-8.92857 2.67858,-0.89286 180.53572,-68.39286 204.28572,-69.28572 23.75,-0.89286 21.42857,1.96429 16.07143,5 -5.35715,3.03572 -220.89286,66.42857 -224.28572,67.85714 -3.39285,1.42858 -8.92857,6.25 -10.89285,5.35715 z"
           style="fill:#d1d1d1;fill-opacity:1;stroke:none;display:inline" />
        <path
           inkscape:connector-curvature="0"
           id="path4590"
           d="m 828.96388,507.91241 c -1.64149,-0.75761 -1.64149,-1.26269 -3.78807,0.50508 -2.14657,1.76777 -48.36106,43.81537 -51.26524,50.88644 -2.90419,7.07106 3.6618,3.15672 5.05076,1.38896 1.38896,-1.76777 44.69925,-52.52794 50.00255,-52.78048 z"
           style="fill:#d1d1d1;fill-opacity:1;stroke:none;display:inline" />
        <path
           sodipodi:nodetypes="csssssc"
           inkscape:connector-curvature="0"
           id="path4592"
           d="m 928.31071,495.17192 c -0.75761,-1.6415 -5.52891,0.61866 -8.93818,3.01777 -3.40926,2.39911 -38.7646,35.35534 -46.21448,48.61359 -7.44987,13.25825 2.77792,6.31345 5.68211,2.65165 2.90419,-3.6618 24.49619,-32.45115 27.27411,-34.724 2.77792,-2.27284 13.40239,-15.40482 16.92006,-16.16243 3.51768,-0.75762 5.40265,-2.38642 5.27638,-3.39658 z"
           style="fill:#d1d1d1;fill-opacity:1;stroke:none;display:inline" />
      </g>
    </g>
  </g>
</svg>
