<?xml version="1.0" encoding="UTF-8" standalone="no"?>
<!-- Created with Inkscape (http://www.inkscape.org/) -->

<svg
   xmlns:dc="http://purl.org/dc/elements/1.1/"
   xmlns:cc="http://creativecommons.org/ns#"
   xmlns:rdf="http://www.w3.org/1999/02/22-rdf-syntax-ns#"
   xmlns:svg="http://www.w3.org/2000/svg"
   xmlns="http://www.w3.org/2000/svg"
   xmlns:sodipodi="http://sodipodi.sourceforge.net/DTD/sodipodi-0.dtd"
   xmlns:inkscape="http://www.inkscape.org/namespaces/inkscape"
   width="1000"
   height="250"
   id="svg4867"
   version="1.1"
   inkscape:version="0.48.2 r9819"
   sodipodi:docname="sublogo.svg">
  <defs
     id="defs4869" />
  <sodipodi:namedview
     id="base"
     pagecolor="#ffffff"
     bordercolor="#666666"
     borderopacity="1.0"
     inkscape:pageopacity="0.0"
     inkscape:pageshadow="2"
     inkscape:zoom="1.4"
     inkscape:cx="438.35762"
     inkscape:cy="151.443"
     inkscape:document-units="px"
     inkscape:current-layer="layer8"
     showgrid="false"
     showguides="false"
     inkscape:guide-bbox="true"
     inkscape:window-width="1780"
     inkscape:window-height="1041"
     inkscape:window-x="40"
     inkscape:window-y="40"
     inkscape:window-maximized="0">
    <sodipodi:guide
       orientation="0,1"
       position="0,250"
       id="guide4875" />
    <sodipodi:guide
       orientation="0,1"
       position="0,125"
       id="guide4877" />
    <sodipodi:guide
       orientation="0,1"
       position="0,0"
       id="guide4879" />
    <sodipodi:guide
       orientation="1,0"
       position="200,0"
       id="guide4881" />
    <sodipodi:guide
       orientation="1,0"
       position="400,0"
       id="guide4883" />
    <sodipodi:guide
       orientation="1,0"
       position="600,0"
       id="guide4885" />
    <sodipodi:guide
       orientation="1,0"
       position="800,0"
       id="guide4887" />
    <sodipodi:guide
       orientation="1,0"
       position="1000,0"
       id="guide4889" />
    <sodipodi:guide
       orientation="1,0"
       position="1200,0"
       id="guide4891" />
    <sodipodi:guide
       orientation="1,0"
       position="100,0"
       id="guide4895" />
    <sodipodi:guide
       orientation="1,0"
       position="300,0"
       id="guide4897" />
    <sodipodi:guide
       orientation="1,0"
       position="500,0"
       id="guide4899" />
    <sodipodi:guide
       orientation="1,0"
       position="700,0"
       id="guide4901" />
    <sodipodi:guide
       orientation="1,0"
       position="900,0"
       id="guide4903" />
    <sodipodi:guide
       orientation="1,0"
       position="150,0"
       id="guide5415" />
    <sodipodi:guide
       orientation="1,0"
       position="50,0"
       id="guide5417" />
    <sodipodi:guide
       orientation="1,0"
       position="250,0"
       id="guide5419" />
    <sodipodi:guide
       orientation="1,0"
       position="350,0"
       id="guide5421" />
    <sodipodi:guide
       orientation="1,0"
       position="450,0"
       id="guide5423" />
    <sodipodi:guide
       orientation="1,0"
       position="550,0"
       id="guide5425" />
    <sodipodi:guide
       orientation="1,0"
       position="650,0"
       id="guide5427" />
    <sodipodi:guide
       orientation="1,0"
       position="750,0"
       id="guide5429" />
    <sodipodi:guide
       orientation="1,0"
       position="850,0"
       id="guide5431" />
    <sodipodi:guide
       orientation="1,0"
       position="950,0"
       id="guide5433" />
  </sodipodi:namedview>
  <metadata
     id="metadata4872">
    <rdf:RDF>
      <cc:Work
         rdf:about="">
        <dc:format>image/svg+xml</dc:format>
        <dc:type
           rdf:resource="http://purl.org/dc/dcmitype/StillImage" />
        <dc:title></dc:title>
      </cc:Work>
    </rdf:RDF>
  </metadata>
  <g
     inkscape:groupmode="layer"
     id="layer8"
     inkscape:label="BG"
     style="display:inline" />
  <g
     inkscape:label="Sine Curve"
     inkscape:groupmode="layer"
     id="layer1"
     transform="translate(0,-802.36218)"
     style="display:inline">
    <path
       style="fill:none;stroke:#d1d1d1;stroke-width:1px;stroke-linecap:butt;stroke-linejoin:miter;stroke-opacity:1"
       d="M 0,250 C 50,250 50,0 100,0 c 50,0 50,250 100,250 50,0 50,-250 100,-250 50,0 50,250 100,250 50,0 50,-250 100,-250 50,0 50,250 100,250 50,0 50,-250 100,-250 50,0 50,250 100,250 50,0 50,-250 100,-250 50,0 50,250 100,250"
       id="path4893"
       inkscape:connector-curvature="0"
       transform="translate(0,802.36218)"
       sodipodi:nodetypes="csssssssssc" />
  </g>
  <g
     inkscape:groupmode="layer"
     id="layer9"
     inkscape:label="Fillers"
     style="display:inline">
    <path
       style="fill:#d1d1d1;fill-opacity:1;stroke:none;display:inline"
       d="m 50,125 100,0 C 150,125 133.39286,0 100,0 67.142857,0 50,125 50,125 z"
       id="path5459"
       inkscape:connector-curvature="0"
       sodipodi:nodetypes="ccsc" />
    <path
       sodipodi:nodetypes="ccsc"
       inkscape:connector-curvature="0"
       id="path5463"
       d="m 250,125 100,0 C 350,125 333.39286,-4.3e-6 300,-4.3e-6 267.14286,-4.3e-6 250,125 250,125 z"
       style="fill:#d1d1d1;fill-opacity:1;stroke:none;display:inline" />
    <path
       style="fill:#d1d1d1;fill-opacity:1;stroke:none;display:inline"
       d="m 350,125 100,0 c 0,0 -16.60714,125 -50,125 -32.85714,0 -50,-125 -50,-125 z"
       id="path5465"
       inkscape:connector-curvature="0"
       sodipodi:nodetypes="ccsc" />
    <path
       sodipodi:nodetypes="ccsc"
       inkscape:connector-curvature="0"
       id="path5467"
       d="m 650,125 100,0 C 750,125 733.39286,-4.3e-6 700,-4.3e-6 667.14286,-4.3e-6 650,125 650,125 z"
       style="fill:#d1d1d1;fill-opacity:1;stroke:none;display:inline" />
    <path
       style="fill:#d1d1d1;fill-opacity:1;stroke:none;display:inline"
       d="m 850,125 100,0 C 950,125 933.39286,0 900,0 867.14286,0 850,125 850,125 z"
       id="path5469"
       inkscape:connector-curvature="0"
       sodipodi:nodetypes="ccsc" />
    <path
       sodipodi:nodetypes="ccsc"
       inkscape:connector-curvature="0"
       id="path5471"
       d="m 550,125 100,0 c 0,0 -16.60714,125 -50,125 -32.85714,0 -50,-125 -50,-125 z"
       style="fill:#d1d1d1;fill-opacity:1;stroke:none;display:inline" />
  </g>
  <g
     inkscape:groupmode="layer"
     id="layer7"
     inkscape:label="Zero"
     style="display:inline">
    <path
       style="fill:none;stroke:#d1d1d1;stroke-width:1;stroke-linecap:butt;stroke-linejoin:miter;stroke-miterlimit:4;stroke-opacity:1;stroke-dasharray:none"
       d="m 0,125 1000,0"
       id="path4905"
       inkscape:connector-curvature="0" />
  </g>
</svg>
