<?xml version="1.0" encoding="UTF-8" standalone="no"?>
<!-- Created with Inkscape (http://www.inkscape.org/) -->

<svg
   xmlns:dc="http://purl.org/dc/elements/1.1/"
   xmlns:cc="http://creativecommons.org/ns#"
   xmlns:rdf="http://www.w3.org/1999/02/22-rdf-syntax-ns#"
   xmlns:svg="http://www.w3.org/2000/svg"
   xmlns="http://www.w3.org/2000/svg"
   xmlns:sodipodi="http://sodipodi.sourceforge.net/DTD/sodipodi-0.dtd"
   xmlns:inkscape="http://www.inkscape.org/namespaces/inkscape"
   width="1000"
   height="1000"
   viewBox="0 0 264.58333 264.58334"
   version="1.1"
   id="svg8"
   inkscape:version="0.92.1 r15371"
   sodipodi:docname="shawn-persinger.svg"
   inkscape:export-filename="C:\Users\Anthony Garone\Documents\GitHub\art\shawn-persinger\shawn-persinger.png"
   inkscape:export-xdpi="96"
   inkscape:export-ydpi="96">
  <defs
     id="defs2" />
  <sodipodi:namedview
     id="base"
     pagecolor="#ffffff"
     bordercolor="#666666"
     borderopacity="1.0"
     inkscape:pageopacity="0.0"
     inkscape:pageshadow="2"
     inkscape:zoom="1.4"
     inkscape:cx="446.77813"
     inkscape:cy="460.15203"
     inkscape:document-units="px"
     inkscape:current-layer="layer1"
     showgrid="false"
     units="px"
     showguides="true"
     inkscape:guide-bbox="true"
     inkscape:window-width="1920"
     inkscape:window-height="1057"
     inkscape:window-x="-8"
     inkscape:window-y="-8"
     inkscape:window-maximized="1"
     inkscape:snap-global="false">
    <sodipodi:guide
       position="264.58334,264.58334"
       orientation="1,0"
       id="guide10"
       inkscape:locked="false"
       inkscape:label=""
       inkscape:color="rgb(0,0,255)" />
    <sodipodi:guide
       position="0,0"
       orientation="1,0"
       id="guide12"
       inkscape:locked="false"
       inkscape:label=""
       inkscape:color="rgb(0,0,255)" />
    <sodipodi:guide
       position="264.58334,264.58334"
       orientation="0,1"
       id="guide14"
       inkscape:locked="false"
       inkscape:label=""
       inkscape:color="rgb(0,0,255)" />
    <sodipodi:guide
       position="0,0"
       orientation="0,1"
       id="guide16"
       inkscape:locked="false"
       inkscape:label=""
       inkscape:color="rgb(0,0,255)" />
  </sodipodi:namedview>
  <metadata
     id="metadata5">
    <rdf:RDF>
      <cc:Work
         rdf:about="">
        <dc:format>image/svg+xml</dc:format>
        <dc:type
           rdf:resource="http://purl.org/dc/dcmitype/StillImage" />
        <dc:title></dc:title>
      </cc:Work>
    </rdf:RDF>
  </metadata>
  <g
     inkscape:label="BG"
     inkscape:groupmode="layer"
     id="layer1"
     transform="translate(0,-32.41665)"
     style="display:none">
    <rect
       id="rect4493"
       width="264.58334"
       height="264.58334"
       x="0"
       y="32.416641"
       style="fill:#ffffff;fill-opacity:1;stroke-width:0.26458332" />
  </g>
  <g
     inkscape:groupmode="layer"
     id="layer2"
     inkscape:label="Shawn"
     style="display:inline">
    <path
       style="fill:#c8c4b7;stroke:none;stroke-width:0.28574085px;stroke-linecap:butt;stroke-linejoin:miter;stroke-opacity:1"
       d="m 106.27908,120.70373 c 6.49382,0.41056 8.11727,2.87386 17.85799,11.90602 9.74073,9.03215 36.12185,-8.21106 45.45671,2.05276 9.33486,10.26382 24.75767,173.25315 12.58176,177.76923 -12.17589,4.51607 -126.629395,-0.41056 -126.629395,-0.41056 2.029319,-20.93817 50.732935,-191.31745 50.732935,-191.31745 z"
       id="path4636"
       inkscape:connector-curvature="0" />
    <path
       style="fill:#483737;stroke:none;stroke-width:0.28574085px;stroke-linecap:butt;stroke-linejoin:miter;stroke-opacity:1"
       d="m 171.44034,132.05908 c 7.71139,3.90024 28.99906,10.19865 36.71047,14.92001 7.71141,4.72135 18.87265,8.82687 20.09024,12.93239 1.21759,4.10554 2.84104,26.68592 3.8557,33.66531 1.01466,6.9794 6.69675,61.3776 9.94366,61.3776 3.2469,0 11.97297,-11.08492 12.58176,-3.4897 0.6088,7.59522 2.02932,43.10801 0.40587,43.10801 -1.62346,0 -10.34952,12.72714 -13.79936,16.21682 -3.44984,3.4897 -8.929,5.95302 -13.19056,6.36357 l -4.26157,0.41055 c 0,0 -69.19972,0 -69.80851,-5.1319 -0.6088,-5.1319 -0.20294,-71.02558 2.63811,-85.18964 2.84105,-14.16406 5.88502,-51.52434 5.47915,-59.32484 -0.40585,-7.8005 4.28173,-36.47402 9.35504,-35.85818 z"
       id="path4612"
       inkscape:connector-curvature="0"
       sodipodi:nodetypes="cscsscscsccscc" />
    <path
       style="display:inline;fill:#efa16f;fill-opacity:1;stroke:none;stroke-width:0.28574085px;stroke-linecap:butt;stroke-linejoin:miter;stroke-opacity:1"
       d="m 112.89407,92.718213 c 0.43048,5.443215 1.00445,9.580057 0.21523,14.224917 -0.78921,4.64487 1.5067,16.91023 7.82046,25.40164 6.31375,8.49141 16.50185,17.20053 25.47025,17.27311 8.9684,0.0726 8.9684,0.0726 8.9684,0.0726 0,0 5.1658,-11.75733 3.44387,-13.13628 -1.72193,-1.37895 -15.42565,2.39501 -27.33568,-8.70913 -11.91004,-11.10414 -15.71264,-35.63487 -15.71264,-35.63487 -2.15242,0.580632 -2.15242,0.580632 -2.15242,0.580632 z"
       id="path4566"
       inkscape:connector-curvature="0" />
    <path
       style="display:inline;fill:#ffb583;fill-opacity:1;stroke:none;stroke-width:0.28574085px;stroke-linecap:butt;stroke-linejoin:miter;stroke-opacity:1"
       d="m 109.32306,64.458042 c -3.44984,0 -6.40185,2.350502 -6.11486,6.197036 0.28698,3.846534 3.51561,15.168405 4.16133,16.257046 0.64573,1.088641 3.58736,5.515784 5.16581,5.806089 1.57843,0.290305 3.22862,1.016062 3.37211,-0.217726 0.1435,-1.233799 2.4394,-12.555667 2.15242,-15.095832 -0.287,-2.540163 -3.62641,-11.740886 -8.73681,-12.946613 z"
       id="path4560"
       inkscape:connector-curvature="0" />
    <path
       style="fill:#483737;stroke:none;stroke-width:0.28574085px;stroke-linecap:butt;stroke-linejoin:miter;stroke-opacity:1"
       d="m 108.58924,104.83842 c -11.192574,2.03213 -20.089224,-2.03212 -24.681044,1.45152 -4.59182,3.48366 -9.470629,4.06427 -14.636429,3.19336 -5.165797,-0.87092 -21.811148,-8.70914 -25.828992,-2.61275 -4.017842,6.09639 -6.60074,13.93462 -12.627507,16.83767 -6.026764,2.90304 -53.666907,12.19277 -59.119693,15.09582 -5.452787,2.90304 -13.201486,6.96731 -20.663195,7.83823 -7.461708,0.8709 -25.542002,8.99943 -25.828991,22.35343 -0.28699,13.35401 4.304831,22.06314 15.784385,30.48197 11.479551,8.41882 43.048319,41.22323 46.205196,42.09414 3.1568768,0.87092 43.335309,-26.70801 41.900366,-32.22379 -1.434945,-5.51579 -14.349441,-15.96674 -22.0981392,-20.031 -7.74869702,-4.06427 -7.35674402,-4.77238 -7.35674402,-4.77238 0,0 25.06207022,0 35.61452022,2.05275 10.552448,2.05278 69.808517,18.68015 69.808517,18.68015 0,0 -5.276224,-15.19045 -1.21759,-31.61254 4.05863,-16.4221 12.73758,-48.15271 4.74534,-68.82658 z"
       id="path4606"
       inkscape:connector-curvature="0" />
    <path
       style="fill:#6c5353;stroke:none;stroke-width:0.28574085px;stroke-linecap:butt;stroke-linejoin:miter;stroke-opacity:1"
       d="m 108.73274,105.85449 c -5.59629,3.0482 -15.066934,12.62824 -21.524174,15.38613 -6.45725,2.75789 -16.932336,8.12853 -14.923416,9.58005 2.008922,1.45153 10.188106,8.41884 8.753156,9.14459 -1.434942,0.72576 -17.362819,1.30637 -16.645348,4.35457 0.717473,3.04819 5.452788,51.23873 10.044609,64.15727 4.591821,12.91856 34.869133,19.88587 33.290703,9.87036 -1.57844,-10.0155 -3.15687,-40.78778 -1.57844,-49.06145 1.57844,-8.27368 5.59628,-33.23986 6.31376,-39.4814 0.71746,-6.24155 -0.71748,-21.48253 -3.73085,-23.95012 z"
       id="path4608"
       inkscape:connector-curvature="0" />
    <path
       style="fill:#6c5353;stroke:none;stroke-width:0.28574085px;stroke-linecap:butt;stroke-linejoin:miter;stroke-opacity:1"
       d="m 163.83458,136.77191 c -3.44386,13.354 -8.03568,27.28862 -5.59628,40.78777 2.43941,13.49916 -4.30484,58.6415 -5.02231,72.86642 -0.71746,14.22492 -3.91539,61.18454 3.39016,43.53078 7.30554,-17.65376 22.32249,-74.31 31.65735,-87.44769 9.33486,-13.13768 12.37883,-18.26958 11.2627,-18.78277 -1.11612,-0.51319 -15.21987,-6.36356 -14.00228,-8.31369 1.21759,-1.95012 12.37884,-7.90313 11.26272,-9.23743 -1.11613,-1.33429 -16.94481,-16.21682 -18.97412,-21.96455 -2.02932,-5.74774 -6.08795,-19.29598 -7.60994,-20.01443 -1.52199,-0.71847 -1.52199,-0.71847 -1.52199,-0.71847 0,0 -4.51725,8.0164 -4.84601,9.29406 z"
       id="path4610"
       inkscape:connector-curvature="0" />
    <path
       style="fill:#ffbd91;fill-opacity:1;stroke:none;stroke-width:0.28574085px;stroke-linecap:butt;stroke-linejoin:miter;stroke-opacity:1"
       d="m 109.01972,64.63126 c 4.8788,1.30637 8.60966,11.176723 8.60966,13.789462 0,2.612739 -2.5829,11.902483 -1.57843,17.853718 1.00446,5.95125 2.72639,15.96675 5.02229,19.59555 2.29592,3.62881 20.23272,19.4504 26.54648,20.46647 6.31374,1.01606 14.63642,0.14514 17.36282,-2.32244 2.72639,-2.46759 12.91449,-22.2083 14.34944,-33.23986 1.43495,-11.031565 0.28699,-17.708568 1.57844,-22.934048 1.29144,-5.225478 -0.28699,-24.530725 -1.57844,-28.885291 -1.29145,-4.354567 -16.78885,-27.724075 -39.03048,-24.82103 -22.24163,2.903044 -29.99033,19.160093 -30.8513,25.691942 -0.86096,6.531851 -1.43494,13.354006 -0.43048,14.805527 z"
       id="path4534"
       inkscape:connector-curvature="0" />
    <path
       style="fill:#502d16;fill-opacity:0.54123709;stroke:none;stroke-width:0.28574085px;stroke-linecap:butt;stroke-linejoin:miter;stroke-opacity:1"
       d="m 166.84796,80.743157 c 1.72194,1.451522 2.43941,1.161218 4.73532,-0.435456 2.29591,-1.596675 8.17918,-5.370632 8.60967,-2.467589 0.43048,2.903045 -2.72641,1.741828 -2.8699,3.91911 -0.14349,2.177285 0.28699,3.628809 -0.86096,3.919114 -1.14796,0.290295 -0.43048,0.435452 -2.7264,2.032124 -2.2959,1.596683 -5.02229,1.306378 -6.17025,-1.451514 -1.14796,-2.757891 0.71747,-3.338501 -0.71748,-5.515789 z"
       id="path4542"
       inkscape:connector-curvature="0" />
    <path
       style="fill:#502d16;fill-opacity:0.54123709;stroke:none;stroke-width:0.28574085px;stroke-linecap:butt;stroke-linejoin:miter;stroke-opacity:1"
       d="m 163.54759,79.58194 c -1.29145,2.757893 -2.00892,5.806091 -4.44832,7.112458 -2.43941,1.306367 -4.16134,5.225479 -5.4528,4.064259 -1.29144,-1.16122 -1.72192,-5.806088 -3.01337,-4.064259 -1.29146,1.74183 -4.30484,2.612745 -6.60074,1.74183 -2.29592,-0.870915 -4.59183,-5.370636 -6.17027,-4.064269 -1.57843,1.306377 -1.29144,-2.612737 1.00447,-3.483651 2.2959,-0.870911 5.59628,-4.064261 7.89219,-2.903043 2.2959,1.161218 4.87881,2.612739 8.89665,2.903043 4.01784,0.290307 6.45725,-2.177282 7.89219,-1.306368 z"
       id="path4544"
       inkscape:connector-curvature="0" />
    <path
       style="fill:#502d16;fill-opacity:0.54123709;stroke:none;stroke-width:0.28574085px;stroke-linecap:butt;stroke-linejoin:miter;stroke-opacity:1"
       d="m 148.62418,106.4351 c 1.57843,-1.59668 5.73977,-9.144587 7.46171,-8.854282 1.72192,0.290305 3.15687,1.451514 1.43493,1.16122 -1.72192,-0.290316 -2.15241,0 -4.30483,3.483652 -2.15241,3.48364 -4.59181,4.20941 -4.59181,4.20941 z"
       id="path4546"
       inkscape:connector-curvature="0" />
    <path
       style="fill:#6a4226;fill-opacity:1;stroke:none;stroke-width:0.28574085px;stroke-linecap:butt;stroke-linejoin:miter;stroke-opacity:1"
       d="m 117.48614,79.14636 c 0,0 -0.86142,8.419214 -1.72239,12.918925 -0.86096,4.499721 2.00905,19.740345 3.30051,24.385225 1.29144,4.64486 16.07167,17.70886 19.51553,21.19252 3.44387,3.48365 7.60501,1.16111 10.6184,0.2902 3.01338,-0.87092 7.03126,-0.29032 12.91454,-1.45154 5.88326,-1.16121 7.60513,-7.40291 8.89658,-10.59626 1.29145,-3.19335 7.60533,-15.53147 8.32281,-20.03119 0.71747,-4.49972 0.71748,-13.063188 0.71748,-13.063188 0,0 -0.71758,8.418418 -1.14807,10.595698 -0.43048,2.17728 -2.29583,4.06451 -5.30921,5.22573 -3.01338,1.16122 -5.30942,-1.30627 -7.60534,-1.74172 -2.2959,-0.43547 -3.30061,0.43523 -6.60099,-0.14538 -3.30036,-0.58061 -13.91847,3.19314 -20.8062,3.48344 -6.88773,0.29031 -12.77108,-9.43451 -16.50193,-17.127571 -3.73085,-7.693065 -1.72183,-9.29002 -4.59172,-13.934889 z m 49.94579,35.81107 c 0.32798,-0.0142 0.46113,0.0552 0.34902,0.25933 -0.35874,0.65319 -0.072,3.62904 -5.88352,3.77419 -5.81151,0.14515 -12.91455,-1.23374 -15.06696,-0.50797 1.65018,-1.2338 4.08966,-1.95973 6.67257,-2.10489 2.5829,-0.14515 6.45695,-0.2179 9.47033,-0.65335 2.0717,-0.29938 3.73696,-0.73593 4.45856,-0.76731 z"
       id="path4540"
       inkscape:connector-curvature="0" />
    <path
       style="fill:#502d16;fill-opacity:0.54123709;stroke:none;stroke-width:0.28574085px;stroke-linecap:butt;stroke-linejoin:miter;stroke-opacity:1"
       d="m 154.79443,105.63676 c 1.43495,0.21773 2.15243,0 2.29592,-1.30637 0.14348,-1.30637 0.93271,-1.8144 1.79368,-1.08865 0.86096,0.72577 1.79368,1.01607 0.86096,1.2338 -0.93271,0.21773 -2.79813,2.90304 -4.95056,1.16122 z"
       id="path4548"
       inkscape:connector-curvature="0" />
    <path
       style="fill:#502d16;fill-opacity:0.54123709;stroke:none;stroke-width:0.28574085px;stroke-linecap:butt;stroke-linejoin:miter;stroke-opacity:1"
       d="m 166.77622,96.27444 c 0.71747,1.886988 -0.1435,1.378946 0.78922,2.90305 0.93271,1.5241 0.93271,2.46759 0.43048,3.3385 -0.50223,0.87091 -1.2197,1.59667 -0.28699,1.16122 0.93272,-0.43547 1.93717,2.32243 2.72639,1.01606 0.78922,-1.30637 -1.14795,-7.25761 -3.6591,-8.41883 z"
       id="path4550"
       inkscape:connector-curvature="0" />
    <path
       style="fill:#36302b;fill-opacity:0.54123709;stroke:none;stroke-width:0.28574085px;stroke-linecap:butt;stroke-linejoin:miter;stroke-opacity:1"
       d="m 168.70762,114.84125 c -0.0931,0.002 -0.18716,0.007 -0.28133,0.0129 0.57397,3.99169 -2.00854,6.74945 -2.08029,10.2331 -0.0577,2.79832 0.73587,6.63389 1.06151,8.08724 1.8938,-2.35579 2.82629,-5.37148 3.6018,-7.28907 0.49328,-1.21975 1.72094,-3.77876 3.08797,-6.72047 -0.59798,-2.40541 -2.77701,-4.36943 -5.38966,-4.3237 z"
       id="path4582"
       inkscape:connector-curvature="0" />
    <path
       style="display:inline;fill:#36302b;fill-opacity:0.54123709;stroke:none;stroke-width:0.28574085px;stroke-linecap:butt;stroke-linejoin:miter;stroke-opacity:1"
       d="m 154.22046,126.24837 c -0.78923,-1.45151 6.02676,-4.71745 7.74869,-2.68531 1.72194,2.03213 -3.58736,0.87091 -7.74869,2.68531 z"
       id="path4554"
       inkscape:connector-curvature="0" />
    <path
       style="display:inline;fill:#36302b;fill-opacity:0.54123709;stroke:none;stroke-width:0.28574085px;stroke-linecap:butt;stroke-linejoin:miter;stroke-opacity:1"
       d="m 148.83942,116.08772 c -2.65465,-0.21773 -6.74424,0.0726 -7.60521,2.68531 -0.86096,2.61275 -1.93717,7.18504 -5.09404,7.76565 -3.15688,0.58061 -14.4212,-11.5396 -14.77994,-10.08808 -0.35872,1.45152 17.72157,22.13572 21.02194,23.29694 3.30037,1.16121 20.80669,-3.41108 20.44795,-4.282 -0.35874,-0.87091 -15.71264,1.45153 -18.51078,-4.13684 -2.79814,-5.58836 -2.08067,-12.91854 4.52008,-15.24098 z"
       id="path4558"
       inkscape:connector-curvature="0" />
    <path
       style="display:inline;fill:#502d16;fill-opacity:0.35567011;stroke:none;stroke-width:0.28574085px;stroke-linecap:butt;stroke-linejoin:miter;stroke-opacity:1"
       d="m 112.24835,71.017959 c -2.29592,-1.741828 -6.45726,-4.790024 -6.95949,-3.048197 -0.50222,1.741825 0.21524,8.854285 0.64573,8.709133 0.43048,-0.145151 -0.1435,-8.128524 1.86543,-7.402764 2.00892,0.72576 4.30483,2.467589 4.44833,1.741828 z"
       id="path4562"
       inkscape:connector-curvature="0" />
    <path
       style="display:inline;fill:#502d16;fill-opacity:0.35567011;stroke:none;stroke-width:0.28574085px;stroke-linecap:butt;stroke-linejoin:miter;stroke-opacity:1"
       d="m 114.83124,75.29995 c -0.78922,-0.508034 -0.57398,-2.177285 -1.3632,-2.032133 -0.78921,0.145154 -6.17025,3.628807 -4.8788,6.241546 1.29144,2.612739 4.08959,2.177283 3.30037,1.596675 -0.78922,-0.58061 -1.21971,-3.048197 0.14349,-4.281991 1.3632,-1.233793 1.72193,-1.45152 2.79814,-1.524097 z"
       id="path4564"
       inkscape:connector-curvature="0" />
    <path
       style="display:inline;fill:#e7ae7e;fill-opacity:0.47938143;stroke:none;stroke-width:0.28574085px;stroke-linecap:butt;stroke-linejoin:miter;stroke-opacity:1"
       d="m 150.72113,85.550177 c 0.0507,-0.564512 -10.24805,-1.950127 -9.38559,-0.821102 0.86246,1.129014 3.65277,2.104073 5.68209,1.898794 2.02932,-0.205267 3.3991,-0.513179 3.7035,-1.077692 z"
       id="path4568"
       inkscape:connector-curvature="0" />
    <path
       style="display:inline;fill:#e7ae7e;fill-opacity:0.47938143;stroke:none;stroke-width:0.28574085px;stroke-linecap:butt;stroke-linejoin:miter;stroke-opacity:1"
       d="m 169.79671,84.62643 c -0.20293,-0.872424 3.24691,-3.079142 5.37769,-2.976504 2.13079,0.102645 1.72492,0.872426 1.62346,1.796168 -0.10147,0.923747 0.30439,2.052761 -0.40587,2.155395 -0.71026,0.102644 -5.63136,0 -6.59528,-0.975059 z"
       id="path4572"
       inkscape:connector-curvature="0" />
    <path
       style="fill:#321908;fill-opacity:0.15463915;stroke:none;stroke-width:0.28574085px;stroke-linecap:butt;stroke-linejoin:miter;stroke-opacity:1"
       d="m 144.39116,23.886156 c -1.33559,-0.01275 -2.69944,0.06609 -4.08954,0.247534 -6.56381,0.856727 -11.86479,2.876922 -16.09963,5.466521 12.72521,-1.866999 29.63814,-1.715573 35.6146,7.01684 6.45724,9.434894 8.75341,33.530092 7.31847,41.223159 -1.43494,7.693066 -2.43952,12.48293 -1.14808,17.998713 1.29146,5.515787 1.98327,7.518807 0.66421,9.161007 -1.31905,1.64222 -2.02924,0.41071 -2.02924,1.64237 0,1.23166 3.14552,-0.92382 4.36311,3.48962 1.21759,4.41344 -3.75422,13.13776 -3.5513,15.19052 0.14132,1.42956 0.70038,4.51927 0.68861,7.29357 3.70646,-5.27714 11.9311,-22.01213 13.20975,-31.84212 1.43496,-11.031567 0.28667,-17.708201 1.57811,-22.93368 1.29145,-5.225479 -0.28666,-24.530608 -1.57811,-28.885175 -1.21073,-4.082406 -14.90709,-24.877517 -34.94096,-25.068879 z"
       id="path4536"
       inkscape:connector-curvature="0" />
    <path
       style="fill:#d40000;stroke:none;stroke-width:0.28574085px;stroke-linecap:butt;stroke-linejoin:miter;stroke-opacity:1"
       d="m 108.3084,105.92384 c 0.81172,-2.66859 4.87036,-12.316573 5.88502,-9.853255 l 1.01465,2.463307 c 0,0 -2.23225,11.700748 0.81173,19.706518 3.04398,8.00578 19.18765,25.06335 28.94527,24.04728 9.75761,-1.01606 13.41672,-5.58835 14.34944,-5.58835 0.93271,0 3.44386,-0.72577 3.51561,-0.43546 0.0717,0.2903 -7.44157,20.56846 -8.05036,23.44234 -0.60879,2.87386 4.66744,15.60099 4.66744,24.22259 0,8.6216 2.84104,123.98685 -0.81174,127.06599 -3.65276,3.07914 -29.22216,-41.67107 -29.01923,-56.45096 0.20294,-14.77988 6.49382,-100.38008 5.68208,-103.45923 -0.81172,-3.07914 -22.72834,-24.63314 -24.75766,-32.0231 -2.02932,-7.38994 -2.23225,-10.67436 -2.23225,-13.13767 z"
       id="path4604"
       inkscape:connector-curvature="0"
       sodipodi:nodetypes="csccsscsscscsc" />
    <path
       style="fill:#483737;stroke:none;stroke-width:0.28574085px;stroke-linecap:butt;stroke-linejoin:miter;stroke-opacity:1"
       d="m 89.232816,259.47047 c -2.43518,28.73867 -5.68209,57.47734 -8.929,59.11955 -3.246908,1.64222 -55.603293,10.67438 -58.444337,5.33719 -2.841045,-5.33719 15.42281,-33.66531 23.540079,-70.61503 8.11727,-36.94972 43.833258,6.15829 43.833258,6.15829 z"
       id="path4638"
       inkscape:connector-curvature="0" />
  </g>
  <g
     inkscape:groupmode="layer"
     id="layer3"
     inkscape:label="Guitar">
    <path
       style="fill:#502d16;stroke:none;stroke-width:0.28574085px;stroke-linecap:butt;stroke-linejoin:miter;stroke-opacity:1"
       d="m 159.4472,228.57639 c 3.04397,14.67725 7.00114,29.35451 4.87035,29.76505 -2.13077,0.41056 -5.27622,-3.48969 -12.98763,2.87388 -7.7114,6.36356 -11.4164,11.60112 -9.99588,16.83566 1.42053,5.23455 9.73775,15.24022 5.53983,21.07854 -6.07607,8.45039 -31.69409,-0.41504 -54.971114,4.18753 -19.370357,3.83011 -78.3232,36.66246 -96.2826582,37.17563 -17.9594578,0.5132 -32.5093548,-11.12566 -34.8430698,-14.82062 -2.333717,-3.69498 -13.292027,-43.31329 -13.292027,-49.2663 0,-5.95302 211.962199,-47.82937 211.962199,-47.82937 z"
       id="path4640"
       inkscape:connector-curvature="0"
       sodipodi:nodetypes="ccsssssssc" />
    <path
       style="fill:#d38d5f;stroke:none;stroke-width:0.28574085px;stroke-linecap:butt;stroke-linejoin:miter;stroke-opacity:1"
       d="m 157.66432,214.5735 c -2.86989,-11.32188 -6.60074,-28.37726 -20.87843,-33.02212 -14.2777,-4.64488 -49.003344,9.43489 -61.846092,10.23323 -12.84275,0.79833 -51.442745,-10.81384 -71.3884662,-7.40278 -19.9457218,3.41109 -60.2676478,13.49917 -58.6892118,57.33514 1.578439,43.83597 9.614125,76.35007 44.483266,75.76946 34.869139,-0.58061 80.787348,-33.38501 98.86764,-36.43321 18.080294,-3.0482 48.357624,3.91911 49.649064,-9.14459 1.29145,-13.0637 -11.19256,-17.41827 -2.86988,-27.72407 8.32267,-10.30581 19.51523,-12.04764 19.51523,-12.04764 z"
       id="path4615"
       inkscape:connector-curvature="0" />
    <path
       style="fill:#502d16;stroke:none;stroke-width:0.28574085px;stroke-linecap:butt;stroke-linejoin:miter;stroke-opacity:1"
       d="m 120.64277,238.23331 -2.5829,-19.88585 192.99996,-28.74015 2.8699,13.35401 z"
       id="path4617"
       inkscape:connector-curvature="0" />
    <path
       style="fill:#552200;stroke:#000000;stroke-width:0.28574085px;stroke-linecap:butt;stroke-linejoin:miter;stroke-opacity:1"
       d="m 311.05983,189.17186 c 5.88328,0.87092 12.05353,-1.01606 13.63197,-2.61273 1.57844,-1.59669 1.72194,-1.74183 3.73087,-0.72577 2.0089,1.01606 15.06691,2.03213 19.94572,1.16122 4.87881,-0.87092 14.34943,-3.19335 14.63644,-2.32244 0.28697,0.87091 2.4394,3.91911 3.87433,5.08033 1.43496,1.16122 -2.1524,3.0482 -1.00446,5.37064 1.14796,2.32243 3.44386,3.3385 2.29591,4.64487 -1.14795,1.30636 -3.30039,5.08032 -3.01338,6.38669 0.287,1.30637 1.43495,2.7579 0.57397,2.7579 -0.86098,0 -20.3762,-1.16122 -26.97693,-0.72576 -6.60074,0.43545 -8.89668,1.01606 -9.61413,0.29029 -0.71747,-0.72575 -7.31821,-3.9191 -10.7621,-4.79001 -3.44385,-0.87092 -4.44831,-0.87092 -4.44831,-0.87092 z"
       id="path4619"
       inkscape:connector-curvature="0" />
    <path
       style="fill:#502d16;stroke:none;stroke-width:0.28574085px;stroke-linecap:butt;stroke-linejoin:miter;stroke-opacity:1"
       d="m 39.711921,231.99176 c 0.573979,9.58005 -0.573976,15.5313 0.717472,22.20829 1.29145,6.67701 4.017845,12.33795 4.017845,12.33795 l -14.062453,6.24154 c 0,0 2.29591,-5.51578 -0.286989,-9.87035 -2.582898,-4.35456 -10.76208,-8.99944 -9.614124,-21.04707 1.147955,-12.04764 7.461709,-15.24098 7.461709,-15.24098 z"
       id="path4621"
       inkscape:connector-curvature="0" />
    <path
       style="fill:#782121;stroke:none;stroke-width:0.28574085px;stroke-linecap:butt;stroke-linejoin:miter;stroke-opacity:1"
       d="m 67.549836,245.05546 c 0,0 -8.035686,3.77397 -12.771002,4.20942 -4.735317,0.43546 -12.34052,2.75789 -11.049069,8.70914 1.291448,5.95123 4.017842,15.09582 3.300371,19.01493 -0.717472,3.91912 -2.582898,7.54792 -2.582898,7.54792 0,0 8.035685,0.29031 16.501855,-4.35456 8.46617,-4.64487 20.519703,-13.20886 31.425273,-11.90248 10.905574,1.30636 21.524154,-1.74183 21.954644,-8.56399 0.43048,-6.82215 -0.43049,-10.3058 -0.43049,-10.3058 0,0 -17.649804,11.17671 -30.564304,7.11245 -12.914494,-4.06426 -15.78438,-11.46703 -15.78438,-11.46703 z"
       id="path4623"
       inkscape:connector-curvature="0" />
    <ellipse
       style="opacity:1;fill:#2b1405;fill-opacity:1;stroke:none;stroke-width:0.094945;stroke-miterlimit:4;stroke-dasharray:none;stroke-opacity:1"
       id="path4625"
       cx="56.312691"
       cy="245.98976"
       rx="21.41581"
       ry="17.648506"
       transform="matrix(0.98652149,-0.16363174,0.16001156,0.98711514,0,0)" />
  </g>
  <g
     inkscape:groupmode="layer"
     id="layer4"
     inkscape:label="Hands">
    <path
       style="fill:#483737;stroke:none;stroke-width:0.28574085px;stroke-linecap:butt;stroke-linejoin:miter;stroke-opacity:1"
       d="m 27.440102,204.86699 c -0.608796,-1.95013 -13.494961,-10.67436 -17.249199,-12.21395 -3.7542362,-1.53957 -3.7542362,-1.53957 -3.7542362,-1.53957 0,0 -6.49381502,-6.46619 -9.943655,-6.56883 -3.449839,-0.10264 -39.7746178,11.5981 -40.5863458,17.24321 -0.811727,5.64509 -2.333714,7.18466 -2.232249,8.31368 0.101461,1.12902 3.551305,3.18178 11.770041,10.16117 8.218734,6.9794 8.218734,7.08203 8.218734,7.08203 0,0 15.727209,11.70076 20.1917068,13.54824 4.464499,1.84748 34.2954632,-33.46003 33.5852032,-36.02598 z"
       id="path4634"
       inkscape:connector-curvature="0" />
    <path
       style="fill:#ffbd91;stroke:none;stroke-width:0.28574085px;stroke-linecap:butt;stroke-linejoin:miter;stroke-opacity:1;fill-opacity:1"
       d="m 26.121045,204.04588 c 3.348372,1.3343 5.37769,3.18178 7.711406,2.56595 2.333713,-0.61583 19.177049,-5.33718 21.307832,-4.00288 2.130783,1.33429 17.350663,11.29019 18.16239,14.36933 0.811725,3.07915 2.536645,10.16117 1.927849,11.70076 -0.608793,1.53957 -4.667429,5.23453 -5.073292,4.82399 -0.405863,-0.41056 -0.710262,-1.53957 -0.710262,-0.51319 0,1.02638 -0.507328,2.15539 -1.826384,2.97649 -1.319057,0.82111 -3.246907,1.53958 -4.464499,0.71847 -1.21759,-0.8211 -2.130784,-2.87386 -2.130784,-1.23166 0,1.64222 0.202933,2.77123 -2.536646,4.41345 -2.739579,1.6422 -4.971827,0 -4.971827,-1.02638 0,-1.02638 0.101461,-1.74485 -1.116124,-2.97651 -1.21759,-1.23166 -4.870362,-5.33718 -7.102611,-4.20817 -2.232248,1.12903 3.145442,5.54246 3.65277,5.54246 0.507331,0 0.507331,0 0.507331,0 0,0 0.913192,-1.95012 1.927851,-0.41055 1.014659,1.53958 1.927852,5.23454 1.927852,5.23454 -0.913192,2.87388 -3.957169,3.59235 -5.073293,3.59235 -1.116125,0 -8.117269,-5.13192 -9.842189,-6.46621 -1.72492,-1.33429 -1.319056,-2.46332 -3.043975,-2.56595 -1.72492,-0.10265 -7.812873,-0.92375 -11.668576,-2.97651 -3.855703,-2.05276 -2.638112,-3.90024 -7.508473,-5.23454 -4.870363,-1.3343 -14.2052222,-3.59234 -12.2773702,-5.95301 1.927851,-2.36068 15.2198782,-17.75641 22.2210242,-18.37223 z"
       id="path4628"
       inkscape:connector-curvature="0" />
    <path
       style="fill:#ffbd91;stroke:none;stroke-width:0.28574085px;stroke-linecap:butt;stroke-linejoin:miter;stroke-opacity:1;fill-opacity:1"
       d="m 227.93665,257.9309 c -1.42052,-3.38706 0,-4.61872 -0.50733,-6.56884 -0.50732,-1.95013 -3.65277,-6.77412 -3.8557,-11.80339 -0.20293,-5.02926 0.3044,-8.10842 -0.71026,-9.9559 -1.01467,-1.84748 -6.69675,-14.47197 -7.40701,-17.34584 -0.71026,-2.87387 -2.63811,-9.54535 1.11612,-9.54535 3.75424,0 6.18942,9.23744 7.00115,11.08492 0.81173,1.84749 4.4645,12.00866 5.68209,11.39284 1.21759,-0.61584 -0.20294,-5.85038 -1.52199,-8.21106 -1.31905,-2.36067 -3.24691,-5.95301 -3.8557,-8.31368 -0.6088,-2.36068 -5.47916,-8.10841 -5.27622,-11.39283 0.20292,-3.28442 4.05863,-4.41345 5.47916,-3.59234 1.42051,0.82111 1.42051,0.41055 3.44983,0.10264 2.02931,-0.30791 2.84104,0.10264 5.37769,2.87386 2.53665,2.77123 7.50848,7.49259 9.43632,10.4691 1.92786,2.9765 3.24691,6.4662 4.26157,5.64509 1.01466,-0.8211 1.72492,-1.23166 1.11613,-2.56595 -0.6088,-1.33429 -0.50733,-4.92663 -0.71026,-6.05565 -0.20294,-1.12902 -3.55131,-6.9794 -5.07329,-8.41632 -1.52199,-1.43694 -5.88503,-6.26093 -1.92786,-8.31369 3.95717,-2.05276 7.20408,1.74485 9.13192,4.72134 1.92786,2.97651 6.39236,6.1583 7.10262,8.92953 0.71026,2.77123 4.05863,17.75639 3.5513,20.52762 -0.50732,2.77123 -0.20293,10.26381 -2.73957,15.70364 -2.53665,5.43981 -2.63812,10.67436 -3.14544,13.03503 -0.50734,2.36068 -7.40701,15.80627 -13.49496,16.73002 -6.08796,0.92374 -12.48031,-9.13479 -12.48031,-9.13479 z"
       id="path4630"
       inkscape:connector-curvature="0" />
  </g>
</svg>
