<?xml version="1.0" encoding="UTF-8" standalone="no"?>
<!-- Created with Inkscape (http://www.inkscape.org/) -->

<svg
   xmlns:dc="http://purl.org/dc/elements/1.1/"
   xmlns:cc="http://creativecommons.org/ns#"
   xmlns:rdf="http://www.w3.org/1999/02/22-rdf-syntax-ns#"
   xmlns:svg="http://www.w3.org/2000/svg"
   xmlns="http://www.w3.org/2000/svg"
   xmlns:sodipodi="http://sodipodi.sourceforge.net/DTD/sodipodi-0.dtd"
   xmlns:inkscape="http://www.inkscape.org/namespaces/inkscape"
   width="1000"
   height="1000"
   id="svg4040"
   version="1.1"
   inkscape:version="0.91+devel r13925"
   sodipodi:docname="frank-zappa-extended.svg"
   inkscape:export-filename="/Users/agarone/Documents/git/art/frank-zappa/frank-zappa-extended-flipped.png"
   inkscape:export-xdpi="96"
   inkscape:export-ydpi="96">
  <defs
     id="defs4042" />
  <sodipodi:namedview
     id="base"
     pagecolor="#ffffff"
     bordercolor="#666666"
     borderopacity="1.0"
     inkscape:pageopacity="0.0"
     inkscape:pageshadow="2"
     inkscape:zoom="0.7"
     inkscape:cx="273.12204"
     inkscape:cy="375.11235"
     inkscape:document-units="px"
     inkscape:current-layer="svg4040"
     showgrid="false"
     showguides="true"
     inkscape:guide-bbox="true"
     inkscape:window-width="1920"
     inkscape:window-height="1151"
     inkscape:window-x="0"
     inkscape:window-y="1"
     inkscape:window-maximized="1">
    <sodipodi:guide
       orientation="1,0"
       position="0,0"
       id="guide4048" />
    <sodipodi:guide
       orientation="1,0"
       position="1000,1000"
       id="guide4050" />
    <sodipodi:guide
       orientation="0,1"
       position="1000,1000"
       id="guide4052" />
    <sodipodi:guide
       orientation="0,1"
       position="0,0"
       id="guide4054" />
  </sodipodi:namedview>
  <metadata
     id="metadata4045">
    <rdf:RDF>
      <cc:Work
         rdf:about="">
        <dc:format>image/svg+xml</dc:format>
        <dc:type
           rdf:resource="http://purl.org/dc/dcmitype/StillImage" />
        <dc:title />
      </cc:Work>
    </rdf:RDF>
  </metadata>
  <g
     inkscape:groupmode="layer"
     id="layer14"
     inkscape:label="Neck"
     style="display:inline" />
  <g
     inkscape:groupmode="layer"
     id="layer13"
     inkscape:label="Face"
     style="display:inline" />
  <g
     inkscape:groupmode="layer"
     id="layer15"
     inkscape:label="Mustache"
     style="display:inline" />
  <g
     inkscape:groupmode="layer"
     id="layer19"
     inkscape:label="Eyes" />
  <g
     inkscape:groupmode="layer"
     id="layer16"
     inkscape:label="Brows" />
  <g
     inkscape:groupmode="layer"
     id="layer17"
     inkscape:label="Hair" />
  <g
     inkscape:groupmode="layer"
     id="layer18"
     inkscape:label="Nose" />
  <g
     id="g4179">
    <path
       sodipodi:nodetypes="csscscc"
       inkscape:connector-curvature="0"
       id="path4668"
       d="m 620.71429,663.57143 c 0,0 3.38731,157.58791 1.42857,174.28571 C 613.52067,911.35933 567.85714,1000 555,1000 c -12.85714,0 -356.42857,0 -356.42857,0 0,0 -46.42857,-140 -67.14286,-207.14286 -20.71428,-67.14285 -23.57143,-108.57143 -23.57143,-108.57143 z"
       style="display:inline;fill:#dfdfdf;fill-opacity:1;stroke:none" />
    <path
       inkscape:connector-curvature="0"
       id="path4665"
       d="m 332.85714,953.57143 c 0,0 41.42857,5 85,-18.57143 43.57143,-23.57143 122.85715,-80.71429 179.28572,-184.28571 56.42857,-103.57143 49.28571,-499.28572 49.28571,-499.28572 L 537.14286,0 97.857143,0 c 0,0 -35,393.57143 -27.142857,450.71429 7.857143,57.14285 12.857143,239.28571 72.142854,337.85714 59.28572,98.57143 91.42857,167.14286 190,165 z"
       style="display:inline;fill:#ffffff;fill-opacity:1;stroke:none" />
    <path
       sodipodi:nodetypes="csssssscsssssc"
       inkscape:connector-curvature="0"
       id="path4671"
       d="m 180.71429,801.42857 c 0,0 27.85714,-56.42857 55.71428,-60.71428 27.85714,-4.28572 37.85714,1.42857 50,-1.42858 12.14286,-2.85714 20.71429,-16.42857 36.42857,-15.71428 15.71429,0.71428 30,13.57143 41.42857,12.85714 11.42858,-0.71428 46.42858,-12.85714 60,-10.71428 13.57143,2.14285 22.14286,37.85714 37.14286,47.85714 15,10 57.14286,5 57.14286,5 0,0 17.14285,-70.71429 -7.14286,-103.57143 -22.79328,-30.83797 -107.03162,-68.09817 -163.83452,-62.12573 -5.38071,0.56575 -21.27089,10.28391 -28.14245,10.20695 -5.30503,-0.0594 -16.55325,-6.51631 -23.01294,-6.48086 -56.56241,0.31045 -133.26832,28.45318 -143.58152,61.97107 -11.42857,37.14286 -9.28571,59.28571 27.85715,122.85714 z"
       style="display:inline;fill:#000000;fill-opacity:1;stroke:none" />
    <path
       inkscape:connector-curvature="0"
       id="path4673"
       d="m 255.71429,761.42857 c 0,0 -12.14286,34.28572 -6.42858,55 5.71429,20.71429 6.42858,27.14286 16.42858,32.14286 10,5 50,5.71428 58.57142,5 8.57143,-0.71429 66.42858,-8.57143 70,-16.42857 3.57143,-7.85715 13.57143,-30 10,-50 -3.57142,-20 -9.28571,-37.85715 -9.28571,-37.85715 0,0 -35,10 -65.71429,13.57143 -30.71428,3.57143 -73.57142,-1.42857 -73.57142,-1.42857 z"
       style="display:inline;fill:#000000;fill-opacity:1;stroke:none" />
    <circle
       id="path4691"
       style="fill:#321a00;fill-rule:evenodd;stroke:none;stroke-width:1px;stroke-linecap:butt;stroke-linejoin:miter;stroke-opacity:1;fill-opacity:1"
       sodipodi:type="arc"
       sodipodi:ry="32.142857"
       sodipodi:rx="32.142857"
       sodipodi:cy="344.28571"
       sodipodi:cx="474.28571" />
    <circle
       transform="translate(-293.57143,13.571429)"
       style="fill:#321a00;fill-opacity:1;fill-rule:evenodd;stroke:none"
       id="path4693"
       sodipodi:type="arc"
       sodipodi:ry="32.142857"
       sodipodi:rx="32.142857"
       sodipodi:cy="344.28571"
       sodipodi:cx="474.28571" />
    <circle
       transform="matrix(0.42222221,0,0,0.42222221,274.03175,198.92063)"
       style="fill:#000000;fill-opacity:1;fill-rule:evenodd;stroke:none"
       id="path4695"
       sodipodi:type="arc"
       sodipodi:ry="32.142857"
       sodipodi:rx="32.142857"
       sodipodi:cy="344.28571"
       sodipodi:cx="474.28571" />
    <circle
       id="path4699"
       style="fill:#000000;fill-opacity:1;fill-rule:evenodd;stroke:none"
       transform="matrix(0.42222221,0,0,0.42222221,-19.96825,211.77777)"
       sodipodi:type="arc"
       sodipodi:ry="32.142857"
       sodipodi:rx="32.142857"
       sodipodi:cy="344.28571"
       sodipodi:cx="474.28571" />
    <path
       inkscape:connector-curvature="0"
       id="path4703"
       d="m 241.07143,376.78571 c 0,0 5,-3.21428 3.21428,-5.35714 C 242.5,369.28571 205,337.5 178.21429,336.42857 c -26.78572,-1.07143 -42.14286,18.21429 -41.78572,23.92857 0.35714,5.71429 5.71429,20.71429 5.71429,20.71429 0,0 -8.92857,-5.35715 -14.64286,-12.14286 -5.71429,-6.78571 17.5,-43.57143 51.42857,-37.85714 33.92857,5.71428 65.71429,26.07143 69.64286,33.92857 3.92857,7.85714 3.21428,7.5 -7.5,11.78571 z"
       style="fill:#000000;stroke:none;stroke-width:1px;stroke-linecap:butt;stroke-linejoin:miter;stroke-opacity:1;fill-opacity:1" />
    <path
       inkscape:connector-curvature="0"
       id="path4676"
       d="m 359.28571,337.85714 c 0,0 -9.28571,-12.14285 -3.57142,-30.71428 5.71428,-18.57143 92.14285,-60 133.57142,-60 41.42858,0 116.42858,50 119.28572,57.14285 2.85714,7.14286 2.14286,30 -4.28572,29.28572 -6.42857,-0.71429 -47.14285,-28.57143 -60,-26.42857 -12.85714,2.14285 -56.42857,5 -76.42857,10 -20,5 -60.71428,14.28571 -75.71428,23.57143 -15,9.28571 -22.85715,33.57142 -22.85715,20 0,-13.57143 17.85715,-48.57143 -10,-22.85715 z"
       style="fill:#000000;stroke:none;stroke-width:1px;stroke-linecap:butt;stroke-linejoin:miter;stroke-opacity:1;fill-opacity:1" />
    <path
       inkscape:connector-curvature="0"
       id="path4678"
       d="m 270.71429,379.28571 c 0,0 10.71428,-42.85714 1.42857,-55 -9.28572,-12.14285 -92.85715,-41.42857 -130,-37.14285 C 105,291.42857 63.571429,335 63.571429,335 l 8.571428,60.71429 c 0,0 22.142857,-8.57143 30.714283,-4.28572 8.57143,4.28572 29.28572,30 37.85715,31.42857 8.57142,1.42857 27.14285,2.85715 18.57142,-2.85714 -8.57142,-5.71429 -37.85714,-27.14286 -37.85714,-38.57143 0,-11.42857 20,-36.42857 55,-37.85714 35,-1.42857 69.28572,3.57143 94.28572,35.71428 z"
       style="fill:#000000;stroke:none;stroke-width:1px;stroke-linecap:butt;stroke-linejoin:miter;stroke-opacity:1;fill-opacity:1" />
    <path
       inkscape:connector-curvature="0"
       id="path4681"
       d="m 285,0 c 0,0 -65.71429,141.42857 -95.71429,181.42857 -30,40 -65,53.57143 -95.714281,125 C 62.857143,377.85714 72.142857,560.71429 90,635.71429 c 17.85714,75 89.28571,260 97.14286,312.14285 C 195,1000 198.57143,1000 198.57143,1000 L 0,1000 0,0 z"
       style="fill:#000000;stroke:none;stroke-width:1px;stroke-linecap:butt;stroke-linejoin:miter;stroke-opacity:1;fill-opacity:1" />
    <path
       sodipodi:nodetypes="csscsscsscscsssccsccsscc"
       inkscape:connector-curvature="0"
       id="path4683"
       d="m 292.14286,0 c 0,0 25,41.42857 28.57143,75.714285 3.57142,34.285715 -10,77.857145 12.14285,127.142855 22.14286,49.28572 88.57143,70.71429 88.57143,70.71429 0,0 -60,-30.71429 -64.28571,-63.57143 -4.28572,-32.85714 6.42857,36.42857 100.71428,32.85714 94.28572,-3.57143 130.71429,-29.28571 130.71429,-29.28571 0,0 25.71428,90.71428 -1.42857,132.85714 C 560,388.57143 550.71429,435 564.28571,492.85714 c 13.57143,57.85715 71.42858,90.71429 71.42858,90.71429 0,0 -71.42858,-44.28572 -70.71429,-116.42857 0.71429,-72.14286 57.14286,-137.85715 57.14286,-137.85715 0,0 -27.14286,54.28572 -20,102.14286 7.14285,47.85714 31.95468,119.9641 21.95468,182.10696 -10,62.14286 -3.38325,259.32161 -21.95468,301.46447 -18.57143,42.14286 -46.42857,85 -46.42857,85 l 411.42857,0 c 0,0 -67.85714,-61.42857 -62.85714,-147.14286 C 909.28572,767.14286 1000,525 1000,525 c 0,0 0,0 55.7143,-161.42857 C 1000,369.95279 965.71429,329.28571 944.28572,267.14286 922.85714,205 894.28572,102.85714 841.42857,51.42857 788.57143,0 762.14286,0 762.14286,0 Z"
       style="fill:#000000;fill-opacity:1;stroke:none" />
    <path
       inkscape:connector-curvature="0"
       id="path4686"
       d="m 267.85714,453.57143 c 0,0 -8.57143,64.28571 -15.71428,82.85714 -7.14286,18.57143 -5,43.57143 0,50 5,6.42857 27.14285,26.42857 39.28571,29.28572 12.14286,2.85714 -0.71428,-12.85715 -11.42857,-17.14286 -10.71429,-4.28572 -19.28571,-21.42857 -21.42857,-16.42857 -2.14286,5 9.28571,12.85714 9.28571,12.85714 0,0 -23.57143,-11.42857 -17.14285,-41.42857 6.42857,-30 17.14285,-71.42857 17.14285,-100 z"
       style="fill:#000000;stroke:none;stroke-width:1px;stroke-linecap:butt;stroke-linejoin:miter;stroke-opacity:1;fill-opacity:1" />
    <path
       inkscape:connector-curvature="0"
       id="path4688"
       d="m 383.57143,585.71429 c 0,0 -15,0 -22.85714,5.71428 -7.85715,5.71429 -17.14286,17.14286 -22.85715,22.14286 -5.71428,5 28.57143,-4.28572 45.71429,-27.85714 z"
       style="fill:#000000;stroke:none;stroke-width:1px;stroke-linecap:butt;stroke-linejoin:miter;stroke-opacity:1;fill-opacity:1" />
    <path
       inkscape:connector-curvature="0"
       id="path4701"
       d="m 392.85714,366.78571 c 0,0 56.78572,-41.42857 76.78572,-41.78571 20,-0.35714 49.28571,10.35714 52.85714,18.57143 3.57143,8.21428 -3.57143,18.57143 -3.57143,18.57143 0,0 21.42857,-2.5 15,-15.35715 -6.42857,-12.85714 -26.78571,-32.5 -63.21428,-32.14285 -36.42858,0.35714 -90.35715,55 -77.85715,52.14285 z"
       style="fill:#000000;stroke:none;stroke-width:1px;stroke-linecap:butt;stroke-linejoin:miter;stroke-opacity:1;fill-opacity:1" />
  </g>
</svg>
