<?xml version="1.0" encoding="UTF-8" standalone="no"?>
<svg
   xmlns:dc="http://purl.org/dc/elements/1.1/"
   xmlns:cc="http://creativecommons.org/ns#"
   xmlns:rdf="http://www.w3.org/1999/02/22-rdf-syntax-ns#"
   xmlns:svg="http://www.w3.org/2000/svg"
   xmlns="http://www.w3.org/2000/svg"
   xmlns:xlink="http://www.w3.org/1999/xlink"
   xmlns:sodipodi="http://sodipodi.sourceforge.net/DTD/sodipodi-0.dtd"
   xmlns:inkscape="http://www.inkscape.org/namespaces/inkscape"
   id="svg4070"
   version="1.1"
   inkscape:version="0.48.2 r9819"
   width="1000"
   height="1000"
   sodipodi:docname="avishai-optimized.svg">
  <metadata
     id="metadata4076">
    <rdf:RDF>
      <cc:Work
         rdf:about="">
        <dc:format>image/svg+xml</dc:format>
        <dc:type
           rdf:resource="http://purl.org/dc/dcmitype/StillImage" />
      </cc:Work>
    </rdf:RDF>
  </metadata>
  <defs
     id="defs4074">
    <linearGradient
       inkscape:collect="always"
       id="linearGradient6472">
      <stop
         offset="0"
         id="stop6474"
         style="stop-color:#e9ddd5;stop-opacity:1" />
      <stop
         offset="1"
         id="stop6476"
         style="stop-color:#e9ddd5;stop-opacity:0" />
    </linearGradient>
    <linearGradient
       inkscape:collect="always"
       id="linearGradient6464">
      <stop
         offset="0"
         id="stop6466"
         style="stop-color:#e3dedb;stop-opacity:1" />
      <stop
         offset="1"
         id="stop6468"
         style="stop-color:#e3dedb;stop-opacity:0" />
    </linearGradient>
    <linearGradient
       id="linearGradient6434">
      <stop
         offset="0"
         id="stop6436"
         style="stop-color:#ce9e62;stop-opacity:1" />
      <stop
         offset="1"
         id="stop6438"
         style="stop-color:#ce9e62;stop-opacity:0" />
    </linearGradient>
    <linearGradient
       id="linearGradient3927">
      <stop
         offset="0"
         id="stop3929"
         style="stop-color:#dba37d;stop-opacity:1" />
      <stop
         offset="1"
         id="stop3931"
         style="stop-color:#d99e76;stop-opacity:1" />
    </linearGradient>
    <linearGradient
       id="linearGradient3899">
      <stop
         offset="0"
         id="stop3901"
         style="stop-color:#deaa87;stop-opacity:1" />
      <stop
         offset="1"
         id="stop3903"
         style="stop-color:#b5815d;stop-opacity:1" />
    </linearGradient>
    <linearGradient
       inkscape:collect="always"
       xlink:href="#linearGradient3899"
       id="linearGradient3905"
       x1="317.15"
       y1="356.75"
       x2="312.95"
       y2="284.67"
       gradientUnits="userSpaceOnUse"
       gradientTransform="matrix(2.2631692,0,0,2.2631692,-295.37386,57.057102)" />
    <linearGradient
       inkscape:collect="always"
       xlink:href="#linearGradient3927"
       id="linearGradient3933"
       x1="308.89"
       y1="288.45"
       x2="309.98"
       y2="339.17"
       gradientUnits="userSpaceOnUse"
       gradientTransform="matrix(2.2631692,0,0,2.2631692,-295.37386,57.057102)" />
    <radialGradient
       inkscape:collect="always"
       xlink:href="#linearGradient6434"
       id="radialGradient6442"
       cx="281.36"
       cy="208.3"
       fx="281.36"
       fy="208.3"
       r="4.07"
       gradientTransform="matrix(1,0,0,1.014579,0,-3.0367388)"
       gradientUnits="userSpaceOnUse" />
    <radialGradient
       inkscape:collect="always"
       xlink:href="#linearGradient6434"
       id="radialGradient6448"
       gradientUnits="userSpaceOnUse"
       gradientTransform="matrix(1,0,0,1.014579,0,-3.0367388)"
       cx="281.36"
       cy="208.3"
       fx="281.36"
       fy="208.3"
       r="4.07" />
    <radialGradient
       inkscape:collect="always"
       xlink:href="#linearGradient6464"
       id="radialGradient6470"
       cx="280.06"
       cy="208.75"
       fx="280.06"
       fy="208.75"
       r="15.08"
       gradientTransform="matrix(3.3003464,-0.10254562,0.0380988,1.2261778,-593.79689,302.25254)"
       gradientUnits="userSpaceOnUse" />
    <radialGradient
       inkscape:collect="always"
       xlink:href="#linearGradient6472"
       id="radialGradient6478"
       cx="342.11"
       cy="209.89"
       fx="342.11"
       fy="209.89"
       r="12.95"
       gradientTransform="matrix(4.6950108,0.73607222,-0.33362701,2.128028,-1057.2953,-166.39252)"
       gradientUnits="userSpaceOnUse" />
  </defs>
  <sodipodi:namedview
     pagecolor="#ffffff"
     bordercolor="#666666"
     borderopacity="1"
     objecttolerance="10"
     gridtolerance="10"
     guidetolerance="10"
     inkscape:pageopacity="0"
     inkscape:pageshadow="2"
     inkscape:window-width="1920"
     inkscape:window-height="1152"
     id="namedview4072"
     showgrid="false"
     inkscape:zoom="0.56"
     inkscape:cx="-469.27143"
     inkscape:cy="430.13"
     inkscape:window-x="0"
     inkscape:window-y="0"
     inkscape:window-maximized="1"
     inkscape:current-layer="layer15"
     showguides="true"
     inkscape:guide-bbox="true"
     fit-margin-top="0"
     fit-margin-left="0"
     fit-margin-right="0"
     fit-margin-bottom="0" />
  <g
     inkscape:groupmode="layer"
     id="layer15"
     inkscape:label="BG"
     style="display:inline" />
  <g
     inkscape:groupmode="layer"
     id="layer14"
     inkscape:label="Jacket"
     transform="translate(-1.9967395e-8,-127.00001)"
     display="inline">
    <path
       d="m542.63 733.34c0 0 29.55 14.24 37.74 22.07 8.19 7.83 61.94 56.6 72.62 58.03 10.68 1.42 11.75 13.17 11.75 13.17 0 0 67.28 13.53 81.88 14.24 14.6 0.71 118.55 31.68 135.99 42.36 17.44 10.68 47.48 27.64 50.55 30.97C945.43 927.46 1000 1127 1000 1127l-999.19 0c0 0-3.99-117.43 5.7-132.71C23.02 968.22 122.56 906 161.72 890.69c39.16-15.31 97.54-93.98 102.88-93.98 5.34 0 278.03-63.37 278.03-63.37z"
       id="path3889"
       inkscape:connector-curvature="0"
       sodipodi:nodetypes="csscsssccsssc"
       fill="#525252" />
  </g>
  <g
     inkscape:groupmode="layer"
     id="layer13"
     inkscape:label="Undershirt"
     transform="translate(-1.9967395e-8,-127.00001)"
     display="inline">
    <path
       d="M401.66 954.06 549.04 936.62 511.31 1117.46 476.06 1121.02z"
       id="path3886"
       inkscape:connector-curvature="0"
       fill="#530f0f" />
  </g>
  <g
     inkscape:groupmode="layer"
     id="layer12"
     inkscape:label="Flannel shirt"
     transform="translate(-1.9967395e-8,-127.00001)"
     display="inline">
    <path
       d="m274.22 782.11c0 0-4.98 1.78-6.41 6.05-1.42 4.27-6.76 34.53 1.07 48.77 7.83 14.24 40.94 100.03 50.55 106.8 9.61 6.76 15.66 19.22 11.39 27.06-4.27 7.83 1.42 6.76 1.42 6.76 0 0 29.19 1.42 37.74 13.53C375.67 1006.03 397.03 1127 397.03 1127l178.35 0-12.82-31.26c0 0 27.41-33.46 29.19-45.92 1.78-12.46-0.36-50.55-17.09-70.13-16.73-19.58 33.46-62.65 32.75-71.55-0.71-8.9-33.11-143.47-58.38-156.28-25.28-12.82-13.88 209.32-13.88 209.32 0 0-12.1 21.72-11.39 33.46 0.71 11.75 6.41 27.77-7.48 44.5-13.88 16.73-23.14 69.42-20.65 77.25 2.49 7.83-45.61-140.57-79.03-154.5-4.27-1.78 17.44 1.78 0.71-19.58C400.59 920.95 379.95 929.85 355.38 905.64 330.82 881.44 274.22 782.11 274.22 782.11z"
       id="path3883"
       inkscape:connector-curvature="0"
       sodipodi:nodetypes="csssscccccsssscssssssc"
       fill="#87bfde" />
  </g>
  <g
     inkscape:groupmode="layer"
     id="layer11"
     inkscape:label="Neck"
     transform="translate(-1.9967395e-8,-127.00001)"
     display="inline">
    <path
       d="m261.4 718.04 19.22 92.2c0 0 49.84 79.39 66.93 88.29 17.09 8.9 24.21 35.96 55.53 39.16 31.33 3.2 12.1 23.14 12.1 23.14 0 0 107.15 3.56 120.68-21 13.53-24.56 18.8-158.85 11.75-236.38z"
       id="path3880"
       inkscape:connector-curvature="0"
       sodipodi:nodetypes="ccsscscc"
       style="fill:url(#linearGradient3905);stroke-opacity:0.27;stroke-width:2.26;stroke:#000" />
  </g>
  <g
     inkscape:groupmode="layer"
     id="layer31"
     inkscape:label="Neck detail"
     transform="translate(-1.9967395e-8,-127.00001)">
    <path
       d="m549.42 762.5c-1.47 8.59-10.66 54.71-26.44 82.69-16.6 29.41-39.78 40.7-39 49.22 1.51 16.61 17.12 61.42 17.12 61.42 0 0 23.26-6.71 33.73-15.61 10.07-8.56 18.63-107.23 14.6-177.72z"
       id="path7109"
       inkscape:connector-curvature="0"
       sodipodi:nodetypes="csscsc"
       style="fill-opacity:0.04;fill:#000" />
  </g>
  <g
     inkscape:groupmode="layer"
     id="layer2"
     inkscape:label="Face + Ears"
     transform="translate(-1.9967395e-8,-127.00001)"
     display="inline">
    <path
       d="m249.6 553.35c0 0-8.6-27.23-29.14-25.31-20.54 1.91-23.88 34.39-22.93 56.84 0.96 22.45 11.94 72.12 32.48 75.94 20.54 3.82 18.63-7.16 18.63-7.16 0 0 6.69 63.53 20.54 76.9 13.85 13.37 67.13 85.77 114.81 89.81 9.65 0.82 33.03 1.51 50.13 0.14 47.33-3.77 97.59-62.27 112.08-109.53 8.6-28.66 7.64-37.26 7.64-37.26 0 0 4.3 2.87 13.85 0.48 9.55-2.39 29.61-45.85 32-70.69 2.39-24.84-1.43-65.44-17.19-62.57-15.76 2.87-27.7 22.45-27.7 22.45 0 0 15.7-146.12 5.19-170-10.51-23.88-86.68-73.41-162.63-75.8-75.94-2.39-123.01 37.4-140.68 61.28-32 28.18-7.09 174.49-7.09 174.49z"
       id="path4084"
       inkscape:connector-curvature="0"
       sodipodi:nodetypes="cssscsssccssscssccc"
       style="fill:url(#linearGradient3933);stroke-width:2.26;stroke:#b48869" />
    <path
       d="m500.58 440.29c0 0-36-22.66-44.56-24.42-8.56-1.76-21.14 0.25-29.7-1.01-8.56-1.26-51.1-16.36-65.2-17.37-14.1-1.01-39.27 7.8-39.27 7.8 0 0 29.96-7.8 38.01-6.8 8.06 1.01 57.65 17.62 66.96 18.38 9.31 0.76 20.64-1.26 27.69 0 7.05 1.26 46.07 23.41 46.07 23.41z"
       id="path6364"
       inkscape:connector-curvature="0"
       style="fill-opacity:0.12;fill:#000" />
  </g>
  <g
     inkscape:groupmode="layer"
     id="layer1"
     inkscape:label="hair"
     transform="translate(-1.9967395e-8,-127.00001)"
     display="inline">
    <path
       d="m227.63 527.08c0 0-1.91-105.08 0.96-110.33 16.72-76.42 103.65-139.47 168.6-139.47 64.96 0 165.27 68.33 174.34 128.48 11.46 62.09 6.21 101.74 2.87 138.51-6.69 2.87-19.81 20.16-19.81 20.16 0 0-1.04-43.47 2.33-92.57 2.87-41.87-19.25-84.79-30.99-98.47-21.33-24.84-47.53-36.21-114.88-35.73-67.35 0.48-130.5-7.87-150.08 55.17-19.58 63.05-2.28 151.91-10.88 160.03 0 0-7.16-20.06-22.45-25.79z"
       id="path4081"
       inkscape:connector-curvature="0"
       sodipodi:nodetypes="ccscccsssscc"
       fill="#84634f" />
  </g>
  <g
     inkscape:groupmode="layer"
     id="layer10"
     inkscape:label="Forehead"
     transform="translate(-1.9967395e-8,-127.00001)"
     display="inline">
    <path
       d="m298.19 440.04c0 0 30.46-16.61 44.81-16.11 14.35 0.5 65.45 15.1 73.5 16.36 8.06 1.26 33.98 3.02 41.28 5.29 7.3 2.27 37 10.82 37 10.82 0 0-33.23-12.33-37.26-13.09-4.03-0.76-34.74-3.78-41.03-5.03-6.29-1.26-70.23-18.12-76.02-17.37-5.79 0.76-42.29 19.13-42.29 19.13z"
       id="path6362"
       inkscape:connector-curvature="0"
       sodipodi:nodetypes="cssscsssc"
       style="fill-opacity:0.12;fill:#000" />
  </g>
  <g
     inkscape:groupmode="layer"
     id="layer3"
     inkscape:label="Eyes"
     transform="translate(-1.9967395e-8,-127.00001)"
     display="inline">
    <path
       d="m371.4 529.38c0 0-11.46 8.6-28.18 10.12-16.72 1.52-37.73-4.05-37.73-4.05 0 0 17.19-15.68 35.34-16.19 18.15-0.51 30.57 10.12 30.57 10.12z"
       id="path4087"
       inkscape:connector-curvature="0"
       style="fill:url(#radialGradient6470);stroke-width:2.33;stroke:#9b6c31" />
    <path
       d="m450.69 534.25c0 0 10.51-16.24 31.05-12.42 20.54 3.82 25.31 20.06 25.31 20.06 0 0-13.85 1.91-28.18 0.48-14.33-1.43-28.18-8.12-28.18-8.12z"
       id="path4089"
       inkscape:connector-curvature="0"
       style="fill:url(#radialGradient6478);stroke-width:2.26;stroke:#9b6c31" />
  </g>
  <g
     inkscape:groupmode="layer"
     id="layer8"
     inkscape:label="Eye Detail"
     transform="translate(-1.9967395e-8,-127.00001)"
     display="inline">
    <path
       sodipodi:type="arc"
       id="path5736"
       sodipodi:cx="281.25"
       sodipodi:cy="209.63"
       sodipodi:rx="5.98"
       sodipodi:ry="5.03"
       d="m 287.23,209.63 c 0,2.778 -2.67734,5.03001 -5.98,5.03001 -3.30266,0 -5.98,-2.25201 -5.98,-5.03001 0,-2.77799 2.67734,-5.03 5.98,-5.03 3.30266,0 5.98,2.25201 5.98,5.03 z"
       transform="matrix(1.5782627,0,0,1.8034629,-102.74391,151.16413)"
       style="fill:#502d16;stroke-miterlimit:4;stroke-width:0.33;stroke:#3e2b14" />
    <path
       d="m303.41 535.82c0 0-1.42 10.5-14.24 6.94-12.82-3.56 2.85 3.74 14.24-6.94z"
       id="path5744"
       inkscape:connector-curvature="0"
       sodipodi:nodetypes="csc"
       style="fill-opacity:0.26;fill:#000" />
    <path
       d="m507.56 540.07c0 0 13.52 8.96 21.09 10.33 7.58 1.37-16.55 5.8-21.09-10.33z"
       id="path5746"
       inkscape:connector-curvature="0"
       sodipodi:nodetypes="csc"
       style="fill-opacity:0.26;fill:#000" />
    <path
       d="m380.3 532.21c0 0-29.9 25.63-58.38 23.5-28.48-2.14 54.82 10.68 58.38-23.5z"
       id="path5748"
       inkscape:connector-curvature="0"
       style="fill-opacity:0.26;fill:#000" />
    <path
       d="m462.89 512.27c0 0-33.46-4.27-33.46 9.26 0 13.53 7.12 37.74 12.1 44.14 4.98 6.41-9.26-39.87 21.36-53.4z"
       id="path5752"
       inkscape:connector-curvature="0"
       style="fill-opacity:0.12;fill:#000" />
    <path
       sodipodi:type="star"
       id="path6376"
       sodipodi:sides="50"
       sodipodi:cx="281.33"
       sodipodi:cy="208.3"
       sodipodi:r1="3.98"
       sodipodi:r2="0.08"
       sodipodi:arg1="-0.32"
       sodipodi:arg2="-0.26"
       inkscape:flatsided="false"
       inkscape:rounded="0"
       inkscape:randomized="0.02"
       d="m 285.13534,206.98042 -3.77052,1.26664 3.83289,-0.68339 -3.81373,0.71571 3.93679,-0.26359 -3.93605,0.30831 3.9648,0.18002 -3.96531,-0.15291 3.89705,0.75082 -3.91615,-0.70775 3.76039,1.16307 -3.79771,-1.25351 3.6612,1.66913 -3.54051,-1.61845 3.26803,2.13353 -3.32481,-2.08884 3.06771,2.36467 -3.1341,-2.41183 2.68357,2.86706 -2.60027,-2.82934 2.25212,3.15078 -2.26575,-3.1368 1.92737,3.41558 -2.01336,-3.48862 1.51184,3.67275 -1.45651,-3.62451 0.9391,3.84015 -1.03462,-3.88269 0.52329,3.95484 -0.46845,-3.94816 0.0221,3.93501 0.0327,-3.92958 -0.47938,3.95998 0.38357,-3.93522 -0.90461,3.85345 0.87212,-3.81743 -1.32101,3.52761 1.37658,-3.6179 -1.82612,3.54623 1.74002,-3.50446 -2.18771,3.20819 2.26148,-3.18512 -2.73518,2.82008 2.65911,-2.91896 -2.99784,2.6373 3.09906,-2.59008 -3.4125,2.0438 3.34694,-2.08845 -3.49981,1.68486 3.4611,-1.66889 -3.58299,1.19242 3.54545,-1.21217 -3.7586,0.84785 3.8988,-0.86641 -3.88245,0.33042 3.77701,-0.27693 -3.79717,-0.27949 3.90238,0.29575 -3.8315,-0.69124 3.69124,0.63441 -3.69468,-1.24893 3.72342,1.28352 -3.4908,-1.694 3.5293,1.64332 -3.26525,-2.07656 3.32203,2.03187 -2.99342,-2.39468 2.90078,2.43796 -2.68096,-2.80621 2.75686,2.78612 -2.24108,-3.17178 2.16718,3.22614 -1.82881,-3.52255 1.9148,3.45403 -1.42169,-3.55631 1.35761,3.58003 -0.84037,-3.80942 0.87281,3.83947 -0.44885,-3.97109 0.55321,3.9644 -0.10701,-3.96501 0.0523,3.97721 0.55367,-3.98998 -0.44928,3.86187 0.8197,-3.70662 -0.88332,3.70073 1.41115,-3.57036 -1.46656,3.63915 1.98794,-3.45013 -1.90185,3.40836 2.27771,-3.05262 -2.26394,3.12039 2.65011,-2.8462 -2.73325,2.76826 2.99188,-2.4731 -2.92547,2.50324 3.31901,-2.12966 -3.26204,2.26003 3.41491,-1.71487 -3.3762,1.71652 z"
       inkscape:transform-center-x="-0.06"
       inkscape:transform-center-y="0"
       transform="matrix(2.2107659,0,0,2.1645827,-280.72206,78.214491)"
       style="fill-opacity:0.12;fill:#000;opacity:0.47;stroke-miterlimit:4;stroke-width:0.2;stroke:url(#radialGradient6442)" />
    <path
       transform="matrix(1.5782627,0,0,1.8034629,34.186368,153.47808)"
       d="m 287.23,209.63 c 0,2.778 -2.67734,5.03001 -5.98,5.03001 -3.30266,0 -5.98,-2.25201 -5.98,-5.03001 0,-2.77799 2.67734,-5.03 5.98,-5.03 3.30266,0 5.98,2.25201 5.98,5.03 z"
       sodipodi:ry="5.03"
       sodipodi:rx="5.98"
       sodipodi:cy="209.63"
       sodipodi:cx="281.25"
       id="path6444"
       sodipodi:type="arc"
       style="fill:#502d16;stroke-miterlimit:4;stroke-width:0.33;stroke:#3e2b14" />
    <path
       transform="matrix(2.2107659,0,0,2.1645827,-143.79179,80.528446)"
       inkscape:transform-center-y="0"
       inkscape:transform-center-x="-0.06"
       d="m 285.13534,206.98042 -3.77052,1.26664 3.83289,-0.68339 -3.81373,0.71571 3.93679,-0.26359 -3.93605,0.30831 3.9648,0.18002 -3.96531,-0.15291 3.89705,0.75082 -3.91615,-0.70775 3.76039,1.16307 -3.79771,-1.25351 3.6612,1.66913 -3.54051,-1.61845 3.26803,2.13353 -3.32481,-2.08884 3.06771,2.36467 -3.1341,-2.41183 2.68357,2.86706 -2.60027,-2.82934 2.25212,3.15078 -2.26575,-3.1368 1.92737,3.41558 -2.01336,-3.48862 1.51184,3.67275 -1.45651,-3.62451 0.9391,3.84015 -1.03462,-3.88269 0.52329,3.95484 -0.46845,-3.94816 0.0221,3.93501 0.0327,-3.92958 -0.47938,3.95998 0.38357,-3.93522 -0.90461,3.85345 0.87212,-3.81743 -1.32101,3.52761 1.37658,-3.6179 -1.82612,3.54623 1.74002,-3.50446 -2.18771,3.20819 2.26148,-3.18512 -2.73518,2.82008 2.65911,-2.91896 -2.99784,2.6373 3.09906,-2.59008 -3.4125,2.0438 3.34694,-2.08845 -3.49981,1.68486 3.4611,-1.66889 -3.58299,1.19242 3.54545,-1.21217 -3.7586,0.84785 3.8988,-0.86641 -3.88245,0.33042 3.77701,-0.27693 -3.79717,-0.27949 3.90238,0.29575 -3.8315,-0.69124 3.69124,0.63441 -3.69468,-1.24893 3.72342,1.28352 -3.4908,-1.694 3.5293,1.64332 -3.26525,-2.07656 3.32203,2.03187 -2.99342,-2.39468 2.90078,2.43796 -2.68096,-2.80621 2.75686,2.78612 -2.24108,-3.17178 2.16718,3.22614 -1.82881,-3.52255 1.9148,3.45403 -1.42169,-3.55631 1.35761,3.58003 -0.84037,-3.80942 0.87281,3.83947 -0.44885,-3.97109 0.55321,3.9644 -0.10701,-3.96501 0.0523,3.97721 0.55367,-3.98998 -0.44928,3.86187 0.8197,-3.70662 -0.88332,3.70073 1.41115,-3.57036 -1.46656,3.63915 1.98794,-3.45013 -1.90185,3.40836 2.27771,-3.05262 -2.26394,3.12039 2.65011,-2.8462 -2.73325,2.76826 2.99188,-2.4731 -2.92547,2.50324 3.31901,-2.12966 -3.26204,2.26003 3.41491,-1.71487 -3.3762,1.71652 z"
       inkscape:randomized="0.02"
       inkscape:rounded="0"
       inkscape:flatsided="false"
       sodipodi:arg2="-0.26"
       sodipodi:arg1="-0.32"
       sodipodi:r2="0.08"
       sodipodi:r1="3.98"
       sodipodi:cy="208.3"
       sodipodi:cx="281.33"
       sodipodi:sides="50"
       id="path6446"
       sodipodi:type="star"
       style="fill-opacity:0.12;fill:#000;opacity:0.47;stroke-miterlimit:4;stroke-width:0.2;stroke:url(#radialGradient6448)" />
  </g>
  <g
     inkscape:groupmode="layer"
     id="layer30"
     inkscape:label="Pupils"
     transform="translate(-1.9967395e-8,-127.00001)">
    <path
       sodipodi:type="arc"
       id="path6450"
       sodipodi:cx="281.09"
       sodipodi:cy="208.69"
       sodipodi:rx="1.81"
       sodipodi:ry="1.81"
       d="m 282.9,208.69 c 0,0.99964 -0.81037,1.81 -1.81,1.81 -0.99964,0 -1.81,-0.81036 -1.81,-1.81 0,-0.99963 0.81036,-1.81 1.81,-1.81 0.99963,0 1.81,0.81037 1.81,1.81 z"
       transform="matrix(2.2631692,0,0,2.2631692,-295.19586,56.701122)"
       style="fill-rule:evenodd;fill:#000" />
    <path
       transform="matrix(2.2631692,0,0,2.2631692,-158.26559,59.193075)"
       d="m 282.9,208.69 c 0,0.99964 -0.81037,1.81 -1.81,1.81 -0.99964,0 -1.81,-0.81036 -1.81,-1.81 0,-0.99963 0.81036,-1.81 1.81,-1.81 0.99963,0 1.81,0.81037 1.81,1.81 z"
       sodipodi:ry="1.81"
       sodipodi:rx="1.81"
       sodipodi:cy="208.69"
       sodipodi:cx="281.09"
       id="path6452"
       sodipodi:type="arc"
       style="fill-rule:evenodd;fill:#000" />
  </g>
  <g
     inkscape:groupmode="layer"
     id="layer4"
     inkscape:label="Nose"
     transform="translate(-1.9967395e-8,-127.00001)"
     display="inline">
    <path
       d="m407.71 640.56c0 0 2.14 24.21 0.36 26.34-1.78 2.14-8.9 8.9-11.75 1.42-1.65-4.33 1.59-20.28 5.1-25.42 2.55-3.74 6.29-2.34 6.29-2.34z"
       id="path3864"
       inkscape:connector-curvature="0"
       sodipodi:nodetypes="csssc"
       style="fill-opacity:0.13;fill:#000" />
    <path
       d="m491.02 702.09c0 0-1.01-16.11-5.03-25.42-4.03-9.31-29.2-53.62-29.2-53.62 0 0 2.27 8.56-0.25 11.33-2.52 2.77-16.61 3.02-16.61 3.02 0 0 16.11-1.51 15.61-12.33-0.5-10.82-15.1-23.41-15.1-23.41 0 0 20.37 19.19 24.6 16.6 4.53-2.77 36.32 71.5 26 83.84z"
       id="path6356"
       inkscape:connector-curvature="0"
       sodipodi:nodetypes="cscscscsc"
       style="fill-opacity:0.09;fill:#000" />
    <path
       d="m325.63 668.61c0 0 16.87-28.19 22.15-32.47 5.29-4.28 15.1-12.33 14.85-17.62-0.25-5.29 4.78-18.38 4.78-18.38 0 0-18.63 20.64-27.94 29.96-0.7 9.01-6.87 26.79-13.84 38.51z"
       id="path6358"
       inkscape:connector-curvature="0"
       sodipodi:nodetypes="cssccc"
       style="fill-opacity:0.09;fill:#000" />
  </g>
  <g
     inkscape:groupmode="layer"
     id="layer9"
     inkscape:label="Nostrils"
     transform="translate(-1.9967395e-8,-127.00001)"
     display="inline">
    <path
       d="m419.11 632.95c0 0 4.27-11.04 13.53-11.04 9.26 0 11.75 8.54 10.32 11.04-1.42 2.49-3.2-7.12-23.85 0z"
       id="path3856"
       inkscape:connector-curvature="0"
       style="fill-opacity:0.33;fill:#000" />
    <path
       d="m396.32 631.53c0 0-4.98-12.1-13.53-11.39-8.54 0.71-17.8 7.48-15.31 10.32 2.49 2.85 19.58-8.54 28.84 1.07z"
       id="path3858"
       inkscape:connector-curvature="0"
       style="fill-opacity:0.32;fill:#000" />
  </g>
  <g
     inkscape:groupmode="layer"
     id="layer5"
     inkscape:label="Mouth"
     transform="translate(-1.9967395e-8,-127.00001)"
     display="inline">
    <path
       d="m336.87 697.51c0 0 29.9-25.45 42.72-26.12 12.82-0.67 14.24 6.7 22.78 7.37 8.54 0.67 7.83-6.7 17.8-6.7 9.97 0 42.01 27.46 47.7 27.46-77.67 32.48-130.78-0.94-131.01-2.01z"
       id="path5750"
       inkscape:connector-curvature="0"
       sodipodi:nodetypes="cssscc"
       style="fill-opacity:0.28;fill:#bf8c3f" />
    <path
       d="m374.25 747.94c-2-5.7 20.66-25.99 29.09-25.63 8.42 0.36 33.21 12.82 33.21 16.73 0 3.92-55.2 13.88-62.3 8.9z"
       id="path6458"
       inkscape:connector-curvature="0"
       sodipodi:nodetypes="cssc"
       style="fill-opacity:0.04;fill:#000" />
  </g>
  <g
     inkscape:groupmode="layer"
     id="layer6"
     inkscape:label="Brows"
     transform="translate(-1.9967395e-8,-127.00001)"
     display="inline">
    <path
       d="m284.9 519.39c0 0 24.26-19.22 38.48-19.22 14.22 0 26.77 9.97 40.99 12.1 14.22 2.14 17.57-4.98 17.57-7.83 0-2.85-10.04-15.66-25.93-14.95-15.89 0.71-55.21-1.42-71.1 29.9z"
       id="path5218"
       inkscape:connector-curvature="0"
       style="fill-opacity:0.63;fill:#9b5e34" />
    <path
       d="m534.8 517.97c0 0-19.94-27.06-39.87-29.19-19.94-2.14-49.84 5.7-54.11 9.97-4.27 4.27 0 11.39 42.72 8.54 42.72-2.85 39.87 14.95 51.26 10.68z"
       id="path5220"
       inkscape:connector-curvature="0"
       style="fill-opacity:0.63;fill:#9b5e34" />
  </g>
  <g
     inkscape:groupmode="layer"
     id="layer7"
     inkscape:label="Ears"
     transform="translate(-1.9967395e-8,-127.00001)"
     display="inline">
    <path
       d="m560.79 584.54c0 0 11.75 2.14 16.38 3.56 4.63 1.42 12.46 29.9 5.34 33.11-7.12 3.2-7.48-7.12-12.82-2.85-5.34 4.27-4.27 10.68-8.54 11.04-4.27 0.36 8.9-14.95 7.83-21.36-1.07-6.41-12.46-18.51-8.19-23.5z"
       id="path3873"
       inkscape:connector-curvature="0"
       style="fill-opacity:0.16;fill:#000" />
    <path
       d="m240.04 613.37c0 0-8.19-5.7-7.83-14.24 0.36-8.54 11.39-18.16 9.61-23.85-1.78-5.7-22.78 6.05-23.14 15.66-0.36 9.61 0.36 20.65 9.61 17.8 9.26-2.85 3.2 5.7 11.75 4.63z"
       id="path3875"
       inkscape:connector-curvature="0"
       style="fill-opacity:0.16;fill:#000" />
    <path
       d="m248.58 578.13c0 0-2.14 56.25 1.42 61.59 3.56 5.34 10.32 12.46 13.17 11.39 2.85-1.07-10.32-67.99-14.6-72.98z"
       id="path3877"
       inkscape:connector-curvature="0"
       style="fill-opacity:0.16;fill:#000" />
    <path
       d="m536.94 606.97c0 0-2.14 32.04-4.27 37.02-2.14 4.98-17.8 30.62-19.22 49.13-1.42 18.51-2.85 32.75-2.85 32.75 0 0-7.83-66.93 1.42-79.74 9.26-12.82 22.07-29.9 24.92-39.16z"
       id="path3945"
       inkscape:connector-curvature="0"
       style="fill-opacity:0.07;fill:#000" />
    <path
       d="m565.24 577.95c0 0 9.26-25.1 17.98-23.14 8.72 1.96 11.21 22.25 11.21 31.33 0 9.08-3.74 36.13-3.74 36.13 0 0 0-25.63-4.98-30.97-4.98-5.34-5.52-25.45-5.52-25.45 0 0-5.87-5.7-14.95 12.1z"
       id="path6366"
       inkscape:connector-curvature="0"
       style="fill-opacity:0.12;fill:#000" />
    <path
       d="m233.1 551.96c0 0-3.56-16.38-16.73-12.64-13.17 3.74-13.88 38.09-13.17 44.5 0.71 6.41 0 25.28 2.49 29.9 2.49 4.63 6.23 9.26 6.23 9.26 0 0-3.68-63.43 4.45-71.55 6.41-6.41 9.97-6.76 16.73 0.53z"
       id="path6368"
       inkscape:connector-curvature="0"
       sodipodi:nodetypes="cssscsc"
       style="fill-opacity:0.12;fill:#000" />
  </g>
  <path
     d="m429.09 478.17c0 0 9.31 4.78 12.84 8.06 3.52 3.27 11.83 8.81 10.57 13.59-1.26 4.78 0 3.78 0 3.78 0 0 3.52-10.57-3.02-17.87-6.54-7.3-20.39-7.55-20.39-7.55z"
     id="path6360"
     inkscape:connector-curvature="0"
     sodipodi:nodetypes="csscsc"
     style="fill-opacity:0.21;fill:#fff" />
  <path
     d="m341.49 574.08c-2.77 4.03-8.31 8.56-9.31 5.03-1.01-3.52-3.02-13.34 1.01-14.85 4.03-1.51 7.8 1.76 12.33 2.01 4.53 0.25 24.67-0.5 29.96-0.5 5.29 0 19.89 2.52 25.93 2.52 6.04 0 24.67-0.76 28.95-0.5 4.28 0.25 23.41 2.52 26.43 2.27 3.02-0.25 11.33-1.76 12.33-0.5 1.01 1.26 1.51 6.54-1.51 6.54-3.02 0-7.55-3.78-11.08-4.03-3.52-0.25-26.93-2.77-32.72-2.01-5.79 0.76-16.11 0.25-22.15 0-6.04-0.25-22.15-2.52-27.44-2.27-5.29 0.25-38.26-0.76-32.72 6.29z"
     id="path6454"
     inkscape:connector-curvature="0"
     style="fill-opacity:0.07;fill:#000" />
  <path
     d="m514.68 460.8c0 0 14.1-16.36 12.08-20.64-2.01-4.28-9.06-12.33-9.06-12.33 0 0 22.15 0.76 18.63 11.58-3.52 10.82-11.33 20.14-21.65 21.4z"
     id="path6460"
     inkscape:connector-curvature="0"
     style="fill-opacity:0.04;fill:#000" />
  <path
     sodipodi:nodetypes="cccsc"
     inkscape:connector-curvature="0"
     id="path6462"
     d="m538.09 446.71c0 0-6.8 5.79-3.27 9.06 4.68 8.71-3.03 12.82-4.53 21.9 0 0 9.06-4.53 10.32-16.61 1.02-9.75-2.52-14.35-2.52-14.35z"
     style="fill-opacity:0.21;fill:#fff" />
  <path
     d="m429.09 709.26c0 0 7.55 13.59 4.53 17.62-3.02 4.03-32.72 4.53-35.24 10.57-2.52 6.04 9.57 31.21 18.63 33.23 9.06 2.01 43.3-11.08 46.32-30.71 3.02-19.63-11.08-35.24-20.14-35.24-9.06 0-14.1 4.53-14.1 4.53z"
     id="path7111"
     inkscape:connector-curvature="0"
     sodipodi:nodetypes="csssssc"
     style="fill-opacity:0.04;fill:#000" />
</svg>
