<?xml version="1.0" encoding="UTF-8" standalone="no"?>
<!-- Created with Inkscape (http://www.inkscape.org/) -->

<svg
   xmlns:dc="http://purl.org/dc/elements/1.1/"
   xmlns:cc="http://creativecommons.org/ns#"
   xmlns:rdf="http://www.w3.org/1999/02/22-rdf-syntax-ns#"
   xmlns:svg="http://www.w3.org/2000/svg"
   xmlns="http://www.w3.org/2000/svg"
   xmlns:sodipodi="http://sodipodi.sourceforge.net/DTD/sodipodi-0.dtd"
   xmlns:inkscape="http://www.inkscape.org/namespaces/inkscape"
   width="1000"
   height="1000"
   viewBox="0 0 264.58333 264.58334"
   id="svg4332"
   version="1.1"
   inkscape:version="0.91+devel r13925"
   sodipodi:docname="paul-hanson.svg">
  <defs
     id="defs4334" />
  <sodipodi:namedview
     id="base"
     pagecolor="#ffffff"
     bordercolor="#666666"
     borderopacity="1.0"
     inkscape:pageopacity="0.0"
     inkscape:pageshadow="2"
     inkscape:zoom="0.7"
     inkscape:cx="650.87387"
     inkscape:cy="407.72205"
     inkscape:document-units="px"
     inkscape:current-layer="layer1"
     showgrid="false"
     units="px"
     showguides="true"
     inkscape:guide-bbox="true"
     inkscape:window-width="1920"
     inkscape:window-height="1075"
     inkscape:window-x="0"
     inkscape:window-y="1"
     inkscape:window-maximized="1">
    <sodipodi:guide
       position="264.58333,0"
       orientation="1,0"
       id="guide4340"
       inkscape:label=""
       inkscape:color="rgb(0,0,255)" />
    <sodipodi:guide
       position="0,0"
       orientation="1,0"
       id="guide4342"
       inkscape:label=""
       inkscape:color="rgb(0,0,255)" />
    <sodipodi:guide
       position="0,0"
       orientation="0,1"
       id="guide4344"
       inkscape:label=""
       inkscape:color="rgb(0,0,255)" />
    <sodipodi:guide
       position="0,264.58333"
       orientation="0,1"
       id="guide4346"
       inkscape:label=""
       inkscape:color="rgb(0,0,255)" />
  </sodipodi:namedview>
  <metadata
     id="metadata4337">
    <rdf:RDF>
      <cc:Work
         rdf:about="">
        <dc:format>image/svg+xml</dc:format>
        <dc:type
           rdf:resource="http://purl.org/dc/dcmitype/StillImage" />
        <dc:title></dc:title>
      </cc:Work>
    </rdf:RDF>
  </metadata>
  <g
     inkscape:label="BG"
     inkscape:groupmode="layer"
     id="layer1"
     transform="translate(0,-32.41665)"
     style="display:none">
    <rect
       style="opacity:1;fill:#ffffff;fill-opacity:1;stroke:none;stroke-width:11.60810661;stroke-miterlimit:4;stroke-dasharray:none;stroke-opacity:1"
       id="rect5606"
       width="264.58334"
       height="264.58334"
       x="0"
       y="32.416653"
       inkscape:export-xdpi="96"
       inkscape:export-ydpi="96" />
  </g>
  <g
     inkscape:groupmode="layer"
     id="layer27"
     inkscape:label="Shirt"
     style="display:inline">
    <path
       style="fill:#000000;fill-opacity:1;fill-rule:evenodd;stroke:none;stroke-width:0.26458332px;stroke-linecap:butt;stroke-linejoin:miter;stroke-opacity:1"
       d="m 49.892857,255.5119 -3.023809,9.07143 13.985118,0 z"
       id="path6919"
       inkscape:connector-curvature="0" />
    <path
       style="fill:#161616;fill-opacity:1;fill-rule:evenodd;stroke:none;stroke-width:0.99999994px;stroke-linecap:butt;stroke-linejoin:miter;stroke-opacity:1"
       d="m 397.75977,343.79688 c -7.30504,-0.0157 -15.99695,0.22154 -17.22461,0.66796 -1.9643,0.71429 -9.46429,13.57143 -13.75,18.75 C 362.49944,368.39342 353.57227,385 353.57227,385 c 0,0 -4.64454,1.42828 -14.64454,4.64258 -10,3.21426 -41.78459,9.28684 -48.57031,12.67969 -6.78571,3.39288 -13.92885,9.10602 -20.35742,9.82031 -6.42857,0.71429 -30.71345,2.32085 -42.67773,6.78515 -11.9643,4.46427 -66.60853,61.42969 -76.78711,78.92969 -10.17857,17.50001 -41.25,93.2143 -46.25,103.75 -4.999997,10.53574 -26.427461,36.25058 -31.070316,41.96485 -4.642859,5.7143 -7.679688,29.1066 -7.679688,33.03515 0,3.92856 3.03711,4.64257 3.03711,7.14258 0,2.50001 -2.144237,9.8217 -1.78711,14.10742 0.357143,4.28572 3.572266,5.71318 3.572266,8.57031 0,2.85718 -1.072266,15.17913 -1.072266,20.71485 0,5.53572 5.179688,21.60716 5.179688,23.75 0,2.14288 -5.178851,8.57114 -6.607422,14.64258 -1.428571,6.07143 1.250559,16.42861 3.214844,20 1.964284,3.57142 29.999724,17.32145 35.892574,20 5.89285,2.67859 18.39175,21.9657 24.82032,30.53711 6.42858,8.57143 14.82253,20.17858 18.92968,21.25 4.10714,1.07142 21.25028,10.89176 27.85743,13.57031 10.69637,1.61875 21.52484,0.088 23.23437,7.83594 4.60064,20.85086 -21.1797,64.309 -23.51562,79.85546 0,4.54568 2.5254,16.1629 5.05078,19.19336 2.52538,3.03047 22.72851,22.22266 22.72851,22.22266 l 402.32227,0 c 0,0 1.60796,-8.92772 4.82226,-13.92773 3.2143,-4.99998 2.67903,-18.21596 2.85743,-32.14454 0.17858,-13.92858 -2.5014,-61.0714 -5.53711,-66.25 -3.03572,-5.17855 -13.39228,-11.0703 -15.53516,-13.57031 -2.14284,-2.5 0.7151,-0.35715 1.07227,-5 0.35716,-4.64285 6.96288,-13.21372 10.71289,-19.28515 C 610.53513,843.75083 610,818.92773 610,818.92773 c 0,0 2.85712,-0.35546 6.25,-0.35546 3.39284,0 5.17802,1.7857 8.03516,3.75 2.85717,1.96429 36.07253,0.53515 45.17968,0.53515 9.10715,0 21.07115,-12.14341 27.14258,-18.21484 6.07143,-6.07143 9.46402,-5.35605 14.64258,-8.57031 5.1786,-3.2143 4.82057,-6.42884 5.17773,-9.10743 0.35713,-2.67859 2.85741,-5.00054 7.85743,-9.46484 4.99997,-4.4643 12.32197,-28.03485 10.71484,-46.42773 -1.60713,-18.39285 -10.71509,-33.03714 -13.57227,-36.78711 -2.85713,-3.75001 -9.28515,-5.17774 -9.28515,-5.17774 0,0 -2.32031,-18.92941 -3.57031,-27.32226 -1.25001,-8.39286 -1.78656,-19.46428 -2.32227,-26.25 -0.53571,-6.78569 -10.00085,-35.89205 -11.07227,-41.42774 -1.07142,-5.53572 0,-13.21538 0,-18.92969 0,-5.71426 -18.74973,-60.71431 -22.14257,-66.25 -3.39285,-5.53572 -31.78544,-48.03569 -38.39258,-52.5 -6.60715,-4.4643 -52.32086,-20.17688 -54.28516,-21.60546 -1.96426,-1.42855 -10.53544,-14.10767 -14.64258,-18.21485 C 561.60771,412.50028 546.07143,400.53571 542.5,398.75 c -3.57143,-1.78571 -131.07145,-54.10686 -135,-54.64258 -1.47322,-0.20089 -5.35721,-0.30113 -9.74023,-0.31054 z M 218.9668,706.48828 c 0.69571,0.0328 1.81391,1.26205 2.25586,2.58789 0.50507,1.51521 0.3787,12.75374 -0.37891,19.57227 C 220.08614,735.46697 215,754.28516 215,754.28516 c 0,0 -1.8582,-1.77246 -2.36328,-3.03516 -0.50508,-1.2627 3.28388,-6.6919 3.41016,-8.58594 0.12627,-1.89403 -5.05177,-6.69317 -6.31446,-8.46094 -1.26269,-1.76779 3.41046,-3.53548 4.54688,-4.67187 1.13642,-1.13643 -1.38907,-2.14558 -2.9043,-3.78711 -1.51523,-1.64149 -0.63142,-7.32509 -0.37891,-10.73437 0.25254,-3.40925 7.06982,-8.08017 7.70118,-8.45899 0.0789,-0.0474 0.17014,-0.0672 0.26953,-0.0625 z"
       transform="scale(0.26458333)"
       id="path6799"
       inkscape:connector-curvature="0" />
    <path
       style="fill:#000000;fill-rule:evenodd;stroke:none;stroke-width:0.26458332px;stroke-linecap:butt;stroke-linejoin:miter;stroke-opacity:1;fill-opacity:1"
       d="m 87.798038,114.37786 c 0,0 4.14268,-7.34992 7.617183,-7.34992 3.474503,0 10.156239,8.55263 10.156239,8.55263 0,0 -4.94448,-2.93996 -8.953526,-2.93996 -4.009043,0 -8.819896,1.73725 -8.819896,1.73725 z"
       id="path6921"
       inkscape:connector-curvature="0" />
    <path
       style="fill:#000000;fill-rule:evenodd;stroke:none;stroke-width:0.26458332px;stroke-linecap:butt;stroke-linejoin:miter;stroke-opacity:1;fill-opacity:1"
       d="m 101.20312,91.989954 c -0.42522,0.708705 -0.99218,6.52009 -0.47247,9.543896 0.51972,3.02381 6.85082,14.55209 7.51228,17.33966 0.66146,2.78758 5.66964,10.81957 6.80357,11.90625 1.13393,1.08668 1.84264,1.46466 1.84264,1.46466 0,0 -0.94494,-0.94494 -1.18118,-1.88988 -0.23624,-0.94494 0.18899,-3.49628 0,-3.82701 -0.18899,-0.33073 -1.22842,-0.56697 -1.18118,-0.99219 0.0472,-0.42522 1.6064,-0.8032 1.51191,-3.02381 -0.0945,-2.22061 -4.25223,-8.6462 -4.8192,-9.63839 -0.56696,-0.99219 -1.13393,-3.63802 -1.65364,-4.8192 -0.51972,-1.18117 -4.016,-7.65402 -4.016,-9.071427 0,-1.41741 0.99219,-7.370535 0.47247,-7.512278 -0.51972,-0.14174 -4.15774,-0.519715 -4.8192,0.519719 z"
       id="path6923"
       inkscape:connector-curvature="0" />
    <path
       style="fill:#000000;fill-rule:evenodd;stroke:none;stroke-width:0.26458332px;stroke-linecap:butt;stroke-linejoin:miter;stroke-opacity:1;fill-opacity:1"
       d="m 88.065307,114.04377 c 0,0 -0.46772,-4.67722 0.200454,-6.28083 0.668173,-1.60362 5.144937,-5.7463 5.144937,-5.7463 0,0 -4.944486,4.27631 -5.679477,5.7463 -0.734992,1.46998 0.334086,6.28083 0.334086,6.28083 z"
       id="path6925"
       inkscape:connector-curvature="0" />
    <path
       style="fill:#000000;fill-rule:evenodd;stroke:none;stroke-width:0.26458332px;stroke-linecap:butt;stroke-linejoin:miter;stroke-opacity:1;fill-opacity:1"
       d="m 147.33233,116.58283 c 1.60361,-0.73499 6.08038,5.14494 6.08038,5.14494 0,0 -2.60588,-0.80181 -6.48129,-0.26727 -3.87541,0.53454 -9.28762,4.14268 -9.28762,4.14268 0,0 4.14268,-8.48581 9.68853,-9.02035 z"
       id="path6927"
       inkscape:connector-curvature="0" />
    <path
       style="fill:#000000;fill-rule:evenodd;stroke:none;stroke-width:0.26458332px;stroke-linecap:butt;stroke-linejoin:miter;stroke-opacity:1;fill-opacity:1"
       d="m 65.146946,157.54189 c 0.801809,0 2.338609,11.82667 2.204974,13.56392 -0.133633,1.73726 -3.541321,2.80633 -3.875408,4.40995 -0.334087,1.60362 1.202714,5.47903 0.534538,7.14946 -0.668174,1.67044 -4.209494,4.34313 -4.343128,6.01357 -0.133635,1.67043 1.603616,3.4745 1.603616,5.54584 0,2.07134 -1.135896,1.80407 -0.200451,3.27405 0.935442,1.46998 2.80633,-1.40317 3.875408,0.20045 1.069078,1.60362 -1.469983,4.81085 0.334087,6.5481 1.804069,1.73726 7.951268,7.01583 9.621702,7.55037 1.670434,0.53454 10.423512,7.684 10.557147,8.48581 0.133633,0.8018 -4.476765,-2.93997 -9.287615,-6.41447 -4.810853,-3.47451 -10.356697,-5.7463 -12.695304,-7.88445 -2.33861,-2.13816 -6.748555,-6.21402 -6.748555,-6.21402 0,0 1.670434,-4.74403 1.804069,-6.94901 0.133634,-2.20497 0.334087,-6.5481 -0.400904,-6.21401 -0.734991,0.33408 -2.071338,1.26953 -2.405425,2.47224 -0.334087,1.20271 0.668173,3.27405 0.534538,3.94223 -0.133636,0.66817 -1.269529,0.26726 -1.202714,1.00226 0.06682,0.73499 1.737254,1.73725 1.670436,2.27179 -0.06682,0.53454 -0.200454,2.47224 -0.935445,2.60587 -0.734991,0.13364 -2.071338,-0.93544 -3.80859,0 -1.737251,0.93545 -4.810852,5.67948 -5.545843,4.94449 -0.734989,-0.73499 5.011306,-7.684 4.677216,-9.42125 -0.334086,-1.73725 -1.804069,-4.54358 -6.080381,-6.1472 -4.276312,-1.60362 -9.755336,0.46772 -9.287616,-0.93544 0.467723,-1.40317 12.160763,0.20045 12.160763,-0.40091 0,-0.60135 -7.082642,-5.67948 -5.078119,-6.21401 2.004521,-0.53454 4.610399,-0.0668 4.343128,-0.66818 -0.267269,-0.60135 -19.510674,-4.81085 -17.439336,-5.67947 2.071339,-0.86863 15.30118,0.0668 18.708868,-0.0668 3.407685,-0.13364 9.955789,-0.46772 11.626222,-2.33861 1.670437,-1.87089 3.541324,-13.96483 5.078122,-14.43255 z"
       id="path6929"
       inkscape:connector-curvature="0" />
    <path
       style="fill:#000000;fill-rule:evenodd;stroke:none;stroke-width:0.26458332px;stroke-linecap:butt;stroke-linejoin:miter;stroke-opacity:1;fill-opacity:1"
       d="m 172.18839,178.65618 c 0,-1.20271 -2.00452,-5.21176 -1.5368,-8.21854 0.46772,-3.00678 2.00452,-5.87993 3.20724,-6.94901 1.20271,-1.06908 -3.80859,1.06908 -3.34087,-0.60135 0.46772,-1.67044 4.87767,-7.48355 4.00904,-9.02035 -0.86863,-1.5368 -3.00678,-2.13816 -2.93997,-4.81085 0.0668,-2.6727 -3.34086,0.0668 -4.81085,5.41221 -1.46998,5.34539 -3.60814,11.42577 -5.0113,14.03165 -1.40316,2.60587 0.4009,6.5481 -2.53906,8.28535 -2.93997,1.73725 -10.22306,4.94449 -10.35669,6.21402 -0.13364,1.26953 -0.33409,2.00452 0.60135,2.00452 0.93545,0 5.27857,-0.93544 7.2831,-0.40091 2.00452,0.53455 5.34539,2.20498 8.28535,1.67044 2.93997,-0.53454 5.34539,-1.67044 5.34539,-3.00678 0,-1.33635 -3.34087,-2.60588 -2.60588,-3.27405 0.735,-0.66818 2.07134,-0.33409 4.40995,-1.33635 z"
       id="path6931"
       inkscape:connector-curvature="0" />
  </g>
  <g
     inkscape:groupmode="layer"
     id="layer28"
     inkscape:label="Head"
     style="display:inline">
    <path
       style="fill:#d38d5f;fill-opacity:1;fill-rule:evenodd;stroke:none;stroke-width:0.26458332px;stroke-linecap:butt;stroke-linejoin:miter;stroke-opacity:1"
       d="m 121.04687,135.12648 c 0,0 -0.28348,-1.22842 1.13393,-2.45684 1.41741,-1.22842 3.02381,-2.36235 3.02381,-3.02381 0,-0.66146 0.47247,-1.88988 1.13393,-2.92931 0.66146,-1.03944 1.03943,-1.6064 1.03943,-2.55134 0,-0.94494 0.28349,-5.76414 0.94495,-6.3311 0.66145,-0.56697 1.83734,-0.6833 2.30506,-0.95057 0.46772,-0.26727 1.26953,-1.03567 1.26953,-1.03567 0,0 2.14389,-0.60611 2.77866,-0.94019 0.63476,-0.33409 3.61586,-2.318 4.46631,-2.97945 0.85045,-0.66146 3.49629,-5.76414 4.20499,-7.13431 0.70871,-1.37016 4.53571,-8.740692 5.00818,-10.347091 0.47247,-1.6064 2.38087,-9.440403 2.45684,-10.725074 0.0726,-1.227188 -0.14173,-2.126115 -0.14173,-3.071056 0,-0.944941 -0.13127,-1.289508 0.24671,-2.187202 0.37798,-0.897694 0.31117,-2.205381 0.31117,-2.583357 0,-0.377976 0.19807,-0.615604 0.52881,-1.796778 0.33073,-1.181176 1.79538,-6.283854 1.79538,-6.283854 l -4.48846,-11.244791 -27.16704,-2.882069 -18.37909,16.394718 c 0,0 -0.56697,0.377976 -1.08668,2.078868 -0.51972,1.700893 -0.94494,5.527903 0,8.268229 0.94494,2.740327 2.03162,5.008184 2.59858,5.575149 0.56697,0.566965 0.66146,0.803199 0.66146,0.803199 0,0 0.23624,6.803572 0.23624,7.795759 0,0.992188 -0.23624,4.488466 -0.18899,5.008185 0.0473,0.519715 2.4096,7.228795 3.44903,8.457215 1.03943,1.22842 0.85045,3.68527 2.12612,5.33892 1.27567,1.65364 4.39397,5.71689 4.53571,8.59895 0.14174,2.88207 -1.70089,3.49628 -1.22842,3.92151 0.47247,0.42522 1.08668,0.42522 1.08668,0.85044 0,0.42522 -0.23624,3.26005 0.0473,3.82701 0.28348,0.56696 3.44903,4.8192 5.29166,4.53571 z"
       id="path6805"
       inkscape:connector-curvature="0"
       sodipodi:nodetypes="csssscsccssssssssccccssscscsssssccc" />
    <path
       style="fill:#a05a2c;fill-opacity:1;fill-rule:evenodd;stroke:none;stroke-width:0.26458332px;stroke-linecap:butt;stroke-linejoin:miter;stroke-opacity:1"
       d="m 150.75478,83.45208 c -0.37798,0.283482 -2.63536,9.435568 -4.14727,12.128648 -1.5119,2.69308 -4.63021,8.126482 -5.48065,10.016372 -0.85045,1.88988 -2.78758,6.47284 -4.11049,6.18936 -1.32292,-0.28349 -1.41741,-0.66146 -1.41741,-0.66146 0,0 1.46466,-0.75595 1.46466,-1.41741 0,-0.66146 0.18898,-1.98438 -0.47248,-1.6064 -0.66145,0.37798 -1.13392,1.6064 -2.26785,1.65365 -1.13393,0.0472 -3.77976,-1.6064 -3.73252,-0.85045 0.0473,0.75595 3.02381,1.65364 2.92932,2.59858 -0.0945,0.94495 -5.6224,2.03163 -8.88244,0.99219 -3.26005,-1.03943 -8.40997,-4.53571 -8.7407,-3.77976 -0.33073,0.75595 4.39397,4.25223 4.53571,4.8192 0.14174,0.56696 0.14174,2.88207 0.75596,2.88207 0.61421,0 1.65364,-0.75596 3.30729,-1.27567 1.65364,-0.51972 5.29166,0.66145 7.0398,0.75595 1.74814,0.0945 7.1343,-2.64584 8.50447,-4.34673 1.37016,-1.70089 7.08705,-13.701635 7.70126,-15.449776 0.61421,-1.748139 3.67479,-11.183705 3.01334,-12.648364 z"
       id="path6807"
       inkscape:connector-curvature="0"
       sodipodi:nodetypes="cssscssccsssssssssc" />
    <path
       style="fill:#a05a2c;fill-opacity:1;fill-rule:evenodd;stroke:none;stroke-width:0.26458332px;stroke-linecap:butt;stroke-linejoin:miter;stroke-opacity:1"
       d="m 125.96056,76.965402 c 0,0 2.55134,0.850444 3.96875,1.08668 1.41741,0.236236 3.44904,-0.330729 3.54353,-0.992187 0.0945,-0.661458 -0.23623,-1.984375 -1.84263,-2.078868 -1.6064,-0.0945 -5.6224,0.566962 -7.03981,0.425222 -1.41741,-0.141743 -4.11049,-0.566965 -3.02381,-1.086681 1.08668,-0.519718 7.74851,-1.842635 10.15811,-1.511906 2.4096,0.33073 5.43341,1.41741 5.05543,2.267858 -0.37797,0.850445 -1.65364,1.322917 -2.26785,1.937128 -0.61422,0.614212 -1.13393,1.889879 -2.22062,1.889879 -1.08668,0 -7.08705,-1.086681 -6.3311,-1.937125 z"
       id="path6809"
       inkscape:connector-curvature="0" />
    <path
       style="fill:#a05a2c;fill-opacity:1;fill-rule:evenodd;stroke:none;stroke-width:0.26458332px;stroke-linecap:butt;stroke-linejoin:miter;stroke-opacity:1"
       d="m 146.82013,80.768787 c 0,0 -1.22843,0 -1.77177,-0.165365 -0.54334,-0.165364 -2.88207,-1.228423 -2.8112,-2.007999 0.0709,-0.779577 1.6064,-1.582775 2.66946,-1.535528 1.06306,0.04725 2.8112,1.724517 3.44903,1.724517 0.63784,0 2.45685,-0.377978 2.45685,-0.850448 0,-0.472469 -0.30711,-1.228423 -1.96075,-1.630021 -1.65365,-0.4016 -2.45685,-1.063059 -3.44904,-0.826823 -0.99218,0.236234 -3.68526,1.01581 -3.89788,1.464657 -0.21261,0.448847 -0.18898,1.724517 -0.0236,2.244233 0.16536,0.519718 1.70089,1.630024 2.85844,1.889881 1.15756,0.259858 2.66946,0.09449 2.48047,-0.307104 z"
       id="path6811"
       inkscape:connector-curvature="0" />
    <path
       style="fill:#a05a2c;fill-opacity:1;fill-rule:evenodd;stroke:none;stroke-width:0.26458332px;stroke-linecap:butt;stroke-linejoin:miter;stroke-opacity:1"
       d="m 133.89806,86.674663 c 0,0 -0.80319,0.496093 -0.68508,1.063058 0.11812,0.566965 0.37798,1.110306 0.77958,1.110306 0.4016,0 1.1103,0.04725 1.32291,-0.118118 0.21262,-0.165365 0.8977,-0.73233 1.67727,-0.708705 0.77958,0.02363 1.55916,0.472469 1.34654,0.661458 -0.21261,0.188989 -0.54334,0.04725 -0.33073,0.377976 0.21262,0.330729 0.8977,0.803201 1.25205,0.779576 0.35435,-0.02363 1.2048,-0.708705 1.48828,-0.708705 0.28349,0 0.35435,0.307105 0.59059,0.307105 0.23624,0 1.32292,-0.354351 1.48828,-0.637834 0.16537,-0.283482 0.4961,-1.063059 0.47247,-1.630024 -0.0236,-0.566962 -0.21261,-0.448844 -0.0945,-0.448844 0.11812,0 0.4016,0.519716 0.11812,1.393785 -0.28349,0.87407 -1.03944,2.102493 -1.65365,1.984375 -0.61421,-0.118118 -1.08668,-0.283482 -1.29929,-0.188986 -0.21262,0.09449 -0.21262,0.921316 -1.39379,0.708705 -1.18118,-0.212612 -1.25205,-1.157553 -1.72452,-1.346542 -0.47247,-0.188986 -1.44103,-0.212611 -2.03162,-0.14174 -0.59059,0.07087 -1.81901,0.283483 -2.05525,-0.188989 -0.23623,-0.472469 -0.44884,-1.181174 -0.33072,-1.535528 0.11811,-0.354351 0.77957,-0.897694 1.06305,-0.732329 z"
       id="path6813"
       inkscape:connector-curvature="0" />
    <path
       style="fill:#a05a2c;fill-opacity:1;fill-rule:evenodd;stroke:none;stroke-width:0.26458332px;stroke-linecap:butt;stroke-linejoin:miter;stroke-opacity:1"
       d="m 128.22842,95.368117 c 0.28348,-0.496094 1.86626,-0.921319 2.43322,-0.59059 0.56697,0.330729 0.14174,0.708708 0.56697,0.803201 0.42522,0.09449 1.63002,0.212611 2.62221,0.377976 0.99219,0.165364 2.00799,0.755951 2.66945,0.826823 0.66146,0.07087 2.9057,0.283482 3.2128,0.354353 0.30711,0.07087 2.55134,0.165365 2.62221,0.496094 0.0709,0.330729 -2.45684,0.07087 -3.47265,0.04725 -1.01582,-0.02363 -1.79539,-0.283483 -2.52772,-0.401601 -0.73233,-0.118118 -2.008,0 -2.95294,-0.259857 -0.94494,-0.259861 -1.18118,-0.637837 -1.98437,-0.803201 -0.8032,-0.165365 -1.48829,-0.09449 -2.1025,-0.188987 -0.61421,-0.0945 -1.37016,0.04725 -1.08668,-0.661458 z"
       id="path6815"
       inkscape:connector-curvature="0" />
    <path
       style="fill:#a05a2c;fill-opacity:1;fill-rule:evenodd;stroke:none;stroke-width:0.26458332px;stroke-linecap:butt;stroke-linejoin:miter;stroke-opacity:1"
       d="m 109.35323,81.902714 c -0.18898,-0.307104 -2.50409,-0.614211 -2.64583,-1.039434 -0.14174,-0.425222 -0.89769,-1.393788 -0.28348,-2.126117 0.61421,-0.732327 2.07887,-1.511904 1.96075,-2.102491 -0.11812,-0.590589 -1.41741,-0.968565 -2.10249,-0.448847 -0.68508,0.519716 -1.03944,1.511904 -0.94494,2.716702 0.0945,1.204802 0.21261,2.244236 1.03943,2.574965 0.82683,0.330729 2.83482,0.968563 2.97656,0.425222 z"
       id="path6817"
       inkscape:connector-curvature="0" />
    <path
       style="fill:#a05a2c;fill-opacity:1;fill-rule:evenodd;stroke:none;stroke-width:0.26458332px;stroke-linecap:butt;stroke-linejoin:miter;stroke-opacity:1"
       d="m 106.06957,72.051711 c 0,0 -1.2993,-0.803201 -2.05525,-0.472472 -0.75595,0.330729 -1.2048,2.976562 -1.13393,4.346726 0.0709,1.370166 0.44885,3.354541 0.44885,3.354541 0,0 -0.56696,-3.496281 0.16537,-5.457031 0.73232,-1.960753 2.78757,-1.27567 2.57496,-1.771764 z"
       id="path6819"
       inkscape:connector-curvature="0" />
  </g>
  <g
     inkscape:groupmode="layer"
     id="layer29"
     inkscape:label="Hair">
    <path
       style="fill:#432712;fill-rule:evenodd;stroke:none;stroke-width:0.26458332px;stroke-linecap:butt;stroke-linejoin:miter;stroke-opacity:1;fill-opacity:1"
       d="m 109.89658,74.744791 c 0.75595,0.377976 3.77976,0.09449 3.77976,-0.755952 0,-0.850447 -1.03944,-1.984375 0.0945,-3.307292 1.13393,-1.322916 5.00819,-2.834822 5.00819,-3.779763 0,-0.944941 -1.6064,-3.496278 0.0945,-5.480653 1.70089,-1.984375 5.19717,-1.889882 6.89807,-2.173364 1.70089,-0.283483 1.32291,-2.078869 3.30729,-2.078869 1.98437,0 8.12649,2.740327 10.29985,2.740327 2.17336,0 5.95312,-1.889882 7.08705,-1.889882 1.13393,0 3.87426,3.874257 4.15774,5.291667 0.28348,1.417413 1.70089,5.669642 1.5119,7.370537 -0.18898,1.700893 -1.41741,4.819195 -0.94494,5.38616 0.47248,0.566965 2.26786,-5.291666 2.92932,-5.858631 0.66146,-0.566965 2.17336,-1.984375 1.51191,-3.401785 -0.66146,-1.41741 0.18898,-4.157739 0.66145,-4.819198 0.47247,-0.661458 -1.13393,-4.063243 -2.17336,-4.819195 -1.03943,-0.755954 -1.6064,-3.874256 -1.13393,-4.630208 0.47247,-0.755954 0.47247,-2.267857 -0.56696,-3.96875 -1.03944,-1.700892 -7.74851,-7.087055 -9.6384,-7.654017 -1.88988,-0.566965 -3.77976,0.09449 -5.29166,-0.0945 -1.51191,-0.188987 -4.7247,-3.307292 -7.65402,-3.401785 -2.92931,-0.09449 -6.14211,0.566965 -7.9375,0.566965 -1.79539,0 -5.57515,-0.0945 -6.89806,1.322917 -1.32292,1.41741 -1.79539,5.102677 -2.74033,5.480653 -0.94494,0.377976 -5.29167,1.889882 -5.85863,3.401787 -0.56697,1.511904 -0.94494,5.953125 -1.51191,6.614584 -0.56696,0.661458 -2.45684,1.700892 -2.45684,3.023809 0,1.322916 0.56696,6.898066 0.47247,8.598958 -0.0945,1.700892 0.47247,4.441219 0.47247,4.441219 0,0 0.56696,-1.700892 1.88988,-1.606399 1.32291,0.0945 3.2128,3.496281 4.63021,5.480656 z"
       id="path6822"
       inkscape:connector-curvature="0" />
  </g>
  <g
     inkscape:groupmode="layer"
     id="layer30"
     inkscape:label="Bassoon"
     style="display:inline">
    <path
       style="fill:#501500;fill-opacity:1;fill-rule:evenodd;stroke:none;stroke-width:0.26458332px;stroke-linecap:butt;stroke-linejoin:miter;stroke-opacity:1"
       d="m 243.48254,14.55269 c -2.93997,-1.603617 -6.81538,-4.142678 -6.81538,-4.142678 0,0 0.40091,4.142678 -0.66817,6.147199 -1.06908,2.004522 -12.42803,16.169808 -18.17433,24.455163 -5.74629,8.285353 -12.82894,24.187891 -14.69982,26.459682 -1.87089,2.27179 -3.47451,3.340868 -6.81538,8.018084 -3.34086,4.677217 -39.82315,65.61467 -46.23762,75.37001 -6.41447,9.75534 -72.563677,113.72318 -72.563677,113.72318 l 10.958049,0 L 174.527,134.1558 c 0,0 7.88445,-11.09168 10.82442,-15.50163 2.93996,-4.40995 13.63074,-22.317006 15.23436,-24.321527 1.60361,-2.004523 5.61266,-7.082641 6.5481,-8.285355 0.93545,-1.202714 4.67722,-9.354434 7.48355,-13.49711 2.80633,-4.142679 11.49259,-15.234364 15.368,-21.114295 3.8754,-5.879928 15.63526,-28.731473 16.57071,-30.06782 0.93544,-1.336348 4.40994,-2.271791 4.40994,-2.271791 0,0 -5.61266,-3.474504 -7.48354,-4.543582 z"
       id="path6825"
       inkscape:connector-curvature="0" />
    <path
       transform="translate(0,-32.41665)"
       style="display:inline;fill:#5b1800;fill-opacity:1;fill-rule:evenodd;stroke:none;stroke-width:0.26458332px;stroke-linecap:butt;stroke-linejoin:miter;stroke-opacity:1"
       d="m 157.82265,154.94623 -92.074346,142.05375 14.165283,0 33.675963,-53.45391 c 0,0 3.60814,-3.74177 6.41447,-4.54358 2.24771,-0.6422 10.55714,-13.0962 14.29891,-19.77794 3.74178,-6.68174 9.75534,-16.03617 9.75534,-17.63979 0,-1.60362 -0.66817,-3.20723 0.93545,-6.68174 1.60361,-3.4745 20.98065,-35.68048 20.98065,-35.68048 z"
       id="path6827"
       inkscape:connector-curvature="0"
       sodipodi:nodetypes="ccccsssscc" />
    <path
       style="fill:#e9c6af;fill-rule:evenodd;stroke:none;stroke-width:0.26458332px;stroke-linecap:butt;stroke-linejoin:miter;stroke-opacity:1;fill-opacity:1"
       d="m 245.18638,12.013629 c -1.18601,-0.734991 -7.26639,-4.8776687 -7.78422,-4.8609645 -0.51784,0.016703 -1.06908,0.083522 -1.33635,0.434313 -0.26727,0.3507912 -0.31739,0.9855565 -0.11693,1.2194172 0.20045,0.233861 0.80181,0.5846522 0.80181,0.7015824 0,0.1169305 -0.11693,0.8519219 -0.0501,0.9855569 0.0668,0.133634 6.23072,3.95893 7.04924,4.409947 0.81851,0.451017 6.64833,4.19279 6.9156,4.176086 0.26726,-0.01671 0.8018,-0.417609 1.00226,-0.3842 0.20045,0.03341 1.01896,0.65147 1.23612,0.634765 0.21716,-0.0167 0.95215,-0.05011 1.28623,-0.668174 0.33409,-0.61806 0.51784,-1.152599 0.15034,-1.553504 -0.36749,-0.400904 -7.56707,-4.092564 -9.15398,-5.094825 z"
       id="path6915"
       inkscape:connector-curvature="0" />
  </g>
  <g
     inkscape:groupmode="layer"
     id="layer32"
     inkscape:label="Bassoon Metal">
    <path
       style="fill:#797979;fill-rule:evenodd;stroke:none;stroke-width:0.26458332px;stroke-linecap:butt;stroke-linejoin:miter;stroke-opacity:1;fill-opacity:1"
       d="m 161.49032,124.82663 c 1.55916,0.99219 4.25224,1.84264 4.25224,1.84264 0,0 5.38616,-7.98475 5.00818,-8.12649 -0.37797,-0.14174 -0.75595,-0.42522 -0.75595,-0.42522 0,0 2.97656,-3.87426 2.92932,-4.15774 -0.0473,-0.28348 -5.24442,-3.26004 -5.71689,-3.1183 -0.47248,0.14174 -2.74033,4.20498 -2.97657,4.20498 -0.23623,0 -1.93712,-1.13393 -2.17336,-0.99219 -0.23624,0.14174 -4.48847,6.66183 -4.44122,7.18155 0.0472,0.51972 2.97656,2.88207 3.87425,3.59077 z"
       id="path6909"
       inkscape:connector-curvature="0" />
    <path
       style="fill:#797979;fill-rule:evenodd;stroke:none;stroke-width:0.26458332px;stroke-linecap:butt;stroke-linejoin:miter;stroke-opacity:1;fill-opacity:1"
       d="m 101.81734,227.39992 c -1.79539,-0.85044 -4.960942,-3.35454 -5.48066,-3.9215 -0.519716,-0.56696 -1.41741,-2.83482 -1.795386,-2.55134 -0.377976,0.28348 -4.960938,6.89807 -4.960938,7.32329 0,0.42522 4.15774,4.86644 6.52009,6.28385 2.362351,1.41741 8.787944,3.82701 9.354914,3.82701 0.56696,0 5.38616,-7.37053 5.14992,-7.65401 -0.23623,-0.28349 -1.08668,0.0472 -2.07887,-0.0945 -0.99219,-0.14174 -5.5279,-2.64583 -6.70907,-3.2128 z"
       id="path6911"
       inkscape:connector-curvature="0" />
    <ellipse
       style="fill:#717171;fill-rule:evenodd;stroke:#575757;stroke-width:0.26458332px;stroke-linecap:butt;stroke-linejoin:miter;stroke-opacity:1;fill-opacity:1"
       id="path6897"
       cx="208.3739"
       cy="31.634613"
       rx="1.3697563"
       ry="1.7038432"
       transform="rotate(41.935156)" />
    <ellipse
       transform="rotate(41.935156)"
       ry="1.7038432"
       rx="1.3697563"
       cy="36.790619"
       cx="209.23338"
       id="ellipse6899"
       style="fill:#717171;fill-opacity:1;fill-rule:evenodd;stroke:#575757;stroke-width:0.26458332px;stroke-linecap:butt;stroke-linejoin:miter;stroke-opacity:1" />
    <ellipse
       style="fill:#717171;fill-opacity:1;fill-rule:evenodd;stroke:#575757;stroke-width:0.26458332px;stroke-linecap:butt;stroke-linejoin:miter;stroke-opacity:1"
       id="ellipse6901"
       cx="210.05832"
       cy="41.708202"
       rx="1.3697563"
       ry="1.7038432"
       transform="rotate(41.935156)" />
    <ellipse
       transform="rotate(41.935156)"
       ry="1.7038432"
       rx="1.3697563"
       cy="63.989967"
       cx="223.24896"
       id="ellipse6903"
       style="fill:#717171;fill-opacity:1;fill-rule:evenodd;stroke:#575757;stroke-width:0.26458332px;stroke-linecap:butt;stroke-linejoin:miter;stroke-opacity:1" />
    <ellipse
       style="fill:#717171;fill-opacity:1;fill-rule:evenodd;stroke:#575757;stroke-width:0.26458332px;stroke-linecap:butt;stroke-linejoin:miter;stroke-opacity:1"
       id="ellipse6905"
       cx="228.76779"
       cy="112.02599"
       rx="1.3697563"
       ry="1.7038432"
       transform="rotate(41.935156)" />
    <ellipse
       transform="rotate(41.935156)"
       ry="1.7038432"
       rx="1.3697563"
       cy="123.64209"
       cx="233.63434"
       id="ellipse6907"
       style="fill:#717171;fill-opacity:1;fill-rule:evenodd;stroke:#575757;stroke-width:0.26458332px;stroke-linecap:butt;stroke-linejoin:miter;stroke-opacity:1" />
    <path
       style="fill:none;fill-rule:evenodd;stroke:#989898;stroke-width:0.79375;stroke-linecap:round;stroke-linejoin:miter;stroke-opacity:1;stroke-miterlimit:4;stroke-dasharray:none"
       d="m 90.241815,222.81696 28.159225,-44.4122"
       id="path6853"
       inkscape:connector-curvature="0" />
    <path
       style="fill:none;fill-rule:evenodd;stroke:#989898;stroke-width:0.79375;stroke-linecap:round;stroke-linejoin:miter;stroke-opacity:1;stroke-miterlimit:4;stroke-dasharray:none"
       d="M 98.179315,216.20238 120.00744,182.468"
       id="path6855"
       inkscape:connector-curvature="0" />
    <path
       style="fill:none;fill-rule:evenodd;stroke:#989898;stroke-width:0.79375;stroke-linecap:round;stroke-linejoin:miter;stroke-opacity:1;stroke-miterlimit:4;stroke-dasharray:none"
       d="m 118.30655,180.57812 42.8058,-65.20089"
       id="path6857"
       inkscape:connector-curvature="0" />
    <path
       style="fill:none;fill-rule:evenodd;stroke:#989898;stroke-width:0.79375;stroke-linecap:round;stroke-linejoin:miter;stroke-opacity:1;stroke-miterlimit:4;stroke-dasharray:none"
       d="m 164.41964,111.88095 -5.95312,9.44941"
       id="path6859"
       inkscape:connector-curvature="0" />
    <path
       style="fill:none;fill-rule:evenodd;stroke:#989898;stroke-width:0.79375;stroke-linecap:round;stroke-linejoin:miter;stroke-opacity:1;stroke-miterlimit:4;stroke-dasharray:none"
       d="m 103.1875,212.98958 15.68601,-24.94643"
       id="path6861"
       inkscape:connector-curvature="0" />
    <path
       style="fill:none;fill-rule:evenodd;stroke:#989898;stroke-width:0.79375;stroke-linecap:round;stroke-linejoin:miter;stroke-opacity:1;stroke-miterlimit:4;stroke-dasharray:none"
       d="m 117.07812,196.8311 6.89807,-10.48884"
       id="path6863"
       inkscape:connector-curvature="0" />
    <path
       style="fill:none;fill-rule:evenodd;stroke:#989898;stroke-width:0.79375;stroke-linecap:round;stroke-linejoin:miter;stroke-opacity:1;stroke-miterlimit:4;stroke-dasharray:none"
       d="M 124.63765,182.94047 136.4494,164.60863"
       id="path6865"
       inkscape:connector-curvature="0" />
    <path
       style="fill:none;fill-rule:evenodd;stroke:#989898;stroke-width:0.79375;stroke-linecap:round;stroke-linejoin:miter;stroke-opacity:1;stroke-miterlimit:4;stroke-dasharray:none"
       d="m 128.22842,182.37351 8.31548,-12.94569"
       id="path6867"
       inkscape:connector-curvature="0" />
    <path
       style="fill:none;fill-rule:evenodd;stroke:#989898;stroke-width:0.79375;stroke-linecap:round;stroke-linejoin:miter;stroke-opacity:1;stroke-miterlimit:4;stroke-dasharray:none"
       d="m 124.63765,182.27902 c 0,0 2.45684,0.56696 2.83482,1.13393 0.37798,0.56696 2.45684,2.74032 2.45684,2.74032"
       id="path6869"
       inkscape:connector-curvature="0" />
    <path
       style="fill:none;fill-rule:evenodd;stroke:#989898;stroke-width:0.79375;stroke-linecap:round;stroke-linejoin:miter;stroke-opacity:1;stroke-miterlimit:4;stroke-dasharray:none"
       d="m 128.22842,182.27902 c 0,0 1.79539,0.28348 2.36235,1.13393 0.56697,0.85044 1.22843,1.79538 1.98438,1.88987 0.75595,0.0945 2.17336,0.28349 2.17336,0.28349"
       id="path6871"
       inkscape:connector-curvature="0" />
    <path
       style="fill:none;fill-rule:evenodd;stroke:#989898;stroke-width:0.79375;stroke-linecap:round;stroke-linejoin:miter;stroke-opacity:1;stroke-miterlimit:4;stroke-dasharray:none"
       d="m 129.45685,175.94791 c 0,0 -1.32292,-1.60639 -1.32292,-1.98437 0,-0.37798 0,-2.74033 0,-2.74033"
       id="path6873"
       inkscape:connector-curvature="0" />
    <path
       inkscape:connector-curvature="0"
       id="path6875"
       d="m 132.38617,171.88467 c 0,0 -1.32292,-1.60639 -1.32292,-1.98437 0,-0.37798 0,-2.74033 0,-2.74033"
       style="fill:none;fill-rule:evenodd;stroke:#989898;stroke-width:0.79375;stroke-linecap:round;stroke-linejoin:miter;stroke-opacity:1;stroke-miterlimit:4;stroke-dasharray:none" />
    <path
       style="fill:none;fill-rule:evenodd;stroke:#989898;stroke-width:0.79375;stroke-linecap:round;stroke-linejoin:miter;stroke-opacity:1;stroke-miterlimit:4;stroke-dasharray:none"
       d="m 135.032,167.53794 c 0,0 -1.32292,-1.60639 -1.32292,-1.98437 0,-0.37798 0,-2.74033 0,-2.74033"
       id="path6877"
       inkscape:connector-curvature="0" />
    <path
       style="fill:none;fill-rule:evenodd;stroke:#989898;stroke-width:0.79375;stroke-linecap:round;stroke-linejoin:miter;stroke-opacity:1;stroke-miterlimit:4;stroke-dasharray:none"
       d="m 133.4256,172.92411 c 0,0 1.41741,1.70089 2.17336,2.07886 0.75595,0.37798 2.74032,0.75596 2.74032,1.32292 0,0.56697 -0.0945,1.88988 -0.0945,1.88988"
       id="path6879"
       inkscape:connector-curvature="0" />
    <path
       style="fill:none;fill-rule:evenodd;stroke:#989898;stroke-width:0.79375;stroke-linecap:round;stroke-linejoin:miter;stroke-opacity:1;stroke-miterlimit:4;stroke-dasharray:none"
       d="m 118.30655,189.64955 c 0,0 0.94494,0.66146 1.88988,1.32292 0.94494,0.66146 3.40178,1.5119 4.06324,1.79539 0.66146,0.28348 2.64584,0.56696 2.64584,0.56696"
       id="path6881"
       inkscape:connector-curvature="0" />
    <path
       style="fill:none;fill-rule:evenodd;stroke:#989898;stroke-width:0.79375;stroke-linecap:round;stroke-linejoin:miter;stroke-opacity:1;stroke-miterlimit:4;stroke-dasharray:none"
       d="m 118.30655,194.37425 c 0,0 1.70089,1.13393 2.55134,1.41741 0.85044,0.28349 2.92931,1.03944 2.92931,1.03944"
       id="path6883"
       inkscape:connector-curvature="0" />
    <path
       style="fill:none;fill-rule:evenodd;stroke:#989898;stroke-width:0.79375;stroke-linecap:round;stroke-linejoin:miter;stroke-opacity:1;stroke-miterlimit:4;stroke-dasharray:none"
       d="M 97.234374,249.1808 86.84003,264.58333"
       id="path6885"
       inkscape:connector-curvature="0" />
    <path
       style="fill:none;fill-rule:evenodd;stroke:#989898;stroke-width:0.79375;stroke-linecap:round;stroke-linejoin:miter;stroke-opacity:1;stroke-miterlimit:4;stroke-dasharray:none"
       d="m 95.722468,254.47247 -6.898063,10.11086"
       id="path6887"
       inkscape:connector-curvature="0" />
    <path
       style="fill:none;fill-rule:evenodd;stroke:#989898;stroke-width:0.79375;stroke-linecap:round;stroke-linejoin:miter;stroke-opacity:1;stroke-miterlimit:4;stroke-dasharray:none"
       d="m 92.0372,261.08705 c 0,0 -3.968749,-1.98438 -5.102677,-2.36235 -1.13393,-0.37798 -3.590774,-3.77976 -3.590774,-3.77976"
       id="path6889"
       inkscape:connector-curvature="0" />
    <path
       style="fill:none;fill-rule:evenodd;stroke:#989898;stroke-width:0.79375;stroke-linecap:round;stroke-linejoin:miter;stroke-opacity:1;stroke-miterlimit:4;stroke-dasharray:none"
       d="m 93.265624,255.98437 -3.401785,-2.45684"
       id="path6891"
       inkscape:connector-curvature="0" />
    <path
       style="fill:none;fill-rule:evenodd;stroke:#989898;stroke-width:0.79375;stroke-linecap:round;stroke-linejoin:miter;stroke-opacity:1;stroke-miterlimit:4;stroke-dasharray:none"
       d="m 95.911457,251.16517 c 0,0 -2.173364,-0.94493 -2.929316,-1.32291 -0.755951,-0.37798 -2.078868,-1.41741 -2.078868,-1.41741"
       id="path6893"
       inkscape:connector-curvature="0" />
    <path
       style="fill:none;fill-rule:evenodd;stroke:#989898;stroke-width:0.79375;stroke-linecap:round;stroke-linejoin:miter;stroke-opacity:1;stroke-miterlimit:4;stroke-dasharray:none"
       d="m 89.580356,264.58333 c 0,0 -5.008184,-2.07887 -5.669642,-2.74033 -0.661458,-0.66145 -1.795388,-2.45684 -1.795388,-2.45684"
       id="path6895"
       inkscape:connector-curvature="0" />
    <path
       style="fill:#797979;fill-opacity:1;fill-rule:evenodd;stroke:none;stroke-width:0.26458332px;stroke-linecap:butt;stroke-linejoin:miter;stroke-opacity:1"
       d="m 194.84672,91.186756 c -1.27567,-0.897695 -5.54272,-3.96875 -5.87345,-3.638021 -0.33073,0.330729 -4.37915,6.567334 -4.37915,7.181545 0,0.614212 3.35454,3.449035 4.39397,4.015997 1.03944,0.566965 6.33111,3.212803 6.70908,2.929313 0.37798,-0.28348 4.77195,-6.142109 4.63021,-6.709074 -0.14174,-0.566965 -4.20499,-2.976562 -5.48066,-3.77976 z"
       id="path6913"
       inkscape:connector-curvature="0"
       sodipodi:nodetypes="cssscsc" />
    <path
       style="fill:#4f4f4f;fill-rule:evenodd;stroke:none;stroke-width:0.26458332px;stroke-linecap:butt;stroke-linejoin:miter;stroke-opacity:1;fill-opacity:1"
       d="m 168.67187,111.33761 c 0.61421,-0.89769 3.63802,-5.95313 3.87426,-6.85082 0.23624,-0.89769 1.08668,-7.559523 -2.33873,-8.126486 -3.42541,-0.566965 -6.40197,6.850816 -13.41815,6.945316 -7.01619,0.0945 -20.93044,-5.787764 -20.97768,-5.976753 -0.0472,-0.188987 0.18899,-0.472469 0.68508,-0.566965 0.49609,-0.09449 0.85045,-0.118115 1.22842,0.04725 0.37798,0.165365 13.11105,5.008188 16.22936,4.748318 3.1183,-0.25985 7.37053,-2.220602 13.13467,-6.189352 5.76413,-3.96875 10.15811,1.464656 9.1423,5.575152 -1.01582,4.11049 -3.49628,12.9693 -3.49628,12.9693 z"
       id="path6917"
       inkscape:connector-curvature="0" />
  </g>
  <g
     inkscape:groupmode="layer"
     id="layer31"
     inkscape:label="Hands">
    <path
       style="fill:#b5774e;fill-rule:evenodd;stroke:none;stroke-width:0.26458332px;stroke-linecap:butt;stroke-linejoin:miter;stroke-opacity:1;fill-opacity:1"
       d="m 63.075608,239.72726 c 0,0 1.737251,-8.15172 6.280835,-12.16076 4.543581,-4.00904 8.819893,-8.01808 10.022607,-8.28536 1.202711,-0.26726 2.405425,-0.26726 2.405425,-0.26726 0,0 3.741772,1.60361 3.741772,2.93996 0,1.33635 1.069078,7.21628 1.069078,7.21628 0,0 4.213455,4.46641 5.489125,6.2618 1.275667,1.79538 3.732514,5.10267 3.874254,5.76413 0.141742,0.66146 1.748142,4.48847 0.188989,5.6224 -1.559153,1.13393 -3.071056,0.37797 -4.204986,-0.51972 -1.133927,-0.89769 -3.874256,-5.05543 -4.488468,-5.71689 -0.614209,-0.66146 -3.543525,-1.84263 -3.543525,-1.84263 0,0 1.937128,3.77976 2.551337,5.00818 0.614212,1.22843 2.126118,4.77195 2.362354,5.57515 0.236233,0.8032 1.41741,4.67746 1.370163,5.43341 -0.04725,0.75595 -0.519718,1.41741 -1.370163,1.79539 -0.850448,0.37797 -2.882069,0.23623 -3.449034,-0.56697 -0.566965,-0.8032 -2.55134,-5.85863 -2.929316,-6.28385 -0.377976,-0.42522 -4.866442,-7.60677 -5.149924,-7.37054 -0.283483,0.23624 1.322916,4.7247 1.748139,5.76414 0.425222,1.03943 1.370163,2.88207 1.653646,3.87426 0.283482,0.99218 2.126115,5.48065 2.36235,6.37834 0.236236,0.8977 -0.09449,2.07887 -1.27567,2.55134 -1.181174,0.47247 -2.882066,0.23624 -3.307291,-0.8032 -0.425223,-1.03943 -2.315104,-5.76413 -2.882067,-6.52009 -0.566965,-0.75595 -2.929316,-4.34672 -3.118305,-5.4334 -0.188986,-1.08669 -1.181174,-3.77977 -1.464656,-3.73252 -0.283483,0.0472 0.661458,4.06324 0.661458,4.48847 0,0.42522 1.27567,2.17336 1.795386,3.16555 0.519718,0.99219 1.370163,3.2128 1.41741,4.06324 0.04725,0.85045 -0.661459,1.74814 -0.992188,1.93713 -0.330729,0.18899 -1.842632,0.42523 -2.551337,-0.28348 -0.708705,-0.70871 -2.267858,-3.16555 -2.69308,-4.016 -0.425225,-0.85044 -1.511906,-4.34672 -1.842635,-5.38616 -0.330729,-1.03943 -0.614212,-1.18118 -0.992188,-2.17336 -0.377975,-0.99219 -0.330729,-3.11831 -0.944941,-3.68527 -0.614211,-0.56696 -1.699228,-1.89814 -1.794554,-2.79171 z"
       id="path6838"
       inkscape:connector-curvature="0" />
    <path
       style="fill:#b5774e;fill-rule:evenodd;stroke:none;stroke-width:0.26458332px;stroke-linecap:butt;stroke-linejoin:miter;stroke-opacity:1;fill-opacity:1"
       d="m 147.26897,183.31845 c 0,0 -0.14174,-1.88988 -0.51972,-2.26786 -0.37797,-0.37797 -1.55915,-1.88988 -6.37834,-1.84263 -4.8192,0.0472 -6.4256,0.42522 -7.08706,0.7087 -0.66146,0.28349 -1.08668,1.51191 -1.08668,2.03163 0,0.51971 0.8977,1.79538 1.55915,1.93712 0.66146,0.14174 4.86645,0.42523 5.33892,0.66146 0.47247,0.23624 2.17336,0.85045 2.3151,1.22843 0.14174,0.37797 -0.14174,2.59858 -0.33073,3.07105 -0.18899,0.47247 -0.23623,0.8032 -0.61421,0.8032 -0.37798,0 -2.83482,0.18899 -3.73251,-0.0472 -0.8977,-0.23623 -4.29948,-0.80319 -5.00819,-0.7087 -0.70871,0.0945 -1.70089,0.56696 -1.98438,1.74814 -0.28347,1.18117 -0.23623,2.59858 0.23624,2.74033 0.47247,0.14174 5.33891,1.18117 5.95313,1.18117 0.61421,0 0.51971,1.79539 0,1.88988 -0.51972,0.0945 -3.82701,-0.23623 -4.67746,-0.23623 -0.85045,0 -5.05543,-1.22842 -6.3311,-1.18118 -1.27567,0.0473 -1.98437,1.13393 -2.22061,2.07887 -0.23624,0.94494 0,2.50409 0.56696,2.59859 0.56697,0.0945 4.9137,0.56696 5.05544,0.94494 0.14174,0.37797 -0.8977,0.7087 -0.94495,1.41741 -0.0472,0.7087 0.28349,1.65364 1.03944,2.03162 0.75595,0.37798 4.39397,2.4096 5.19717,2.45685 0.8032,0.0472 5.00819,0.47247 5.57515,0.23623 0.56697,-0.23623 2.64583,-0.47247 3.59077,-0.56696 0.94495,-0.0945 3.44904,-0.37798 4.25224,-1.18118 0.8032,-0.8032 3.30729,-3.49628 3.40178,-4.63021 0.0945,-1.13392 0.42522,-3.1183 0.37798,-4.25223 -0.0472,-1.13393 1.03943,-3.1183 1.13393,-4.016 0.0945,-0.89769 -0.99219,-3.87425 -1.03944,-4.20498 -0.0473,-0.33073 -1.03943,-2.12612 -1.55915,-2.45685 -0.51972,-0.33073 -0.8032,-1.6064 -2.07887,-2.17336 z"
       id="path6840"
       inkscape:connector-curvature="0" />
    <path
       style="fill:#d38d5f;fill-rule:evenodd;stroke:none;stroke-width:0.26458332px;stroke-linecap:butt;stroke-linejoin:miter;stroke-opacity:1;fill-opacity:1"
       d="m 145.89881,190.68899 c -0.23624,-0.23624 -4.7247,-0.56697 -5.71689,-0.56697 -0.99219,0 -3.30729,-0.14174 -4.11049,-0.28348 -0.8032,-0.14174 -4.34673,-0.75595 -4.67746,-0.61421 -0.33073,0.14174 -1.27567,0.75595 -1.32292,1.55915 -0.0472,0.8032 -0.28348,1.74814 0.0472,2.03162 0.33073,0.28348 5.10268,1.6064 6.99256,1.74814 1.88988,0.14174 5.90588,1.13393 6.61459,1.13393 0.7087,0 2.2206,0.0472 2.2206,-0.61421 0,-0.66146 0.61422,-3.16555 -0.0472,-4.39397 z"
       id="path6842"
       inkscape:connector-curvature="0" />
    <path
       style="fill:#d38d5f;fill-rule:evenodd;stroke:none;stroke-width:0.26458332px;stroke-linecap:butt;stroke-linejoin:miter;stroke-opacity:1;fill-opacity:1"
       d="m 146.7965,183.46019 c -0.0945,0.56696 -0.33073,1.18118 -1.03943,1.22842 -0.70871,0.0472 -5.66965,-1.08668 -6.80358,-1.03943 -1.13392,0.0472 -3.87425,0.0945 -4.6302,0 -0.75595,-0.0945 -1.6064,-1.13393 -1.6064,-1.6064 0,-0.47247 -0.0473,-1.46466 0.51972,-1.70089 0.56696,-0.23624 4.06324,-1.03944 6.66183,-0.89769 2.59858,0.14174 6.00037,0.85044 6.37834,1.32291 0.37798,0.47247 0.70871,0.99219 0.51972,2.69308 z"
       id="path6844"
       inkscape:connector-curvature="0" />
    <path
       style="fill:#d38d5f;fill-rule:evenodd;stroke:none;stroke-width:0.26458332px;stroke-linecap:butt;stroke-linejoin:miter;stroke-opacity:1;fill-opacity:1"
       d="m 140.55989,197.35082 c 0.47248,0.61421 0.37798,1.98437 0.33073,2.50409 -0.0472,0.51972 -0.75595,2.03162 -1.08668,2.07887 -0.33073,0.0472 -3.2128,0.28348 -4.86644,0.0472 -1.65365,-0.23623 -4.34673,-1.13393 -5.33891,-1.37016 -0.99219,-0.23623 -5.95313,-0.66146 -6.28386,-1.13393 -0.33073,-0.47247 -0.51972,-1.41741 -0.47247,-2.03162 0.0473,-0.61421 0.66146,-1.88988 1.18118,-2.03162 0.51971,-0.14174 4.25223,0.8032 6.04761,1.03943 1.79539,0.23624 5.95313,0.14174 7.18155,0.28349 1.22843,0.14173 2.26786,-0.23624 3.30729,0.61421 z"
       id="path6846"
       inkscape:connector-curvature="0" />
    <path
       style="fill:#d38d5f;fill-rule:evenodd;stroke:none;stroke-width:0.26458332px;stroke-linecap:butt;stroke-linejoin:miter;stroke-opacity:1;fill-opacity:1"
       d="m 140.27641,202.68973 c 0.23624,0.51972 0.61421,2.55134 0.33073,3.07106 -0.28348,0.51971 -1.41741,0.75595 -2.36235,0.75595 -0.94494,0 -3.35454,0.0945 -4.29948,-0.23624 -0.94494,-0.33073 -5.33891,-2.59858 -5.81138,-2.88207 -0.47247,-0.28348 -0.51972,-0.7087 -0.47247,-1.22842 0.0472,-0.51971 0.18899,-0.99219 0.89769,-0.99219 0.70871,0 4.86645,1.08669 6.28386,1.32292 1.4174,0.23624 4.6302,-0.51972 5.4334,0.18899 z"
       id="path6848"
       inkscape:connector-curvature="0" />
    <path
       style="fill:#d38d5f;fill-rule:evenodd;stroke:none;stroke-width:0.26458332px;stroke-linecap:butt;stroke-linejoin:miter;stroke-opacity:1"
       d="m 69.027902,240.29836 c 0.377975,-0.0472 1.700892,1.93713 2.69308,4.25223 0.992187,2.31511 1.842632,4.53572 2.598586,5.85863 0.755952,1.32292 2.504091,4.86645 3.118303,6.23661 0.614211,1.37016 1.181176,3.49628 1.606399,3.73251 0.425222,0.23624 1.464656,0.51972 2.315104,0.28349 0.850448,-0.23624 1.559152,-0.99219 1.464657,-1.46466 -0.09449,-0.47247 -2.220609,-6.94531 -2.929314,-8.40997 -0.708707,-1.46466 -1.795388,-3.73252 -2.078871,-4.8192 -0.283482,-1.08668 -2.315104,-6.37835 -2.031621,-6.66183 0.283482,-0.28348 4.015996,5.6224 4.771951,6.66183 0.755951,1.03944 2.83482,4.20499 3.165549,5.24442 0.330729,1.03944 1.748139,4.20499 2.173364,4.63021 0.425222,0.42522 1.795386,0.8032 2.456844,0.47247 0.661458,-0.33073 1.464659,-0.8032 1.464659,-1.5119 0,-0.70871 -2.456846,-8.31548 -2.929316,-9.30767 -0.472471,-0.99219 -2.882069,-5.38616 -3.260045,-6.14211 -0.377975,-0.75595 -3.023809,-4.11049 -2.456846,-5.05543 0.566965,-0.94494 2.598586,2.78757 3.732516,3.59077 1.133928,0.8032 3.354539,0.8032 3.543525,1.74814 0.18899,0.94494 1.984378,3.68527 3.023812,4.7247 1.039434,1.03944 2.83482,3.02381 3.732514,2.5041 0.897694,-0.51972 1.748139,-1.41741 0.425223,-4.48847 -1.322917,-3.07106 -3.638021,-6.18936 -5.57515,-8.50447 -1.937128,-2.3151 -7.465028,-8.55171 -7.087052,-9.49665 0.377976,-0.94494 1.511903,-2.36235 0.944941,-3.07105 -0.566965,-0.70871 -1.700892,-2.03163 -3.96875,-1.32292 -2.267857,0.7087 -4.015997,2.03162 -7.370537,5.14993 -3.354539,3.1183 -4.819195,5.10267 -6.898064,8.78794 -2.078871,3.68527 -2.126117,5.24442 -2.078871,6.04762 0.04725,0.8032 1.889882,2.17336 2.220611,3.16555 0.33073,0.99219 0.33073,2.64583 1.181177,4.016 0.850445,1.37016 0.614209,3.87425 2.078868,6.3311 1.464657,2.45685 2.740327,4.91369 4.063244,4.48847 1.322916,-0.42523 1.511905,-1.32292 0.09449,-4.48847 -1.41741,-3.16555 -2.83482,-4.8192 -2.976563,-6.56734 -0.14174,-1.74814 -1.700892,-5.90587 -1.22842,-6.61458 z"
       id="path6850"
       inkscape:connector-curvature="0" />
  </g>
</svg>
