<?xml version="1.0" encoding="UTF-8" standalone="no"?>
<!-- Created with Inkscape (http://www.inkscape.org/) -->

<svg
   xmlns:dc="http://purl.org/dc/elements/1.1/"
   xmlns:cc="http://creativecommons.org/ns#"
   xmlns:rdf="http://www.w3.org/1999/02/22-rdf-syntax-ns#"
   xmlns:svg="http://www.w3.org/2000/svg"
   xmlns="http://www.w3.org/2000/svg"
   xmlns:sodipodi="http://sodipodi.sourceforge.net/DTD/sodipodi-0.dtd"
   xmlns:inkscape="http://www.inkscape.org/namespaces/inkscape"
   width="1000"
   height="1000"
   viewBox="0 0 264.58333 264.58334"
   id="svg4332"
   version="1.1"
   inkscape:version="0.91+devel r13925"
   sodipodi:docname="paul-hanson.svg">
  <defs
     id="defs4334" />
  <sodipodi:namedview
     id="base"
     pagecolor="#ffffff"
     bordercolor="#666666"
     borderopacity="1.0"
     inkscape:pageopacity="0.0"
     inkscape:pageshadow="2"
     inkscape:zoom="0.7"
     inkscape:cx="510.72916"
     inkscape:cy="491.26197"
     inkscape:document-units="px"
     inkscape:current-layer="layer1"
     showgrid="false"
     units="px"
     showguides="true"
     inkscape:guide-bbox="true"
     inkscape:window-width="1920"
     inkscape:window-height="1075"
     inkscape:window-x="0"
     inkscape:window-y="1"
     inkscape:window-maximized="1">
    <sodipodi:guide
       position="264.58333,0"
       orientation="1,0"
       id="guide4340"
       inkscape:label=""
       inkscape:color="rgb(0,0,255)" />
    <sodipodi:guide
       position="0,0"
       orientation="1,0"
       id="guide4342"
       inkscape:label=""
       inkscape:color="rgb(0,0,255)" />
    <sodipodi:guide
       position="0,0"
       orientation="0,1"
       id="guide4344"
       inkscape:label=""
       inkscape:color="rgb(0,0,255)" />
    <sodipodi:guide
       position="0,264.58333"
       orientation="0,1"
       id="guide4346"
       inkscape:label=""
       inkscape:color="rgb(0,0,255)" />
  </sodipodi:namedview>
  <metadata
     id="metadata4337">
    <rdf:RDF>
      <cc:Work
         rdf:about="">
        <dc:format>image/svg+xml</dc:format>
        <dc:type
           rdf:resource="http://purl.org/dc/dcmitype/StillImage" />
        <dc:title></dc:title>
      </cc:Work>
    </rdf:RDF>
  </metadata>
  <g
     inkscape:label="BG"
     inkscape:groupmode="layer"
     id="layer1"
     transform="translate(0,-32.41665)"
     style="display:none">
    <rect
       style="opacity:1;fill:#ffffff;fill-opacity:1;stroke:none;stroke-width:11.60810661;stroke-miterlimit:4;stroke-dasharray:none;stroke-opacity:1"
       id="rect5606"
       width="264.58334"
       height="264.58334"
       x="0"
       y="32.416653" />
  </g>
  <g
     inkscape:groupmode="layer"
     id="layer2"
     inkscape:label="Head"
     style="display:inline">
    <path
       transform="translate(0,-32.41665)"
       style="fill:#b77d57;fill-opacity:1;fill-rule:evenodd;stroke:none;stroke-width:0.26458332px;stroke-linecap:butt;stroke-linejoin:miter;stroke-opacity:1"
       d="m 89.668926,134.23284 c 0,0 6.681737,-8.95353 7.216277,-10.55715 0.534538,-1.60361 0.935442,-7.88445 3.073599,-11.35895 2.138158,-3.4745 7.817628,-1.00226 7.817628,-1.00226 0,0 -2.47224,-3.87541 -2.13815,-7.88445 0.33409,-4.009046 3.40769,-9.955792 5.61266,-10.55715 2.20497,-0.601356 4.14268,-0.534538 5.34539,1.336349 1.20271,1.870885 4.00904,4.409946 4.87767,4.944486 0.86863,0.534538 4.67721,1.069075 4.67721,1.069075 0,0 4.00905,-5.545841 5.94675,-6.548101 1.93771,-1.00226 6.61492,-8.018087 9.48807,-9.020347 2.87315,-1.00226 16.50389,-2.806329 19.17659,-1.5368 2.67269,1.269531 8.658,7.072572 9.05891,9.010274 0.4009,1.937706 0.69643,10.767674 -0.37265,14.442624 -1.06908,3.67496 -1.06908,9.75534 -1.80407,12.02713 -0.73499,2.27179 -4.87767,4.14268 -4.87767,4.14268 0,0 1.67043,3.94223 1.26953,5.81311 -0.4009,1.87089 -4.07586,3.74177 -4.07586,3.74177 0,0 -0.20045,2.73952 -0.93544,4.54359 -0.73499,1.80407 -4.81085,7.41673 -4.81085,7.41673 0,0 -2.13816,4.00904 -3.40769,5.47902 -1.26953,1.46999 -5.27857,3.27405 -5.27857,3.27405 0,0 -2.73952,3.27405 -3.40769,3.74178 -0.66817,0.46772 -2.13816,1.13589 -2.13816,1.13589 0,0 -1.20271,1.87089 -2.87314,2.80633 -1.67044,0.93545 -4.00904,3.4745 -4.00904,3.4745 0,0 -4.67722,1.20272 -7.41674,1.93771 -2.73951,0.73499 -4.40994,-0.66817 -6.08038,1.26953 -1.67043,1.9377 -3.94222,8.28535 -3.94222,8.28535 0,0 1.00226,2.47225 1.00226,4.67722 0,2.20498 0.60135,8.01809 -1.06908,9.95579 -1.67044,1.93771 -6.68174,0.73499 -6.68174,0.73499 z"
       id="path4776"
       inkscape:connector-curvature="0"
       sodipodi:nodetypes="csscsssscsssssscscscscscscsscsscc" />
  </g>
  <g
     inkscape:groupmode="layer"
     id="layer12"
     inkscape:label="Shirt"
     style="display:inline">
    <path
       style="fill:#545041;fill-opacity:1;fill-rule:evenodd;stroke:none;stroke-width:0.26458332px;stroke-linecap:butt;stroke-linejoin:miter;stroke-opacity:1"
       d="m 78.844509,98.341687 c 0,0 10.557148,-7.483549 11.425772,-6.882191 0.868627,0.601356 15.568449,18.174324 16.169809,19.443854 0.60135,1.26953 3.4745,4.87767 2.13815,9.75534 -1.33634,4.87767 -3.74177,18.04069 -1.40316,27.19468 2.33861,9.15398 6.28083,10.82441 6.28083,10.82441 0,0 2.53906,-6.48129 2.33861,-7.75082 -0.20045,-1.26952 -0.66817,-1.60361 -0.53454,-2.20497 0.13364,-0.60135 1.20271,-2.07134 1.1359,-2.53906 -0.0668,-0.46772 -1.06908,-2.27179 -0.93545,-3.27405 0.13364,-1.00226 3.0736,-8.75308 3.94223,-8.88671 0.86863,-0.13364 6.61492,-0.60136 8.21854,-1.67044 1.60362,-1.06907 10.98654,-4.74321 10.98654,-4.74321 0,0 5.04963,5.01048 6.38598,5.81229 0.60134,1.60362 0.20045,6.1472 -2.6727,9.15398 -2.87314,3.00679 -3.20724,3.14042 -3.20724,3.14042 0,0 3.74178,2.73951 4.47677,4.6104 0.73499,1.87088 4.40995,6.1472 5.27857,8.15172 0.86863,2.00452 10.28988,12.09394 11.22533,22.45064 0.93544,10.35669 -0.20046,46.97262 -0.20046,46.97262 0,0 5.67948,2.67269 6.21402,4.67721 0.53454,2.00453 0.4009,6.81538 0.66817,7.2831 0.26727,0.46772 1.20272,0.93544 1.20272,1.9377 0,1.00226 -0.73499,2.40543 -0.40091,3.67496 0.33409,1.26953 1.93771,1.9377 1.87089,4.2095 -0.0668,2.27178 -0.60136,14.90027 -2.13816,14.90027 L 0,264.58333 0,130.01312 c 0,0 3.9422255,-4.34313 5.8799295,-7.81763 1.9377041,-3.4745 7.6839985,-13.43029 9.8889725,-14.69982 2.204974,-1.26953 13.697564,-9.755341 19.777945,-9.955792 6.080382,-0.200454 16.036171,0.133633 18.441596,-0.200454 2.405427,-0.334087 7.015826,1.269532 9.554887,1.269532 2.539061,0 6.080382,-0.400905 7.884451,-0.400905 1.804069,0 5.879928,0.400905 7.416728,0.133636 z"
       id="path4864"
       inkscape:connector-curvature="0"
       sodipodi:nodetypes="csssscsccscsccscssscssssssccssssssc" />
    <path
       style="display:inline;fill:#a7a28d;fill-opacity:1;fill-rule:evenodd;stroke:none;stroke-width:0.26458332px;stroke-linecap:butt;stroke-linejoin:miter;stroke-opacity:1"
       d="m 0,162.62425 c 0,0 3.5907739,-5.19717 7.4650297,-7.55952 3.8742563,-2.36235 9.1659223,-2.55134 12.3787203,-4.25223 3.212797,-1.70089 8.787947,-8.12649 13.701635,-16.44197 4.913691,-8.31547 5.10268,-16.44196 7.370538,-18.14285 2.267857,-1.7009 2.267857,2.45684 4.063243,3.68526 1.795386,1.22843 2.929316,1.41742 2.929316,1.41742 0,0 -2.267858,-1.98438 -6.709077,3.77976 -4.441221,5.76414 -9.260416,15.40253 -7.087055,18.23735 2.173365,2.83482 13.985118,-11.33929 13.985118,-11.33929 0,0 1.039437,6.23661 0.850448,10.01637 -0.188989,3.77976 -1.700892,7.74851 -0.661458,7.18155 1.039434,-0.56697 2.55134,-0.66146 2.55134,-2.36235 0,-1.70089 0.566962,-12.18973 1.133927,-10.39435 0.566965,1.79539 0.188989,10.11087 1.511906,11.81176 1.322917,1.70089 10.110861,-0.66146 9.260417,11.52827 -0.850448,12.18973 -6.52009,20.22173 -1.6064,27.97024 4.913691,7.74851 21.922618,15.875 25.985862,23.05655 4.063246,7.18154 26.9308,40.34895 26.9308,40.34895 0,0 -0.56696,4.34673 -0.56696,6.99257 0,2.64583 -0.37798,6.42559 -0.37798,6.42559 l 10.20536,0 c 0,0 -1.41741,-3.77976 -1.32292,-7.74851 0.0945,-3.96875 1.51191,-12.18973 1.51191,-12.18973 0,0 2.45684,4.44122 4.91369,3.40178 2.45685,-1.03943 6.70908,-10.29985 6.70908,-10.29985 0,0 0.0945,3.1183 1.41741,2.92932 1.32291,-0.18899 21.54464,-68.03572 21.54464,-68.03572 0,0 -4.63021,-10.48884 -5.76414,-11.71726 -1.13393,-1.22842 -1.98437,-4.15774 -3.02381,-5.19717 -1.03943,-1.03944 -4.81919,-4.34673 -5.29166,-5.29167 -0.47247,-0.94494 -4.25223,-5.00818 -4.25223,-5.00818 0,0 -3.68527,1.13393 -4.15774,1.13393 -0.47247,0 1.88988,7.08705 0.56696,8.88244 -1.32291,1.79538 -6.4256,2.92931 -6.4256,2.92931 0,0 0.66146,4.53572 -0.75595,5.95313 -1.41741,1.41741 -7.843,3.68526 -7.843,6.04762 0,2.36235 2.64583,3.77976 2.64583,3.77976 0,0 -7.18155,3.02381 -7.18155,4.34672 0,1.32292 4.44122,0.75596 6.61459,1.88988 2.17336,1.13393 11.62277,15.59152 11.62277,15.59152 0,0 -10.77233,11.1503 -11.2448,9.07143 -0.47247,-2.07887 -5.66964,-20.97768 -7.08705,-21.82812 -1.41741,-0.85045 -12.18973,9.26041 -15.49703,6.99256 -3.307287,-2.26786 -0.56696,-18.33185 -0.75595,-24.66295 -0.18898,-6.3311 -0.377973,-23.52902 -3.1183,-25.70238 -2.740329,-2.17337 -10.205357,-14.17411 -11.055804,-17.85938 -0.850445,-3.68526 -1.889879,-10.9613 -3.118303,-14.74107 -1.228423,-3.77976 -4.441222,-8.69345 -4.441222,-8.69345 0,0 -2.740326,-1.13393 -6.047618,-0.850447 -3.307291,0.283482 -7.465028,1.039434 -11.055802,0.661458 -3.590774,-0.377976 -6.992559,-2.551337 -11.433781,-1.322916 -4.441219,1.228423 -11.150298,-0.850445 -14.2686,0 -3.118303,0.850447 -9.071428,2.645833 -15.780506,7.370535 -6.709077,4.7247 -13.607143,16.63095 -14.9300597,18.70982 C 3.6852677,125.20461 0,129.92931 0,129.92931 Z"
       id="path5051"
       inkscape:connector-curvature="0" />
    <path
       style="display:inline;fill:#a7a28d;fill-opacity:1;fill-rule:evenodd;stroke:none;stroke-width:0.26458332px;stroke-linecap:butt;stroke-linejoin:miter;stroke-opacity:1"
       d="m 138.0558,146.37128 c 0,0 5.29167,-3.26005 6.52009,-6.85082 1.22842,-3.59077 0.75595,-5.85863 0.0945,-6.47284 -0.66146,-0.61422 -6.33111,-5.90588 -6.33111,-5.90588 l -2.88206,1.41741 c 0,0 3.1183,4.20498 4.11049,4.34673 0.99218,0.14174 1.88988,0.7087 1.88988,0.7087 0,0 -3.73252,-0.14174 -4.44122,0.61421 -0.70871,0.75595 -0.28348,1.74814 -0.28348,1.74814 0,0 5.33891,-0.8032 6.18935,-1.32291 0.85045,-0.51972 1.18118,-1.13393 1.18118,-1.13393 0,0 1.41741,3.63802 -0.28348,6.61458 -1.70089,2.97656 -5.5279,6.00037 -5.76414,6.23661 z"
       id="path5057"
       inkscape:connector-curvature="0" />
    <path
       style="display:inline;fill:#a7a28d;fill-opacity:1;fill-rule:evenodd;stroke:none;stroke-width:0.26458332px;stroke-linecap:butt;stroke-linejoin:miter;stroke-opacity:1"
       d="m 41.813614,242.66071 c 0,0 -5.008184,-2.74033 -5.905875,-3.96875 -0.897694,-1.22842 -3.874257,-4.44122 -5.953125,-5.85863 -2.078871,-1.41741 -4.677457,-4.67745 -5.858632,-4.58296 -1.181176,0.0945 -6.142113,7.32329 -6.425595,6.85082 -0.283482,-0.47247 3.63802,-6.80357 4.866443,-8.07924 1.228423,-1.27567 3.02381,-2.36236 2.22061,-2.59859 -0.803199,-0.23623 -6.236607,0.14174 -7.748512,-4.06324 -1.511904,-4.20499 -2.598586,-6.09487 -1.322916,-6.89807 1.275669,-0.8032 3.071056,-2.03162 1.74814,-3.2128 -1.322917,-1.18117 -6.52009,-1.03943 -9.9691223,0.37798 C 4.0159969,212.04464 0,213.74553 0,213.74553 l 0,-41.15215 c 0,0 3.3545385,1.65364 5.4334076,2.12611 2.0788691,0.47247 3.2600447,0.70871 4.4884673,3.63802 1.2284221,2.92932 -1.8898809,1.37017 -1.4174108,3.92151 0.4724705,2.55134 1.7008929,5.38616 4.4412209,6.52009 2.740327,1.13392 7.087053,9.21317 6.567336,10.15811 -0.519718,0.94493 -0.188989,1.13392 0.708705,1.37016 0.897693,0.23623 3.212798,-0.51972 4.393973,0.85044 1.181176,1.37017 4.063245,2.69308 2.882068,4.67746 -1.181175,1.98437 -0.519716,1.88988 1.13393,2.64583 1.653646,0.75596 1.133928,1.22843 2.173362,1.6064 1.039434,0.37798 4.157739,-0.89769 5.008184,-0.14174 0.850447,0.75595 1.13393,3.1183 1.937128,4.29948 0.803201,1.18117 2.267858,2.17336 2.362351,3.02381 0.0945,0.85045 -0.283483,1.18118 -0.283483,1.18118 0,0 3.260045,1.55915 5.527903,4.25223 2.267857,2.69308 7.79576,9.16592 8.882441,10.06361 1.08668,0.8977 2.787573,2.22061 2.787573,2.83482 0,0.61422 -0.803198,0.47248 -0.803198,0.47248 0,0 0.14174,-0.70871 -1.086681,-0.70871 -1.228424,0 -2.362351,-0.18899 -5.858632,2.45684 -3.496281,2.64584 -4.724701,2.26786 -5.669642,3.07106 -0.944941,0.8032 -1.795389,1.74814 -1.795389,1.74814 z"
       id="path5062"
       inkscape:connector-curvature="0" />
  </g>
  <g
     inkscape:groupmode="layer"
     id="layer10"
     inkscape:label="neck"
     style="display:inline">
    <path
       style="display:inline;fill:#8d876d;fill-opacity:1;fill-rule:evenodd;stroke:none;stroke-width:0.26458332px;stroke-linecap:butt;stroke-linejoin:miter;stroke-opacity:1"
       d="m 86.556547,119.0625 c 0,0 6.331101,-7.27604 10.488838,-8.22098 4.157735,-0.94494 7.181545,-1.79539 8.693455,0.56696 1.5119,2.36235 2.92931,9.35491 2.92931,9.35491 0,0 0.94495,-4.53571 0,-7.08705 -0.94495,-2.55134 -14.930066,-18.048365 -15.213549,-19.0878 -0.283482,-1.039434 -1.984373,-3.590774 -3.212796,-3.118305 -1.228424,0.472472 -3.874257,1.6064 -6.425597,3.496281 -2.551337,1.889882 -5.291667,4.441219 -5.291667,4.441219 0,0 3.212799,6.236605 4.252233,9.921875 1.039434,3.68527 1.795388,7.84301 3.779763,9.73289 z"
       id="path5049"
       inkscape:connector-curvature="0"
       sodipodi:nodetypes="csscsssscscc" />
  </g>
  <g
     inkscape:groupmode="layer"
     id="layer5"
     inkscape:label="Nose">
    <path
       style="fill:#381d0b;fill-rule:evenodd;stroke:none;stroke-width:0.26458332px;stroke-linecap:butt;stroke-linejoin:miter;stroke-opacity:1;fill-opacity:1"
       d="m 154.78125,90.714284 c 0,0 -3.35454,-0.944941 -4.25223,1.27567 -0.8977,2.220611 -0.42523,3.638021 0.28348,4.252232 0.7087,0.614212 2.69308,1.700893 4.11049,1.511904 1.41741,-0.188987 2.50409,0.897694 2.97656,0.614211 0.47247,-0.283482 0.23624,-2.078868 -1.03943,-2.362351 -1.27567,-0.283482 -2.59859,-0.330729 -3.02381,-0.14174 -0.42523,0.188987 -1.51191,0.755952 -1.93713,0.614212 -0.42522,-0.141742 -1.79539,-1.464659 -1.46466,-2.882069 0.33073,-1.41741 0.0945,-3.401785 4.34673,-2.882069 z"
       id="path4805"
       inkscape:connector-curvature="0" />
  </g>
  <g
     inkscape:groupmode="layer"
     id="layer6"
     inkscape:label="Mouth">
    <path
       style="fill:#381d0b;fill-rule:evenodd;stroke:none;stroke-width:0.26458332px;stroke-linecap:butt;stroke-linejoin:miter;stroke-opacity:1;fill-opacity:1"
       d="m 143.25297,102.52604 c 0,0 2.55134,0.51972 3.77977,1.55915 1.22842,1.03944 2.12611,2.26786 2.40959,2.36235 0.28349,0.0945 0.14174,0.8032 0.47247,1.08668 0.33073,0.28349 1.32292,0.47247 1.65365,0.66146 0.33073,0.18899 0.75595,0.85045 0.94494,0.94494 0.18899,0.0945 1.88988,0.66146 1.03943,0.61422 -0.85044,-0.0473 -1.79538,-0.51972 -2.55133,-1.03944 -0.75596,-0.51972 -1.6064,-0.89769 -1.79539,-1.27567 -0.18899,-0.37797 -0.99219,-1.55915 -1.84263,-2.12612 -0.85045,-0.56696 -2.12612,-1.65364 -2.88207,-1.93712 -0.75595,-0.28348 -1.41741,-0.8032 -1.22843,-0.85045 z"
       id="path4808"
       inkscape:connector-curvature="0" />
  </g>
  <g
     inkscape:groupmode="layer"
     id="layer7"
     inkscape:label="Eye">
    <path
       style="fill:#381d0b;fill-rule:evenodd;stroke:none;stroke-width:0.26458332px;stroke-linecap:butt;stroke-linejoin:miter;stroke-opacity:1;fill-opacity:1"
       d="m 144.05617,77.62686 c 0,0 2.36236,3.590771 3.77977,4.488466 1.41741,0.897694 1.70089,1.039434 2.59858,1.08668 0.8977,0.04725 1.74814,-0.330729 1.74814,-0.330729 0,0 -1.32292,1.228424 -2.74033,0.803201 -1.41741,-0.425222 -4.29947,-2.882069 -5.38616,-6.047618 z"
       id="path4811"
       inkscape:connector-curvature="0" />
    <path
       style="fill:#381d0b;fill-rule:evenodd;stroke:none;stroke-width:0.26458332px;stroke-linecap:butt;stroke-linejoin:miter;stroke-opacity:1;fill-opacity:1"
       d="m 145.59507,75.423323 c 0,0 6.74856,2.372018 7.75082,3.073601 1.00226,0.701582 1.00226,1.603615 0.90203,1.937705 -0.10022,0.334087 -1.36975,1.102484 -1.36975,1.102484 0,0 4.14268,0.734991 4.54358,-0.100224 0.4009,-0.835218 -2.27179,-2.906556 -4.10927,-3.608139 -1.83748,-0.701582 -6.84878,-2.472243 -7.71741,-2.405427 z"
       id="path4813"
       inkscape:connector-curvature="0" />
    <path
       style="fill:#381d0b;fill-rule:evenodd;stroke:none;stroke-width:0.26458332px;stroke-linecap:butt;stroke-linejoin:miter;stroke-opacity:1;fill-opacity:1"
       d="m 145.16076,76.993532 c 0,0 4.37654,3.374279 4.97789,3.57473 0.60136,0.200454 1.97112,0.835218 2.03794,1.169305 0.0668,0.334086 -1.26954,1.369756 -1.93771,1.00226 -0.66817,-0.367496 -4.57699,-3.975634 -5.07812,-5.746295 z"
       id="path4815"
       inkscape:connector-curvature="0" />
    <path
       style="fill:#070401;fill-opacity:1;fill-rule:evenodd;stroke:none;stroke-width:0.26458332px;stroke-linecap:butt;stroke-linejoin:miter;stroke-opacity:1"
       d="m 150.27229,80.735306 c 0,0 -0.23385,7e-6 -0.53454,0.300678 -0.21715,0.26727 -0.36749,0.7684 -0.35079,0.851921 0.0167,0.08352 0.66817,0.668173 0.80181,0.718288 0.13363,0.05011 0.70158,-0.11693 0.85192,-0.400905 0.15034,-0.283974 0.35079,-0.684879 0.26727,-0.902036 -0.0835,-0.217154 -0.45102,-0.517834 -1.03567,-0.567946 z"
       id="path4817"
       inkscape:connector-curvature="0"
       sodipodi:nodetypes="ccssscc" />
  </g>
  <g
     inkscape:groupmode="layer"
     id="layer8"
     inkscape:label="Brows">
    <path
       style="fill:#885f44;fill-opacity:1;fill-rule:evenodd;stroke:none;stroke-width:0.26458332px;stroke-linecap:butt;stroke-linejoin:miter;stroke-opacity:1"
       d="m 140.89062,74.461308 c 0,-0.566965 5.81139,-2.315103 8.8352,-1.133929 3.02381,1.181176 7.60677,2.551341 8.07924,3.307293 0.47247,0.755952 2.74033,3.02381 2.4096,3.638021 -0.33073,0.614209 -1.46466,0.661457 -1.74814,0.614211 -0.28348,-0.04725 -1.98438,-2.267858 -2.78758,-2.88207 -0.8032,-0.614211 -6.00037,-3.543527 -7.55953,-3.685266 -1.55915,-0.141743 -5.38615,1.55915 -7.22879,0.141744 z"
       id="path4820"
       inkscape:connector-curvature="0"
       sodipodi:nodetypes="sssscsscs" />
    <path
       style="fill:#885f44;fill-rule:evenodd;stroke:none;stroke-width:0.26458332px;stroke-linecap:butt;stroke-linejoin:miter;stroke-opacity:1;fill-opacity:1"
       d="m 162.34077,83.390996 c 0.42522,-0.708705 2.17337,-1.039435 2.83482,-0.803199 0.66146,0.236234 2.03163,0.992188 2.26786,1.606397 0.23624,0.614212 0.28348,2.362353 -0.14174,3.260045 -0.42522,0.897694 -1.79539,2.362351 -1.93713,1.653646 -0.14174,-0.708705 1.18118,-2.362351 0.28348,-3.260045 -0.89769,-0.897692 -3.77976,-0.566963 -3.30729,-2.456844 z"
       id="path4822"
       inkscape:connector-curvature="0" />
  </g>
  <g
     inkscape:groupmode="layer"
     id="layer9"
     inkscape:label="Cheek">
    <path
       style="fill:#ba835f;fill-rule:evenodd;stroke:none;stroke-width:0.26458332px;stroke-linecap:butt;stroke-linejoin:miter;stroke-opacity:1;fill-opacity:1"
       d="m 108.7787,82.572785 c -1.06908,0 -6.81538,6.681737 -7.75082,6.681737 -0.93544,0 -3.207235,1.336347 -2.672694,2.138156 0.534538,0.801809 4.276314,6.815373 4.276314,8.285356 0,1.469986 4.27631,-14.566188 6.1472,-17.105249 z"
       id="path4839"
       inkscape:connector-curvature="0" />
    <path
       style="fill:#381d0b;fill-rule:evenodd;stroke:none;stroke-width:0.26458332px;stroke-linecap:butt;stroke-linejoin:miter;stroke-opacity:1;fill-opacity:1"
       d="m 133.23661,109.23512 c 0,0 -1.47273,4.2073 -0.80456,6.5459 0.66817,2.33861 2.20497,6.34765 3.4745,7.41673 1.26953,1.06908 4.00905,2.53906 4.00905,2.53906 0,0 -4.40995,-1.9377 -4.81086,-2.40542 -0.4009,-0.46773 -3.8754,-6.81538 -3.80859,-8.21854 0.0668,-1.40317 1.67593,-5.67508 1.94046,-5.87773 z"
       id="path5079"
       inkscape:connector-curvature="0" />
    <path
       style="fill:#381d0b;fill-opacity:1;fill-rule:evenodd;stroke:none;stroke-width:0.26458332px;stroke-linecap:butt;stroke-linejoin:miter;stroke-opacity:1"
       d="m 135.10474,129.1445 c 0,0 -4.87766,0.73499 -8.4858,-0.33409 -3.60814,-1.06908 -9.88898,-10.0226 -9.88898,-10.0226 0,0 8.01809,10.75759 8.75308,12.29439 0.73499,1.5368 0.53454,1.93771 0.53454,1.93771 0,0 7.05161,-3.23016 9.08716,-3.87541 z"
       id="path5081"
       inkscape:connector-curvature="0"
       sodipodi:nodetypes="cscscc" />
  </g>
  <g
     inkscape:groupmode="layer"
     id="layer16"
     inkscape:label="Ear">
    <path
       style="fill:#9b6542;fill-rule:evenodd;stroke:none;stroke-width:0.26458332px;stroke-linecap:butt;stroke-linejoin:miter;stroke-opacity:1;fill-opacity:1"
       d="m 116.70015,78.335565 c 0,0 0.75595,-1.417413 0.0945,-2.173364 -0.66146,-0.755952 -2.26786,-2.55134 -1.6064,-3.685268 0.66146,-1.133927 1.79539,-3.96875 1.51191,-5.38616 -0.28348,-1.417412 -1.6064,-4.063246 -3.49628,-3.96875 -1.88988,0.09449 -3.68527,1.700893 -3.68527,1.700893 0,0 3.49628,-1.322917 4.63021,0.188986 1.13393,1.511906 2.74032,4.630209 1.5119,4.819198 -1.22842,0.188989 -2.74033,-0.377976 -3.87425,1.228423 -1.13393,1.606399 -0.28349,2.551338 -0.28349,2.551338 0,0 0.18899,-1.606397 1.51191,-1.889879 1.32292,-0.283483 2.17336,1.700892 1.41741,2.456844 -0.75595,0.755951 0.18899,2.55134 2.26786,4.157739 z"
       id="path5071"
       inkscape:connector-curvature="0" />
    <path
       style="fill:#9b6542;fill-rule:evenodd;stroke:none;stroke-width:0.26458332px;stroke-linecap:butt;stroke-linejoin:miter;stroke-opacity:1;fill-opacity:1"
       d="m 109.32961,66.901784 c 0,0 -2.55134,2.740327 -2.45684,5.669643 0.0945,2.929315 1.5119,5.008184 2.55134,5.008184 1.03943,0 4.34672,-1.606397 4.34672,-1.606397 0,0 -4.34672,1.700893 -4.7247,-0.566965 -0.37798,-2.267857 -2.17336,-2.55134 0.28348,-8.504465 z"
       id="path5073"
       inkscape:connector-curvature="0" />
    <path
       style="fill:#381d0b;fill-rule:evenodd;stroke:none;stroke-width:0.26458332px;stroke-linecap:butt;stroke-linejoin:miter;stroke-opacity:1;fill-opacity:1"
       d="m 108.0067,78.997023 c 0,0 1.98437,1.511903 1.98437,2.551338 0,1.039436 0.18899,2.267857 1.32292,2.267857 1.13393,0 3.77976,-1.700892 3.77976,-1.700892 0,0 -3.59078,4.819197 -5.57515,3.96875 -1.98438,-0.850445 -0.0945,-2.929316 -0.0945,-3.685268 0,-0.755952 -1.41741,-3.401785 -1.41741,-3.401785 z"
       id="path5075"
       inkscape:connector-curvature="0" />
  </g>
  <g
     inkscape:groupmode="layer"
     id="layer3"
     inkscape:label="Dark Hair"
     style="display:inline">
    <path
       style="fill:#28170b;fill-opacity:1;fill-rule:evenodd;stroke:none;stroke-width:0.26458332px;stroke-linecap:butt;stroke-linejoin:miter;stroke-opacity:1"
       d="m 98.75609,82.238698 c 0,0 3.67495,0.133633 5.07812,-1.002263 1.40317,-1.135896 4.27362,-2.138156 4.27362,-2.138156 0,0 -2.40273,-4.009042 -2.40273,-6.748554 0,-2.739514 0.53454,-4.6104 2.07134,-7.349911 1.67009,-2.977127 3.67495,-5.144939 5.94674,-4.677217 2.27179,0.46772 3.57665,2.410414 4.40995,3.541321 0.93545,1.269529 4.2095,5.144936 6.34765,5.545841 2.13816,0.400905 9.08717,-6.013564 9.08717,-6.013564 0,0 3.8754,-1.135896 5.47902,-2.204974 1.60362,-1.069078 5.21176,-6.681737 5.21176,-6.681737 0,0 5.4122,1.00226 7.21627,1.870887 1.80407,0.868625 5.87993,4.944486 5.87993,4.944486 0,0 0.20046,-3.474503 5.14494,-2.138156 4.94449,1.336347 7.51695,4.744033 7.51695,4.744033 0,0 0.26728,7.14946 -0.50112,9.788748 -0.78735,2.704368 -0.66817,3.474503 -0.66817,3.474503 0,0 1.67043,-0.567949 2.60587,-0.100226 0.93544,0.467722 0.66817,-1.670434 1.73725,-2.472243 1.06908,-0.801809 4.67722,-0.267269 4.67722,-1.269532 0,-1.00226 -1.26953,-5.278572 0.80181,-7.550364 2.07134,-2.271789 6.28083,-3.741772 6.28083,-3.741772 0,0 -5.07812,-1.804069 -6.41447,-6.080381 -1.33634,-4.276312 -4.81085,-12.294399 -7.21628,-13.8312 -2.40542,-1.536798 -2.93996,-5.144936 -4.74403,-5.879928 -1.80407,-0.734991 -2.20497,0.534538 -3.67495,0 -1.46999,-0.53454 -2.6727,-2.739514 -7.95127,-2.405427 -5.27858,0.334087 -3.87541,-4.476763 -7.75082,-4.610399 -3.87541,-0.133633 -6.08038,1.135896 -9.6217,0.935445 -3.54132,-0.200454 -7.21628,1.937702 -9.75534,1.737251 -2.53906,-0.200453 -5.47902,-0.734991 -8.95353,1.80407 -3.4745,2.53906 -4.74403,9.087162 -7.21628,11.024867 -2.47224,1.937705 -5.94674,8.352173 -7.41673,10.958049 -1.46998,2.605879 -4.409942,7.750818 -4.944482,11.225321 -0.534538,3.474506 -0.467722,9.020347 -0.935442,9.755338 -0.467723,0.734992 1.135896,3.073599 0.400904,5.545844 z"
       id="path4780"
       inkscape:connector-curvature="0"
       sodipodi:nodetypes="cscssssscscscscscsssscsssssssssssssc" />
  </g>
  <g
     inkscape:groupmode="layer"
     id="layer4"
     inkscape:label="Light Hair">
    <path
       style="fill:#502d16;fill-opacity:1;fill-rule:evenodd;stroke:none;stroke-width:0.26458332px;stroke-linecap:butt;stroke-linejoin:miter;stroke-opacity:1"
       d="m 101.89651,61.792579 c 0,0 2.80633,-4.476765 4.47676,-5.946748 1.67044,-1.469983 6.21402,-4.610399 6.68174,-5.746295 0.46772,-1.135896 3.87541,-7.951269 4.74403,-7.550364 0.86863,0.400905 0.46772,3.073601 0.46772,3.073601 0,0 7.55037,-3.541321 8.95353,-3.006783 1.40317,0.53454 -2.13815,0.935442 -2.13815,2.605878 0,1.670434 9.88897,0.734992 10.15624,1.80407 0.26727,1.069078 -6.48129,3.875407 -5.27857,3.808589 1.20271,-0.06682 7.95126,1.269532 9.68852,2.004523 1.73725,0.734989 6.14719,1.536798 5.61266,0.935443 -0.53454,-0.601356 -7.21628,-4.34313 -5.21176,-5.879931 2.00452,-1.536798 8.48581,0.801809 8.48581,2.204974 0,1.403165 2.33861,4.142679 4.47676,3.808593 2.13816,-0.33409 5.14494,-0.267272 10.15624,1.202711 5.01131,1.469982 6.08039,7.015826 6.21402,9.153982 0.13364,2.138156 0.90778,4.845244 0.37324,7.183851 -0.53454,2.33861 -0.77414,4.50919 0.49539,4.50919 1.26953,0 2.13815,-2.138156 3.80859,-2.338607 1.67043,-0.200454 4.94448,-2.939965 4.74403,-5.879931 -0.20045,-2.939965 3.74178,-5.278572 3.74178,-5.278572 0,0 -3.00679,-1.870887 -3.67496,-4.944488 -0.66817,-3.073599 -4.14268,-11.693041 -6.01356,-13.163024 -1.87089,-1.469982 -4.47677,-5.946746 -5.27858,-6.949006 -0.80181,-1.002263 -2.87314,-1.804069 -4.14268,-1.804069 -1.26953,0 -3.67495,-2.33861 -5.0113,-2.33861 -1.33635,0 -3.4745,1.00226 -5.74629,0.133636 -2.27179,-0.868627 -3.34087,-4.009043 -5.47903,-4.009043 -2.13816,0 -3.54132,0.467722 -4.27631,0.467722 -0.73499,0 -2.60588,-1.469983 -3.80859,-1.202714 -1.20272,0.267269 -8.55263,0.334087 -9.95579,1.937705 -1.40317,1.603616 -3.54132,1.603616 -5.34539,1.870885 -1.80407,0.267272 -4.27631,0.267272 -6.54811,2.472243 -2.27179,2.204974 -3.67495,3.87541 -4.00904,6.214017 -0.33409,2.33861 -3.00678,3.274052 -4.07586,4.543581 -1.06908,1.269532 -1.73725,5.612662 -2.87315,6.949009 -1.13589,1.336347 -5.4122,5.34539 -4.40994,9.153982 z"
       id="path4783"
       inkscape:connector-curvature="0"
       sodipodi:nodetypes="cssscssssssssssssssscsssssssssssssssc" />
  </g>
  <g
     inkscape:groupmode="layer"
     id="layer11"
     inkscape:label="Mouthpiece"
     style="display:inline">
    <path
       style="fill:#d0b5a4;fill-opacity:1;fill-rule:evenodd;stroke:none;stroke-width:0.26458332px;stroke-linecap:butt;stroke-linejoin:miter;stroke-opacity:1"
       d="m 157.16722,106.80189 c 0,0 -1.15755,0.28349 -1.37016,1.22843 -0.21261,0.94494 0.54334,1.96075 0.54334,1.96075 l 3.42541,0.61421 c 0,0 0.42522,-0.37798 0.63783,-0.37798 0.21262,0 21.28479,4.06325 21.28479,4.06325 0.48213,0.11688 4.48847,0.56696 6.52009,0.47247 2.03162,-0.0945 8.17373,-0.77958 12.33147,-2.52772 4.15774,-1.74814 15.96474,-6.87039 18.89406,-3.82295 2.92932,3.04743 2.22536,4.50734 1.5639,6.06719 -0.80787,1.9051 -4.60658,6.30748 -4.60658,6.30748 0,0 0.63783,1.01581 1.2048,1.41741 0.56696,0.4016 1.32766,0.5123 1.32766,0.5123 0,0 5.5704,-7.03239 5.78301,-8.30806 0.21262,-1.27567 1.06306,-5.26805 -3.04743,-8.4336 -4.11049,-3.16555 -8.69345,-2.24423 -16.06399,0.68508 -7.37053,2.92932 -12.21335,5.26805 -18.00111,5.2208 -5.78776,-0.0473 -26.69457,-3.70889 -26.69457,-3.70889 0,0 0.11812,-0.56696 -0.28348,-0.77958 -0.4016,-0.21261 -1.96076,-0.7087 -3.44904,-0.59059 z"
       id="path4851"
       inkscape:connector-curvature="0"
       sodipodi:nodetypes="csccsssssscscssssccc" />
    <path
       transform="translate(0,-32.41665)"
       style="display:inline;fill:#d38d5f;fill-opacity:1;fill-rule:evenodd;stroke:none;stroke-width:0.26458332px;stroke-linecap:butt;stroke-linejoin:miter;stroke-opacity:1"
       d="m 149.67093,138.84324 c 0,0 -0.20045,0.80181 0.33409,1.06908 l 0.53454,0.26727 5.61266,1.87088 c 0,0 -0.44966,-0.98929 -0.28429,-1.50901 0.11812,-0.75595 0.85045,-1.1103 0.85045,-1.1103 0,0 -6.7716,-0.84511 -7.04745,-0.58792 z"
       id="path4849"
       inkscape:connector-curvature="0"
       sodipodi:nodetypes="csccccc" />
  </g>
  <g
     inkscape:groupmode="layer"
     id="layer13"
     inkscape:label="Bassoon"
     style="display:inline">
    <path
       style="fill:#5d1f14;fill-opacity:1;fill-rule:evenodd;stroke:none;stroke-width:0.26458332px;stroke-linecap:butt;stroke-linejoin:miter;stroke-opacity:1"
       d="m 264.58332,79.966906 c 0,0 -5.06461,4.209495 -9.87546,8.552625 -4.81085,4.34313 -6.48129,7.550364 -8.75308,10.022607 C 243.68299,101.01438 70.158249,264.58333 70.158249,264.58333 l 28.063301,0 c 0,0 157.2213,-152.74453 159.89399,-155.01633 2.6727,-2.27178 6.46778,-5.94674 6.46778,-5.94674 z"
       id="path4869"
       inkscape:connector-curvature="0" />
    <path
       style="fill:#782f21;fill-opacity:1;fill-rule:evenodd;stroke:none;stroke-width:0.26458332px;stroke-linecap:butt;stroke-linejoin:miter;stroke-opacity:1"
       d="m 208.7375,123.73229 -148.869127,140.85104 12.561668,0 143.523739,-134.1693 c 0,0 -0.53454,-2.40543 -3.00679,-4.74404 -2.47224,-2.3386 -4.20949,-1.9377 -4.20949,-1.9377 z"
       id="path4867"
       inkscape:connector-curvature="0" />
  </g>
  <g
     inkscape:groupmode="layer"
     id="layer14"
     inkscape:label="Bassoon Metal">
    <ellipse
       transform="matrix(0.93177984,-0.36302386,0.10355356,0.99462388,0,0)"
       ry="2.205955"
       rx="2.7083385"
       cy="260.83746"
       cx="124.29664"
       id="ellipse5010"
       style="fill:#b9b9b9;fill-opacity:1;fill-rule:evenodd;stroke:#707070;stroke-width:0.30417624px;stroke-linecap:butt;stroke-linejoin:miter;stroke-opacity:1" />
    <ellipse
       style="fill:#b9b9b9;fill-opacity:1;fill-rule:evenodd;stroke:#707070;stroke-width:0.30417624px;stroke-linecap:butt;stroke-linejoin:miter;stroke-opacity:1"
       id="ellipse5008"
       cx="-2.24628"
       cy="256.24146"
       rx="2.7083385"
       ry="2.205955"
       transform="matrix(0.67805781,-0.73500858,0.52941238,0.84836462,0,0)" />
    <ellipse
       transform="matrix(0.77915293,-0.62683388,0.64356385,0.76539243,0,0)"
       ry="1.5515876"
       rx="2.0152278"
       cy="253.41481"
       cx="-3.5976272"
       id="ellipse5006"
       style="fill:#b9b9b9;fill-opacity:1;fill-rule:evenodd;stroke:#707070;stroke-width:0.22005218px;stroke-linecap:butt;stroke-linejoin:miter;stroke-opacity:1" />
    <ellipse
       style="fill:#b9b9b9;fill-opacity:1;fill-rule:evenodd;stroke:#707070;stroke-width:0.26149023px;stroke-linecap:butt;stroke-linejoin:miter;stroke-opacity:1"
       id="ellipse5004"
       cx="76.381287"
       cy="225.08092"
       rx="2.3638978"
       ry="1.8678039"
       transform="rotate(-19.948941)" />
    <ellipse
       transform="rotate(-19.948941)"
       ry="1.8678039"
       rx="2.3638978"
       cy="222.17471"
       cx="82.914787"
       id="ellipse5002"
       style="fill:#b9b9b9;fill-opacity:1;fill-rule:evenodd;stroke:#707070;stroke-width:0.26149023px;stroke-linecap:butt;stroke-linejoin:miter;stroke-opacity:1" />
    <ellipse
       style="fill:#b9b9b9;fill-opacity:1;fill-rule:evenodd;stroke:#707070;stroke-width:0.26149023px;stroke-linecap:butt;stroke-linejoin:miter;stroke-opacity:1"
       id="path5000"
       cx="89.516708"
       cy="218.94151"
       rx="2.3638978"
       ry="1.8678039"
       transform="rotate(-19.948941)" />
    <path
       style="fill:#aca793;fill-opacity:1;fill-rule:evenodd;stroke:none;stroke-width:0.26458332px;stroke-linecap:butt;stroke-linejoin:miter;stroke-opacity:1"
       d="m 98.224236,264.31875 3.875414,-3.67496 c 0,0 -3.207241,-3.40768 -3.741778,-4.14267 -0.534541,-0.73499 -1.269529,-2.47225 -2.33861,-3.34087 -1.069078,-0.86863 -4.944486,-5.27858 -6.080382,-6.34765 -1.135893,-1.06908 -4.610399,-5.07812 -4.610399,-5.07812 0,0 -0.314515,-0.66482 -0.915871,-0.39753 -0.601358,0.26727 -7.949701,7.58479 -8.522083,8.06485 -0.517835,0.4343 0.08352,0.8185 0.08352,0.8185 0,0 9.287616,9.28762 9.888974,9.75534 0.601355,0.46772 3.875407,4.34313 3.875407,4.34313 z"
       id="path4872"
       inkscape:connector-curvature="0"
       sodipodi:nodetypes="ccsssccscscc" />
    <path
       style="fill:#c8c4b7;fill-opacity:1;fill-rule:evenodd;stroke:none;stroke-width:0.26458332px;stroke-linecap:butt;stroke-linejoin:miter;stroke-opacity:1"
       d="m 217.62421,120.59187 c -0.66817,-0.26727 -1.40316,-0.93544 -2.73951,-0.33408 -1.33635,0.60135 -3.80859,3.87541 -3.80859,3.87541 0,0 -0.80181,-0.93545 -2.00452,-0.735 -1.20271,0.20045 -8.48582,7.684 -8.48582,7.684 0,0 3.8086,3.27405 4.14269,3.94223 0.33408,0.66817 3.4745,4.40995 3.4745,4.40995 0,0 8.01809,-7.75082 8.0849,-8.55262 0.20043,-1.40317 -1.20271,-3.34088 -1.20271,-3.34088 0,0 3.87541,-3.27405 3.87541,-4.14268 0,-0.86862 0.26727,-1.5368 -1.33635,-2.80633 z"
       id="path4874"
       inkscape:connector-curvature="0"
       sodipodi:nodetypes="cscscscccsc" />
    <path
       style="fill:#e3e2db;fill-rule:evenodd;stroke:#d2d2d2;stroke-width:1.4552083;stroke-linecap:round;stroke-linejoin:miter;stroke-miterlimit:4;stroke-dasharray:none;stroke-opacity:1"
       d="M 206.46571,124.13319 86.461692,237.32184"
       id="path4876"
       inkscape:connector-curvature="0"
       sodipodi:nodetypes="cc" />
    <path
       inkscape:connector-curvature="0"
       id="path4880"
       d="M 134.1693,197.23141 93.009795,237.32184"
       style="fill:#e3e2db;fill-rule:evenodd;stroke:#d2d2d2;stroke-width:1.4552083;stroke-linecap:round;stroke-linejoin:miter;stroke-miterlimit:4;stroke-dasharray:none;stroke-opacity:1"
       sodipodi:nodetypes="cc" />
    <path
       sodipodi:nodetypes="cc"
       style="fill:#e3e2db;fill-rule:evenodd;stroke:#d2d2d2;stroke-width:1.4552083;stroke-linecap:round;stroke-linejoin:miter;stroke-miterlimit:4;stroke-dasharray:none;stroke-opacity:1"
       d="M 134.1693,197.23141 93.009795,237.32184"
       id="path4882"
       inkscape:connector-curvature="0" />
    <path
       inkscape:connector-curvature="0"
       id="path4884"
       d="m 132.56568,204.31406 -29.80055,30.06782"
       style="fill:#e3e2db;fill-rule:evenodd;stroke:#d2d2d2;stroke-width:1.4552083;stroke-linecap:round;stroke-linejoin:miter;stroke-miterlimit:4;stroke-dasharray:none;stroke-opacity:1"
       sodipodi:nodetypes="cc" />
    <path
       sodipodi:nodetypes="cc"
       style="fill:#e3e2db;fill-rule:evenodd;stroke:#d2d2d2;stroke-width:1.4552083;stroke-linecap:round;stroke-linejoin:miter;stroke-miterlimit:4;stroke-dasharray:none;stroke-opacity:1"
       d="m 132.56568,204.31406 -29.80055,30.06782"
       id="path4886"
       inkscape:connector-curvature="0" />
    <path
       inkscape:connector-curvature="0"
       id="path4888"
       d="m 140.45014,202.57681 -12.56167,12.96257"
       style="fill:#e3e2db;fill-rule:evenodd;stroke:#d2d2d2;stroke-width:1.4552083;stroke-linecap:round;stroke-linejoin:miter;stroke-miterlimit:4;stroke-dasharray:none;stroke-opacity:1"
       sodipodi:nodetypes="cc" />
    <path
       sodipodi:nodetypes="cc"
       style="fill:#e3e2db;fill-rule:evenodd;stroke:#d2d2d2;stroke-width:1.4552083;stroke-linecap:round;stroke-linejoin:miter;stroke-miterlimit:4;stroke-dasharray:none;stroke-opacity:1"
       d="M 164.77167,177.98801 143.52374,199.1023"
       id="path4890"
       inkscape:connector-curvature="0" />
    <path
       inkscape:connector-curvature="0"
       id="path4892"
       d="m 161.56443,185.33792 -15.7689,15.50163"
       style="fill:#e3e2db;fill-rule:evenodd;stroke:#d2d2d2;stroke-width:1.4552083;stroke-linecap:round;stroke-linejoin:miter;stroke-miterlimit:4;stroke-dasharray:none;stroke-opacity:1"
       sodipodi:nodetypes="cc" />
    <path
       style="fill:#c8c4b7;fill-rule:evenodd;stroke:none;stroke-width:0.26458332px;stroke-linecap:butt;stroke-linejoin:miter;stroke-opacity:1;fill-opacity:1"
       d="m 238.13715,106.35977 7.48354,-8.151719 c 0,0 4.40995,0.935442 7.21628,4.543579 2.80633,3.60814 5.07812,7.61718 5.07812,7.61718 l -7.88445,8.28536 c 0,0 -0.93544,-3.87541 -4.27631,-6.94901 -3.34087,-3.0736 -7.61718,-5.34539 -7.61718,-5.34539 z"
       id="path4894"
       inkscape:connector-curvature="0" />
    <path
       style="fill:none;fill-rule:evenodd;stroke:#d2d2d2;stroke-width:1.45520834;stroke-linecap:round;stroke-linejoin:miter;stroke-opacity:1;stroke-miterlimit:4;stroke-dasharray:none"
       d="m 130.82843,205.51677 c 0,0 3.0736,1.87088 4.27631,3.4745 1.20272,1.60362 1.87089,3.4745 3.34087,4.27631 1.46999,0.80181 2.6727,1.20271 2.6727,1.20271"
       id="path4906"
       inkscape:connector-curvature="0" />
    <path
       transform="translate(0,-32.41665)"
       style="display:inline;fill:none;fill-rule:evenodd;stroke:#d2d2d2;stroke-width:1.45520834;stroke-linecap:round;stroke-linejoin:miter;stroke-opacity:1;stroke-miterlimit:4;stroke-dasharray:none"
       d="m 156.35267,222.56542 c 0,0 1.46998,0.93544 1.87089,1.87088 0.4009,0.93545 2.00452,4.00905 2.00452,4.00905"
       id="path4933"
       inkscape:connector-curvature="0" />
    <path
       transform="translate(0,-32.41665)"
       style="display:inline;fill:none;fill-rule:evenodd;stroke:#d2d2d2;stroke-width:1.4552083;stroke-linecap:round;stroke-linejoin:miter;stroke-miterlimit:4;stroke-dasharray:none;stroke-opacity:1"
       d="m 163.30168,217.4873 c 0,0 -3.87541,-2.93997 -3.87541,-3.74178 0,-0.80181 -1.20271,-5.74629 -1.20271,-5.74629"
       id="path4929"
       inkscape:connector-curvature="0" />
    <path
       transform="translate(0,-32.41665)"
       style="display:inline;fill:none;fill-rule:evenodd;stroke:#d2d2d2;stroke-width:1.45520834;stroke-linecap:round;stroke-linejoin:miter;stroke-opacity:1;stroke-miterlimit:4;stroke-dasharray:none"
       d="m 153.41271,227.24264 c 0,0 -3.87541,-2.93997 -3.87541,-3.74178 0,-0.80181 -1.20271,-5.74629 -1.20271,-5.74629"
       id="path4917"
       inkscape:connector-curvature="0" />
    <path
       transform="translate(0,-32.41665)"
       inkscape:connector-curvature="0"
       id="path4927"
       d="m 158.7581,222.96633 c 0,0 -3.87541,-2.93997 -3.87541,-3.74178 0,-0.80181 -1.20271,-5.74629 -1.20271,-5.74629"
       style="display:inline;fill:none;fill-rule:evenodd;stroke:#d2d2d2;stroke-width:1.4552083;stroke-linecap:round;stroke-linejoin:miter;stroke-miterlimit:4;stroke-dasharray:none;stroke-opacity:1" />
    <path
       transform="translate(0,-32.41665)"
       style="display:inline;fill:none;fill-rule:evenodd;stroke:#d2d2d2;stroke-width:1.45520834;stroke-linecap:round;stroke-linejoin:miter;stroke-opacity:1;stroke-miterlimit:4;stroke-dasharray:none"
       d="m 129.75935,244.48152 c 0,0 3.34087,4.00904 3.60814,5.07812 0.26727,1.06908 0.53454,2.40543 0.53454,2.40543"
       id="path4931"
       inkscape:connector-curvature="0" />
  </g>
  <g
     inkscape:groupmode="layer"
     id="layer15"
     inkscape:label="Hands">
    <path
       style="fill:#deaa87;fill-rule:evenodd;stroke:none;stroke-width:0.26458332px;stroke-linecap:butt;stroke-linejoin:miter;stroke-opacity:1;fill-opacity:1"
       d="m 55.057521,234.64914 c 0,0 4.810852,4.81085 5.479026,5.21176 0.668173,0.4009 3.875407,1.73725 4.810852,3.87541 0.935443,2.13815 6.548102,6.1472 7.884451,6.94901 1.336347,0.8018 7.884451,5.74629 8.552625,7.21627 0.668173,1.46999 2.138156,6.68174 2.138156,6.68174 l -8.68626,0 c 0,0 -3.04292,-0.37798 -3.751625,-1.13393 -0.708705,-0.75595 0.425222,1.13393 0.425222,1.13393 l -31.041292,0 c 0,0 -0.472472,-2.12611 -1.27567,-2.55134 -0.803201,-0.42522 -4.393975,-3.16555 -4.819197,-4.25223 -0.425223,-1.08668 -2.976563,-1.65365 -1.27567,-4.29948 1.700892,-2.64583 7.039808,-9.68564 8.693454,-11.0558 1.653646,-1.37017 5.716889,-3.44904 6.898063,-4.25224 1.181177,-0.80319 4.517948,-3.73891 5.967865,-3.5231 z"
       id="path5013"
       inkscape:connector-curvature="0" />
    <path
       style="fill:#b07248;fill-rule:evenodd;stroke:none;stroke-width:0.26458332px;stroke-linecap:butt;stroke-linejoin:miter;stroke-opacity:1;fill-opacity:1"
       d="m 82.635044,264.58333 c 0,0 -0.992188,-1.22842 -0.992188,-2.17336 0,-0.94494 0.755952,-2.55134 0.09449,-2.36235 -0.661459,0.18898 -1.511903,1.22842 -3.071056,0.89769 -1.559152,-0.33073 -9.21317,-5.00818 -8.882441,-6.28385 0.330729,-1.27567 0.04725,-1.79539 -1.08668,-1.18118 -1.133931,0.61421 -1.889882,4.39397 -0.283483,6.4256 1.606399,2.03162 3.874257,4.67745 5.480653,4.67745 1.606399,0 8.740701,0 8.740701,0 z"
       id="path5015"
       inkscape:connector-curvature="0" />
    <path
       style="fill:#b07248;fill-rule:evenodd;stroke:none;stroke-width:0.26458332px;stroke-linecap:butt;stroke-linejoin:miter;stroke-opacity:1;fill-opacity:1"
       d="m 63.972468,264.58333 c 0,0 -2.031621,-0.56697 -1.795385,-1.37016 0.236235,-0.8032 2.787573,-2.4096 2.787573,-3.07106 0,-0.66146 -2.031622,-3.9215 -2.126115,-4.53571 -0.09449,-0.61422 -0.614212,-2.17337 -2.598587,-1.98438 -1.984375,0.18899 -2.55134,1.37016 -3.165549,1.08668 -0.614212,-0.28348 -1.27567,-1.5119 -1.511906,-0.99219 -0.236236,0.51972 -0.14174,3.96875 0.330729,4.86645 0.47247,0.89769 4.15774,6.00037 4.15774,6.00037 z"
       id="path5017"
       inkscape:connector-curvature="0" />
    <path
       style="fill:#b07248;fill-rule:evenodd;stroke:none;stroke-width:0.26458332px;stroke-linecap:butt;stroke-linejoin:miter;stroke-opacity:1;fill-opacity:1"
       d="m 54.334076,264.58333 c 0,0 -0.425223,-0.14174 -0.377976,-1.13393 0.04725,-0.99218 1.27567,-1.27567 1.27567,-2.12611 0,-0.85045 -0.755951,-5.14993 -2.173364,-6.00038 -1.41741,-0.85044 0.188989,1.6064 -0.519716,1.55916 -0.708705,-0.0473 -2.456847,-1.84264 -2.69308,-1.41742 -0.236236,0.42523 0.519716,1.74815 -0.236236,1.7009 -0.755951,-0.0473 -2.267857,-2.88207 -2.787573,-2.07887 -0.519718,0.8032 -1.937128,0.33073 -1.889882,0.99219 0.04725,0.66145 1.937129,2.12611 1.795386,3.40178 -0.14174,1.27567 -0.850445,2.12612 -0.472469,2.50409 0.377976,0.37798 3.354538,2.59859 3.827007,2.59859 0.472472,0 4.252233,0 4.252233,0 z"
       id="path5019"
       inkscape:connector-curvature="0" />
    <path
       style="fill:#b07248;fill-rule:evenodd;stroke:none;stroke-width:0.26458332px;stroke-linecap:butt;stroke-linejoin:miter;stroke-opacity:1;fill-opacity:1"
       d="m 43.46726,264.58333 c 0,0 -0.28348,-1.46466 0.283483,-1.98437 0.566965,-0.51972 1.984375,-1.51191 1.370163,-1.84264 -0.614209,-0.33073 -2.645833,-0.75595 -2.645833,-2.59858 0,-1.84264 -1.228421,-6.28386 0.141742,-9.82739 1.370164,-3.54352 2.315104,-6.00037 3.023809,-6.47284 0.708705,-0.47247 2.362351,-3.02381 1.559153,-2.50409 -0.803201,0.51972 -3.165552,1.27567 -5.008184,3.1183 -1.842635,1.84264 -6.094868,6.89807 -6.945313,8.17374 -0.850447,1.27567 -2.598586,3.07105 -2.267857,4.7247 0.330729,1.65365 1.370163,1.70089 1.511903,2.07887 0.141743,0.37798 1.228424,1.65364 2.315104,2.64583 1.086684,0.99219 2.645834,1.6064 2.88207,1.98438 0.236235,0.37798 1.133927,2.50409 1.133927,2.50409 z"
       id="path5021"
       inkscape:connector-curvature="0" />
    <path
       style="fill:#8b5b39;fill-opacity:1;fill-rule:evenodd;stroke:none;stroke-width:0.26458332px;stroke-linecap:butt;stroke-linejoin:miter;stroke-opacity:1"
       d="m 147.46596,242.53359 c 1.9377,-0.0668 7.14946,-1.73725 8.35217,-3.67495 1.20272,-1.93771 1.06908,-4.47677 1.73726,-5.0113 0.66817,-0.53454 0.86862,-2.6727 1.46998,-3.20724 0.60135,-0.53454 1.06908,-2.40543 1.5368,-3.14042 0.46772,-0.73499 -0.0668,-2.27179 0.53454,-3.60814 0.60135,-1.33634 1.46998,-4.00904 1.46998,-4.34312 0,-0.33409 1.26953,-2.73952 1.20271,-4.07587 -0.0668,-1.33634 -1.26953,-3.07359 -1.26953,-3.07359 0,0 4.40995,-3.94223 4.40995,-5.41221 0,-1.46998 1.00226,-3.27405 -2.40543,-5.41221 -3.40768,-2.13816 -10.22306,-5.21176 -11.62622,-2.93996 -1.40317,2.27179 -0.60136,4.00904 -0.40091,4.54358 0.20046,0.53454 5.14494,2.73951 5.14494,2.73951 0,0 -1.80407,1.06908 -2.40542,1.9377 -0.60136,0.86863 -1.06908,1.73725 -1.06908,1.73725 0,0 -7.21628,-1.87088 -8.68626,-1.46998 -1.46998,0.40091 -2.80633,1.5368 -3.0736,2.60588 -0.26727,1.06908 -0.0668,3.47451 1.26953,3.74177 1.33635,0.26727 6.5481,2.13816 6.68174,2.53907 0.13363,0.4009 -3.00678,1.40316 -3.20724,1.80406 -0.20045,0.40091 -0.66817,0.735 -0.66817,0.735 0,0 -8.35217,-3.87541 -10.22306,-3.60814 -1.87089,0.26727 -2.60588,0.53454 -3.0736,1.60361 -0.46772,1.06908 -0.66817,3.40769 0.53454,4.14268 1.20271,0.73499 8.61944,3.0736 8.61944,3.40769 0,0.33408 1.48421,1.53008 0.74924,1.53008 -0.73499,0 -3.15466,0.007 -3.35512,0.60807 -0.20045,0.60136 -1.33634,2.73952 -1.06908,3.14042 0.26728,0.4009 -1.33634,1.00226 -0.86862,3.20723 0.46772,2.20498 2.60588,8.55263 9.68852,8.95353 z"
       id="path5023"
       inkscape:connector-curvature="0"
       sodipodi:nodetypes="cscssssccsssccscssscccsssssccsc" />
    <path
       style="fill:#6a4328;fill-rule:evenodd;stroke:none;stroke-width:0.26458332px;stroke-linecap:butt;stroke-linejoin:miter;stroke-opacity:1;fill-opacity:1"
       d="m 148.4014,227.43287 c 0.40091,0.20045 6.48129,2.60587 6.41447,3.00678 -0.0668,0.4009 -3.74177,0.26727 -5.0113,-0.0668 -1.26953,-0.33409 -2.87315,-1.46998 -1.40317,-2.93996 z"
       id="path5025"
       inkscape:connector-curvature="0" />
    <path
       style="fill:#6a4328;fill-opacity:1;fill-rule:evenodd;stroke:none;stroke-width:0.29763994px;stroke-linecap:butt;stroke-linejoin:miter;stroke-opacity:1"
       d="m 151.00728,216.93779 c 0,0.59189 -1.46998,3.46681 -1.20271,3.46681 0.26727,0 6.68174,2.11392 6.61492,2.36759 -0.0668,0.25367 0.80181,-1.86024 0.20045,-2.11392 -0.60135,-0.25367 -1.5368,-1.86024 -2.27179,-2.19847 -0.73499,-0.33822 -1.87089,-1.35291 -3.34087,-1.52201 z"
       id="path5027"
       inkscape:connector-curvature="0" />
    <path
       style="fill:#6a4328;fill-rule:evenodd;stroke:none;stroke-width:0.26458332px;stroke-linecap:butt;stroke-linejoin:miter;stroke-opacity:1;fill-opacity:1"
       d="m 157.82265,205.91767 c 0,0 3.80859,1.87089 3.74178,2.40543 -0.0668,0.53453 -2.27179,2.47224 -3.00678,2.47224 -0.735,0 -4.54359,-1.06908 -4.54359,-1.06908 0,0 1.26953,-3.0736 3.80859,-3.80859 z"
       id="path5029"
       inkscape:connector-curvature="0" />
    <path
       style="fill:#503421;fill-rule:evenodd;stroke:none;stroke-width:0.26458332px;stroke-linecap:butt;stroke-linejoin:miter;stroke-opacity:1;fill-opacity:1"
       d="m 138.91334,231.10782 c 0,0 5.94674,5.0113 7.28309,5.27858 1.33635,0.26726 6.5481,0.53453 7.28309,0.53453 0.735,0 4.34313,-3.8754 4.34313,-3.8754 0,0 -0.86862,1.73725 -0.93544,2.3386 -0.0668,0.60136 0.46772,2.47225 -1.33635,4.00905 -1.80407,1.5368 -5.81311,4.40994 -9.2208,3.80859 -3.40768,-0.60136 -8.68626,-6.21402 -8.81989,-7.61718 -0.13363,-1.40317 -1.00226,-4.67722 1.40317,-4.47677 z"
       id="path5039"
       inkscape:connector-curvature="0" />
    <path
       style="fill:#a86f45;fill-rule:evenodd;stroke:none;stroke-width:0.26458332px;stroke-linecap:butt;stroke-linejoin:miter;stroke-opacity:1;fill-opacity:1"
       d="m 162.49987,212.33214 c 0,0 -6.5481,-2.47224 -8.61944,-2.80633 -2.07134,-0.33409 -8.28536,-1.93771 -9.28762,-1.60362 -1.00226,0.33409 -2.47224,2.13816 -2.60588,2.80633 -0.13363,0.66817 -0.0668,2.80633 0.86863,3.47451 0.93544,0.66817 11.55941,3.74177 12.89576,3.94222 1.33634,0.20045 6.34765,0.86863 6.949,0.4009 0.60136,-0.46772 1.40317,-2.53906 1.26953,-3.20723 -0.13363,-0.66817 -1.46998,-3.00678 -1.46998,-3.00678 z"
       id="path5041"
       inkscape:connector-curvature="0" />
    <path
       style="fill:#a86f45;fill-rule:evenodd;stroke:none;stroke-width:0.26458332px;stroke-linecap:butt;stroke-linejoin:miter;stroke-opacity:1;fill-opacity:1"
       d="m 164.97211,209.59262 c 0,0 -5.94674,-3.07359 -7.01582,-3.54132 -1.06908,-0.46772 -5.41221,-2.40542 -5.61266,-3.00678 -0.20045,-0.60136 -0.66817,-2.87314 -0.33409,-3.60814 0.33409,-0.73499 1.80407,-1.80407 2.40543,-1.80407 0.60136,0 4.47676,0.93545 7.28309,2.47225 2.80633,1.5368 5.27857,3.20723 5.27857,4.47676 0,1.26953 0.13364,3.87541 -2.00452,5.0113 z"
       id="path5043"
       inkscape:connector-curvature="0" />
    <path
       style="fill:#a86f45;fill-rule:evenodd;stroke:none;stroke-width:0.26458332px;stroke-linecap:butt;stroke-linejoin:miter;stroke-opacity:1;fill-opacity:1"
       d="m 133.10022,217.54389 c 0.46773,-0.73499 1.73726,-2.13815 3.34087,-1.87088 1.60362,0.26727 10.08943,3.94222 11.35896,4.27631 1.26953,0.33409 7.08264,1.87089 7.88445,2.27179 0.80181,0.4009 2.20497,3.27405 1.40316,4.87767 -0.80181,1.60362 -2.40542,3.0736 -2.73951,3.0736 -0.33409,0 -9.68852,-4.6104 -11.82667,-5.07812 -2.13816,-0.46773 -11.96032,-2.40543 -9.42126,-7.55037 z"
       id="path5045"
       inkscape:connector-curvature="0" />
    <path
       style="fill:#a86f45;fill-rule:evenodd;stroke:none;stroke-width:0.26458332px;stroke-linecap:butt;stroke-linejoin:miter;stroke-opacity:1;fill-opacity:1"
       d="m 139.11379,227.76695 c 0,0 0.93544,-1.40316 1.87088,-1.40316 0.93545,0 6.68174,3.87541 8.41899,4.00904 1.73725,0.13364 5.27858,0.66818 5.47903,0.93544 0.20045,0.26727 1.67043,1.06908 1.67043,1.93771 0,0.86862 -1.20271,3.87541 -2.47224,4.00904 -1.26953,0.13364 -6.61492,0.0668 -7.88445,-0.53454 -1.26953,-0.60136 -7.41673,-5.41221 -7.55037,-5.81311 -0.13363,-0.4009 0,-2.20497 0.46773,-3.14042 z"
       id="path5047"
       inkscape:connector-curvature="0" />
  </g>
  <path
     style="fill:#b58b6f;fill-rule:evenodd;stroke:none;stroke-width:0.26458332px;stroke-linecap:butt;stroke-linejoin:miter;stroke-opacity:1;fill-opacity:1"
     d="m 161.91555,88.351933 c -0.70871,0 -2.36235,1.181177 -2.83482,2.220611 -0.47247,1.039434 -0.8032,2.882066 -0.23624,2.882066 0.56697,0 2.92932,0.283483 3.59078,1.13393 0.66145,0.850445 0.66145,3.260045 0.85044,3.071056 0.18899,-0.188986 0.8977,-1.700892 0.70871,-3.118302 -0.18899,-1.417413 -1.84264,-5.764139 -2.07887,-6.189361 z"
     id="path4824"
     inkscape:connector-curvature="0" />
</svg>
