<?xml version="1.0" encoding="UTF-8" standalone="no"?>
<!-- Created with Inkscape (http://www.inkscape.org/) -->

<svg
   xmlns:dc="http://purl.org/dc/elements/1.1/"
   xmlns:cc="http://creativecommons.org/ns#"
   xmlns:rdf="http://www.w3.org/1999/02/22-rdf-syntax-ns#"
   xmlns:svg="http://www.w3.org/2000/svg"
   xmlns="http://www.w3.org/2000/svg"
   xmlns:sodipodi="http://sodipodi.sourceforge.net/DTD/sodipodi-0.dtd"
   xmlns:inkscape="http://www.inkscape.org/namespaces/inkscape"
   width="1000"
   height="1000"
   viewBox="0 0 264.58333 264.58334"
   id="svg4332"
   version="1.1"
   inkscape:version="0.91+devel r13925"
   sodipodi:docname="igor-stravinsky.svg"
   inkscape:export-filename="/Users/agarone/Documents/git/art/igor-stravinsky/igor-stravinsky.png"
   inkscape:export-xdpi="96"
   inkscape:export-ydpi="96">
  <defs
     id="defs4334" />
  <sodipodi:namedview
     id="base"
     pagecolor="#ffffff"
     bordercolor="#666666"
     borderopacity="1.0"
     inkscape:pageopacity="0.0"
     inkscape:pageshadow="2"
     inkscape:zoom="0.7"
     inkscape:cx="391.7469"
     inkscape:cy="390.51484"
     inkscape:document-units="px"
     inkscape:current-layer="layer3"
     showgrid="false"
     units="px"
     showguides="true"
     inkscape:guide-bbox="true"
     inkscape:window-width="1920"
     inkscape:window-height="1151"
     inkscape:window-x="0"
     inkscape:window-y="1"
     inkscape:window-maximized="1">
    <sodipodi:guide
       position="264.58333,0"
       orientation="1,0"
       id="guide4340"
       inkscape:label=""
       inkscape:color="rgb(0,0,255)" />
    <sodipodi:guide
       position="0,0"
       orientation="1,0"
       id="guide4342"
       inkscape:label=""
       inkscape:color="rgb(0,0,255)" />
    <sodipodi:guide
       position="0,0"
       orientation="0,1"
       id="guide4344"
       inkscape:label=""
       inkscape:color="rgb(0,0,255)" />
    <sodipodi:guide
       position="0,264.58333"
       orientation="0,1"
       id="guide4346"
       inkscape:label=""
       inkscape:color="rgb(0,0,255)" />
    <sodipodi:guide
       position="132.29167,132.29167"
       orientation="0,1"
       id="guide5189"
       inkscape:label=""
       inkscape:color="rgb(0,0,255)" />
    <sodipodi:guide
       position="132.29167,132.29167"
       orientation="1,0"
       id="guide5191"
       inkscape:label=""
       inkscape:color="rgb(0,0,255)" />
  </sodipodi:namedview>
  <metadata
     id="metadata4337">
    <rdf:RDF>
      <cc:Work
         rdf:about="">
        <dc:format>image/svg+xml</dc:format>
        <dc:type
           rdf:resource="http://purl.org/dc/dcmitype/StillImage" />
        <dc:title />
      </cc:Work>
    </rdf:RDF>
  </metadata>
  <g
     inkscape:label="BG"
     inkscape:groupmode="layer"
     id="layer1"
     transform="translate(0,-32.41665)"
     style="display:none">
    <rect
       style="opacity:1;fill:#ffffff;fill-opacity:1;stroke:none;stroke-width:11.60810661;stroke-miterlimit:4;stroke-dasharray:none;stroke-opacity:1"
       id="rect5606"
       width="264.58334"
       height="264.58334"
       x="0"
       y="32.416653" />
    <g
       id="g5145"
       transform="matrix(0.3969333,0,0,0.3969333,5.1262112,72.838906)" />
  </g>
  <g
     inkscape:groupmode="layer"
     id="layer2"
     inkscape:label="Head"
     style="display:inline">
    <path
       style="fill:#e6c7b2;fill-rule:evenodd;stroke:none;stroke-width:0.26458332px;stroke-linecap:butt;stroke-linejoin:miter;stroke-opacity:1;fill-opacity:1"
       d="m 97.706843,164.60863 c 0,0 2.786497,-11.8776 4.122847,-20.43022 1.33635,-8.55262 -0.40091,-27.39513 -1.20271,-27.39513 -0.801812,0 -2.939968,2.53906 -5.078124,2.40543 -2.138158,-0.13364 -5.078121,-4.40995 -8.552627,-14.83346 -3.474503,-10.423511 -3.942225,-15.100727 -4.07586,-18.107511 -0.10746,-2.417841 -0.400904,-8.686258 2.539062,-9.220798 2.939965,-0.534538 8.285355,2.605877 8.68626,2.605877 0.400905,0 0.200451,-3.073599 0.200451,-4.009042 0,-0.935442 -0.400904,-8.68626 0.534538,-10.156243 0.935445,-1.469982 1.603619,-0.801806 1.603619,-2.806329 0,-2.00452 1.336346,-15.902535 4.009041,-19.64431 2.6727,-3.741774 16.97161,-17.238884 19.37704,-18.174327 2.40543,-0.935444 10.15624,-6.548104 27.52876,-5.211756 17.37252,1.336347 27.26149,10.156242 32.74052,14.56619 5.47902,4.409945 11.35895,12.695301 13.49711,20.579752 2.13816,7.884451 -2.13816,43.698567 -1.60362,43.832203 0.53454,0.133635 0.93545,-4.810853 2.53906,-4.677217 1.60362,0.133636 0.26727,10.022611 -0.26727,11.759861 -0.53453,1.73725 -2.80633,2.53906 -3.20723,5.07812 -0.4009,2.53906 -3.0736,14.96709 -3.87541,16.30344 -0.80181,1.33635 -2.00452,2.00452 -2.80633,3.20724 -0.80181,1.20271 -2.27179,7.08264 -3.74177,10.28987 -1.46998,3.20724 -4.67722,9.6217 -4.67722,9.6217 0,0 1.33635,-2.6727 0,0 -1.36544,2.73086 -2.40542,11.22532 -3.74177,13.36348 -1.33635,2.13815 -7.21628,2.67269 -9.08717,4.27631 -1.87088,1.60362 -15.90253,7.61718 -20.31248,9.62171 -4.40995,2.00452 -7.34991,4.54358 -11.35895,4.54358 -4.00905,0 -33.502662,-15.93434 -33.789767,-17.38842 z"
       id="path4776"
       inkscape:connector-curvature="0"
       sodipodi:nodetypes="csssssssssssssssssssssscsssssc" />
  </g>
  <g
     inkscape:groupmode="layer"
     id="layer3"
     inkscape:label="Face"
     style="display:inline">
    <path
       style="fill:#deaa87;fill-rule:evenodd;stroke:none;stroke-width:0.26458332px;stroke-linecap:butt;stroke-linejoin:miter;stroke-opacity:1"
       d="m 132.09796,140.7039 c 0.60136,-1.26952 6.1472,-2.60587 8.41899,-3.20723 2.27179,-0.60136 5.14494,-1.80407 6.28084,-1.80407 1.13589,0 5.34539,1.5368 6.48128,1.60362 1.1359,0.0668 2.53906,-0.73499 3.60814,-0.73499 1.06908,0 7.01583,5.07812 8.41899,5.41221 1.40317,0.33408 2.73951,0.66817 2.73951,1.26952 0,0.60136 0.13364,1.40317 -0.66817,1.67044 -0.80181,0.26727 -1.73725,-1.5368 -2.73951,-1.73725 -1.00226,-0.20045 -7.34992,-1.80407 -8.41899,-1.80407 -1.06908,0 -9.55489,-0.66818 -11.35896,-0.66818 -1.80407,0 -12.42803,0.13364 -12.76212,0 z"
       id="path4793"
       inkscape:connector-curvature="0" />
    <path
       style="fill:#d5ab90;fill-opacity:1;fill-rule:evenodd;stroke:none;stroke-width:0.26458332px;stroke-linecap:butt;stroke-linejoin:miter;stroke-opacity:1"
       d="m 132.56568,140.90436 c -0.0668,0.66817 6.74856,5.27857 10.02261,6.74855 3.27405,1.46999 5.27858,0.80181 8.48581,0.86863 3.20723,0.0668 7.21628,0.93544 9.02035,0.60136 1.80406,-0.33409 6.81537,-3.60814 6.5481,-4.54359 -0.26727,-0.93544 -7.01583,-3.0736 -10.15624,-3.20723 -3.14042,-0.13364 -9.08717,-0.53454 -11.55941,-0.53454 -2.47224,0 -12.02713,-0.0668 -12.36122,0.0668 z"
       id="path4795"
       inkscape:connector-curvature="0" />
    <path
       style="fill:#241f1c;fill-opacity:0.1027027;fill-rule:evenodd;stroke:none;stroke-width:0.26458332px;stroke-linecap:butt;stroke-linejoin:miter;stroke-opacity:1"
       d="m 135.82827,30.908703 c 0,0 -7.5389,2.21922 -7.5389,6.094628 0,3.875407 17.77343,16.570711 17.50615,17.907058 -0.26726,1.336347 -14.83345,-7.483547 -14.83345,-1.737252 0,5.746295 12.16076,12.695301 10.95805,14.165284 -1.20271,1.469982 -10.69078,-3.073599 -16.30344,0.801809 -5.61266,3.875407 -2.27179,7.483546 0.13363,7.216277 2.40543,-0.267271 7.34991,-2.405427 10.82442,-2.405427 3.4745,0 12.56166,4.543583 10.82441,5.479026 -1.73725,0.935445 -9.48807,-1.469983 -12.56166,-0.400905 -3.0736,1.069078 -10.02261,4.276312 -10.02261,6.280835 0,2.004521 2.40542,6.681738 7.61718,6.949006 5.21175,0.267272 17.63979,-2.53906 19.37704,-3.474503 1.73725,-0.935442 3.74177,2.539061 3.87541,6.1472 0.13363,3.608139 -1.20272,18.441601 -0.80181,21.515201 0.4009,3.07359 4.67722,5.74629 4.67722,6.81537 0,1.06908 -2.40543,1.73725 -3.74178,1.73725 -1.33635,0 -3.87541,0.4009 -5.34539,3.20723 -1.46998,2.80633 -2.40542,7.75082 -3.60814,7.75082 -1.20271,0 4.54359,2.13816 5.21176,2.6727 0.66817,0.53454 -1.87089,5.07812 -5.21176,4.81085 -3.34086,-0.26727 -6.28083,-0.66818 -6.28083,0.13363 0,0.80181 4.14268,5.34539 6.01356,5.61266 1.87089,0.26727 9.88898,-0.13363 9.48807,1.06908 -0.4009,1.20271 -2.27179,4.81085 -3.60814,4.94449 -1.33635,0.13363 -9.35443,0.13363 -11.22532,2.53906 -1.87088,2.40542 -3.60814,7.48354 -0.53453,9.75534 3.07359,2.27178 5.47902,-1.33635 6.949,-1.33635 1.46998,0 2.27179,4.27631 3.74178,4.40994 1.46998,0.13364 6.5481,-1.06907 8.55262,-2.13815 2.00452,-1.06908 5.21176,-6.01357 5.34539,-5.21176 0.13364,0.80181 -3.74177,7.61718 -12.02713,8.68626 -8.28535,1.06908 -18.97614,7.48355 -18.97614,7.48355 0,0 7.21628,-6.28084 6.41448,-6.81538 -0.80181,-0.53453 -4.14268,-2.93996 -6.28084,-1.46998 -2.13816,1.46998 -3.87541,3.47451 -6.01356,4.14268 -2.13816,0.66817 5.47902,6.1472 3.60814,7.61718 -1.87089,1.46999 -20.84703,-7.48354 -25.25698,-11.62622 -4.40994,-4.14268 -8.151715,-11.09169 -7.349906,-15.368 0.801806,-4.27631 2.672696,-12.42803 2.806326,-17.10525 0.13364,-4.67722 -0.86863,-20.84702 -1.80407,-20.84702 -0.935439,0 -2.334209,2.55482 -5.144933,2.33861 C 91.807081,118.98826 85.392613,103.0189 84.1899,95.936259 82.987189,88.853617 81.049483,76.82649 86.194423,76.692854 c 3.075464,-0.07988 6.013563,2.271792 7.483546,2.271792 1.469983,0 9.755341,-39.956795 19.377041,-45.168549 9.6217,-5.211758 22.77326,-5.159186 22.77326,-2.887394 z"
       id="path4779"
       inkscape:connector-curvature="0"
       sodipodi:nodetypes="cscssssssssssssssssssssssssssscsccssssssssssssc" />
    <path
       style="fill:#241f1c;fill-opacity:0.2;fill-rule:evenodd;stroke:none;stroke-width:0.26458332px;stroke-linecap:butt;stroke-linejoin:miter;stroke-opacity:1"
       d="m 149.40366,80.033724 c 0,0 2.2718,-0.53454 4.14268,-1.603618 1.87089,-1.069078 3.87541,-5.34539 4.40995,-4.543581 0.53454,0.801809 -0.4009,8.15172 -1.60362,9.220798 -1.20271,1.069078 -5.34539,4.543581 -5.47902,2.53906 -0.13364,-2.00452 -0.53454,-4.944485 -1.46999,-5.612659 z"
       id="path4781"
       inkscape:connector-curvature="0" />
    <path
       style="fill:#241f1c;fill-opacity:0.2;fill-rule:evenodd;stroke:none;stroke-width:0.26458332px;stroke-linecap:butt;stroke-linejoin:miter;stroke-opacity:1"
       d="m 162.09897,66.402978 c 1.33634,0.133633 0.87198,5.479024 0.87198,8.018084 0,2.539061 -0.73835,6.414469 -1.40652,6.414469 -0.66818,0 0.22141,-4.142677 0.35504,-7.216275 0.13364,-3.073601 -0.48868,-6.013566 0.1795,-7.216278 z"
       id="path4783"
       inkscape:connector-curvature="0"
       sodipodi:nodetypes="csssc" />
    <path
       style="fill:#52321f;fill-opacity:1;fill-rule:evenodd;stroke:none;stroke-width:0.26458332px;stroke-linecap:butt;stroke-linejoin:miter;stroke-opacity:1"
       d="m 162.09897,121.99504 c 0.66817,0.66817 4.20949,-1.93771 3.8754,-2.07134 -0.33408,-0.13363 -3.14041,1.20271 -3.8754,2.07134 z"
       id="path4785"
       inkscape:connector-curvature="0" />
    <path
       style="fill:#241f1c;fill-opacity:0.07058824;fill-rule:evenodd;stroke:none;stroke-width:0.26458332px;stroke-linecap:butt;stroke-linejoin:miter;stroke-opacity:1"
       d="m 163.50213,81.16962 c 1.1359,-0.53454 7.01583,-2.271792 10.22306,-2.004523 3.20724,0.267269 7.41673,5.545844 7.41673,6.949009 0,1.403165 0.20045,3.407685 -1.00226,3.207234 -1.20271,-0.200454 -2.73951,-1.403165 -4.54358,-1.33635 -1.80407,0.06682 -8.21854,2.004523 -8.21854,3.140419 0,1.135896 8.55262,4.142677 10.08942,4.142677 1.5368,0 3.74178,2.071338 4.87767,2.071338 1.1359,0 9.82216,-7.951266 10.08943,-7.349911 0.26727,0.601356 0.20045,5.34539 -0.73499,5.946748 -0.93545,0.601356 -11.1585,4.543579 -12.76212,6.080379 -1.60362,1.5368 -3.34087,9.15398 -8.08491,8.95353 -4.74403,-0.20045 -3.87541,-4.20949 -4.27631,-7.61718 -0.4009,-3.407687 -0.66817,-6.214017 -1.60362,-8.018086 -0.93544,-1.80407 -3.67495,-6.882191 -3.40768,-8.552625 0.26727,-1.670433 1.26953,-4.610399 1.9377,-5.612659 z"
       id="path4787"
       inkscape:connector-curvature="0"
       sodipodi:nodetypes="cssssssssssssssc" />
    <path
       style="fill:#52321f;fill-opacity:1;fill-rule:evenodd;stroke:none;stroke-width:0.26458332px;stroke-linecap:butt;stroke-linejoin:miter;stroke-opacity:1"
       d="m 132.69932,140.90436 c 0,0 6.34765,-0.86863 7.75081,-0.86863 1.40317,0 2.87315,-0.80181 4.07587,-0.73499 1.20271,0.0668 5.81311,1.26953 7.41672,1.26953 1.60362,0 2.93997,-0.53454 3.87541,-0.4009 0.93545,0.13363 3.67496,1.60361 5.07812,1.80407 1.40317,0.20045 3.14042,0.13363 4.47677,0.73499 1.33635,0.60135 1.87089,1.13589 1.40316,1.20271 -0.46772,0.0668 -1.46998,-1.20271 -3.00678,-1.20271 -1.5368,0 -5.27857,-1.46999 -7.41673,-1.46999 -2.13815,0 -4.87767,0.20046 -6.94901,0.20046 -2.07133,0 -5.27857,-0.26727 -7.21627,-0.26727 -1.93771,0 -8.88672,0.0668 -9.48807,-0.26727 z"
       id="path4797"
       inkscape:connector-curvature="0" />
    <path
       style="fill:#241f1c;fill-opacity:0.07027027;fill-rule:evenodd;stroke:none;stroke-width:0.26458332px;stroke-linecap:butt;stroke-linejoin:miter;stroke-opacity:1"
       d="m 123.09383,33.00297 c -1.20272,-1.403165 -8.30157,8.543942 -6.69795,13.488427 1.60362,4.944486 9.6217,13.563928 9.48807,15.83572 -0.13364,2.271792 -6.81538,8.352174 -7.88445,7.750815 -1.06908,-0.601355 2.67269,-7.082641 1.73725,-7.683997 -0.93545,-0.601356 -4.87767,-0.801809 -8.28536,2.071338 -3.40768,2.873148 -7.01582,12.561668 -4.14268,13.163024 2.87315,0.601358 8.35218,-6.815373 9.88898,-6.347651 1.5368,0.467723 7.34991,4.276312 6.1472,5.879931 -1.20272,1.603616 -3.00679,7.283092 -5.54585,7.216277 -2.53906,-0.06682 -5.0113,16.570706 -0.93544,17.840236 4.07586,1.26953 16.9048,-6.681735 19.44386,-4.476761 2.53906,2.204974 -10.22306,12.027131 -9.15398,14.766641 1.06907,2.73951 5.27857,-2.07134 5.87993,-0.86862 0.60135,1.20271 -6.88219,11.5594 -8.15172,15.83571 -1.26954,4.27632 -3.94223,12.09395 -2.93997,12.49486 1.00226,0.4009 4.34313,-11.09169 6.48129,-11.96032 2.13815,-0.86862 3.8754,2.13816 6.41447,2.2718 2.53906,0.13363 5.87993,-2.07135 5.47902,-3.74178 -0.4009,-1.67043 -6.74855,-3.74177 -6.08038,-5.81311 0.66817,-2.07134 6.88219,-18.57523 6.68174,-20.17885 -0.20045,-1.603618 -2.80633,-1.737253 -1.40317,-3.340869 1.40317,-1.603619 12.09395,-9.755338 12.76212,-9.020347 0.66817,0.734991 -6.48129,8.15172 -5.74629,9.822156 0.73499,1.670434 4.94448,12.89575 4.07586,13.69756 -0.86863,0.80181 -7.55037,-0.60135 -8.48581,2.33861 -0.93544,2.93997 -0.4009,7.95127 1.33635,8.35217 1.73725,0.40091 7.34991,0.53454 6.88219,2.33861 -0.46772,1.80407 -2.40543,9.75534 -4.74404,9.75534 -2.33861,0 -10.42351,0.4009 -12.49485,0.73499 -2.07133,0.33409 -9.02034,6.68174 -8.95353,8.88671 0.0668,2.20498 2.20498,3.67496 2.20498,5.01131 0,1.33634 -2.47224,1.00226 -1.67044,3.07359 0.80181,2.07134 13.29666,10.69079 14.23211,12.42804 0.93544,1.73725 -1.20272,3.80859 -3.74178,3.80859 -2.53906,0 -9.28761,0 -11.62622,1.5368 -2.33861,1.5368 -9.82216,-1.87089 -11.02487,-6.54811 -1.20271,-4.67721 -3.94223,-19.91157 -5.54584,-22.98517 -1.60362,-3.0736 -4.81085,-5.41221 -4.87767,-8.75308 -0.0668,-3.34087 -0.46772,-15.50163 -1.26953,-15.368 -0.80181,0.13364 -5.011305,3.00678 -5.746296,2.80633 -0.734992,-0.20045 4.075858,-5.47902 4.075858,-9.2208 0,-3.74177 -1.269529,-11.024866 -1.269529,-12.695299 0,-1.670436 0.734992,-13.363477 -0.400904,-15.301182 -1.135896,-1.937703 8.686261,-36.415472 13.296661,-41.627226 4.6104,-5.211757 11.24153,-11.083006 12.31061,-7.274413 z"
       id="path4789"
       inkscape:connector-curvature="0"
       sodipodi:nodetypes="csssssssssssssssssssssssssssssssssssssscsssssc" />
    <path
       style="fill:#784421;fill-opacity:0.53513513;fill-rule:evenodd;stroke:none;stroke-width:0.26458332px;stroke-linecap:butt;stroke-linejoin:miter;stroke-opacity:1"
       d="m 128.0221,131.21584 c 0.80181,3.4745 0.53454,5.07812 3.0736,5.07812 2.53906,0 16.70435,-3.60814 18.30796,-3.47451 1.60362,0.13364 1.33635,2.00453 2.13816,2.00453 0.80181,0 2.80633,-0.26727 4.00904,-0.26727 1.20272,0 9.2208,3.4745 10.82442,3.4745 1.60362,0 6.5481,-0.93544 5.61266,-1.87089 -0.93544,-0.93544 -10.69078,-4.14267 -11.49259,-5.34539 -0.80181,-1.20271 -2.80633,-4.40995 -4.14268,-4.40995 -1.33634,0 -2.53906,1.60362 -3.60814,1.60362 -1.06907,0 -1.60362,-2.13815 -3.20723,-2.13815 -1.60362,0 -9.2208,4.40995 -12.02713,4.40995 -2.80633,0 -8.41899,0.4009 -9.48807,0.93544 z"
       id="path4791"
       inkscape:connector-curvature="0" />
    <path
       style="fill:none;fill-rule:evenodd;stroke:none;stroke-width:0.26458332px;stroke-linecap:butt;stroke-linejoin:miter;stroke-opacity:1"
       d="m 139.24742,158.34369 c -1.13589,-0.66817 -11.49259,-7.55036 -11.02487,-10.42351 0.46773,-2.87315 1.93771,-5.94674 3.67496,-6.41447 1.73725,-0.46772 8.95353,6.28084 12.62849,6.88219 3.67495,0.60136 -5.27858,-0.60135 -6.08039,0.80181 -0.80181,1.40317 3.27406,6.1472 0.80181,9.15398 z"
       id="path4799"
       inkscape:connector-curvature="0" />
    <path
       style="fill:#deaa87;fill-opacity:1;fill-rule:evenodd;stroke:none;stroke-width:0.26458332px;stroke-linecap:butt;stroke-linejoin:miter;stroke-opacity:1"
       d="m 167.17709,121.19323 c 0.53454,0.4009 3.00678,6.1472 3.74177,7.75082 0.73499,1.60361 2.27179,2.67269 2.87315,5.21175 0.60136,2.53906 -0.13364,6.94901 -0.53454,6.94901 -0.4009,0 1.46998,-3.27405 0.0668,-6.48129 -1.40317,-3.20723 -3.40769,-6.41447 -4.00905,-7.75081 -0.60135,-1.33635 -2.47224,-5.61266 -2.13815,-5.67948 z"
       id="path4801"
       inkscape:connector-curvature="0" />
    <path
       style="fill:#52321f;fill-opacity:1;fill-rule:evenodd;stroke:none;stroke-width:0.26458332px;stroke-linecap:butt;stroke-linejoin:miter;stroke-opacity:1"
       d="m 155.01633,123.3982 c -0.0668,-0.26727 -0.60136,-1.40316 -2.33861,-2.53906 -1.73726,-1.13589 -3.20724,-3.14041 -4.6104,-3.14041 -1.40317,0 -3.34087,-0.26727 -3.27406,1.13589 0.0668,1.40317 8.95353,4.07586 10.22307,4.54358 z"
       id="path4811"
       inkscape:connector-curvature="0" />
  </g>
  <g
     inkscape:groupmode="layer"
     id="layer5"
     inkscape:label="Ear"
     style="display:inline">
    <path
       style="fill:#000000;fill-opacity:0.38918918;fill-rule:evenodd;stroke:none;stroke-width:0.26458332px;stroke-linecap:butt;stroke-linejoin:miter;stroke-opacity:1"
       d="m 93.210247,99.678034 c 0,-1.937705 2.472242,-6.481287 2.204974,-7.684 -0.267269,-1.202711 -0.601356,-2.138156 -1.670434,-1.403165 -1.069078,0.734991 -4.744035,6.481286 -4.409948,8.485809 0.334087,2.004522 4.409948,7.483542 6.548104,7.283092 2.138156,-0.20045 1.069078,-2.80633 0.200451,-3.4745 -0.868627,-0.66818 -2.80633,-1.46998 -2.873147,-3.207236 z"
       id="path4807"
       inkscape:connector-curvature="0" />
    <path
       style="fill:#000000;fill-opacity:0.23243243;fill-rule:evenodd;stroke:none;stroke-width:0.26458332px;stroke-linecap:butt;stroke-linejoin:miter;stroke-opacity:1"
       d="m 89.53529,106.96113 c 0.734991,0 -2.472243,-5.21176 -2.539061,-7.416732 -0.06682,-2.204974 3.140419,-10.557145 4.810853,-10.490327 1.670433,0.06682 1.870887,0.601356 2.53906,0.601356 0.668174,0 -0.06682,-2.939966 -1.336346,-2.939966 -1.269532,0 -4.209497,2.80633 -4.343131,2.071339 -0.133635,-0.734992 0.601356,-4.276313 2.204974,-4.075859 1.603616,0.200451 -2.271791,-5.879931 -4.610401,-5.078121 -2.338607,0.801809 -2.271789,7.149459 -1.536798,12.561667 0.734991,5.412208 3.340867,14.098463 4.81085,14.766643 z"
       id="path4809"
       inkscape:connector-curvature="0" />
  </g>
  <g
     inkscape:groupmode="layer"
     id="layer6"
     inkscape:label="Eyes"
     style="display:inline">
    <path
       style="fill:#241f1c;fill-opacity:0.46315789;fill-rule:evenodd;stroke:none;stroke-width:0.26458332px;stroke-linecap:butt;stroke-linejoin:miter;stroke-opacity:1"
       d="m 140.91786,83.240958 c 0,-0.267271 -6.01357,-1.202713 -8.08491,-1.00226 -2.07134,0.200451 -8.75307,1.737252 -8.61944,2.605876 0.13364,0.868627 6.68174,-2.071338 8.35217,-2.138156 1.67044,-0.06682 7.61719,1.00226 8.35218,0.53454 z"
       id="path4814"
       inkscape:connector-curvature="0" />
    <path
       style="fill:#241f1c;fill-opacity:0.46315789;fill-rule:evenodd;stroke:none;stroke-width:0.26458332px;stroke-linecap:butt;stroke-linejoin:miter;stroke-opacity:1"
       d="m 142.38784,88.385895 c 0.20045,-0.534538 0.46772,-1.804069 0,-1.937703 -0.46772,-0.133635 -4.14268,-3.140416 -8.15172,-3.274052 -4.00904,-0.133635 -8.0849,1.670434 -8.0849,2.338608 0,0.668176 1.67043,2.739514 3.14041,3.140418 1.46998,0.400905 3.47451,0.801807 3.20724,0.668174 -0.26727,-0.133636 -5.01131,-2.33861 -4.94449,-3.073601 0.0668,-0.734991 0.20045,-2.405425 5.67948,-2.204974 5.47902,0.200454 7.61718,2.405427 8.01808,2.806332 0.40091,0.400905 0.26727,1.536798 1.1359,1.536798 z"
       id="path4816"
       inkscape:connector-curvature="0" />
    <path
       style="fill:#241f1c;fill-opacity:0.52105266;fill-rule:evenodd;stroke:none;stroke-width:0.26458332px;stroke-linecap:butt;stroke-linejoin:miter;stroke-opacity:1"
       d="m 166.57573,88.987253 c 0,-0.53454 4.00904,-3.407688 7.61718,-3.073601 3.60814,0.334087 10.82442,3.942226 11.09169,4.744035 0.26727,0.801809 0.4009,3.674956 -0.33409,3.474503 -0.73499,-0.200451 -4.54358,-3.80859 -5.94675,-4.476763 -1.40316,-0.668174 -2.87314,-1.135896 -5.21175,-0.868627 -2.33861,0.267271 -4.67722,1.603618 -4.40995,2.138156 0.26727,0.53454 6.08038,3.407687 5.81311,3.407687 -0.26727,0 -7.14946,-1.603618 -7.08264,-2.873147 0.0668,-1.269532 5.27857,-3.808592 7.684,-3.474506 2.40543,0.33409 8.35217,4.677217 8.48581,3.942228 0.13363,-0.734991 -3.60814,-4.34313 -7.88445,-4.944488 -4.27632,-0.601355 -9.28762,2.80633 -9.82216,2.004523 z"
       id="path4818"
       inkscape:connector-curvature="0" />
    <path
       style="fill:#297780;fill-opacity:1;fill-rule:evenodd;stroke:none;stroke-width:0.99999994px;stroke-linecap:butt;stroke-linejoin:miter;stroke-opacity:1"
       d="m 503.70898,315.625 c -4.72277,0.12055 -9.94976,1.4627 -12.49414,2.19922 a 14.142135,14.142135 0 0 0 -1.29101,5.86914 14.142135,14.142135 0 0 0 14.14258,14.14062 14.142135,14.142135 0 0 0 14.14257,-14.14062 14.142135,14.142135 0 0 0 -1.13086,-5.50391 C 513.82991,317.09662 509.03791,315.73127 505,315.625 c -0.42411,-0.0112 -0.85549,-0.0111 -1.29102,0 z"
       transform="scale(0.26458333)"
       id="path4830"
       inkscape:connector-curvature="0" />
    <circle
       style="fill:#000000;fill-opacity:1;fill-rule:evenodd;stroke:#000000;stroke-width:0.26458332px;stroke-linecap:butt;stroke-linejoin:miter;stroke-opacity:1"
       id="path4828"
       cx="133.43431"
       cy="85.646385"
       r="1.6036172" />
    <path
       style="fill:#297780;fill-opacity:1;fill-rule:evenodd;stroke:none;stroke-width:0.99999994px;stroke-linecap:butt;stroke-linejoin:miter;stroke-opacity:1"
       d="m 662.4082,333.80469 c -4.0195,-0.14876 -12.09995,3.06794 -14.11328,3.76953 -0.34993,1.23546 -0.52997,2.51282 -0.53515,3.79687 8.3e-4,7.81007 6.3325,14.14087 14.14257,14.14063 7.81007,2.5e-4 14.14175,-6.33056 14.14258,-14.14063 -0.005,-1.13395 -0.14692,-2.26315 -0.42187,-3.36328 -4.37903,-1.58711 -8.82182,-4.04053 -13.21485,-4.20312 z"
       transform="scale(0.26458333)"
       id="circle4832"
       inkscape:connector-curvature="0"
       sodipodi:nodetypes="scccccs" />
    <circle
       r="1.6036172"
       cy="90.323601"
       cx="175.19518"
       id="circle4834"
       style="fill:#000000;fill-opacity:1;fill-rule:evenodd;stroke:#000000;stroke-width:0.26458332px;stroke-linecap:butt;stroke-linejoin:miter;stroke-opacity:1" />
  </g>
  <g
     inkscape:groupmode="layer"
     id="layer4"
     inkscape:label="Hair">
    <path
       style="fill:#000000;fill-rule:evenodd;stroke:#000000;stroke-width:0.26458332px;stroke-linecap:butt;stroke-linejoin:miter;stroke-opacity:1;fill-opacity:1"
       d="m 98.822906,89.655427 c 1.536804,0.601355 4.343134,-1.670437 4.677214,-4.075862 0.33409,-2.405425 -0.4009,-10.757598 1.1359,-13.363477 1.5368,-2.605875 3.67495,-8.619439 8.41899,-10.289875 4.74403,-1.670434 -2.93997,-7.884451 -0.33409,-15.234362 2.60588,-7.349913 2.07134,-12.093948 12.56167,-15.100728 10.49033,-3.006784 26.79377,1.269529 31.87189,1.804069 5.07812,0.534538 10.35669,-1.937705 14.90028,-0.334087 4.54358,1.603616 11.69304,8.552625 14.90027,14.766639 3.20724,6.214018 4.6104,9.755339 5.34539,17.305703 0.73499,7.550364 -0.66817,24.321526 0.26727,24.789248 0.93544,0.467723 3.20724,-28.597838 1.40317,-34.010046 -1.80407,-5.412208 -4.54358,-14.900278 -14.16529,-22.383824 -9.6217,-7.483546 -17.7066,-13.49711 -35.48003,-14.432553 -17.77342,-0.935444 -22.91836,4.343129 -27.39512,7.283094 -4.47677,2.939965 -14.36574,12.628485 -17.105252,17.773424 -2.739514,5.144937 -3.207234,18.241145 -3.87541,19.577492 -0.668173,1.336347 -1.804069,1.603618 -1.804069,2.739512 0,1.135896 -0.801807,11.425774 -0.133633,12.494852 0.668173,1.069078 2.672694,1.536798 3.808589,4.476763 1.135896,2.939966 0.400905,5.679477 1.002261,6.214018 z"
       id="path4804"
       inkscape:connector-curvature="0" />
  </g>
  <g
     inkscape:groupmode="layer"
     id="layer7"
     inkscape:label="Glasses"
     style="display:inline">
    <path
       style="fill:#000000;fill-opacity:1;fill-rule:evenodd;stroke:#000000;stroke-width:1.19250631px;stroke-linecap:butt;stroke-linejoin:miter;stroke-opacity:1"
       d="m 514.92578,262.68555 a 63.543357,63.543357 0 0 0 -63.54297,63.54297 63.543357,63.543357 0 0 0 63.54297,63.54296 63.543357,63.543357 0 0 0 63.54297,-63.54296 63.543357,63.543357 0 0 0 -63.54297,-63.54297 z m 0,10.25781 a 53.285544,53.285544 0 0 1 53.28516,53.28516 53.285544,53.285544 0 0 1 -53.28516,53.28515 53.285544,53.285544 0 0 1 -53.28516,-53.28515 53.285544,53.285544 0 0 1 53.28516,-53.28516 z m 164.14844,11.20312 a 63.042975,63.042975 0 0 0 -63.04297,63.04297 63.042975,63.042975 0 0 0 63.04297,63.04297 63.042975,63.042975 0 0 0 63.04297,-63.04297 63.042975,63.042975 0 0 0 -63.04297,-63.04297 z m 0,9.75782 a 53.285544,53.285544 0 0 1 53.28711,53.28515 53.285544,53.285544 0 0 1 -53.28711,53.28516 53.285544,53.285544 0 0 1 -53.28516,-53.28516 53.285544,53.285544 0 0 1 53.28516,-53.28515 z"
       transform="scale(0.26458333)"
       id="circle4841"
       inkscape:connector-curvature="0" />
    <path
       style="fill:#000000;fill-opacity:1;fill-rule:evenodd;stroke:#000000;stroke-width:0.26458332px;stroke-linecap:butt;stroke-linejoin:miter;stroke-opacity:1"
       d="m 119.9372,88.987253 c 0,0 -1.26953,-2.271792 -2.13816,-2.605878 -0.86862,-0.334087 -22.517455,-5.879931 -23.252447,-6.681738 -0.734991,-0.801809 -1.069078,-2.405427 0.200454,-2.405427 1.269529,0 20.847023,5.278575 21.648833,5.278575 0.80181,0 5.94675,-4.075861 5.67948,-3.140419 -0.26727,0.935445 -2.33861,8.151722 -2.13816,9.554887 z"
       id="path4847"
       inkscape:connector-curvature="0" />
    <path
       style="fill:#000000;fill-opacity:1;fill-rule:evenodd;stroke:#000000;stroke-width:0.26458332px;stroke-linecap:butt;stroke-linejoin:miter;stroke-opacity:1"
       d="m 151.74227,90.924956 c 0.66818,-0.334087 3.60814,-3.875408 6.01357,-3.674954 2.40542,0.200451 3.94222,1.737251 4.67721,2.672693 0.73499,0.935443 0.84964,3.498584 1.71826,3.097682 0.86863,-0.400905 1.53484,-5.775126 1.13393,-6.242845 -0.4009,-0.467723 -0.84767,-2.267045 -4.38899,-2.801582 -3.54132,-0.534541 -10.62396,-0.668174 -10.62396,0.133633 0,0.801809 1.46998,6.815373 1.46998,6.815373 z"
       id="path4849"
       inkscape:connector-curvature="0"
       sodipodi:nodetypes="cssscssc" />
    <path
       style="fill:#000000;fill-opacity:1;fill-rule:evenodd;stroke:#000000;stroke-width:0.26458332px;stroke-linecap:butt;stroke-linejoin:miter;stroke-opacity:1"
       d="m 193.50313,97.606695 c 0.86863,-1.069078 2.20498,-1.870887 3.14042,-2.004523 0.93545,-0.133633 2.27179,0.734992 2.73952,0.400905 0.46772,-0.334087 0.93544,-1.804069 0.73499,-2.405425 -0.20046,-0.601355 -2.47225,-1.202714 -3.20724,-1.670434 -0.73499,-0.467722 -2.80633,-4.209497 -2.80633,-3.674956 0,0.534538 -0.60136,9.354433 -0.60136,9.354433 z"
       id="path4851"
       inkscape:connector-curvature="0" />
  </g>
  <g
     inkscape:groupmode="layer"
     id="layer8"
     inkscape:label="Suit">
    <path
       style="fill:#252e33;fill-rule:evenodd;stroke:none;stroke-width:0.26458332px;stroke-linecap:butt;stroke-linejoin:miter;stroke-opacity:1;fill-opacity:1"
       d="m 95.281586,165.29271 36.081384,19.6443 43.4313,-20.44612 -45.30219,100.09244 -37.016825,0 z"
       id="path4916"
       inkscape:connector-curvature="0"
       sodipodi:nodetypes="cccccc" />
    <path
       style="fill:#607884;fill-opacity:1;fill-rule:evenodd;stroke:none;stroke-width:0.26458332px;stroke-linecap:butt;stroke-linejoin:miter;stroke-opacity:1"
       d="m 127.53874,181.46251 c 1.60362,-0.26727 4.29809,-0.10793 5.78429,0.1026 1.68409,0.23855 3.91987,7.24731 3.2517,8.18275 -0.66818,0.93545 -3.74178,5.7463 -3.74178,7.61718 0,1.87089 2.13816,11.09169 1.60362,14.16529 -0.53454,3.0736 -22.71791,53.053 -22.71791,53.053 l -11.62622,0 c 0,0 0.13363,-26.32605 0.66817,-29.39965 0.53454,-3.0736 21.5152,-37.15046 21.9161,-39.95679 0.40091,-2.80633 0.80181,-4.54358 1.20272,-6.01357 0.4009,-1.46998 1.92206,-8.01808 3.65931,-7.75081 z"
       id="path4906"
       inkscape:connector-curvature="0"
       sodipodi:nodetypes="cssssccsssc" />
    <path
       style="fill:#3f4f57;fill-rule:evenodd;stroke:none;stroke-width:0.26458332px;stroke-linecap:butt;stroke-linejoin:miter;stroke-opacity:1;fill-opacity:1"
       d="m 107.70962,211.93123 c 1.87088,0 13.22984,-21.51519 16.16981,-23.65335 2.93996,-2.13815 6.68173,-5.21176 5.47902,-7.61718 -1.20271,-2.40543 -15.7689,-3.74178 -22.58428,-13.63075 -6.815368,-9.88897 -5.07812,-20.17885 -6.14719,-19.2434 -1.069083,0.93544 -4.40995,5.21175 -4.40995,11.89349 0,6.68174 8.68626,50.24667 11.49259,52.25119 z"
       id="path4902"
       inkscape:connector-curvature="0" />
    <path
       style="fill:#3f4f57;fill-opacity:1;fill-rule:evenodd;stroke:none;stroke-width:0.26458332px;stroke-linecap:butt;stroke-linejoin:miter;stroke-opacity:1"
       d="m 132.16478,181.46251 c 0,-1.60362 19.37704,-8.28536 24.18789,-10.42351 4.81085,-2.13816 16.43708,-10.55715 16.30344,-9.75534 -0.13363,0.80181 -16.97161,17.23888 -21.38156,22.58427 -4.40995,5.34539 -9.75534,14.9671 -10.42351,14.9671 -0.66817,0 -7.34991,-16.16981 -8.68626,-17.37252 z"
       id="path4904"
       inkscape:connector-curvature="0"
       sodipodi:nodetypes="cscssc" />
    <path
       style="fill:#2f2622;fill-rule:evenodd;stroke:none;stroke-width:0.26458332px;stroke-linecap:butt;stroke-linejoin:miter;stroke-opacity:1;fill-opacity:1"
       d="m 178.93695,154.86919 c 0,0 4.94448,-1.20271 12.2944,1.33635 7.34991,2.53906 12.82893,7.34991 15.90253,7.21627 3.0736,-0.13363 6.1472,-1.87088 12.02713,-1.73725 5.87993,0.13364 32.87415,9.62171 34.07687,11.62623 1.20271,2.00452 11.34544,29.93418 11.34544,29.93418 l 0,61.33836 -99.27712,0 0.40091,-74.03366 z"
       id="path4910"
       inkscape:connector-curvature="0" />
    <path
       style="fill:#332a25;fill-opacity:1;fill-rule:evenodd;stroke:none;stroke-width:0.26458332px;stroke-linecap:butt;stroke-linejoin:miter;stroke-opacity:1"
       d="m 176.54773,148.87184 c 2.53906,-0.40091 7.46734,26.04256 9.73913,31.12069 2.27179,5.07812 7.21627,15.23436 6.41447,16.30344 -0.80181,1.06907 -20.71339,3.4745 -20.04522,4.14267 0.66818,0.66818 32.60689,-3.60813 34.47777,-2.13815 1.87089,1.46998 -10.42351,28.0633 -21.24792,40.89224 -10.82442,12.82893 -20.04522,25.3906 -20.04522,25.3906 l -55.7257,0 c 0,0 16.57072,-39.42225 20.44612,-46.37126 3.87541,-6.94901 10.55715,-23.25245 14.03165,-27.79603 3.47451,-4.54358 23.78699,-24.1879 25.52424,-27.26149 1.73725,-3.07361 6.43068,-14.28271 6.43068,-14.28271 z"
       id="path4908"
       inkscape:connector-curvature="0"
       sodipodi:nodetypes="csssssccsssc" />
    <path
       style="fill:#2f2622;fill-rule:evenodd;stroke:none;stroke-width:0.26458332px;stroke-linecap:butt;stroke-linejoin:miter;stroke-opacity:1;fill-opacity:1"
       d="m 85.392613,165.42634 c 0,0 -6.949008,-1.60362 -15.367997,-1.46999 -8.418991,0.13364 -18.441598,4.14268 -24.321526,4.81085 -5.879931,0.66818 -22.851546,3.74178 -27.662397,8.68627 C 13.229841,182.39795 0,223.29019 0,223.29019 l 0,41.29314 82.185379,0 c 0,0 12.695301,-69.22281 10.423512,-74.70183 -2.271792,-5.47903 -7.216278,-24.45516 -7.216278,-24.45516 z"
       id="path4914"
       inkscape:connector-curvature="0" />
    <path
       style="fill:#332a25;fill-opacity:1;fill-rule:evenodd;stroke:none;stroke-width:0.26458332px;stroke-linecap:butt;stroke-linejoin:miter;stroke-opacity:1"
       d="m 96.627429,156.79404 c 0.935445,1.06908 0.124138,43.37734 1.059583,51.52906 0.935443,8.15172 5.612658,56.26023 5.612658,56.26023 l -26.593317,0 c 0,0 -19.243405,-61.07109 -18.174327,-64.54559 1.069079,-3.4745 29.266012,-3.60814 29.266012,-5.21175 0,-1.60362 -23.786988,0.93544 -23.786988,-1.73726 0,-2.67269 11.358956,-20.84702 14.967095,-24.58879 3.608139,-3.74178 16.312937,-9.03321 17.649284,-11.7059 z"
       id="path4912"
       inkscape:connector-curvature="0"
       sodipodi:nodetypes="csccssssc" />
  </g>
</svg>
