<?xml version="1.0" encoding="UTF-8" standalone="no"?>
<!-- Created with Inkscape (http://www.inkscape.org/) -->

<svg
   xmlns:dc="http://purl.org/dc/elements/1.1/"
   xmlns:cc="http://creativecommons.org/ns#"
   xmlns:rdf="http://www.w3.org/1999/02/22-rdf-syntax-ns#"
   xmlns:svg="http://www.w3.org/2000/svg"
   xmlns="http://www.w3.org/2000/svg"
   xmlns:sodipodi="http://sodipodi.sourceforge.net/DTD/sodipodi-0.dtd"
   xmlns:inkscape="http://www.inkscape.org/namespaces/inkscape"
   width="1280"
   height="720"
   viewBox="0 0 338.66666 190.50001"
   id="svg2"
   version="1.1"
   inkscape:version="0.92.1 r15371"
   sodipodi:docname="david-singleton-video-thumbnail.svg"
   inkscape:export-filename="C:\Users\Anthony Garone\Documents\GitHub\art\david-singleton\discover\david-singleton-video-thumbnail.png"
   inkscape:export-xdpi="96"
   inkscape:export-ydpi="96">
  <defs
     id="defs4">
    <linearGradient
       id="linearGradient5627">
      <stop
         style="stop-color:#f80000;stop-opacity:1"
         id="stop5629"
         offset="0" />
      <stop
         style="stop-color:#e69595;stop-opacity:1"
         id="stop5631"
         offset="1" />
    </linearGradient>
    <linearGradient
       id="linearGradient5619">
      <stop
         style="stop-color:#000000;stop-opacity:1"
         id="stop5621"
         offset="0" />
      <stop
         style="stop-color:#000000;stop-opacity:0"
         id="stop5623"
         offset="1" />
    </linearGradient>
    <linearGradient
       id="linearGradient4838">
      <stop
         style="stop-color:#606060;stop-opacity:1"
         id="stop4840"
         offset="0" />
      <stop
         style="stop-color:#ffffff;stop-opacity:1"
         id="stop4842"
         offset="1" />
    </linearGradient>
    <linearGradient
       id="linearGradient4776">
      <stop
         style="stop-color:#c9c9c9;stop-opacity:1"
         offset="0"
         id="stop4778" />
      <stop
         style="stop-color:#555555;stop-opacity:1"
         offset="1"
         id="stop4780" />
    </linearGradient>
    <linearGradient
       id="linearGradient4760">
      <stop
         style="stop-color:#000000;stop-opacity:1"
         offset="0"
         id="stop4762" />
      <stop
         style="stop-color:#555555;stop-opacity:1"
         id="stop4764"
         offset="0.52" />
      <stop
         style="stop-color:#000000;stop-opacity:1"
         offset="1"
         id="stop4766" />
    </linearGradient>
    <linearGradient
       id="linearGradient4744">
      <stop
         style="stop-color:#000000;stop-opacity:1"
         id="stop4746"
         offset="0" />
      <stop
         style="stop-color:#555555;stop-opacity:1"
         offset="0.65"
         id="stop4748" />
      <stop
         style="stop-color:#000000;stop-opacity:1"
         id="stop4750"
         offset="1" />
    </linearGradient>
    <linearGradient
       id="linearGradient4728">
      <stop
         style="stop-color:#000000;stop-opacity:1"
         offset="0"
         id="stop4730" />
      <stop
         style="stop-color:#555555;stop-opacity:1"
         id="stop4732"
         offset="0.72" />
      <stop
         style="stop-color:#000000;stop-opacity:1"
         offset="1"
         id="stop4734" />
    </linearGradient>
    <linearGradient
       id="linearGradient4708">
      <stop
         style="stop-color:#000000;stop-opacity:1"
         id="stop4710"
         offset="0" />
      <stop
         style="stop-color:#555555;stop-opacity:1"
         offset="0.5"
         id="stop4718" />
      <stop
         style="stop-color:#000000;stop-opacity:1"
         id="stop4712"
         offset="1" />
    </linearGradient>
    <linearGradient
       id="linearGradient4679">
      <stop
         style="stop-color:#000000;stop-opacity:1"
         id="stop4681"
         offset="0" />
      <stop
         style="stop-color:#555555;stop-opacity:1"
         id="stop4683"
         offset="1" />
    </linearGradient>
  </defs>
  <sodipodi:namedview
     id="base"
     pagecolor="#ffffff"
     bordercolor="#666666"
     borderopacity="1.0"
     inkscape:pageopacity="0.0"
     inkscape:pageshadow="2"
     inkscape:zoom="0.98994949"
     inkscape:cx="679.71834"
     inkscape:cy="317.56339"
     inkscape:document-units="px"
     inkscape:current-layer="layer4"
     showgrid="false"
     units="px"
     inkscape:window-width="1920"
     inkscape:window-height="1017"
     inkscape:window-x="-8"
     inkscape:window-y="-8"
     inkscape:window-maximized="1" />
  <metadata
     id="metadata7">
    <rdf:RDF>
      <cc:Work
         rdf:about="">
        <dc:format>image/svg+xml</dc:format>
        <dc:type
           rdf:resource="http://purl.org/dc/dcmitype/StillImage" />
        <dc:title />
      </cc:Work>
    </rdf:RDF>
  </metadata>
  <g
     inkscape:label="Gray BG"
     inkscape:groupmode="layer"
     id="layer1"
     transform="translate(0,-106.49999)">
    <rect
       style="opacity:1;fill:#596268;fill-opacity:1;stroke:none;stroke-width:16.0535984;stroke-miterlimit:4;stroke-dasharray:none;stroke-opacity:1"
       id="rect4141"
       width="338.66669"
       height="190.5"
       x="1.4210855e-14"
       y="106.49999" />
  </g>
  <g
     inkscape:groupmode="layer"
     id="layer5"
     inkscape:label="Residents">
    <g
       id="g969"
       transform="matrix(0.58365382,0,0,0.58365382,8.8770228,-7.5813189)">
      <g
         style="display:none"
         transform="translate(0,-32.41665)"
         id="layer1-1"
         inkscape:label="BG">
        <rect
           style="fill:#ffffff;fill-opacity:1;stroke-width:0.26458332"
           y="32.416641"
           x="0"
           height="264.58334"
           width="264.58334"
           id="rect4493" />
      </g>
      <g
         inkscape:label="Hand"
         id="layer2-4">
        <path
           inkscape:connector-curvature="0"
           id="path4607"
           d="m 96.478422,195.03571 c 0,0 -8.882441,2.36235 -11.622767,3.77976 -2.740329,1.41741 -8.220983,5.29167 -13.323663,7.74852 -5.102677,2.45684 -6.709076,3.68526 -12.284225,10.67782 -5.575149,6.99256 -7.276042,11.24479 -8.315476,18.42634 -1.039434,7.18155 0.850448,12.56771 0.661458,15.59152 -0.188989,3.02381 -0.09449,6.70908 -1.133927,10.01637 -1.039437,3.30729 -1.700895,3.30729 -1.700895,3.30729 h 38.459079 c 0,0 12.000743,-64.16146 9.260416,-69.54762 z"
           style="fill:#333333;stroke:none;stroke-width:0.26458332px;stroke-linecap:butt;stroke-linejoin:miter;stroke-opacity:1" />
        <path
           inkscape:connector-curvature="0"
           id="path4629"
           d="m 95.155506,212.23363 -0.0945,-11.43378 2.929315,-8.22098 1.6064,16.15848 z"
           style="fill:#1a1a1a;fill-opacity:1;stroke:none;stroke-width:0.26458332px;stroke-linecap:butt;stroke-linejoin:miter;stroke-opacity:1" />
        <path
           inkscape:connector-curvature="0"
           id="path4609"
           d="m 96.950891,214.69047 c 0,0 1.13393,-11.52827 0.850448,-16.72544 -0.283483,-5.19717 -1.322917,-12.28423 -1.984375,-14.83557 -0.661458,-2.55134 -1.417413,-5.85863 -2.834823,-8.40997 -1.41741,-2.55134 39.781999,6.3311 39.781999,6.3311 l -7.08706,46.77456 -25.985862,13.51265 z"
           style="fill:#d38d5f;stroke:none;stroke-width:0.26458332px;stroke-linecap:butt;stroke-linejoin:miter;stroke-opacity:1" />
        <path
           sodipodi:nodetypes="cssccssscsssccc"
           inkscape:connector-curvature="0"
           id="path4605"
           d="m 124.63765,198.62649 c 0,0 -14.3631,5.10267 -16.06399,9.4494 -1.70089,4.34673 0.28348,9.16592 0.28348,10.96131 0,1.79539 -4.06324,6.80357 -5.29167,11.52827 -1.22842,4.7247 -1.98437,5.29167 -1.88988,3.2128 0.0945,-2.07887 1.7009,-6.4256 0.75596,-10.67783 -0.94494,-4.25223 -2.36235,-7.55952 -4.535718,-11.71726 -2.173364,-4.15774 -2.456844,-5.48065 -2.456844,-8.03199 0,-2.55134 2.595226,-10.52127 1.933768,-10.04879 -0.661458,0.47246 -2.689722,5.22959 -3.067698,9.19834 -0.377976,3.96875 -0.09449,10.39435 -0.09449,13.13467 0,2.74033 -5.764139,18.23735 -7.748514,24.75744 -1.984375,6.52009 -7.276041,24.19048 -7.276041,24.19048 h 44.506697 c 0,0 11.62276,-60.57068 0.94494,-65.95684 z"
           style="fill:#f9f9f9;stroke:none;stroke-width:0.26458332px;stroke-linecap:butt;stroke-linejoin:miter;stroke-opacity:1" />
        <path
           inkscape:connector-curvature="0"
           id="path4603"
           d="m 200.13839,162.05729 c 0,0 8.97693,2.17336 12.18973,4.7247 3.2128,2.55134 13.60714,11.81176 17.29241,20.03274 3.68527,8.22098 11.81176,26.08036 11.90625,28.06473 0.0945,1.98438 1.88988,15.59152 -0.37797,19.56027 -2.26786,3.96875 -7.84301,15.875 -9.07143,18.61533 -1.22842,2.74032 -6.61458,11.52827 -6.61458,11.52827 H 98.74628 c 0,0 6.04762,-24.28497 10.58333,-29.19866 4.53572,-4.91369 17.67039,-23.62351 18.42634,-25.22991 0.75595,-1.6064 72.38244,-48.09747 72.38244,-48.09747 z"
           style="fill:#262626;fill-opacity:1;stroke:none;stroke-width:0.26458332px;stroke-linecap:butt;stroke-linejoin:miter;stroke-opacity:1" />
        <path
           inkscape:connector-curvature="0"
           id="path4601"
           d="m 168.38839,147.41071 c 0,0 8.31548,-0.85044 12.7567,-0.0945 4.44122,0.75595 16.06398,7.74851 22.48958,16.15848 6.42559,8.40997 12.94568,16.53646 16.81994,18.9933 3.87426,2.45685 7.27604,3.02381 7.27604,4.15774 0,1.13393 -2.55134,15.30804 -3.1183,18.42634 -0.56696,3.1183 -3.87426,5.76414 -3.96875,4.25223 -0.0945,-1.5119 1.79539,-5.48065 0.94494,-6.99256 -0.85045,-1.5119 -4.06324,-5.10268 -4.44122,-8.31547 -0.37798,-3.2128 -1.13393,-7.74851 -1.88988,-6.70908 -0.75595,1.03943 2.36235,12.47321 2.92931,14.2686 0.56697,1.79539 -3.59077,2.74033 -3.77976,5.85863 -0.18899,3.11831 1.98438,6.52009 1.41741,7.74851 -0.56696,1.22843 -7.08705,13.79613 -16.25297,18.99331 -9.16593,5.19717 -41.19941,5.48065 -54.52307,-5.10268 -13.32366,-10.58333 -16.63095,-17.29241 -19.18229,-24.28497 -2.55134,-6.99256 -3.40179,-11.62277 -2.92931,-15.96949 0.47246,-4.34673 2.9293,-37.32516 45.45163,-41.3884 z"
           style="fill:#1a1a1a;stroke:none;stroke-width:0.26458332px;stroke-linecap:butt;stroke-linejoin:miter;stroke-opacity:1" />
        <path
           inkscape:connector-curvature="0"
           id="path4611"
           d="m 145.39462,95.936259 c 0,0 4.75642,2.573785 5.70136,2.762771 0.94494,0.18899 1.88988,0.33073 1.88988,0.33073 0,0 -2.36235,-0.09449 -1.74814,0.472471 0.61421,0.566959 2.64583,3.968749 3.9215,4.819199 1.27567,0.85044 1.32292,1.98437 1.32292,1.98437 0,0 -1.70089,-1.32292 -1.27567,-0.37797 0.42523,0.94494 1.7009,2.74032 1.7009,2.74032 0,0 -0.8977,-0.8032 -0.8977,1.13393 0,1.93713 1.13393,3.68527 1.13393,5.33892 0,1.65364 -1.41741,3.77976 -1.41741,3.77976 z"
           style="fill:#333333;stroke:none;stroke-width:0.26458332px;stroke-linecap:butt;stroke-linejoin:miter;stroke-opacity:1" />
        <path
           sodipodi:nodetypes="csscscccsssssssssscssssssssccssssssscscssssscscssscc"
           inkscape:connector-curvature="0"
           id="path4534"
           d="m 143.791,190.2824 c -1.87088,-2.00452 -12.16076,-10.82441 -14.83346,-10.82441 -2.67269,0 -8.15172,3.4745 -10.15624,3.4745 -2.00452,0 -22.58427,-3.20723 -24.187889,-4.14268 -1.603615,-0.93544 -3.474503,0.93545 -7.082641,-0.66817 -3.608139,-1.60362 -12.828937,-6.1472 -19.510677,-6.81537 -6.681737,-0.66818 -14.298919,-1.60362 -15.635266,-3.20724 -1.336347,-1.60361 -8.68626,-7.88445 -17.238884,-9.48807 -8.552625,-1.60361 -5.238578,-10.06632 7.565366,-9.68834 12.803944,0.37797 34.525505,9.58083 40.17756,4.24707 C 88.540922,147.83594 71.957217,119.7712 70.445312,116.51116 68.933406,113.25111 57.310638,95.911457 54.617558,92.131694 51.924479,88.351933 46.916294,78.666294 45.451635,75.595236 43.986979,72.52418 37.844864,58.869791 37.277902,55.562499 c -0.566965,-3.307291 -1.653646,-11.670014 5.338913,-10.29985 6.992559,1.370163 14.315848,20.032736 15.497024,22.158854 1.181174,2.126114 7.370535,10.488837 9.921875,13.937871 2.551338,3.449032 12.945684,18.615326 15.024552,18.804316 2.078869,0.18899 4.110493,-0.614212 3.401785,-2.929316 -0.708705,-2.315104 -1.275667,-5.291667 -3.9215,-9.827382 -2.645834,-4.535715 -7.087055,-11.90625 -10.3471,-18.662573 -3.260045,-6.756326 -6.756323,-18.001117 -8.362723,-21.591891 -1.606399,-3.590772 -6.66183,-15.969493 -7.039805,-19.135042 -0.377976,-3.165552 -1.322917,-6.85082 0.708705,-9.07143 2.031621,-2.22061 5.197173,-4.110491 8.409969,-1.086682 3.212798,3.02381 10.583333,21.686383 11.528274,23.765254 0.944941,2.078868 8.457218,16.158482 10.394346,19.890996 1.937129,3.732514 10.866816,23.576264 12.378723,24.710194 1.5119,1.133928 3.02381,1.41741 2.59858,-0.661458 -0.42522,-2.078871 -7.181545,-17.623142 -8.079237,-19.607517 -0.897694,-1.984375 -4.015999,-9.921875 -5.24442,-13.370906 -1.228423,-3.449034 -7.9375,-17.528646 -9.354912,-20.97768 -1.41741,-3.449032 -5.24442,-10.866814 -4.063244,-14.552082 1.181177,-3.685268 3.921504,-5.480655 7.843007,-2.740327 3.921503,2.740327 8.835194,12.898437 11.150298,17.103422 2.315104,4.204986 11.292038,22.53683 12.284228,24.473958 0.99219,1.937129 7.70126,22.39509 10.01637,24.568452 2.3151,2.173364 6.61458,5.905878 7.89025,1.464659 1.27567,-4.441222 0.37798,-11.811757 -0.0472,-17.906624 -0.42522,-6.094865 -3.2128,-18.804313 -3.49628,-23.623511 -0.28348,-4.819197 -3.02381,-15.0718 3.02381,-14.59933 6.04762,0.47247 8.59896,9.260417 10.01637,15.213542 1.41741,5.953125 4.39397,25.040923 5.71689,30.285341 1.32292,5.244419 1.03943,11.670016 2.17336,14.693825 1.13393,3.023809 6.37835,14.552088 9.16593,19.654758 2.78757,5.10268 10.05697,32.01719 12.16278,35.75785 2.10582,3.74067 4.94064,6.33925 7.86995,9.5048 2.92932,3.16555 8.47032,7.66604 10.73163,10.75471 2.26131,3.08867 15.58496,19.15266 16.10468,22.17647 0.51972,3.02381 -0.56696,9.02418 -10.20535,11.76451 -9.6384,2.74033 -33.9465,6.5013 -39.46284,-2.20639 0,0 -2.5608,-0.16621 -5.21459,-3.11389 z"
           style="fill:#fcc59f;fill-opacity:1;stroke:none;stroke-width:0.26458332px;stroke-linecap:butt;stroke-linejoin:miter;stroke-opacity:1" />
        <path
           sodipodi:nodetypes="cccccscsscccscccczcccsssccscscc"
           inkscape:connector-curvature="0"
           id="path4568"
           transform="scale(0.26458333)"
           d="m 115.66211,581.29102 c -0.10784,0.15577 -0.20817,0.31809 -0.29883,0.48632 -2.13765,7.54801 3.43943,15.06605 17.47266,17.69727 32.32488,6.06093 60.10353,29.79849 65.15429,35.85937 5.05076,6.06093 33.83995,9.59765 59.09375,12.12305 25.25382,2.52537 60.10318,19.69689 73.74024,25.75781 13.63706,6.06093 20.70862,-1.01013 26.76953,2.52539 6.06092,3.53556 83.84378,15.65821 91.41992,15.65821 7.57614,0 28.28326,-13.13282 38.38477,-13.13282 10.10154,0 48.99341,33.33598 56.06445,40.91211 5.56916,12.79421 13.75992,10.32501 21.21289,16.16211 22.72845,18.68784 61.6185,23.73791 93.94336,22.22266 32.32486,-1.51521 92.72077,-24.76343 99.79185,-45.47154 3.49888,-10.24672 -15.96145,-31.65829 -22.99107,-42.44838 -2.78447,-3.82004 -5.75974,-7.80426 -8.86328,-11.88281 -4.27669,-5.09016 -7.61558,-11.94373 -8.99052,-13.01312 -8.89788,26.28889 -22.06679,59.49181 -40.25791,74.42997 -17.17259,13.13197 -44.3231,1.189 -65.66137,-14.14097 -21.33827,-15.32997 -31.62899,-46.4149 -27.27379,-70.71143 -2.02031,-18.18274 28.28524,-15.65669 45.96289,-19.69727 17.67768,-4.04061 11.1113,-25.7594 8.58594,-29.29492 -2.52541,-3.53552 -5.55589,8.08245 -10.10157,14.64844 -4.54567,6.56598 -19.19263,10.60663 -38.89062,7.57617 -19.69796,-3.03046 -32.82973,2.52384 -41.41602,6.56445 -8.58629,4.04062 6.06058,14.14257 13.63672,16.66797 -6.77412,32.66188 -33.44173,25.13546 -59.09375,32.32422 -17.67764,5.05077 -103.54067,-15.15234 -117.17773,-15.15234 -13.63707,0 -68.18683,-0.50468 -97.98633,-6.06055 -29.7995,-5.55583 -54.54771,-16.66603 -67.67969,-26.76758 -13.13199,-10.10154 -69.19537,-19.19377 -84.34766,-20.70898 -15.15229,-1.51525 -20.20312,-13.13281 -20.20312,-13.13281 z"
           style="fill:#552200;fill-opacity:0.25;stroke:none;stroke-width:0.99999994px;stroke-linecap:butt;stroke-linejoin:miter;stroke-opacity:1" />
        <path
           id="path4571"
           transform="scale(0.26458333)"
           d="m 141.10938,182.08008 c -0.11788,0 -0.23905,0.005 -0.35743,0.006 -2.70922,9.06733 -1.00614,21.22461 0.14063,27.91406 2.14285,12.5 25.35687,64.1077 30.89258,75.71484 5.53572,11.60715 24.46401,48.21429 34.64257,62.5 10.17857,14.28572 54.10798,79.82113 59.82227,92.14258 5.01457,10.81265 53.88985,93.81525 51.34961,127.60547 1.69862,2.2441 2.94805,3.56902 3.62891,3.73242 0,0 21.71877,-58.58946 26.76953,-64.65039 5.05076,-6.06092 -7.07116,-1.00979 -22.72852,-3.53515 -15.65736,-2.52541 -22.22304,-23.23328 -18.6875,-41.41602 3.53553,-18.18274 -33.84179,-34.85001 -31.31641,-38.89063 2.52538,-4.04061 27.27421,-27.77893 22.72852,-31.31445 -4.54569,-3.53556 -19.19184,19.19254 -30.80859,8.58594 -11.61676,-10.6066 -47.47733,-48.48674 -42.93164,-55.05273 4.54568,-6.56599 28.78983,-18.68908 26.76953,-22.22461 -2.02031,-3.53554 -29.29457,21.71868 -37.88086,4.04101 -8.5863,-17.67767 -22.72812,-39.90003 -18.6875,-48.48633 4.04061,-8.58629 20.20233,-17.67813 17.17187,-19.19336 -3.03046,-1.51522 -25.75861,22.2226 -31.31445,7.07032 -5.55584,-15.1523 -15.65668,-70.20512 -24.74805,-80.30664 -2.84105,-3.15673 -8.29699,-4.24219 -14.45507,-4.24219 z"
           style="fill:#552200;fill-opacity:0.33018871;stroke:none;stroke-width:0.99999994px;stroke-linecap:butt;stroke-linejoin:miter;stroke-opacity:1"
           inkscape:connector-curvature="0" />
        <path
           id="path4578"
           transform="scale(0.26458333)"
           d="m 214.02148,77.083984 c -3.06596,8.266012 -0.52944,19.172818 0.6211,28.808596 1.42857,11.96428 20.53599,58.75084 26.60742,72.32226 6.07143,13.57143 19.28599,56.07171 31.60742,81.60743 12.32143,25.5357 29.10742,53.39229 39.10742,70.53515 10,17.14286 12.14175,28.39258 14.82032,37.14258 0.38237,1.2491 0.54725,2.37848 0.53711,3.40039 0.16543,0.11397 0.32579,0.21045 0.47265,0.2793 0,0 5.55589,-12.6258 15.15235,-18.18164 9.59644,-5.55583 -8.58714,-3.03053 -13.13282,-20.20313 -4.54569,-17.17259 -7.06997,-33.33637 -20.70703,-44.95312 -13.63706,-11.61676 -26.7695,-21.71837 -19.19336,-25.25391 7.57614,-3.53553 28.28357,-17.17265 22.22266,-17.67773 -6.06092,-0.50507 -22.72738,13.13234 -33.33399,-8.58594 -10.6066,-21.71828 -21.71951,-54.54806 -17.17382,-59.09375 4.54569,-4.54569 19.19294,-15.15197 12.62695,-18.6875 -6.566,-3.53553 -21.21333,9.09204 -32.83008,-29.79883 -8.81768,-29.520053 -15.89387,-46.805149 -27.4043,-51.660156 z"
           style="fill:#552200;fill-opacity:0.33018871;stroke:none;stroke-width:0.99999994px;stroke-linecap:butt;stroke-linejoin:miter;stroke-opacity:1"
           inkscape:connector-curvature="0" />
        <path
           id="path4583"
           transform="scale(0.26458333)"
           d="m 286.66016,70.257812 c -0.16703,14.87459 11.5062,37.792108 16.19726,49.207028 5.35715,13.03572 30.71457,66.24944 35.35742,79.28516 4.64285,13.03571 16.42746,43.03516 19.82032,50.53516 3.39285,7.5 28.92997,66.25027 30.53711,74.10742 0.37454,1.83107 0.33782,3.16018 0.01,4.09375 l 0.83203,1.77148 c 10.6066,-5.05076 38.38472,-5.05039 33.33399,-8.58593 -5.05077,-3.53553 -12.62544,15.65766 -29.29297,-23.73829 -16.66752,-39.39595 -27.27458,-53.03283 -19.19336,-56.56836 8.08124,-3.53554 27.77964,-7.07148 14.14258,-9.09179 -13.63706,-2.0203 -22.72896,11.112 -34.34571,-18.6875 -11.61676,-29.7995 -23.23317,-42.42542 -16.16211,-48.48633 7.07106,-6.06092 22.72812,-11.6172 18.6875,-14.14258 -4.04061,-2.52538 -19.19261,14.64678 -28.78906,-9.0918 -9.59645,-23.73859 -18.68793,-64.144933 -30.30469,-68.185542 -3.24542,-1.128844 -7.04253,-1.892482 -10.83007,-2.421876 z"
           style="fill:#552200;fill-opacity:0.33018871;stroke:none;stroke-width:0.99999994px;stroke-linecap:butt;stroke-linejoin:miter;stroke-opacity:1"
           inkscape:connector-curvature="0" />
        <path
           id="path4588"
           transform="scale(0.26458333)"
           d="m 458.32227,106.19727 c -4.07771,12.16437 0.94817,34.07784 1.67773,46.48046 1.07142,18.2143 11.60771,66.2514 13.21484,89.28711 1.60698,23.03572 4.99917,50.89202 0.17774,67.67774 -0.81089,2.82309 -1.95098,4.75543 -3.31836,6.00586 8.29538,2.55974 40.36564,12.28671 42.57812,10.07422 2.52541,-2.52539 -22.22309,-3.53406 -26.26367,-21.7168 -4.04062,-18.18275 -4.54649,-45.4586 2.01953,-46.46875 6.56599,-1.01015 22.72968,-6.56604 14.64844,-12.62695 -8.0812,-6.06091 -21.21408,-42.42542 -20.70898,-51.01172 0.50505,-8.5863 15.65665,-1.51565 12.12109,-6.56641 -3.53552,-5.05077 -12.12108,-21.71804 -14.64648,-43.94141 -2.01503,-17.73228 -11.74729,-33.19983 -21.5,-37.19335 z"
           style="fill:#552200;fill-opacity:0.33018871;stroke:none;stroke-width:0.99999994px;stroke-linecap:butt;stroke-linejoin:miter;stroke-opacity:1"
           inkscape:connector-curvature="0" />
        <path
           inkscape:connector-curvature="0"
           id="path4597"
           d="m 132.76414,181.05059 c 0,0 0.66146,8.78795 6.52008,14.64658 5.85864,5.85863 33.26191,30.23809 39.30953,31.08854 6.04762,0.85045 31.84449,-10.86681 32.31696,-14.74107 0.47247,-3.87426 0.0945,-8.69345 1.13393,-10.11086 1.03943,-1.41741 1.22842,-3.11831 0.37798,-3.30729 -0.85045,-0.18899 -8.78795,-0.94494 -14.64658,0.18898 -5.85863,1.13393 -33.07292,7.55953 -41.57738,4.44123 -8.50446,-3.11831 -11.52827,-5.85864 -13.98512,-6.99257 -2.45684,-1.13392 -3.87426,-5.29166 -5.48065,-8.88243 -1.6064,-3.59078 -0.94494,-4.9137 -3.96875,-6.33111 z"
           style="fill:#ececec;stroke:none;stroke-width:0.26458332px;stroke-linecap:butt;stroke-linejoin:miter;stroke-opacity:1" />
        <path
           inkscape:connector-curvature="0"
           id="path4599"
           d="m 203.06771,197.77604 c 0,0 -6.3311,-11.43378 -8.22099,-17.85938 -1.88988,-6.42559 -6.3311,-13.51264 -9.92187,-17.85937 -3.59078,-4.34673 -5.76414,-4.44122 -7.65402,-5.85863 -1.88988,-1.41741 -8.88244,-8.78795 -8.88244,-8.78795 0,0 8.22098,3.2128 14.93006,8.22099 6.70908,5.00818 12.47321,12.28422 13.98512,17.67038 1.5119,5.38616 1.5119,11.71726 3.87425,13.13467 2.36236,1.41741 8.69346,4.06325 10.86682,5.48066 2.17336,1.41741 2.45685,2.07887 2.26786,2.55134 -0.18899,0.47247 -2.17336,2.83482 -2.55134,3.49628 -0.37798,0.66146 -7.27604,0.18898 -8.69345,-0.18899 z"
           style="fill:#ececec;stroke:none;stroke-width:0.26458332px;stroke-linecap:butt;stroke-linejoin:miter;stroke-opacity:1" />
      </g>
      <path
         inkscape:connector-curvature="0"
         id="path4538"
         d="m 94.613411,121.72777 1.00226,1.46998 c 0,0 8.686259,-3.80859 8.619439,-4.14268 -0.0668,-0.33408 -0.73499,-1.26953 -0.73499,-1.26953 l -2.87314,1.1359 -3.875413,-6.61492 3.541323,-1.87089 -0.668175,-1.46998 -10.022607,4.67722 0.801809,1.26953 4.276312,-1.80407 3.674957,6.41447 z"
         style="fill:#000000;fill-opacity:1;stroke:none;stroke-width:0.26458332px;stroke-linecap:butt;stroke-linejoin:miter;stroke-opacity:1" />
      <path
         id="path4540"
         transform="scale(0.26458333)"
         d="m 412.64648,399.21094 -4.03906,3.2832 5.55469,45.20508 7.57617,-4.29297 -1.51562,-9.59766 12.88086,-7.32226 7.82812,6.5664 6.81836,-3.03125 z m 4.79883,14.39453 10.60742,9.3457 -8.83984,5.05078 z"
         style="fill:#000000;fill-opacity:1;stroke:none;stroke-width:0.99999994px;stroke-linecap:butt;stroke-linejoin:miter;stroke-opacity:1"
         inkscape:connector-curvature="0" />
      <path
         inkscape:connector-curvature="0"
         id="path4544"
         d="m 120.27129,114.04377 1.73725,-0.66817 -4.34313,-7.684 5.67948,2.47224 0.13363,-6.21401 5.21176,8.81989 1.33634,-0.86863 -6.01356,-10.824412 -2.40543,1.202712 0.13364,5.61266 -6.34765,-3.14042 -1.33635,1.40317 z"
         style="fill:#000000;fill-opacity:1;stroke:none;stroke-width:0.26458332px;stroke-linecap:butt;stroke-linejoin:miter;stroke-opacity:1" />
      <path
         inkscape:connector-curvature="0"
         id="path4546"
         d="m 97.687012,126.40498 c 0,0 2.739508,-0.33408 5.011308,-1.13589 2.27179,-0.80181 3.8754,-2.07134 3.8754,-2.07134 l 1.40317,1.93771 c 0,0 -0.73499,0.66817 -1.87089,1.06907 -1.13589,0.40091 -1.60361,0.60136 -1.60361,0.60136 l 4.54358,8.35217 -1.60362,0.66818 -4.47677,-8.41899 c 0,0 -1.9377,0.66817 -3.140412,0.73499 -1.202713,0.0668 -2.338609,-0.26727 -2.338609,-0.26727 0,0 0.200453,-0.80181 0.200453,-1.46999 z"
         style="fill:#000000;fill-opacity:1;stroke:none;stroke-width:0.26458332px;stroke-linecap:butt;stroke-linejoin:miter;stroke-opacity:1" />
      <path
         inkscape:connector-curvature="0"
         id="path4548"
         d="m 110.85004,121.8614 1.46998,-0.66817 3.14041,5.7463 3.94223,-2.60588 -2.33861,-4.67722 1.26953,-1.1359 6.94901,12.16077 -1.9377,1.13589 -3.27406,-5.67947 -3.80859,2.33861 3.14042,5.74629 -1.5368,0.73499 z"
         style="fill:#000000;fill-opacity:1;stroke:none;stroke-width:0.26458332px;stroke-linecap:butt;stroke-linejoin:miter;stroke-opacity:1" />
      <path
         inkscape:connector-curvature="0"
         id="path4550"
         d="m 121.34037,117.38464 c 0,0 3.67495,-2.33861 5.54584,-3.0736 1.87088,-0.73499 2.67269,-0.93544 2.67269,-0.93544 l 0.73499,1.5368 c 0,0 -1.9377,0.60135 -3.4745,1.33634 -1.5368,0.735 -2.80633,1.60362 -2.80633,1.60362 l 1.9377,3.27405 c 0,0 2.20498,-1.73725 3.34087,-2.20497 1.1359,-0.46772 2.80633,-0.86863 2.80633,-0.86863 l 0.66818,1.33635 c 0,0 -2.07134,0.86863 -3.27406,1.60362 -1.20271,0.73499 -2.3386,1.87088 -2.3386,1.87088 l 1.33634,2.87315 c 0,0 2.20498,-1.40316 3.74178,-2.00452 1.5368,-0.60136 2.67269,-0.86863 2.67269,-0.86863 l 0.86863,1.60362 c 0,0 -1.67044,0.60136 -4.07586,1.87089 -2.40543,1.26953 -4.07586,2.47224 -4.07586,2.47224 z"
         style="fill:#000000;fill-opacity:1;stroke:none;stroke-width:0.26458332px;stroke-linecap:butt;stroke-linejoin:miter;stroke-opacity:1" />
      <path
         inkscape:connector-curvature="0"
         id="path4552"
         d="m 102.96558,142.04025 1.26953,-0.93544 6.28084,6.94901 0.53454,-8.55263 1.46998,-0.66817 0.0668,11.29214 -1.5368,0.93544 z"
         style="fill:#000000;fill-opacity:1;stroke:none;stroke-width:0.26458332px;stroke-linecap:butt;stroke-linejoin:miter;stroke-opacity:1" />
      <path
         inkscape:connector-curvature="0"
         id="path4554"
         d="m 114.19091,140.303 -0.33409,-1.20271 5.81311,-2.13816 0.46772,1.06908 -2.73951,1.20271 3.20723,7.75082 2.47225,-0.60136 0.33408,1.1359 c 0,0 -1.5368,0.33409 -3.27405,1.06908 -1.73725,0.73499 -3.34087,1.60361 -3.34087,1.60361 l -0.13363,-1.5368 2.40542,-1.13589 -3.40768,-7.75082 z"
         style="fill:#000000;fill-opacity:1;stroke:none;stroke-width:0.26458332px;stroke-linecap:butt;stroke-linejoin:miter;stroke-opacity:1" />
      <path
         inkscape:connector-curvature="0"
         id="path4556"
         d="m 128.22255,137.83076 1.40317,-0.80181 c 0,0 -2.00452,-3.67496 -5.01131,-2.07134 -3.00678,1.60362 -2.40542,6.48129 -1.46998,8.21854 0.93545,1.73725 3.80859,4.47676 6.34765,3.27405 2.53907,-1.20271 1.67044,-4.74403 1.67044,-4.74403 l -1.26953,0.53453 c 0,0 0.46772,1.80407 -1.40317,2.20498 -1.87088,0.4009 -3.00678,-1.20272 -3.67495,-3.34087 -0.66818,-2.13816 -0.66818,-4.47676 0.86862,-4.87767 1.5368,-0.4009 2.53906,1.60362 2.53906,1.60362 z"
         style="fill:#000000;fill-opacity:1;stroke:none;stroke-width:0.26458332px;stroke-linecap:butt;stroke-linejoin:miter;stroke-opacity:1" />
      <path
         id="path4558"
         transform="scale(0.26458333)"
         d="m 500.7832,495.93359 -5.55664,3.03125 8.83985,46.21485 5.55468,-2.27344 -2.52539,-14.14258 10.10157,-5.30273 9.3457,9.5957 4.54492,-3.53516 z m 0.75782,9.59766 11.11132,13.13086 -6.3125,4.29297 z"
         style="fill:#000000;fill-opacity:1;stroke:none;stroke-width:0.99999994px;stroke-linecap:butt;stroke-linejoin:miter;stroke-opacity:1"
         inkscape:connector-curvature="0" />
      <path
         id="path4562"
         transform="scale(0.26458333)"
         d="m 530.13672,474.29688 c -2.72546,0.0686 -5.36311,0.8346 -7.13086,1.93945 -4.04062,2.5254 -10.60547,10.60547 -10.60547,10.60547 l 23.23242,39.64843 4.79883,-3.2832 -8.58594,-19.94922 4.04102,-3.53515 22.22266,14.14062 5.05078,-5.05078 -23.99219,-16.66602 c 0,0 4.04205,-8.5873 0.25391,-13.89062 -2.13079,-2.9831 -5.78101,-4.04721 -9.28516,-3.95898 z m -0.0215,7.125 c 1.1109,-0.002 2.13988,0.32198 2.99219,1.12695 4.54568,4.29313 -4.04101,14.14258 -4.04101,14.14258 l -10.09961,-9.0918 c 0,0 6.33456,-6.16733 11.14843,-6.17773 z"
         style="fill:#000000;fill-opacity:1;stroke:none;stroke-width:0.99999994px;stroke-linecap:butt;stroke-linejoin:miter;stroke-opacity:1"
         inkscape:connector-curvature="0" />
    </g>
  </g>
  <g
     inkscape:groupmode="layer"
     id="layer2"
     inkscape:label="Orange Banner">
    <rect
       style="opacity:1;fill:#de3d2d;fill-opacity:1;stroke:none;stroke-width:11.03082752;stroke-miterlimit:4;stroke-dasharray:none;stroke-opacity:1"
       id="rect4144"
       width="338.66669"
       height="43.65625"
       x="0"
       y="146.84375" />
  </g>
  <g
     inkscape:label="Blue Banner"
     id="g4203"
     inkscape:groupmode="layer"
     style="display:none">
    <rect
       y="146.84375"
       x="0"
       height="43.65625"
       width="338.66669"
       id="rect4205"
       style="opacity:1;fill:#407d93;fill-opacity:1;stroke:none;stroke-width:11.03082752;stroke-miterlimit:4;stroke-dasharray:none;stroke-opacity:1" />
  </g>
  <g
     inkscape:groupmode="layer"
     id="layer3"
     inkscape:label="Discover"
     style="display:inline">
    <text
       xml:space="preserve"
       style="font-style:normal;font-variant:normal;font-weight:normal;font-stretch:normal;line-height:0%;font-family:Museo;-inkscape-font-specification:'Museo, Normal';text-align:start;letter-spacing:0px;word-spacing:0px;writing-mode:lr-tb;text-anchor:start;fill:#ffffff;fill-opacity:1;stroke:none;stroke-width:0.56881726px;stroke-linecap:butt;stroke-linejoin:miter;stroke-opacity:1"
       x="155.23778"
       y="41.867416"
       id="text4147"><tspan
         sodipodi:role="line"
         id="tspan4164"
         x="155.23778"
         y="41.867416"
         style="font-size:22.75259018px;line-height:1.25;stroke-width:0.56881726px">DISCOVER:</tspan></text>
  </g>
  <g
     inkscape:label="Interview"
     id="g4209"
     inkscape:groupmode="layer"
     style="display:none">
    <text
       id="text4211"
       y="40.767208"
       x="173.85484"
       style="font-style:normal;font-variant:normal;font-weight:normal;font-stretch:normal;line-height:0%;font-family:Museo;-inkscape-font-specification:'Museo, Normal';text-align:start;letter-spacing:0px;word-spacing:0px;writing-mode:lr-tb;text-anchor:start;fill:#ffffff;fill-opacity:1;stroke:none;stroke-width:0.50668812px;stroke-linecap:butt;stroke-linejoin:miter;stroke-opacity:1"
       xml:space="preserve"><tspan
         id="tspan4213"
         sodipodi:role="line"
         x="173.85484"
         y="40.767208"
         style="font-size:20.26743698px;line-height:1.25">INTERVIEW:</tspan></text>
  </g>
  <g
     inkscape:groupmode="layer"
     id="layer4"
     inkscape:label="Artist Name">
    <text
       xml:space="preserve"
       style="font-style:normal;font-variant:normal;font-weight:600;font-stretch:normal;line-height:0%;font-family:Museo;-inkscape-font-specification:'Museo, Semi-Bold';text-align:start;letter-spacing:0px;word-spacing:0px;writing-mode:lr-tb;text-anchor:start;fill:#ffffff;fill-opacity:1;stroke:none;stroke-width:0.91258824px;stroke-linecap:butt;stroke-linejoin:miter;stroke-opacity:1"
       x="155.64984"
       y="73.272423"
       id="text4158"><tspan
         sodipodi:role="line"
         x="155.64984"
         y="73.272423"
         style="font-style:normal;font-variant:normal;font-weight:600;font-stretch:normal;font-size:36.50384521px;line-height:100%;font-family:Museo;-inkscape-font-specification:'Museo, Semi-Bold';text-align:start;writing-mode:lr-tb;text-anchor:start;fill:#ffffff;fill-opacity:1;stroke-width:0.91258824px"
         id="tspan4405">David</tspan><tspan
         sodipodi:role="line"
         x="155.64984"
         y="109.77627"
         style="font-style:normal;font-variant:normal;font-weight:600;font-stretch:normal;font-size:36.50384521px;line-height:100%;font-family:Museo;-inkscape-font-specification:'Museo, Semi-Bold';text-align:start;writing-mode:lr-tb;text-anchor:start;fill:#ffffff;fill-opacity:1;stroke-width:0.91258824px"
         id="tspan973">Singleton</tspan></text>
  </g>
  <g
     inkscape:groupmode="layer"
     id="layer6"
     inkscape:label="WEIRD">
    <path
       style="opacity:1;fill:#ffffff;fill-opacity:1;stroke:none;stroke-width:17.2258606;stroke-miterlimit:4;stroke-dasharray:none;stroke-opacity:1"
       d="M 245.3457 602.625 L 245.3457 672.625 L 495.3457 672.625 L 495.3457 602.625 L 245.3457 602.625 z M 254.20703 613.5 L 258.08398 613.5 C 261.48345 613.5 263.18217 614.17987 263.99805 617.44336 L 271.4082 648.31055 C 272.02011 650.89414 272.36133 653.41016 272.36133 653.41016 L 272.49609 653.41016 C 272.49609 653.41016 272.90446 650.96213 273.65234 648.31055 L 283.30664 613.63477 L 289.42578 613.63477 L 298.40039 648.31055 C 299.08028 650.96213 299.41992 653.41016 299.41992 653.41016 L 299.55664 653.41016 C 299.55664 653.41016 299.8295 650.89414 300.44141 648.31055 L 307.98828 617.44336 C 308.80415 614.17987 310.43452 613.5 313.83398 613.5 L 317.70898 613.5 L 317.70898 619.3457 L 316.68945 619.3457 C 315.46565 619.3457 314.71885 619.61799 314.37891 620.8418 L 303.83984 661.5 L 295.95312 661.5 L 287.79492 631.17773 C 286.97905 628.05022 286.43555 624.58203 286.43555 624.58203 L 286.29883 624.58203 C 286.29883 624.58203 285.61824 628.04985 284.73438 631.10938 L 276.0332 661.5 L 268.07812 661.5 L 257.53906 620.8418 C 257.19912 619.61799 256.45232 619.3457 255.22852 619.3457 L 254.20703 619.3457 L 254.20703 613.5 z M 326.5 613.5 L 354.7168 613.5 C 357.77632 613.5 359.06641 614.79204 359.06641 617.85156 L 359.06641 623.90234 L 352.88086 623.90234 L 352.88086 620.8418 C 352.88086 619.82196 352.33662 619.3457 351.38477 619.3457 L 337.71875 619.3457 L 337.71875 634.37305 L 354.51172 634.37305 L 354.51172 640.21875 L 337.71875 640.21875 L 337.71875 654.15625 C 337.71875 655.1081 338.26299 655.65234 339.21484 655.65234 L 353.2207 655.65234 C 354.17255 655.65234 354.7168 655.1081 354.7168 654.15625 L 354.7168 651.09766 L 360.9707 651.09766 L 360.9707 657.14844 C 360.9707 660.20796 359.67866 661.5 356.61914 661.5 L 335.27148 661.5 C 332.21196 661.5 330.91992 660.20796 330.91992 657.14844 L 330.91992 619.3457 L 326.5 619.3457 L 326.5 613.5 z M 370.41406 613.5 L 386.25586 613.5 L 386.25586 619.3457 L 381.56445 619.3457 L 381.56445 655.65234 L 386.25586 655.65234 L 386.25586 661.5 L 370.41406 661.5 L 370.41406 655.65234 L 375.10547 655.65234 L 375.10547 619.3457 L 370.41406 619.3457 L 370.41406 613.5 z M 396.6543 613.5 L 417.5957 613.5 C 426.02638 613.5 431.94141 618.80359 431.94141 627.57422 C 431.94141 635.59696 426.70611 639.53923 423.30664 640.28711 L 423.30664 640.42383 C 423.30664 640.42383 424.52983 641.03585 425.3457 642.59961 L 431.125 654.08984 C 431.80489 655.51762 432.89365 655.65234 434.52539 655.65234 L 435.4082 655.65234 L 435.4082 661.5 L 432.07812 661.5 C 428.33871 661.5 426.97782 661.02399 425.41406 657.89648 L 418.88672 644.97852 C 417.66291 642.73487 416.78049 642.39453 414.12891 642.39453 L 407.87305 642.39453 L 407.87305 661.5 L 401.07422 661.5 L 401.07422 619.3457 L 396.6543 619.3457 L 396.6543 613.5 z M 443.75 613.5 L 463.19531 613.5 C 477.81302 613.5 487.4668 622.27002 487.4668 637.43164 C 487.4668 652.66125 477.81302 661.5 463.19531 661.5 L 452.51953 661.5 C 449.46001 661.5 448.16992 660.20796 448.16992 657.14844 L 448.16992 619.3457 L 443.75 619.3457 L 443.75 613.5 z M 407.87305 619.3457 L 407.87305 636.54883 L 416.71094 636.54883 C 421.87813 636.54883 424.9375 633.21686 424.9375 627.8457 C 424.9375 622.47455 421.87887 619.3457 416.84766 619.3457 L 407.87305 619.3457 z M 454.96875 619.3457 L 454.96875 654.15625 C 454.96875 655.1081 455.51299 655.65234 456.46484 655.65234 L 462.71875 655.65234 C 473.39308 655.65234 480.39648 649.26179 480.39648 637.43164 C 480.39648 625.66949 473.32509 619.3457 462.71875 619.3457 L 454.96875 619.3457 z "
       transform="scale(0.26458334)"
       id="rect4172" />
  </g>
  <g
     inkscape:groupmode="layer"
     id="layer7"
     inkscape:label="MAKE">
    <text
       xml:space="preserve"
       style="font-style:normal;font-variant:normal;font-weight:normal;font-stretch:normal;line-height:0%;font-family:Museo;-inkscape-font-specification:'Museo, Normal';text-align:start;letter-spacing:0px;word-spacing:0px;writing-mode:lr-tb;text-anchor:start;fill:#ffffff;fill-opacity:1;stroke:none;stroke-width:0.26458335px;stroke-linecap:butt;stroke-linejoin:miter;stroke-opacity:1"
       x="10.690782"
       y="175.02188"
       id="text4175"><tspan
         sodipodi:role="line"
         id="tspan4177"
         x="10.690782"
         y="175.02188"
         style="font-style:normal;font-variant:normal;font-weight:normal;font-stretch:normal;font-size:17.99166679px;line-height:100%;font-family:Museo;-inkscape-font-specification:'Museo, Normal';text-align:start;letter-spacing:1.32291675px;writing-mode:lr-tb;text-anchor:start;fill:#ffffff;fill-opacity:1;stroke-width:0.26458335px">MAKE</tspan></text>
  </g>
  <g
     inkscape:groupmode="layer"
     id="layer8"
     inkscape:label="MUSIC">
    <text
       xml:space="preserve"
       style="font-style:normal;font-variant:normal;font-weight:normal;font-stretch:normal;line-height:0%;font-family:Museo;-inkscape-font-specification:'Museo, Normal';text-align:start;letter-spacing:0px;word-spacing:0px;writing-mode:lr-tb;text-anchor:start;fill:#ffffff;fill-opacity:1;stroke:none;stroke-width:0.26458335px;stroke-linecap:butt;stroke-linejoin:miter;stroke-opacity:1"
       x="134.21758"
       y="174.80598"
       id="text4180"><tspan
         sodipodi:role="line"
         id="tspan4182"
         x="134.21758"
         y="174.80598"
         style="font-style:normal;font-variant:normal;font-weight:normal;font-stretch:normal;font-size:17.99166679px;line-height:100%;font-family:Museo;-inkscape-font-specification:'Museo, Normal';text-align:start;writing-mode:lr-tb;text-anchor:start;fill:#ffffff;fill-opacity:1;stroke-width:0.26458335px">MUSIC</tspan></text>
  </g>
</svg>
