<?xml version="1.0" encoding="UTF-8" standalone="no"?>
<!-- Created with Inkscape (http://www.inkscape.org/) -->

<svg
   xmlns:dc="http://purl.org/dc/elements/1.1/"
   xmlns:cc="http://creativecommons.org/ns#"
   xmlns:rdf="http://www.w3.org/1999/02/22-rdf-syntax-ns#"
   xmlns:svg="http://www.w3.org/2000/svg"
   xmlns="http://www.w3.org/2000/svg"
   xmlns:sodipodi="http://sodipodi.sourceforge.net/DTD/sodipodi-0.dtd"
   xmlns:inkscape="http://www.inkscape.org/namespaces/inkscape"
   width="1000"
   height="1000"
   viewBox="0 0 264.58333 264.58334"
   id="svg4332"
   version="1.1"
   inkscape:version="0.91+devel r13925"
   sodipodi:docname="terry-bozzio-wide.svg"
   inkscape:export-filename="/Users/agarone/Documents/git/art/terry-bozzio/terry-bozzio-transparent.png"
   inkscape:export-xdpi="95.999992"
   inkscape:export-ydpi="95.999992">
  <defs
     id="defs4334" />
  <sodipodi:namedview
     id="base"
     pagecolor="#ffffff"
     bordercolor="#666666"
     borderopacity="1.0"
     inkscape:pageopacity="0.0"
     inkscape:pageshadow="2"
     inkscape:zoom="0.70710678"
     inkscape:cx="337.5394"
     inkscape:cy="629.97748"
     inkscape:document-units="px"
     inkscape:current-layer="layer1"
     showgrid="false"
     units="px"
     showguides="true"
     inkscape:guide-bbox="true"
     inkscape:window-width="1920"
     inkscape:window-height="1151"
     inkscape:window-x="0"
     inkscape:window-y="1"
     inkscape:window-maximized="1">
    <sodipodi:guide
       position="264.58333,0"
       orientation="1,0"
       id="guide4340"
       inkscape:label=""
       inkscape:color="rgb(0,0,255)" />
    <sodipodi:guide
       position="0,0"
       orientation="1,0"
       id="guide4342"
       inkscape:label=""
       inkscape:color="rgb(0,0,255)" />
    <sodipodi:guide
       position="0,0"
       orientation="0,1"
       id="guide4344"
       inkscape:label=""
       inkscape:color="rgb(0,0,255)" />
    <sodipodi:guide
       position="0,264.58333"
       orientation="0,1"
       id="guide4346"
       inkscape:label=""
       inkscape:color="rgb(0,0,255)" />
  </sodipodi:namedview>
  <metadata
     id="metadata4337">
    <rdf:RDF>
      <cc:Work
         rdf:about="">
        <dc:format>image/svg+xml</dc:format>
        <dc:type
           rdf:resource="http://purl.org/dc/dcmitype/StillImage" />
        <dc:title />
      </cc:Work>
    </rdf:RDF>
  </metadata>
  <g
     inkscape:label="BG"
     inkscape:groupmode="layer"
     id="layer1"
     transform="translate(0,-32.41665)"
     style="display:none">
    <rect
       style="opacity:1;fill:#ffffff;fill-opacity:1;stroke:none;stroke-width:11.60810661;stroke-miterlimit:4;stroke-dasharray:none;stroke-opacity:1"
       id="rect5606"
       width="264.58334"
       height="264.58334"
       x="0"
       y="32.416653" />
  </g>
  <g
     inkscape:groupmode="layer"
     id="layer2"
     inkscape:label="Head"
     style="display:inline">
    <path
       style="fill:#deaa87;fill-opacity:1;fill-rule:evenodd;stroke:none;stroke-width:0.46307677px;stroke-linecap:butt;stroke-linejoin:miter;stroke-opacity:1"
       d="m 143.82197,166.69091 24.66493,-22.42265 -6.47767,-15.32214 -2.70054,-0.2268 c 0,0 1.32127,-1.18911 2.46637,-1.32125 1.1451,-0.13217 3.25914,-0.17617 3.83168,-0.3964 0.57256,-0.22021 1.05702,-1.05701 1.62957,-1.14507 0.57255,-0.088 1.67359,0.39635 2.68658,0.13216 1.01296,-0.26425 3.17105,-1.71765 3.43528,-4.05187 0.26428,-2.33425 -0.2202,-3.30317 -0.2202,-4.40423 0,-1.10106 1.58552,-2.24617 1.62956,-3.17105 0.044,-0.9249 -1.18912,-2.11404 -1.18912,-2.11404 0,0 2.15806,-0.66063 2.15806,-1.40934 0,-0.74872 0.26424,-3.4353 0.22021,-4.2721 -0.0439,-0.83682 -0.44042,-1.84978 -0.44042,-1.84978 0,0 2.68657,-0.39638 3.61146,-0.92489 0.92488,-0.5285 1.98189,-1.10106 1.98189,-3.12699 0,-2.025957 -1.62957,-3.082967 -2.15804,-3.963806 -0.52854,-0.880849 -0.88087,-2.510414 -1.89385,-3.787631 -1.01296,-1.277229 -3.17103,-2.730631 -3.17103,-4.492326 0,-1.761683 1.10104,-2.994873 1.10104,-3.567413 0,-0.572555 -2.15806,-5.725512 -2.51039,-6.077828 -0.35234,-0.352341 -0.88085,-0.74873 -0.88085,-1.145107 0,-0.396376 -1.6736,-4.095933 -2.64254,-6.033793 -0.96892,-1.93786 -5.54931,-6.430168 -5.54931,-6.430168 l -11.451,-4.316145 -18.30312,5.79308 -15.82964,25.785243 c 0,0 4.49232,24.267274 4.53637,26.293224 0.0439,2.02595 0,5.54931 0,5.54931 l -12.41994,3.25915 8.89654,20.61176 z"
       id="path4795"
       inkscape:connector-curvature="0"
       sodipodi:nodetypes="ccccsccsssccsscsssssssssccccscccc" />
    <path
       style="fill:#d49a74;fill-opacity:1;fill-rule:evenodd;stroke:none;stroke-width:0.46307677px;stroke-linecap:butt;stroke-linejoin:miter;stroke-opacity:1"
       d="m 155.38893,90.754903 c 0,0 1.32128,-0.08807 1.12309,0.814777 -0.19819,0.902861 -2.07001,1.343301 -2.07001,1.343301 0,0 4.82264,-1.101079 4.97678,-0.924897 0.15418,0.176161 -2.3122,0.506496 -2.00391,0.85883 0.30829,0.352333 1.71765,1.475398 3.52338,1.893809 1.80574,0.4184 4.09594,0.264268 4.27212,0.726696 0.17615,0.462449 -0.44043,0.748725 -0.088,0.880849 0.35235,0.132176 1.62957,-1.607545 2.24613,-1.607545 0.61661,0 3.2151,0.04412 4.27211,-2.202094 1.05702,-2.246174 -0.79275,-3.347234 -0.77073,-4.095952 0.022,-0.748717 1.14511,-2.5104 1.03499,-3.281142 -0.11006,-0.770742 -2.40029,-1.607543 -5.90166,-0.990954 -3.50137,0.616601 -7.77347,3.919768 -10.61419,6.584322 z"
       id="path4805"
       inkscape:connector-curvature="0" />
    <path
       style="fill:#502d16;fill-rule:evenodd;stroke:none;stroke-width:0.46307677px;stroke-linecap:butt;stroke-linejoin:miter;stroke-opacity:1"
       d="m 155.38893,90.710856 c 1.18915,-0.08807 5.06487,-4.668487 7.83953,-5.241027 2.77466,-0.572554 4.36018,0.352342 5.10889,0.352342 0.74872,0 2.86276,-1.012978 2.73063,-1.321272 -0.13217,-0.308294 -1.84976,-0.924896 -2.64253,-0.880848 -0.79277,0.0441 -2.95084,-0.308295 -5.24103,0.484458 -2.29022,0.792766 -6.65039,5.989759 -7.79549,6.606347 z"
       id="path4797"
       inkscape:connector-curvature="0" />
    <path
       style="fill:#f4e3d7;fill-rule:evenodd;stroke:none;stroke-width:0.46307677px;stroke-linecap:butt;stroke-linejoin:miter;stroke-opacity:1"
       d="m 162.10537,89.962138 c 0,0 1.18915,0.506482 1.91585,0.660636 0.7267,0.15414 1.67361,-0.0441 1.67361,-0.0441 0,0 -0.33031,-2.532438 -0.77073,-2.532438 -0.44043,0 -2.3783,1.277224 -2.81873,1.915836 z"
       id="path4801"
       inkscape:connector-curvature="0" />
    <path
       style="fill:#b36532;fill-opacity:1;fill-rule:evenodd;stroke:none;stroke-width:0.46307677px;stroke-linecap:butt;stroke-linejoin:miter;stroke-opacity:1"
       d="m 165.73886,90.644797 c 0,0 1.18914,0.176165 1.51947,0.660636 0.33031,0.484459 -0.77074,0.770747 -0.17617,1.034984 0.59458,0.264268 2.42233,-1.211162 2.22413,-2.400303 -0.19821,-1.189129 -1.73966,-2.642544 -2.92881,-2.642544 -1.18913,0 -1.62956,0.242236 -1.51946,0.638626 0.11005,0.396389 0.88084,2.708601 0.88084,2.708601 z"
       id="path4807"
       inkscape:connector-curvature="0" />
    <path
       style="fill:#28170b;fill-rule:evenodd;stroke:none;stroke-width:0.46307677px;stroke-linecap:butt;stroke-linejoin:miter;stroke-opacity:1"
       d="m 160.0354,91.085208 c 0,0 4.49231,-3.831659 5.37317,-3.479331 0.88084,0.352329 0.37435,1.563495 0.37435,1.563495 0,0 0.77073,-1.277224 0.77073,-1.497423 0,-0.220225 0.0441,-0.726707 -1.45339,-0.440438 -1.49744,0.286284 -3.56745,2.114025 -5.06486,3.853697 z"
       id="path4799"
       inkscape:connector-curvature="0" />
    <path
       style="fill:#483e37;fill-rule:evenodd;stroke:none;stroke-width:0.46307677px;stroke-linecap:butt;stroke-linejoin:miter;stroke-opacity:1"
       d="m 165.65077,90.655802 c 0.16519,0 0.0772,-0.99094 -0.0551,-1.464407 -0.13217,-0.473453 -0.55053,-1.156099 -0.78176,-1.090041 -0.23122,0.06595 -0.26426,0.583559 -0.022,1.178124 0.24224,0.594578 0.49548,1.277237 0.85882,1.376324 z"
       id="path4803"
       inkscape:connector-curvature="0" />
    <path
       style="fill:#e9c6af;fill-rule:evenodd;stroke:none;stroke-width:0.46307677px;stroke-linecap:butt;stroke-linejoin:miter;stroke-opacity:1"
       d="m 160.82816,91.085208 c 0.57254,-0.308294 3.06094,0.418401 3.06094,0.792781 0,0.374352 -1.25521,0.176151 -1.21119,0.594552 0.0441,0.4184 1.91585,0.770744 1.89383,0.550545 -0.022,-0.22022 -0.17617,-0.880849 0.088,-0.902858 0.26425,-0.02201 1.69561,-0.08803 1.51946,0.19817 -0.17618,0.286287 -0.48447,0.462449 -0.41841,0.770755 0.0659,0.308282 1.10105,0 1.05701,0.396358 -0.0439,0.396392 -1.51946,0.154153 -3.3252,-0.264245 -1.80572,-0.4184 -2.66454,-1.057021 -3.2371,-0.748725 -0.57255,0.308306 1.14509,-0.902861 0.57256,-1.387333 z"
       id="path4809"
       inkscape:connector-curvature="0" />
    <path
       style="fill:#ebcdb8;fill-opacity:1;fill-rule:evenodd;stroke:none;stroke-width:0.46307677px;stroke-linecap:butt;stroke-linejoin:miter;stroke-opacity:1"
       d="m 170.05502,97.471356 c -0.0659,0.968925 -3.10499,3.567414 -3.63348,3.479314 -0.52852,-0.088 0.37435,-3.501353 -0.17617,-3.633467 -0.55054,-0.132175 -2.84073,2.003917 -5.30711,1.012963 -2.46637,-0.990954 -3.54539,-2.862747 -4.64645,-2.862747 -1.10106,0 -2.5985,0.924897 -2.68659,0.550524 -0.088,-0.374363 2.92881,-2.246145 4.05187,-2.224137 1.12312,0.02201 0.96895,0.286288 2.51044,0.726697 1.54147,0.44044 9.51312,-0.08803 9.51312,-0.08803 0,0 -1.45338,0.682658 -1.16711,1.739669 0.28626,1.05701 0.85883,1.893812 1.54148,1.299239 z"
       id="path4811"
       inkscape:connector-curvature="0" />
    <path
       style="fill:#ebcdb8;fill-opacity:1;fill-rule:evenodd;stroke:none;stroke-width:0.46307677px;stroke-linecap:butt;stroke-linejoin:miter;stroke-opacity:1"
       d="m 176.89539,100.85551 c -0.24915,-0.34258 -2.24226,-1.744 -3.67483,-1.401425 -1.43255,0.342564 -2.42912,0.716285 -2.46026,1.557125 -0.0311,0.84086 1.24568,1.77513 2.42912,1.21456 1.18342,-0.56057 3.67483,-0.0623 3.70597,-1.37026 z"
       id="path4813"
       inkscape:connector-curvature="0" />
    <path
       style="fill:#ebcdb8;fill-opacity:1;fill-rule:evenodd;stroke:none;stroke-width:0.46307677px;stroke-linecap:butt;stroke-linejoin:miter;stroke-opacity:1"
       d="m 169.98174,103.53377 c 0.37372,0 3.64368,3.76824 3.64368,4.17309 0,0.40485 -5.2631,1.80628 -5.76139,1.80628 -0.49828,0 1.71284,-5.79254 2.11771,-5.97937 z"
       id="path4815"
       inkscape:connector-curvature="0" />
    <path
       style="fill:#d38d5f;fill-rule:evenodd;stroke:none;stroke-width:0.46307677px;stroke-linecap:butt;stroke-linejoin:miter;stroke-opacity:1"
       d="m 171.85029,97.741231 c 0.3737,0.218008 -1.77513,2.740559 -1.74399,3.705969 0.0312,0.96543 0.80971,2.3357 1.65056,2.2734 0.84084,-0.0623 1.43256,-0.59169 2.9274,-0.84084 1.49486,-0.24914 2.58484,-0.24914 2.58484,0.1245 0,0.37369 -2.98969,0.24914 -2.98969,0.49828 0,0.24913 1.21456,0.40485 1.15227,0.84085 -0.0624,0.43599 -0.28029,2.24226 -1.08998,2.24226 -0.80971,0 -1.58828,-1.30799 -2.08656,-1.68171 -0.49828,-0.3737 -1.99312,-1.96197 -2.36682,-1.96197 -0.37373,0 -2.05543,3.89282 -2.36685,3.89282 -0.31142,0 2.95854,-7.941351 4.32882,-9.093643 z"
       id="path4817"
       inkscape:connector-curvature="0" />
    <path
       style="fill:#c87137;fill-rule:evenodd;stroke:none;stroke-width:0.46307677px;stroke-linecap:butt;stroke-linejoin:miter;stroke-opacity:1"
       d="m 165.90206,114.2468 c 0.77856,0.12461 1.30799,-0.65398 2.24226,-0.96541 0.93427,-0.31143 1.15227,0.0935 1.96198,0.0624 0.80971,-0.0312 5.48111,-1.8997 5.48111,-2.24226 0,-0.34258 -0.96544,0.15572 -1.24571,0.12449 -0.28028,-0.0312 0.49826,-0.52944 -0.52941,-0.49828 -1.02773,0.0309 -5.73026,1.08998 -6.66453,1.71283 -0.93427,0.62286 -1.08998,1.18342 -1.2457,1.80628 z"
       id="path4819"
       inkscape:connector-curvature="0" />
    <path
       style="fill:#784421;fill-rule:evenodd;stroke:none;stroke-width:0.46307677px;stroke-linecap:butt;stroke-linejoin:miter;stroke-opacity:1"
       d="m 167.24119,113.1568 c 0,-0.28026 2.02426,0.0623 2.55368,-0.28026 0.52942,-0.34257 0.68514,-0.59172 1.40143,-0.59172 0.71627,0 1.99312,0 1.99312,-0.12448 0,-0.1245 -0.90313,-0.56057 -1.40141,-0.56057 -0.49828,0 -4.85824,0.74743 -4.54682,1.55713 z"
       id="path4821"
       inkscape:connector-curvature="0" />
    <path
       style="fill:#e9c6af;fill-rule:evenodd;stroke:none;stroke-width:0.46307677px;stroke-linecap:butt;stroke-linejoin:miter;stroke-opacity:1"
       d="m 174.46626,113.90423 c -0.49827,0 -0.77857,-0.43598 -0.99655,-0.34257 -0.21799,0.0935 -0.84086,1.05887 -1.27685,1.05887 -0.436,0 -1.18342,0.15571 -1.8374,0.34256 -0.65399,0.18686 -2.14884,1.33913 -2.64713,1.27684 -0.49828,-0.0623 0.34256,-1.52598 0.90314,-1.52598 0.56055,0 1.55713,0.15572 2.08655,-0.15572 0.52942,-0.31143 1.30796,-1.12114 1.93083,-1.27684 0.62287,-0.1557 1.58827,-0.77858 1.83741,0.62284 z"
       id="path4823"
       inkscape:connector-curvature="0" />
    <path
       style="fill:#e9c6af;fill-rule:evenodd;stroke:none;stroke-width:0.46307677px;stroke-linecap:butt;stroke-linejoin:miter;stroke-opacity:1"
       d="m 172.97143,117.67248 c -0.49828,-0.218 -0.62287,-0.0935 -0.93428,0 -0.31143,0.0935 0.0623,1.96202 -0.21801,1.99314 -0.28029,0.0312 -0.46714,-0.87199 -1.12112,-0.87199 -0.65401,0 -2.77171,-0.90314 -3.61254,-0.49829 -0.84087,0.40486 -1.55714,1.6817 -0.68514,3.2077 0.872,1.52597 1.99313,1.8374 2.86511,1.77513 0.87198,-0.0624 1.83741,-2.46028 2.398,-2.46028 0.56054,0 0.93425,1.09 1.30798,1.09 0.37371,0 0.5917,-2.46025 0,-4.23541 z"
       id="path4825"
       inkscape:connector-curvature="0" />
    <path
       style="fill:#e9c6af;fill-opacity:1;fill-rule:evenodd;stroke:none;stroke-width:0.46307677px;stroke-linecap:butt;stroke-linejoin:miter;stroke-opacity:1"
       d="m 154.93986,88.180471 c 1.55713,-0.186865 6.01051,-5.387672 6.78908,-5.387672 0.77858,0 0.84087,0.218 2.95855,0.218 2.1177,0 2.89628,-0.218 3.79941,-0.218 0.90312,0 2.9274,1.21457 2.9274,0.965421 0,-0.249149 -3.51911,-2.117706 -3.36341,-2.366829 0.15573,-0.249149 3.30111,1.743977 3.45684,1.525976 0.15572,-0.218001 -0.77858,-1.961976 -0.12462,-1.961976 0.65399,0 1.89971,1.463692 2.08654,1.245705 0.18687,-0.218014 -1.30797,-3.269978 -1.74398,-3.301128 -0.43598,-0.03126 -0.99655,-0.435987 -1.05883,-0.03126 -0.0623,0.404852 1.05883,1.058852 0.8097,1.152272 -0.24913,0.09349 -0.9654,-1.463705 -1.68171,-1.463705 -0.71627,0 -2.17997,0.03126 -2.05541,0.03126 0.1245,0 1.96201,-0.03126 1.80629,-0.373716 -0.15573,-0.342568 -2.18001,-1.993125 -1.83742,-1.993125 0.34256,0 1.65054,0.155716 1.65054,0 0,-0.155716 -1.83739,-0.591704 -2.17997,-0.591704 -0.34257,0 -4.82709,0.840839 -4.82709,0.653988 0,-0.186852 5.23195,-1.027705 4.9828,-1.463692 -0.24913,-0.436001 -3.7371,-4.827103 -4.5468,-5.20082 -0.80972,-0.373716 -7.69223,-1.152272 -8.09708,-1.681691 -0.40485,-0.529434 -1.40142,0.467135 -0.872,1.307975 0.52942,0.840852 -2.92738,2.584842 -2.86511,2.958559 0.0623,0.373703 1.74398,0.280283 2.49141,-0.15573 0.74743,-0.435988 0.18684,-1.681693 0.90312,-1.681693 0.71628,0 -0.0312,1.775139 0.28028,1.961977 0.31144,0.186865 -1.12111,2.242273 -0.62283,2.491423 0.49827,0.249122 4.48453,-0.622866 4.54682,-0.373717 0.0623,0.249149 -3.86169,1.307989 -3.58142,1.743977 0.28031,0.436013 0.0311,1.308001 0.84087,1.276853 0.8097,-0.03126 6.19737,-1.463706 6.19737,-1.245705 0,0.218001 -5.41881,1.588272 -5.41881,1.993125 0,0.404852 1.33912,0.591703 2.17996,0.498284 0.84087,-0.09349 7.69224,-0.622852 7.72337,-0.373717 0.0312,0.249149 -3.67483,0.249149 -5.60564,0.747421 -1.93086,0.498284 -5.32541,2.148842 -5.13855,2.366841 0.18686,0.218001 4.11081,-1.307988 5.51223,-1.307988 1.40143,0 4.57798,0.155703 4.57798,0.342568 0,0.186851 -2.46027,-0.124488 -4.11084,0.716285 -1.65055,0.840839 -5.63679,6.228511 -6.78907,6.975932 z"
       id="path4827"
       inkscape:connector-curvature="0" />
    <path
       style="fill:#d49a74;fill-opacity:1;fill-rule:evenodd;stroke:none;stroke-width:0.46307677px;stroke-linecap:butt;stroke-linejoin:miter;stroke-opacity:1"
       d="m 137.936,103.28461 c 1.33914,-0.49827 8.9068,-1.05884 8.71995,0.24916 -0.18686,1.30798 -4.95169,4.79593 -3.6437,6.82021 1.30799,2.02427 12.70616,7.62993 14.97958,7.06939 2.27342,-0.56059 5.57452,-2.27342 6.19737,-0.84088 0.62287,1.43258 -2.55366,1.93084 -1.80624,3.58142 0.7474,1.65055 4.04853,3.95511 6.07278,3.76824 2.02427,-0.18685 2.5537,-2.46027 3.14541,-2.55368 0.59171,-0.0935 1.55712,0.0624 1.55712,0.77854 0,0.71629 -1.71284,3.92398 -3.64368,3.89284 -1.93082,-0.0309 -1.6817,-0.40487 -2.39798,-0.24915 -0.71627,0.15573 -0.37371,1.15229 -1.55712,1.21457 -1.18343,0.0624 -5.73024,-0.59171 -11.61619,-2.9274 -5.88593,-2.3357 -14.26329,-7.19394 -13.8273,-9.9345 0.436,-2.74053 1.74399,-11.39817 -2.18,-10.86876 z"
       id="path4829"
       inkscape:connector-curvature="0" />
    <path
       style="fill:#d49a74;fill-opacity:1;fill-rule:evenodd;stroke:none;stroke-width:0.46307677px;stroke-linecap:butt;stroke-linejoin:miter;stroke-opacity:1"
       d="m 145.09882,157.84641 c 1.27684,0 2.80283,-10.09017 4.51566,-12.36358 1.71283,-2.2734 1.37027,-3.33228 2.27342,-2.61599 0.90313,0.71629 1.65055,4.8894 1.33913,5.73024 -0.31143,0.84087 -1.55713,3.86169 -0.74744,4.26653 0.80972,0.40485 3.30111,0.80973 5.1074,-1.65055 1.80625,-2.46026 2.46027,-4.2354 2.80281,-7.66108 0.34259,-3.42567 -1.21454,-11.30474 -1.2457,-12.55046 -0.0311,-1.24569 0.18687,-2.30454 -0.0935,-2.30454 -0.28028,0 -5.94824,6.32194 -7.31851,8.56419 -1.37025,2.2423 -2.33569,5.79254 -3.45682,5.79254 -1.12113,0 -1.15228,-0.93428 -1.61941,0.18686 -0.46714,1.12111 -2.55369,13.8273 -1.55713,14.60584 z"
       id="path4833"
       inkscape:connector-curvature="0" />
    <path
       style="fill:#e9c6af;fill-rule:evenodd;stroke:none;stroke-width:0.46307677px;stroke-linecap:butt;stroke-linejoin:miter;stroke-opacity:1"
       d="m 159.26869,128.72811 c 0,0 3.79938,5.60567 3.92396,9.56079 0.12462,3.9551 -2.9274,9.34277 -3.17655,9.24933 -0.24914,-0.0935 0.87199,-2.55369 0.52943,-6.29081 -0.34258,-3.7371 -1.6817,-10.37048 -1.27684,-12.51931 z"
       id="path4835"
       inkscape:connector-curvature="0" />
    <path
       style="fill:#d38d5f;fill-rule:evenodd;stroke:none;stroke-width:0.46307677px;stroke-linecap:butt;stroke-linejoin:miter;stroke-opacity:1"
       d="m 137.55182,103.92354 c 0,-0.79276 -1.27723,-1.4534 -1.40935,-2.2902 -0.13218,-0.83681 -0.48448,-2.334249 -0.92487,-2.334249 -0.44044,0 -2.46638,1.981909 -2.6866,1.629569 -0.2202,-0.35234 1.23318,-1.012978 1.32128,-2.202123 0.088,-1.189124 -0.088,-2.466365 -0.44042,-2.466365 -0.35235,0 -1.49744,1.673612 -2.24617,2.114042 -0.7487,0.44042 -2.20211,3.038906 -1.80574,3.699556 0.3964,0.66062 2.77467,-1.67362 2.77467,-1.4534 0,0.22021 -1.49746,1.49743 -0.88083,1.84977 0.6166,0.35235 3.34719,1.49745 4.36015,1.49745 1.01299,0 1.5415,0.48446 1.93788,-0.0441 z"
       id="path4837"
       inkscape:connector-curvature="0" />
    <path
       style="fill:#e9c6af;fill-rule:evenodd;stroke:none;stroke-width:0.46307677px;stroke-linecap:butt;stroke-linejoin:miter;stroke-opacity:1"
       d="m 137.9482,106.96246 c 0.26424,0.44041 0.2202,2.95083 -1.05702,2.95083 -1.27724,0 -7.53123,-3.52339 -7.00273,-3.52339 0.52854,0 3.2151,-1.62956 3.8317,-0.5285 0.61658,1.10106 -1.05703,1.01297 -0.6166,1.45338 0.44043,0.44044 3.21508,-0.44041 2.95083,-1.01296 -0.26425,-0.57256 -2.77467,-1.9819 -2.02593,-2.02595 0.74871,-0.0441 2.11402,0.39638 2.77465,0.35234 0.66064,-0.0441 1.01298,-1.10106 1.27722,-0.66062 0.26427,0.44041 -1.54146,0.96892 -1.27722,1.40935 0.26425,0.44041 -0.92488,2.86275 -0.57256,3.03892 0.35235,0.17616 1.27726,-2.02596 1.71766,-1.4534 z"
       id="path4839"
       inkscape:connector-curvature="0" />
    <path
       style="fill:#ca7a42;fill-opacity:1;fill-rule:evenodd;stroke:none;stroke-width:0.46307677px;stroke-linecap:butt;stroke-linejoin:miter;stroke-opacity:1"
       d="m 138.71458,106.27431 c 0,0 0.49828,4.32882 -1.49484,4.26653 -1.99313,-0.0623 -6.13509,-2.58482 -7.53651,-3.86168 -1.40142,-1.27684 -4.92052,-5.38767 -4.92052,-5.38767 0,0 2.30454,4.39112 6.35308,7.03821 4.04853,2.64713 5.10738,2.92742 6.0728,2.7717 0.96544,-0.1557 2.08655,-0.62284 1.52599,-4.82709 z"
       id="path4867"
       inkscape:connector-curvature="0" />
  </g>
  <g
     inkscape:groupmode="layer"
     id="layer3"
     inkscape:label="Hair">
    <path
       style="fill:#000000;fill-opacity:1;fill-rule:evenodd;stroke:none;stroke-width:0.46307677px;stroke-linecap:butt;stroke-linejoin:miter;stroke-opacity:1"
       d="m 127.46614,90.975116 c 0,0 3.39126,2.069989 4.88868,3.567405 1.49746,1.497451 3.8317,2.642548 4.80062,5.064865 0.96893,2.422314 0.88084,4.976784 0.88084,4.976784 0,0 0.35234,-2.24616 0.22021,-3.21509 -0.13216,-0.96893 -1.32127,-2.069989 -0.74869,-2.158054 0.57252,-0.08804 6.16588,4.448264 6.16588,4.448264 0,0 -3.78762,-4.272113 -3.2591,-4.272113 0.52851,0 1.67358,1.365303 3.43528,1.585523 1.7617,0.22022 4.40424,0.66064 4.40424,0.39638 0,-0.26424 -4.09594,-0.17616 -5.32911,-1.1451 -1.2332,-0.968917 -1.40937,-4.36018 -1.40937,-4.36018 0,0 -0.13217,1.409355 1.89381,2.15807 2.02596,0.748715 4.40424,1.145107 4.40424,0.704667 0,-0.440409 -3.69955,-1.409334 -3.43529,-4.49229 0.26423,-3.082968 2.86274,-9.645266 3.39124,-10.173772 0.52851,-0.528506 -2.95083,-2.862742 -2.86274,-5.10891 0.088,-2.246154 -1.93784,-4.095932 -1.93784,-4.095932 0,0 1.14508,-0.660623 1.49741,-1.453388 0.35234,-0.792753 -0.088,-1.58552 0.39638,-1.58552 0.48448,0 0.88085,1.893813 2.15808,1.937861 1.27722,0.0441 6.82655,-4.492321 6.82655,-4.492321 0,0 -5.98975,4.448273 -6.65039,3.919767 -0.66063,-0.528506 -1.23318,-0.8368 -0.74873,-0.8368 0.48449,0 1.76171,-0.176164 2.3783,-0.8368 0.61657,-0.660637 1.2332,-2.818709 2.11402,-3.699557 0.88085,-0.880847 1.98191,-1.10106 1.98191,-1.10106 0,0 -1.62957,0.0441 -2.42232,0.96893 -0.79277,0.924883 -0.96892,3.391263 -2.77466,3.875721 -1.80573,0.484459 -3.47934,-1.93786 -3.47934,-1.93786 0,0 3.39126,-0.396376 3.34722,-0.616588 -0.044,-0.220213 -2.55446,-0.13217 -2.15808,-1.409355 0.39638,-1.277223 4.184,-1.233176 4.184,-1.233176 0,0 -2.55445,-0.264246 -1.71764,-0.880848 0.8368,-0.616588 1.84978,-1.365307 3.30317,-1.365307 1.45339,0 3.52338,2.510401 5.15295,2.774661 1.62955,0.264247 3.127,0.528507 3.127,0.528507 0,0 -4.00785,-1.497437 -2.64255,-1.717648 1.36531,-0.220213 3.08297,1.277223 4.09594,1.101046 1.01298,-0.176165 -0.79277,-1.277211 0.088,-1.277211 0.88085,0 7.44315,5.373143 7.44315,5.373143 0,0 -2.33423,-2.466367 -1.2332,-3.082955 1.10109,-0.616588 2.9949,1.409355 2.9949,1.409355 0,0 -1.23319,-2.06999 -0.3083,-2.246155 0.92488,-0.176177 2.99488,0.39639 2.99488,0.39639 0,0 -2.33427,-1.277224 -1.98192,-2.114038 0.35235,-0.8368 0.88086,-2.994872 1.71766,-2.554448 0.8368,0.440411 2.37827,1.629553 2.37827,1.629553 0,0 -1.71764,-1.145095 -0.48446,-2.114025 1.23319,-0.96893 4.44826,-1.057012 4.44826,-1.057012 0,0 -3.74357,0.0441 -3.74357,-0.704671 0,-0.748731 2.64252,-0.616601 2.64252,-0.616601 0,0 -0.0439,-0.880834 0.83682,-2.422319 0.88083,-1.541483 2.81869,-1.717648 2.81869,-1.717648 0,0 -4.88869,-0.440421 -4.62442,-1.012975 0.26425,-0.572549 3.96379,-1.012971 3.96379,-1.012971 0,0 -4.49231,0.440422 -4.5804,0.176171 -0.088,-0.264256 1.27723,-1.93786 1.27723,-1.93786 0,0 -1.27723,-0.04405 -1.27723,-0.528509 0,-0.484465 -3.0389,1.893819 -3.0389,1.233183 0,-0.660633 2.59849,-1.93786 2.59849,-1.93786 0,0 -2.02596,0.572551 -2.15808,0.08809 -0.13217,-0.484465 0.96892,-1.497438 0.96892,-1.497438 0,0 -3.08294,2.025944 -3.30315,1.849778 -0.22021,-0.176169 0.83678,-2.554453 0.83678,-2.554453 0,0 -4.7125,2.422328 -4.7125,1.849776 0,-0.572552 0.0441,-2.598497 -0.088,-2.774662 -0.13216,-0.17617 -1.71763,-0.968931 -1.71763,-0.968931 0,0 0.26424,1.673606 -0.26426,1.673606 -0.52852,0 -2.24615,-2.554451 -2.24615,-2.554451 0,0 -0.13217,0.660632 -1.67361,0.660632 -1.54149,0 -4.93273,-1.93786 -4.93273,-1.93786 0,0 -1.49744,2.246157 -1.89382,1.981902 -0.39639,-0.264249 -0.13217,-1.629561 -0.13217,-1.629561 0,0 -1.14508,-1.101059 -1.80573,-1.012974 -0.66064,0.08809 -5.72548,2.686578 -6.73845,2.554451 -1.01297,-0.13213 -3.0389,-1.233182 -3.0389,-2.025943 0,-0.792763 1.05699,-1.497437 1.05699,-1.497437 0,0 -0.57255,0.616588 -1.80572,0.484466 -1.23318,-0.13213 -4.00787,-1.101058 -4.00787,-1.101058 0,0 -1.49742,1.497436 -2.5104,2.598495 -1.01296,1.101056 -5.98974,-0.748721 -5.98974,-0.748721 0,0 1.3653,3.171041 -1.36532,4.184015 -2.73061,1.012973 -2.77466,-1.012974 -2.77466,-1.012974 0,0 0.48447,2.334245 -0.96894,2.334245 -1.45337,0 -2.95082,-0.704677 -2.95082,-0.704677 0,0 1.10106,1.849774 -0.92488,2.51041 -2.02594,0.66063 -2.55446,-1.277227 -2.55446,-1.277227 0,0 -0.5285,4.800606 -2.29019,5.417195 -1.7617,0.616602 -7.00274,0.13217 -7.00274,0.13217 0,0 2.46638,6.562299 0.35235,8.147817 -2.11403,1.585532 -7.04676,3.03892 -7.04676,3.03892 0,0 3.03892,11.627161 1.89382,11.627161 -1.1451,0 -4.5804,-1.233176 -4.5804,-1.233176 0,0 0.66064,3.171023 -0.176177,4.095918 -0.836794,0.924883 -2.554446,1.761696 -2.554446,1.761696 0,0 7.663353,0.880848 8.147813,1.981895 0.48447,1.10106 1.05703,4.668485 -1.01295,5.10891 -2.07,0.440424 -3.61146,-0.264247 -3.61146,-0.264247 0,0 0.83677,0.572541 0.61657,1.453389 -0.22022,0.880832 -2.11402,0.836805 -2.11402,0.836805 0,0 2.55443,-0.528511 3.25912,0.616581 0.70468,1.145104 -0.70469,4.272099 -0.70469,4.272099 0,0 2.86277,-1.673603 3.47935,-1.145097 0.61659,0.528505 6.254,0.440419 6.254,2.510413 0,2.069967 -1.76168,5.901667 -0.57254,9.645247 1.18914,3.7436 4.44828,9.46909 4.53636,11.80334 0.088,2.33421 1.01298,4.88869 -0.9249,4.53634 -1.93787,-0.35234 -2.06998,-2.77466 -2.06998,-2.77466 0,0 0.17616,2.15807 0.88085,3.30316 0.70467,1.1451 7.31099,-1.71764 8.63226,-1.18914 1.32126,0.52852 3.34722,3.91976 4.93276,3.69957 1.58551,-0.22022 0.88083,-3.34722 0.88083,-3.34722 0,0 0.48448,2.59849 -0.61657,2.86274 -1.10107,0.26426 -4.65282,-5.56574 -3.94816,-5.60978 0.70466,-0.0439 1.87815,0.23662 3.28751,-0.42402 1.40935,-0.66063 1.40935,-3.21508 1.40935,-3.21508 0,0 0.088,2.99488 -1.84977,2.9068 -1.93786,-0.088 -3.36362,-3.04649 -2.96724,-3.70714 0.39638,-0.66061 2.87915,-1.79814 3.01127,-1.44582 0.13218,0.35234 8.63229,7.53124 8.89654,7.31103 0.26428,-0.22023 -6.20994,-4.88871 -6.56229,-6.07782 -0.35235,-1.18916 4.13998,2.95081 6.34209,2.55442 2.20211,-0.39637 2.59849,-1.18911 2.59849,-1.18911 0,0 -1.1451,2.86272 -8.80845,-3.03893 -7.66337,-5.90167 4.62443,-0.79275 7.00271,0.70467 2.37829,1.49744 5.28508,4.44827 5.28508,4.44827 0,0 -3.39126,-4.09592 -8.05972,-6.25399 -4.6685,-2.15807 -8.01572,-7.79549 -7.26698,-8.19188 0.74868,-0.39636 1.62957,0 3.03891,-0.66062 1.40933,-0.66065 2.99487,-2.55446 2.99487,-2.55446 0,0 -3.47935,2.33425 -4.53635,1.7617 -1.05702,-0.57255 -2.86274,-4.31615 -2.15807,-4.31615 0.70467,0 3.39126,1.67361 3.39126,1.67361 0,0 -3.96381,-2.06998 -3.96381,-4.095926 0,-2.025956 -0.26425,-2.510413 0.30828,-2.290204 0.57256,0.220231 0.83681,1.101059 2.55448,2.554462 1.71762,1.453392 3.08295,1.365306 3.08295,1.365306 0,0 -5.54933,-3.787634 -5.54933,-4.844644 0,-1.057011 1.93786,-3.919768 3.17104,-3.435296 z"
       id="path4842"
       inkscape:connector-curvature="0"
       sodipodi:nodetypes="cssccccsssscssssccssscsssscssccscssscssscscsccscscscccccccsscccscsccscscscssscscscscscscscscscscsscccscssscscssscscscccsssscsscssscsscssscsc" />
    <path
       style="fill:#5f5f5f;fill-opacity:1;fill-rule:evenodd;stroke:none;stroke-width:0.46307677px;stroke-linecap:butt;stroke-linejoin:miter;stroke-opacity:1"
       d="m 138.21249,42.264323 c 0,0 -1.4974,1.497208 -2.51037,2.598267 -1.01297,1.101053 -5.9895,-0.748691 -5.9895,-0.748691 0,0 1.36472,3.171229 -1.36589,4.184205 -2.23428,0.828841 -2.66359,-0.364048 -2.74814,-0.829757 0.073,0.447953 0.27575,2.151369 -0.99531,2.151369 -1.45337,0 -2.95047,-0.705086 -2.95047,-0.705086 0,0 1.10083,1.849747 -0.92512,2.510381 -2.02594,0.660632 -2.55468,-1.277331 -2.55468,-1.277331 0,0 -0.52863,4.800658 -2.29032,5.417248 -1.76171,0.616601 -7.00251,0.132169 -7.00251,0.132169 0,0 2.46623,6.562153 0.35221,8.147671 -2.11404,1.585532 -7.04679,3.039026 -7.04679,3.039026 0,0 3.03895,11.627479 1.89385,11.627479 -1.14509,0 -4.580004,-1.233044 -4.580004,-1.233044 0,0 0.660374,3.170745 -0.176442,4.095641 -0.836797,0.924882 -2.554666,1.761682 -2.554666,1.761682 0,0 7.663892,0.88069 8.148352,1.981736 0.48446,1.101074 1.05699,4.668924 -1.013,5.109347 -2.06999,0.440425 -3.61196,-0.264325 -3.61196,-0.264325 0,0 0.83741,0.572249 0.6172,1.453084 -0.10317,0.412546 -0.57417,0.617849 -1.045025,0.724164 0.788755,-0.02751 1.787045,0.07547 2.189525,0.729624 0.21763,0.353641 0.23308,0.896408 0.15123,1.477609 1.56166,-0.133733 3.22433,-0.347807 3.85722,-0.685326 1.32126,-0.704664 1.76118,-3.963481 2.42181,-3.963481 0.66062,0 1.62954,0.22004 1.62954,0.22004 0,0 -1.23285,-1.188904 -2.20179,-0.836562 -0.96891,0.352341 -2.51038,1.100887 -2.51038,1.100887 0,0 3.12714,-1.453574 3.17119,-2.422504 0.0441,-0.96893 -2.29037,-1.761629 -2.4225,-2.378217 -0.13217,-0.616602 -3.5237,-3.567003 -2.95116,-3.567003 0.57255,0 2.64254,2.862412 2.64254,1.320927 0,-1.54147 -1.67312,-3.743417 -1.67312,-3.743417 0,0 2.55399,1.71778 2.55399,0.528638 0,-1.189142 -2.42183,-4.360655 -2.42183,-4.360655 0,0 3.74336,1.409274 4.35996,2.246075 0.6166,0.8368 0.44008,4.492812 0.44008,4.492812 0,0 -2e-5,-2.466632 1.62955,-2.686831 1.62956,-0.220212 5.1972,-0.836575 5.1972,-1.717423 0,-0.880848 -2.15818,0.748824 -2.15818,-0.484366 0,-1.233176 2.02626,-1.761881 2.0703,-3.303351 0.044,-1.541485 1.76169,-1.761669 1.76169,-0.748692 0,1.012978 -1.40975,4.75645 -0.70508,4.75645 0.51437,0 0.95583,-1.79805 1.15812,-2.774025 0.067,-0.358672 0.11919,-0.617211 0.11919,-0.617211 0,0 -0.0443,0.256089 -0.11919,0.617211 -0.18166,0.972121 -0.47824,2.777494 -0.1887,2.906194 0.39637,0.176164 0.48402,-3.258986 0.92444,-3.743445 0.44041,-0.484459 1.27734,-0.396694 1.27734,-1.189447 0,-0.792766 0.39662,-6.033581 0.0443,-7.883358 -0.35235,-1.849765 -1.49731,-4.448129 -1.23304,-5.505141 0.26426,-1.057012 0.26431,-3.655548 0.26431,-3.655548 0,0 2.55432,2.245836 2.99476,3.082636 0.31547,0.599399 -0.4264,2.068626 -0.8754,2.860544 0.423,-0.678236 1.16747,-1.708139 1.53553,-1.186731 0.52848,0.748718 0.13216,4.007758 0.13216,4.007758 0,0 1.05734,-1.101233 2.0703,-0.660809 1.01296,0.440425 0.0879,2.11421 0.83657,3.303352 0.72957,1.158735 3.34069,5.5358 4.61475,6.125756 0.4042,0.118263 0.58567,0.196903 0.0981,0.04026 -0.0317,-0.0106 -0.0647,-0.02477 -0.0981,-0.04026 -0.61814,-0.180734 -1.76814,-0.455813 -1.92792,-0.136262 -0.26427,0.528519 2.51039,1.894342 2.51039,3.744119 0,1.849778 -0.25807,4.270826 -0.78955,4.821846 1.86854,-0.99657 1.2299,-2.620057 2.28693,-2.620057 1.05699,0 4.8888,2.422597 3.91987,2.818987 -0.96893,0.396362 -3.69938,0.924855 -2.86259,1.629525 0.83682,0.704684 4.4923,-0.132434 5.15294,0.57225 0.49225,0.525063 0.6907,6.593395 0.74185,9.784033 0.0212,-1.804768 0.0964,-4.190334 0.31475,-4.190334 0.35234,0 2.51088,2.334158 2.59893,4.007746 0.0882,1.673613 2.5104,3.787718 2.5104,3.787718 0,0 -3.87586,-5.329546 -1.40949,-9.513561 2.46637,-4.184029 -0.0445,-5.417258 0.17576,-7.178953 0.22022,-1.761697 -2.37796,2.73077 -3.96347,1.409499 -1.58552,-1.321272 -3.65561,-3.391076 -2.90687,-5.372971 0.74872,-1.981908 -3.25873,-7.575303 -3.69914,-7.927645 -0.44045,-0.352342 -1.45376,1.629262 -2.20247,1.453097 -0.74873,-0.176177 -1.54132,-3.214687 -0.22006,-3.699159 1.32126,-0.484458 3.83132,-1.585902 3.83132,-0.572924 0,1.012977 -0.66013,2.290612 -0.66013,2.46679 0,0.176164 0.92454,-0.440703 1.32094,-0.176443 0.39638,0.264247 1.01315,2.68642 1.54165,2.862584 0.52851,0.176178 2.20178,-1.893865 2.20178,-1.893865 0,0 -2.77454,-1.188493 -2.11389,-1.893177 0.66062,-0.70467 2.46679,0.04357 2.46679,0.04357 0,0 -0.0445,-1.805598 0.79226,-2.113892 0.83682,-0.308307 2.24609,-1.761934 3.12692,-1.805982 0.88084,-0.0441 2.46679,0.264313 2.46679,0.264313 0,0 -2.55461,-2.289726 -4.05203,-1.673124 -1.49745,0.616588 -4.44861,2.113905 -5.59372,2.113905 -1.14507,0 -0.22016,-1.762014 -0.74866,-2.070307 -0.52853,-0.308295 -3.6113,-0.175767 -3.6113,-0.175767 0,0 4.00768,1.012434 1.1009,1.408824 -2.90678,0.396376 -5.37297,-0.748705 -5.37297,-0.748705 0,0 1.45354,-0.04357 1.40949,-0.660119 -0.0439,-0.616589 -0.3522,-1.718086 -0.3522,-1.718086 0,0 1.10088,1.409195 1.84957,1.100874 0.74873,-0.308293 1.10084,-1.849168 0.83658,-2.025332 -0.26427,-0.176165 -2.24606,-0.352872 -2.24606,-0.352872 l 3.87559,-0.704419 c 0,0 -5.19678,6.6e-5 -5.24083,-0.616522 -0.0439,-0.616588 1.93767,0.04371 2.73045,-1.321616 0.79275,-1.365307 0.83726,-3.566993 0.83726,-3.566993 0,0 2.64236,-0.792863 4.62427,0.484364 1.9819,1.277226 2.37822,1.981741 2.37822,1.981741 0,0 -0.30818,-1.629264 -1.36521,-2.333941 -1.057,-0.704676 -4.05204,-1.321614 -4.05204,-1.321614 0,0 0.3521,-0.308165 0.83657,-1.233053 0.48446,-0.924888 0.22073,-1.629538 0.22073,-1.629538 0,0 0.88038,1.938143 1.67313,1.938143 0.79276,0 1.49755,-0.176173 1.27732,-0.88085 -0.22021,-0.704675 -1.45308,-2.642547 -1.45308,-2.642547 0,0 2.86276,1.937903 3.5234,2.774709 0.66063,0.836801 -1.76184,1.541484 -1.40949,1.761696 0.3523,0.220209 2.29032,1.056612 2.29032,1.056612 0,0 -1.23303,0.572484 -1.23303,1.497373 0,0.924889 1.67311,0.04428 1.67311,0.04428 0,0 -1.01266,1.23306 -0.57224,1.23306 0.44044,0 1.89381,-1.277438 1.62953,-1.673823 -0.26423,-0.396382 -1.80597,-0.220042 -1.80597,-0.220042 0,0 2.20259,-1.541147 2.59896,-1.320933 0.39639,0.220209 2.28965,1.277333 2.28965,1.277333 0,0 -2.59821,-3.347635 -2.46609,-3.347635 0.13217,0 3.61126,1.497238 3.61126,0.96873 0,-0.528507 -2.15818,-4.095639 -2.15818,-4.095639 0,0 3.47981,2.862591 3.47981,3.743436 0,0.880844 -1.23364,0.616969 -0.83726,1.453775 0.39638,0.836802 1.23356,0.220283 1.45377,1.14517 0.22022,0.924889 -0.22003,1.805302 -0.22003,1.805302 0,0 1.14494,-0.08781 1.10089,-0.440087 -0.0439,-0.352337 -1.62967,-4.800729 -1.27733,-4.800729 0.35232,0 0.7046,2.466137 1.49737,2.598266 0.79277,0.13213 1.23304,-1.673135 1.23304,-1.673135 0,0 -0.4406,2.509769 0.0878,2.774025 0.52852,0.264251 1.54187,-1.14453 1.45379,-2.157497 -0.088,-1.012973 -0.92513,-1.497375 -0.92513,-1.497375 0,0 0.74919,-3.788128 0.96941,-3.611957 0.22022,0.176171 0.13216,2.510383 0.13216,2.510383 0,0 1.32125,-1.629602 1.62952,-1.013008 0.30831,0.616592 -0.35287,1.938138 -0.35287,1.938138 0,0 1.44651,0.179601 1.94495,-0.0082 0.0962,-0.156656 0.16963,-0.250392 0.16963,-0.168268 0,0.07572 -0.066,0.129283 -0.16963,0.168268 -0.41988,0.683471 -1.49406,3.140145 -1.0641,3.355125 0.52853,0.264253 1.85026,-3.434832 1.85026,-3.434832 0,0 -0.3964,2.378221 -0.13217,2.378221 0.26424,0 1.0566,-2.951144 1.0566,-2.951144 0,0 0.0884,3.567749 -1.0566,4.712841 -1.1451,1.145101 -4.22848,8.103405 -4.22848,8.103405 0,0 3.74373,-0.968731 6.56241,-0.968731 2.81871,0 3.78771,-1.233044 3.78771,-1.233044 0,0 -5.10916,1.188864 -5.32937,0.704392 -0.2202,-0.484458 3.25908,-1.27733 3.25908,-1.27733 0,0 -2.99441,-0.836879 -2.55399,-1.145174 0.44043,-0.308294 4.22797,0.308916 4.00776,-0.263637 -0.2202,-0.572554 -2.37837,-2.378297 -2.15819,-2.642544 0.22024,-0.264256 4.84503,-2.775014 4.84503,-2.202464 0,0.57255 -2.02603,2.113905 -2.02603,2.113905 0,0 5.98986,-1.761605 7.31111,-3.126916 1.32127,-1.36531 2.1575,-2.333939 2.1575,-2.333939 0,0 -1.93776,3.655288 -5.76945,5.240809 -3.83169,1.585525 -0.39649,2.554666 -0.39649,2.554666 0,0 -2.77436,0.08794 -2.33393,1.100888 0.44042,1.012978 3.78769,1.145175 3.78769,1.145175 0,0 -3.21503,-0.220543 -3.25904,0.440092 -0.0441,0.660637 2.15787,1.982412 3.61126,1.982412 l 3.5234,0 c 0,0 -1.6738,0.219735 -1.54166,1.673123 0.0568,0.624786 0.6631,1.660649 1.33116,2.643232 0.0364,-0.01841 0.0751,-0.03522 0.12263,-0.04424 0.92487,-0.176177 2.99476,0.395794 2.99476,0.395794 0,0 -2.3341,-1.277092 -1.98175,-2.113905 0.35235,-0.8368 0.88062,-2.994409 1.71742,-2.553985 0.83681,0.440423 2.37821,1.629539 2.37821,1.629539 0,0 -1.71755,-1.14565 -0.48436,-2.11458 1.23317,-0.968943 4.44855,-1.056615 4.44855,-1.056615 0,0 -3.74414,0.0437 -3.74414,-0.705081 0,-0.748719 2.64255,-0.616522 2.64253,-0.616522 0,0 -0.0436,-0.880358 0.83725,-2.421828 0.88087,-1.541485 2.81832,-1.718099 2.81832,-1.718099 0,0 -4.88855,-0.44046 -4.62428,-1.01301 0.26425,-0.572551 3.96417,-1.013012 3.96417,-1.013012 0,0 -4.4926,0.440696 -4.5807,0.176444 -0.0882,-0.264257 1.27733,-1.938141 1.27733,-1.938141 0,0 -1.27733,-0.04349 -1.27733,-0.527962 0,-0.484466 -3.03904,1.893687 -3.03904,1.233053 0,-0.660633 2.59827,-1.93814 2.59827,-1.93814 0,0 -2.02535,0.572343 -2.15749,0.08789 -0.13217,-0.484466 0.96872,-1.497378 0.96872,-1.497378 0,0 -3.08314,2.026431 -3.30334,1.85026 -0.22019,-0.176167 0.83725,-2.554664 0.83725,-2.554664 0,0 -4.71286,2.422129 -4.71286,1.849576 0,-0.57255 0.0442,-2.598539 -0.0878,-2.774704 -0.13216,-0.176172 -1.71809,-0.968733 -1.71809,-0.968733 0,0 0.26419,1.673817 -0.26431,1.673817 -0.52852,0 -2.24607,-2.554664 -2.24607,-2.554664 0,0 -0.13164,0.660806 -1.67314,0.660806 -1.54148,0 -4.93289,-1.938138 -4.93289,-1.938138 0,0 -1.49747,2.245993 -1.89386,1.981737 -0.39635,-0.264242 -0.13218,-1.629525 -0.13218,-1.629525 0,0 -1.14532,-1.101098 -1.80596,-1.013012 -0.66065,0.0881 -5.72523,2.686794 -6.7382,2.554667 -1.01296,-0.13213 -3.03901,-1.233259 -3.03901,-2.02602 0,-0.557484 0.51812,-1.065672 0.82839,-1.321615 -0.27073,0.171008 -0.78637,0.393322 -1.5771,0.308604 -1.23316,-0.13213 -4.00776,-1.100889 -4.00776,-1.100889 z m 5.58486,0.792286 c 0.15149,-0.0957 0.2289,-0.175759 0.2289,-0.175759 0,0 -0.098,0.06775 -0.2289,0.175759 z m -4.31433,51.36036 c -0.0133,1.107952 -0.0106,2.048598 0.006,1.93133 0.0119,-0.07869 0.0106,-0.839905 -0.006,-1.93133 z M 121.26178,62.213202 c -0.18439,0.295674 -0.31403,0.530679 -0.31403,0.530679 0,0 0.1362,-0.217047 0.31403,-0.530679 z M 99.863905,92.139558 c -0.59218,0.02076 -1.069553,0.113095 -1.069553,0.113095 0,0 0.535061,0.0083 1.069553,-0.113095 z M 125.59859,47.468347 c -0.0106,-0.06426 -0.0265,-0.183255 -0.0265,-0.183255 0,0 0.008,0.0798 0.0265,0.183255 z"
       id="path4844"
       inkscape:connector-curvature="0" />
  </g>
  <g
     inkscape:groupmode="layer"
     id="layer5"
     inkscape:label="Arms"
     style="display:inline">
    <path
       style="fill:#000000;fill-opacity:1;fill-rule:evenodd;stroke:none;stroke-width:0.46307677px;stroke-linecap:butt;stroke-linejoin:miter;stroke-opacity:1"
       d="m 72.094359,202.04398 c 0,0 4.883158,-8.71992 6.80154,-14.30067 1.918383,-5.58075 0.871993,-20.05583 0.871993,-20.05583 l 15.347067,3.66237 -7.150336,29.99656 z"
       id="path4914"
       inkscape:connector-curvature="0" />
    <path
       style="fill:#e9c6af;fill-rule:evenodd;stroke:none;stroke-width:0.46307677px;stroke-linecap:butt;stroke-linejoin:miter;stroke-opacity:1"
       d="m 82.533352,139.5346 c 0,0 -3.612539,0.12448 -7.847931,2.05541 -4.235394,1.93083 -12.083324,8.59535 -15.758149,11.77189 -3.674824,3.17655 -7.100509,6.22851 -7.9725,6.22851 -0.871993,0 -2.055411,-0.436 -4.733673,0.24915 -2.678263,0.68513 -20.554107,6.97593 -20.554107,6.97593 0,0 -9.280493,-13.70274 -10.526193,-17.5644 -1.245705,-3.86169 -4.235393,-17.06614 -4.04854,-20.05583 0.186856,-2.9897 -0.74742,-9.59193 -0.435996,-11.33591 0.311427,-1.74399 1.058849,-1.93084 1.058849,-3.55027 0,-1.6194 -1.619414,-12.76845 -2.0554114,-13.64044 -0.435996,-0.871991 -1.806268,-3.114253 -2.30455,-3.114253 -0.498281,0 -0.498281,0.249142 -1.681699,-0.37372 -1.183419,-0.622851 -6.60223197,-6.539949 -6.60223197,-7.598775 0,-1.058854 -0.74741903,-4.173129 -0.93427403,-4.422251 -0.186857,-0.249149 -1.681701,-0.996569 -1.993126,-0.996569 -0.311427,0 -2.740549,0 -3.051975,3.550263 -0.311426,3.550249 1.557129,8.470772 2.242267,9.155902 0.685136,0.68515 2.429121,4.048553 2.429121,4.048553 0,0 -8.4707846,-9.965639 -10.4639086,-9.654206 -1.993126,0.311419 -4.733672,1.494839 -4.733672,3.051959 0,1.557123 -0.249142,2.429128 0.435995,3.051979 0.685137,0.622851 0.747421,1.307991 0.747421,1.307991 0,0 -0.996562,-0.934282 -1.058846,0.249153 -0.06229,1.183414 0.934277,3.051954 0.311425,3.425664 -0.622852,0.37373 -2.740547,0.93428 -3.487969,1.99314 -0.747422,1.05885 -0.311427,2.5537 -0.747422,3.48798 -0.435997,0.93427 -1.80627,2.80282 -1.80627,4.1731 0,1.37027 1.619414,4.35996 1.681698,5.66793 0.06229,1.30799 0.560567,2.49143 1.121134,2.92743 0.560566,0.43598 2.17998,1.18342 2.865117,1.80625 0.685137,0.62285 1.494845,2.18 2.740548,3.17655 1.245702,0.99656 3.487969,2.80283 4.359963,3.17656 0.8719916,0.37369 2.6782616,4.04852 2.8651186,6.72678 0.186854,2.67827 2.117694,14.57474 2.117694,20.05582 0,5.48112 -0.498282,10.0902 1.806271,17.7513 2.304551,7.66106 5.979376,13.76503 6.290801,15.94497 0.311428,2.18 1.245704,6.60224 2.429124,7.28739 1.183419,0.68513 21.6129534,3.61253 23.3569384,3.61253 1.743985,0 20.740963,-3.55024 29.149461,-6.66451 8.4085,-3.11425 13.266744,-5.54337 16.256432,-7.84793 2.989686,-2.30455 7.536505,-6.78909 7.910217,-6.72681 0.373711,0.0623 3.238827,8.78221 4.920526,10.46392 1.681702,1.68169 1.743985,1.74398 1.743985,1.74398 l 4.795959,-46.02874 c 0,0 -9.03135,-5.79252 -10.837621,-5.54337 z"
       id="path4890"
       inkscape:connector-curvature="0" />
    <path
       style="fill:#e9c6af;fill-opacity:1;fill-rule:evenodd;stroke:none;stroke-width:0.46307677px;stroke-linecap:butt;stroke-linejoin:miter;stroke-opacity:1"
       d="m 192.3421,139.69653 c 0,0 7.15035,2.70318 11.33592,6.36554 4.18557,3.66237 10.2023,13.07989 12.12069,14.64948 1.91837,1.56957 7.41194,7.15033 9.24311,8.28394 1.83119,1.13357 8.80712,5.05754 11.4231,6.53993 2.61597,1.4824 9.67914,6.10394 9.67914,6.10394 0,0 1.13357,-2.35436 2.70317,-3.48796 1.56957,-1.13358 13.77747,-4.62156 16.13185,-6.45274 2.35437,-1.83117 14.38788,-14.03908 16.04467,-16.21905 1.65677,-2.17999 7.23751,-5.14477 7.84794,-7.06315 0.61037,-1.91838 1.30797,-5.23195 1.22078,-6.80155 -0.0871,-1.56958 -1.6568,-4.27274 -1.83121,-6.27834 -0.17438,-2.00557 -0.95917,-7.84793 -0.52317,-9.67913 0.43599,-1.83118 2.52876,-3.05197 3.66235,-5.23194 1.1336,-2.17998 1.70042,-2.92118 1.70042,-2.92118 0,0 -1.00281,-0.7848 -0.74121,-1.61318 0.26158,-0.8284 0.74121,-1.5696 1.30797,-1.5696 0.5668,0 3.35717,-0.91558 4.88316,-0.7412 1.52599,0.17441 2.9212,0.69761 4.66515,1.56961 1.74399,0.87199 2.70319,1.87479 3.26998,2.74677 0.56681,0.87201 0.17441,2.13639 0.17441,2.13639 0,0 1.91837,0.52318 2.22357,1.13358 0.3052,0.6104 -0.2616,1.2208 0.654,2.39797 0.91559,1.1772 2.92117,2.00559 2.92117,2.87758 0,0.87199 -0.65399,1.7876 -0.13071,2.26719 0.5232,0.47959 0.9592,0.0871 1.308,1.56957 0.3488,1.4824 1.0028,1.4824 1.0028,4.05478 0,2.57239 -1.48239,7.97872 -2.22359,7.93513 -0.74119,-0.0437 -3.13916,5.97313 -4.83957,7.89153 -1.70037,1.91839 -23.15137,35.88249 -29.08093,41.59404 -5.92956,5.71156 -12.8183,10.2895 -14.16987,11.2923 -1.35161,1.00281 -8.32755,7.71714 -9.41753,8.10952 -1.08998,0.39241 -13.25428,0.4796 -16.61147,-1.22077 -3.35716,-1.70038 -26.15976,-9.24313 -29.90932,-11.46672 -3.74957,-2.22357 -10.50751,-8.67631 -10.50751,-8.67631 z"
       id="path4892"
       inkscape:connector-curvature="0" />
    <path
       style="fill:#deaa87;fill-rule:evenodd;stroke:none;stroke-width:0.46307677px;stroke-linecap:butt;stroke-linejoin:miter;stroke-opacity:1"
       d="m 5.0551736,107.34221 c -0.07769,0.001 -0.14238,0.0307 -0.191431,0.0906 -0.784793,0.95918 -1.743984,2.17997 -2.441579,2.17997 -0.697594,0 -3.575168,-0.30519 -3.575168,-0.30519 0,0 2.441579,1.35159 2.877575,2.09278 0.435996,0.7412 1.395188,1.48238 1.395188,3.05197 0,1.56959 -2.48517897,3.00836 -2.48517897,3.00836 0,0 1.04638997,0.5232 1.65678497,1.96201 0.610394,1.43877 0.479597,2.83398 -0.610395,3.31357 -1.08998997,0.4796 -4.359962,0 -4.359962,0 0,0 -0.0436,1.61319 -0.348797,1.91837 -0.305196,0.30522 -3.182773,0.7412 -4.185564,0.34881 -1.002791,-0.3924 -5.9731466,-2.70319 -7.2811356,-3.13917 -1.307988,-0.436 -3.095575,-1.74399 -3.749568,-2.0492 -0.653995,-0.30519 -2.921173,-2.44156 -2.921173,-2.44156 l 0.703725,3.00564 c 0.07311,0.0855 0.147778,0.16135 0.224128,0.22073 0.560566,0.43598 2.180175,1.18311 2.865312,1.80598 0.685137,0.62285 1.494942,2.18006 2.740644,3.17664 1.245704,0.99657 3.487969,2.80291 4.359963,3.17664 0.8719916,0.3737 2.6784576,4.04835 2.8653136,6.72659 0.186854,2.67829 2.117306,14.57474 2.117306,20.05584 0,5.48108 -0.497893,10.09077 1.80666,17.75185 2.30455,7.66108 5.979183,13.76454 6.290607,15.94452 0.311427,2.17998 1.245895,6.60213 2.429319,7.28728 1.183416,0.68512 21.6124694,3.61263 23.3564534,3.61263 1.743982,0 20.741254,-3.55035 29.149749,-6.66461 8.408502,-3.11425 13.266842,-5.54339 16.256528,-7.84793 2.989685,-2.30455 7.536217,-6.7889 7.909926,-6.72661 0.373713,0.0623 3.238926,8.7822 4.920625,10.4639 1.519443,1.51945 1.551763,1.55178 1.575719,1.57573 l 0.19143,-0.0566 0.925129,-8.87729 0.359697,-9.25946 c 0,0 -4.359962,-8.80714 -6.103948,-9.59192 -1.743985,-0.78479 -4.011164,-2.09278 -4.35996,-1.30799 -0.348798,0.7848 1.831183,7.93512 1.656785,8.80712 -0.174399,0.872 -0.959192,-2.70319 -2.267181,-2.00559 -1.307989,0.69761 -3.48797,0.52319 -4.883157,1.48241 -1.395188,0.95917 -7.586335,6.45272 -8.894323,6.53994 -1.307989,0.0871 -8.458327,-0.43599 -10.376711,1.30798 -1.918382,1.74399 -3.051972,5.49355 -5.231954,5.49355 -2.17998,0 -2.703177,-1.2208 -3.31357,-0.17441 -0.610395,1.04641 3.139173,3.13919 -0.697595,5.23196 -3.836766,2.09279 -13.603079,6.53996 -16.393455,5.58076 -2.790377,-0.95919 -6.975941,-2.61598 -6.539944,-3.57516 0.435996,-0.9592 5.406353,-6.62716 5.580752,-10.37671 0.174398,-3.74959 -0.174399,-7.49913 -0.784794,-7.23755 -0.610395,0.2616 -3.749568,12.38229 -6.016748,12.20789 -2.26718,-0.17436 -10.551108,-12.46949 -12.7310904,-26.77016 -2.179981,-14.30066 -8.19672897,-17.61425 -6.539942,-18.31183 1.656785,-0.6976 4.185562,6.71432 4.795956,6.71432 0.610396,0 -3.313569,-20.84061 -2.267179,-20.84061 1.046391,0 2.267179,15.87027 4.011165,17.78865 1.7439864,1.91839 -1.743986,-15.25986 -0.610394,-15.08546 1.133589,0.17437 1.656784,9.1559 2.2671804,9.1559 0.610396,0 -0.08719,-12.38227 -0.8719934,-14.30065 -0.784793,-1.9184 -0.523188,-3.22638 0.08719,-4.97037 0.6103954,-1.74398 1.8311864,-3.83675 1.3951894,-4.44716 -0.408746,-0.57224 -4.5725544,-6.73945 -5.7381184,-6.71773 z"
       id="path4894"
       inkscape:connector-curvature="0" />
    <path
       style="fill:#d49a74;fill-opacity:1;fill-rule:evenodd;stroke:none;stroke-width:0.46307677px;stroke-linecap:butt;stroke-linejoin:miter;stroke-opacity:1"
       d="m -1.1530044,108.7408 c 0.56679503,0 -0.218,-2.70318 0.52319503,-3.26997 0.741193,-0.56679 4.53435997,-1.04639 4.53435997,-1.04639 0,0 -2.397979,-3.26998 -2.005583,-3.26998 0.392397,0 2.877574,2.61598 3.226374,1.78759 0.348796,-0.8284 0.348796,-2.70317 -0.697595,-3.09556 -1.046391,-0.392405 -2.092782,-0.348814 -2.746777,-1.700396 -0.653992,-1.351583 -7.586334,-8.501918 -7.150338,-9.635518 0.435996,-1.133585 -1.351587,2.267172 -0.828391,4.098366 0.523195,1.831188 4.054764,8.632708 4.054764,8.632708 l -3.705967,-3.793153 c 0,0 3.357169,3.182773 3.313571,5.057543 -0.0436,1.87479 -1.831185,2.61598 -1.831185,2.61598 0,0 1.874783,3.92399 3.313572,3.61878 z"
       id="path4896"
       inkscape:connector-curvature="0" />
    <path
       style="fill:#d49a74;fill-opacity:1;fill-rule:evenodd;stroke:none;stroke-width:0.46307677px;stroke-linecap:butt;stroke-linejoin:miter;stroke-opacity:1"
       d="m -4.1177794,104.16284 c 0,0 -4.403562,-1.8748 -5.362754,-2.74678 -0.9591896,-0.87199 -3.1827716,-1.04639 -3.4007716,-1.482377 -0.217996,-0.436007 -3.008373,-2.877582 -2.310777,-2.790388 0.697593,0.08731 2.005582,1.046401 2.005582,1.046401 0,0 -3.618769,-4.185573 -3.793167,-3.531578 -0.1744,0.653996 -0.741195,1.525989 0.566794,3.051979 1.307989,1.525989 1.395188,0.697597 1.961982,1.482387 0.566797,0.784791 -0.305197,0.523191 1.438788,1.918396 1.743985,1.39516 5.9731476,4.31636 6.4527446,4.31636 0.479594,0 2.354379,-0.21801 2.441579,-1.2644 z"
       id="path4898"
       inkscape:connector-curvature="0" />
    <path
       style="fill:#d49a74;fill-opacity:1;fill-rule:evenodd;stroke:none;stroke-width:0.46307677px;stroke-linecap:butt;stroke-linejoin:miter;stroke-opacity:1"
       d="m 2.7709616,114.19077 c 0,0 -1.525989,1.30796 -2.48517997,0.52318 -0.95919,-0.78479 -1.046391,-2.35438 -1.35158603,-2.52877 -0.3052,-0.17441 -4.534362,-1.0028 -4.70876,-2.00559 -0.174398,-1.0028 -0.915594,-4.49076 -0.261599,-4.49076 0.653996,0 -0.784792,-0.3924 -1.831183,-0.87199 -1.046391,-0.4796 -5.1011566,-3.35717 -6.1911466,-1.87479 -1.08999,1.48239 0.261599,4.92676 0.915593,5.23195 0.653992,0.30519 3.9675636,3.31356 5.1011546,3.88037 1.13359,0.5668 2.877574,2.74679 4.447161,2.83397 1.569588,0.0873 3.70596803,2.52878 4.18556403,2.26717 0.47959497,-0.26158 2.31077897,-1.48234 2.17998197,-2.96474 z"
       id="path4900"
       inkscape:connector-curvature="0" />
    <path
       style="fill:#d49a74;fill-opacity:1;fill-rule:evenodd;stroke:none;stroke-width:0.46307677px;stroke-linecap:butt;stroke-linejoin:miter;stroke-opacity:1"
       d="m 1.2013746,122.86708 c 0,-0.74118 -3.400771,-2.04919 -3.57517,-2.65958 -0.174398,-0.61038 -3.313571,-0.65399 -3.487968,-1.35158 -0.1744,-0.6976 -1.525987,-3.40078 -1.831185,-3.70597 -0.305198,-0.30522 -0.915594,-1.70039 -0.261598,-1.70039 0.653994,0 2.572379,2.22361 3.57517,2.39798 1.002789,0.1744 5.14475303,2.17999 4.57795903,1.65678 -0.566794,-0.52319 -2.26718103,-2.26717 -3.13917303,-2.39798 -0.871991,-0.13071 -3.095573,-0.82839 -3.662369,-1.56958 -0.566795,-0.7412 -5.7551496,-4.31638 -6.4527436,-4.53436 -0.697594,-0.21799 -3.662366,-3.88038 -4.141963,-3.44438 -0.479595,0.43599 -1.264388,1.08999 -0.915592,1.7004 0.348798,0.61039 0.130805,2.83396 0.130805,2.83396 0,0 0.566796,-1.35158 1.089992,-1.00279 0.523195,0.3488 0.784791,1.17719 1.525986,1.17719 0.741193,0 1.133591,-0.87198 1.700385,-0.3924 0.566796,0.4796 2.179983,2.09278 1.351587,2.74679 -0.828392,0.65398 -3.35717,0.2616 -3.705967,-0.2616 -0.348796,-0.52319 -0.741192,-0.69759 -0.741192,-0.69759 0,0 0.392396,1.22079 -0.130807,1.0028 -0.523193,-0.21801 -1.351585,-3.09558 -1.613184,-3.74958 -0.261596,-0.654 -1.220789,-0.13084 -1.220789,0.56679 0,0.6976 1.264389,2.74677 1.874783,2.96478 0.610396,0.21801 4.57796,3.44437 6.452742,4.53436 1.8747866,1.09 5.7551506,3.48797 7.1939396,4.31636 1.438786,0.82841 3.095574,1.91839 5.406353,1.56959 z"
       id="path4902"
       inkscape:connector-curvature="0" />
    <path
       style="fill:#d49a74;fill-opacity:1;fill-rule:evenodd;stroke:none;stroke-width:0.46307677px;stroke-linecap:butt;stroke-linejoin:miter;stroke-opacity:1"
       d="m -2.7661924,122.69269 c 0,0 -9.4611156,-5.58076 -10.5075076,-6.06036 -1.046391,-0.47959 -3.662368,-2.61597 -4.141964,-2.92118 -0.479595,-0.30519 1.700386,3.40078 0.915592,3.48797 -0.784792,0.0871 -3.705966,-0.17438 -4.054765,-0.78478 -0.348797,-0.61039 -0.217998,-3.05198 0.348799,-3.05198 0.566794,0 2.615974,1.22078 2.615974,1.22078 0,0 -0.91559,-1.70037 -1.395186,-2.26718 -0.479595,-0.56679 -1.08999,-2.48516 -1.743986,-2.35439 -0.653994,0.13085 -1.569586,-0.0436 -1.656785,0.61043 -0.0872,0.65397 -0.871992,0.95917 -0.261597,2.83396 0.610395,1.87478 0.653993,3.05199 3.051973,5.01397 2.397979,1.96198 3.618769,2.74676 5.929549,3.70597 2.31078,0.95917 6.3655436,3.05194 7.1067376,3.05194 0.741193,0 3.051972,0 3.269972,-0.39237 0.217997,-0.39241 0.523194,-2.09278 0.523194,-2.09278 z"
       id="path4904"
       inkscape:connector-curvature="0" />
    <path
       style="fill:#deaa87;fill-rule:evenodd;stroke:none;stroke-width:0.46307677px;stroke-linecap:butt;stroke-linejoin:miter;stroke-opacity:1"
       d="m 289.83086,134.42098 c -1.5696,0.0871 1.6568,3.66237 1.0028,3.66237 -0.654,0 -1.43879,-2.26718 -2.17999,-2.26718 -0.74118,0 2.26721,5.01396 2.39798,7.01954 0.13084,2.00559 0.0436,2.79037 -0.74119,5.14475 -0.7848,2.35436 1.48238,1.4388 3.31357,2.65957 1.83118,1.22081 -4.66515,2.35439 -4.66515,3.53158 0,1.17722 7.80432,-0.56681 7.80432,-0.13085 0,0.43599 -10.98714,6.14753 -10.94351,7.41192 0.0436,1.26439 2.8776,0.87202 3.00839,1.74399 0.13084,0.87199 -8.54552,9.54831 -8.41473,9.94071 0.13085,0.39241 4.79597,-3.57515 5.01395,-3.35717 0.218,0.21801 -1.78755,3.57519 -1.83118,4.57798 -0.0436,1.00278 -7.19394,12.20789 -9.28673,13.99547 -2.09277,1.78757 -19.61983,12.0771 -21.53823,13.03629 -1.91832,0.95918 -1.04636,1.74399 -1.96197,3.05197 -0.91559,1.308 -6.19113,-1.1336 -8.71991,-1.4388 -2.52878,-0.30519 -16.26266,-11.81549 -18.79144,-13.29787 -2.52877,-1.48239 -3.70596,-5.10117 -4.57795,-6.58356 -0.872,-1.48239 -14.9111,-6.19115 -15.91388,-7.32473 -1.0028,-1.13359 3.13918,-9.98431 2.4416,-10.8563 -0.69762,-0.872 -7.93514,4.35996 -7.93514,4.35996 l -0.96328,6.64621 1.53007,13.84563 c 0,0 6.75795,6.45275 10.50751,8.6763 3.74957,2.22358 26.55218,9.76634 29.90935,11.46671 3.35717,1.70038 15.52147,1.6132 16.61144,1.22078 1.08999,-0.39238 8.06593,-7.10672 9.41752,-8.10952 1.3516,-1.0028 8.24032,-5.58074 14.16987,-11.2923 5.92955,-5.71154 27.38058,-39.67565 29.08095,-41.59404 0.23377,-0.26374 0.48106,-0.60987 0.73507,-1.00211 0.0216,-0.67875 0.0393,-1.14359 0.0498,-1.26507 0.0873,-1.00279 -3.83676,-6.88876 -4.57796,-7.01954 -0.7412,-0.13085 -5.97315,4.53436 -6.93235,4.09837 -0.95921,-0.43601 0.47961,-4.49076 0.47961,-5.36277 0,-0.87198 -5.92957,-5.27548 -7.49913,-5.18834 z"
       id="path4906"
       inkscape:connector-curvature="0" />
  </g>
  <g
     inkscape:groupmode="layer"
     id="layer4"
     inkscape:label="Shirt"
     style="display:inline">
    <path
       style="fill:#393939;fill-opacity:1;fill-rule:evenodd;stroke:none;stroke-width:0.46307674px;stroke-linecap:butt;stroke-linejoin:miter;stroke-opacity:1"
       d="m 121.21224,124.27458 c 0,0 -13.14213,2.98991 -14.01413,3.36362 -0.87199,0.37373 -1.93073,1.2454 -2.61586,1.2454 -0.68514,0 -1.49478,0.12492 -2.36678,0.37414 -0.87198,0.24915 -3.176732,3.42563 -4.547015,3.42563 -1.370271,0 -2.927077,1.55701 -3.487642,1.55701 -0.560567,0 -2.616194,-0.37371 -3.363619,0 -0.747418,0.37373 -2.677969,2.36671 -4.421952,2.61586 -1.743982,0.24914 -4.422468,0.37362 -5.481317,0.37362 -1.058849,0 -5.7304,4.04885 -5.7304,4.04885 0,0 3.114508,-1.24592 4.297927,-1.24592 1.183421,0 2.802536,-0.93444 3.363103,-0.3116 0.560565,0.62286 4.29781,5.48159 4.796089,11.7724 0.498282,6.2908 0.435875,27.34295 -0.560689,30.89321 -0.996564,3.55025 -6.228532,14.69933 -8.470799,15.88275 -2.242266,1.18343 -6.477641,3.79925 -6.477641,3.79925 0,0 7.972888,29.58554 9.094018,37.05975 0.645678,4.30452 3.388905,16.12987 5.613611,25.45478 l 97.893766,0 c 2.5739,-10.05927 8.96698,-35.60492 9.16637,-42.08477 0.24912,-8.09707 -0.74733,-10.71335 -0.37363,-15.82074 0.37372,-5.10738 7.72305,-25.41197 7.72305,-27.15596 0,-1.74399 -4.60891,-25.03865 -5.10718,-29.89689 -0.49828,-4.85825 -3.48793,-12.83113 -4.35995,-13.32942 -0.87196,-0.49827 -9.09369,-2.49105 -12.58166,-3.61218 -3.48796,-1.12114 -15.50738,-5.15669 -17.58497,-4.74648 -2.0076,0.39637 -2.29443,0.709 -2.29443,0.709 0,0 5.55379,4.41079 5.0555,10.01644 -0.49828,5.60568 -0.12457,7.47446 -2.36678,9.71672 -2.24227,2.24228 -14.0765,11.58534 -16.81706,11.58534 -2.74053,0 -9.21819,-1.74402 -10.71304,-4.11086 -1.49486,-2.36684 -2.98953,-4.73392 -4.8581,-5.35678 -1.86856,-0.62283 -5.85488,-4.35999 -8.22172,-6.22856 -2.36685,-1.86854 -9.34259,-14.82356 -9.34259,-16.31838 0,-1.49487 9.15552,-3.67523 9.15552,-3.67523 z"
       id="path4846"
       inkscape:connector-curvature="0" />
    <g
       id="g4334"
       transform="matrix(0.26458333,0,0,0.26458333,12.599818,19.998015)" />
  </g>
  <g
     inkscape:groupmode="layer"
     id="layer6"
     inkscape:label="Sticks">
    <path
       style="fill:#c98151;fill-opacity:1;fill-rule:evenodd;stroke:none;stroke-width:0.26458335px;stroke-linecap:butt;stroke-linejoin:miter;stroke-opacity:1"
       d="m -8.1216454,124.86011 c 0,0 0.06193,2.97325 0.433598,3.46877 0.371655,0.49555 1.300791,0.99109 2.229928,0.99109 0.929139,0 2.353815,-0.43361 2.353815,-0.99109 0,-0.55748 -0.433598,-4.3979 -0.433598,-4.3979 0,0 -1.053022,1.30079 -2.044101,1.30079 -0.991079,0 -2.539642,-0.37166 -2.539642,-0.37166 z"
       id="path4180"
       inkscape:connector-curvature="0" />
    <path
       style="fill:#c98151;fill-opacity:1;fill-rule:evenodd;stroke:none;stroke-width:0.26458335px;stroke-linecap:butt;stroke-linejoin:miter;stroke-opacity:1"
       d="m -6.3253124,98.286803 -1.362735,-36.050511 -4.7695706,-0.123879 1.114966,30.351802 c 0,0 3.5926626,5.017336 5.0173396,5.822588 z"
       id="path4182"
       inkscape:connector-curvature="0"
       sodipodi:nodetypes="cccccc" />
    <path
       style="fill:#daa785;fill-opacity:1;fill-rule:evenodd;stroke:none;stroke-width:0.26458335px;stroke-linecap:butt;stroke-linejoin:miter;stroke-opacity:1"
       d="m 304.63999,133.53691 c 0,-0.1752 2.2338,-3.5478 2.8032,-3.8982 0.56941,-0.35039 1.8396,-0.26281 1.88339,-0.52559 0.0438,-0.2628 -1.62059,0.26278 -1.83959,-0.3942 -0.219,-0.657 0.35039,-3.5916 0,-3.723 -0.35039,-0.13138 -1.27019,0.2628 -1.752,-0.219 -0.4818,-0.48179 -1.83959,-1.2702 -1.79581,-0.9198 0.0438,0.35041 1.0512,5.12459 1.62061,5.60639 0.5694,0.4818 -1.7958,2.93461 -0.9198,4.0734 z"
       id="path4190"
       inkscape:connector-curvature="0" />
    <path
       style="fill:#daa785;fill-opacity:1;fill-rule:evenodd;stroke:none;stroke-width:0.26458335px;stroke-linecap:butt;stroke-linejoin:miter;stroke-opacity:1"
       d="m 311.86697,129.90151 c 0,0 0,4.29239 -0.35039,5.08079 -0.35039,0.78841 -2.71559,2.2776 -3.066,3.4602 -0.3504,1.1826 -0.7884,1.8396 0.0438,2.7156 0.83219,0.876 1.88338,1.35779 2.10239,1.0074 0.219,-0.3504 1.83959,-5.38739 2.6718,-5.7378 0.83219,-0.3504 1.35779,0.21901 1.18259,0.9636 -0.1752,0.74461 -1.5768,2.93459 -1.44539,3.37259 0.13137,0.438 1.314,0.4818 0.83219,0.83221 -0.4818,0.35039 -0.26279,0.91979 -1.0512,0.96359 -0.7884,0.0438 -2.62799,0.3066 -3.19739,0.0438 -0.56941,-0.26281 -2.93461,-1.7958 -3.02221,-2.54041 -0.0875,-0.74459 1.5768,-3.94199 1.5768,-3.94199 0,0 -1.66439,0.876 -2.32139,0.438 -0.65699,-0.438 -0.876,-1.27019 -0.876,-1.27019 0,0 0.1752,0.65698 1.095,0.17519 0.91981,-0.4818 1.095,-1.66439 1.97101,-2.2338 0.87599,-0.5694 1.22639,-0.7008 2.10239,-1.4454 0.87599,-0.7446 1.70819,-1.3578 1.75199,-1.88339 z"
       id="path4192"
       inkscape:connector-curvature="0"
       sodipodi:nodetypes="cssccsccsccccscssscc" />
    <path
       style="fill:#60381d;fill-opacity:0.77604167;fill-rule:evenodd;stroke:none;stroke-width:0.26458335px;stroke-linecap:butt;stroke-linejoin:miter;stroke-opacity:1"
       d="m 301.0922,118.11933 c 0,0 1.6644,0.17522 1.6644,0.876 0,0.7008 -0.35041,2.19 0.96359,3.2412 1.314,1.0512 3.50399,2.62798 3.06599,2.71559 -0.438,0.0877 -1.13879,-0.96359 -1.13879,-0.2628 0,0.7008 -1.31399,1.314 -0.87599,3.32879 0.438,2.01481 1.22639,2.5404 1.22639,2.5404 0,0 -1.66439,1.9272 -1.66439,3.066 0,1.13879 5.86918,13.84077 5.86918,13.84077 0,0 -3.15359,-2.54039 -3.59159,-3.6792 -0.438,-1.13878 -0.876,-3.67918 -1.752,-5.95678 -0.876,-2.27759 -2.0148,-4.46759 -2.8908,-5.43118 -0.87599,-0.96361 -0.70079,-0.61322 -1.31399,-1.40161 -0.61321,-0.78839 -1.4016,-1.1388 -1.1388,-3.7668 0.2628,-2.62798 0.78839,-8.67238 1.5768,-9.11038 z"
       id="path4188"
       inkscape:connector-curvature="0" />
    <path
       style="fill:#daa785;fill-opacity:1;fill-rule:evenodd;stroke:none;stroke-width:0.26458335px;stroke-linecap:butt;stroke-linejoin:miter;stroke-opacity:1"
       d="m 297.7634,131.7849 c 0,0 0.438,-2.18998 0.7008,-2.97838 0.26281,-0.78841 0.96359,-1.13881 0.876,-2.19001 -0.0877,-1.05119 0.52559,-3.67918 -0.0877,-4.90558 -0.6132,-1.2264 -2.2776,-3.41638 -2.2776,-3.41638 0,0 0.7884,-0.52561 0.438,-1.05121 -0.35039,-0.5256 -1.5768,-1.4016 -2.628,-1.4016 -1.0512,0 -2.67178,0.3942 -2.49659,-0.0438 0.1752,-0.43799 -0.2628,-0.87599 0.70081,-1.1388 0.96359,-0.2628 3.54778,-0.3066 4.77418,1.35779 1.2264,1.66441 1.9272,2.62801 2.19001,3.5916 0.26279,0.96361 0,4.46759 -0.17521,6.13199 -0.17521,1.6644 -0.0875,3.94199 0.17521,4.4676 0.26279,0.52559 1.48919,1.1388 0.96358,1.1388 -0.52558,0 -0.17519,1.13879 -0.70079,1.13879 -0.5256,0 -0.26279,-1.4892 -1.0512,-1.752 -0.7884,-0.26279 -0.876,1.314 -1.4016,1.05119 z"
       id="path4186"
       inkscape:connector-curvature="0"
       sodipodi:nodetypes="cscccssssssscssccc" />
    <path
       style="fill:#c98151;fill-opacity:1;fill-rule:evenodd;stroke:none;stroke-width:0.26458335px;stroke-linecap:butt;stroke-linejoin:miter;stroke-opacity:1"
       d="m 312.67836,142.51371 c 0,0 2.78742,4.89345 2.53965,5.38899 -0.24776,0.49555 -0.12383,1.7344 -1.36272,2.10604 -1.23887,0.37166 -2.78742,0.12383 -3.09713,-0.30971 -0.30972,-0.43358 -10.90188,-24.71503 -10.90188,-24.71503 0,0 0.8672,-3.84043 0.12383,-5.8226 -0.74332,-1.98216 -3.09713,-4.08819 -4.21209,-4.33597 -1.11497,-0.24776 -1.30078,-0.24776 -1.30078,-0.24776 0,0 -31.21902,-68.384477 -31.46678,-69.065843 -0.24776,-0.681366 -0.24776,-1.362736 -0.24776,-1.362736 0,0 -1.82822,-1.612324 -2.26622,-3.432492 -0.15941,-0.662455 2.51398,-2.69981 3.25729,-2.513982 0.7433,0.185826 1.92022,1.424678 2.0441,2.229928 0.12383,0.805253 0.30971,1.486619 0.30971,1.486619 0,0 0.49554,0.433598 0.92913,1.114963 0.43361,0.68137 39.14766,87.276913 39.14766,87.276913 0,0 -1.31143,2.22993 -1.49726,3.22102 -0.18583,0.99108 0.21143,2.17108 1.14061,2.66663 0.92916,0.49554 2.27685,-0.003 2.27685,-0.003 0,0 -1.42468,3.40683 -0.7433,4.39791 0.68136,0.99109 1.85827,2.10605 2.66352,1.98216 0.80525,-0.12383 1.67245,0 2.66352,-0.062 z"
       id="path4184"
       inkscape:connector-curvature="0"
       sodipodi:nodetypes="ccccccscccssccscscccccc" />
    <path
       style="fill:#c77a46;fill-opacity:0.77604167;fill-rule:evenodd;stroke:none;stroke-width:0.26458335px;stroke-linecap:butt;stroke-linejoin:miter;stroke-opacity:1"
       d="m 293.99661,118.51353 c 0,0 0.48179,3.32879 -0.0438,4.99319 -0.52561,1.6644 -1.314,3.6792 -1.314,3.6792 0,0 0.65699,-0.39421 0.0438,-0.876 -0.6132,-0.4818 -1.66441,-0.13137 -1.533,-1.314 0.13138,-1.1826 -0.4818,-1.4016 0.52561,-2.05859 1.00739,-0.65701 2.32139,-4.1172 2.32139,-4.4238 z"
       id="path4194"
       inkscape:connector-curvature="0" />
    <path
       style="fill:#c98151;fill-opacity:1;fill-rule:evenodd;stroke:none;stroke-width:0.26458335px;stroke-linecap:butt;stroke-linejoin:miter;stroke-opacity:1"
       d="m -11.748196,83.940804 -2.014799,-61.721619 c 0,0 0.08761,-0.438 0.1752,-0.788399 0.08761,-0.3504 -0.350398,-0.700799 -0.437998,-1.051199 -0.08761,-0.3504 -0.6132,-2.102396 -0.1752,-2.277596 0.437998,-0.1752 1.138798,-0.350399 1.927197,-0.350399 0.788398,0 2.7476836,-0.170827 2.8094216,0.262799 0.185827,1.305193 -0.226516,2.602338 -0.226516,2.602338 -0.08759,0.350401 0.59817,0.660112 0.773369,1.448511 0.175201,0.788399 2.147487,66.693557 2.147487,66.693557 z"
       id="path4196"
       inkscape:connector-curvature="0"
       sodipodi:nodetypes="ccccssscscc" />
  </g>
</svg>
