<?xml version="1.0" encoding="UTF-8" standalone="no"?>
<!-- Created with Inkscape (http://www.inkscape.org/) -->

<svg
   xmlns:dc="http://purl.org/dc/elements/1.1/"
   xmlns:cc="http://creativecommons.org/ns#"
   xmlns:rdf="http://www.w3.org/1999/02/22-rdf-syntax-ns#"
   xmlns:svg="http://www.w3.org/2000/svg"
   xmlns="http://www.w3.org/2000/svg"
   xmlns:sodipodi="http://sodipodi.sourceforge.net/DTD/sodipodi-0.dtd"
   xmlns:inkscape="http://www.inkscape.org/namespaces/inkscape"
   width="1000"
   height="1000"
   viewBox="0 0 264.58333 264.58334"
   id="svg4332"
   version="1.1"
   inkscape:version="0.91+devel r13925"
   sodipodi:docname="terry-bozzio.svg"
   inkscape:export-filename="/Users/agarone/Documents/git/art/terry-bozzio/terry-bozzio.png"
   inkscape:export-xdpi="96"
   inkscape:export-ydpi="96">
  <defs
     id="defs4334" />
  <sodipodi:namedview
     id="base"
     pagecolor="#ffffff"
     bordercolor="#666666"
     borderopacity="1.0"
     inkscape:pageopacity="0.0"
     inkscape:pageshadow="2"
     inkscape:zoom="0.70710678"
     inkscape:cx="220.26533"
     inkscape:cy="662.6657"
     inkscape:document-units="px"
     inkscape:current-layer="layer1"
     showgrid="false"
     units="px"
     showguides="true"
     inkscape:guide-bbox="true"
     inkscape:window-width="1920"
     inkscape:window-height="1151"
     inkscape:window-x="0"
     inkscape:window-y="1"
     inkscape:window-maximized="1">
    <sodipodi:guide
       position="264.58333,0"
       orientation="1,0"
       id="guide4340"
       inkscape:label=""
       inkscape:color="rgb(0,0,255)" />
    <sodipodi:guide
       position="0,0"
       orientation="1,0"
       id="guide4342"
       inkscape:label=""
       inkscape:color="rgb(0,0,255)" />
    <sodipodi:guide
       position="0,0"
       orientation="0,1"
       id="guide4344"
       inkscape:label=""
       inkscape:color="rgb(0,0,255)" />
    <sodipodi:guide
       position="0,264.58333"
       orientation="0,1"
       id="guide4346"
       inkscape:label=""
       inkscape:color="rgb(0,0,255)" />
    <sodipodi:guide
       position="132.29167,132.29167"
       orientation="0,1"
       id="guide5453"
       inkscape:label=""
       inkscape:color="rgb(0,0,255)" />
    <sodipodi:guide
       position="132.29167,132.29167"
       orientation="1,0"
       id="guide5455"
       inkscape:label=""
       inkscape:color="rgb(0,0,255)" />
  </sodipodi:namedview>
  <metadata
     id="metadata4337">
    <rdf:RDF>
      <cc:Work
         rdf:about="">
        <dc:format>image/svg+xml</dc:format>
        <dc:type
           rdf:resource="http://purl.org/dc/dcmitype/StillImage" />
        <dc:title />
      </cc:Work>
    </rdf:RDF>
  </metadata>
  <g
     inkscape:label="BG"
     inkscape:groupmode="layer"
     id="layer1"
     transform="translate(0,-32.41665)"
     style="display:none">
    <rect
       style="opacity:1;fill:#ffffff;fill-opacity:1;stroke:none;stroke-width:11.60810661;stroke-miterlimit:4;stroke-dasharray:none;stroke-opacity:1"
       id="rect5606"
       width="264.58334"
       height="264.58334"
       x="0"
       y="32.416653" />
  </g>
  <g
     inkscape:groupmode="layer"
     id="layer2"
     inkscape:label="Head"
     style="display:inline">
    <path
       style="fill:#deaa87;fill-opacity:1;fill-rule:evenodd;stroke:none;stroke-width:0.46307677px;stroke-linecap:butt;stroke-linejoin:miter;stroke-opacity:1"
       d="m 133.05615,187.95826 32.74615,-29.76923 -8.6,-20.34229 -3.58534,-0.30108 c 0,0 1.75417,-1.57874 3.27446,-1.75416 1.52026,-0.17543 4.32694,-0.23389 5.08707,-0.52627 0.76015,-0.29235 1.40334,-1.40333 2.16348,-1.52026 0.76015,-0.11686 2.22195,0.52623 3.56681,0.17541 1.34485,-0.35084 4.21,-2.28041 4.56082,-5.37943 0.35086,-3.09906 -0.29234,-4.38544 -0.29234,-5.84724 0,-1.46181 2.10499,-2.9821 2.16347,-4.21001 0.0584,-1.22792 -1.57874,-2.80667 -1.57874,-2.80667 0,0 2.86513,-0.87708 2.86513,-1.87111 0,-0.99403 0.35083,-4.56084 0.29237,-5.67181 -0.0584,-1.11098 -0.58473,-2.45584 -0.58473,-2.45584 0,0 3.56681,-0.52625 4.79472,-1.22791 1.22791,-0.70167 2.63125,-1.46181 2.63125,-4.15153 0,-2.689732 -2.16348,-4.093067 -2.86512,-5.262511 -0.70169,-1.169446 -1.16947,-3.332922 -2.51433,-5.028616 -1.34486,-1.695694 -4.20999,-3.62528 -4.20999,-5.964174 0,-2.338888 1.46179,-3.976113 1.46179,-4.736253 0,-0.76014 -2.86512,-7.601395 -3.33291,-8.069171 -0.46778,-0.467778 -1.16945,-0.994034 -1.16945,-1.520282 0,-0.52625 -2.22194,-5.437921 -3.50834,-8.0107 -1.28639,-2.572781 -7.3675,-8.536952 -7.3675,-8.536952 L 143.85209,47.439889 119.55215,55.131003 98.536067,89.36451 c 0,0 5.964183,32.21822 6.022663,34.90795 0.0584,2.68972 0,7.36751 0,7.36751 l -16.489187,4.32695 11.811391,27.36501 z"
       id="path4795"
       inkscape:connector-curvature="0"
       sodipodi:nodetypes="ccccsccsssccsscsssssssssccccscccc" />
    <path
       style="fill:#d49a74;fill-opacity:1;fill-rule:evenodd;stroke:none;stroke-width:0.46307677px;stroke-linecap:butt;stroke-linejoin:miter;stroke-opacity:1"
       d="m 148.41293,87.142563 c 0,0 1.75418,-0.116949 1.49104,1.081734 -0.26312,1.198684 -2.7482,1.783406 -2.7482,1.783406 0,0 6.40271,-1.461809 6.60737,-1.227918 0.20466,0.233887 -3.06978,0.67243 -2.66049,1.140211 0.4093,0.467777 2.28042,1.95882 4.67778,2.514309 2.39737,0.555483 5.43793,0.35083 5.67183,0.964791 0.23387,0.613957 -0.58473,0.994027 -0.11687,1.169447 0.46778,0.175413 2.16348,-2.134238 2.98207,-2.134238 0.81862,0 4.26848,0.05847 5.67182,-2.923617 1.40333,-2.982085 -1.0525,-4.443894 -1.02326,-5.437921 0.0292,-0.99403 1.52028,-3.332921 1.37409,-4.356186 -0.14616,-1.023266 -3.18673,-2.134237 -7.83528,-1.315624 -4.64855,0.818614 -10.32035,5.204033 -14.09181,8.741606 z"
       id="path4805"
       inkscape:connector-curvature="0" />
    <path
       style="fill:#502d16;fill-rule:evenodd;stroke:none;stroke-width:0.46307677px;stroke-linecap:butt;stroke-linejoin:miter;stroke-opacity:1"
       d="m 148.41293,87.084092 c 1.57875,-0.116949 6.72431,-6.198066 10.40806,-6.958203 3.68375,-0.760139 5.78877,0.467778 6.78277,0.467778 0.99404,0 3.80072,-1.344862 3.62529,-1.754166 -0.17542,-0.40931 -2.45582,-1.227919 -3.50833,-1.169447 -1.0525,0.05848 -3.91764,-0.409307 -6.95819,0.643195 -3.04058,1.052501 -8.82932,7.952229 -10.3496,8.770843 z"
       id="path4797"
       inkscape:connector-curvature="0" />
    <path
       style="fill:#f4e3d7;fill-rule:evenodd;stroke:none;stroke-width:0.46307677px;stroke-linecap:butt;stroke-linejoin:miter;stroke-opacity:1"
       d="m 157.32994,86.090059 c 0,0 1.57877,0.672434 2.54355,0.877086 0.96479,0.204653 2.22195,-0.05847 2.22195,-0.05847 0,0 -0.43853,-3.362156 -1.02326,-3.362156 -0.58473,0 -3.15751,1.695695 -3.74224,2.543542 z"
       id="path4801"
       inkscape:connector-curvature="0" />
    <path
       style="fill:#b36532;fill-opacity:1;fill-rule:evenodd;stroke:none;stroke-width:0.46307677px;stroke-linecap:butt;stroke-linejoin:miter;stroke-opacity:1"
       d="m 162.15391,86.99638 c 0,0 1.57875,0.233891 2.01729,0.877086 0.43856,0.643195 -1.02326,1.023266 -0.2339,1.374097 0.7894,0.350835 3.21599,-1.607989 2.95287,-3.186737 -0.26315,-1.578754 -2.30965,-3.50834 -3.8884,-3.50834 -1.57876,0 -2.16349,0.321599 -2.01731,0.847848 0.14614,0.526254 1.16945,3.596046 1.16945,3.596046 z"
       id="path4807"
       inkscape:connector-curvature="0" />
    <path
       style="fill:#28170b;fill-rule:evenodd;stroke:none;stroke-width:0.46307677px;stroke-linecap:butt;stroke-linejoin:miter;stroke-opacity:1"
       d="m 154.58174,87.581103 c 0,0 5.96419,-5.08709 7.13364,-4.619308 1.16944,0.467778 0.49701,2.075766 0.49701,2.075766 0,0 1.02326,-1.695697 1.02326,-1.988058 0,-0.292364 0.0585,-0.964794 -1.92959,-0.584723 -1.98805,0.380071 -4.73626,2.806667 -6.72432,5.116323 z"
       id="path4799"
       inkscape:connector-curvature="0" />
    <path
       style="fill:#483e37;fill-rule:evenodd;stroke:none;stroke-width:0.46307677px;stroke-linecap:butt;stroke-linejoin:miter;stroke-opacity:1"
       d="m 162.03696,87.011 c 0.21929,0 0.10247,-1.31563 -0.0731,-1.944206 -0.17543,-0.628576 -0.73091,-1.534895 -1.03789,-1.447187 -0.30698,0.08769 -0.35084,0.774758 -0.0292,1.564133 0.3216,0.789374 0.65782,1.695694 1.14021,1.82726 z"
       id="path4803"
       inkscape:connector-curvature="0" />
    <path
       style="fill:#e9c6af;fill-rule:evenodd;stroke:none;stroke-width:0.46307677px;stroke-linecap:butt;stroke-linejoin:miter;stroke-opacity:1"
       d="m 155.63426,87.581103 c 0.76013,-0.409305 4.06381,0.555487 4.06381,1.052503 0,0.497012 -1.66645,0.233887 -1.60799,0.789375 0.0585,0.555483 2.54355,1.023265 2.51431,0.7309 -0.0292,-0.292357 -0.23389,-1.169443 0.11687,-1.198676 0.35084,-0.02922 2.25117,-0.116949 2.0173,0.263123 -0.2339,0.38007 -0.6432,0.613956 -0.5555,1.023267 0.0876,0.409303 1.46181,0 1.40334,0.52625 -0.0584,0.52625 -2.01729,0.204653 -4.41465,-0.350837 -2.39737,-0.555484 -3.53758,-1.403336 -4.29772,-0.994027 -0.76015,0.409303 1.52028,-1.198684 0.76014,-1.841878 z"
       id="path4809"
       inkscape:connector-curvature="0" />
    <path
       style="fill:#ebcdb8;fill-opacity:1;fill-rule:evenodd;stroke:none;stroke-width:0.46307677px;stroke-linecap:butt;stroke-linejoin:miter;stroke-opacity:1"
       d="m 167.8842,96.059584 c -0.0876,1.28639 -4.1223,4.736256 -4.82395,4.619306 -0.70168,-0.11694 0.49701,-4.648545 -0.2339,-4.823958 -0.73091,-0.175419 -3.77147,2.660488 -7.04592,1.344858 -3.27444,-1.315624 -4.70701,-3.800694 -6.16881,-3.800694 -1.46181,0 -3.44988,1.227918 -3.56682,0.730903 -0.11686,-0.497016 3.88841,-2.982086 5.37944,-2.952851 1.49107,0.02921 1.2864,0.38007 3.33293,0.964792 2.04653,0.584724 12.63001,-0.116949 12.63001,-0.116949 0,0 -1.92959,0.906322 -1.54951,2.309657 0.38006,1.403335 1.14022,2.514307 2.04653,1.724932 z"
       id="path4811"
       inkscape:connector-curvature="0" />
    <path
       style="fill:#ebcdb8;fill-opacity:1;fill-rule:evenodd;stroke:none;stroke-width:0.46307677px;stroke-linecap:butt;stroke-linejoin:miter;stroke-opacity:1"
       d="m 176.96576,100.55252 c -0.33078,-0.45481 -2.97693,-2.315382 -4.87885,-1.860576 -1.90192,0.454807 -3.225,0.950961 -3.26635,2.067306 -0.0413,1.11635 1.65384,2.35673 3.225,1.6125 1.57115,-0.74423 4.87885,-0.0827 4.9202,-1.81923 z"
       id="path4813"
       inkscape:connector-curvature="0" />
    <path
       style="fill:#ebcdb8;fill-opacity:1;fill-rule:evenodd;stroke:none;stroke-width:0.46307677px;stroke-linecap:butt;stroke-linejoin:miter;stroke-opacity:1"
       d="m 167.78692,104.10829 c 0.49615,0 4.8375,5.00288 4.8375,5.54038 0,0.5375 -6.98751,2.39808 -7.64904,2.39808 -0.66155,0 2.27402,-7.69039 2.81154,-7.93846 z"
       id="path4815"
       inkscape:connector-curvature="0" />
    <path
       style="fill:#d38d5f;fill-rule:evenodd;stroke:none;stroke-width:0.46307677px;stroke-linecap:butt;stroke-linejoin:miter;stroke-opacity:1"
       d="m 170.26769,96.417903 c 0.49614,0.289424 -2.35674,3.638467 -2.31539,4.920187 0.0414,1.28174 1.07499,3.10097 2.19134,3.01827 1.11634,-0.0827 1.90192,-0.78557 3.88654,-1.11634 1.98462,-0.33077 3.43173,-0.33077 3.43173,0.16538 0,0.49615 -3.96923,0.33077 -3.96923,0.66154 0,0.33077 1.6125,0.5375 1.52981,1.11634 -0.0828,0.57885 -0.37213,2.97693 -1.44712,2.97693 -1.075,0 -2.10866,-1.73654 -2.77019,-2.2327 -0.66154,-0.49615 -2.64615,-2.6048 -3.1423,-2.6048 -0.49616,0 -2.72886,5.16826 -3.14231,5.16826 -0.41347,0 3.92787,-10.543259 5.74712,-12.073072 z"
       id="path4817"
       inkscape:connector-curvature="0" />
    <path
       style="fill:#c87137;fill-rule:evenodd;stroke:none;stroke-width:0.46307677px;stroke-linecap:butt;stroke-linejoin:miter;stroke-opacity:1"
       d="m 162.37057,118.33136 c 1.03364,0.1654 1.73653,-0.86827 2.97691,-1.28173 1.24038,-0.41346 1.52981,0.12405 2.60482,0.0828 1.07499,-0.0414 7.27692,-2.52211 7.27692,-2.97692 0,-0.45481 -1.28173,0.20673 -1.65385,0.16538 -0.37211,-0.0414 0.66152,-0.70289 -0.70287,-0.66154 -1.36444,0.0413 -7.60771,1.44711 -8.84809,2.27404 -1.24038,0.82692 -1.44712,1.57114 -1.65384,2.39808 z"
       id="path4819"
       inkscape:connector-curvature="0" />
    <path
       style="fill:#784421;fill-rule:evenodd;stroke:none;stroke-width:0.46307677px;stroke-linecap:butt;stroke-linejoin:miter;stroke-opacity:1"
       d="m 164.14846,116.88424 c 0,-0.37211 2.68749,0.0827 3.39037,-0.37211 0.70288,-0.4548 0.90961,-0.78558 1.86058,-0.78558 0.95095,0 2.64615,0 2.64615,-0.16538 0,-0.16537 -1.19903,-0.74422 -1.86057,-0.74422 -0.66155,0 -6.45,0.9923 -6.03653,2.0673 z"
       id="path4821"
       inkscape:connector-curvature="0" />
    <path
       style="fill:#e9c6af;fill-rule:evenodd;stroke:none;stroke-width:0.46307677px;stroke-linecap:butt;stroke-linejoin:miter;stroke-opacity:1"
       d="m 173.74075,117.87655 c -0.66152,0 -1.03366,-0.57884 -1.32306,-0.45481 -0.28943,0.12405 -1.11637,1.40578 -1.69521,1.40578 -0.57884,0 -1.57114,0.20673 -2.43941,0.4548 -0.86826,0.24808 -2.85289,1.77788 -3.51442,1.69518 -0.66155,-0.0826 0.4548,-2.02595 1.19903,-2.02595 0.74422,0 2.06732,0.20673 2.7702,-0.20673 0.70288,-0.41346 1.73652,-1.48847 2.56344,-1.69519 0.82694,-0.20673 2.10866,-1.03366 2.43943,0.82692 z"
       id="path4823"
       inkscape:connector-curvature="0" />
    <path
       style="fill:#e9c6af;fill-rule:evenodd;stroke:none;stroke-width:0.46307677px;stroke-linecap:butt;stroke-linejoin:miter;stroke-opacity:1"
       d="m 171.75614,122.87942 c -0.66153,-0.28942 -0.82693,-0.12409 -1.24039,0 -0.41346,0.12409 0.0827,2.60484 -0.28942,2.64617 -0.37212,0.0414 -0.6202,-1.15769 -1.48845,-1.15769 -0.86829,0 -3.67983,-1.19904 -4.79616,-0.66154 -1.11635,0.53749 -2.06732,2.23268 -0.90962,4.25865 1.1577,2.02597 2.64616,2.43942 3.80385,2.35674 1.15768,-0.0828 2.43942,-3.26635 3.18366,-3.26635 0.74422,0 1.24037,1.44712 1.73653,1.44712 0.49616,0 0.78558,-3.26634 0,-5.6231 z"
       id="path4825"
       inkscape:connector-curvature="0" />
    <path
       style="fill:#e9c6af;fill-opacity:1;fill-rule:evenodd;stroke:none;stroke-width:0.46307677px;stroke-linecap:butt;stroke-linejoin:miter;stroke-opacity:1"
       d="m 147.81672,83.724639 c 2.0673,-0.248075 7.97981,-7.152881 9.01345,-7.152881 1.03367,0 1.11636,0.289422 3.92789,0.289422 2.81154,0 3.84521,-0.289422 5.04424,-0.289422 1.19904,0 3.88654,1.612498 3.88654,1.28173 0,-0.330769 -4.67212,-2.811538 -4.46539,-3.142309 0.20673,-0.330766 4.38268,2.315383 4.58942,2.025961 0.20674,-0.289423 -1.03366,-2.604806 -0.1654,-2.604806 0.86827,0 2.52213,1.943269 2.77018,1.653845 0.24808,-0.289422 -1.73654,-4.341344 -2.31538,-4.382687 -0.57884,-0.04135 -1.32307,-0.578846 -1.40576,-0.04135 -0.0826,0.537503 1.40576,1.405771 1.075,1.529806 -0.33077,0.124037 -1.28172,-1.943268 -2.2327,-1.943268 -0.95096,0 -2.89423,0.04136 -2.72885,0.04136 0.1654,0 2.60483,-0.04136 2.3981,-0.496156 -0.20675,-0.454806 -2.89425,-2.646149 -2.43943,-2.646149 0.45481,0 2.19132,0.206725 2.19132,0 0,-0.206732 -2.4394,-0.785577 -2.89421,-0.785577 -0.45481,0 -6.40864,1.116343 -6.40864,0.868268 0,-0.24808 6.94615,-1.364424 6.61537,-1.943269 -0.33076,-0.578846 -4.96153,-6.408654 -6.03653,-6.904809 -1.07501,-0.49615 -10.2125,-1.529806 -10.75,-2.232687 -0.5375,-0.702886 -1.86058,0.620189 -1.1577,1.736537 0.70289,1.116345 -3.88653,3.431729 -3.80384,3.927882 0.0826,0.496156 2.3154,0.372116 3.30769,-0.206732 0.99232,-0.578845 0.24808,-2.232691 1.19904,-2.232691 0.95095,0 -0.0414,2.356732 0.37211,2.604807 0.41347,0.248079 -1.48845,2.976922 -0.8269,3.307693 0.66152,0.330766 5.95383,-0.826924 6.03653,-0.496154 0.0826,0.33077 -5.12693,1.736537 -4.75483,2.315382 0.37214,0.578848 0.0413,1.736539 1.11636,1.695191 1.075,-0.04136 8.22789,-1.943266 8.22789,-1.653841 0,0.289423 -7.19424,2.108652 -7.19424,2.646149 0,0.537503 1.77789,0.785578 2.89422,0.661538 1.11636,-0.124038 10.2125,-0.826921 10.25385,-0.496152 0.0414,0.33077 -4.87884,0.33077 -7.44229,0.992308 -2.56348,0.661535 -7.0702,2.852884 -6.82213,3.142308 0.24808,0.289424 5.45769,-1.736537 7.31826,-1.736537 1.86059,0 6.0779,0.206726 6.0779,0.454805 0,0.248074 -3.26635,-0.165378 -5.45771,0.950961 -2.19134,1.116343 -7.48363,8.269227 -9.01344,9.261535 z"
       id="path4827"
       inkscape:connector-curvature="0" />
    <path
       style="fill:#d49a74;fill-opacity:1;fill-rule:evenodd;stroke:none;stroke-width:0.46307677px;stroke-linecap:butt;stroke-linejoin:miter;stroke-opacity:1"
       d="m 125.24172,103.77752 c 1.77789,-0.66154 11.82501,-1.40577 11.57694,0.33077 -0.24809,1.73654 -6.57405,6.3673 -4.83751,9.0548 1.73654,2.6875 16.86922,10.1298 19.88748,9.38559 3.01829,-0.74425 7.40097,-3.01828 8.22788,-1.11637 0.82694,1.90193 -3.39036,2.56346 -2.39805,4.75482 0.99229,2.19134 5.375,5.25096 8.06248,5.00288 2.6875,-0.24808 3.3904,-3.26635 4.17597,-3.39039 0.78557,-0.12408 2.0673,0.0828 2.0673,1.03365 0,0.95097 -2.27404,5.20962 -4.83749,5.16827 -2.56345,-0.0413 -2.2327,-0.5375 -3.18365,-0.33077 -0.95097,0.20674 -0.49616,1.52981 -2.06731,1.61251 -1.57117,0.0828 -7.6077,-0.78558 -15.42211,-3.88654 -7.81441,-3.10097 -18.93653,-9.55096 -18.35769,-13.18942 0.57886,-3.63846 2.3154,-15.13269 -2.89424,-14.4298 z"
       id="path4829"
       inkscape:connector-curvature="0" />
    <path
       style="fill:#d49a74;fill-opacity:1;fill-rule:evenodd;stroke:none;stroke-width:0.46307677px;stroke-linecap:butt;stroke-linejoin:miter;stroke-opacity:1"
       d="m 134.75135,176.21595 c 1.69519,0 3.72115,-13.39613 5.99518,-16.4144 2.27403,-3.01826 1.81922,-4.42406 3.01828,-3.47309 1.19903,0.95097 2.19134,6.49136 1.77789,7.6077 -0.41347,1.11636 -2.06732,5.12692 -0.99233,5.66441 1.075,0.5375 4.38269,1.07502 6.78078,-2.19133 2.39807,-3.26635 3.26635,-5.62308 3.72114,-10.17116 0.45481,-4.54807 -1.61249,-15.00864 -1.65385,-16.66248 -0.0413,-1.65384 0.24808,-3.05962 -0.12409,-3.05962 -0.37211,0 -7.89711,8.39325 -9.71634,11.37017 -1.81923,2.97695 -3.10096,7.6904 -4.58941,7.6904 -1.48847,0 -1.52981,-1.24039 -2.14999,0.24808 -0.62021,1.48844 -3.39039,18.35768 -2.06732,19.39132 z"
       id="path4833"
       inkscape:connector-curvature="0" />
    <path
       style="fill:#e9c6af;fill-rule:evenodd;stroke:none;stroke-width:0.46307677px;stroke-linecap:butt;stroke-linejoin:miter;stroke-opacity:1"
       d="m 153.56385,137.55732 c 0,0 5.04421,7.4423 5.2096,12.69327 0.16539,5.25097 -3.88653,12.40384 -4.21731,12.27979 -0.33077,-0.12409 1.1577,-3.39038 0.70288,-8.35192 -0.4548,-4.96153 -2.23268,-13.76827 -1.69517,-16.62114 z"
       id="path4835"
       inkscape:connector-curvature="0" />
    <path
       style="fill:#d38d5f;fill-rule:evenodd;stroke:none;stroke-width:0.46307677px;stroke-linecap:butt;stroke-linejoin:miter;stroke-opacity:1"
       d="m 124.73166,104.62577 c 0,-1.0525 -1.69569,-1.92958 -1.87112,-3.04056 -0.17542,-1.11097 -0.6432,-3.099029 -1.2279,-3.099029 -0.58473,0 -3.27446,2.631249 -3.56683,2.163479 -0.29235,-0.46778 1.63723,-1.344867 1.75418,-2.923615 0.11686,-1.578754 -0.11686,-3.274448 -0.58473,-3.274448 -0.46778,0 -1.98805,2.221944 -2.98208,2.806667 -0.99403,0.584721 -2.92362,4.034586 -2.39736,4.911676 0.52624,0.87708 3.68375,-2.22195 3.68375,-1.92959 0,0.29236 -1.98807,1.98805 -1.16945,2.45584 0.81863,0.46777 4.44389,1.98806 5.78874,1.98806 1.34487,0 2.04655,0.64319 2.5728,-0.0585 z"
       id="path4837"
       inkscape:connector-curvature="0" />
    <path
       style="fill:#e9c6af;fill-rule:evenodd;stroke:none;stroke-width:0.46307677px;stroke-linecap:butt;stroke-linejoin:miter;stroke-opacity:1"
       d="m 125.2579,108.66036 c 0.35084,0.58472 0.29236,3.91764 -1.40332,3.91764 -1.69572,0 -9.99876,-4.67778 -9.29712,-4.67778 0.70169,0 4.26849,-2.16348 5.08711,-0.70167 0.81861,1.46181 -1.40334,1.34486 -0.81862,1.92958 0.58473,0.58473 4.26848,-0.58472 3.91764,-1.34485 -0.35083,-0.76015 -3.68375,-2.63126 -2.68972,-2.68973 0.99404,-0.0585 2.80667,0.52625 3.68376,0.46778 0.87709,-0.0585 1.34487,-1.46181 1.69568,-0.87708 0.35084,0.58472 -2.04652,1.28639 -1.69568,1.87111 0.35083,0.58472 -1.22792,3.8007 -0.76014,4.03458 0.46778,0.23389 1.69571,-2.68972 2.28041,-1.92958 z"
       id="path4839"
       inkscape:connector-curvature="0" />
    <path
       style="fill:#ca7a42;fill-opacity:1;fill-rule:evenodd;stroke:none;stroke-width:0.46307677px;stroke-linecap:butt;stroke-linejoin:miter;stroke-opacity:1"
       d="m 126.27538,107.74675 c 0,0 0.66155,5.74711 -1.98462,5.66442 -2.64614,-0.0827 -8.14517,-3.43173 -10.00576,-5.12692 -1.86057,-1.69519 -6.53269,-7.15288 -6.53269,-7.15288 0,0 3.05962,5.8298 8.4346,9.34422 5.375,3.51442 6.78078,3.88654 8.06252,3.67981 1.28173,-0.20673 2.77018,-0.82692 2.02595,-6.40865 z"
       id="path4867"
       inkscape:connector-curvature="0" />
  </g>
  <g
     inkscape:groupmode="layer"
     id="layer3"
     inkscape:label="Hair">
    <path
       style="fill:#000000;fill-opacity:1;fill-rule:evenodd;stroke:none;stroke-width:0.46307677px;stroke-linecap:butt;stroke-linejoin:miter;stroke-opacity:1"
       d="m 111.3415,87.434923 c 0,0 4.50238,2.748198 6.49042,4.736251 1.98807,1.988058 5.0871,3.508339 6.37349,6.724316 1.28638,3.21597 1.16943,6.60736 1.16943,6.60736 0,0 0.46779,-2.98208 0.29237,-4.26847 -0.17542,-1.28639 -1.75417,-2.748199 -0.99401,-2.86514 0.76011,-0.116948 8.18609,5.9057 8.18609,5.9057 0,0 -5.0286,-5.671815 -4.32693,-5.671815 0.70167,0 2.22193,1.812635 4.56083,2.105005 2.33889,0.29236 5.84723,0.87708 5.84723,0.52625 0,-0.35083 -5.43793,-0.23389 -7.07514,-1.520282 -1.63724,-1.286384 -1.87112,-5.788751 -1.87112,-5.788751 0,0 -0.17542,1.871112 2.5143,2.86514 2.68973,0.994031 5.84723,1.52028 5.84723,0.935558 0,-0.584722 -4.91167,-1.871113 -4.56082,-5.964176 0.35082,-4.093055 3.80068,-12.805423 4.50235,-13.507092 0.70168,-0.701668 -3.91764,-3.800698 -3.80069,-6.782787 0.11686,-2.982085 -2.57277,-5.43792 -2.57277,-5.43792 0,0 1.52026,-0.877081 1.98804,-1.929585 0.46778,-1.0525 -0.11686,-2.105 0.52626,-2.105 0.6432,0 1.16944,2.514308 2.86514,2.572776 1.6957,0.05847 9.0632,-5.96417 9.0632,-5.96417 0,0 -7.95223,5.905702 -8.82932,5.204034 -0.87708,-0.701667 -1.63721,-1.110976 -0.99403,-1.110976 0.6432,0 2.3389,-0.233886 3.1575,-1.110973 0.81861,-0.87708 1.63724,-3.742225 2.80668,-4.911669 1.16943,-1.169445 2.63125,-1.46181 2.63125,-1.46181 0,0 -2.16347,0.05847 -3.21597,1.28639 -1.05252,1.22792 -1.2864,4.502367 -3.68375,5.145563 -2.39736,0.643194 -4.61932,-2.572781 -4.61932,-2.572781 0,0 4.50238,-0.526251 4.4439,-0.818609 -0.0584,-0.292362 -3.39141,-0.175418 -2.86515,-1.871114 0.52626,-1.695699 5.55486,-1.637225 5.55486,-1.637225 0,0 -3.3914,-0.350832 -2.28041,-1.169445 1.11096,-0.818614 2.45583,-1.81264 4.38542,-1.81264 1.92958,0 4.67778,3.332922 6.84126,3.683753 2.16347,0.350832 4.15154,0.701667 4.15154,0.701667 0,0 -5.32099,-1.988058 -3.50835,-2.280416 1.81263,-0.292364 4.09305,1.695695 5.43792,1.461803 1.34487,-0.233885 -1.05251,-1.695694 0.11686,-1.695694 1.16944,0 9.88182,7.133618 9.88182,7.133618 0,0 -3.09902,-3.274447 -1.63723,-4.09306 1.46182,-0.818613 3.97613,1.871111 3.97613,1.871111 0,0 -1.63724,-2.748197 -0.4093,-2.982083 1.22791,-0.233892 3.97611,0.52625 3.97611,0.52625 0,0 -3.09905,-1.695696 -2.63127,-2.806673 0.4678,-1.110971 1.16945,-3.976111 2.28042,-3.391388 1.11098,0.58472 3.1575,2.163472 3.1575,2.163472 0,0 -2.28041,-1.520279 -0.64319,-2.806667 1.63723,-1.28639 5.90569,-1.403335 5.90569,-1.403335 0,0 -4.97013,0.05847 -4.97013,-0.935556 0,-0.994031 3.50834,-0.818611 3.50834,-0.818611 0,0 -0.0584,-1.169447 1.11097,-3.215978 1.16945,-2.046531 3.74222,-2.280416 3.74222,-2.280416 0,0 -6.49042,-0.584721 -6.13957,-1.344864 0.35083,-0.76014 5.26249,-1.344862 5.26249,-1.344862 0,0 -5.96417,0.584722 -6.08112,0.233892 -0.11687,-0.350837 1.6957,-2.572781 1.6957,-2.572781 0,0 -1.6957,-0.05847 -1.6957,-0.70167 0,-0.643194 -4.03457,2.51431 -4.03457,1.637224 0,-0.877083 3.44986,-2.572781 3.44986,-2.572781 0,0 -2.68973,0.760141 -2.86515,0.116949 -0.17541,-0.643196 1.28638,-1.988059 1.28638,-1.988059 0,0 -4.09305,2.689725 -4.3854,2.455837 -0.29237,-0.233888 1.11096,-3.391392 1.11096,-3.391392 0,0 -6.25653,3.215978 -6.25653,2.455836 0,-0.760141 0.0585,-3.449867 -0.11686,-3.683752 -0.17543,-0.233891 -2.28042,-1.28639 -2.28042,-1.28639 0,0 0.35083,2.221945 -0.35084,2.221945 -0.70167,0 -2.98207,-3.391391 -2.98207,-3.391391 0,0 -0.17543,0.877082 -2.22196,0.877082 -2.04653,0 -6.54889,-2.572782 -6.54889,-2.572782 0,0 -1.98805,2.982089 -2.5143,2.631254 -0.52627,-0.350831 -0.17543,-2.163471 -0.17543,-2.163471 0,0 -1.52027,-1.461809 -2.39736,-1.344865 -0.87709,0.116949 -7.60139,3.566809 -8.94624,3.391391 -1.34487,-0.175413 -4.03459,-1.637221 -4.03459,-2.689722 0,-1.052503 1.40332,-1.988058 1.40332,-1.988058 0,0 -0.76014,0.818609 -2.39736,0.643196 -1.63722,-0.175419 -5.32098,-1.461808 -5.32098,-1.461808 0,0 -1.98806,1.988057 -3.33293,3.449866 -1.34485,1.461804 -7.95222,-0.994033 -7.95222,-0.994033 0,0 1.81264,4.210003 -1.81264,5.554867 -3.62528,1.344863 -3.68376,-1.344864 -3.68376,-1.344864 0,0 0.6432,3.099035 -1.28639,3.099035 -1.92957,0 -3.91764,-0.935558 -3.91764,-0.935558 0,0 1.46182,2.455836 -1.2279,3.332922 -2.689735,0.87708 -3.391403,-1.6957 -3.391403,-1.6957 0,0 -0.701668,6.373479 -3.040559,7.192094 -2.3389,0.818611 -9.297091,0.175415 -9.297091,0.175415 0,0 3.274453,8.712369 0.467778,10.817369 -2.806674,2.105002 -9.355562,4.034589 -9.355562,4.034589 0,0 4.034586,15.436678 2.514301,15.436678 -1.520269,0 -6.08111,-1.637222 -6.08111,-1.637222 0,0 0.877084,4.210003 -0.233899,5.437919 -1.110963,1.227919 -3.391386,2.338896 -3.391386,2.338896 0,0 10.174175,1.169444 10.817376,2.631249 0.643186,1.461808 1.403338,6.198064 -1.344862,6.782787 -2.748199,0.584723 -4.794721,-0.350838 -4.794721,-0.350838 0,0 1.110963,0.760142 0.818608,1.929587 -0.292373,1.169444 -2.806674,1.110972 -2.806674,1.110972 0,0 3.391385,-0.701669 4.326942,0.818612 0.935559,1.520282 -0.935557,5.671811 -0.935557,5.671811 0,0 3.800707,-2.221944 4.619315,-1.52028 0.818609,0.701668 8.303056,0.584722 8.303056,3.33292 0,2.748196 -2.338878,7.835286 -0.760135,12.805436 1.578762,4.97013 5.905702,12.57152 6.022651,15.67056 0.116864,3.09902 1.344868,6.49043 -1.22793,6.02265 -2.572775,-0.46778 -2.74818,-3.68376 -2.74818,-3.68376 0,0 0.233881,2.86515 1.169439,4.38541 0.935554,1.52029 9.706393,-2.28041 11.460553,-1.57874 1.75417,0.70167 4.44389,5.20402 6.5489,4.91168 2.10501,-0.29237 1.16945,-4.4439 1.16945,-4.4439 0,0 0.64321,3.44986 -0.8186,3.80069 -1.46182,0.35084 -6.17728,-7.3893 -5.24173,-7.44777 0.93555,-0.0584 2.49352,0.31416 4.36464,-0.56293 1.87111,-0.87708 1.87111,-4.26848 1.87111,-4.26848 0,0 0.11687,3.97613 -2.45584,3.85918 -2.57277,-0.11686 -4.46568,-4.04463 -3.93942,-4.92173 0.52625,-0.87706 3.82247,-2.38731 3.9979,-1.91954 0.17542,0.46778 11.46056,9.99876 11.81139,9.70641 0.35085,-0.29237 -8.24458,-6.49043 -8.71237,-8.06916 -0.46778,-1.57877 5.49641,3.91762 8.42002,3.39137 2.92361,-0.52625 3.44985,-1.57874 3.44985,-1.57874 0,0 -1.52027,3.80069 -11.69444,-4.03459 -10.17419,-7.83529 6.13958,-1.0525 9.29708,0.93554 3.15751,1.98806 7.01668,5.90571 7.01668,5.90571 0,0 -4.50237,-5.43791 -10.70042,-8.30305 -6.19807,-2.86515 -10.64196,-10.3496 -9.64793,-10.87585 0.99401,-0.52625 2.16348,0 4.03459,-0.87708 1.87109,-0.87709 3.97611,-3.3914 3.97611,-3.3914 0,0 -4.61932,3.09904 -6.02265,2.3389 -1.40334,-0.76014 -3.80068,-5.730285 -2.86514,-5.730285 0.93555,0 4.50238,2.221945 4.50238,2.221945 0,0 -5.26252,-2.748193 -5.26252,-5.43792 0,-2.689727 -0.35083,-3.33292 0.4093,-3.040559 0.76015,0.292362 1.11098,1.461805 3.39141,3.39139 2.28041,1.929587 4.09305,1.812645 4.09305,1.812645 0,0 -7.36751,-5.028616 -7.36751,-6.431951 0,-1.403336 2.57278,-5.204034 4.21,-4.560842 z"
       id="path4842"
       inkscape:connector-curvature="0"
       sodipodi:nodetypes="cssccccsssscssssccssscsssscssccscssscssscscsccscscscccccccsscccscsccscscscssscscscscscscscscscscsscccscssscscssscscscccsssscsscssscsscssscsc" />
    <path
       style="fill:#5f5f5f;fill-opacity:1;fill-rule:evenodd;stroke:none;stroke-width:0.46307677px;stroke-linecap:butt;stroke-linejoin:miter;stroke-opacity:1"
       d="m 125.60881,22.764535 c 0,0 -1.98803,1.987753 -3.33289,3.449562 -1.34487,1.461803 -7.9519,-0.99399 -7.9519,-0.99399 0,0 1.81187,4.210249 -1.81342,5.555116 -2.96631,1.100404 -3.53629,-0.483324 -3.64853,-1.101618 0.0969,0.59472 0.36611,2.856243 -1.3214,2.856243 -1.92957,0 -3.91717,-0.9361 -3.91717,-0.9361 0,0 1.4615,2.455798 -1.22823,3.332884 -2.689723,0.877081 -3.391673,-1.695837 -3.391673,-1.695837 0,0 -0.701852,6.373546 -3.040751,7.19216 -2.3389,0.818613 -9.296811,0.175464 -9.296811,0.175464 0,0 3.274277,8.712184 0.467602,10.817182 -2.806675,2.105005 -9.3556,4.034738 -9.3556,4.034738 0,0 4.034648,15.4371 2.514363,15.4371 -1.520268,0 -6.080596,-1.637046 -6.080596,-1.637046 0,0 0.876729,4.209613 -0.234253,5.437531 -1.110962,1.227917 -3.391675,2.338899 -3.391675,2.338899 0,0 10.174889,1.169231 10.818088,2.631036 0.643186,1.461808 1.40329,6.19863 -1.344909,6.783351 -2.748204,0.584724 -4.795378,-0.350924 -4.795378,-0.350924 0,0 1.111784,0.759743 0.819429,1.929183 -0.136931,0.547709 -0.762293,0.820258 -1.387425,0.961431 1.047175,-0.03664 2.372533,0.100324 2.906896,0.968659 0.288923,0.469505 0.309451,1.190117 0.200785,1.961747 2.073325,-0.177558 4.280747,-0.461748 5.120982,-0.909872 1.754161,-0.935554 2.338222,-5.262071 3.215303,-5.262071 0.877086,0 2.163439,0.292136 2.163439,0.292136 0,0 -1.636786,-1.578439 -2.923172,-1.110662 -1.286385,0.467778 -3.332889,1.461586 -3.332889,1.461586 0,0 4.151729,-1.929826 4.210202,-3.216211 0.05846,-1.286395 -3.04079,-2.338812 -3.216213,-3.157426 -0.175407,-0.818611 -4.6782,-4.735686 -3.918064,-4.735686 0.760136,0 3.508348,3.800249 3.508348,1.753723 0,-2.046532 -2.221319,-4.969934 -2.221319,-4.969934 0,0 3.390769,2.280607 3.390769,0.701852 0,-1.578749 -3.215309,-5.789367 -3.215309,-5.789367 0,0 4.969851,1.870991 5.788461,2.981963 0.818607,1.110973 0.584272,5.964829 0.584272,5.964829 0,0 -5e-5,-3.274777 2.16344,-3.567141 2.163471,-0.292359 6.90002,-1.110663 6.90002,-2.280112 0,-1.169444 -2.865286,0.994161 -2.865286,-0.643061 0,-1.637226 2.690138,-2.339135 2.748619,-4.385661 0.05843,-2.04653 2.338895,-2.338853 2.338895,-0.993989 0,1.344863 -1.871663,6.314848 -0.936099,6.314848 0.682875,0 1.26899,-2.387175 1.537563,-3.682905 0.08893,-0.476177 0.158273,-0.819428 0.158273,-0.819428 0,0 -0.05893,0.339986 -0.158273,0.819428 -0.241179,1.290609 -0.634945,3.687518 -0.250538,3.858368 0.526259,0.233892 0.642614,-4.326742 1.227332,-4.969933 0.584722,-0.643195 1.695842,-0.526662 1.695842,-1.579165 0,-1.052501 0.52657,-8.010424 0.0588,-10.466259 -0.46778,-2.455834 -1.98788,-5.905507 -1.637041,-7.308834 0.350831,-1.40334 0.350911,-4.853261 0.350911,-4.853261 0,0 3.39122,2.981648 3.97595,4.092621 0.41884,0.795793 -0.56608,2.746406 -1.16221,3.797771 0.5616,-0.900439 1.54998,-2.267784 2.03863,-1.575548 0.70165,0.994031 0.17546,5.320863 0.17546,5.320863 0,0 1.40375,-1.462036 2.74861,-0.877313 1.34486,0.584723 0.11663,2.806911 1.11066,4.385661 0.96859,1.538379 4.43523,7.349552 6.12672,8.132786 0.53664,0.156895 0.77756,0.261425 0.13025,0.05337 -0.0419,-0.01346 -0.0858,-0.03281 -0.13025,-0.05337 -0.82066,-0.239934 -2.34746,-0.60514 -2.55958,-0.180887 -0.35085,0.701667 3.33289,2.515003 3.33289,4.970837 0,2.455836 -0.34263,5.670122 -1.04825,6.401676 2.48076,-1.323075 1.63289,-3.478503 3.03622,-3.478503 1.40332,0 6.49057,3.216355 5.20419,3.7426 -1.28639,0.52625 -4.91145,1.227881 -3.80049,2.163439 1.11099,0.935555 5.96416,-0.17582 6.84124,0.759733 0.65354,0.697097 0.91702,8.753652 0.98494,12.989665 0.028,-2.396074 0.12802,-5.563252 0.41786,-5.563252 0.46777,0 3.33354,3.09892 3.45045,5.320864 0.11699,2.221949 3.3329,5.028722 3.3329,5.028722 0,0 -5.14575,-7.075734 -1.8713,-12.630599 3.27446,-5.554865 -0.059,-7.192166 0.23335,-9.531061 0.29236,-2.33889 -3.15707,3.625475 -5.26207,1.871298 -2.105,-1.754162 -4.85332,-4.502116 -3.85928,-7.133369 0.99403,-2.631252 -4.32642,-10.057273 -4.91114,-10.52505 -0.58474,-0.467782 -1.93004,2.163074 -2.92408,1.929187 -0.99402,-0.23389 -2.0463,-4.267952 -0.29214,-4.911147 1.75416,-0.643194 5.08661,-2.105503 5.08661,-0.76064 0,1.344858 -0.87641,3.041113 -0.87641,3.275003 0,0.233888 1.22747,-0.585087 1.75372,-0.234251 0.52626,0.350831 1.34511,3.566594 2.04677,3.800486 0.70167,0.233885 2.92317,-2.514365 2.92317,-2.514365 0,0 -3.68359,-1.577901 -2.8065,-2.513456 0.87708,-0.935558 3.27501,0.05788 3.27501,0.05788 0,0 -0.059,-2.397194 1.05185,-2.806499 1.11099,-0.409305 2.98199,-2.339213 4.15142,-2.397686 1.16944,-0.05848 3.27501,0.350924 3.27501,0.350924 0,0 -3.39161,-3.039937 -5.37965,-2.221323 -1.98807,0.818612 -5.90614,2.806499 -7.42643,2.806499 -1.52025,0 -0.29231,-2.339311 -0.99398,-2.748616 -0.70167,-0.409309 -4.79447,-0.233344 -4.79447,-0.233344 0,0 5.32075,1.344145 1.46159,1.870394 -3.85917,0.52625 -7.13337,-0.993989 -7.13337,-0.993989 0,0 1.92977,-0.0578 1.8713,-0.876405 -0.0584,-0.818619 -0.4676,-2.281015 -0.4676,-2.281015 0,0 1.46156,1.870895 2.45557,1.461586 0.99403,-0.409305 1.4615,-2.455038 1.11066,-2.68892 -0.35083,-0.233894 -2.98196,-0.468503 -2.98196,-0.468503 l 5.1454,-0.935202 c 0,0 -6.89945,9.3e-5 -6.95792,-0.818522 -0.0584,-0.818607 2.57251,0.05802 3.62503,-1.75463 1.05249,-1.81264 1.11158,-4.735682 1.11158,-4.735682 0,0 3.50812,-1.052638 6.13937,0.64306 2.63126,1.695695 3.15743,2.631036 3.15743,2.631036 0,0 -0.40917,-2.163074 -1.81251,-3.098632 -1.40333,-0.935554 -5.37965,-1.754626 -5.37965,-1.754626 0,0 0.46746,-0.409132 1.11066,-1.63705 0.64318,-1.227918 0.29304,-2.16344 0.29304,-2.16344 0,0 1.16882,2.573156 2.22132,2.573156 1.0525,0 1.98821,-0.233895 1.69583,-1.169453 -0.29235,-0.935554 -1.92917,-3.508349 -1.92917,-3.508349 0,0 3.80071,2.572836 4.67779,3.683813 0.87709,1.110972 -2.3391,2.046535 -1.8713,2.338899 0.46776,0.292358 3.04075,1.402799 3.04075,1.402799 0,0 -1.63705,0.760051 -1.63705,1.987973 0,1.227919 2.22131,0.05878 2.22131,0.05878 0,0 -1.34445,1.637051 -0.75972,1.637051 0.58473,0 2.51427,-1.695972 2.16343,-2.222227 -0.35083,-0.526251 -2.39769,-0.292137 -2.39769,-0.292137 0,0 2.92422,-2.046086 3.45048,-1.753723 0.52625,0.29236 3.03984,1.695838 3.03984,1.695838 0,0 -3.4495,-4.444454 -3.2741,-4.444454 0.17542,0 4.79447,1.987795 4.79447,1.286127 0,-0.701668 -2.86529,-5.437535 -2.86529,-5.437535 0,0 4.61993,3.800489 4.61993,4.969934 0,1.169444 -1.63782,0.819113 -1.11157,1.93009 0.52624,1.110973 1.63772,0.292456 1.93008,1.520373 0.29236,1.227919 -0.29213,2.396785 -0.29213,2.396785 0,0 1.52007,-0.116496 1.46159,-0.58427 -0.0584,-0.467776 -2.16363,-6.37364 -1.69584,-6.37364 0.46777,0 0.93548,3.274143 1.98797,3.449562 1.05251,0.175417 1.63705,-2.22132 1.63705,-2.22132 0,0 -0.58497,3.332069 0.11661,3.682906 0.70168,0.350831 2.04704,-1.519523 1.93009,-2.86438 -0.11687,-1.344863 -1.22823,-1.987975 -1.22823,-1.987975 0,0 0.99466,-5.02927 1.28702,-4.795378 0.29237,0.23389 0.17546,3.332884 0.17546,3.332884 0,0 1.75414,-2.163523 2.16344,-1.344909 0.4093,0.818613 -0.46851,2.573151 -0.46851,2.573151 0,0 1.92044,0.238443 2.5822,-0.01088 0.12777,-0.207983 0.22521,-0.332429 0.22521,-0.223398 0,0.100529 -0.0877,0.171639 -0.22521,0.223398 -0.55745,0.907404 -1.98356,4.168983 -1.41274,4.4544 0.70168,0.350832 2.45648,-4.560222 2.45648,-4.560222 0,0 -0.5263,3.157423 -0.17547,3.157423 0.35083,0 1.4028,-3.918059 1.4028,-3.918059 0,0 0.11747,4.736687 -1.4028,6.256958 -1.52027,1.520282 -5.6139,10.7584 -5.6139,10.7584 0,0 4.97032,-1.286127 8.71254,-1.286127 3.74223,0 5.02871,-1.637046 5.02871,-1.637046 0,0 -6.78312,1.578394 -7.07548,0.935198 -0.29235,-0.643195 4.32688,-1.695838 4.32688,-1.695838 0,0 -3.97551,-1.11107 -3.39077,-1.520373 0.58473,-0.409305 5.61321,0.410114 5.32085,-0.350023 -0.29235,-0.760144 -3.15764,-3.157516 -2.86529,-3.508352 0.29238,-0.350832 6.43244,-3.684216 6.43244,-2.924076 0,0.760141 -2.68982,2.806501 -2.68982,2.806501 0,0 7.95235,-2.338774 9.70651,-4.151414 1.75417,-1.81264 2.86438,-3.098632 2.86438,-3.098632 0,0 -2.57266,4.852906 -7.65976,6.957909 -5.08709,2.105004 -0.52639,3.391677 -0.52639,3.391677 0,0 -3.68335,0.116728 -3.09863,1.461586 0.58473,1.344863 5.02872,1.520373 5.02872,1.520373 0,0 -4.26842,-0.292813 -4.32686,0.584273 -0.0585,0.877086 2.86488,2.63194 4.79446,2.63194 l 4.6778,0 c 0,0 -2.22218,0.291737 -2.04676,2.221323 0.0754,0.829463 0.88036,2.204722 1.76729,3.509251 0.0485,-0.02457 0.0998,-0.04677 0.1628,-0.05878 1.22791,-0.233891 3.97595,0.525487 3.97595,0.525487 0,0 -3.09882,-1.695525 -2.63104,-2.806502 0.4678,-1.110972 1.16915,-3.975494 2.28011,-3.390772 1.11098,0.584721 3.15742,2.163438 3.15742,2.163438 0,0 -2.2803,-1.521012 -0.64305,-2.807402 1.6372,-1.286391 5.90604,-1.402799 5.90604,-1.402799 0,0 -4.97084,0.05793 -4.97084,-0.9361 0,-0.994032 3.50835,-0.818526 3.50833,-0.818526 0,0 -0.0578,-1.168777 1.11157,-3.215309 1.16947,-2.04653 3.7417,-2.281013 3.7417,-2.281013 0,0 -6.49022,-0.584774 -6.13938,-1.344914 0.35083,-0.76014 5.26298,-1.344915 5.26298,-1.344915 0,0 -5.96456,0.585085 -6.08151,0.234253 -0.11698,-0.350838 1.69584,-2.573152 1.69584,-2.573152 0,0 -1.69584,-0.05774 -1.69584,-0.700945 0,-0.643195 -4.03474,2.514137 -4.03474,1.637051 0,-0.877082 3.44956,-2.573152 3.44956,-2.573152 0,0 -2.68894,0.759864 -2.86437,0.116668 -0.17541,-0.643194 1.28612,-1.987976 1.28612,-1.987976 0,0 -4.0933,2.690371 -4.38566,2.456479 -0.29235,-0.233886 1.11157,-3.391675 1.11157,-3.391675 0,0 -6.25698,3.215716 -6.25698,2.455572 0,-0.760141 0.0587,-3.449924 -0.11661,-3.68381 -0.17542,-0.23389 -2.28101,-1.286126 -2.28101,-1.286126 0,0 0.35074,2.222227 -0.35093,2.222227 -0.70166,0 -2.98195,-3.391676 -2.98195,-3.391676 0,0 -0.17478,0.877313 -2.22134,0.877313 -2.04652,0 -6.54909,-2.573152 -6.54909,-2.573152 0,0 -1.98811,2.981872 -2.51436,2.631036 -0.52623,-0.35082 -0.17544,-2.163424 -0.17544,-2.163424 0,0 -1.5206,-1.461859 -2.39769,-1.344913 -0.87711,0.116949 -7.60102,3.567094 -8.94589,3.391676 -1.34486,-0.175414 -4.03473,-1.637324 -4.03473,-2.689824 0,-0.740139 0.68789,-1.414829 1.09981,-1.75463 -0.35942,0.227037 -1.04401,0.522189 -2.0938,0.409717 -1.63722,-0.175419 -5.32086,-1.461586 -5.32086,-1.461586 z m 7.41466,1.05187 c 0.20112,-0.127044 0.30389,-0.233345 0.30389,-0.233345 0,0 -0.13005,0.08994 -0.30389,0.233345 z m -5.72787,68.188057 c -0.0172,1.470973 -0.0132,2.719803 0.009,2.564108 0.0149,-0.104321 0.0142,-1.115066 -0.009,-2.564108 z M 103.10436,49.249453 c -0.24483,0.392555 -0.41695,0.704562 -0.41695,0.704562 0,0 0.18085,-0.288167 0.41695,-0.704562 z M 74.695681,88.9809 c -0.786203,0.02751 -1.419979,0.150139 -1.419979,0.150139 0,0 0.710361,0.01018 1.419979,-0.150139 z M 108.86207,29.673605 c -0.014,-0.08531 -0.0353,-0.243296 -0.0353,-0.243296 0,0 0.01,0.105945 0.0353,0.243296 z"
       id="path4844"
       inkscape:connector-curvature="0" />
  </g>
  <g
     inkscape:groupmode="layer"
     id="layer5"
     inkscape:label="Arms">
    <path
       style="fill:#000000;fill-opacity:1;fill-rule:evenodd;stroke:none;stroke-width:0.46307677px;stroke-linecap:butt;stroke-linejoin:miter;stroke-opacity:1"
       d="m 37.827717,234.8944 c 0,0 6.483076,-11.57691 9.029997,-18.98614 2.546922,-7.40924 1.157692,-26.62692 1.157692,-26.62692 l 20.375379,4.8623 -9.493073,39.82463 z"
       id="path4914"
       inkscape:connector-curvature="0" />
    <path
       style="fill:#e9c6af;fill-rule:evenodd;stroke:none;stroke-width:1.75021136px;stroke-linecap:butt;stroke-linejoin:miter;stroke-opacity:1"
       d="M 196.30469 574.09766 C 195.95313 574.07933 195.6348 574.08788 195.35156 574.12695 C 195.35156 574.12695 177.22522 574.75278 155.97266 584.44141 C 134.72008 594.13004 95.34012 627.57033 76.900391 643.50977 C 58.460673 659.4492 41.272011 674.76367 36.896484 674.76367 C 32.520954 674.76367 26.581703 672.5757 13.142578 676.01367 C 10.858719 676.59791 5.8740846 678.1817 0 680.09766 L 0 864.14648 C 26.128234 858.29132 53.232467 851.35199 70.962891 844.78516 C 113.1555 829.15828 137.53334 816.96818 152.53516 805.4043 C 167.53696 793.84038 190.35133 771.33782 192.22656 771.65039 C 194.10179 771.96296 208.47945 815.7177 216.91797 824.15625 L 225.66797 832.9082 L 249.73438 601.94336 C 249.73438 601.94336 207.20296 574.66591 196.30469 574.09766 z "
       transform="scale(0.26458333)"
       id="path4890" />
    <path
       style="fill:#e9c6af;fill-opacity:1;fill-rule:evenodd;stroke:none;stroke-width:1.75021136px;stroke-linecap:butt;stroke-linejoin:miter;stroke-opacity:1"
       d="M 746.35547 574.93945 L 774.14062 826.31445 C 774.14063 826.31445 808.05044 858.69207 826.86523 869.84961 C 845.67999 881.00719 960.10153 918.85639 976.94727 927.38867 C 981.77888 929.83583 990.25141 931.54253 1000 932.68945 L 1000 774.83398 C 988.83468 767.65452 975.05235 758.90704 967.75781 754.77344 C 954.63121 747.33502 919.62809 727.64522 910.43945 721.95703 C 901.25089 716.26884 873.68467 688.26656 864.05859 680.39062 C 854.43244 672.51462 824.24085 625.25806 803.23828 606.88086 C 782.23575 588.50362 746.35547 574.93945 746.35547 574.93945 z "
       transform="scale(0.26458333)"
       id="path4892" />
    <path
       style="fill:#deaa87;fill-rule:evenodd;stroke:none;stroke-width:1.75021136px;stroke-linecap:butt;stroke-linejoin:miter;stroke-opacity:1"
       d="M 181.64453 684.88477 C 180.72029 684.9713 180.05277 685.33975 179.72461 686.07812 C 177.97439 690.01609 188.91417 725.89593 188.03906 730.27148 C 187.16396 734.64704 183.2254 716.70655 176.66211 720.20703 C 170.09881 723.70748 159.161 722.83145 152.16016 727.64453 C 145.15931 732.45757 114.09259 760.02526 107.5293 760.46289 C 100.966 760.89996 65.087099 758.27439 55.460938 767.02539 C 45.834772 775.77647 40.145855 794.5918 29.207031 794.5918 C 18.26821 794.5918 15.642947 788.4662 12.580078 793.7168 C 9.5172099 798.96751 28.332405 809.46748 9.0800781 819.96875 C 6.5325587 821.35831 3.4394119 822.96274 0 824.67578 L 0 864.14453 C 26.128498 858.28928 53.232491 851.35 70.962891 844.7832 C 113.1555 829.15629 137.53336 816.96818 152.53516 805.4043 C 167.53695 793.84038 190.35133 771.33782 192.22656 771.65039 C 194.10179 771.96296 208.47945 815.7177 216.91797 824.15625 C 224.54231 831.78058 224.70401 831.94227 224.82422 832.0625 L 225.78516 831.7793 L 230.42773 787.23438 L 232.23242 740.77148 C 232.23242 740.77148 210.35458 696.57859 201.60352 692.64062 C 194.49328 689.44103 185.64959 684.5098 181.64453 684.88477 z "
       transform="scale(0.26458333)"
       id="path4894" />
    <path
       style="fill:#deaa87;fill-rule:evenodd;stroke:none;stroke-width:1.75021136px;stroke-linecap:butt;stroke-linejoin:miter;stroke-opacity:1"
       d="M 810.08984 701.13672 C 803.21564 700.4156 771.29687 723.48828 771.29688 723.48828 L 766.46289 756.83789 L 774.14062 826.31445 C 774.14062 826.31445 808.05044 858.69214 826.86523 869.84961 C 845.67999 881.00723 960.10153 918.85639 976.94727 927.38867 C 981.77886 929.83583 990.25142 931.54253 1000 932.68945 L 1000 893.33398 C 998.56462 893.017 997.19469 892.75006 995.98047 892.60352 C 983.29146 891.07209 914.37647 833.31537 901.6875 825.87695 C 888.99849 818.43854 883.09236 800.28021 878.7168 792.8418 C 874.34124 785.40342 803.89508 761.77409 798.86328 756.08594 C 793.83141 750.39775 814.61365 705.98681 811.11328 701.61133 C 810.8945 701.33785 810.54812 701.18479 810.08984 701.13672 z "
       transform="scale(0.26458333)"
       id="path4906" />
    <path
       style="fill:#363636;fill-rule:evenodd;stroke:none;stroke-width:0.99999994px;stroke-linecap:butt;stroke-linejoin:miter;stroke-opacity:1;fill-opacity:1"
       d="M 389.4375 497.55469 C 389.4375 497.55469 323.49273 512.55643 319.11719 514.43164 C 314.74165 516.30689 309.42817 520.68359 305.99023 520.68359 C 302.5523 520.68359 298.48882 521.30844 294.11328 522.55859 C 289.73781 523.80875 278.17468 539.74805 271.29883 539.74805 C 264.423 539.74805 256.60971 547.56055 253.79688 547.56055 C 250.98403 547.56055 240.67038 545.68533 236.91992 547.56055 C 233.16948 549.43584 223.48152 559.43731 214.73047 560.6875 C 205.97941 561.93769 192.53971 562.5625 187.22656 562.5625 C 181.91343 562.5625 158.47266 582.87891 158.47266 582.87891 C 158.47266 582.87891 174.09888 576.62695 180.03711 576.62695 C 185.97533 576.62695 194.10122 571.93909 196.91406 575.06445 C 199.72689 578.1899 218.48017 602.56845 220.98047 634.13477 C 223.48077 665.70112 223.16857 771.33765 218.16797 789.15234 C 213.16736 806.967 186.91347 862.91144 175.66211 868.84961 C 164.41076 874.78789 143.1582 887.91406 143.1582 887.91406 C 143.1582 887.91406 159.06826 946.9677 172.23438 1000 L 753.34961 1000 C 753.8044 996.25517 754.09003 993.0241 754.16992 990.42773 C 755.42011 949.79774 750.41975 936.67108 752.29492 911.04297 C 754.17013 885.4149 791.04883 783.52647 791.04883 774.77539 C 791.04883 766.02431 767.92211 649.13577 765.42188 624.75781 C 762.92157 600.37986 747.91853 560.37531 743.54297 557.875 C 739.16752 555.37469 697.91224 545.37368 680.41016 539.74805 C 662.90803 534.1223 602.59691 513.87331 592.17188 515.93164 C 582.09811 517.92065 580.6582 519.49023 580.6582 519.49023 C 580.6582 519.49023 608.52769 541.62354 606.02734 569.75195 C 603.52711 597.88029 605.40167 607.25646 594.15039 618.50781 C 582.899 629.75916 523.51728 676.63867 509.76562 676.63867 C 496.01397 676.63867 463.50874 667.8882 456.00781 656.01172 C 448.50689 644.13531 441.00704 632.25825 431.63086 629.13281 C 422.25472 626.00748 402.25145 607.25508 390.375 597.87891 C 378.49848 588.50281 343.49414 523.49503 343.49414 515.99414 C 343.49414 508.49321 389.4375 497.55469 389.4375 497.55469 z "
       transform="scale(0.26458333)"
       id="rect4940" />
  </g>
  <g
     inkscape:groupmode="layer"
     id="layer4"
     inkscape:label="Shirt"
     style="display:inline" />
</svg>
