<?xml version="1.0" encoding="UTF-8" standalone="no"?>
<!-- Created with Inkscape (http://www.inkscape.org/) -->

<svg
   xmlns:dc="http://purl.org/dc/elements/1.1/"
   xmlns:cc="http://creativecommons.org/ns#"
   xmlns:rdf="http://www.w3.org/1999/02/22-rdf-syntax-ns#"
   xmlns:svg="http://www.w3.org/2000/svg"
   xmlns="http://www.w3.org/2000/svg"
   xmlns:sodipodi="http://sodipodi.sourceforge.net/DTD/sodipodi-0.dtd"
   xmlns:inkscape="http://www.inkscape.org/namespaces/inkscape"
   width="1000"
   height="1000"
   viewBox="0 0 264.58333 264.58334"
   id="svg4332"
   version="1.1"
   inkscape:version="0.91+devel r13925"
   sodipodi:docname="igudesman-and-joo.svg"
   inkscape:export-filename="/Users/agarone/Documents/git/art/igudesman-and-joo/igudesman-and-joo.png"
   inkscape:export-xdpi="96"
   inkscape:export-ydpi="96">
  <defs
     id="defs4334" />
  <sodipodi:namedview
     id="base"
     pagecolor="#ffffff"
     bordercolor="#666666"
     borderopacity="1.0"
     inkscape:pageopacity="0.0"
     inkscape:pageshadow="2"
     inkscape:zoom="0.98994949"
     inkscape:cx="596.59121"
     inkscape:cy="261.24468"
     inkscape:document-units="px"
     inkscape:current-layer="layer1"
     showgrid="false"
     units="px"
     showguides="true"
     inkscape:guide-bbox="true"
     inkscape:window-width="1920"
     inkscape:window-height="1151"
     inkscape:window-x="0"
     inkscape:window-y="1"
     inkscape:window-maximized="1">
    <sodipodi:guide
       position="264.58333,0"
       orientation="1,0"
       id="guide4340"
       inkscape:label=""
       inkscape:color="rgb(0,0,255)" />
    <sodipodi:guide
       position="0,0"
       orientation="1,0"
       id="guide4342"
       inkscape:label=""
       inkscape:color="rgb(0,0,255)" />
    <sodipodi:guide
       position="0,0"
       orientation="0,1"
       id="guide4344"
       inkscape:label=""
       inkscape:color="rgb(0,0,255)" />
    <sodipodi:guide
       position="0,264.58333"
       orientation="0,1"
       id="guide4346"
       inkscape:label=""
       inkscape:color="rgb(0,0,255)" />
  </sodipodi:namedview>
  <metadata
     id="metadata4337">
    <rdf:RDF>
      <cc:Work
         rdf:about="">
        <dc:format>image/svg+xml</dc:format>
        <dc:type
           rdf:resource="http://purl.org/dc/dcmitype/StillImage" />
        <dc:title></dc:title>
      </cc:Work>
    </rdf:RDF>
  </metadata>
  <g
     inkscape:label="BG"
     inkscape:groupmode="layer"
     id="layer1"
     transform="translate(0,-32.41665)"
     style="display:none">
    <rect
       style="opacity:1;fill:#ffffff;fill-opacity:1;stroke:none;stroke-width:11.60810661;stroke-miterlimit:4;stroke-dasharray:none;stroke-opacity:1"
       id="rect5606"
       width="264.58334"
       height="264.58334"
       x="0"
       y="32.416653" />
  </g>
  <g
     inkscape:groupmode="layer"
     id="layer3"
     inkscape:label="Joo"
     style="display:inline">
    <path
       style="fill:#e5c7b3;fill-opacity:1;fill-rule:evenodd;stroke:none;stroke-width:0.26458332px;stroke-linecap:butt;stroke-linejoin:miter;stroke-opacity:1"
       d="m 64.44494,200.32738 9.921875,-9.07143 c 0,0 -0.472472,-15.44978 -0.141743,-16.01674 0.330729,-0.56697 4.819198,-4.34673 5.527903,-5.48066 0.708705,-1.13392 0.755951,-1.55915 1.228423,-2.03162 0.472469,-0.47247 1.937128,-1.65364 2.267858,-3.1183 0.330729,-1.46466 0.283482,-6.14211 1.606399,-8.92969 1.322916,-2.78757 6.378347,-17.15067 6.47284,-23.0093 0.0945,-5.85863 -1.984374,-7.46503 -1.984374,-8.50446 0,-1.03944 0,-2.83482 -0.377976,-3.68527 -0.377976,-0.85045 -1.181177,-1.6064 -1.133928,-2.4096 0.04725,-0.8032 0.330729,-1.74814 0.236234,-2.59859 -0.09449,-0.85044 -0.708705,-2.59858 -0.708705,-3.96875 0,-1.37016 0.330729,-1.98437 -0.425223,-3.21279 -0.755952,-1.22842 -2.315104,-2.50409 -2.929316,-4.53572 -0.614211,-2.03162 -0.566965,-12.189729 -0.566965,-12.189729 L 65.767857,84.194194 37.514135,88.540922 27.167038,124.54315 c 0,0 -8.362723,17.71763 -6.803571,19.18229 1.559152,1.46466 6.425596,2.03162 6.850818,3.9215 0.425223,1.88989 1.086683,22.77307 1.086683,22.77307 z"
       id="path4870"
       inkscape:connector-curvature="0"
       sodipodi:nodetypes="ccsssssssssssssccccsscc" />
    <path
       style="fill:#c49676;fill-opacity:1;fill-rule:evenodd;stroke:none;stroke-width:0.26458332px;stroke-linecap:butt;stroke-linejoin:miter;stroke-opacity:1"
       d="m 53.436384,122.84226 c 0,0 1.819011,-1.70089 4.606584,-2.50409 2.787573,-0.8032 5.905878,-0.85045 5.882254,-0.94494 -0.02363,-0.0945 -3.70889,-0.0709 -5.551525,0.44884 -1.842635,0.51972 -4.441219,2.12612 -4.937313,3.00019 z"
       id="path4872"
       inkscape:connector-curvature="0" />
    <path
       style="fill:#c49676;fill-opacity:1;fill-rule:evenodd;stroke:none;stroke-width:0.26458332px;stroke-linecap:butt;stroke-linejoin:miter;stroke-opacity:1"
       d="m 64.303197,120.33817 c 0.377979,-0.16537 2.645834,-1.32292 3.118306,-1.27567 0.472469,0.0473 1.133927,0.63783 1.133927,0.63783 0,0 -0.496094,-0.51971 -0.307105,-1.41741 0.188987,-0.89769 -0.04725,-1.44103 0.685081,-0.77957 0.732329,0.66145 0.826823,1.5119 1.81901,1.44103 0.99219,-0.0709 2.008,-0.49609 1.842635,-0.61421 -0.165364,-0.11812 -1.322916,0.63784 -1.866257,0.25986 -0.54334,-0.37798 -1.724517,-1.7009 -2.315104,-1.7009 -0.590587,0 -0.118118,0.87407 -0.519718,0.87407 -0.401598,0 -0.779577,-1.06305 -1.204799,-0.85044 -0.425223,0.21261 -2.007997,1.93713 -2.622209,2.008 -0.614211,0.0709 2.29148,-0.28348 0.236233,1.41741 z"
       id="path4874"
       inkscape:connector-curvature="0" />
    <path
       style="fill:#c49676;fill-opacity:1;fill-rule:evenodd;stroke:none;stroke-width:0.26458332px;stroke-linecap:butt;stroke-linejoin:miter;stroke-opacity:1"
       d="m 50.908666,119.18062 c 0,0 5.268045,-1.03944 6.000375,-1.32292 0.732327,-0.28348 3.260042,-0.94494 3.354538,-0.51972 0.09449,0.42522 -1.039434,0.51972 -1.039434,0.51972 0,0 2.007997,-0.33073 2.622208,-0.28348 0.614212,0.0472 1.582775,0.66146 1.582775,0.66146 0,0 -1.157552,-1.06306 -1.606399,-1.06306 -0.448845,0 -0.708705,0.11811 -0.897692,0.0236 -0.188989,-0.0945 0.307105,-0.49609 -0.826823,-0.49609 -1.13393,0 -3.260045,1.11031 -4.630208,1.37016 -1.370163,0.25986 -4.039621,0.8032 -4.55934,1.11031 z"
       id="path4876"
       inkscape:connector-curvature="0" />
    <path
       style="fill:#65442d;fill-opacity:1;fill-rule:evenodd;stroke:none;stroke-width:0.26458332px;stroke-linecap:butt;stroke-linejoin:miter;stroke-opacity:1"
       d="m 50.908666,115.21187 c 0,-0.25986 1.819011,-0.16537 2.622212,0.0472 0.803198,0.21261 1.370163,0.54334 1.771763,0.61421 0.401598,0.0709 1.937129,0.11812 2.220609,-0.11811 0.283482,-0.23624 3.023811,-1.55916 5.031808,-1.48828 2.008,0.0709 3.779764,0.42522 4.488469,1.01581 0.708705,0.59058 2.149739,1.01581 1.748139,1.08668 -0.401601,0.0709 -1.913504,0.0709 -1.937129,-0.16537 -0.02363,-0.23623 0.118118,-1.1103 -2.149739,-1.41741 -2.267858,-0.3071 -6.709077,0.44885 -6.401972,0.8032 0.307107,0.35435 1.204799,0 1.13393,0.23624 -0.07087,0.23623 -1.81901,0.47247 -3.047434,0.49609 -1.228423,0.0236 -2.740326,0.21261 -2.740326,0.21261 0,0 1.724514,-0.21261 1.393785,-0.35435 -0.330729,-0.14174 -0.401598,-0.4016 -1.55915,-0.51972 -1.157552,-0.11811 -2.858444,-0.16536 -2.574965,-0.44884 z"
       id="path4878"
       inkscape:connector-curvature="0" />
    <path
       style="fill:#322116;fill-opacity:1;fill-rule:evenodd;stroke:none;stroke-width:0.30185455px;stroke-linecap:butt;stroke-linejoin:miter;stroke-opacity:1"
       d="m 59.625743,115.88355 c 0.04725,-0.43047 1.511905,-0.58421 2.385975,-0.64571 0.87407,-0.0614 0.779576,-0.24597 1.653646,-0.15373 0.874069,0.0923 1.039434,0.5227 1.511906,0.55346 0.472469,0.0308 1.346538,0.15374 1.275667,0.49195 -0.07087,0.33823 -1.275667,0.24599 -1.748139,0.0614 -0.472469,-0.18449 -0.755952,-0.46122 -1.464657,-0.46122 -0.708705,0 -3.330916,0.30748 -3.614398,0.15374 z"
       id="path4880"
       inkscape:connector-curvature="0" />
    <path
       style="fill:#c49676;fill-opacity:1;fill-rule:evenodd;stroke:none;stroke-width:0.26458332px;stroke-linecap:butt;stroke-linejoin:miter;stroke-opacity:1"
       d="m 69.500371,115.99144 c 0,-0.23623 2.811198,-0.82682 2.622211,-0.51972 -0.188989,0.30711 -1.464659,0.11812 -1.110305,0.4016 0.354351,0.28349 3.449031,0 2.952937,0.14174 -0.496093,0.14175 -3.354538,0.63784 -3.449031,0.35436 -0.0945,-0.28348 -0.118118,-0.59059 -1.015812,-0.37798 z"
       id="path4882"
       inkscape:connector-curvature="0" />
    <path
       style="fill:#c49676;fill-opacity:1;fill-rule:evenodd;stroke:none;stroke-width:0.26458332px;stroke-linecap:butt;stroke-linejoin:miter;stroke-opacity:1"
       d="m 68.201079,114.6449 c 0.637833,0 0.425222,-1.18118 0.968563,-1.2048 0.54334,-0.0236 3.685267,-0.96856 3.567152,-1.18117 -0.118118,-0.21262 -3.82701,0.99218 -4.157739,0.87407 -0.33073,-0.11812 -1.46466,-2.17337 -2.078869,-2.008 -0.614211,0.16536 1.41741,2.78757 1.700893,3.5199 z"
       id="path4884"
       inkscape:connector-curvature="0" />
    <path
       style="fill:#c49676;fill-opacity:1;fill-rule:evenodd;stroke:none;stroke-width:0.26458332px;stroke-linecap:butt;stroke-linejoin:miter;stroke-opacity:1"
       d="m 73.162016,113.9362 c 0.543341,-0.11812 3.189174,0.3071 3.189174,0.11811 0,-0.18898 -0.330729,-0.33072 -0.07087,-0.51971 0.25986,-0.18899 5.362537,-2.59859 5.433409,-2.19699 0.07087,0.4016 -4.535715,1.96075 -4.677455,2.78757 -0.141743,0.82683 0.165364,0.99219 0.165364,0.99219 0,0 -0.4016,-0.54334 -0.472471,-0.14174 -0.07087,0.4016 -0.307105,1.18118 -0.307105,1.18118 0,0 0.14174,-1.63003 -0.0945,-1.7009 -0.236233,-0.0709 -3.071056,-0.37797 -3.165549,-0.51971 z"
       id="path4886"
       inkscape:connector-curvature="0" />
    <path
       style="fill:#c49676;fill-opacity:1;fill-rule:evenodd;stroke:none;stroke-width:0.26458332px;stroke-linecap:butt;stroke-linejoin:miter;stroke-opacity:1"
       d="m 88.682662,121.70833 c 0,0 -1.96075,-1.72452 -2.598586,-1.72452 -0.637834,0 -2.905692,-0.28348 -3.000185,-0.0709 -0.09449,0.21262 1.559153,0.37798 2.14974,0.4961 0.590587,0.11812 1.015809,0.37798 1.015809,0.37798 0,0 -0.637834,-0.21262 -1.299292,-0.30711 -0.661458,-0.0945 -1.937128,-0.16537 -2.315104,-0.25986 -0.377976,-0.0945 -1.228423,-0.77958 -1.464657,-0.54334 -0.236235,0.23623 2.14974,1.11031 2.14974,1.11031 0,0 -2.291482,-0.25986 -2.952941,-0.70871 -0.661458,-0.44885 -1.039434,-0.96856 -1.299292,-0.87407 -0.25986,0.0945 -0.614211,0.4016 -0.614211,0.4016 0,0 0.307104,-0.82682 0.826823,-0.82682 0.519715,0 2.055246,0.56696 3.071055,0.56696 1.015813,0 3.354539,0.16537 4.063244,0.4016 0.708707,0.23623 2.102493,1.58278 2.267857,1.96075 z"
       id="path4888"
       inkscape:connector-curvature="0" />
    <path
       style="fill:#c49676;fill-opacity:1;fill-rule:evenodd;stroke:none;stroke-width:0.26458332px;stroke-linecap:butt;stroke-linejoin:miter;stroke-opacity:1"
       d="m 77.957589,114.85751 c 0.165365,0.0472 3.543528,-0.94494 5.173549,-0.96856 1.630021,-0.0236 4.701079,1.48828 4.582961,1.22842 -0.118118,-0.25986 -3.141927,-1.5119 -4.134114,-1.5119 -0.992188,0 -5.551525,0.75595 -5.622396,1.25204 z"
       id="path4890"
       inkscape:connector-curvature="0" />
    <path
       style="fill:#65442d;fill-opacity:1;fill-rule:evenodd;stroke:none;stroke-width:0.26458332px;stroke-linecap:butt;stroke-linejoin:miter;stroke-opacity:1"
       d="m 76.469308,116.48754 c 0.09449,0.3071 0.614212,0.54334 1.157552,0.49609 0.54334,-0.0473 0.590587,-0.4016 1.063059,-0.4016 0.472469,0 1.677267,0.0709 1.606396,-0.0473 -0.07087,-0.11811 -1.181174,-0.16536 -0.992187,-0.35435 0.188989,-0.18899 1.53553,-1.08668 4.039621,-1.08668 2.504093,0 4.157739,1.34654 4.157739,1.2048 0,-0.14174 -1.228423,-1.48828 -3.945128,-1.55916 -2.716702,-0.0709 -4.039618,1.18118 -4.65383,1.25205 -0.614212,0.0709 -1.630024,-0.44884 -1.630024,-0.16536 0,0.28348 0.850448,0.23623 0.826823,0.49609 -0.02363,0.25986 -1.346539,0.47247 -1.630021,0.16537 z"
       id="path4892"
       inkscape:connector-curvature="0" />
    <path
       style="fill:#322116;fill-opacity:1;fill-rule:evenodd;stroke:none;stroke-width:0.31540579px;stroke-linecap:butt;stroke-linejoin:miter;stroke-opacity:1"
       d="m 80.1782,116.15627 c 0.425222,0.13429 3.425407,-0.26856 4.417594,0.0673 0.992188,0.3357 2.787576,1.17497 2.716705,1.00712 -0.07087,-0.16784 -1.299292,-1.30927 -2.858445,-1.57782 -1.559152,-0.26857 -4.323103,0.1007 -4.275854,0.50356 z"
       id="path4894"
       inkscape:connector-curvature="0" />
    <path
       style="fill:#c49676;fill-opacity:1;fill-rule:evenodd;stroke:none;stroke-width:0.26458332px;stroke-linecap:butt;stroke-linejoin:miter;stroke-opacity:1"
       d="m 60.665177,139.70945 c 0,0 -0.09449,-0.4961 0.07087,-1.18118 0.165365,-0.68508 5.953125,-9.92187 6.425597,-9.68564 0.472469,0.23624 -0.165365,2.17336 1.464656,2.90569 1.630021,0.73233 6.142114,1.13393 7.157924,2.12612 1.015812,0.99219 2.173364,1.55915 2.929316,1.46466 0.755951,-0.0945 1.346541,-0.33073 2.267857,-1.2993 0.921316,-0.96856 2.29148,-1.98437 1.795386,-2.10249 -0.496094,-0.11812 -1.41741,0.49609 -2.338726,0.4016 -0.921316,-0.0945 -4.063243,-1.81901 -5.362538,-1.81901 -1.299292,0 -3.732514,0.49609 -5.055431,0.37798 -1.322916,-0.11812 -2.149739,-0.66146 -2.149739,-1.7009 0,-1.03943 0,-1.08668 1.204798,-2.38597 1.204799,-1.29929 2.456844,-3.02381 2.055247,-3.02381 -0.401601,0 -5.079056,5.31529 -6.37835,7.08706 -1.299292,1.77176 -4.29948,6.99255 -4.29948,7.53589 0,0.54334 -0.04725,1.27567 0.212612,1.2993 z"
       id="path4896"
       inkscape:connector-curvature="0" />
    <path
       style="fill:#65442d;fill-opacity:1;fill-rule:evenodd;stroke:none;stroke-width:0.26458332px;stroke-linecap:butt;stroke-linejoin:miter;stroke-opacity:1"
       d="m 70.988652,131.98456 c 0,-0.11812 2.480469,-0.77958 3.496281,-0.68508 1.015809,0.0945 3.472656,1.6064 3.141927,1.77176 -0.330729,0.16537 -1.771764,-0.61421 -2.763951,-0.66146 -0.992188,-0.0472 -3.685268,-0.18899 -3.874257,-0.42522 z"
       id="path4898"
       inkscape:connector-curvature="0" />
    <path
       style="fill:#c49676;fill-opacity:1;fill-rule:evenodd;stroke:none;stroke-width:0.26458332px;stroke-linecap:butt;stroke-linejoin:miter;stroke-opacity:1"
       d="m 83.202009,131.77195 c 0.307105,0.11811 1.441035,2.36235 1.677268,3.6144 0.236236,1.25204 0.637836,5.50427 0.992187,5.50427 0.354354,0 -0.354351,-5.55152 -0.590587,-6.40197 -0.236236,-0.85045 -0.661458,-1.27567 -0.519718,-2.14974 0.141742,-0.87407 -0.590587,-4.29948 -0.897692,-4.13411 -0.307107,0.16536 0.803199,1.25204 0.33073,2.22061 -0.472472,0.96856 -1.063059,1.18117 -0.992188,1.34654 z"
       id="path4900"
       inkscape:connector-curvature="0" />
    <path
       style="fill:#e9b59c;fill-opacity:1;fill-rule:evenodd;stroke:none;stroke-width:0.26458332px;stroke-linecap:butt;stroke-linejoin:miter;stroke-opacity:1"
       d="m 61.066777,144.7885 c 0,-0.85044 0.236236,-2.64583 1.677271,-2.88207 1.441034,-0.23623 9.685639,-1.34654 10.512461,-1.15755 0.826823,0.18899 2.69308,0.75595 3.921504,0.75595 1.228423,0 3.307291,-0.8032 4.299479,-0.8032 0.992187,0 1.488281,1.53553 1.488281,2.1025 0,0.56696 -1.889882,1.65364 -1.653646,3.30729 0.236236,1.65364 1.488282,3.63802 0.259858,5.78776 -1.228421,2.14974 -3.756139,2.7167 -5.19717,2.69308 -1.441035,-0.0236 -14.670202,-4.4176 -15.308038,-9.80376 z"
       id="path4902"
       inkscape:connector-curvature="0" />
    <path
       style="fill:#aa481a;fill-opacity:1;fill-rule:evenodd;stroke:none;stroke-width:0.26458332px;stroke-linecap:butt;stroke-linejoin:miter;stroke-opacity:1"
       d="m 61.444753,144.76488 c 0,-0.87407 -0.07087,-1.11031 0.566965,-1.39379 0.637834,-0.28348 9.260417,-1.44103 10.583333,-1.27567 1.322917,0.16537 3.141927,0.66146 4.063243,0.66146 0.921319,0 3.82701,-1.29929 4.204986,-1.13393 0.377976,0.16537 1.086681,0.61421 1.086681,1.27567 0,0.66146 -1.393785,2.29148 -1.393785,3.51991 0,1.22842 -0.826823,5.19717 -3.000187,5.14992 -2.173362,-0.0473 -6.307479,0.11812 -8.07924,-1.06306 -1.771764,-1.18117 -6.496468,-3.18917 -6.968937,-3.75614 -0.472469,-0.56696 -1.157552,-0.85044 -1.063059,-1.98437 z"
       id="path4904"
       inkscape:connector-curvature="0" />
    <path
       style="fill:#d45516;fill-opacity:1;fill-rule:evenodd;stroke:none;stroke-width:0.26458332px;stroke-linecap:butt;stroke-linejoin:miter;stroke-opacity:1"
       d="m 65.153645,147.95405 c 0.944941,-0.54334 5.480656,0.61422 6.11849,0.61422 0.637836,0 2.031621,-1.08669 3.141927,-1.08669 1.110305,0 3.307291,1.70089 3.118305,2.19699 -0.18899,0.49609 -0.165365,0.82682 -1.559153,0.92132 -1.393788,0.0945 -2.740327,-0.25986 -3.28367,-0.25986 -0.54334,0 -1.937128,0.61421 -2.291479,0.56696 -0.354354,-0.0473 -4.795573,-2.66945 -5.24442,-2.95294 z"
       id="path4910"
       inkscape:connector-curvature="0" />
    <path
       style="fill:#f1e6e1;fill-opacity:1;fill-rule:evenodd;stroke:none;stroke-width:0.26458332px;stroke-linecap:butt;stroke-linejoin:miter;stroke-opacity:1"
       d="m 70.587052,150.8125 c 0.732329,-0.21261 1.724517,-0.54334 2.55134,-0.44885 0.826822,0.0945 1.748141,0.28348 2.645833,0.18899 0.897694,-0.0945 1.724517,-0.44885 1.724517,-0.68508 0,-0.23624 0.212611,-0.25986 0.472469,-0.21261 0.259861,0.0472 0.496094,0.44884 0.401601,0.73233 -0.09449,0.28348 -0.33073,0.99218 -0.779577,1.08668 -0.448847,0.0945 -3.897878,0.14174 -5.102677,-0.0472 -1.204799,-0.18899 -2.126118,-0.42523 -1.913506,-0.61421 z"
       id="path4906"
       inkscape:connector-curvature="0" />
    <path
       style="fill:#f1ece9;fill-opacity:1;fill-rule:evenodd;stroke:none;stroke-width:0.26458332px;stroke-linecap:butt;stroke-linejoin:miter;stroke-opacity:1"
       d="m 62.460565,146.63114 c 0.354351,0 1.252045,-0.51972 1.511903,-0.54334 0.259861,-0.0236 0.354354,0.87407 1.039437,0.87407 0.68508,0 0.708705,-0.61422 0.992188,-0.61422 0.283479,0 0.472469,0.85045 1.22842,0.85045 0.755955,0 1.960753,-0.75595 2.173364,-0.75595 0.212612,0 0.708705,0.54334 1.866258,0.49609 1.157552,-0.0473 1.015812,-0.44885 1.346541,-0.44885 0.330729,0 0.661458,0.80321 1.984375,0.80321 1.322916,0 1.582774,-0.23624 1.771764,-0.23624 0.188986,0 0.732327,0.25986 1.606396,0.25986 0.874072,0 1.015812,-0.35435 1.228423,-0.37798 0.212612,-0.0236 0.401601,-0.4016 0.614212,-0.47247 0.212611,-0.0709 0.685083,-1.1103 0.685083,-1.77176 0,-0.66146 -0.307107,-2.29148 -0.519718,-2.29148 -0.212612,0 -0.165365,1.13393 -0.283483,1.13393 -0.118118,0 -0.212611,-0.87407 -0.496094,-0.87407 -0.283482,0 -0.165364,1.18117 -0.354351,1.18117 -0.188989,0 -0.354354,-1.22842 -1.252048,-1.22842 -0.897691,0 -1.133927,1.67727 -1.441034,1.67727 -0.307105,0 -0.614209,-1.77177 -1.795386,-1.79539 -1.181177,-0.0236 -1.559153,1.91351 -1.866257,1.91351 -0.307107,0 0.07087,-1.79539 -1.488281,-1.79539 -1.559153,0 -1.6064,1.70089 -1.842635,1.70089 -0.236236,0 -0.283483,-1.65364 -1.700893,-1.63002 -1.41741,0.0236 -1.299292,1.96075 -1.606399,1.96075 -0.307105,0 -0.637834,-0.92132 -1.157552,-0.92132 -0.519716,0 -0.472469,1.13393 -0.755952,1.13393 -0.283482,0 -0.992187,-1.18117 -1.630024,-1.18117 -0.637833,0 -1.204798,1.88988 0.141743,2.95294 z"
       id="path4908"
       inkscape:connector-curvature="0" />
    <path
       style="fill:#ceaa90;fill-opacity:1;fill-rule:evenodd;stroke:none;stroke-width:0.26458332px;stroke-linecap:butt;stroke-linejoin:miter;stroke-opacity:1"
       d="m 68.224701,155.65532 c 0.732329,0.42522 4.393975,4.06324 6.968937,4.06324 2.574962,0 4.890066,-1.77176 5.669642,-3.33091 0.779576,-1.55916 1.015812,-3.85063 0.779576,-3.85063 -0.236235,0 -1.889881,2.66945 -3.874256,2.64583 -1.984375,-0.0236 -8.66983,-1.27567 -8.409969,-0.82682 0.259858,0.44884 0.921316,0.7087 0.68508,1.01581 -0.236233,0.3071 -2.315104,-0.4961 -1.81901,0.28348 z"
       id="path4912"
       inkscape:connector-curvature="0" />
    <path
       style="fill:none;fill-rule:evenodd;stroke:#000000;stroke-width:0.26458332px;stroke-linecap:butt;stroke-linejoin:miter;stroke-opacity:1"
       d="m 55.892739,130.88175 c 0.501131,-0.7684 0.902036,-1.23612 1.269532,-0.80181 0.367495,0.43432 0.167042,1.80407 -0.701583,1.70384 -0.868627,-0.10022 -0.668176,-0.50112 -0.567949,-0.90203 z"
       id="path4914"
       inkscape:connector-curvature="0" />
    <path
       style="fill:#b79883;fill-opacity:1;fill-rule:evenodd;stroke:none;stroke-width:0.26458332px;stroke-linecap:butt;stroke-linejoin:miter;stroke-opacity:1"
       d="m 69.055762,112.84106 c 0.734992,0 3.975635,-1.5368 3.441097,-2.47225 -0.53454,-0.93544 -3.875408,-3.77518 -7.182869,-3.8754 -3.307461,-0.10023 -17.038433,0.53453 -14.56619,2.3386 2.472245,1.80407 3.006783,0.46773 7.082644,0.10023 4.075859,-0.3675 7.61718,0.33409 8.753075,1.33635 1.135896,1.00226 1.33635,1.57021 2.472243,2.57247 z"
       id="path4916"
       inkscape:connector-curvature="0" />
    <path
       style="fill:#b79883;fill-opacity:1;fill-rule:evenodd;stroke:none;stroke-width:0.26458332px;stroke-linecap:butt;stroke-linejoin:miter;stroke-opacity:1"
       d="m 76.338858,113.30878 c 0,-0.46772 -0.200451,-2.40543 0.06682,-2.87315 0.267268,-0.46772 5.245163,-3.20723 7.550364,-2.97337 2.305198,0.23386 3.474503,1.13589 3.808589,1.57021 0.334087,0.43431 0.601359,2.67269 0.267272,2.77292 -0.334089,0.10022 -0.233863,-0.7684 -3.173828,-0.96885 -2.939963,-0.20046 -7.851042,1.33634 -8.519215,2.47224 z"
       id="path4918"
       inkscape:connector-curvature="0" />
    <path
       style="fill:#ceaa90;fill-opacity:1;fill-rule:evenodd;stroke:none;stroke-width:0.26458332px;stroke-linecap:butt;stroke-linejoin:miter;stroke-opacity:1"
       d="m 84.72444,155.671 c 0,0 0.668173,-4.67722 1.202711,-6.84878 0.534541,-2.17157 2.138156,-8.55263 2.33861,-9.2208 0.200451,-0.66818 0.734991,-0.46772 1.269529,-1.16931 0.53454,-0.70158 1.403165,-3.27405 1.403165,-2.60587 0,0.66817 -1.737252,7.45013 -2.839739,10.99145 -1.102487,3.54133 -2.806329,7.95127 -3.374276,8.85331 z"
       id="path4920"
       inkscape:connector-curvature="0" />
    <path
       style="fill:#ceaa90;fill-opacity:1;fill-rule:evenodd;stroke:none;stroke-width:0.26458332px;stroke-linecap:butt;stroke-linejoin:miter;stroke-opacity:1"
       d="m 60.20246,159.68004 c 0.53454,-0.20045 -2.338607,-3.4745 -2.939965,-7.88445 -0.601356,-4.40995 -0.06682,-8.48581 -1.00226,-8.15172 -0.935443,0.33409 -1.870888,3.74177 -0.467723,8.95353 1.403165,5.21176 3.808593,7.08264 4.409948,7.08264 z"
       id="path4924"
       inkscape:connector-curvature="0" />
    <path
       style="fill:#ceaa90;fill-opacity:1;fill-rule:evenodd;stroke:none;stroke-width:0.26458332px;stroke-linecap:butt;stroke-linejoin:miter;stroke-opacity:1"
       d="m 61.806079,165.02543 c 1.403164,0 5.479023,4.81085 9.68852,4.94449 4.209494,0.13363 9.220798,-2.27179 8.886711,-1.46998 -0.334087,0.80181 -4.677217,3.34087 -8.15172,3.00678 -3.474505,-0.33409 -10.690783,-5.67948 -10.423511,-6.48129 z"
       id="path4926"
       inkscape:connector-curvature="0" />
    <path
       style="fill:#ceaa90;fill-opacity:1;fill-rule:evenodd;stroke:none;stroke-width:0.26458332px;stroke-linecap:butt;stroke-linejoin:miter;stroke-opacity:1"
       d="m 68.287365,183.53385 c 0.601355,-0.60136 3.00678,-4.34313 3.942225,-5.61266 0.935442,-1.26953 1.135893,-2.33861 2.138156,-3.0736 1.00226,-0.73499 2.873148,-2.33861 2.204972,-2.53906 -0.668174,-0.20046 -3.541321,2.00452 -5.679477,1.5368 -2.138156,-0.46773 -10.757599,-4.00905 -10.891232,-5.7463 -0.133636,-1.73725 -2.004523,2.13816 1.202711,4.74404 3.207234,2.60587 5.879931,3.8754 4.409948,4.14267 -1.469982,0.26727 -7.884451,-1.33634 -10.891234,-3.20723 -3.00678,-1.87089 -5.479023,-7.48355 -6.080381,-6.41447 -0.601356,1.06908 0.668173,6.68174 4.944488,9.55488 4.276312,2.87315 15.167544,1.26954 15.367997,2.87315 0.200451,1.60362 -0.400904,2.20498 -0.668173,3.74178 z"
       id="path4928"
       inkscape:connector-curvature="0" />
    <path
       style="fill:#ebd3c3;fill-opacity:1;fill-rule:evenodd;stroke:none;stroke-width:0.26458332px;stroke-linecap:butt;stroke-linejoin:miter;stroke-opacity:1"
       d="m 52.518463,132.68582 c 2.605876,2.07134 8.418988,1.26953 12.160763,-3.34087 3.741772,-4.6104 5.545841,-6.61492 4.476763,-6.74855 -1.069078,-0.13364 -0.668173,-2.6727 -1.202714,-2.80633 -0.534537,-0.13364 -4.744032,2.20497 -5.479023,1.46998 -0.734991,-0.73499 0.935442,-1.60362 -2.33861,-1.06908 -3.274052,0.53454 -7.884451,3.54132 -7.951269,4.47676 -0.06681,0.93545 -1.804069,5.14494 0.33409,8.01809 z"
       id="path4930"
       inkscape:connector-curvature="0" />
    <path
       style="fill:#ebd3c3;fill-opacity:1;fill-rule:evenodd;stroke:none;stroke-width:0.26458332px;stroke-linecap:butt;stroke-linejoin:miter;stroke-opacity:1"
       d="m 66.550111,114.11059 c -0.46772,-0.40091 -1.737252,-1.60362 -4.343128,-1.26953 -2.605878,0.33408 -3.541323,1.46998 -5.011306,1.46998 -1.46998,0 -5.34539,-0.66817 -5.34539,-0.20045 0,0.46772 3.207234,1.46998 4.944488,1.20271 1.737251,-0.26727 3.875408,-1.60362 6.280833,-1.40316 2.405424,0.20045 3.608138,0.86862 3.474503,0.20045 z"
       id="path4932"
       inkscape:connector-curvature="0" />
    <path
       style="fill:#ebd3c3;fill-opacity:1;fill-rule:evenodd;stroke:none;stroke-width:0.26458332px;stroke-linecap:butt;stroke-linejoin:miter;stroke-opacity:1"
       d="m 73.69957,111.30426 c 1.202714,0 1.870887,0.20045 1.870887,-0.33409 0,-0.53454 -1.00226,-2.87315 0,-3.60814 1.002261,-0.73499 10.089425,0.40091 9.421252,-0.46772 -0.668174,-0.86863 -3.140416,-8.552623 -8.68626,-12.22758 -5.545841,-3.674956 -7.283093,-3.741774 -12.762119,-3.407688 -5.479026,0.334087 -11.358957,2.204974 -11.358957,5.545844 0,3.340874 2.873148,6.949004 2.071341,7.683994 -0.801809,0.73499 -3.741774,-0.20045 -3.741774,0.66818 0,0.86862 0.734991,2.27179 1.469982,2.00452 0.734992,-0.26727 12.895755,-1.40316 14.499373,-0.93544 1.603616,0.46772 7.483547,2.47224 7.216275,5.07812 z"
       id="path4934"
       inkscape:connector-curvature="0" />
    <path
       style="fill:#ebd3c3;fill-opacity:1;fill-rule:evenodd;stroke:none;stroke-width:0.26458332px;stroke-linecap:butt;stroke-linejoin:miter;stroke-opacity:1"
       d="m 71.628232,127.87497 c -0.133633,-1.1359 0.400905,-2.13816 1.870887,-1.9377 1.469983,0.20045 3.140416,1.80406 3.674957,1.53679 0.534538,-0.26727 -0.935445,-4.6104 -2.138156,-4.87766 -1.202714,-0.26727 -4.409948,-0.86863 -4.142679,-1.67044 0.267271,-0.80181 5.211757,1.00226 4.944488,0 -0.267272,-1.00226 -0.935445,-3.4745 -1.804069,-3.4745 -0.868628,0 -2.405428,-0.40091 -1.670437,-0.53454 0.734992,-0.13364 2.405425,0.0668 2.071338,-0.53454 -0.334086,-0.60136 -0.734991,-1.33635 0.200454,-1.33635 0.935442,0 1.135896,-0.26727 1.135896,0.40091 0,0.66817 1.403165,1.87088 0.668173,1.80406 -0.734991,-0.0668 -1.670436,-0.0668 -1.336346,0.13364 0.334086,0.20045 1.00226,-0.13364 1.737251,0.73499 0.734991,0.86863 3.274052,3.80859 4.34313,5.87993 1.069078,2.07134 2.071338,3.74177 1.269529,4.07586 -0.801809,0.33409 -4.009043,-0.0668 -5.144939,-0.0668 -1.135893,0 -4.877668,-0.86862 -5.679477,-0.13363 z"
       id="path4936"
       inkscape:connector-curvature="0" />
    <path
       style="fill:#ebd3c3;fill-opacity:1;fill-rule:evenodd;stroke:none;stroke-width:0.26458332px;stroke-linecap:butt;stroke-linejoin:miter;stroke-opacity:1"
       d="m 80.514943,121.52732 c 0.668176,-0.46773 3.34087,0.13363 4.677217,0 1.336349,-0.13364 3.608139,1.13589 3.274052,1.20271 -0.334087,0.0668 -1.870885,-0.66818 -1.870885,-0.20045 0,0.46772 3.407685,3.00678 3.407685,4.74403 0,1.73725 -7.015823,-0.33408 -7.550364,-1.73725 -0.534538,-1.40316 -0.334087,-2.87315 -1.937705,-4.00904 z"
       id="path4938"
       inkscape:connector-curvature="0" />
    <path
       style="fill:#ebd3c3;fill-opacity:1;fill-rule:evenodd;stroke:none;stroke-width:0.26458332px;stroke-linecap:butt;stroke-linejoin:miter;stroke-opacity:1"
       d="m 60.937451,154.80237 c 1.336347,0 5.011304,7.08264 9.354434,7.48355 4.34313,0.4009 2.939965,-1.20271 5.612659,-1.60362 2.672697,-0.4009 3.407688,0.40091 4.409948,0.40091 1.00226,0 2.338607,-10.42351 3.073598,-10.42351 0.734992,0 0.200454,13.29665 -0.801806,14.03165 -1.002263,0.73499 -5.612662,3.00678 -9.554887,2.20497 -3.942226,-0.80181 -13.029388,-8.75308 -12.093946,-12.09395 z"
       id="path4940"
       inkscape:connector-curvature="0" />
    <path
       style="fill:#827058;fill-opacity:1;fill-rule:evenodd;stroke:none;stroke-width:0.26458332px;stroke-linecap:butt;stroke-linejoin:miter;stroke-opacity:1"
       d="m 75.637275,231.44191 c 0,0 -1.175967,-21.47614 -1.175967,-26.29534 0,-4.81919 0.755952,-20.5052 0.09449,-20.5052 -0.661458,0 -8.882438,12.47321 -10.205354,12.47321 -1.322917,0 -31.674025,-23.15613 -31.674025,-23.15613 0,0 19.662863,90.29889 45.984663,90.08391 z"
       id="path4963"
       inkscape:connector-curvature="0"
       sodipodi:nodetypes="csssccc" />
    <path
       style="fill:#fba921;fill-opacity:1;fill-rule:evenodd;stroke:none;stroke-width:0.26458332px;stroke-linecap:butt;stroke-linejoin:miter;stroke-opacity:1"
       d="m 77.107142,264.58333 c 0,0 -3.401785,-42.8058 -3.685268,-45.73512 -0.283482,-2.92931 -1.228423,-6.70908 -1.228423,-6.70908 0,0 -6.047619,-0.56696 -8.031993,-1.70089 -1.984375,-1.13393 -3.307292,-2.26786 -3.307292,-2.26786 0,0 2.078868,-9.63839 1.41741,-10.48883 C 61.610118,196.8311 33.734375,175.85342 33.734375,175.85342 L 0,189.46056 0,264.58333 Z"
       id="path4971"
       inkscape:connector-curvature="0" />
    <path
       style="fill:#ceaa90;fill-rule:evenodd;stroke:none;stroke-width:0.26458332px;stroke-linecap:butt;stroke-linejoin:miter;stroke-opacity:1;fill-opacity:1"
       d="m 30.001003,132.28492 c 0,0 -1.202711,1.46998 -1.202711,2.07133 0,0.60136 0.935442,2.20498 0.935442,2.20498 0,0 -1.870887,-1.40317 -1.870887,-1.87089 0,-0.46772 1.002263,-2.87315 2.138156,-2.40542 z"
       id="path5069"
       inkscape:connector-curvature="0" />
    <path
       style="fill:#ceaa90;fill-rule:evenodd;stroke:none;stroke-width:0.26458332px;stroke-linecap:butt;stroke-linejoin:miter;stroke-opacity:1;fill-opacity:1"
       d="m 25.724692,139.10029 c 0,0 0.73499,1.5368 1.670435,2.33861 0.935443,0.8018 2.80633,1.06907 2.204972,2.27179 -0.601356,1.20271 -2.27179,2.07134 -2.27179,2.07134 l -8.68626,-3.94223 z"
       id="path5071"
       inkscape:connector-curvature="0" />
    <path
       style="fill:#f1f1f1;fill-opacity:1;fill-rule:evenodd;stroke:none;stroke-width:0.26458332px;stroke-linecap:butt;stroke-linejoin:miter;stroke-opacity:1"
       d="m 22.049736,141.10481 c 0,0 4.677215,-1.13589 5.07812,-3.27405 0.400904,-2.13816 0.467722,-4.00904 0.467722,-4.00904 0,0 4.142677,-1.40317 3.741775,-3.40769 -0.400905,-2.00452 -3.073601,-2.20498 -2.739515,-3.14042 0.334087,-0.93544 2.672697,-3.54132 4.276313,-1.67043 1.603618,1.87088 -0.668174,4.87767 -0.668174,4.87767 0,0 4.610399,-3.14042 2.873148,-5.14494 -1.737252,-2.00452 -1.737252,-3.0736 0.334086,-4.94449 2.071339,-1.87089 3.407688,-3.0736 3.34087,-5.14494 -0.06682,-2.07134 -1.00226,-4.07586 1.00226,-4.81085 2.004523,-0.73499 5.679477,-4.47676 4.610399,-6.41447 -1.069078,-1.9377 -3.875407,-1.20271 -3.875407,-1.20271 0,0 0.868627,-3.140416 3.073601,-2.00452 2.204971,1.1359 1.269529,6.34765 1.269529,6.34765 0,0 0.801809,-1.80407 3.407685,-2.33861 2.605879,-0.53454 5.479026,-5.211754 4.944488,-6.81537 -0.53454,-1.603618 -1.202714,-4.009043 3.875408,-6.080382 5.078121,-2.07134 11.960312,-2.53906 15.100728,-1.135895 3.140417,1.403164 6.481286,3.875407 9.020347,7.283092 2.539061,3.407685 2.138156,5.679475 3.875408,8.018085 1.737251,2.33861 2.138156,1.46998 2.739511,3.14042 0.601356,1.67043 -0.334086,3.34087 -0.06682,4.54358 0.267271,1.20271 0.601358,1.5368 0.334086,3.00678 -0.267269,1.46999 -0.868624,0.66818 0.06682,2.27179 0.935445,1.60362 1.269532,2.73952 1.269532,4.14268 0,1.40317 1.469982,3.67496 1.804069,6.5481 0.334087,2.87315 0.534538,5.7463 -2.204974,14.29892 -2.739514,8.55263 -4.610399,12.02713 -4.944485,13.96484 -0.334087,1.9377 -0.534541,6.41446 -0.868628,7.61718 -0.334086,1.20271 -2.405424,1.5368 -2.605878,2.6727 -0.200451,1.13589 -6.1472,5.67947 -6.013564,6.88218 0.133636,1.20272 3.541321,5.7463 5.545844,7.14946 2.00452,1.40317 0.46772,4.94449 1.403165,5.27858 0.935442,0.33408 7.617179,3.34087 10.289876,4.94448 2.672696,1.60362 3.474503,8.88671 6.748555,8.15172 3.274054,-0.73499 4.409944,-3.14041 4.409944,-3.14041 0,0 -4.075857,1.9377 -2.07133,-0.73499 2.00452,-2.6727 7.55036,-2.2718 7.08264,-0.80181 -0.46772,1.46998 -2.40543,2.47224 -0.46772,3.54132 1.9377,1.06908 8.21853,-0.13364 8.88671,-3.67496 0.66817,-3.54132 -4.6104,-6.68174 -3.27405,-7.41673 1.33634,-0.73499 4.34312,1.93771 4.81085,-0.93544 0.46772,-2.87315 -1.73725,-3.40769 -1.40317,-5.47903 0.33409,-2.07133 -0.66817,-3.60813 0.40091,-3.60813 1.06908,0 6.68173,2.27179 7.61718,5.14493 0.93544,2.87315 -4.94449,6.74856 -4.2095,8.15172 0.73499,1.40317 5.01131,0.53454 5.67948,2.20498 0.66818,1.67043 0.20045,2.07134 -0.0668,2.47224 -0.26727,0.40091 -2.20497,-2.07134 -2.20497,-2.07134 0,0 0.46772,4.74404 2.73951,3.60814 2.27179,-1.13589 2.00452,-2.13815 1.73725,-3.54132 -0.26727,-1.40316 -3.4745,-1.80407 -2.93996,-2.93996 0.53454,-1.1359 4.81085,-4.67722 2.67269,-7.08265 -2.13815,-2.40542 -8.75307,-7.41673 -9.28761,-8.41899 -0.53454,-1.00226 2.33861,-5.61266 2.33861,-7.75081 0,-2.13816 -1.5368,-2.40543 -1.5368,-2.40543 0,0 1.46998,3.67496 -0.33409,3.80859 -1.80407,0.13364 -3.4745,-8.28535 -3.4745,-8.28535 0,0 3.60813,-2.33861 1.33635,-6.48129 -2.2718,-4.14268 -6.74856,-7.684 -5.61267,-8.61944 1.1359,-0.93544 1.80407,-6.08038 0.73499,-6.54811 -1.06907,-0.46772 1.1359,-7.55036 1.1359,-7.55036 0,0 -1.33635,2.60588 1.06908,3.27405 2.40542,0.66818 4.94448,-1.26953 6.68174,-0.66817 1.73725,0.60135 2.87315,2.20497 2.87315,2.20497 0,0 -1.06908,-3.80859 -3.87541,-3.27405 -2.80633,0.53454 -5.7463,2.07134 -5.41221,0.20045 0.33408,-1.87088 6.61492,-6.08038 5.41221,-8.68626 -1.20272,-2.60587 -5.14494,-8.21853 -2.60588,-8.0849 2.53906,0.13363 3.34087,4.81085 3.34087,4.81085 0,0 0.73499,-8.55262 -3.54132,-8.75308 -4.27632,-0.20045 -7.684,0.66818 -6.1472,-3.00678 1.5368,-3.67495 7.88445,-2.60588 7.28309,-6.5481 -0.60135,-3.942226 -6.41447,-3.60814 -8.21854,-8.819897 C 108.31099,89.588609 102.76515,81.16962 99.223829,79.833271 95.682508,78.496924 84.791277,73.418802 87.73124,70.211568 c 2.939965,-3.207234 8.151722,0.400905 8.151722,0.400905 0,0 -3.34087,-4.009044 -9.287616,-1.603619 -5.946748,2.405428 -5.144939,-8.151719 -2.071341,-11.292136 3.073601,-3.140416 1.403165,4.744035 1.403165,4.744035 0,0 6.414468,-4.677217 1.737254,-8.819896 -4.677216,-4.142676 -10.156242,-3.073598 -9.68852,-4.276312 0.46772,-1.202711 7.550362,-6.1472 7.483546,-3.407685 -0.06682,2.739511 -1.670436,3.875407 -1.670436,3.875407 0,0 2.271792,-1.069078 2.271792,-3.608138 0,-2.539061 -1.536801,-2.33861 -3.140416,-1.870888 -1.603619,0.467723 -3.875408,-6.34765 -6.949009,-6.88219 -3.073598,-0.534538 -6.748555,0.868627 -8.15172,0.801809 -1.403165,-0.06682 -1.5368,-4.075861 -4.543581,-3.407685 -3.006783,0.668173 -3.87541,8.084902 -8.352173,7.951266 -4.476766,-0.133633 -6.614922,-4.610399 -10.356694,-3.875408 -3.741775,0.734992 -7.082644,-0.200451 -15.902538,10.49033 -8.819894,10.69078 -14.165284,6.614922 -16.169806,4.276312 -2.004521,-2.338607 -6.4144684,-5.946746 -6.2808335,-1.269529 0.1336347,4.677217 4.1426775,6.280832 4.1426775,6.280832 0,0 -5.5458425,-6.147199 -1.2027127,-5.746294 C 13.497111,53.373588 14.098467,63.262559 12.49485,63.128926 10.891233,62.995291 8.2853553,57.783536 4.1426775,59.788056 0,61.792579 4.3431298,65.80162 4.3431298,65.80162 c 0,0 -1.3363477,-6.414468 1.7372518,-4.610399 3.0735997,1.80407 6.7485554,15.501633 5.2785734,18.241145 C 9.8889724,82.17188 0,89.054071 0,89.054071 L 0,192.48738 c 0,0 2.0713388,-5.14494 4.6772168,-3.74178 2.6058778,1.40317 1.2027127,9.55489 3.8085905,10.42351 2.6058777,0.86863 3.5413217,-2.07134 3.5413217,-2.07134 0,0 -2.0713393,2.80633 -2.8731477,1.80407 -0.8018087,-1.00226 -0.7349913,-5.34539 3.0067817,-4.20949 3.741774,1.1359 5.61266,11.82668 4.209495,14.03165 -1.403165,2.20497 -4.543582,5.61266 -2.138156,7.55036 2.405426,1.93771 4.6104,3.94223 3.608139,5.41221 -1.002261,1.46998 -1.870887,3.47451 -1.870887,3.47451 0,0 4.409947,-2.6727 2.672695,-6.21402 -1.737251,-3.54132 5.679478,-2.33861 5.278573,-6.94901 -0.400904,-4.6104 -3.80859,-4.94449 -2.53906,-7.48354 1.26953,-2.53907 8.552626,-0.40091 7.951268,-4.74404 -0.601356,-4.34313 -3.474503,-7.95127 -3.474503,-7.95127 0,0 3.207234,2.73951 5.612659,2.00452 2.405427,-0.73499 2.939965,-1.87088 2.939965,-1.87088 0,0 -2.00452,0.4009 -0.868627,5.0113 1.135896,4.6104 7.149462,7.55037 6.748558,4.27631 -0.400905,-3.27405 -2.004523,-5.4122 -2.004523,-5.4122 0,0 2.672696,6.01356 1.00226,5.61265 -1.670434,-0.4009 -5.81311,-2.07133 -4.409945,-5.61265 1.403164,-3.54133 3.407685,-6.21402 1.202711,-8.08491 -2.204972,-1.87088 -4.877668,-2.60587 -4.877668,-2.60587 0,0 8.68626,2.47224 7.684,-3.47451 -1.002263,-5.94675 -5.211757,-8.21854 -5.211757,-8.21854 0,0 -3.274052,-4.74403 -2.138156,-8.81989 1.135896,-4.07586 -0.467723,-7.34991 -0.467723,-7.34991 0,0 1.80407,-5.54585 -0.267269,-7.81764 -2.071338,-2.27179 -1.403164,-5.07812 -1.403164,-5.07812 0,0 -8.485808,-1.26953 -7.349912,-3.27405 z"
       id="path4942"
       inkscape:connector-curvature="0" />
    <path
       style="fill:#fba921;fill-opacity:1;fill-rule:evenodd;stroke:none;stroke-width:0.26458332px;stroke-linecap:butt;stroke-linejoin:miter;stroke-opacity:1"
       d="m 81.264881,186.72024 c 0,0 29.576639,14.1741 33.923359,17.85937 4.34673,3.68527 12.37872,30.99405 12.94569,36.75819 0.56696,5.76413 4.34672,23.24553 4.34672,23.24553 l -55.279015,0 c 0,0 -0.661459,-80.22545 4.063246,-77.86309 z"
       id="path4967"
       inkscape:connector-curvature="0" />
    <path
       style="fill:#d67e04;fill-opacity:1;fill-rule:evenodd;stroke:none;stroke-width:0.26458332px;stroke-linecap:butt;stroke-linejoin:miter;stroke-opacity:1"
       d="m 74.083332,175.38095 c 0,0 -0.755951,30.99405 -0.188989,37.23065 0.566965,6.23661 3.118305,51.97173 3.118305,51.97173 0,0 1.984375,-32.03348 3.496278,-39.97098 1.511906,-7.9375 4.724705,-26.55283 4.724705,-26.55283 0,0 -5.575149,-1.32291 -5.291667,-1.98437 0.283483,-0.66146 1.889879,-11.52828 1.133927,-12.7567 -0.755951,-1.22842 -6.047618,-7.9375 -6.992559,-7.9375 z"
       id="path4965"
       inkscape:connector-curvature="0" />
    <path
       style="fill:#be7803;fill-opacity:1;fill-rule:evenodd;stroke:none;stroke-width:0.26458332px;stroke-linecap:butt;stroke-linejoin:miter;stroke-opacity:1"
       d="m 117.07812,264.58333 c 0,0 0.75596,-22.11161 0.18899,-26.45833 -0.56696,-4.34673 -5.76414,-31.93899 -4.91369,-31.93899 0.85045,0 7.27604,31.37202 7.27604,37.51414 0,6.14211 4.15774,-12.00075 4.34673,-10.67783 0.18899,1.32292 -4.53572,31.56101 -4.53572,31.56101 z"
       id="path4969"
       inkscape:connector-curvature="0" />
    <path
       style="fill:#be7803;fill-opacity:1;fill-rule:evenodd;stroke:none;stroke-width:0.26458332px;stroke-linecap:butt;stroke-linejoin:miter;stroke-opacity:1"
       d="m 18.520833,264.58333 c 0,0 -5.197172,-12.37872 -7.9375,-19.56027 -2.7403272,-7.18155 -5.9531247,-14.1741 -5.9531247,-14.1741 0,0 4.7247023,10.67782 5.7641367,10.77232 1.039435,0.0945 -8.40997,-25.4189 -6.6145832,-24.66295 1.7953871,0.75595 8.1264882,22.96205 9.5438992,28.82068 1.41741,5.85864 6.520089,18.80432 6.520089,18.80432 z"
       id="path4973"
       inkscape:connector-curvature="0" />
    <path
       style="fill:#ceaa90;fill-opacity:1;fill-rule:evenodd;stroke:none;stroke-width:0.26458332px;stroke-linecap:butt;stroke-linejoin:miter;stroke-opacity:1"
       d="m 32.789434,146.18229 c 0.472471,0 0.850447,4.7247 1.511906,5.85863 0.661458,1.13393 3.307292,4.34673 3.02381,4.63021 -0.283483,0.28349 -3.779765,-3.11831 -4.063245,-3.96875 -0.283482,-0.85045 -0.850447,-6.61458 -0.472471,-6.52009 z"
       id="path5067"
       inkscape:connector-curvature="0"
       sodipodi:nodetypes="cscsc" />
  </g>
  <g
     inkscape:groupmode="layer"
     id="layer4"
     inkscape:label="Igudesman">
    <path
       style="fill:#ededed;fill-opacity:1;fill-rule:evenodd;stroke:none;stroke-width:0.26458332px;stroke-linecap:butt;stroke-linejoin:miter;stroke-opacity:1"
       d="m 172.38884,94.39946 -11.09168,23.72017 0.66817,8.01809 2.93997,4.54358 -1.20272,8.41899 3.20724,15.90254 c 0,0 0.39189,3.46369 -0.45856,4.45587 -0.85044,0.99219 -2.12611,0.99219 -2.12611,0.99219 0,0 3.30729,0.33073 3.2128,1.84264 -0.0945,1.5119 -4.8192,4.53571 -4.63021,4.11049 0.18898,-0.42523 3.02381,-2.78758 2.55133,-3.07106 -0.47246,-0.28348 -6.14211,-0.42523 -6.14211,-0.42523 0,0 2.78758,0.8977 3.16555,3.92151 0.37798,3.02381 -2.36235,9.63839 -6.04762,8.97693 -3.68526,-0.66145 -4.15773,-2.88206 -3.9215,-5.24442 0.23624,-2.36235 4.15774,-4.39397 4.15774,-4.39397 0,0 -3.87426,5.85863 -0.89769,6.18936 2.97656,0.33073 5.76413,-3.26004 3.9215,-5.6224 -1.84264,-2.36235 -4.67746,-0.28348 -6.37835,1.03944 -1.70089,1.32292 -8.17373,1.08668 -7.84301,-3.59078 0.33073,-4.67745 5.19718,-11.33928 4.8192,-13.65438 -0.37798,-2.31511 -3.54353,-6.99256 -4.91369,-7.08706 -1.37016,-0.0945 -5.57515,0.37798 -5.57515,-1.08668 0,-1.46466 6.04762,-4.016 6.04762,-4.016 0,0 -4.86644,-0.7087 -4.44122,-4.44122 0.42522,-3.73251 8.12649,-6.75632 8.12649,-6.75632 0,0 1.08668,-3.54353 -0.47247,-4.67746 -1.55915,-1.13392 -1.79539,-1.46465 -0.99219,-2.69308 0.8032,-1.22842 1.55915,-3.59077 0.66146,-4.53571 -0.89769,-0.94494 -0.51972,-5.43341 1.98437,-5.43341 2.5041,0 5.66965,-1.88988 5.71689,-3.40178 0.0472,-1.51191 -0.61421,-6.756329 -0.0945,-8.551715 0.51972,-1.795388 -0.56696,-6.425596 -1.6064,-6.803572 -1.03943,-0.377976 0.14174,2.929316 0.14174,2.929316 0,0 -4.63021,-3.685268 -3.35454,-6.992559 1.27567,-3.307292 3.87426,-3.449034 3.87426,-3.449034 0,0 0.0945,-2.220609 -3.02381,-0.661459 -3.1183,1.559153 -1.22842,4.960938 -1.22842,4.960938 0,0 -4.86645,-5.716889 0.7087,-6.425594 5.57515,-0.708705 6.4256,1.653645 8.07924,-1.039435 1.65365,-2.693079 14.45759,-11.717263 15.02456,-13.654388 0.56696,-1.937129 3.26004,-2.645834 4.67745,-4.016 1.41741,-1.370163 4.15774,-1.08668 3.87426,-3.212795 -0.28348,-2.126118 -2.50409,-2.55134 -2.50409,-2.55134 0,0 4.20498,-1.322917 4.39397,2.36235 0.18899,3.685268 -11.87258,32.565386 -11.87258,32.565386 z"
       id="path5028"
       inkscape:connector-curvature="0"
       sodipodi:nodetypes="ccccccscscccssscssssssscscsssscsscscscssssscscc" />
    <path
       style="fill:#e5e5e5;fill-rule:evenodd;stroke:none;stroke-width:0.26458332px;stroke-linecap:butt;stroke-linejoin:miter;stroke-opacity:1;fill-opacity:1"
       d="m 152.4189,264.58333 14.36309,0 19.93825,-53.38914 -5.76414,-14.55208 -21.26116,20.03274 z"
       id="path5038"
       inkscape:connector-curvature="0" />
    <path
       style="fill:#ebcbb5;fill-opacity:1;fill-rule:evenodd;stroke:none;stroke-width:0.26458332px;stroke-linecap:butt;stroke-linejoin:miter;stroke-opacity:1"
       d="m 186.95503,175.24849 c 0,0 -11.1585,-0.60135 -13.49711,-4.94448 -2.33861,-4.34313 -1.9377,-5.87994 -2.67269,-7.61719 -0.73499,-1.73725 -4.74404,-7.14946 -5.27858,-9.22079 -0.53454,-2.07134 -4.20949,-7.01583 -4.20949,-11.49259 0,-4.47677 2.87315,-8.8199 2.87315,-9.68852 0,-0.86863 -0.0668,-1.80407 -0.40091,-3.00679 -0.33409,-1.20271 -3.94223,-6.1472 -4.00904,-7.08264 -0.0668,-0.93544 1.26953,-3.20723 1.5368,-4.54358 0.26727,-1.33635 0.33408,-10.49033 1.9377,-14.36574 1.60362,-3.875405 4.14268,-9.822154 8.35217,-11.759856 4.2095,-1.937705 49.11078,3.274049 49.11078,3.274049 0,0 9.82215,50.647577 9.82215,54.656617 0,4.00905 0.13364,8.8199 1.93771,13.09621 1.80407,4.27631 8.55262,20.31248 8.55262,20.31248 l -54.12207,27.86285 -4.2095,-12.62849 c 0,0 2.73591,-4.74403 2.6691,-5.54584 -0.0668,-0.80181 2.87674,-2.93996 2.87674,-5.0113 0,-2.07134 0.26727,-3.4745 0.20046,-5.14494 -0.0668,-1.67043 -1.93771,-5.27857 -1.46999,-7.14946 z"
       id="path4978"
       inkscape:connector-curvature="0"
       sodipodi:nodetypes="csssssccssscssccccssc" />
    <path
       style="fill:#e3b799;fill-rule:evenodd;stroke:none;stroke-width:0.26458332px;stroke-linecap:butt;stroke-linejoin:miter;stroke-opacity:1;fill-opacity:1"
       d="m 174.32655,163.58886 c 1.00226,-1.06908 1.23612,-1.67044 3.94222,-1.67044 2.70611,0 7.18287,0.66818 6.68174,-0.10022 -0.50113,-0.7684 -5.47902,-2.03793 -5.51243,-2.93997 -0.0334,-0.90203 0.63476,-2.40542 -0.13364,-2.27179 -0.7684,0.13364 -4.04245,2.13816 -5.44561,1.60362 -1.40317,-0.53454 -1.1359,-2.60588 -1.36976,-3.50791 -0.23386,-0.90204 -0.63477,-2.70611 -1.00226,-2.70611 -0.3675,0 -1.30294,-0.13363 -1.30294,-0.13363 l -1.83748,-3.20724 c 0,0 -3.77518,1.40317 -3.40768,2.73952 0.36749,1.33634 1.26953,4.47676 2.53906,6.08038 1.26952,1.60361 2.90655,4.17608 3.34087,5.21175 0.43431,1.03567 0.53453,3.40769 0.90203,3.27406 0.36749,-0.13364 -0.0334,-3.0736 0.80181,-3.0736 0.83522,0 1.1693,0.70158 1.80407,0.70158 z"
       id="path5018"
       inkscape:connector-curvature="0" />
    <path
       style="fill:#e3b799;fill-rule:evenodd;stroke:none;stroke-width:0.26458332px;stroke-linecap:butt;stroke-linejoin:miter;stroke-opacity:1;fill-opacity:1"
       d="m 161.66465,140.13596 c 0,0 -0.43431,2.17156 1.50339,2.7061 1.93771,0.53454 3.24065,-0.30068 3.24065,-0.30068 0,0 -1.73725,-0.90203 -1.73725,-2.43883 0,-1.5368 0.0668,-1.70384 0.0668,-1.70384 0,0 -0.30068,2.07133 1.93771,2.83973 2.23838,0.7684 3.27405,0.30068 3.90881,-0.0334 0.63477,-0.33409 3.37428,-2.40543 5.14494,-2.30521 1.77066,0.10023 5.04472,0.46773 4.74404,1.20272 -0.30068,0.73499 -7.55037,3.74177 -6.81538,4.77744 0.735,1.03567 3.00678,1.9377 2.43884,2.50565 -0.56795,0.56795 -6.04697,1.87089 -6.11379,2.47225 -0.0668,0.60135 -1.00226,-1.60362 -0.90204,-2.6727 0.10023,-1.06908 0.0334,-2.67269 -0.26727,-2.47224 -0.30067,0.20045 -0.43431,3.27405 0.13364,4.74403 0.56795,1.46998 1.36975,2.57247 1.36975,2.57247 0,0 -1.36975,0.46772 -1.46998,-0.30068 -0.10023,-0.7684 -0.33408,-3.00678 -0.93544,-2.03793 -0.60136,0.96886 -0.0334,3.60814 -0.63477,4.07586 -0.60135,0.46773 -1.20271,0.73499 -1.90429,-0.73499 -0.70158,-1.46998 -3.70837,-7.08264 -3.87541,-8.61944 -0.16704,-1.5368 -0.23386,-4.54358 0.16704,-4.27631 z"
       id="path5004"
       inkscape:connector-curvature="0" />
    <path
       style="fill:#efd2bf;fill-rule:evenodd;stroke:none;stroke-width:0.26458332px;stroke-linecap:butt;stroke-linejoin:miter;stroke-opacity:1;fill-opacity:1"
       d="m 161.8317,116.91692 c 1.13589,0 5.74629,-9.15398 6.81537,-9.08717 1.06908,0.0668 0.33409,2.00453 0.60136,3.67496 0.26727,1.67043 2.40542,3.67496 1.80407,3.80859 -0.60136,0.13364 -4.2095,-0.80181 -5.61266,0.0668 -1.40317,0.86862 -3.27406,2.60588 -3.60814,1.5368 z"
       id="path4984"
       inkscape:connector-curvature="0" />
    <path
       style="fill:#efd2bf;fill-rule:evenodd;stroke:none;stroke-width:0.26458332px;stroke-linecap:butt;stroke-linejoin:miter;stroke-opacity:1;fill-opacity:1"
       d="m 174.66063,113.50923 c -0.0668,-0.4009 -0.8018,-4.47676 1.06908,-4.81085 1.87089,-0.33409 13.8312,3.00678 14.43256,1.9377 0.60135,-1.06908 1.00226,-8.41899 4.00904,-8.95353 3.00678,-0.53453 5.54584,7.34992 7.28309,7.55037 1.73726,0.20045 3.40769,-0.86863 3.40769,-0.13363 0,0.73499 -4.54358,3.20723 -4.07586,5.14493 0.46772,1.93771 3.67496,2.07134 3.20723,4.54359 -0.46772,2.47224 -2.07133,14.09846 -8.41898,15.10072 -6.34766,1.00226 -15.76891,1.67044 -15.368,0.20045 0.4009,-1.46998 17.37252,-4.87766 17.57297,-10.55714 0.20045,-5.67948 -1.93771,-8.75308 -4.94449,-9.95579 -3.00678,-1.20272 -7.01582,-1.9377 -11.29213,-0.73499 -4.27632,1.20271 -6.48129,2.13815 -6.8822,0.66817 z"
       id="path4986"
       inkscape:connector-curvature="0" />
    <path
       style="fill:#b89178;fill-rule:evenodd;stroke:none;stroke-width:0.26458332px;stroke-linecap:butt;stroke-linejoin:miter;stroke-opacity:1;fill-opacity:1"
       d="m 176.33107,119.05507 c -0.40091,-0.73499 -1.33635,-3.60813 -0.0668,-4.47676 1.26953,-0.86863 8.01809,-2.60588 11.49259,-2.07134 3.47451,0.53454 8.48581,1.5368 7.81764,2.07134 -0.66818,0.53454 -6.34766,0.20045 -9.75534,0.66817 -3.40769,0.46772 -8.75308,2.47225 -9.48807,3.80859 z"
       id="path4980"
       inkscape:connector-curvature="0" />
    <path
       style="fill:#efd2bf;fill-rule:evenodd;stroke:none;stroke-width:0.26458332px;stroke-linecap:butt;stroke-linejoin:miter;stroke-opacity:1;fill-opacity:1"
       d="m 171.65385,124.26683 c 1.00226,0 2.87315,-0.66817 2.73952,0.86863 -0.13364,1.5368 -1.20272,6.08038 0.46772,6.68173 1.67043,0.60136 6.28083,-2.00452 6.28083,-0.73499 0,1.26953 -3.87541,2.47224 -3.20723,3.74178 0.66817,1.26953 2.87314,0.66817 2.67269,2.40542 -0.20045,1.73725 -0.93544,1.60362 -2.67269,1.5368 -1.73725,-0.0668 -2.07134,-0.80181 -4.00905,0 -1.9377,0.80181 -2.60588,2.20498 -3.94222,1.5368 -1.33635,-0.66817 -3.14042,-2.20497 -3.0736,-3.74177 0.0668,-1.5368 1.20271,-3.60814 1.40316,-4.40995 0.20046,-0.80181 1.00226,-2.07134 2.00452,-4.07586 1.00226,-2.00452 1.33635,-2.6727 1.33635,-3.80859 z"
       id="path4988"
       inkscape:connector-curvature="0" />
    <path
       style="fill:#dda682;fill-rule:evenodd;stroke:none;stroke-width:0.26458332px;stroke-linecap:butt;stroke-linejoin:miter;stroke-opacity:1;fill-opacity:1"
       d="m 179.70535,122.6298 c 0.46772,0 0.4009,-0.90203 1.00226,-1.43657 0.60135,-0.53454 1.40316,-0.83522 3.77518,-0.50113 2.37202,0.33409 5.54584,1.1693 5.24516,1.36975 -0.30067,0.20046 -4.04245,0.40091 -4.30972,0.70159 -0.26727,0.30068 6.38106,-0.26727 6.18061,-0.50113 -0.20045,-0.23386 -4.77744,-1.77066 -7.01583,-1.9043 -2.23838,-0.13363 -4.14267,0.70158 -4.07585,0.40091 0.0668,-0.30068 0.96885,-1.36976 3.24064,-1.57021 2.27179,-0.20045 4.37654,0.46772 6.01356,1.1693 1.63703,0.70158 3.70837,1.33635 3.4411,1.10249 -0.26727,-0.23386 -3.74177,-2.60588 -8.0515,-2.77292 -4.30972,-0.16705 -5.34539,0.50113 -5.34539,1.1693 0,0.66818 -0.36749,1.80407 -0.86862,1.63703 -0.50113,-0.16705 0,-1.83748 -0.26727,-1.83748 -0.26727,0 -1.36976,4.00904 -1.93771,4.20949 -0.56794,0.20046 0.30068,0.3675 0.90204,0.26728 0.60135,-0.10023 1.73725,1.63702 2.10475,1.36975 0.36749,-0.26727 1.23612,-1.36975 1.10248,-1.63703 -0.13363,-0.26726 -1.26953,-0.56794 -1.13589,-1.23612 z"
       id="path4992"
       inkscape:connector-curvature="0" />
    <path
       style="fill:#e2af8d;fill-rule:evenodd;stroke:none;stroke-width:0.26458332px;stroke-linecap:butt;stroke-linejoin:miter;stroke-opacity:1;fill-opacity:1"
       d="m 179.83898,128.44292 c 0,0 0.23386,-1.67044 0.80181,-1.46999 0.56795,0.20046 1.77066,1.23612 3.57473,1.43658 1.80407,0.20045 1.80407,0.0334 2.43883,0.0334 0.63477,0 2.20498,0.30067 2.20498,0.30067 0,0 -2.80633,-0.43431 -2.77292,-0.63476 0.0334,-0.20045 3.0736,-0.3675 4.20949,-0.3675 1.1359,0 4.14268,0.93545 4.14268,0.93545 0,0 -2.97337,-1.30294 -4.77744,-1.30294 -1.80407,0 -2.80633,0.33409 -2.80633,0.0334 0,-0.30068 2.50565,-0.73499 4.74403,-0.56795 2.23838,0.16704 6.28083,1.23612 6.28083,1.23612 0,0 -2.7061,-1.03567 -4.44335,-1.26953 -1.73725,-0.23386 -4.6104,-0.0334 -4.51018,-0.26727 0.10023,-0.23386 4.71063,-1.10249 4.71063,-1.10249 0,0 -5.11153,0.90204 -5.21175,0.66818 -0.10023,-0.23386 3.37427,-1.26953 3.37427,-1.26953 0,0 -4.17608,1.03567 -4.17608,0.7684 0,-0.26727 2.50565,-1.67044 2.10474,-1.73726 -0.4009,-0.0668 -3.34087,1.9043 -5.21175,1.80407 -1.87089,-0.10022 -3.50792,0.13364 -3.4411,-0.16704 0.0668,-0.30068 3.40769,-1.80407 3.00679,-1.87089 -0.40091,-0.0668 -3.24065,0.3675 -3.54132,0.70159 -0.30069,0.33408 -0.90204,-1.33635 -1.53681,-0.90204 -0.63476,0.43431 -2.43883,2.33861 -1.9377,2.43884 0.50113,0.10022 2.73951,0.90203 2.77292,2.57247 z"
       id="path4990"
       inkscape:connector-curvature="0" />
    <path
       style="fill:#e2b597;fill-rule:evenodd;stroke:none;stroke-width:0.26458332px;stroke-linecap:butt;stroke-linejoin:miter;stroke-opacity:1;fill-opacity:1"
       d="m 170.75182,125.87045 c 0,0 0.86862,-1.80407 0.4009,-2.93997 -0.46772,-1.13589 -1.63702,-1.40316 -1.63702,-2.3052 0,-0.90203 0.33408,-1.87088 0.33408,-1.87088 0,0 -3.77518,1.30293 -5.7797,2.17156 -2.00452,0.86863 -4.07586,2.03793 -4.07586,2.03793 0,0 3.14042,5.67948 3.64155,5.98016 0.50113,0.30067 3.842,0.66817 4.94448,-0.26727 1.10249,-0.93545 1.73725,-2.03793 2.17157,-2.80633 z"
       id="path4998"
       inkscape:connector-curvature="0" />
    <path
       style="fill:#b89178;fill-rule:evenodd;stroke:none;stroke-width:0.26458332px;stroke-linecap:butt;stroke-linejoin:miter;stroke-opacity:1;fill-opacity:1"
       d="m 168.91434,120.99278 c 0,0 -3.00678,-3.67496 -4.07586,-3.54132 -1.06908,0.13363 -3.94223,1.60361 -4.67722,3.14041 -0.73499,1.5368 -0.13363,2.40543 -0.13363,2.40543 0,0 1.60361,-1.40317 3.67495,-1.73725 2.07134,-0.33409 5.21176,-0.26727 5.21176,-0.26727 z"
       id="path4982"
       inkscape:connector-curvature="0" />
    <path
       style="fill:#ece5e1;fill-rule:evenodd;stroke:none;stroke-width:0.26458332px;stroke-linecap:butt;stroke-linejoin:miter;stroke-opacity:1;fill-opacity:1"
       d="m 181.30896,123.93274 c 0,0 6.54811,-1.60361 6.34766,-1.83748 -0.20046,-0.23386 -4.51018,-1.20271 -5.77971,-1.00226 -1.26953,0.20046 -1.1693,1.9043 -0.56795,2.83974 z"
       id="path4994"
       inkscape:connector-curvature="0" />
    <path
       style="fill:#e2af8d;fill-rule:evenodd;stroke:none;stroke-width:0.26458332px;stroke-linecap:butt;stroke-linejoin:miter;stroke-opacity:1;fill-opacity:1"
       d="m 164.47098,132.71923 c 0,0 3.17383,-0.90204 3.10701,-0.46772 -0.0668,0.43431 -2.00452,1.03567 -2.00452,1.03567 0,0 1.9043,-0.20046 2.33861,-1.26953 0.43431,-1.06908 1.9377,-3.90882 1.5368,-3.8086 -0.4009,0.10023 -0.63477,1.40317 -1.40317,1.83748 -0.7684,0.43432 -3.107,0.56795 -3.107,0.56795 0,0 0.60135,1.20271 -0.46773,2.10475 z"
       id="path4996"
       inkscape:connector-curvature="0" />
    <path
       style="fill:#d7976c;fill-rule:evenodd;stroke:none;stroke-width:0.26458332px;stroke-linecap:butt;stroke-linejoin:miter;stroke-opacity:1;fill-opacity:1"
       d="m 170.685,125.40272 c 0,0 -2.63929,-1.5368 -3.842,-1.46998 -1.20271,0.0668 -4.17609,1.10249 -3.80859,1.30294 0.36749,0.20045 3.00678,-0.70158 4.54358,-0.43431 1.5368,0.26727 3.04019,1.00226 3.00678,1.20271 -0.0334,0.20045 -1.73725,-0.63476 -3.17382,-0.63476 -1.43658,0 -2.3052,0 -3.24064,0.50113 -0.93545,0.50113 -1.80407,0.86862 -1.87089,0.63476 -0.0668,-0.23386 -1.06908,-1.77066 0.30068,-2.43883 1.36975,-0.66818 2.73951,-1.20272 4.71062,-0.73499 1.97112,0.46772 4.00904,-0.10023 3.94223,0.60135 -0.0668,0.70158 -0.20045,0.86863 -0.56795,1.46998 z"
       id="path5000"
       inkscape:connector-curvature="0" />
    <path
       style="fill:#ece5e1;fill-rule:evenodd;stroke:none;stroke-width:0.26458332px;stroke-linecap:butt;stroke-linejoin:miter;stroke-opacity:1;fill-opacity:1"
       d="m 170.38432,126.37158 c 0,0 -0.73499,0.66817 -2.40542,1.33635 -1.67044,0.66817 -2.63929,0.46772 -2.63929,0.46772 0,0 -1.36976,-2.07134 -0.30068,-2.43884 1.06908,-0.36749 1.77066,-0.53454 3.37428,-0.30068 1.60362,0.23386 1.97111,0.93545 1.97111,0.93545 z"
       id="path5002"
       inkscape:connector-curvature="0" />
    <path
       style="fill:#d6a095;fill-rule:evenodd;stroke:none;stroke-width:0.26458332px;stroke-linecap:butt;stroke-linejoin:miter;stroke-opacity:1;fill-opacity:1"
       d="m 170.08364,151.56173 c 0,0 0.66818,-1.1359 1.77066,-1.1359 1.10249,0 1.40317,0.10023 2.07134,-0.0668 0.66818,-0.16705 1.06908,-0.96886 1.83748,-1.06908 0.7684,-0.10023 13.59734,-2.00452 14.19869,-1.5368 0.60136,0.46772 -4.74403,5.91334 -10.32328,8.51922 -5.57925,2.60587 -6.84878,2.07133 -7.11605,1.20271 -0.26727,-0.86863 -0.0668,-2.27179 -0.0668,-2.87315 0,-0.60136 -0.26727,-2.57247 -0.56795,-2.57247 -0.30067,0 -1.57021,0.16704 -1.80407,-0.46772 z"
       id="path5008"
       inkscape:connector-curvature="0" />
    <path
       style="fill:#c47768;fill-rule:evenodd;stroke:none;stroke-width:0.26458332px;stroke-linecap:butt;stroke-linejoin:miter;stroke-opacity:1;fill-opacity:1"
       d="m 172.45566,154.40147 c 0,0 1.70384,0.93544 3.80859,0.23386 2.10475,-0.70158 10.92464,-3.97563 11.65963,-4.54358 0.735,-0.56795 1.63703,-1.67044 1.5034,-1.83748 -0.13364,-0.16704 -10.12284,1.77066 -11.75986,2.27179 -1.63703,0.50113 -1.93771,1.1359 -2.53906,1.1359 -0.60136,0 -2.87315,-0.0334 -3.0736,0.20045 -0.20046,0.23386 0.43431,1.23612 0.4009,2.53906 z"
       id="path5010"
       inkscape:connector-curvature="0" />
    <path
       style="fill:#e8e2e2;fill-rule:evenodd;stroke:none;stroke-width:0.26458332px;stroke-linecap:butt;stroke-linejoin:miter;stroke-opacity:1;fill-opacity:1"
       d="m 187.92388,150.05834 c 0,-0.33409 -0.0668,-1.46998 -0.43431,-1.46998 -0.36749,0 -1.50339,0.10022 -1.67043,0.26727 -0.16705,0.16704 -0.33409,0.70158 -0.50113,0.70158 -0.16705,0 -0.23386,-0.3675 -0.70159,-0.3675 -0.46772,0 -2.50565,0.33409 -2.60587,0.46772 -0.10023,0.13364 0.13363,0.7684 -0.33409,0.7684 -0.46772,0 -0.20045,-0.63476 -1.23612,-0.46772 -1.03567,0.16705 -1.23612,0.0668 -1.33635,0.3675 -0.10023,0.30068 0,0.90203 -0.36749,0.90203 -0.3675,0 -0.3675,-0.83522 -0.96886,-0.66817 -0.60135,0.16704 -1.67043,0.53454 -1.87089,0.83522 -0.20045,0.30068 0.13364,0.83521 -0.26726,0.90203 -0.40091,0.0668 -0.13364,-0.56795 -0.46772,-0.56795 -0.33409,0 -1.43658,-0.10022 -1.60362,0.0668 -0.16705,0.16704 -0.0668,0.73499 -0.23386,0.73499 -0.16705,0 -0.33409,-0.80181 -0.70158,-0.7684 -0.3675,0.0334 -0.66818,-0.0668 -0.70159,0.26727 -0.0334,0.33409 0.4009,2.20498 0.73499,2.3052 0.33409,0.10023 0.63477,-0.66817 0.7684,-0.66817 0.13364,0 -0.0334,0.63476 0.23386,0.73499 0.26727,0.10022 2.13816,0.26727 2.3052,0.13363 0.16705,-0.13363 -0.23386,-0.90203 0,-0.90203 0.23387,0 0.13364,0.66817 0.73499,0.63476 0.60136,-0.0334 1.70385,-0.50113 1.87089,-0.63476 0.16705,-0.13364 0.40091,-0.56795 0.56795,-0.56795 0.16704,0 -0.13364,0.40091 0.36749,0.26727 0.50113,-0.13363 1.97112,-0.43431 2.10475,-0.73499 0.13364,-0.30068 0.13364,-0.73499 0.3675,-0.73499 0.23386,0 -0.10023,0.43431 0.30068,0.4009 0.4009,-0.0334 2.63928,-0.93544 2.83974,-1.00226 0.20045,-0.0668 0.23386,-0.46772 0.36749,-0.53454 0.13363,-0.0668 -0.16704,0.23386 0.26727,0.20045 0.43431,-0.0334 2.17156,-0.86862 2.17156,-0.86862 z"
       id="path5012"
       inkscape:connector-curvature="0" />
    <path
       style="fill:#e3b799;fill-rule:evenodd;stroke:none;stroke-width:0.26458332px;stroke-linecap:butt;stroke-linejoin:miter;stroke-opacity:1;fill-opacity:1"
       d="m 180.70761,135.99328 c 0.26727,-0.50113 5.41221,1.50339 7.85104,3.10701 2.43883,1.60361 5.74629,3.97563 5.61266,6.11379 -0.13363,2.13815 -0.80181,8.0849 -0.43431,9.95579 0.36749,1.87089 1.83748,3.24064 1.00226,3.00678 -0.83522,-0.23386 -2.97338,-3.00678 -3.0736,-5.0113 -0.10023,-2.00453 0.16704,-5.7463 -0.46772,-6.81538 -0.63477,-1.06907 -5.67948,-1.97111 -6.34765,-3.97563 -0.66818,-2.00452 -3.60814,-6.08038 -4.14268,-6.38106 z"
       id="path5016"
       inkscape:connector-curvature="0" />
    <path
       style="fill:#bf9376;fill-rule:evenodd;stroke:none;stroke-width:0.26458332px;stroke-linecap:butt;stroke-linejoin:miter;stroke-opacity:1;fill-opacity:1"
       d="m 181.04169,135.85965 c 0,0 6.28084,5.57925 8.15172,6.949 1.87089,1.36976 3.0402,2.90656 3.0402,3.80859 0,0.90204 -0.0668,2.07134 -0.0668,2.07134 0,0 0.73499,-2.40542 -0.30068,-3.67495 -1.03567,-1.26953 -10.62396,-9.18739 -10.82442,-9.15398 z"
       id="path5014"
       inkscape:connector-curvature="0" />
    <path
       style="fill:#e3b799;fill-rule:evenodd;stroke:none;stroke-width:0.26458332px;stroke-linecap:butt;stroke-linejoin:miter;stroke-opacity:1;fill-opacity:1"
       d="m 173.02361,168.96766 c 0.43431,-0.3675 2.93996,-3.10701 5.27857,-1.60362 2.33861,1.50339 3.40769,2.50565 5.27857,2.50565 1.87089,0 11.09169,-3.34087 11.79327,-4.34313 0.70158,-1.00226 3.17383,-11.59281 4.24291,-11.526 1.06907,0.0668 3.24064,9.02035 4.17608,9.05376 0.93545,0.0334 6.21402,-2.33861 7.01583,-0.20045 0.80181,2.13815 -6.58152,10.85782 -8.88671,11.72645 -2.3052,0.86862 -4.84427,2.3386 -6.1472,2.27179 -1.30294,-0.0668 -2.20498,0.46772 -1.20272,0.73499 1.00227,0.26727 9.08717,-2.23838 11.29214,-3.50791 2.20498,-1.26953 11.42577,-6.84879 12.62849,-7.95127 1.20271,-1.10249 2.47224,-2.80633 2.47224,-2.47225 0,0.33409 -6.31424,7.31651 -15.30118,11.02487 -8.98694,3.70837 -9.95579,8.31877 -12.42803,8.8199 -2.47225,0.50113 -4.6104,-0.80181 -5.01131,-1.80407 -0.4009,-1.00226 -1.60361,-4.77745 -1.43657,-5.54584 0.16704,-0.7684 0.0668,-0.93545 0.0668,-0.93545 0,0 -5.21176,-0.53454 -7.75082,-1.36975 -2.53906,-0.83522 -5.27857,-1.80407 -6.08038,-4.87767 z"
       id="path5020"
       inkscape:connector-curvature="0" />
    <path
       style="fill:#573018;fill-rule:evenodd;stroke:none;stroke-width:0.26458332px;stroke-linecap:butt;stroke-linejoin:miter;stroke-opacity:1;fill-opacity:1"
       d="m 183.22396,123.31473 c 0,0 -0.0472,-0.42522 -0.0472,-1.03943 0,-0.61421 -0.18899,-1.03944 -0.18899,-1.03944 0,0 -0.94494,-0.23623 -1.46466,-0.0945 -0.51971,0.14174 -0.80319,0.7087 -0.75595,1.55915 0.0472,0.85044 0.56696,1.22842 0.56696,1.22842 0,0 1.37017,-0.42522 1.88989,-0.61421 z"
       id="path5022"
       inkscape:connector-curvature="0" />
    <path
       style="fill:#573018;fill-rule:evenodd;stroke:none;stroke-width:0.26458332px;stroke-linecap:butt;stroke-linejoin:miter;stroke-opacity:1;fill-opacity:1"
       d="m 165.60082,128.18117 c 0.42522,0 0.7087,-0.66146 0.66146,-1.41741 -0.0472,-0.75595 -0.75596,-1.32291 -0.99219,-1.18117 -0.23624,0.14174 -0.85045,0.37797 -0.61421,1.41741 0.23623,1.03943 0.66145,1.13393 0.94494,1.18117 z"
       id="path5024"
       inkscape:connector-curvature="0" />
    <path
       style="fill:#e3b799;fill-rule:evenodd;stroke:none;stroke-width:0.26458332px;stroke-linecap:butt;stroke-linejoin:miter;stroke-opacity:1;fill-opacity:1"
       d="m 218.84821,138.52827 c 0,0 0.0473,2.78758 1.13393,3.07106 1.08668,0.28348 8.7407,-3.07106 8.7407,-2.55134 0,0.51972 -6.66183,5.5279 -8.26823,5.14992 -1.6064,-0.37797 -2.22061,-4.48846 -1.6064,-5.66964 z"
       id="path5026"
       inkscape:connector-curvature="0" />
    <path
       style="fill:#ededed;fill-opacity:1;fill-rule:evenodd;stroke:none;stroke-width:0.26458332px;stroke-linecap:butt;stroke-linejoin:miter;stroke-opacity:1"
       d="m 170.18378,91.989954 c 0,0 1.03943,-1.559153 3.07105,-0.14174 2.03163,1.41741 4.20499,5.5279 4.20499,5.5279 0,0 1.32292,-4.204983 5.38616,-3.212796 4.06324,0.992188 -2.88207,3.118302 -2.88207,3.118302 0,0 4.8192,-0.14174 7.08706,-1.039434 2.26785,-0.897694 5.66964,2.83482 5.66964,2.83482 0,0 -4.86645,-3.590771 -2.55134,-4.25223 2.3151,-0.661458 9.82738,1.842633 10.2526,3.732514 0.42522,1.88988 -1.37016,4.25223 -2.45684,3.2128 -1.08669,-1.03944 1.98437,3.21279 2.83482,0.56696 0.85045,-2.645832 0.37797,-2.787572 3.2128,-0.47247 2.83482,2.31511 4.15774,-0.42522 4.7247,4.67746 0.56696,5.10267 2.92931,5.85863 2.92931,5.85863 0,0 -3.59077,0.28348 -2.45684,4.15774 1.13393,3.87425 4.44122,4.67745 4.44122,4.67745 0,0 -4.91369,-2.07887 -2.26786,-7.1343 2.64583,-5.05543 4.48847,8.17374 3.68527,9.5439 -0.8032,1.37016 0.18899,8.50446 0.18899,8.50446 0,0 4.44122,-6.2366 5.62239,-2.74032 1.18118,3.49628 1.98438,8.50446 4.91369,10.2526 2.92932,1.74814 3.54353,2.88207 3.54353,2.88207 l 1.46466,13.93787 c 0,0 4.34672,-1.41741 5.5279,2.50409 1.18118,3.9215 -2.45685,6.23661 -2.45685,6.23661 0,0 6.04763,-0.28348 4.58297,-4.06324 -1.46466,-3.77977 -4.29948,-4.96094 -3.26005,-5.66965 1.03944,-0.7087 2.92932,-4.29948 6.23661,-4.39397 3.30729,-0.0945 8.12649,0.33073 7.55952,3.9215 -0.56696,3.59078 -5.62239,2.74033 -5.62239,2.74033 0,0 8.6462,1.32292 6.75632,-3.63802 -1.88988,-4.96094 7.74851,-10.29985 6.18936,-14.45759 -1.55915,-4.15774 -3.82701,-7.70126 -3.82701,-7.70126 0,0 4.20499,0.42522 5.5279,-2.07887 1.32292,-2.5041 1.37017,-2.78758 1.37017,-2.78758 l 5.19716,-7.70126 0,-47.483262 c 0,0 -0.14173,2.598587 -2.17335,2.267858 -2.03163,-0.330729 -3.40179,-6.378348 -2.69308,-6.945313 0.7087,-0.566965 4.39397,0.04725 3.68527,-1.889881 -0.70871,-1.937126 -2.83483,-3.496279 -2.83483,-3.496279 0,0 4.67746,5.24442 -0.7087,3.921504 -5.38616,-1.322917 1.03943,-8.929688 -0.8032,-11.433781 -1.84263,-2.504091 -3.02381,-2.315104 -3.02381,-2.315104 0,0 2.74033,1.086681 2.64583,3.165551 -0.0945,2.078869 -1.93713,3.496279 -1.93713,3.496279 0,0 -8.55171,-6.945313 -8.83519,-5.858629 -0.28348,1.08668 9.16592,7.417781 7.1343,8.976934 -2.03162,1.55915 -4.63021,-1.086684 -7.0398,2.078868 -2.4096,3.165552 4.01599,7.9375 3.59077,10.725073 -0.42522,2.787576 -5.6224,2.4096 -6.89807,0.472472 -1.27567,-1.937128 -5.24442,-8.929688 -2.50409,-10.347097 2.74033,-1.417413 7.60677,-2.74033 6.75633,-4.677458 -0.85045,-1.937126 -2.4096,-2.362351 -2.4096,-2.362351 0,0 2.03162,1.653646 1.41741,2.504094 -0.61421,0.850444 -7.37054,5.05543 -11.00856,3.77976 -3.63802,-1.27567 -8.17373,-2.740326 -8.17373,-2.740326 0,0 0.61421,-3.496281 -0.8977,-5.149927 -1.5119,-1.653646 -2.36235,-1.700892 -2.36235,-1.700892 0,0 4.53572,-1.464657 3.59078,-2.598587 -0.94494,-1.133927 -4.1105,-0.28348 -3.40179,-1.795386 0.70871,-1.511906 6.61458,0.283483 6.61458,0.283483 0,0 -1.79538,-1.700893 -5.10268,-1.700893 -3.30729,0 -5.81138,-3.590774 -5.81138,-3.590774 0,0 4.016,5.149924 2.45685,5.008184 -1.55916,-0.14174 -2.12612,-4.346726 -5.43341,-4.252232 -3.30729,0.09449 -4.77195,0.992187 -5.19717,-0.519716 -0.42523,-1.511906 3.44903,7.228792 2.45684,8.646205 -0.99219,1.41741 -1.84263,-3.023809 -3.26004,-3.071059 -1.41741,-0.04725 -4.44122,2.834823 -6.56734,2.173365 -2.12612,-0.661459 -1.79539,-5.102678 -1.79539,-5.102678 0,0 0.47248,5.480653 -0.61421,5.38616 -1.08668,-0.09449 -0.99219,-2.456847 -0.99219,-2.456847 0,0 -2.50409,-2.787573 -3.96875,-0.236233 -1.46465,2.551338 -6.70907,5.197171 -7.79575,4.063243 -1.08669,-1.133927 -0.8032,-4.299479 -0.8032,-4.299479 0,0 -1.7009,5.575149 1.6064,6.472844 3.30729,0.897691 -7.70127,5.338913 -7.70127,5.338913 z"
       id="path5030"
       inkscape:connector-curvature="0"
       sodipodi:nodetypes="cscscscsssssscscsscssccscsssscsscscccssscsscscssssssscsscscsscscsssssscscsscscc" />
    <path
       style="fill:#2d190d;fill-rule:evenodd;stroke:none;stroke-width:0.26458332px;stroke-linecap:butt;stroke-linejoin:miter;stroke-opacity:1;fill-opacity:1"
       d="m 169.95001,142.57479 c 0.30068,0.30068 1.90429,0.20045 3.70836,-0.70158 1.80407,-0.90203 3.30747,-1.43657 2.90656,-1.83748 -0.4009,-0.4009 -1.9377,-0.53454 -3.40769,0.30068 -1.46998,0.83522 -3.20723,2.00452 -3.20723,2.23838 z"
       id="path5006"
       inkscape:connector-curvature="0" />
    <path
       style="fill:#e5e5e5;fill-rule:evenodd;stroke:none;stroke-width:0.26458332px;stroke-linecap:butt;stroke-linejoin:miter;stroke-opacity:1;fill-opacity:1"
       d="m 190.4055,213.84003 17.5759,-18.99331 32.88392,-17.85937 0,44.22321 -53.67261,43.37277 -14.17411,0 z"
       id="path5036"
       inkscape:connector-curvature="0" />
    <path
       style="fill:#f0f0f0;fill-rule:evenodd;stroke:none;stroke-width:0.26458332px;stroke-linecap:butt;stroke-linejoin:miter;stroke-opacity:1;fill-opacity:1"
       d="m 165.36458,264.58333 c 0,0 9.16592,-31.56101 11.1503,-36.09673 1.98437,-4.53571 5.95312,-12.75669 8.50446,-16.06398 2.55134,-3.3073 4.25223,-8.97694 5.48066,-9.26042 1.22842,-0.28348 2.64583,-0.28348 2.64583,-0.28348 0,0 0.47247,-6.61459 1.88988,-9.07143 1.41741,-2.45684 19.18229,-15.11905 23.34003,-18.52083 4.15774,-3.40179 13.51265,-8.59896 13.98512,-9.5439 0.47247,-0.94494 0.56696,-2.07887 0.56696,-2.07887 0,0 1.7009,2.26786 3.3073,6.14211 1.60639,3.87426 4.34672,11.71726 4.34672,11.71726 0,0 -18.14285,13.79614 -24.56845,16.15849 -6.42559,2.36235 -11.0558,4.15773 -11.0558,4.15773 0,0 -13.98512,20.22173 -21.82813,41.48289 -7.843,21.26116 -6.52009,21.26116 -6.52009,21.26116 z"
       id="path5032"
       inkscape:connector-curvature="0" />
    <path
       style="fill:#fcfcfc;fill-rule:evenodd;stroke:none;stroke-width:0.26458332px;stroke-linecap:butt;stroke-linejoin:miter;stroke-opacity:1;fill-opacity:1"
       d="m 198.53199,190.87797 c 0,0 3.77976,-5.48065 11.43378,-1.88988 7.65402,3.59078 19.56027,7.27604 19.56027,7.27604 l 12.94568,-14.1741 c 0,0 -6.89806,-14.55208 -7.9375,-15.9695 -1.03943,-1.41741 -1.5119,-3.30729 -1.79538,-2.74032 -0.28349,0.56696 0.66146,0.47247 -1.13393,2.64583 -1.79539,2.17336 -32.03348,22.2061 -33.07292,24.85193 z"
       id="path5034"
       inkscape:connector-curvature="0" />
    <path
       style="fill:#b83d98;fill-rule:evenodd;stroke:none;stroke-width:0.26458332px;stroke-linecap:butt;stroke-linejoin:miter;stroke-opacity:1;fill-opacity:1"
       d="m 139.18973,264.58333 c 0,0 2.92932,-32.41146 6.99256,-40.72693 4.06324,-8.31548 12.28423,-23.43453 15.02455,-24.66295 2.74033,-1.22842 12.28423,-4.15774 12.28423,-4.15774 l 6.3311,6.04762 c 0,0 -6.89806,15.21354 -14.17411,31.08854 -7.27604,15.875 -9.82738,20.12723 -10.01636,23.52902 -0.18899,3.40178 -1.03944,8.88244 -1.03944,8.88244 z"
       id="path5046"
       inkscape:connector-curvature="0" />
    <path
       style="fill:#d175b9;fill-rule:evenodd;stroke:none;stroke-width:0.26458332px;stroke-linecap:butt;stroke-linejoin:miter;stroke-opacity:1;fill-opacity:1"
       d="m 154.78125,264.58333 c 0,0 4.53571,-16.81994 7.843,-25.4189 3.3073,-8.59896 21.82813,-46.86905 21.82813,-46.86905 0,0 -8.59896,1.7009 -9.82738,2.64584 -1.22843,0.94494 -6.70908,8.59895 -6.4256,9.4494 0.28349,0.85045 3.96875,3.68527 3.11831,4.06325 -0.85045,0.37797 -6.61459,1.22842 -7.55953,3.21279 -0.94494,1.98438 -11.52827,37.13616 -11.52827,42.42783 0,5.29167 -0.37798,10.48884 -0.37798,10.48884 z"
       id="path5073"
       inkscape:connector-curvature="0" />
    <path
       style="fill:#fcfcfc;fill-rule:evenodd;stroke:none;stroke-width:0.26458332px;stroke-linecap:butt;stroke-linejoin:miter;stroke-opacity:1;fill-opacity:1"
       d="m 184.54687,213.84003 c 0,0 -9.5439,-12.56771 -10.58333,-16.81994 -1.03943,-4.25223 -2.55134,-6.23661 2.64583,-11.81176 5.19718,-5.57515 10.11087,-9.82738 10.11087,-9.82738 0,0 0.28348,3.2128 1.03943,4.7247 0.75595,1.51191 0.94494,2.64584 0.75595,4.53572 -0.18898,1.88988 0.28349,3.1183 -0.28348,6.14211 -0.56696,3.02381 -3.96875,6.14211 -3.1183,10.29985 0.85044,4.15774 2.55134,8.22098 2.55134,8.22098 z"
       id="path5040"
       inkscape:connector-curvature="0" />
    <path
       style="fill:#b83d98;fill-rule:evenodd;stroke:none;stroke-width:0.26458332px;stroke-linecap:butt;stroke-linejoin:miter;stroke-opacity:1;fill-opacity:1"
       d="m 192.67336,264.58333 31.08854,-59.72024 24.00149,-21.35565 c 0,0 6.04762,3.87426 10.29985,6.61458 4.25223,2.74033 6.52008,5.57515 6.52008,5.57515 l 0,68.88616 z"
       id="path5044"
       inkscape:connector-curvature="0" />
    <path
       style="fill:#d175b9;fill-rule:evenodd;stroke:none;stroke-width:0.26458332px;stroke-linecap:butt;stroke-linejoin:miter;stroke-opacity:1;fill-opacity:1"
       d="m 178.97172,264.58333 c 0,0 25.04093,-46.86905 37.98661,-61.42113 12.94568,-14.55208 23.34003,-26.17485 23.05655,-26.83631 -0.28348,-0.66146 -1.03944,-1.13393 -1.03944,-1.13393 0,0 3.68527,-0.85044 4.8192,0.18899 1.13393,1.03943 4.63021,6.89807 4.06325,7.9375 -0.56697,1.03943 -12.28423,20.03274 -12.28423,20.03274 0,0 -10.20536,6.23661 -10.29985,8.22098 -0.0945,1.98438 3.49628,6.52009 3.49628,6.52009 0,0 -12.00075,23.24554 -14.45759,26.08036 -2.45685,2.83482 -9.26042,9.4494 -12.28423,13.22916 -3.02381,3.77977 -4.7247,7.18155 -4.7247,7.18155 z"
       id="path5042"
       inkscape:connector-curvature="0" />
  </g>
</svg>
