<?xml version="1.0" encoding="UTF-8" standalone="no"?>
<svg
   xmlns:dc="http://purl.org/dc/elements/1.1/"
   xmlns:cc="http://creativecommons.org/ns#"
   xmlns:rdf="http://www.w3.org/1999/02/22-rdf-syntax-ns#"
   xmlns:svg="http://www.w3.org/2000/svg"
   xmlns="http://www.w3.org/2000/svg"
   xmlns:sodipodi="http://sodipodi.sourceforge.net/DTD/sodipodi-0.dtd"
   xmlns:inkscape="http://www.inkscape.org/namespaces/inkscape"
   version="1.2"
   id="Layer_1"
   x="0px"
   y="0px"
   viewBox="0 0 1000 999.99999"
   xml:space="preserve"
   inkscape:version="0.91+devel r13925"
   sodipodi:docname="soundslice.svg"
   width="1000"
   height="1000"
   inkscape:export-filename="/Users/agarone/Documents/git/art/soundslice/soundslice.png"
   inkscape:export-xdpi="96"
   inkscape:export-ydpi="96"><metadata
     id="metadata4347"><rdf:RDF><cc:Work
         rdf:about=""><dc:format>image/svg+xml</dc:format><dc:type
           rdf:resource="http://purl.org/dc/dcmitype/StillImage" /><dc:title></dc:title></cc:Work></rdf:RDF></metadata><defs
     id="defs4345" /><sodipodi:namedview
     pagecolor="#ffffff"
     bordercolor="#666666"
     borderopacity="1"
     objecttolerance="10"
     gridtolerance="10"
     guidetolerance="10"
     inkscape:pageopacity="0"
     inkscape:pageshadow="2"
     inkscape:window-width="1926"
     inkscape:window-height="1058"
     id="namedview4343"
     showgrid="false"
     fit-margin-top="0"
     fit-margin-left="0"
     fit-margin-right="0"
     fit-margin-bottom="0"
     inkscape:zoom="0.50694445"
     inkscape:cx="568.75518"
     inkscape:cy="600.90022"
     inkscape:window-x="0"
     inkscape:window-y="0"
     inkscape:window-maximized="0"
     inkscape:current-layer="layer1" /><g
     inkscape:groupmode="layer"
     id="layer1"
     inkscape:label="BG"
     style="display:none"><rect
       style="opacity:1;fill:#ffffff;fill-opacity:1;stroke:none;stroke-width:3;stroke-linecap:round;stroke-miterlimit:4;stroke-dasharray:none;stroke-opacity:1"
       id="rect4380"
       width="1000"
       height="1000"
       x="0"
       y="0"
       inkscape:export-xdpi="96"
       inkscape:export-ydpi="96" /></g><g
     inkscape:groupmode="layer"
     id="layer2"
     inkscape:label="Logo"><g
       id="g4301"
       transform="matrix(34.119213,0,0,34.119213,-322.90423,-181.79022)"><polygon
         points="14.349,13.162 14.349,14.76 23.474,14.76 24.056,13.162 "
         id="polygon4303"
         style="fill:#eb684a" /><polygon
         points="38.773,14.76 38.773,13.162 29.16,13.162 28.578,14.76 "
         id="polygon4305"
         style="fill:#e9a353" /><polygon
         points="33.888,18.785 33.888,17.188 27.695,17.188 27.112,18.785 "
         id="polygon4307"
         style="fill:#e9a353" /><polygon
         points="9.464,17.188 9.464,18.785 22.009,18.785 22.59,17.188 "
         id="polygon4309"
         style="fill:#eb684a" /><polygon
         points="13.904,21.213 13.904,22.812 20.543,22.812 21.125,21.213 "
         id="polygon4311"
         style="fill:#eb684a" /><polygon
         points="38.773,22.812 38.773,21.213 26.229,21.213 25.648,22.812 "
         id="polygon4313"
         style="fill:#e9a353" /><polygon
         points="33.888,26.838 33.888,25.24 24.764,25.24 24.182,26.838 "
         id="polygon4315"
         style="fill:#e9a353" /><polygon
         points="9.464,25.24 9.464,26.838 19.078,26.838 19.66,25.24 "
         id="polygon4317"
         style="fill:#eb684a" /><path
         d="M 31.304,6.101 C 29.853,5.572 28.186,6.49 27.582,8.148 l -1.825,5.014 -0.582,1.598 -0.884,2.427 -0.582,1.598 -0.884,2.428 -0.582,1.599 -0.883,2.429 -0.582,1.598 -1.626,4.468 c -0.296,0.812 -1.062,1.313 -1.673,1.092 -0.349,-0.128 -0.584,-0.468 -0.668,-0.886 0.375,-0.092 0.697,-0.364 0.839,-0.754 0.227,-0.623 -0.094,-1.311 -0.716,-1.538 -0.623,-0.226 -1.311,0.097 -1.537,0.718 -0.604,1.659 0.083,3.434 1.536,3.963 1.451,0.527 3.118,-0.389 3.722,-2.05 l 1.825,-5.013 0.582,-1.598 0.884,-2.429 0.582,-1.599 0.884,-2.428 0.582,-1.598 0.882,-2.427 0.582,-1.598 1.626,-4.467 c 0.295,-0.814 1.062,-1.314 1.673,-1.093 0.348,0.127 0.583,0.467 0.667,0.886 -0.374,0.092 -0.697,0.364 -0.838,0.754 -0.227,0.622 0.093,1.31 0.716,1.537 0.623,0.227 1.311,-0.095 1.537,-0.716 0.605,-1.66 -0.083,-3.434 -1.535,-3.962 z"
         id="path4319"
         inkscape:connector-curvature="0"
         style="fill:#43444e" /></g></g></svg>