<?xml version="1.0" encoding="UTF-8" standalone="no"?>
<!-- Created with Inkscape (http://www.inkscape.org/) -->

<svg
   xmlns:dc="http://purl.org/dc/elements/1.1/"
   xmlns:cc="http://creativecommons.org/ns#"
   xmlns:rdf="http://www.w3.org/1999/02/22-rdf-syntax-ns#"
   xmlns:svg="http://www.w3.org/2000/svg"
   xmlns="http://www.w3.org/2000/svg"
   xmlns:xlink="http://www.w3.org/1999/xlink"
   xmlns:sodipodi="http://sodipodi.sourceforge.net/DTD/sodipodi-0.dtd"
   xmlns:inkscape="http://www.inkscape.org/namespaces/inkscape"
   width="1280"
   height="720"
   viewBox="0 0 338.66666 190.50001"
   id="svg2"
   version="1.1"
   inkscape:version="0.92.1 r15371"
   sodipodi:docname="mike-keneally-gentle-giant-thumbnail.svg"
   inkscape:export-filename="C:\Users\Anthony Garone\Documents\GitHub\art\mike-keneally-gentle-giant\interview\mike-keneally-gentle-giant-thumbnail.png"
   inkscape:export-xdpi="144"
   inkscape:export-ydpi="144">
  <defs
     id="defs4">
    <linearGradient
       id="linearGradient3995">
      <stop
         style="stop-color:#f46200;stop-opacity:1"
         id="stop3997"
         offset="0" />
      <stop
         style="stop-color:#7a3100;stop-opacity:1"
         id="stop3999"
         offset="1" />
    </linearGradient>
    <linearGradient
       id="linearGradient3980">
      <stop
         style="stop-color:#a05a2c;stop-opacity:1"
         id="stop3982"
         offset="0" />
      <stop
         style="stop-color:#63381b;stop-opacity:1"
         id="stop3984"
         offset="1" />
    </linearGradient>
    <linearGradient
       id="linearGradient3970">
      <stop
         style="stop-color:#d45500;stop-opacity:1"
         id="stop3972"
         offset="0" />
      <stop
         style="stop-color:#8b3800;stop-opacity:1"
         id="stop3974"
         offset="1" />
    </linearGradient>
    <linearGradient
       id="linearGradient3942">
      <stop
         style="stop-color:#f9f9f9;stop-opacity:1"
         id="stop3944"
         offset="0" />
      <stop
         style="stop-color:#c1dfee;stop-opacity:1"
         id="stop3946"
         offset="1" />
    </linearGradient>
    <radialGradient
       gradientUnits="userSpaceOnUse"
       gradientTransform="matrix(1.5410787,1.6758684,-1.229354,1.1304774,280.95639,-1321.1191)"
       r="78.27"
       fy="556.44"
       fx="745"
       cy="556.44"
       cx="745"
       id="radialGradient3948"
       xlink:href="#linearGradient3942"
       inkscape:collect="always" />
    <radialGradient
       gradientUnits="userSpaceOnUse"
       gradientTransform="matrix(1,0,0,0.69037484,0,171.73137)"
       r="81.66"
       fy="554.64"
       fx="327.89"
       cy="554.64"
       cx="327.89"
       id="radialGradient3956"
       xlink:href="#linearGradient3942"
       inkscape:collect="always" />
    <linearGradient
       gradientUnits="userSpaceOnUse"
       y2="507.67"
       x2="347.24"
       y1="413.72"
       x1="329.75"
       id="linearGradient3976"
       xlink:href="#linearGradient3970"
       inkscape:collect="always" />
    <linearGradient
       gradientUnits="userSpaceOnUse"
       y2="490.63"
       x2="714.72"
       y1="383.55"
       x1="711.08"
       id="linearGradient3978"
       xlink:href="#linearGradient3970"
       inkscape:collect="always" />
    <linearGradient
       gradientUnits="userSpaceOnUse"
       y2="899.32"
       x2="536.32"
       y1="769.01"
       x1="524.06"
       id="linearGradient3986"
       xlink:href="#linearGradient3980"
       inkscape:collect="always" />
    <radialGradient
       gradientUnits="userSpaceOnUse"
       gradientTransform="matrix(1,0,0,1.0148081,0,-7.4186112)"
       r="493.23"
       fy="500.98"
       fx="501.03"
       cy="500.98"
       cx="501.03"
       id="radialGradient4001"
       xlink:href="#linearGradient3995"
       inkscape:collect="always" />
    <clipPath
       id="clipPath4408"
       clipPathUnits="userSpaceOnUse">
      <path
         style="fill:#00aad4;stroke-width:0.98;stroke:#000"
         d="m696.25 529.15c0 0 26.26-20.91 40.41-24.56 14.14-3.65 33.34-6.81 46.97 0.49 13.64 7.29 6.31 65.9-24.24 72.7-30.56 6.81-69.7-4.86-63.13-48.63z"
         id="path4410"
         inkscape:connector-curvature="0"
         sodipodi:nodetypes="csssc" />
    </clipPath>
    <clipPath
       id="clipPath4415"
       clipPathUnits="userSpaceOnUse">
      <path
         style="fill:#00aad4;stroke-width:0.95;stroke:#000"
         d="m787.83 524.52c0 0 10.35 15.5 2.02 29.86-8.33 14.36-24.75 32.82-61.87 21.65-37.12-11.17-41.16-53.56-26.01-66.55 15.15-12.99 28.28-14.13 85.86 15.04z"
         id="path4417"
         inkscape:connector-curvature="0" />
    </clipPath>
    <linearGradient
       inkscape:collect="always"
       id="linearGradient4885">
      <stop
         style="stop-color:#ffffff;stop-opacity:1;"
         offset="0"
         id="stop4887" />
      <stop
         style="stop-color:#ececec;stop-opacity:1"
         offset="1"
         id="stop4889" />
    </linearGradient>
    <linearGradient
       inkscape:collect="always"
       xlink:href="#linearGradient4885"
       id="linearGradient4893"
       gradientUnits="userSpaceOnUse"
       x1="570.45557"
       y1="496.79459"
       x2="543.24817"
       y2="914.99774" />
  </defs>
  <sodipodi:namedview
     id="base"
     pagecolor="#ffffff"
     bordercolor="#666666"
     borderopacity="1.0"
     inkscape:pageopacity="0.0"
     inkscape:pageshadow="2"
     inkscape:zoom="0.80654368"
     inkscape:cx="736.33929"
     inkscape:cy="453.87678"
     inkscape:document-units="px"
     inkscape:current-layer="g4209"
     showgrid="false"
     units="px"
     inkscape:window-width="1920"
     inkscape:window-height="1017"
     inkscape:window-x="-8"
     inkscape:window-y="-8"
     inkscape:window-maximized="1"
     showguides="true" />
  <metadata
     id="metadata7">
    <rdf:RDF>
      <cc:Work
         rdf:about="">
        <dc:format>image/svg+xml</dc:format>
        <dc:type
           rdf:resource="http://purl.org/dc/dcmitype/StillImage" />
        <dc:title />
      </cc:Work>
    </rdf:RDF>
  </metadata>
  <g
     inkscape:label="Gray BG"
     inkscape:groupmode="layer"
     id="layer1"
     transform="translate(0,-106.49999)">
    <rect
       style="opacity:1;fill:#52585e;fill-opacity:1;stroke:none;stroke-width:16.0535984;stroke-miterlimit:4;stroke-dasharray:none;stroke-opacity:1"
       id="rect4141"
       width="338.66669"
       height="190.5"
       x="1.4210855e-14"
       y="106.49999" />
  </g>
  <g
     inkscape:groupmode="layer"
     id="layer2"
     inkscape:label="Orange Banner">
    <rect
       style="opacity:1;fill:#de3d2d;fill-opacity:1;stroke:none;stroke-width:11.03082752;stroke-miterlimit:4;stroke-dasharray:none;stroke-opacity:1"
       id="rect4144"
       width="338.66669"
       height="43.65625"
       x="0"
       y="146.84375" />
  </g>
  <g
     inkscape:groupmode="layer"
     id="layer5"
     inkscape:label="Artist Image" />
  <g
     inkscape:label="Blue Banner"
     id="g4203"
     inkscape:groupmode="layer">
    <rect
       y="146.84375"
       x="0"
       height="43.65625"
       width="338.66669"
       id="rect4205"
       style="opacity:1;fill:#407d93;fill-opacity:1;stroke:none;stroke-width:11.03082752;stroke-miterlimit:4;stroke-dasharray:none;stroke-opacity:1" />
  </g>
  <g
     inkscape:groupmode="layer"
     id="layer3"
     inkscape:label="Discover"
     style="display:none">
    <text
       xml:space="preserve"
       style="font-style:normal;font-variant:normal;font-weight:normal;font-stretch:normal;line-height:0%;font-family:Museo;-inkscape-font-specification:'Museo, Normal';text-align:start;letter-spacing:0px;word-spacing:0px;writing-mode:lr-tb;text-anchor:start;fill:#ffffff;fill-opacity:1;stroke:none;stroke-width:0.50668812px;stroke-linecap:butt;stroke-linejoin:miter;stroke-opacity:1"
       x="173.85484"
       y="40.767208"
       id="text4147"><tspan
         sodipodi:role="line"
         id="tspan4164"
         x="173.85484"
         y="40.767208"
         style="font-size:20.26743698px;line-height:1.25">DISCOVER:</tspan></text>
  </g>
  <g
     inkscape:label="Interview"
     id="g4209"
     inkscape:groupmode="layer">
    <text
       xml:space="preserve"
       style="font-style:normal;font-variant:normal;font-weight:normal;font-stretch:normal;font-size:10.38168907px;line-height:0%;font-family:Museo;-inkscape-font-specification:'Museo, Normal';text-align:start;letter-spacing:0px;word-spacing:0px;writing-mode:lr-tb;text-anchor:start;fill:#ffffff;fill-opacity:1;stroke:none;stroke-width:0.43835655px;stroke-linecap:butt;stroke-linejoin:miter;stroke-opacity:1"
       x="94.910599"
       y="59.669037"
       id="text4167"><tspan
         y="59.669037"
         x="94.910599"
         sodipodi:role="line"
         id="tspan4169"
         style="font-size:17.53418541px;line-height:1.25;stroke-width:0.43835655px">INTERVIEW:</tspan></text>
    <g
       id="g4858"
       transform="matrix(0.15176515,0,0,0.15176515,37.577406,-4.9213999)">
      <g
         style="display:none"
         inkscape:label="BG"
         id="layer10">
        <rect
           inkscape:label="#bg"
           style="fill:#777777"
           y="0.12"
           x="0.12"
           height="999.76001"
           width="999.76001"
           id="bg">
          <title
             id="title3060">background</title>
        </rect>
      </g>
      <g
         display="inline"
         inkscape:label="Head"
         id="layer33"
         style="display:inline" />
      <g
         display="inline"
         inkscape:label="Hair"
         id="layer7-6"
         style="display:inline" />
      <g
         display="inline"
         inkscape:label="Ears"
         id="layer8-3"
         style="display:inline" />
      <g
         display="inline"
         inkscape:label="Ear detail"
         id="layer9"
         style="display:inline" />
      <g
         display="inline"
         inkscape:label="Forehead"
         id="layer5-3"
         style="display:inline" />
      <g
         display="inline"
         inkscape:label="Wrinkles"
         id="layer6-0"
         style="display:inline" />
      <g
         inkscape:label="Lips"
         id="layer34" />
      <g
         inkscape:label="Cheeks"
         id="layer3-6" />
      <g
         inkscape:label="Nose"
         id="layer35" />
      <g
         inkscape:label="Eye forms"
         id="layer36" />
      <g
         inkscape:label="Eye lids"
         id="layer2-2" />
      <g
         inkscape:label="Iris"
         id="layer37" />
      <g
         inkscape:label="Iris detail"
         id="layer4-0" />
      <g
         inkscape:label="Pupils"
         id="layer38" />
      <g
         inkscape:label="Eyebrows"
         id="layer39" />
      <g
         transform="matrix(0.73006183,0,0,0.73006183,1222.3156,25.949307)"
         id="g1037">
        <path
           d="m 280.07,0 c -39.29,10 -117.86,54.64 -132.14,115.36 -14.29,60.71 -22.14,516.43 -20,522.86 2.14,6.43 44.29,81.43 82.14,78.57 37.86,-2.86 55.71,55.71 64.29,62.14 8.57,6.43 65,55 80,72.14 15,17.14 67.86,106.43 168.57,105 100.71,-1.43 245,-211.43 267.86,-214.29 22.86,-2.86 90.71,-26.43 105,-65 14.29,-38.57 46.73682,-451.84162 37.14,-485 C 902.5,86.64 743.19749,-4.3326364 660.5,-10 577.80251,-15.667364 466.31508,-16.20654 402.86,-13.200585 339.40492,-10.19463 280.07,0 280.07,0 Z"
           id="path7968"
           inkscape:connector-curvature="0"
           sodipodi:nodetypes="cssssssssszzc"
           style="fill:#d38d5f" />
        <path
           d="m 778.83,28.74 c 0,0 117.18,78.79 130.31,130.31 13.13,51.52 13.13,188.9 9.09,214.66 -4.04,25.76 -14.65,78.29 -14.65,88.89 0,10.61 5.56,82.33 4.55,98.99 -1.01,16.67 -12.12,80.31 -33.34,106.57 -21.21,26.26 -23.23,32.83 -36.37,34.85 -13.13,2.02 -30.81,-4.04 -35.86,-2.53 -5.05,1.52 -9.6,10.61 -22.22,13.13 -12.63,2.53 -57.07,13.64 -67.68,17.17 -10.61,3.54 -6.06,12.63 -4.55,16.67 1.52,4.04 4.04,11.62 12.12,9.09 8.08,-2.53 24.24,-11.62 30.3,-11.62 6.06,0 8.08,2.02 8.08,2.02 0,0 -2.02,-4.55 -17.68,15.15 -15.66,19.7 -50.51,58.59 -65.66,69.7 -15.15,11.11 -7.07,26.26 -24.75,40.41 -17.68,14.14 -47.48,39.9 -58.59,37.88 -11.11,-2.02 -18.69,-13.64 -26.26,-15.15 -7.58,-1.52 -72.23,-5.56 -80.81,-1.01 -8.59,4.55 -16.16,17.17 -27.27,15.66 -11.11,-1.52 -54.04,-21.21 -63.13,-32.32 -9.09,-11.11 -15.66,-30.3 -24.75,-42.93 -9.09,-12.63 -75.26,-69.2 -83.84,-72.23 -8.59,-3.03 -9.09,-6.57 -8.08,-11.11 1.01,-4.55 57.58,21.72 63.64,24.75 6.06,3.03 18.69,-25.76 10.1,-35.36 -8.59,-9.6 -47.98,-23.74 -56.57,-24.75 -8.59,-1.01 -33.34,3.54 -42.43,-0.51 -9.09,-4.04 -26.77,-15.66 -34.35,-16.16 -7.58,-0.51 -32.32,-3.03 -44.45,-14.65 -12.12,-11.62 -48.49,-36.37 -41.42,-113.64 7.07,-77.28 10.61,-237.89 10.61,-270.72 0,-32.83 1.99,-79.8 6.54,-104.55 4.55,-24.75 9.12,-103.54 42.96,-129.8 33.84,-26.26 83.84,-65.15 83.84,-65.15 0,0 -156.57,70.21 -195.97,117.18 -39.4,46.97 -63.64,274.26 -61.11,316.18 2.53,41.92 25.76,121.72 28.28,143.44 -5.99,83.4 -29.17,177.31 -35.86,246.98 20.2,7.07 68.69,33.34 79.8,54.04 11.11,20.71 59.6,116.17 67.68,121.72 106.77129,0.6901 250.49711,221.292 379.7321,221.112 C 662.39145,1220.9299 771.50982,999.99 874.2,999.99 c 0,0 34.3,-87.04 53.1,-124.75 10.89,-21.84 36.87,-42.93 60.61,-50.51 -37.51,-74.1 -19.87,-131.81 -17.17,-197.48 1.01,-30.3 8.08,-94.95 12.12,-106.07 4.04,-11.11 15.15,-17.68 15.15,-36.87 0,-19.19 -0.51,-264.66 -26.26,-315.67 C 911.52,93.65 891.01,105.2 778.83,28.74 Z"
           id="path3993"
           inkscape:connector-curvature="0"
           sodipodi:nodetypes="csssssssssssscssssssssssssssssssssscssccscscsccsscc"
           style="fill:url(#radialGradient4001)" />
        <path
           style="fill:#d38d5f"
           d="m 940.36,488.93 c 17.5,-39.29 25.36,-50.36 32.86,-50.36 7.5,0 21.43,6.07 21.07,40 -0.36,33.93 -14.29,34.29 -20.36,49.64 -6.07,15.36 -4.64,30.71 -6.79,41.43 -2.14,10.71 -11.07,30.71 -11.43,38.93 -0.36,8.21 3.93,23.21 1.43,30.71 -2.5,7.5 -35.71,50 -39.64,49.64 -3.93,-0.36 -11.79,-9.29 -11.79,-9.29 0,0 10,4.29 12.14,1.79 2.14,-2.5 -17.14,-16.79 -10.36,-15.71 6.79,1.07 10,6.79 10.71,5.36 0.71,-1.43 -7.86,-19.64 -7.86,-19.64 0,0 12.14,9.64 15,8.93 2.86,-0.71 -10.36,-14.64 -7.5,-15 2.86,-0.36 11.79,6.43 13.93,4.64 2.14,-1.79 -12.14,-8.93 -9.64,-10.71 2.5,-1.79 10,7.86 12.5,7.5 2.5,-0.36 -3.21,-10 -2.86,-13.93 0.36,-3.93 -10,-11.43 -8.93,-13.21 1.07,-1.79 12.5,3.93 16.79,0 4.29,-3.93 4.29,-5.71 4.29,-5.71 0,0 -8.93,5 -13.21,2.14 -4.29,-2.86 14.29,-2.14 15.71,-4.29 1.43,-2.14 2.5,-6.07 2.5,-6.07 0,0 -21.79,7.86 -19.64,3.57 2.14,-4.29 1.07,-10 1.07,-10 0,0 13.93,-3.21 15.36,-4.64 1.43,-1.43 -14.64,3.93 -14.29,1.79 0.36,-2.14 6.79,-12.5 11.07,-10 4.29,2.5 6.07,8.57 8.93,7.5 2.86,-1.07 5,-3.57 5,-3.57 0,0 -6.07,0.71 -7.86,-5 -1.79,-5.71 -5,-8.57 -8.93,-6.07 -3.93,2.5 -10.71,8.21 -10.71,8.21 0,0 0,-10 7.14,-15 7.14,-5 12.5,-17.14 12.5,-17.14 0,0 -3.57,7.5 -8.57,11.07 -5,3.57 -9.29,7.86 -9.29,7.86 0,0 6.79,-11.79 9.64,-15.36 2.86,-3.57 -13.57,13.57 -12.14,8.57 1.43,-5 7.86,-16.79 11.79,-17.86 3.93,-1.07 8.93,-14.29 11.07,-18.93 2.14,-4.64 9.64,-9.64 9.64,-9.64 0,0 -11.07,3.57 -14.29,12.14 -3.21,8.57 -21.43,27.5 -22.14,23.21 -0.71,-4.29 3.57,-11.07 8.57,-11.43 5,-0.36 9.29,-6.43 9.29,-6.43 0,0 -9.64,4.29 -11.43,3.21 -1.79,-1.07 1.07,-13.21 8.57,-19.64 7.5,-6.43 15.36,-11.43 15.36,-11.43 0,0 -9.64,1.07 -13.57,4.64 -3.93,3.57 -11.43,12.14 -10.71,8.21 0.71,-3.93 14.64,-25.71 18.57,-27.14 3.93,-1.43 7.5,-10.36 7.5,-10.36 0,0 -19.64,19.64 -18.21,15 1.43,-4.63 15.72,-31.06 15.72,-31.06 0,0 -10,15.71 -13.57,18.93 z"
           id="path4012"
           inkscape:connector-curvature="0" />
        <path
           style="fill:#d38d5f"
           d="m 106.07,704.29 c 0,0 -35,-22.14 -37.86,-39.64 -2.86,-17.5 4.29,-37.14 2.14,-44.29 -2.14,-7.14 -8.57,-27.5 -6.07,-38.21 2.5,-10.71 5.36,-17.86 3.93,-26.79 C 66.79,546.43 50,509.29 50,489.29 c 0,-20 -5.36,-37.14 7.14,-45 12.5,-7.86 22.5,-7.86 30.36,-3.21 7.86,4.64 19.29,25.71 19.29,25.71 0,0 -10.36,-8.21 -13.93,-7.86 -3.57,0.36 15,10.71 17.14,21.07 2.14,10.36 -13.21,1.07 -13.21,1.07 0,0 16.07,10.71 16.07,16.43 0,5.71 5,16.79 3.57,19.29 -1.43,2.5 -9.29,-17.14 -11.07,-17.14 -1.79,0 11.79,23.57 9.29,26.43 -2.5,2.86 -15.36,-14.64 -15.36,-14.64 0,0 2.14,14.64 6.79,17.5 4.64,2.86 6.79,11.79 6.79,11.79 0,0 -18.57,-13.21 -18.93,-11.79 -0.36,1.43 25,20 22.5,22.5 -2.5,2.5 -18.93,-15.71 -18.93,-15.71 0,0 3.93,14.29 9.64,19.64 5.71,5.36 9.64,11.79 6.43,12.5 -3.21,0.71 -15,-10.36 -18.93,-18.93 -3.93,-8.57 -5.71,-19.64 -5.71,-19.64 0,0 1.43,20 3.93,23.57 2.5,3.57 -11.43,-13.21 -11.43,-13.21 0,0 12.5,18.57 10,18.57 -2.5,0 -15,-9.29 -15,-9.29 0,0 18.93,14.64 17.86,17.14 -1.07,2.5 -12.86,3.21 -15.71,5.36 -2.86,2.14 16.07,-2.86 16.79,0.36 0.69,3.2 -16.45,9.27 -16.81,11.41 -0.36,2.15 16.43,-7.85 16.43,-6.78 0,1.07 -11.43,11.43 -12.14,13.93 -0.71,2.5 12.86,-6.79 12.86,-3.21 0,3.57 -5,8.21 -1.43,8.21 3.57,0 16.79,0 13.21,6.07 -3.57,6.07 -19.64,-3.57 -19.64,-3.57 0,0 6.79,8.57 10.71,8.57 3.93,0 6.43,10 0,9.29 -6.43,-0.72 -15.71,-11.79 -15.71,-9.65 0,2.14 10.36,16.43 13.93,14.29 3.57,-2.15 -7.86,9.64 -7.86,9.64 0,0 6.43,-3.93 5.36,-0.36 -1.08,3.57 -3.58,19.29 -9.29,17.86 -5.71,-1.43 5.36,5.71 6.43,2.5 1.07,-3.21 3.57,6.43 0.36,10 -3.21,3.57 5.36,1.07 5.36,1.07 0,0 0.71,11.79 -2.86,12.5 -3.57,0.71 4.29,5 6.07,1.43 1.79,-3.57 7.14,-7.5 7.14,-7.5 0,0 0.36,13.21 -6.07,13.57 -6.43,0.36 6.43,9.29 6.43,13.57 0,4.29 -1.79,9.64 -1.79,9.64 z"
           id="path4014"
           inkscape:connector-curvature="0" />
        <path
           style="fill:#c77037"
           d="m 96.47,517.9 c -5.3,-9.85 2.78,-18.94 0.51,-24.24 -2.27,-5.3 -28.79,-43.44 -34.85,-37.88 -6.06,5.56 -10.35,32.58 -2.02,50.51 8.33,17.93 14.14,43.18 11.87,59.09 6.44,-5.64 3.47,-21.26 10.86,-26.52 3.54,-8.59 14.39,-16.67 13.64,-20.96 z"
           id="path4019"
           inkscape:connector-curvature="0"
           sodipodi:nodetypes="csssccc" />
        <path
           style="fill:#c77037"
           d="m 955.86,491.89 c 0,0 15.15,-27.78 21.47,-26.77 6.31,1.01 15.4,10.61 12.37,18.44 -3.03,7.83 -24.24,44.19 -26.01,52.53 -1.77,8.33 0.76,45.46 -6.31,48.23 -7.07,2.78 -7.32,-9.34 -10.35,-13.89 4.42,-18.4 5.48,-36.86 13.13,-47.48 2.53,-6.06 -10.1,-26.01 -4.29,-31.06 z"
           id="path4025"
           inkscape:connector-curvature="0"
           sodipodi:nodetypes="cssssccc" />
        <path
           style="fill:#d7966b"
           d="m 518.58,217.86 c 102.36,4.2 29.17,-2.36 146.29,20 78.36,19.29 133.45,-30.48 136.56,-66.43 C 806.31,115 750.45,39.29 699.98,21.43 649.51,3.57 326.39,-12.14 268.42,65 c -52.48,69.84 -37.31,164.29 32.91,190.71 108.1,11.46 178.1,-32.44 217.25,-37.85 z"
           id="path3909"
           inkscape:connector-curvature="0"
           sodipodi:nodetypes="ccssscc" />
        <path
           d="m 770.71,55 c 0,0 81.43,92.14 72.86,140 -8.57,47.86 -55,106.43 -97.86,109.29 -42.85,2.85 -180.71,-17.86 -212.14,-13.58 -31.43,4.29 -220.71,17.86 -247.86,10 -27.14,-7.86 -85,-90 -66.43,-143.57 18.57,-53.57 40,-107.86 67.14,-127.14 27.14,-19.29 -63.57,25 -93.57,72.14 -30,47.14 -22.14,160 -15.71,172.14 6.43,12.14 -6.43,33.57 -7.14,47.14 -0.71,13.58 12.86,54.29 23.57,57.15 10.72,2.86 46.43,-8.57 62.14,-3.57 15.72,5 115.72,35.71 159.29,32.14 43.57,-3.57 92.86,-48.57 114.29,-49.29 21.43,-0.71 149.29,27.14 189.29,25 40,-2.14 176.43,-2.14 177.14,-57.14 0.71,-55 11.43,-201.43 -125,-270.71 z"
           id="path3911"
           inkscape:connector-curvature="0"
           sodipodi:nodetypes="csssssssssssssssc"
           style="opacity:0.35;fill:#bb7648" />
        <path
           d="m 562.15,459.57 c 0,0 -26.77,-59.6 -27.78,-76.77 -1.01,-17.17 -1.01,-11.62 -4.04,-11.62 -3.03,0 -14.65,68.19 -18.69,73.24 -4.04,5.05 -4.55,2.53 -5.05,0.51 -0.51,-2.02 20.2,-84.35 24.24,-84.35 4.04,0 12.63,36.37 17.17,48.99 4.55,12.63 3.54,-25.25 5.56,-23.74 2.02,1.52 3.03,68.69 8.59,73.74 z"
           id="path3914"
           inkscape:connector-curvature="0"
           style="display:inline;fill:#9a6039" />
        <path
           d="m 200.52,358.05 c 0,0 27.78,-5.56 34.35,-5.05 6.57,0.51 61.11,12.12 68.69,12.12 7.58,0 78.29,3.54 89.4,2.02 11.11,-1.52 45.96,-13.64 56.57,-13.64 10.61,0 55.56,8.08 65.15,8.08 9.6,0 41.42,-0.51 51.01,1.52 9.6,2.02 46.47,8.59 53.54,8.59 7.07,0 32.83,5.56 42.43,6.06 9.6,0.51 33.34,-3.03 41.92,1.01 8.59,4.04 30.81,1.01 43.94,2.02 13.13,1.01 32.83,8.59 50,7.07 17.17,-1.52 29.29,-13.64 41.92,-13.64 12.63,0 17.68,11.62 26.26,11.62 8.59,0 20.71,-5.56 20.71,-5.56 0,0 -17.68,5.05 -22.22,2.53 -4.55,-2.53 -16.16,-12.12 -25.25,-11.62 -9.09,0.51 -25.76,14.14 -39.4,14.14 -13.64,0 -46.97,-7.58 -46.97,-7.58 0,0 22.22,-1.52 21.72,-4.04 -0.51,-2.53 -40.41,3.03 -40.41,3.03 0,0 16.16,-10.61 13.64,-12.12 -2.53,-1.52 -20.2,12.63 -27.78,12.63 -7.58,0 -24.38,-4.74 -33.13,-4.21 -8.75,0.54 -31.43,-0.18 -48.21,-2.86 -16.79,-2.68 -94.29,-13.57 -105.71,-13.57 -11.43,0 -70.18,-7.5 -82.5,-6.96 -12.32,0.54 -44.64,13.93 -58.21,15 -13.57,1.07 -78.57,-2.32 -86.25,-4.46 -7.68,-2.14 -61.61,-15.54 -66.79,-15.54 -5.18,0 -33.08,8.6 -38.41,13.41 z"
           id="path3916"
           inkscape:connector-curvature="0"
           style="display:inline;fill:#9a6039" />
        <path
           d="m 180.71,307.86 c 0,0 1.79,17.5 7.14,18.21 5.36,0.71 28.57,-6.43 35.36,-5 6.79,1.43 61.43,8.21 71.07,13.57 9.64,5.36 68.21,16.07 80,15 11.79,-1.07 39.29,-4.64 43.21,-9.29 3.93,-4.64 67.5,-18.57 84.64,-20.71 17.14,-2.14 92.14,5.71 98.57,9.29 6.43,3.57 -4.29,-5.71 -4.29,-5.71 0,0 30,0.36 36.07,2.5 6.07,2.14 16.43,5 16.43,5 0,0 -25.71,2.86 -27.5,3.57 -1.79,0.71 47.5,-3.21 58.21,-0.71 C 690.36,336.07 710,340 710,340 l -16.07,3.57 c 0,0 21.07,-1.43 25.71,-1.07 4.64,0.36 56.07,10 65.36,9.29 9.29,-0.71 29.64,-1.79 35.71,1.79 6.07,3.57 14.29,7.14 17.86,5 3.57,-2.14 21.07,-7.86 28.93,-6.07 7.86,1.79 14.64,-8.57 14.64,-8.57 0,0 -13.21,5 -23.57,4.29 -10.36,-0.71 -19.29,7.14 -22.86,6.43 -3.57,-0.73 23.58,-22.16 31.08,-23.59 7.5,-1.43 20.71,-8.57 20.71,-8.57 0,0 -28.21,6.79 -33.93,10 -5.71,3.21 -15,18.21 -22.5,18.21 -7.5,0 -16.43,-5 -25.36,-4.29 -8.93,0.71 -31.43,2.5 -56.07,-2.14 -24.64,-4.64 -80,-16.42 -89.64,-18.21 -9.64,-1.79 -52.14,-8.21 -60.36,-8.21 -8.21,0 -36.07,2.86 -42.86,1.79 -6.79,-1.07 -38.21,-5 -48.21,-3.93 -10,1.07 -80,11.43 -85.71,14.29 -5.71,2.86 -48.57,0.71 -49.64,1.79 -1.08,1.06 41.78,1.77 41.78,3.2 0,1.43 -9.29,10.36 -35.36,9.64 -26.07,-0.71 -108.93,-27.5 -114.64,-27.86 -5.71,-0.36 -50.71,-2.14 -58.93,0.36 -8.21,2.5 -13.57,7.14 -17.14,3.57 -3.57,-3.57 -8.21,-12.86 -8.21,-12.86 z"
           id="path3918"
           inkscape:connector-curvature="0"
           style="display:inline;fill:#9a6039" />
        <path
           d="m 356.07,281.79 c 0,0 52.14,-6.07 61.79,-4.64 9.64,1.43 32.86,3.57 44.29,2.14 11.43,-1.43 60.71,-13.93 68.57,-13.57 7.86,0.36 60.71,19.29 74.64,20.71 13.93,1.43 49.64,-6.07 57.86,-5.36 8.21,0.71 30,-0.71 30,-0.71 0,0 -33.93,-3.57 -42.5,-3.57 -8.57,0 -28.21,3.93 -40.36,2.86 -12.14,-1.07 -66.07,-21.43 -79.29,-21.43 -13.21,0 -45.36,11.07 -55.36,13.93 -10,2.86 -21.07,6.07 -28.93,5.36 -7.86,-0.71 -26.43,-3.93 -37.14,-3.57 -10.71,0.36 -53.57,7.86 -53.57,7.86 z"
           id="path3920"
           inkscape:connector-curvature="0"
           style="display:inline;fill:#9a6039" />
        <path
           style="fill:url(#linearGradient3986)"
           d="m 746.43,746.43 c 0,0 -61.43,63.57 -85,83.57 -23.57,20 -78.57,67.86 -100,70.71 -21.43,2.86 -17.14,-0.71 -33.57,0 -16.43,0.71 -20.71,6.43 -36.43,2.86 -15.72,-3.57 -77.14,-45 -90.72,-58.57 -13.57,-13.57 -42.14,-42.14 -60,-55 -17.86,-12.86 -50,-34.29 -50,-34.29 0,0 50.71,18.57 64.29,27.86 13.57,9.29 67.14,37.86 89.29,40 22.14,2.14 62.86,-2.14 62.86,-2.14 0,0 2.86,13.57 18.57,13.57 15.71,0 18.57,-13.57 18.57,-13.57 0,0 24.29,10 53.57,3.57 29.29,-6.43 130,-62.14 148.57,-78.57 z"
           id="path7971"
           inkscape:connector-curvature="0" />
        <path
           d="m 291.68,756.3 c 0,0 50.26,24.5 59.09,30.81 8.84,6.31 51.52,37.38 62.63,41.92 11.11,4.55 62.88,21.21 79.04,22.48 16.16,1.26 27.27,10.35 31.82,11.11 4.55,0.76 20.2,-7.58 29.29,-9.09 9.09,-1.52 40.41,-11.11 57.83,-19.45 17.43,-8.33 68.69,-33.08 85.11,-47.48 16.41,-14.39 49.75,-39.65 49.75,-39.65 0,0 -59.09,45.2 -75,53.03 -15.91,7.83 -67.43,38.64 -101.77,46.72 -34.35,8.08 -39.65,10.86 -41.16,11.11 -1.52,0.25 -25,-9.09 -32.83,-10.1 -7.83,-1.01 -50,-10.1 -61.37,-14.9 -11.36,-4.8 -51.27,-25 -65.15,-34.85 -13.89,-9.85 -30.56,-20.2 -36.11,-22.98 -5.56,-2.78 -41.16,-18.69 -41.16,-18.69 z"
           id="path7973"
           inkscape:connector-curvature="0"
           style="fill:#1a1a1a;stroke:#000000" />
        <path
           style="fill:#a05a2c"
           d="m 651.8,705.29 c 0,0 24.24,11.87 35.1,14.65 10.86,2.78 29.55,10.86 39.4,8.59 9.85,-2.27 22.22,-10.61 28.79,-10.61 6.57,0 15.91,2.27 31.31,-2.78 15.4,-5.05 13.38,-12.12 20.71,-10.86 7.32,1.26 22.73,5.81 37.63,-2.53 14.9,-8.33 43.94,-42.68 52.02,-69.45 8.08,-26.77 16.41,-70.96 13.38,-71.97 -3.03,-1.01 -10.61,59.85 -18.69,77.02 -8.08,17.17 -31.82,60.1 -54.8,64.9 -22.98,4.8 -29.55,-3.79 -34.09,-2.53 -4.55,1.26 -7.58,10.86 -22.22,14.14 -14.65,3.28 -20.71,-0.25 -26.52,1.26 -5.81,1.52 -19.45,11.36 -29.29,11.62 -9.85,0.25 -72.73,-21.47 -72.73,-21.47 z"
           id="path3891"
           inkscape:connector-curvature="0" />
        <path
           style="fill:#a05a2c"
           d="m 412.65,706.8 c 0,0 -24.24,15.66 -39.14,18.69 -14.9,3.03 -35.36,5.3 -40.41,4.8 -5.05,-0.51 -21.21,-10.86 -34.35,-12.88 -13.13,-2.02 -39.9,1.01 -45.96,-1.26 -6.06,-2.27 -26.01,-16.92 -33.59,-16.41 -7.58,0.51 -11.11,3.54 -16.41,1.26 -5.3,-2.27 -57.07,-33.08 -62.88,-61.62 -5.81,-28.54 -7.07,-75.26 -5.81,-75.26 1.26,0 3.28,71.47 10.86,82.33 7.58,10.86 24.5,33.59 43.18,43.18 18.69,9.6 27.53,5.3 33.84,7.58 6.31,2.27 23.23,13.38 31.31,16.16 8.08,2.78 38.39,-2.27 46.47,0.51 8.08,2.78 26.26,13.13 33.08,13.89 6.82,0.76 38.13,-3.79 42.93,-5.05 4.8,-1.26 36.87,-15.91 36.87,-15.91 z"
           id="path3893"
           inkscape:connector-curvature="0" />
        <path
           style="fill:#000000"
           d="m 592.96,744.68 c 0,0 11.11,-9.85 16.67,-11.11 5.56,-1.26 17.93,-8.84 14.65,-12.88 -3.28,-4.04 -13.38,1.01 -17.68,4.04 -4.29,3.03 -19.19,26.26 -23.23,29.8 -4.04,3.54 -25.76,24.5 -52.78,22.98 -27.02,-1.52 -57.07,-25.51 -61.62,-30.81 -4.55,-5.3 -17.43,-26.26 -27.02,-26.77 -9.6,-0.51 -13.89,1.01 -14.65,4.29 -0.76,3.28 12.37,5.3 21.47,10.35 9.09,5.05 16.41,14.9 19.7,17.43 3.28,2.53 24.75,21.47 31.82,23.99 7.07,2.53 23.74,3.03 24.75,5.05 1.01,2.02 4.8,30.56 4.8,30.56 0,0 -0.51,-27.27 0.76,-29.04 1.26,-1.77 18.94,-0.51 26.77,-3.79 7.83,-3.28 28.03,-19.19 31.82,-24.75 3.79,-5.56 3.79,-9.34 3.79,-9.34 z"
           id="path7976"
           inkscape:connector-curvature="0" />
        <path
           style="fill:#a05a2c"
           d="m 583.11,650.23 c 0,0 12.63,-3.54 15.4,-2.53 2.78,1.01 36.11,27.02 39.9,33.34 3.79,6.31 11.62,20.46 7.58,28.03 -4.04,7.58 -15.15,23.74 -19.19,26.26 -4.04,2.53 -30.05,10.1 -30.05,10.1 0,0 27.27,-4.55 31.06,-7.32 3.79,-2.78 24.75,-30.56 24.24,-33.34 -0.51,-2.78 -12.37,-26.26 -15.4,-29.8 -3.03,-3.54 -33.59,-31.31 -36.62,-31.31 -3.03,0 -16.92,6.57 -16.92,6.57 z"
           id="path7978"
           inkscape:connector-curvature="0" />
        <path
           style="fill:#a05a2c"
           d="m 464.67,653.52 c 0,0 -4.55,-6.31 -8.33,-5.81 -3.79,0.51 -22.73,5.05 -32.83,33.59 -10.1,28.54 -7.58,55.05 3.54,57.33 11.11,2.27 28.79,6.31 28.79,6.31 0,0 -30.05,-3.03 -33.08,-5.56 -3.03,-2.53 -13.38,-10.61 -10.61,-32.83 2.78,-22.22 16.41,-45.96 21.21,-48.99 4.8,-3.03 16.67,-15.66 21.72,-14.39 5.05,1.26 9.6,10.35 9.6,10.35 z"
           id="path7980"
           inkscape:connector-curvature="0" />
        <path
           style="fill:#a05a2c"
           d="m 583.87,667.41 c 0,0 12.37,28.79 13.89,40.41 1.52,11.62 -7.07,33.34 -14.65,41.67 -7.58,8.33 -32.07,26.01 -52.78,24.5 -20.71,-1.52 -70.46,-33.34 -73.49,-51.52 -3.03,-18.18 1.52,-48.23 5.05,-51.27 3.54,-3.03 7.58,-8.08 7.58,-8.08 0,0 -9.6,6.31 -11.36,9.85 -1.77,3.54 -6.31,42.93 -4.8,46.97 1.52,4.04 31.06,56.82 72.98,56.06 41.92,-0.76 68.69,-31.06 74.25,-53.54 5.56,-22.48 -16.67,-55.05 -16.67,-55.05 z"
           id="path7982"
           inkscape:connector-curvature="0" />
        <path
           style="fill:#d7966b"
           d="m 532.5,425 c 5.71,0 17.14,25.36 16.43,35.36 -0.71,10 -11.43,12.14 -12.14,15.36 -0.71,3.21 20,16.79 22.14,58.93 2.14,42.14 -5.71,51.43 -0.71,57.14 5,5.71 33.57,15.36 32.86,21.79 -0.71,6.43 -35,6.07 -37.86,17.86 -2.86,11.79 19.29,40 13.93,58.21 -5.36,18.21 -16.79,33.93 -37.5,34.29 -20.71,0.36 -48.21,-10.71 -43.21,-33.21 5,-22.5 17.5,-27.86 22.5,-42.5 5,-14.64 -5,-40.36 -5,-62.5 0,-22.14 -5,-84.64 7.86,-97.14 12.84,-12.52 10.7,-59.66 20.7,-63.59 z"
           id="path3899"
           inkscape:connector-curvature="0" />
        <path
           d="m 246.73,559.57 c 0,0 27.53,-66.92 61.87,-60.36 34.35,6.57 81.57,33.08 96.47,62.38 14.9,29.29 -16.16,41.42 -24.24,43.69 -8.08,2.27 -38.39,8.33 -60.36,3.28 -21.97,-5.05 -58.08,-24.24 -62.12,-31.06 -4.04,-6.82 -11.62,-17.93 -11.62,-17.93 z"
           id="path7985"
           inkscape:connector-curvature="0"
           sodipodi:nodetypes="csssssc"
           style="fill:url(#radialGradient3956);fill-opacity:1;stroke:#545454" />
        <path
           d="m 405.07,560.33 c 0,0 24.5,28.03 24.5,28.79 0,0.76 -0.76,5.3 -2.27,5.3 -1.52,0 -13.38,-1.52 -16.16,-0.51 -2.78,1.01 -17.93,5.81 -17.93,5.81 0,0 14.39,-7.83 15.4,-18.44 1.01,-10.61 -3.54,-20.96 -3.54,-20.96 z"
           id="path7987"
           inkscape:connector-curvature="0"
           style="fill:#d45500;stroke:#545454" />
        <path
           d="m 671.5,589.63 c 0,0 -4.55,-9.09 -4.04,-15.15 0.51,-6.06 4.8,-20.2 4.8,-20.2 l -28.28,26.01 c 0,0 -1.52,0.51 -1.52,2.78 0,2.27 9.6,1.77 13.64,2.27 4.04,0.51 15.4,4.29 15.4,4.29 z"
           id="path7989"
           inkscape:connector-curvature="0"
           style="fill:#d45500;stroke:#545454" />
        <path
           d="m 822.77,553.26 c 0,0 -19.45,-53.29 -62.63,-52.28 -43.18,1.01 -85.11,48.49 -86.87,52.28 -1.77,3.79 -11.87,30.3 -1.26,36.37 10.61,6.06 40.15,21.47 48.49,22.22 8.33,0.76 60.36,-6.31 73.49,-20.46 13.13,-14.14 28.79,-38.13 28.79,-38.13 z"
           id="path7991"
           inkscape:connector-curvature="0"
           style="fill:url(#radialGradient3948);stroke:#545454" />
        <path
           d="m 845,463.57 c 0,0 -3.93,23.93 -14.64,25.36 -10.72,1.43 -50.36,-31.79 -82.86,-25.36 -32.5,6.43 -40,20.72 -62.14,33.57 -22.15,12.86 -31.43,18.22 -31.43,18.22 0,0 35.36,-13.21 38.57,-15.71 3.21,-2.5 -6.43,3.93 -12.86,15 -6.43,11.06 -14.64,30.71 -14.64,30.71 l 9.64,-6.79 c 0,0 -2.5,-2.14 1.43,-8.57 3.93,-6.43 32.14,-36.43 52.86,-38.93 20.71,-2.5 50.36,7.5 73.57,12.14 23.21,4.64 46.07,11.43 53.93,-7.86 C 864.29,476.07 845,463.57 845,463.57 Z"
           id="path3884"
           inkscape:connector-curvature="0"
           style="fill:#000000;fill-opacity:0.13999999" />
        <path
           d="m 259.29,512.14 c 0,0 19.29,-24.64 38.57,-23.57 19.29,1.07 42.5,-6.43 77.14,25.71 34.64,32.14 52.14,58.93 52.14,58.93 0,0 11.43,15 15.36,14.64 3.93,-0.36 -12.14,-55.36 -15,-59.29 -2.86,-3.93 17.86,-2.14 27.14,5 9.29,7.14 13.57,18.21 18.57,20.71 5,2.5 5.71,-23.57 1.43,-31.79 -4.29,-8.21 -22.86,-24.64 -45.36,-29.29 -22.5,-4.64 -55,-19.29 -79.29,-22.14 -24.29,-2.86 -64.64,-10.36 -74.64,-0.36 -10,10 -6.79,19.29 -22.5,22.14 -15.71,2.86 -15,2.86 -15,2.86 0,0 -10.71,-5 -11.43,-2.86 -0.71,2.14 12.86,12.5 17.14,10.71 4.29,-1.79 23.57,-14.64 27.5,-11.79 3.93,2.86 -11.79,20.36 -11.79,20.36 z"
           id="path3886"
           inkscape:connector-curvature="0"
           style="fill:#000000;fill-opacity:0.13999999" />
        <path
           d="m 696.25,530.78 c 0,0 26.26,-21.72 40.41,-25.51 14.14,-3.79 33.34,-7.07 46.97,0.51 13.64,7.58 6.31,68.44 -24.24,75.51 -30.56,7.07 -69.7,-5.05 -63.13,-50.51 z"
           id="path7994"
           inkscape:connector-curvature="0"
           sodipodi:nodetypes="csssc"
           style="fill:#00aad4;stroke:#000000" />
        <path
           d="m 369.97,525.73 c 0,0 10.35,17.17 2.02,33.08 -8.33,15.91 -24.75,36.37 -61.87,23.99 -37.12,-12.37 -41.16,-59.35 -26.01,-73.74 15.15,-14.39 28.28,-15.66 85.86,16.67 z"
           id="path7996"
           inkscape:connector-curvature="0"
           style="fill:#00aad4;stroke:#000000" />
        <path
           style="fill:#0000ff"
           sodipodi:type="star"
           id="path3904"
           sodipodi:sides="300"
           sodipodi:cx="743.71997"
           sodipodi:cy="533.31"
           sodipodi:r1="45.889999"
           sodipodi:r2="13.77"
           sodipodi:arg1="0.96"
           sodipodi:arg2="0.97"
           inkscape:flatsided="false"
           inkscape:rounded="0"
           inkscape:randomized="0.02"
           d="m 769.34555,570.49827 -17.48338,-26.30831 17.29434,27.49814 -18.12813,-26.49502 17.84995,26.70646 -16.94872,-27.8198 16.57192,27.9516 -18.00635,-27.34193 16.98356,29.18182 -16.88063,-28.50879 15.66889,27.95732 -15.9649,-27.8203 14.58154,28.91616 -15.0785,-28.02722 13.70489,28.83228 -14.60065,-29.08922 14.88979,28.93731 -14.15066,-30.0748 13.54193,29.79323 -14.1116,-28.19932 12.60342,29.05846 -12.46336,-28.75464 11.8917,28.71546 -11.95201,-29.29235 11.37681,29.89815 -12.74371,-29.62405 10.57488,29.84408 -9.29901,-29.96831 9.19111,30.98701 -9.94895,-31.83349 8.21619,32.21573 -8.34949,-31.68127 8.58136,31.96998 -9.73895,-31.51681 7.73333,31.67465 -8.26427,-31.72087 7.39581,32.26744 -7.01807,-31.29984 5.65147,31.02665 -6.38349,-31.54687 6.45176,30.73601 -6.37386,-31.4962 4.48011,32.31185 -5.51168,-32.52106 4.78166,32.83201 -4.90411,-32.43401 3.8717,33.09898 -3.36482,-32.63545 2.86247,31.24693 -3.18478,-31.5264 3.2911,32.12121 -4.62154,-30.84394 2.89176,30.77704 -2.4862,-31.57252 1.3829,31.81772 -1.80613,-31.31738 1.61342,30.89788 -1.40671,-30.53531 -0.6246,31.17574 0.20256,-31.53875 -1.60423,30.81421 1.90943,-30.62634 -2.00341,30.79046 0.57199,-30.77761 -1.77406,31.8978 1.25483,-33.56456 -1.24916,33.13853 1.65367,-32.10875 -3.28479,32.15042 3.06303,-31.89085 -3.76547,31.68029 4.26974,-32.66072 -5.49992,32.97715 4.27002,-32.54488 -5.00314,31.17708 4.98112,-31.26706 -7.07352,31.05768 6.14022,-30.69312 -6.17307,31.93893 6.25184,-32.00015 -7.72099,30.30821 7.08849,-30.10061 -8.15599,29.70728 8.53585,-29.72216 -9.00535,29.71812 8.67235,-31.05182 -8.54336,32.04692 7.48437,-31.48524 -9.31954,31.29669 10.29567,-32.10137 -10.80228,30.97273 9.13512,-30.15827 -10.67969,30.09128 10.32043,-30.99038 -10.05595,30.54272 9.89474,-30.72455 -12.57174,29.35757 13.4387,-28.52986 -13.41265,29.59649 11.91676,-29.87247 -12.9271,28.33017 13.46704,-28.13664 -13.37905,28.31823 12.48161,-27.9995 -13.42925,27.40812 14.56793,-28.04887 -16.9814,27.04353 16.6829,-27.76221 -17.46927,28.81117 17.37151,-28.65361 -17.6865,26.8269 16.15369,-26.38533 -17.03104,25.60636 17.6318,-25.84185 -17.48451,26.92795 16.7495,-27.25791 -17.34066,26.28423 17.17772,-26.96242 -18.40422,25.29686 18.36842,-25.61296 -19.02465,25.83923 18.46275,-25.82922 -19.75366,25.16084 20.51645,-24.61554 -20.41186,23.40751 19.57083,-25.15826 -21.639,25.59784 20.53883,-24.97887 -20.29869,23.19937 21.5327,-23.2394 -22.73722,23.45536 21.42726,-24.24776 -21.76452,23.64 21.96254,-24.24692 -22.83351,24.20315 23.53045,-23.22672 -25.26831,21.53004 23.52234,-22.54199 -23.03426,21.45752 22.79471,-22.0358 -23.26999,22.28155 23.53148,-21.32088 -24.24432,21.04705 25.00318,-22.33242 -25.85431,20.75423 25.27879,-20.29722 -25.25868,18.66579 24.35432,-19.61032 -25.38224,20.34933 25.9046,-19.54833 -26.75802,18.55021 25.94435,-19.83628 -26.13694,18.3899 26.83214,-17.24744 -27.06272,15.95537 25.51179,-16.6936 -26.40868,15.64965 26.46572,-16.78309 -27.49905,17.28901 28.78338,-16.49061 -28.27221,15.1119 27.69135,-14.8496 -29.32865,13.34264 29.14883,-13.97517 -28.15915,13.97743 28.67734,-14.59531 -29.17919,12.83361 28.36189,-13.49884 -29.51361,13.00958 29.29542,-13.07807 -29.47422,12.16127 29.85712,-12.90342 -29.77519,13.25688 28.19244,-13.29819 -28.8739,12.23652 30.55244,-12.11854 -31.98005,10.61958 30.38879,-11.39562 -30.54792,9.81499 30.86404,-9.71379 -29.65164,10.23251 30.46638,-9.92993 -30.92703,7.60895 29.49824,-7.39453 -30.80542,6.89675 31.08249,-7.40986 -31.71875,5.78508 32.59721,-7.17415 -32.27251,7.03362 31.91311,-7.17034 -32.05379,5.50467 32.49378,-4.61936 -32.37049,5.19954 30.74626,-6.09176 -31.09007,5.1923 32.63039,-6.61269 -32.71193,4.33339 31.37679,-2.80644 -30.99805,3.08429 31.27376,-4.6497 -31.4571,2.91907 31.32323,-2.69125 -32.25519,1.0245 32.09079,-2.10496 -32.28058,1.65802 32.61882,-0.58611 -31.91563,-0.76696 31.11511,0.2684 -30.58183,-0.35319 32.31756,-1.19532 -33.4562,-0.0974 32.21943,0.60519 -31.15905,-1.65883 32.25684,0.94089 -33.49873,-2.45373 33.4615,2.11533 -32.50624,-3.14033 32.43847,3.33014 -31.94618,-2.86401 31.47081,1.74205 -31.59785,-2.51764 30.79693,3.21218 -31.51806,-3.99995 32.33928,3.12797 -31.68784,-5.48482 32.38328,6.44705 -32.38154,-6.8715 31.74025,6.60887 -32.30254,-7.97502 32.36175,6.46046 -31.55356,-7.71741 32.21058,7.86433 -32.24831,-8.31707 31.77027,7.82204 -30.43769,-7.96151 30.55734,8.72171 -30.70124,-9.34713 30.69496,8.27109 -29.66475,-9.9151 29.14799,9.01273 -29.59259,-10.78007 29.77426,10.30352 -30.15694,-11.22288 30.21261,11.15253 -28.4981,-11.00283 29.05238,11.74757 -29.73656,-13.60321 29.9112,12.15182 -28.59925,-11.49808 28.61569,11.63192 -29.80354,-13.58208 30.42112,13.65691 -28.785,-14.39239 28.06542,13.65042 -27.09563,-14.49901 26.97529,14.14942 -27.74631,-14.76096 29.23435,15.44492 -28.96569,-15.88206 28.208,15.91107 -26.41237,-17.58144 26.2537,17.59666 -25.86057,-18.26194 27.21115,16.83145 -26.7561,-17.50862 25.86083,17.66559 -26.36829,-18.59476 26.88127,17.93277 -25.39461,-18.18447 24.77159,18.71818 -25.3561,-19.07712 26.05923,18.31252 -24.84418,-20.79976 25.22061,20.42556 -24.97098,-19.85405 25.84516,19.07072 -25.63584,-20.74073 25.1758,21.29462 -23.46456,-21.92364 23.50211,22.06859 -23.66731,-22.89965 24.20424,22.79433 -23.79527,-22.54202 23.90804,22.1389 -21.70299,-23.76505 21.40281,22.95622 -21.469,-22.50711 21.56897,22.23339 -20.13652,-24.16503 21.64578,23.63846 -22.38803,-24.03144 21.55141,24.24633 -19.78645,-24.54284 20.25998,25.49341 -19.13166,-25.1601 19.19367,24.02834 -18.3027,-24.86561 19.6747,24.67293 -19.421,-26.5122 19.35697,26.85512 -18.6006,-27.34767 17.92497,27.62989 -17.73589,-26.78088 18.0979,25.79343 -17.72077,-26.99323 18.7541,27.11822 -16.89629,-28.25698 16.49511,27.64731 -15.11773,-28.48024 15.01475,29.23631 -15.6386,-28.68483 15.83567,27.90381 -14.5513,-28.21456 15.0483,27.52887 -13.5757,-29.11904 14.47332,29.33131 -14.86145,-28.39429 15.2305,27.55213 -12.68722,-28.25892 12.14685,28.68933 -12.47424,-29.34522 12.33418,29.0414 -11.76255,-29.20547 11.92182,28.794 -9.64017,-28.90978 11.00893,30.42662 -10.6757,-30.64666 11.13458,29.76506 -10.92779,-30.34301 9.95088,30.35972 -8.21805,-30.33546 10.08613,30.83403 -8.58139,-32.17324 7.90338,31.72006 -7.63438,-30.8274 8.16529,30.67037 -7.29686,-31.42019 6.91915,30.65584 -5.65147,-31.02665 6.48244,30.55851 -6.45178,-30.93924 6.37388,31.69944 -4.10728,-31.33917 5.13882,31.34514 -4.7798,-31.04109 5.00121,31.49032 -4.69805,-32.05142 4.09222,30.74065 -2.76349,-32.03204 2.98684,33.29986 -1.45547,-31.91795 2.88487,31.48793 -2.89173,-32.40939 2.48806,31.52784 -1.38479,-31.97629 1.80615,33.35622 0.22404,-32.77814 -0.52971,31.56834 -0.004,-30.6758 0.5249,31.88605 1.50526,-33.49706 0.0251,33.10594 0.2668,-31.57557 -0.67095,31.76597 1.77404,-32.10105 -1.25486,31.52572 3.08482,-32.73204 -3.58823,33.0971 3.48264,-32.69802 -3.16192,33.28569 3.76544,-31.88353 -2.43411,31.02837 3.5653,-32.39529 -4.26999,32.74813 5.10212,-31.96219 -4.97926,31.22239 6.97271,-30.02466 -6.04126,31.54037 6.07408,-32.98942 -6.25181,32.20339 7.81994,-31.29656 -7.08852,31.73297 8.05706,-32.18689 -8.53398,31.51309 9.10244,-30.6618 -8.67235,31.05182 10.37896,-30.21132 -9.32,31.28199 10.42775,-31.23749 -9.6672,29.56258 9.06561,-30.32874 -9.23405,31.34987 10.77865,-31.07964 -10.3186,30.74247 11.88971,-30.2948 -11.73033,30.72455 12.50301,-29.50323 -13.46899,29.25737 13.54186,-29.68 -11.94695,29.37413 12.85836,-28.47583 -13.49729,29.06741 15.34383,-28.605 -14.34744,29.13351 15.19615,-29.18613 -14.49919,30.03013 14.4486,-28.32159 -14.1501,27.20466 15.56493,-27.12122 -15.56613,27.95203 15.98008,-27.11367 -16.28287,26.67209 17.06124,-26.94362 -17.66207,26.77262 19.3504,-25.81986 -18.51636,27.40355 19.1075,-26.63313 -18.67066,25.80442 18.03133,-24.84045 -17.89658,26.00378 20.38844,-26.0268 -20.1994,24.84087 19.65654,-24.42041 -18.4848,24.5191 20.21398,-24.89875 -21.3762,25.85985 21.70772,-23.61659 -20.60755,22.99762 22.10406,-23.90096 -22.13097,24.44094 21.49989,-22.8213 -21.29807,23.96099 21.73428,-24.34158 -22.03126,24.10126 22.80325,-23.27239 -21.56564,23.1432 22.67506,-22.37568 -22.76472,23.18439 22.9051,-20.9675 -22.76447,20.90178 23.33871,-20.30029 -23.6002,21.17522 24.31304,-20.9014 -23.2363,20.35118 23.99034,-19.6649 -25.1515,19.85188 26.96513,-20.01138 -26.1597,20.31191 25.45098,-18.36807 -25.87438,18.41431 27.86617,-18.8975 -27.0525,20.18358 26.13694,-18.38991 -25.09552,18.03256 27.06274,-17.58773 -27.24843,17.54085 26.50761,-16.84126 -26.56465,17.9747 27.49905,-17.28901 -27.04674,17.47896 26.90843,-16.75993 -27.96528,16.15327 28.5023,-14.13068 -28.52039,14.90433 30.06347,-13.83178 -28.54812,14.51179 28.95105,-15.22969 -30.1673,13.99719 29.68133,-11.81344 -29.36417,12.72917 29.44402,-12.65961 -28.11865,13.64386 29.97127,-13.15007 -30.12703,12.24769 28.87387,-10.60416 -28.61782,11.53667 29.94654,-10.47846 -30.38883,11.19237 30.54793,-9.81499 -30.86401,9.91703 31.5862,-9.38526 -30.46638,9.92993 30.1996,-9.58861 -30.7054,8.32369 30.90627,-7.72653 -31.08436,9.29014 31.84794,-7.90745 -30.89083,7.25767 30.46717,-6.12878 -32.04229,7.4571 32.18298,-5.79143 -30.68842,5.75336 30.56513,-6.33354 -30.7765,5.39017 31.12027,-2.85836 -30.92397,3.22826 30.90656,-3.6318 -31.30804,4.99094 30.99802,-3.28754 -31.27372,3.01735 31.4571,-2.91907 -31.42037,3.43168 32.25337,-2.61217 -31.99184,2.9522 31.55313,-2.00532 -31.99036,1.71852 31.91567,-0.8654 -31.01619,2.2112 32.51639,-0.63516 -32.41649,0.55132 31.6206,0.0974 -32.12047,0.24206 32.79671,1.59668 -32.15785,-1.72599 31.56417,1.60648 -31.62593,-0.48298 30.67067,1.50799 -30.50392,-2.4829 31.8472,3.64912 -33.20745,-2.73041 31.62807,3.21923 -30.92609,-2.72217 31.54824,4.29505 -32.27052,-4.61467 31.71995,6.34498 -30.48081,-6.25672 30.47721,6.72584 -31.77047,-5.47486 32.2338,5.99377 -32.29305,-6.51805 31.5838,8.419 -30.50417,-7.57756 30.51167,7.32871 -31.77025,-7.61879 32.1762,8.90519 -32.29585,-7.8298 30.70124,9.34714 -29.68573,-9.26239 30.4911,10.70315 -31.08252,-9.65673 29.69154,9.79171 -29.87321,-11.15075 30.2559,12.07012 -30.21262,-11.15253 30.23475,11.99118 -30.78902,-10.90032 29.63754,12.34947 -29.88098,-13.28583 30.50364,13.88583 -30.52001,-13.61318 29.77331,14.71609 -30.39093,-13.15857 28.85373,12.70245 -28.13417,-13.99932 29.00001,15.05116 -28.87961,-14.29508 27.84524,15.40496 -27.49768,-14.25332 27.6019,16.06964 -28.67982,-16.09864 28.34694,16.59308 -28.18826,-16.60831 27.79513,17.27358 -27.21119,-17.03469 26.75608,17.30537 -27.69638,-17.2591 26.2712,17.70285 -26.88313,-17.88809 26.57152,20.02166 -25.84955,-19.70813 25.32587,20.21113 -26.029,-19.44653 24.715,19.25092 -25.08957,-18.9214 24.83994,20.18549 -25.71597,-19.35748 25.60561,20.03914 -25.14561,-20.79628 23.43437,21.4253 -23.47191,-21.57025 23.63708,22.19806 -24.17399,-21.88949 23.66609,22.82879 -23.87781,-21.43732 22.87989,21.93106 -22.48076,-22.11059 21.43874,23.43788 -21.5387,-23.16415 21.84479,22.57152 -21.51848,-22.2482 20.42327,24.52145 -21.42225,-24.73634 19.75625,24.0445 -20.32874,-24.00671 20.93706,24.66175 -21.02927,-24.02834 20.23726,25.71285 -21.13745,-25.33259 18.94916,26.12137 -18.88513,-26.46429 z"
           inkscape:transform-center-x="-0.09"
           inkscape:transform-center-y="-0.24"
           transform="matrix(1,0,0,1.0385671,0,-18.773493)"
           clip-path="url(#clipPath4408)" />
        <path
           style="fill:#0000ff"
           inkscape:transform-center-y="-0.26"
           inkscape:transform-center-x="-0.09"
           d="m 769.34555,570.49827 -17.48338,-26.30831 17.29434,27.49814 -18.12813,-26.49502 17.84995,26.70646 -16.94872,-27.8198 16.57192,27.9516 -18.00635,-27.34193 16.98356,29.18182 -16.88063,-28.50879 15.66889,27.95732 -15.9649,-27.8203 14.58154,28.91616 -15.0785,-28.02722 13.70489,28.83228 -14.60065,-29.08922 14.88979,28.93731 -14.15066,-30.0748 13.54193,29.79323 -14.1116,-28.19932 12.60342,29.05846 -12.46336,-28.75464 11.8917,28.71546 -11.95201,-29.29235 11.37681,29.89815 -12.74371,-29.62405 10.57488,29.84408 -9.29901,-29.96831 9.19111,30.98701 -9.94895,-31.83349 8.21619,32.21573 -8.34949,-31.68127 8.58136,31.96998 -9.73895,-31.51681 7.73333,31.67465 -8.26427,-31.72087 7.39581,32.26744 -7.01807,-31.29984 5.65147,31.02665 -6.38349,-31.54687 6.45176,30.73601 -6.37386,-31.4962 4.48011,32.31185 -5.51168,-32.52106 4.78166,32.83201 -4.90411,-32.43401 3.8717,33.09898 -3.36482,-32.63545 2.86247,31.24693 -3.18478,-31.5264 3.2911,32.12121 -4.62154,-30.84394 2.89176,30.77704 -2.4862,-31.57252 1.3829,31.81772 -1.80613,-31.31738 1.61342,30.89788 -1.40671,-30.53531 -0.6246,31.17574 0.20256,-31.53875 -1.60423,30.81421 1.90943,-30.62634 -2.00341,30.79046 0.57199,-30.77761 -1.77406,31.8978 1.25483,-33.56456 -1.24916,33.13853 1.65367,-32.10875 -3.28479,32.15042 3.06303,-31.89085 -3.76547,31.68029 4.26974,-32.66072 -5.49992,32.97715 4.27002,-32.54488 -5.00314,31.17708 4.98112,-31.26706 -7.07352,31.05768 6.14022,-30.69312 -6.17307,31.93893 6.25184,-32.00015 -7.72099,30.30821 7.08849,-30.10061 -8.15599,29.70728 8.53585,-29.72216 -9.00535,29.71812 8.67235,-31.05182 -8.54336,32.04692 7.48437,-31.48524 -9.31954,31.29669 10.29567,-32.10137 -10.80228,30.97273 9.13512,-30.15827 -10.67969,30.09128 10.32043,-30.99038 -10.05595,30.54272 9.89474,-30.72455 -12.57174,29.35757 13.4387,-28.52986 -13.41265,29.59649 11.91676,-29.87247 -12.9271,28.33017 13.46704,-28.13664 -13.37905,28.31823 12.48161,-27.9995 -13.42925,27.40812 14.56793,-28.04887 -16.9814,27.04353 16.6829,-27.76221 -17.46927,28.81117 17.37151,-28.65361 -17.6865,26.8269 16.15369,-26.38533 -17.03104,25.60636 17.6318,-25.84185 -17.48451,26.92795 16.7495,-27.25791 -17.34066,26.28423 17.17772,-26.96242 -18.40422,25.29686 18.36842,-25.61296 -19.02465,25.83923 18.46275,-25.82922 -19.75366,25.16084 20.51645,-24.61554 -20.41186,23.40751 19.57083,-25.15826 -21.639,25.59784 20.53883,-24.97887 -20.29869,23.19937 21.5327,-23.2394 -22.73722,23.45536 21.42726,-24.24776 -21.76452,23.64 21.96254,-24.24692 -22.83351,24.20315 23.53045,-23.22672 -25.26831,21.53004 23.52234,-22.54199 -23.03426,21.45752 22.79471,-22.0358 -23.26999,22.28155 23.53148,-21.32088 -24.24432,21.04705 25.00318,-22.33242 -25.85431,20.75423 25.27879,-20.29722 -25.25868,18.66579 24.35432,-19.61032 -25.38224,20.34933 25.9046,-19.54833 -26.75802,18.55021 25.94435,-19.83628 -26.13694,18.3899 26.83214,-17.24744 -27.06272,15.95537 25.51179,-16.6936 -26.40868,15.64965 26.46572,-16.78309 -27.49905,17.28901 28.78338,-16.49061 -28.27221,15.1119 27.69135,-14.8496 -29.32865,13.34264 29.14883,-13.97517 -28.15915,13.97743 28.67734,-14.59531 -29.17919,12.83361 28.36189,-13.49884 -29.51361,13.00958 29.29542,-13.07807 -29.47422,12.16127 29.85712,-12.90342 -29.77519,13.25688 28.19244,-13.29819 -28.8739,12.23652 30.55244,-12.11854 -31.98005,10.61958 30.38879,-11.39562 -30.54792,9.81499 30.86404,-9.71379 -29.65164,10.23251 30.46638,-9.92993 -30.92703,7.60895 29.49824,-7.39453 -30.80542,6.89675 31.08249,-7.40986 -31.71875,5.78508 32.59721,-7.17415 -32.27251,7.03362 31.91311,-7.17034 -32.05379,5.50467 32.49378,-4.61936 -32.37049,5.19954 30.74626,-6.09176 -31.09007,5.1923 32.63039,-6.61269 -32.71193,4.33339 31.37679,-2.80644 -30.99805,3.08429 31.27376,-4.6497 -31.4571,2.91907 31.32323,-2.69125 -32.25519,1.0245 32.09079,-2.10496 -32.28058,1.65802 32.61882,-0.58611 -31.91563,-0.76696 31.11511,0.2684 -30.58183,-0.35319 32.31756,-1.19532 -33.4562,-0.0974 32.21943,0.60519 -31.15905,-1.65883 32.25684,0.94089 -33.49873,-2.45373 33.4615,2.11533 -32.50624,-3.14033 32.43847,3.33014 -31.94618,-2.86401 31.47081,1.74205 -31.59785,-2.51764 30.79693,3.21218 -31.51806,-3.99995 32.33928,3.12797 -31.68784,-5.48482 32.38328,6.44705 -32.38154,-6.8715 31.74025,6.60887 -32.30254,-7.97502 32.36175,6.46046 -31.55356,-7.71741 32.21058,7.86433 -32.24831,-8.31707 31.77027,7.82204 -30.43769,-7.96151 30.55734,8.72171 -30.70124,-9.34713 30.69496,8.27109 -29.66475,-9.9151 29.14799,9.01273 -29.59259,-10.78007 29.77426,10.30352 -30.15694,-11.22288 30.21261,11.15253 -28.4981,-11.00283 29.05238,11.74757 -29.73656,-13.60321 29.9112,12.15182 -28.59925,-11.49808 28.61569,11.63192 -29.80354,-13.58208 30.42112,13.65691 -28.785,-14.39239 28.06542,13.65042 -27.09563,-14.49901 26.97529,14.14942 -27.74631,-14.76096 29.23435,15.44492 -28.96569,-15.88206 28.208,15.91107 -26.41237,-17.58144 26.2537,17.59666 -25.86057,-18.26194 27.21115,16.83145 -26.7561,-17.50862 25.86083,17.66559 -26.36829,-18.59476 26.88127,17.93277 -25.39461,-18.18447 24.77159,18.71818 -25.3561,-19.07712 26.05923,18.31252 -24.84418,-20.79976 25.22061,20.42556 -24.97098,-19.85405 25.84516,19.07072 -25.63584,-20.74073 25.1758,21.29462 -23.46456,-21.92364 23.50211,22.06859 -23.66731,-22.89965 24.20424,22.79433 -23.79527,-22.54202 23.90804,22.1389 -21.70299,-23.76505 21.40281,22.95622 -21.469,-22.50711 21.56897,22.23339 -20.13652,-24.16503 21.64578,23.63846 -22.38803,-24.03144 21.55141,24.24633 -19.78645,-24.54284 20.25998,25.49341 -19.13166,-25.1601 19.19367,24.02834 -18.3027,-24.86561 19.6747,24.67293 -19.421,-26.5122 19.35697,26.85512 -18.6006,-27.34767 17.92497,27.62989 -17.73589,-26.78088 18.0979,25.79343 -17.72077,-26.99323 18.7541,27.11822 -16.89629,-28.25698 16.49511,27.64731 -15.11773,-28.48024 15.01475,29.23631 -15.6386,-28.68483 15.83567,27.90381 -14.5513,-28.21456 15.0483,27.52887 -13.5757,-29.11904 14.47332,29.33131 -14.86145,-28.39429 15.2305,27.55213 -12.68722,-28.25892 12.14685,28.68933 -12.47424,-29.34522 12.33418,29.0414 -11.76255,-29.20547 11.92182,28.794 -9.64017,-28.90978 11.00893,30.42662 -10.6757,-30.64666 11.13458,29.76506 -10.92779,-30.34301 9.95088,30.35972 -8.21805,-30.33546 10.08613,30.83403 -8.58139,-32.17324 7.90338,31.72006 -7.63438,-30.8274 8.16529,30.67037 -7.29686,-31.42019 6.91915,30.65584 -5.65147,-31.02665 6.48244,30.55851 -6.45178,-30.93924 6.37388,31.69944 -4.10728,-31.33917 5.13882,31.34514 -4.7798,-31.04109 5.00121,31.49032 -4.69805,-32.05142 4.09222,30.74065 -2.76349,-32.03204 2.98684,33.29986 -1.45547,-31.91795 2.88487,31.48793 -2.89173,-32.40939 2.48806,31.52784 -1.38479,-31.97629 1.80615,33.35622 0.22404,-32.77814 -0.52971,31.56834 -0.004,-30.6758 0.5249,31.88605 1.50526,-33.49706 0.0251,33.10594 0.2668,-31.57557 -0.67095,31.76597 1.77404,-32.10105 -1.25486,31.52572 3.08482,-32.73204 -3.58823,33.0971 3.48264,-32.69802 -3.16192,33.28569 3.76544,-31.88353 -2.43411,31.02837 3.5653,-32.39529 -4.26999,32.74813 5.10212,-31.96219 -4.97926,31.22239 6.97271,-30.02466 -6.04126,31.54037 6.07408,-32.98942 -6.25181,32.20339 7.81994,-31.29656 -7.08852,31.73297 8.05706,-32.18689 -8.53398,31.51309 9.10244,-30.6618 -8.67235,31.05182 10.37896,-30.21132 -9.32,31.28199 10.42775,-31.23749 -9.6672,29.56258 9.06561,-30.32874 -9.23405,31.34987 10.77865,-31.07964 -10.3186,30.74247 11.88971,-30.2948 -11.73033,30.72455 12.50301,-29.50323 -13.46899,29.25737 13.54186,-29.68 -11.94695,29.37413 12.85836,-28.47583 -13.49729,29.06741 15.34383,-28.605 -14.34744,29.13351 15.19615,-29.18613 -14.49919,30.03013 14.4486,-28.32159 -14.1501,27.20466 15.56493,-27.12122 -15.56613,27.95203 15.98008,-27.11367 -16.28287,26.67209 17.06124,-26.94362 -17.66207,26.77262 19.3504,-25.81986 -18.51636,27.40355 19.1075,-26.63313 -18.67066,25.80442 18.03133,-24.84045 -17.89658,26.00378 20.38844,-26.0268 -20.1994,24.84087 19.65654,-24.42041 -18.4848,24.5191 20.21398,-24.89875 -21.3762,25.85985 21.70772,-23.61659 -20.60755,22.99762 22.10406,-23.90096 -22.13097,24.44094 21.49989,-22.8213 -21.29807,23.96099 21.73428,-24.34158 -22.03126,24.10126 22.80325,-23.27239 -21.56564,23.1432 22.67506,-22.37568 -22.76472,23.18439 22.9051,-20.9675 -22.76447,20.90178 23.33871,-20.30029 -23.6002,21.17522 24.31304,-20.9014 -23.2363,20.35118 23.99034,-19.6649 -25.1515,19.85188 26.96513,-20.01138 -26.1597,20.31191 25.45098,-18.36807 -25.87438,18.41431 27.86617,-18.8975 -27.0525,20.18358 26.13694,-18.38991 -25.09552,18.03256 27.06274,-17.58773 -27.24843,17.54085 26.50761,-16.84126 -26.56465,17.9747 27.49905,-17.28901 -27.04674,17.47896 26.90843,-16.75993 -27.96528,16.15327 28.5023,-14.13068 -28.52039,14.90433 30.06347,-13.83178 -28.54812,14.51179 28.95105,-15.22969 -30.1673,13.99719 29.68133,-11.81344 -29.36417,12.72917 29.44402,-12.65961 -28.11865,13.64386 29.97127,-13.15007 -30.12703,12.24769 28.87387,-10.60416 -28.61782,11.53667 29.94654,-10.47846 -30.38883,11.19237 30.54793,-9.81499 -30.86401,9.91703 31.5862,-9.38526 -30.46638,9.92993 30.1996,-9.58861 -30.7054,8.32369 30.90627,-7.72653 -31.08436,9.29014 31.84794,-7.90745 -30.89083,7.25767 30.46717,-6.12878 -32.04229,7.4571 32.18298,-5.79143 -30.68842,5.75336 30.56513,-6.33354 -30.7765,5.39017 31.12027,-2.85836 -30.92397,3.22826 30.90656,-3.6318 -31.30804,4.99094 30.99802,-3.28754 -31.27372,3.01735 31.4571,-2.91907 -31.42037,3.43168 32.25337,-2.61217 -31.99184,2.9522 31.55313,-2.00532 -31.99036,1.71852 31.91567,-0.8654 -31.01619,2.2112 32.51639,-0.63516 -32.41649,0.55132 31.6206,0.0974 -32.12047,0.24206 32.79671,1.59668 -32.15785,-1.72599 31.56417,1.60648 -31.62593,-0.48298 30.67067,1.50799 -30.50392,-2.4829 31.8472,3.64912 -33.20745,-2.73041 31.62807,3.21923 -30.92609,-2.72217 31.54824,4.29505 -32.27052,-4.61467 31.71995,6.34498 -30.48081,-6.25672 30.47721,6.72584 -31.77047,-5.47486 32.2338,5.99377 -32.29305,-6.51805 31.5838,8.419 -30.50417,-7.57756 30.51167,7.32871 -31.77025,-7.61879 32.1762,8.90519 -32.29585,-7.8298 30.70124,9.34714 -29.68573,-9.26239 30.4911,10.70315 -31.08252,-9.65673 29.69154,9.79171 -29.87321,-11.15075 30.2559,12.07012 -30.21262,-11.15253 30.23475,11.99118 -30.78902,-10.90032 29.63754,12.34947 -29.88098,-13.28583 30.50364,13.88583 -30.52001,-13.61318 29.77331,14.71609 -30.39093,-13.15857 28.85373,12.70245 -28.13417,-13.99932 29.00001,15.05116 -28.87961,-14.29508 27.84524,15.40496 -27.49768,-14.25332 27.6019,16.06964 -28.67982,-16.09864 28.34694,16.59308 -28.18826,-16.60831 27.79513,17.27358 -27.21119,-17.03469 26.75608,17.30537 -27.69638,-17.2591 26.2712,17.70285 -26.88313,-17.88809 26.57152,20.02166 -25.84955,-19.70813 25.32587,20.21113 -26.029,-19.44653 24.715,19.25092 -25.08957,-18.9214 24.83994,20.18549 -25.71597,-19.35748 25.60561,20.03914 -25.14561,-20.79628 23.43437,21.4253 -23.47191,-21.57025 23.63708,22.19806 -24.17399,-21.88949 23.66609,22.82879 -23.87781,-21.43732 22.87989,21.93106 -22.48076,-22.11059 21.43874,23.43788 -21.5387,-23.16415 21.84479,22.57152 -21.51848,-22.2482 20.42327,24.52145 -21.42225,-24.73634 19.75625,24.0445 -20.32874,-24.00671 20.93706,24.66175 -21.02927,-24.02834 20.23726,25.71285 -21.13745,-25.33259 18.94916,26.12137 -18.88513,-26.46429 z"
           inkscape:randomized="0.02"
           inkscape:rounded="0"
           inkscape:flatsided="false"
           sodipodi:arg2="0.97"
           sodipodi:arg1="0.96"
           sodipodi:r2="13.77"
           sodipodi:r1="45.889999"
           sodipodi:cy="533.31"
           sodipodi:cx="743.71997"
           sodipodi:sides="300"
           id="path3906"
           sodipodi:type="star"
           transform="matrix(1,0,0,1.1079878,-417.85714,-55.422923)"
           clip-path="url(#clipPath4415)" />
        <circle
           r="19.700001"
           cy="529.27002"
           cx="326.03"
           id="path7999"
           style="fill:#000000;fill-rule:evenodd;stroke:#000000" />
        <ellipse
           ry="17.68"
           rx="19.190001"
           cy="532.29999"
           cx="744.72998"
           id="path8001"
           transform="matrix(1,0,0,1.0488539,-2,-24.868509)"
           style="fill:#000000;fill-rule:evenodd;stroke:#000000" />
        <path
           style="fill:url(#linearGradient3976)"
           d="m 473.39,496.25 c 5.54,-0.54 28.75,-25.36 28.39,-40.18 -0.36,-14.82 -9.46,-35.89 -9.64,-40.18 -0.18,-4.29 1.61,33.93 -0.71,39.29 -2.32,5.36 -12.5,-32.68 -11.61,-36.61 0.89,-3.93 -4.11,22.68 -1.43,28.75 2.68,6.07 -6.61,-15.18 -9.82,-16.25 -3.21,-1.07 -5.71,3.39 -7.14,0.71 -1.43,-2.68 -5.54,-16.25 -5.18,-17.68 0.36,-1.43 -1.79,17.14 -0.18,20.36 1.61,3.21 -8.93,-2.32 -11.61,-15.71 -2.68,-13.39 -0.89,27.32 -2.86,27.5 -1.96,0.18 -10.18,-20.36 -6.79,-22.14 3.39,-1.79 -11.43,18.39 -7.86,22.86 3.57,4.46 -8.04,-16.25 -10.89,-16.25 -2.86,0 0.71,12.68 -3.21,16.61 -3.93,3.93 -8.93,-21.25 -10.36,-21.43 -1.43,-0.18 -0.89,21.61 -2.5,22.5 -1.61,0.89 -13.39,-24.29 -13.39,-25.89 0,-1.61 -5,7.86 -5,10.18 0,2.32 -20,-13.75 -20.54,-13.04 -0.54,0.71 -5.71,19.82 -5.54,23.04 0.18,3.21 -7.68,-15.54 -6.79,-17.32 0.89,-1.79 -9.82,13.21 -6.25,17.68 3.57,4.46 -38.04,-8.93 -37.14,-13.93 0.89,-5 -9.29,13.04 -10.89,13.04 -1.61,0 -17.5,-9.82 -16.79,-12.86 0.71,-3.04 0.18,14.11 -2.5,12.5 -2.68,-1.61 -13.04,-9.64 -13.04,-11.07 0,-1.43 -4.29,13.57 -5.36,12.5 -1.07,-1.07 -17.68,-2.14 -20.71,-8.04 -3.04,-5.89 -3.75,2.5 -2.14,4.29 1.61,1.79 11.79,7.68 11.79,7.68 0,0 -24.46,-2.86 -22.86,-13.04 1.61,-10.18 8.21,14.46 14.64,16.61 6.43,2.14 -30.36,-0.89 -32.32,-10.36 -1.96,-9.46 1.43,12.32 1.43,12.32 0,0 -15.36,-9.64 -17.68,-15.71 -2.32,-6.07 5,16.25 6.43,16.96 1.43,0.71 -8.21,3.93 -8.04,6.07 0.18,2.14 3.93,7.32 3.93,7.32 0,0 -0.36,-9.29 6.79,-8.21 7.14,1.07 7.14,15.89 5.18,17.32 -1.96,1.43 18.57,-3.21 23.39,-6.07 4.82,-2.86 32.5,-7.86 40.54,-6.43 8.04,1.43 61.07,14.82 64.64,14.82 3.57,0 30.54,4.29 40.54,3.39 10,-0.89 34.11,-1.96 38.04,-4.64 3.93,-2.68 22.5,-3.39 27.14,-1.25 4.64,2.14 18.57,14.11 23.57,15.36 5,1.25 12.32,4.64 12.32,4.64 z"
           id="path8004"
           inkscape:connector-curvature="0" />
        <path
           style="fill:url(#linearGradient3978)"
           d="m 583.11,477.25 c 0,0 -19.19,-22.48 -16.16,-35.36 3.03,-12.88 9.34,-29.8 7.32,-34.09 -2.02,-4.29 7.07,7.83 7.07,10.1 0,2.27 4.8,-23.49 1.77,-26.52 -3.03,-3.03 15.15,25.25 18.44,24.5 3.28,-0.76 0.76,-18.44 0.76,-18.44 0,0 10.35,15.66 10.35,18.94 0,3.28 4.55,-13.64 3.54,-16.16 -1.01,-2.53 8.08,9.85 8.08,12.88 0,3.03 5.81,-14.9 4.04,-16.41 -1.77,-1.52 7.58,18.18 5.3,21.72 -2.27,3.54 10.61,-6.31 10.61,-13.13 0,-6.82 3.03,-11.62 3.03,-11.62 0,0 1.01,14.65 4.29,16.92 3.28,2.27 15.15,-13.13 15.15,-13.13 0,0 -2.78,16.67 -1.01,17.93 1.77,1.26 14.39,-21.97 14.39,-21.97 0,0 1.26,13.64 1.01,14.9 -0.25,1.26 14.14,-18.18 14.14,-18.18 0,0 -8.59,23.99 -6.82,23.99 1.77,0 20.71,-20.71 20.71,-20.71 0,0 -11.36,19.95 -8.33,20.46 3.03,0.51 10.61,-14.65 10.61,-14.65 0,0 0.25,16.16 5.81,15.66 5.56,-0.51 21.97,-12.63 22.48,-17.43 0.51,-4.8 0.76,14.65 4.55,14.39 3.79,-0.25 7.32,-9.09 5.81,-14.14 -1.52,-5.05 5.56,3.54 5.56,5.81 0,2.27 4.04,-9.6 2.78,-12.37 -1.26,-2.78 5.3,13.38 7.07,13.89 1.77,0.51 2.27,-12.88 2.27,-12.88 0,0 5.56,17.43 9.85,16.67 4.29,-0.76 16.67,-19.7 16.67,-19.7 0,0 -7.32,14.9 -2.02,19.19 5.3,4.29 17.17,-9.34 17.17,-9.34 0,0 -10.35,15.15 -4.8,15.91 5.56,0.76 12.88,-20.71 12.88,-20.71 0,0 -3.03,22.98 -0.25,22.98 2.78,0 8.59,-12.88 8.59,-12.88 0,0 0.76,9.85 3.28,9.09 2.53,-0.76 13.13,-28.54 13.13,-28.54 0,0 -8.59,32.83 -6.57,33.08 2.02,0.25 6.82,-8.33 6.82,-8.33 0,0 -2.02,8.84 0,8.84 2.02,0 12.12,-22.48 12.12,-22.48 0,0 -7.07,31.31 -12.37,33.59 -5.3,2.27 10.61,-5.3 13.13,-11.36 2.53,-6.06 -3.79,15.91 -3.79,15.91 l 10.61,-13.64 c 0,0 -5.81,15.91 -3.54,16.67 2.27,0.76 9.34,-16.67 9.34,-16.67 0,0 -6.82,21.97 -4.55,21.97 2.27,0 12.63,-15.15 12.37,-17.43 -0.25,-2.27 -4.55,19.19 -8.33,20.2 -3.79,1.01 11.36,-0.76 13.64,5.05 2.27,5.81 -9.09,-4.8 -20.2,-1.01 -11.11,3.79 -27.78,-2.02 -34.09,-3.28 -6.31,-1.26 -28.28,-7.32 -34.09,-6.06 -5.81,1.26 -22.48,-3.54 -31.82,1.77 -9.34,5.3 -10.1,14.14 -28.28,17.93 -18.18,3.79 -45.46,1.77 -56.06,-5.05 -10.61,-6.82 -17.68,-6.57 -22.98,-2.02 -5.3,4.55 -15.15,-0.25 -20.2,2.53 -5.05,2.78 -5.56,5.3 -14.14,8.59 -8.59,3.28 -11.87,1.52 -17.68,4.55 -5.81,3.03 -18.44,9.09 -18.44,9.09 z"
           id="path8006"
           inkscape:connector-curvature="0" />
        <path
           d="m 693.57,463.57 39.64,1.43 c 0,0 -21.43,-5.36 -36.43,-2.14 -15,3.21 -34.29,9.29 -50.36,22.14 -16.07,12.86 -38.57,17.5 -50.71,12.5 -12.14,-5 -11.07,-7.5 -11.79,-5.36 -0.71,2.14 12.86,25 27.5,20 14.64,-5 65.36,-42.14 81.07,-43.93 15.71,-1.79 32.5,0.71 1.07,-4.64 z"
           id="path3888"
           inkscape:connector-curvature="0"
           style="fill:#000000;fill-opacity:0.13999999" />
        <path
           style="fill:#d7966b"
           d="m 844.99,562.86 c 0,0 23.74,-1.26 25,7.32 1.26,8.59 -20.2,99.5 -69.2,105.81 -48.99,6.31 -118.95,-15.91 -140.16,-33.59 -21.21,-17.68 -57.33,-17.43 -49.75,-23.99 7.58,-6.57 75.26,-2.02 84.6,1.77 9.34,3.79 34.85,13.38 56.57,11.11 21.72,-2.27 57.07,-18.94 72.23,-44.7 15.15,-25.76 20.71,-23.74 20.71,-23.74 z"
           id="path3895"
           inkscape:connector-curvature="0" />
        <path
           style="fill:#d7966b"
           d="m 227.54,596.44 c 0,0 -12.37,-6.06 -18.94,-3.79 -6.57,2.27 -27.27,14.65 -7.07,34.85 20.2,20.2 80.81,50.51 111.12,49.24 30.3,-1.26 88.89,-19.7 107.33,-35.1 18.44,-15.4 4.29,-29.04 -0.76,-28.28 -5.05,0.76 -31.31,17.68 -76.77,15.66 -45.46,-2.02 -99.5,-22.98 -114.9,-32.58 z"
           id="path3897"
           inkscape:connector-curvature="0" />
      </g>
      <g
         transform="matrix(3.3396592,0,0,3.3396592,-334.36371,80.38184)"
         id="g1131">
        <g
           inkscape:label="BG"
           id="layer1-3"
           transform="translate(0,-32.41665)"
           style="display:none">
          <rect
             style="opacity:1;fill:#ffffff;fill-opacity:1;stroke:none;stroke-width:11.60810661;stroke-miterlimit:4;stroke-dasharray:none;stroke-opacity:1"
             id="rect5606"
             width="264.58334"
             height="264.58334"
             x="0"
             y="32.416653" />
        </g>
        <g
           id="layer3-0"
           inkscape:label="Jacket"
           style="display:inline">
          <path
             sodipodi:nodetypes="czsscccsscszcc"
             style="fill:#000000;fill-opacity:1;fill-rule:evenodd;stroke:none;stroke-width:0.26458332px;stroke-linecap:butt;stroke-linejoin:miter;stroke-opacity:1"
             d="m -25.152267,275.36288 c 0,0 16.7760412,-59.43136 25.152267,-71.44973 8.3762258,-12.01837 2.9399648,-4.00905 9.3544333,-7.75082 6.4144687,-3.74177 10.9580507,-6.1472 18.4415957,-10.15624 7.483549,-4.00904 16.837983,-10.69078 19.243408,-14.16528 2.405425,-3.47451 30.201457,-23.25245 30.201457,-23.25245 l 116.262236,11.49258 c 0,0 0.53455,3.47451 3.74178,4.54359 3.20723,1.06908 6.94901,0.80181 14.43255,4.00904 7.48355,3.20724 10.69078,8.55263 15.76891,10.69078 5.07811,2.13816 23.78698,12.56167 27.26149,15.50164 3.4745,2.93996 1.78634,-3.09866 9.87546,9.35443 8.08912,12.45309 25.15227,71.18246 25.15227,71.18246 z"
             id="path4796"
             inkscape:connector-curvature="0" />
        </g>
        <g
           id="layer4-8"
           inkscape:label="Face"
           style="display:inline">
          <path
             style="fill:#b3b3b3;fill-opacity:1;fill-rule:evenodd;stroke:none;stroke-width:0.26458332px;stroke-linecap:butt;stroke-linejoin:miter;stroke-opacity:1"
             d="m 62.808339,110.36881 c 0,0 -4.009044,10.69078 -4.009044,17.37252 0,6.68174 6.1472,29.39965 11.49259,30.46873 5.34539,1.06908 5.879931,-5.34539 5.879931,-5.34539 0,0 -1.33635,25.65787 8.285353,39.82316 9.621705,14.16528 41.159511,37.685 62.006531,36.88319 20.84702,-0.80181 45.70309,-45.16855 47.84124,-70.02461 2.13816,-24.85607 -0.78113,-19.88421 -0.59214,-27.06576 0.18898,-7.18154 3.02381,-16.06398 0.75595,-21.16666 -2.26786,-5.10268 -20.78869,-16.541549 -33.07292,-17.108509 -12.28422,-0.566966 -48.59681,-3.304513 -65.227752,6.900839 -16.630951,10.20536 -26.491878,16.25482 -33.359739,9.26249 z"
             id="path4799"
             inkscape:connector-curvature="0"
             sodipodi:nodetypes="csscsssssssc" />
        </g>
        <g
           id="layer5-4"
           inkscape:label="Beard"
           style="display:inline">
          <path
             style="fill:url(#linearGradient4893);fill-opacity:1;fill-rule:evenodd;stroke:none;stroke-width:0.99999994px;stroke-linecap:butt;stroke-linejoin:miter;stroke-opacity:1"
             d="m 335.71484,402.25082 -52.14257,22.43789 c 0,0 14.2857,148.88245 10,177.45387 -4.28573,28.57145 -13.57172,43.57173 12.14257,97.85742 25.71428,54.28569 73.57007,109.28489 100.71289,111.42773 27.14287,2.14288 86.42969,122.85743 131.42969,122.85743 45,0 99.99891,-49.28599 108.57031,-87.85743 8.57144,-38.57143 20.00029,-52.85603 37.85743,-78.57031 17.85717,-25.71428 42.14256,-111.25084 47.85686,-147.6794 5.71427,-36.4286 5.64831,-71.78958 5.64831,-71.78958 0,0 -16.36235,92.32528 -28.50517,115.89672 -12.14287,23.5714 -22.85743,42.14257 -22.85743,42.14257 0,0 -4.2843,-61.42857 -80.71289,-65 C 529.2863,637.85631 512.85715,638.57229 475,673.57227 c -37.85715,35.00001 -45,43.57031 -45,43.57031 0,0 -52.14286,3.57171 -70,-72.14258 -17.85714,-75.71429 -44.28626,-111.42856 -35.71484,-150 8.57143,-38.57144 11.42968,-92.74918 11.42968,-92.74918 z M 592.8577,685.71401 c 21.42198,0.53112 55.71458,2.85823 65.71457,12.85826 10.00002,9.99998 6.42826,31.42802 -12.85743,49.28515 -19.28572,17.85717 -46.42828,24.28571 -47.14257,10 -0.7143,-14.28571 -2.14454,-18.21484 -2.14454,-18.21484 0,0 -11.78572,1.42803 -22.5,0.53515 -10.71428,-0.89287 -28.75,-5 -28.75,-5 0,0 -2.85688,26.07281 -12.14257,29.28711 -9.28574,3.21427 -69.28571,-3.57251 -69.46429,-28.03682 0,0 20.71431,-42.85741 40.71429,-45.00029 20.00001,-2.14284 66.96541,-6.24943 88.57254,-5.71372 z"
             transform="scale(0.26458333)"
             id="path4802"
             inkscape:connector-curvature="0"
             sodipodi:nodetypes="ccssssssscscsscsscsssscscscss" />
        </g>
        <g
           id="layer14"
           inkscape:label="Hat Shadow">
          <path
             style="fill:#000000;fill-opacity:1;fill-rule:evenodd;stroke:none;stroke-width:0.26458332px;stroke-linecap:butt;stroke-linejoin:miter;stroke-opacity:1"
             d="m 63.877417,119.85688 c 0,0 6.681737,-2.93996 17.506153,-4.14268 10.824416,-1.20271 15.635266,-6.68173 25.65787,-9.75533 10.02261,-3.0736 30.3351,-6.280836 50.51395,-5.07812 20.17884,1.20271 34.07686,5.74629 36.34865,9.88897 2.27179,4.14268 -0.26727,15.63526 -0.26727,15.63526 0,0 6.01356,-7.75081 7.34991,-14.03164 1.33635,-6.28084 -20.03991,-20.538627 -44.09947,-20.713393 -55.19116,-0.400903 -88.466212,23.920613 -93.009793,28.196933 z"
             id="path4897"
             inkscape:connector-curvature="0"
             sodipodi:nodetypes="csssscssc" />
        </g>
        <g
           id="layer6-5"
           inkscape:label="Mouth" />
        <g
           id="layer7-0"
           inkscape:label="Nose">
          <path
             style="fill:#4e4e4e;fill-opacity:1;fill-rule:evenodd;stroke:none;stroke-width:0.26458332px;stroke-linecap:butt;stroke-linejoin:miter;stroke-opacity:1"
             d="m 113.18864,185.07065 c 2.40543,-0.40091 26.59332,-22.71791 26.59332,-22.71791 0,0 1.86461,4.05128 3.61276,4.75998 1.74814,0.70871 5.33891,0.0945 7.22879,0.23624 1.88988,0.14174 4.29948,1.93712 6.09487,2.26785 1.79538,0.33073 7.0398,0.85044 8.92969,-0.47247 1.88988,-1.32292 3.16555,-4.06324 3.16555,-4.06324 -5.46331,4.63281 -8.10188,3.56014 -10.81957,2.97656 -3.04871,-1.69812 -1.32292,-3.35454 -4.86645,-4.67745 -3.54353,-1.32292 -7.51228,3.35453 -9.68564,1.93712 -2.17336,-1.41741 -3.1183,-5.85863 -1.88988,-7.51227 1.22842,-1.65365 4.39397,-3.77976 4.48847,-4.44122 0.0945,-0.66146 -0.51972,-1.37017 -0.51972,-1.37017 0,0 -2.22061,1.13393 -4.91369,4.06325 -2.69308,2.92931 -25.4021,26.56094 -27.4185,29.01373 z"
             id="path4813"
             inkscape:connector-curvature="0"
             sodipodi:nodetypes="ccssssccsssscsc" />
          <path
             style="fill:#4e4e4e;fill-opacity:1;fill-rule:evenodd;stroke:none;stroke-width:0.26458332px;stroke-linecap:butt;stroke-linejoin:miter;stroke-opacity:1"
             d="m 169.85305,164.65588 c 0,0 2.59859,-1.55916 2.64583,-4.34673 0.0472,-2.78758 -1.88988,-4.8192 -2.03162,-6.70908 -0.14174,-1.88988 0.0472,-3.07105 0.0472,-3.07105 0,0 1.41741,5.62239 3.07105,8.83519 1.65365,3.2128 -0.33073,4.81919 1.32292,7.37053 1.65365,2.55134 7.46503,4.29948 7.65402,6.75633 0.18899,2.45684 0.7087,8.92969 0.14174,9.73289 -0.56696,0.80319 -2.17336,-7.9375 -6.23661,-10.48884 -4.06324,-2.55134 0.0472,-2.78758 -3.2128,-5.57515 -3.26004,-2.78758 -3.40178,-2.50409 -3.40178,-2.50409 z"
             id="path4815"
             inkscape:connector-curvature="0" />
        </g>
        <g
           id="layer8-5"
           inkscape:label="Bags" />
        <g
           id="layer10-8"
           inkscape:label="Eyes Light">
          <path
             style="fill:#d4d4d4;fill-opacity:1;fill-rule:evenodd;stroke:none;stroke-width:0.26458332px;stroke-linecap:butt;stroke-linejoin:miter;stroke-opacity:1"
             d="m 121.18862,130.68527 c 0,0 1.60639,0.18899 2.12611,-0.61422 0.51972,-0.80319 0.51972,-1.46465 0.51972,-1.46465 0,0 2.58573,1.99337 4.24323,2.74221 1.54056,0.28106 2.965,-0.57171 4.09893,-1.98912 1.13393,-1.41741 2.61915,-3.16269 2.61915,-3.16269 0,0 2.56174,2.06438 2.69308,3.40179 0.14796,1.50666 -0.75595,3.16554 -0.75595,3.16554 0,0 -5.85863,0.47248 -9.49666,-0.18898 -3.63802,-0.66146 -6.04761,-1.88988 -6.04761,-1.88988 z"
             id="path4828"
             inkscape:connector-curvature="0"
             sodipodi:nodetypes="csccscscsc" />
          <path
             style="fill:#d4d4d4;fill-opacity:1;fill-rule:evenodd;stroke:none;stroke-width:0.26458332px;stroke-linecap:butt;stroke-linejoin:miter;stroke-opacity:1"
             d="m 177.08184,133.23661 c 0,0 2.38598,0.47246 4.4176,0.42522 2.03162,-0.0473 6.7327,-2.31511 6.7327,-2.31511 l -5.59877,-4.15774 z"
             id="path4835"
             inkscape:connector-curvature="0" />
        </g>
        <path
           style="fill:#a5a5a5;fill-opacity:1;fill-rule:evenodd;stroke:none;stroke-width:0.26458332px;stroke-linecap:butt;stroke-linejoin:miter;stroke-opacity:1"
           d="m 136.63839,185.7753 c 0,0 4.86644,6.47284 14.88281,6.85081 10.01637,0.37798 18.09561,-6.42559 18.09561,-6.42559 0,0 -10.29985,3.16555 -16.01674,3.02381 -5.71689,-0.14174 -16.96168,-3.44903 -16.96168,-3.44903 z"
           id="path4810"
           inkscape:connector-curvature="0" />
        <path
           style="fill:#4e4e4e;fill-opacity:1;fill-rule:evenodd;stroke:none;stroke-width:0.26458332px;stroke-linecap:butt;stroke-linejoin:miter;stroke-opacity:1"
           d="m 144.72645,135.49215 c 0,0 -5.07812,5.74629 -8.38558,7.28309 -3.30746,1.5368 -11.59282,0.56795 -13.0628,-1.1693 -1.46998,-1.73725 -1.73725,-2.17156 -1.73725,-2.17156 0,0 6.21401,1.03566 10.55714,-0.0668 4.34313,-1.10249 9.2208,-6.21402 12.62849,-3.87541 z"
           id="path4818"
           inkscape:connector-curvature="0" />
        <path
           style="fill:#4e4e4e;fill-opacity:1;fill-rule:evenodd;stroke:none;stroke-width:0.26458332px;stroke-linecap:butt;stroke-linejoin:miter;stroke-opacity:1"
           d="m 169.78297,133.35399 c 0,0 4.74403,5.07812 10.22305,5.07812 5.47903,0 6.8822,-2.47224 6.8822,-2.47224 0,0 0.73499,8.01809 -5.21176,8.88671 -5.94675,0.86863 -13.49711,-5.47902 -11.89349,-11.49259 z"
           id="path4820"
           inkscape:connector-curvature="0" />
        <g
           id="layer9-6"
           inkscape:label="Eyes Dark"
           style="display:inline">
          <path
             style="fill:#2e2e2e;fill-opacity:1;fill-rule:evenodd;stroke:none;stroke-width:0.26458332px;stroke-linecap:butt;stroke-linejoin:miter;stroke-opacity:1"
             d="m 135.83974,132.41855 c 0,0 1.67043,-1.60362 1.26953,-3.14042 -0.40091,-1.5368 -2.40543,-2.60587 -2.40543,-2.60587 0,0 -2.87315,4.94448 -5.41221,5.14493 -2.53906,0.20046 -4.54358,-2.27179 -4.54358,-2.27179 0,0 -1.00226,0.80181 -2.93996,0.80181 -1.93771,0 -3.34087,-1.60362 -3.34087,-1.60362 0,0 6.68173,-5.87993 16.1698,-5.61266 9.48807,0.26727 17.57298,4.2095 17.57298,4.2095 0,0 -8.95354,7.61718 -16.37026,5.07812 z"
             id="path4823"
             inkscape:connector-curvature="0" />
          <path
             style="fill:#2e2e2e;fill-opacity:1;fill-rule:evenodd;stroke:none;stroke-width:0.26458332px;stroke-linecap:butt;stroke-linejoin:miter;stroke-opacity:1"
             d="m 192.90178,127.00634 c 0,0 -3.60814,4.6104 -7.61718,5.54584 -4.00905,0.93545 -3.0736,0.13364 -3.0736,0.13364 0,0 2.73951,-1.33635 2.53906,-2.40542 -0.20045,-1.06908 -1.73725,-2.13816 -1.73725,-2.13816 0,0 -1.73726,4.87767 -4.14268,5.21175 -2.40543,0.33409 -8.0849,-2.00452 -8.0849,-2.00452 0,0 4.6104,-5.4122 10.28987,-5.94675 5.67948,-0.53453 9.62171,0.0668 11.82668,1.60362 z"
             id="path4825"
             inkscape:connector-curvature="0" />
        </g>
        <g
           id="layer11"
           inkscape:label="Brows"
           style="display:inline">
          <path
             style="fill:#1d1d1d;fill-opacity:1;fill-rule:evenodd;stroke:none;stroke-width:0.26458332px;stroke-linecap:butt;stroke-linejoin:miter;stroke-opacity:1"
             d="m 126.52753,119.0625 c 0,0 4.34673,-1.41741 7.46503,-0.37798 3.1183,1.03944 8.69345,6.04762 12.28422,6.89807 3.59078,0.85044 8.69346,0.28348 10.39435,-1.41741 1.70089,-1.7009 4.06324,-8.12649 4.06324,-8.12649 0,0 -3.02381,5.76414 -6.42559,5.00818 -3.40179,-0.75595 -7.18155,-5.48065 -12.85119,-6.89806 -5.66964,-1.41741 -12.18973,1.5119 -14.93006,4.91369 z"
             id="path4831"
             inkscape:connector-curvature="0" />
          <path
             style="fill:#1d1d1d;fill-opacity:1;fill-rule:evenodd;stroke:none;stroke-width:0.26458332px;stroke-linecap:butt;stroke-linejoin:miter;stroke-opacity:1"
             d="m 188.8936,120.6689 c 0,0 1.03943,-3.40179 -5.95313,-4.25223 -6.99256,-0.85045 -15.30803,8.12648 -17.76488,8.50446 -2.45684,0.37798 2.55134,-7.65402 2.55134,-7.65402 0,0 -6.23661,5.57515 -5.95312,7.46503 4.56489,7.33004 22.31932,-3.04628 27.11979,-4.06324 z"
             id="path4833"
             inkscape:connector-curvature="0"
             sodipodi:nodetypes="cssccc" />
        </g>
        <g
           id="layer12"
           inkscape:label="Glasses">
          <g
             id="g4869">
            <path
               inkscape:connector-curvature="0"
               id="path4851"
               d="m 155.14996,135.09125 c 0,0 3.14042,-3.10701 6.28083,-3.10701 3.14042,0 5.71289,2.67269 5.71289,2.67269 l 0.50113,-1.00226 c 0,0 -2.63929,-2.53906 -5.94675,-2.53906 -3.30746,0 -6.78196,2.87315 -6.78196,2.87315 z"
               style="fill:#808080;fill-opacity:1;fill-rule:evenodd;stroke:none;stroke-width:0.26458332px;stroke-linecap:butt;stroke-linejoin:miter;stroke-opacity:1" />
            <path
               inkscape:connector-curvature="0"
               id="path4855"
               d="m 201.85531,131.01538 3.94222,-0.50112 -10.59055,-14.06506 0.10022,-0.86863 13.36348,15.80231 -0.10023,2.10475 -5.14493,-0.0334 z"
               style="fill:#808080;fill-opacity:1;fill-rule:evenodd;stroke:none;stroke-width:0.26458332px;stroke-linecap:butt;stroke-linejoin:miter;stroke-opacity:1" />
            <path
               inkscape:connector-curvature="0"
               id="path4840"
               transform="scale(0.26458333)"
               d="m 512.54102,458.43359 a 72.983518,47.477168 3.9614883 0 0 -70.92969,42.56055 72.983518,47.477168 3.9614883 0 0 69.52929,52.4043 72.983518,47.477168 3.9614883 0 0 76.0879,-42.32032 72.983518,47.477168 3.9614883 0 0 -69.5293,-52.40624 72.983518,47.477168 3.9614883 0 0 -5.1582,-0.23829 z m 0.13867,3.4961 a 67.622911,43.989989 3.9614883 0 1 4.77929,0.2207 67.622911,43.989989 3.9614883 0 1 64.42188,48.55664 67.622911,43.989989 3.9614883 0 1 -70.5,39.21289 67.622911,43.989989 3.9614883 0 1 -64.42188,-48.55664 67.622911,43.989989 3.9614883 0 1 65.72071,-39.43359 z"
               style="fill:#808080;fill-opacity:1;fill-rule:evenodd;stroke:none;stroke-width:0.99999994px;stroke-linecap:butt;stroke-linejoin:miter;stroke-opacity:1" />
            <path
               inkscape:connector-curvature="0"
               id="ellipse4842"
               transform="scale(0.26458333)"
               d="m 700.93555,471.06055 a 72.983518,47.477168 3.9614883 0 0 -70.93164,42.56054 72.983518,47.477168 3.9614883 0 0 69.52929,52.4043 72.983518,47.477168 3.9614883 0 0 76.08985,-42.32031 72.983518,47.477168 3.9614883 0 0 -69.5293,-52.40625 72.983518,47.477168 3.9614883 0 0 -5.1582,-0.23828 z m 0.11718,2.99609 a 68.38871,44.488159 3.9614883 0 1 4.83399,0.22461 68.38871,44.488159 3.9614883 0 1 65.15234,49.10547 68.38871,44.488159 3.9614883 0 1 -71.29883,39.6582 68.38871,44.488159 3.9614883 0 1 -65.15234,-49.10742 68.38871,44.488159 3.9614883 0 1 66.46484,-39.88086 z"
               style="fill:#808080;fill-opacity:1;fill-rule:evenodd;stroke:none;stroke-width:0.99999994px;stroke-linecap:butt;stroke-linejoin:miter;stroke-opacity:1" />
            <path
               inkscape:connector-curvature="0"
               id="path4853"
               d="m 118.7679,128.17565 -5.07813,0.0334 -25.858323,-16.23662 -0.701582,1.26953 24.822655,17.20548 5.71289,0.26727 z"
               style="display:inline;fill:#808080;fill-opacity:1;fill-rule:evenodd;stroke:none;stroke-width:0.26458332px;stroke-linecap:butt;stroke-linejoin:miter;stroke-opacity:1" />
          </g>
        </g>
        <g
           id="layer13"
           inkscape:label="Hat"
           style="display:inline">
          <path
             style="fill:#2974d7;fill-opacity:1;fill-rule:evenodd;stroke:none;stroke-width:0.26458332px;stroke-linecap:butt;stroke-linejoin:miter;stroke-opacity:1"
             d="m 64.066964,120.00744 c 0,0 -10.016371,-1.51191 -8.315475,-12.28423 1.700892,-10.772319 3.968749,-10.772319 3.77976,-16.441961 C 59.34226,85.611606 56.696427,67.846725 61.421131,58.964284 66.145832,50.081843 91.659225,8.693452 129.83482,8.693452 c 38.17559,0 55.94048,32.127975 63.31101,47.624999 7.37054,15.497024 11.71726,39.687499 11.71726,49.703869 0,10.01637 -10.58333,18.89881 -10.58333,18.89881 0,0 7.9375,-9.26042 3.40179,-13.79613 -4.53572,-4.53572 -12.47322,-14.552085 -41.01042,-14.552085 -28.5372,0 -81.264881,13.607145 -92.604166,23.434525 z"
             id="path4877"
             inkscape:connector-curvature="0" />
        </g>
        <g
           id="layer15"
           inkscape:label="Hat Detail">
          <path
             style="fill:#256bc6;fill-opacity:1;fill-rule:evenodd;stroke:none;stroke-width:0.26458332px;stroke-linecap:butt;stroke-linejoin:miter;stroke-opacity:1"
             d="m 64.918563,118.07008 c -4.463334,-3.02579 -5.76529,-42.85282 -4.442373,-47.199546 1.322917,-4.346726 14.74107,-28.915177 14.74107,-28.915177 0,0 -13.985118,42.900295 -11.339285,53.105653 2.645833,10.20536 15.497024,9.82738 15.119048,0.566965 C 78.619047,86.367558 76.729166,70.114582 79.941964,59.153273 83.15476,48.191964 97.13988,25.891368 97.13988,25.891368 c 0,0 -11.906249,30.805059 -9.449405,48.191964 2.456846,17.386906 19.087795,17.764882 20.788695,6.425594 1.70089,-11.339284 0.75595,-31.372023 3.21279,-40.254461 2.45685,-8.882441 8.31548,-21.166668 8.31548,-21.166668 0,0 -6.23661,51.782737 3.2128,55.940476 9.4494,4.157737 20.41071,-22.300596 18.14285,-33.450892 -2.26785,-11.150298 -4.53571,-22.111608 -4.53571,-22.111608 0,0 14.74107,26.647321 13.41815,36.663691 -1.32291,10.016368 5.29167,25.891368 11.33929,20.977678 6.04762,-4.913691 10.01637,-13.229167 7.9375,-23.623511 -2.07887,-10.394347 -14.17411,-28.537203 -14.17411,-28.537203 0,0 18.70982,14.741072 22.67857,33.450891 3.96875,18.709823 3.2128,30.427086 7.55953,29.860121 4.34672,-0.566965 1.70089,-16.819941 -0.56697,-26.458333 -2.26785,-9.638393 -7.37053,-22.111607 -7.37053,-22.111607 0,0 21.35565,39.49851 21.16666,48.191964 -0.18898,8.693451 4.65593,26.730976 -1.74281,21.146036 -14.98536,-13.079493 -29.12513,-12.616339 -43.48823,-12.616339 -14.36309,0 -56.303665,4.500309 -88.665867,21.660919 z"
             id="path4883"
             inkscape:connector-curvature="0"
             sodipodi:nodetypes="cscssscssscsscssscssscsssc" />
        </g>
      </g>
    </g>
  </g>
  <g
     inkscape:groupmode="layer"
     id="layer18"
     inkscape:label="Part"
     style="display:inline" />
  <g
     inkscape:groupmode="layer"
     id="layer4"
     inkscape:label="Artist Name">
    <text
       xml:space="preserve"
       style="font-style:normal;font-variant:normal;font-weight:600;font-stretch:normal;font-size:5.66111326px;line-height:0%;font-family:Museo;-inkscape-font-specification:'Museo, Semi-Bold';text-align:start;letter-spacing:0px;word-spacing:0px;writing-mode:lr-tb;text-anchor:start;fill:#ffffff;fill-opacity:1;stroke:none;stroke-width:0.40025875px;stroke-linecap:butt;stroke-linejoin:miter;stroke-opacity:1"
       x="95.299515"
       y="78.908638"
       id="text4158"><tspan
         sodipodi:role="line"
         x="95.299515"
         y="78.908638"
         style="font-style:normal;font-variant:normal;font-weight:600;font-stretch:normal;font-size:20.7042923px;line-height:100%;font-family:Museo;-inkscape-font-specification:'Museo, Semi-Bold';text-align:start;writing-mode:lr-tb;text-anchor:start;fill:#ffffff;fill-opacity:1;stroke-width:0.40025875px"
         id="tspan4755">Mike Keneally</tspan><tspan
         sodipodi:role="line"
         x="95.299515"
         y="99.61293"
         style="font-style:normal;font-variant:normal;font-weight:600;font-stretch:normal;font-size:20.7042923px;line-height:100%;font-family:Museo;-inkscape-font-specification:'Museo, Semi-Bold';text-align:start;writing-mode:lr-tb;text-anchor:start;fill:#ffffff;fill-opacity:1;stroke-width:0.40025875px"
         id="tspan4869">Gary Green</tspan><tspan
         sodipodi:role="line"
         x="95.299515"
         y="120.31722"
         style="font-style:normal;font-variant:normal;font-weight:600;font-stretch:normal;font-size:20.7042923px;line-height:100%;font-family:Museo;-inkscape-font-specification:'Museo, Semi-Bold';text-align:start;writing-mode:lr-tb;text-anchor:start;fill:#ffffff;fill-opacity:1;stroke-width:0.40025875px"
         id="tspan4871">Kerry Minnear</tspan><tspan
         sodipodi:role="line"
         x="95.299515"
         y="141.02151"
         style="font-style:normal;font-variant:normal;font-weight:600;font-stretch:normal;font-size:20.7042923px;line-height:100%;font-family:Museo;-inkscape-font-specification:'Museo, Semi-Bold';text-align:start;writing-mode:lr-tb;text-anchor:start;fill:#ffffff;fill-opacity:1;stroke-width:0.40025875px"
         id="tspan4873">Malcolm Mortimore</tspan></text>
  </g>
  <g
     inkscape:groupmode="layer"
     id="layer6"
     inkscape:label="WEIRD">
    <path
       style="opacity:1;fill:#ffffff;fill-opacity:1;stroke:none;stroke-width:17.2258606;stroke-miterlimit:4;stroke-dasharray:none;stroke-opacity:1"
       d="M 245.3457 602.625 L 245.3457 672.625 L 495.3457 672.625 L 495.3457 602.625 L 245.3457 602.625 z M 254.20703 613.5 L 258.08398 613.5 C 261.48345 613.5 263.18217 614.17987 263.99805 617.44336 L 271.4082 648.31055 C 272.02011 650.89414 272.36133 653.41016 272.36133 653.41016 L 272.49609 653.41016 C 272.49609 653.41016 272.90446 650.96213 273.65234 648.31055 L 283.30664 613.63477 L 289.42578 613.63477 L 298.40039 648.31055 C 299.08028 650.96213 299.41992 653.41016 299.41992 653.41016 L 299.55664 653.41016 C 299.55664 653.41016 299.8295 650.89414 300.44141 648.31055 L 307.98828 617.44336 C 308.80415 614.17987 310.43452 613.5 313.83398 613.5 L 317.70898 613.5 L 317.70898 619.3457 L 316.68945 619.3457 C 315.46565 619.3457 314.71885 619.61799 314.37891 620.8418 L 303.83984 661.5 L 295.95312 661.5 L 287.79492 631.17773 C 286.97905 628.05022 286.43555 624.58203 286.43555 624.58203 L 286.29883 624.58203 C 286.29883 624.58203 285.61824 628.04985 284.73438 631.10938 L 276.0332 661.5 L 268.07812 661.5 L 257.53906 620.8418 C 257.19912 619.61799 256.45232 619.3457 255.22852 619.3457 L 254.20703 619.3457 L 254.20703 613.5 z M 326.5 613.5 L 354.7168 613.5 C 357.77632 613.5 359.06641 614.79204 359.06641 617.85156 L 359.06641 623.90234 L 352.88086 623.90234 L 352.88086 620.8418 C 352.88086 619.82196 352.33662 619.3457 351.38477 619.3457 L 337.71875 619.3457 L 337.71875 634.37305 L 354.51172 634.37305 L 354.51172 640.21875 L 337.71875 640.21875 L 337.71875 654.15625 C 337.71875 655.1081 338.26299 655.65234 339.21484 655.65234 L 353.2207 655.65234 C 354.17255 655.65234 354.7168 655.1081 354.7168 654.15625 L 354.7168 651.09766 L 360.9707 651.09766 L 360.9707 657.14844 C 360.9707 660.20796 359.67866 661.5 356.61914 661.5 L 335.27148 661.5 C 332.21196 661.5 330.91992 660.20796 330.91992 657.14844 L 330.91992 619.3457 L 326.5 619.3457 L 326.5 613.5 z M 370.41406 613.5 L 386.25586 613.5 L 386.25586 619.3457 L 381.56445 619.3457 L 381.56445 655.65234 L 386.25586 655.65234 L 386.25586 661.5 L 370.41406 661.5 L 370.41406 655.65234 L 375.10547 655.65234 L 375.10547 619.3457 L 370.41406 619.3457 L 370.41406 613.5 z M 396.6543 613.5 L 417.5957 613.5 C 426.02638 613.5 431.94141 618.80359 431.94141 627.57422 C 431.94141 635.59696 426.70611 639.53923 423.30664 640.28711 L 423.30664 640.42383 C 423.30664 640.42383 424.52983 641.03585 425.3457 642.59961 L 431.125 654.08984 C 431.80489 655.51762 432.89365 655.65234 434.52539 655.65234 L 435.4082 655.65234 L 435.4082 661.5 L 432.07812 661.5 C 428.33871 661.5 426.97782 661.02399 425.41406 657.89648 L 418.88672 644.97852 C 417.66291 642.73487 416.78049 642.39453 414.12891 642.39453 L 407.87305 642.39453 L 407.87305 661.5 L 401.07422 661.5 L 401.07422 619.3457 L 396.6543 619.3457 L 396.6543 613.5 z M 443.75 613.5 L 463.19531 613.5 C 477.81302 613.5 487.4668 622.27002 487.4668 637.43164 C 487.4668 652.66125 477.81302 661.5 463.19531 661.5 L 452.51953 661.5 C 449.46001 661.5 448.16992 660.20796 448.16992 657.14844 L 448.16992 619.3457 L 443.75 619.3457 L 443.75 613.5 z M 407.87305 619.3457 L 407.87305 636.54883 L 416.71094 636.54883 C 421.87813 636.54883 424.9375 633.21686 424.9375 627.8457 C 424.9375 622.47455 421.87887 619.3457 416.84766 619.3457 L 407.87305 619.3457 z M 454.96875 619.3457 L 454.96875 654.15625 C 454.96875 655.1081 455.51299 655.65234 456.46484 655.65234 L 462.71875 655.65234 C 473.39308 655.65234 480.39648 649.26179 480.39648 637.43164 C 480.39648 625.66949 473.32509 619.3457 462.71875 619.3457 L 454.96875 619.3457 z "
       transform="scale(0.26458334)"
       id="rect4172" />
  </g>
  <g
     inkscape:groupmode="layer"
     id="layer7"
     inkscape:label="MAKE">
    <text
       xml:space="preserve"
       style="font-style:normal;font-variant:normal;font-weight:normal;font-stretch:normal;line-height:0%;font-family:Museo;-inkscape-font-specification:'Museo, Normal';text-align:start;letter-spacing:0px;word-spacing:0px;writing-mode:lr-tb;text-anchor:start;fill:#ffffff;fill-opacity:1;stroke:none;stroke-width:0.26458335px;stroke-linecap:butt;stroke-linejoin:miter;stroke-opacity:1"
       x="10.690782"
       y="175.02188"
       id="text4175"><tspan
         sodipodi:role="line"
         id="tspan4177"
         x="10.690782"
         y="175.02188"
         style="font-style:normal;font-variant:normal;font-weight:normal;font-stretch:normal;font-size:17.99166679px;line-height:100%;font-family:Museo;-inkscape-font-specification:'Museo, Normal';text-align:start;letter-spacing:1.32291675px;writing-mode:lr-tb;text-anchor:start;fill:#ffffff;fill-opacity:1;stroke-width:0.26458335px">MAKE</tspan></text>
  </g>
  <g
     inkscape:groupmode="layer"
     id="layer8"
     inkscape:label="MUSIC">
    <text
       xml:space="preserve"
       style="font-style:normal;font-variant:normal;font-weight:normal;font-stretch:normal;line-height:0%;font-family:Museo;-inkscape-font-specification:'Museo, Normal';text-align:start;letter-spacing:0px;word-spacing:0px;writing-mode:lr-tb;text-anchor:start;fill:#ffffff;fill-opacity:1;stroke:none;stroke-width:0.26458335px;stroke-linecap:butt;stroke-linejoin:miter;stroke-opacity:1"
       x="134.21758"
       y="174.80598"
       id="text4180"><tspan
         sodipodi:role="line"
         id="tspan4182"
         x="134.21758"
         y="174.80598"
         style="font-style:normal;font-variant:normal;font-weight:normal;font-stretch:normal;font-size:17.99166679px;line-height:100%;font-family:Museo;-inkscape-font-specification:'Museo, Normal';text-align:start;writing-mode:lr-tb;text-anchor:start;fill:#ffffff;fill-opacity:1;stroke-width:0.26458335px">MUSIC</tspan></text>
  </g>
</svg>
