<?xml version="1.0" encoding="UTF-8" standalone="no"?>
<!-- Created with Inkscape (http://www.inkscape.org/) -->

<svg
   xmlns:dc="http://purl.org/dc/elements/1.1/"
   xmlns:cc="http://creativecommons.org/ns#"
   xmlns:rdf="http://www.w3.org/1999/02/22-rdf-syntax-ns#"
   xmlns:svg="http://www.w3.org/2000/svg"
   xmlns="http://www.w3.org/2000/svg"
   xmlns:sodipodi="http://sodipodi.sourceforge.net/DTD/sodipodi-0.dtd"
   xmlns:inkscape="http://www.inkscape.org/namespaces/inkscape"
   width="1000"
   height="1000"
   viewBox="0 0 264.58333 264.58334"
   version="1.1"
   id="svg8"
   inkscape:version="0.92.1 r15371"
   sodipodi:docname="marco-machera.svg"
   inkscape:export-filename="C:\Users\Anthony Garone\Documents\GitHub\art\marco-machera\marco-machera.png"
   inkscape:export-xdpi="96"
   inkscape:export-ydpi="96">
  <defs
     id="defs2" />
  <sodipodi:namedview
     id="base"
     pagecolor="#ffffff"
     bordercolor="#666666"
     borderopacity="1.0"
     inkscape:pageopacity="0.0"
     inkscape:pageshadow="2"
     inkscape:zoom="0.7"
     inkscape:cx="497.7372"
     inkscape:cy="534.97081"
     inkscape:document-units="px"
     inkscape:current-layer="layer1"
     showgrid="false"
     units="px"
     showguides="true"
     inkscape:guide-bbox="true"
     inkscape:window-width="1920"
     inkscape:window-height="1017"
     inkscape:window-x="-8"
     inkscape:window-y="-8"
     inkscape:window-maximized="1"
     inkscape:snap-global="true">
    <sodipodi:guide
       position="264.58334,264.58334"
       orientation="1,0"
       id="guide10"
       inkscape:locked="false"
       inkscape:label=""
       inkscape:color="rgb(0,0,255)" />
    <sodipodi:guide
       position="0,0"
       orientation="1,0"
       id="guide12"
       inkscape:locked="false"
       inkscape:label=""
       inkscape:color="rgb(0,0,255)" />
    <sodipodi:guide
       position="264.58334,264.58334"
       orientation="0,1"
       id="guide14"
       inkscape:locked="false"
       inkscape:label=""
       inkscape:color="rgb(0,0,255)" />
    <sodipodi:guide
       position="0,0"
       orientation="0,1"
       id="guide16"
       inkscape:locked="false"
       inkscape:label=""
       inkscape:color="rgb(0,0,255)" />
  </sodipodi:namedview>
  <metadata
     id="metadata5">
    <rdf:RDF>
      <cc:Work
         rdf:about="">
        <dc:format>image/svg+xml</dc:format>
        <dc:type
           rdf:resource="http://purl.org/dc/dcmitype/StillImage" />
        <dc:title></dc:title>
      </cc:Work>
    </rdf:RDF>
  </metadata>
  <g
     inkscape:label="BG"
     inkscape:groupmode="layer"
     id="layer1"
     transform="translate(0,-32.41665)"
     style="display:none">
    <rect
       id="rect4493"
       width="264.58334"
       height="264.58334"
       x="0"
       y="32.416641"
       style="fill:#fff8f3;fill-opacity:1;stroke-width:0.26458332" />
  </g>
  <g
     inkscape:groupmode="layer"
     id="layer3"
     inkscape:label="Body">
    <path
       style="fill:#000000;stroke:none;stroke-width:0.26458332px;stroke-linecap:butt;stroke-linejoin:miter;stroke-opacity:1;fill-opacity:1"
       d="m 88.98725,193.356 c 0,0 -15.501636,9.62171 -19.377043,14.03165 -3.875408,4.40995 -14.165284,16.30344 -20.178847,19.10977 -6.013567,2.80633 -12.027131,8.95353 -15.501634,17.63979 -3.474505,8.68626 -5.34539,20.44612 -5.34539,20.44612 H 264.58334 c 0,0 -9.22081,-29.53328 -12.29442,-42.49585 -3.07359,-12.96258 -9.48807,-38.35318 -18.17432,-42.76313 -8.68626,-4.40995 -17.37252,-13.49711 -34.6114,-5.74629 -17.23889,7.75081 -38.22747,-5.3303 -38.22747,-5.3303 z"
       id="path4619"
       inkscape:connector-curvature="0"
       sodipodi:nodetypes="cssscccsscc" />
    <path
       style="display:inline;fill:#808080;stroke:none;stroke-width:0.26458332px;stroke-linecap:butt;stroke-linejoin:miter;stroke-opacity:1"
       d="m 112.90787,190.81694 c 0,0 8.15172,9.88897 8.28535,12.96257 0.13364,3.0736 0,4.27632 0,4.27632 0,0 19.91159,-13.22984 27.52877,-21.78247 7.61718,-8.55263 11.35895,-15.23436 12.42803,-16.03617 1.06908,-0.80181 2.93996,-0.26727 2.93996,-0.26727 0,0 -0.13363,-4.54358 -3.8754,-7.21628 -3.74178,-2.6727 -7.61718,-6.94901 -8.95353,-11.35895 -1.33635,-4.40995 -1.33635,-6.54811 -1.33635,-6.54811 z"
       id="path4609"
       inkscape:connector-curvature="0" />
    <path
       style="display:inline;fill:#666666;stroke:none;stroke-width:0.26458332px;stroke-linecap:butt;stroke-linejoin:miter;stroke-opacity:1"
       d="m 91.65994,175.58258 c 0,0 1.20271,8.55262 -0.53454,12.82893 -1.73725,4.27632 -2.27179,5.21176 -2.27179,5.21176 0,0 8.95353,4.67722 11.22532,8.68626 2.27179,4.00904 5.07812,6.68174 5.07812,6.68174 0,0 -1.20271,-4.94449 1.46999,-10.42351 2.67269,-5.47903 5.21175,-7.75082 5.21175,-7.75082 z"
       id="path4611"
       inkscape:connector-curvature="0" />
  </g>
  <g
     inkscape:groupmode="layer"
     id="layer2"
     inkscape:label="Head">
    <path
       style="fill:#1a1a1a;stroke:none;stroke-width:0.26499999;stroke-linecap:butt;stroke-linejoin:miter;stroke-miterlimit:4;stroke-dasharray:none;stroke-opacity:1"
       d="m 153.80246,129.55134 c 0,-7.55953 1.22842,-25.79688 0.18899,-34.017859 -1.03944,-8.220982 -3.87426,-33.261905 -8.69345,-40.915923 -4.8192,-7.654017 -19.84375,-28.631696 -27.68676,-31.561011 -7.84301,-2.929316 -7.84301,-6.803571 -7.84301,-6.803571 0,0 -3.40178,4.44122 -12.18973,4.630208 -8.78794,0.188988 -26.300705,-1.793458 -37.515286,12.226092 -6.887416,8.610083 -13.586996,23.222606 -10.941163,32.38853 2.645834,9.165923 14.060617,44.493264 14.060617,44.493264 0,0 -4.630208,-2.07887 -4.346726,3.30729 0.283483,5.38616 6.236608,13.89062 7.087055,16.63095 0.850445,2.74033 2.83482,11.2448 6.425594,12.18974 3.590779,0.94493 2.078869,0.37797 2.078869,0.37797 0,0 2.64583,8.12649 4.25223,10.39435 1.6064,2.26785 2.36235,3.40178 2.36235,3.40178 0,0 -2.26785,2.45685 0.28349,7.18155 2.55134,4.7247 9.63839,12.18973 11.24479,14.64658 1.6064,2.45684 2.55134,3.96875 2.55134,3.96875 0,0 0.18899,-1.13393 1.13393,-0.47247 0.94494,0.66146 2.83482,5.19717 4.7247,6.3311 1.88988,1.13393 6.52009,2.55134 7.37053,3.87425 0.85045,1.32292 0.85045,1.7009 0.85045,1.7009 0,0 0.0945,-1.79539 1.79539,-0.85045 1.70089,0.94494 2.92931,2.92931 2.92931,2.92931 0,0 0.66146,-3.1183 2.55134,-3.0238 1.88988,0.0945 2.36235,1.32291 2.36235,1.32291 0,0 2.26786,-5.95312 4.44122,-5.95312 2.17337,0 4.91369,-4.63021 5.85863,-4.15774 0.94494,0.47247 0.56697,2.26786 0.56697,2.26786 0,0 2.36235,-3.59078 2.83482,-6.23661 0.47247,-2.64583 7.18155,-10.20536 7.84301,-13.13467 0.66145,-2.92932 2.83482,-2.55134 2.83482,-2.55134 0,0 -0.85045,-0.47247 0.56696,-2.36235 1.41741,-1.88988 8.50447,-16.15849 9.16592,-20.03274 0.66146,-3.87426 0.85045,-12.18973 0.85045,-12.18973 z"
       id="path4575"
       inkscape:connector-curvature="0"
       sodipodi:nodetypes="ccsscssscssccccsccssccscscsscsccscc" />
    <path
       style="fill:#666666;stroke:none;stroke-width:0.26499999;stroke-linecap:butt;stroke-linejoin:miter;stroke-miterlimit:4;stroke-dasharray:none;stroke-opacity:1"
       d="m 83.02642,157.61607 c 0,0 -3.96875,-4.91369 -5.10268,-7.18155 -1.13393,-2.26786 -2.645833,-7.46503 -3.49628,-10.96131 -0.850445,-3.49628 -3.496279,-17.57589 -3.496279,-17.57589 0,0 4.724699,21.63914 6.047619,24.47396 1.32292,2.83482 5.76414,9.73288 6.04762,11.24479 z"
       id="path4577"
       inkscape:connector-curvature="0" />
    <path
       style="fill:#666666;stroke:none;stroke-width:0.26499999;stroke-linecap:butt;stroke-linejoin:miter;stroke-miterlimit:4;stroke-dasharray:none;stroke-opacity:1"
       d="m 74.569202,142.11905 c 0,0 -2.976562,-0.23624 -3.638021,-1.32292 -0.661458,-1.08668 -2.882069,-4.44122 -3.496281,-7.03981 -0.614209,-2.59859 -0.944938,-3.9215 -1.511903,-5.24442 -0.566965,-1.32292 -2.740329,-5.29166 -2.740329,-5.29166 0,0 3.401788,4.96093 3.921503,7.0398 0.519719,2.07887 2.55134,3.40179 2.976563,5.14993 0.425225,1.74814 0.377978,4.77195 2.4096,5.48065 2.031621,0.70871 2.078868,1.22843 2.078868,1.22843 z"
       id="path4579"
       inkscape:connector-curvature="0" />
    <path
       style="fill:#cccccc;stroke:none;stroke-width:0.26499999;stroke-linecap:butt;stroke-linejoin:miter;stroke-miterlimit:4;stroke-dasharray:none;stroke-opacity:1"
       d="m 149.9282,124.40141 c -0.51971,-2.92931 -3.54352,-19.32403 -1.37016,-22.25335 2.17336,-2.929311 7.03981,-7.22879 9.92188,-5.433405 2.88206,1.795389 4.15773,9.827385 3.54352,12.945685 -0.61421,3.1183 -1.93712,9.92187 -2.97656,13.13467 -1.03944,3.2128 -3.02381,7.03981 -5.33891,6.70908 -2.31511,-0.33073 -3.3073,-3.02381 -3.77977,-5.10268 z"
       id="path4555"
       inkscape:connector-curvature="0" />
    <path
       style="fill:#1a1a1a;stroke:none;stroke-width:0.26499999;stroke-linecap:butt;stroke-linejoin:miter;stroke-miterlimit:4;stroke-dasharray:none;stroke-opacity:1"
       d="m 152.38505,105.26637 c 0,0 3.30729,-8.220985 6.23661,-6.094868 2.92931,2.126118 0.89769,13.512648 0.89769,13.512648 0,0 0.75595,-17.434151 -7.1343,-7.41778 z"
       id="path4557"
       inkscape:connector-curvature="0" />
    <path
       style="fill:#1a1a1a;stroke:none;stroke-width:0.26499999;stroke-linecap:butt;stroke-linejoin:miter;stroke-miterlimit:4;stroke-dasharray:none;stroke-opacity:1"
       d="m 150.68416,112.25893 c -0.14174,-0.8977 0.0945,-3.82701 1.22842,-3.11831 1.13393,0.70871 3.44903,7.1343 2.12611,6.80357 -1.32291,-0.33073 -3.0238,-2.64583 -3.35453,-3.68526 z"
       id="path4559"
       inkscape:connector-curvature="0" />
    <path
       style="fill:#cccccc;stroke:none;stroke-width:0.26500002;stroke-linecap:butt;stroke-linejoin:miter;stroke-miterlimit:4;stroke-dasharray:none;stroke-opacity:1"
       d="m 114.63881,51.224264 c -1.28912,0.0047 -2.62907,0.121438 -4.01991,0.369485 -14.835557,2.645834 -13.323876,8.220983 -22.111826,8.598959 -8.78794,0.377975 -18.237497,2.835039 -19.371427,12.189954 -1.133927,9.354907 3.685638,12.094792 3.780132,13.984674 0.09449,1.889884 -2.551489,6.614879 0.47232,6.331397 3.023807,-0.283483 11.250848,-6.086808 16.536459,-4.157885 5.28561,1.928921 6.803281,2.929239 6.897769,6.520016 0.0945,3.590774 2.645828,12.851116 1.322917,15.118976 -1.32292,2.26786 -3.874109,9.54398 2.173516,11.33936 6.04761,1.79539 8.22127,-1.98416 10.30014,-0.37776 2.07887,1.6064 0.47247,3.59048 1.32292,4.25194 0.85045,0.66146 13.22872,5.76442 15.30759,10.9616 2.07887,5.19717 3.11838,17.95366 6.70915,20.22151 3.59077,0.85045 12.18966,-7.08706 13.79606,-17.19792 1.6064,-10.11086 -0.85022,-28.06466 -2.36213,-36.28564 -1.5119,-8.220986 -5.10283,-16.819939 -5.4808,-21.166665 -0.37798,-4.346728 0.28355,-12.56778 -2.55127,-16.631026 -2.56906,-3.682314 -10.26009,-14.116219 -22.72161,-14.070975 z m 2.95848,33.296158 c 1.88699,0.0091 3.97103,0.0812 6.15621,0.05168 6.99256,-0.0945 8.50454,2.173658 10.6779,5.669939 2.17336,3.496276 1.70059,4.913691 -1.03973,2.645833 -2.74033,-2.267857 -5.57492,-2.55171 -7.6538,-1.795756 -2.07886,0.755954 4.15738,0.188915 6.14175,3.87418 1.98438,3.68527 -1.41712,1.039511 -3.59048,-0.566888 -2.17337,-1.606399 -7.46518,-1.417265 -10.77247,0.189134 -3.3073,1.6064 -4.72477,5.574926 -8.03206,5.007962 -2.92932,-2.740326 -2.26771,-9.071353 -0.47233,-12.473138 1.23433,-2.338729 4.43361,-2.622992 8.58501,-2.602942 z m -2.12907,15.466756 c 0.69279,-0.0094 1.49655,0.09663 2.42672,0.365352 4.25223,1.22842 9.26028,1.41778 11.05566,0.47284 1.79539,-0.944943 4.06324,-4.4e-4 2.64583,0.75551 -1.41741,0.75595 -3.02403,1.134 -2.26808,2.7404 0.75595,1.6064 -5.00803,4.81919 -9.73274,3.30729 -4.72469,-1.51191 -4.44136,-3.02373 -5.4808,-3.87418 -1.03944,-0.85044 -2.55126,-7e-5 -2.55126,-1.41748 0.36912,-0.81206 1.43043,-2.31628 3.90467,-2.349732 z"
       id="path4561"
       inkscape:connector-curvature="0" />
    <path
       style="fill:#cccccc;stroke:none;stroke-width:0.26499999;stroke-linecap:butt;stroke-linejoin:miter;stroke-miterlimit:4;stroke-dasharray:none;stroke-opacity:1"
       d="m 88.31808,103.94345 c 0,-1.22842 -5.10267,-2.45684 -7.74851,-1.98437 -2.64583,0.47247 -2.17336,4.7247 -0.28348,4.81919 1.88988,0.0945 6.4256,-1.6064 8.03199,-2.83482 z"
       id="path4563"
       inkscape:connector-curvature="0" />
    <path
       style="fill:#cccccc;stroke:none;stroke-width:0.26499999;stroke-linecap:butt;stroke-linejoin:miter;stroke-miterlimit:4;stroke-dasharray:none;stroke-opacity:1"
       d="m 89.92448,110.08556 c 1.22843,1.13393 -0.28348,7.27605 -0.75595,13.41816 -0.47247,6.14211 -5.29166,17.19791 -6.52009,16.25297 -1.22842,-0.94494 -7.559522,-13.60714 -6.89806,-18.04836 0.66145,-4.44122 4.06324,-7.9375 6.70908,-7.9375 2.64583,0 6.14211,-1.5119 7.46502,-3.68527 z"
       id="path4565"
       inkscape:connector-curvature="0" />
    <path
       style="fill:#b3b3b3;stroke:none;stroke-width:0.26499999;stroke-linecap:butt;stroke-linejoin:miter;stroke-miterlimit:4;stroke-dasharray:none;stroke-opacity:1"
       d="m 98.47532,144.57931 c -0.73499,-1.06907 1.26953,-4.00904 2.47224,-4.00904 1.20271,0 5.14494,-0.66817 7.01582,-1.40316 1.87089,-0.735 4.34313,-2.00453 6.88219,-1.93771 2.53906,0.0668 4.40995,1.73725 6.01357,1.80407 1.60362,0.0668 3.74177,-0.53454 3.20723,0.20045 -0.53454,0.735 -12.36121,4.67722 -16.1698,5.21176 -3.80859,0.53454 -9.08717,0.73499 -9.42125,0.13363 z"
       id="path4571"
       inkscape:connector-curvature="0" />
    <path
       style="fill:#b3b3b3;stroke:none;stroke-width:0.26499999;stroke-linecap:butt;stroke-linejoin:miter;stroke-miterlimit:4;stroke-dasharray:none;stroke-opacity:1"
       d="m 101.68255,133.95535 c -0.60136,0.80181 2.27179,1.9377 3.20723,3.00678 0.93545,1.06908 1.87089,1.93771 3.54133,1.40317 1.67043,-0.53454 2.27179,-2.00452 3.8754,-2.80633 1.60362,-0.80181 3.8086,-0.73499 6.28084,-0.0668 2.47224,0.66817 3.4745,0.60136 2.67269,-0.20045 -0.80181,-0.80181 -2.07134,-2.60588 -6.41447,-2.87315 -4.34313,-0.26727 -5.21175,-0.53454 -5.94674,0.20045 -0.73499,0.73499 -0.53454,1.87089 -2.27179,1.73725 -1.73726,-0.13363 -4.74404,-1.40316 -4.94449,-0.4009 z"
       id="path4573"
       inkscape:connector-curvature="0" />
    <path
       style="fill:#333333;stroke:none;stroke-width:0.26499999;stroke-linecap:butt;stroke-linejoin:miter;stroke-miterlimit:4;stroke-dasharray:none;stroke-opacity:1"
       d="m 103.10888,151.50367 c -1.62887,0.47933 -4.89818,1.53846 -6.92713,0.27621 -1.888,-1.17455 -1.28403,-4.14014 -1.0722,-5.354 -1.98326,0.0664 -4.45187,5.77061 -5.52094,6.57242 l -1.06908,0.80181 c 0,0 2.20497,-0.60135 2.80633,-1.13589 0.60135,-0.53454 0.60135,-0.80181 0.60135,-0.80181 0,0 0.86863,2.00452 0,3.20723 -0.86862,1.20272 -2.20497,3.27405 -1.87088,4.40995 0.33408,1.1359 1.13589,1.40316 1.13589,1.40316 0,0 0.40091,-2.93996 1.73725,-2.87314 1.33635,0.0668 0.66818,5.21175 1.33635,6.81537 0.66818,1.60362 1.5368,2.00452 1.5368,2.00452 0,0 -0.66817,-6.61492 1.5368,-6.5481 2.20497,0.0668 2.20497,3.0736 2.20497,3.0736 0,0 1.93771,-1.26953 3.00679,-0.20045 1.06907,1.06907 0.73499,2.53906 1.80406,4.54358 1.06908,2.00452 2.6727,2.27179 2.6727,2.27179 0,0 -2.33861,-6.41447 -0.66817,-6.28084 1.67043,0.13364 2.13815,4.54359 3.54132,6.28084 1.40316,1.73725 2.40542,1.73725 2.40542,1.73725 0,0 -2.80633,-4.27631 -2.73951,-6.48129 0.0668,-2.20497 5.47903,-2.47224 5.67948,-1.13589 0.20045,1.33635 0.60135,3.34087 0.46772,4.87767 -0.13363,1.5368 -0.73499,3.00678 -0.73499,3.00678 0,0 2.20497,-0.93544 2.67269,-3.67495 0.46773,-2.73952 0,-6.01357 1.33635,-6.01357 1.33635,0 1.5368,1.80407 1.5368,1.80407 0,0 1.60362,-3.94223 3.27405,-3.20724 1.67044,0.735 1.1359,1.46999 1.1359,1.46999 0,0 2.60588,-0.80181 1.20271,-3.67496 -1.40316,-2.87315 -3.87541,-4.67722 -2.93996,-6.81537 0.93544,-2.13816 4.20949,-5.27858 3.4745,-7.01583 -0.73499,-1.73725 -3.60814,-4.47676 -3.60814,-4.47676 0,0 3.27405,4.67721 1.46998,6.41447 -1.80406,1.73725 -7.14946,4.81085 -9.88897,2.13815 -2.73951,-2.67269 -3.54131,-3.20723 -4.81084,-3.00677 -1.26954,0.20045 -2.61931,-0.19236 -3.55476,1.07717 -0.93544,1.26954 -0.026,3.58546 -3.17064,4.51083 z"
       id="path4581"
       inkscape:connector-curvature="0"
       sodipodi:nodetypes="sscccccccccccccsccccccssccscccccscscccs" />
    <path
       style="fill:#666666;stroke:none;stroke-width:0.26499999;stroke-linecap:butt;stroke-linejoin:miter;stroke-miterlimit:4;stroke-dasharray:none;stroke-opacity:1"
       d="m 125.69048,41.104909 c 0,0 1.65365,-0.472469 1.37017,-2.22061 -0.28349,-1.74814 -2.12612,-4.441219 -2.12612,-4.441219 0,0 0.89769,3.212798 0,2.929315 -0.89769,-0.283482 -1.98438,-4.110492 -1.98438,-4.110492 0,0 -1.41741,0.236236 -1.79538,-0.944938 -0.37798,-1.181177 -0.0945,-2.504094 -0.0945,-2.504094 0,0 -0.18899,1.181177 -1.22842,0.330729 -1.03943,-0.850447 -3.87426,-3.921503 -5.95312,-5.008184 -2.07887,-1.086682 -3.40179,-1.133929 -3.92151,-1.889881 -0.51972,-0.755952 -1.03943,-1.606399 -1.03943,-1.606399 0,0 1.41741,4.204985 0.61421,3.921503 -0.8032,-0.283482 -0.85045,-0.661458 -0.85045,-0.661458 0,0 0,1.937128 -0.94494,2.173364 -0.94494,0.236233 -0.94494,0.188986 -0.94494,0.188986 0,0 0.0945,1.889882 -0.89769,2.456847 -0.99219,0.566962 -0.94494,2.504091 -2.22061,2.976562 -1.27567,0.47247 -2.12612,0.566963 -2.17337,-0.472471 -0.0472,-1.039434 0.56697,-3.496279 0.56697,-3.496279 0,0 -0.51972,1.039435 -2.12612,0.661459 -1.60639,-0.377976 -0.47247,-1.795389 -0.47247,-1.795389 0,0 -1.93713,-0.472469 -2.36235,0.04725 -0.42522,0.519718 -2.22061,1.13393 -1.41741,-0.14174 0.8032,-1.27567 2.07887,-1.653646 2.26786,-2.598586 0.18899,-0.944941 0.0473,-1.086682 0.0473,-1.086682 0,0 -0.70871,1.086682 -2.07887,1.133929 -1.37017,0.04725 0.56696,-0.992188 0.7087,-1.464658 0.14174,-0.47247 -0.14174,-1.086682 -0.14174,-1.086682 0,0 -1.13393,1.181176 -3.1183,1.74814 -1.98438,0.566965 -5.19718,0.614212 -6.37835,1.653646 -1.18118,1.039435 -2.36235,3.071056 -2.36235,3.071056 0,0 1.79539,-2.126114 2.26785,-1.984375 0.47248,0.141743 1.51191,0.377976 2.31511,-0.614211 0.8032,-0.992187 5.71689,-2.126116 5.43341,-1.275669 -0.28348,0.850446 -1.03944,1.700894 -1.03944,1.700894 0,0 1.27567,0.236233 0.28348,0.803198 -0.99218,0.566965 -1.98437,0.330729 -1.98437,0.330729 0,0 0.89769,0.330729 0.85045,0.850448 -0.0473,0.519716 -2.07887,0.803198 -2.69308,1.889879 -0.61422,1.086683 -0.61422,1.842635 -0.61422,1.842635 0,0 0.94495,-1.511906 2.69308,-2.078868 1.74814,-0.566965 3.44904,-1.370166 3.44904,-1.370166 0,0 0.18899,1.889881 -1.32292,2.220611 -1.5119,0.330729 -1.84263,2.078868 -1.84263,2.078868 0,0 1.37016,-1.322917 3.26004,-1.370163 1.88988,-0.04725 2.22061,1.370163 2.22061,1.370163 0,0 1.74814,-2.126115 1.93713,-1.41741 0.18899,0.708705 -1.88988,3.307292 -1.6064,4.724701 0.28348,1.417413 0.94494,1.6064 0.94494,1.6064 0,0 0.56697,-2.83482 1.55915,-3.118303 0.99219,-0.283482 0,2.126115 0,2.126115 0,0 0.51972,0.661458 1.03944,-0.425222 0.51972,-1.086681 1.84263,-2.315104 1.22842,-0.803199 -0.61421,1.511904 1.03943,2.031622 1.03943,2.031622 0,0 -0.28348,-2.598587 1.32292,-2.740329 1.6064,-0.14174 1.41741,1.606399 1.41741,1.606399 0,0 1.6064,-1.889879 1.41741,-2.787573 -0.18899,-0.897694 -1.03943,-1.748139 -1.03943,-1.748139 0,0 1.22842,-0.236236 2.92931,0.566962 1.7009,0.803201 1.74814,0.188989 1.74814,0.188989 0,0 -2.3151,-2.456846 -1.13393,-3.260045 1.18118,-0.803198 2.64584,0.803199 2.64584,0.803199 0,0 1.6064,-3.212796 2.3151,-1.795386 0.70871,1.41741 0,2.740326 0,2.740326 0,0 1.41741,-1.181174 1.13393,0.519719 -0.28348,1.700892 0.47247,3.401785 0.47247,3.401785 0,0 1.13393,-3.96875 1.70089,-2.456844 0.56697,1.511903 0.0945,2.882066 0.0945,2.882066 0,0 0.7087,0.377979 1.46466,-0.236233 0.75595,-0.614212 1.74813,-0.661458 1.13392,0.377976 -0.61421,1.039434 -1.37016,1.039434 -1.37016,1.039434 0,0 1.88988,-0.283483 1.74814,0.519718 -0.14174,0.803198 0.8032,1.842633 0.8032,1.842633 0,0 1.98437,-2.456844 2.83482,1.653645 z"
       id="path4583"
       inkscape:connector-curvature="0" />
    <path
       style="fill:#666666;stroke:none;stroke-width:0.26499999;stroke-linecap:butt;stroke-linejoin:miter;stroke-miterlimit:4;stroke-dasharray:none;stroke-opacity:1"
       d="m 80.23884,31.088541 c 0,0 1.74814,-2.315104 2.59859,-3.779763 0.85045,-1.464657 2.55134,-2.36235 2.55134,-2.36235 0,0 -2.78757,1.322916 -3.2128,1.275669 -0.42522,-0.04725 4.20499,-3.496279 4.20499,-3.496279 0,0 -1.08668,0.09449 -2.50409,1.181175 -1.41741,1.086682 -4.53572,1.606399 -4.53572,1.606399 0,0 1.08668,-1.842634 2.36235,-2.078869 1.27567,-0.236235 1.41741,-0.425223 1.41741,-0.425223 0,0 -3.35453,-0.708706 -5.43341,1.228422 -2.07886,1.937128 -2.45684,3.685268 -3.54352,4.724702 -1.086684,1.039436 -3.023809,1.417412 -3.023809,1.417412 0,0 3.496278,0.519716 4.913689,-0.236236 1.41741,-0.755951 3.02381,-2.504093 3.2128,-1.984375 0.18899,0.519719 -1.08668,1.653646 -1.08668,1.653646 0,0 2.3151,-0.566965 2.64583,-1.464656 0.33073,-0.897695 1.6064,-1.606399 -0.56697,2.740326 z"
       id="path4585"
       inkscape:connector-curvature="0" />
    <path
       style="fill:#666666;stroke:none;stroke-width:0.26499999;stroke-linecap:butt;stroke-linejoin:miter;stroke-miterlimit:4;stroke-dasharray:none;stroke-opacity:1"
       d="m 86.80618,52.53869 c 0,0 -1.46466,-0.850447 -2.07887,-3.307291 -0.61421,-2.456847 0.61421,-4.252233 0.61421,-4.252233 0,0 -1.93712,1.842632 -1.70089,4.441219 0.23624,2.598587 -1.55915,3.96875 -1.55915,3.96875 0,0 -1.88988,-0.566962 -2.03162,-2.315104 -0.14174,-1.748139 0.23623,-1.700892 0.23623,-1.700892 0,0 -1.79538,0.236235 -1.08668,3.874256 0.70871,3.638021 4.15774,3.685268 4.15774,3.685268 0,0 -1.65365,-2.55134 -0.51972,-2.409598 1.13393,0.14174 2.36235,2.173362 3.35454,2.126115 0.99219,-0.04725 0.99219,-0.04725 0.99219,-0.04725 0,0 -4.11049,-1.889881 -2.83482,-4.204985 1.27566,-2.315105 0.85044,1.370163 2.45684,0.141742 z"
       id="path4587"
       inkscape:connector-curvature="0" />
  </g>
</svg>
