<?xml version="1.0" encoding="UTF-8" standalone="no"?>
<!-- Created with Inkscape (http://www.inkscape.org/) -->

<svg
   xmlns:dc="http://purl.org/dc/elements/1.1/"
   xmlns:cc="http://creativecommons.org/ns#"
   xmlns:rdf="http://www.w3.org/1999/02/22-rdf-syntax-ns#"
   xmlns:svg="http://www.w3.org/2000/svg"
   xmlns="http://www.w3.org/2000/svg"
   xmlns:sodipodi="http://sodipodi.sourceforge.net/DTD/sodipodi-0.dtd"
   xmlns:inkscape="http://www.inkscape.org/namespaces/inkscape"
   width="1280"
   height="720"
   viewBox="0 0 338.66666 190.50001"
   id="svg2"
   version="1.1"
   inkscape:version="0.91+devel r13925"
   sodipodi:docname="jeff-berlin-interview-thumbnail.svg"
   inkscape:export-filename="/Users/agarone/Documents/git/art/jeff-berlin/interview/jeff-berlin-interview-thumbnail-1920x1080.png"
   inkscape:export-xdpi="144"
   inkscape:export-ydpi="144">
  <defs
     id="defs4" />
  <sodipodi:namedview
     id="base"
     pagecolor="#ffffff"
     bordercolor="#666666"
     borderopacity="1.0"
     inkscape:pageopacity="0.0"
     inkscape:pageshadow="2"
     inkscape:zoom="1.140625"
     inkscape:cx="640"
     inkscape:cy="360"
     inkscape:document-units="px"
     inkscape:current-layer="g4209"
     showgrid="false"
     units="px"
     inkscape:window-width="1920"
     inkscape:window-height="1151"
     inkscape:window-x="0"
     inkscape:window-y="1"
     inkscape:window-maximized="1" />
  <metadata
     id="metadata7">
    <rdf:RDF>
      <cc:Work
         rdf:about="">
        <dc:format>image/svg+xml</dc:format>
        <dc:type
           rdf:resource="http://purl.org/dc/dcmitype/StillImage" />
        <dc:title></dc:title>
      </cc:Work>
    </rdf:RDF>
  </metadata>
  <g
     inkscape:label="Gray BG"
     inkscape:groupmode="layer"
     id="layer1"
     transform="translate(0,-106.49999)">
    <rect
       style="opacity:1;fill:#6d757b;fill-opacity:1;stroke:none;stroke-width:16.0535984;stroke-miterlimit:4;stroke-dasharray:none;stroke-opacity:1"
       id="rect4141"
       width="338.66669"
       height="190.5"
       x="1.4210855e-14"
       y="106.49999" />
  </g>
  <g
     inkscape:groupmode="layer"
     id="layer2"
     inkscape:label="Orange Banner">
    <rect
       style="opacity:1;fill:#de3d2d;fill-opacity:1;stroke:none;stroke-width:11.03082752;stroke-miterlimit:4;stroke-dasharray:none;stroke-opacity:1"
       id="rect4144"
       width="338.66669"
       height="43.65625"
       x="0"
       y="146.84375" />
  </g>
  <g
     inkscape:groupmode="layer"
     id="layer5"
     inkscape:label="Artist Image" />
  <g
     inkscape:label="Blue Banner"
     id="g4203"
     inkscape:groupmode="layer">
    <rect
       y="146.84375"
       x="0"
       height="43.65625"
       width="338.66669"
       id="rect4205"
       style="opacity:1;fill:#407d93;fill-opacity:1;stroke:none;stroke-width:11.03082752;stroke-miterlimit:4;stroke-dasharray:none;stroke-opacity:1" />
  </g>
  <g
     inkscape:groupmode="layer"
     id="layer3"
     inkscape:label="Discover"
     style="display:none">
    <text
       xml:space="preserve"
       style="font-style:normal;font-variant:normal;font-weight:normal;font-stretch:normal;font-size:20.26743698px;line-height:125%;font-family:Museo;-inkscape-font-specification:'Museo, Normal';text-align:start;letter-spacing:0px;word-spacing:0px;writing-mode:lr-tb;text-anchor:start;fill:#ffffff;fill-opacity:1;stroke:none;stroke-width:0.50668812px;stroke-linecap:butt;stroke-linejoin:miter;stroke-opacity:1"
       x="173.85484"
       y="40.767208"
       id="text4147"
       sodipodi:linespacing="125%"><tspan
         sodipodi:role="line"
         id="tspan4164"
         x="173.85484"
         y="40.767208">DISCOVER:</tspan></text>
  </g>
  <g
     inkscape:label="Interview"
     id="g4209"
     inkscape:groupmode="layer">
    <text
       sodipodi:linespacing="125%"
       id="text4211"
       y="40.767208"
       x="173.85484"
       style="font-style:normal;font-variant:normal;font-weight:normal;font-stretch:normal;font-size:20.26743698px;line-height:125%;font-family:Museo;-inkscape-font-specification:'Museo, Normal';text-align:start;letter-spacing:0px;word-spacing:0px;writing-mode:lr-tb;text-anchor:start;fill:#ffffff;fill-opacity:1;stroke:none;stroke-width:0.50668812px;stroke-linecap:butt;stroke-linejoin:miter;stroke-opacity:1"
       xml:space="preserve"><tspan
         id="tspan4213"
         sodipodi:role="line"
         x="173.85484"
         y="40.767208">INTERVIEW:</tspan></text>
    <text
       xml:space="preserve"
       style="font-style:normal;font-variant:normal;font-weight:normal;font-stretch:normal;font-size:20.26743698px;line-height:125%;font-family:Museo;-inkscape-font-specification:'Museo, Normal';text-align:start;letter-spacing:0px;word-spacing:0px;writing-mode:lr-tb;text-anchor:start;fill:#ffffff;fill-opacity:1;stroke:none;stroke-width:0.50668812px;stroke-linecap:butt;stroke-linejoin:miter;stroke-opacity:1"
       x="173.85484"
       y="40.767208"
       id="text4167"
       sodipodi:linespacing="125%"><tspan
         y="40.767208"
         x="173.85484"
         sodipodi:role="line"
         id="tspan4169">INTERVIEW:</tspan></text>
    <text
       sodipodi:linespacing="125%"
       id="text4244"
       y="125.22438"
       x="173.85484"
       style="font-style:normal;font-variant:normal;font-weight:normal;font-stretch:normal;font-size:20.26743698px;line-height:125%;font-family:Museo;-inkscape-font-specification:'Museo, Normal';text-align:start;letter-spacing:0px;word-spacing:0px;writing-mode:lr-tb;text-anchor:start;fill:#ffffff;fill-opacity:1;stroke:none;stroke-width:0.50668812px;stroke-linecap:butt;stroke-linejoin:miter;stroke-opacity:1"
       xml:space="preserve"><tspan
         id="tspan4246"
         sodipodi:role="line"
         x="173.85484"
         y="125.22438">Part 1</tspan></text>
    <g
       id="g5211"
       transform="matrix(0.55447251,0,0,0.55447251,10.452266,0.04429643)">
      <g
         style="display:none"
         transform="translate(0,-32.41665)"
         id="layer1-1"
         inkscape:label="BG">
        <rect
           y="32.416653"
           x="0"
           height="264.58334"
           width="264.58334"
           id="rect5606"
           style="opacity:1;fill:#ffffff;fill-opacity:1;stroke:none;stroke-width:11.60810661;stroke-miterlimit:4;stroke-dasharray:none;stroke-opacity:1" />
      </g>
      <g
         inkscape:label="Left Arm"
         id="layer6-2">
        <path
           inkscape:connector-curvature="0"
           id="path4865"
           d="m 23.245535,236.70759 c 0,0 -8.40997,12.94568 -12.000743,18.42633 -3.5907744,5.48066 -6.2366077,9.44941 -6.2366077,9.44941 l 58.7752977,0 c 0,0 -27.686757,-31.65551 -40.537947,-27.87574 z"
           style="fill:#deaa87;fill-opacity:1;fill-rule:evenodd;stroke:none;stroke-width:0.26458332px;stroke-linecap:butt;stroke-linejoin:miter;stroke-opacity:1" />
      </g>
      <g
         inkscape:label="Right Arm"
         id="layer8-0">
        <path
           inkscape:connector-curvature="0"
           id="path4880"
           d="m 243.74981,264.58333 c 0,0 -0.93545,-8.15172 4.00904,-9.75534 4.94448,-1.60361 16.82447,-5.21175 16.82447,-5.21175 l 0,14.96709 z"
           style="fill:#deaa87;fill-opacity:1;fill-rule:evenodd;stroke:none;stroke-width:0.26458332px;stroke-linecap:butt;stroke-linejoin:miter;stroke-opacity:1" />
      </g>
      <g
         style="display:inline"
         inkscape:label="Shirt"
         id="layer3-2">
        <path
           inkscape:connector-curvature="0"
           id="path4777"
           d="m 19.777945,241.59815 c 0,0 -2.202052,-1.96125 -2.013064,-3.18967 0.188988,-1.22842 19.654761,-33.26191 23.151042,-38.93155 3.496278,-5.66964 25.513392,-37.51413 29.954611,-40.72693 4.441222,-3.2128 52.916666,-17.57589 55.656996,-18.80432 2.74033,-1.22842 7.18154,-5.38616 8.22098,-5.38616 1.03944,0 20.88319,8.88244 27.59226,8.12649 6.70908,-0.75595 34.11235,-8.97694 37.13616,-8.22098 3.02381,0.75595 4.63021,3.77976 7.65402,4.15774 3.02381,0.37797 41.10491,11.62276 44.22321,13.13467 3.11831,1.5119 13.22916,7.37053 13.22916,7.37053 l 0,92.22619 c 0,0 -14.0796,6.23661 -17.00892,9.73289 -2.92931,3.49628 -1.6064,3.49628 -1.6064,3.49628 l -183.223952,0 c 0,0 -5.480656,-3.68527 -8.693455,-4.15774 C 50.837798,259.95312 43.561756,249.1808 38.0811,244.83407 32.600447,240.48735 21.639137,238.40848 21.639137,238.40848 Z"
           style="fill:#000000;fill-opacity:1;fill-rule:evenodd;stroke:none;stroke-width:0.26458332px;stroke-linecap:butt;stroke-linejoin:miter;stroke-opacity:1" />
      </g>
      <g
         style="display:inline"
         inkscape:label="Neck"
         id="layer9">
        <path
           inkscape:connector-curvature="0"
           id="path4883"
           d="m 134.57021,138.69938 c 0,0 1.59571,-3.38391 1.59571,-4.56508 0,-1.18118 -0.18899,-5.76414 -0.18899,-5.76414 l 60.23996,-21.16666 c 0,0 -0.0473,10.81956 -0.37798,13.18192 -0.33073,2.36235 -2.59859,12.23697 -2.17336,12.99293 0.42522,0.75595 5.33891,2.78757 6.37835,4.01599 1.03943,1.22843 1.70089,13.32366 -5.05543,18.94606 -6.75633,5.6224 -16.91444,10.01637 -27.73401,10.2526 -10.81957,0.23624 -24.19047,-6.89806 -26.97805,-12.00074 -2.78757,-5.10268 -5.83726,-11.28054 -5.7062,-15.89288 z"
           style="fill:#daa079;fill-opacity:1;fill-rule:evenodd;stroke:none;stroke-width:0.26458332px;stroke-linecap:butt;stroke-linejoin:miter;stroke-opacity:1" />
      </g>
      <g
         style="display:inline"
         inkscape:label="Head"
         id="layer10">
        <path
           inkscape:connector-curvature="0"
           id="path4886"
           d="m 160.87612,140.08742 c 0,0 14.07961,-0.0472 25.04092,-12.28422 10.9613,-12.23698 9.26041,-20.45796 10.06361,-20.64695 0.8032,-0.18899 0.56697,1.6064 1.84264,1.65364 1.27567,0.0473 3.40178,-2.64583 4.86644,-16.44196 1.46466,-13.796132 -1.88988,-14.930059 -3.54353,-14.45759 -1.65364,0.472472 -4.20498,6.661832 -4.20498,6.661832 l -3.68527,-41.246652 -18.2846,-10.063617 -39.593,4.582961 -12.56771,23.8125 c 0,0 3.40179,38.459076 3.9215,39.404016 0.51972,0.94494 3.73252,7.84301 3.77976,8.50447 0.0472,0.66145 -0.28348,4.34672 0.0945,5.57515 0.37797,1.22842 2.78757,10.48884 6.89806,13.4654 4.11049,2.97656 12.33148,12.42596 25.37166,11.48102 z"
           style="fill:#deaa87;fill-opacity:1;fill-rule:evenodd;stroke:none;stroke-width:0.26458332px;stroke-linecap:butt;stroke-linejoin:miter;stroke-opacity:1" />
      </g>
      <g
         inkscape:label="Hair"
         id="layer11">
        <path
           sodipodi:nodetypes="cccscssssssssssssccssscssssscsssssssssscssssssscc"
           inkscape:connector-curvature="0"
           id="path4891"
           d="m 128.03943,112.68415 c 0,0 0.8977,-2.12612 0.61421,-2.69308 -0.28348,-0.56696 -2.59858,-4.77195 -2.36235,-5.10268 0.23624,-0.33073 2.22061,2.59859 2.22061,1.65365 0,-0.94494 -3.59077,-5.10268 -3.35453,-5.85863 0.23623,-0.755956 3.16555,4.7247 3.16555,3.35453 0,-1.37016 -0.0945,-6.803566 -1.08669,-9.969118 -0.99218,-3.165549 -1.41741,-3.071056 -1.41741,-5.055431 0,-1.984375 0.75596,-13.607142 0.37798,-16.016739 -0.37798,-2.4096 -2.69308,-6.047621 -1.6064,-10.205358 1.08668,-4.157739 6.18936,-15.449777 9.78013,-17.481399 3.59078,-2.031621 10.01637,0.472469 13.74889,0.283483 3.73251,-0.188989 13.18192,-0.803201 15.63876,-1.937129 2.45685,-1.13393 4.39398,-4.535715 9.73289,-3.921503 5.33891,0.614212 11.62277,10.016368 12.56771,13.843378 0.94494,3.827008 -1.84264,8.362723 -0.85045,10.536087 0.99219,2.173361 5.71689,7.039806 7.03981,13.18192 1.32291,6.142111 -0.28348,16.630951 0.0472,18.804313 0.33073,2.173364 1.88988,5.291666 1.98437,4.677456 0.0945,-0.61421 -1.65364,-2.598585 -1.32292,-5.811384 0.33073,-3.212798 0.42523,-10.819569 0.85045,-10.063615 0.42522,0.755952 1.70089,6.047619 1.51191,9.071428 -0.18899,3.023809 -0.99219,6.142111 -0.61422,5.669642 0.37798,-0.472469 2.03163,-6.756323 1.65365,-11.481027 -0.37798,-4.724702 -1.13393,-5.669643 -0.42522,-5.622396 0.7087,0.04725 1.88988,9.638395 1.70089,11.953499 -0.18899,2.315104 0.99219,-4.960937 0.89769,-7.65402 -0.0945,-2.69308 1.08668,0.425225 1.74814,0.425225 0.66146,0 -0.61421,-8.268229 0.0472,-8.457218 0.66146,-0.188987 2.50409,2.315104 2.22061,6.331101 -0.28348,4.015996 -0.23624,9.496652 -0.8977,11.76451 -0.66146,2.267857 -0.0472,5.764135 0.14175,6.850815 0.18898,1.08668 0.0945,-2.4096 1.70089,-5.622392 1.6064,-3.212798 3.02381,-12.425968 2.03162,-16.158482 -0.99219,-3.732517 -2.22061,-7.559524 -2.36235,-11.103052 -0.14174,-3.543527 1.6064,-17.245163 -1.79539,-22.820312 -3.40178,-5.575149 -13.18192,-21.969866 -20.26897,-23.954241 -7.08705,-1.984375 -15.68601,-4.960937 -19.56027,-3.496279 -3.87425,1.464657 -8.03199,3.401785 -8.26823,5.85863 -0.23623,2.456845 -0.85044,3.543528 -0.85044,3.543528 0,0 -2.26786,-7.087054 -6.37835,-7.512277 -4.11049,-0.425224 -11.62277,1.133928 -17.4814,8.173736 -5.85863,7.039806 -11.62277,17.717632 -13.98512,21.450146 -2.36235,3.732517 -1.08668,17.197917 -0.18899,21.308409 0.8977,4.11049 3.96875,8.268229 3.96875,10.819569 0,2.551338 0.70871,9.49665 1.74814,11.575521 1.03944,2.078868 4.016,3.9215 4.53572,6.614586 0.51972,2.69308 3.44903,8.59896 3.40178,10.2526 z"
           style="fill:#190b00;fill-opacity:1;fill-rule:evenodd;stroke:none;stroke-width:0.26458332px;stroke-linecap:butt;stroke-linejoin:miter;stroke-opacity:1" />
      </g>
      <g
         inkscape:label="Mouth"
         id="layer12">
        <path
           inkscape:connector-curvature="0"
           id="path4894"
           d="m 173.85883,111.8388 c 0,0 -4.94449,-0.0668 -7.2831,0.26727 -2.33861,0.33408 -5.47902,1.80407 -7.61718,1.80407 -2.13816,0 -4.72064,-0.11569 -6.53965,-0.0212 -1.81901,0.0945 -4.4176,0.59059 -5.74052,0.61421 -1.32291,0.0236 -3.73251,-0.4016 -3.73251,-0.4016 0,0 2.22061,0.11812 3.23642,0 1.01581,-0.11811 3.33092,-0.63783 5.19717,-0.68508 1.86626,-0.0473 5.9295,0.21261 7.41778,0.16536 1.48829,-0.0472 5.36254,-1.48828 7.01619,-1.67726 1.65364,-0.18899 7.39734,-0.24968 8.0454,-0.0658 z"
           style="fill:#782121;fill-opacity:1;fill-rule:evenodd;stroke:none;stroke-width:0.26458332px;stroke-linecap:butt;stroke-linejoin:miter;stroke-opacity:1" />
        <path
           inkscape:connector-curvature="0"
           id="path4896"
           d="m 168.86086,96.667409 c 0,0 1.70089,1.039434 3.2128,2.929316 1.5119,1.889885 5.38616,5.102675 6.52009,7.087055 1.13393,1.98437 1.13393,6.04762 1.13393,6.04762 0,0 1.41741,-4.34673 -0.56697,-6.89807 -1.98437,-2.55134 -6.2366,-6.898064 -7.37053,-7.654015 -1.13393,-0.755955 -2.92932,-1.511906 -2.92932,-1.511906 z"
           style="fill:#d38d5f;fill-opacity:1;fill-rule:evenodd;stroke:none;stroke-width:0.26458332px;stroke-linecap:butt;stroke-linejoin:miter;stroke-opacity:1" />
        <path
           inkscape:connector-curvature="0"
           id="path4898"
           d="m 179.06622,127.47247 c 0,0 -4.25223,6.89806 -6.80357,8.22098 -2.55134,1.32292 -8.40997,3.49628 -10.86682,3.49628 -2.45684,0 -9.5439,-1.03943 -10.96131,-2.64583 -1.41741,-1.6064 -1.41741,-0.28349 -2.26786,-0.75596 -0.85044,-0.47247 -1.79538,-5.95312 -2.92931,-6.52008 -1.13393,-0.56697 -5.57515,-3.87426 -6.61458,-6.80358 -1.03944,-2.92931 -2.83482,-7.46502 -2.83482,-9.07142 0,-1.6064 3.0238,-5.85864 3.0238,-5.85864 0,0 -4.06324,2.83483 -3.96874,5.38616 0.0945,2.55134 1.98437,6.80358 1.98437,8.50447 0,1.70089 -2.92932,1.03943 -2.55134,1.88988 0.37798,0.85045 1.70089,4.91369 4.44122,6.70908 2.74033,1.79538 4.44122,5.10267 6.23661,5.76413 1.79538,0.66146 9.16592,4.91369 14.45759,4.72471 5.29166,-0.18899 10.11086,-2.26786 12.37872,-3.49628 2.26785,-1.22843 6.61458,-8.12649 7.27604,-9.5439 z"
           style="fill:#782121;fill-opacity:1;fill-rule:evenodd;stroke:none;stroke-width:0.26458332px;stroke-linecap:butt;stroke-linejoin:miter;stroke-opacity:1" />
      </g>
      <g
         inkscape:label="Nose"
         id="layer13">
        <path
           inkscape:connector-curvature="0"
           id="path4901"
           d="m 167.15997,100.73065 c 0,0 -0.65106,-1.052616 -3.95852,0.38396 -3.30746,1.43657 -3.94222,3.4745 -3.94222,3.4745 0,0 1.00226,-1.60362 3.70836,-2.7061 2.70611,-1.10249 4.19238,-1.15236 4.19238,-1.15236 z"
           style="fill:#d38d5f;fill-opacity:1;fill-rule:evenodd;stroke:none;stroke-width:0.26458332px;stroke-linecap:butt;stroke-linejoin:miter;stroke-opacity:1" />
        <path
           inkscape:connector-curvature="0"
           id="path4903"
           d="m 156.95403,105.42433 c 0,0 -1.30294,0.30068 -2.10475,-0.20046 -0.80181,-0.50112 -2.3052,-1.63702 -3.67496,-2.00452 -1.36975,-0.36749 -3.84199,0.50114 -4.51017,-0.46772 -0.66817,-0.96885 -1.70384,-1.9377 -0.90203,-3.140414 0.8018,-1.202714 2.50565,-3.173825 2.67269,-3.775181 0.16705,-0.601358 -0.80181,-0.200454 -2.47224,1.870885 -1.67043,2.07134 -4.84426,4.77744 -4.07586,5.51243 0.7684,0.735 5.81311,0.26727 7.78422,0.46773 1.97112,0.20045 3.77519,1.77066 4.6104,1.90429 0.83522,0.13364 1.70385,0.33409 2.6727,-0.16704 z"
           style="fill:#782121;fill-opacity:1;fill-rule:evenodd;stroke:none;stroke-width:0.26458332px;stroke-linecap:butt;stroke-linejoin:miter;stroke-opacity:1" />
        <path
           inkscape:connector-curvature="0"
           id="path4905"
           d="m 152.22991,89.48586 c 0,0 -0.37798,6.803573 -0.94494,7.087055 -0.56697,0.283483 -1.7009,2.078869 -1.51191,3.02381 0.18899,0.944945 -2.55134,0.472465 -1.5119,-1.133928 1.03943,-1.606399 3.1183,-2.929316 3.96875,-8.976937 z"
           style="fill:#d38d5f;fill-opacity:1;fill-rule:evenodd;stroke:none;stroke-width:0.26458332px;stroke-linecap:butt;stroke-linejoin:miter;stroke-opacity:1" />
      </g>
      <g
         style="display:inline"
         inkscape:label="Eyes"
         id="layer14">
        <path
           inkscape:connector-curvature="0"
           id="path4908"
           d="m 161.29716,74.821967 c 0.10022,-0.534538 0.83522,-1.737251 5.21175,-2.939965 4.37654,-1.202711 10.39011,-1.770661 11.69305,-1.336347 1.30293,0.434313 2.10474,1.436574 1.5702,1.670433 -0.53454,0.233863 -3.57472,1.469983 -5.14493,1.469983 -1.57021,0 -12.26099,1.904296 -13.33007,1.135896 z"
           style="fill:#28170b;fill-opacity:1;fill-rule:evenodd;stroke:none;stroke-width:0.26458332px;stroke-linecap:butt;stroke-linejoin:miter;stroke-opacity:1" />
        <path
           inkscape:connector-curvature="0"
           id="path4910"
           d="m 130.12685,79.833271 c 0,0 0.13364,-2.772921 0.96885,-3.140417 0.83522,-0.367495 5.61266,-1.670433 9.25421,-1.202714 3.64155,0.467723 8.15172,1.603619 7.34991,2.539061 -0.80181,0.935445 -2.83974,0.567949 -6.78196,0.968854 -3.94223,0.400902 -9.55489,-0.167045 -10.79101,0.835216 z"
           style="fill:#28170b;fill-opacity:1;fill-rule:evenodd;stroke:none;stroke-width:0.26458332px;stroke-linecap:butt;stroke-linejoin:miter;stroke-opacity:1" />
        <path
           inkscape:connector-curvature="0"
           id="path4912"
           d="m 130.99548,89.120886 c 0,0 2.00452,-3.274052 4.71062,-4.677217 2.70611,-1.403164 7.48355,-2.939962 9.52148,-2.806329 2.03793,0.133636 3.00678,2.104747 3.00678,2.104747 0,0 -1.13589,-1.737251 -2.80633,-1.737251 -1.67043,0 -7.91786,1.5368 -10.18965,3.407687 -2.27179,1.870885 -2.97337,2.973372 -4.2429,3.708363 z"
           style="fill:#782121;fill-opacity:1;fill-rule:evenodd;stroke:none;stroke-width:0.26458332px;stroke-linecap:butt;stroke-linejoin:miter;stroke-opacity:1" />
        <path
           inkscape:connector-curvature="0"
           id="path4914"
           d="m 180.90806,82.004836 c 0,0 -3.67496,-2.906557 -6.01357,-3.240643 -2.3386,-0.334087 -7.95126,-0.734992 -8.95352,-0.267269 -1.00226,0.467722 -1.57021,0.935442 -1.23612,0.935442 0.33408,0 1.10248,-0.634765 2.13815,-0.701582 1.03567,-0.06682 6.31424,0.06682 7.81763,0.53454 1.5034,0.46772 3.94223,1.336347 6.24743,2.739512 z"
           style="fill:#d38d5f;fill-opacity:1;fill-rule:evenodd;stroke:none;stroke-width:0.26458332px;stroke-linecap:butt;stroke-linejoin:miter;stroke-opacity:1" />
      </g>
      <g
         inkscape:label="Pupils"
         id="layer16">
        <path
           id="circle4947"
           transform="scale(0.26458333)"
           d="m 545.42383,310.33594 c -1.52762,-0.0126 -3.25893,0.0887 -5.15625,0.3789 -5.4937,0.84022 -11.6439,3.62623 -14.64649,5.11133 a 13.125,13.125 0 0 0 -0.17382,2.03125 13.125,13.125 0 0 0 0.43164,3.30664 l 0.99609,2.05078 c 0,0 8.39286,-1.87528 13.75,-2.85742 3.9776,-0.72922 8.81942,-2.14209 11.06055,-2.82422 a 13.125,13.125 0 0 0 -2.13867,-6.86328 c -1.12497,-0.17662 -2.49877,-0.32063 -4.12305,-0.33398 z"
           style="display:inline;fill:#552200;fill-rule:evenodd;stroke:none;stroke-width:0.99999994px;stroke-linecap:butt;stroke-linejoin:miter;stroke-opacity:1"
           inkscape:connector-curvature="0" />
        <path
           id="path4945"
           transform="scale(0.26458333)"
           d="m 538.39258,312.5 a 4.9107143,4.9107143 0 0 0 -4.91016,4.91016 4.9107143,4.9107143 0 0 0 2.01367,3.95898 c 1.78693,-0.36782 3.57402,-0.72666 5.12891,-1.01172 0.63428,-0.11628 1.29387,-0.25289 1.95898,-0.39844 a 4.9107143,4.9107143 0 0 0 0.71875,-2.54882 4.9107143,4.9107143 0 0 0 -4.91015,-4.91016 z"
           style="fill:#000000;fill-opacity:1;fill-rule:evenodd;stroke:none;stroke-width:0.99999994px;stroke-linecap:butt;stroke-linejoin:miter;stroke-opacity:1"
           inkscape:connector-curvature="0" />
        <path
           id="path4928"
           transform="scale(0.26458333)"
           d="m 643.18945,296.52148 c -3.15523,0.0506 -6.03216,0.47284 -7.59179,0.7461 a 13.125,13.125 0 0 0 -1.22266,5.5 13.125,13.125 0 0 0 0.83203,4.57422 c 3.31103,0.18899 8.52571,0.42043 13.00781,0.24804 4.94642,-0.19024 9.75341,-1.49539 12.15235,-2.24218 a 13.125,13.125 0 0 0 0.25781,-2.58008 13.125,13.125 0 0 0 -0.41797,-3.23633 c -2.37666,-0.67543 -7.60553,-2.0812 -12.25976,-2.74609 -1.5625,-0.22322 -3.19253,-0.28879 -4.75782,-0.26368 z"
           style="display:inline;fill:#552200;fill-rule:evenodd;stroke:none;stroke-width:0.99999994px;stroke-linecap:butt;stroke-linejoin:miter;stroke-opacity:1"
           inkscape:connector-curvature="0" />
        <path
           id="path4958"
           transform="scale(0.26458333)"
           d="m 647.32227,297.41016 a 4.9107143,4.9107143 0 0 0 -4.91211,4.91211 4.9107143,4.9107143 0 0 0 4.91211,4.91015 4.9107143,4.9107143 0 0 0 4.91015,-4.91015 4.9107143,4.9107143 0 0 0 -4.91015,-4.91211 z"
           style="fill:#000000;fill-opacity:1;fill-rule:evenodd;stroke:none;stroke-width:0.99999994px;stroke-linecap:butt;stroke-linejoin:miter;stroke-opacity:1"
           inkscape:connector-curvature="0" />
      </g>
      <g
         inkscape:label="Glasses"
         id="layer15">
        <path
           id="path4917"
           transform="scale(0.26458333)"
           d="m 730.21484,274.71094 c 0,0 -23.2335,8.45898 -27.40039,8.45898 -4.16685,0 -15.27903,1.01163 -16.66797,0.63281 -1.38897,-0.37879 -13.51044,-10.10165 -41.0371,-7.95507 -27.52668,2.14658 -39.64837,17.5497 -44.32032,18.43359 -4.67195,0.88388 -6.44016,-0.88271 -14.14258,-0.50391 -7.70241,0.37881 -14.1428,4.67188 -17.42578,4.67188 -3.28301,0 -18.81396,-10.60703 -41.79492,-9.0918 -22.98096,1.51523 -38.51241,17.92978 -43.68945,18.3086 -5.17701,0.37881 -13.38477,0.50585 -13.38477,0.50586 l 3.41016,10.60742 c 0,0 6.18672,-0.88496 8.20703,0.88281 2.02031,1.76777 6.06185,20.20413 13.51172,29.04297 7.44986,8.83883 19.94899,16.16123 33.96484,15.27734 14.01585,-0.88388 30.93683,-7.32258 35.86133,-13.50976 4.9245,-6.18718 9.47005,-37.12374 11.86914,-39.77539 2.39913,-2.65165 5.05139,-5.05158 9.84961,-5.55665 4.79822,-0.50507 8.71191,2.65158 9.97461,4.67188 1.2627,2.02031 7.57658,21.84485 16.66797,28.53711 9.09135,6.69226 17.42453,12.12157 32.70312,11.49023 15.27855,-0.63135 32.32444,-8.71196 38.13282,-20.07617 5.80837,-11.36422 3.53641,-26.26398 5.93554,-29.92578 2.39913,-3.66181 7.44941,-8.08203 10.73243,-8.08203 3.28296,0 29.67382,-10.85742 29.67382,-10.85742 l -0.63086,-6.1875 z m -83.79882,5.77734 c 22.00939,0.16277 30.01495,4.87617 32.02734,7.48047 2.14658,2.77792 7.57617,10.10169 7.57617,18.05664 0,7.95495 -0.75649,20.58118 -8.08008,27.27344 -7.32359,6.69226 -15.53129,12.88086 -28.1582,12.88086 -12.62691,0 -26.89505,-2.65237 -31.31445,-7.70313 -4.41944,-5.05076 -11.6174,-15.27903 -12.375,-21.71875 -0.75765,-6.43972 -1.26342,-13.51134 -0.12696,-17.04687 0,0 10.355,-18.68634 35.86133,-19.19141 1.59415,-0.0316 3.12255,-0.0421 4.58985,-0.0312 z m -112.5,13.25781 c 17.79505,-0.0431 25.48781,3.96159 27.47656,5.83985 2.27282,2.14657 14.39382,17.2984 6.6914,35.60742 -7.70241,18.30901 -18.43443,23.35888 -31.5664,23.99023 -13.13201,0.63134 -22.85532,0.25331 -32.19922,-7.07031 -9.3439,-7.32361 -16.92012,-31.3144 -12.62695,-43.5625 0,0 10.22822,-13.00625 33.96679,-14.52148 2.96732,-0.18941 5.71567,-0.27704 8.25782,-0.28321 z"
           style="fill:#483737;fill-opacity:1;fill-rule:evenodd;stroke:#000000;stroke-width:0.99999994px;stroke-linecap:butt;stroke-linejoin:miter;stroke-opacity:1"
           inkscape:connector-curvature="0" />
      </g>
      <g
         style="display:inline"
         inkscape:label="Bass"
         id="layer4-7">
        <path
           sodipodi:nodetypes="csssssscsscccc"
           inkscape:connector-curvature="0"
           id="path4780"
           d="m 64.44494,264.58333 c 0,0 0.283483,-2.26786 -3.401785,-8.88244 -3.68527,-6.61458 -20.505208,-26.45833 -28.253721,-42.23884 -7.748512,-15.7805 -1.228424,-30.1436 5.669642,-33.3564 6.898066,-3.21279 13.323663,1.41741 14.363097,2.74033 1.039434,1.32292 5.014883,16.07065 7.748511,21.35566 2.834822,5.48065 11.717263,15.96949 16.252975,14.64657 4.535715,-1.32292 8.882441,-8.88244 8.882441,-8.88244 0,0 27.78125,-2.26786 30.04911,-0.28348 2.26785,1.98437 4.81919,17.29241 9.92187,20.88318 5.10268,3.59078 10.39435,3.59078 10.39435,3.59078 l 34.8683,27.0253 0.28348,3.40178 z"
           style="fill:#7c3700;fill-opacity:1;fill-rule:evenodd;stroke:none;stroke-width:0.26458332px;stroke-linecap:butt;stroke-linejoin:miter;stroke-opacity:1" />
        <path
           inkscape:connector-curvature="0"
           id="path4782"
           d="m 85.611606,211.95015 c 0,0 -1.322916,7.27604 -8.315475,8.59895 -6.992559,1.32292 -17.670388,-3.77976 -23.340031,-16.72544 -5.669642,-12.94569 -5.575149,-19.56027 -6.142111,-20.41071 -0.566965,-0.85045 -2.645834,-4.25224 -6.992562,-3.02382 -4.346726,1.22843 -11.811754,7.9375 -9.921875,22.20611 1.889882,14.2686 27.308781,44.3177 31.183037,51.87723 3.874254,7.55952 3.874254,10.11086 3.874254,10.11086 l 37.514137,0 c 0,0 7.27604,-3.02381 8.31548,-8.97693 1.03943,-5.95313 -14.930062,-41.48289 -26.174854,-43.65625 z"
           style="fill:#550000;fill-opacity:1;fill-rule:evenodd;stroke:none;stroke-width:0.26458332px;stroke-linecap:butt;stroke-linejoin:miter;stroke-opacity:1" />
        <path
           inkscape:connector-curvature="0"
           id="path4784"
           d="m 102.05357,264.58333 c 0,0 7.46503,-5.00818 7.74851,-6.89807 0.28348,-1.88988 -0.0945,-3.68526 1.51191,-4.44121 1.60639,-0.75596 -1.88988,-9.82739 -1.88988,-9.82739 l 9.63839,-15.49702 c 0,0 7.46503,8.22098 13.60714,8.22098 6.14211,0 34.01786,25.04093 34.01786,25.04093 l 0.37797,3.40178 z"
           style="fill:#d38d5f;fill-opacity:1;fill-rule:evenodd;stroke:none;stroke-width:0.26458332px;stroke-linecap:butt;stroke-linejoin:miter;stroke-opacity:1" />
      </g>
      <g
         style="display:inline"
         inkscape:label="Fretboard"
         id="layer5-2">
        <path
           inkscape:connector-curvature="0"
           id="path4787"
           d="M 95.438988,249.46428 122.36979,241.14881 45.073659,4.9999997e-6 l -19.843749,0 z"
           style="display:inline;fill:#190b00;fill-opacity:1;fill-rule:evenodd;stroke:none;stroke-width:0.26458332px;stroke-linecap:butt;stroke-linejoin:miter;stroke-opacity:1" />
        <path
           inkscape:connector-curvature="0"
           id="path4804"
           d="M 35.340774,34.30134 53.672618,28.064732"
           style="fill:none;fill-rule:evenodd;stroke:#424242;stroke-width:0.5291667;stroke-linecap:butt;stroke-linejoin:miter;stroke-miterlimit:4;stroke-dasharray:none;stroke-opacity:1" />
        <path
           sodipodi:nodetypes="cc"
           style="fill:none;fill-rule:evenodd;stroke:#424242;stroke-width:0.5291667;stroke-linecap:butt;stroke-linejoin:miter;stroke-miterlimit:4;stroke-dasharray:none;stroke-opacity:1"
           d="M 40.537947,52.066221 59.342261,45.829613"
           id="path4806"
           inkscape:connector-curvature="0" />
        <path
           sodipodi:nodetypes="cc"
           inkscape:connector-curvature="0"
           id="path4808"
           d="M 45.451638,69.07515 65.011904,62.649554"
           style="fill:none;fill-rule:evenodd;stroke:#424242;stroke-width:0.5291667;stroke-linecap:butt;stroke-linejoin:miter;stroke-miterlimit:4;stroke-dasharray:none;stroke-opacity:1" />
        <path
           sodipodi:nodetypes="cc"
           style="fill:none;fill-rule:evenodd;stroke:#424242;stroke-width:0.5291667;stroke-linecap:butt;stroke-linejoin:miter;stroke-miterlimit:4;stroke-dasharray:none;stroke-opacity:1"
           d="M 49.892858,85.044644 69.831101,78.43006"
           id="path4810"
           inkscape:connector-curvature="0" />
        <path
           sodipodi:nodetypes="cc"
           inkscape:connector-curvature="0"
           id="path4812"
           d="M 54.239584,100.16369 74.933779,93.549108"
           style="fill:none;fill-rule:evenodd;stroke:#424242;stroke-width:0.5291667;stroke-linecap:butt;stroke-linejoin:miter;stroke-miterlimit:4;stroke-dasharray:none;stroke-opacity:1" />
        <path
           sodipodi:nodetypes="cc"
           style="fill:none;fill-rule:evenodd;stroke:#424242;stroke-width:0.5291667;stroke-linecap:butt;stroke-linejoin:miter;stroke-miterlimit:4;stroke-dasharray:none;stroke-opacity:1"
           d="m 58.019347,114.3378 21.166665,-6.70908"
           id="path4814"
           inkscape:connector-curvature="0" />
        <path
           sodipodi:nodetypes="cc"
           inkscape:connector-curvature="0"
           id="path4816"
           d="m 62.082591,127.94494 21.450148,-6.80357"
           style="fill:none;fill-rule:evenodd;stroke:#424242;stroke-width:0.5291667;stroke-linecap:butt;stroke-linejoin:miter;stroke-miterlimit:4;stroke-dasharray:none;stroke-opacity:1" />
        <path
           sodipodi:nodetypes="cc"
           style="fill:none;fill-rule:evenodd;stroke:#424242;stroke-width:0.5291667;stroke-linecap:butt;stroke-linejoin:miter;stroke-miterlimit:4;stroke-dasharray:none;stroke-opacity:1"
           d="m 65.673365,140.89063 21.922618,-6.89807"
           id="path4818"
           inkscape:connector-curvature="0" />
        <path
           sodipodi:nodetypes="cc"
           inkscape:connector-curvature="0"
           id="path4820"
           d="M 68.980656,152.98586 91.564733,145.9933"
           style="fill:none;fill-rule:evenodd;stroke:#424242;stroke-width:0.5291667;stroke-linecap:butt;stroke-linejoin:miter;stroke-miterlimit:4;stroke-dasharray:none;stroke-opacity:1" />
        <path
           sodipodi:nodetypes="cc"
           style="fill:none;fill-rule:evenodd;stroke:#424242;stroke-width:0.5291667;stroke-linecap:butt;stroke-linejoin:miter;stroke-miterlimit:4;stroke-dasharray:none;stroke-opacity:1"
           d="m 72.09896,164.51414 22.962052,-7.27605"
           id="path4822"
           inkscape:connector-curvature="0" />
        <path
           sodipodi:nodetypes="cc"
           inkscape:connector-curvature="0"
           id="path4824"
           d="m 75.217264,175.47545 23.340028,-7.46503"
           style="fill:none;fill-rule:evenodd;stroke:#424242;stroke-width:0.5291667;stroke-linecap:butt;stroke-linejoin:miter;stroke-miterlimit:4;stroke-dasharray:none;stroke-opacity:1" />
        <path
           sodipodi:nodetypes="cc"
           style="fill:none;fill-rule:evenodd;stroke:#424242;stroke-width:0.5291667;stroke-linecap:butt;stroke-linejoin:miter;stroke-miterlimit:4;stroke-dasharray:none;stroke-opacity:1"
           d="m 77.957592,185.58631 23.812498,-7.37053"
           id="path4826"
           inkscape:connector-curvature="0" />
        <path
           sodipodi:nodetypes="cc"
           inkscape:connector-curvature="0"
           id="path4828"
           d="m 80.508931,195.2247 24.379459,-7.37054"
           style="fill:none;fill-rule:evenodd;stroke:#424242;stroke-width:0.5291667;stroke-linecap:butt;stroke-linejoin:miter;stroke-miterlimit:4;stroke-dasharray:none;stroke-opacity:1" />
        <path
           sodipodi:nodetypes="cc"
           style="fill:none;fill-rule:evenodd;stroke:#424242;stroke-width:0.5291667;stroke-linecap:butt;stroke-linejoin:miter;stroke-miterlimit:4;stroke-dasharray:none;stroke-opacity:1"
           d="m 83.154764,204.57961 24.379466,-7.65402"
           id="path4830"
           inkscape:connector-curvature="0" />
        <path
           sodipodi:nodetypes="cc"
           inkscape:connector-curvature="0"
           id="path4832"
           d="m 85.800597,213.27306 25.135413,-7.84301"
           style="fill:none;fill-rule:evenodd;stroke:#424242;stroke-width:0.5291667;stroke-linecap:butt;stroke-linejoin:miter;stroke-miterlimit:4;stroke-dasharray:none;stroke-opacity:1" />
        <path
           sodipodi:nodetypes="cc"
           style="fill:none;fill-rule:evenodd;stroke:#424242;stroke-width:0.5291667;stroke-linecap:butt;stroke-linejoin:miter;stroke-miterlimit:4;stroke-dasharray:none;stroke-opacity:1"
           d="m 87.879466,221.39955 25.040924,-7.65402"
           id="path4834"
           inkscape:connector-curvature="0" />
        <path
           sodipodi:nodetypes="cc"
           inkscape:connector-curvature="0"
           id="path4836"
           d="M 89.958335,229.24256 115.8497,221.21057"
           style="fill:none;fill-rule:evenodd;stroke:#424242;stroke-width:0.5291667;stroke-linecap:butt;stroke-linejoin:miter;stroke-miterlimit:4;stroke-dasharray:none;stroke-opacity:1" />
        <path
           sodipodi:nodetypes="cc"
           style="fill:none;fill-rule:evenodd;stroke:#424242;stroke-width:0.5291667;stroke-linecap:butt;stroke-linejoin:miter;stroke-miterlimit:4;stroke-dasharray:none;stroke-opacity:1"
           d="m 91.753722,236.51861 26.458328,-8.12649"
           id="path4838"
           inkscape:connector-curvature="0" />
        <path
           sodipodi:nodetypes="cc"
           inkscape:connector-curvature="0"
           id="path4840"
           d="m 94.021579,243.22769 26.269341,-7.9375"
           style="fill:none;fill-rule:evenodd;stroke:#424242;stroke-width:0.5291667;stroke-linecap:butt;stroke-linejoin:miter;stroke-miterlimit:4;stroke-dasharray:none;stroke-opacity:1" />
        <path
           sodipodi:nodetypes="cc"
           style="fill:none;fill-rule:evenodd;stroke:#424242;stroke-width:0.5291667;stroke-linecap:butt;stroke-linejoin:miter;stroke-miterlimit:4;stroke-dasharray:none;stroke-opacity:1"
           d="M 30.238095,15.40253 47.719493,9.5438985"
           id="path4861"
           inkscape:connector-curvature="0" />
        <path
           inkscape:connector-curvature="0"
           id="path4790"
           d="M 126.71652,264.58333 42.900298,4.9999997e-6"
           style="fill:none;fill-rule:evenodd;stroke:#666666;stroke-width:0.5291667;stroke-linecap:butt;stroke-linejoin:miter;stroke-miterlimit:4;stroke-dasharray:none;stroke-opacity:1" />
        <path
           sodipodi:nodetypes="cc"
           style="fill:none;fill-rule:evenodd;stroke:#666666;stroke-width:0.5291667;stroke-linecap:butt;stroke-linejoin:miter;stroke-miterlimit:4;stroke-dasharray:none;stroke-opacity:1"
           d="M 118.40105,264.67782 37.514137,4.9999996e-6"
           id="path4798"
           inkscape:connector-curvature="0" />
        <path
           sodipodi:nodetypes="cc"
           inkscape:connector-curvature="0"
           id="path4800"
           d="M 110.08557,264.67782 32.411458,0.09449905"
           style="fill:none;fill-rule:evenodd;stroke:#666666;stroke-width:0.5291667;stroke-linecap:butt;stroke-linejoin:miter;stroke-miterlimit:4;stroke-dasharray:none;stroke-opacity:1" />
        <path
           sodipodi:nodetypes="cc"
           style="fill:none;fill-rule:evenodd;stroke:#666666;stroke-width:0.5291667;stroke-linecap:butt;stroke-linejoin:miter;stroke-miterlimit:4;stroke-dasharray:none;stroke-opacity:1"
           d="M 102.24256,264.67782 27.025297,0.09449905"
           id="path4802"
           inkscape:connector-curvature="0" />
        <path
           inkscape:connector-curvature="0"
           id="path4868"
           d="m 180.48363,264.58333 c 0,0 -1.27941,-1.93771 -4.95437,-2.00452 -3.67496,-0.0668 -6.21402,-0.20045 -8.61944,-0.66818 -2.40543,-0.46772 -17.50616,-11.75985 -19.37704,-13.96483 -1.87089,-2.20497 -4.54358,-5.07812 -7.21628,-6.949 -2.6727,-1.87089 -7.14946,-6.54811 -7.14946,-7.55037 0,-1.00226 -0.33409,-3.60814 0.26727,-4.54358 0.60136,-0.93545 2.20497,-2.00452 2.20497,-2.00452 0,0 -2.67269,-2.07134 -2.87314,-3.87541 -0.20046,-1.80407 0.13363,-2.93997 0.73499,-4.00904 0.60135,-1.06908 3.40768,-2.40543 3.40768,-2.40543 0,0 -1.73725,-0.86863 -1.73725,-1.80407 0,-0.93544 0.26727,-5.61266 2.53906,-6.88219 2.27179,-1.26953 5.01131,-0.53454 5.01131,-0.53454 0,0 -2.20498,-3.4745 -2.20498,-5.34539 0,-1.87088 1.80407,-4.27631 3.47451,-4.74403 1.67043,-0.46772 8.21854,-0.33409 12.22758,1.20271 4.00904,1.5368 4.81085,3.74177 7.48354,5.14494 2.6727,1.40316 9.42125,6.1472 11.02487,6.1472 1.60362,0 9.35444,2.73951 11.75986,5.14493 2.40543,2.40543 3.14042,8.15173 3.74177,10.15625 0.60136,2.00452 3.20724,9.02034 7.81764,12.09394 4.6104,3.0736 44.09947,27.39513 44.09947,27.39513 z"
           style="fill:#deaa87;fill-opacity:1;fill-rule:evenodd;stroke:none;stroke-width:0.26458332px;stroke-linecap:butt;stroke-linejoin:miter;stroke-opacity:1" />
      </g>
      <g
         inkscape:label="Hand"
         id="layer7-9" />
      <path
         inkscape:connector-curvature="0"
         id="path4871"
         d="m 135.07924,227.54166 c 0,0 2.12612,0.56697 3.40179,1.27567 1.27567,0.70871 4.34672,3.26005 4.34672,4.44122 0,1.18118 0.61421,5.90588 0.61421,5.90588 0,0 -0.14174,-6.04762 0.42523,-6.09486 0.56696,-0.0472 1.93712,1.22842 1.93712,1.22842 0,0 -4.67745,-5.05543 -5.90587,-5.6224 -1.22843,-0.56696 -3.44904,-1.65364 -3.96875,-1.65364 -0.51972,0 -0.42523,0 -0.85045,0.51971 z"
         style="fill:#502d16;fill-opacity:1;fill-rule:evenodd;stroke:none;stroke-width:0.26458332px;stroke-linecap:butt;stroke-linejoin:miter;stroke-opacity:1" />
      <path
         inkscape:connector-curvature="0"
         id="path4873"
         d="m 149.86756,223.62016 c 0,0 -2.36235,-0.85044 -2.78758,-1.13393 -0.42522,-0.28348 -0.85044,-1.65364 -3.26004,-2.36235 -2.4096,-0.70871 -7.03981,-3.35454 -7.03981,-3.35454 0,0 3.11831,1.37017 4.39398,1.65365 1.27567,0.28348 4.39397,1.6064 5.14992,2.03162 0.75595,0.42522 3.54353,3.16555 3.54353,3.16555 z"
         style="fill:#502d16;fill-opacity:1;fill-rule:evenodd;stroke:none;stroke-width:0.26458332px;stroke-linecap:butt;stroke-linejoin:miter;stroke-opacity:1" />
      <path
         inkscape:connector-curvature="0"
         id="path4875"
         d="m 155.86793,208.78459 c 0,0 -1.79539,2.12612 -3.2128,1.93713 -1.41741,-0.18898 -7.27604,-2.40959 -8.12649,-2.55134 -0.85044,-0.14174 -2.17336,-0.85044 -2.17336,-0.85044 0,0 1.13393,-0.33073 2.07887,-0.0945 0.94494,0.23624 5.05543,2.4096 6.14211,2.4096 1.08669,0 1.79539,1.70089 5.29167,-0.85045 z"
         style="fill:#502d16;fill-opacity:1;fill-rule:evenodd;stroke:none;stroke-width:0.26458332px;stroke-linecap:butt;stroke-linejoin:miter;stroke-opacity:1" />
      <path
         inkscape:connector-curvature="0"
         id="path4877"
         d="m 176.18415,256.12611 c 0,0 4.11049,2.03163 5.57515,3.35454 1.46466,1.32292 1.98437,2.88207 3.2128,3.35454 1.22842,0.47247 4.20498,1.74814 4.20498,1.74814 l 2.45685,0 c 0,0 -4.72471,-1.51191 -5.48066,-2.26786 -0.75595,-0.75595 -1.55915,-3.16555 -3.82701,-4.39397 -2.26785,-1.22842 -6.14211,-1.79539 -6.14211,-1.79539 z"
         style="fill:#502d16;fill-opacity:1;fill-rule:evenodd;stroke:none;stroke-width:0.26458332px;stroke-linecap:butt;stroke-linejoin:miter;stroke-opacity:1" />
    </g>
  </g>
  <g
     inkscape:groupmode="layer"
     id="layer4"
     inkscape:label="Artist Name">
    <text
       xml:space="preserve"
       style="font-style:normal;font-variant:normal;font-weight:600;font-stretch:normal;font-size:33.93782806px;line-height:100%;font-family:Museo;-inkscape-font-specification:'Museo, Semi-Bold';text-align:start;letter-spacing:0px;word-spacing:0px;writing-mode:lr-tb;text-anchor:start;fill:#ffffff;fill-opacity:1;stroke:none;stroke-width:0.84843826px;stroke-linecap:butt;stroke-linejoin:miter;stroke-opacity:1"
       x="174.29359"
       y="70.547501"
       id="text4158"
       sodipodi:linespacing="100%"><tspan
         sodipodi:role="line"
         x="174.29359"
         y="70.547501"
         style="font-style:normal;font-variant:normal;font-weight:600;font-stretch:normal;font-size:33.93782806px;line-height:100%;font-family:Museo;-inkscape-font-specification:'Museo, Semi-Bold';text-align:start;writing-mode:lr-tb;text-anchor:start;fill:#ffffff;fill-opacity:1;stroke-width:0.84843826px"
         id="tspan5867">Jeff</tspan><tspan
         sodipodi:role="line"
         x="174.29359"
         y="104.48533"
         style="font-style:normal;font-variant:normal;font-weight:600;font-stretch:normal;font-size:33.93782806px;line-height:100%;font-family:Museo;-inkscape-font-specification:'Museo, Semi-Bold';text-align:start;writing-mode:lr-tb;text-anchor:start;fill:#ffffff;fill-opacity:1;stroke-width:0.84843826px"
         id="tspan4242">Berlin</tspan></text>
  </g>
  <g
     inkscape:groupmode="layer"
     id="layer6"
     inkscape:label="WEIRD">
    <path
       style="opacity:1;fill:#ffffff;fill-opacity:1;stroke:none;stroke-width:17.2258606;stroke-miterlimit:4;stroke-dasharray:none;stroke-opacity:1"
       d="M 245.3457 602.625 L 245.3457 672.625 L 495.3457 672.625 L 495.3457 602.625 L 245.3457 602.625 z M 254.20703 613.5 L 258.08398 613.5 C 261.48345 613.5 263.18217 614.17987 263.99805 617.44336 L 271.4082 648.31055 C 272.02011 650.89414 272.36133 653.41016 272.36133 653.41016 L 272.49609 653.41016 C 272.49609 653.41016 272.90446 650.96213 273.65234 648.31055 L 283.30664 613.63477 L 289.42578 613.63477 L 298.40039 648.31055 C 299.08028 650.96213 299.41992 653.41016 299.41992 653.41016 L 299.55664 653.41016 C 299.55664 653.41016 299.8295 650.89414 300.44141 648.31055 L 307.98828 617.44336 C 308.80415 614.17987 310.43452 613.5 313.83398 613.5 L 317.70898 613.5 L 317.70898 619.3457 L 316.68945 619.3457 C 315.46565 619.3457 314.71885 619.61799 314.37891 620.8418 L 303.83984 661.5 L 295.95312 661.5 L 287.79492 631.17773 C 286.97905 628.05022 286.43555 624.58203 286.43555 624.58203 L 286.29883 624.58203 C 286.29883 624.58203 285.61824 628.04985 284.73438 631.10938 L 276.0332 661.5 L 268.07812 661.5 L 257.53906 620.8418 C 257.19912 619.61799 256.45232 619.3457 255.22852 619.3457 L 254.20703 619.3457 L 254.20703 613.5 z M 326.5 613.5 L 354.7168 613.5 C 357.77632 613.5 359.06641 614.79204 359.06641 617.85156 L 359.06641 623.90234 L 352.88086 623.90234 L 352.88086 620.8418 C 352.88086 619.82196 352.33662 619.3457 351.38477 619.3457 L 337.71875 619.3457 L 337.71875 634.37305 L 354.51172 634.37305 L 354.51172 640.21875 L 337.71875 640.21875 L 337.71875 654.15625 C 337.71875 655.1081 338.26299 655.65234 339.21484 655.65234 L 353.2207 655.65234 C 354.17255 655.65234 354.7168 655.1081 354.7168 654.15625 L 354.7168 651.09766 L 360.9707 651.09766 L 360.9707 657.14844 C 360.9707 660.20796 359.67866 661.5 356.61914 661.5 L 335.27148 661.5 C 332.21196 661.5 330.91992 660.20796 330.91992 657.14844 L 330.91992 619.3457 L 326.5 619.3457 L 326.5 613.5 z M 370.41406 613.5 L 386.25586 613.5 L 386.25586 619.3457 L 381.56445 619.3457 L 381.56445 655.65234 L 386.25586 655.65234 L 386.25586 661.5 L 370.41406 661.5 L 370.41406 655.65234 L 375.10547 655.65234 L 375.10547 619.3457 L 370.41406 619.3457 L 370.41406 613.5 z M 396.6543 613.5 L 417.5957 613.5 C 426.02638 613.5 431.94141 618.80359 431.94141 627.57422 C 431.94141 635.59696 426.70611 639.53923 423.30664 640.28711 L 423.30664 640.42383 C 423.30664 640.42383 424.52983 641.03585 425.3457 642.59961 L 431.125 654.08984 C 431.80489 655.51762 432.89365 655.65234 434.52539 655.65234 L 435.4082 655.65234 L 435.4082 661.5 L 432.07812 661.5 C 428.33871 661.5 426.97782 661.02399 425.41406 657.89648 L 418.88672 644.97852 C 417.66291 642.73487 416.78049 642.39453 414.12891 642.39453 L 407.87305 642.39453 L 407.87305 661.5 L 401.07422 661.5 L 401.07422 619.3457 L 396.6543 619.3457 L 396.6543 613.5 z M 443.75 613.5 L 463.19531 613.5 C 477.81302 613.5 487.4668 622.27002 487.4668 637.43164 C 487.4668 652.66125 477.81302 661.5 463.19531 661.5 L 452.51953 661.5 C 449.46001 661.5 448.16992 660.20796 448.16992 657.14844 L 448.16992 619.3457 L 443.75 619.3457 L 443.75 613.5 z M 407.87305 619.3457 L 407.87305 636.54883 L 416.71094 636.54883 C 421.87813 636.54883 424.9375 633.21686 424.9375 627.8457 C 424.9375 622.47455 421.87887 619.3457 416.84766 619.3457 L 407.87305 619.3457 z M 454.96875 619.3457 L 454.96875 654.15625 C 454.96875 655.1081 455.51299 655.65234 456.46484 655.65234 L 462.71875 655.65234 C 473.39308 655.65234 480.39648 649.26179 480.39648 637.43164 C 480.39648 625.66949 473.32509 619.3457 462.71875 619.3457 L 454.96875 619.3457 z "
       transform="scale(0.26458334)"
       id="rect4172" />
  </g>
  <g
     inkscape:groupmode="layer"
     id="layer7"
     inkscape:label="MAKE">
    <text
       xml:space="preserve"
       style="font-style:normal;font-variant:normal;font-weight:normal;font-stretch:normal;font-size:17.99166679px;line-height:100%;font-family:Museo;-inkscape-font-specification:'Museo, Normal';text-align:start;letter-spacing:0px;word-spacing:0px;writing-mode:lr-tb;text-anchor:start;fill:#ffffff;fill-opacity:1;stroke:none;stroke-width:0.26458335px;stroke-linecap:butt;stroke-linejoin:miter;stroke-opacity:1"
       x="10.690782"
       y="175.02188"
       id="text4175"
       sodipodi:linespacing="100%"><tspan
         sodipodi:role="line"
         id="tspan4177"
         x="10.690782"
         y="175.02188"
         style="font-style:normal;font-variant:normal;font-weight:normal;font-stretch:normal;font-size:17.99166679px;line-height:100%;font-family:Museo;-inkscape-font-specification:'Museo, Normal';text-align:start;writing-mode:lr-tb;text-anchor:start;fill:#ffffff;fill-opacity:1;stroke-width:0.26458335px;letter-spacing:1.32291669px">MAKE</tspan></text>
  </g>
  <g
     inkscape:groupmode="layer"
     id="layer8"
     inkscape:label="MUSIC">
    <text
       xml:space="preserve"
       style="font-style:normal;font-variant:normal;font-weight:normal;font-stretch:normal;font-size:17.99166679px;line-height:100%;font-family:Museo;-inkscape-font-specification:'Museo, Normal';text-align:start;letter-spacing:0px;word-spacing:0px;writing-mode:lr-tb;text-anchor:start;fill:#ffffff;fill-opacity:1;stroke:none;stroke-width:0.26458335px;stroke-linecap:butt;stroke-linejoin:miter;stroke-opacity:1"
       x="134.21758"
       y="174.80598"
       id="text4180"
       sodipodi:linespacing="100%"><tspan
         sodipodi:role="line"
         id="tspan4182"
         x="134.21758"
         y="174.80598"
         style="font-style:normal;font-variant:normal;font-weight:normal;font-stretch:normal;font-size:17.99166679px;line-height:100%;font-family:Museo;-inkscape-font-specification:'Museo, Normal';text-align:start;writing-mode:lr-tb;text-anchor:start;fill:#ffffff;fill-opacity:1;stroke-width:0.26458335px">MUSIC</tspan></text>
  </g>
</svg>
