<?xml version="1.0" encoding="UTF-8" standalone="no"?>
<svg
   xmlns:dc="http://purl.org/dc/elements/1.1/"
   xmlns:cc="http://creativecommons.org/ns#"
   xmlns:rdf="http://www.w3.org/1999/02/22-rdf-syntax-ns#"
   xmlns:svg="http://www.w3.org/2000/svg"
   xmlns="http://www.w3.org/2000/svg"
   xmlns:sodipodi="http://sodipodi.sourceforge.net/DTD/sodipodi-0.dtd"
   xmlns:inkscape="http://www.inkscape.org/namespaces/inkscape"
   width="1000"
   height="1000"
   viewBox="0 0 264.58333 264.58334"
   version="1.1"
   id="svg8"
   inkscape:version="1.0rc1 (09960d6, 2020-04-09)"
   sodipodi:docname="fracture.svg"
   inkscape:export-filename="/Volumes/MWM 8TB 1/Fracture Book/picks/pick-knot.png"
   inkscape:export-xdpi="90"
   inkscape:export-ydpi="90">
  <defs
     id="defs2" />
  <sodipodi:namedview
     id="base"
     pagecolor="#ffffff"
     bordercolor="#666666"
     borderopacity="1.0"
     inkscape:pageopacity="0.0"
     inkscape:pageshadow="2"
     inkscape:zoom="1.979899"
     inkscape:cx="466.06366"
     inkscape:cy="495.42562"
     inkscape:document-units="px"
     inkscape:current-layer="layer2"
     showgrid="false"
     units="px"
     showguides="true"
     inkscape:guide-bbox="true"
     inkscape:window-width="3200"
     inkscape:window-height="1755"
     inkscape:window-x="0"
     inkscape:window-y="23"
     inkscape:window-maximized="1"
     inkscape:snap-global="false"
     inkscape:document-rotation="0">
    <sodipodi:guide
       position="264.58334,264.58334"
       orientation="1,0"
       id="guide10"
       inkscape:locked="false"
       inkscape:label=""
       inkscape:color="rgb(0,0,255)" />
    <sodipodi:guide
       position="0,0"
       orientation="1,0"
       id="guide12"
       inkscape:locked="false"
       inkscape:label=""
       inkscape:color="rgb(0,0,255)" />
    <sodipodi:guide
       position="264.58334,264.58334"
       orientation="0,1"
       id="guide14"
       inkscape:locked="false"
       inkscape:label=""
       inkscape:color="rgb(0,0,255)" />
    <sodipodi:guide
       position="0,0"
       orientation="0,1"
       id="guide16"
       inkscape:locked="false"
       inkscape:label=""
       inkscape:color="rgb(0,0,255)" />
  </sodipodi:namedview>
  <metadata
     id="metadata5">
    <rdf:RDF>
      <cc:Work
         rdf:about="">
        <dc:format>image/svg+xml</dc:format>
        <dc:type
           rdf:resource="http://purl.org/dc/dcmitype/StillImage" />
        <dc:title></dc:title>
      </cc:Work>
    </rdf:RDF>
  </metadata>
  <g
     inkscape:groupmode="layer"
     id="layer2"
     inkscape:label="Pick">
    <path
       style="fill:#1a1a1a;stroke:#000000;stroke-width:0.26458300000000001px;stroke-linecap:butt;stroke-linejoin:miter;stroke-opacity:1"
       d="m 35.68048,44.634009 195.90856,0.267272 c 0,0 4.62448,0.214531 8.01809,3.608138 3.39361,3.393607 -0.40091,9.755336 -0.40091,9.755336 L 139.38106,228.11454 c 0,0 -1.20272,3.60814 -6.54811,3.60814 -5.3454,0 -7.08264,-3.20724 -7.08264,-3.20724 L 26.058779,56.794775 c 0,0 -1.336348,-6.280836 1.603618,-9.220799 2.939965,-2.939965 8.018083,-2.939967 8.018083,-2.939967 z"
       id="path2307"
       inkscape:connector-curvature="0"
       sodipodi:nodetypes="cczcczccsc" />
    <circle
       style="fill:none;stroke:#ffffeb;stroke-width:1.5875;stroke-linecap:round;stroke-opacity:1"
       id="path2309"
       cx="134.89891"
       cy="109.64196"
       r="46.972622" />
    <path
       style="fill:none;stroke:#ffffeb;stroke-width:1.5875;stroke-linecap:butt;stroke-linejoin:miter;stroke-miterlimit:4;stroke-dasharray:none;stroke-opacity:1"
       d="m 107.97689,136.44109 c 0,0 0.26727,3.47451 2.13815,3.0736 1.87089,-0.4009 1.87089,-3.60814 1.87089,-4.14268 0,-0.53453 -0.26727,-2.27179 -1.20271,-3.0736 -0.93544,-0.8018 -5.61266,-2.80633 -7.61718,-3.60813 -2.00452,-0.80181 -7.082646,-5.07813 -8.018088,-8.28536 -0.935445,-3.20723 1.737251,-8.81989 3.207234,-10.28988 1.469982,-1.46998 4.142674,-5.47902 4.276314,-6.68174 0.13363,-1.20271 -1.87089,-7.082637 -6.548106,-5.879923 -4.677217,1.202713 -4.810853,6.147203 -4.142676,7.483543 0.668173,1.33635 5.34539,6.41447 5.879927,7.21628 0.534541,0.80181 2.138157,3.34087 0.935445,3.87541 -1.202713,0.53454 -4.009043,-0.13364 -5.211757,-2.13816 -1.202714,-2.00452 0.267269,-6.1472 1.870888,-8.15172 1.603615,-2.00452 6.949009,-5.07812 8.819889,-6.949006 1.87089,-1.870888 2.00453,-4.543582 1.33635,-6.815373 -0.66817,-2.27179 -1.87088,-7.483547 -0.80181,-10.423512 1.06908,-2.939965 4.67722,-6.548101 7.48355,-5.746295 2.80633,0.801809 3.60814,3.207234 3.4745,5.211757 -0.13363,2.004521 -3.20723,5.345391 -5.34539,6.548102 -2.13815,1.202713 -8.81989,2.405427 -8.68626,4.409948 0.13364,2.004523 5.7463,0.53454 6.81538,-1.737252 1.06907,-2.271792 2.40542,-13.49711 6.1472,-15.902538 3.74177,-2.405424 8.01808,-2.672693 11.75985,-0.534537 3.74178,2.138156 10.95806,8.819893 13.76439,12.160763 2.80633,3.34087 9.5288,11.939855 14.03165,20.847023 3.6472,7.21458 6.949,16.57071 7.48354,19.51067 0.53454,2.93997 2.40543,12.42804 -0.80181,12.82894 -3.20723,0.40091 -2.93996,-2.67269 -2.27179,-4.81085 0.66818,-2.13816 4.94449,-5.61266 7.88445,-6.28083 2.93997,-0.66818 7.75082,-3.0736 8.68626,-6.41447 0.93545,-3.34087 -0.53454,-8.01809 -2.80633,-11.22532 -2.27179,-3.20724 -5.74629,-6.41447 -4.40995,-10.02261 1.33635,-3.608137 3.87541,-4.810851 6.54811,-3.741773 2.6727,1.069078 4.14268,7.349913 2.80633,9.755343 -1.33635,2.40542 -5.07812,5.34539 -6.1472,6.81537 -1.06908,1.46998 -0.13363,3.60814 2.27179,2.53906 2.40543,-1.06908 2.93997,-2.93997 3.20723,-5.47903 0.26727,-2.53906 -1.06907,-4.94448 -3.60813,-6.68173 -2.53906,-1.73726 -9.2208,-5.345394 -8.55263,-9.621706 0.66818,-4.276313 1.60362,-10.289879 0.13364,-13.497113 -1.46999,-3.207234 -6.41447,-6.013564 -9.6217,-2.405425 -3.20724,3.608139 1.73725,8.552624 4.67721,8.953529 2.93996,0.400905 7.34991,2.00452 8.15172,3.207234 0.80181,1.202714 1.46998,2.80633 -0.66817,2.80633 -2.13816,0 -4.14268,-0.534538 -5.7463,-3.741772 -1.60362,-3.207234 -1.73725,-8.953529 -2.80633,-11.49259 -1.06907,-2.539061 -6.02395,-6.458239 -9.48807,-5.612662 -3.0853,0.753109 -9.22079,4.276313 -13.36347,8.285356 -4.14268,4.009043 -13.09621,15.234363 -18.70887,25.256969 -4.09068,7.30479 -9.48807,23.51972 -9.08716,30.60236 z"
       id="path2311"
       inkscape:connector-curvature="0"
       sodipodi:nodetypes="csssssssssssssssssssssssssssssssssssssssssssssssssc" />
    <path
       style="fill:none;stroke:#ffffeb;stroke-width:1.5875;stroke-linecap:butt;stroke-linejoin:miter;stroke-miterlimit:4;stroke-dasharray:none;stroke-opacity:1"
       d="m 158.7581,124.68123 c -5.07812,1.60362 -16.16981,3.07361 -23.78699,3.0736 -6.54946,0 -21.78247,-2.80633 -25.25697,-4.00904 -3.4745,-1.20271 -9.08716,-3.20723 -11.893495,0 -2.806329,3.20723 0.80181,8.95353 4.142675,9.6217 3.34087,0.66818 10.42352,2.27179 13.09621,3.47451 2.6727,1.20271 5.07812,7.08264 6.28084,8.81989 1.20271,1.73725 2.00452,6.41447 6.5481,5.34539 4.54358,-1.06908 4.67721,-2.67269 3.4745,-4.14268 -1.20271,-1.46998 -6.01356,3.34087 -9.6217,3.20724 -3.60814,-0.13364 -9.62171,-4.67722 -7.88445,-9.08717 1.73725,-4.40994 6.81537,-2.13815 8.41899,-0.93544 1.60361,1.20271 3.60814,9.75534 8.01808,11.49259 4.40995,1.73725 9.75534,1.33635 12.2944,-2.00452 2.53906,-3.34087 4.27631,-11.22532 9.35443,-10.82442 5.07813,0.40091 4.67722,3.60814 4.40995,6.1472 -0.26727,2.53906 -4.00904,5.21176 -7.34991,4.94449 -3.34087,-0.26727 -8.68626,-3.20724 -9.75534,-2.40543 -1.06907,0.80181 0,3.0736 2.6727,3.60814 2.67269,0.53454 4.40994,0 6.41447,-3.74177 2.00452,-3.74177 4.67721,-9.08716 7.75081,-10.69078 3.0736,-1.60362 13.89802,-2.53906 16.16981,-4.54358 2.27179,-2.00453 2.67269,-6.54811 0.80181,-8.28536 -1.87089,-1.73725 -7.88446,-1.60362 -14.29892,0.93544 z"
       id="path2313"
       inkscape:connector-curvature="0"
       sodipodi:nodetypes="cssssssssssssssssssssssc" />
    <path
       style="fill:none;stroke:#ffffeb;stroke-width:1.58750001;stroke-linecap:butt;stroke-linejoin:miter;stroke-opacity:1;stroke-miterlimit:4;stroke-dasharray:none"
       d="m 166.90982,135.37201 c 0,0 -1.20271,5.7463 -5.47903,8.28536 -4.27631,2.53906 -11.62622,1.60362 -16.97161,-0.13363 -5.34539,-1.73726 -6.28083,-3.60814 -9.2208,-3.74178 -2.93997,-0.13363 -6.28084,2.13816 -10.69078,3.60814 -4.40995,1.46998 -11.22532,3.74177 -15.63527,0.4009 -4.40994,-3.34087 -6.1472,-8.41899 -5.87993,-12.02713 0.26727,-3.60813 1.73725,-11.75985 0.53454,-15.50163 -1.20271,-3.74177 -8.953529,-13.22984 -8.552624,-18.575228 0.400905,-5.345393 2.00452,-11.091687 6.949004,-13.096208 4.94449,-2.00452 14.16529,-2.405425 18.4416,-4.944485 4.27631,-2.539061 7.88445,-8.552625 10.82442,-9.087165 2.93996,-0.534538 8.15172,3.474503 9.88897,6.414468 1.73725,2.939965 -1.73725,3.474506 -2.27179,1.33635 -0.53454,-2.138156 1.46998,-6.949009 0.80181,-8.552627 -0.66818,-1.603616 -1.46998,-3.474503 -4.27632,-3.608139 -2.80633,-0.133633 -4.14267,1.870887 -4.00904,4.009043 0.13364,2.138156 0.26727,6.949009 -0.26727,8.285356 -0.53454,1.336347 -2.93996,0.935445 -2.13816,-1.069078 0.80181,-2.004521 5.87994,-7.082642 9.62171,-7.216278 3.74177,-0.133633 8.28535,8.418992 10.82441,9.888974 2.53906,1.469983 6.1472,2.004521 12.96258,2.80633 6.81537,0.801809 10.69078,5.211754 12.02713,8.418988 1.33634,3.207235 -0.93545,12.160759 -2.53907,14.833459 -1.60361,2.6727 -6.28083,10.02261 -5.74629,15.50163 0.53454,5.47903 1.20271,11.8935 0.80181,13.76438 z"
       id="path2315"
       inkscape:connector-curvature="0" />
  </g>
</svg>
