<?xml version="1.0" encoding="UTF-8" standalone="no"?>
<!-- Created with Inkscape (http://www.inkscape.org/) -->

<svg
   xmlns:dc="http://purl.org/dc/elements/1.1/"
   xmlns:cc="http://creativecommons.org/ns#"
   xmlns:rdf="http://www.w3.org/1999/02/22-rdf-syntax-ns#"
   xmlns:svg="http://www.w3.org/2000/svg"
   xmlns="http://www.w3.org/2000/svg"
   xmlns:sodipodi="http://sodipodi.sourceforge.net/DTD/sodipodi-0.dtd"
   xmlns:inkscape="http://www.inkscape.org/namespaces/inkscape"
   width="1000"
   height="1000"
   viewBox="0 0 264.58333 264.58334"
   version="1.1"
   id="svg8"
   inkscape:version="0.92.2 5c3e80d, 2017-08-06"
   sodipodi:docname="sarah-garone.svg"
   inkscape:export-filename="/Users/agarone/Documents/GitHub/art/sarah-garone/sarah-garone.png"
   inkscape:export-xdpi="96"
   inkscape:export-ydpi="96">
  <defs
     id="defs2" />
  <sodipodi:namedview
     id="base"
     pagecolor="#ffffff"
     bordercolor="#666666"
     borderopacity="1.0"
     inkscape:pageopacity="0.0"
     inkscape:pageshadow="2"
     inkscape:zoom="0.98994949"
     inkscape:cx="323.84733"
     inkscape:cy="566.40702"
     inkscape:document-units="px"
     inkscape:current-layer="layer1"
     showgrid="false"
     units="px"
     showguides="true"
     inkscape:guide-bbox="true"
     inkscape:window-width="3200"
     inkscape:window-height="1677"
     inkscape:window-x="0"
     inkscape:window-y="1"
     inkscape:window-maximized="1"
     inkscape:snap-global="false">
    <sodipodi:guide
       position="264.58334,264.58334"
       orientation="1,0"
       id="guide10"
       inkscape:locked="false"
       inkscape:label=""
       inkscape:color="rgb(0,0,255)" />
    <sodipodi:guide
       position="0,0"
       orientation="1,0"
       id="guide12"
       inkscape:locked="false"
       inkscape:label=""
       inkscape:color="rgb(0,0,255)" />
    <sodipodi:guide
       position="264.58334,264.58334"
       orientation="0,1"
       id="guide14"
       inkscape:locked="false"
       inkscape:label=""
       inkscape:color="rgb(0,0,255)" />
    <sodipodi:guide
       position="0,0"
       orientation="0,1"
       id="guide16"
       inkscape:locked="false"
       inkscape:label=""
       inkscape:color="rgb(0,0,255)" />
  </sodipodi:namedview>
  <metadata
     id="metadata5">
    <rdf:RDF>
      <cc:Work
         rdf:about="">
        <dc:format>image/svg+xml</dc:format>
        <dc:type
           rdf:resource="http://purl.org/dc/dcmitype/StillImage" />
        <dc:title></dc:title>
      </cc:Work>
    </rdf:RDF>
  </metadata>
  <g
     inkscape:label="BG"
     inkscape:groupmode="layer"
     id="layer1"
     transform="translate(0,-32.41665)"
     style="display:none">
    <rect
       id="rect4493"
       width="264.58334"
       height="264.58334"
       x="0"
       y="32.416641"
       style="fill:#ffffff;fill-opacity:1;stroke-width:0.26458332" />
  </g>
  <g
     inkscape:groupmode="layer"
     id="layer2"
     inkscape:label="Sarah">
    <path
       style="fill:#080404;fill-opacity:1;stroke:#000000;stroke-width:0.26458332px;stroke-linecap:butt;stroke-linejoin:miter;stroke-opacity:1"
       d="m 169.98342,172.64261 c 1.33634,7.75082 3.74177,13.89802 20.84702,19.24341 17.10525,5.34539 48.37578,5.87993 62.54107,24.05426 14.16528,18.17432 16.03618,48.64305 16.03618,48.64305 H -11.171502 c 0,0 2.3516077,-26.19241 13.3096582,-41.96132 10.9580508,-15.7689 87.9316738,-48.64305 93.0097958,-50.24667 5.078118,-1.60361 74.835468,0.26727 74.835468,0.26727 z"
       id="path1210"
       inkscape:connector-curvature="0"
       sodipodi:nodetypes="cssccscc" />
    <path
       style="fill:#885a39;stroke:none;stroke-width:0.31378195px;stroke-linecap:butt;stroke-linejoin:miter;stroke-opacity:1;fill-opacity:1"
       d="m 103.72773,174.85521 c -0.57972,5.54577 6.66677,19.75683 27.24677,19.41022 20.58002,-0.3466 36.52227,-18.37039 39.42087,-21.83649 2.89859,-3.46612 8.11605,-12.1314 8.11605,-16.63734 0,-4.50596 -60.00087,6.93222 -74.78369,19.06361 z"
       id="path1208"
       inkscape:connector-curvature="0" />
    <path
       style="fill:#190e07;stroke:none;stroke-width:0.26458332px;stroke-linecap:butt;stroke-linejoin:miter;stroke-opacity:1;fill-opacity:1"
       d="m 89.802561,196.16233 c 4.543581,0.53454 5.345391,3.74177 5.345391,3.74177 0,0 -0.534541,-2.93996 1.603615,-5.61266 2.138157,-2.67269 6.681743,0.26727 6.681743,-8.28535 0,-8.55262 -21.916104,-70.02462 -21.916104,-70.02462 0,0 -1.069078,68.15373 8.285355,80.18086 z"
       id="path1206"
       inkscape:connector-curvature="0" />
    <path
       transform="translate(0,-32.41665)"
       style="fill:#c8865b;fill-opacity:1;stroke:none;stroke-width:0.26458332px;stroke-linecap:butt;stroke-linejoin:miter;stroke-opacity:1"
       d="M 122.08631,85.522303 C 92.982141,88.92409 73.458182,97.654482 74.839284,138.43897 c 1.338653,39.53094 30.616076,85.04464 44.412206,85.04464 13.79613,0 13.41815,0.37798 20.41071,-4.15774 6.99256,-4.53571 30.99405,-17.57589 35.90774,-36.85267 4.91369,-19.27679 10.20536,-49.3259 3.40178,-73.89435 -6.80357,-24.568451 -47.625,-23.056547 -56.88541,-23.056547 z"
       id="path1130"
       inkscape:connector-curvature="0"
       sodipodi:nodetypes="csscssc" />
    <path
       style="fill:#deaa87;stroke:none;stroke-width:0.26458332px;stroke-linecap:butt;stroke-linejoin:miter;stroke-opacity:1"
       d="m 120.00744,90.903273 c -1.70089,3.96875 0.56696,21.166667 -0.37798,25.702377 -0.94494,4.53572 -1.5119,10.77232 -1.5119,14.17411 0,3.40179 2.83482,4.7247 2.45684,5.48065 -0.37797,0.75596 2.07887,0.94495 2.83482,1.88989 0.75596,0.94494 3.59078,3.96875 3.40179,6.99256 -0.18899,3.0238 -1.5119,3.40178 -0.94494,4.34672 0.56696,0.94494 1.70089,2.07887 1.32292,2.83482 -0.37798,0.75596 0.18898,3.2128 0.56696,3.77976 0.37798,0.56697 5.29167,-0.94494 4.91369,1.13393 -0.37797,2.07887 -3.2128,5.10268 -3.77976,6.61459 -0.56696,1.5119 3.59077,1.32291 3.77976,3.40178 0.18899,2.07887 -0.18899,6.04762 -2.07887,6.61459 -1.88988,0.56696 -2.07887,4.15773 -0.56696,6.61458 1.5119,2.45684 1.13393,6.04762 2.45684,6.99256 1.32292,0.94494 2.45685,1.88988 6.4256,-0.56697 3.96875,-2.45684 25.51339,-14.93006 29.48214,-25.13541 3.96875,-10.20536 -4.7247,-38.1756 -10.58333,-40.25447 -5.85863,-2.07887 -16.63095,-3.77976 -15.49703,4.34673 1.13393,8.12649 7.37054,13.41815 6.4256,17.19792 -0.94494,3.77976 -2.83482,5.85863 -2.83482,4.15773 0,-1.70089 -0.75595,-4.15773 -5.10268,-6.61458 -4.34673,-2.45684 -5.82502,-5.44908 -6.8941,-5.24863 -1.06908,0.20046 -4.27631,0.93545 -6.81537,0.66818 -2.53906,-0.26727 -5.41221,-0.86863 -4.6104,-1.67044 0.80181,-0.80181 4.6104,-1.9377 6.21402,-1.33634 1.60361,0.60135 3.4745,1.20271 2.80633,1.73725 -0.66818,0.53454 0.4009,0.93544 1.5368,0 1.13589,-0.93544 2.67269,-2.80633 2.00452,-4.81085 -0.66818,-2.00452 -3.80859,-4.07586 -2.53906,-4.07586 1.26953,0 3.27405,2.60588 3.40768,1.5368 0.13364,-1.06908 -3.74177,-15.30118 -5.34539,-18.24115 -1.60362,-2.93996 -6.68173,-6.01356 -5.74629,-7.88445 0.93544,-1.870885 3.4745,-0.4009 3.34087,-3.608139 -0.13364,-3.207234 -2.27179,-7.015824 -3.00679,-4.209495 -0.73499,2.80633 -2.13815,4.610399 -3.07359,2.004523 -0.93545,-2.605878 -0.59452,-4.520133 -2.06792,-4.565266 z"
       id="path1135"
       inkscape:connector-curvature="0" />
    <path
       style="fill:#cd9169;stroke:none;stroke-width:0.26458332px;stroke-linecap:butt;stroke-linejoin:miter;stroke-opacity:1;fill-opacity:1"
       d="m 122.94398,78.697375 c -2.13816,4.075861 -2.47224,7.216277 -1.13589,8.352173 1.33634,1.135896 18.44159,-4.009043 24.25471,-2.472243 5.81311,1.536801 12.36121,7.884451 12.42803,7.015824 0.0668,-0.868624 -1.40317,-8.819893 -4.67722,-13.49711 -3.27405,-4.677217 -5.0113,-11.960312 -9.75534,-14.566188 -4.74403,-2.605879 -23.58653,2.00452 -24.05425,4.610399 -0.46772,2.605878 0.8018,1.336347 5.07812,0.601355 4.27631,-0.734991 14.76664,-1.202711 12.2944,-0.801809 -2.47225,0.400905 -13.56393,1.202714 -13.76439,3.875411 -0.20045,2.672693 1.26954,3.407685 -0.66817,6.882188 z"
       id="path1137"
       inkscape:connector-curvature="0" />
    <path
       style="fill:#cd9169;stroke:none;stroke-width:0.26458332px;stroke-linecap:butt;stroke-linejoin:miter;stroke-opacity:1;fill-opacity:1"
       d="m 126.68576,92.461756 c 2.40542,0.267269 4.07585,1.202714 7.01582,-0.267269 2.93996,-1.469982 8.15172,-3.608138 13.8312,-2.939965 5.67948,0.668173 12.29439,3.80859 12.09394,5.211755 -0.20045,1.403167 -0.4009,3.87541 -2.20497,3.006783 -1.80407,-0.868627 -7.61718,-6.414469 -13.36348,-5.078122 -5.74629,1.336347 -9.75534,3.34087 -8.81989,3.674957 0.93544,0.334087 1.80407,0.334087 0.0668,1.135896 -1.73725,0.801809 -8.41899,2.405425 -7.88445,4.610399 0.53453,2.20497 1.73725,5.54584 3.34086,6.41447 1.60362,0.86863 0.80181,3.0736 2.6727,4.14267 1.87089,1.06909 8.75308,2.13816 14.96709,1.80407 6.21402,-0.33408 8.88671,-5.87992 9.15399,-7.08264 0.26726,-1.20271 -2.33861,-5.67947 -6.34766,-7.550362 -4.00904,-1.870887 -6.88219,-3.140416 -9.48806,-2.271789 -2.60588,0.868624 -2.33861,-0.734992 -0.13364,-1.135896 2.20497,-0.400905 6.94901,-0.801809 10.55715,1.603616 3.60814,2.405431 9.95579,7.750821 10.49032,6.681741 0.53454,-1.06908 -2.73951,-5.078123 -0.66817,-4.877672 2.07134,0.200454 3.54132,-1.603616 3.87541,-0.06682 0.33409,1.536802 5.14494,13.363482 5.67948,17.238882 0.53454,3.87541 2.00452,6.34766 2.00452,3.60814 0,-2.73951 -4.74404,-17.43933 -3.87541,-16.70434 0.86863,0.73499 4.6104,11.55941 5.27857,18.37478 0.66818,6.81537 2.00453,22.04973 1.33635,24.05426 -0.66817,2.00452 -3.74177,-20.11203 -4.40995,-22.98518 -0.66817,-2.87315 -3.27405,-11.15851 -4.67721,-11.8935 -1.40317,-0.73499 -3.54132,2.6727 -9.2208,4.87767 -5.67948,2.20498 -16.10299,4.87767 -22.51746,-0.46772 -6.41447,-5.34539 -11.29214,-11.69304 -11.22532,-13.96483 0.0668,-2.271795 0.0668,-8.819899 2.47225,-9.153986 z"
       id="path1141"
       inkscape:connector-curvature="0" />
    <path
       style="fill:#1a1a1a;stroke:none;stroke-width:0.26458332px;stroke-linecap:butt;stroke-linejoin:miter;stroke-opacity:1"
       d="m 157.15448,103.48662 c -2.07134,1.26954 -3.74177,1.20272 -5.21176,1.80407 -1.46998,0.60136 -5.14493,2.07134 -9.22079,2.20498 -4.07587,0.13363 -9.15398,-0.93545 -9.2208,-1.33635 -0.0668,-0.4009 0.46772,-3.34087 2.00452,-5.07812 1.5368,-1.737253 4.14268,-3.674958 6.81537,-3.808591 2.6727,-0.133636 6.08038,1.069078 8.41899,2.672694 2.33861,1.603617 5.61266,2.071337 5.61266,2.071337 0,0 -0.93544,0.20045 -1.33634,0.20045 -0.40091,0 0.60135,0.46773 1.33634,0.33409 0.73499,-0.13363 1.06908,-0.33409 1.06908,-0.33409 0,0 -0.13364,0.60136 -0.86863,0.735 -0.73499,0.13363 -1.00226,0.20045 -1.00226,0.20045 0,0 0.93545,0.60135 1.60362,0.33408 z"
       id="path1147"
       inkscape:connector-curvature="0" />
    <path
       style="fill:#deaa87;stroke:none;stroke-width:0.26458332px;stroke-linecap:butt;stroke-linejoin:miter;stroke-opacity:1;fill-opacity:1"
       d="m 131.0957,111.43789 c 3.60814,3.74178 12.49485,6.74856 19.17659,6.21402 6.68174,-0.53454 10.62396,-5.0113 12.09395,-3.80859 1.46998,1.20271 6.5481,14.2321 6.5481,19.9784 0,5.74629 0.0668,8.0849 -0.80181,6.41446 -0.86862,-1.67043 -5.94675,-17.77342 -11.75986,-18.24114 -5.81311,-0.46772 -13.22984,-1.46998 -13.63074,2.20497 -0.40091,3.67496 7.14946,16.23663 6.48128,17.63979 -0.66817,1.40316 -0.26727,1.87089 -2.40542,-2.33861 -2.13816,-4.20949 -4.47677,-9.35443 -8.21854,-10.82441 -3.74177,-1.46999 -7.34991,-12.56167 -7.48355,-17.23889 z"
       id="path1139"
       inkscape:connector-curvature="0" />
    <path
       style="fill:#e3e2db;stroke:none;stroke-width:0.26458332px;stroke-linecap:butt;stroke-linejoin:miter;stroke-opacity:1"
       d="m 135.97337,105.89205 c -0.13363,-1.60362 1.40317,-5.67948 5.54584,-6.013565 4.14268,-0.334087 10.55715,2.873145 10.49033,3.808595 -0.0668,0.93544 -4.14267,3.20723 -9.08716,3.27405 -4.94449,0.0668 -6.41447,-0.40091 -6.94901,-1.06908 z"
       id="path1143"
       inkscape:connector-curvature="0" />
    <path
       style="fill:#242e42;fill-opacity:1;stroke:none;stroke-width:2.57070851;stroke-linecap:round;stroke-miterlimit:4;stroke-dasharray:none;stroke-opacity:1"
       d="M 537.9043 377.4082 C 536.86671 377.38792 535.85359 377.41522 534.875 377.49414 C 528.06871 378.04303 523.12642 381.26408 519.75195 385.22852 A 19.445437 19.445437 0 0 0 519.72266 385.82812 A 19.445437 19.445437 0 0 0 532.99023 404.24609 C 535.14747 404.28849 537.51702 404.29769 540.17969 404.26172 C 542.31177 404.23291 544.39288 404.08331 546.42188 403.85742 A 19.445437 19.445437 0 0 0 558.61523 385.82812 A 19.445437 19.445437 0 0 0 558.19727 381.92188 C 551.73261 379.46818 544.3358 377.53394 537.9043 377.4082 z "
       transform="scale(0.26458333)"
       id="circle1151" />
    <path
       style="fill:#482727;fill-opacity:1;stroke:none;stroke-width:0.26458332px;stroke-linecap:butt;stroke-linejoin:miter;stroke-opacity:1"
       d="m 127.75483,90.524051 c -0.20045,-1.403165 1.33635,-3.140416 3.27406,-3.474503 1.9377,-0.334087 11.42577,-1.804069 14.36573,-1.202714 2.93997,0.601358 11.96031,5.011304 11.62623,5.946749 -0.33409,0.935442 -1.26953,0.534537 -1.46999,0.467722 -0.20045,-0.06682 -7.28309,-3.741774 -10.35669,-3.808592 -3.0736,-0.06682 -16.37026,3.541321 -17.43934,2.071338 z"
       id="path1145"
       inkscape:connector-curvature="0" />
    <circle
       style="fill:#110409;fill-opacity:1;stroke:none;stroke-width:0.26499999;stroke-linecap:round;stroke-miterlimit:4;stroke-dasharray:none;stroke-opacity:1"
       id="path1149"
       cx="142.65512"
       cy="101.94983"
       r="2.0045214" />
    <path
       style="fill:#bc7c50;stroke:none;stroke-width:0.26458332px;stroke-linecap:butt;stroke-linejoin:miter;stroke-opacity:1;fill-opacity:1"
       d="m 106.84099,67.538874 c -4.67721,5.81311 -10.62396,15.969353 -10.62396,18.976136 0,3.006781 -0.400905,2.939963 1.00226,2.873148 1.403165,-0.06682 7.08264,-1.202714 8.41899,-0.200454 1.33635,1.00226 2.47224,4.810853 1.33635,4.810853 -1.1359,0 -9.087167,-0.200454 -10.824418,0 -1.737252,0.200451 9.755338,0.801806 12.227578,1.536798 2.47225,0.734991 7.14946,5.144935 7.08264,8.084905 -0.0668,2.93996 -1.60361,13.76438 -2.3386,16.43707 -0.73499,2.6727 -1.00227,-2.00452 -0.60136,-4.81085 0.4009,-2.80633 0.26727,-6.41447 -0.40091,-5.54584 -0.66817,0.86863 -3.74177,5.07812 -6.48128,6.41447 -2.73951,1.33635 -13.430294,-1.87089 -16.236623,0.80181 -2.80633,2.67269 -4.075861,10.7576 -3.006783,16.57071 1.069078,5.81311 10.356693,21.9161 12.160763,21.5152 1.804073,-0.40091 4.409943,-19.37704 6.614923,-23.45291 2.20497,-4.07586 3.60814,-5.74629 3.40768,-5.0113 -0.20045,0.73499 -1.67043,5.07812 -1.40316,7.2831 0.26727,2.20497 0.93544,2.20497 1.33635,1.20271 0.4009,-1.00226 1.40316,-2.47225 2.80633,-2.80633 1.40316,-0.33409 3.20723,1.46998 4.27631,1.80407 1.06908,0.33408 3.40769,1.06908 3.74177,2.20497 0.33409,1.1359 -0.93544,1.46998 0.46772,2.00452 1.40317,0.53454 3.00679,1.40317 3.0736,2.73952 0.0668,1.33634 -0.93544,1.87088 -2.47224,1.80406 -1.5368,-0.0668 -2.53906,-1.5368 -4.00904,-0.86862 -1.46999,0.66817 -0.53454,-2.87315 -1.73725,-2.6727 -1.20272,0.20046 -4.2095,1.67044 -5.34539,1.06908 -1.1359,-0.60136 -2.2718,-1.67043 -2.87315,0.0668 -0.60136,1.73725 -4.47677,13.76438 -5.94675,15.10073 -1.469981,1.33635 1.73725,12.76212 4.74404,15.63526 3.00678,2.87315 4.40994,3.94223 4.27631,6.54811 -0.13364,2.60587 2.40542,7.88445 6.61492,9.48807 4.20949,1.60361 6.1472,-2.6727 8.95353,-2.40543 2.80633,0.26727 5.74629,3.0736 5.47902,4.40995 -0.26727,1.33635 -2.00452,2.13815 -5.41221,1.80407 -3.40768,-0.33409 -8.01808,0.20045 -14.90027,-6.88219 -6.88219,-7.08265 -16.437078,-17.10525 -19.644312,-25.52424 -3.207234,-8.41899 -7.550364,-23.65336 -6.614919,-36.14821 0.935442,-12.49485 3.00678,-33.60914 9.955789,-43.965834 6.949012,-10.356694 9.688522,-11.559408 12.895752,-10.891232 z"
       id="path1159"
       inkscape:connector-curvature="0" />
    <path
       inkscape:connector-curvature="0"
       id="path1204"
       d="m 106.60836,91.547774 c -0.1421,-1.41027 -2.05079,-2.728055 -4.01206,-2.587468 -1.96126,0.140584 -11.52488,0.990013 -14.234681,2.279187 -2.70981,1.289179 -10.40859,7.734563 -9.859826,8.56253 0.548772,0.827957 1.360698,0.214327 1.539272,0.10136 0.178563,-0.11296 6.172588,-5.379907 9.140377,-6.182222 2.967789,-0.802317 16.741758,-0.489837 17.426918,-2.173387 z"
       style="fill:#482727;fill-opacity:1;stroke:none;stroke-width:0.26458332px;stroke-linecap:butt;stroke-linejoin:miter;stroke-opacity:1" />
    <path
       inkscape:connector-curvature="0"
       id="path1187"
       d="m 86.487603,110.20814 c 2.288116,0.81652 3.909116,0.40767 5.471342,0.69392 1.562219,0.28627 5.460895,0.96922 9.477145,0.26196 4.01626,-0.70728 8.76605,-2.79764 8.74901,-3.20371 -0.0171,-0.40607 -1.14465,-3.17332 -3.00582,-4.55747 -1.86116,-1.38415 -4.80978,-2.74465 -7.45284,-2.32588 -2.643069,0.41875 -5.730646,2.29643 -7.689563,4.34663 -1.958917,2.05021 -5.066843,3.18112 -5.066843,3.18112 0,0 0.956668,0.004 1.349002,-0.0786 0.392344,-0.0824 -0.49233,0.58138 -1.239094,0.60172 -0.746761,0.0203 -1.11493,-0.10714 -1.11493,-0.10714 0,0 0.254432,0.56104 1.001196,0.5407 0.746761,-0.0204 1.02206,-0.01 1.02206,-0.01 0,0 -0.791818,0.78084 -1.500665,0.65666 z"
       style="fill:#1a1a1a;stroke:none;stroke-width:0.26458332px;stroke-linecap:butt;stroke-linejoin:miter;stroke-opacity:1" />
    <path
       style="fill:#e3e2db;stroke:none;stroke-width:0.26458332px;stroke-linecap:butt;stroke-linejoin:miter;stroke-opacity:1"
       d="m 93.87842,110.76972 c 2.672696,0.26727 7.75082,-0.20045 9.88897,-0.60136 2.13816,-0.4009 4.2095,-2.00452 4.14268,-2.73951 -0.0668,-0.73499 -3.54132,-4.00904 -7.951268,-3.94223 -4.409946,0.0668 -7.817634,4.54359 -7.884451,5.21176 -0.06682,0.66817 0.868627,1.9377 1.804069,2.07134 z"
       id="path1153"
       inkscape:connector-curvature="0" />
    <path
       style="fill:#242e42;fill-opacity:1;stroke:none;stroke-width:2.57070851;stroke-linecap:round;stroke-miterlimit:4;stroke-dasharray:none;stroke-opacity:1"
       d="M 377.79688 391.13086 C 367.97144 391.27969 359.48944 397.21613 354.10742 402.58594 A 19.445437 19.445437 0 0 0 365.41016 418.89062 C 371.60493 418.73483 378.42261 418.2072 384.07031 417.55273 A 19.445437 19.445437 0 0 0 392.94922 401.23242 A 19.445437 19.445437 0 0 0 391.38867 393.6543 C 387.32244 392.09761 382.72133 391.05625 377.79688 391.13086 z "
       transform="scale(0.26458333)"
       id="circle1155" />
    <circle
       r="2.0045214"
       cy="106.02569"
       cx="98.822922"
       id="circle1157"
       style="fill:#110409;fill-opacity:1;stroke:none;stroke-width:0.26499999;stroke-linecap:round;stroke-miterlimit:4;stroke-dasharray:none;stroke-opacity:1" />
    <path
       style="fill:#4a1414;stroke:none;stroke-width:0.26458332px;stroke-linecap:butt;stroke-linejoin:miter;stroke-opacity:1;fill-opacity:1"
       d="m 106.30645,157.54189 c 1.26953,-3.8086 4.34313,-8.95353 9.28762,-8.75308 4.94449,0.20045 5.81311,0.66817 9.68852,-0.33409 3.87541,-1.00226 4.20949,-1.60362 7.41673,-0.93544 3.20723,0.66817 8.61944,2.53906 9.48807,4.47676 0.86862,1.93771 0.86862,1.67044 0.4009,2.13816 -0.46772,0.46772 -10.15624,9.88897 -16.83798,10.15624 -6.68174,0.26727 -11.42577,-0.73499 -15.30118,-3.27405 -3.87541,-2.53906 -3.94222,-3.00678 -4.14268,-3.4745 z"
       id="path1165"
       inkscape:connector-curvature="0" />
    <path
       transform="translate(0,-32.41665)"
       style="fill:#28170b;stroke:none;stroke-width:0.26458332px;stroke-linecap:butt;stroke-linejoin:miter;stroke-opacity:1"
       d="m 138.52827,59.441948 c -4.7247,-2.456846 -19.46577,-7.748513 -41.38839,7.181546 -21.92262,14.930059 -30.238096,46.491076 -39.687499,55.751486 -9.449406,9.26042 -7.9375,26.45834 -11.90625,30.42709 -3.96875,3.96875 4.157737,15.68601 2.83482,22.67857 -1.322917,6.99256 -4.913691,8.88244 -4.157737,14.55208 0.755952,5.66964 10.77232,15.30804 9.827379,19.65476 -0.944938,4.34673 -4.535712,6.23661 -4.535712,6.23661 0,0 3.401785,-1.13393 4.913691,-1.70089 1.511903,-0.56697 -0.566965,7.9375 -0.566965,7.9375 0,0 -0.755952,-0.75596 2.456844,-0.18899 3.212798,0.56696 16.441965,14.55208 25.513392,15.68601 9.07143,1.13393 13.607145,-1.13393 13.607145,-1.13393 0,0 -5.977207,-19.92108 -8.056075,-27.29162 -2.078869,-7.37053 -4.209159,-44.5887 -4.228153,-54.54022 -0.01733,-9.08125 4.535715,-36.28572 8.315478,-42.9003 3.779761,-6.61458 11.150292,-15.686014 17.197912,-15.686014 6.04762,0 12.85119,-2.267855 21.35566,-5.291667 8.50446,-3.023809 18.70982,2.834823 20.5997,9.07143 1.88988,6.236611 15.875,13.796131 18.14286,17.575891 2.26785,3.77976 1.70089,24.94643 8.12649,34.39583 6.42559,9.44941 -5.66965,31.93899 -6.80358,48.56994 -1.13392,16.63096 4.53572,17.5759 4.15774,26.26935 -0.37797,8.69345 -5.48065,11.71726 1.32292,18.89881 6.80357,7.18155 12.85119,5.66964 12.85119,5.66964 0,0 -13.04018,-4.53571 -11.33929,-13.60714 1.7009,-9.07143 3.96875,-8.12649 4.53572,-2.64583 0.56696,5.48065 3.59077,14.1741 11.90625,14.36309 8.31547,0.18899 9.26041,-2.26786 9.26041,-2.26786 0,0 -7.18154,2.64584 -8.31547,-2.07887 -1.13393,-4.7247 0.56696,-5.85863 4.7247,-2.64583 4.15774,3.2128 11.52827,6.99256 16.63095,4.91369 5.10268,-2.07887 5.66965,-6.61458 5.66965,-6.61458 0,0 -5.48066,5.85863 -6.80358,-0.37798 -1.32291,-6.2366 5.10268,-4.91369 5.10268,-4.91369 0,0 -5.10268,-2.64583 -0.56696,-5.10268 4.53571,-2.45684 7.37053,3.96875 7.37053,3.96875 0,0 0.37798,-5.66964 -5.29166,-8.69345 -5.66965,-3.02381 -12.66221,-11.1503 -8.31548,-13.98512 4.34673,-2.83482 4.91369,8.50447 4.91369,8.50447 0,0 4.15774,-8.69346 1.88988,-17.19792 -2.26785,-8.50446 6.61459,-16.81994 3.02381,-37.23065 -3.59077,-20.41072 -10.39434,-23.24554 -14.74107,-41.01042 C 203.72916,106.87796 195.60268,80.98659 169.52232,66.056531 143.44196,51.126471 142.875,56.985102 138.52827,59.441948 Z"
       id="path1128"
       inkscape:connector-curvature="0"
       sodipodi:nodetypes="cssssscccccscssssssccscscccscssscccscssccsssc" />
    <path
       style="fill:#501616;stroke:none;stroke-width:0.26458332px;stroke-linecap:butt;stroke-linejoin:miter;stroke-opacity:1"
       d="m 109.71414,157.07416 c 0.73499,-0.8018 4.47677,-4.34313 7.75081,-4.67721 3.27406,-0.33409 4.74404,0.66817 7.2831,-0.13364 2.53906,-0.80181 4.20949,-1.13589 6.74856,-0.73499 2.53906,0.4009 5.54584,1.87089 5.07812,2.33861 -0.46773,0.46772 -3.67496,1.60362 -6.28084,2.33861 -2.60587,0.73499 -4.40994,1.80407 -6.1472,1.9377 -1.73725,0.13364 -7.61718,-0.33408 -10.42351,-0.60135 -2.80633,-0.26727 -4.00904,-0.0668 -4.00904,-0.46773 z"
       id="path1167"
       inkscape:connector-curvature="0" />
    <path
       style="fill:#782121;stroke:none;stroke-width:0.26458332px;stroke-linecap:butt;stroke-linejoin:miter;stroke-opacity:1"
       d="m 116.26224,148.92244 c -0.66817,0.46772 3.67496,2.47225 7.34991,1.80407 3.67496,-0.66817 4.94449,-1.06907 6.94901,-1.06907 2.00452,0 5.47903,2.93996 7.55037,3.14041 2.07134,0.20045 4.47676,0.46772 4.07586,-0.0668 -0.40091,-0.53454 -0.40091,-1.80407 -4.81085,-3.27405 -4.40995,-1.46998 -6.88219,-2.40542 -9.15399,-1.67043 -2.27179,0.73499 -4.34312,1.5368 -6.48128,1.60361 -2.13816,0.0668 -5.07812,-0.20045 -5.47903,-0.46772 z"
       id="path1169"
       inkscape:connector-curvature="0" />
    <path
       style="fill:#c8beb7;stroke:none;stroke-width:0.99999994px;stroke-linecap:butt;stroke-linejoin:miter;stroke-opacity:1"
       d="M 488.75977 572.06836 C 483.13203 572.15245 478.08584 573.39898 471.48828 575.48242 C 461.89183 578.51288 456.33729 574.72558 443.96289 575.98828 C 437.1566 576.68279 429.82548 581.04497 424.13477 585.33398 C 423.42537 586.37821 423.00195 587.09961 423.00195 587.09961 C 423.00195 587.09961 439.41639 588.86813 440.93164 587.60547 C 442.44685 586.34277 443.45724 587.09943 444.21484 588.86719 C 444.97249 590.63499 460.37757 589.12089 462.65039 588.36328 C 464.92325 587.60571 465.42735 587.09982 466.4375 587.85742 C 467.44765 588.61507 486.89278 584.82712 487.65039 583.56445 C 488.40803 582.30175 489.16602 580.28125 489.16602 580.28125 C 489.16602 580.28125 490.93417 580.53362 493.20703 582.04883 C 495.47985 583.56408 502.14371 581.4294 508.57227 578.57227 C 508.57227 578.57227 509.01305 577.54143 508.92578 576.18164 C 505.37229 574.69687 501.03123 573.34251 496.99414 572.70508 C 493.99524 572.23157 491.31783 572.03013 488.75977 572.06836 z "
       transform="scale(0.26458333)"
       id="path1183" />
    <path
       style="fill:#782121;stroke:none;stroke-width:0.26458332px;stroke-linecap:butt;stroke-linejoin:miter;stroke-opacity:1"
       d="m 108.51143,158.87823 c 1.60361,-0.53454 4.6104,-1.06907 7.34991,-0.73499 2.73951,0.33409 6.28083,2.27179 9.02035,1.73725 2.73951,-0.53454 4.34313,-2.20497 7.81763,-3.67495 3.4745,-1.46999 5.21175,-1.46999 6.1472,-1.5368 0.93544,-0.0668 3.00678,-1.1359 2.73951,-0.73499 -0.26727,0.4009 -2.67269,3.54132 -7.14946,5.94674 -4.47676,2.40543 -6.48129,2.07134 -8.21854,1.73726 -1.73725,-0.33409 -2.87314,0.26726 -4.54358,0.86862 -1.67043,0.60136 -5.47902,0.66818 -7.81763,-0.60136 -2.33861,-1.26952 -5.54585,-2.60587 -5.34539,-3.00678 z"
       id="path1171"
       inkscape:connector-curvature="0" />
    <path
       style="fill:#e3dedb;stroke:none;stroke-width:0.26458332px;stroke-linecap:butt;stroke-linejoin:miter;stroke-opacity:1"
       d="m 123.21125,154.26783 c 0,0 0.60136,0.60136 1.67044,0.0668 1.06907,-0.53454 3.60813,-2.53906 4.00904,-2.13816 0.4009,0.40091 1.00226,0.66818 1.00226,0.66818 0,0 0.33409,0.13363 1.87089,0 1.53679,-0.13364 2.27179,-0.20045 2.13815,0 -0.13363,0.20045 -1.9377,1.13589 -3.14042,0.93544 -1.20271,-0.20045 -1.53679,-0.73499 -1.60361,-0.4009 -0.0668,0.33408 0,0.60135 -1.20272,1.00226 -1.20271,0.4009 -3.74177,0.93544 -4.14267,0.66817 -0.40091,-0.26727 -0.60136,-0.80181 -0.60136,-0.80181 z"
       id="path1185"
       inkscape:connector-curvature="0" />
    <path
       transform="translate(0,-32.41665)"
       style="display:inline;fill:#492626;stroke:none;stroke-width:0.26458332px;stroke-linecap:butt;stroke-linejoin:miter;stroke-opacity:1;fill-opacity:1"
       d="m 122.87716,166.83972 c 0.0668,-0.66817 2.80633,-1.67043 4.54359,-1.20271 1.73725,0.46772 2.67269,1.5368 2.07133,1.73725 -0.60135,0.20045 -5.21175,0.13364 -6.61492,-0.53454 z"
       id="path1161"
       inkscape:connector-curvature="0" />
    <path
       transform="translate(0,-32.41665)"
       style="display:inline;fill:#492626;stroke:none;stroke-width:0.26458332px;stroke-linecap:butt;stroke-linejoin:miter;stroke-opacity:1;fill-opacity:1"
       d="m 106.84099,163.23158 c -0.80181,0.66818 -1.80407,4.14268 -0.4009,5.87993 1.40316,1.73725 9.48807,0.93545 8.61944,0.26727 -0.86862,-0.66817 -3.74177,-2.87315 -4.67722,-1.73725 -0.93544,1.1359 -0.46772,1.80407 -1.5368,1.67043 -1.06908,-0.13363 -2.27179,-0.86862 -2.27179,-2.47224 0,-1.60362 0,-2.73951 0.26727,-3.60814 z"
       id="path1163"
       inkscape:connector-curvature="0" />
    <circle
       style="fill:#eae1e5;fill-opacity:1;stroke:none;stroke-width:0.10158333;stroke-linecap:round;stroke-miterlimit:4;stroke-dasharray:none;stroke-opacity:1"
       id="circle1191"
       cx="100.72721"
       cy="104.72275"
       r="0.76839983" />
    <circle
       r="0.76839983"
       cy="101.04779"
       cx="144.29214"
       id="circle1193"
       style="fill:#eae1e5;fill-opacity:1;stroke:none;stroke-width:0.10158333;stroke-linecap:round;stroke-miterlimit:4;stroke-dasharray:none;stroke-opacity:1" />
    <path
       style="fill:#502d16;stroke:none;stroke-width:0.26458332px;stroke-linecap:butt;stroke-linejoin:miter;stroke-opacity:1"
       d="m 113.58184,58.964284 c -0.75595,-3.96875 -2.07887,-5.291666 -5.85863,-2.267857 -3.77976,3.023809 -16.819937,19.276787 -19.843746,29.104166 -3.023809,9.827382 -7.370538,14.174107 -7.370538,14.174107 0,0 5.669645,-9.071427 7.748514,-18.520833 2.078868,-9.449403 12.85119,-30.427083 22.86756,-33.072916 10.01637,-2.645833 12.09524,6.614583 12.09524,6.614583 0,0 -2.07887,-3.77976 -6.04762,-4.346725 -3.96875,-0.566966 -8.50447,3.77976 -8.50447,3.77976 0,0 5.66965,-1.511903 4.91369,4.535715 z"
       id="path1173"
       inkscape:connector-curvature="0" />
    <path
       style="fill:#502d16;stroke:none;stroke-width:0.26458332px;stroke-linecap:butt;stroke-linejoin:miter;stroke-opacity:1"
       d="m 131.91369,53.105653 c 2.07887,-5.669643 5.10268,-11.150296 3.59077,-16.441963 -1.5119,-5.291666 -9.82738,-11.150298 -18.89881,-9.07143 -9.07143,2.078871 -22.867557,6.992559 -29.671127,17.00893 -6.803572,10.016368 -13.04018,23.8125 -13.04018,23.8125 0,0 10.772323,-19.087798 19.087798,-26.269346 8.315479,-7.181546 28.348219,-12.851191 32.694939,-10.016369 4.34673,2.834823 6.80357,3.779761 6.61458,10.205358 -0.18898,6.425594 -0.37797,10.77232 -0.37797,10.77232 z"
       id="path1175"
       inkscape:connector-curvature="0" />
    <path
       style="fill:#502d16;stroke:none;stroke-width:0.26458332px;stroke-linecap:butt;stroke-linejoin:miter;stroke-opacity:1"
       d="m 133.61458,52.727677 c 2.26786,-13.985118 1.51191,-23.8125 6.99256,-25.891368 5.48066,-2.078869 12.28423,-2.645833 17.00893,0.377976 4.7247,3.023809 8.88244,6.803572 8.88244,6.803572 0,0 -10.20536,-8.504465 -18.70982,-5.669642 -8.50447,2.83482 -8.88244,8.315475 -8.88244,8.315475 0,0 3.96875,-6.04762 13.41815,-5.480655 9.44941,0.566965 16.44197,5.291666 24.19048,11.528274 7.74851,6.236607 19.65476,19.276784 23.24553,28.159225 3.59078,8.882441 10.77233,31.372026 10.77233,31.372026 0,0 -0.37798,-2.456846 -11.52828,-14.552085 -11.1503,-12.095239 -22.1116,-23.245535 -20.97768,-29.860118 1.13393,-6.614583 0.94494,-9.638393 -7.55952,-13.418156 -8.50446,-3.779761 -16.06399,-9.260416 -25.51339,-3.779761 -9.44941,5.480654 -11.33929,12.095237 -11.33929,12.095237 z"
       id="path1177"
       inkscape:connector-curvature="0" />
    <path
       style="fill:#5f361a;stroke:none;stroke-width:0.26458332px;stroke-linecap:butt;stroke-linejoin:miter;stroke-opacity:1;fill-opacity:1"
       d="m 154.78125,58.019343 c 0,0 3.77976,-5.291666 13.04018,-0.566962 9.26041,4.724702 21.54464,44.979169 29.29315,57.263389 7.74851,12.28423 11.1503,16.63095 11.33929,33.26191 0.18898,16.63095 -4.72471,17.19791 -4.72471,17.19791 0,0 5.10268,-8.12648 0.56697,-13.79613 -4.53572,-5.66964 -19.0878,-8.69345 -28.34822,-39.6875 -9.26041,-30.994044 -10.01636,-44.790176 -10.01636,-44.790176 0,0 1.5119,5.480656 2.64583,9.260417 1.13393,3.779763 3.40178,-7.370535 -1.13393,-12.662202 -4.53571,-5.291666 -12.6622,-5.480656 -12.6622,-5.480656 z"
       id="path1179"
       inkscape:connector-curvature="0" />
    <path
       style="fill:#502d16;stroke:none;stroke-width:0.26458332px;stroke-linecap:butt;stroke-linejoin:miter;stroke-opacity:1"
       d="m 186.72024,179.3497 c -4.72471,5.48066 -11.52828,10.58333 -11.90625,17.38691 -0.37798,6.80356 2.64583,12.85119 2.64583,12.85119 0,0 -4.53571,-10.77233 1.88988,-15.11905 6.4256,-4.34673 1.70089,5.85863 4.34673,13.79613 2.64583,7.9375 7.55952,8.69345 7.55952,8.69345 0,0 -9.26042,-6.42559 -6.04762,-13.60714 3.2128,-7.18155 3.02381,5.85863 17.00893,10.77232 13.98512,4.91369 15.68601,-2.45685 15.68601,-2.45685 0,0 -10.58333,2.07887 -12.85119,-5.48065 -2.26786,-7.55952 2.07887,-3.2128 4.34673,-1.13393 2.26785,2.07887 4.15774,0.94494 4.15774,0.94494 0,0 -7.74852,-1.5119 -6.99256,-13.22916 0.75595,-11.71727 5.85863,-16.06399 8.12648,-15.49703 2.26786,0.56697 3.40179,4.34673 3.40179,4.34673 0,0 1.5119,-3.02381 0,-8.31548 -1.51191,-5.29167 -5.85863,-8.69345 -3.96875,-13.22917 1.88988,-4.53571 2.83482,-7.18154 2.83482,-7.18154 0,0 -4.7247,8.88244 -7.74851,15.49702 -3.02381,6.61458 -22.67857,18.14286 -22.67857,18.14286 0,0 4.15774,-4.7247 0.18899,-7.18155 z"
       id="path1181"
       inkscape:connector-curvature="0" />
  </g>
</svg>
