<?xml version="1.0" encoding="UTF-8" standalone="no"?>
<!-- Created with Inkscape (http://www.inkscape.org/) -->

<svg
   xmlns:dc="http://purl.org/dc/elements/1.1/"
   xmlns:cc="http://creativecommons.org/ns#"
   xmlns:rdf="http://www.w3.org/1999/02/22-rdf-syntax-ns#"
   xmlns:svg="http://www.w3.org/2000/svg"
   xmlns="http://www.w3.org/2000/svg"
   xmlns:sodipodi="http://sodipodi.sourceforge.net/DTD/sodipodi-0.dtd"
   xmlns:inkscape="http://www.inkscape.org/namespaces/inkscape"
   width="1000"
   height="1000"
   viewBox="0 0 264.58333 264.58334"
   version="1.1"
   id="svg8"
   inkscape:version="0.92.1 r15371"
   sodipodi:docname="three-legged-dog.svg"
   inkscape:export-filename="C:\Users\Anthony Garone\Documents\GitHub\art\anthony-garone\three-legged-dog.png"
   inkscape:export-xdpi="96"
   inkscape:export-ydpi="96">
  <defs
     id="defs2" />
  <sodipodi:namedview
     id="base"
     pagecolor="#ffffff"
     bordercolor="#666666"
     borderopacity="1.0"
     inkscape:pageopacity="0.0"
     inkscape:pageshadow="2"
     inkscape:zoom="0.98994949"
     inkscape:cx="414.307"
     inkscape:cy="495.35024"
     inkscape:document-units="px"
     inkscape:current-layer="layer1"
     showgrid="false"
     units="px"
     showguides="true"
     inkscape:guide-bbox="true"
     inkscape:window-width="1920"
     inkscape:window-height="1017"
     inkscape:window-x="-8"
     inkscape:window-y="-8"
     inkscape:window-maximized="1">
    <sodipodi:guide
       position="264.58334,264.58334"
       orientation="1,0"
       id="guide10"
       inkscape:locked="false"
       inkscape:label=""
       inkscape:color="rgb(0,0,255)" />
    <sodipodi:guide
       position="0,0"
       orientation="1,0"
       id="guide12"
       inkscape:locked="false"
       inkscape:label=""
       inkscape:color="rgb(0,0,255)" />
    <sodipodi:guide
       position="264.58334,264.58334"
       orientation="0,1"
       id="guide14"
       inkscape:locked="false"
       inkscape:label=""
       inkscape:color="rgb(0,0,255)" />
    <sodipodi:guide
       position="0,0"
       orientation="0,1"
       id="guide16"
       inkscape:locked="false"
       inkscape:label=""
       inkscape:color="rgb(0,0,255)" />
  </sodipodi:namedview>
  <metadata
     id="metadata5">
    <rdf:RDF>
      <cc:Work
         rdf:about="">
        <dc:format>image/svg+xml</dc:format>
        <dc:type
           rdf:resource="http://purl.org/dc/dcmitype/StillImage" />
        <dc:title></dc:title>
      </cc:Work>
    </rdf:RDF>
  </metadata>
  <g
     inkscape:label="BG"
     inkscape:groupmode="layer"
     id="layer1"
     transform="translate(0,-32.41665)"
     style="display:none">
    <rect
       id="rect4493"
       width="264.58334"
       height="264.58334"
       x="0"
       y="32.416641"
       style="fill:#ffffff;fill-opacity:1;stroke-width:0.26458332" />
  </g>
  <g
     inkscape:groupmode="layer"
     id="layer2"
     inkscape:label="Dog">
    <path
       style="fill:#784421;stroke:none;stroke-width:0.38451514px;stroke-linecap:butt;stroke-linejoin:miter;stroke-opacity:1"
       d="m 159.9943,159.5655 20.58622,-2.71892 c 0,0 -3.30157,13.59464 -6.40893,20.78041 -3.10736,7.18574 -3.68998,16.3136 -2.71894,20.7804 0.97106,4.46684 10.09891,6.40893 9.90469,8.93363 -0.19421,2.52474 -7.57417,8.73944 -12.42941,4.27261 -4.85524,-4.46681 -5.63207,-13.01202 -7.76838,-15.73094 -2.1363,-2.71894 -3.10734,-3.49579 -0.97103,-13.40046 2.1363,-9.90471 -0.19422,-22.91673 -0.19422,-22.91673 z"
       id="path4500"
       inkscape:connector-curvature="0"
       inkscape:export-xdpi="144"
       inkscape:export-ydpi="144" />
    <path
       style="fill:#784421;stroke:none;stroke-width:0.38451514px;stroke-linecap:butt;stroke-linejoin:miter;stroke-opacity:1"
       d="m 94.934128,129.2688 c 0,0 1.165259,13.20625 -4.855239,20.00359 -6.020503,6.79734 -8.156804,15.34255 -4.272621,20.39199 3.884201,5.04947 15.148352,11.26416 13.206259,13.78889 -1.942098,2.52472 -12.041001,4.4668 -14.565721,0.38842 -2.524721,-4.0784 -6.020498,-17.47887 -9.90468,-20.78042 -3.884196,-3.30157 1.747881,-10.09891 1.942099,-18.64412 0.194202,-8.54521 -7.185757,-11.65256 -5.632078,-13.40045 1.553664,-1.7479 24.081981,-1.7479 24.081981,-1.7479 z"
       id="path4502"
       inkscape:connector-curvature="0"
       inkscape:export-xdpi="144"
       inkscape:export-ydpi="144" />
    <path
       style="fill:#a05a2c;stroke:none;stroke-width:0.38451514px;stroke-linecap:butt;stroke-linejoin:miter;stroke-opacity:1"
       d="m 58.034313,197.63055 c 0.194217,2.91314 6.603119,4.85523 9.322058,3.8842 2.718937,-0.97106 4.466818,-6.02051 2.330517,-8.54522 -2.136301,-2.52472 -9.322057,-13.78886 -8.739435,-20.19778 0.582636,-6.40893 6.020498,-14.56572 6.020498,-19.80939 0,-5.24364 -0.582623,-21.36302 16.119393,-22.72248 16.702022,-1.35948 32.251286,28.74615 54.431496,33.14317 20.88037,4.13932 42.28247,-0.84922 49.73715,-11.05614 7.45469,-10.20695 6.72498,-12.18236 10.41495,-12.9592 3.68999,-0.77683 4.17551,7.67128 6.21471,10.68151 2.03919,3.01026 14.37151,11.6526 22.33409,3.88421 7.96258,-7.76838 8.15681,-0.19423 9.71048,-3.10737 1.55366,-2.91314 5.82627,-6.79734 1.55366,-13.59464 -4.2726,-6.79735 -9.90468,-8.73945 -6.99154,-14.75992 2.91314,-6.02051 1.9421,-15.14837 -1.9421,-20.78043 -3.88417,-5.632077 -6.2147,-9.322057 -2.5247,-11.069952 3.68996,-1.747882 0,6.020496 1.9421,5.632077 1.94207,-0.38842 7.57414,-6.991539 -2.52474,-8.933637 -10.0989,-1.942084 -11.26414,1.359475 -17.28465,2.524721 -6.02047,1.165258 -13.27289,5.70682 -18.32233,6.872079 -5.04944,1.165258 -11.87437,6.564072 -24.10957,4.319712 C 153.66771,98.824116 99.400946,71.588594 73.95949,81.493277 48.518053,91.397957 49.294893,107.12893 38.224954,111.59575 c -11.069953,4.46682 -23.305144,-1.16525 -24.081982,0.38842 -0.776838,1.55368 9.32205,12.04099 19.032527,7.76837 9.710477,-4.2726 9.516274,-2.33051 10.098896,1.74789 0.582623,4.0784 9.51626,31.65616 7.768378,39.03611 -1.74788,7.37997 2.718938,13.78889 3.884197,21.36305 1.165259,7.57418 3.107343,15.73096 3.107343,15.73096 z"
       id="path4498"
       inkscape:connector-curvature="0"
       sodipodi:nodetypes="cccsssszszsccsccsccssssscsssc"
       inkscape:export-xdpi="144"
       inkscape:export-ydpi="144" />
    <path
       style="fill:#502d16;fill-opacity:1;stroke:none;stroke-width:0.38451514px;stroke-linecap:butt;stroke-linejoin:miter;stroke-opacity:1"
       d="m 197.47673,97.418454 c -5.82626,-2.1363 -12.6236,-4.855238 -17.47884,-0.38842 -4.85526,4.466816 -8.73944,16.119396 -6.79734,16.119396 1.94208,0 3.8842,-10.68154 8.93364,-8.54522 5.04944,2.1363 0.97104,9.32206 2.71894,10.87573 1.74788,1.55367 21.55725,-10.87573 12.6236,-18.061486 z"
       id="path4504"
       inkscape:connector-curvature="0"
       inkscape:export-xdpi="144"
       inkscape:export-ydpi="144" />
    <path
       style="fill:#333333;stroke:none;stroke-width:0.38451514px;stroke-linecap:butt;stroke-linejoin:miter;stroke-opacity:1"
       d="m 203.49723,126.35567 c 2.91315,-0.97104 9.90469,-3.49578 9.51626,-0.58262 -0.38843,2.91313 -4.0784,5.43785 -9.51626,0.58262 z"
       id="path4506"
       inkscape:connector-curvature="0"
       inkscape:export-xdpi="144"
       inkscape:export-ydpi="144" />
    <path
       style="fill:#333333;stroke:none;stroke-width:0.38451514px;stroke-linecap:butt;stroke-linejoin:miter;stroke-opacity:1"
       d="m 227.96764,122.85989 c -0.77686,-3.10735 3.49577,-9.12784 3.68997,-6.60312 0.19419,2.52474 -0.77683,8.73944 -3.68997,6.60312 z"
       id="path4508"
       inkscape:connector-curvature="0"
       inkscape:export-xdpi="144"
       inkscape:export-ydpi="144" />
    <path
       style="fill:#333333;stroke:none;stroke-width:0.38451514px;stroke-linecap:butt;stroke-linejoin:miter;stroke-opacity:1"
       d="m 231.46341,148.68976 c 2.71891,-0.1942 8.35101,-3.30156 6.79731,-6.79733 -1.55368,-3.49577 -13.01202,-1.74788 -11.65255,1.74789 1.35947,3.49577 3.10733,5.24364 4.85524,5.04944 z"
       id="path4510"
       inkscape:connector-curvature="0"
       inkscape:export-xdpi="144"
       inkscape:export-ydpi="144" />
    <path
       inkscape:connector-curvature="0"
       style="fill:#502d16;fill-opacity:1;stroke:none;stroke-width:0.38451514px;stroke-linecap:butt;stroke-linejoin:miter;stroke-opacity:1"
       d="m 219.95396,86.720833 c -4.92333,-7.7e-4 -6.79063,1.87282 -10.71988,2.881604 -6e-5,1.16e-4 -7.5e-4,-1.16e-4 -7.5e-4,0 -3.85834,6.288149 16.59798,8.010234 16.59798,8.010234 l 0.036,-0.0044 c -2.00967,-3.372684 -2.54853,-5.705092 0.15847,-6.987355 3.68998,-1.747896 0,6.020963 1.9421,5.632543 1.9421,-0.388419 7.574,-6.991873 -2.52488,-8.933971 -2.20913,-0.42484 -3.99061,-0.598304 -5.4891,-0.598551 z"
       id="path4512"
       inkscape:export-xdpi="144"
       inkscape:export-ydpi="144" />
  </g>
</svg>
