<?xml version="1.0" encoding="UTF-8" standalone="no"?>
<!-- Created with Inkscape (http://www.inkscape.org/) -->

<svg
   xmlns:osb="http://www.openswatchbook.org/uri/2009/osb"
   xmlns:dc="http://purl.org/dc/elements/1.1/"
   xmlns:cc="http://creativecommons.org/ns#"
   xmlns:rdf="http://www.w3.org/1999/02/22-rdf-syntax-ns#"
   xmlns:svg="http://www.w3.org/2000/svg"
   xmlns="http://www.w3.org/2000/svg"
   xmlns:xlink="http://www.w3.org/1999/xlink"
   xmlns:sodipodi="http://sodipodi.sourceforge.net/DTD/sodipodi-0.dtd"
   xmlns:inkscape="http://www.inkscape.org/namespaces/inkscape"
   width="1000"
   height="1000"
   id="svg2"
   version="1.1"
   inkscape:version="0.48.2 r9819"
   sodipodi:docname="thumbs-up.svg">
  <defs
     id="defs4"><linearGradient
   osb:paint="solid"
   id="linearGradient3779">
  <stop
     id="stop3781"
     offset="0"
     style="stop-color:#000000;stop-opacity:1;" />
</linearGradient>

.str0 {stroke:#131516;stroke-width:3}
    .str1 {stroke:#131516;stroke-width:42}
    .fil1 {fill:none}
    .fil0 {fill:#131516}<linearGradient
   gradientTransform="translate(717.6270899999982,144.1597496317726)"
   gradientUnits="userSpaceOnUse"
   xlink:href="#linearGradient3013-7-3"
   id="linearGradient3523"
   y2="231.0882263183594"
   x2="-190.8759613037109"
   y1="770.9373168945312"
   x1="-543.2540283203125" />
<linearGradient
   gradientUnits="userSpaceOnUse"
   xlink:href="#linearGradient3013-7-3"
   id="linearGradient3776-3"
   y2="490.8250427246094"
   x2="881.5010986328125"
   y1="490.8250427246094"
   x1="598.608642578125" />
<linearGradient
   id="linearGradient3013-7-3">
  <stop
     offset="0"
     style="stop-color:#000000;stop-opacity:0.8263888955"
     id="stop3015-9-8" />
  <stop
     offset="1"
     style="stop-color:#000000;stop-opacity:1"
     id="stop3017-0-8" />
</linearGradient>
<linearGradient
   gradientTransform="translate(-368.00764,35.356037)"
   gradientUnits="userSpaceOnUse"
   xlink:href="#linearGradient3013-7-3"
   id="linearGradient3793-8"
   y2="490.8250427246094"
   x2="881.5010986328125"
   y1="490.8250427246094"
   x1="598.608642578125" />
<linearGradient
   gradientTransform="matrix(2.039230408653212,0,0,2.039230408653212,791.7287816939475,-586.3220678901052)"
   gradientUnits="userSpaceOnUse"
   xlink:href="#linearGradient3013-7-3"
   id="linearGradient3770"
   y2="231.0882263183594"
   x2="-190.8759613037109"
   y1="770.9373168945312"
   x1="-543.2540283203125" />
<linearGradient
   gradientUnits="userSpaceOnUse"
   xlink:href="#linearGradient3013-7"
   id="linearGradient3776"
   y2="490.8250427246094"
   x2="881.5010986328125"
   y1="490.8250427246094"
   x1="598.608642578125" />
<linearGradient
   id="linearGradient3013-7">
  <stop
     offset="0"
     style="stop-color:#000000;stop-opacity:0.8263888955"
     id="stop3015-9" />
  <stop
     offset="1"
     style="stop-color:#000000;stop-opacity:1"
     id="stop3017-0" />
</linearGradient>
<linearGradient
   id="linearGradient3013">
  <stop
     offset="0"
     style="stop-color:#000000;stop-opacity:0.8263888955"
     id="stop3015" />
  <stop
     offset="1"
     style="stop-color:#000000;stop-opacity:1"
     id="stop3017" />
</linearGradient>
<linearGradient
   gradientTransform="matrix(2.0778635,0,0,2.0778635,-1086.923309005525,-459.4802680110498)"
   gradientUnits="userSpaceOnUse"
   xlink:href="#linearGradient3013"
   id="linearGradient3019"
   y2="333.8942260742188"
   x2="490.5304870605469"
   y1="489.1396484375"
   x1="382.3376770019531" />
<style
   id="style6"
   type="text/css">
   
    .str1 {stroke:#131516;stroke-width:3}
    .str0 {stroke:#131516;stroke-width:42}
    .fil0 {fill:none}
    .fil1 {fill:#131516}
   
  </style>
<linearGradient
   gradientTransform="translate(729.67433,-22.021336)"
   gradientUnits="userSpaceOnUse"
   xlink:href="#linearGradient3013-7-2"
   id="linearGradient3770-6"
   y2="231.08823"
   x2="-190.87596"
   y1="770.93732"
   x1="-543.25403" />
<linearGradient
   gradientTransform="translate(-368.00764,35.356037)"
   gradientUnits="userSpaceOnUse"
   xlink:href="#linearGradient3013-7-2"
   id="linearGradient3793"
   y2="490.82504"
   x2="881.5011"
   y1="490.82504"
   x1="598.60864" />
<linearGradient
   id="linearGradient3013-7-2">
  <stop
     offset="0"
     style="stop-color:#000000;stop-opacity:0.8263889"
     id="stop3015-9-83" />
  <stop
     offset="1"
     style="stop-color:#000000;stop-opacity:1"
     id="stop3017-0-7" />
</linearGradient>
<linearGradient
   gradientUnits="userSpaceOnUse"
   xlink:href="#linearGradient3013-7-2"
   id="linearGradient3776-9"
   y2="490.82504"
   x2="881.5011"
   y1="490.82504"
   x1="598.60864" />
</defs>
  <sodipodi:namedview
     id="base"
     pagecolor="#ffffff"
     bordercolor="#666666"
     borderopacity="1.0"
     inkscape:pageopacity="0.0"
     inkscape:pageshadow="2"
     inkscape:zoom="0.98994949"
     inkscape:cx="627.91451"
     inkscape:cy="546.71511"
     inkscape:document-units="px"
     inkscape:current-layer="layer13"
     showgrid="false"
     showguides="false"
     inkscape:guide-bbox="true"
     inkscape:window-width="1920"
     inkscape:window-height="1118"
     inkscape:window-x="0"
     inkscape:window-y="0"
     inkscape:window-maximized="0">
    <sodipodi:guide
       orientation="1,0"
       position="0,0"
       id="guide3851" />
    <sodipodi:guide
       orientation="1,0"
       position="450,0"
       id="guide3855" />
  </sodipodi:namedview>
  <metadata
     id="metadata7">
    <rdf:RDF>
      <cc:Work
         rdf:about="">
        <dc:format>image/svg+xml</dc:format>
        <dc:type
           rdf:resource="http://purl.org/dc/dcmitype/StillImage" />
        <dc:title />
      </cc:Work>
    </rdf:RDF>
  </metadata>
  <g
     inkscape:groupmode="layer"
     id="layer13"
     inkscape:label="Outline">
    <path
       style="fill:#ffffff;fill-opacity:1;stroke:#000000;stroke-width:5;stroke-linecap:butt;stroke-linejoin:miter;stroke-miterlimit:4;stroke-opacity:1;stroke-dasharray:none"
       d="m 0,478.57143 395.71429,0 c 0,0 108.48228,-168.36202 113.42857,-208.28572 4.99999,-40.35714 2.64582,-100.91498 6.57142,-122.42857 3.9256,-21.51359 37.96156,-58.181708 77.85715,-21.78572 40.71429,37.14287 2.15516,265.96375 -10.70197,293.10661 57.50945,-0.26305 275.65472,1.2161 284.2734,2.25054 8.61868,1.03444 40,15.71429 37.14285,54.28571 -2.85714,38.57143 -28.78232,53.16332 -31.57143,65.71429 -2.85714,12.85714 11.42858,38.28571 7.14286,59.71429 -4.28571,21.42857 -19.18171,29.27794 -24.42857,45.57143 -3.72845,11.57827 3.30022,17.01682 1.42857,36.35714 -2.14286,22.14286 -27.54166,40.60686 -29.64286,55.5 -1.81802,12.88595 11.77557,30.17132 8.50001,58.71428 -2.2153,19.30398 -20.00001,44.85714 -40.00001,47.71429 -20,2.85714 -317.14285,3.57142 -347.14285,-6.42858 -30,-10 -42.14286,-29.99999 -56.42857,-22.85713 -14.28572,7.14286 -19.28572,20.71428 -19.28572,20.71428 L 0,836.5 z"
       id="path4386"
       inkscape:connector-curvature="0"
       sodipodi:nodetypes="ccszsczssssssssssccc" />
  </g>
  <g
     inkscape:groupmode="layer"
     id="layer2"
     inkscape:label="E">
    <path
       style="fill:none;stroke:#000000;stroke-width:1px;stroke-linecap:butt;stroke-linejoin:miter;stroke-opacity:1"
       d="m 0,770.69537 450,0 130.83771,12.12183 223.19295,0"
       id="path3863"
       inkscape:connector-curvature="0"
       sodipodi:nodetypes="cccc" />
  </g>
  <g
     inkscape:groupmode="layer"
     id="layer3"
     inkscape:label="G">
    <path
       style="fill:none;stroke:#000000;stroke-width:1px;stroke-linecap:butt;stroke-linejoin:miter;stroke-opacity:1"
       d="m 0,709.07607 450,0 141.94939,-39.39595 230.31478,0"
       id="path3861"
       inkscape:connector-curvature="0" />
  </g>
  <g
     inkscape:groupmode="layer"
     id="layer4"
     inkscape:label="B">
    <path
       style="fill:none;stroke:#000000;stroke-width:1px;stroke-linecap:butt;stroke-linejoin:miter;stroke-opacity:1"
       d="m 0,645.43646 450,0 143.9697,-70.71068 254.80354,0"
       id="path3859"
       inkscape:connector-curvature="0"
       sodipodi:nodetypes="cccc" />
  </g>
  <g
     inkscape:groupmode="layer"
     id="layer5"
     inkscape:label="D">
    <path
       style="fill:none;stroke:#000000;stroke-width:1px;stroke-linecap:butt;stroke-linejoin:miter;stroke-opacity:1"
       d="m 0,587.85776 450,0 149.02046,-110.10663 267.69042,0"
       id="path3857"
       inkscape:connector-curvature="0" />
  </g>
  <g
     inkscape:groupmode="layer"
     id="layer6"
     inkscape:label="F">
    <path
       style="fill:none;stroke:#000000;stroke-width:1px;stroke-linecap:butt;stroke-linejoin:miter;stroke-opacity:1"
       d="m 0,532.29937 450,0 c 0,0 117.70573,-224.25386 118.71589,-259.6092 1.01015,-35.35534 -10.10153,-137.38075 -10.10153,-137.38075 l 0,0"
       id="path3853"
       inkscape:connector-curvature="0"
       sodipodi:nodetypes="ccscc" />
  </g>
  <g
     inkscape:groupmode="layer"
     id="layer8"
     inkscape:label="Knuckles">
    <g
       id="layer1-9"
       transform="matrix(0.13655898,0,0,0.13655898,550.04688,383.09801)">
      <path
         style="fill:#000000;stroke:none"
         id="path270"
         d="M 339.02614,493.89767 C 505.30268,495.39566 662.5913,558.31111 674.5752,697.62389 683.56312,799.53381 548.7443,892.36218 382.46776,892.36218 214.69323,890.86419 58.902591,829.44673 45.420709,690.18076 36.432788,586.72604 172.65597,493.89767 339.02614,493.89767 z m 40.35202,364.01081 c 71.90337,0 118.34096,-68.95421 110.85103,-124.33291 -16.47786,-109.35304 -53.92753,-197.78108 -152.79466,-197.78108 -71.90337,0 -113.84701,70.40538 -104.85909,125.8309 16.57148,109.39985 48.02921,196.28309 146.80272,196.28309 z"
         inkscape:connector-curvature="0" />
    </g>
    <g
       transform="matrix(0.13655898,0,0,0.13655898,543.98596,482.09296)"
       id="g4043">
      <path
         inkscape:connector-curvature="0"
         d="M 339.02614,493.89767 C 505.30268,495.39566 662.5913,558.31111 674.5752,697.62389 683.56312,799.53381 548.7443,892.36218 382.46776,892.36218 214.69323,890.86419 58.902591,829.44673 45.420709,690.18076 36.432788,586.72604 172.65597,493.89767 339.02614,493.89767 z m 40.35202,364.01081 c 71.90337,0 118.34096,-68.95421 110.85103,-124.33291 -16.47786,-109.35304 -53.92753,-197.78108 -152.79466,-197.78108 -71.90337,0 -113.84701,70.40538 -104.85909,125.8309 16.57148,109.39985 48.02921,196.28309 146.80272,196.28309 z"
         id="path4045"
         style="fill:#000000;stroke:none" />
    </g>
    <g
       id="g4047"
       transform="matrix(0.13655898,0,0,0.13655898,540.9555,575.02699)">
      <path
         style="fill:#000000;stroke:none"
         id="path4049"
         d="M 339.02614,493.89767 C 505.30268,495.39566 662.5913,558.31111 674.5752,697.62389 683.56312,799.53381 548.7443,892.36218 382.46776,892.36218 214.69323,890.86419 58.902591,829.44673 45.420709,690.18076 36.432788,586.72604 172.65597,493.89767 339.02614,493.89767 z m 40.35202,364.01081 c 71.90337,0 118.34096,-68.95421 110.85103,-124.33291 -16.47786,-109.35304 -53.92753,-197.78108 -152.79466,-197.78108 -71.90337,0 -113.84701,70.40538 -104.85909,125.8309 16.57148,109.39985 48.02921,196.28309 146.80272,196.28309 z"
         inkscape:connector-curvature="0" />
    </g>
    <g
       transform="matrix(0.13655898,0,0,0.13655898,527.82352,688.16408)"
       id="g4051">
      <path
         inkscape:connector-curvature="0"
         d="M 339.02614,493.89767 C 505.30268,495.39566 662.5913,558.31111 674.5752,697.62389 683.56312,799.53381 548.7443,892.36218 382.46776,892.36218 214.69323,890.86419 58.902591,829.44673 45.420709,690.18076 36.432788,586.72604 172.65597,493.89767 339.02614,493.89767 z m 40.35202,364.01081 c 71.90337,0 118.34096,-68.95421 110.85103,-124.33291 -16.47786,-109.35304 -53.92753,-197.78108 -152.79466,-197.78108 -71.90337,0 -113.84701,70.40538 -104.85909,125.8309 16.57148,109.39985 48.02921,196.28309 146.80272,196.28309 z"
         id="path4053"
         style="fill:#000000;stroke:none" />
    </g>
  </g>
  <g
     inkscape:groupmode="layer"
     id="layer7"
     inkscape:label="Treble Clef">
    <g
       id="g3929"
       transform="matrix(0.49708948,0,0,0.49708948,153.28551,438.32761)">
      <title
         id="title3931">Layer 1</title>
      <g
         id="Layer 1"
         transform="matrix(0.215986,0,0,0.215462,-250.44,-1202.59)">
        <path
           class="fil0 str0"
           id="path9"
           d="m 2002,7851 c -61,17 -116,55 -167,113 -51,59 -76,124 -76,194 0,44 15,94 44,147 29,54 73,93 130,118 19,4 28,14 28,28 0,5 -7,10 -24,14 -91,-23 -166,-72 -224,-145 -58,-74 -88,-158 -90,-254 3,-103 34,-199 93,-287 60,-89 137,-152 231,-189 l -69,-355 c -154,128 -279,261 -376,401 -97,139 -147,290 -151,453 2,73 17,144 45,212 28,69 70,131 126,188 113,113 260,172 439,178 61,-4 126,-15 196,-33 l -155,-783 z m 72,-10 156,769 c 154,-62 231,-197 231,-403 -9,-69 -29,-131 -63,-186 -33,-56 -77,-100 -133,-132 -56,-32 -119,-48 -191,-48 z M 1869,6801 c 33,-20 71,-55 112,-104 41,-48 81,-105 119,-169 39,-65 70,-131 93,-198 23,-66 34,-129 34,-187 0,-25 -2,-50 -7,-72 -4,-36 -15,-64 -34,-83 -19,-18 -43,-28 -73,-28 -60,0 -114,37 -162,111 -37,64 -68,140 -90,226 -23,87 -36,173 -38,260 5,99 21,180 46,244 z m -63,58 c -45,-162 -70,-327 -75,-495 1,-108 12,-209 33,-303 20,-94 49,-175 87,-245 37,-70 80,-123 128,-159 43,-32 74,-49 91,-49 13,0 24,5 34,14 10,9 23,24 39,44 119,169 179,373 179,611 0,113 -15,223 -45,333 -29,109 -72,213 -129,310 -58,98 -126,183 -205,256 l 81,394 c 44,-5 74,-9 91,-9 76,0 144,16 207,48 63,32 117,75 161,130 44,54 78,116 102,186 23,70 36,143 36,219 0,118 -31,226 -93,323 -62,97 -155,168 -280,214 8,49 22,120 43,211 20,92 35,165 45,219 10,54 14,106 14,157 0,79 -19,149 -57,211 -39,62 -91,110 -157,144 -65,34 -137,51 -215,51 -110,0 -206,-31 -288,-92 -82,-62 -126,-145 -130,-251 3,-47 14,-91 34,-133 20,-42 47,-76 82,-102 34,-27 75,-41 122,-44 39,0 76,11 111,32 34,22 62,51 83,88 20,37 31,78 31,122 0,59 -20,109 -60,150 -40,41 -91,62 -152,62 l -23,0 c 39,60 103,91 192,91 45,0 91,-10 137,-28 47,-19 86,-44 119,-76 33,-32 55,-66 64,-102 17,-41 25,-98 25,-169 0,-48 -5,-96 -14,-144 -9,-47 -23,-110 -42,-188 -19,-77 -33,-137 -41,-178 -60,15 -122,23 -187,23 -109,0 -212,-22 -309,-67 -97,-45 -182,-107 -256,-187 -73,-80 -130,-170 -171,-272 -40,-101 -61,-207 -62,-317 4,-102 23,-200 59,-292 36,-93 82,-181 139,-263 57,-82 116,-157 177,-224 62,-66 143,-151 245,-254 z"
           inkscape:connector-curvature="0"
           style="fill:#131516;stroke:#131516;stroke-width:53.02220154" />
      </g>
    </g>
  </g>
  <g
     inkscape:groupmode="layer"
     id="layer9"
     inkscape:label="Tenor Clef">
    <g
       style="fill-rule:evenodd"
       id="g4237"
       transform="matrix(0.02287055,0.00442635,-0.00442635,0.02287055,781.74363,369.9047)">
      <path
         sodipodi:nodetypes="ccccsscsccccsccccscsscscscccsccccccscsscscsccccsccccccsscscccccc"
         class="fil1 str1"
         d="m 2032.2476,5909.4108 c 163.12,-266.2564 299.991,-551.2632 406.863,-851.2704 108.747,-300.0072 166.871,-521.2625 174.37,-667.516 50.624,320.6327 129.372,575.6388 238.119,768.7684 106.872,193.1297 228.743,330.0079 365.614,412.5099 136.871,82.502 271.868,123.753 410.614,123.753 339.365,0 554.984,-153.7537 646.856,-465.0112 89.998,-307.5073 134.997,-684.3914 134.997,-1128.7771 0,-202.5048 -3.75,-384.3842 -13.125,-545.6381 -11.25,-163.1289 -35.624,-324.3827 -76.873,-489.3867 -37.499,-165.004 -104.997,-313.1325 -196.869,-442.5106 -95.623,-129.3781 -217.494,-219.3803 -371.24,-268.1315 -136.871,-35.6258 -273.742,-52.5012 -410.613,-52.5012 -119.997,0 -223.119,20.6255 -305.617,63.7515 -80.622,43.126 -127.496,105.0025 -136.871,181.8794 18.75,67.5016 67.498,148.1285 148.121,241.8808 78.748,93.7522 134.996,165.0039 163.12,210.005 30,46.8762 44.999,114.3778 44.999,200.6298 0,153.7537 -54.373,285.0069 -161.245,393.7595 -104.997,106.8776 -249.368,161.2539 -427.488,161.2539 -178.12,0 -318.741,-63.7516 -425.613,-191.2546 -106.872,-127.5031 -164.995,-279.3817 -174.37,-451.8859 14.999,-234.3806 99.372,-433.1354 251.243,-600.0144 151.87,-166.879 339.365,-292.507 564.359,-375.009 224.993,-84.377 451.862,-127.503 680.605,-127.503 258.743,0 508.111,46.8761 746.229,138.7533 239.994,91.8772 451.863,226.8804 639.357,403.1347 187.495,178.1292 333.741,397.5095 440.613,654.3907 108.747,256.8811 161.245,549.3882 161.245,873.7709 0,450.0108 -82.497,823.1448 -249.368,1119.4019 -164.995,296.2571 -380.614,515.6374 -641.232,654.3907 -262.492,138.7533 -541.859,211.8801 -838.101,219.3803 -305.616,-16.8754 -560.609,-84.377 -766.853,-202.5049 l -404.989,652.5157 404.989,650.6406 c 283.117,-112.5027 558.734,-168.7541 826.851,-168.7541 337.491,0 633.733,97.5024 888.725,290.632 254.993,191.2546 448.113,442.5106 581.234,750.018 133.121,307.5074 198.744,624.39 198.744,952.5229 0,360.0086 -78.747,693.7664 -238.118,1003.149 -161.245,307.507 -386.239,555.013 -678.731,738.767 -292.492,183.755 -628.107,277.507 -1004.971,277.507 -438.738,-20.625 -808.103,-123.753 -1102.469,-313.132 -294.367,-189.38 -442.488,-470.637 -442.488,-841.8956 18.75,-176.254 84.373,-316.882 198.745,-418.1347 112.497,-105.0025 236.243,-161.2539 367.489,-170.6291 163.121,0 309.367,56.2513 434.988,170.6291 125.621,112.5027 189.37,251.2557 189.37,420.0097 0,65.6268 -15,125.6278 -44.999,181.8796 -28.124,56.251 -73.123,120.003 -134.996,193.129 -59.999,73.127 -103.122,127.503 -125.622,163.129 -22.499,35.626 -39.374,78.752 -50.623,133.128 0,67.502 43.124,123.753 131.246,170.63 86.248,46.876 196.869,73.126 329.991,82.502 419.988,-18.751 699.355,-195.005 839.976,-530.638 140.621,-335.6328 209.994,-753.7679 209.994,-1258.155 0,-438.7605 -50.624,-823.1447 -149.996,-1155.0277 -99.372,-330.0079 -316.866,-495.0119 -650.606,-495.0119 -298.117,0 -528.735,129.3781 -689.981,386.2593 -161.245,255.0061 -264.367,556.8884 -309.366,901.8966 -48.749,-290.6319 -127.497,-571.8887 -238.118,-845.6453 -110.622,-271.8815 -238.119,-511.8872 -384.365,-718.1422 -144.37,-204.3799 -336.262,-423.0621 -461.236,-565.2228 157.652,-173.1977 354.241,-380.1679 487.486,-601.0552 z"
         id="path19"
         style="fill:#131516;stroke:#131516;stroke-width:5.62498808"
         inkscape:connector-curvature="0" />
    </g>
    <g
       transform="matrix(0.02287055,0.00442635,-0.00442635,0.02287055,737.29692,564.86414)"
       id="g4240"
       style="fill-rule:evenodd">
      <path
         inkscape:connector-curvature="0"
         style="fill:#131516;stroke:#131516;stroke-width:5.62498808"
         id="path4242"
         d="m 2032.2476,5909.4108 c 163.12,-266.2564 299.991,-551.2632 406.863,-851.2704 108.747,-300.0072 166.871,-521.2625 174.37,-667.516 50.624,320.6327 129.372,575.6388 238.119,768.7684 106.872,193.1297 228.743,330.0079 365.614,412.5099 136.871,82.502 271.868,123.753 410.614,123.753 339.365,0 554.984,-153.7537 646.856,-465.0112 89.998,-307.5073 134.997,-684.3914 134.997,-1128.7771 0,-202.5048 -3.75,-384.3842 -13.125,-545.6381 -11.25,-163.1289 -35.624,-324.3827 -76.873,-489.3867 -37.499,-165.004 -104.997,-313.1325 -196.869,-442.5106 -95.623,-129.3781 -217.494,-219.3803 -371.24,-268.1315 -136.871,-35.6258 -273.742,-52.5012 -410.613,-52.5012 -119.997,0 -223.119,20.6255 -305.617,63.7515 -80.622,43.126 -127.496,105.0025 -136.871,181.8794 18.75,67.5016 67.498,148.1285 148.121,241.8808 78.748,93.7522 134.996,165.0039 163.12,210.005 30,46.8762 44.999,114.3778 44.999,200.6298 0,153.7537 -54.373,285.0069 -161.245,393.7595 -104.997,106.8776 -249.368,161.2539 -427.488,161.2539 -178.12,0 -318.741,-63.7516 -425.613,-191.2546 -106.872,-127.5031 -164.995,-279.3817 -174.37,-451.8859 14.999,-234.3806 99.372,-433.1354 251.243,-600.0144 151.87,-166.879 339.365,-292.507 564.359,-375.009 224.993,-84.377 451.862,-127.503 680.605,-127.503 258.743,0 508.111,46.8761 746.229,138.7533 239.994,91.8772 451.863,226.8804 639.357,403.1347 187.495,178.1292 333.741,397.5095 440.613,654.3907 108.747,256.8811 161.245,549.3882 161.245,873.7709 0,450.0108 -82.497,823.1448 -249.368,1119.4019 -164.995,296.2571 -380.614,515.6374 -641.232,654.3907 -262.492,138.7533 -541.859,211.8801 -838.101,219.3803 -305.616,-16.8754 -560.609,-84.377 -766.853,-202.5049 l -404.989,652.5157 404.989,650.6406 c 283.117,-112.5027 558.734,-168.7541 826.851,-168.7541 337.491,0 633.733,97.5024 888.725,290.632 254.993,191.2546 448.113,442.5106 581.234,750.018 133.121,307.5074 198.744,624.39 198.744,952.5229 0,360.0086 -78.747,693.7664 -238.118,1003.149 -161.245,307.507 -386.239,555.013 -678.731,738.767 -292.492,183.755 -628.107,277.507 -1004.971,277.507 -438.738,-20.625 -808.103,-123.753 -1102.469,-313.132 -294.367,-189.38 -442.488,-470.637 -442.488,-841.8956 18.75,-176.254 84.373,-316.882 198.745,-418.1347 112.497,-105.0025 236.243,-161.2539 367.489,-170.6291 163.121,0 309.367,56.2513 434.988,170.6291 125.621,112.5027 189.37,251.2557 189.37,420.0097 0,65.6268 -15,125.6278 -44.999,181.8796 -28.124,56.251 -73.123,120.003 -134.996,193.129 -59.999,73.127 -103.122,127.503 -125.622,163.129 -22.499,35.626 -39.374,78.752 -50.623,133.128 0,67.502 43.124,123.753 131.246,170.63 86.248,46.876 196.869,73.126 329.991,82.502 419.988,-18.751 699.355,-195.005 839.976,-530.638 140.621,-335.6328 209.994,-753.7679 209.994,-1258.155 0,-438.7605 -50.624,-823.1447 -149.996,-1155.0277 -99.372,-330.0079 -316.866,-495.0119 -650.606,-495.0119 -298.117,0 -528.735,129.3781 -689.981,386.2593 -161.245,255.0061 -264.367,556.8884 -309.366,901.8966 -48.749,-290.6319 -127.497,-571.8887 -238.118,-845.6453 -110.622,-271.8815 -238.119,-511.8872 -384.365,-718.1422 -144.37,-204.3799 -336.262,-423.0621 -461.236,-565.2228 157.652,-173.1977 354.241,-380.1679 487.486,-601.0552 z"
         class="fil1 str1"
         sodipodi:nodetypes="ccccsscsccccsccccscsscscscccsccccccscsscscsccccsccccccsscscccccc" />
    </g>
  </g>
  <g
     inkscape:groupmode="layer"
     id="layer11"
     inkscape:label="Fermata">
    <g
       id="layer1-8"
       transform="matrix(0.11218209,-0.03613428,0.03613887,0.11219637,516.21884,114.03178)">
      <path
         id="path1884"
         style="fill:#000000;fill-opacity:1;fill-rule:evenodd;stroke:none"
         transform="matrix(2.375,0,0,1.9,-391.25,-445.376)"
         d="m 290,457.36218 c 0,13.80712 -8.95431,25 -20,25 -11.04569,0 -20,-11.19288 -20,-25 0,-13.80712 8.95431,-25 20,-25 11.04569,0 20,11.19288 20,25 l 0,0 z"
         inkscape:connector-curvature="0" />
      <path
         id="path2772"
         style="fill:#000000"
         d="m 15,467.36218 c 20,-135 115,-255 235,-255 120,0 215,120 235,255 1,5 -24,5 -25,0 -25,-95 -90,-185 -210,-185 -120,0 -185,90 -210,185 -1,5 -26,5 -25,0 z"
         inkscape:connector-curvature="0" />
    </g>
  </g>
  <g
     inkscape:groupmode="layer"
     id="layer12"
     inkscape:label="Cuff">
    <rect
       style="opacity:0.89655175;fill:#000000;fill-opacity:1;stroke:none"
       id="rect4379"
       width="29.776541"
       height="239.40614"
       x="420.22345"
       y="531.79431" />
    <rect
       y="531.79431"
       x="399.51532"
       height="239.40614"
       width="6.5430298"
       id="rect4383"
       style="opacity:0.89655175;fill:#000000;fill-opacity:1;stroke:none" />
  </g>
</svg>
